<?xml version="1.0" encoding="UTF-8" standalone="no"?>
<!-- Uploaded to: SVG Repo, www.svgrepo.com, Generator: SVG Repo Mixer Tools -->

<svg
   xmlns:dc="http://purl.org/dc/elements/1.1/"
   xmlns:cc="http://creativecommons.org/ns#"
   xmlns:rdf="http://www.w3.org/1999/02/22-rdf-syntax-ns#"
   xmlns:svg="http://www.w3.org/2000/svg"
   xmlns="http://www.w3.org/2000/svg"
   xmlns:sodipodi="http://sodipodi.sourceforge.net/DTD/sodipodi-0.dtd"
   xmlns:inkscape="http://www.inkscape.org/namespaces/inkscape"
   width="22"
   height="22"
   viewBox="0 0 22 22"
   version="1.1"
   id="svg250"
   sodipodi:docname="dice6.svg"
   style="fill:none"
   inkscape:version="0.92.5 (2060ec1f9f, 2020-04-08)">
  <metadata
     id="metadata256">
    <rdf:RDF>
      <cc:Work
         rdf:about="">
        <dc:format>image/svg+xml</dc:format>
        <dc:type
           rdf:resource="http://purl.org/dc/dcmitype/StillImage" />
        <dc:title />
      </cc:Work>
    </rdf:RDF>
  </metadata>
  <defs
     id="defs254" />
  <sodipodi:namedview
     pagecolor="#ffffff"
     bordercolor="#666666"
     borderopacity="1"
     objecttolerance="10"
     gridtolerance="10"
     guidetolerance="10"
     inkscape:pageopacity="0"
     inkscape:pageshadow="2"
     inkscape:window-width="1920"
     inkscape:window-height="1118"
     id="namedview252"
     showgrid="false"
     fit-margin-top="0"
     fit-margin-left="0"
     fit-margin-right="0"
     fit-margin-bottom="0"
     inkscape:zoom="9.8333333"
     inkscape:cx="-8.5254238"
     inkscape:cy="10.59322"
     inkscape:window-x="0"
     inkscape:window-y="24"
     inkscape:window-maximized="1"
     inkscape:current-layer="svg250" />
  <path
     d="m 15.9451,4.05518 c -1.1046,0 -2,0.89543 -2,2 0,1.10457 0.8954,2 2,2 1.1045,0 2,-0.89543 2,-2 0,-1.10457 -0.8955,-2 -2,-2 z"
     id="path236"
     inkscape:connector-curvature="0"
     style="fill:#000000" />
  <path
     d="m 13.9451,15.8921 c 0,-1.1046 0.8954,-2 2,-2 1.1045,0 2,0.8954 2,2 0,1.1046 -0.8955,2 -2,2 -1.1046,0 -2,-0.8954 -2,-2 z"
     id="path238"
     inkscape:connector-curvature="0"
     style="fill:#000000" />
  <path
     d="m 6.05518,13.8921 c -1.10457,0 -2,0.8954 -2,2 0,1.1046 0.89543,2 2,2 1.10457,0 2,-0.8954 2,-2 0,-1.1046 -0.89543,-2 -2,-2 z"
     id="path240"
     inkscape:connector-curvature="0"
     style="fill:#000000" />
  <path
     d="m 4.05518,6.05518 c 0,-1.10457 0.89543,-2 2,-2 1.10457,0 2,0.89543 2,2 0,1.10457 -0.89543,2 -2,2 -1.10457,0 -2,-0.89543 -2,-2 z"
     id="path242"
     inkscape:connector-curvature="0"
     style="fill:#000000" />
  <path
     d="m 15.9451,8.97363 c -1.1046,0 -2,0.89547 -2,1.99997 0,1.1046 0.8954,2 2,2 1.1045,0 2,-0.8954 2,-2 0,-1.1045 -0.8955,-1.99997 -2,-1.99997 z"
     id="path244"
     inkscape:connector-curvature="0"
     style="fill:#000000" />
  <path
     d="m 4.05518,10.9736 c 0,-1.1045 0.89543,-1.99997 2,-1.99997 1.10457,0 2,0.89547 2,1.99997 0,1.1046 -0.89543,2 -2,2 -1.10457,0 -2,-0.8954 -2,-2 z"
     id="path246"
     inkscape:connector-curvature="0"
     style="fill:#000000" />
</svg>
