<?xml version="1.0" encoding="UTF-8" standalone="no"?>
<!-- Created with Inkscape (http://www.inkscape.org/) -->

<svg
   xmlns:dc="http://purl.org/dc/elements/1.1/"
   xmlns:cc="http://creativecommons.org/ns#"
   xmlns:rdf="http://www.w3.org/1999/02/22-rdf-syntax-ns#"
   xmlns:svg="http://www.w3.org/2000/svg"
   xmlns="http://www.w3.org/2000/svg"
   xmlns:sodipodi="http://sodipodi.sourceforge.net/DTD/sodipodi-0.dtd"
   xmlns:inkscape="http://www.inkscape.org/namespaces/inkscape"
   version="1.1"
   id="svg199"
   width="200"
   height="200"
   viewBox="0 0 200 200"
   sodipodi:docname="axe.svg"
   inkscape:version="0.92.5 (2060ec1f9f, 2020-04-08)">
  <metadata
     id="metadata205">
    <rdf:RDF>
      <cc:Work
         rdf:about="">
        <dc:format>image/svg+xml</dc:format>
        <dc:type
           rdf:resource="http://purl.org/dc/dcmitype/StillImage" />
        <dc:title></dc:title>
      </cc:Work>
    </rdf:RDF>
  </metadata>
  <defs
     id="defs203" />
  <sodipodi:namedview
     pagecolor="#ffffff"
     bordercolor="#666666"
     borderopacity="1"
     objecttolerance="10"
     gridtolerance="10"
     guidetolerance="10"
     inkscape:pageopacity="0"
     inkscape:pageshadow="2"
     inkscape:window-width="1920"
     inkscape:window-height="1118"
     id="namedview201"
     showgrid="false"
     inkscape:zoom="2.0099141"
     inkscape:cx="109.39038"
     inkscape:cy="41.960308"
     inkscape:window-x="0"
     inkscape:window-y="24"
     inkscape:window-maximized="1"
     inkscape:current-layer="svg199" />
  <g
     id="g269"
     transform="matrix(3.125,0,0,3.125,50,50)">
    <path
       style="fill:#000000;fill-opacity:0"
       d="M 0,0.5 V 0 H 0.5 1 1.5 2 2.5 3 3.5 4 4.5 5 5.5 6 6.5 7 7.5 8 8.5 9 9.5 10 10.5 11 11.5 12 12.5 13 13.5 14 14.5 15 15.5 16 16.5 17 17.5 18 18.5 19 19.5 20 20.5 21 21.5 22 22.5 23 23.5 24 24.5 25 25.5 26 26.5 27 27.5 28 28.5 29 29.5 30 30.5 31 31.5 32 V 0.5 1 1.5 2 2.5 3 3.5 4 4.5 5 5.5 6 6.5 7 7.5 8 8.5 9 9.5 10 10.5 11 11.5 12 12.5 13 13.5 14 14.5 15 15.5 16 16.5 17 17.5 18 18.5 19 19.5 20 20.5 21 21.5 22 22.5 23 23.5 24 24.5 25 25.5 26 26.5 27 27.5 28 28.5 29 29.5 30 30.5 31 31.5 32 H 31.5 31 30.5 30 29.5 29 28.5 28 27.5 27 26.5 26 25.5 25 24.5 24 23.5 23 22.5 22 21.5 21 20.5 20 19.5 19 18.5 18 17.5 17 16.5 16 15.5 15 14.5 14 13.5 13 12.5 12 11.5 11 10.5 10 9.5 9 8.5 8 7.5 7 6.5 6 5.5 5 V 31.5 Q 5,31 5.5,31 6,31 6,30.5 6,30 6.5,30 7,30 7,29.5 7,29 7.5,29 8,29 8,28.5 8,28 8.5,28 9,28 9,27.5 9,27 9.5,27 10,27 10,26.5 10,26 10.5,26 11,26 11,25.5 11,25 11.5,25 12,25 12,24.5 12,24 12.5,24 13,24 13,23.5 13,23 13.5,23 14,23 14,22.5 14,22 14.5,22 15,22 15,21.5 15,21 15.5,21 16,21 16,20.5 16,20 16.5,20 17,20 17,19.5 17,19 17.5,19 18,19 18,18.5 18,18 18.5,18 19,18 19,17.5 19,17 19.5,17 20,17 20,16.5 20,16 20.5,16 21,16 21,15.5 21,15 21.5,15 22,15 22,14.5 22,14 22.5,14 q 0.5,0 1,0 0.5,0 1,0 0.5,0 0.5,0.5 0,0.5 0.5,0.5 0.5,0 0.875,0.125 0.375,0.125 0.5,0.5 Q 27,16 27.5,16 q 0.5,0 1,0 0.5,0 0.625,-0.375 0.125,-0.375 0.5,-0.5 Q 30,15 30,14.5 30,14 30,13.5 30,13 29.625,12.875 29.25,12.75 29.125,12.375 29,12 29,11.5 29,11 28.625,10.875 28.25,10.75 28.125,10.375 28,10 28,9.5 28,9 27.625,8.875 27.25,8.75 27.125,8.375 27,8 26.5,8 H 26 L 26.125,7.625 Q 26.25,7.25 25.96875,7 L 25.6875,6.75 25.65625,6.8125 25.625,6.875 25.6875,6.75 Q 25.75,6.625 25.75,6.5 V 6.375 6.5625 6.75 6.5 q 0,-0.25 -0.375,-0.375 L 25,6 H 24.5 24 V 5.5 Q 24,5 24,4.5 24,4 24,3.5 24,3 24,2.5 24,2 23.5,2 23,2 22.625,1.875 22.25,1.75 21.96875,2.03125 L 21.6875,2.3125 21.75,2.375 21.8125,2.4375 21.6875,2.3125 Q 21.5625,2.1875 21.375,2.125 L 21.1875,2.0625 21.46875,2.15625 21.75,2.25 21.375,2.125 Q 21,2 20.625,2.125 20.25,2.25 20,2.5 19.75,2.75 19.375,2.875 19,3 18.5,3 18,3 17.625,3.125 17.25,3.25 17,3.5 16.75,3.75 16.375,3.875 16,4 15.625,4.125 15.25,4.25 15,4.5 14.75,4.75 14.5,5 14.25,5.25 14,5.5 13.75,5.75 13.5,6 13.25,6.25 13,6.5 12.75,6.75 12.5,7 12.25,7.25 12,7.5 11.75,7.75 11.5,8 11.25,8.25 11,8.5 10.75,8.75 10.5,9 10.25,9.25 10.125,9.625 10,10 10.125,10.375 L 10.25,10.75 10.15625,10.46875 10.0625,10.1875 10.125,10.375 q 0.0625,0.1875 0.15625,0.28125 L 10.375,10.75 10.32813,10.70313 10.28126,10.65626 10.015635,10.953135 Q 9.75,11.25 9.875,11.625 10,12 10,12.5 10,13 10.5,13 11,13 11,12.5 11,12 11.5,12 q 0.5,0 1,0 0.5,0 0.5,-0.5 0,-0.5 0.5,-0.5 0.5,0 1,0 0.5,0 1,0 0.5,0 1,0 0.5,0 1,0 0.5,0 0.875,-0.125 0.375,-0.125 0.65625,0.15625 l 0.28125,0.28125 0.0625,-0.0625 0.0625,-0.0625 -0.125,0.125 q -0.125,0.125 -0.1875,0.3125 L 19.0625,11.8125 19.15625,11.53125 19.25,11.25 19.125,11.65625 19,12.0625 H 19.09375 19.1875 19 q -0.1875,0 -0.375,0.0625 L 18.4375,12.1875 18.71875,12.09375 19,12 18.625,12.125 Q 18.25,12.25 18,12.5 17.75,12.75 17.5,13 17.25,13.25 17.125,13.625 L 17,14 16.625,14.125 q -0.375,0.125 -0.5,0.5 L 16,15 15.625,15.125 Q 15.25,15.25 15,15.5 14.75,15.75 14.5,16 14.25,16.25 14,16.5 13.75,16.75 13.5,17 13.25,17.25 13.125,17.625 L 13,18 12.625,18.125 Q 12.25,18.25 12,18.5 11.75,18.75 11.5,19 11.25,19.25 11.140625,19.640625 L 11.03125,20.03125 11.140625,20.015625 11.25,20 11.03125,20.03125 Q 10.8125,20.0625 10.625,20.125 L 10.4375,20.1875 10.71875,20.09375 11,20 10.625,20.125 q -0.375,0.125 -0.5,0.53125 L 10,21.0625 H 10.09375 10.1875 10 q -0.1875,0 -0.375,0.0625 L 9.4375,21.1875 9.71875,21.09375 10,21 9.625,21.125 Q 9.25,21.25 9,21.5 8.75,21.75 8.5,22 8.25,22.25 8,22.5 7.75,22.75 7.5,23 7.25,23.25 7,23.5 6.75,23.75 6.5,24 6.25,24.25 6.125,24.625 L 6,25 5.625,25.125 q -0.375,0.125 -0.5,0.5 L 5,26 4.625,26.125 q -0.375,0.125 -0.5,0.5 L 4,27 3.625,27.125 Q 3.25,27.25 3,27.5 2.75,27.75 2.5,28 2.25,28.25 2,28.5 1.75,28.75 1.5,29 1.25,29.25 1.25,29.5 V 29.75 29.5625 29.375 29.5 q 0,0.125 0.09375,0.21875 L 1.4375,29.8125 1.390625,29.765625 1.34375,29.71875 1.046875,29.984375 Q 0.75,30.25 0.875,30.625 1,31 1,31.5 V 32 H 0.5 0 V 31.5 31 30.5 30 29.5 29 28.5 28 27.5 27 26.5 26 25.5 25 24.5 24 23.5 23 22.5 22 21.5 21 20.5 20 19.5 19 18.5 18 17.5 17 16.5 16 15.5 15 14.5 14 13.5 13 12.5 12 11.5 11 10.5 10 9.5 9 8.5 8 7.5 7 6.5 6 5.5 5 4.5 4 3.5 3 2.5 2 1.5 1 0.5"
       id="path209"
       inkscape:connector-curvature="0" />
    <path
       style="fill:#d0d0d0;fill-opacity:1"
       d="M 20,2.5 Q 20.25,2.25 20.625,2.125 21,2 21.375,2.125 21.75,2.25 21.875,2.625 22,3 22,3.5 22,4 21.5,4 21,4 20.5,4 20,4 19.625,4.125 19.25,4.25 19,4.5 18.75,4.75 18.375,4.875 18,5 17.625,5.125 17.25,5.25 17,5.5 16.75,5.75 16.375,5.875 16,6 15.625,6.125 15.25,6.25 15,6.5 14.75,6.75 14.5,7 14.25,7.25 14,7.5 13.75,7.75 13.375,7.875 13,8 12.625,8.125 12.25,8.25 12.125,8.625 L 12,9 11.625,9.125 Q 11.25,9.25 11,9 L 10.75,8.75 11,8.5 Q 11.25,8.25 11.5,8 11.75,7.75 12,7.5 12.25,7.25 12.5,7 12.75,6.75 13,6.5 13.25,6.25 13.5,6 13.75,5.75 14,5.5 14.25,5.25 14.5,5 14.75,4.75 15,4.5 15.25,4.25 15.625,4.125 16,4 16.375,3.875 16.75,3.75 17,3.5 17.25,3.25 17.625,3.125 18,3 18.5,3 19,3 19.375,2.875 19.75,2.75 20,2.5 M 10.9375,8.5625 10.75,8.75 10.6875,8.8125 10.625,8.875 10.75,8.75 Q 10.875,8.625 11,8.5 l 0.125,-0.125 -0.1875,0.1875"
       id="path211"
       inkscape:connector-curvature="0" />
    <path
       style="fill:#000000;fill-opacity:1"
       d="M 21.875,2.625 21.75,2.25 21.84375,2.53125 21.9375,2.8125 21.875,2.625 Q 21.8125,2.4375 21.6875,2.3125 L 21.5625,2.1875 21.625,2.25 21.6875,2.3125 21.96875,2.03125 Q 22.25,1.75 22.625,1.875 23,2 23.5,2 24,2 24,2.5 q 0,0.5 0,1 0,0.5 0,1 0,0.5 0,1 V 6 L 23.625,5.875 Q 23.25,5.75 23,5.5 22.75,5.25 22.5,5 22.25,4.75 22.0625,4.3125 L 21.875,3.875 21.8125,3.9375 21.75,4 21.875,3.875 Q 22,3.75 22,3.5 V 3.25 3.625 4 3.5 Q 22,3 21.875,2.625"
       id="path213"
       inkscape:connector-curvature="0" />
    <path
       style="fill:#606060;fill-opacity:1"
       d="M 19,4.5 Q 19.25,4.25 19.625,4.125 20,4 20.5,4 21,4 21.5,4 H 22 21.625 21.25 21.5 q 0.25,0 0.375,-0.125 L 22,3.75 21.9375,3.8125 21.875,3.875 22.0625,4.3125 22.25,4.75 22.15625,4.46875 22.0625,4.1875 22.125,4.375 q 0.0625,0.1875 0.15625,0.34375 L 22.375,4.875 22.328125,4.796875 22.28125,4.71875 22.015625,4.984375 Q 21.75,5.25 21.375,5.125 21,5 21,5.5 21,6 20.5,6 20,6 19.5,6 19,6 19,6.5 19,7 18.5,7 18,7 17.5,7 17,7 17,7.5 17,8 16.5,8 16,8 15.5,8 15,8 15,8.5 V 9 L 14.625,9.125 Q 14.25,9.25 14,9.5 13.75,9.75 13.375,9.875 13,10 12.5,10 H 12 12.375 12.75 12.5 q -0.25,0 -0.46875,0.03125 L 11.8125,10.0625 11.921875,10.046875 12.03125,10.03125 12.015625,9.515625 12,9 12.125,8.625 Q 12.25,8.25 12.625,8.125 13,8 13.375,7.875 13.75,7.75 14,7.5 14.25,7.25 14.5,7 14.75,6.75 15,6.5 15.25,6.25 15.625,6.125 16,6 16.375,5.875 16.75,5.75 17,5.5 17.25,5.25 17.625,5.125 18,5 18.375,4.875 18.75,4.75 19,4.5"
       id="path215"
       inkscape:connector-curvature="0" />
    <path
       style="fill:#404040;fill-opacity:1"
       d="M 21,5.5 Q 21,5 21.375,5.125 21.75,5.25 22.015625,4.984375 L 22.28125,4.71875 22.234375,4.640625 22.1875,4.5625 22.28125,4.71875 Q 22.375,4.875 22.5,5 L 22.625,5.125 22.4375,4.9375 22.25,4.75 22.5,5 q 0.25,0.25 0.5,0.5 0.25,0.25 0.625,0.375 L 24,6 23.71875,5.90625 23.4375,5.8125 23.625,5.875 q 0.1875,0.0625 0.40625,0.09375 L 24.25,6 24.140625,5.984375 24.03125,5.96875 23.890625,6.359375 Q 23.75,6.75 23.5,7 23.25,7.25 23,7.5 22.75,7.75 22.5,8 22.25,8.25 22,8.5 21.75,8.75 21.5,9 21.25,9.25 21,9.5 20.75,9.75 20.359375,9.890625 L 19.96875,10.03125 19.984375,10.140625 20,10.25 19.96875,10.03125 Q 19.9375,9.8125 19.875,9.625 L 19.8125,9.4375 19.90625,9.71875 20,10 19.875,9.625 Q 19.75,9.25 19.375,9.125 19,9 18.5,9 18,9 17.5,9 17,9 16.5,9 16,9 15.5,9 H 15 V 8.5 Q 15,8 15.5,8 16,8 16.5,8 17,8 17,7.5 17,7 17.5,7 18,7 18.5,7 19,7 19,6.5 19,6 19.5,6 20,6 20.5,6 21,6 21,5.5"
       id="path217"
       inkscape:connector-curvature="0" />
    <path
       style="fill:#707070;fill-opacity:1"
       d="M 23.890625,6.359375 24.03125,5.96875 23.921875,5.953125 23.8125,5.9375 24.03125,5.96875 Q 24.25,6 24.5,6 H 24.75 24.375 24 24.5 25 L 24.875,6.375 Q 24.75,6.75 24.5,7 24.25,7.25 24,7.5 23.75,7.75 23.5,8 23.25,8.25 23,8.5 22.75,8.75 22.5,9 22.25,9.25 22,9.5 21.75,9.75 21.5,10 21.25,10.25 21.125,10.625 L 21,11 H 20.5 20 V 10.5 10 10.375 10.75 10.5 q 0,-0.25 -0.03125,-0.46875 L 19.9375,9.8125 19.95313,9.921875 19.96876,10.03125 20.359385,9.890625 Q 20.75,9.75 21,9.5 21.25,9.25 21.5,9 21.75,8.75 22,8.5 22.25,8.25 22.5,8 22.75,7.75 23,7.5 23.25,7.25 23.5,7 23.75,6.75 23.890625,6.359375"
       id="path219"
       inkscape:connector-curvature="0" />
    <path
       style="fill:#505050;fill-opacity:1"
       d="M 24.875,6.375 25,6 25.375,6.125 Q 25.75,6.25 25.75,6.5 25.75,6.75 25.5,7 25.25,7.25 25,7.5 24.75,7.75 24.5,8 24.25,8.25 24,8.5 23.75,8.75 23.5,9 23.25,9.25 23,9.5 22.75,9.75 22.5,10 22.25,10.25 22,10.5 21.75,10.75 21.375,10.875 L 21,11 21.125,10.625 Q 21.25,10.25 21.5,10 21.75,9.75 22,9.5 22.25,9.25 22.5,9 22.75,8.75 23,8.5 23.25,8.25 23.5,8 23.75,7.75 24,7.5 24.25,7.25 24.5,7 24.75,6.75 24.875,6.375"
       id="path221"
       inkscape:connector-curvature="0" />
    <path
       style="fill:#202020;fill-opacity:1"
       d="M 25,7.5 Q 25.25,7.25 25.5,7 L 25.75,6.75 25.5625,6.9375 25.375,7.125 25.5,7 Q 25.625,6.875 25.6875,6.75 L 25.75,6.625 25.71875,6.6875 25.6875,6.75 25.96875,7 Q 26.25,7.25 26.125,7.625 L 26,8 26.125,8.375 26.25,8.75 26.15625,8.46875 26.0625,8.1875 26.125,8.375 q 0.0625,0.1875 0.15625,0.34375 L 26.375,8.875 26.328125,8.796875 26.28125,8.71875 26.015625,8.984375 Q 25.75,9.25 25.375,9.125 25,9 25,9.5 25,10 24.5,10 24,10 24,10.5 24,11 23.5,11 23,11 23.125,11.375 L 23.25,11.75 23.15625,11.46875 23.0625,11.1875 23.125,11.375 q 0.0625,0.1875 0.1875,0.3125 l 0.125,0.125 L 23.375,11.75 23.3125,11.6875 23.03125,11.96875 Q 22.75,12.25 22.5,12 22.25,11.75 21.953125,12.01563 l -0.296875,0.265625 0.04687,0.04687 L 21.75,12.375 21.65625,12.28125 Q 21.5625,12.1875 21.375,12.125 L 21.1875,12.0625 21.46875,12.15625 21.75,12.25 21.375,12.125 21,12 20.984375,11.484375 20.96875,10.96875 20.859375,10.984375 20.75,11 20.96875,10.96875 Q 21.1875,10.9375 21.375,10.875 L 21.5625,10.8125 21.28125,10.90625 21,11 21.375,10.875 Q 21.75,10.75 22,10.5 22.25,10.25 22.5,10 22.75,9.75 23,9.5 23.25,9.25 23.5,9 23.75,8.75 24,8.5 24.25,8.25 24.5,8 24.75,7.75 25,7.5"
       id="path223"
       inkscape:connector-curvature="0" />
    <path
       style="fill:#000000;fill-opacity:1"
       d="M 26.125,8.375 26,8 h 0.5 q 0.5,0 0.625,0.375 0.125,0.375 0.5,0.5 Q 28,9 28,9.5 q 0,0.5 0.125,0.875 0.125,0.375 0.5,0.5 Q 29,11 29,11.5 q 0,0.5 0.125,0.875 0.125,0.375 0.5,0.5 Q 30,13 30,13.5 q 0,0.5 0,1 0,0.5 -0.375,0.625 -0.375,0.125 -0.5,0.5 Q 29,16 28.5,16 28,16 27.5,16 27,16 26.875,15.625 26.75,15.25 26.375,15.125 26,15 25.5,15 25,15 25,14.5 25,14 24.5,14 24,14 23.5,14 23,14 22.5,14 22,14 22,14.5 22,15 21.5,15 21,15 21,15.5 21,16 20.5,16 20,16 20,16.5 20,17 19.5,17 19,17 19,17.5 19,18 18.5,18 18,18 18,18.5 18,19 17.5,19 17,19 17,19.5 17,20 16.5,20 16,20 16,20.5 16,21 15.5,21 15,21 15,21.5 15,22 14.5,22 14,22 14,22.5 14,23 13.5,23 13,23 13,23.5 13,24 12.5,24 12,24 12,24.5 12,25 11.5,25 11,25 11,25.5 11,26 10.5,26 10,26 10,26.5 10,27 9.5,27 9,27 9,27.5 9,28 8.5,28 8,28 8,28.5 8,29 7.5,29 7,29 7,29.5 7,30 6.5,30 6,30 6,30.5 6,31 5.5,31 5,31 5,31.5 V 32 H 4.5 4 3.5 3 2.5 2 1.5 1 V 31.5 Q 1,31 0.875,30.625 0.75,30.25 1.046875,29.984375 L 1.34375,29.71875 1.296875,29.671875 1.25,29.625 1.34375,29.71875 Q 1.4375,29.8125 1.625,29.875 L 1.8125,29.9375 1.53125,29.84375 1.25,29.75 1.65625,29.875 2.0625,30 V 29.90625 29.8125 30 q 0,0.1875 0.0625,0.375 L 2.1875,30.5625 2.09375,30.28125 2,30 2.125,30.375 q 0.125,0.375 0.5,0.5 Q 3,31 3.375,30.875 3.75,30.75 4,30.5 4.25,30.25 4.5,30 4.75,29.75 4.875,29.375 L 5,29 5.375,28.875 Q 5.75,28.75 6,28.5 6.25,28.25 6.5,28 6.75,27.75 7,27.5 7.25,27.25 7.5,27 7.75,26.75 8,26.5 8.25,26.25 8.5,26 8.75,25.75 8.875,25.375 L 9,25 9.375,24.875 Q 9.75,24.75 10,24.5 10.25,24.25 10.5,24 10.75,23.75 10.875,23.375 L 11,23 11.375,22.875 Q 11.75,22.75 12,22.5 12.25,22.25 12.5,22 12.75,21.75 12.875,21.375 L 13,21 13.375,20.875 Q 13.75,20.75 14,20.5 14.25,20.25 14.5,20 14.75,19.75 15,19.5 15.25,19.25 15.5,19 15.75,18.75 16,18.5 16.25,18.25 16.5,18 16.75,17.75 17,17.5 17.25,17.25 17.5,17 17.75,16.75 18,16.5 18.25,16.25 18.5,16 18.75,15.75 19,15.5 19.25,15.25 19.5,15 19.75,14.75 20,14.5 20.25,14.25 20.5,14 20.75,13.75 20.875,13.375 L 21,13 21.375,12.875 Q 21.75,12.75 21.75,12.5 V 12.25 12.4375 12.625 12.5 q 0,-0.125 -0.09375,-0.21875 l -0.09375,-0.09375 0.04687,0.04687 0.04687,0.04687 0.296875,-0.265625 Q 22.25,11.75 22.5,12 q 0.25,0.25 0.53125,-0.03125 L 23.3125,11.6875 23.25,11.625 l -0.0625,-0.0625 0.125,0.125 q 0.125,0.125 0.3125,0.1875 L 23.8125,11.9375 23.53125,11.84375 23.25,11.75 23.625,11.875 Q 24,12 24.375,12.125 24.75,12.25 25,12.5 q 0.25,0.25 0.5,0.5 0.25,0.25 0.5,0.5 0.25,0.25 0.5,0.5 0.25,0.25 0.5,0.5 0.25,0.25 0.625,0.375 0.375,0.125 0.75,0 0.375,-0.125 0.5,-0.5 Q 29,14 28.875,13.625 28.75,13.25 28.5,13 28.25,12.75 28.125,12.375 28,12 27.875,11.625 27.75,11.25 27.5,11 27.25,10.75 27.125,10.375 27,10 26.875,9.625 26.75,9.25 26.5,9 26.25,8.75 26.125,8.375 M 5.28125,28.90625 5,29 4.90625,29.03125 4.8125,29.0625 5,29 q 0.1875,-0.0625 0.375,-0.125 l 0.1875,-0.0625 -0.28125,0.09375"
       id="path225"
       inkscape:connector-curvature="0" />
    <path
       style="fill:#c0c0c0;fill-opacity:1"
       d="M 10.125,9.625 Q 10.25,9.25 10.5,9 L 10.75,8.75 11,9 q 0.25,0.25 0.625,0.125 L 12,9 12.01563,9.515625 12.03126,10.03125 12.140635,10.01562 12.25,10 12.03125,10.03125 Q 11.8125,10.0625 11.625,10.125 L 11.4375,10.1875 11.71875,10.09375 12,10 11.625,10.125 Q 11.25,10.25 11,10.5 q -0.25,0.25 -0.5,0.25 -0.25,0 -0.375,-0.375 Q 10,10 10.125,9.625 M 10.8125,8.6875 10.75,8.75 10.5625,8.9375 10.375,9.125 10.5,9 q 0.125,-0.125 0.25,-0.25 l 0.125,-0.125 -0.0625,0.0625"
       id="path227"
       inkscape:connector-curvature="0" />
    <path
       style="fill:#000000;fill-opacity:1"
       d="M 14,9.5 Q 14.25,9.25 14.625,9.125 L 15,9 h 0.5 q 0.5,0 1,0 0.5,0 1,0 0.5,0 1,0 0.5,0 0.875,0.125 0.375,0.125 0.5,0.5 Q 20,10 20,10.5 V 11 L 19.625,11.125 19.25,11.25 19.53125,11.15625 19.8125,11.0625 19.625,11.125 q -0.1875,0.0625 -0.3125,0.1875 l -0.125,0.125 0.0625,-0.0625 0.0625,-0.0625 -0.28125,-0.28125 Q 18.75,10.75 18.375,10.875 18,11 17.5,11 q -0.5,0 -1,0 -0.5,0 -1,0 -0.5,0 -1,0 -0.5,0 -1,0 Q 13,11 13,11.5 13,12 12.5,12 12,12 11.5,12 11,12 11,12.5 11,13 10.5,13 10,13 10,12.5 10,12 9.875,11.625 9.75,11.25 10.015625,10.953125 l 0.265625,-0.296875 -0.04687,-0.04687 -0.04687,-0.04687 0.09375,0.09375 Q 10.375,10.75 10.5,10.75 H 10.625 10.4375 10.25 10.5 q 0.25,0 0.5,-0.25 0.25,-0.25 0.625,-0.375 Q 12,10 12.5,10 13,10 13.375,9.875 13.75,9.75 14,9.5"
       id="path229"
       inkscape:connector-curvature="0" />
    <path
       style="fill:#404040;fill-opacity:1"
       d="M 25,9.5 Q 25,9 25.375,9.125 25.75,9.25 26.015625,8.984375 L 26.28125,8.71875 26.234375,8.640625 26.1875,8.5625 26.28125,8.71875 Q 26.375,8.875 26.5,9 L 26.625,9.125 26.4375,8.9375 26.25,8.75 26.5,9 Q 26.75,9.25 26.875,9.625 27,10 27.125,10.375 27.25,10.75 27.5,11 27.75,11.25 27.875,11.625 28,12 28.125,12.375 28.25,12.75 28.5,13 q 0.25,0.25 0.375,0.625 0.125,0.375 0,0.75 -0.125,0.375 -0.5,0.5 Q 28,15 27.625,14.875 27.25,14.75 27,14.5 26.75,14.25 26.5,14 26.25,13.75 26,13.5 25.75,13.25 25.5,13 25.25,12.75 25,12.5 24.75,12.25 24.375,12.125 24,12 23.625,11.875 23.25,11.75 23.125,11.375 23,11 23.5,11 24,11 24,10.5 24,10 24.5,10 25,10 25,9.5"
       id="path231"
       inkscape:connector-curvature="0" />
    <path
       style="fill:#804000;fill-opacity:1"
       d="M 19.125,11.65625 Q 19.25,11.25 19.625,11.125 L 20,11 l 0.125,0.375 q 0.125,0.375 0.5,0.5 L 21,12 v 0.5 0.5 l -0.375,0.125 Q 20.25,13.25 20,13.5 19.75,13.75 19.5,14 19.25,14.25 19,14.5 18.75,14.75 18.5,15 18.25,15.25 18,15.5 17.75,15.75 17.5,16 17.25,16.25 17,16.5 16.75,16.75 16.375,16.875 L 16,17 16.125,16.625 Q 16.25,16.25 16.5,16 16.75,15.75 17,15.5 17.25,15.25 17.5,15 17.75,14.75 18,14.5 18.25,14.25 18.5,14 18.75,13.75 18.875,13.375 L 19,13 19.375,12.875 Q 19.75,12.75 19.75,12.5 q 0,-0.25 -0.375,-0.375 L 19,12 19.28125,12.09375 19.5625,12.1875 19.375,12.125 Q 19.1875,12.0625 19,12.0625 H 18.8125 18.90625 19 l 0.125,-0.40625 m 0.15625,1.25 L 19,13 18.90625,13.03125 18.8125,13.0625 19,13 q 0.1875,-0.0625 0.375,-0.125 l 0.1875,-0.0625 -0.28125,0.09375 m -3.1875,3.8125 L 16,17 15.96875,17.09375 15.9375,17.1875 16,17 q 0.0625,-0.1875 0.125,-0.375 l 0.0625,-0.1875 -0.09375,0.28125"
       id="path233"
       inkscape:connector-curvature="0" />
    <path
       style="fill:#a05000;fill-opacity:1"
       d="M 20.125,11.375 20,11 H 20.5 21 20.625 20.25 20.5 q 0.25,0 0.46875,-0.03125 L 21.1875,10.9375 21.078125,10.95313 20.96875,10.96876 20.98438,11.484385 21,12 20.625,11.875 q -0.375,-0.125 -0.5,-0.5"
       id="path235"
       inkscape:connector-curvature="0" />
    <path
       style="fill:#a05000;fill-opacity:1"
       d="m 18,12.5 q 0.25,-0.25 0.625,-0.375 0.375,-0.125 0.75,0 0.375,0.125 0.375,0.375 0,0.25 -0.375,0.375 Q 19,13 18.625,13.125 18.25,13.25 18,13.5 17.75,13.75 17.375,13.875 L 17,14 17.125,13.625 Q 17.25,13.25 17.5,13 17.75,12.75 18,12.5"
       id="path237"
       inkscape:connector-curvature="0" />
    <path
       style="fill:#603000;fill-opacity:1"
       d="M 21,12.5 V 12 l 0.375,0.125 q 0.375,0.125 0.375,0.375 0,0.25 -0.375,0.375 L 21,13 v -0.5"
       id="path239"
       inkscape:connector-curvature="0" />
    <path
       style="fill:#603000;fill-opacity:1"
       d="m 18,13.5 q 0.25,-0.25 0.625,-0.375 L 19,13 18.875,13.375 Q 18.75,13.75 18.5,14 18.25,14.25 18,14.5 17.75,14.75 17.5,15 17.25,15.25 17,15.5 16.75,15.75 16.5,16 16.25,16.25 16.125,16.625 16,17 15.875,17.375 15.75,17.75 15.375,17.875 15,18 14.625,18.125 14.25,18.25 14,18.5 13.75,18.75 13.5,19 13.25,19.25 13,19.5 12.75,19.75 12.375,19.875 L 12,20 12.28125,19.90625 12.5625,19.8125 12.375,19.875 q -0.1875,0.0625 -0.40625,0.09375 L 11.75,20 11.859375,19.98437 11.96875,19.96874 12.109375,19.609365 Q 12.25,19.25 12.5,19 12.75,18.75 12.875,18.375 L 13,18 13.375,17.875 Q 13.75,17.75 14,17.5 14.25,17.25 14.5,17 14.75,16.75 15,16.5 15.25,16.25 15.5,16 15.75,15.75 15.875,15.375 L 16,15 16.375,14.875 q 0.375,-0.125 0.5,-0.5 L 17,14 17.375,13.875 Q 17.75,13.75 18,13.5 M 19.09375,12.96875 19,13 18.71875,13.09375 18.4375,13.1875 18.625,13.125 Q 18.8125,13.0625 19,13 l 0.1875,-0.0625 -0.09375,0.03125"
       id="path241"
       inkscape:connector-curvature="0" />
    <path
       style="fill:#402000;fill-opacity:1"
       d="m 20,13.5 q 0.25,-0.25 0.625,-0.375 L 21,13 20.875,13.375 Q 20.75,13.75 20.5,14 20.25,14.25 20,14.5 19.75,14.75 19.5,15 19.25,15.25 19,15.5 18.75,15.75 18.5,16 18.25,16.25 18,16.5 17.75,16.75 17.5,17 17.25,17.25 17,17.5 16.75,17.75 16.5,18 16.25,18.25 16,18.5 15.75,18.75 15.5,19 15.25,19.25 15,19.5 14.75,19.75 14.5,20 14.25,20.25 14,20.5 13.75,20.75 13.375,20.875 L 13,21 13.125,20.625 Q 13.25,20.25 13.5,20 13.75,19.75 14,19.5 14.25,19.25 14.5,19 14.75,18.75 14.875,18.375 L 15,18 15.375,17.875 q 0.375,-0.125 0.5,-0.5 L 16,17 16.375,16.875 Q 16.75,16.75 17,16.5 17.25,16.25 17.5,16 17.75,15.75 18,15.5 18.25,15.25 18.5,15 18.75,14.75 19,14.5 19.25,14.25 19.5,14 19.75,13.75 20,13.5 M 16.03125,16.90625 16,17 15.90625,17.28125 15.8125,17.5625 15.875,17.375 Q 15.9375,17.1875 16,17 l 0.0625,-0.1875 -0.03125,0.09375 m -0.75,1 L 15,18 14.90625,18.03125 14.8125,18.0625 15,18 q 0.1875,-0.0625 0.375,-0.125 l 0.1875,-0.0625 -0.28125,0.09375"
       id="path243"
       inkscape:connector-curvature="0" />
    <path
       style="fill:#c06000;fill-opacity:1"
       d="m 16.125,14.625 q 0.125,-0.375 0.5,-0.5 L 17,14 16.875,14.375 q -0.125,0.375 -0.5,0.5 L 16,15 16.125,14.625"
       id="path245"
       inkscape:connector-curvature="0" />
    <path
       style="fill:#a05000;fill-opacity:1"
       d="m 15,15.5 q 0.25,-0.25 0.625,-0.375 L 16,15 15.875,15.375 Q 15.75,15.75 15.5,16 15.25,16.25 15,16.5 14.75,16.75 14.5,17 14.25,17.25 14,17.5 13.75,17.75 13.375,17.875 L 13,18 13.125,17.625 Q 13.25,17.25 13.5,17 13.75,16.75 14,16.5 14.25,16.25 14.5,16 14.75,15.75 15,15.5"
       id="path247"
       inkscape:connector-curvature="0" />
    <path
       style="fill:#c06000;fill-opacity:1"
       d="m 12,18.5 q 0.25,-0.25 0.625,-0.375 L 13,18 12.875,18.375 Q 12.75,18.75 12.5,19 12.25,19.25 12.109375,19.609375 L 11.96875,19.96875 12.078125,19.953125 12.1875,19.9375 11.96875,19.96875 Q 11.75,20 11.5,20 H 11.25 11.625 12 11.5 11 11.375 11.75 11.5 q -0.25,0 -0.46875,0.03125 l -0.21875,0.03125 0.109375,-0.01563 0.109375,-0.01563 0.109375,-0.390625 Q 11.25,19.25 11.5,19 11.75,18.75 12,18.5"
       id="path249"
       inkscape:connector-curvature="0" />
    <path
       style="fill:#804000;fill-opacity:1"
       d="m 14,18.5 q 0.25,-0.25 0.625,-0.375 L 15,18 14.875,18.375 Q 14.75,18.75 14.5,19 14.25,19.25 14,19.5 13.75,19.75 13.5,20 13.25,20.25 13.125,20.625 L 13,21 12.625,21.125 Q 12.25,21.25 12,21.5 11.75,21.75 11.5,22 11.25,22.25 11.125,22.625 L 11,23 10.625,23.125 Q 10.25,23.25 10,23.5 9.75,23.75 9.5,24 9.25,24.25 9.125,24.625 L 9,25 8.625,25.125 Q 8.25,25.25 8,25.5 7.75,25.75 7.5,26 7.25,26.25 7,26.5 6.75,26.75 6.5,27 6.25,27.25 6,27.5 q -0.25,0.25 -0.5,0.25 -0.25,0 -0.25,-0.25 0,-0.25 0.25,-0.5 0.25,-0.25 0.25,-0.5 0,-0.25 -0.375,-0.375 L 5,26 5.125,25.625 q 0.125,-0.375 0.5,-0.5 L 6,25 6.125,25.375 Q 6.25,25.75 6.5,25.75 6.75,25.75 7,25.5 7.25,25.25 7.5,25 7.75,24.75 8,24.5 8.25,24.25 8.5,24 8.75,23.75 9,23.5 9.25,23.25 9.5,23 9.75,22.75 9.875,22.375 L 10,22 10.375,21.875 Q 10.75,21.75 10.75,21.5 q 0,-0.25 -0.375,-0.375 L 10,21 10.28125,21.09375 10.5625,21.1875 10.375,21.125 Q 10.1875,21.0625 10,21.0625 H 9.8125 9.90625 10 l 0.125,-0.40625 Q 10.25,20.25 10.625,20.125 11,20 11.5,20 12,20 12.375,19.875 12.75,19.75 13,19.5 13.25,19.25 13.5,19 13.75,18.75 14,18.5 M 10.28125,21.90625 10,22 9.90625,22.03125 9.8125,22.0625 10,22 q 0.1875,-0.0625 0.375,-0.125 l 0.1875,-0.0625 -0.28125,0.09375 m 4.8125,-3.9375 L 15,18 14.71875,18.09375 14.4375,18.1875 14.625,18.125 Q 14.8125,18.0625 15,18 l 0.1875,-0.0625 -0.09375,0.03125"
       id="path251"
       inkscape:connector-curvature="0" />
    <path
       style="fill:#a05000;fill-opacity:1"
       d="m 9,21.5 q 0.25,-0.25 0.625,-0.375 0.375,-0.125 0.75,0 0.375,0.125 0.375,0.375 0,0.25 -0.375,0.375 Q 10,22 9.625,22.125 9.25,22.25 9,22.5 8.75,22.75 8.5,23 8.25,23.25 8,23.5 7.75,23.75 7.5,24 7.25,24.25 7,24.5 6.75,24.75 6.375,24.875 L 6,25 6.125,24.625 Q 6.25,24.25 6.5,24 6.75,23.75 7,23.5 7.25,23.25 7.5,23 7.75,22.75 8,22.5 8.25,22.25 8.5,22 8.75,21.75 9,21.5"
       id="path253"
       inkscape:connector-curvature="0" />
    <path
       style="fill:#181800;fill-opacity:1"
       d="m 12,21.5 q 0.25,-0.25 0.625,-0.375 L 13,21 12.875,21.375 Q 12.75,21.75 12.5,22 12.25,22.25 12,22.5 11.75,22.75 11.375,22.875 L 11,23 11.125,22.625 Q 11.25,22.25 11.5,22 11.75,21.75 12,21.5"
       id="path255"
       inkscape:connector-curvature="0" />
    <path
       style="fill:#603000;fill-opacity:1"
       d="M 9,22.5 Q 9.25,22.25 9.625,22.125 L 10,22 9.875,22.375 Q 9.75,22.75 9.5,23 9.25,23.25 9,23.5 8.75,23.75 8.5,24 8.25,24.25 8,24.5 7.75,24.75 7.5,25 7.25,25.25 7,25.5 6.75,25.75 6.5,25.75 6.25,25.75 6.125,25.375 L 6,25 6.375,24.875 Q 6.75,24.75 7,24.5 7.25,24.25 7.5,24 7.75,23.75 8,23.5 8.25,23.25 8.5,23 8.75,22.75 9,22.5 M 10.09375,21.96875 10,22 9.71875,22.09375 9.4375,22.1875 9.625,22.125 Q 9.8125,22.0625 10,22 l 0.1875,-0.0625 -0.09375,0.03125"
       id="path257"
       inkscape:connector-curvature="0" />
    <path
       style="fill:#402000;fill-opacity:1"
       d="m 10,23.5 q 0.25,-0.25 0.625,-0.375 L 11,23 10.875,23.375 Q 10.75,23.75 10.5,24 10.25,24.25 10,24.5 9.75,24.75 9.375,24.875 L 9,25 9.125,24.625 Q 9.25,24.25 9.5,24 9.75,23.75 10,23.5"
       id="path259"
       inkscape:connector-curvature="0" />
    <path
       style="fill:#603000;fill-opacity:1"
       d="M 8,25.5 Q 8.25,25.25 8.625,25.125 L 9,25 8.875,25.375 Q 8.75,25.75 8.5,26 8.25,26.25 8,26.5 7.75,26.75 7.5,27 7.25,27.25 7,27.5 6.75,27.75 6.5,28 6.25,28.25 6,28.5 5.75,28.75 5.375,28.875 5,29 4.625,29.125 4.25,29.25 4,29.5 3.75,29.75 3.5,30 3.25,30.25 3.125,30.59375 L 3,30.9375 H 3.09375 3.1875 3 q -0.1875,0 -0.375,-0.0625 L 2.4375,30.8125 2.71875,30.90625 3,31 2.625,30.875 Q 2.25,30.75 2.125,30.375 2,30 2.125,29.625 2.25,29.25 2.5,29 2.75,28.75 3,28.5 3.25,28.25 3.5,28 3.75,27.75 3.875,27.375 L 4,27 4.375,26.875 q 0.375,-0.125 0.5,-0.5 L 5,26 5.375,26.125 Q 5.75,26.25 5.75,26.5 q 0,0.25 -0.25,0.5 -0.25,0.25 -0.25,0.5 0,0.25 0.25,0.25 0.25,0 0.5,-0.25 Q 6.25,27.25 6.5,27 6.75,26.75 7,26.5 7.25,26.25 7.5,26 7.75,25.75 8,25.5"
       id="path261"
       inkscape:connector-curvature="0" />
    <path
       style="fill:#a05000;fill-opacity:1"
       d="m 4.125,26.625 q 0.125,-0.375 0.5,-0.5 L 5,26 4.875,26.375 q -0.125,0.375 -0.5,0.5 L 4,27 4.125,26.625"
       id="path263"
       inkscape:connector-curvature="0" />
    <path
       style="fill:#804000;fill-opacity:1"
       d="M 3,27.5 Q 3.25,27.25 3.625,27.125 L 4,27 3.875,27.375 Q 3.75,27.75 3.5,28 3.25,28.25 3,28.5 2.75,28.75 2.5,29 2.25,29.25 2.125,29.625 L 2,30 2.09375,29.71875 2.1875,29.4375 2.125,29.625 Q 2.0625,29.8125 2.0625,30 V 30.1875 30.09375 30 L 1.65625,29.875 Q 1.25,29.75 1.25,29.5 1.25,29.25 1.5,29 1.75,28.75 2,28.5 2.25,28.25 2.5,28 2.75,27.75 3,27.5"
       id="path265"
       inkscape:connector-curvature="0" />
    <path
       style="fill:#402000;fill-opacity:1"
       d="M 4,29.5 Q 4.25,29.25 4.625,29.125 L 5,29 4.875,29.375 Q 4.75,29.75 4.5,30 4.25,30.25 4,30.5 3.75,30.75 3.375,30.875 L 3,31 3.28125,30.90625 3.5625,30.8125 3.375,30.875 Q 3.1875,30.9375 3,30.9375 H 2.8125 2.90625 3 L 3.125,30.59375 Q 3.25,30.25 3.5,30 3.75,29.75 4,29.5 M 5.09375,28.96875 5,29 4.71875,29.09375 4.4375,29.1875 4.625,29.125 Q 4.8125,29.0625 5,29 l 0.1875,-0.0625 -0.09375,0.03125"
       id="path267"
       inkscape:connector-curvature="0" />
  </g>
</svg>
