<?xml version="1.0" encoding="UTF-8" standalone="no"?>
<!-- Created with Inkscape (http://www.inkscape.org/) -->

<svg
   xmlns:dc="http://purl.org/dc/elements/1.1/"
   xmlns:cc="http://creativecommons.org/ns#"
   xmlns:rdf="http://www.w3.org/1999/02/22-rdf-syntax-ns#"
   xmlns:svg="http://www.w3.org/2000/svg"
   xmlns="http://www.w3.org/2000/svg"
   xmlns:sodipodi="http://sodipodi.sourceforge.net/DTD/sodipodi-0.dtd"
   xmlns:inkscape="http://www.inkscape.org/namespaces/inkscape"
   version="1.1"
   id="svg869"
   width="200"
   height="200"
   viewBox="0 0 200 200"
   sodipodi:docname="back.svg"
   inkscape:version="0.92.5 (2060ec1f9f, 2020-04-08)">
  <metadata
     id="metadata875">
    <rdf:RDF>
      <cc:Work
         rdf:about="">
        <dc:format>image/svg+xml</dc:format>
        <dc:type
           rdf:resource="http://purl.org/dc/dcmitype/StillImage" />
        <dc:title />
      </cc:Work>
    </rdf:RDF>
  </metadata>
  <defs
     id="defs873">
    <filter
       style="color-interpolation-filters:sRGB;"
       inkscape:label="Colorize"
       id="filter1816">
      <feComposite
         in2="SourceGraphic"
         operator="arithmetic"
         k1="0"
         k2="1"
         result="composite1"
         id="feComposite1802" />
      <feColorMatrix
         in="composite1"
         values="0"
         type="saturate"
         result="colormatrix1"
         id="feColorMatrix1804" />
      <feFlood
         flood-opacity="1"
         flood-color="rgb(246,240,154)"
         result="flood1"
         id="feFlood1806" />
      <feBlend
         in="flood1"
         in2="colormatrix1"
         mode="multiply"
         result="blend1"
         id="feBlend1808" />
      <feBlend
         in2="blend1"
         mode="screen"
         result="blend2"
         id="feBlend1810" />
      <feColorMatrix
         in="blend2"
         values="1"
         type="saturate"
         result="colormatrix2"
         id="feColorMatrix1812" />
      <feComposite
         in="colormatrix2"
         in2="SourceGraphic"
         operator="in"
         k2="1"
         result="composite2"
         id="feComposite1814" />
    </filter>
  </defs>
  <sodipodi:namedview
     pagecolor="#ffffff"
     bordercolor="#666666"
     borderopacity="1"
     objecttolerance="10"
     gridtolerance="10"
     guidetolerance="10"
     inkscape:pageopacity="0"
     inkscape:pageshadow="2"
     inkscape:window-width="1920"
     inkscape:window-height="1118"
     id="namedview871"
     showgrid="false"
     inkscape:pagecheckerboard="true"
     inkscape:zoom="2"
     inkscape:cx="-75.990371"
     inkscape:cy="50.430164"
     inkscape:window-x="0"
     inkscape:window-y="24"
     inkscape:window-maximized="1"
     inkscape:current-layer="layer1" />
  <g
     transform="matrix(1.5769926,0,0,1.5769926,11.893725,30.859686)"
     id="g1633"
     style="display:inline;opacity:0.45833333;filter:url(#filter1816)">
    <path
       style="display:inline;fill:#769098;stroke-width:1.33333337"
       d="m 65.044327,87.947811 -8.377659,-0.05219 -4.113085,-1.790837 -4.113085,-1.790839 -2.886915,-3.670117 -2.886915,-3.670117 0.01302,-3.486856 L 42.692719,70 l 3.370545,-7.240828 3.370546,-7.240828 -0.739908,-1.928169 -0.739909,-1.92817 1.514058,-1.824328 1.514057,-1.824328 -2.230165,-3.403662 -2.230166,-3.403663 -4.260888,-2.598028 -4.260888,-2.598028 -3.369992,-0.005 L 31.260017,36 28.296676,38.075605 25.333334,40.151211 25.304051,37.075605 25.274769,34 l -2.524032,-5.559091 -2.524031,-5.55909 -2.929431,-1.567784 -2.929431,-1.567784 -3.183922,0.608645 -3.1839218,0.608645 v -2.215104 -2.215104 l 1.44622,-1.44622 1.4462198,-1.44622 -0.44622,-3.15378 L 10,7.3333333 4.6666668,6.8921433 -0.66666669,6.4509532 6.6666669,3.2790236 14,0.10709397 21.333334,0.09707479 28.666668,0.0870556 35.407989,2.4177347 42.149312,4.7484137 47.717288,9.3742069 53.285266,14 l 0.02403,1.62482 0.02403,1.62482 -1.916477,-0.735421 -1.916478,-0.73542 -2.854549,5.59538 -2.854551,5.59538 3.767408,3.932326 3.767407,3.932326 0.838677,-3.750439 0.838676,-3.750439 L 53.97771,25 l 0.974262,-2.333333 -2.475985,-0.10247 -2.475985,-0.102468 5.226466,-1.576933 5.226469,-1.576933 0.622132,-1.866398 0.622133,-1.866397 -2.181933,0.837287 -2.181934,0.837285 0.0051,-1.62482 0.0051,-1.62482 6.209911,-5.0252693 6.20991,-5.0252692 7.299101,-2.1219063 7.299102,-2.12190636 7.656364,0.5538114 7.656366,0.55381141 3.829491,2.52302325 3.82949,2.5230234 L 104,6.6882056 100.66667,7.5170929 100.98996,13.758547 101.31325,20 h -3.383898 -3.383894 l -3.163034,3.163033 -3.163033,3.163034 -1.435592,5.1703 -1.435591,5.1703 -0.0074,1.742272 -0.0074,1.742272 L 82.369995,38.075605 79.406653,36 l -3.369992,0.005 -3.369992,0.005 -4.379416,2.670109 -4.379416,2.67011 -1.119392,2.991573 -1.119392,2.991573 1.498808,0.969563 1.498808,0.969561 2.500305,-0.779073 2.500307,-0.779075 -0.91233,1.476179 -0.912328,1.476179 h 1.729517 1.729516 l -4.984161,3.546282 -4.98416,3.546282 v 2.616977 2.616977 l -1.941593,-1.611378 -1.941594,-1.61138 -1.410793,0.871918 -1.410793,0.871918 -2.753431,5.397169 -2.753429,5.397169 0.819938,3.266896 0.819939,3.266896 4.576387,1.912138 4.576387,1.912136 h 7.093638 7.093638 l 5.938426,-3 5.938424,-3 3.010762,-4.530511 3.010762,-4.530511 V 65.905123 64.204601 L 88.548144,60.1023 85.096287,56 h 1.333333 1.333333 l 3.451858,4.1023 3.451859,4.102301 v 3.851304 3.851306 l -4.213307,4.79869 -4.213307,4.798691 -6.409035,3.247704 L 73.421985,88 Z m -1.974878,-57.06854 3.872865,-3.872866 -1.479739,-2.764917 -1.479737,-2.764916 -3.324752,3.081275 -3.324751,3.081274 v 2.624884 2.624884 l 0.931624,0.931624 0.931624,0.931624 z m 21.170174,26.454062 -0.906287,2 -3.211208,-3 -3.21121,-3 h 2.61121 2.611208 l 1.6,-1.6 1.6,-1.6 -0.09371,2.6 -0.09372,2.6 -0.906285,2 z"
       id="path1649"
       inkscape:connector-curvature="0" />
    <path
       style="display:inline;fill:#83a856;stroke-width:1.33333337"
       d="m 65.044327,87.947811 -8.377659,-0.05219 -4.113085,-1.790837 -4.113085,-1.790839 -2.886915,-3.670117 -2.886915,-3.670117 0.01302,-3.486856 L 42.692719,70 l 3.370545,-7.240828 3.370546,-7.240828 -0.739908,-1.928169 -0.739909,-1.92817 1.514058,-1.824328 1.514057,-1.824328 -2.230165,-3.403662 -2.230166,-3.403663 -4.260888,-2.598028 -4.260888,-2.598028 -3.369992,-0.005 L 31.260017,36 28.296676,38.075605 25.333334,40.151211 25.304051,37.075605 25.274769,34 l -2.524032,-5.559091 -2.524031,-5.55909 -2.929431,-1.567784 -2.929431,-1.567784 -3.183922,0.608645 -3.1839218,0.608645 v -2.215104 -2.215104 l 1.44622,-1.44622 1.4462198,-1.44622 -0.44622,-3.15378 L 10,7.3333333 4.6666668,6.8921433 -0.66666669,6.4509532 6.6666669,3.2790236 14,0.10709397 21.333334,0.09707479 28.666668,0.0870556 35.407989,2.4177347 42.149312,4.7484137 47.717288,9.3742069 53.285266,14 l 0.02403,1.62482 0.02403,1.62482 -1.916477,-0.735421 -1.916478,-0.73542 -2.854549,5.59538 -2.854551,5.59538 3.767408,3.932326 3.767407,3.932326 0.838677,-3.750439 0.838676,-3.750439 L 53.97771,25 l 0.974262,-2.333333 -2.475985,-0.10247 -2.475985,-0.102468 5.333333,-1.678501 5.333334,-1.678501 0.984728,0.516886 0.984726,0.516888 -0.82345,-2.145878 -0.823451,-2.145878 -1.827943,0.701448 -1.827944,0.701447 0.0051,-1.62482 0.0051,-1.62482 6.209911,-5.0252693 6.20991,-5.0252692 7.299101,-2.1219063 7.299102,-2.12190636 7.656364,0.5538114 7.656366,0.55381141 3.829491,2.52302325 3.82949,2.5230234 L 104,6.6882056 100.66667,7.5170929 100.98996,13.758547 101.31325,20 h -3.383898 -3.383894 l -3.163034,3.163033 -3.163033,3.163034 -1.435592,5.1703 -1.435591,5.1703 -0.0074,1.742272 -0.0074,1.742272 L 82.369995,38.075605 79.406653,36 l -3.369992,0.0049 -3.369992,0.0049 -4.379416,2.670109 -4.379416,2.670109 -1.125091,2.991574 -1.125089,2.991573 1.17948,0.447213 1.17948,0.447214 -0.835878,1.352477 -0.835876,1.352477 2.739914,-1.466357 L 67.824691,48 h 0.833012 0.833011 l -0.824045,1.333333 -0.824046,1.333334 h 1.729517 1.729516 l -4.984161,3.546282 -4.98416,3.546282 v 2.616977 2.616977 l -1.941593,-1.611378 -1.941594,-1.61138 -1.410793,0.871918 -1.410793,0.871918 -2.753431,5.397169 -2.753429,5.397169 0.819938,3.266896 0.819939,3.266896 4.576387,1.912138 4.576387,1.912136 h 7.093638 7.093638 l 5.938426,-3 5.938424,-3 3.010762,-4.530511 3.010762,-4.530511 V 65.905123 64.204601 L 88.548144,60.1023 85.096287,56 h 1.333333 1.333333 l 3.451858,4.1023 3.451859,4.102301 v 3.851304 3.851306 l -4.213307,4.79869 -4.213307,4.798691 -6.409035,3.247704 L 73.421985,88 Z m 0.289008,-1.491671 h 3.333334 l -1.666667,-0.672515 -1.666667,-0.672514 -1.666666,0.672514 -1.666667,0.672515 z m -6.666667,-1.122807 h 1.777778 l -0.888888,-0.888889 -0.88889,-0.888888 -0.888889,0.888888 -0.888888,0.888889 z m 14.399548,-0.105262 1.73288,0.105262 3.933786,-2.03424 3.933787,-2.03424 V 80.598187 79.93152 l -3.666667,1.851299 -3.666666,1.8513 -2,0.744344 -2,0.744344 1.73288,0.105266 z M 54.666668,84 h 1.777778 L 55.555558,83.111111 54.666668,82.222223 53.777779,83.111111 52.888891,84 Z M 51.37916,82.666667 h 0.530907 l -2.786933,-4.7235 -2.786934,-4.7235 0.794112,-4.943167 0.794112,-4.943167 -1.275128,2 -1.275127,2 -0.02042,3.794174 -0.02042,3.794172 2.757459,3.872494 2.757458,3.872494 z m 8.032865,-40 h 1.92131 v -0.511159 -0.511157 l -2.668507,-0.697831 -2.668506,-0.697829 0.747196,1.208988 0.747196,1.208988 z m -4.07869,-4 h 0.666667 V 38 37.333333 H 55.333335 54.666668 V 38 38.666667 Z m -14,-2.751571 0.666666,-0.0038 -3.147712,-2.622306 -3.147712,-2.622308 h -1.022361 -1.022363 l -1.819469,2.192328 -1.819471,2.192326 2.962639,-0.940304 2.962637,-0.940305 2.36024,1.374099 2.360239,1.3741 0.666667,-0.0039 z m 30.383698,-1.247011 3.050363,-1.482482 2.939181,0.93286 2.93918,0.932858 -1.819471,-2.192326 -1.819469,-2.192328 h -1.022363 -1.022361 l -3.147712,2.74195 -3.147712,2.74195 z m -8.647584,-3.788814 3.872865,-3.872866 -1.479739,-2.764917 -1.479737,-2.764916 -3.324752,3.081275 -3.324751,3.081274 v 2.624884 2.624884 l 0.931624,0.931624 0.931624,0.931624 z m -34.606676,-7.433478 4.252379,-4.11246 -0.07741,-0.275389 -0.07741,-0.275388 -5.417977,1.608721 L 21.724379,22 l 1.243007,2.779127 1.243007,2.779126 z M 87.061167,25.333333 88.749685,22 l -4.708174,-1.646592 -4.708175,-1.646591 -0.272727,-0.02008 -0.272728,-0.02007 3.272728,3.272726 3.272727,3.272728 0.01966,1.727272 0.01966,1.727274 z M 9.797169,18.666667 h 0.64542 L 14.666667,13.333333 18.890746,8 h -2.11204 -2.112039 v 1.4608393 1.4608397 l -2.757459,3.872494 -2.7574589,3.872494 z m 41.536166,-4 h 0.666667 V 14 13.333333 H 51.333335 50.666668 V 14 14.666667 Z m 8,0 h 0.666667 V 14 13.333333 H 59.333335 58.666668 V 14 14.666667 Z m 38.565753,0 h 0.100915 V 11.333333 8 h -3.232419 -3.232418 l 3.131504,3.333333 3.131504,3.333334 h 0.10092 z m -13.659465,42.666666 -0.906287,2 -3.211208,-3 -3.21121,-3 h 2.61121 2.611208 l 1.6,-1.6 1.6,-1.6 -0.09371,2.6 -0.09372,2.6 -0.906285,2 z"
       id="path1647"
       inkscape:connector-curvature="0" />
    <path
       style="display:inline;fill:#4f6172;stroke-width:1.33333337"
       d="m 65.044327,87.947811 -8.377659,-0.05219 -4.113085,-1.790837 -4.113085,-1.790839 -2.886915,-3.670117 -2.886915,-3.670117 0.01302,-3.486856 L 42.692719,70 l 3.370545,-7.240828 3.370546,-7.240828 -0.739908,-1.928169 -0.739909,-1.92817 1.514058,-1.824328 1.514057,-1.824328 -2.230165,-3.403662 -2.230166,-3.403663 -4.260888,-2.598028 -4.260888,-2.598028 -3.369992,-0.005 L 31.260017,36 28.296676,38.075605 25.333334,40.151211 25.304051,37.075605 25.274769,34 l -2.524032,-5.559091 -2.524031,-5.55909 -2.929431,-1.567784 -2.929431,-1.567784 -3.183922,0.608645 -3.1839218,0.608645 v -2.215104 -2.215104 l 1.44622,-1.44622 1.4462198,-1.44622 -0.44622,-3.15378 L 10,7.3333333 4.6666668,6.8921433 -0.66666669,6.4509532 6.6666669,3.2790236 14,0.10709397 21.333334,0.09707479 28.666668,0.0870556 35.407989,2.4177347 42.149312,4.7484137 47.717288,9.3742069 53.285266,14 l 0.02403,1.62482 0.02403,1.62482 -1.916477,-0.735421 -1.916478,-0.73542 -2.854549,5.59538 -2.854551,5.59538 3.767408,3.932326 3.767407,3.932326 0.838677,-3.750439 0.838676,-3.750439 L 53.97771,25 l 0.974262,-2.333333 -2.475985,-0.10247 -2.475985,-0.102468 5.333333,-1.678501 5.333334,-1.678501 0.984728,0.516886 0.984726,0.516888 -0.82345,-2.145878 -0.823451,-2.145878 -1.827943,0.701448 -1.827944,0.701447 0.0051,-1.62482 0.0051,-1.62482 6.209911,-5.0252693 6.20991,-5.0252692 7.299101,-2.1219063 7.299102,-2.12190636 7.656364,0.5538114 7.656366,0.55381141 3.829491,2.52302325 3.82949,2.5230234 L 104,6.6882056 100.66667,7.5170929 100.98996,13.758547 101.31325,20 h -3.383898 -3.383894 l -3.163034,3.163033 -3.163033,3.163034 -1.435592,5.1703 -1.435591,5.1703 -0.0074,1.742272 -0.0074,1.742272 L 82.369995,38.075605 79.406653,36 l -3.369992,0.0049 -3.369992,0.0049 -4.379416,2.670109 -4.379416,2.670109 -1.125091,2.991574 -1.125089,2.991573 1.17948,0.447213 1.17948,0.447214 -0.835878,1.352477 -0.835876,1.352477 2.739914,-1.466357 L 67.824691,48 h 0.833012 0.833011 l -0.824045,1.333333 -0.824046,1.333334 h 1.729517 1.729516 l -4.984161,3.546282 -4.98416,3.546282 v 2.616977 2.616977 l -1.941593,-1.611378 -1.941594,-1.61138 -1.410793,0.871918 -1.410793,0.871918 -2.753431,5.397169 -2.753429,5.397169 0.819938,3.266896 0.819939,3.266896 4.576387,1.912138 4.576387,1.912136 h 7.093638 7.093638 l 5.938426,-3 5.938424,-3 3.010762,-4.530511 3.010762,-4.530511 V 65.905123 64.204601 L 88.548144,60.1023 85.096287,56 h 1.333333 1.333333 l 3.451858,4.1023 3.451859,4.102301 v 3.851304 3.851306 l -4.213307,4.79869 -4.213307,4.798691 -6.409035,3.247704 L 73.421985,88 Z m 0.289008,-1.491671 h 3.333334 l -1.666667,-0.672515 -1.666667,-0.672514 -1.666666,0.672514 -1.666667,0.672515 z m -6.666667,-1.122807 h 1.777778 l -0.888888,-0.888889 -0.88889,-0.888888 -0.888889,0.888888 -0.888888,0.888889 z m 14.399548,-0.105262 1.73288,0.105262 3.933786,-2.03424 3.933787,-2.03424 V 80.598187 79.93152 l -3.666667,1.851299 -3.666666,1.8513 -2,0.744344 -2,0.744344 1.73288,0.105266 z M 54.666668,84 h 1.777778 L 55.555558,83.111111 54.666668,82.222223 53.777779,83.111111 52.888891,84 Z M 51.37916,82.666667 h 0.530907 l -2.786933,-4.7235 -2.786934,-4.7235 0.794112,-4.943167 0.794112,-4.943167 -1.275128,2 -1.275127,2 -0.02042,3.794174 -0.02042,3.794172 2.757459,3.872494 2.757458,3.872494 z m 8.032865,-40 h 1.92131 v -0.511159 -0.511157 l -2.668507,-0.697831 -2.668506,-0.697829 0.747196,1.208988 0.747196,1.208988 z m -4.07869,-4 h 0.666667 V 38 37.333333 H 55.333335 54.666668 V 38 38.666667 Z m -14,-2.751571 0.666666,-0.0038 -3.147712,-2.622306 -3.147712,-2.622308 h -1.022361 -1.022363 l -1.819469,2.192328 -1.819471,2.192326 2.962639,-0.940304 2.962637,-0.940305 2.36024,1.374099 2.360239,1.3741 0.666667,-0.0039 z m 30.383698,-1.247011 3.050363,-1.482482 2.939181,0.93286 2.93918,0.932858 -1.819471,-2.192326 -1.819469,-2.192328 h -1.022363 -1.022361 l -3.147712,2.74195 -3.147712,2.74195 z m -8.647584,-3.788814 3.872865,-3.872866 -1.479739,-2.764917 -1.479737,-2.764916 -3.324752,3.081275 -3.324751,3.081274 v 2.624884 2.624884 l 0.931624,0.931624 0.931624,0.931624 z m -34.606676,-7.433478 4.252379,-4.11246 -0.07741,-0.275389 -0.07741,-0.275388 -5.417977,1.608721 L 21.724379,22 l 1.243007,2.779127 1.243007,2.779126 z M 87.061167,25.333333 88.749685,22 l -4.708174,-1.646592 -4.708175,-1.646591 -0.272727,-0.02008 -0.272728,-0.02007 3.272728,3.272726 3.272727,3.272728 0.01966,1.727272 0.01966,1.727274 z M 58.666668,22.666667 h 1.777778 l -0.888888,-0.88889 -0.88889,-0.888888 -0.888889,0.888888 -0.888888,0.88889 z m -48.869499,-4 h 0.64542 L 14.666667,13.333333 18.890746,8 h -2.11204 -2.112039 v 1.4608393 1.4608397 l -2.757459,3.872494 -2.7574589,3.872494 z m 41.536166,-4 h 0.666667 V 14 13.333333 H 51.333335 50.666668 V 14 14.666667 Z m 8,0 h 0.666667 V 14 13.333333 H 59.333335 58.666668 V 14 14.666667 Z m 38.565753,0 h 0.100915 V 11.333333 8 h -3.232419 -3.232418 l 3.131504,3.333333 3.131504,3.333334 h 0.10092 z m -13.659465,42.666666 -0.906287,2 -3.211208,-3 -3.21121,-3 h 2.61121 2.611208 l 1.6,-1.6 1.6,-1.6 -0.09371,2.6 -0.09372,2.6 -0.906285,2 z"
       id="path1645"
       inkscape:connector-curvature="0" />
    <path
       style="display:inline;fill:#363a50;stroke-width:1.33333337"
       d="m 65.044327,87.947811 -8.377659,-0.05219 -4.113085,-1.790837 -4.113085,-1.790839 -2.886915,-3.670117 -2.886915,-3.670117 0.01307,-3.486856 L 42.692801,70 l 3.348692,-7.193661 3.348694,-7.19366 -0.749288,-2.360798 -0.749288,-2.360796 1.593581,-0.984888 1.593582,-0.984886 -1.078772,1.745356 -1.07869,1.745356 1.59576,-0.986234 1.59576,-0.986234 -2.461837,-4.215247 -2.461836,-4.215247 -4.458423,-3.00453 L 38.272313,36 h -3.506148 -3.506148 l -2.963341,2.075605 -2.963342,2.075606 -0.02928,-3.075606 L 25.274769,34 l -2.524032,-5.559091 -2.524031,-5.55909 -2.929431,-1.567784 -2.929431,-1.567784 -3.183922,0.608645 -3.1839218,0.608645 v -2.215104 -2.215104 l 1.44622,-1.44622 1.4462198,-1.44622 -0.44622,-3.15378 L 10,7.3333333 4.6666668,6.8921433 -0.66666669,6.4509532 6.6666669,3.2790236 14,0.10709397 20.409574,0.05354699 26.819148,0 l 5.9072,1.4874501 5.9072,1.4874502 -0.719357,1.163944 -0.719358,1.163944 2.287978,-0.8779791 2.287977,-0.8779792 -1.091405,1.7659297 -1.091404,1.7659296 1.53701,-0.9499244 1.53701,-0.9499244 5.311633,4.4105798 L 53.285266,14 l 0.02403,1.62482 0.02403,1.62482 -1.916477,-0.735421 -1.916478,-0.73542 -2.854549,5.59538 -2.854551,5.59538 3.456361,3.607664 3.456363,3.607664 -1.018668,1.121324 -1.018668,1.121324 1.512939,-0.864115 1.512939,-0.864115 0.631822,-3.682985 0.631822,-3.682987 0.95314,-2.216713 0.95314,-2.216715 L 52.54015,22.449953 50.21783,22 l 5.891085,-1.565788 5.891087,-1.565788 -2.588173,1.899121 -2.588173,1.899122 h 1.424914 1.424913 l 1.420323,-1.711384 1.420323,-1.711386 -1.107992,-1.792769 -1.107992,-1.792769 -1.482406,0.916177 -1.482404,0.916176 0.02404,-1.745356 L 57.381404,14 62.693038,9.5894203 68.004671,5.1788405 69.541681,6.1287649 71.078692,7.0786893 69.987288,5.3127597 68.895882,3.54683 71.18386,4.4248092 73.471837,5.3027883 72.738969,4.1169836 72.006101,2.9311789 78.769213,1.3087335 85.532324,-0.313712 92.643343,0.27598897 99.754362,0.86568993 103.54385,3.3625041 107.33334,5.8593183 104,6.6882056 100.66667,7.5170929 100.98996,13.758547 101.31325,20 h -3.383898 -3.383894 l -3.163034,3.163033 -3.163033,3.163034 -1.435592,5.1703 -1.435591,5.1703 -0.0074,1.742272 -0.0074,1.742272 L 82.369995,38.075605 79.406653,36 l -3.369992,0.005 -3.369992,0.005 -4.379416,2.670109 -4.379416,2.67011 -1.119392,2.991573 -1.119392,2.991573 1.498808,0.969563 1.498808,0.969561 2.500305,-0.779073 2.500307,-0.779075 -0.91233,1.476179 -0.912328,1.476179 h 1.729517 1.729516 l -4.984161,3.546282 -4.98416,3.546282 v 2.532408 2.532406 l -1.355082,-0.837486 -1.355083,-0.837488 0.849319,-1.374227 0.849318,-1.374225 -2.823215,1.510938 -2.823214,1.510938 -2.776838,5.443053 -2.776838,5.443053 0.819938,3.266896 0.819939,3.266896 4.576387,1.912138 4.576387,1.912136 h 7.093638 7.093638 l 5.938426,-3 5.938424,-3 3.010762,-4.530511 3.010762,-4.530511 V 65.905123 64.204601 L 88.548144,60.1023 85.096287,56 h 1.333333 1.333333 l 3.451858,4.1023 3.451859,4.102301 v 3.851304 3.851306 l -4.213307,4.79869 -4.213307,4.798691 -6.409035,3.247704 L 73.421985,88 Z m 2.452203,-1.892111 6.829862,-0.494573 5.170138,-2.658454 5.170139,-2.658452 3.997206,-4.455444 3.997205,-4.455444 -4.663872,4.184063 -4.663872,4.184063 -4,1.991606 -4,1.991607 -5.646628,0.938143 -5.646627,0.938141 -6.501286,-2.15938 -6.501287,-2.15938 -2.364741,-4.391061 -2.364743,-4.39106 1.645541,-4.98604 1.645542,-4.98604 -0.782051,-0.782051 -0.78205,-0.782051 -2.017502,4.828562 -2.017503,4.828562 v 1.99643 1.99643 l 3.958262,4.508211 3.958261,4.508211 4.375072,1.479986 4.375073,1.479987 z M 51.333335,60 h 0.666667 V 59.333333 58.666667 H 51.333335 50.666668 V 59.333333 60 Z m 6.587977,-8 h 0.587978 l 0.824045,-1.333333 0.824046,-1.333334 H 58.745358 57.333335 V 50.666667 52 Z m 4.745357,0 h 1.333333 V 50.666667 49.333333 H 62.666669 61.333335 V 50.666667 52 Z m -8.666667,-1.333333 h 0.666666 V 50 49.333333 H 54.000002 53.333335 V 50 50.666667 Z M 58.666668,48 h 1.333334 V 46.666667 45.333333 H 58.666668 57.333335 V 46.666667 48 Z m 0,-4.947001 2.666667,-0.69735 v -1.92318 -1.923181 l -1.295672,0.800769 -1.295673,0.80077 -3.704327,-2.196067 -3.704328,-2.196068 2.333333,1.954311 2.333334,1.95431 v 2.061518 2.061517 z M 45.657685,37.333333 h 1.21324 L 40.556684,32.513564 34.242442,27.693795 31.855356,30.846897 29.468268,34 l 6.845969,1.024547 6.845968,1.024546 0.64212,0.64212 0.64212,0.64212 z m 24.095784,-1.246618 3.753465,-1.420048 h 3.988583 3.988582 l -2.408715,-4.102512 -2.408715,-4.102512 -1.697189,-1.419414 -1.69719,-1.419412 0.873566,2.276475 0.873565,2.276475 -4.509709,4.665497 -4.50971,4.665497 z M 61.155558,36 h 0.622221 l -0.907556,-0.907556 -0.907557,-0.907557 3.471505,-3.623471 3.471506,-3.623469 -1.46142,-2.730688 -1.461419,-2.730687 -3.324752,3.081275 -3.324751,3.081274 V 30.219561 32.8 l 1.6,1.6 1.6,1.6 z m -34.888865,-8.805905 1.733308,-2.37044 0.0091,-0.745162 0.0091,-0.74516 4.687435,-3.192342 4.687436,-3.192344 L 36.901268,16.456821 36.409441,15.964996 31.58088,17.982497 26.752317,20 h -3.48727 -3.487269 l 0.487228,1 0.487228,1 1.890575,3.782268 1.890574,3.782268 z m 60.603706,-0.489788 1.26244,-3.295692 1.368888,-0.846019 1.368887,-0.846019 -5.768639,-2.000556 -5.768639,-2.000554 -2.666667,-0.999763 -2.666667,-0.999764 4.432619,3.649703 4.432618,3.649702 1.371358,3.492327 L 85.607957,30 Z m -72.074857,-12.505292 5.684455,-4.8656817 2.093336,-0.020417 2.093334,-0.020417 -2,-1.2924993 -2,-1.2924993 -2.666666,0.016199 -2.666667,0.016199 -3.111123,6.1623993 -3.1111232,6.162399 z m 84.537794,1.724124 V 16 11.333333 6.6666667 l -4.666666,0.020417 -4.666667,0.020417 -2,1.2924993 -2,1.2924993 2,0.097278 2,0.097278 4.666667,3.1796117 4.666666,3.179612 v 0.07685 z M 50.666668,14.666667 h 1.777778 l -0.888888,-0.88889 -0.88889,-0.888888 -0.888889,0.888888 -0.888888,0.88889 z m 9.333334,0 h 1.777777 l -0.888888,-0.88889 -0.888889,-0.888888 -0.888889,0.888888 -0.888889,0.88889 z m 24.239621,42.666666 -0.906287,2 -3.211208,-3 -3.21121,-3 h 2.61121 2.611208 l 1.6,-1.6 1.6,-1.6 -0.09371,2.6 -0.09372,2.6 -0.906285,2 z"
       id="path1643"
       inkscape:connector-curvature="0" />
    <path
       style="display:inline;fill:#2f253c;stroke-width:1.33333337"
       d="m 65.044327,87.947811 -8.377659,-0.05219 -4.113085,-1.790837 -4.113085,-1.790839 -2.886915,-3.670117 -2.886915,-3.670117 0.01307,-3.486856 L 42.692801,70 l 3.348692,-7.193661 3.348694,-7.19366 -0.749288,-2.360798 -0.749288,-2.360796 1.593581,-0.984888 1.593582,-0.984886 -1.078772,1.745356 -1.07869,1.745356 1.59576,-0.986234 1.59576,-0.986234 -2.461837,-4.215247 -2.461836,-4.215247 -4.458423,-3.00453 L 38.272313,36 h -3.506148 -3.506148 l -2.963341,2.075605 -2.963342,2.075606 -0.02928,-3.075606 L 25.274769,34 l -2.524032,-5.559091 -2.524031,-5.55909 -2.929431,-1.567784 -2.929431,-1.567784 -3.183922,0.608645 -3.1839218,0.608645 v -2.215104 -2.215104 l 1.44622,-1.44622 1.4462198,-1.44622 -0.44622,-3.15378 L 10,7.3333333 4.6666668,6.8921433 -0.66666669,6.4509532 6.6666669,3.2790236 14,0.10709397 20.757999,0.05354699 27.515998,0 l 6.725294,1.9971977 6.725295,1.9971978 3.586924,2.8214748 3.586924,2.8214746 -0.725316,0.7253151 -0.725315,0.725315 1.485026,1.789346 1.485024,1.789346 h 1.424913 1.424913 l -2.588172,-2.073555 -2.588173,-2.073555 3,1.4538 3,1.4538 v 1.911242 1.911241 l -1.916477,-0.735421 -1.916478,-0.73542 -2.854549,5.59538 -2.854551,5.59538 3.771028,4.161044 3.771027,4.161042 -3.333333,-2.624978 -3.333334,-2.624979 3.916122,4.312489 3.916121,4.31249 h 1.568728 1.568727 L 55.890692,44.333333 56.14502,50 l 0.0602,3.133957 0.0602,3.133958 1.076716,-1.133958 L 58.418854,54 l 1.381083,-5.113427 1.381082,-5.113428 -1.923841,0.738248 -1.923843,0.738247 v -1.291487 -1.291486 h 1.946324 1.946326 l -0.279659,-3.870092 -0.279657,-3.870092 -0.908771,0.559065 -0.908771,0.559065 -2.091229,-2.985648 -2.09123,-2.985648 v 1.010252 1.010254 l 2.153347,3.286421 2.153347,3.286423 H 58.216086 57.45881 l -3.290547,-1.499274 -3.290548,-1.499273 0.44978,-1.500727 0.449779,-1.500726 0.81712,-3.721198 0.81712,-3.721197 1.27897,0.790448 1.278972,0.790448 L 55.204538,24.81182 54.439618,22.818472 52.328724,22.409236 50.21783,22 l 5.849836,-1.559387 5.849836,-1.559388 -3.292084,2.52974 -3.292083,2.529739 1.460016,0.02965 1.460017,0.02965 2.139197,-2.363785 2.139197,-2.363787 -1.116809,-1.807035 -1.116808,-1.807034 -1.482406,0.916177 -1.482404,0.916176 v -2.031777 -2.031778 l 3,-1.4538 3,-1.4538 -2.588173,2.073555 -2.588172,2.073555 h 1.424913 1.424914 l 1.485024,-1.789346 1.485025,-1.789346 -0.725315,-0.725315 -0.725316,-0.7253151 3.613663,-2.8425074 3.613663,-2.8425074 7.304036,-2.1233406 7.304035,-2.12334066 7.656364,0.5538114 7.656366,0.55381141 3.829488,2.52302325 3.82949,2.5230234 L 104,6.6882056 100.66667,7.5170929 100.98996,13.758547 101.31325,20 h -3.383898 -3.383894 l -3.163034,3.163033 -3.163033,3.163034 -1.435592,5.1703 -1.435591,5.1703 -0.0074,1.742272 -0.0074,1.742272 L 82.369995,38.075605 79.406653,36 l -3.369992,0.005 -3.369992,0.005 -4.379416,2.670109 -4.379416,2.67011 -1.119392,2.991573 -1.119392,2.991573 1.498808,0.969563 1.498808,0.969561 2.500305,-0.779073 2.500307,-0.779075 -0.91233,1.476179 -0.912328,1.476179 1.745357,0.02042 1.745356,0.02042 -1.936339,1.224939 -1.936339,1.224939 -1.269673,-0.784702 -1.269672,-0.7847 0.910022,1.472447 0.910022,1.472447 -2.704011,1.447142 -2.704011,1.447144 v 2.698444 2.698444 l -1.275101,-0.788056 -1.275101,-0.788056 0.813434,-2.119776 0.813435,-2.119776 -2.979944,2.49581 L 54.450114,62 l -2.664207,5.154301 -2.664205,5.1543 0.819938,3.266896 0.819939,3.266896 4.576387,1.912138 4.576387,1.912136 h 7.093638 7.093638 l 5.938426,-3 5.938424,-3 3.010762,-4.530511 3.010762,-4.530511 v -1.700522 -1.700522 l -3.591151,-4.267841 -3.591151,-4.26784 -0.742182,1.832207 -0.742183,1.832206 -3.333333,-3.180334 -3.333334,-3.180336 3.626318,0.654393 3.626316,0.654392 -0.648066,-1.048593 -0.648066,-1.048592 1.355082,-0.837488 1.355083,-0.837487 V 52.454644 54.4 l 4.666667,4.666667 4.666667,4.666666 v 4.086939 4.086939 l -4.213307,4.79869 -4.213307,4.798691 -6.409035,3.247704 L 73.421985,88 Z m 2.692419,-1.851103 7.070076,-0.585165 6.652027,-3.758151 6.652026,-3.758149 2.808761,-4.664288 2.808762,-4.664288 -4.436543,5.172198 -4.436543,5.172198 -5.427655,2.465186 -5.427655,2.465186 -7.73288,0.02928 L 58.534242,84 54.63998,81.9862 50.74572,79.972399 49.37286,77.407188 48.000002,74.841977 v -3.508644 -3.508644 l 1.456854,-2.722157 1.456854,-2.722157 -1.303358,-1.303358 -1.303357,-1.303357 -2.402366,6.290507 -2.402366,6.290506 2.582202,4.791402 2.582203,4.791401 6,2.372199 6.000001,2.372198 z m -16.181188,-26.541152 0.888888,-0.888889 -0.888888,-0.88889 -0.88889,-0.888888 v 1.777778 1.777777 z m 10.549343,-6.309281 1.895101,-1.572794 v -1.170074 -1.170074 h -1.177825 -1.177824 l -0.717276,2.742868 -0.717276,2.742868 z m -8.104899,-2.579608 h 0.666666 V 50 49.333333 H 54.000002 53.333335 V 50 50.666667 Z m -2,-9.457363 0.666666,0.09446 -4.666666,-3.607738 -4.666667,-3.60774 -4.226966,-4.521904 -4.226964,-4.521903 -1.355269,0.837603 -1.355271,0.837602 -2.084432,4.178344 -2.084432,4.178343 v 0.377988 0.377989 l 4.333333,-0.703078 4.333334,-0.70308 7.333333,3.344329 7.333334,3.344329 0.666667,0.09445 z m 12.955103,-2.542637 h 0.510657 l 4.14017,-2.140966 4.14017,-2.140965 4.460283,0.723805 4.460284,0.723804 v -1.009508 -1.009508 l -4.784295,-5.589372 -4.784294,-5.589372 -2.722542,-1.45706 -2.72254,-1.45706 2.173502,3.10311 2.173502,3.103108 v 2.321924 2.321924 l -4.65958,3.166266 -4.659579,3.166266 0.881802,0.881802 0.881801,0.881802 z m -4.184038,-4.544818 1.922596,-0.282177 1.586503,-1.586503 1.586503,-1.586502 h -1.096594 -1.096592 l 1.589118,-1.914771 1.589118,-1.914769 -1.434441,-2.680278 -1.43444,-2.680277 -3.324752,3.081275 -3.324751,3.081274 v 2.624884 2.624884 l 0.757569,0.757568 0.757569,0.75757 z m 1.071556,-0.788516 H 61.175957 L 62.000002,32 62.824047,30.666667 h 0.666667 0.666667 L 63.333335,32 62.50929,33.333333 Z m -34.483939,-6.276513 1.616284,-3.844008 5.179182,-4.367933 5.179185,-4.367934 -6.253315,0.725052 -6.253315,0.725054 -3.992704,1.703141 -3.992704,1.703141 3.45055,5.783747 3.450551,5.783748 z m 58.028808,2.608977 0.852416,-0.99913 2.944956,-4.929071 2.944956,-4.929069 -6.973577,-2.070931 -6.973577,-2.070929 h -3.408825 -3.408825 l 4.971637,3.537372 4.971638,3.537372 1.613393,4.461758 1.613392,4.461758 z M 14.219152,14.962072 19.333334,10.948299 24.473977,9.1554415 29.61462,7.3625836 26.473977,6.4808652 23.333334,5.5991468 16.988702,5.46624 10.64407,5.3333333 l 1.508642,2.4157196 1.508642,2.4157191 -2.278192,4.405537 -2.2781916,4.405536 z m 85.114184,2.323311 v 0.04795 -6 -5.9999997 l -6,0.1329067 -6,0.1329067 -3.244652,0.9062716 -3.244651,0.9062716 5.428556,1.7915849 5.428555,1.7915852 3.816096,3.121287 3.816096,3.121285 z M 43.333335,8 h 0.666666 V 7.3333333 6.6666667 H 43.333335 42.666668 V 7.3333333 8 Z m 24,0 h 0.666667 V 7.3333333 6.6666667 H 67.333335 66.666669 V 7.3333333 8 Z M 40.666668,6.6666667 h 0.666667 V 6 5.3333333 H 40.666668 40.000001 V 6 6.6666667 Z m 29.333334,0 h 0.666667 V 6 5.3333333 H 70.000002 69.333336 V 6 6.6666667 Z M 37.333334,5.3333333 h 1.777778 L 38.222224,4.4444444 37.333334,3.5555556 36.444445,4.4444444 35.555557,5.3333333 Z m 36.000002,0 h 1.777777 L 74.222225,4.4444444 73.333336,3.5555556 72.444446,4.4444444 71.555558,5.3333333 Z M 33.333334,4 h 1.777778 L 34.222224,3.1111111 33.333334,2.2222223 32.444445,3.1111111 31.555557,4 Z m 44.000002,0 h 1.777777 L 78.222225,3.1111111 77.333336,2.2222223 76.444446,3.1111111 75.555558,4 Z m -52.666669,-1.6695779 5.333334,0.026908 -2.317788,-0.60677 -2.317788,-0.6067699 -3.015546,0.5798623 -3.015545,0.5798624 z m 61.333336,0 5.333333,0.026908 L 89.015548,1.7505597 86.69776,1.1437898 83.682215,1.7236521 80.666669,2.3035145 Z"
       id="path1641"
       inkscape:connector-curvature="0" />
    <path
       style="display:inline;fill:#2a142b;stroke-width:1.33333337"
       d="m 65.044327,87.947811 -8.377659,-0.05219 -4.113085,-1.790837 -4.113085,-1.790839 -2.886915,-3.670117 -2.886915,-3.670117 0.01307,-3.486856 L 42.692801,70 l 3.348692,-7.193661 3.348694,-7.19366 -0.749288,-2.360798 -0.749288,-2.360796 1.593581,-0.984888 1.593582,-0.984886 -1.078772,1.745356 -1.07869,1.745356 1.59576,-0.986234 1.59576,-0.986234 -2.461837,-4.215247 -2.461836,-4.215247 -4.458423,-3.00453 L 38.272313,36 h -3.506148 -3.506148 l -2.963341,2.075605 -2.963342,2.075606 -0.02928,-3.075606 L 25.274769,34 l -2.524032,-5.559091 -2.524031,-5.55909 -2.929431,-1.567784 -2.929431,-1.567784 -3.183922,0.608645 -3.1839218,0.608645 v -2.215104 -2.215104 l 1.44622,-1.44622 1.4462198,-1.44622 -0.44622,-3.15378 L 10,7.3333333 4.6666668,6.8921433 -0.66666669,6.4509532 6.6666669,3.2790236 14,0.10709397 21.333334,0.09707479 28.666668,0.0870556 35.407989,2.4177347 42.149312,4.7484137 47.717288,9.3742069 53.285266,14 l 0.02403,1.62482 0.02403,1.62482 -1.916477,-0.735421 -1.916478,-0.73542 -2.854549,5.59538 -2.854551,5.59538 3.456361,3.607664 3.456363,3.607664 -0.80102,0.80102 -0.80102,0.801018 3.449019,2.259884 3.449019,2.259884 v 1.292026 1.292026 l -5,-4.044564 -5.000001,-4.044562 -3.936173,-3.223528 -3.936172,-3.223527 2.269505,-3.463704 2.269507,-3.463704 V 20.713577 20 h -1.729403 -1.729402 l -4.857881,5 -4.85788,5 -1.393678,3.703389 -1.393678,3.703388 2.559972,-1.370054 2.559972,-1.370056 h 2.959523 2.959522 l 8.536785,4.774042 8.536787,4.774043 -0.515796,1.547385 -0.515795,1.547387 1.85049,1.850489 1.85049,1.850491 -0.743348,1.828081 -0.743346,1.828082 -0.893252,2.218726 -0.893251,2.218727 1.642161,-1.014912 1.642163,-1.014913 1.055855,-2.87048 1.055855,-2.870482 0.92963,-3.835308 0.929631,-3.835309 -2.401063,0.83858 -2.401063,0.83858 2.454262,-1.905353 2.454261,-1.905354 -0.839229,-2.644177 -0.839229,-2.644179 -1.948366,-1.617 -1.948365,-1.616998 -0.04055,-4.170075 -0.04054,-4.170073 -1.456604,2.507666 -1.456604,2.507668 2.11884,4.443256 2.118842,4.443256 -3.117258,-1.420317 -3.117257,-1.420319 1.008563,-4.197272 1.008562,-4.197272 L 53.944232,25.11662 54.86247,22.899905 52.54015,22.449953 50.21783,22 l 5.891085,-1.538656 5.891087,-1.538656 -3,2.034619 -3,2.034618 v 1.324051 1.324051 l 3.333333,-2.184084 3.333334,-2.184084 v 1.317158 1.317159 l -2.666667,1.427157 -2.666667,1.427158 v 3.207732 3.207732 l 1.1293,0.697945 1.1293,0.697947 3.655855,-3.81589 3.655853,-3.815889 -3.118486,-5.470055 -3.118488,-5.470054 -1.666667,0.624841 -1.666667,0.62484 0.0051,-1.62482 0.0051,-1.62482 6.209911,-5.0252693 6.20991,-5.0252692 7.299101,-2.1219063 7.299102,-2.12190636 7.656364,0.5538114 7.656366,0.55381141 3.829491,2.52302325 3.82949,2.5230234 L 104,6.6882056 100.66667,7.5170929 100.98996,13.758547 101.31325,20 h -3.383898 -3.383894 l -3.163034,3.163033 -3.163033,3.163034 -1.435592,5.1703 -1.435591,5.1703 -0.0074,1.742272 -0.0074,1.742272 L 82.369995,38.075605 79.406653,36 l -3.369992,0.005 -3.369992,0.005 -4.379416,2.670109 -4.379416,2.67011 -1.119392,2.991573 -1.119392,2.991573 1.498808,0.969563 1.498808,0.969561 2.500305,-0.779073 2.500307,-0.779075 -0.91233,1.476179 -0.912328,1.476179 h 1.729517 1.729516 l -4.984161,3.546282 -4.98416,3.546282 v 2.532408 2.532406 l -1.336938,-0.826273 -1.336941,-0.826275 1.55293,-2.919081 1.552928,-2.919083 -3.611566,3.333334 L 54.542183,62 l -2.710241,5.154301 -2.71024,5.1543 0.819938,3.266896 0.819939,3.266896 4.576387,1.912138 4.576387,1.912136 h 7.093638 7.093638 l 5.938426,-3 5.938424,-3 3.010762,-4.530511 3.010762,-4.530511 v -1.700522 -1.700522 l -3.591151,-4.267841 -3.591151,-4.26784 -0.742182,1.832207 -0.742183,1.832206 -3.333333,-3.180334 -3.333334,-3.180336 3.626318,0.654393 3.626316,0.654392 -0.648066,-1.048593 -0.648066,-1.048592 1.355082,-0.837488 1.355083,-0.837487 V 52.454644 54.4 l 4.666667,4.666667 4.666667,4.666666 v 4.086939 4.086939 l -4.213307,4.79869 -4.213307,4.798691 -6.409035,3.247704 L 73.421985,88 Z m 0.289008,-1.332766 7.333334,0.0069 7.301864,-3.676442 7.301863,-3.676441 3.031471,-4.498399 3.031469,-4.498385 -0.005,-1.469489 -0.005,-1.46949 -2.470778,4 -2.470779,4 -2.573035,2.282483 -2.573036,2.282483 -4.908378,2.05085 L 73.418985,84 l -7.042824,-0.0021 -7.042826,-0.0021 -4.652372,-2.331261 -4.652372,-2.331262 -1.267252,-3.654066 -1.267254,-3.654068 2.181726,-4.575124 2.181724,-4.575126 -1.771045,-1.469837 -1.771044,-1.469836 -2.157723,5.392677 -2.157722,5.392678 v 1.91028 1.910281 l 1.639514,3.598341 1.639514,3.598342 5.360486,2.435113 5.360487,2.435113 7.333333,0.0069 z M 52.703511,61.333333 h 0.546131 l -0.789538,-2.057504 -0.789538,-2.057504 -0.635463,0.635463 -0.635463,0.635463 0.87887,1.422041 0.87887,1.422041 z M 52.666668,56 h 0.509288 l 0.824046,-1.333333 0.824045,-1.333334 H 52.666668 50.50929 L 51.333335,54.666667 52.15738,56 Z m 9.333334,-2.666667 2,-1.659852 v 1.575282 1.575282 l 1.343561,-0.830366 1.343562,-0.830367 -2.13123,-2.131228 -2.131228,-2.131229 -1.191916,1.882906 -1.191914,1.882906 -0.02042,1.16326 -0.02042,1.163258 z m -8,-2.666666 h 0.666666 V 50 49.333333 H 54.000002 53.333335 V 50 50.666667 Z m 13.946883,-13.306235 5.280216,-2.693765 h 2.807439 2.80744 l 2.559972,1.370056 2.559972,1.370054 -1.315933,-3.461168 -1.315935,-3.461166 -3.556914,-4.663356 -3.556914,-4.663355 -5.095034,-2.599292 -5.095033,-2.599292 4.320254,6.135288 4.320254,6.135287 -5,4.014465 -5,4.014465 v 1.897772 1.897772 z M 63.626347,33.498583 67.919359,30.542504 68.705037,29.271252 69.490714,28 h -1.162568 -1.162568 l -3.916121,4.227329 -3.916122,4.227331 z m -14.652908,1.168084 h 0.824733 L 46.666668,31.333333 43.535164,28 l -1.434248,0.04213 -1.434248,0.04213 3.741019,3.291199 3.741017,3.291199 z m -20.911354,-7.80702 2.355333,-5.260808 5.100804,-3.466087 5.100805,-3.466085 2.023821,-0.02042 2.02382,-0.02042 -2,-1.292499 -2,-1.292499 -3.333334,-0.02464 -3.333333,-0.02464 -9.571656,2.836915 -9.571658,2.836916 3.732047,3.140311 3.732047,3.140309 1.692985,4.087226 1.692984,4.087225 z m 58.771799,0.803128 2.439783,-4.755626 3.314444,-2.607141 3.314443,-2.607141 -9.617942,-2.850656 -9.617943,-2.850657 -3.333333,0.02464 -3.333334,0.02464 -1.653185,1.049941 -1.653184,1.04994 4.587204,1.658755 4.587204,1.658753 3.399703,4.040319 3.399704,4.040317 0.863327,3.439771 0.863328,3.43977 z m -73.640671,-12.006934 4.261372,-3.585706 5.606041,-1.609004 5.606042,-1.6090041 5.76058,-0.09273 5.76058,-0.09273 L 35.991706,6.9544709 31.795585,5.2422751 20.897793,4.1585653 10,3.0748555 8.2732435,3.7031383 6.5464866,4.3314209 9.2732435,6.2413157 12,8.1512105 v 2.6787165 2.678717 l -1.534078,2.866452 -1.5340793,2.866453 z m 86.389629,1.563308 0.249506,0.114184 -0.728473,-4.489055 -0.728473,-4.4890552 2.872388,-2.0119009 2.87239,-2.011901 -1.72675,-0.6282826 -1.72676,-0.6282828 -10.897793,1.0837098 -10.897792,1.0837098 -4.435541,2.0317872 -4.435542,2.0317872 3.010664,-0.7461598 3.010666,-0.7461597 7.498837,1.6781661 7.498838,1.6781659 4.157164,2.967553 4.157165,2.967552 0.249506,0.114186 z m -48.79884,-2.552482 h 1.468302 l -5.559284,-4.64465 -5.559283,-4.6446499 -6.808869,-2.0220168 -6.80887,-2.022017 -7.424665,0.1810407 -7.424666,0.1810407 9.81736,1.0286992 9.817362,1.0286992 5.632875,2.1512148 5.632876,2.1512148 2.874279,3.3057123 2.87428,3.305712 z m 9.098667,0 h 1.468302 l 2.87428,-3.305712 2.874279,-3.3057123 5.632876,-2.1512148 5.632875,-2.1512148 9.817362,-1.0286992 9.81736,-1.0286992 -7.424666,-0.1810407 -7.424665,-0.1810407 -6.80887,2.022017 -6.808869,2.0220168 -5.559283,4.6446499 -5.559284,4.64465 z m -17.882668,-4 h 0.666667 V 10 9.3333333 H 42.000001 41.333335 V 10 10.666667 Z m 26.666668,0 h 0.666667 V 10 9.3333333 H 68.666669 68.000002 V 10 10.666667 Z"
       id="path1639"
       inkscape:connector-curvature="0" />
    <path
       style="display:inline;fill:#140713;stroke-width:1.33333337"
       d="m 65.044327,87.947811 -8.377659,-0.05219 -4.113085,-1.790837 -4.113085,-1.790839 -2.886915,-3.670117 -2.886915,-3.670117 0.01302,-3.486856 L 42.692719,70 l 3.370545,-7.240828 3.370546,-7.240828 -0.739908,-1.928169 -0.739909,-1.92817 1.514058,-1.824328 1.514057,-1.824328 -2.230165,-3.403662 -2.230166,-3.403663 -4.260888,-2.598028 -4.260888,-2.598028 -3.369992,-0.005 L 31.260017,36 28.296676,38.075605 25.333334,40.151211 25.304051,37.075605 25.274769,34 l -2.524032,-5.559091 -2.524031,-5.55909 -2.929431,-1.567784 -2.929431,-1.567784 -3.183922,0.608645 -3.1839218,0.608645 v -2.215104 -2.215104 l 1.44622,-1.44622 1.4462198,-1.44622 -0.44622,-3.15378 L 10,7.3333333 4.6666668,6.8921433 -0.66666669,6.4509532 6.6666669,3.2790236 14,0.10709397 21.333334,0.09707479 28.666668,0.0870556 35.407989,2.4177347 42.149312,4.7484137 47.717288,9.3742069 53.285266,14 l 0.02403,1.62482 0.02403,1.62482 -1.916477,-0.735421 -1.916478,-0.73542 -2.854549,5.59538 -2.854551,5.59538 3.456361,3.607664 3.456363,3.607664 -1.018668,1.121324 -1.018668,1.121324 1.512939,-0.864115 1.512939,-0.864115 L 52.324368,31.01632 52.95619,27.333333 53.954082,25 l 0.99789,-2.333333 -2.475985,-0.10247 -2.475985,-0.102468 5.226466,-1.576933 5.226469,-1.576933 0.622132,-1.866398 0.622133,-1.866397 -2.181933,0.837287 -2.181934,0.837285 0.0051,-1.62482 0.0051,-1.62482 6.209911,-5.0252693 6.20991,-5.0252692 7.299101,-2.1219063 7.299102,-2.12190636 7.656364,0.5538114 7.656366,0.55381141 3.829491,2.52302325 3.82949,2.5230234 L 104,6.6882056 100.66667,7.5170929 100.98996,13.758547 101.31325,20 h -3.383898 -3.383894 l -3.163034,3.163033 -3.163033,3.163034 -1.435592,5.1703 -1.435591,5.1703 -0.0074,1.742272 -0.0074,1.742272 L 82.369995,38.075605 79.406653,36 l -3.369992,0.005 -3.369992,0.005 -4.379416,2.670109 -4.379416,2.67011 -1.119392,2.991573 -1.119392,2.991573 1.498808,0.969563 1.498808,0.969561 2.500305,-0.779073 2.500307,-0.779075 -0.91233,1.476179 -0.912328,1.476179 h 1.729517 1.729516 l -4.984161,3.546282 -4.98416,3.546282 v 2.616977 2.616977 l -1.941593,-1.611378 -1.941594,-1.61138 -1.410793,0.871918 -1.410793,0.871918 -2.753431,5.397169 -2.753429,5.397169 0.819938,3.266896 0.819939,3.266896 4.576387,1.912138 4.576387,1.912136 h 7.093638 7.093638 l 5.938426,-3 5.938424,-3 3.010762,-4.530511 3.010762,-4.530511 v -1.78182 -1.781786 L 88.039087,59.687703 84.078172,55.333333 84.018665,58 83.959159,60.666667 82.722523,58.711384 81.485876,56.756103 82.629557,55.378051 83.773237,54 l -0.21995,-0.888889 -0.219951,-0.888888 1,-1 1,-1 V 52.311111 54.4 l 4.666667,4.666667 4.666667,4.666666 v 4.086939 4.086939 l -4.213307,4.79869 -4.213307,4.798691 -6.409035,3.247704 L 73.421985,88 Z m 0,-1.333334 8.377658,0.05219 6.448661,-3.267784 6.448661,-3.267783 3.507014,-4.167851 3.507015,-4.16785 -0.005,-2.231032 -0.005,-2.231034 -2.470778,4 -2.470779,4 -2.573035,2.282483 -2.573036,2.282483 -4.908378,2.05085 L 73.418985,84 h -6.752316 -6.752316 l -4.620861,-1.930719 -4.620861,-1.930718 -1.544544,-3.389907 -1.544546,-3.389907 2.39291,-5.306522 2.392909,-5.306524 2.495272,-2.258191 2.495272,-2.258191 2.011395,-6.773101 2.011395,-6.7731 -1.477344,-0.492448 -1.477346,-0.492449 2.55991,-1.515778 2.559908,-1.515778 4.559423,-2.995016 4.559424,-2.995016 3.087655,-0.005 3.087656,-0.005 2.523052,1.350296 2.523051,1.350296 1.356237,-5.016963 1.356237,-5.016963 2.207314,-3.140844 2.207312,-3.140845 4.411187,-1.843111 4.411185,-1.843112 L 99.106479,12.860322 98.375402,8.3552228 101.26145,6.3337543 104.1475,4.3122857 99.874788,2.8228095 95.602074,1.3333333 h -6.225701 -6.225701 l -6.80887,2.022017 -6.808869,2.0220168 -5.559283,4.6446499 -5.559284,4.64465 h 2.050545 2.050547 l 1.742272,-2.446946 1.742272,-2.4469466 10.666667,0.1549741 10.666667,0.1549745 5.666667,2.985737 5.666667,2.985737 v 0.666667 0.666667 l -5.503472,-2.807663 -5.503473,-2.807662 -6.971304,-0.719502 -6.971305,-0.719502 -4.839986,1.59734 -4.839987,1.597339 -0.735665,1.190331 -0.735664,1.190331 2.808921,5.50594 2.80892,5.50594 -2.356365,2.603754 -2.356365,2.603755 -0.480264,2.269368 -0.480263,2.269367 -0.144087,1.7432 -0.144086,1.743198 -3.063162,-3.743198 -3.06316,-3.7432 -0.04795,-2.224284 L 56.000002,28.2181 56.80932,26.109049 57.618639,24 h 1.857348 1.857348 v -0.557617 -0.557616 l 0.872991,-2.274976 0.872989,-2.274975 -3.334156,2.184623 -3.334155,2.184622 -1.538834,3.377374 -1.538835,3.377373 v 2.790272 2.790273 l 2.333333,1.887212 2.333334,1.887211 L 55.087656,37.406888 52.175312,36 l -1.087656,0.02965 -1.087654,0.02965 3.333333,2.748217 3.333333,2.748218 -4.291518,-2.373975 -4.291518,-2.373975 -0.693209,-1.806474 -0.69321,-1.806475 1.651394,0.942133 1.651395,0.942134 -3.926893,-4.217459 -3.926893,-4.217457 2.909564,-5.988759 2.909563,-5.988757 h 2.143481 2.14348 L 46.69302,10.022017 41.133737,5.3773671 34.324868,3.3553503 27.515998,1.3333333 H 21.290297 15.064596 L 10.791882,2.8228095 6.5191671,4.3122857 9.2595838,6.2317481 12,8.1512105 v 3.1790385 3.179039 l -1.333333,0.824045 -1.3333334,0.824046 v 0.970905 0.970904 l 2.7882084,0.210029 2.788208,0.21003 3.367507,2.206476 3.367508,2.206476 2.165641,5.071045 2.165643,5.071047 3.345309,-6.161415 3.34531,-6.161416 4.53051,-3.042396 4.530511,-3.042397 h 2.085343 2.085343 l -5.949187,3 -5.949187,3 L 31.144538,26 l -2.855461,5.333333 -0.937376,3.114436 -0.937375,3.114436 2.705182,-1.447769 2.705182,-1.447769 h 3.132619 3.132618 l 7.28837,4.733365 7.288371,4.733365 -0.364729,1.360822 -0.364729,1.360822 2.84292,2.302056 2.842918,2.302056 -2.953384,4.603756 L 51.71628,60.666667 52.646967,58 l 0.930687,-2.666667 0.34499,-2.852738 0.344992,-2.852739 -2.133817,0.3426 -2.133817,0.342601 0.237058,2.510139 0.237059,2.510137 0.762124,3.829248 0.762124,3.829248 -1.84146,-1.528276 -1.841461,-1.528277 -2.157723,5.392677 -2.157722,5.392678 v 3.009676 3.009677 l 2.17107,3.099636 2.171071,3.099636 4.162262,1.811516 4.162264,1.811516 z M 51.555558,52.888889 50.666668,53.777777 V 52 50.222223 l 0.88889,0.888888 L 52.444446,52 Z m 32.217999,-19.789917 -0.440221,1.073635 -3.333333,-6.75297 -3.333334,-6.75297 -5.949187,-3 -5.949187,-3 h 2.085343 2.085343 l 4.530511,3.051602 4.53051,3.051602 3.106889,5.627733 3.106888,5.627735 z M 41.773259,30.666667 H 41.249641 L 40.499049,28.710652 39.748456,26.754637 40.320259,25.043985 40.892061,23.333333 41.594469,27 l 0.702407,3.666667 z m 27.850687,-1.090611 -1.292804,1.292804 0.768199,-3.767763 0.7682,-3.767764 0.524604,2.47496 0.524604,2.47496 z M 17.280217,14.693765 12,17.387531 v -0.666667 -0.666667 l 5.666667,-2.996195 5.666667,-2.996194 10.132312,-0.0309 L 43.59796,10 41.465647,8.3300617 39.333335,6.6601235 41.586679,7.4420185 43.840023,8.2239136 46.014685,11.54287 48.18935,14.861825 45.515664,13.430913 42.841979,12 H 32.701205 22.560433 Z M 67.921313,9.3333333 H 66.666669 V 8.8093184 8.2853035 l 2.06925,-0.7940459 2.069251,-0.7940459 -0.814606,1.3180608 -0.814607,1.3180608 z m -7.627318,48.3333337 1.446846,-3 h 1.717557 1.717559 l 0.964082,-1.559919 0.964083,-1.559917 -2.150824,0.825348 -2.150823,0.825348 0.741415,-1.932098 0.741416,-1.932096 h -1.345552 -1.345552 l -1.463767,4.198964 -1.463767,4.198966 0.09024,1.467701 0.09024,1.467703 z m -4.96066,-4.333334 h 0.666667 V 52.666667 52 h -0.666667 -0.666667 v 0.666667 0.666666 z m 5.68889,-17.91111 0.533333,-0.533334 -0.444445,-0.67036 -0.444444,-0.670358 3.114237,-3.314954 3.114237,-3.314953 -1.456153,-2.720847 -1.456152,-2.720845 -3.324752,3.081275 -3.324751,3.081274 V 30.219561 32.8 l 1.577778,1.577777 1.577778,1.577779 z M 60.666669,34.666667 H 60.000002 V 34 33.333333 h 0.666667 0.666666 V 34 34.666667 Z M 80.000003,56 h -1.175955 l -0.824046,-1.333333 -0.824045,-1.333334 h 2.824046 2.824045 L 82.000003,54.666667 81.175957,56 Z"
       id="path1637"
       inkscape:connector-curvature="0" />
    <path
       style="display:inline;fill:#020202;stroke-width:1.33333337"
       d="m 65.044327,87.947811 -8.377659,-0.05219 -4.113085,-1.790837 -4.113085,-1.790839 -2.886915,-3.670117 -2.886915,-3.670117 0.0021,-2.153523 0.0021,-2.153521 2.331261,4.666666 L 47.333335,82 l 4.666667,2.331261 4.666666,2.331262 8.377659,0.0021 8.377658,0.002 6.289009,-3.201354 6.289009,-3.201353 2.817908,-3.13198 L 91.635819,74 l 1.47488,-2.666667 1.474881,-2.666666 0.04055,1.620272 0.04054,1.620272 -4.213307,4.79869 -4.213307,4.798691 -6.409035,3.247704 L 73.421985,88 Z M 50.050807,78.666667 H 49.38414 l -0.80057,-3.189728 -0.800571,-3.189728 2.192271,-4.239386 2.192272,-4.239384 -1.56818,-1.88954 -1.568179,-1.88954 -1.315282,0.81289 -1.315281,0.812888 1.569028,-2.931758 1.56903,-2.931756 -0.754066,-1.965064 -0.754065,-1.965062 1.31806,0.814606 1.318061,0.814607 0.0049,3.587977 0.0049,3.587978 L 53.31862,56.333333 55.960704,52 h 0.666667 0.666667 l -2.642084,4.333333 -2.642086,4.333334 -0.0049,1.20665 -0.0049,1.20665 2.697645,-2.441335 2.697644,-2.441336 2.124491,-7.431981 2.124492,-7.431982 2.174716,-2.469838 2.174717,-2.469839 3.603602,-1.863495 3.6036,-1.863494 h 3.144707 3.144708 l 2.588172,2.073554 2.588173,2.073555 L 81.754324,37.406888 78.84198,36 h -3.223811 -3.223812 l -4.451283,3 -4.451284,3 -2.394448,8 -2.394448,8 0.07213,1.333333 0.07213,1.333334 L 60.147509,58 l 1.300348,-2.666667 3.609412,-1.630837 3.6094,-1.630839 -3.666667,3.014258 -3.666667,3.014257 v 2.446507 2.446506 l -1.941593,-1.611378 -1.941594,-1.61138 -1.410793,0.871918 -1.410793,0.871918 -2.753431,5.397169 -2.753429,5.397169 0.797885,3.179034 0.797887,3.179032 z m 41.875121,-15.500958 -0.592592,0.573116 -2.525397,-3.53608 -2.525398,-3.536078 3.11799,2.962962 3.117991,2.962963 z m -8.446827,-3.721265 -0.145765,0.111107 -2.564812,-2.675923 -2.564811,-2.675923 2.196215,0.842767 2.196216,0.842767 1.386913,-2.277955 1.386914,-2.277956 -0.872552,4 -0.872554,4 -0.145764,0.111107 z M 50.000002,50.666667 H 49.333335 V 50 49.333333 h 0.666667 0.666666 V 50 50.666667 Z m 5.333333,0 H 54.666668 V 50 49.333333 h 0.666667 0.666667 V 50 50.666667 Z m 9.333334,0 H 64.000002 V 50 49.333333 h 0.666667 0.666666 V 50 50.666667 Z m 2.666666,0 H 66.666669 V 50 49.333333 h 0.666666 0.666667 V 50 50.666667 Z m -15.788004,-3.100886 -0.51744,0.517442 -2.253057,-3.4386 -2.253057,-3.438599 -4.260888,-2.598028 -4.260888,-2.598028 -3.369992,-0.005 L 31.260017,36 28.460794,37.960652 25.661571,39.921304 24.847199,34.960652 24.032829,30 21.400533,25.717949 18.768237,21.435897 14.384118,20.171533 10,18.907169 l 3.102565,-0.120252 3.102564,-0.12025 3.777145,3.777145 3.777144,3.777144 1.612057,5.380568 1.612058,5.380568 3.606427,-1.361273 3.606425,-1.361274 3.299868,0.828214 3.299867,0.828214 4.871409,3.70868 4.87141,3.70868 0.761916,1.857504 0.761916,1.857504 z m 3.866693,-6.232448 h -0.587977 l -0.951368,-1.539344 -0.951367,-1.539345 1.539346,0.951367 1.539344,0.951368 v 0.587977 0.587977 z m 6.810201,-4.444444 -0.88889,0.888888 V 36 34.222223 l 0.88889,0.888888 L 63.111113,36 Z m -8.917351,-5.555556 -1.031908,4 L 52.183726,32 52.094486,28.666667 54.139331,25.333333 56.184178,22 l -0.923704,2.666667 -0.923703,2.666666 -1.031908,4 z m 33.934211,-1.012634 -1.788701,5.012634 -0.05852,-2.802822 -0.05852,-2.802823 3.028643,-4.530511 3.028644,-4.53051 4.312944,-1.278051 4.312945,-1.278052 -0.82605,-4.403231 -0.826052,-4.4032309 1.647722,-1.9853844 1.64773,-1.9853844 2.17007,0.084515 2.17007,0.084515 -3.09101,1.2395212 -3.091018,1.2395212 0.424348,5.5677493 0.42435,5.567749 -4.165654,1.102887 -4.165652,1.102886 -1.653788,1.992694 -1.65379,1.992693 z M 47.746635,32 h -0.666667 l -2.26756,-2.505627 -2.267561,-2.505625 2.993265,-6.161041 2.993264,-6.16104 H 50.187 51.842623 l 0.814607,1.318061 0.814606,1.31806 -1.985728,-0.761995 -1.985728,-0.761994 -2.842016,5.570812 -2.842016,5.570812 2.298476,2.539789 L 48.413302,32 Z m 17.432671,-2.166849 -3.080323,2.833516 2.390115,-2.889084 2.390115,-2.889084 -1.439606,-2.689927 -1.439605,-2.689928 0.05338,-1.087656 0.05338,-1.087655 2.076429,3.833151 2.076429,3.833151 z M 57.306276,28.5188 56.169032,31.333333 56.084516,29.775716 56.000002,28.2181 56.80932,26.109049 57.618639,24 h 1.746236 1.746238 l 0.672514,-1.666667 0.672515,-1.666666 0.105267,1.708513 0.10526,1.708513 -2.111575,0.810287 -2.111574,0.810287 z m 12.31767,1.057256 -1.292804,1.292804 0.768199,-3.767763 0.7682,-3.767764 0.524604,2.47496 0.524604,2.47496 z M 8.8694251,20 8.2105265,22 8.1052635,19.266667 8.0000002,16.533333 9.4462202,15.087113 10.89244,13.640893 10.44622,10.487113 10,7.3333333 4.6666668,6.6468535 -0.66666669,5.9603735 2.2207691,5.1344491 5.108205,4.3085247 l 3.1007537,1.5458934 3.1007533,1.5458934 0.47666,2.4750938 0.476659,2.4750937 -1.367353,2.82475 L 9.5283236,18 Z m 50.8115929,-3.15054 -2.318984,0.182793 0.731006,-1.182793 0.731007,-1.182793 h 1.810102 1.810102 L 65.179886,11 l 2.735636,-3.6666667 0.04224,0.7409604 0.04224,0.7409606 -3,3.9257057 -3,3.925707 z M 48.745358,12 H 48.15738 l -0.951368,-1.539345 -0.951367,-1.5393443 1.539346,0.9513673 1.539344,0.951367 V 11.412023 12 Z m 13.097265,0 h -0.666666 l 0.824045,-1.333333 0.824045,-1.3333337 h 0.666667 0.666667 L 63.333335,10.666667 62.50929,12 Z"
       id="path1635"
       inkscape:connector-curvature="0" />
  </g>
  <g
     inkscape:groupmode="layer"
     id="layer1"
     inkscape:label="Layer 1"
     style="display:inline">
    <text
       id="text3866"
       y="142.56401"
       x="98.977898"
       style="font-style:normal;font-variant:normal;font-weight:normal;font-stretch:normal;font-size:26.66666603px;line-height:1.25;font-family:Jost;-inkscape-font-specification:Jost;text-align:center;letter-spacing:0px;word-spacing:0px;text-anchor:middle;display:inline;fill:#ffeeaa;fill-opacity:1;stroke:none"
       xml:space="preserve"
       transform="rotate(-0.4353174)"><tspan
         id="tspan3864"
         y="142.56401"
         x="98.977898"
         sodipodi:role="line"
         style="font-style:normal;font-variant:normal;font-weight:bold;font-stretch:normal;font-family:Jost;-inkscape-font-specification:'Jost Bold'">Gandlor's Cave</tspan></text>
  </g>
</svg>
