<?xml version="1.0" encoding="UTF-8" standalone="no"?>
<!-- Created with Inkscape (http://www.inkscape.org/) -->

<svg
   xmlns:dc="http://purl.org/dc/elements/1.1/"
   xmlns:cc="http://creativecommons.org/ns#"
   xmlns:rdf="http://www.w3.org/1999/02/22-rdf-syntax-ns#"
   xmlns:svg="http://www.w3.org/2000/svg"
   xmlns="http://www.w3.org/2000/svg"
   xmlns:sodipodi="http://sodipodi.sourceforge.net/DTD/sodipodi-0.dtd"
   xmlns:inkscape="http://www.inkscape.org/namespaces/inkscape"
   version="1.1"
   id="svg8825"
   width="200"
   height="200"
   viewBox="0 0 200 200"
   sodipodi:docname="fireball.svg"
   inkscape:version="0.92.5 (2060ec1f9f, 2020-04-08)">
  <metadata
     id="metadata8831">
    <rdf:RDF>
      <cc:Work
         rdf:about="">
        <dc:format>image/svg+xml</dc:format>
        <dc:type
           rdf:resource="http://purl.org/dc/dcmitype/StillImage" />
        <dc:title></dc:title>
      </cc:Work>
    </rdf:RDF>
  </metadata>
  <defs
     id="defs8829" />
  <sodipodi:namedview
     pagecolor="#ffffff"
     bordercolor="#666666"
     borderopacity="1"
     objecttolerance="10"
     gridtolerance="10"
     guidetolerance="10"
     inkscape:pageopacity="0"
     inkscape:pageshadow="2"
     inkscape:window-width="1920"
     inkscape:window-height="1118"
     id="namedview8827"
     showgrid="false"
     inkscape:zoom="1.84375"
     inkscape:cx="67.019894"
     inkscape:cy="20.019096"
     inkscape:window-x="0"
     inkscape:window-y="24"
     inkscape:window-maximized="1"
     inkscape:current-layer="svg8825" />
  <g
     transform="matrix(-3.125,0,0,3.125,150,50)"
     id="g8953">
    <path
       style="fill:#000000;fill-opacity:0"
       d="M 0,0.5 V 0 H 0.5 1 1.5 2 2.5 3 3.5 4 4.5 5 5.5 6 6.5 7 7.5 8 8.5 9 9.5 10 10.5 11 11.5 12 12.5 13 13.5 14 14.5 15 15.5 16 16.5 17 17.5 18 18.5 19 19.5 20 20.5 21 21.5 22 22.5 23 23.5 24 24.5 25 25.5 26 26.5 27 27.5 28 28.5 29 29.5 30 30.5 31 31.5 32 V 0.5 1 1.5 2 2.5 3 3.5 4 4.5 5 5.5 6 6.5 7 7.5 8 8.5 9 9.5 10 10.5 11 11.5 12 12.5 13 13.5 14 14.5 15 15.5 16 16.5 17 17.5 18 18.5 19 19.5 20 20.5 21 21.5 22 22.5 23 23.5 24 24.5 25 25.5 26 26.5 27 27.5 28 28.5 29 29.5 30 30.5 31 31.5 32 H 31.5 31 30.5 30 29.5 29 28.5 28 27.5 27 26.5 26 25.5 25 24.5 24 23.5 23 22.5 22 21.5 21 20.5 20 19.5 19 18.5 18 17.5 17 16.5 16 15.5 15 14.5 14 13.5 13 12.5 12 11.5 11 10.5 10 9.5 9 8.5 8 7.5 7 6.5 6 5.5 5 4.5 4 3.5 3 2.5 2 1.5 1 0.5 0 V 31.5 31 30.5 30 29.5 29 28.5 28 27.5 27 26.5 26 25.5 25 24.5 24 23.5 23 22.5 22 21.5 21 20.5 20 19.5 19 18.5 18 17.5 17 16.5 16 15.5 15 14.5 14 13.5 13 12.5 12 11.5 11 10.5 10 9.5 9 8.5 8 7.5 7 6.5 6 5.5 5 4.5 4 3.5 3 2.5 2 1.5 1 0.5 M 14.5,29 q 0.5,0 0.625,-0.375 0.125,-0.375 0.5,-0.5 Q 16,28 16.5,28 q 0.5,0 1,0 0.5,0 0.625,-0.375 0.125,-0.375 0.5,-0.5 0.375,-0.125 0.5,-0.5 0.125,-0.375 0.5,-0.5 0.375,-0.125 0.5,-0.5 0.125,-0.375 0.5,-0.5 0.375,-0.125 0.5,-0.5 0.125,-0.375 0.5,-0.5 0.375,-0.125 0.5,-0.5 0.125,-0.375 0.5,-0.5 0.375,-0.125 0.5,-0.5 0.125,-0.375 0.5,-0.5 0.375,-0.125 0.5,-0.5 0.125,-0.375 0.5,-0.5 Q 25,21 25,20.5 25,20 25.125,19.625 25.25,19.25 25.625,19.125 26,19 26,18.5 26,18 26,17.5 26,17 25.625,16.875 25.25,16.75 25.125,16.375 25,16 25,15.5 25,15 25.125,14.625 25.25,14.25 25.625,14.125 26,14 26,13.5 26,13 26.125,12.625 26.25,12.25 26.625,12.125 27,12 27,11.5 27,11 27.125,10.625 27.25,10.25 27.625,10.125 28,10 28,9.5 28,9 27.625,8.875 27.25,8.75 27.125,8.375 27,8 27.125,7.625 27.25,7.25 27.625,7.125 28,7 28,6.5 28,6 28.125,5.625 28.25,5.25 28.625,5.125 29,5 29.125,4.625 29.25,4.25 29.625,4.125 30,4 30,3.5 30,3 29.625,2.875 29.25,2.75 29.125,2.375 29,2 28.5,2 28,2 27.875,2.375 27.75,2.75 27.375,2.875 27,3 26.875,3.375 26.75,3.75 26.375,3.875 26,4 25.875,4.375 25.75,4.75 25.375,4.875 25,5 25,4.5 25,4 24.625,3.875 24.25,3.75 24.125,3.375 24,3 23.5,3 23,3 22.875,3.375 22.75,3.75 22.375,3.875 22,4 21.875,4.375 21.75,4.75 21.375,4.875 21,5 21,4.5 21,4 20.625,3.875 20.25,3.75 20.125,3.375 20,3 19.5,3 19,3 18.875,3.375 18.75,3.75 18.375,3.875 18,4 17.875,4.375 17.75,4.75 17.375,4.875 17,5 16.5,5 16,5 15.875,5.375 15.75,5.75 15.375,5.875 15,6 14.875,6.375 14.75,6.75 14.375,6.875 14,7 13.5,7 13,7 12.875,7.375 12.75,7.75 12.375,7.875 12,8 11.875,8.375 11.75,8.75 11.375,8.875 11,9 10.5,9 10,9 9.875,9.375 9.75,9.75 9.375,9.875 9,10 8.5,10 8,10 7.875,10.375 7.75,10.75 7.375,10.875 7,11 6.875,11.375 6.75,11.75 6.375,11.875 6,12 5.875,12.375 5.75,12.75 5.375,12.875 5,13 4.875,13.375 4.75,13.75 4.375,13.875 4,14 4,14.5 4,15 4,15.5 4,16 3.875,16.375 3.75,16.75 3.375,16.875 3,17 3,17.5 q 0,0.5 0,1 0,0.5 0,1 0,0.5 0,1 0,0.5 0.375,0.625 0.375,0.125 0.5,0.5 Q 4,22 4,22.5 q 0,0.5 0,1 0,0.5 0.375,0.625 0.375,0.125 0.5,0.5 0.125,0.375 0.5,0.5 0.375,0.125 0.5,0.5 0.125,0.375 0.5,0.5 0.375,0.125 0.5,0.5 0.125,0.375 0.5,0.5 0.375,0.125 0.5,0.5 Q 8,28 8.5,28 q 0.5,0 1,0 0.5,0 0.875,0.125 0.375,0.125 0.5,0.5 Q 11,29 11.5,29 q 0.5,0 1,0 0.5,0 1,0 0.5,0 1,0"
       id="path8835"
       inkscape:connector-curvature="0" />
    <path
       style="fill:#000000;fill-opacity:1"
       d="M 27.875,2.375 Q 28,2 28.5,2 29,2 29.125,2.375 29.25,2.75 29.625,2.875 30,3 30,3.5 30,4 29.625,4.125 29.25,4.25 29.125,4.625 29,5 28.625,5.125 28.25,5.25 28.125,5.625 28,6 28,6.5 28,7 27.625,7.125 27.25,7.25 27.125,7.625 27,8 27.125,8.375 27.25,8.75 27.625,8.875 28,9 28,9.5 q 0,0.5 -0.375,0.625 -0.375,0.125 -0.5,0.5 Q 27,11 27,11.5 q 0,0.5 -0.375,0.625 -0.375,0.125 -0.5,0.5 Q 26,13 26,13.5 q 0,0.5 -0.375,0.625 -0.375,0.125 -0.5,0.5 Q 25,15 25,15.5 q 0,0.5 0.125,0.875 0.125,0.375 0.5,0.5 Q 26,17 26,17.5 q 0,0.5 0,1 0,0.5 -0.375,0.625 -0.375,0.125 -0.5,0.5 Q 25,20 25,20.5 q 0,0.5 -0.375,0.625 -0.375,0.125 -0.5,0.5 -0.125,0.375 -0.5,0.5 -0.375,0.125 -0.5,0.5 -0.125,0.375 -0.5,0.5 -0.375,0.125 -0.5,0.5 -0.125,0.375 -0.5,0.5 -0.375,0.125 -0.5,0.5 -0.125,0.375 -0.5,0.5 -0.375,0.125 -0.5,0.5 -0.125,0.375 -0.5,0.5 -0.375,0.125 -0.5,0.5 -0.125,0.375 -0.5,0.5 -0.375,0.125 -0.5,0.5 Q 18,28 17.5,28 q -0.5,0 -1,0 -0.5,0 -0.875,0.125 -0.375,0.125 -0.5,0.5 Q 15,29 14.5,29 q -0.5,0 -1,0 -0.5,0 -1,0 -0.5,0 -1,0 -0.5,0 -0.625,-0.375 -0.125,-0.375 -0.5,-0.5 Q 10,28 9.5,28 9,28 8.5,28 8,28 7.875,27.625 7.75,27.25 7.375,27.125 7,27 6.875,26.625 6.75,26.25 6.375,26.125 6,26 5.875,25.625 5.75,25.25 5.375,25.125 5,25 4.875,24.625 4.75,24.25 4.375,24.125 4,24 4,23.5 4,23 4,22.5 4,22 3.875,21.625 3.75,21.25 3.375,21.125 3,21 3,20.5 3,20 3,19.5 3,19 3,18.5 3,18 3,17.5 3,17 3.375,16.875 3.75,16.75 3.875,16.375 4,16 4,15.5 4,15 4,14.5 4,14 4.375,13.875 4.75,13.75 4.875,13.375 5,13 5.375,12.875 5.75,12.75 5.875,12.375 6,12 6.375,11.875 6.75,11.75 6.875,11.375 7,11 7.375,10.875 7.75,10.75 7.875,10.375 8,10 8.5,10 9,10 9.375,9.875 9.75,9.75 9.875,9.375 10,9 10.5,9 11,9 11.375,8.875 11.75,8.75 11.875,8.375 12,8 12.375,7.875 12.75,7.75 12.875,7.375 13,7 13.5,7 14,7 14.375,6.875 14.75,6.75 14.875,6.375 15,6 15.375,5.875 15.75,5.75 15.875,5.375 16,5 16.5,5 17,5 17.375,4.875 17.75,4.75 17.875,4.375 18,4 18.375,3.875 18.75,3.75 18.875,3.375 19,3 19.5,3 20,3 20.125,3.375 20.25,3.75 20.625,3.875 21,4 21,4.5 21,5 21.375,4.875 21.75,4.75 21.875,4.375 22,4 22.375,3.875 22.75,3.75 22.875,3.375 23,3 23.5,3 24,3 24.125,3.375 24.25,3.75 24.625,3.875 25,4 25,4.5 25,5 25.375,4.875 25.75,4.75 25.875,4.375 26,4 26.375,3.875 26.75,3.75 26.875,3.375 27,3 27.375,2.875 27.75,2.75 27.875,2.375 M 13.5,28 q 0.5,0 0.875,-0.125 0.375,-0.125 0.5,-0.5 Q 15,27 15.5,27 q 0.5,0 1,0 0.5,0 0.875,-0.125 Q 17.75,26.75 18,26.5 q 0.25,-0.25 0.5,-0.5 0.25,-0.25 0.5,-0.5 0.25,-0.25 0.5,-0.5 0.25,-0.25 0.5,-0.5 0.25,-0.25 0.5,-0.5 0.25,-0.25 0.375,-0.625 0.125,-0.375 0.5,-0.5 0.375,-0.125 0.5,-0.5 L 22,22 22.375,21.875 Q 22.75,21.75 23,21.5 23.25,21.25 23.5,21 23.75,20.75 23.875,20.375 24,20 23.875,19.625 23.75,19.25 23.5,19.25 q -0.25,0 -0.375,0.375 Q 23,20 22.5,20 22,20 22,19.5 22,19 22,18.5 V 18 l 0.375,-0.125 q 0.375,-0.125 0.5,-0.5 Q 23,17 23,16.5 23,16 23.375,15.875 23.75,15.75 23.875,15.375 24,15 24,14.5 24,14 24.375,13.875 24.75,13.75 24.875,13.375 25,13 24.875,12.625 24.75,12.25 24.5,12.25 24.25,12.25 24,12.5 23.75,12.75 23.5,13 23.25,13.25 23,13.5 22.75,13.75 22.5,14 22.25,14.25 22.125,14.625 22,15 22,15.5 22,16 21.5,16 21,16 21,15.5 21,15 21,14.5 21,14 21.125,13.625 21.25,13.25 21.5,13 21.75,12.75 21.875,12.375 22,12 22.375,11.875 22.75,11.75 22.875,11.375 23,11 23,10.5 23,10 23.375,9.875 23.75,9.75 24,9.5 24.25,9.25 24.5,9 24.75,8.75 25,8.5 25.25,8.25 25.5,8 25.75,7.75 26,7.5 26.25,7.25 26.5,7 26.75,6.75 26.875,6.375 27,6 27.125,5.625 27.25,5.25 27.5,5 27.75,4.75 28,4.5 28.25,4.25 28.5,4 28.75,3.75 28.75,3.5 28.75,3.25 28.5,3.25 28.25,3.25 28,3.5 27.75,3.75 27.5,4 27.25,4.25 27,4.5 26.75,4.75 26.5,5 26.25,5.25 26,5.5 25.75,5.75 25.5,6 25.25,6.25 25,6.5 24.75,6.75 24.5,7 24.25,7.25 24.125,7.625 L 24,8 23.625,8.125 Q 23.25,8.25 23,8.5 22.75,8.75 22.5,9 22.25,9.25 22,9.5 21.75,9.75 21.5,10 21.25,10.25 21,10.5 20.75,10.75 20.5,11 20.25,11.25 20.125,11.625 20,12 19.5,12 19,12 18.625,11.875 18.25,11.75 18.125,11.375 18,11 18,10.5 18,10 18.375,9.875 18.75,9.75 19,9.5 19.25,9.25 19.5,9 19.75,8.75 20,8.5 20.25,8.25 20.5,8 20.75,7.75 21,7.5 21.25,7.25 21.625,7.125 22,7 22.375,6.875 22.75,6.75 23,6.5 23.25,6.25 23.5,6 23.75,5.75 23.875,5.375 24,5 23.875,4.625 23.75,4.25 23.5,4.25 23.25,4.25 23,4.5 22.75,4.75 22.5,5 22.25,5.25 22.125,5.625 L 22,6 22.09375,5.71875 22.1875,5.4375 22.125,5.625 Q 22.0625,5.8125 22.03125,6.03125 L 22,6.25 22.015625,6.140625 22.03125,6.03125 21.515625,6.015625 Q 21,6 20.625,6.125 20.25,6.25 20,6.5 19.75,6.75 19.5,7 19.25,7.25 19.125,7.625 L 19,8 18.625,8.125 Q 18.25,8.25 18,8.5 17.75,8.75 17.375,8.875 17,9 16.625,9.125 16.25,9.25 16.125,9.625 16,10 15.625,9.875 15.25,9.75 15.125,9.375 15,9 15.375,8.875 15.75,8.75 16,8.5 16.25,8.25 16.5,8 16.75,7.75 16.875,7.375 L 17,7 16.90625,7.28125 16.8125,7.5625 16.875,7.375 Q 16.9375,7.1875 16.96875,6.96875 L 17,6.75 16.984375,6.859375 16.96875,6.96875 17.359375,6.859375 Q 17.75,6.75 18,6.5 18.25,6.25 18.5,6 18.75,5.75 19,5.5 19.25,5.25 19.5,5 19.75,4.75 19.75,4.5 19.75,4.25 19.5,4.25 19.25,4.25 19,4.5 18.75,4.75 18.5,5 18.25,5.25 18,5.5 17.75,5.75 17.375,5.875 17,6 16.625,6.125 16.25,6.25 16.125,6.625 16,7 15.625,7.125 15.25,7.25 15,7.5 14.75,7.75 14.375,7.875 14,8 13.625,8.125 13.25,8.25 13.125,8.625 L 13,9 12.625,9.125 q -0.375,0.125 -0.5,0.5 L 12,10 H 11.5 Q 11,10 10.625,10.125 10.25,10.25 10,10.5 9.75,10.75 9.375,10.875 9,11 8.625,11.125 8.25,11.25 8,11.5 7.75,11.75 7.5,12 7.25,12.25 7.125,12.625 L 7,13 6.625,13.125 Q 6.25,13.25 6,13.5 5.75,13.75 5.5,14 5.25,14.25 5.125,14.625 5,15 5,15.5 5,16 5,16.5 V 17 L 4.625,17.125 Q 4.25,17.25 4.125,17.625 4,18 4,18.5 4,19 4,19.5 4,20 4.125,20.375 4.25,20.75 4.5,21 4.75,21.25 4.875,21.625 5,22 5,22.5 5,23 5.125,23.375 5.25,23.75 5.5,24 5.75,24.25 6,24.5 6.25,24.75 6.5,25 6.75,25.25 7,25.5 7.25,25.75 7.625,25.875 8,26 8.125,26.375 8.25,26.75 8.625,26.875 9,27 9.5,27 10,27 10.375,27.125 10.75,27.25 11,27.5 11.25,27.75 11.625,27.875 12,28 12.5,28 q 0.5,0 1,0 m 10.625,-9.625 q 0.125,0.375 0.375,0.375 0.25,0 0.375,-0.375 Q 25,18 24.875,17.625 24.75,17.25 24.5,17.25 q -0.25,0 -0.375,0.375 -0.125,0.375 0,0.75 m 1,-7 q 0.125,0.375 0.375,0.375 0.25,0 0.375,-0.375 Q 26,11 26.125,10.625 26.25,10.25 26.5,10 26.75,9.75 26.75,9.5 26.75,9.25 26.5,9.25 26.25,9.25 26,9.5 25.75,9.75 25.5,10 25.25,10.25 25.125,10.625 25,11 25.125,11.375 M 23.71875,8.09375 24,8 24.09375,7.96875 24.1875,7.9375 24,8 q -0.1875,0.0625 -0.375,0.125 l -0.1875,0.0625 0.28125,-0.09375 m -5,0 L 19,8 19.09375,7.96875 19.1875,7.9375 19,8 q -0.1875,0.0625 -0.375,0.125 l -0.1875,0.0625 0.28125,-0.09375"
       id="path8837"
       inkscape:connector-curvature="0" />
    <path
       style="fill:#a00000;fill-opacity:1"
       d="m 28,3.5 q 0.25,-0.25 0.5,-0.25 0.25,0 0.25,0.25 0,0.25 -0.25,0.5 Q 28.25,4.25 28,4.5 27.75,4.75 27.5,5 27.25,5.25 27.125,5.625 L 27,6 26.625,6.125 Q 26.25,6.25 26,6.5 25.75,6.75 25.5,7 25.25,7.25 25,7.5 24.75,7.75 24.375,7.875 L 24,8 24.125,7.625 Q 24.25,7.25 24.5,7 24.75,6.75 25,6.5 25.25,6.25 25.5,6 25.75,5.75 26,5.5 26.25,5.25 26.5,5 26.75,4.75 27,4.5 27.25,4.25 27.5,4 27.75,3.75 28,3.5 M 23.90625,8.03125 24,8 24.28125,7.90625 24.5625,7.8125 24.375,7.875 Q 24.1875,7.9375 24,8 L 23.8125,8.0625 23.90625,8.03125 M 26.96875,6.09375 27,6 27.09375,5.71875 27.1875,5.4375 27.125,5.625 Q 27.0625,5.8125 27,6 l -0.0625,0.1875 0.03125,-0.09375"
       id="path8839"
       inkscape:connector-curvature="0" />
    <path
       style="fill:#a00000;fill-opacity:1"
       d="m 19,4.5 q 0.25,-0.25 0.5,-0.25 0.25,0 0.25,0.25 0,0.25 -0.25,0.5 Q 19.25,5.25 19,5.5 18.75,5.75 18.5,6 18.25,6.25 18,6.5 17.75,6.75 17.359375,6.859375 L 16.96875,6.96875 16.953125,7.078125 16.9375,7.1875 16.96875,6.96875 Q 17,6.75 17,6.5 V 6.25 6.625 7 6.5 6 L 17.375,5.875 Q 17.75,5.75 18,5.5 18.25,5.25 18.5,5 18.75,4.75 19,4.5 M 17.28125,5.90625 17,6 16.90625,6.03125 16.8125,6.0625 17,6 q 0.1875,-0.0625 0.375,-0.125 l 0.1875,-0.0625 -0.28125,0.09375"
       id="path8841"
       inkscape:connector-curvature="0" />
    <path
       style="fill:#a00000;fill-opacity:1"
       d="m 23,4.5 q 0.25,-0.25 0.5,-0.25 0.25,0 0.375,0.375 Q 24,5 23.875,5.375 23.75,5.75 23.5,6 23.25,6.25 23,6.5 22.75,6.75 22.375,6.875 L 22,7 V 6.5 Q 22,6 22.125,5.625 22.25,5.25 22.5,5 22.75,4.75 23,4.5 M 21.90625,7.03125 22,7 22.28125,6.90625 22.5625,6.8125 22.375,6.875 Q 22.1875,6.9375 22,7 l -0.1875,0.0625 0.09375,-0.03125"
       id="path8843"
       inkscape:connector-curvature="0" />
    <path
       style="fill:#ff0000;fill-opacity:1"
       d="m 16.125,6.625 q 0.125,-0.375 0.5,-0.5 L 17,6 V 6.5 Q 17,7 16.875,7.375 16.75,7.75 16.5,8 16.25,8.25 16,8.5 15.75,8.75 15.375,8.875 L 15,9 15.28125,8.90625 15.5625,8.8125 15.375,8.875 Q 15.1875,8.9375 15.09375,9.09375 L 15,9.25 15.046875,9.171875 15.09375,9.09375 15.171875,8.671875 Q 15.25,8.25 15.5,8 15.75,7.75 15.84375,7.34375 L 15.9375,6.9375 15.875,7 15.8125,7.0625 15.9375,6.9375 Q 16.0625,6.8125 16.125,6.625 L 16.1875,6.4375 16.09375,6.71875 16,7 16.125,6.625 M 17.09375,5.96875 17,6 16.71875,6.09375 16.4375,6.1875 16.625,6.125 Q 16.8125,6.0625 17,6 l 0.1875,-0.0625 -0.09375,0.03125"
       id="path8845"
       inkscape:connector-curvature="0" />
    <path
       style="fill:#a00000;fill-opacity:1"
       d="M 20,6.5 Q 20.25,6.25 20.625,6.125 L 21,6 20.71875,6.09375 20.4375,6.1875 20.625,6.125 Q 20.8125,6.0625 21.03125,6.03125 L 21.25,6 21.140625,6.015625 21.03125,6.03125 20.890625,6.390625 Q 20.75,6.75 20.5,7 20.25,7.25 20,7.5 19.75,7.75 19.375,7.875 L 19,8 19.125,7.625 Q 19.25,7.25 19.5,7 19.75,6.75 20,6.5 M 18.90625,8.03125 19,8 19.28125,7.90625 19.5625,7.8125 19.375,7.875 Q 19.1875,7.9375 19,8 l -0.1875,0.0625 0.09375,-0.03125"
       id="path8847"
       inkscape:connector-curvature="0" />
    <path
       style="fill:#ff0000;fill-opacity:1"
       d="M 20.890625,6.390625 21.03125,6.03125 20.921875,6.046875 20.8125,6.0625 21.03125,6.03125 Q 21.25,6 21.5,6 H 21.75 21.375 21 L 21.515625,6.015625 22.03125,6.03125 22.046875,5.921875 22.0625,5.8125 22.03125,6.03125 Q 22,6.25 22,6.5 V 6.75 6.375 6 6.5 7 L 21.625,7.125 Q 21.25,7.25 21,7.5 20.75,7.75 20.5,8 20.25,8.25 20,8.5 19.75,8.75 19.5,9 19.25,9.25 19,9.5 18.75,9.75 18.375,9.875 L 18,10 18.28125,9.90625 18.5625,9.8125 18.375,9.875 q -0.1875,0.0625 -0.28125,0.21875 L 18,10.25 18.04687,10.17187 18.09374,10.09374 17.546865,10.04687 17,10 V 9.5 9 L 17.375,8.875 Q 17.75,8.75 18,8.5 18.25,8.25 18.625,8.125 19,8 19.375,7.875 19.75,7.75 20,7.5 20.25,7.25 20.5,7 20.75,6.75 20.890625,6.390625 M 17.28125,8.90625 17,9 16.90625,9.03125 16.8125,9.0625 17,9 Q 17.1875,8.9375 17.375,8.875 L 17.5625,8.8125 17.28125,8.90625 M 16.875,10 H 17 17.375 17.75 17.5 q -0.25,0 -0.5,0 h -0.25 0.125 M 21.71875,7.09375 22,7 22.09375,6.96875 22.1875,6.9375 22,7 q -0.1875,0.0625 -0.375,0.125 l -0.1875,0.0625 0.28125,-0.09375"
       id="path8849"
       inkscape:connector-curvature="0" />
    <path
       style="fill:#ff0000;fill-opacity:1"
       d="M 26,6.5 Q 26.25,6.25 26.625,6.125 L 27,6 26.875,6.375 Q 26.75,6.75 26.5,7 26.25,7.25 26,7.5 25.75,7.75 25.5,8 25.25,8.25 25,8.5 24.75,8.75 24.5,9 24.25,9.25 24,9.5 23.75,9.75 23.375,9.875 L 23,10 23.28125,9.90625 23.5625,9.8125 23.375,9.875 q -0.1875,0.0625 -0.28125,0.21875 L 23,10.25 l 0.04687,-0.07813 0.04687,-0.07813 -0.421875,0.07813 Q 22.25,10.25 22,10.5 21.75,10.75 21.5,11 21.25,11.25 21.125,11.625 L 21,12 20.453125,11.953125 19.90625,11.90625 19.828125,11.953125 19.75,12 19.90625,11.90625 Q 20.0625,11.8125 20.125,11.625 L 20.1875,11.4375 20.09375,11.71875 20,12 20.125,11.625 Q 20.25,11.25 20.5,11 20.75,10.75 21,10.5 21.25,10.25 21.5,10 21.75,9.75 22,9.5 22.25,9.25 22.5,9 22.75,8.75 23,8.5 23.25,8.25 23.625,8.125 24,8 24.375,7.875 24.75,7.75 25,7.5 25.25,7.25 25.5,7 25.75,6.75 26,6.5 M 20.96875,12.09375 21,12 21.09375,11.71875 21.1875,11.4375 21.125,11.625 Q 21.0625,11.8125 21,12 l -0.0625,0.1875 0.03125,-0.09375 M 26.90625,6.28125 27,6 27.03125,5.90625 27.0625,5.8125 27,6 q -0.0625,0.1875 -0.125,0.375 l -0.0625,0.1875 0.09375,-0.28125"
       id="path8851"
       inkscape:connector-curvature="0" />
    <path
       style="fill:#ff4000;fill-opacity:1"
       d="M 15,7.5 Q 15.25,7.25 15.625,7.125 L 16,7 15.71875,7.09375 15.4375,7.1875 15.625,7.125 Q 15.8125,7.0625 15.9375,6.9375 L 16.0625,6.8125 16,6.875 15.9375,6.9375 15.84375,7.34375 Q 15.75,7.75 15.5,8 15.25,8.25 15.171875,8.671875 L 15.09375,9.09375 15.140625,9.015625 15.1875,8.9375 15.09375,9.09375 Q 15,9.25 15,9.5 V 9.75 9.375 9 l 0.125,0.375 q 0.125,0.375 0.5,0.5 L 16,10 H 15.625 15.25 15.5 q 0.25,0 0.40625,-0.09375 L 16.0625,9.8125 15.984375,9.859375 15.90625,9.90625 16.453125,9.953125 Q 17,10 17.546875,10.046875 l 0.546875,0.04687 0.04687,-0.07813 L 18.1875,9.9375 18.09375,10.09375 Q 18,10.25 18,10.5 V 10.75 10.375 10 10.5 11 10.625 10.25 10.5 q 0,0.25 0.03125,0.46875 L 18.0625,11.1875 18.04687,11.078125 18.03124,10.96875 17.515615,10.98438 Q 17,11 16.5,11 16,11 15.625,10.875 15.25,10.75 15,10.5 q -0.25,-0.25 -0.5,-0.25 -0.25,0 -0.5,0.25 -0.25,0.25 -0.5,0.5 -0.25,0.25 -0.25,0.5 0,0.25 0.25,0.25 0.25,0 0.5,-0.25 0.25,-0.25 0.5,-0.25 0.25,0 0.375,0.375 L 15,12 14.625,12.125 Q 14.25,12.25 14,12.5 q -0.25,0.25 -0.5,0.5 -0.25,0.25 -0.25,0.5 0,0.25 0.375,0.375 0.375,0.125 0.75,0 Q 14.75,13.75 15,13.5 15.25,13.25 15.5,13 15.75,12.75 16,12.5 16.25,12.25 16.625,12.125 17,12 17.375,12.125 17.75,12.25 18,12.5 q 0.25,0.25 0.625,0.375 L 19,13 19.01563,13.515625 19.03126,14.03125 19.140635,14.01562 19.25,14 19.03125,14.03125 Q 18.8125,14.0625 18.625,14.125 L 18.4375,14.1875 18.71875,14.09375 19,14 18.625,14.125 Q 18.25,14.25 18.25,14.5 q 0,0.25 0.375,0.375 L 19,15 18.875,15.375 Q 18.75,15.75 18.5,16 18.25,16.25 18.125,16.625 L 18,17 17.625,16.875 q -0.375,-0.125 -0.5,-0.5 L 17,16 17.375,15.875 Q 17.75,15.75 17.75,15.5 q 0,-0.25 -0.25,-0.5 -0.25,-0.25 -0.25,-0.5 0,-0.25 0.25,-0.5 0.25,-0.25 0.25,-0.5 0,-0.25 -0.375,-0.375 -0.375,-0.125 -0.75,0 -0.375,0.125 -0.5,0.5 L 16,14 16.09375,13.71875 16.1875,13.4375 16.125,13.625 Q 16.0625,13.8125 16.0625,14 V 14.1875 14.09375 14 l -0.40625,0.125 Q 15.25,14.25 15,14.5 14.75,14.75 14.375,14.875 14,15 13.5,15 H 13 L 12.875,14.625 Q 12.75,14.25 12.5,14 12.25,13.75 12.125,13.375 L 12,13 11.625,13.125 q -0.375,0.125 -0.515625,0.515625 l -0.140625,0.390625 0.109375,0.01563 0.109375,0.01563 -0.21875,-0.03125 Q 10.75,14 10.5,14 H 10.25 10.625 11 10.5 10 l 0.125,-0.375 Q 10.25,13.25 10.5,13 10.75,12.75 10.875,12.375 11,12 11.125,11.625 11.25,11.25 11.625,11.125 12,11 12.375,10.875 12.75,10.75 13,10.5 13.25,10.25 13.5,10 13.75,9.75 13.875,9.375 14,9 14,8.5 V 8 L 14.375,7.875 Q 14.75,7.75 15,7.5 M 14.28125,7.90625 14,8 13.90625,8.03125 13.8125,8.0625 14,8 Q 14.1875,7.9375 14.375,7.875 L 14.5625,7.8125 14.28125,7.90625 M 9.875,14 H 10 10.375 10.75 10.5 Q 10.25,14 10,14 H 9.75 9.875 M 12.125,12.625 12,13 12.375,12.875 Q 12.75,12.75 12.75,12.5 q 0,-0.25 -0.25,-0.25 -0.25,0 -0.375,0.375 M 17.96875,17.09375 18,17 18.09375,16.71875 18.1875,16.4375 18.125,16.625 Q 18.0625,16.8125 18,17 l -0.0625,0.1875 0.03125,-0.09375 m 1.125,-2.0625 L 19,15 18.71875,14.90625 18.4375,14.8125 18.625,14.875 Q 18.8125,14.9375 19,15 l 0.1875,0.0625 -0.09375,-0.03125 M 19,13.375 V 13 12.875 12.75 13 q 0,0.25 0,0.5 v 0.25 -0.375 M 14.71875,12.09375 15,12 15.09375,11.96875 15.1875,11.9375 15,12 q -0.1875,0.0625 -0.375,0.125 l -0.1875,0.0625 0.28125,-0.09375"
       id="path8853"
       inkscape:connector-curvature="0" />
    <path
       style="fill:#ff0000;fill-opacity:1"
       d="m 13.125,8.625 q 0.125,-0.375 0.5,-0.5 L 14,8 V 8.5 9 8.625 8.25 8.5 q 0,0.25 -0.03125,0.46875 L 13.9375,9.1875 13.953125,9.078125 13.96875,8.96875 13.484375,8.984375 13,9 13.125,8.625 M 14.09375,7.96875 14,8 13.71875,8.09375 13.4375,8.1875 13.625,8.125 Q 13.8125,8.0625 14,8 l 0.1875,-0.0625 -0.09375,0.03125"
       id="path8855"
       inkscape:connector-curvature="0" />
    <path
       style="fill:#ff4000;fill-opacity:1"
       d="m 12.125,9.625 q 0.125,-0.375 0.5,-0.5 L 13,9 12.875,9.375 q -0.125,0.375 -0.5,0.5 L 12,10 12.125,9.625"
       id="path8857"
       inkscape:connector-curvature="0" />
    <path
       style="fill:#ff8000;fill-opacity:1"
       d="M 12.875,9.375 13,9 13.484375,8.984375 13.96875,8.96875 13.984375,8.859375 14,8.75 13.96875,8.96875 Q 13.9375,9.1875 13.875,9.375 L 13.8125,9.5625 13.90625,9.28125 14,9 13.875,9.375 Q 13.75,9.75 13.5,10 13.25,10.25 13,10.5 12.75,10.75 12.375,10.875 L 12,11 V 10.5 10 l 0.375,-0.125 q 0.375,-0.125 0.5,-0.5 M 11.90625,11.03125 12,11 12.28125,10.90625 12.5625,10.8125 12.375,10.875 Q 12.1875,10.9375 12,11 l -0.1875,0.0625 0.09375,-0.03125"
       id="path8859"
       inkscape:connector-curvature="0" />
    <path
       style="fill:#ff8000;fill-opacity:1"
       d="m 16.125,9.625 q 0.125,-0.375 0.5,-0.5 L 17,9 V 9.5 10 L 16.453125,9.953125 15.90625,9.90625 15.828125,9.953125 15.75,10 15.90625,9.90625 Q 16.0625,9.8125 16.125,9.625 L 16.1875,9.4375 16.09375,9.71875 16,10 16.125,9.625 M 16.625,10 H 17 17.125 17.25 17 q -0.25,0 -0.5,0 h -0.25 0.375 M 17.09375,8.96875 17,9 16.71875,9.09375 16.4375,9.1875 16.625,9.125 Q 16.8125,9.0625 17,9 l 0.1875,-0.0625 -0.09375,0.03125"
       id="path8861"
       inkscape:connector-curvature="0" />
    <path
       style="fill:#a00000;fill-opacity:1"
       d="m 26,9.5 q 0.25,-0.25 0.5,-0.25 0.25,0 0.25,0.25 0,0.25 -0.25,0.5 -0.25,0.25 -0.375,0.625 Q 26,11 25.875,11.375 25.75,11.75 25.5,11.75 25.25,11.75 25.125,11.375 25,11 25.125,10.625 25.25,10.25 25.5,10 25.75,9.75 26,9.5"
       id="path8863"
       inkscape:connector-curvature="0" />
    <path
       style="fill:#ff0000;fill-opacity:1"
       d="M 10,10.5 Q 10.25,10.25 10.625,10.125 11,10 11.5,10 H 12 v 0.5 0.5 l -0.375,0.125 q -0.375,0.125 -0.5,0.5 L 11,12 H 10.5 Q 10,12 9.5,12 9,12 8.625,12.125 8.25,12.25 8,12.5 7.75,12.75 7.375,12.875 L 7,13 7.125,12.625 Q 7.25,12.25 7.5,12 7.75,11.75 8,11.5 8.25,11.25 8.625,11.125 9,11 9.375,10.875 9.75,10.75 10,10.5 M 10.96875,12.09375 11,12 11.09375,11.71875 11.1875,11.4375 11.125,11.625 Q 11.0625,11.8125 11,12 l -0.0625,0.1875 0.03125,-0.09375 m 0.75,-1 L 12,11 12.09375,10.96875 12.1875,10.9375 12,11 q -0.1875,0.0625 -0.375,0.125 l -0.1875,0.0625 0.28125,-0.09375"
       id="path8865"
       inkscape:connector-curvature="0" />
    <path
       style="fill:#ff0000;fill-opacity:1"
       d="m 14,10.5 q 0.25,-0.25 0.5,-0.25 0.25,0 0.5,0.25 0.25,0.25 0.625,0.375 L 16,11 15.71875,10.90625 15.4375,10.8125 15.625,10.875 q 0.1875,0.0625 0.40625,0.09375 L 16.25,11 16.140625,10.984375 16.03125,10.96875 15.890625,11.359375 Q 15.75,11.75 15.375,11.875 L 15,12 14.875,11.625 Q 14.75,11.25 14.5,11.25 q -0.25,0 -0.5,0.25 -0.25,0.25 -0.5,0.25 -0.25,0 -0.25,-0.25 0,-0.25 0.25,-0.5 0.25,-0.25 0.5,-0.5 M 14.90625,12.03125 15,12 15.28125,11.90625 15.5625,11.8125 15.375,11.875 Q 15.1875,11.9375 15,12 l -0.1875,0.0625 0.09375,-0.03125"
       id="path8867"
       inkscape:connector-curvature="0" />
    <path
       style="fill:#ff4000;fill-opacity:1"
       d="m 22,10.5 q 0.25,-0.25 0.671875,-0.328125 l 0.421875,-0.07813 0.04687,-0.07813 L 23.1875,9.9375 23.09375,10.09375 Q 23,10.25 23,10.5 V 10.75 10.375 10 10.5 11 10.625 10.25 10.5 q 0,0.25 -0.03125,0.46875 l -0.03125,0.21875 0.01563,-0.109375 0.01563,-0.109375 -0.359375,0.140625 Q 22.25,11.25 22.15625,11.65625 L 22.0625,12.0625 22.125,12 l 0.0625,-0.0625 -0.125,0.125 q -0.125,0.125 -0.1875,0.3125 L 21.8125,12.5625 21.90625,12.28125 22,12 21.875,12.375 Q 21.75,12.75 21.5,13 21.25,13.25 21.125,13.625 L 21,14 21.09375,13.71875 21.1875,13.4375 21.125,13.625 q -0.0625,0.1875 -0.09375,0.40625 L 21,14.25 21.015625,14.140625 21.03125,14.03125 20.515625,14.015625 20,14 20.125,13.625 Q 20.25,13.25 20.5,13 20.75,12.75 20.875,12.375 21,12 21.125,11.625 21.25,11.25 21.5,11 21.75,10.75 22,10.5 M 19.875,14 H 20 20.375 20.75 20.5 q -0.25,0 -0.5,0 h -0.25 0.125"
       id="path8869"
       inkscape:connector-curvature="0" />
    <path
       style="fill:#ff8000;fill-opacity:1"
       d="M 15.890625,11.359375 16.03125,10.96875 15.921875,10.953125 15.8125,10.9375 16.03125,10.96875 Q 16.25,11 16.5,11 H 16.75 16.375 16 16.5 17 v 0.53125 0.53125 H 17.09375 17.1875 17 q -0.1875,0 -0.375,0.0625 L 16.4375,12.1875 16.71875,12.09375 17,12 16.625,12.125 Q 16.25,12.25 16,12.5 15.75,12.75 15.5,13 15.25,13.25 15,13.5 14.75,13.75 14.375,13.875 14,14 13.625,13.875 13.25,13.75 13.25,13.5 13.25,13.25 13.5,13 13.75,12.75 14,12.5 14.25,12.25 14.625,12.125 15,12 15.375,11.875 15.75,11.75 15.890625,11.359375 M 17.125,11 H 17 16.625 16.25 16.5 q 0.25,0 0.5,0 h 0.25 -0.125"
       id="path8871"
       inkscape:connector-curvature="0" />
    <path
       style="fill:#ff0000;fill-opacity:1"
       d="M 17,11.53125 V 11 L 17.515625,10.98437 18.03125,10.96874 18.01562,10.859365 18,10.75 18.03125,10.96875 Q 18.0625,11.1875 18.125,11.375 L 18.1875,11.5625 18.09375,11.28125 18,11 l 0.125,0.375 q 0.125,0.375 0.5,0.5 L 19,12 18.71875,11.90625 18.4375,11.8125 18.625,11.875 q 0.1875,0.0625 0.40625,0.09375 L 19.25,12 19.140625,11.984375 19.03125,11.96875 19.015625,12.484375 19,13 18.625,12.875 Q 18.25,12.75 18,12.5 17.75,12.25 17.375,12.125 L 17,12 17.28125,12.09375 17.5625,12.1875 17.375,12.125 Q 17.1875,12.0625 17,12.0625 H 16.8125 16.90625 17 V 11.53125 M 19,13.125 V 13 12.625 12.25 12.5 q 0,0.25 0,0.5 v 0.25 -0.125 M 17.375,11 H 17 16.875 16.75 17 q 0.25,0 0.5,0 h 0.25 -0.375"
       id="path8873"
       inkscape:connector-curvature="0" />
    <path
       style="fill:#ff0000;fill-opacity:1"
       d="M 22.15625,11.65625 Q 22.25,11.25 22.609375,11.109375 L 22.96875,10.96875 22.984375,10.859375 23,10.75 22.96875,10.96875 Q 22.9375,11.1875 22.875,11.375 L 22.8125,11.5625 22.90625,11.28125 23,11 22.875,11.375 q -0.125,0.375 -0.5,0.5 L 22,12 22.28125,11.90625 22.5625,11.8125 22.375,11.875 q -0.1875,0.0625 -0.3125,0.1875 l -0.125,0.125 L 22,12.125 l 0.0625,-0.0625 0.09375,-0.40625"
       id="path8875"
       inkscape:connector-curvature="0" />
    <path
       style="fill:#ff4000;fill-opacity:1"
       d="M 8,12.5 Q 8.25,12.25 8.625,12.125 L 9,12 8.71875,12.09375 8.4375,12.1875 8.625,12.125 Q 8.8125,12.0625 9.03125,12.03125 L 9.25,12 9.140625,12.015625 9.03125,12.03125 8.890625,12.390625 Q 8.75,12.75 8.5,13 8.25,13.25 8,13.5 7.75,13.75 7.5,14 7.25,14.25 7.109375,14.609375 L 6.96875,14.96875 7.078125,14.953125 7.1875,14.9375 6.96875,14.96875 Q 6.75,15 6.5,15 H 6.25 6.625 7 6.5 6 L 6.125,14.625 Q 6.25,14.25 6.5,14 6.75,13.75 6.875,13.375 L 7,13 7.375,12.875 Q 7.75,12.75 8,12.5 M 6.09375,14.71875 6,15 5.96875,15.09375 5.9375,15.1875 6,15 q 0.0625,-0.1875 0.125,-0.375 l 0.0625,-0.1875 -0.09375,0.28125"
       id="path8877"
       inkscape:connector-curvature="0" />
    <path
       style="fill:#ff8000;fill-opacity:1"
       d="M 8.890625,12.390625 9.03125,12.03125 8.921875,12.046875 8.8125,12.0625 9.03125,12.03125 Q 9.25,12 9.5,12 H 9.75 9.375 9 9.5 q 0.5,0 1,0 H 11 l -0.125,0.375 Q 10.75,12.75 10.5,13 10.25,13.25 10.125,13.625 L 10,14 H 9.5 Q 9,14 8.625,14.125 8.25,14.25 8,14.5 7.75,14.75 7.375,14.875 L 7,15 7.28125,14.90625 7.5625,14.8125 7.375,14.875 Q 7.1875,14.9375 6.96875,14.96875 L 6.75,15 6.859375,14.984375 6.96875,14.96875 7.109375,14.609375 Q 7.25,14.25 7.5,14 7.75,13.75 8,13.5 8.25,13.25 8.5,13 8.75,12.75 8.890625,12.390625 M 9.625,14 H 10 10.125 10.25 10 Q 9.75,14 9.5,14 H 9.25 9.625 M 10.90625,12.28125 11,12 11.03125,11.90625 11.0625,11.8125 11,12 q -0.0625,0.1875 -0.125,0.375 l -0.0625,0.1875 0.09375,-0.28125"
       id="path8879"
       inkscape:connector-curvature="0" />
    <path
       style="fill:#ff8000;fill-opacity:1"
       d="M 12.125,12.625 Q 12.25,12.25 12.5,12.25 q 0.25,0 0.25,0.25 0,0.25 -0.375,0.375 L 12,13 12.125,12.625"
       id="path8881"
       inkscape:connector-curvature="0" />
    <path
       style="fill:#ff8000;fill-opacity:1"
       d="M 19.015625,12.484375 19.03125,11.96875 18.921875,11.953125 18.8125,11.9375 19.03125,11.96875 Q 19.25,12 19.5,12 H 19.75 19.375 19 19.5 20 19.625 19.25 19.5 q 0.25,0 0.40625,-0.09375 l 0.15625,-0.09375 -0.07813,0.04687 -0.07813,0.04687 0.546875,0.04687 L 21,12 20.875,12.375 Q 20.75,12.75 20.5,13 20.25,13.25 20.125,13.625 L 20,14 H 19.5 19 19.375 19.75 19.5 q -0.25,0 -0.46875,0.03125 L 18.8125,14.0625 18.921875,14.04687 19.03125,14.03124 19.01562,13.515615 Q 19,13 19.015625,12.484375 M 19.625,14 H 20 20.125 20.25 20 q -0.25,0 -0.5,0 h -0.25 0.375 M 20.90625,12.28125 21,12 21.03125,11.90625 21.0625,11.8125 21,12 q -0.0625,0.1875 -0.125,0.375 l -0.0625,0.1875 0.09375,-0.28125"
       id="path8883"
       inkscape:connector-curvature="0" />
    <path
       style="fill:#ff0000;fill-opacity:1"
       d="m 24,12.5 q 0.25,-0.25 0.5,-0.25 0.25,0 0.375,0.375 0.125,0.375 0,0.75 -0.125,0.375 -0.5,0.5 L 24,14 24.28125,13.90625 24.5625,13.8125 24.375,13.875 q -0.1875,0.0625 -0.28125,0.21875 L 24,14.25 l 0.04687,-0.07813 0.04687,-0.07813 -0.421875,0.07813 Q 23.25,14.25 23,14.5 22.75,14.75 22.390625,14.890625 L 22.03125,15.03125 22.015625,15.140625 22,15.25 22.03125,15.03125 Q 22.0625,14.8125 22.125,14.625 L 22.1875,14.4375 22.09375,14.71875 22,15 22.125,14.625 Q 22.25,14.25 22.5,14 22.75,13.75 23,13.5 23.25,13.25 23.5,13 23.75,12.75 24,12.5"
       id="path8885"
       inkscape:connector-curvature="0" />
    <path
       style="fill:#ff8000;fill-opacity:1"
       d="M 6,13.5 Q 6.25,13.25 6.625,13.125 L 7,13 6.875,13.375 Q 6.75,13.75 6.5,14 6.25,14.25 6.125,14.625 6,15 5.875,15.375 5.75,15.75 5.375,15.875 L 5,16 V 15.5 Q 5,15 5.125,14.625 5.25,14.25 5.5,14 5.75,13.75 6,13.5 M 5,15.625 V 16 16.125 16.25 16 q 0,-0.25 0,-0.5 v -0.25 0.375"
       id="path8887"
       inkscape:connector-curvature="0" />
    <path
       style="fill:#ff8000;fill-opacity:1"
       d="M 11.109375,13.640625 Q 11.25,13.25 11.625,13.125 L 12,13 12.125,13.375 Q 12.25,13.75 12.5,14 q 0.25,0.25 0.375,0.625 L 13,15 H 12.46875 11.9375 V 15.09375 15.1875 15 q 0,-0.1875 -0.0625,-0.375 L 11.8125,14.4375 11.90625,14.71875 12,15 11.875,14.625 q -0.125,-0.375 -0.5,-0.5 L 11,14 11.28125,14.09375 11.5625,14.1875 11.375,14.125 Q 11.1875,14.0625 10.96875,14.03125 L 10.75,14 l 0.109375,0.01563 0.109375,0.01563 0.140625,-0.390625"
       id="path8889"
       inkscape:connector-curvature="0" />
    <path
       style="fill:#ff0000;fill-opacity:1"
       d="m 16.125,13.625 q 0.125,-0.375 0.5,-0.5 0.375,-0.125 0.75,0 0.375,0.125 0.375,0.375 0,0.25 -0.25,0.5 -0.25,0.25 -0.25,0.5 0,0.25 0.25,0.5 0.25,0.25 0.25,0.5 0,0.25 -0.375,0.375 L 17,16 16.875,15.625 Q 16.75,15.25 16.5,15 16.25,14.75 16.125,14.375 16,14 16.125,13.625"
       id="path8891"
       inkscape:connector-curvature="0" />
    <path
       style="fill:#ffc000;fill-opacity:1"
       d="M 8,14.5 Q 8.25,14.25 8.625,14.125 9,14 9.5,14 q 0.5,0 1,0 0.5,0 0.875,0.125 0.375,0.125 0.5,0.5 0.125,0.375 0,0.75 -0.125,0.375 -0.375,0.375 -0.25,0 -0.5,-0.25 -0.25,-0.25 -0.5,-0.25 -0.25,0 -0.5,0.25 -0.25,0.25 -0.5,0.25 -0.25,0 -0.5,-0.25 -0.25,-0.25 -0.5,-0.25 -0.25,0 -0.25,0.25 0,0.25 0.25,0.5 0.25,0.25 0.25,0.5 0,0.25 -0.375,0.375 Q 8,17 7.625,16.875 7.25,16.75 7,16.5 6.75,16.25 6.5,16.25 6.25,16.25 6,16.5 5.75,16.75 5.375,16.875 L 5,17 V 16.5 16 l 0.375,-0.125 q 0.375,-0.125 0.5,-0.5 L 6,15 H 6.5 Q 7,15 7.375,14.875 7.75,14.75 8,14.5 M 6.03125,14.90625 6,15 5.90625,15.28125 5.8125,15.5625 5.875,15.375 Q 5.9375,15.1875 6,15 L 6.0625,14.8125 6.03125,14.90625 M 5,15.875 V 16 16.375 16.75 16.5 Q 5,16.25 5,16 v -0.25 0.125"
       id="path8893"
       inkscape:connector-curvature="0" />
    <path
       style="fill:#ff8000;fill-opacity:1"
       d="m 15,14.5 q 0.25,-0.25 0.65625,-0.375 L 16.0625,14 V 13.90625 13.8125 14 q 0,0.1875 0.0625,0.375 L 16.1875,14.5625 16.09375,14.28125 16,14 16.125,14.375 Q 16.25,14.75 16.5,15 q 0.25,0.25 0.375,0.625 L 17,16 16.625,15.875 Q 16.25,15.75 16,15.5 q -0.25,-0.25 -0.5,-0.25 -0.25,0 -0.5,0.25 -0.25,0.25 -0.5,0.25 -0.25,0 -0.390625,-0.390625 L 13.96875,14.96875 13.859375,14.984375 13.75,15 13.96875,14.96875 Q 14.1875,14.9375 14.375,14.875 L 14.5625,14.8125 14.28125,14.90625 14,15 14.375,14.875 Q 14.75,14.75 15,14.5"
       id="path8895"
       inkscape:connector-curvature="0" />
    <path
       style="fill:#ff0000;fill-opacity:1"
       d="m 18.25,14.5 q 0,-0.25 0.375,-0.375 Q 19,14 19.5,14 q 0.5,0 1.015625,0.01563 l 0.515625,0.01563 0.01563,-0.109375 0.01563,-0.109375 -0.03125,0.21875 Q 21,14.25 21,14.5 V 14.75 14.375 14 14.5 q 0,0.5 0,1 V 16 15.625 15.25 15.5 q 0,0.25 0.125,0.375 L 21.25,16 21.1875,15.9375 21.125,15.875 21.0625,16.4375 Q 21,17 21.125,17.375 q 0.125,0.375 0.5,0.5 L 22,18 v 0.5 q 0,0.5 0,1 V 20 19.625 19.25 19.5 q 0,0.25 0.125,0.375 L 22.25,20 22.1875,19.9375 22.125,19.875 21.9375,20.3125 Q 21.75,20.75 21.390625,20.859375 l -0.359375,0.109375 0.01563,0.109375 0.01563,0.109375 -0.03125,-0.21875 Q 21,20.75 21,20.5 V 20.25 20.625 21 20.5 Q 21,20 20.875,19.625 20.75,19.25 20.5,19.25 q -0.25,0 -0.5,0.25 -0.25,0.25 -0.5,0.25 -0.25,0 -0.5,-0.25 -0.25,-0.25 -0.625,-0.375 L 18,19 18.28125,19.09375 18.5625,19.1875 18.375,19.125 Q 18.1875,19.0625 18,19.0625 H 17.8125 17.90625 18 l 0.125,-0.40625 Q 18.25,18.25 18.625,18.125 19,18 19.375,17.875 19.75,17.75 19.875,17.375 20,17 20,16.5 20,16 19.875,15.625 19.75,15.25 19.375,15.125 19,15 18.625,14.875 18.25,14.75 18.25,14.5"
       id="path8897"
       inkscape:connector-curvature="0" />
    <path
       style="fill:#ff8000;fill-opacity:1"
       d="m 23,14.5 q 0.25,-0.25 0.671875,-0.328125 l 0.421875,-0.07813 0.04687,-0.07813 0.04687,-0.07813 -0.09375,0.15625 Q 24,14.25 24,14.5 V 14.75 14.375 14 14.5 15 14.625 14.25 14.5 q 0,0.25 -0.03125,0.46875 l -0.03125,0.21875 0.01563,-0.109375 0.01563,-0.109375 -0.359375,0.140625 Q 23.25,15.25 23.171875,15.671875 l -0.07813,0.421875 0.04687,-0.07813 0.04687,-0.07813 -0.09375,0.15625 Q 23,16.25 23,16.5 V 16.75 16.375 16 16.5 17 16.625 16.25 16.5 q 0,0.25 -0.03125,0.46875 l -0.03125,0.21875 0.01563,-0.109375 0.01563,-0.109375 -0.359375,0.140625 Q 22.25,17.25 22.125,17.625 L 22,18 21.625,17.875 q -0.375,-0.125 -0.5,-0.5 L 21,17 21.09375,17.28125 21.1875,17.5625 21.125,17.375 Q 21.0625,17.1875 21.03125,16.96875 L 21,16.75 l 0.01563,0.109375 0.01563,0.109375 0.359375,-0.109375 Q 21.75,16.75 21.8125,16.3125 L 21.875,15.875 21.8125,15.9375 21.75,16 21.875,15.875 Q 22,15.75 22,15.5 V 15.25 15.625 16 15.5 15 15.375 15.75 15.5 q 0,-0.25 0.03125,-0.46875 l 0.03125,-0.21875 -0.01563,0.109375 -0.01563,0.109375 0.359375,-0.140625 Q 22.75,14.75 23,14.5"
       id="path8899"
       inkscape:connector-curvature="0" />
    <path
       style="fill:#ffff00;fill-opacity:1"
       d="m 8.25,15.5 q 0,-0.25 0.25,-0.25 0.25,0 0.5,0.25 0.25,0.25 0.5,0.25 0.25,0 0.5,-0.25 0.25,-0.25 0.5,-0.25 0.25,0 0.5,0.25 0.25,0.25 0.5,0.25 0.25,0 0.375,-0.375 L 12,15 11.90625,15.28125 11.8125,15.5625 11.875,15.375 Q 11.9375,15.1875 11.9375,15 V 14.8125 14.90625 15 H 12.46875 13 l -0.125,0.375 Q 12.75,15.75 12.5,16 12.25,16.25 12.125,16.625 12,17 11.875,17.375 11.75,17.75 11.5,17.75 11.25,17.75 11,17.5 10.75,17.25 10.5,17.25 10.25,17.25 10,17.5 9.75,17.75 9.375,17.875 9,18 8.625,18.125 8.25,18.25 8,18.5 7.75,18.75 7.5,19 q -0.25,0.25 -0.25,0.5 0,0.25 0.25,0.5 0.25,0.25 0.25,0.5 0,0.25 -0.25,0.5 -0.25,0.25 -0.25,0.5 0,0.25 0.25,0.5 0.25,0.25 0.5,0.5 0.25,0.25 0.5,0.25 0.25,0 0.375,-0.375 Q 9,22 9.125,21.625 9.25,21.25 9.5,21.25 q 0.25,0 0.375,0.375 Q 10,22 10,22.5 q 0,0.5 0.125,0.875 0.125,0.375 0.5,0.5 Q 11,24 11.5,24 H 12 l -0.125,0.375 q -0.125,0.375 -0.5,0.5 Q 11,25 10.5,25 10,25 9.5,25 H 9 9.375 9.75 9.5 Q 9.25,25 9.03125,24.96875 L 8.8125,24.9375 8.921875,24.953125 9.03125,24.96875 8.890625,24.609375 Q 8.75,24.25 8.375,24.125 8,24 7.625,23.875 7.25,23.75 7.125,23.375 7,23 6.875,22.625 6.75,22.25 6.375,22.125 L 6,22 6.28125,22.09375 6.5625,22.1875 6.375,22.125 Q 6.1875,22.0625 5.96875,22.03125 L 5.75,22 5.859375,22.015625 5.96875,22.03125 5.984375,21.515625 Q 6,21 6,20.5 6,20 6.125,19.625 6.25,19.25 6.5,19 6.75,18.75 6.875,18.375 7,18 6.875,17.625 6.75,17.25 6.5,17.25 6.25,17.25 6,17.5 5.75,17.75 5.375,17.875 L 5,18 5.28125,17.90625 5.5625,17.8125 5.375,17.875 Q 5.1875,17.9375 4.96875,17.96875 L 4.75,18 4.859375,17.984375 4.96875,17.96875 4.984375,17.484375 5,17 5.375,16.875 Q 5.75,16.75 6,16.5 6.25,16.25 6.5,16.25 6.75,16.25 7,16.5 7.25,16.75 7.625,16.875 8,17 8.375,16.875 8.75,16.75 8.75,16.5 8.75,16.25 8.5,16 8.25,15.75 8.25,15.5 M 12.125,24 H 12 11.625 11.25 11.5 q 0.25,0 0.5,0 h 0.25 -0.125"
       id="path8901"
       inkscape:connector-curvature="0" />
    <path
       style="fill:#ffc000;fill-opacity:1"
       d="M 12.875,15.375 13,15 H 13.5 14 13.625 13.25 13.5 q 0.25,0 0.46875,-0.03125 l 0.21875,-0.03125 -0.109375,0.01563 -0.109375,0.01563 0.140625,0.390625 Q 14.25,15.75 14.5,15.75 q 0.25,0 0.5,-0.25 0.25,-0.25 0.5,-0.25 0.25,0 0.5,0.25 0.25,0.25 0.625,0.375 L 17,16 l 0.125,0.375 q 0.125,0.375 0.5,0.5 L 18,17 17.875,17.375 Q 17.75,17.75 17.5,17.75 17.25,17.75 17,17.5 16.75,17.25 16.375,17.125 L 16,17 16.125,17.375 Q 16.25,17.75 16.5,18 q 0.25,0.25 0.25,0.5 0,0.25 -0.375,0.375 Q 16,19 15.625,18.875 15.25,18.75 15,18.5 14.75,18.25 14.5,18 14.25,17.75 14,17.5 13.75,17.25 13.375,17.125 13,17 12.5,17 H 12 l 0.125,-0.375 Q 12.25,16.25 12.5,16 12.75,15.75 12.875,15.375 M 12.09375,16.71875 12,17 11.96875,17.09375 11.9375,17.1875 12,17 q 0.0625,-0.1875 0.125,-0.375 l 0.0625,-0.1875 -0.09375,0.28125 M 15.625,16.875 16,17 15.875,16.625 Q 15.75,16.25 15.5,16.25 q -0.25,0 -0.25,0.25 0,0.25 0.375,0.375 M 17.90625,17.28125 18,17 18.03125,16.90625 18.0625,16.8125 18,17 q -0.0625,0.1875 -0.125,0.375 l -0.0625,0.1875 0.09375,-0.28125"
       id="path8903"
       inkscape:connector-curvature="0" />
    <path
       style="fill:#ff8000;fill-opacity:1"
       d="M 18.875,15.375 19,15 l 0.375,0.125 q 0.375,0.125 0.5,0.5 L 20,16 19.90625,15.71875 19.8125,15.4375 19.875,15.625 q 0.0625,0.1875 0.09375,0.40625 L 20,16.25 19.984375,16.140625 19.96875,16.03125 19.609375,16.140625 Q 19.25,16.25 19.125,16.625 19,17 19,17.5 V 18 l -0.375,0.125 q -0.375,0.125 -0.5,0.53125 L 18,19.0625 H 18.09375 18.1875 18 q -0.1875,0 -0.375,0.0625 L 17.4375,19.1875 17.71875,19.09375 18,19 17.625,19.125 Q 17.25,19.25 17.25,19.5 q 0,0.25 0.375,0.375 L 18,20 l 0.125,0.375 q 0.125,0.375 0.46875,0.5 L 18.9375,21 V 20.90625 20.8125 21 q 0,0.1875 -0.0625,0.375 L 18.8125,21.5625 18.90625,21.28125 19,21 18.875,21.375 Q 18.75,21.75 18.5,22 18.25,22.25 18.125,22.625 18,23 18,23.5 q 0,0.5 -0.125,0.875 -0.125,0.375 -0.5,0.5 Q 17,25 16.5,25 16,25 15.625,25.125 15.25,25.25 15,25.5 14.75,25.75 14.5,26 14.25,26.25 14,26.5 13.75,26.75 13.375,26.875 13,27 12.5,27 12,27 11.625,26.875 11.25,26.75 11.125,26.375 L 11,26 h 0.5 q 0.5,0 1,0 0.5,0 0.875,-0.125 Q 13.75,25.75 14,25.5 14.25,25.25 14.5,25 14.75,24.75 14.875,24.375 L 15,24 h 0.5 q 0.5,0 0.875,-0.125 0.375,-0.125 0.5,-0.5 Q 17,23 17,22.46875 V 21.9375 H 16.90625 16.8125 17 q 0.1875,0 0.375,-0.0625 L 17.5625,21.8125 17.28125,21.90625 17,22 17.375,21.875 Q 17.75,21.75 17.75,21.5 17.75,21.25 17.5,21 17.25,20.75 17,20.5 16.75,20.25 16.375,20.125 L 16,20 16.28125,20.09375 16.5625,20.1875 16.375,20.125 Q 16.1875,20.0625 16,20.0625 H 15.8125 15.90625 16 V 19.5 18.9375 H 15.90625 15.8125 16 q 0.1875,0 0.375,-0.0625 L 16.5625,18.8125 16.28125,18.90625 16,19 16.375,18.875 Q 16.75,18.75 16.75,18.5 16.75,18.25 16.5,18 16.25,17.75 16.125,17.375 L 16,17 16.375,17.125 Q 16.75,17.25 17,17.5 q 0.25,0.25 0.5,0.25 0.25,0 0.375,-0.375 Q 18,17 18.125,16.625 18.25,16.25 18.5,16 18.75,15.75 18.875,15.375 M 15.03125,23.90625 15,24 14.90625,24.28125 14.8125,24.5625 14.875,24.375 Q 14.9375,24.1875 15,24 l 0.0625,-0.1875 -0.03125,0.09375 M 11.375,26 H 11 10.875 10.75 11 q 0.25,0 0.5,0 h 0.25 -0.375 M 18.09375,20.03125 18,20 17.71875,19.90625 17.4375,19.8125 17.625,19.875 Q 17.8125,19.9375 18,20 l 0.1875,0.0625 -0.09375,-0.03125 m 0.625,-1.9375 L 19,18 19.09375,17.96875 19.1875,17.9375 19,18 q -0.1875,0.0625 -0.375,0.125 l -0.1875,0.0625 0.28125,-0.09375 m 0.5625,-3 L 19,15 18.90625,14.96875 18.8125,14.9375 19,15 q 0.1875,0.0625 0.375,0.125 l 0.1875,0.0625 -0.28125,-0.09375"
       id="path8905"
       inkscape:connector-curvature="0" />
    <path
       style="fill:#ff4000;fill-opacity:1"
       d="M 23.171875,15.671875 Q 23.25,15.25 23.609375,15.109375 L 23.96875,14.96875 23.984375,14.859375 24,14.75 23.96875,14.96875 Q 23.9375,15.1875 23.875,15.375 L 23.8125,15.5625 23.90625,15.28125 24,15 23.875,15.375 q -0.125,0.375 -0.5,0.5 L 23,16 23.28125,15.90625 23.5625,15.8125 23.375,15.875 q -0.1875,0.0625 -0.28125,0.21875 L 23,16.25 l 0.04687,-0.07813 0.04687,-0.07813 0.07813,-0.421875"
       id="path8907"
       inkscape:connector-curvature="0" />
    <path
       style="fill:#ff8000;fill-opacity:1"
       d="m 15.25,16.5 q 0,-0.25 0.25,-0.25 0.25,0 0.375,0.375 L 16,17 15.625,16.875 Q 15.25,16.75 15.25,16.5"
       id="path8909"
       inkscape:connector-curvature="0" />
    <path
       style="fill:#ff4000;fill-opacity:1"
       d="M 19.125,16.625 Q 19.25,16.25 19.609375,16.140625 L 19.96875,16.03125 19.953125,15.921875 19.9375,15.8125 19.96875,16.03125 Q 20,16.25 20,16.5 V 16.75 16.375 16 16.5 q 0,0.5 -0.125,0.875 -0.125,0.375 -0.5,0.5 L 19,18 V 17.5 Q 19,17 19.125,16.625 M 18.90625,18.03125 19,18 19.28125,17.90625 19.5625,17.8125 19.375,17.875 Q 19.1875,17.9375 19,18 l -0.1875,0.0625 0.09375,-0.03125"
       id="path8911"
       inkscape:connector-curvature="0" />
    <path
       style="fill:#ff4000;fill-opacity:1"
       d="M 21.0625,16.4375 21.125,15.875 21.0625,15.8125 21,15.75 21.125,15.875 Q 21.25,16 21.5,16 H 21.75 21.375 21 21.5 22 21.625 21.25 21.5 q 0.25,0 0.375,-0.125 L 22,15.75 21.9375,15.8125 21.875,15.875 21.8125,16.3125 Q 21.75,16.75 21.390625,16.859375 l -0.359375,0.109375 0.01563,0.109375 0.01563,0.109375 -0.03125,-0.21875 Q 21,16.75 21,16.5 V 16.25 16.625 17 l 0.0625,-0.5625"
       id="path8913"
       inkscape:connector-curvature="0" />
    <path
       style="fill:#ff8000;fill-opacity:1"
       d="m 4.125,17.625 q 0.125,-0.375 0.5,-0.5 L 5,17 4.984375,17.484375 4.96875,17.96875 5.078125,17.953125 5.1875,17.9375 4.96875,17.96875 Q 4.75,18 4.5,18 H 4.25 4.625 5 L 4.515625,18.015625 4.03125,18.03125 4.015625,18.140625 4,18.25 4.03125,18.03125 Q 4.0625,17.8125 4.125,17.625 L 4.1875,17.4375 4.09375,17.71875 4,18 4.125,17.625"
       id="path8915"
       inkscape:connector-curvature="0" />
    <path
       style="fill:#ffc000;fill-opacity:1"
       d="m 6,17.5 q 0.25,-0.25 0.5,-0.25 0.25,0 0.375,0.375 Q 7,18 6.875,18.375 6.75,18.75 6.5,19 6.25,19.25 6.125,19.625 6,20 6,20.5 V 21 L 5.625,20.875 Q 5.25,20.75 5.125,20.375 5,20 4.875,19.625 4.75,19.25 4.375,19.125 L 4,19 V 18.5 18 18.375 18.75 18.5 Q 4,18.25 4.03125,18.03125 L 4.0625,17.8125 4.046875,17.921875 4.03125,18.03125 4.515625,18.015625 Q 5,18 5.375,17.875 5.75,17.75 6,17.5 M 4,18.625 V 19 19.125 19.25 19 q 0,-0.25 0,-0.5 v -0.25 0.375 m 2,2.5 V 21 20.625 20.25 20.5 q 0,0.25 0,0.5 v 0.25 -0.125"
       id="path8917"
       inkscape:connector-curvature="0" />
    <path
       style="fill:#ffffc0;fill-opacity:1"
       d="m 10,17.5 q 0.25,-0.25 0.5,-0.25 0.25,0 0.5,0.25 0.25,0.25 0.5,0.25 0.25,0 0.375,-0.375 L 12,17 H 12.5 13 12.625 12.25 12.5 q 0.25,0 0.46875,0.03125 L 13.1875,17.0625 13.078125,17.04687 12.96875,17.03124 12.859375,17.390615 Q 12.75,17.75 12.5,18 12.25,18.25 12.125,18.625 12,19 12,19.5 q 0,0.5 0.125,0.875 0.125,0.375 0.375,0.375 0.25,0 0.375,-0.375 Q 13,20 13.125,19.625 13.25,19.25 13.5,19.25 q 0.25,0 0.375,0.375 Q 14,20 14,20.5 q 0,0.5 -0.125,0.875 -0.125,0.375 -0.5,0.5 Q 13,22 12.5,22 12,22 11.625,22.125 11.25,22.25 11.25,22.5 q 0,0.25 0.375,0.375 0.375,0.125 0.75,0.25 0.375,0.125 0.484375,0.484375 l 0.109375,0.359375 0.109375,-0.01563 0.109375,-0.01563 -0.21875,0.03125 Q 12.75,24 12.5,24 H 12.25 12.625 13 12.5 q -0.5,0 -1,0 -0.5,0 -0.875,-0.125 -0.375,-0.125 -0.5,-0.5 Q 10,23 10,22.5 10,22 9.875,21.625 9.75,21.25 9.5,21.25 9.25,21.25 9.125,21.625 9,22 8.875,22.375 8.75,22.75 8.5,22.75 8.25,22.75 8,22.5 7.75,22.25 7.5,22 7.25,21.75 7.25,21.5 7.25,21.25 7.5,21 7.75,20.75 7.75,20.5 7.75,20.25 7.5,20 7.25,19.75 7.25,19.5 7.25,19.25 7.5,19 7.75,18.75 8,18.5 8.25,18.25 8.625,18.125 9,18 9.375,17.875 9.75,17.75 10,17.5 m 0.25,2 q 0,0.25 0.25,0.25 0.25,0 0.25,-0.25 0,-0.25 -0.25,-0.25 -0.25,0 -0.25,0.25 M 12.03125,16.90625 12,17 11.90625,17.28125 11.8125,17.5625 11.875,17.375 Q 11.9375,17.1875 12,17 l 0.0625,-0.1875 -0.03125,0.09375"
       id="path8919"
       inkscape:connector-curvature="0" />
    <path
       style="fill:#ffff00;fill-opacity:1"
       d="M 12.859375,17.390625 12.96875,17.03125 12.859375,17.015625 12.75,17 12.96875,17.03125 Q 13.1875,17.0625 13.375,17.125 L 13.5625,17.1875 13.28125,17.09375 13,17 13.375,17.125 Q 13.75,17.25 14,17.5 q 0.25,0.25 0.5,0.5 0.25,0.25 0.5,0.5 0.25,0.25 0.625,0.375 L 16,19 15.71875,18.90625 15.4375,18.8125 15.625,18.875 Q 15.8125,18.9375 16,18.9375 H 16.1875 16.09375 16 V 19.5 20.0625 H 16.09375 16.1875 16 q -0.1875,0 -0.375,0.0625 L 15.4375,20.1875 15.71875,20.09375 16,20 15.625,20.125 Q 15.25,20.25 15.25,20.5 q 0,0.25 0.25,0.5 0.25,0.25 0.5,0.5 0.25,0.25 0.625,0.375 L 17,22 16.71875,21.90625 16.4375,21.8125 16.625,21.875 Q 16.8125,21.9375 17,21.9375 H 17.1875 17.09375 17 V 22.46875 23 22.625 22.25 22.5 q 0,0.25 -0.03125,0.46875 l -0.03125,0.21875 0.01563,-0.109375 0.01563,-0.109375 -0.359375,0.140625 q -0.359375,0.140625 -0.5,0.5 L 15.96875,23.96875 16.078125,23.953125 16.1875,23.9375 15.96875,23.96875 Q 15.75,24 15.5,24 H 15.25 15.625 16 15.5 15 l 0.125,-0.375 Q 15.25,23.25 15.5,23 q 0.25,-0.25 0.25,-0.5 0,-0.25 -0.375,-0.375 -0.375,-0.125 -0.75,0 -0.375,0.125 -0.5,0.5 -0.125,0.375 -0.25,0.75 -0.125,0.375 -0.5,0.5 L 13,24 13.28125,23.90625 13.5625,23.8125 13.375,23.875 q -0.1875,0.0625 -0.40625,0.09375 L 12.75,24 12.859375,23.984375 12.96875,23.96875 12.859375,23.609375 Q 12.75,23.25 12.375,23.125 12,23 11.625,22.875 11.25,22.75 11.25,22.5 q 0,-0.25 0.375,-0.375 Q 12,22 12.5,22 q 0.5,0 0.875,-0.125 0.375,-0.125 0.5,-0.5 Q 14,21 14,20.5 14,20 13.875,19.625 13.75,19.25 13.5,19.25 q -0.25,0 -0.375,0.375 Q 13,20 12.875,20.375 12.75,20.75 12.5,20.75 12.25,20.75 12.125,20.375 12,20 12,19.5 12,19 12.125,18.625 12.25,18.25 12.5,18 12.75,17.75 12.859375,17.390625 M 15.09375,23.71875 15,24 14.96875,24.09375 14.9375,24.1875 15,24 q 0.0625,-0.1875 0.125,-0.375 l 0.0625,-0.1875 -0.09375,0.28125"
       id="path8921"
       inkscape:connector-curvature="0" />
    <path
       style="fill:#ff4000;fill-opacity:1"
       d="M 22.125,17.625 Q 22.25,17.25 22.609375,17.109375 L 22.96875,16.96875 22.984375,16.859375 23,16.75 22.96875,16.96875 Q 22.9375,17.1875 22.875,17.375 L 22.8125,17.5625 22.90625,17.28125 23,17 22.875,17.375 q -0.125,0.375 -0.5,0.5 L 22,18 22.125,17.625"
       id="path8923"
       inkscape:connector-curvature="0" />
    <path
       style="fill:#a00000;fill-opacity:1"
       d="M 24.125,17.625 Q 24.25,17.25 24.5,17.25 q 0.25,0 0.375,0.375 0.125,0.375 0,0.75 -0.125,0.375 -0.375,0.375 -0.25,0 -0.375,-0.375 -0.125,-0.375 0,-0.75"
       id="path8925"
       inkscape:connector-curvature="0" />
    <path
       style="fill:#ff8000;fill-opacity:1"
       d="M 4,19.5 V 19 l 0.375,0.125 q 0.375,0.125 0.5,0.5 0.125,0.375 0.25,0.75 0.125,0.375 0.5,0.5 L 6,21 5.984375,21.515625 5.96875,22.03125 6.078125,22.046875 6.1875,22.0625 5.96875,22.03125 Q 5.75,22 5.5,22 H 5.25 5.625 6 L 5.484375,22.015625 4.96875,22.03125 4.984375,22.140625 5,22.25 4.96875,22.03125 Q 4.9375,21.8125 4.875,21.625 L 4.8125,21.4375 4.90625,21.71875 5,22 4.875,21.625 Q 4.75,21.25 4.5,21 4.25,20.75 4.125,20.375 4,20 4,19.5 m 2,1.875 V 21 20.875 20.75 21 q 0,0.25 0,0.5 v 0.25 -0.375 m -2,-2.5 V 19 19.375 19.75 19.5 Q 4,19.25 4,19 v -0.25 0.125"
       id="path8927"
       inkscape:connector-curvature="0" />
    <path
       style="fill:#ffff00;fill-opacity:1"
       d="m 10.25,19.5 q 0,-0.25 0.25,-0.25 0.25,0 0.25,0.25 0,0.25 -0.25,0.25 -0.25,0 -0.25,-0.25"
       id="path8929"
       inkscape:connector-curvature="0" />
    <path
       style="fill:#ff4000;fill-opacity:1"
       d="m 17.25,19.5 q 0,-0.25 0.375,-0.375 0.375,-0.125 0.75,0 0.375,0.125 0.625,0.375 0.25,0.25 0.5,0.25 0.25,0 0.5,-0.25 0.25,-0.25 0.5,-0.25 0.25,0 0.375,0.375 Q 21,20 21,20.5 q 0,0.5 0.125,0.875 0.125,0.375 0.5,0.5 L 22,22 21.875,22.375 q -0.125,0.375 -0.5,0.5 L 21,23 21.28125,22.90625 21.5625,22.8125 21.375,22.875 q -0.1875,0.0625 -0.3125,0.1875 l -0.125,0.125 L 21,23.125 21.0625,23.0625 20.90625,22.65625 Q 20.75,22.25 20.375,22.125 20,22 19.625,22.125 19.25,22.25 19.25,22.5 q 0,0.25 0.25,0.5 0.25,0.25 0.25,0.5 0,0.25 -0.25,0.5 -0.25,0.25 -0.5,0.5 -0.25,0.25 -0.5,0.5 -0.25,0.25 -0.5,0.5 -0.25,0.25 -0.625,0.375 Q 17,26 16.5,26 16,26 15.625,26.125 15.25,26.25 15.171875,26.671875 l -0.07813,0.421875 0.07813,-0.04687 L 15.25,27 15.09375,27.09375 Q 14.9375,27.1875 14.875,27.375 L 14.8125,27.5625 14.90625,27.28125 15,27 14.875,27.375 q -0.125,0.375 -0.5,0.5 Q 14,28 13.5,28 13,28 12.5,28 12,28 11.625,27.875 11.25,27.75 11,27.5 10.75,27.25 10.375,27.125 10,27 9.5,27 9,27 8.625,26.875 8.25,26.75 8.125,26.375 L 8,26 8.09375,26.28125 8.1875,26.5625 8.125,26.375 Q 8.0625,26.1875 7.9375,26.0625 L 7.8125,25.9375 7.875,26 7.9375,26.0625 8.46875,26.03125 Q 9,26 9.5,26 q 0.5,0 1,0 H 11 l 0.125,0.375 q 0.125,0.375 0.5,0.5 Q 12,27 12.5,27 13,27 13.375,26.875 13.75,26.75 14,26.5 14.25,26.25 14.5,26 14.75,25.75 15,25.5 15.25,25.25 15.625,25.125 16,25 16.5,25 q 0.5,0 0.875,-0.125 0.375,-0.125 0.5,-0.5 Q 18,24 18,23.5 18,23 18.125,22.625 18.25,22.25 18.5,22 18.75,21.75 18.875,21.375 19,21 18.875,20.625 18.75,20.25 18.375,20.125 18,20 17.625,19.875 17.25,19.75 17.25,19.5 M 11.125,26 H 11 10.625 10.25 10.5 q 0.25,0 0.5,0 h 0.25 -0.125"
       id="path8931"
       inkscape:connector-curvature="0" />
    <path
       style="fill:#ff0000;fill-opacity:1"
       d="M 23.125,19.625 Q 23.25,19.25 23.5,19.25 q 0.25,0 0.375,0.375 0.125,0.375 0,0.75 Q 23.75,20.75 23.5,21 23.25,21.25 23,21.5 22.75,21.75 22.375,21.875 L 22,22 22.125,21.625 Q 22.25,21.25 22.5,21 q 0.25,-0.25 0.328125,-0.671875 l 0.07813,-0.421875 -0.07813,0.04687 L 22.75,20 22.90625,19.90625 Q 23.0625,19.8125 23.125,19.625 L 23.1875,19.4375 23.09375,19.71875 23,20 23.125,19.625"
       id="path8933"
       inkscape:connector-curvature="0" />
    <path
       style="fill:#ffc000;fill-opacity:1"
       d="m 15.25,20.5 q 0,-0.25 0.375,-0.375 0.375,-0.125 0.75,0 0.375,0.125 0.625,0.375 0.25,0.25 0.5,0.5 0.25,0.25 0.25,0.5 0,0.25 -0.375,0.375 Q 17,22 16.625,21.875 16.25,21.75 16,21.5 15.75,21.25 15.5,21 15.25,20.75 15.25,20.5"
       id="path8935"
       inkscape:connector-curvature="0" />
    <path
       style="fill:#ffc000;fill-opacity:1"
       d="M 18.125,20.375 18,20 l 0.375,0.125 q 0.375,0.125 0.5,0.5 L 19,21 18.90625,20.71875 18.8125,20.4375 18.875,20.625 Q 18.9375,20.8125 18.9375,21 V 21.1875 21.09375 21 L 18.59375,20.875 Q 18.25,20.75 18.125,20.375 M 18.28125,20.09375 18,20 17.90625,19.96875 17.8125,19.9375 18,20 q 0.1875,0.0625 0.375,0.125 l 0.1875,0.0625 -0.28125,-0.09375"
       id="path8937"
       inkscape:connector-curvature="0" />
    <path
       style="fill:#ff8000;fill-opacity:1"
       d="M 21.9375,20.3125 22.125,19.875 22.0625,19.8125 22,19.75 22.125,19.875 Q 22.25,20 22.5,20 H 22.75 22.375 22 22.5 23 22.625 22.25 22.5 q 0.25,0 0.40625,-0.09375 l 0.15625,-0.09375 -0.07813,0.04687 -0.07813,0.04687 -0.07813,0.421875 Q 22.75,20.75 22.5,21 22.25,21.25 22.125,21.625 L 22,22 21.625,21.875 q -0.375,-0.125 -0.5,-0.5 L 21,21 21.09375,21.28125 21.1875,21.5625 21.125,21.375 Q 21.0625,21.1875 21.03125,20.96875 L 21,20.75 l 0.01563,0.109375 0.01563,0.109375 0.359375,-0.109375 Q 21.75,20.75 21.9375,20.3125"
       id="path8939"
       inkscape:connector-curvature="0" />
    <path
       style="fill:#ffc000;fill-opacity:1"
       d="M 5,22.5 V 22 22.375 22.75 22.5 Q 5,22.25 4.96875,22.03125 L 4.9375,21.8125 4.953125,21.921875 4.96875,22.03125 5.484375,22.015625 Q 6,22 6.375,22.125 q 0.375,0.125 0.5,0.5 L 7,23 H 6.5 Q 6,23 5.515625,22.984375 L 5.03125,22.96875 5.046875,23.078125 5.0625,23.1875 5.03125,22.96875 Q 5,22.75 5,22.5 V 22.25 22.625 23 22.5 M 7.03125,23.09375 7,23 6.90625,22.71875 6.8125,22.4375 6.875,22.625 Q 6.9375,22.8125 7,23 l 0.0625,0.1875 -0.03125,-0.09375"
       id="path8941"
       inkscape:connector-curvature="0" />
    <path
       style="fill:#ffc000;fill-opacity:1"
       d="m 14.125,22.625 q 0.125,-0.375 0.5,-0.5 0.375,-0.125 0.75,0 0.375,0.125 0.375,0.375 0,0.25 -0.25,0.5 -0.25,0.25 -0.375,0.625 Q 15,24 14.875,24.375 14.75,24.75 14.5,25 14.25,25.25 14,25.5 13.75,25.75 13.375,25.875 13,26 12.5,26 q -0.5,0 -1,0 -0.5,0 -1,0 H 10 V 25.5 25 h 0.5 q 0.5,0 0.875,-0.125 0.375,-0.125 0.5,-0.5 L 12,24 h 0.5 q 0.5,0 0.875,-0.125 0.375,-0.125 0.5,-0.5 Q 14,23 14.125,22.625 M 12.375,24 H 12 11.875 11.75 12 q 0.25,0 0.5,0 h 0.25 -0.375 m -2,1 H 10 9.875 9.75 10 q 0.25,0 0.5,0 h 0.25 -0.375 m -0.5,1 H 10 10.375 10.75 10.5 Q 10.25,26 10,26 H 9.75 9.875"
       id="path8943"
       inkscape:connector-curvature="0" />
    <path
       style="fill:#ff0000;fill-opacity:1"
       d="m 19.25,22.5 q 0,-0.25 0.375,-0.375 0.375,-0.125 0.75,0 0.375,0.125 0.53125,0.53125 L 21.0625,23.0625 21.125,23 l 0.0625,-0.0625 -0.125,0.125 q -0.125,0.125 -0.1875,0.3125 L 20.8125,23.5625 20.90625,23.28125 21,23 20.875,23.375 Q 20.75,23.75 20.5,24 20.25,24.25 20,24.5 19.75,24.75 19.5,25 19.25,25.25 19,25.5 18.75,25.75 18.5,26 18.25,26.25 18,26.5 17.75,26.75 17.375,26.875 17,27 16.5,27 16,27 15.5,27 H 15 15.375 15.75 15.5 q -0.25,0 -0.40625,0.09375 l -0.15625,0.09375 0.07813,-0.04687 0.07813,-0.04687 0.07813,-0.421875 Q 15.25,26.25 15.625,26.125 16,26 16.5,26 17,26 17.375,25.875 17.75,25.75 18,25.5 q 0.25,-0.25 0.5,-0.5 0.25,-0.25 0.5,-0.5 0.25,-0.25 0.5,-0.5 0.25,-0.25 0.25,-0.5 0,-0.25 -0.25,-0.5 -0.25,-0.25 -0.25,-0.5"
       id="path8945"
       inkscape:connector-curvature="0" />
    <path
       style="fill:#ff8000;fill-opacity:1"
       d="M 5.125,23.375 5,23 5.09375,23.28125 5.1875,23.5625 5.125,23.375 Q 5.0625,23.1875 5.03125,22.96875 L 5,22.75 5.015625,22.859375 5.03125,22.96875 5.515625,22.984375 Q 6,23 6.5,23 H 7 l 0.125,0.375 q 0.125,0.375 0.5,0.5 L 8,24 8.125,24.375 q 0.125,0.375 0.5,0.5 Q 9,25 9.5,25 H 10 V 25.5 26 H 9.5 Q 9,26 8.46875,26.03125 L 7.9375,26.0625 8,26.125 8.0625,26.1875 7.9375,26.0625 Q 7.8125,25.9375 7.625,25.875 L 7.4375,25.8125 7.71875,25.90625 8,26 7.625,25.875 Q 7.25,25.75 7,25.5 6.75,25.25 6.5,25 6.25,24.75 6,24.5 5.75,24.25 5.5,24 5.25,23.75 5.125,23.375 M 9.625,26 H 10 10.125 10.25 10 Q 9.75,26 9.5,26 H 9.25 9.625 m 0.5,-1 H 10 9.625 9.25 9.5 q 0.25,0 0.5,0 h 0.25 -0.125 M 8.09375,24.03125 8,24 7.71875,23.90625 7.4375,23.8125 7.625,23.875 Q 7.8125,23.9375 8,24 l 0.1875,0.0625 -0.09375,-0.03125 m -1,-0.75 L 7,23 6.96875,22.90625 6.9375,22.8125 7,23 q 0.0625,0.1875 0.125,0.375 l 0.0625,0.1875 -0.09375,-0.28125"
       id="path8947"
       inkscape:connector-curvature="0" />
    <path
       style="fill:#ffc000;fill-opacity:1"
       d="m 16.109375,23.609375 q 0.140625,-0.359375 0.5,-0.5 L 16.96875,22.96875 16.984375,22.859375 17,22.75 16.96875,22.96875 Q 16.9375,23.1875 16.875,23.375 L 16.8125,23.5625 16.90625,23.28125 17,23 16.875,23.375 q -0.125,0.375 -0.5,0.5 L 16,24 16.28125,23.90625 16.5625,23.8125 16.375,23.875 q -0.1875,0.0625 -0.40625,0.09375 L 15.75,24 l 0.109375,-0.01563 0.109375,-0.01563 0.140625,-0.359375"
       id="path8949"
       inkscape:connector-curvature="0" />
    <path
       style="fill:#ffc000;fill-opacity:1"
       d="M 8.125,24.375 8,24 8.375,24.125 Q 8.75,24.25 8.890625,24.609375 L 9.03125,24.96875 9.140625,24.984375 9.25,25 9.03125,24.96875 Q 8.8125,24.9375 8.625,24.875 L 8.4375,24.8125 8.71875,24.90625 9,25 8.625,24.875 Q 8.25,24.75 8.125,24.375 M 8.28125,24.09375 8,24 7.90625,23.96875 7.8125,23.9375 8,24 q 0.1875,0.0625 0.375,0.125 l 0.1875,0.0625 -0.28125,-0.09375"
       id="path8951"
       inkscape:connector-curvature="0" />
  </g>
</svg>
