<?xml version="1.0" encoding="UTF-8" standalone="no"?>
<!-- Created with Inkscape (http://www.inkscape.org/) -->

<svg
   xmlns:dc="http://purl.org/dc/elements/1.1/"
   xmlns:cc="http://creativecommons.org/ns#"
   xmlns:rdf="http://www.w3.org/1999/02/22-rdf-syntax-ns#"
   xmlns:svg="http://www.w3.org/2000/svg"
   xmlns="http://www.w3.org/2000/svg"
   xmlns:sodipodi="http://sodipodi.sourceforge.net/DTD/sodipodi-0.dtd"
   xmlns:inkscape="http://www.inkscape.org/namespaces/inkscape"
   version="1.1"
   id="svg869"
   width="200"
   height="200"
   viewBox="0 0 200 200"
   sodipodi:docname="mushroom2.svg"
   inkscape:version="0.92.5 (2060ec1f9f, 2020-04-08)">
  <metadata
     id="metadata875">
    <rdf:RDF>
      <cc:Work
         rdf:about="">
        <dc:format>image/svg+xml</dc:format>
        <dc:type
           rdf:resource="http://purl.org/dc/dcmitype/StillImage" />
        <dc:title></dc:title>
      </cc:Work>
    </rdf:RDF>
  </metadata>
  <defs
     id="defs873" />
  <sodipodi:namedview
     pagecolor="#ffffff"
     bordercolor="#666666"
     borderopacity="1"
     objecttolerance="10"
     gridtolerance="10"
     guidetolerance="10"
     inkscape:pageopacity="0"
     inkscape:pageshadow="2"
     inkscape:window-width="1920"
     inkscape:window-height="1118"
     id="namedview871"
     showgrid="false"
     inkscape:pagecheckerboard="true"
     inkscape:zoom="1"
     inkscape:cx="17.598768"
     inkscape:cy="32.908744"
     inkscape:window-x="0"
     inkscape:window-y="24"
     inkscape:window-maximized="1"
     inkscape:current-layer="svg869" />
  <g
     id="g879"
     style="display:inline"
     transform="matrix(1.590278,0,0,1.590278,51.505893,44.095025)">
    <path
       style="fill:#b589cf;stroke-width:1.33333325"
       d="m 16.215324,70.353855 -10.7476277,-0.07576 3.143124,-2.472383 3.1431247,-2.472381 h 1.293101 1.293102 l 1.659852,-2 1.659852,-2 H 14.21017 10.76049 l -1.4471429,2.704011 -1.4471427,2.70401 -1.2664356,-0.7827 -1.2664356,-0.7827 V 62.242038 59.308123 L 2.6666666,57.642762 0,55.977401 v -2.151962 -2.15196 l 2.1528208,1.786682 2.1528207,1.786682 2.590164,-3.198716 2.5901638,-3.198717 -0.7521976,-4.75804 -0.7521976,-4.758038 4.0466489,-6.389545 4.046649,-6.389545 2.295897,-0.817435 2.295897,-0.817433 1.63865,-1.266362 1.638647,-1.26636 L 22.59056,19.857793 21.237156,17.328934 16.618577,15.399169 12,13.469403 V 11.656208 9.843012 L 13.666666,7.7926844 15.333333,5.7423567 20.157378,2.8711784 24.981423,0 h 4.271862 4.271861 l 5.843112,3.4242916 5.843112,3.4242916 0.847825,2.6712598 0.847825,2.67126 -2.326828,2.571115 -2.326826,2.571115 h -1.579331 -1.579329 l -1.547353,3.39607 -1.547354,3.396071 v 0.63693 0.636931 l 3.295668,1.253011 3.295668,1.25301 1.90162,4.551217 1.90162,4.551219 1.469379,0.908127 1.469378,0.908125 v 3.342298 3.3423 l 1.372859,2.565211 1.37286,2.56521 3.79525,1.9626 3.79525,1.9626 0.646994,3.384535 0.646995,3.384533 h -1.856951 -1.85695 l -0.767472,-2 -0.767472,-2 H 53.19068 50.666666 v 1.066667 1.066666 l 1.577777,1.577778 1.577778,1.577778 -0.726193,0.726194 -0.726193,0.726193 -3.518252,-1.337637 -3.518251,-1.337636 v -2.033002 -2.033001 h -2.060417 -2.060417 l 0.891369,-4.751409 0.891369,-4.751409 -2.366784,-5.248591 -2.366785,-5.24859 h -0.969073 -0.969073 l -1.664178,4.017678 -1.664177,4.017679 3.626501,5.233044 3.626501,5.233042 -0.807408,3.749277 -0.807409,3.749279 3.447693,1.587328 3.447694,1.587328 1.863096,-0.714937 1.863097,-0.714936 3.552345,2.794274 3.552345,2.794276 h -1.913144 -1.913145 l -1.6,-1.6 -1.6,-1.6 v 1.6 1.6 h -8.593509 -8.59351 l 0.309481,-5.536381 0.309481,-5.536383 -2.238868,-2.764883 -2.238866,-2.764884 -2.143771,5.130763 -2.143771,5.130766 v 1.570501 1.570501 l 1.481475,1.481475 1.481476,1.481476 z m 0.64024,-11.687191 h 0.41112 l 2.699992,-5.926847 2.69999,-5.926848 V 46.15995 45.50693 l -1.385053,-3.642966 -1.385053,-3.642967 -1.764295,2.556167 -1.764293,2.556168 -0.652607,6.975823 -0.652605,6.975824 0.690841,0.690843 0.690843,0.690842 z"
       id="path905"
       inkscape:connector-curvature="0" />
    <path
       style="fill:#b79775;stroke-width:1.33333325"
       d="m 16.215324,70.353855 -10.7476277,-0.07576 3.143124,-2.472383 3.1431247,-2.472381 h 1.293101 1.293102 l 1.659852,-2 1.659852,-2 H 14.21017 10.76049 l -1.4471429,2.704011 -1.4471427,2.70401 -1.2664356,-0.7827 -1.2664356,-0.7827 V 62.242038 59.308123 L 2.6666666,57.642762 0,55.977401 v -2.151962 -2.15196 l 2.1528208,1.786682 2.1528207,1.786682 2.590164,-3.198716 2.5901638,-3.198717 -0.7521976,-4.75804 -0.7521976,-4.758038 4.0466489,-6.389545 4.046649,-6.389545 2.295897,-0.817435 2.295897,-0.817433 1.63865,-1.266362 1.638647,-1.26636 L 22.59056,19.857793 21.237156,17.328934 16.618577,15.399169 12,13.469403 V 11.656208 9.843012 L 13.666666,7.7926844 15.333333,5.7423567 20.157378,2.8711784 24.981423,0 h 4.271862 4.271861 l 5.843112,3.4242916 5.843112,3.4242916 0.847825,2.6712598 0.847825,2.67126 -2.326828,2.571115 -2.326826,2.571115 h -1.579331 -1.579329 l -1.547353,3.39607 -1.547354,3.396071 v 0.63693 0.636931 l 3.295668,1.253011 3.295668,1.25301 1.90162,4.551217 1.90162,4.551219 1.469379,0.908127 1.469378,0.908125 v 3.342298 3.3423 l 1.372859,2.565211 1.37286,2.56521 3.79525,1.9626 3.79525,1.9626 0.646994,3.384535 0.646995,3.384533 h -1.856951 -1.85695 l -0.767472,-2 -0.767472,-2 H 53.19068 50.666666 v 1.066667 1.066666 l 1.577777,1.577778 1.577778,1.577778 -0.726193,0.726194 -0.726193,0.726193 -3.518252,-1.337637 -3.518251,-1.337636 v -2.033002 -2.033001 h -2.060417 -2.060417 l 0.891369,-4.751409 0.891369,-4.751409 -2.366784,-5.248591 -2.366785,-5.24859 h -0.969073 -0.969073 l -1.664178,4.017678 -1.664177,4.017679 3.626501,5.233044 3.626501,5.233042 -0.807408,3.749277 -0.807409,3.749279 3.447693,1.587328 3.447694,1.587328 1.863096,-0.714937 1.863097,-0.714936 3.552345,2.794274 3.552345,2.794276 h -1.913144 -1.913145 l -1.6,-1.6 -1.6,-1.6 v 1.6 1.6 h -8.593509 -8.59351 l 0.309481,-5.536381 0.309481,-5.536383 -2.238868,-2.764883 -2.238866,-2.764884 -2.143771,5.130763 -2.143771,5.130766 v 1.570501 1.570501 l 1.481475,1.481475 1.481476,1.481476 z m 0.64024,-11.687191 h 0.41112 l 2.699992,-5.926847 2.69999,-5.926848 V 46.15995 45.50693 l -1.385053,-3.642966 -1.385053,-3.642967 -1.764295,2.556167 -1.764293,2.556168 -0.652607,6.975823 -0.652605,6.975824 0.690841,0.690843 0.690843,0.690842 z M 26.666666,5.3333331 h 1.333333 V 3.9999998 2.6666666 h -1.333333 -1.333333 v 1.3333332 1.3333333 z"
       id="path903"
       inkscape:connector-curvature="0" />
    <path
       style="fill:#937f5a;stroke-width:1.33333325"
       d="m 16.215324,70.353855 -10.7476277,-0.07576 3.143124,-2.472383 3.1431247,-2.472381 h 1.293101 1.293102 l 1.659852,-2 1.659852,-2 H 14.21017 10.76049 l -1.4471429,2.704011 -1.4471427,2.70401 -1.2664356,-0.7827 -1.2664356,-0.7827 V 62.242038 59.308123 L 2.6666666,57.642762 0,55.977401 v -2.151962 -2.15196 l 2.1528208,1.786682 2.1528207,1.786682 2.590164,-3.198716 2.5901638,-3.198717 -0.7521976,-4.75804 -0.7521976,-4.758038 4.0466489,-6.389545 4.046649,-6.389545 2.295897,-0.817435 2.295897,-0.817433 1.63865,-1.266362 1.638647,-1.26636 L 22.59056,19.857793 21.237156,17.328934 16.618577,15.399169 12,13.469403 V 11.656208 9.843012 L 13.666666,7.7926844 15.333333,5.7423567 20.157378,2.8711784 24.981423,0 h 4.271862 4.271861 l 5.843112,3.4242916 5.843112,3.4242916 0.847825,2.6712598 0.847825,2.67126 -2.326828,2.571115 -2.326826,2.571115 h -1.579331 -1.579329 l -1.547353,3.39607 -1.547354,3.396071 v 0.63693 0.636931 l 3.295668,1.253011 3.295668,1.25301 1.90162,4.551217 1.90162,4.551219 1.469379,0.908127 1.469378,0.908125 v 3.342298 3.3423 l 1.372859,2.565211 1.37286,2.56521 3.79525,1.9626 3.79525,1.9626 0.646994,3.384535 0.646995,3.384533 h -1.856951 -1.85695 l -0.767472,-2 -0.767472,-2 H 53.19068 50.666666 v 1.066667 1.066666 l 1.577777,1.577778 1.577778,1.577778 -0.726193,0.726194 -0.726193,0.726193 -3.518252,-1.337637 -3.518251,-1.337636 v -2.033002 -2.033001 h -2.060417 -2.060417 l 0.891369,-4.751409 0.891369,-4.751409 -2.366784,-5.248591 -2.366785,-5.24859 h -0.969073 -0.969073 l -1.664178,4.017678 -1.664177,4.017679 3.626501,5.233044 3.626501,5.233042 -0.807408,3.749277 -0.807409,3.749279 3.447693,1.587328 3.447694,1.587328 1.863096,-0.714937 1.863097,-0.714936 3.552345,2.794274 3.552345,2.794276 h -1.913144 -1.913145 l -1.6,-1.6 -1.6,-1.6 v 1.6 1.6 h -8.593509 -8.59351 l 0.309481,-5.536381 0.309481,-5.536383 -2.238868,-2.764883 -2.238866,-2.764884 -2.143771,5.130763 -2.143771,5.130766 v 1.570501 1.570501 l 1.481475,1.481475 1.481476,1.481476 z m 2.96063,-3.687191 h 0.666667 l 0.824045,-1.333333 0.824046,-1.333333 h -0.666667 -0.666667 l -0.824045,1.333333 -0.824045,1.333333 z m -2.32039,-8 h 0.41112 l 2.699992,-5.926847 2.69999,-5.926848 V 46.15995 45.50693 l -1.385053,-3.642966 -1.385053,-3.642967 -1.764295,2.556167 -1.764293,2.556168 -0.652607,6.975823 -0.652605,6.975824 0.690841,0.690843 0.690843,0.690842 z m 13.366658,-12.444443 0.888888,-0.888889 -0.888888,-0.88889 -0.888889,-0.888888 v 1.777778 1.777777 z m -2.888889,-2.222223 h 0.666666 v -0.666666 -0.666667 h -0.666666 -0.666667 v 0.666667 0.666666 z m -16,-2.666666 H 12 v -0.666667 -0.666667 h -0.666667 -0.666667 v 0.666667 0.666667 z m 14.523133,-2.666667 h 0.365756 v -1.941348 -1.941349 l -1.132861,0.700147 -1.13286,0.700146 0.767105,1.241202 0.767105,1.241202 z M 15.333333,37.333332 H 16 v -0.666667 -0.666666 h -0.666667 -0.666667 v 0.666666 0.666667 z m 26.666666,0 h 0.666667 v -0.666667 -0.666666 h -0.666667 -0.666667 v 0.666666 0.666667 z M 18,30.666666 h 0.666666 V 29.999999 29.333332 H 18 17.333333 v 0.666667 0.666667 z M 26.666666,5.3333331 h 1.333333 V 3.9999998 2.6666666 h -1.333333 -1.333333 v 1.3333332 1.3333333 z"
       id="path901"
       inkscape:connector-curvature="0" />
    <path
       style="fill:#734989;stroke-width:1.33333325"
       d="m 16.215324,70.353855 -10.7476277,-0.07576 3.143124,-2.472383 3.1431247,-2.472381 h 1.293101 1.293102 l 1.659852,-2 1.659852,-2 H 14.21017 10.76049 l -1.4471429,2.704011 -1.4471427,2.70401 -1.2664356,-0.7827 -1.2664356,-0.7827 V 62.242038 59.308123 L 2.6666666,57.642762 0,55.977401 v -2.151962 -2.15196 l 2.1528208,1.786682 2.1528207,1.786682 2.590164,-3.198716 2.5901638,-3.198717 -0.7521976,-4.75804 -0.7521976,-4.758038 4.0466489,-6.389545 4.046649,-6.389545 2.295897,-0.817435 2.295897,-0.817433 1.63865,-1.266362 1.638647,-1.26636 L 22.59056,19.857793 21.237156,17.328934 16.618577,15.399169 12,13.469403 V 11.656208 9.843012 L 13.666666,7.7926844 15.333333,5.7423567 20.157378,2.8711784 24.981423,0 h 4.271862 4.271861 l 5.843112,3.4242916 5.843112,3.4242916 0.847825,2.6712598 0.847825,2.67126 -2.326828,2.571115 -2.326826,2.571115 h -1.579331 -1.579329 l -1.547353,3.39607 -1.547354,3.396071 v 0.63693 0.636931 l 3.295668,1.253011 3.295668,1.25301 1.90162,4.551217 1.90162,4.551219 1.469379,0.908127 1.469378,0.908125 v 3.342298 3.3423 l 1.372859,2.565211 1.37286,2.56521 3.79525,1.9626 3.79525,1.9626 0.659332,3.449068 0.65933,3.449067 -2.160774,-0.419678 -2.160774,-0.419677 -0.01701,-2.217416 -0.017,-2.217417 -1.196762,-1.094107 -1.196762,-1.094105 0.959124,1.666667 0.959122,1.666666 h -2.745355 -2.745356 v 1.066667 1.066666 l 1.577777,1.577778 1.577778,1.577778 -0.726193,0.726194 -0.726193,0.726193 -3.518252,-1.337637 -3.518251,-1.337636 v -2.033002 -2.033001 h -2.060417 -2.060417 l 0.891369,-4.751409 0.891369,-4.751409 -2.366784,-5.248591 -2.366785,-5.24859 h -0.969073 -0.969073 l -1.664178,4.017678 -1.664177,4.017679 3.626501,5.233044 3.626501,5.233042 -0.807408,3.749277 -0.807409,3.749279 3.447693,1.587328 3.447694,1.587328 1.863096,-0.714937 1.863097,-0.714936 3.552345,2.794274 3.552345,2.794276 h -1.913144 -1.913145 l -1.6,-1.6 -1.6,-1.6 v 1.6 1.6 h -8.593509 -8.59351 l 0.309481,-5.536381 0.309481,-5.536383 -2.238868,-2.764883 -2.238866,-2.764884 -2.143771,5.130763 -2.143771,5.130766 v 1.570501 1.570501 l 1.481475,1.481475 1.481476,1.481476 z M 15.333333,69.333331 H 16 v -0.666667 -0.666667 h -0.666667 -0.666667 v 0.666667 0.666667 z m 24.078689,-1.333334 h 0.587977 V 67.41202 66.824043 l -1.539344,-0.951368 -1.539345,-0.951367 0.951367,1.539345 0.951367,1.539344 z M 19.92131,66.666664 h 1.412023 v -1.333333 -1.333333 h -0.587977 -0.587978 l -0.824045,1.333333 -0.824045,1.333333 z m -11.2970481,-4.74516 1.9575961,-2.588173 0.0424,-1.25484 0.0424,-1.254838 -1.957595,2.588171 -1.9575955,2.588174 -0.042404,1.25484 -0.042405,1.254838 z M 22.452646,59.999998 h 1.119313 l 1.652202,-3.666667 1.652201,-3.666666 -2.771515,2.944249 -2.771514,2.944248 v 0.722418 0.722418 z m 26.250862,0 h 0.546131 l -0.789537,-2.057504 -0.789539,-2.057504 -0.635463,0.635463 -0.635462,0.635462 0.878869,1.422041 0.878871,1.422042 z M 16.855564,58.666664 h 0.41112 l 2.699992,-5.926847 2.69999,-5.926848 V 46.15995 45.50693 l -1.385053,-3.642966 -1.385053,-3.642967 -1.764295,2.556167 -1.764293,2.556168 -0.652607,6.975823 -0.652605,6.975824 0.690841,0.690843 0.690843,0.690842 z m 21.223125,0 h 0.587977 v -1.333333 -1.333333 h -1.412023 -1.412022 l 0.824045,1.333333 0.824045,1.333333 z M 7.057504,56.580941 9.4483413,55.670562 8.7019483,54.924169 7.9555554,54.177775 6.3111109,55.834547 4.6666666,57.491319 Z m 26.942495,-0.580943 h 0.666667 v -0.666667 -0.666666 h -0.666667 -0.666666 v 0.666666 0.666667 z m 10.666667,-1.333333 h 0.666666 v -0.666667 -0.666667 h -0.666666 -0.666667 v 0.666667 0.666667 z M 14.222222,48.888887 15.11111,47.999998 14.222222,47.111109 13.333333,46.222221 v 1.777777 1.777777 z m 15.916667,-1.249999 0.805554,-0.805556 -0.700292,-1.75 -0.700292,-1.75 -0.105264,2.555556 -0.105262,2.555554 z m 15.897953,-0.972223 h 0.54613 l -0.789537,-2.057504 -0.789539,-2.057504 -0.635462,0.635463 -0.635463,0.635462 0.878869,1.422042 0.878871,1.422041 z m -18.481287,-1.777777 0.888888,-0.88889 -0.888888,-0.888889 -0.888889,-0.888888 v 1.777777 1.777778 z M 11.412022,42.666665 H 12 V 41.333332 39.999998 H 10.587977 9.1759545 l 0.8240453,1.333334 0.8240452,1.333333 z m 4.143534,-4.444444 0.888888,-0.888889 -0.888888,-0.888889 -0.88889,-0.888888 v 1.777777 1.777777 z m 10.30091,0.444444 h 1.699089 v -2.057377 -2.057377 l -1.886828,0.724044 -1.886828,0.724044 h -0.636305 -0.636306 l 0.824045,1.333333 0.824045,1.333333 z m 17.800381,-0.545737 0.61018,-0.61018 -0.878869,-1.422041 -0.878871,-1.422042 H 41.091383 39.67348 l 1.686594,2.032222 1.686593,2.032221 z m -9.656848,-2.120929 h 0.666667 v -0.666667 -0.666667 h -0.666667 -0.666666 v 0.666667 0.666667 z M 20,33.333332 h 1.777777 L 20.888889,32.444443 20,31.555555 l -0.88889,0.888888 -0.888888,0.888889 z m -3.412023,-1.333333 h 0.587977 L 18,30.666666 18.824045,29.333332 H 17.412022 16 v 1.333334 1.333333 z m 21.412022,-1.333333 h 0.666667 v -0.666667 -0.666667 h -0.666667 -0.666666 v 0.666667 0.666667 z m -6.666666,-1.333334 h 0.666666 v -0.666666 -0.666667 h -0.666666 -0.666667 v 0.666667 0.666666 z m -5.194444,-5.694444 0.805554,-0.805556 -0.700292,-1.749999 -0.700292,-1.75 -0.105264,2.555556 -0.105262,2.555554 z m 2.527777,-2.305555 h 0.666667 v -0.666667 -0.666667 h -0.666667 -0.666667 v 0.666667 0.666667 z m 2.666667,0 h 0.666666 v -0.666667 -0.666667 h -0.666666 -0.666667 v 0.666667 0.666667 z M 21.745356,10.646249 22.824045,10.666666 22,9.333333 21.175954,7.9999997 l -2.254644,0.020417 -2.254644,0.020417 2,1.2924993 2,1.292499 z m 4.92131,-3.9795826 h 1.175955 L 28.738467,5.2171567 29.634313,3.7676471 28.15049,2.2838235 26.666666,0.79999997 25.182842,2.2838235 l -1.483823,1.4838236 0.895846,1.4495096 0.895846,1.4495097 z"
       id="path899"
       inkscape:connector-curvature="0" />
    <path
       style="fill:#775e4d;stroke-width:1.33333325"
       d="m 16.215324,70.353855 -10.7476277,-0.07576 3.143124,-2.472383 3.1431247,-2.472381 h 1.293101 1.293102 l 1.659852,-2 1.659852,-2 H 14.21017 10.76049 l -1.4471429,2.704011 -1.4471427,2.70401 -1.2664356,-0.7827 -1.2664356,-0.7827 V 62.242038 59.308123 L 2.6666666,57.642762 0,55.977401 v -2.151962 -2.15196 l 2.1528208,1.786682 2.1528207,1.786682 2.590164,-3.198716 2.5901638,-3.198717 -0.7521976,-4.75804 -0.7521976,-4.758038 4.0466489,-6.389545 4.046649,-6.389545 2.295897,-0.817435 2.295897,-0.817433 1.63865,-1.266362 1.638647,-1.26636 L 22.59056,19.857793 21.237156,17.328934 16.618577,15.399169 12,13.469403 V 11.656208 9.843012 L 13.666666,7.7926844 15.333333,5.7423567 20.157378,2.8711784 24.981423,0 h 4.271862 4.271861 l 5.843112,3.4242916 5.843112,3.4242916 0.847825,2.6712598 0.847825,2.67126 -2.326828,2.571115 -2.326826,2.571115 h -1.579331 -1.579329 l -1.547353,3.39607 -1.547354,3.396071 v 0.63693 0.636931 l 3.295668,1.253011 3.295668,1.25301 1.90162,4.551217 1.90162,4.551219 1.469379,0.908127 1.469378,0.908125 v 3.342298 3.3423 l 1.372859,2.565211 1.37286,2.56521 3.79525,1.9626 3.79525,1.9626 0.659332,3.449068 0.65933,3.449067 -2.160774,-0.419678 -2.160774,-0.419677 -0.01701,-2.217416 -0.017,-2.217417 -1.196762,-1.094107 -1.196762,-1.094105 0.959124,1.666667 0.959122,1.666666 h -2.745355 -2.745356 v 1.066667 1.066666 l 1.577777,1.577778 1.577778,1.577778 -0.726193,0.726194 -0.726193,0.726193 -3.518252,-1.337637 -3.518251,-1.337636 v -2.033002 -2.033001 h -2.060417 -2.060417 l 0.891369,-4.751409 0.891369,-4.751409 -2.366784,-5.248591 -2.366785,-5.24859 h -0.969073 -0.969073 l -1.664178,4.017678 -1.664177,4.017679 3.626501,5.233044 3.626501,5.233042 -0.807408,3.749277 -0.807409,3.749279 3.447693,1.587328 3.447694,1.587328 1.863096,-0.714937 1.863097,-0.714936 3.552345,2.794274 3.552345,2.794276 h -1.913144 -1.913145 l -1.6,-1.6 -1.6,-1.6 v 1.6 1.6 h -8.593509 -8.59351 l 0.309481,-5.536381 0.309481,-5.536383 -2.238868,-2.764883 -2.238866,-2.764884 -2.143771,5.130763 -2.143771,5.130766 v 1.570501 1.570501 l 1.481475,1.481475 1.481476,1.481476 z M 15.333333,69.333331 H 16 v -0.666667 -0.666667 h -0.666667 -0.666667 v 0.666667 0.666667 z m 24.078689,-1.333334 h 0.587977 V 67.41202 66.824043 l -1.539344,-0.951368 -1.539345,-0.951367 0.951367,1.539345 0.951367,1.539344 z M 19.92131,66.666664 h 1.412023 v -1.333333 -1.333333 h -0.587977 -0.587978 l -0.824045,1.333333 -0.824045,1.333333 z m -11.2970481,-4.74516 1.9575961,-2.588173 0.0424,-1.25484 0.0424,-1.254838 -1.957595,2.588171 -1.9575955,2.588174 -0.042404,1.25484 -0.042405,1.254838 z M 22.452646,59.999998 h 1.119313 l 1.652202,-3.666667 1.652201,-3.666666 -2.771515,2.944249 -2.771514,2.944248 v 0.722418 0.722418 z m 26.250862,0 h 0.546131 l -0.789537,-2.057504 -0.789539,-2.057504 -0.635463,0.635463 -0.635462,0.635462 0.878869,1.422041 0.878871,1.422042 z M 16.855564,58.666664 h 0.41112 l 2.699992,-5.926847 2.69999,-5.926848 V 46.15995 45.50693 l -1.385053,-3.642966 -1.385053,-3.642967 -1.764295,2.556167 -1.764293,2.556168 -0.652607,6.975823 -0.652605,6.975824 0.690841,0.690843 0.690843,0.690842 z m 21.223125,0 h 0.587977 v -1.333333 -1.333333 h -1.412023 -1.412022 l 0.824045,1.333333 0.824045,1.333333 z M 7.057504,56.580941 9.4483413,55.670562 8.7019483,54.924169 7.9555554,54.177775 6.3111109,55.834547 4.6666666,57.491319 Z m 26.942495,-0.580943 h 0.666667 v -0.666667 -0.666666 h -0.666667 -0.666666 v 0.666666 0.666667 z m 10.666667,-1.333333 h 0.666666 v -0.666667 -0.666667 h -0.666666 -0.666667 v 0.666667 0.666667 z M 14.222222,48.888887 15.11111,47.999998 14.222222,47.111109 13.333333,46.222221 v 1.777777 1.777777 z m 15.916667,-1.249999 0.805554,-0.805556 -0.700292,-1.75 -0.700292,-1.75 -0.105264,2.555556 -0.105262,2.555554 z m 15.897953,-0.972223 h 0.54613 l -0.789537,-2.057504 -0.789539,-2.057504 -0.635462,0.635463 -0.635463,0.635462 0.878869,1.422042 0.878871,1.422041 z m -18.481287,-1.777777 0.888888,-0.88889 -0.888888,-0.888889 -0.888889,-0.888888 v 1.777777 1.777778 z M 11.412022,42.666665 H 12 V 41.333332 39.999998 H 10.587977 9.1759545 l 0.8240453,1.333334 0.8240452,1.333333 z m 4.143534,-4.444444 0.888888,-0.888889 -0.888888,-0.888889 -0.88889,-0.888888 v 1.777777 1.777777 z m 10.30091,0.444444 h 1.699089 v -2.057377 -2.057377 l -1.886828,0.724044 -1.886828,0.724044 h -0.636305 -0.636306 l 0.824045,1.333333 0.824045,1.333333 z m 17.800381,-0.545737 0.61018,-0.61018 -0.878869,-1.422041 -0.878871,-1.422042 H 41.091383 39.67348 l 1.686594,2.032222 1.686593,2.032221 z m -9.656848,-2.120929 h 0.666667 v -0.666667 -0.666667 h -0.666667 -0.666666 v 0.666667 0.666667 z M 20,33.333332 h 1.777777 L 20.888889,32.444443 20,31.555555 l -0.88889,0.888888 -0.888888,0.888889 z m -3.412023,-1.333333 h 0.587977 L 18,30.666666 18.824045,29.333332 H 17.412022 16 v 1.333334 1.333333 z m 21.412022,-1.333333 h 0.666667 v -0.666667 -0.666667 h -0.666667 -0.666666 v 0.666667 0.666667 z m -6.666666,-1.333334 h 0.666666 v -0.666666 -0.666667 h -0.666666 -0.666667 v 0.666667 0.666666 z m -5.194444,-5.694444 0.805554,-0.805556 -0.700292,-1.749999 -0.700292,-1.75 -0.105264,2.555556 -0.105262,2.555554 z m 2.527777,-2.305555 h 0.666667 v -0.666667 -0.666667 h -0.666667 -0.666667 v 0.666667 0.666667 z m 2.666667,0 h 0.666666 v -0.666667 -0.666667 h -0.666666 -0.666667 v 0.666667 0.666667 z m -7,-9.53311 1,0.199777 V 10.880686 9.761373 L 22.101249,8.2887372 18.869165,6.8161013 17.35148,8.6448015 l -1.517687,1.8287005 3.749769,0.563473 3.749771,0.563472 z m 2.333333,-3.8002233 h 2.509288 L 30.079075,6.538718 30.982198,5.0774362 28.824431,2.9196704 26.666666,0.76190473 24.508901,2.9196704 22.351134,5.0774362 23.254257,6.538718 24.157378,7.9999997 Z"
       id="path897"
       inkscape:connector-curvature="0" />
    <path
       style="fill:#5f466f;stroke-width:1.33333325"
       d="m 16.215324,70.353855 -10.7476277,-0.07576 3.143124,-2.472383 3.1431247,-2.472381 h 1.293101 1.293102 l 1.659852,-2 1.659852,-2 H 14.21017 10.76049 l -1.4471429,2.704011 -1.4471427,2.70401 -1.2664356,-0.7827 -1.2664356,-0.7827 V 62.242038 59.308123 L 2.6666666,57.642762 0,55.977401 v -2.151962 -2.15196 l 2.1528208,1.786682 2.1528207,1.786682 2.590164,-3.198716 2.5901638,-3.198717 -0.7521976,-4.75804 -0.7521976,-4.758038 4.0466489,-6.389545 4.046649,-6.389545 2.295897,-0.817435 2.295897,-0.817433 1.63865,-1.266362 1.638647,-1.26636 L 22.59056,19.857793 21.237156,17.328934 16.618577,15.399169 12,13.469403 V 11.656208 9.843012 L 13.666666,7.7926844 15.333333,5.7423567 20.157378,2.8711784 24.981423,0 h 4.271862 4.271861 l 5.843112,3.4242916 5.843112,3.4242916 0.847825,2.6712598 0.847825,2.67126 -2.326828,2.571115 -2.326826,2.571115 h -1.579331 -1.579329 l -1.547353,3.39607 -1.547354,3.396071 v 0.63693 0.636931 l 3.295668,1.253011 3.295668,1.25301 1.90162,4.551217 1.90162,4.551219 1.469379,0.908127 1.469378,0.908125 v 3.342298 3.3423 l 1.372859,2.565211 1.37286,2.56521 3.79525,1.9626 3.79525,1.9626 0.646994,3.384535 0.646995,3.384533 h -1.856951 -1.85695 l -0.767472,-2 -0.767472,-2 H 53.19068 50.666666 v 1.066667 1.066666 l 1.577777,1.577778 1.577778,1.577778 -0.726193,0.726194 -0.726193,0.726193 -3.518252,-1.337637 -3.518251,-1.337636 v -2.033002 -2.033001 h -2.060417 -2.060417 l 0.891369,-4.751409 0.891369,-4.751409 -2.366784,-5.248591 -2.366785,-5.24859 h -0.969073 -0.969073 l -1.664178,4.017678 -1.664177,4.017679 3.626501,5.233044 3.626501,5.233042 -0.807408,3.749277 -0.807409,3.749279 3.447693,1.587328 3.447694,1.587328 1.863096,-0.714937 1.863097,-0.714936 3.552345,2.794274 3.552345,2.794276 h -1.913144 -1.913145 l -1.6,-1.6 -1.6,-1.6 v 1.6 1.6 h -8.666666 -8.666667 v -1.066667 -1.066666 l 1.666667,-1.795606 1.666667,-1.795606 -1.859986,1.060439 -1.859984,1.060439 0.687558,-3.596726 0.687557,-3.596727 -2.350468,-2.902706 -2.350469,-2.902705 -2.143771,5.130763 -2.143771,5.130766 v 1.570501 1.570501 l 1.481475,1.481475 1.481476,1.481476 z M 13.83451,69.333331 h 0.658558 l 3.420132,-1.300332 3.420133,-1.300332 -0.0424,-2.366335 -0.0424,-2.366334 -1.771252,2.333333 -1.771252,2.333333 H 16.265032 14.824045 L 14,67.999997 13.175954,69.333331 Z m 28.583588,0 h 0.575086 l -1.659852,-2 -1.659852,-2 -1.503407,0.0424 -1.503407,0.0424 2.588173,1.957595 2.588172,1.957596 z m -33.7938361,-7.411827 1.9575961,-2.588173 0.0424,-1.25484 0.0424,-1.254838 -1.957595,2.588171 -1.9575955,2.588174 -0.042404,1.25484 -0.042405,1.254838 z m 26.5516921,2.078494 h 0.666667 l 0.824045,-1.333334 0.824045,-1.333333 h -0.666666 -0.666667 l -0.824045,1.333333 -0.824046,1.333334 z m 15.169401,-2.666667 h 0.478689 l -0.958125,-1.55028 -0.958125,-1.550279 -0.984083,-4.116387 -0.984081,-4.116387 -0.136483,4.066667 -0.136481,4.066666 1.6,1.6 1.6,1.6 z M 22.619754,59.999998 h 1.286421 l 1.380246,-2.579012 1.380245,-2.579011 -0.105263,-3.087656 -0.105264,-3.087654 -1.38947,3.817537 -1.389472,3.817536 -1.151515,-1.817536 -1.151514,-1.817537 -0.02042,3.666666 -0.02042,3.666667 z m -5.76419,-1.333334 h 0.41112 l 2.699992,-5.926847 2.69999,-5.926848 V 46.15995 45.50693 l -1.385053,-3.642966 -1.385053,-3.642967 -1.764295,2.556167 -1.764293,2.556168 -0.652607,6.975823 -0.652605,6.975824 0.690841,0.690843 0.690843,0.690842 z m 20.811102,-0.0424 1,0.0424 v -1.190681 -1.190681 l -2.109049,-0.809319 -2.109051,-0.809318 h -1.479123 -1.479122 l 2.588172,1.957596 2.588173,1.957594 1,0.0424 z m 20.624819,-0.05507 0.291487,0.09747 -0.660461,-1.721135 -0.660463,-1.721138 -4.135274,-1.560892 -4.135276,-1.560892 0.82748,0.82748 0.827478,0.82748 3.676772,2.357083 3.676771,2.357084 0.291486,0.09747 z m -51.6248185,-2.023155 3.3333333,-0.898533 0.4523812,-1.180897 0.452381,-1.180896 1.880952,-1.880954 1.880952,-1.880952 v -2.407769 -2.407769 l -2.385842,4.448661 -2.3858422,4.44866 -3.2808243,1.919491 -3.2808242,1.91949 z M 44.666666,54.666665 h 0.666666 v -0.666667 -0.666667 h -0.666666 -0.666667 v 0.666667 0.666667 z M 33.999999,53.333331 h 0.666667 v -0.666666 -0.666667 h -0.666667 -0.666666 v 0.666667 0.666666 z m -3.333333,-1.333333 h 1.777777 l -0.888888,-0.888889 -0.888889,-0.888888 -0.888889,0.888888 -0.888888,0.888889 z m -0.458751,-3.64129 0.664056,-1.641291 -0.61465,-2.358709 -0.614651,-2.35871 -0.0494,4 -0.0494,4 0.664056,-1.64129 z m -2.658208,-1.35871 0.672515,-1.666666 -0.672515,-1.666667 -0.672514,-1.666667 v 3.333334 3.333333 z m 18.698884,1 h 0.629956 l -0.909372,-4.333333 -0.909372,-4.333333 -2.50744,-4 -2.507439,-4 -0.02247,3.041847 -0.02246,3.041846 2,0.767472 2,0.767472 v 2.414964 2.414965 l 0.809319,2.109051 0.809318,2.109049 z m -34.112302,-6.088501 1.009617,-2.578165 0.09371,-1.285715 0.09371,-1.285713 -2.157766,2.157765 -2.1577655,2.157765 1.0544355,1.706114 1.054436,1.706113 z m 35.197043,-0.578165 h 0.666667 v -0.666667 -0.666667 h -0.666667 -0.666666 v 0.666667 0.666667 z m -31.86111,-3.027777 0.805555,-0.805556 -0.700292,-1.75 -0.700292,-1.75 -0.105264,2.555556 -0.105263,2.555554 z m 10.606467,0.36111 h 2.078689 l -0.753664,-1.219453 -0.753663,-1.219453 1.674974,-0.675283 1.674974,-0.675284 -3,-0.105264 -3,-0.105263 V 33.333332 31.999999 L 21,32.093705 l -3,0.09372 2.666666,1.04066 2.666667,1.040662 0.166666,1.532292 0.166667,1.532293 0.166667,0.666667 0.166666,0.666666 z m 6.64694,0 h 0.281185 l 1.659852,-2 1.659852,-2 h -1.941037 -1.941038 v 2 2 z m -17.137652,-6.687084 1.078689,-0.02042 2,-1.292498 2,-1.292499 -2.254644,-0.02042 -2.254644,-0.02042 -0.824045,1.333334 -0.824045,1.333333 z m 12.163454,0.02042 h 2.09158 l -2.588172,-1.957596 -2.588173,-1.957595 -1.16326,-0.0424 -1.163258,-0.0424 1.659851,2 1.659852,2 z m 7.357618,-0.55782 2.442384,-0.775513 h 1.224282 1.224284 v -1.333334 -1.333333 h -1.078493 -1.078495 l -2.588172,2.108847 -2.588173,2.108846 z m -3.553494,-2.553291 0.888888,-0.888889 -0.888888,-0.888889 -0.888889,-0.888888 v 1.777777 1.777777 z m 2.444444,-0.888889 h 0.666667 v -0.666667 -0.666666 h -0.666667 -0.666666 v 0.666666 0.666667 z m -7.705537,-5.15378 0.597977,-3.15378 -1.642458,-1.512886 -1.642458,-1.512887 0.862904,2.442383 0.862906,2.442384 0.181576,2.224282 0.181576,2.224284 z m 2.372204,-1.512886 h 0.666667 v -0.666667 -0.666667 h -0.666667 -0.666667 v 0.666667 0.666667 z m 2.888889,-0.444444 0.888888,-0.88889 -0.888888,-0.888889 -0.888889,-0.888888 v 1.777777 1.777778 z m 2.444444,-0.88889 h 0.666667 v -0.666666 -0.666667 h -0.666667 -0.666666 v 0.666667 0.666666 z m -9.666666,-8.199776 1,0.199777 V 10.880686 9.761373 L 22.101249,8.2887372 18.869165,6.8161013 17.35148,8.6448015 l -1.517687,1.8287005 3.749769,0.563473 3.749771,0.563472 z m 2.333333,-3.8002233 h 2.509288 L 30.079075,6.538718 30.982198,5.0774362 28.824431,2.9196704 26.666666,0.76190473 24.508901,2.9196704 22.351134,5.0774362 23.254257,6.538718 24.157378,7.9999997 Z"
       id="path895"
       inkscape:connector-curvature="0" />
    <path
       style="fill:#544b65;stroke-width:1.33333325"
       d="m 16.215324,70.353855 -10.7476277,-0.07576 3.143124,-2.472383 3.1431247,-2.472381 h 1.293101 1.293102 l 1.659852,-2 1.659852,-2 H 14.21017 10.76049 l -1.4471429,2.704011 -1.4471427,2.70401 -1.2664356,-0.7827 -1.2664356,-0.7827 V 62.242038 59.308123 L 2.6666666,57.642762 0,55.977401 v -2.151962 -2.15196 l 2.1528208,1.786682 2.1528207,1.786682 2.590164,-3.198716 2.5901638,-3.198717 -0.7521976,-4.75804 -0.7521976,-4.758038 4.0466489,-6.389545 4.046649,-6.389545 2.295897,-0.817435 2.295897,-0.817433 1.63865,-1.266362 1.638647,-1.26636 L 22.59056,19.857793 21.237156,17.328934 16.618577,15.399169 12,13.469403 V 11.656208 9.843012 L 13.666666,7.7926844 15.333333,5.7423567 20.157378,2.8711784 24.981423,0 h 4.271862 4.271861 l 5.843112,3.4242916 5.843112,3.4242916 0.847825,2.6712598 0.847825,2.67126 -2.326828,2.571115 -2.326826,2.571115 h -1.579331 -1.579329 l -1.547353,3.39607 -1.547354,3.396071 v 0.63693 0.636931 l 3.295668,1.253011 3.295668,1.25301 1.90162,4.551217 1.90162,4.551219 1.469379,0.908127 1.469378,0.908125 v 3.342298 3.3423 l 1.372859,2.565211 1.37286,2.56521 3.79525,1.9626 3.79525,1.9626 0.646994,3.384535 0.646995,3.384533 h -1.856951 -1.85695 l -0.767472,-2 -0.767472,-2 H 53.19068 50.666666 v 1.066667 1.066666 l 1.577777,1.577778 1.577778,1.577778 -0.726193,0.726194 -0.726193,0.726193 -3.518252,-1.337637 -3.518251,-1.337636 v -2.033002 -2.033001 h -2.060417 -2.060417 l 0.891369,-4.751409 0.891369,-4.751409 -2.366784,-5.248591 -2.366785,-5.24859 h -0.969073 -0.969073 l -1.664178,4.017678 -1.664177,4.017679 3.626501,5.233044 3.626501,5.233042 -0.807408,3.749277 -0.807409,3.749279 3.447693,1.587328 3.447694,1.587328 1.863096,-0.714937 1.863097,-0.714936 3.552345,2.794274 3.552345,2.794276 h -1.913144 -1.913145 l -1.6,-1.6 -1.6,-1.6 v 1.6 1.6 h -8.666666 -8.666667 v -1.066667 -1.066666 l 1.666667,-1.795606 1.666667,-1.795606 -1.859986,1.060439 -1.859984,1.060439 0.687558,-3.596726 0.687557,-3.596727 -2.350468,-2.902706 -2.350469,-2.902705 -2.143771,5.130763 -2.143771,5.130766 v 1.570501 1.570501 l 1.481475,1.481475 1.481476,1.481476 z M 13.83451,69.333331 h 0.658558 l 3.420132,-1.300332 3.420133,-1.300332 -0.0424,-2.366335 -0.0424,-2.366334 -1.771252,2.333333 -1.771252,2.333333 H 16.265032 14.824045 L 14,67.999997 13.175954,69.333331 Z m 28.583588,0 h 0.575086 l -1.659852,-2 -1.659852,-2 -1.503407,0.0424 -1.503407,0.0424 2.588173,1.957595 2.588172,1.957596 z m -33.7938361,-7.411827 1.9575961,-2.588173 0.0424,-1.25484 0.0424,-1.254838 -1.957595,2.588171 -1.9575955,2.588174 -0.042404,1.25484 -0.042405,1.254838 z m 26.5516921,2.078494 h 0.666667 l 0.824045,-1.333334 0.824045,-1.333333 h -0.666666 -0.666667 l -0.824045,1.333333 -0.824046,1.333334 z m 15.169401,-2.666667 h 0.478689 l -0.958125,-1.55028 -0.958125,-1.550279 -0.984083,-4.116387 -0.984081,-4.116387 -0.136483,4.066667 -0.136481,4.066666 1.6,1.6 1.6,1.6 z M 22.619754,59.999998 h 1.286421 l 1.380246,-2.579012 1.380245,-2.579011 -0.105263,-3.087656 -0.105264,-3.087654 -1.38947,3.817537 -1.389472,3.817536 -1.151515,-1.817536 -1.151514,-1.817537 -0.02042,3.666666 -0.02042,3.666667 z m -5.76419,-1.333334 h 0.41112 l 2.699992,-5.926847 2.69999,-5.926848 V 46.15995 45.50693 l -1.385053,-3.642966 -1.385053,-3.642967 -1.764295,2.556167 -1.764293,2.556168 -0.652607,6.975823 -0.652605,6.975824 0.690841,0.690843 0.690843,0.690842 z m 20.811102,-0.0424 1,0.0424 v -1.190681 -1.190681 l -2.109049,-0.809319 -2.109051,-0.809318 h -1.479123 -1.479122 l 2.588172,1.957596 2.588173,1.957594 1,0.0424 z m 20.624819,-0.05507 0.291487,0.09747 -0.660461,-1.721135 -0.660463,-1.721138 -4.135274,-1.560892 -4.135276,-1.560892 0.82748,0.82748 0.827478,0.82748 3.676772,2.357083 3.676771,2.357084 0.291486,0.09747 z m -51.6248185,-2.023155 3.3333333,-0.898533 0.4523812,-1.180897 0.452381,-1.180896 1.880952,-1.880954 1.880952,-1.880952 v -2.407769 -2.407769 l -2.385842,4.448661 -2.3858422,4.44866 -3.2808243,1.919491 -3.2808242,1.91949 z M 44.666666,54.666665 h 0.666666 v -0.666667 -0.666667 h -0.666666 -0.666667 v 0.666667 0.666667 z M 33.999999,53.333331 h 0.666667 v -0.666666 -0.666667 h -0.666667 -0.666666 v 0.666667 0.666666 z m -3.333333,-1.333333 h 1.777777 l -0.888888,-0.888889 -0.888889,-0.888888 -0.888889,0.888888 -0.888888,0.888889 z m -0.458751,-3.64129 0.664056,-1.641291 -0.61465,-2.358709 -0.614651,-2.35871 -0.0494,4 -0.0494,4 0.664056,-1.64129 z m -2.658208,-1.35871 0.672515,-1.666666 -0.672515,-1.666667 -0.672514,-1.666667 v 3.333334 3.333333 z m 18.698884,1 h 0.629956 l -0.909372,-4.333333 -0.909372,-4.333333 -2.50744,-4 -2.507439,-4 -0.02247,3.041847 -0.02246,3.041846 2,0.767472 2,0.767472 v 2.414964 2.414965 l 0.809319,2.109051 0.809318,2.109049 z m -34.112302,-6.088501 1.009617,-2.578165 0.09371,-1.285715 0.09371,-1.285713 -2.157766,2.157765 -2.1577655,2.157765 1.0544355,1.706114 1.054436,1.706113 z m 35.197043,-0.578165 h 0.666667 v -0.666667 -0.666667 h -0.666667 -0.666666 v 0.666667 0.666667 z m -31.86111,-3.027777 0.805555,-0.805556 -0.700292,-1.75 -0.700292,-1.75 -0.105264,2.555556 -0.105263,2.555554 z m 10.606467,0.36111 h 2.078689 l -0.753664,-1.219453 -0.753663,-1.219453 1.674974,-0.675283 1.674974,-0.675284 -3,-0.105264 -3,-0.105263 V 33.333332 31.999999 L 21,32.093705 l -3,0.09372 2.666666,1.04066 2.666667,1.040662 0.166666,1.532292 0.166667,1.532293 0.166667,0.666667 0.166666,0.666666 z m 6.64694,0 h 0.281185 l 1.659852,-2 1.659852,-2 h -1.941037 -1.941038 v 2 2 z m -17.137652,-6.687084 1.078689,-0.02042 2,-1.292498 2,-1.292499 -2.254644,-0.02042 -2.254644,-0.02042 -0.824045,1.333334 -0.824045,1.333333 z m 12.163454,0.02042 h 2.09158 l -2.588172,-1.957596 -2.588173,-1.957595 -1.16326,-0.0424 -1.163258,-0.0424 1.659851,2 1.659852,2 z m 7.357618,-0.55782 2.442384,-0.775513 h 1.224282 1.224284 v -1.333334 -1.333333 h -1.078493 -1.078495 l -2.588172,2.108847 -2.588173,2.108846 z m -3.553494,-2.553291 0.888888,-0.888889 -0.888888,-0.888889 -0.888889,-0.888888 v 1.777777 1.777777 z m 2.444444,-0.888889 h 0.666667 v -0.666667 -0.666666 h -0.666667 -0.666666 v 0.666666 0.666667 z m -7.705537,-5.15378 0.597977,-3.15378 -1.642458,-1.512886 -1.642458,-1.512887 0.862904,2.442383 0.862906,2.442384 0.181576,2.224282 0.181576,2.224284 z m 2.372204,-1.512886 h 0.666667 v -0.666667 -0.666667 h -0.666667 -0.666667 v 0.666667 0.666667 z m 2.888889,-0.444444 0.888888,-0.88889 -0.888888,-0.888889 -0.888889,-0.888888 v 1.777777 1.777778 z m 2.444444,-0.88889 h 0.666667 v -0.666666 -0.666667 h -0.666667 -0.666666 v 0.666667 0.666666 z m -7.333333,-7.670456 2,-0.714025 6,-1.7177678 6,-1.7177677 -3.754321,-0.089991 -3.754323,-0.089992 -2.693207,1.4413603 -2.693206,1.4413602 -0.805362,-0.805361 -0.805361,-0.8053622 2.98312,-2.0894587 2.98312,-2.0894586 -1.613556,-1.944216 -1.613556,-1.9442159 -2.783341,0.397676 -2.78334,0.3976761 0.04419,3.5588319 0.04419,3.5588319 -2.11603,-1.1324648 -2.116029,-1.1324648 -1.889544,1.1678021 -1.889543,1.1678021 0.628052,0.4593385 0.628053,0.4593384 4,1.468277 4,1.468276 z"
       id="path893"
       inkscape:connector-curvature="0" />
    <path
       style="fill:#4a4132;stroke-width:1.33333325"
       d="m 16.215324,70.353855 -10.7476277,-0.07576 3.143124,-2.472383 3.1431247,-2.472381 h 1.293101 1.293102 l 1.659852,-2 1.659852,-2 H 14.21017 10.76049 l -1.4471429,2.704011 -1.4471427,2.70401 -1.2664356,-0.7827 -1.2664356,-0.7827 V 62.242038 59.308123 L 2.6666666,57.642762 0,55.977401 v -2.151962 -2.15196 l 2.1528208,1.786682 2.1528207,1.786682 2.590164,-3.198716 2.5901638,-3.198717 -0.7521976,-4.75804 -0.7521976,-4.758038 4.0466489,-6.389545 4.046649,-6.389545 2.295897,-0.817435 2.295897,-0.817433 1.63865,-1.266362 1.638647,-1.26636 L 22.59056,19.857793 21.237156,17.328934 16.618577,15.399169 12,13.469403 V 11.656208 9.843012 L 13.666666,7.7926844 15.333333,5.7423567 20.157378,2.8711784 24.981423,0 h 4.271862 4.271861 l 5.843112,3.4242916 5.843112,3.4242916 0.847825,2.6712598 0.847825,2.67126 -2.326828,2.571115 -2.326826,2.571115 h -1.579331 -1.579329 l -1.547353,3.39607 -1.547354,3.396071 v 0.63693 0.636931 l 3.295668,1.253011 3.295668,1.25301 1.90162,4.551217 1.90162,4.551219 1.469379,0.908127 1.469378,0.908125 v 3.342298 3.3423 l 1.372859,2.565211 1.37286,2.56521 3.79525,1.9626 3.79525,1.9626 0.646994,3.384535 0.646995,3.384533 h -1.856951 -1.85695 l -0.767472,-2 -0.767472,-2 H 53.19068 50.666666 v 1.066667 1.066666 l 1.577777,1.577778 1.577778,1.577778 -0.726193,0.726194 -0.726193,0.726193 -3.518252,-1.337637 -3.518251,-1.337636 v -2.033002 -2.033001 h -2.060417 -2.060417 l 0.891369,-4.751409 0.891369,-4.751409 -2.366784,-5.248591 -2.366785,-5.24859 h -0.969073 -0.969073 l -1.664178,4.017678 -1.664177,4.017679 3.626501,5.233044 3.626501,5.233042 -0.807408,3.749277 -0.807409,3.749279 3.447693,1.587328 3.447694,1.587328 1.863096,-0.714937 1.863097,-0.714936 3.552345,2.794274 3.552345,2.794276 h -1.913144 -1.913145 l -1.6,-1.6 -1.6,-1.6 v 1.6 1.6 h -8.666666 -8.666667 v -1.066667 -1.066666 l 1.666667,-1.795606 1.666667,-1.795606 -1.859986,1.060439 -1.859984,1.060439 0.687558,-3.596726 0.687557,-3.596727 -2.350468,-2.902706 -2.350469,-2.902705 -2.143771,5.130763 -2.143771,5.130766 v 1.570501 1.570501 l 1.481475,1.481475 1.481476,1.481476 z M 13.83451,69.333331 h 0.658558 l 3.420132,-1.300332 3.420133,-1.300332 -0.0424,-2.366335 -0.0424,-2.366334 -1.771252,2.333333 -1.771252,2.333333 H 16.265032 14.824045 L 14,67.999997 13.175954,69.333331 Z m 28.583588,0 h 0.575086 l -1.659852,-2 -1.659852,-2 -1.503407,0.0424 -1.503407,0.0424 2.588173,1.957595 2.588172,1.957596 z m -33.0847649,-8.666667 2.6490959,-3.999999 0.0088,-3 0.0088,-3 h 1.333333 1.333333 v -2.979197 -2.979199 l -2.385842,4.448661 -2.3858422,4.44866 -3.2808243,1.919491 -3.2808242,1.91949 2.8900887,-0.777252 2.8900887,-0.777253 -0.2959408,2.016373 -0.2959408,2.016373 -0.9274813,0.927482 -0.9274813,0.927481 0.00879,1.444445 0.00879,1.444444 z m 25.8426209,3.333334 h 0.666667 l 0.824045,-1.333334 0.824045,-1.333333 h -0.666666 -0.666667 l -0.824045,1.333333 -0.824046,1.333334 z m 15.169401,-2.666667 h 0.478689 l -0.958125,-1.55028 -0.958125,-1.550279 -0.984083,-4.116387 -0.984081,-4.116387 -0.136483,4.066667 -0.136481,4.066666 1.6,1.6 1.6,1.6 z M 22.619754,59.999998 h 1.286421 l 1.380246,-2.579012 1.380245,-2.579011 -0.105263,-3.087656 -0.105264,-3.087654 -1.38947,3.817537 -1.389472,3.817536 -1.151515,-1.817536 -1.151514,-1.817537 -0.02042,3.666666 -0.02042,3.666667 z m -5.76419,-1.333334 h 0.41112 l 2.699992,-5.926847 2.69999,-5.926848 V 46.15995 45.50693 l -1.385053,-3.642966 -1.385053,-3.642967 -1.764295,2.556167 -1.764293,2.556168 -0.652607,6.975823 -0.652605,6.975824 0.690841,0.690843 0.690843,0.690842 z m 20.811102,-0.0424 1,0.0424 v -1.190681 -1.190681 l -2.109049,-0.809319 -2.109051,-0.809318 h -1.479123 -1.479122 l 2.588172,1.957596 2.588173,1.957594 1,0.0424 z m 20.624819,-0.05507 0.291487,0.09747 -0.660461,-1.721135 -0.660463,-1.721138 -4.135274,-1.560892 -4.135276,-1.560892 0.82748,0.82748 0.827478,0.82748 3.676772,2.357083 3.676771,2.357084 0.291486,0.09747 z M 44.666666,54.666665 h 0.666666 v -0.666667 -0.666667 h -0.666666 -0.666667 v 0.666667 0.666667 z M 33.999999,53.333331 h 0.666667 v -0.666666 -0.666667 h -0.666667 -0.666666 v 0.666667 0.666666 z m -3.333333,-1.333333 h 1.777777 l -0.888888,-0.888889 -0.888889,-0.888888 -0.888889,0.888888 -0.888888,0.888889 z m -0.458751,-3.64129 0.664056,-1.641291 -0.61465,-2.358709 -0.614651,-2.35871 -0.0494,4 -0.0494,4 0.664056,-1.64129 z m -2.658208,-1.35871 0.672515,-1.666666 -0.672515,-1.666667 -0.672514,-1.666667 v 3.333334 3.333333 z m 18.698884,1 h 0.629956 l -0.909372,-4.333333 -0.909372,-4.333333 -2.50744,-4 -2.507439,-4 -0.02247,3.041847 -0.02246,3.041846 2,0.767472 2,0.767472 v 2.414964 2.414965 l 0.809319,2.109051 0.809318,2.109049 z m -33.498436,-7.483682 1.699927,-3.849651 0.108292,1.745356 0.108292,1.745356 1.275102,-0.788056 1.275101,-0.788056 -0.795563,-2.073202 -0.795562,-2.073203 -3.310585,3.310585 -3.3105857,3.310585 1.0228267,1.65497 1.022826,1.654968 z m 34.583177,0.817016 h 0.666667 v -0.666667 -0.666667 h -0.666667 -0.666666 v 0.666667 0.666667 z m -18.251042,-1.438596 2.251043,-0.105264 -1.591764,-0.647547 -1.591764,-0.647546 0.734416,-1.913858 0.734416,-1.913856 h -2.809319 -2.809319 v -1.333333 -1.333333 h -2.745355 -2.745356 l 0.903262,-1.461509 0.903262,-1.461508 -2.380751,0.461508 -2.380751,0.461509 -0.555236,1.667573 -0.555234,1.667573 1.792196,-0.687729 1.792196,-0.687731 4.401508,4.020158 4.401507,4.020155 z m 3.643339,-1.228071 h 0.281185 l 1.659852,-2 1.659852,-2 h -1.941037 -1.941038 v 2 2 z m -5.229036,-6.666666 h 1.83674 v -1.333333 -1.333334 l -1.582016,0.333334 -1.582016,0.333333 0.340846,-5.531017 0.340847,-5.531016 -1.298663,-0.802617 -1.298662,-0.802618 0.71539,5.333633 0.715391,5.333635 h -1.672152 -1.67215 l 1.659851,2 1.659852,2 z m 7.612456,-0.55782 2.442384,-0.775513 h 1.224282 1.224284 v -1.333334 -1.333333 h -1.078493 -1.078495 l -2.588172,2.108847 -2.588173,2.108846 z m -3.553494,-2.553291 0.888888,-0.888889 -0.888888,-0.888889 -0.888889,-0.888888 v 1.777777 1.777777 z m 2.444444,-0.888889 h 0.666667 v -0.666667 -0.666666 h -0.666667 -0.666666 v 0.666666 0.666667 z m -5.11111,-5.777777 0.888888,-0.888889 -0.888888,-0.88889 -0.88889,-0.888888 v 1.777778 1.777777 z m 2.583333,0.08333 0.805555,-0.805556 -0.700292,-1.75 -0.700292,-1.75 -0.105264,2.555556 -0.105263,2.555555 z m 3.9398,-0.972222 h 0.587977 v -0.587978 -0.587977 l -1.539344,-0.951368 -1.539345,-0.951367 0.951367,1.539346 0.951368,1.539344 z m -8.745356,-9.00379 2,-0.714025 6,-1.7177678 6,-1.7177677 -3.754321,-0.089991 -3.754323,-0.089992 -2.693207,1.4413603 -2.693206,1.4413602 -0.805362,-0.805361 -0.805361,-0.8053622 2.98312,-2.0894587 2.98312,-2.0894586 -1.613556,-1.944216 -1.613556,-1.9442159 -2.783341,0.397676 -2.78334,0.3976761 0.04419,3.5588319 0.04419,3.5588319 -2.11603,-1.1324648 -2.116029,-1.1324648 -1.889544,1.1678021 -1.889543,1.1678021 0.628052,0.4593385 0.628053,0.4593384 4,1.468277 4,1.468276 z"
       id="path891"
       inkscape:connector-curvature="0" />
    <path
       style="fill:#373243;stroke-width:1.33333325"
       d="m 16.215324,70.353855 -10.7476277,-0.07576 3.143124,-2.472383 3.1431247,-2.472381 h 1.293101 1.293102 l 1.659852,-2 1.659852,-2 H 14.21017 10.76049 l -1.4471429,2.704011 -1.4471427,2.70401 -1.2664356,-0.7827 -1.2664356,-0.7827 V 62.242038 59.308123 L 2.6666666,57.642762 0,55.977401 v -2.151962 -2.15196 l 2.1528208,1.786682 2.1528207,1.786682 2.590164,-3.198716 2.5901638,-3.198717 -0.7521976,-4.75804 -0.7521976,-4.758038 4.0466489,-6.389545 4.046649,-6.389545 2.295897,-0.817435 2.295897,-0.817433 1.63865,-1.266362 1.638647,-1.26636 L 22.59056,19.857793 21.237156,17.328934 16.618577,15.399169 12,13.469403 V 11.656208 9.843012 L 13.666666,7.7926844 15.333333,5.7423567 20.157378,2.8711784 24.981423,0 h 4.271862 4.271861 l 5.843112,3.4242916 5.843112,3.4242916 0.847825,2.6712598 0.847825,2.67126 -2.326828,2.571115 -2.326826,2.571115 h -1.579331 -1.579329 l -1.547353,3.39607 -1.547354,3.396071 v 0.63693 0.636931 l 3.295668,1.253011 3.295668,1.25301 1.90162,4.551217 1.90162,4.551219 1.469379,0.908127 1.469378,0.908125 v 3.342298 3.3423 l 1.372859,2.565211 1.37286,2.56521 3.79525,1.9626 3.79525,1.9626 0.646994,3.384535 0.646995,3.384533 h -1.856951 -1.85695 l -0.767472,-2 -0.767472,-2 H 53.19068 50.666666 v 1.066667 1.066666 l 1.577777,1.577778 1.577778,1.577778 -0.726193,0.726194 -0.726193,0.726193 -3.518252,-1.337637 -3.518251,-1.337636 v -2.033002 -2.033001 h -2.060417 -2.060417 l 0.891369,-4.751409 0.891369,-4.751409 -2.366784,-5.248591 -2.366785,-5.24859 h -0.969073 -0.969073 l -1.664178,4.017678 -1.664177,4.017679 3.626501,5.233044 3.626501,5.233042 -0.783482,3.749277 -0.783484,3.749279 4.749236,2.351372 4.749237,2.351372 -0.835195,-1.351372 -0.835193,-1.351372 h 1.535051 1.535049 l 3.390117,2.666666 3.390117,2.666667 h -1.913144 -1.913145 l -1.6,-1.6 -1.6,-1.6 v 1.6 1.6 h -8.593509 -8.59351 l 0.309481,-5.536381 0.309481,-5.536383 -2.238868,-2.764883 -2.238866,-2.764884 -2.143771,5.130763 -2.143771,5.130766 v 1.570501 1.570501 l 1.481475,1.481475 1.481476,1.481476 z m -0.484287,-1.538255 6.327156,-0.148936 -0.254108,-3.333333 -0.254108,-3.333333 -0.108321,-0.528031 -0.108323,-0.528029 -3.383892,3.65128 -3.383893,3.651279 -1.906741,-0.731684 -1.906741,-0.731685 -0.674092,1.090704 -0.6740919,1.090704 z m 26.602491,0.517731 h 2.17615 l -2.588172,-1.957596 -2.588174,-1.957595 -1.756517,-0.0424 -1.756516,-0.0424 0.825555,-3 0.825556,-3 -2.069039,2.588173 -2.069038,2.588172 v 1.078495 1.078493 h 2.587977 2.587977 l 0.824045,1.333333 0.824046,1.333334 z m -33.2323478,-7.68804 2.3227388,-4.354708 1.505197,1.505197 1.505197,1.505198 1.453021,-0.898016 1.453022,-0.898016 2.663154,-5.845988 2.663156,-5.845989 V 46.15995 45.50693 l -1.385053,-3.642966 -1.385053,-3.642967 -1.858891,2.653939 -1.858891,2.653937 -0.41516,7.571417 -0.415158,7.571417 -1.340898,-0.43868 -1.340896,-0.43868 -0.435587,-3.705726 -0.435588,-3.705728 1.435588,0.887241 1.435587,0.887243 -0.02928,-5.078689 -0.02928,-5.07869 -2.42608,5.333334 -2.4260792,5.333333 -2.1943244,1.815834 -2.1943243,1.815834 -2.0862304,-0.800562 -2.0862302,-0.800561 0.8922065,1.44362 0.8922064,1.44362 3.1190713,-0.596248 3.1190714,-0.596248 -1.2753608,2.383033 -1.2753608,2.383033 0.055887,2.42099 0.055887,2.420988 z m 15.7977738,-3.299092 1.673217,-3.012868 0.06767,-3.333333 0.06767,-3.333333 0.979582,1.430589 0.979583,1.430588 2.417843,0.893328 2.417842,0.893327 -0.78852,1.275853 -0.78852,1.275852 2.818206,1.508259 2.818206,1.508258 0.779951,-0.779952 0.77995,-0.77995 -2.949618,-3.139723 -2.949616,-3.139721 -1.492399,-5.188355 -1.492398,-5.188353 -0.985892,3.333333 -0.985892,3.333334 -0.23817,-3.333334 -0.23817,-3.333333 -0.722804,1.817537 -0.722806,1.817536 -1.221398,-1.817536 -1.2214,-1.817537 0.846094,4.901775 0.846095,4.901773 -2.796628,2.394548 L 20,55.259307 v 1.437012 1.437012 l 1.612868,1.612868 1.612867,1.612868 z m 24.6236,2.987132 h 1.078109 l -1.337636,-3.518251 -1.337637,-3.518251 0.370638,-0.365871 0.370638,-0.365871 5.086541,2.477079 5.086541,2.477078 -0.454983,-1.364946 -0.454981,-1.364945 -3.947748,-2.228011 -3.947746,-2.228011 -1.700003,-2 -1.700004,-1.999999 0.680995,-4 0.680994,-4 -1.311053,2 -1.311052,2 -0.05007,-2.666667 -0.05007,-2.666666 -2.607368,-3.333334 -2.607371,-3.333333 -0.02965,-1.822174 -0.02965,-1.822176 -2.666666,0.697349 -2.666667,0.697349 v -1.090529 -1.090528 l -1.666667,0.252848 -1.666666,0.252849 -1.627578,1.017036 -1.627577,1.017038 -0.8503,-3.387864 -0.8503,-3.387864 0.758297,-3.666667 0.758298,-3.666666 -0.743415,1.722317 -0.743415,1.722317 -1.94399,-1.613369 -1.943989,-1.613369 1.59363,3.49764 1.593631,3.497638 -1.68174,4.06008 -1.68174,4.060079 h -1.060461 -1.060462 l -0.523134,-1.569402 -0.523134,-1.569401 -1.461637,0.903341 -1.461637,0.903342 -3.521019,6.008163 -3.5210181,6.008164 1.2080921,2.15874 1.208091,2.158741 0.876695,-3.49303 0.876695,-3.493031 1.643225,0.325519 1.643225,0.32552 -0.185185,-2.333333 -0.185185,-2.333334 h 2.597208 2.597208 l -0.767106,1.241203 -0.767105,1.241201 1.021749,0.602003 1.02175,0.602001 4.341405,0.931176 4.341405,0.931176 -0.440135,-2.88403 -0.440134,-2.884031 -1.744108,-1.077917 -1.744108,-1.077919 2.977054,-0.94488 2.977055,-0.944881 1.465783,1.465782 1.465782,1.465783 h -1.433333 -1.433333 v 3.546685 3.546684 l 2.476344,-3.21335 2.476345,-3.213352 -0.627739,-1.735918 -0.627738,-1.735917 1.220786,0.754488 1.220787,0.754488 1.53401,4.648096 1.53401,4.648096 h 1.22993 1.229931 l 0.02041,3 0.02041,3 1.245462,1.969547 1.245463,1.969547 -2.26588,2.674143 -2.26588,2.674141 2.333333,-1.806949 2.333334,-1.806948 v 3.27437 3.274371 l 0.888889,0.888888 0.888896,0.888889 z M 18,33.333332 H 17.333333 V 32.666665 31.999999 H 18 18.666666 v 0.666666 0.666667 z m 6.666666,-1.333333 h -0.666667 v -0.666667 -0.666666 h 0.666667 0.666667 v 0.666666 0.666667 z m 4.222223,-9.777777 0.888888,-0.888889 -0.888888,-0.88889 -0.88889,-0.888888 v 1.777778 1.777777 z m 2.583333,0.08333 0.805555,-0.805556 -0.700292,-1.75 -0.700292,-1.75 -0.105264,2.555556 -0.105263,2.555555 z m 3.58834,-0.972222 h 0.477589 l -0.692973,-4.333334 -0.692973,-4.333333 -0.522202,2.411217 -0.5222,2.411219 0.737586,1.922115 0.737584,1.922116 z m -4.393896,-5.333334 h 1.777777 l -0.888888,-0.888889 -0.888889,-0.888888 -0.888889,0.888888 -0.888888,0.888889 z m -4,-3.641209 2,-0.743272 6,-1.8117948 6,-1.8117946 L 35.999999,8.4594533 31.333333,8.9269779 28.666666,9.881693 25.999999,10.836408 29.749173,8.6657245 33.498346,6.495041 32.973554,4.9141871 32.448761,3.3333332 28.761378,2.0303423 25.073995,0.72735135 23.254822,3.2152188 l -1.819173,2.4878677 -2.945867,1.4817899 -2.945865,1.4817899 -0.611601,1.8522607 -0.611602,1.852261 1.287218,-0.795544 1.287217,-0.795544 3.885759,1.160981 3.885758,1.160981 z"
       id="path889"
       inkscape:connector-curvature="0" />
    <path
       style="fill:#291c3c;stroke-width:1.33333325"
       d="m 16.215324,70.353855 -10.7476277,-0.07576 3.143124,-2.472383 3.1431247,-2.472381 h 1.293101 1.293102 l 1.659852,-2 1.659852,-2 H 14.21017 10.76049 l -1.4471429,2.704011 -1.4471427,2.70401 -1.2664356,-0.7827 -1.2664356,-0.7827 V 62.242038 59.308123 L 2.6666666,57.642762 0,55.977401 v -2.151962 -2.15196 l 2.1528208,1.786682 2.1528207,1.786682 2.590164,-3.198716 2.5901638,-3.198717 -0.7521976,-4.75804 -0.7521976,-4.758038 4.0466489,-6.389545 4.046649,-6.389545 2.295897,-0.817435 2.295897,-0.817433 1.63865,-1.266362 1.638647,-1.26636 L 22.59056,19.857793 21.237156,17.328934 16.618577,15.399169 12,13.469403 V 11.656208 9.843012 L 13.666666,7.7926844 15.333333,5.7423567 20.157378,2.8711784 24.981423,0 h 4.271862 4.271861 l 5.843112,3.4242916 5.843112,3.4242916 0.847825,2.6712598 0.847825,2.67126 -2.326828,2.571115 -2.326826,2.571115 h -1.579331 -1.579329 l -1.547353,3.39607 -1.547354,3.396071 v 0.63693 0.636931 l 3.295668,1.253011 3.295668,1.25301 1.90162,4.551217 1.90162,4.551219 1.469379,0.908127 1.469378,0.908125 v 3.342298 3.3423 l 1.372859,2.565211 1.37286,2.56521 3.79525,1.9626 3.79525,1.9626 0.646994,3.384535 0.646995,3.384533 h -1.856951 -1.85695 l -0.767472,-2 -0.767472,-2 H 53.19068 50.666666 v 1.066667 1.066666 l 1.577777,1.577778 1.577778,1.577778 -0.726193,0.726194 -0.726193,0.726193 -3.518252,-1.337637 -3.518251,-1.337636 v -2.033002 -2.033001 h -2.060417 -2.060417 l 0.891369,-4.751409 0.891369,-4.751409 -2.366784,-5.248591 -2.366785,-5.24859 h -0.969073 -0.969073 l -1.664178,4.017678 -1.664177,4.017679 3.626501,5.233044 3.626501,5.233042 -0.783482,3.749277 -0.783484,3.749279 4.749236,2.351372 4.749237,2.351372 -0.835195,-1.351372 -0.835193,-1.351372 h 1.535051 1.535049 l 3.390117,2.666666 3.390117,2.666667 h -1.913144 -1.913145 l -1.6,-1.6 -1.6,-1.6 v 1.6 1.6 h -8.593509 -8.59351 l 0.309481,-5.536381 0.309481,-5.536383 -2.238868,-2.764883 -2.238866,-2.764884 -2.143771,5.130763 -2.143771,5.130766 v 1.570501 1.570501 l 1.481475,1.481475 1.481476,1.481476 z m -0.484287,-1.538255 6.327156,-0.148936 -0.254108,-3.333333 -0.254108,-3.333333 -0.108321,-0.528031 -0.108323,-0.528029 -3.383892,3.65128 -3.383893,3.651279 -1.906741,-0.731684 -1.906741,-0.731685 -0.674092,1.090704 -0.6740919,1.090704 z m 26.602491,0.517731 h 2.17615 l -2.588172,-1.957596 -2.588174,-1.957595 -1.756517,-0.0424 -1.756516,-0.0424 0.825555,-3 0.825556,-3 -2.069039,2.588173 -2.069038,2.588172 v 1.078495 1.078493 h 2.587977 2.587977 l 0.824045,1.333333 0.824046,1.333334 z m -33.2323478,-7.68804 2.3227388,-4.354708 1.505197,1.505197 1.505197,1.505198 1.453021,-0.898016 1.453022,-0.898016 2.663154,-5.845988 2.663156,-5.845989 V 46.15995 45.50693 l -1.385053,-3.642966 -1.385053,-3.642967 -1.858891,2.653939 -1.858891,2.653937 -0.41516,7.571417 -0.415158,7.571417 -1.340898,-0.43868 -1.340896,-0.43868 -0.435587,-3.705726 -0.435588,-3.705728 1.435588,0.887241 1.435587,0.887243 -0.02928,-5.078689 -0.02928,-5.07869 -2.42608,5.333334 -2.4260792,5.333333 -2.1943244,1.815834 -2.1943243,1.815834 -2.0862304,-0.800562 -2.0862302,-0.800561 0.8922065,1.44362 0.8922064,1.44362 3.1190713,-0.596248 3.1190714,-0.596248 -1.2753608,2.383033 -1.2753608,2.383033 0.055887,2.42099 0.055887,2.420988 z m 15.7977738,-3.299092 1.673217,-3.012868 0.06767,-3.333333 0.06767,-3.333333 0.979582,1.430589 0.979583,1.430588 2.417843,0.893328 2.417842,0.893327 -0.78852,1.275853 -0.78852,1.275852 2.818206,1.508259 2.818206,1.508258 0.779951,-0.779952 0.77995,-0.77995 -2.949618,-3.139723 -2.949616,-3.139721 -1.492399,-5.188355 -1.492398,-5.188353 -0.985892,3.333333 -0.985892,3.333334 -0.23817,-3.333334 -0.23817,-3.333333 -0.722804,1.817537 -0.722806,1.817536 -1.221398,-1.817536 -1.2214,-1.817537 0.846094,4.901775 0.846095,4.901773 -2.796628,2.394548 L 20,55.259307 v 1.437012 1.437012 l 1.612868,1.612868 1.612867,1.612868 z m 24.6236,2.987132 h 1.078109 l -1.337636,-3.518251 -1.337637,-3.518251 0.370638,-0.365871 0.370638,-0.365871 5.086541,2.477079 5.086541,2.477078 -0.454983,-1.364946 -0.454981,-1.364945 -3.947748,-2.228011 -3.947746,-2.228011 -1.700003,-2 -1.700004,-1.999999 0.680995,-4 0.680994,-4 -1.311053,2 -1.311052,2 -0.05007,-2.666667 -0.05007,-2.666666 -2.607368,-3.333334 -2.607371,-3.333333 -0.02965,-1.822174 -0.02965,-1.822176 -2.666666,0.697349 -2.666667,0.697349 v -1.090529 -1.090528 l -1.666667,0.252848 -1.666666,0.252849 -1.570672,0.981867 -1.570671,0.981868 -0.905345,-2.852489 -0.905344,-2.85249 1.745688,-1.078894 1.745688,-1.078895 1.063661,0.657379 1.063661,0.657378 V 21.26937 19.714695 l 2.160691,0.829135 2.160691,0.829136 -0.702531,-2.686484 -0.702532,-2.686483 h 1.208508 1.208507 v -1.245038 -1.245039 l -3.666667,0.746407 -3.666667,0.746408 -2.666666,0.38752 -2.666667,0.38752 -0.971415,0.111106 -0.971414,0.111116 1.491393,3.273255 1.491395,3.273253 -1.68174,4.06008 -1.68174,4.060079 h -1.060461 -1.060462 l -0.523134,-1.569402 -0.523134,-1.569401 -1.461637,0.903341 -1.461637,0.903342 -3.521019,6.008163 -3.5210181,6.008164 1.2080921,2.15874 1.208091,2.158741 0.876695,-3.49303 0.876695,-3.493031 1.643225,0.325519 1.643225,0.32552 -0.185185,-2.333333 -0.185185,-2.333334 h 2.597208 2.597208 l -0.767106,1.241203 -0.767105,1.241201 1.021749,0.602003 1.02175,0.602001 4.341405,0.931176 4.341405,0.931176 -0.440135,-2.88403 -0.440134,-2.884031 -1.744108,-1.077917 -1.744108,-1.077919 2.977054,-0.94488 2.977055,-0.944881 1.465783,1.465782 1.465782,1.465783 h -1.433333 -1.433333 v 3.546685 3.546684 l 2.476344,-3.21335 2.476345,-3.213352 -0.627739,-1.735918 -0.627738,-1.735917 1.220786,0.754488 1.220787,0.754488 1.53401,4.648096 1.53401,4.648096 h 1.22993 1.229931 l 0.02041,3 0.02041,3 1.245462,1.969547 1.245463,1.969547 -2.26588,2.674143 -2.26588,2.674141 2.333333,-1.806949 2.333334,-1.806948 v 3.27437 3.274371 l 0.888889,0.888888 0.888896,0.888889 z M 18,33.333332 H 17.333333 V 32.666665 31.999999 H 18 18.666666 v 0.666666 0.666667 z m 6.666666,-1.333333 h -0.666667 v -0.666667 -0.666666 h 0.666667 0.666667 v 0.666666 0.666667 z m 2.915235,-12 h -1.241754 l 1.659852,-2 1.659852,-2 2.170075,0.0424 2.170073,0.04241 -2.588173,1.957594 -2.588172,1.957596 z m -0.915235,-7.498845 3.333333,-0.755866 6.386802,-0.671601 6.386801,-0.671602 L 41.337778,8.6720219 39.901952,6.9419585 37.617642,7.5352412 35.333333,8.1285238 33.999999,5.0642619 32.666666,1.9999999 29.222179,1.5995429 25.777693,1.1990859 20.22218,4.8363854 14.666666,8.473685 v 1.841847 1.841846 l 1.210196,-0.747942 1.210195,-0.747942 3.123139,1.297763 3.123137,1.297763 z"
       id="path887"
       inkscape:connector-curvature="0" />
    <path
       style="fill:#1f1914;stroke-width:1.33333325"
       d="m 16.215324,70.353855 -10.7476277,-0.07576 3.143124,-2.472383 3.1431247,-2.472381 h 1.293101 1.293102 l 1.659852,-2 1.659852,-2 H 14.21017 10.76049 l -1.4471429,2.704011 -1.4471427,2.70401 -1.2664356,-0.7827 -1.2664356,-0.7827 V 62.242038 59.308123 L 2.6666666,57.642762 0,55.977401 v -2.151962 -2.15196 l 2.1528208,1.786682 2.1528207,1.786682 2.590164,-3.198716 2.5901638,-3.198717 -0.7521976,-4.75804 -0.7521976,-4.758038 4.0466489,-6.389545 4.046649,-6.389545 2.295897,-0.817435 2.295897,-0.817433 1.63865,-1.266362 1.638647,-1.26636 L 22.59056,19.857793 21.237156,17.328934 16.618577,15.399169 12,13.469403 V 11.656208 9.843012 L 13.666666,7.7926844 15.333333,5.7423567 20.157378,2.8711784 24.981423,0 h 4.271862 4.271861 l 5.843112,3.4242916 5.843112,3.4242916 0.847825,2.6712598 0.847825,2.67126 -2.326828,2.571115 -2.326826,2.571115 h -1.579331 -1.579329 l -1.547353,3.39607 -1.547354,3.396071 v 0.63693 0.636931 l 3.295668,1.253011 3.295668,1.25301 1.90162,4.551217 1.90162,4.551219 1.469379,0.908127 1.469378,0.908125 v 3.342298 3.3423 l 1.372859,2.565211 1.37286,2.56521 3.79525,1.9626 3.79525,1.9626 0.646994,3.384535 0.646995,3.384533 h -1.856951 -1.85695 l -0.767472,-2 -0.767472,-2 H 53.19068 50.666666 v 1.066667 1.066666 l 1.577777,1.577778 1.577778,1.577778 -0.726193,0.726194 -0.726193,0.726193 -3.518252,-1.337637 -3.518251,-1.337636 v -2.033002 -2.033001 h -2.060417 -2.060417 l 0.891369,-4.751409 0.891369,-4.751409 -2.366784,-5.248591 -2.366785,-5.24859 h -0.969073 -0.969073 l -1.664178,4.017678 -1.664177,4.017679 3.626501,5.233044 3.626501,5.233042 -0.807408,3.749277 -0.807409,3.749279 3.447693,1.587328 3.447694,1.587328 1.863096,-0.714937 1.863097,-0.714936 3.552345,2.794274 3.552345,2.794276 h -2.016552 -2.016551 l -1.659852,-2 -1.659852,-2 -1.503408,0.105263 -1.503407,0.105264 1.666667,0.672514 1.666666,0.672515 v 1.028844 1.028844 l -8.59592,0.236484 -8.595918,0.236483 0.311891,-5.579487 0.31189,-5.579488 -2.238868,-2.764883 -2.238866,-2.764884 -2.143771,5.130763 -2.143771,5.130766 v 1.570501 1.570501 l 1.481475,1.481475 1.481476,1.481476 z m 0.550101,-1.43155 7.286157,0.07975 -1.207374,-1.501027 -1.207376,-1.501027 3.335377,-7 3.335376,-7 h 0.876334 0.876336 l 2.185083,4.333333 2.185084,4.333333 -0.396109,4.049988 -0.39611,4.049989 6.076585,0.264466 6.076586,0.264465 -2.562355,-1.938716 -2.562353,-1.938716 -2.263974,-0.0424 -2.263974,-0.0424 1.411443,-4.048868 1.411443,-4.048868 -3.480802,-5.0228 -3.480803,-5.022798 v -3.595 -3.594999 h 1.243483 1.243484 l 0.846367,-2.666666 0.846366,-2.666667 h 1.146655 1.146656 l 3.590625,7.589959 3.590625,7.589958 -1.586181,2.53988 -1.586181,2.539879 0.831548,0.831548 0.831548,0.831548 1.149844,-1.860487 1.149844,-1.860487 0.444325,3.796276 0.444325,3.796275 1.491874,0.489005 1.491873,0.489005 -0.675635,-3.534353 -0.675634,-3.534354 3.183761,0.978025 3.183761,0.978027 1.666667,1.333407 1.666666,1.333407 V 57.571984 56.150773 L 54.780281,53.85503 50.893899,51.559286 49.446948,48.383578 47.999999,45.207869 v -2.026225 -2.026226 l -3.38146,-4.433322 -3.381461,-4.433323 0.381461,-1.811047 0.38146,-1.811048 -3.666666,0.05256 -3.666667,0.05256 -0.02042,-2.05256 -0.02042,-2.052561 -1.292498,2 -1.292499,2 -0.02042,-1.921507 -0.02042,-1.921505 -1.957596,2.588172 -1.957594,2.588173 -0.02199,-2.666667 -0.02199,-2.666666 1.292498,-2 1.292498,-2 0.06096,2 0.06096,2 1.448567,-2.493303 1.448565,-2.493304 1.281942,1.826638 1.281945,1.826635 -0.586156,-3.666666 -0.586156,-3.666667 h 1.148437 1.148438 v -1.256776 -1.256777 l -3,0.637299 -3,0.637298 -3.809927,0.540516 -3.809927,0.540515 -0.631433,0.631435 -0.631434,0.631433 1.488271,2.780863 1.488274,2.780861 -1.447144,2.70401 -1.447143,2.704011 -1.23888,-0.765669 -1.23888,-0.765671 -2.694221,1.441905 -2.694223,1.441904 v 1.409448 1.409449 l -2.712635,3.448559 -2.7126361,3.448557 0.8147831,5.433367 0.814784,5.433366 -3.3367774,3.134739 -3.3367775,3.13474 -1.6380482,-1.01237 -1.63804824,-1.012369 0.95136734,1.539345 0.9513673,1.539344 h 2.3570534 2.3570535 l -0.5144772,4.333333 -0.5144771,4.333334 2.3489664,-3.603067 2.3489667,-3.603065 2.57319,0.269732 2.573189,0.269733 2.317499,-4.0732 2.317497,-4.073201 0.873036,-2.75069 0.873035,-2.75069 -1.419009,-3.732277 -1.419008,-3.732276 -1.858891,2.653939 -1.858891,2.653937 -0.411956,7.512996 -0.411956,7.512995 -0.924457,-0.9441 -0.924457,-0.944099 0.765542,-8.333333 0.765542,-8.333334 h 1.148149 1.148148 v -1.92131 -1.921311 L 19,35.198255 l 1.666666,-0.959124 -0.919852,1.022508 -0.919852,1.022508 1.586519,1.717978 L 22,39.720104 l 0.98944,-0.598883 0.989439,-0.598882 2.343894,1.497234 2.343893,1.497233 -2.740808,-0.565797 -2.740807,-0.565797 0.559175,3.809904 0.559176,3.809905 -2.151701,3.28391 L 20,54.572842 v 3.200433 3.200433 l -2.715718,3.452475 -2.715718,3.452476 -1.816081,-0.696895 -1.816082,-0.696896 -0.728566,1.178845 -0.7285665,1.178846 z m 14.706797,-30.61675 -0.805556,0.805554 0.105263,-2.555554 0.105264,-2.555556 0.700292,1.75 0.700292,1.75 z M 27.581901,19.999999 h -1.241754 l 1.659852,-2 1.659852,-2 2.170075,0.0424 2.170073,0.04241 -2.588173,1.957594 -2.588172,1.957596 z M 44.143318,13.911423 45.340544,13.171497 44.0764,10.809423 42.812256,8.4473481 40.73946,6.7270809 38.666666,5.0068139 V 6.0881554 7.1694969 L 35.948059,4.251415 33.229453,1.3333333 h -4.124015 -4.124015 l -4.507578,2.7858363 -4.507577,2.7858363 -1.316468,2.4598416 -1.316467,2.4598415 0.0014,0.420989 0.0014,0.420988 8.331958,-0.247725 8.331955,-0.247725 5.655192,-0.891228 5.655192,-0.891228 0.817855,2.131295 0.817854,2.131295 z"
       id="path885"
       inkscape:connector-curvature="0" />
    <path
       style="fill:#0c0b12;stroke-width:1.33333325"
       d="m 16.215324,70.353855 -10.7476277,-0.07576 3.143124,-2.472383 3.1431247,-2.472381 h 1.293101 1.293102 l 1.659852,-2 1.659852,-2 H 14.21017 10.76049 l -1.4471429,2.704011 -1.4471427,2.70401 -1.2664356,-0.7827 -1.2664356,-0.7827 V 62.242038 59.308123 L 2.6666666,57.642762 0,55.977401 v -2.151962 -2.15196 l 2.1528208,1.786682 2.1528207,1.786682 2.590164,-3.198716 2.5901638,-3.198717 -0.7521976,-4.75804 -0.7521976,-4.758038 4.0466489,-6.389545 4.046649,-6.389545 2.295897,-0.817435 2.295897,-0.817433 1.63865,-1.266362 1.638647,-1.26636 L 22.59056,19.857793 21.237156,17.328934 16.618577,15.399169 12,13.469403 v -1.292318 -1.292319 l 0.823532,-2.1460898 0.823532,-2.14609 2.843134,-1.4608391 2.843135,-1.460839 -3,2.8831527 -3,2.8831526 v 1.7700116 1.770011 l 8.333333,-0.386646 8.333333,-0.386646 4.316971,-0.917569 4.316969,-0.91757 2.312331,0.887324 2.312329,0.887324 -1.962633,1.241189 -1.962634,1.241189 2.111111,0.02042 2.111112,0.02042 0.743872,-0.743873 L 45.0433,13.17892 44.378494,10.636697 43.713687,8.0944742 38.856843,5.1650701 33.999999,2.2356659 29.333333,1.271165 24.666666,0.30666419 29.095906,0.15333209 33.525146,0 l 5.843112,3.4242916 5.843112,3.4242916 0.847825,2.6712598 0.847825,2.67126 -2.326828,2.571115 -2.326826,2.571115 h -1.579331 -1.579329 l -1.547353,3.39607 -1.547354,3.396071 v 0.63693 0.636931 l 3.295668,1.253011 3.295668,1.25301 1.90162,4.551217 1.90162,4.551219 1.469379,0.908127 1.469378,0.908125 v 3.342298 3.3423 l 1.372859,2.565211 1.37286,2.56521 3.79525,1.9626 3.79525,1.9626 0.646994,3.384535 0.646995,3.384533 h -1.856951 -1.85695 l -0.767472,-2 -0.767472,-2 H 53.19068 50.666666 v 1.066667 1.066666 l 1.577777,1.577778 1.577778,1.577778 -0.726193,0.726194 -0.726193,0.726193 -3.518252,-1.337637 -3.518251,-1.337636 v -2.033002 -2.033001 h -2.060417 -2.060417 l 0.891369,-4.751409 0.891369,-4.751409 -2.366784,-5.248591 -2.366785,-5.24859 h -0.969073 -0.969073 l -1.664178,4.017678 -1.664177,4.017679 3.626501,5.233044 3.626501,5.233042 -0.807408,3.749277 -0.807409,3.749279 3.447693,1.587328 3.447694,1.587328 1.863096,-0.714937 1.863097,-0.714936 3.552345,2.794274 3.552345,2.794276 h -2.016552 -2.016551 l -1.659852,-2 -1.659852,-2 -1.503408,0.105263 -1.503407,0.105264 1.666667,0.672514 1.666666,0.672515 v 1.028844 1.028844 l -8.59592,0.236484 -8.595918,0.236483 0.311891,-5.579487 0.31189,-5.579488 -2.238868,-2.764883 -2.238866,-2.764884 -2.143771,5.130763 -2.143771,5.130766 v 1.570501 1.570501 l 1.481475,1.481475 1.481476,1.481476 z m 0.550101,-1.43155 7.286157,0.07975 -1.207374,-1.501027 -1.207376,-1.501027 3.335377,-7 3.335376,-7 h 0.876334 0.876336 l 2.185083,4.333333 2.185084,4.333333 -0.396109,4.049988 -0.39611,4.049989 6.076585,0.264466 6.076586,0.264465 -2.562355,-1.938716 -2.562353,-1.938716 -2.263974,-0.0424 -2.263974,-0.0424 1.411443,-4.048868 1.411443,-4.048868 -3.480802,-5.0228 -3.480803,-5.022798 v -3.595 -3.594999 h 1.243483 1.243484 l 0.846367,-2.666666 0.846366,-2.666667 h 1.146655 1.146656 l 3.590625,7.589959 3.590625,7.589958 -1.586181,2.53988 -1.586181,2.539879 0.831548,0.831548 0.831548,0.831548 1.149844,-1.860487 1.149844,-1.860487 0.444325,3.796276 0.444325,3.796275 1.491874,0.489005 1.491873,0.489005 -0.675635,-3.534353 -0.675634,-3.534354 3.183761,0.978025 3.183761,0.978027 1.666667,1.333407 1.666666,1.333407 V 57.571984 56.150773 L 54.780281,53.85503 50.893899,51.559286 49.446948,48.383578 47.999999,45.207869 v -2.026225 -2.026226 l -3.38146,-4.433322 -3.381461,-4.433323 0.381461,-1.811047 0.38146,-1.811048 -3.666666,0.05256 -3.666667,0.05256 -0.02042,-2.05256 -0.02042,-2.052561 -1.292498,2 -1.292499,2 -0.02042,-1.921507 -0.02042,-1.921505 -1.957596,2.588172 -1.957594,2.588173 -0.02199,-2.666667 -0.02199,-2.666666 1.292498,-2 1.292498,-2 0.06096,2 0.06096,2 1.448567,-2.493303 1.448565,-2.493304 1.281942,1.826638 1.281945,1.826635 -0.586156,-3.666666 -0.586156,-3.666667 h 1.926215 1.926215 l -0.516708,-1.55018 -0.516722,-1.550169 -2.261055,-0.331852 -2.261054,-0.331853 v 1.294045 1.294044 l -1.241203,-0.767106 -1.241201,-0.767105 -0.726371,1.175292 -0.726369,1.175291 -3.289583,-0.361106 -3.289581,-0.361104 -1.411812,-0.872548 -1.411812,-0.872547 2.756207,4.671422 2.756206,4.671421 -1.487472,2.779367 -1.487472,2.779365 -1.23888,-0.765669 -1.23888,-0.765671 -2.694221,1.441905 -2.694223,1.441904 v 1.409448 1.409449 l -2.712635,3.448559 -2.7126361,3.448557 0.8147831,5.433367 0.814784,5.433366 -3.3367774,3.134739 -3.3367775,3.13474 -1.6380482,-1.01237 -1.63804824,-1.012369 0.95136734,1.539345 0.9513673,1.539344 h 2.3570534 2.3570535 l -0.5144772,4.333333 -0.5144771,4.333334 2.3489664,-3.603067 2.3489667,-3.603065 2.57319,0.269732 2.573189,0.269733 2.317499,-4.0732 2.317497,-4.073201 0.873036,-2.75069 0.873035,-2.75069 -1.419009,-3.732277 -1.419008,-3.732276 -1.858891,2.653939 -1.858891,2.653937 -0.411956,7.512996 -0.411956,7.512995 -0.924457,-0.9441 -0.924457,-0.944099 0.765542,-8.333333 0.765542,-8.333334 h 1.148149 1.148148 v -1.92131 -1.921311 L 19,35.198255 l 1.666666,-0.959124 -0.919852,1.022508 -0.919852,1.022508 1.586519,1.717978 L 22,39.720104 l 0.98944,-0.598883 0.989439,-0.598882 2.343894,1.497234 2.343893,1.497233 -2.740808,-0.565797 -2.740807,-0.565797 0.559175,3.809904 0.559176,3.809905 -2.151701,3.28391 L 20,54.572842 v 3.200433 3.200433 l -2.715718,3.452475 -2.715718,3.452476 -1.816081,-0.696895 -1.816082,-0.696896 -0.728566,1.178845 -0.7285665,1.178846 z m 14.706797,-30.61675 -0.805556,0.805554 0.105263,-2.555554 0.105264,-2.555556 0.700292,1.75 0.700292,1.75 z M 27.581901,19.999999 h -1.241754 l 1.659852,-2 1.659852,-2 2.170075,0.0424 2.170073,0.04241 -2.588173,1.957594 -2.588172,1.957596 z M 18,14.666666 h 0.666666 V 13.999999 13.333333 H 18 17.333333 v 0.666666 0.666667 z"
       id="path883"
       inkscape:connector-curvature="0" />
    <path
       style="fill:#050405;stroke-width:1.33333325"
       d="m 23.575282,70.666664 h -3.417904 l -0.747196,-1.208988 -0.747196,-1.208988 2.57817,0.674205 2.578169,0.674207 -0.645786,-2.469487 -0.645785,-2.469487 1.992423,-4.768539 1.992422,-4.76854 2.077034,-1.723784 2.077033,-1.723784 v 1.35394 1.353942 l -1.739828,0.667634 -1.739827,0.667635 -1.792649,5.43178 -1.792649,5.431779 1.695736,2.043238 1.695736,2.043237 z m 19.64694,-0.105263 -2.555556,-0.105264 1.75,-0.700292 1.75,-0.700292 0.805556,0.805555 0.805554,0.805556 z m 4.699088,0.105263 h -1.412023 l 0.824045,-1.333333 0.824046,-1.333334 h 0.587977 0.587977 v 1.333334 1.333333 z m 6.421759,0 H 52.326518 L 50.641682,68.63656 48.956844,66.606456 46.590631,67.357463 44.224418,68.108471 43.366852,66.7209 42.509287,65.333331 h -2.736365 -2.736365 l 0.793864,-4.333333 0.793863,-4.333333 -1.926018,-3.333334 -1.926017,-3.333333 -1.598284,-2.995917 -1.598284,-2.995916 2.515364,-4.67075 2.515365,-4.67075 h 1.030128 1.030128 v 1.333334 1.333333 h -1.171573 -1.171572 l -1.664178,4.017678 -1.664177,4.017679 3.626501,5.233044 3.626501,5.233042 -0.807408,3.749277 -0.807409,3.749279 3.447693,1.587328 3.447694,1.587328 1.863096,-0.714937 1.863097,-0.714936 3.552345,2.794274 3.552345,2.794276 z M 9.8426211,67.999997 H 9.1759545 l 0.8240453,-1.333333 0.8240452,-1.333333 h 0.666667 0.666666 l -0.824045,1.333333 -0.824045,1.333333 z M 9.0590407,64.244411 7.1261562,67.155489 6.0962307,65.489036 5.0663052,63.822582 5.8664859,63.0224 l 0.8001806,-0.80018 0.00879,1.888888 0.00879,1.88889 L 9.0087854,62.51797 11.333333,59.03594 14,60.090922 l 2.666666,1.054981 -2.83737,0.09372 -2.837371,0.09371 z m 38.3294343,-1.855112 -0.827577,0.827579 -0.769292,-2.941774 -0.769291,-2.941773 h -1.844491 -1.844492 v -1.291486 -1.291487 l 2.03704,0.781685 2.03704,0.781686 1.40432,2.623995 1.404322,2.623998 z m 11.718114,-1.055968 h -1.85695 l -0.767472,-2 -0.767472,-2 h -1.778659 -1.778658 l -0.814607,-1.318061 -0.814607,-1.31806 2.402584,0.837709 2.402584,0.83771 1.666667,2.068523 1.666666,2.068524 -0.05136,-2.588172 -0.05136,-2.588173 -4.252842,-2.675133 -4.252841,-2.675133 -1.203539,-3.991533 -1.203539,-3.991534 -3.375584,-7.114019 -3.375582,-7.114019 -3.116676,0.59579 -3.116676,0.59579 v -1.592881 -1.592883 h -2 -2 v 1.377779 1.377777 l -1.483824,-1.483824 -1.483823,-1.483822 0.909288,-1.47126 0.909288,-1.471259 1.149071,0.710165 1.149071,0.710166 0.850929,-1.376832 0.850929,-1.376832 1.241202,0.767105 1.241202,0.767105 0.157895,-2.412022 0.157895,-2.412023 -0.157895,-1 -0.157895,-1 h 3.170073 3.170075 l 1.606751,-1.936016 1.60675,-1.936016 L 44.70862,9.46552 43.863592,6.8030731 41.385536,6.0165684 38.907479,5.2300639 37.206958,3.1810612 35.506437,1.1320585 l 4.854326,2.8641228 4.854327,2.8641228 0.845965,2.6653993 0.845965,2.6653996 -2.326828,2.571115 -2.326826,2.571115 h -1.579331 -1.579329 l -1.547353,3.39607 -1.547354,3.396071 v 0.63693 0.636931 l 3.295668,1.253011 3.295668,1.25301 1.90162,4.551217 1.90162,4.551219 1.469379,0.908127 1.469378,0.908125 v 3.342298 3.3423 l 1.372859,2.565211 1.37286,2.56521 3.79525,1.9626 3.79525,1.9626 0.646994,3.384535 0.646995,3.384533 z M 15.08639,58.666664 h -0.262345 l -0.670389,-1.084712 -0.67039,-1.084711 1.149088,-6.581955 1.149087,-6.581954 -0.216352,7.666666 -0.216353,7.666666 z M 18.028628,40.764 l -1.943819,2.569332 -0.02199,-1.333334 -0.02199,-1.333333 1.240418,-1.961386 1.240419,-1.961386 0.725388,0.725387 0.725387,0.725388 z m 12.244067,-22.231189 -2.939362,1.765198 2.301586,-2.402974 2.301588,-2.402972 0.637775,0.637775 0.637775,0.637775 z M 33.333333,1.3333333 h -1.777778 l 0.888888,-0.88888888 0.88889,-0.88888884 0.888889,0.88888884 0.888888,0.88888888 z"
       id="path881"
       inkscape:connector-curvature="0" />
  </g>
</svg>
