<?xml version="1.0" encoding="UTF-8" standalone="no"?>
<!-- Created with Inkscape (http://www.inkscape.org/) -->

<svg
   xmlns:dc="http://purl.org/dc/elements/1.1/"
   xmlns:cc="http://creativecommons.org/ns#"
   xmlns:rdf="http://www.w3.org/1999/02/22-rdf-syntax-ns#"
   xmlns:svg="http://www.w3.org/2000/svg"
   xmlns="http://www.w3.org/2000/svg"
   xmlns:sodipodi="http://sodipodi.sourceforge.net/DTD/sodipodi-0.dtd"
   xmlns:inkscape="http://www.inkscape.org/namespaces/inkscape"
   version="1.1"
   id="svg11101"
   width="200"
   height="200"
   viewBox="0 0 200 200"
   sodipodi:docname="poison.svg"
   inkscape:version="0.92.5 (2060ec1f9f, 2020-04-08)">
  <metadata
     id="metadata11107">
    <rdf:RDF>
      <cc:Work
         rdf:about="">
        <dc:format>image/svg+xml</dc:format>
        <dc:type
           rdf:resource="http://purl.org/dc/dcmitype/StillImage" />
        <dc:title></dc:title>
      </cc:Work>
    </rdf:RDF>
  </metadata>
  <defs
     id="defs11105" />
  <sodipodi:namedview
     pagecolor="#ffffff"
     bordercolor="#666666"
     borderopacity="1"
     objecttolerance="10"
     gridtolerance="10"
     guidetolerance="10"
     inkscape:pageopacity="0"
     inkscape:pageshadow="2"
     inkscape:window-width="1920"
     inkscape:window-height="1118"
     id="namedview11103"
     showgrid="false"
     inkscape:zoom="1.84375"
     inkscape:cx="204.1091"
     inkscape:cy="31.286678"
     inkscape:window-x="0"
     inkscape:window-y="24"
     inkscape:window-maximized="1"
     inkscape:current-layer="svg11101" />
  <g
     id="g11199"
     transform="matrix(-3.7690678,0,0,3.7690678,160.30508,39.694915)">
    <path
       style="fill:#000000;fill-opacity:0"
       d="M 0,0.5 V 0 H 0.5 1 1.5 2 2.5 3 3.5 4 4.5 5 5.5 6 6.5 7 7.5 8 8.5 9 9.5 10 10.5 11 11.5 12 12.5 13 13.5 14 14.5 15 15.5 16 16.5 17 17.5 18 18.5 19 19.5 20 20.5 21 21.5 22 22.5 23 23.5 24 24.5 25 25.5 26 26.5 27 27.5 28 28.5 29 29.5 30 30.5 31 31.5 32 V 0.5 1 1.5 2 2.5 3 3.5 4 4.5 5 5.5 6 6.5 7 7.5 8 8.5 9 9.5 10 10.5 11 11.5 12 12.5 13 13.5 14 14.5 15 15.5 16 16.5 17 17.5 18 18.5 19 19.5 20 20.5 21 21.5 22 22.5 23 23.5 24 24.5 25 25.5 26 26.5 27 27.5 28 28.5 29 29.5 30 30.5 31 31.5 32 H 31.5 31 30.5 30 29.5 29 28.5 28 27.5 27 26.5 26 25.5 25 24.5 24 23.5 23 22.5 22 21.5 21 20.5 20 19.5 19 18.5 18 17.5 17 16.5 16 15.5 15 14.5 14 13.5 13 12.5 12 11.5 11 10.5 10 9.5 9 8.5 8 7.5 7 6.5 6 5.5 5 4.5 4 3.5 3 2.5 2 1.5 1 0.5 0 V 31.5 31 30.5 30 29.5 29 28.5 28 27.5 27 26.5 26 25.5 25 24.5 24 23.5 23 22.5 22 21.5 21 20.5 20 19.5 19 18.5 18 17.5 17 16.5 16 15.5 15 14.5 14 13.5 13 12.5 12 11.5 11 10.5 10 9.5 9 8.5 8 7.5 7 6.5 6 5.5 5 4.5 4 3.5 3 2.5 2 1.5 1 0.5 M 21.5,30 q 0.5,0 0.625,-0.375 0.125,-0.375 0.5,-0.5 Q 23,29 23.5,29 q 0.5,0 1,0 0.5,0 1,0 0.5,0 0.625,-0.375 0.125,-0.375 0.5,-0.5 Q 27,28 27,27.5 27,27 26.625,26.875 26.25,26.75 26.125,26.375 26,26 25.5,26 q -0.5,0 -1,0 -0.5,0 -1,0 -0.5,0 -1,0 -0.5,0 -1,0 -0.5,0 -1,0 -0.5,0 -0.875,-0.125 -0.375,-0.125 -0.5,-0.5 Q 19,25 18.5,25 q -0.5,0 -1,0 -0.5,0 -1,0 -0.5,0 -1,0 -0.5,0 -1,0 -0.5,0 -1,0 -0.5,0 -1,0 -0.5,0 -1,0 -0.5,0 -0.5,-0.5 0,-0.5 0,-1 0,-0.5 0.125,-0.875 0.125,-0.375 0.5,-0.5 Q 12,22 12,21.5 12,21 11.625,20.875 11.25,20.75 11.25,20.5 q 0,-0.25 0.375,-0.375 0.375,-0.125 0.5,-0.5 0.125,-0.375 0.5,-0.5 0.375,-0.125 0.5,-0.5 0.125,-0.375 0.5,-0.5 0.375,-0.125 0.5,-0.5 0.125,-0.375 0.5,-0.5 0.375,-0.125 0.5,-0.5 0.125,-0.375 0.5,-0.5 0.375,-0.125 0.5,-0.5 0.125,-0.375 0.5,-0.5 0.375,-0.125 0.5,-0.5 0.125,-0.375 0.5,-0.5 0.375,-0.125 0.5,-0.5 0.125,-0.375 0.5,-0.5 0.375,-0.125 0.5,-0.5 0.125,-0.375 0.5,-0.5 Q 20,12 20.5,12 q 0.5,0 1,0 0.5,0 1,0 0.5,0 0.625,-0.375 0.125,-0.375 0.5,-0.5 Q 24,11 24,10.5 V 10 h 0.5 Q 25,10 25.125,9.625 25.25,9.25 25.625,9.125 26,9 26,8.5 V 8 h 0.5 Q 27,8 27.125,7.625 27.25,7.25 27.625,7.125 28,7 28,6.5 28,6 27.625,5.875 27.25,5.75 27.125,5.375 27,5 26.5,5 26,5 25.625,4.875 25.25,4.75 25.125,4.375 25,4 25,3.5 25,3 24.625,2.875 24.25,2.75 24.125,2.375 24,2 23.5,2 23,2 22.875,2.375 22.75,2.75 22.375,2.875 22,3 22,3.5 V 4 H 21.5 Q 21,4 20.875,4.375 20.75,4.75 20.375,4.875 20,5 20,5.5 V 6 H 19.5 Q 19,6 18.875,6.375 18.75,6.75 18.375,6.875 18,7 18,7.5 q 0,0.5 0,1 0,0.5 0,1 0,0.5 -0.125,0.875 -0.125,0.375 -0.5,0.5 -0.375,0.125 -0.5,0.5 -0.125,0.375 -0.5,0.5 -0.375,0.125 -0.5,0.5 -0.125,0.375 -0.5,0.5 -0.375,0.125 -0.5,0.5 -0.125,0.375 -0.5,0.5 -0.375,0.125 -0.5,0.5 -0.125,0.375 -0.5,0.5 -0.375,0.125 -0.5,0.5 -0.125,0.375 -0.5,0.5 -0.375,0.125 -0.5,0.5 -0.125,0.375 -0.5,0.5 -0.375,0.125 -0.5,0.5 -0.125,0.375 -0.5,0.5 Q 10,18 9.875,18.375 9.75,18.75 9.5,18.75 9.25,18.75 9.125,18.375 9,18 8.5,18 8,18 7.875,18.375 7.75,18.75 7.375,18.875 7,19 6.875,19.375 6.75,19.75 6.375,19.875 6,20 6,20.5 6,21 5.875,21.375 5.75,21.75 5.375,21.875 5,22 5,22.5 5,23 4.875,23.375 4.75,23.75 4.375,23.875 4,24 4,24.5 4,25 4.375,25.125 4.75,25.25 4.875,25.625 5,26 4.5,26 4,26 3.5,26 3,26 2.875,26.375 2.75,26.75 2.375,26.875 2,27 2,27.5 q 0,0.5 0.375,0.625 0.375,0.125 0.5,0.5 0.125,0.375 0.5,0.5 0.375,0.125 0.5,0.5 Q 4,30 4.5,30 q 0.5,0 1,0 0.5,0 1,0 0.5,0 1,0 0.5,0 1,0 0.5,0 1,0 0.5,0 1,0 0.5,0 1,0 0.5,0 1,0 0.5,0 1,0 0.5,0 1,0 0.5,0 1,0 0.5,0 1,0 0.5,0 1,0 0.5,0 1,0 0.5,0 1,0 0.5,0 1,0 0.5,0 1,0"
       id="path11111"
       inkscape:connector-curvature="0" />
    <path
       style="fill:#000000;fill-opacity:1"
       d="M 22.875,2.375 Q 23,2 23.5,2 24,2 24.125,2.375 24.25,2.75 24.625,2.875 25,3 25,3.5 25,4 25.125,4.375 25.25,4.75 25.625,4.875 26,5 26.5,5 27,5 27.125,5.375 27.25,5.75 27.625,5.875 28,6 28,6.5 28,7 27.625,7.125 27.25,7.25 27.125,7.625 27,8 26.5,8 H 26 V 7.5 7 L 26.375,6.875 Q 26.75,6.75 26.75,6.5 26.75,6.25 26.375,6.125 L 26,6 H 25.5 25 25.375 25.75 25.5 Q 25.25,6 25.03125,5.96875 L 24.8125,5.9375 24.921875,5.953125 25.03125,5.96875 24.890625,5.609375 Q 24.75,5.25 24.390625,5.109375 L 24.03125,4.96875 24.046875,5.078125 24.0625,5.1875 24.03125,4.96875 Q 24,4.75 24,4.5 V 4.25 4.625 5 4.5 4 L 23.875,3.625 Q 23.75,3.25 23.5,3.25 q -0.25,0 -0.375,0.375 L 23,4 H 22.5 22 V 3.5 q 0,-0.5 0.375,-0.625 0.375,-0.125 0.5,-0.5"
       id="path11113"
       inkscape:connector-curvature="0" />
    <path
       style="fill:#b0b0b0;fill-opacity:1"
       d="M 23.125,3.625 Q 23.25,3.25 23.5,3.25 q 0.25,0 0.375,0.375 L 24,4 H 23.5 23 l 0.125,-0.375"
       id="path11115"
       inkscape:connector-curvature="0" />
    <path
       style="fill:#000000;fill-opacity:1"
       d="M 20.875,4.375 Q 21,4 21.5,4 H 22 V 4.5 5 l -0.375,0.125 q -0.375,0.125 -0.5,0.5 L 21,6 H 20.5 20 V 5.5 q 0,-0.5 0.375,-0.625 0.375,-0.125 0.5,-0.5"
       id="path11117"
       inkscape:connector-curvature="0" />
    <path
       style="fill:#303030;fill-opacity:1"
       d="M 22,4.5 V 4 H 22.5 23 V 4.5 5 H 22.5 22 V 4.5"
       id="path11119"
       inkscape:connector-curvature="0" />
    <path
       style="fill:#d0d0d0;fill-opacity:1"
       d="M 23,4.5 V 4 H 23.5 24 V 4.5 Q 24,5 24.125,5.375 L 24.25,5.75 24.15625,5.46875 24.0625,5.1875 24.125,5.375 q 0.0625,0.1875 0.1875,0.3125 l 0.125,0.125 L 24.375,5.75 24.3125,5.6875 24,6 23.6875,6.3125 23.75,6.375 23.8125,6.4375 23.6875,6.3125 Q 23.5625,6.1875 23.375,6.125 L 23.1875,6.0625 23.46875,6.15625 23.75,6.25 23.375,6.125 Q 23,6 23,5.5 V 5 4.5"
       id="path11121"
       inkscape:connector-curvature="0" />
    <path
       style="fill:#b0b0b0;fill-opacity:1"
       d="m 21.125,5.625 q 0.125,-0.375 0.5,-0.5 L 22,5 21.71875,5.09375 21.4375,5.1875 21.625,5.125 Q 21.8125,5.0625 22.03125,5.03125 L 22.25,5 22.140625,5.015625 22.03125,5.03125 22.015625,5.515625 22,6 H 21.5 21 l 0.125,-0.375"
       id="path11123"
       inkscape:connector-curvature="0" />
    <path
       style="fill:#505050;fill-opacity:1"
       d="M 22,5.5 V 5 H 22.5 23 V 5.5 6 5.625 5.25 5.5 q 0,0.25 0.09375,0.40625 L 23.1875,6.0625 23.140625,5.984375 23.09375,5.90625 22.921875,6.328125 Q 22.75,6.75 22.359375,6.859375 L 21.96875,6.96875 21.953125,7.078125 21.9375,7.1875 21.96875,6.96875 Q 22,6.75 22,6.5 V 6.25 6.625 7 6.5 6 5.5"
       id="path11125"
       inkscape:connector-curvature="0" />
    <path
       style="fill:#804000;fill-opacity:1"
       d="M 24.125,5.375 24,5 24.09375,5.28125 24.1875,5.5625 24.125,5.375 Q 24.0625,5.1875 24.03125,4.96875 L 24,4.75 l 0.01563,0.109375 0.01563,0.109375 0.359375,0.140625 q 0.359375,0.140625 0.5,0.5 L 25.03125,5.96875 25.140625,5.984375 25.25,6 25.03125,5.96875 Q 24.8125,5.9375 24.625,5.875 L 24.4375,5.8125 24.71875,5.90625 25,6 24.625,5.875 q -0.375,-0.125 -0.5,-0.5"
       id="path11127"
       inkscape:connector-curvature="0" />
    <path
       style="fill:#000000;fill-opacity:1"
       d="M 18.875,6.375 Q 19,6 19.5,6 H 20 V 6.5 7 l -0.375,0.125 q -0.375,0.125 -0.5,0.5 L 19,8 v 0.5 q 0,0.5 0,1 V 10 9.625 9.25 9.5 q 0,0.25 0.125,0.375 L 19.25,10 19.1875,9.9375 19.125,9.875 l 0.0625,0.4375 q 0.0625,0.4375 0.5,0.5 L 20.125,10.875 20.0625,10.8125 20,10.75 20.125,10.875 Q 20.25,11 20.5,11 H 20.75 20.375 20 20.5 q 0.5,0 1,0 H 22 l 0.375,-0.125 q 0.375,-0.125 0.5,-0.5 L 23,10 h 0.5 0.5 v 0.5 q 0,0.5 -0.375,0.625 -0.375,0.125 -0.5,0.5 Q 23,12 22.5,12 q -0.5,0 -1,0 -0.5,0 -1,0 -0.5,0 -0.875,0.125 -0.375,0.125 -0.5,0.5 -0.125,0.375 -0.5,0.5 -0.375,0.125 -0.5,0.5 -0.125,0.375 -0.5,0.5 -0.375,0.125 -0.5,0.5 -0.125,0.375 -0.5,0.5 -0.375,0.125 -0.5,0.5 -0.125,0.375 -0.5,0.5 -0.375,0.125 -0.5,0.5 -0.125,0.375 -0.5,0.5 -0.375,0.125 -0.5,0.5 -0.125,0.375 -0.5,0.5 -0.375,0.125 -0.5,0.5 -0.125,0.375 -0.5,0.5 -0.375,0.125 -0.5,0.5 Q 12,20 11.625,20.125 11.25,20.25 11.25,20.5 q 0,0.25 0.375,0.375 Q 12,21 12,21.5 q 0,0.5 -0.375,0.625 -0.375,0.125 -0.5,0.5 Q 11,23 11,23.5 q 0,0.5 0,1 0,0.5 0.5,0.5 0.5,0 1,0 0.5,0 1,0 0.5,0 1,0 0.5,0 1,0 0.5,0 1,0 0.5,0 1,0 0.5,0 1,0 0.5,0 0.625,0.375 0.125,0.375 0.5,0.5 Q 20,26 20.5,26 q 0.5,0 1,0 0.5,0 1,0 0.5,0 1,0 0.5,0 1,0 0.5,0 1,0 0.5,0 0.625,0.375 0.125,0.375 0.5,0.5 Q 27,27 27,27.5 q 0,0.5 -0.375,0.625 -0.375,0.125 -0.5,0.5 Q 26,29 25.5,29 q -0.5,0 -1,0 -0.5,0 -1,0 -0.5,0 -0.875,0.125 -0.375,0.125 -0.5,0.5 Q 22,30 21.5,30 q -0.5,0 -1,0 -0.5,0 -1,0 -0.5,0 -1,0 -0.5,0 -1,0 -0.5,0 -1,0 -0.5,0 -1,0 -0.5,0 -1,0 -0.5,0 -1,0 -0.5,0 -1,0 -0.5,0 -1,0 -0.5,0 -1,0 -0.5,0 -1,0 Q 9,30 8.5,30 8,30 7.5,30 7,30 6.5,30 6,30 5.5,30 5,30 4.5,30 4,30 3.875,29.625 3.75,29.25 3.375,29.125 3,29 2.875,28.625 2.75,28.25 2.375,28.125 2,28 2,27.5 2,27 2.375,26.875 2.75,26.75 2.875,26.375 3,26 3.5,26 4,26 4.5,26 5,26 4.875,25.625 4.75,25.25 4.375,25.125 4,25 4,24.5 4,24 4.375,23.875 4.75,23.75 4.875,23.375 5,23 5,22.5 5,22 5.375,21.875 5.75,21.75 5.875,21.375 6,21 6,20.5 6,20 6.375,19.875 6.75,19.75 6.875,19.375 7,19 7.375,18.875 7.75,18.75 7.875,18.375 8,18 8.5,18 9,18 9.125,18.375 9.25,18.75 9.5,18.75 q 0.25,0 0.375,-0.375 0.125,-0.375 0.5,-0.5 0.375,-0.125 0.5,-0.5 0.125,-0.375 0.5,-0.5 0.375,-0.125 0.5,-0.5 0.125,-0.375 0.5,-0.5 0.375,-0.125 0.5,-0.5 0.125,-0.375 0.5,-0.5 0.375,-0.125 0.5,-0.5 0.125,-0.375 0.5,-0.5 0.375,-0.125 0.5,-0.5 0.125,-0.375 0.5,-0.5 0.375,-0.125 0.5,-0.5 0.125,-0.375 0.5,-0.5 0.375,-0.125 0.5,-0.5 0.125,-0.375 0.5,-0.5 0.375,-0.125 0.5,-0.5 Q 18,10 18,9.5 18,9 18,8.5 18,8 18,7.5 18,7 18.375,6.875 18.75,6.75 18.875,6.375 M 20.5,29 q 0.5,0 0.875,-0.125 0.375,-0.125 0.5,-0.5 L 22,28 h 0.5 q 0.5,0 1,0 0.5,0 1,0 0.5,0 0.875,-0.125 0.375,-0.125 0.375,-0.375 0,-0.25 -0.375,-0.375 Q 25,27 24.5,27 q -0.5,0 -1,0 -0.5,0 -1,0 -0.5,0 -1,0 -0.5,0 -1,0 -0.5,0 -1,0 H 19 L 18.875,26.625 Q 18.75,26.25 18.375,26.125 18,26 17.5,26 q -0.5,0 -1,0 -0.5,0 -1,0 -0.5,0 -1,0 -0.5,0 -1,0 -0.5,0 -1,0 -0.5,0 -1,0 -0.5,0 -0.875,-0.125 -0.375,-0.125 -0.5,-0.5 Q 10,25 10,24.5 10,24 10,23.5 10,23 10.125,22.625 10.25,22.25 10.5,22 q 0.25,-0.25 0.25,-0.5 0,-0.25 -0.375,-0.375 Q 10,21 9.875,20.625 9.75,20.25 9.375,20.125 9,20 8.875,19.625 8.75,19.25 8.5,19.25 8.25,19.25 8,19.5 7.75,19.75 7.5,20 7.25,20.25 7.125,20.625 7,21 6.875,21.375 6.75,21.75 6.5,22 6.25,22.25 6.125,22.625 6,23 5.875,23.375 5.75,23.75 5.5,24 q -0.25,0.25 -0.25,0.5 0,0.25 0.25,0.25 0.25,0 0.5,-0.25 Q 6.25,24.25 6.625,24.125 7,24 7.5,24 8,24 8,24.5 8,25 8,25.5 8,26 7.5,26 7,26 6.625,26.125 6.25,26.25 6.109375,26.609375 L 5.96875,26.96875 6.078125,26.953125 6.1875,26.9375 5.96875,26.96875 Q 5.75,27 5.5,27 H 5.25 5.625 6 5.5 Q 5,27 4.5,27 4,27 3.625,27.125 3.25,27.25 3.25,27.5 3.25,27.75 3.5,28 3.75,28.25 4,28.5 4.25,28.75 4.625,28.875 5,29 5.5,29 q 0.5,0 1,0 0.5,0 1,0 0.5,0 1,0 0.5,0 1,0 0.5,0 1,0 0.5,0 1,0 0.5,0 1,0 0.5,0 1,0 0.5,0 1,0 0.5,0 1,0 0.5,0 1,0 0.5,0 1,0 0.5,0 1,0 0.5,0 1,0 0.5,0 1,0 m 1.875,-1 H 22 21.875 21.75 22 q 0.25,0 0.5,0 h 0.25 -0.375 m -3.5,-1 H 19 19.375 19.75 19.5 q -0.25,0 -0.5,0 h -0.25 0.125 M 10.25,19.5 q 0,0.25 0.25,0.25 0.25,0 0.5,-0.25 0.25,-0.25 0.5,-0.5 0.25,-0.25 0.25,-0.5 0,-0.25 -0.25,-0.25 -0.25,0 -0.5,0.25 -0.25,0.25 -0.5,0.5 -0.25,0.25 -0.25,0.5 m 2,-2 q 0,0.25 0.25,0.25 0.25,0 0.5,-0.25 0.25,-0.25 0.5,-0.5 0.25,-0.25 0.5,-0.5 0.25,-0.25 0.5,-0.5 0.25,-0.25 0.5,-0.5 0.25,-0.25 0.5,-0.5 0.25,-0.25 0.5,-0.5 0.25,-0.25 0.5,-0.5 0.25,-0.25 0.5,-0.5 0.25,-0.25 0.5,-0.5 0.25,-0.25 0.5,-0.5 0.25,-0.25 0.5,-0.5 0.25,-0.25 0.25,-0.5 0,-0.25 -0.25,-0.25 -0.25,0 -0.5,0.25 -0.25,0.25 -0.5,0.5 -0.25,0.25 -0.5,0.5 -0.25,0.25 -0.5,0.5 -0.25,0.25 -0.5,0.5 -0.25,0.25 -0.5,0.5 -0.25,0.25 -0.5,0.5 -0.25,0.25 -0.5,0.5 -0.25,0.25 -0.5,0.5 -0.25,0.25 -0.5,0.5 -0.25,0.25 -0.5,0.5 -0.25,0.25 -0.5,0.5 -0.25,0.25 -0.25,0.5"
       id="path11129"
       inkscape:connector-curvature="0" />
    <path
       style="fill:#303030;fill-opacity:1"
       d="M 20,6.5 V 6 H 20.5 21 V 6.5 7 H 20.5 20 V 6.5"
       id="path11131"
       inkscape:connector-curvature="0" />
    <path
       style="fill:#d0d0d0;fill-opacity:1"
       d="M 21,6.5 V 6 H 21.5 22 V 6.5 Q 22,7 21.875,7.375 21.75,7.75 21.375,7.875 21,8 21,7.5 V 7 6.5"
       id="path11133"
       inkscape:connector-curvature="0" />
    <path
       style="fill:#603000;fill-opacity:1"
       d="M 22.921875,6.328125 23.09375,5.90625 23.046875,5.828125 23,5.75 23.09375,5.90625 Q 23.1875,6.0625 23.375,6.125 L 23.5625,6.1875 23.28125,6.09375 23,6 23.375,6.125 Q 23.75,6.25 23.890625,6.640625 L 24.03125,7.03125 24.140625,7.015625 24.25,7 24.03125,7.03125 Q 23.8125,7.0625 23.625,7.125 L 23.4375,7.1875 23.71875,7.09375 24,7 23.625,7.125 Q 23.25,7.25 23.140625,7.640625 L 23.03125,8.03125 23.140625,8.015625 23.25,8 23.03125,8.03125 Q 22.8125,8.0625 22.625,8.125 L 22.4375,8.1875 22.71875,8.09375 23,8 22.625,8.125 Q 22.25,8.25 22.140625,8.640625 L 22.03125,9.03125 22.140625,9.015625 22.25,9 22.03125,9.03125 Q 21.8125,9.0625 21.625,9.125 L 21.4375,9.1875 21.71875,9.09375 22,9 21.625,9.125 Q 21.25,9.25 21.140625,9.640625 L 21.03125,10.03125 21.140625,10.015625 21.25,10 21.03125,10.03125 Q 20.8125,10.0625 20.625,10.125 L 20.4375,10.1875 20.71875,10.09375 21,10 20.625,10.125 q -0.375,0.125 -0.5,0.5 L 20,11 V 10.625 10.25 10.5 q 0,0.25 0.125,0.375 L 20.25,11 20.1875,10.9375 20.125,10.875 19.6875,10.8125 q -0.4375,-0.0625 -0.5,-0.5 L 19.125,9.875 19.0625,9.8125 19,9.75 19.125,9.875 Q 19.25,10 19.5,10 H 19.75 19.375 19 l 0.375,-0.125 q 0.375,-0.125 0.5,-0.5 L 20,9 19.90625,9.28125 19.8125,9.5625 19.875,9.375 Q 19.9375,9.1875 19.96875,8.96875 L 20,8.75 19.984375,8.859375 19.96875,8.96875 20.359375,8.859375 Q 20.75,8.75 20.9375,8.3125 L 21.125,7.875 21.0625,7.8125 21,7.75 21.125,7.875 Q 21.25,8 21.5,8 H 21.75 21.375 21 l 0.375,-0.125 q 0.375,-0.125 0.5,-0.5 L 22,7 21.90625,7.28125 21.8125,7.5625 21.875,7.375 Q 21.9375,7.1875 21.96875,6.96875 L 22,6.75 21.984375,6.859375 21.96875,6.96875 22.359375,6.859375 Q 22.75,6.75 22.921875,6.328125"
       id="path11135"
       inkscape:connector-curvature="0" />
    <path
       style="fill:#b0b0b0;fill-opacity:1"
       d="M 23.890625,6.640625 23.75,6.25 23.84375,6.53125 23.9375,6.8125 23.875,6.625 Q 23.8125,6.4375 23.6875,6.3125 L 23.5625,6.1875 23.625,6.25 23.6875,6.3125 24,6 24.3125,5.6875 24.25,5.625 24.1875,5.5625 l 0.125,0.125 q 0.125,0.125 0.3125,0.1875 L 24.8125,5.9375 24.53125,5.84375 24.25,5.75 24.625,5.875 Q 25,6 25.5,6 H 26 V 6.5 7 H 25.5 25 24.5 24 24.375 24.75 24.5 Q 24.25,7 24.03125,7.03125 L 23.8125,7.0625 23.921875,7.046875 24.03125,7.03125 23.890625,6.640625"
       id="path11137"
       inkscape:connector-curvature="0" />
    <path
       style="fill:#909090;fill-opacity:1"
       d="M 26,6.5 V 6 l 0.375,0.125 Q 26.75,6.25 26.75,6.5 q 0,0.25 -0.375,0.375 L 26,7 V 6.5"
       id="path11139"
       inkscape:connector-curvature="0" />
    <path
       style="fill:#b0b0b0;fill-opacity:1"
       d="m 19.125,7.625 q 0.125,-0.375 0.5,-0.5 L 20,7 19.71875,7.09375 19.4375,7.1875 19.625,7.125 Q 19.8125,7.0625 20.03125,7.03125 L 20.25,7 20.140625,7.015625 20.03125,7.03125 20.015625,7.515625 20,8 H 19.5 19 l 0.125,-0.375"
       id="path11141"
       inkscape:connector-curvature="0" />
    <path
       style="fill:#505050;fill-opacity:1"
       d="M 20,7.5 V 7 H 20.5 21 V 7.5 8 7.625 7.25 7.5 q 0,0.25 0.125,0.375 L 21.25,8 21.1875,7.9375 21.125,7.875 20.9375,8.3125 Q 20.75,8.75 20.359375,8.859375 L 19.96875,8.96875 19.953125,9.078125 19.9375,9.1875 19.96875,8.96875 Q 20,8.75 20,8.5 V 8.25 8.625 9 8.5 8 7.5"
       id="path11143"
       inkscape:connector-curvature="0" />
    <path
       style="fill:#505050;fill-opacity:1"
       d="M 23.140625,7.640625 Q 23.25,7.25 23.625,7.125 24,7 24.5,7 H 25 V 7.5 8 H 24.5 24 23.5 23 23.375 23.75 23.5 Q 23.25,8 23.03125,8.03125 L 22.8125,8.0625 22.921875,8.046875 23.03125,8.03125 23.140625,7.640625"
       id="path11145"
       inkscape:connector-curvature="0" />
    <path
       style="fill:#303030;fill-opacity:1"
       d="M 25,7.5 V 7 H 25.5 26 V 7.5 8 H 25.5 25 V 7.5"
       id="path11147"
       inkscape:connector-curvature="0" />
    <path
       style="fill:#d0d0d0;fill-opacity:1"
       d="M 19,8.5 V 8 H 19.5 20 V 8.5 Q 20,9 19.875,9.375 19.75,9.75 19.375,9.875 19,10 19,9.5 19,9 19,8.5"
       id="path11149"
       inkscape:connector-curvature="0" />
    <path
       style="fill:#b0b0b0;fill-opacity:1"
       d="M 22.140625,8.640625 Q 22.25,8.25 22.625,8.125 23,8 23.5,8 H 24 V 8.5 9 H 23.5 23 22.5 22 22.375 22.75 22.5 Q 22.25,9 22.03125,9.03125 L 21.8125,9.0625 21.921875,9.046875 22.03125,9.03125 22.140625,8.640625"
       id="path11151"
       inkscape:connector-curvature="0" />
    <path
       style="fill:#909090;fill-opacity:1"
       d="M 24,8.5 V 8 h 0.5 0.5 l -0.125,0.375 q -0.125,0.375 -0.5,0.5 L 24,9 V 8.5 M 25.125,8 H 25 24.625 24.25 24.5 q 0.25,0 0.5,0 h 0.25 -0.125"
       id="path11153"
       inkscape:connector-curvature="0" />
    <path
       style="fill:#000000;fill-opacity:1"
       d="M 24.875,8.375 25,8 H 25.5 26 V 8.5 Q 26,9 25.625,9.125 25.25,9.25 25.125,9.625 25,10 24.5,10 H 24 V 9.5 9 l 0.375,-0.125 q 0.375,-0.125 0.5,-0.5"
       id="path11155"
       inkscape:connector-curvature="0" />
    <path
       style="fill:#505050;fill-opacity:1"
       d="M 21.140625,9.640625 Q 21.25,9.25 21.625,9.125 22,9 22.5,9 H 23 V 9.5 10 H 22.5 22 21.5 21 21.375 21.75 21.5 q -0.25,0 -0.46875,0.03125 l -0.21875,0.03125 0.109375,-0.01563 0.109375,-0.01563 0.109375,-0.390625"
       id="path11157"
       inkscape:connector-curvature="0" />
    <path
       style="fill:#303030;fill-opacity:1"
       d="M 23,9.5 V 9 H 23.5 24 V 9.5 10 H 23.5 23 V 9.5"
       id="path11159"
       inkscape:connector-curvature="0" />
    <path
       style="fill:#b0b0b0;fill-opacity:1"
       d="m 20.125,10.625 q 0.125,-0.375 0.5,-0.5 Q 21,10 21.5,10 H 22 v 0.5 0.5 h -0.5 q -0.5,0 -1,0 -0.5,0 -0.375,-0.375"
       id="path11161"
       inkscape:connector-curvature="0" />
    <path
       style="fill:#909090;fill-opacity:1"
       d="M 22,10.5 V 10 h 0.5 0.5 l -0.125,0.375 q -0.125,0.375 -0.5,0.5 L 22,11 V 10.5 M 23.125,10 H 23 22.625 22.25 22.5 q 0.25,0 0.5,0 h 0.25 -0.125"
       id="path11163"
       inkscape:connector-curvature="0" />
    <path
       style="fill:#804000;fill-opacity:1"
       d="m 18,11.5 q 0.25,-0.25 0.5,-0.25 0.25,0 0.25,0.25 0,0.25 -0.25,0.5 -0.25,0.25 -0.5,0.5 -0.25,0.25 -0.5,0.5 -0.25,0.25 -0.5,0.5 -0.25,0.25 -0.5,0.5 -0.25,0.25 -0.5,0.5 -0.25,0.25 -0.5,0.5 -0.25,0.25 -0.5,0.5 -0.25,0.25 -0.5,0.5 -0.25,0.25 -0.5,0.5 -0.25,0.25 -0.5,0.5 -0.25,0.25 -0.5,0.5 -0.25,0.25 -0.5,0.25 -0.25,0 -0.25,-0.25 0,-0.25 0.25,-0.5 0.25,-0.25 0.5,-0.5 0.25,-0.25 0.5,-0.5 0.25,-0.25 0.5,-0.5 0.25,-0.25 0.5,-0.5 0.25,-0.25 0.5,-0.5 0.25,-0.25 0.5,-0.5 0.25,-0.25 0.5,-0.5 0.25,-0.25 0.5,-0.5 0.25,-0.25 0.5,-0.5 0.25,-0.25 0.5,-0.5 0.25,-0.25 0.5,-0.5"
       id="path11165"
       inkscape:connector-curvature="0" />
    <path
       style="fill:#603000;fill-opacity:1"
       d="m 11,18.5 q 0.25,-0.25 0.5,-0.25 0.25,0 0.25,0.25 0,0.25 -0.25,0.5 -0.25,0.25 -0.5,0.5 -0.25,0.25 -0.5,0.25 -0.25,0 -0.25,-0.25 0,-0.25 0.25,-0.5 0.25,-0.25 0.5,-0.5"
       id="path11167"
       inkscape:connector-curvature="0" />
    <path
       style="fill:#ffffff;fill-opacity:1"
       d="m 8,19.5 q 0.25,-0.25 0.5,-0.25 0.25,0 0.375,0.375 L 9,20 8.90625,19.71875 8.8125,19.4375 8.875,19.625 q 0.0625,0.1875 0.1875,0.3125 l 0.125,0.125 L 9.125,20 9.0625,19.9375 8.90625,20.34375 Q 8.75,20.75 8.5,21 8.25,21.25 8,21.5 7.75,21.75 7.5,22 7.25,22.25 7.125,22.625 L 7,23 H 6.5 6 L 6.125,22.625 Q 6.25,22.25 6.5,22 6.75,21.75 6.875,21.375 7,21 7.125,20.625 7.25,20.25 7.5,20 7.75,19.75 8,19.5 M 6.09375,22.71875 6,23 5.96875,23.09375 5.9375,23.1875 6,23 Q 6.0625,22.8125 6.125,22.625 L 6.1875,22.4375 6.09375,22.71875 M 6.625,23 H 7 7.125 7.25 7 Q 6.75,23 6.5,23 H 6.25 6.625"
       id="path11169"
       inkscape:connector-curvature="0" />
    <path
       style="fill:#c0c0c0;fill-opacity:1"
       d="M 8.90625,20.34375 9.0625,19.9375 9,19.875 8.9375,19.8125 l 0.125,0.125 q 0.125,0.125 0.3125,0.1875 L 9.5625,20.1875 9.28125,20.09375 9,20 9.375,20.125 q 0.375,0.125 0.5,0.5 L 10,21 9.90625,20.71875 9.8125,20.4375 9.875,20.625 q 0.0625,0.1875 0.1875,0.3125 l 0.125,0.125 L 10.125,21 10.0625,20.9375 9.65625,21.09375 Q 9.25,21.25 9,21.5 8.75,21.75 8.5,22 8.25,22.25 8.125,22.625 L 8,23 H 7.5 7 L 7.125,22.625 Q 7.25,22.25 7.5,22 7.75,21.75 8,21.5 8.25,21.25 8.5,21 8.75,20.75 8.90625,20.34375 M 6.875,23 H 7 7.375 7.75 7.5 Q 7.25,23 7,23 H 6.75 6.875"
       id="path11171"
       inkscape:connector-curvature="0" />
    <path
       style="fill:#909090;fill-opacity:1"
       d="M 9,21.5 Q 9.25,21.25 9.65625,21.09375 L 10.0625,20.9375 9.90625,21.34375 Q 9.75,21.75 9.5,22 9.25,22.25 9.125,22.625 L 9,23 H 8.5 8 L 8.125,22.625 Q 8.25,22.25 8.5,22 8.75,21.75 9,21.5 M 8.625,23 H 9 9.125 9.25 9 Q 8.75,23 8.5,23 H 8.25 8.625"
       id="path11173"
       inkscape:connector-curvature="0" />
    <path
       style="fill:#80ff80;fill-opacity:1"
       d="M 9.90625,21.34375 10.0625,20.9375 10,20.875 9.9375,20.8125 l 0.125,0.125 q 0.125,0.125 0.3125,0.1875 L 10.5625,21.1875 10.28125,21.09375 10,21 l 0.375,0.125 q 0.375,0.125 0.375,0.375 0,0.25 -0.25,0.5 -0.25,0.25 -0.375,0.625 L 10,23 10.09375,22.71875 10.1875,22.4375 10.125,22.625 q -0.0625,0.1875 -0.09375,0.40625 L 10,23.25 10.015625,23.140625 10.03125,23.03125 9.515625,23.015625 9,23 9.125,22.625 Q 9.25,22.25 9.5,22 9.75,21.75 9.90625,21.34375 M 8.875,23 H 9 9.375 9.75 9.5 Q 9.25,23 9,23 H 8.75 8.875"
       id="path11175"
       inkscape:connector-curvature="0" />
    <path
       style="fill:#80ff80;fill-opacity:1"
       d="M 5.875,23.375 6,23 h 0.5 q 0.5,0 1,0 H 8 L 7.9375,23.5625 7.875,24.125 7.9375,24.1875 8,24.25 7.875,24.125 Q 7.75,24 7.5,24 H 7.25 7.625 8 7.5 Q 7,24 6.625,24.125 6.25,24.25 6,24.5 5.75,24.75 5.5,24.75 5.25,24.75 5.25,24.5 5.25,24.25 5.5,24 5.75,23.75 5.875,23.375 M 8.125,23 H 8 7.625 7.25 7.5 Q 7.75,23 8,23 H 8.25 8.125 M 6.03125,22.90625 6,23 5.90625,23.28125 5.8125,23.5625 5.875,23.375 Q 5.9375,23.1875 6,23 l 0.0625,-0.1875 -0.03125,0.09375"
       id="path11177"
       inkscape:connector-curvature="0" />
    <path
       style="fill:#00ff00;fill-opacity:1"
       d="M 7.9375,23.5625 8,23 h 0.5 q 0.5,0 1.015625,0.01563 l 0.515625,0.01563 0.01563,-0.109375 0.01563,-0.109375 -0.03125,0.21875 Q 10,23.25 10,23.5 V 23.75 23.375 23 23.5 q 0,0.5 0,1 0,0.5 0.125,0.875 0.125,0.375 0.5,0.5 L 11,26 10.71875,25.90625 10.4375,25.8125 10.625,25.875 q 0.1875,0.0625 0.40625,0.09375 L 11.25,26 11.140625,25.984375 11.03125,25.96875 v 0.5 0.5 L 11.140625,26.98438 11.25,27 11.03125,26.96875 Q 10.8125,26.9375 10.625,26.875 L 10.4375,26.8125 10.71875,26.90625 11,27 10.625,26.875 Q 10.25,26.75 10,26.5 9.75,26.25 9.5,26.25 q -0.25,0 -0.375,0.375 -0.125,0.375 0,0.75 0.125,0.375 0.5,0.5 Q 10,28 10.5,28 q 0.5,0 1,0 0.5,0 1,0 0.5,0 0.875,-0.125 0.375,-0.125 0.5,-0.5 L 14,27 h 0.5 q 0.5,0 1,0 0.5,0 1,0 H 17 l -0.125,0.375 q -0.125,0.375 -0.5,0.5 -0.375,0.125 -0.75,0.25 -0.375,0.125 -0.5,0.5 L 15,29 h -0.5 q -0.5,0 -1,0 -0.5,0 -1,0 -0.5,0 -1,0 -0.5,0 -1,0 -0.5,0 -1,0 -0.5,0 -1,0 H 8 L 7.875,28.625 Q 7.75,28.25 7.5,28 7.25,27.75 7.25,27.5 7.25,27.25 7.5,27 7.75,26.75 7.8125,26.3125 L 7.875,25.875 7.8125,25.9375 7.75,26 7.875,25.875 Q 8,25.75 8,25.5 V 25.25 25.625 26 25.5 Q 8,25 8,24.5 V 24 24.375 24.75 24.5 Q 8,24.25 7.875,24.125 L 7.75,24 7.8125,24.0625 7.875,24.125 7.9375,23.5625 M 7.875,29 H 8 8.375 8.75 8.5 Q 8.25,29 8,29 H 7.75 7.875 m 6.75,0 H 15 15.125 15.25 15 q -0.25,0 -0.5,0 h -0.25 0.375 m 2.5,-2 H 17 16.625 16.25 16.5 q 0.25,0 0.5,0 h 0.25 -0.125 M 8.375,23 H 8 7.875 7.75 8 q 0.25,0 0.5,0 H 8.75 8.375"
       id="path11179"
       inkscape:connector-curvature="0" />
    <path
       style="fill:#008000;fill-opacity:1"
       d="M 6.109375,26.609375 Q 6.25,26.25 6.625,26.125 L 7,26 6.71875,26.09375 6.4375,26.1875 6.625,26.125 Q 6.8125,26.0625 7.03125,26.03125 L 7.25,26 7.140625,26.015625 7.03125,26.03125 6.890625,26.390625 Q 6.75,26.75 6.375,26.875 L 6,27 6.28125,26.90625 6.5625,26.8125 6.375,26.875 Q 6.1875,26.9375 5.96875,26.96875 L 5.75,27 5.859375,26.984375 5.96875,26.96875 6.109375,26.609375"
       id="path11181"
       inkscape:connector-curvature="0" />
    <path
       style="fill:#00c000;fill-opacity:1"
       d="M 6.890625,26.390625 7.03125,26.03125 6.921875,26.046875 6.8125,26.0625 7.03125,26.03125 Q 7.25,26 7.5,26 H 7.75 7.375 7 7.5 8 7.625 7.25 7.5 q 0.25,0 0.375,-0.125 L 8,25.75 7.9375,25.8125 7.875,25.875 7.8125,26.3125 Q 7.75,26.75 7.5,27 q -0.25,0.25 -0.25,0.5 0,0.25 0.25,0.5 0.25,0.25 0.375,0.625 L 8,29 H 7.5 7 L 6.875,28.625 Q 6.75,28.25 6.375,28.125 6,28 5.5,28 5,28 4.625,27.875 4.25,27.75 4.140625,27.390625 L 4.03125,27.03125 3.921875,27.046875 3.8125,27.0625 4.03125,27.03125 Q 4.25,27 4.5,27 H 4.75 4.375 4 4.5 Q 5,27 5.5,27 6,27 6.375,26.875 6.75,26.75 6.890625,26.390625 M 6.875,29 H 7 7.375 7.75 7.5 Q 7.25,29 7,29 H 6.75 6.875 m 0.75,0 H 8 8.125 8.25 8 Q 7.75,29 7.5,29 H 7.25 7.625"
       id="path11183"
       inkscape:connector-curvature="0" />
    <path
       style="fill:#80ff80;fill-opacity:1"
       d="M 9.125,26.625 Q 9.25,26.25 9.5,26.25 q 0.25,0 0.5,0.25 0.25,0.25 0.625,0.375 Q 11,27 11.5,27 q 0.5,0 1,0 0.5,0 1,0 H 14 l -0.125,0.375 q -0.125,0.375 -0.5,0.5 Q 13,28 12.5,28 12,28 11.5,28 11,28 10.5,28 10,28 9.625,27.875 9.25,27.75 9.125,27.375 9,27 9.125,26.625"
       id="path11185"
       inkscape:connector-curvature="0" />
    <path
       style="fill:#00c000;fill-opacity:1"
       d="m 11.03125,26.46875 v -0.5 L 10.921875,25.953125 10.8125,25.9375 11.03125,25.96875 Q 11.25,26 11.5,26 H 11.75 11.375 11 11.5 q 0.5,0 1,0 0.5,0 1,0 H 14 v 0.5 0.5 h -0.5 q -0.5,0 -1,0 -0.5,0 -1,0 H 11 11.375 11.75 11.5 q -0.25,0 -0.46875,-0.03125 l -0.21875,-0.03125 0.109375,0.01563 0.109375,0.01563 v -0.5 M 14.125,26 H 14 13.625 13.25 13.5 q 0.25,0 0.5,0 h 0.25 -0.125"
       id="path11187"
       inkscape:connector-curvature="0" />
    <path
       style="fill:#008000;fill-opacity:1"
       d="M 14,26.5 V 26 h 0.5 q 0.5,0 1,0 0.5,0 1,0 0.5,0 1,0 0.5,0 0.875,0.125 0.375,0.125 0.5,0.5 L 19,27 h -0.5 q -0.5,0 -1,0 -0.5,0 -1,0 -0.5,0 -1,0 -0.5,0 -1,0 H 14 V 26.5 M 18.625,27 H 19 19.125 19.25 19 q -0.25,0 -0.5,0 h -0.25 0.375 m -4.25,-1 H 14 13.875 13.75 14 q 0.25,0 0.5,0 h 0.25 -0.375"
       id="path11189"
       inkscape:connector-curvature="0" />
    <path
       style="fill:#008000;fill-opacity:1"
       d="m 3.25,27.5 q 0,-0.25 0.375,-0.375 L 4,27 3.71875,27.09375 3.4375,27.1875 3.625,27.125 Q 3.8125,27.0625 4.03125,27.03125 L 4.25,27 4.140625,27.015625 4.03125,27.03125 4.140625,27.390625 Q 4.25,27.75 4.625,27.875 5,28 5.5,28 q 0.5,0 0.875,0.125 0.375,0.125 0.5,0.5 L 7,29 H 6.5 Q 6,29 5.5,29 5,29 4.625,28.875 4.25,28.75 4,28.5 3.75,28.25 3.5,28 3.25,27.75 3.25,27.5 M 6.625,29 H 7 7.125 7.25 7 Q 6.75,29 6.5,29 H 6.25 6.625"
       id="path11191"
       inkscape:connector-curvature="0" />
    <path
       style="fill:#00c000;fill-opacity:1"
       d="M 16.875,27.375 17,27 h 0.5 q 0.5,0 1,0 0.5,0 1,0 0.5,0 1,0 0.5,0 1,0 0.5,0 1,0 H 23 v 0.5 0.5 h -0.5 q -0.5,0 -1,0 -0.5,0 -1,0 -0.5,0 -0.875,0.125 -0.375,0.125 -0.5,0.5 L 19,29 h -0.5 q -0.5,0 -1,0 -0.5,0 -1,0 -0.5,0 -1,0 H 15 l 0.125,-0.375 q 0.125,-0.375 0.5,-0.5 0.375,-0.125 0.75,-0.25 0.375,-0.125 0.5,-0.5 m -2,1.625 H 15 15.375 15.75 15.5 q -0.25,0 -0.5,0 h -0.25 0.125 m 3.75,0 H 19 19.125 19.25 19 q -0.25,0 -0.5,0 h -0.25 0.375 m 4,-1 H 23 23.125 23.25 23 q -0.25,0 -0.5,0 h -0.25 0.375 m 0.5,-1 H 23 22.625 22.25 22.5 q 0.25,0 0.5,0 h 0.25 -0.125 m -5.75,0 H 17 16.875 16.75 17 q 0.25,0 0.5,0 h 0.25 -0.375"
       id="path11193"
       inkscape:connector-curvature="0" />
    <path
       style="fill:#008000;fill-opacity:1"
       d="M 23,27.5 V 27 h 0.5 q 0.5,0 1,0 0.5,0 0.875,0.125 0.375,0.125 0.375,0.375 0,0.25 -0.375,0.375 Q 25,28 24.5,28 24,28 23.5,28 H 23 V 27.5 M 22.875,28 H 23 23.375 23.75 23.5 q -0.25,0 -0.5,0 h -0.25 0.125 m 0.5,-1 H 23 22.875 22.75 23 q 0.25,0 0.5,0 h 0.25 -0.375"
       id="path11195"
       inkscape:connector-curvature="0" />
    <path
       style="fill:#008000;fill-opacity:1"
       d="m 19.125,28.625 q 0.125,-0.375 0.5,-0.5 Q 20,28 20.5,28 q 0.5,0 1,0 H 22 l -0.125,0.375 q -0.125,0.375 -0.5,0.5 Q 21,29 20.5,29 20,29 19.5,29 H 19 l 0.125,-0.375 M 18.875,29 H 19 19.375 19.75 19.5 q -0.25,0 -0.5,0 h -0.25 0.125 m 3.25,-1 H 22 21.625 21.25 21.5 q 0.25,0 0.5,0 h 0.25 -0.125"
       id="path11197"
       inkscape:connector-curvature="0" />
  </g>
</svg>
