<?xml version="1.0" encoding="UTF-8" standalone="no"?>
<!-- Created with Inkscape (http://www.inkscape.org/) -->

<svg
   xmlns:dc="http://purl.org/dc/elements/1.1/"
   xmlns:cc="http://creativecommons.org/ns#"
   xmlns:rdf="http://www.w3.org/1999/02/22-rdf-syntax-ns#"
   xmlns:svg="http://www.w3.org/2000/svg"
   xmlns="http://www.w3.org/2000/svg"
   xmlns:sodipodi="http://sodipodi.sourceforge.net/DTD/sodipodi-0.dtd"
   xmlns:inkscape="http://www.inkscape.org/namespaces/inkscape"
   version="1.1"
   id="svg8212"
   width="200"
   height="200"
   viewBox="0 0 200 200"
   sodipodi:docname="rock.svg"
   inkscape:version="0.92.5 (2060ec1f9f, 2020-04-08)">
  <metadata
     id="metadata8218">
    <rdf:RDF>
      <cc:Work
         rdf:about="">
        <dc:format>image/svg+xml</dc:format>
        <dc:type
           rdf:resource="http://purl.org/dc/dcmitype/StillImage" />
        <dc:title></dc:title>
      </cc:Work>
    </rdf:RDF>
  </metadata>
  <defs
     id="defs8216" />
  <sodipodi:namedview
     pagecolor="#ffffff"
     bordercolor="#666666"
     borderopacity="1"
     objecttolerance="10"
     gridtolerance="10"
     guidetolerance="10"
     inkscape:pageopacity="0"
     inkscape:pageshadow="2"
     inkscape:window-width="1920"
     inkscape:window-height="1118"
     id="namedview8214"
     showgrid="false"
     inkscape:zoom="1.84375"
     inkscape:cx="178.695"
     inkscape:cy="18.566801"
     inkscape:window-x="0"
     inkscape:window-y="24"
     inkscape:window-maximized="1"
     inkscape:current-layer="svg8212" />
  <g
     id="g8510"
     transform="matrix(4.0625,0,0,4.0625,35,35)">
    <path
       style="fill:#000000;fill-opacity:0"
       d="M 0,0.5 V 0 H 0.5 1 1.5 2 2.5 3 3.5 4 4.5 5 5.5 6 6.5 7 7.5 8 8.5 9 9.5 10 10.5 11 11.5 12 12.5 13 13.5 14 14.5 15 15.5 16 16.5 17 17.5 18 18.5 19 19.5 20 20.5 21 21.5 22 22.5 23 23.5 24 24.5 25 25.5 26 26.5 27 27.5 28 28.5 29 29.5 30 30.5 31 31.5 32 V 0.5 1 1.5 2 2.5 3 3.5 4 4.5 5 5.5 6 6.5 7 7.5 8 8.5 9 9.5 10 10.5 11 11.5 12 12.5 13 13.5 14 14.5 15 15.5 16 16.5 17 17.5 18 18.5 19 19.5 20 20.5 21 21.5 22 22.5 23 23.5 24 24.5 25 25.5 26 26.5 27 27.5 28 28.5 29 29.5 30 30.5 31 31.5 32 H 31.5 31 30.5 30 29.5 29 28.5 28 27.5 27 26.5 26 25.5 25 24.5 24 23.5 23 22.5 22 21.5 21 20.5 20 19.5 19 18.5 18 17.5 17 16.5 16 15.5 15 14.5 14 13.5 13 12.5 12 11.5 11 10.5 10 9.5 9 8.5 8 7.5 7 6.5 6 5.5 5 4.5 4 3.5 3 2.5 2 1.5 1 0.5 0 V 31.5 31 30.5 30 29.5 29 28.5 28 27.5 27 26.5 26 25.5 25 24.5 24 23.5 23 22.5 22 21.5 21 20.5 20 19.5 19 18.5 18 17.5 17 16.5 16 15.5 15 14.5 14 13.5 13 12.5 12 11.5 11 10.5 10 9.5 9 8.5 8 7.5 7 6.5 6 5.5 5 4.5 4 3.5 3 2.5 2 1.5 1 0.5 M 17.5,25 q 0.5,0 0.625,-0.375 0.125,-0.375 0.5,-0.5 Q 19,24 19.5,24 q 0.5,0 1,0 0.5,0 0.625,-0.375 0.125,-0.375 0.5,-0.5 0.375,-0.125 0.5,-0.5 0.125,-0.375 0.5,-0.5 0.375,-0.125 0.5,-0.5 0.125,-0.375 0.5,-0.5 0.375,-0.125 0.5,-0.5 0.125,-0.375 0.5,-0.5 Q 25,20 25,19.5 25,19 25.125,18.625 25.25,18.25 25.625,18.125 26,18 26,17.5 q 0,-0.5 0,-1 0,-0.5 0,-1 0,-0.5 0,-1 0,-0.5 -0.375,-0.625 -0.375,-0.125 -0.5,-0.5 Q 25,13 25,12.5 25,12 24.625,11.875 24.25,11.75 24.125,11.375 24,11 23.625,10.875 23.25,10.75 23.125,10.375 23,10 22.5,10 22,10 21.5,10 21,10 20.625,9.875 20.25,9.75 20.125,9.375 20,9 19.625,8.875 19.25,8.75 19.125,8.375 19,8 18.625,7.875 18.25,7.75 18.125,7.375 18,7 17.5,7 17,7 16.625,6.875 16.25,6.75 16.125,6.375 16,6 15.5,6 15,6 14.5,6 14,6 13.875,6.375 13.75,6.75 13.375,6.875 13,7 12.5,7 12,7 11.875,7.375 11.75,7.75 11.375,7.875 11,8 10.875,8.375 10.75,8.75 10.375,8.875 10,9 9.875,9.375 9.75,9.75 9.375,9.875 9,10 8.875,10.375 8.75,10.75 8.375,10.875 8,11 8,11.5 q 0,0.5 0,1 0,0.5 0,1 0,0.5 -0.125,0.875 -0.125,0.375 -0.5,0.5 Q 7,15 7,15.5 q 0,0.5 0,1 0,0.5 0,1 0,0.5 0,1 0,0.5 0.375,0.625 0.375,0.125 0.5,0.5 0.125,0.375 0.5,0.5 0.375,0.125 0.5,0.5 0.125,0.375 0.5,0.5 0.375,0.125 0.5,0.5 Q 10,22 10.5,22 q 0.5,0 0.875,0.125 0.375,0.125 0.5,0.5 0.125,0.375 0.5,0.5 0.375,0.125 0.5,0.5 Q 13,24 13.5,24 q 0.5,0 0.875,0.125 0.375,0.125 0.5,0.5 Q 15,25 15.5,25 q 0.5,0 1,0 0.5,0 1,0"
       id="path8222"
       inkscape:connector-curvature="0" />
    <path
       style="fill:#000000;fill-opacity:1"
       d="M 13.875,6.375 Q 14,6 14.5,6 q 0.5,0 1,0 0.5,0 0.625,0.375 0.125,0.375 0.5,0.5 Q 17,7 17.5,7 q 0.5,0 0.625,0.375 0.125,0.375 0.5,0.5 0.375,0.125 0.5,0.5 0.125,0.375 0.5,0.5 0.375,0.125 0.5,0.5 0.125,0.375 0.5,0.5 Q 21,10 21.5,10 q 0.5,0 1,0 0.5,0 0.625,0.375 0.125,0.375 0.5,0.5 0.375,0.125 0.5,0.5 0.125,0.375 0.5,0.5 Q 25,12 25,12.5 q 0,0.5 0.125,0.875 0.125,0.375 0.5,0.5 Q 26,14 26,14.5 q 0,0.5 0,1 0,0.5 0,1 0,0.5 0,1 0,0.5 -0.375,0.625 -0.375,0.125 -0.5,0.5 Q 25,19 25,19.5 q 0,0.5 -0.375,0.625 -0.375,0.125 -0.5,0.5 -0.125,0.375 -0.5,0.5 -0.375,0.125 -0.5,0.5 -0.125,0.375 -0.5,0.5 -0.375,0.125 -0.5,0.5 -0.125,0.375 -0.5,0.5 -0.375,0.125 -0.5,0.5 Q 21,24 20.5,24 q -0.5,0 -1,0 -0.5,0 -0.875,0.125 -0.375,0.125 -0.5,0.5 Q 18,25 17.5,25 q -0.5,0 -1,0 -0.5,0 -1,0 -0.5,0 -0.625,-0.375 -0.125,-0.375 -0.5,-0.5 Q 14,24 13.5,24 13,24 12.875,23.625 12.75,23.25 12.375,23.125 12,23 11.875,22.625 11.75,22.25 11.375,22.125 11,22 10.5,22 10,22 9.875,21.625 9.75,21.25 9.375,21.125 9,21 8.875,20.625 8.75,20.25 8.375,20.125 8,20 7.875,19.625 7.75,19.25 7.375,19.125 7,19 7,18.5 7,18 7,17.5 7,17 7,16.5 7,16 7,15.5 7,15 7.375,14.875 7.75,14.75 7.875,14.375 8,14 8,13.5 8,13 8,12.5 8,12 8,11.5 8,11 8.375,10.875 8.75,10.75 8.875,10.375 9,10 9.375,9.875 9.75,9.75 9.875,9.375 10,9 10.375,8.875 10.75,8.75 10.875,8.375 11,8 11.375,7.875 11.75,7.75 11.875,7.375 12,7 12.5,7 13,7 13.375,6.875 13.75,6.75 13.875,6.375 M 16.5,24 Q 17,24 17.375,23.875 17.75,23.75 18,23.5 18.25,23.25 18.625,23.125 L 19,23 h 0.5 0.5 l 0.375,-0.125 q 0.375,-0.125 0.5,-0.5 L 21,22 21.375,21.875 Q 21.75,21.75 22,21.5 22.25,21.25 22.5,21 22.75,20.75 23,20.5 23.25,20.25 23.5,20 23.75,19.75 23.875,19.375 L 24,19 24.125,18.625 Q 24.25,18.25 24.5,18 24.75,17.75 24.875,17.375 L 25,17 V 16.5 16 15.5 Q 25,15 24.875,14.625 24.75,14.25 24.5,14 24.25,13.75 24.125,13.375 L 24,13 23.875,12.625 q -0.125,-0.375 -0.5,-0.5 L 23,12 22.875,11.625 q -0.125,-0.375 -0.5,-0.5 L 22,11 h -0.5 q -0.5,0 -1,0 H 20 20.375 20.75 20.5 q -0.25,0 -0.46875,0.03125 L 19.8125,11.0625 19.921875,11.04687 20.03125,11.03124 19.890625,10.640615 Q 19.75,10.25 19.5,10 19.25,9.75 19,9.5 18.75,9.25 18.375,9.125 L 18,9 17.875,8.625 Q 17.75,8.25 17.375,8.125 17,8 16.5,8 H 16 16.375 16.75 16.5 Q 16.25,8 16.03125,8.03125 L 15.8125,8.0625 15.921875,8.046875 16.03125,8.03125 15.890625,7.640625 Q 15.75,7.25 15.375,7.125 15,7 14.625,7.125 14.25,7.25 14,7.5 13.75,7.75 13.375,7.875 13,8 12.625,8.125 12.25,8.25 12,8.5 11.75,8.75 11.5,9 11.25,9.25 11.125,9.65625 L 11,10.0625 H 11.09375 11.1875 11 q -0.1875,0 -0.375,0.0625 L 10.4375,10.1875 10.71875,10.09375 11,10 10.625,10.125 Q 10.25,10.25 10,10.5 9.75,10.75 9.5,11 9.25,11.25 9.125,11.625 L 9,12 v 0.5 Q 9,13 9,13.5 9,14 8.875,14.375 8.75,14.75 8.5,15 8.25,15.25 8.125,15.625 L 8,16 v 0.5 0.5 0.5 0.5 l 0.125,0.375 Q 8.25,18.75 8.5,19 q 0.25,0.25 0.5,0.5 0.25,0.25 0.5,0.5 0.25,0.25 0.5,0.5 0.25,0.25 0.625,0.375 Q 11,21 11.375,21.125 11.75,21.25 12,21.5 q 0.25,0.25 0.5,0.5 0.25,0.25 0.5,0.5 0.25,0.25 0.625,0.375 L 14,23 h 0.5 0.5 l 0.125,0.375 q 0.125,0.375 0.5,0.5 L 16,24 h 0.5 M 21.03125,21.90625 21,22 20.90625,22.28125 20.8125,22.5625 20.875,22.375 Q 20.9375,22.1875 21,22 l 0.0625,-0.1875 -0.03125,0.09375 M 15.125,23 H 15 14.625 14.25 14.5 q 0.25,0 0.5,0 h 0.25 -0.125"
       id="path8224"
       inkscape:connector-curvature="0" />
    <path
       style="fill:#833f24;fill-opacity:1"
       d="M 14,7.5 Q 14.25,7.25 14.625,7.125 15,7 15.375,7.125 15.75,7.25 15.890625,7.640625 L 16.03125,8.03125 16.140625,8.015625 16.25,8 16.03125,8.03125 Q 15.8125,8.0625 15.625,8.125 L 15.4375,8.1875 15.71875,8.09375 16,8 15.625,8.125 15.25,8.25 15.53125,8.15625 15.8125,8.0625 15.625,8.125 Q 15.4375,8.1875 15.28125,8.28125 L 15.125,8.375 15.203125,8.328125 15.28125,8.28125 15.015625,8.015625 Q 14.75,7.75 14.5,8 14.25,8.25 14,8.5 13.75,8.75 13.5,8.75 13.25,8.75 13.125,8.375 L 13,8 13.375,7.875 Q 13.75,7.75 14,7.5 M 13.28125,7.90625 13,8 12.90625,8.03125 12.8125,8.0625 13,8 q 0.1875,-0.0625 0.375,-0.125 l 0.1875,-0.0625 -0.28125,0.09375"
       id="path8226"
       inkscape:connector-curvature="0" />
    <path
       style="fill:#9b5729;fill-opacity:1"
       d="M 12,8.5 Q 12.25,8.25 12.625,8.125 L 13,8 13.125,8.375 13.25,8.75 13.15625,8.46875 13.0625,8.1875 13.125,8.375 q 0.0625,0.1875 0.15625,0.28125 L 13.375,8.75 13.328125,8.703125 13.28125,8.65625 13.015625,8.953125 Q 12.75,9.25 12.5,9.25 H 12.25 12.4375 12.625 12.5 q -0.125,0 -0.1875,0.0625 L 12.25,9.375 12.28125,9.34375 12.3125,9.3125 12.03125,9.03125 11.75,8.75 12,8.5 M 11.9375,8.5625 11.75,8.75 11.6875,8.8125 11.625,8.875 11.75,8.75 Q 11.875,8.625 12,8.5 L 12.125,8.375 11.9375,8.5625 M 13.09375,7.96875 13,8 12.71875,8.09375 12.4375,8.1875 12.625,8.125 Q 12.8125,8.0625 13,8 l 0.1875,-0.0625 -0.09375,0.03125"
       id="path8228"
       inkscape:connector-curvature="0" />
    <path
       style="fill:#a77048;fill-opacity:1"
       d="M 14,8.5 Q 14.25,8.25 14.5,8 14.75,7.75 15.015625,8.015625 L 15.28125,8.28125 15.359375,8.234375 15.4375,8.1875 15.28125,8.28125 Q 15.125,8.375 15,8.5 L 14.875,8.625 15.0625,8.4375 15.25,8.25 15,8.5 Q 14.75,8.75 14.5,9 L 14.25,9.25 14.4375,9.0625 14.625,8.875 14.5,9 Q 14.375,9.125 14.3125,9.25 L 14.25,9.375 14.28125,9.3125 14.3125,9.25 14.03125,8.96875 13.75,8.6875 13.6875,8.71875 13.625,8.75 13.75,8.6875 Q 13.875,8.625 14,8.5 L 14.125,8.375 13.9375,8.5625 13.75,8.75 14,8.5"
       id="path8230"
       inkscape:connector-curvature="0" />
    <path
       style="fill:#76412d;fill-opacity:1"
       d="M 15,8.5 Q 15.25,8.25 15.625,8.125 L 16,8 16.125,8.375 16.25,8.75 16.15625,8.46875 16.0625,8.1875 16.125,8.375 q 0.0625,0.1875 0.1875,0.3125 l 0.125,0.125 L 16.375,8.75 16.3125,8.6875 16,9 15.6875,9.3125 15.71875,9.34375 15.75,9.375 15.6875,9.3125 Q 15.625,9.25 15.5,9.25 H 15.375 15.5625 15.75 15.5 15.25 15.4375 15.625 15.5 q -0.125,0 -0.1875,0.0625 L 15.25,9.375 15.28125,9.34375 15.3125,9.3125 15.03125,9.03125 14.75,8.75 15,8.5 M 14.9375,8.5625 14.75,8.75 14.6875,8.8125 14.625,8.875 14.75,8.75 Q 14.875,8.625 15,8.5 l 0.125,-0.125 -0.1875,0.1875"
       id="path8232"
       inkscape:connector-curvature="0" />
    <path
       style="fill:#693725;fill-opacity:1"
       d="M 16.125,8.375 16,8 H 16.5 17 16.625 16.25 16.5 q 0.25,0 0.46875,0.03125 L 17.1875,8.0625 17.078125,8.046875 16.96875,8.03125 16.984375,8.515625 17,9 16.625,8.875 q -0.375,-0.125 -0.5,-0.5"
       id="path8234"
       inkscape:connector-curvature="0" />
    <path
       style="fill:#4c2718;fill-opacity:1"
       d="M 17,8.5 16.96875,8.03125 16.859375,8.015625 16.75,8 16.96875,8.03125 Q 17.1875,8.0625 17.375,8.125 L 17.5625,8.1875 17.28125,8.09375 17,8 17.375,8.125 q 0.375,0.125 0.5,0.5 L 18,9 H 17.5 17 17.375 17.75 17.5 Q 17.25,9 17.03125,8.96875 L 16.8125,8.9375 16.921875,8.953125 17.03125,8.96875 17,8.5"
       id="path8236"
       inkscape:connector-curvature="0" />
    <path
       style="fill:#a76331;fill-opacity:1"
       d="M 11.125,9.65625 Q 11.25,9.25 11.5,9 L 11.75,8.75 12.03125,9.03125 12.3125,9.3125 12.34375,9.28125 12.375,9.25 12.3125,9.3125 Q 12.25,9.375 12.25,9.5 V 9.625 9.4375 9.25 9.5 9.75 9.5625 9.375 9.5 q 0,0.125 0.0625,0.1875 L 12.375,9.75 12.34375,9.71875 12.3125,9.6875 12,10 l -0.3125,0.3125 0.0625,0.0625 0.0625,0.0625 -0.125,-0.125 Q 11.5625,10.1875 11.375,10.125 L 11.1875,10.0625 11.46875,10.15625 11.75,10.25 11.375,10.125 11,10 11.28125,10.09375 11.5625,10.1875 11.375,10.125 Q 11.1875,10.0625 11,10.0625 H 10.8125 10.90625 11 L 11.125,9.65625 M 11.8125,8.6875 11.75,8.75 11.5625,8.9375 11.375,9.125 11.5,9 q 0.125,-0.125 0.25,-0.25 l 0.125,-0.125 -0.0625,0.0625"
       id="path8238"
       inkscape:connector-curvature="0" />
    <path
       style="fill:#9b633d;fill-opacity:1"
       d="m 12.25,9.5 q 0,-0.25 0.25,-0.25 0.25,0 0.515625,-0.296875 L 13.28125,8.65625 13.234375,8.609375 13.1875,8.5625 13.28125,8.65625 Q 13.375,8.75 13.5,8.75 H 13.625 13.4375 13.25 13.5 13.75 13.5625 13.375 13.5 q 0.125,0 0.25,-0.0625 L 13.875,8.625 13.8125,8.65625 13.75,8.6875 14.03125,8.96875 14.3125,9.25 14.34375,9.1875 14.375,9.125 14.3125,9.25 Q 14.25,9.375 14.25,9.5 V 9.625 9.4375 9.25 9.5 q 0,0.25 -0.265625,0.546875 l -0.265625,0.296875 0.04687,0.04687 0.04687,0.04687 -0.09375,-0.09375 Q 13.625,10.25 13.5,10.25 H 13.375 13.5625 13.75 13.5 13.25 13.4375 13.625 13.5 q -0.125,0 -0.1875,0.0625 L 13.25,10.375 13.28125,10.34375 13.3125,10.3125 13.03125,10.03125 Q 12.75,9.75 12.5,9.75 12.25,9.75 12.25,9.5"
       id="path8240"
       inkscape:connector-curvature="0" />
    <path
       style="fill:#76351d;fill-opacity:1"
       d="M 14.25,9.5 Q 14.25,9.25 14.5,9 L 14.75,8.75 15.03125,9.03125 15.3125,9.3125 15.34375,9.28125 15.375,9.25 15.3125,9.3125 Q 15.25,9.375 15.25,9.5 V 9.625 9.4375 9.25 9.5 q 0,0.25 0.25,0.25 H 15.75 15.5625 15.375 15.5 q 0.125,0 0.1875,-0.0625 L 15.75,9.625 15.71875,9.65625 15.6875,9.6875 15.96875,9.96875 Q 16.25,10.25 16.625,10.125 17,10 17,9.5 V 9 H 17.5 18 L 18.125,9.375 18.25,9.75 18.15625,9.46875 18.0625,9.1875 18.125,9.375 q 0.0625,0.1875 0.15625,0.34375 L 18.375,9.875 18.328125,9.796875 18.28125,9.71875 18.015625,9.984375 Q 17.75,10.25 17.75,10.5 q 0,0.25 -0.25,0.25 -0.25,0 -0.5,0.28125 L 16.75,11.3125 16.8125,11.34375 16.875,11.375 16.75,11.3125 Q 16.625,11.25 16.5,11.25 H 16.375 16.5625 16.75 16.5 q -0.25,0 -0.25,0.25 V 11.75 11.5625 11.375 11.5 q 0,0.125 0.0625,0.25 L 16.375,11.875 16.34375,11.8125 16.3125,11.75 16.015625,12.015625 15.71875,12.28125 15.796875,12.328125 15.875,12.375 15.71875,12.28125 Q 15.5625,12.1875 15.375,12.125 L 15.1875,12.0625 15.46875,12.15625 15.75,12.25 15.375,12.125 15,12 V 11.5 Q 15,11 14.5,11 H 14 L 13.875,10.625 13.75,10.25 13.84375,10.53125 13.9375,10.8125 13.875,10.625 Q 13.8125,10.4375 13.71875,10.34375 L 13.625,10.25 l 0.04687,0.04687 0.04687,0.04687 0.265625,-0.296875 Q 14.25,9.75 14.25,9.5 M 14.8125,8.6875 14.75,8.75 14.5625,8.9375 14.375,9.125 14.5,9 q 0.125,-0.125 0.25,-0.25 l 0.125,-0.125 -0.0625,0.0625"
       id="path8242"
       inkscape:connector-curvature="0" />
    <path
       style="fill:#9b5729;fill-opacity:1"
       d="m 15.25,9.5 q 0,-0.25 0.25,-0.25 0.25,0 0.25,0.25 0,0.25 -0.25,0.25 -0.25,0 -0.25,-0.25"
       id="path8244"
       inkscape:connector-curvature="0" />
    <path
       style="fill:#692c17;fill-opacity:1"
       d="M 15.75,9.5 V 9.25 9.4375 9.625 9.5 q 0,-0.125 -0.0625,-0.1875 L 15.625,9.25 15.65625,9.28125 15.6875,9.3125 16,9 16.3125,8.6875 16.25,8.625 16.1875,8.5625 l 0.125,0.125 q 0.125,0.125 0.3125,0.1875 L 16.8125,8.9375 16.53125,8.84375 16.25,8.75 16.625,8.875 17,9 V 9.5 Q 17,10 16.625,10.125 16.25,10.25 15.96875,9.96875 L 15.6875,9.6875 15.65625,9.71875 15.625,9.75 15.6875,9.6875 Q 15.75,9.625 15.75,9.5 V 9.375 9.5625 9.75 9.5"
       id="path8246"
       inkscape:connector-curvature="0" />
    <path
       style="fill:#582511;fill-opacity:1"
       d="M 18.125,9.375 18,9 18.375,9.125 Q 18.75,9.25 19,9.5 L 19.25,9.75 18.96875,10 18.6875,10.25 18.71875,10.3125 18.75,10.375 18.6875,10.25 Q 18.625,10.125 18.5,10 L 18.375,9.875 18.5625,10.0625 18.75,10.25 18.5,10 Q 18.25,9.75 18.125,9.375 M 19.3125,9.8125 19.25,9.75 19.0625,9.5625 18.875,9.375 19,9.5 q 0.125,0.125 0.25,0.25 l 0.125,0.125 -0.0625,-0.0625"
       id="path8248"
       inkscape:connector-curvature="0" />
    <path
       style="fill:#834c36;fill-opacity:1"
       d="m 10,10.5 q 0.25,-0.25 0.625,-0.375 0.375,-0.125 0.75,0 0.375,0.125 0.5,0.5 L 12,11 11.625,10.875 Q 11.25,10.75 10.984375,11.046875 l -0.265625,0.296875 0.04687,0.04687 0.04687,0.04687 -0.09375,-0.09375 Q 10.625,11.25 10.5,11.25 H 10.375 10.5625 10.75 10.5 q -0.25,0 -0.375,0.375 L 10,12 H 9.5 9 L 9.125,11.625 Q 9.25,11.25 9.5,11 9.75,10.75 10,10.5"
       id="path8250"
       inkscape:connector-curvature="0" />
    <path
       style="fill:#8f4b22;fill-opacity:1"
       d="M 11.875,10.625 11.75,10.25 11.84375,10.53125 11.9375,10.8125 11.875,10.625 q -0.0625,-0.1875 -0.1875,-0.3125 l -0.125,-0.125 0.0625,0.0625 0.0625,0.0625 L 12,10 12.3125,9.6875 12.28125,9.65625 12.25,9.625 12.3125,9.6875 Q 12.375,9.75 12.5,9.75 H 12.625 12.4375 12.25 12.5 q 0.25,0 0.53125,0.28125 L 13.3125,10.3125 13.34375,10.28125 13.375,10.25 13.3125,10.3125 Q 13.25,10.375 13.25,10.5 V 10.625 10.4375 10.25 10.5 q 0,0.25 0.375,0.375 L 14,11 13.875,11.375 q -0.125,0.375 -0.5,0.5 L 13,12 12.875,11.625 q -0.125,-0.375 -0.5,-0.5 L 12,11 11.875,10.625"
       id="path8252"
       inkscape:connector-curvature="0" />
    <path
       style="fill:#a76331;fill-opacity:1"
       d="m 13.25,10.5 q 0,-0.25 0.25,-0.25 0.25,0 0.375,0.375 L 14,11 13.625,10.875 Q 13.25,10.75 13.25,10.5"
       id="path8254"
       inkscape:connector-curvature="0" />
    <path
       style="fill:#834c36;fill-opacity:1"
       d="m 17.75,10.5 q 0,-0.25 0.265625,-0.515625 L 18.28125,9.71875 18.234375,9.640625 18.1875,9.5625 18.28125,9.71875 Q 18.375,9.875 18.5,10 L 18.625,10.125 18.4375,9.9375 18.25,9.75 18.5,10 q 0.25,0.25 0.25,0.5 0,0.25 -0.25,0.5 L 18.25,11.25 17.96875,10.96875 17.6875,10.6875 17.65625,10.71875 17.625,10.75 17.6875,10.6875 Q 17.75,10.625 17.75,10.5 V 10.375 10.5625 10.75 10.5 M 18.1875,11.3125 18.25,11.25 18.4375,11.0625 18.625,10.875 18.5,11 q -0.125,0.125 -0.25,0.25 l -0.125,0.125 0.0625,-0.0625"
       id="path8256"
       inkscape:connector-curvature="0" />
    <path
       style="fill:#835645;fill-opacity:1"
       d="M 18.75,10.5 V 10.25 10.4375 10.625 10.5 q 0,-0.125 -0.0625,-0.25 L 18.625,10.125 18.65625,10.1875 18.6875,10.25 18.96875,10 19.25,9.75 19.5,10 q 0.25,0.25 0.390625,0.640625 L 20.03125,11.03125 20.140625,11.015625 20.25,11 20.03125,11.03125 Q 19.8125,11.0625 19.625,11.125 L 19.4375,11.1875 19.71875,11.09375 20,11 19.625,11.125 19.25,11.25 19.53125,11.15625 19.8125,11.0625 19.625,11.125 q -0.1875,0.0625 -0.3125,0.1875 l -0.125,0.125 L 19.25,11.375 19.3125,11.3125 19,11.03125 18.6875,10.75 18.65625,10.8125 18.625,10.875 18.6875,10.75 Q 18.75,10.625 18.75,10.5 V 10.375 10.5625 10.75 10.5 M 19.4375,9.9375 19.25,9.75 19.1875,9.6875 19.125,9.625 19.25,9.75 Q 19.375,9.875 19.5,10 l 0.125,0.125 -0.1875,-0.1875"
       id="path8258"
       inkscape:connector-curvature="0" />
    <path
       style="fill:#9b5729;fill-opacity:1"
       d="M 10.125,11.625 Q 10.25,11.25 10.5,11.25 q 0.25,0 0.375,0.375 L 11,12 H 10.5 10 l 0.125,-0.375 M 10.09375,11.71875 10,12 9.96875,12.09375 9.9375,12.1875 10,12 q 0.0625,-0.1875 0.125,-0.375 l 0.0625,-0.1875 -0.09375,0.28125"
       id="path8260"
       inkscape:connector-curvature="0" />
    <path
       style="fill:#76351d;fill-opacity:1"
       d="M 10.875,11.625 10.75,11.25 10.84375,11.53125 10.9375,11.8125 10.875,11.625 Q 10.8125,11.4375 10.71875,11.34375 L 10.625,11.25 l 0.04687,0.04687 0.04687,0.04687 0.265625,-0.296875 Q 11.25,10.75 11.625,10.875 L 12,11 11.875,11.375 q -0.125,0.375 -0.5,0.5 L 11,12 10.875,11.625"
       id="path8262"
       inkscape:connector-curvature="0" />
    <path
       style="fill:#9b633d;fill-opacity:1"
       d="M 11.875,11.375 12,11 l 0.375,0.125 q 0.375,0.125 0.5,0.5 L 13,12 12.625,12.125 12.25,12.25 12.53125,12.15625 12.8125,12.0625 12.625,12.125 q -0.1875,0.0625 -0.28125,0.15625 L 12.25,12.375 12.296875,12.328125 12.34375,12.28125 12.015625,11.984375 11.6875,11.6875 11.625,11.75 l -0.0625,0.0625 0.125,-0.125 q 0.125,-0.125 0.1875,-0.3125 L 11.9375,11.1875 11.84375,11.46875 11.75,11.75 11.875,11.375"
       id="path8264"
       inkscape:connector-curvature="0" />
    <path
       style="fill:#692c17;fill-opacity:1"
       d="M 13.875,11.375 14,11 h 0.5 Q 15,11 15,11.5 V 12 L 14.625,12.125 14.25,12.25 14.53125,12.15625 14.8125,12.0625 14.625,12.125 q -0.1875,0.0625 -0.28125,0.15625 L 14.25,12.375 14.296875,12.328125 14.34375,12.28125 14.015625,11.984375 13.6875,11.6875 13.625,11.75 l -0.0625,0.0625 0.125,-0.125 q 0.125,-0.125 0.1875,-0.3125 L 13.9375,11.1875 13.84375,11.46875 13.75,11.75 13.875,11.375"
       id="path8266"
       inkscape:connector-curvature="0" />
    <path
       style="fill:#582f1e;fill-opacity:1"
       d="m 16.25,11.5 q 0,-0.25 0.25,-0.25 0.25,0 0.5,0.25 L 17.25,11.75 17.0625,11.5625 16.875,11.375 17,11.5 q 0.125,0.125 0.25,0.1875 L 17.375,11.75 17.3125,11.71875 17.25,11.6875 17,11.96875 16.75,12.25 16.5,12 Q 16.25,11.75 16.25,11.5 M 16.5625,12.0625 16.75,12.25 16.8125,12.3125 16.875,12.375 16.75,12.25 Q 16.625,12.125 16.5,12 l -0.125,-0.125 0.1875,0.1875"
       id="path8268"
       inkscape:connector-curvature="0" />
    <path
       style="fill:#76412d;fill-opacity:1"
       d="M 17,11.5 16.75,11.25 16.9375,11.4375 17.125,11.625 17,11.5 Q 16.875,11.375 16.75,11.3125 L 16.625,11.25 16.6875,11.28125 16.75,11.3125 17,11.03125 Q 17.25,10.75 17.5,10.75 H 17.75 17.5625 17.375 17.5 q 0.125,0 0.1875,-0.0625 L 17.75,10.625 17.71875,10.65625 17.6875,10.6875 17.96875,10.96875 18.25,11.25 18,11.5 q -0.25,0.25 -0.5,0.25 -0.25,0 -0.5,-0.25 M 18.0625,11.4375 18.25,11.25 18.3125,11.1875 18.375,11.125 18.25,11.25 Q 18.125,11.375 18,11.5 l -0.125,0.125 0.1875,-0.1875"
       id="path8270"
       inkscape:connector-curvature="0" />
    <path
       style="fill:#582f1e;fill-opacity:1"
       d="M 18,11.5 Q 18.25,11.25 18.5,11 L 18.75,10.75 18.5625,10.9375 18.375,11.125 18.5,11 q 0.125,-0.125 0.1875,-0.25 L 18.75,10.625 18.71875,10.6875 18.6875,10.75 19,11.03125 19.3125,11.3125 19.375,11.25 l 0.0625,-0.0625 -0.125,0.125 q -0.125,0.125 -0.1875,0.3125 L 19.0625,11.8125 19.15625,11.53125 19.25,11.25 19.125,11.625 19,12 18.625,12.125 18.25,12.25 18.53125,12.15625 18.8125,12.0625 18.625,12.125 q -0.1875,0.0625 -0.34375,0.15625 L 18.125,12.375 18.203125,12.328125 18.28125,12.28125 18.015625,11.984375 17.75,11.6875 17.6875,11.71875 17.625,11.75 17.75,11.6875 Q 17.875,11.625 18,11.5 L 18.125,11.375 17.9375,11.5625 17.75,11.75 18,11.5"
       id="path8272"
       inkscape:connector-curvature="0" />
    <path
       style="fill:#833f24;fill-opacity:1"
       d="m 19.125,11.625 q 0.125,-0.375 0.5,-0.5 Q 20,11 20.5,11 H 21 l -0.125,0.375 Q 20.75,11.75 20.5,12 20.25,12.25 20,12.5 19.75,12.75 19.375,12.875 L 19,13 V 12.5 12 l 0.125,-0.375 m 2,-0.625 H 21 20.625 20.25 20.5 q 0.25,0 0.5,0 h 0.25 -0.125"
       id="path8274"
       inkscape:connector-curvature="0" />
    <path
       style="fill:#835645;fill-opacity:1"
       d="M 20.875,11.375 21,11 h 0.5 0.5 l -0.125,0.375 q -0.125,0.375 0.140625,0.640625 l 0.265625,0.265625 0.07813,-0.04687 0.07813,-0.04687 -0.15625,0.09375 Q 22.125,12.375 22,12.5 L 21.875,12.625 22.0625,12.4375 22.25,12.25 22,12.5 q -0.25,0.25 -0.625,0.375 L 21,13 21.125,12.625 Q 21.25,12.25 20.984375,11.984375 L 20.71875,11.71875 20.671875,11.796875 20.625,11.875 20.71875,11.71875 Q 20.8125,11.5625 20.875,11.375 L 20.9375,11.1875 20.84375,11.46875 20.75,11.75 20.875,11.375 M 21.375,11 H 21 20.875 20.75 21 q 0.25,0 0.5,0 h 0.25 -0.375"
       id="path8276"
       inkscape:connector-curvature="0" />
    <path
       style="fill:#583729;fill-opacity:1"
       d="M 21.875,11.375 22,11 l 0.375,0.125 q 0.375,0.125 0.5,0.5 L 23,12 22.625,12.125 22.25,12.25 22.53125,12.15625 22.8125,12.0625 22.625,12.125 q -0.1875,0.0625 -0.34375,0.15625 L 22.125,12.375 22.20313,12.32813 22.28126,12.28126 22.015635,12.015635 Q 21.75,11.75 21.875,11.375"
       id="path8278"
       inkscape:connector-curvature="0" />
    <path
       style="fill:#76351d;fill-opacity:1"
       d="M 9,12.5 V 12 H 9.5 10 l -0.125,0.375 q -0.125,0.375 -0.5,0.5 L 9,13 v -0.5 m 0,0.125 V 13 13.125 13.25 13 q 0,-0.25 0,-0.5 v -0.25 0.375"
       id="path8280"
       inkscape:connector-curvature="0" />
    <path
       style="fill:#583729;fill-opacity:1"
       d="M 9.875,12.375 10,12 h 0.5 0.5 l 0.125,0.375 0.125,0.375 -0.09375,-0.28125 -0.09375,-0.28125 0.0625,0.1875 q 0.0625,0.1875 0.15625,0.34375 L 11.375,12.875 11.328125,12.796875 11.28125,12.71875 10.984375,13.015625 10.6875,13.3125 10.71875,13.34375 10.75,13.375 10.6875,13.3125 Q 10.625,13.25 10.5,13.25 H 10.375 10.5625 10.75 10.5 10.25 10.4375 10.625 10.5 q -0.125,0 -0.21875,0.09375 L 10.1875,13.4375 10.23437,13.39063 10.28124,13.34376 9.984375,13.015625 9.6875,12.6875 9.625,12.75 9.5625,12.8125 9.6875,12.6875 Q 9.8125,12.5625 9.875,12.375 L 9.9375,12.1875 9.84375,12.46875 9.75,12.75 9.875,12.375 M 10.03125,11.90625 10,12 9.90625,12.28125 9.8125,12.5625 9.875,12.375 Q 9.9375,12.1875 10,12 l 0.0625,-0.1875 -0.03125,0.09375"
       id="path8282"
       inkscape:connector-curvature="0" />
    <path
       style="fill:#a77a5a;fill-opacity:1"
       d="M 11.125,12.375 11,12 11.375,11.875 11.75,11.75 11.46875,11.84375 11.1875,11.9375 11.375,11.875 q 0.1875,-0.0625 0.3125,-0.1875 l 0.125,-0.125 -0.0625,0.0625 -0.0625,0.0625 0.328125,0.296875 0.328125,0.296875 0.04687,-0.04687 0.04687,-0.04687 -0.09375,0.09375 Q 12.25,12.375 12.25,12.5 V 12.625 12.4375 12.25 12.5 q 0,0.25 -0.25,0.5 L 11.75,13.25 11.5,13 Q 11.25,12.75 11.125,12.375 M 11.5625,13.0625 11.75,13.25 11.8125,13.3125 11.875,13.375 11.75,13.25 Q 11.625,13.125 11.5,13 l -0.125,-0.125 0.1875,0.1875"
       id="path8284"
       inkscape:connector-curvature="0" />
    <path
       style="fill:#9b6d4e;fill-opacity:1"
       d="m 12.25,12.5 q 0,-0.25 0.375,-0.375 L 13,12 13.125,12.375 Q 13.25,12.75 13.5,13 13.75,13.25 14,13.5 L 14.25,13.75 14.0625,13.5625 13.875,13.375 14,13.5 q 0.125,0.125 0.28125,0.21875 l 0.15625,0.09375 -0.07813,-0.04687 -0.07813,-0.04687 -0.3125,0.28125 -0.3125,0.28125 0.04687,0.04687 L 13.75,14.375 13.65625,14.28125 Q 13.5625,14.1875 13.375,14.125 L 13.1875,14.0625 13.46875,14.15625 13.75,14.25 13.375,14.125 Q 13,14 12.625,13.875 12.25,13.75 12,13.5 L 11.75,13.25 12,13 q 0.25,-0.25 0.25,-0.5 M 11.6875,13.1875 11.75,13.25 11.9375,13.4375 12.125,13.625 12,13.5 q -0.125,-0.125 -0.25,-0.25 l -0.125,-0.125 0.0625,0.0625"
       id="path8286"
       inkscape:connector-curvature="0" />
    <path
       style="fill:#693725;fill-opacity:1"
       d="M 13.125,12.375 13,12 13.375,11.875 13.75,11.75 13.46875,11.84375 13.1875,11.9375 13.375,11.875 q 0.1875,-0.0625 0.3125,-0.1875 l 0.125,-0.125 -0.0625,0.0625 -0.0625,0.0625 0.328125,0.296875 0.328125,0.296875 0.04687,-0.04687 0.04687,-0.04687 -0.09375,0.09375 Q 14.25,12.375 14.25,12.5 V 12.625 12.4375 12.25 12.5 12.75 12.5625 12.375 12.5 q 0,0.125 0.09375,0.21875 L 14.4375,12.8125 14.39063,12.76563 14.34376,12.71876 14.046885,12.984385 13.75,13.25 13.5,13 Q 13.25,12.75 13.125,12.375 M 13.5625,13.0625 13.75,13.25 13.8125,13.3125 13.875,13.375 13.75,13.25 Q 13.625,13.125 13.5,13 l -0.125,-0.125 0.1875,0.1875 M 12.96875,11.90625 13,12 13.09375,12.28125 13.1875,12.5625 13.125,12.375 Q 13.0625,12.1875 13,12 l -0.0625,-0.1875 0.03125,0.09375"
       id="path8288"
       inkscape:connector-curvature="0" />
    <path
       style="fill:#834c36;fill-opacity:1"
       d="m 14.25,12.5 q 0,-0.25 0.375,-0.375 L 15,12 V 12.5 13 L 14.625,12.875 Q 14.25,12.75 14.25,12.5"
       id="path8290"
       inkscape:connector-curvature="0" />
    <path
       style="fill:#692c17;fill-opacity:1"
       d="M 15,12.5 V 12 l 0.375,0.125 Q 15.75,12.25 16,12.5 l 0.25,0.25 -0.28125,0.28125 -0.28125,0.28125 0.0625,0.0625 0.0625,0.0625 -0.125,-0.125 Q 15.5625,13.1875 15.375,13.125 L 15.1875,13.0625 15.46875,13.15625 15.75,13.25 15.375,13.125 15,13 V 12.5 M 16.3125,12.8125 16.25,12.75 16.0625,12.5625 15.875,12.375 16,12.5 q 0.125,0.125 0.25,0.25 l 0.125,0.125 -0.0625,-0.0625"
       id="path8292"
       inkscape:connector-curvature="0" />
    <path
       style="fill:#834c36;fill-opacity:1"
       d="M 16,12.5 15.75,12.25 15.9375,12.4375 16.125,12.625 16,12.5 q -0.125,-0.125 -0.28125,-0.21875 l -0.15625,-0.09375 0.07813,0.04687 0.07813,0.04687 0.296875,-0.265625 L 16.3125,11.75 16.28125,11.6875 16.25,11.625 16.3125,11.75 Q 16.375,11.875 16.5,12 L 16.625,12.125 16.4375,11.9375 16.25,11.75 16.5,12 q 0.25,0.25 0.5,0.5 L 17.25,12.75 17.0625,12.5625 16.875,12.375 17,12.5 q 0.125,0.125 0.25,0.1875 L 17.375,12.75 17.3125,12.71875 17.25,12.6875 17,12.96875 Q 16.75,13.25 16.5,13 16.25,12.75 16,12.5"
       id="path8294"
       inkscape:connector-curvature="0" />
    <path
       style="fill:#4c2718;fill-opacity:1"
       d="M 17,12.5 16.75,12.25 17,11.96875 17.25,11.6875 17.1875,11.65625 17.125,11.625 17.25,11.6875 Q 17.375,11.75 17.5,11.75 H 17.625 17.4375 17.25 17.5 17.75 17.5625 17.375 17.5 q 0.125,0 0.25,-0.0625 l 0.125,-0.0625 -0.0625,0.03125 -0.0625,0.03125 0.265625,0.296875 0.265625,0.296875 0.07813,-0.04687 0.07813,-0.04687 -0.15625,0.09375 Q 18.125,12.375 18,12.5 L 17.875,12.625 18.0625,12.4375 18.25,12.25 18,12.5 q -0.25,0.25 -0.5,0.25 -0.25,0 -0.5,-0.25 M 16.6875,12.1875 16.75,12.25 16.9375,12.4375 17.125,12.625 17,12.5 q -0.125,-0.125 -0.25,-0.25 l -0.125,-0.125 0.0625,0.0625"
       id="path8296"
       inkscape:connector-curvature="0" />
    <path
       style="fill:#582511;fill-opacity:1"
       d="m 18,12.5 q 0.25,-0.25 0.625,-0.375 L 19,12 v 0.5 0.5 l -0.375,0.125 Q 18.25,13.25 18,13.5 17.75,13.75 17.375,13.875 L 17,14 H 16.5 16 L 15.875,13.625 15.75,13.25 15.84375,13.53125 15.9375,13.8125 15.875,13.625 q -0.0625,-0.1875 -0.1875,-0.3125 l -0.125,-0.125 0.0625,0.0625 0.0625,0.0625 0.28125,-0.28125 L 16.25,12.75 16.5,13 q 0.25,0.25 0.5,-0.03125 L 17.25,12.6875 17.1875,12.65625 17.125,12.625 17.25,12.6875 Q 17.375,12.75 17.5,12.75 H 17.625 17.4375 17.25 17.5 q 0.25,0 0.5,-0.25 M 16.4375,12.9375 16.25,12.75 16.1875,12.6875 16.125,12.625 16.25,12.75 q 0.125,0.125 0.25,0.25 l 0.125,0.125 -0.1875,-0.1875"
       id="path8298"
       inkscape:connector-curvature="0" />
    <path
       style="fill:#a77a5a;fill-opacity:1"
       d="M 20,12.5 Q 20.25,12.25 20.5,12 L 20.75,11.75 20.5625,11.9375 20.375,12.125 20.5,12 q 0.125,-0.125 0.21875,-0.28125 l 0.09375,-0.15625 -0.04687,0.07813 -0.04687,0.07813 0.265625,0.265625 Q 21.25,12.25 21.125,12.625 L 21,13 20.625,13.125 20.25,13.25 20.53125,13.15625 20.8125,13.0625 20.625,13.125 q -0.1875,0.0625 -0.34375,0.15625 L 20.125,13.375 20.203125,13.328125 20.28125,13.28125 20,13 l -0.28125,-0.28125 -0.07813,0.04687 -0.07813,0.04687 0.15625,-0.09375 Q 19.875,12.625 20,12.5 L 20.125,12.375 19.9375,12.5625 19.75,12.75 20,12.5"
       id="path8300"
       inkscape:connector-curvature="0" />
    <path
       style="fill:#76351d;fill-opacity:1"
       d="m 22,12.5 q 0.25,-0.25 0.625,-0.375 L 23,12 22.875,12.375 Q 22.75,12.75 22.5,13 L 22.25,13.25 22.4375,13.0625 22.625,12.875 22.5,13 q -0.125,0.125 -0.21875,0.28125 L 22.1875,13.4375 22.23437,13.35937 22.28124,13.28124 22,13 l -0.28125,-0.28125 -0.07813,0.04687 -0.07813,0.04687 0.15625,-0.09375 Q 21.875,12.625 22,12.5 L 22.125,12.375 21.9375,12.5625 21.75,12.75 22,12.5"
       id="path8302"
       inkscape:connector-curvature="0" />
    <path
       style="fill:#582511;fill-opacity:1"
       d="M 22.875,12.375 23,12 l 0.375,0.125 q 0.375,0.125 0.5,0.5 L 24,13 23.625,13.125 Q 23.25,13.25 22.984375,12.984375 L 22.71875,12.71875 22.671875,12.796875 22.625,12.875 22.71875,12.71875 Q 22.8125,12.5625 22.875,12.375 L 22.9375,12.1875 22.84375,12.46875 22.75,12.75 22.875,12.375"
       id="path8304"
       inkscape:connector-curvature="0" />
    <path
       style="fill:#4c2718;fill-opacity:1"
       d="M 9,13.5 V 13 L 9.375,12.875 9.75,12.75 9.46875,12.84375 9.1875,12.9375 9.375,12.875 Q 9.5625,12.8125 9.6875,12.6875 L 9.8125,12.5625 9.75,12.625 9.6875,12.6875 9.984375,13.015625 10.28125,13.34375 10.32812,13.29688 10.375,13.25 10.28125,13.34375 Q 10.1875,13.4375 10.125,13.625 L 10.0625,13.8125 10.15625,13.53125 10.25,13.25 10.125,13.625 10,14 10.125,14.375 10.25,14.75 10.15625,14.46875 10.0625,14.1875 10.125,14.375 q 0.0625,0.1875 0.15625,0.34375 L 10.375,14.875 10.328125,14.796875 10.28125,14.71875 10,15.03125 9.71875,15.34375 9.765625,15.390625 9.8125,15.4375 9.71875,15.34375 Q 9.625,15.25 9.5,15.25 H 9.375 9.5625 9.75 9.5 9.25 9.4375 9.625 9.5 q -0.125,0 -0.25,0.0625 L 9.125,15.375 9.1875,15.34375 9.25,15.3125 8.984375,15.015625 8.71875,14.71875 8.671875,14.796875 8.625,14.875 8.71875,14.71875 Q 8.8125,14.5625 8.875,14.375 L 8.9375,14.1875 8.84375,14.46875 8.75,14.75 8.875,14.375 Q 9,14 9,13.5 M 9,12.875 V 13 13.375 13.75 13.5 Q 9,13.25 9,13 v -0.25 0.125"
       id="path8306"
       inkscape:connector-curvature="0" />
    <path
       style="fill:#4c1e0d;fill-opacity:1"
       d="M 10.125,13.625 Q 10.25,13.25 10.5,13.25 q 0.25,0 0.25,0.25 0,0.25 -0.375,0.375 L 10,14 10.125,13.625"
       id="path8308"
       inkscape:connector-curvature="0" />
    <path
       style="fill:#4c2718;fill-opacity:1"
       d="M 10.75,13.5 V 13.25 13.4375 13.625 13.5 q 0,-0.125 -0.0625,-0.1875 L 10.625,13.25 l 0.03125,0.03125 0.03125,0.03125 0.296875,-0.296875 0.296875,-0.296875 -0.04687,-0.07813 -0.04687,-0.07813 0.09375,0.15625 Q 11.375,12.875 11.5,13 L 11.625,13.125 11.4375,12.9375 11.25,12.75 11.5,13 q 0.25,0.25 0.5,0.5 L 12.25,13.75 12.0625,13.5625 11.875,13.375 12,13.5 q 0.125,0.125 0.28125,0.21875 L 12.4375,13.8125 12.35937,13.76563 12.28124,13.71876 11.984365,14.015635 11.6875,14.3125 11.71875,14.34375 11.75,14.375 11.6875,14.3125 Q 11.625,14.25 11.5,14.25 H 11.375 11.5625 11.75 11.5 11.25 11.4375 11.625 11.5 q -0.125,0 -0.1875,0.0625 L 11.25,14.375 11.28125,14.34375 11.3125,14.3125 10.984375,14.015625 10.65625,13.71875 l -0.04687,0.04687 -0.04687,0.04687 0.09375,-0.09375 Q 10.75,13.625 10.75,13.5 V 13.375 13.5625 13.75 13.5"
       id="path8310"
       inkscape:connector-curvature="0" />
    <path
       style="fill:#582f1e;fill-opacity:1"
       d="M 14,13.5 13.75,13.25 14.046875,12.984375 14.34375,12.71875 14.296875,12.671875 14.25,12.625 14.34375,12.71875 Q 14.4375,12.8125 14.625,12.875 L 14.8125,12.9375 14.53125,12.84375 14.25,12.75 14.625,12.875 15,13 l 0.375,0.125 q 0.375,0.125 0.5,0.5 L 16,14 H 15.5 15 L 14.625,13.875 Q 14.25,13.75 14,13.5 M 13.6875,13.1875 13.75,13.25 13.9375,13.4375 14.125,13.625 14,13.5 q -0.125,-0.125 -0.25,-0.25 l -0.125,-0.125 0.0625,0.0625"
       id="path8312"
       inkscape:connector-curvature="0" />
    <path
       style="fill:#76412d;fill-opacity:1"
       d="m 18,13.5 q 0.25,-0.25 0.625,-0.375 L 19,13 V 13.5 14 L 18.625,14.125 18.25,14.25 18.53125,14.15625 18.8125,14.0625 18.625,14.125 q -0.1875,0.0625 -0.3125,0.1875 l -0.125,0.125 0.0625,-0.0625 0.0625,-0.0625 -0.296875,-0.296875 -0.296875,-0.296875 -0.07813,0.04687 -0.07813,0.04687 0.15625,-0.09375 Q 17.875,13.625 18,13.5 L 18.125,13.375 17.9375,13.5625 17.75,13.75 18,13.5"
       id="path8314"
       inkscape:connector-curvature="0" />
    <path
       style="fill:#a77048;fill-opacity:1"
       d="M 19,13.5 V 13 L 19.375,12.875 19.75,12.75 19.46875,12.84375 19.1875,12.9375 19.375,12.875 q 0.1875,-0.0625 0.34375,-0.15625 L 19.875,12.625 19.796875,12.671875 19.71875,12.71875 20,13 l 0.28125,0.28125 0.07813,-0.04687 0.07813,-0.04687 -0.15625,0.09375 Q 20.125,13.375 20,13.5 L 19.875,13.625 20.0625,13.4375 20.25,13.25 20,13.5 q -0.25,0.25 -0.625,0.375 L 19,14 v -0.5"
       id="path8316"
       inkscape:connector-curvature="0" />
    <path
       style="fill:#835645;fill-opacity:1"
       d="m 20,13.5 q 0.25,-0.25 0.625,-0.375 L 21,13 V 13.5 14 L 20.625,14.125 20.25,14.25 20.53125,14.15625 20.8125,14.0625 20.625,14.125 q -0.1875,0.0625 -0.3125,0.1875 l -0.125,0.125 0.0625,-0.0625 0.0625,-0.0625 -0.296875,-0.296875 -0.296875,-0.296875 -0.07813,0.04687 -0.07813,0.04687 0.15625,-0.09375 Q 19.875,13.625 20,13.5 L 20.125,13.375 19.9375,13.5625 19.75,13.75 20,13.5"
       id="path8318"
       inkscape:connector-curvature="0" />
    <path
       style="fill:#834c36;fill-opacity:1"
       d="M 21,13.5 V 13 L 21.375,12.875 21.75,12.75 21.46875,12.84375 21.1875,12.9375 21.375,12.875 q 0.1875,-0.0625 0.34375,-0.15625 L 21.875,12.625 21.796875,12.671875 21.71875,12.71875 22,13 22.28125,13.28125 22.32812,13.20312 22.375,13.125 22.28125,13.28125 Q 22.1875,13.4375 22.125,13.625 L 22.0625,13.8125 22.15625,13.53125 22.25,13.25 22.125,13.625 22,14 H 21.5 21 v -0.5"
       id="path8320"
       inkscape:connector-curvature="0" />
    <path
       style="fill:#4c1e0d;fill-opacity:1"
       d="M 22.125,13.625 Q 22.25,13.25 22.5,13 L 22.75,12.75 22.5625,12.9375 22.375,13.125 22.5,13 q 0.125,-0.125 0.21875,-0.28125 l 0.09375,-0.15625 -0.04687,0.07813 -0.04687,0.07813 0.265625,0.265625 Q 23.25,13.25 23.625,13.125 L 24,13 24.125,13.375 24.25,13.75 24.15625,13.46875 24.0625,13.1875 24.125,13.375 q 0.0625,0.1875 0.15625,0.34375 L 24.375,13.875 24.328125,13.796875 24.28125,13.71875 24,14 l -0.28125,0.28125 0.04687,0.07813 0.04687,0.07813 -0.09375,-0.15625 Q 23.625,14.125 23.5,14 L 23.375,13.875 23.5625,14.0625 23.75,14.25 23.5,14 q -0.25,-0.25 -0.546875,0.01563 l -0.296875,0.265625 0.04687,0.04687 L 22.75,14.375 22.65625,14.28125 Q 22.5625,14.1875 22.375,14.125 L 22.1875,14.0625 22.46875,14.15625 22.75,14.25 22.375,14.125 22,14 22.125,13.625"
       id="path8322"
       inkscape:connector-curvature="0" />
    <path
       style="fill:#582f1e;fill-opacity:1"
       d="M 10.125,14.375 10,14 10.375,13.875 10.75,13.75 10.46875,13.84375 10.1875,13.9375 10.375,13.875 q 0.1875,-0.0625 0.28125,-0.15625 L 10.75,13.625 10.70313,13.67187 10.65626,13.71874 10.984385,14.015615 11.3125,14.3125 11.34375,14.28125 11.375,14.25 11.3125,14.3125 Q 11.25,14.375 11.25,14.5 V 14.625 14.4375 14.25 14.5 14.75 14.5625 14.375 14.5 q 0,0.125 0.0625,0.1875 L 11.375,14.75 11.34375,14.71875 11.3125,14.6875 11.03125,14.96875 10.75,15.25 10.5,15 Q 10.25,14.75 10.125,14.375 M 10.5625,15.0625 10.75,15.25 10.8125,15.3125 10.875,15.375 10.75,15.25 Q 10.625,15.125 10.5,15 l -0.125,-0.125 0.1875,0.1875"
       id="path8324"
       inkscape:connector-curvature="0" />
    <path
       style="fill:#582511;fill-opacity:1"
       d="m 11.25,14.5 q 0,-0.25 0.25,-0.25 0.25,0 0.25,0.25 0,0.25 -0.25,0.25 -0.25,0 -0.25,-0.25"
       id="path8326"
       inkscape:connector-curvature="0" />
    <path
       style="fill:#582f1e;fill-opacity:1"
       d="M 11.75,14.5 V 14.25 14.4375 14.625 14.5 q 0,-0.125 -0.0625,-0.1875 L 11.625,14.25 11.65625,14.28125 11.6875,14.3125 11.984375,14.015625 12.28125,13.71875 12.203125,13.671875 12.125,13.625 12.28125,13.71875 Q 12.4375,13.8125 12.625,13.875 L 12.8125,13.9375 12.53125,13.84375 12.25,13.75 12.625,13.875 13,14 12.875,14.375 Q 12.75,14.75 12.5,15 L 12.25,15.25 12.4375,15.0625 12.625,14.875 12.5,15 q -0.125,0.125 -0.1875,0.25 L 12.25,15.375 12.28125,15.3125 12.3125,15.25 12,14.96875 11.6875,14.6875 11.65625,14.71875 11.625,14.75 11.6875,14.6875 Q 11.75,14.625 11.75,14.5 V 14.375 14.5625 14.75 14.5 M 13.09375,14.03125 13,14 12.71875,13.90625 12.4375,13.8125 12.625,13.875 Q 12.8125,13.9375 13,14 l 0.1875,0.0625 -0.09375,-0.03125"
       id="path8328"
       inkscape:connector-curvature="0" />
    <path
       style="fill:#76351d;fill-opacity:1"
       d="M 12.875,14.375 13,14 l 0.375,0.125 q 0.375,0.125 0.375,0.375 0,0.25 -0.25,0.5 -0.25,0.25 -0.5,0.5 -0.25,0.25 -0.5,0.25 -0.25,0 -0.25,-0.25 0,-0.25 0.25,-0.5 0.25,-0.25 0.375,-0.625 M 13.28125,14.09375 13,14 12.90625,13.96875 12.8125,13.9375 13,14 q 0.1875,0.0625 0.375,0.125 l 0.1875,0.0625 -0.28125,-0.09375"
       id="path8330"
       inkscape:connector-curvature="0" />
    <path
       style="fill:#835645;fill-opacity:1"
       d="M 13.75,14.5 V 14.25 14.4375 14.625 14.5 q 0,-0.125 -0.09375,-0.21875 L 13.5625,14.1875 13.60937,14.23437 13.65624,14.28124 13.96875,14 14.28125,13.71875 14.203125,13.671875 14.125,13.625 14.28125,13.71875 Q 14.4375,13.8125 14.625,13.875 L 14.8125,13.9375 14.53125,13.84375 14.25,13.75 14.625,13.875 15,14 V 14.5 15 L 14.625,15.125 14.25,15.25 14.53125,15.15625 14.8125,15.0625 14.625,15.125 q -0.1875,0.0625 -0.28125,0.15625 L 14.25,15.375 14.296875,15.328125 14.34375,15.28125 14.015625,15.015625 13.6875,14.75 13.65625,14.8125 13.625,14.875 13.6875,14.75 Q 13.75,14.625 13.75,14.5 V 14.375 14.5625 14.75 14.5"
       id="path8332"
       inkscape:connector-curvature="0" />
    <path
       style="fill:#582511;fill-opacity:1"
       d="M 15,14.5 V 14 H 15.5 16 V 14.5 15 H 15.5 15 v -0.5"
       id="path8334"
       inkscape:connector-curvature="0" />
    <path
       style="fill:#4c1e0d;fill-opacity:1"
       d="M 16,14.5 V 14 H 16.5 17 V 14.5 15 H 16.5 16 v -0.5"
       id="path8336"
       inkscape:connector-curvature="0" />
    <path
       style="fill:#834c36;fill-opacity:1"
       d="M 17,14.5 V 14 L 17.375,13.875 17.75,13.75 17.46875,13.84375 17.1875,13.9375 17.375,13.875 q 0.1875,-0.0625 0.34375,-0.15625 L 17.875,13.625 l -0.07813,0.04687 -0.07813,0.04687 0.296875,0.296875 0.296875,0.296875 0.0625,-0.0625 0.0625,-0.0625 -0.125,0.125 q -0.125,0.125 -0.1875,0.3125 L 18.0625,14.8125 18.15625,14.53125 18.25,14.25 18.125,14.625 18,15 H 17.5 17 v -0.5"
       id="path8338"
       inkscape:connector-curvature="0" />
    <path
       style="fill:#76351d;fill-opacity:1"
       d="m 18.125,14.625 q 0.125,-0.375 0.5,-0.5 L 19,14 18.875,14.375 q -0.125,0.375 -0.5,0.5 L 18,15 18.125,14.625"
       id="path8340"
       inkscape:connector-curvature="0" />
    <path
       style="fill:#a77a5a;fill-opacity:1"
       d="M 18.875,14.375 19,14 19.375,13.875 19.75,13.75 19.46875,13.84375 19.1875,13.9375 19.375,13.875 q 0.1875,-0.0625 0.34375,-0.15625 L 19.875,13.625 l -0.07813,0.04687 -0.07813,0.04687 0.296875,0.296875 0.296875,0.296875 0.0625,-0.0625 0.0625,-0.0625 -0.125,0.125 q -0.125,0.125 -0.1875,0.3125 L 20.0625,14.8125 20.15625,14.53125 20.25,14.25 20.125,14.625 20,15 19.625,15.125 19.25,15.25 19.53125,15.15625 19.8125,15.0625 19.625,15.125 q -0.1875,0.0625 -0.3125,0.1875 l -0.125,0.125 L 19.25,15.375 19.3125,15.3125 19,15 18.6875,14.6875 18.625,14.75 l -0.0625,0.0625 0.125,-0.125 q 0.125,-0.125 0.1875,-0.3125 L 18.9375,14.1875 18.84375,14.46875 18.75,14.75 18.875,14.375"
       id="path8342"
       inkscape:connector-curvature="0" />
    <path
       style="fill:#a76331;fill-opacity:1"
       d="m 20.125,14.625 q 0.125,-0.375 0.5,-0.5 L 21,14 20.71875,14.09375 20.4375,14.1875 20.625,14.125 q 0.1875,-0.0625 0.40625,-0.09375 L 21.25,14 21.140625,14.01563 21.03125,14.03126 20.890625,14.390635 Q 20.75,14.75 20.375,14.875 L 20,15 20.125,14.625 M 20.09375,14.71875 20,15 19.96875,15.09375 19.9375,15.1875 20,15 q 0.0625,-0.1875 0.125,-0.375 l 0.0625,-0.1875 -0.09375,0.28125"
       id="path8344"
       inkscape:connector-curvature="0" />
    <path
       style="fill:#32120d;fill-opacity:1"
       d="M 20.890625,14.390625 21.03125,14.03125 20.921875,14.046875 20.8125,14.0625 21.03125,14.03125 Q 21.25,14 21.5,14 H 21.75 21.375 21 21.5 22 l -0.125,0.375 Q 21.75,14.75 22,15 L 22.25,15.25 22,15.5 q -0.25,0.25 -0.625,0.375 L 21,16 21.125,15.625 Q 21.25,15.25 20.96875,14.96875 L 20.6875,14.6875 20.625,14.75 l -0.0625,0.0625 0.125,-0.125 q 0.125,-0.125 0.1875,-0.3125 L 20.9375,14.1875 20.84375,14.46875 20.75,14.75 20.890625,14.390625 M 22.0625,15.4375 22.25,15.25 22.3125,15.1875 22.375,15.125 22.25,15.25 Q 22.125,15.375 22,15.5 l -0.125,0.125 0.1875,-0.1875"
       id="path8346"
       inkscape:connector-curvature="0" />
    <path
       style="fill:#412013;fill-opacity:1"
       d="M 21.875,14.375 22,14 l 0.375,0.125 q 0.375,0.125 0.375,0.375 0,0.25 -0.25,0.5 L 22.25,15.25 22,15 Q 21.75,14.75 21.875,14.375 M 22.1875,15.3125 22.25,15.25 22.4375,15.0625 22.625,14.875 22.5,15 q -0.125,0.125 -0.25,0.25 l -0.125,0.125 0.0625,-0.0625"
       id="path8348"
       inkscape:connector-curvature="0" />
    <path
       style="fill:#582f1e;fill-opacity:1"
       d="M 22.75,14.5 V 14.25 14.4375 14.625 14.5 q 0,-0.125 -0.09375,-0.21875 l -0.09375,-0.09375 0.04687,0.04687 0.04687,0.04687 0.296875,-0.265625 Q 23.25,13.75 23.5,14 23.75,14.25 23.875,14.625 24,15 23.625,15.125 L 23.25,15.25 23.53125,15.15625 23.8125,15.0625 23.625,15.125 q -0.1875,0.0625 -0.3125,0.1875 l -0.125,0.125 L 23.25,15.375 23.3125,15.3125 23,15.03125 22.6875,14.75 22.65625,14.8125 22.625,14.875 22.6875,14.75 Q 22.75,14.625 22.75,14.5 V 14.375 14.5625 14.75 14.5"
       id="path8350"
       inkscape:connector-curvature="0" />
    <path
       style="fill:#3b0d07;fill-opacity:1"
       d="M 23.875,14.625 23.75,14.25 23.84375,14.53125 23.9375,14.8125 23.875,14.625 Q 23.8125,14.4375 23.71875,14.28125 L 23.625,14.125 23.67187,14.20313 23.71874,14.28126 24,14 l 0.28125,-0.28125 -0.04687,-0.07813 -0.04687,-0.07813 0.09375,0.15625 Q 24.375,13.875 24.5,14 L 24.625,14.125 24.4375,13.9375 24.25,13.75 24.5,14 q 0.25,0.25 0.375,0.625 Q 25,15 25,15.5 V 16 H 24.5 Q 24,16 24,16.5 24,17 24.5,17 H 25 l -0.125,0.375 Q 24.75,17.75 24.5,18 L 24.25,18.25 24.4375,18.0625 24.625,17.875 24.5,18 q -0.125,0.125 -0.21875,0.28125 l -0.09375,0.15625 0.04687,-0.07813 0.04687,-0.07813 -0.265625,-0.265625 Q 23.75,17.75 23.375,17.875 23,18 23.125,18.375 L 23.25,18.75 23.15625,18.46875 23.0625,18.1875 23.125,18.375 q 0.0625,0.1875 0.1875,0.3125 l 0.125,0.125 L 23.375,18.75 23.3125,18.6875 23,18.96875 22.6875,19.25 22.71875,19.3125 22.75,19.375 22.6875,19.25 Q 22.625,19.125 22.5,19 L 22.375,18.875 22.5625,19.0625 22.75,19.25 22.5,19 q -0.25,-0.25 -0.53125,0 L 21.6875,19.25 21.71875,19.3125 21.75,19.375 21.6875,19.25 Q 21.625,19.125 21.5,19 L 21.375,18.875 21.5625,19.0625 21.75,19.25 21.5,19 Q 21.25,18.75 21.125,18.375 L 21,18 h 0.5 Q 22,18 22,17.5 V 17 l 0.125,-0.375 q 0.125,-0.375 0.5,-0.5 0.375,-0.125 0.5,-0.5 0.125,-0.375 0.5,-0.5 Q 24,15 23.875,14.625"
       id="path8352"
       inkscape:connector-curvature="0" />
    <path
       style="fill:#3b0d07;fill-opacity:1"
       d="M 8.125,15.625 Q 8.25,15.25 8.5,15 L 8.75,14.75 8.5625,14.9375 8.375,15.125 8.5,15 Q 8.625,14.875 8.71875,14.71875 L 8.8125,14.5625 8.765625,14.640625 8.71875,14.71875 8.984375,15.015625 9.25,15.3125 9.3125,15.28125 9.375,15.25 9.25,15.3125 Q 9.125,15.375 9,15.5 L 8.875,15.625 9.0625,15.4375 9.25,15.25 9,15.5 Q 8.75,15.75 8.375,15.875 L 8,16 8.125,15.625"
       id="path8354"
       inkscape:connector-curvature="0" />
    <path
       style="fill:#582511;fill-opacity:1"
       d="m 9,15.5 q 0.25,-0.25 0.5,-0.25 0.25,0 0.375,0.375 L 10,16 9.625,16.125 Q 9.25,16.25 8.984375,15.984375 L 8.71875,15.71875 8.640625,15.765625 8.5625,15.8125 8.71875,15.71875 Q 8.875,15.625 9,15.5 L 9.125,15.375 8.9375,15.5625 8.75,15.75 9,15.5"
       id="path8356"
       inkscape:connector-curvature="0" />
    <path
       style="fill:#41180a;fill-opacity:1"
       d="M 9.875,15.625 9.75,15.25 9.84375,15.53125 9.9375,15.8125 9.875,15.625 Q 9.8125,15.4375 9.71875,15.34375 L 9.625,15.25 9.671875,15.296875 9.71875,15.34375 10,15.03125 l 0.28125,-0.3125 -0.04687,-0.07813 -0.04687,-0.07813 0.09375,0.15625 Q 10.375,14.875 10.5,15 L 10.625,15.125 10.4375,14.9375 10.25,14.75 10.5,15 q 0.25,0.25 0.5,0.5 l 0.25,0.25 -0.28125,0.28125 -0.28125,0.28125 0.0625,0.0625 0.0625,0.0625 -0.125,-0.125 Q 10.5625,16.1875 10.375,16.125 L 10.1875,16.0625 10.46875,16.15625 10.75,16.25 10.375,16.125 10,16 9.875,15.625 M 11.3125,15.8125 11.25,15.75 11.0625,15.5625 10.875,15.375 11,15.5 q 0.125,0.125 0.25,0.25 l 0.125,0.125 -0.0625,-0.0625"
       id="path8358"
       inkscape:connector-curvature="0" />
    <path
       style="fill:#4c2718;fill-opacity:1"
       d="M 11,15.5 10.75,15.25 11.03125,14.96875 11.3125,14.6875 11.28125,14.65625 11.25,14.625 11.3125,14.6875 Q 11.375,14.75 11.5,14.75 H 11.625 11.4375 11.25 11.5 11.75 11.5625 11.375 11.5 q 0.125,0 0.1875,-0.0625 L 11.75,14.625 11.71875,14.65625 11.6875,14.6875 12,14.96875 12.3125,15.25 12.34375,15.1875 12.375,15.125 12.3125,15.25 Q 12.25,15.375 12.25,15.5 V 15.625 15.4375 15.25 15.5 15.75 15.5625 15.375 15.5 q 0,0.125 0.0625,0.1875 L 12.375,15.75 12.34375,15.71875 12.3125,15.6875 l -0.296875,0.296875 -0.296875,0.296875 0.04687,0.07813 0.04687,0.07813 -0.09375,-0.15625 Q 11.625,16.125 11.5,16 L 11.375,15.875 11.5625,16.0625 11.75,16.25 11.5,16 Q 11.25,15.75 11,15.5 M 10.6875,15.1875 10.75,15.25 10.9375,15.4375 11.125,15.625 11,15.5 q -0.125,-0.125 -0.25,-0.25 l -0.125,-0.125 0.0625,0.0625"
       id="path8360"
       inkscape:connector-curvature="0" />
    <path
       style="fill:#582f1e;fill-opacity:1"
       d="M 13,15.5 Q 13.25,15.25 13.5,15 L 13.75,14.75 13.5625,14.9375 13.375,15.125 13.5,15 q 0.125,-0.125 0.1875,-0.25 l 0.0625,-0.125 -0.03125,0.0625 -0.03125,0.0625 0.328125,0.265625 0.328125,0.265625 0.04687,-0.04687 0.04687,-0.04687 -0.09375,0.09375 Q 14.25,15.375 14.25,15.5 V 15.625 15.4375 15.25 15.5 15.75 15.5625 15.375 15.5 q 0,0.125 0.09375,0.21875 L 14.4375,15.8125 14.39063,15.76563 14.34376,15.71876 14.046885,16.015635 13.75,16.3125 13.8125,16.34375 13.875,16.375 13.75,16.3125 Q 13.625,16.25 13.5,16.25 H 13.375 13.5625 13.75 13.5 q -0.25,0 -0.25,0.25 V 16.75 16.5625 16.375 16.5 q 0,0.125 0.0625,0.25 L 13.375,16.875 13.34375,16.8125 13.3125,16.75 13.015625,17.015625 12.71875,17.28125 12.796875,17.328125 12.875,17.375 12.71875,17.28125 Q 12.5625,17.1875 12.375,17.125 L 12.1875,17.0625 12.46875,17.15625 12.75,17.25 12.375,17.125 12,17 11.875,16.625 11.75,16.25 11.84375,16.53125 11.9375,16.8125 11.875,16.625 Q 11.8125,16.4375 11.71875,16.28125 L 11.625,16.125 l 0.04687,0.07813 0.04687,0.07813 0.296875,-0.296875 L 12.3125,15.6875 12.28125,15.65625 12.25,15.625 12.3125,15.6875 Q 12.375,15.75 12.5,15.75 H 12.625 12.4375 12.25 12.5 q 0.25,0 0.5,-0.25"
       id="path8362"
       inkscape:connector-curvature="0" />
    <path
       style="fill:#582511;fill-opacity:1"
       d="m 14.25,15.5 q 0,-0.25 0.375,-0.375 L 15,15 V 15.5 16 L 14.625,15.875 Q 14.25,15.75 14.25,15.5"
       id="path8364"
       inkscape:connector-curvature="0" />
    <path
       style="fill:#582f1e;fill-opacity:1"
       d="M 15,15.5 V 15 H 15.5 16 V 15.5 16 H 15.5 15 v -0.5"
       id="path8366"
       inkscape:connector-curvature="0" />
    <path
       style="fill:#834c36;fill-opacity:1"
       d="M 16,15.5 V 15 h 0.5 0.5 l -0.125,0.375 q -0.125,0.375 -0.5,0.5 L 16,16 v -0.5"
       id="path8368"
       inkscape:connector-curvature="0" />
    <path
       style="fill:#582511;fill-opacity:1"
       d="M 16.875,15.375 17,15 h 0.5 0.5 v 0.5 0.5 l -0.375,0.125 Q 17.25,16.25 17,16.5 16.75,16.75 16.375,16.875 L 16,17 V 16.5 16 l 0.375,-0.125 q 0.375,-0.125 0.5,-0.5"
       id="path8370"
       inkscape:connector-curvature="0" />
    <path
       style="fill:#a77048;fill-opacity:1"
       d="M 18,15.5 V 15 15.375 15.75 15.5 q 0,-0.25 0.03125,-0.46875 L 18.0625,14.8125 18.046875,14.921875 18.03125,15.03125 18.390625,14.890625 18.75,14.75 18.46875,14.84375 18.1875,14.9375 18.375,14.875 q 0.1875,-0.0625 0.3125,-0.1875 l 0.125,-0.125 L 18.75,14.625 18.6875,14.6875 19,15 l 0.3125,0.3125 0.0625,-0.0625 0.0625,-0.0625 -0.125,0.125 q -0.125,0.125 -0.1875,0.3125 L 19.0625,15.8125 19.15625,15.53125 19.25,15.25 19.125,15.625 19,16 18.484375,15.984375 17.96875,15.96875 17.953125,16.078125 17.9375,16.1875 17.96875,15.96875 Q 18,15.75 18,15.5 V 15.25 15.625 16 15.5"
       id="path8372"
       inkscape:connector-curvature="0" />
    <path
       style="fill:#9b633d;fill-opacity:1"
       d="m 19.125,15.625 q 0.125,-0.375 0.5,-0.5 L 20,15 19.875,15.375 q -0.125,0.375 -0.5,0.5 L 19,16 19.125,15.625"
       id="path8374"
       inkscape:connector-curvature="0" />
    <path
       style="fill:#3b1d19;fill-opacity:1"
       d="M 19.875,15.375 20,15 20.375,14.875 20.75,14.75 20.46875,14.84375 20.1875,14.9375 20.375,14.875 q 0.1875,-0.0625 0.3125,-0.1875 l 0.125,-0.125 -0.0625,0.0625 -0.0625,0.0625 0.28125,0.28125 Q 21.25,15.25 21.125,15.625 L 21,16 20.625,16.125 Q 20.25,16.25 19.96875,15.96875 L 19.6875,15.6875 19.625,15.75 l -0.0625,0.0625 0.125,-0.125 q 0.125,-0.125 0.1875,-0.3125 L 19.9375,15.1875 19.84375,15.46875 19.75,15.75 19.875,15.375 M 20.03125,14.90625 20,15 19.90625,15.28125 19.8125,15.5625 19.875,15.375 Q 19.9375,15.1875 20,15 l 0.0625,-0.1875 -0.03125,0.09375"
       id="path8376"
       inkscape:connector-curvature="0" />
    <path
       style="fill:#4c1e0d;fill-opacity:1"
       d="M 22,15.5 Q 22.25,15.25 22.5,15 L 22.75,14.75 22.5625,14.9375 22.375,15.125 22.5,15 q 0.125,-0.125 0.1875,-0.25 L 22.75,14.625 22.71875,14.6875 22.6875,14.75 23,15.03125 23.3125,15.3125 23.375,15.25 l 0.0625,-0.0625 -0.125,0.125 q -0.125,0.125 -0.1875,0.3125 L 23.0625,15.8125 23.15625,15.53125 23.25,15.25 23.125,15.625 Q 23,16 22.625,16.125 L 22.25,16.25 22.53125,16.15625 22.8125,16.0625 22.625,16.125 q -0.1875,0.0625 -0.3125,0.1875 l -0.125,0.125 0.0625,-0.0625 0.0625,-0.0625 -0.296875,-0.296875 -0.296875,-0.296875 -0.07813,0.04687 -0.07813,0.04687 0.15625,-0.09375 Q 21.875,15.625 22,15.5 L 22.125,15.375 21.9375,15.5625 21.75,15.75 22,15.5"
       id="path8378"
       inkscape:connector-curvature="0" />
    <path
       style="fill:#4c1e0d;fill-opacity:1"
       d="M 8,16.5 V 16 L 8.375,15.875 8.75,15.75 8.46875,15.84375 8.1875,15.9375 8.375,15.875 Q 8.5625,15.8125 8.71875,15.71875 L 8.875,15.625 8.796875,15.671875 8.71875,15.71875 8.984375,15.984375 Q 9.25,16.25 9.625,16.125 L 10,16 l 0.375,0.125 q 0.375,0.125 0.5,0.5 L 11,17 10.625,17.125 10.25,17.25 10.53125,17.15625 10.8125,17.0625 10.625,17.125 q -0.1875,0.0625 -0.28125,0.15625 L 10.25,17.375 10.29687,17.32813 10.34374,17.28126 10.046865,17.015635 Q 9.75,16.75 9.375,16.875 L 9,17 H 8.5 8 v -0.5"
       id="path8380"
       inkscape:connector-curvature="0" />
    <path
       style="fill:#4c2e22;fill-opacity:1"
       d="M 10.875,16.625 10.75,16.25 10.84375,16.53125 10.9375,16.8125 10.875,16.625 q -0.0625,-0.1875 -0.1875,-0.3125 l -0.125,-0.125 0.0625,0.0625 0.0625,0.0625 0.28125,-0.28125 L 11.25,15.75 11.5,16 q 0.25,0.25 0.375,0.625 L 12,17 11.484375,17.01563 10.96875,17.03126 10.98438,17.140635 11,17.25 10.96875,17.03125 Q 10.9375,16.8125 10.875,16.625 L 10.8125,16.4375 10.90625,16.71875 11,17 10.875,16.625 M 11.4375,15.9375 11.25,15.75 11.1875,15.6875 11.125,15.625 11.25,15.75 q 0.125,0.125 0.25,0.25 l 0.125,0.125 -0.1875,-0.1875"
       id="path8382"
       inkscape:connector-curvature="0" />
    <path
       style="fill:#583729;fill-opacity:1"
       d="m 13.25,16.5 q 0,-0.25 0.25,-0.25 0.25,0 0.5,0.25 l 0.25,0.25 -0.265625,0.265625 -0.265625,0.265625 0.04687,0.07813 0.04687,0.07813 -0.09375,-0.15625 Q 13.625,17.125 13.5,17 L 13.375,16.875 13.5625,17.0625 13.75,17.25 13.5,17 Q 13.25,16.75 13.25,16.5 M 14.3125,16.8125 14.25,16.75 14.0625,16.5625 13.875,16.375 14,16.5 q 0.125,0.125 0.25,0.25 l 0.125,0.125 -0.0625,-0.0625"
       id="path8384"
       inkscape:connector-curvature="0" />
    <path
       style="fill:#4c1e0d;fill-opacity:1"
       d="M 14,16.5 13.75,16.25 13.9375,16.4375 14.125,16.625 14,16.5 Q 13.875,16.375 13.75,16.3125 L 13.625,16.25 13.6875,16.28125 13.75,16.3125 14.046875,16.015625 14.34375,15.71875 14.296875,15.671875 14.25,15.625 14.34375,15.71875 Q 14.4375,15.8125 14.625,15.875 L 14.8125,15.9375 14.53125,15.84375 14.25,15.75 14.625,15.875 15,16 H 15.5 16 V 16.5 17 L 15.625,16.875 Q 15.25,16.75 15,17 L 14.75,17.25 14.5,17 Q 14.25,16.75 14,16.5 M 14.5625,17.0625 14.75,17.25 14.8125,17.3125 14.875,17.375 14.75,17.25 Q 14.625,17.125 14.5,17 l -0.125,-0.125 0.1875,0.1875"
       id="path8386"
       inkscape:connector-curvature="0" />
    <path
       style="fill:#582f1e;fill-opacity:1"
       d="m 17,16.5 q 0.25,-0.25 0.625,-0.375 L 18,16 17.875,16.375 Q 17.75,16.75 17.5,17 17.25,17.25 17.25,17.5 V 17.75 17.5625 17.375 17.5 q 0,0.125 0.0625,0.25 L 17.375,17.875 17.34375,17.8125 17.3125,17.75 17.03125,18 Q 16.75,18.25 16.5,18 16.25,17.75 16.125,17.375 L 16,17 16.375,16.875 Q 16.75,16.75 17,16.5"
       id="path8388"
       inkscape:connector-curvature="0" />
    <path
       style="fill:#583d32;fill-opacity:1"
       d="M 17.875,16.375 18,16 17.90625,16.28125 17.8125,16.5625 17.875,16.375 q 0.0625,-0.1875 0.09375,-0.40625 L 18,15.75 17.98437,15.859375 17.96874,15.96875 18.484365,15.98438 19,16 V 16.5 17 L 18.625,17.125 18.25,17.25 18.53125,17.15625 18.8125,17.0625 18.625,17.125 q -0.1875,0.0625 -0.28125,0.15625 L 18.25,17.375 18.296875,17.328125 18.34375,17.28125 18.03125,17 17.71875,16.71875 17.671875,16.796875 17.625,16.875 17.71875,16.71875 Q 17.8125,16.5625 17.875,16.375 L 17.9375,16.1875 17.84375,16.46875 17.75,16.75 17.875,16.375"
       id="path8390"
       inkscape:connector-curvature="0" />
    <path
       style="fill:#32120d;fill-opacity:1"
       d="M 19,16.5 V 16 L 19.375,15.875 19.75,15.75 19.46875,15.84375 19.1875,15.9375 19.375,15.875 q 0.1875,-0.0625 0.3125,-0.1875 l 0.125,-0.125 -0.0625,0.0625 -0.0625,0.0625 0.28125,0.28125 Q 20.25,16.25 20.625,16.125 L 21,16 21.125,16.375 21.25,16.75 21.15625,16.46875 21.0625,16.1875 21.125,16.375 q 0.0625,0.1875 0.1875,0.3125 l 0.125,0.125 L 21.375,16.75 21.3125,16.6875 21,17 l -0.3125,0.3125 0.0625,0.0625 0.0625,0.0625 -0.125,-0.125 Q 20.5625,17.1875 20.375,17.125 L 20.1875,17.0625 20.46875,17.15625 20.75,17.25 20.375,17.125 20,17 H 19.5 19 v -0.5"
       id="path8392"
       inkscape:connector-curvature="0" />
    <path
       style="fill:#41180a;fill-opacity:1"
       d="M 21.125,16.375 21,16 21.375,15.875 21.75,15.75 21.46875,15.84375 21.1875,15.9375 21.375,15.875 q 0.1875,-0.0625 0.34375,-0.15625 L 21.875,15.625 l -0.07813,0.04687 -0.07813,0.04687 0.296875,0.296875 0.296875,0.296875 0.0625,-0.0625 0.0625,-0.0625 -0.125,0.125 q -0.125,0.125 -0.1875,0.3125 L 22.0625,16.8125 22.15625,16.53125 22.25,16.25 22.125,16.625 22,17 21.625,16.875 q -0.375,-0.125 -0.5,-0.5"
       id="path8394"
       inkscape:connector-curvature="0" />
    <path
       style="fill:#41180a;fill-opacity:1"
       d="M 24,16.5 Q 24,16 24.5,16 H 25 V 16.5 17 H 24.5 Q 24,17 24,16.5"
       id="path8396"
       inkscape:connector-curvature="0" />
    <path
       style="fill:#582511;fill-opacity:1"
       d="M 8,17.5 V 17 H 8.5 9 V 17.5 18 H 8.5 8 v -0.5"
       id="path8398"
       inkscape:connector-curvature="0" />
    <path
       style="fill:#582f1e;fill-opacity:1"
       d="M 9,17.5 V 17 l 0.375,-0.125 q 0.375,-0.125 0.671875,0.140625 l 0.296875,0.265625 0.04687,-0.04687 0.04687,-0.04687 -0.09375,0.09375 Q 10.25,17.375 10.25,17.5 V 17.625 17.4375 17.25 17.5 q 0,0.25 0.390625,0.359375 L 11.03125,17.96875 11.015625,17.859375 11,17.75 11.03125,17.96875 Q 11.0625,18.1875 11.125,18.375 L 11.1875,18.5625 11.09375,18.28125 11,18 l 0.125,0.375 q 0.125,0.375 0.5,0.5 L 12,19 12.375,19.125 Q 12.75,19.25 13,19.5 L 13.25,19.75 13,20 Q 12.75,20.25 12.875,20.625 13,21 12.625,20.875 12.25,20.75 11.984375,21.015625 L 11.71875,21.28125 11.79688,21.32812 11.875,21.375 11.71875,21.28125 Q 11.5625,21.1875 11.375,21.125 L 11.1875,21.0625 11.46875,21.15625 11.75,21.25 11.375,21.125 Q 11,21 10.625,20.875 10.25,20.75 10,20.5 L 9.75,20.25 10.046875,19.984375 10.34375,19.71875 10.296875,19.671875 10.25,19.625 10.34375,19.71875 Q 10.4375,19.8125 10.625,19.875 L 10.8125,19.9375 10.53125,19.84375 10.25,19.75 10.625,19.875 Q 11,20 10.875,19.625 10.75,19.25 10.5,19.25 H 10.25 10.4375 10.625 10.5 q -0.125,0 -0.1875,0.0625 L 10.25,19.375 10.28125,19.34375 10.3125,19.3125 10,19 9.6875,18.6875 9.65625,18.71875 9.625,18.75 9.6875,18.6875 Q 9.75,18.625 9.75,18.5 V 18.375 18.5625 18.75 18.5 q 0,-0.25 -0.375,-0.375 L 9,18 V 17.5 M 9.6875,20.1875 9.75,20.25 9.9375,20.4375 10.125,20.625 10,20.5 Q 9.875,20.375 9.75,20.25 l -0.125,-0.125 0.0625,0.0625 m 3.625,-0.375 L 13.25,19.75 13.0625,19.5625 12.875,19.375 13,19.5 q 0.125,0.125 0.25,0.25 l 0.125,0.125 -0.0625,-0.0625"
       id="path8400"
       inkscape:connector-curvature="0" />
    <path
       style="fill:#76412d;fill-opacity:1"
       d="m 10.25,17.5 q 0,-0.25 0.375,-0.375 L 11,17 V 17.5 18 17.625 17.25 17.5 q 0,0.25 0.03125,0.46875 L 11.0625,18.1875 11.046875,18.078125 11.03125,17.96875 10.640625,17.859375 Q 10.25,17.75 10.25,17.5"
       id="path8402"
       inkscape:connector-curvature="0" />
    <path
       style="fill:#9b633d;fill-opacity:1"
       d="M 11,17.5 V 17 17.375 17.75 17.5 q 0,-0.25 -0.03125,-0.46875 L 10.9375,16.8125 10.95313,16.921875 10.96876,17.03125 11.484385,17.01562 12,17 H 11.625 11.25 11.5 q 0.25,0 0.46875,0.03125 L 12.1875,17.0625 12.078125,17.046875 11.96875,17.03125 12.109375,17.390625 12.25,17.75 12.15625,17.46875 12.0625,17.1875 12.125,17.375 q 0.0625,0.1875 0.15625,0.34375 L 12.375,17.875 12.328125,17.796875 12.28125,17.71875 11.984375,18.015625 11.6875,18.3125 11.75,18.375 l 0.0625,0.0625 -0.125,-0.125 Q 11.5625,18.1875 11.375,18.125 L 11.1875,18.0625 11.46875,18.15625 11.75,18.25 11.375,18.125 11,18 v -0.5"
       id="path8404"
       inkscape:connector-curvature="0" />
    <path
       style="fill:#4c1e0d;fill-opacity:1"
       d="M 12.125,17.375 12,17 12.375,17.125 Q 12.75,17.25 13,17.5 13.25,17.75 13,18 L 12.75,18.25 12.5,18 Q 12.25,17.75 12.125,17.375 M 12.5625,18.0625 12.75,18.25 12.8125,18.3125 12.875,18.375 12.75,18.25 Q 12.625,18.125 12.5,18 l -0.125,-0.125 0.1875,0.1875"
       id="path8406"
       inkscape:connector-curvature="0" />
    <path
       style="fill:#3b0d07;fill-opacity:1"
       d="M 13,17.5 12.75,17.25 12.9375,17.4375 13.125,17.625 13,17.5 q -0.125,-0.125 -0.28125,-0.21875 l -0.15625,-0.09375 0.07813,0.04687 0.07813,0.04687 0.296875,-0.265625 L 13.3125,16.75 13.28125,16.6875 13.25,16.625 13.3125,16.75 Q 13.375,16.875 13.5,17 L 13.625,17.125 13.4375,16.9375 13.25,16.75 13.5,17 q 0.25,0.25 0.375,0.625 L 14,18 14.125,18.375 Q 14.25,18.75 14,19 L 13.75,19.25 13.5,19 Q 13.25,18.75 13,18.5 L 12.75,18.25 13,18 q 0.25,-0.25 0,-0.5 M 12.6875,18.1875 12.75,18.25 12.9375,18.4375 13.125,18.625 13,18.5 q -0.125,-0.125 -0.25,-0.25 l -0.125,-0.125 0.0625,0.0625 m 0.875,0.875 L 13.75,19.25 13.8125,19.3125 13.875,19.375 13.75,19.25 Q 13.625,19.125 13.5,19 l -0.125,-0.125 0.1875,0.1875"
       id="path8408"
       inkscape:connector-curvature="0" />
    <path
       style="fill:#4c2718;fill-opacity:1"
       d="M 13.875,17.625 13.75,17.25 13.84375,17.53125 13.9375,17.8125 13.875,17.625 Q 13.8125,17.4375 13.71875,17.28125 L 13.625,17.125 l 0.04687,0.07813 0.04687,0.07813 0.265625,-0.265625 L 14.25,16.75 14.5,17 q 0.25,0.25 0.5,0.5 l 0.25,0.25 -0.28125,0.28125 -0.28125,0.28125 0.0625,0.0625 0.0625,0.0625 -0.125,-0.125 Q 14.5625,18.1875 14.375,18.125 L 14.1875,18.0625 14.46875,18.15625 14.75,18.25 14.375,18.125 14,18 13.875,17.625 M 15.3125,17.8125 15.25,17.75 15.0625,17.5625 14.875,17.375 15,17.5 q 0.125,0.125 0.25,0.25 l 0.125,0.125 -0.0625,-0.0625 M 14.4375,16.9375 14.25,16.75 14.1875,16.6875 14.125,16.625 14.25,16.75 q 0.125,0.125 0.25,0.25 l 0.125,0.125 -0.1875,-0.1875"
       id="path8410"
       inkscape:connector-curvature="0" />
    <path
       style="fill:#582511;fill-opacity:1"
       d="M 15,17.5 14.75,17.25 15,17 q 0.25,-0.25 0.625,-0.125 L 16,17 16.125,17.375 16.25,17.75 16.15625,17.46875 16.0625,17.1875 16.125,17.375 q 0.0625,0.1875 0.15625,0.34375 L 16.375,17.875 16.328125,17.796875 16.28125,17.71875 16.015625,17.984375 15.75,18.25 15.5,18 Q 15.25,17.75 15,17.5 M 15.5625,18.0625 15.75,18.25 15.8125,18.3125 15.875,18.375 15.75,18.25 Q 15.625,18.125 15.5,18 l -0.125,-0.125 0.1875,0.1875 M 14.6875,17.1875 14.75,17.25 14.9375,17.4375 15.125,17.625 15,17.5 q -0.125,-0.125 -0.25,-0.25 l -0.125,-0.125 0.0625,0.0625"
       id="path8412"
       inkscape:connector-curvature="0" />
    <path
       style="fill:#583729;fill-opacity:1"
       d="m 17.25,17.5 q 0,-0.25 0.25,-0.5 L 17.75,16.75 17.5625,16.9375 17.375,17.125 17.5,17 q 0.125,-0.125 0.21875,-0.28125 l 0.09375,-0.15625 -0.04687,0.07813 -0.04687,0.07813 0.3125,0.28125 0.3125,0.28125 0.04687,-0.04687 0.04687,-0.04687 -0.09375,0.09375 Q 18.25,17.375 18.25,17.5 V 17.625 17.4375 17.25 17.5 17.75 17.5625 17.375 17.5 q 0,0.125 0.09375,0.21875 l 0.09375,0.09375 -0.04687,-0.04687 -0.04687,-0.04687 -0.3125,0.28125 -0.3125,0.28125 0.04687,0.07813 0.04687,0.07813 -0.09375,-0.15625 Q 17.625,18.125 17.5,18 L 17.375,17.875 17.5625,18.0625 17.75,18.25 17.5,18 q -0.25,-0.25 -0.25,-0.5"
       id="path8414"
       inkscape:connector-curvature="0" />
    <path
       style="fill:#3b1611;fill-opacity:1"
       d="m 18.25,17.5 q 0,-0.25 0.375,-0.375 L 19,17 H 19.5 20 V 17.5 18 H 19.5 19 L 18.625,17.875 Q 18.25,17.75 18.25,17.5"
       id="path8416"
       inkscape:connector-curvature="0" />
    <path
       style="fill:#2a0e0a;fill-opacity:1"
       d="M 20,17.5 V 17 l 0.375,0.125 q 0.375,0.125 0.5,0.5 L 21,18 H 20.5 20 v -0.5"
       id="path8418"
       inkscape:connector-curvature="0" />
    <path
       style="fill:#320a05;fill-opacity:1"
       d="M 20.875,17.625 20.75,17.25 20.84375,17.53125 20.9375,17.8125 20.875,17.625 q -0.0625,-0.1875 -0.1875,-0.3125 l -0.125,-0.125 0.0625,0.0625 0.0625,0.0625 L 21,17 21.3125,16.6875 21.25,16.625 l -0.0625,-0.0625 0.125,0.125 q 0.125,0.125 0.3125,0.1875 L 21.8125,16.9375 21.53125,16.84375 21.25,16.75 21.625,16.875 22,17 v 0.5 Q 22,18 21.5,18 H 21 l -0.125,-0.375"
       id="path8420"
       inkscape:connector-curvature="0" />
    <path
       style="fill:#582f1e;fill-opacity:1"
       d="M 8.125,18.375 8,18 H 8.5 9 L 9.125,18.375 9.25,18.75 9.15625,18.46875 9.0625,18.1875 9.125,18.375 q 0.0625,0.1875 0.15625,0.28125 L 9.375,18.75 9.328125,18.703125 9.28125,18.65625 9.015625,18.953125 8.75,19.25 8.5,19 Q 8.25,18.75 8.125,18.375 M 8.5625,19.0625 8.75,19.25 8.8125,19.3125 8.875,19.375 8.75,19.25 Q 8.625,19.125 8.5,19 l -0.125,-0.125 0.1875,0.1875"
       id="path8422"
       inkscape:connector-curvature="0" />
    <path
       style="fill:#4c1e0d;fill-opacity:1"
       d="M 9.125,18.375 9,18 9.375,18.125 Q 9.75,18.25 9.75,18.5 q 0,0.25 -0.25,0.25 -0.25,0 -0.375,-0.375"
       id="path8424"
       inkscape:connector-curvature="0" />
    <path
       style="fill:#833f24;fill-opacity:1"
       d="M 11.125,18.375 11,18 l 0.375,0.125 q 0.375,0.125 0.5,0.5 L 12,19 11.625,18.875 q -0.375,-0.125 -0.5,-0.5"
       id="path8426"
       inkscape:connector-curvature="0" />
    <path
       style="fill:#76351d;fill-opacity:1"
       d="M 11.875,18.625 11.75,18.25 11.84375,18.53125 11.9375,18.8125 11.875,18.625 q -0.0625,-0.1875 -0.1875,-0.3125 l -0.125,-0.125 0.0625,0.0625 0.0625,0.0625 0.296875,-0.296875 0.296875,-0.296875 -0.04687,-0.07813 -0.04687,-0.07813 0.09375,0.15625 Q 12.375,17.875 12.5,18 L 12.625,18.125 12.4375,17.9375 12.25,17.75 12.5,18 q 0.25,0.25 0.5,0.5 l 0.25,0.25 -0.265625,0.265625 -0.265625,0.265625 0.07813,0.04687 L 12.875,19.375 12.71875,19.28125 Q 12.5625,19.1875 12.375,19.125 L 12.1875,19.0625 12.46875,19.15625 12.75,19.25 12.375,19.125 12,19 11.875,18.625 M 13.3125,18.8125 13.25,18.75 13.0625,18.5625 12.875,18.375 13,18.5 q 0.125,0.125 0.25,0.25 l 0.125,0.125 -0.0625,-0.0625"
       id="path8428"
       inkscape:connector-curvature="0" />
    <path
       style="fill:#3b1611;fill-opacity:1"
       d="M 14.125,18.375 14,18 l 0.375,0.125 q 0.375,0.125 0.5,0.5 L 15,19 l 0.125,0.375 q 0.125,0.375 0.5,0.5 L 16,20 V 20.5 21 L 15.625,21.125 15.25,21.25 15.53125,21.15625 15.8125,21.0625 15.625,21.125 q -0.1875,0.0625 -0.3125,0.1875 l -0.125,0.125 0.0625,-0.0625 0.0625,-0.0625 -0.328125,-0.296875 -0.328125,-0.296875 -0.04687,0.04687 -0.04687,0.04687 0.09375,-0.09375 Q 14.75,20.625 14.75,20.5 V 20.375 20.5625 20.75 20.5 Q 14.75,20.25 14.5,20 14.25,19.75 14,19.5 L 13.75,19.25 14,19 q 0.25,-0.25 0.125,-0.625 M 13.6875,19.1875 13.75,19.25 13.9375,19.4375 14.125,19.625 14,19.5 q -0.125,-0.125 -0.25,-0.25 l -0.125,-0.125 0.0625,0.0625"
       id="path8430"
       inkscape:connector-curvature="0" />
    <path
       style="fill:#4c2e22;fill-opacity:1"
       d="M 14.875,18.625 14.75,18.25 14.84375,18.53125 14.9375,18.8125 14.875,18.625 q -0.0625,-0.1875 -0.1875,-0.3125 l -0.125,-0.125 0.0625,0.0625 0.0625,0.0625 0.28125,-0.28125 L 15.25,17.75 15.5,18 q 0.25,0.25 0.5,0.5 L 16.25,18.75 16.0625,18.5625 15.875,18.375 16,18.5 q 0.125,0.125 0.28125,0.21875 l 0.15625,0.09375 -0.07813,-0.04687 -0.07813,-0.04687 -0.296875,0.296875 -0.296875,0.296875 0.0625,0.0625 0.0625,0.0625 -0.125,-0.125 Q 15.5625,19.1875 15.375,19.125 L 15.1875,19.0625 15.46875,19.15625 15.75,19.25 15.375,19.125 15,19 14.875,18.625 M 15.4375,17.9375 15.25,17.75 15.1875,17.6875 15.125,17.625 15.25,17.75 q 0.125,0.125 0.25,0.25 l 0.125,0.125 -0.1875,-0.1875"
       id="path8432"
       inkscape:connector-curvature="0" />
    <path
       style="fill:#4c1e0d;fill-opacity:1"
       d="m 16,18.5 -0.25,-0.25 0.265625,-0.265625 0.265625,-0.265625 -0.04687,-0.07813 -0.04687,-0.07813 0.09375,0.15625 Q 16.375,17.875 16.5,18 L 16.625,18.125 16.4375,17.9375 16.25,17.75 16.5,18 q 0.25,0.25 0.53125,0 L 17.3125,17.75 17.28125,17.6875 17.25,17.625 17.3125,17.75 Q 17.375,17.875 17.5,18 L 17.625,18.125 17.4375,17.9375 17.25,17.75 17.5,18 q 0.25,0.25 0.375,0.625 L 18,19 H 17.5 Q 17,19 16.625,18.875 16.25,18.75 16,18.5 M 15.6875,18.1875 15.75,18.25 15.9375,18.4375 16.125,18.625 16,18.5 q -0.125,-0.125 -0.25,-0.25 l -0.125,-0.125 0.0625,0.0625"
       id="path8434"
       inkscape:connector-curvature="0" />
    <path
       style="fill:#3b0d07;fill-opacity:1"
       d="M 17.875,18.625 17.75,18.25 17.84375,18.53125 17.9375,18.8125 17.875,18.625 Q 17.8125,18.4375 17.71875,18.28125 L 17.625,18.125 17.67187,18.20313 17.71874,18.28126 18.03125,18 18.34375,17.71875 18.296875,17.671875 18.25,17.625 18.34375,17.71875 Q 18.4375,17.8125 18.625,17.875 L 18.8125,17.9375 18.53125,17.84375 18.25,17.75 18.625,17.875 19,18 18.875,18.375 q -0.125,0.375 -0.5,0.5 L 18,19 17.875,18.625"
       id="path8436"
       inkscape:connector-curvature="0" />
    <path
       style="fill:#2a0804;fill-opacity:1"
       d="M 18.875,18.375 19,18 H 19.5 20 V 18.5 19 L 19.625,19.125 19.25,19.25 19.53125,19.15625 19.8125,19.0625 19.625,19.125 q -0.1875,0.0625 -0.28125,0.15625 L 19.25,19.375 19.296875,19.328125 19.34375,19.28125 19.015625,18.984375 18.6875,18.6875 18.625,18.75 l -0.0625,0.0625 0.125,-0.125 q 0.125,-0.125 0.1875,-0.3125 L 18.9375,18.1875 18.84375,18.46875 18.75,18.75 18.875,18.375"
       id="path8438"
       inkscape:connector-curvature="0" />
    <path
       style="fill:#2a1210;fill-opacity:1"
       d="M 20,18.5 V 18 h 0.5 0.5 l 0.125,0.375 0.125,0.375 -0.09375,-0.28125 -0.09375,-0.28125 0.0625,0.1875 q 0.0625,0.1875 0.15625,0.34375 L 21.375,18.875 21.328125,18.796875 21.28125,18.71875 21,19 20.71875,19.28125 20.79688,19.32812 20.875,19.375 20.71875,19.28125 Q 20.5625,19.1875 20.375,19.125 L 20.1875,19.0625 20.46875,19.15625 20.75,19.25 20.375,19.125 20,19 v -0.5"
       id="path8440"
       inkscape:connector-curvature="0" />
    <path
       style="fill:#4c1e0d;fill-opacity:1"
       d="M 23.125,18.375 Q 23,18 23.375,17.875 23.75,17.75 24.015625,18.015625 L 24.28125,18.28125 24.32812,18.20312 24.375,18.125 24.28125,18.28125 Q 24.1875,18.4375 24.125,18.625 L 24.0625,18.8125 24.15625,18.53125 24.25,18.25 24.125,18.625 24,19 23.625,18.875 q -0.375,-0.125 -0.5,-0.5"
       id="path8442"
       inkscape:connector-curvature="0" />
    <path
       style="fill:#4c2718;fill-opacity:1"
       d="M 9,19.5 8.75,19.25 9.015625,18.953125 9.28125,18.65625 9.234375,18.609375 9.1875,18.5625 9.28125,18.65625 Q 9.375,18.75 9.5,18.75 H 9.625 9.4375 9.25 9.5 9.75 9.5625 9.375 9.5 q 0.125,0 0.1875,-0.0625 L 9.75,18.625 9.71875,18.65625 9.6875,18.6875 10,19 10.3125,19.3125 10.34375,19.28125 10.375,19.25 10.3125,19.3125 Q 10.25,19.375 10.25,19.5 V 19.625 19.4375 19.25 19.5 19.75 19.5625 19.375 19.5 q 0,0.125 0.09375,0.21875 L 10.4375,19.8125 10.39063,19.76563 10.34376,19.71876 10.046885,19.984385 9.75,20.25 9.5,20 Q 9.25,19.75 9,19.5 M 9.5625,20.0625 9.75,20.25 9.8125,20.3125 9.875,20.375 9.75,20.25 Q 9.625,20.125 9.5,20 L 9.375,19.875 9.5625,20.0625 M 8.6875,19.1875 8.75,19.25 8.9375,19.4375 9.125,19.625 9,19.5 Q 8.875,19.375 8.75,19.25 l -0.125,-0.125 0.0625,0.0625"
       id="path8444"
       inkscape:connector-curvature="0" />
    <path
       style="fill:#583729;fill-opacity:1"
       d="m 10.25,19.5 q 0,-0.25 0.25,-0.25 0.25,0 0.375,0.375 Q 11,20 10.625,19.875 10.25,19.75 10.25,19.5"
       id="path8446"
       inkscape:connector-curvature="0" />
    <path
       style="fill:#76412d;fill-opacity:1"
       d="M 13,19.5 12.75,19.25 12.9375,19.4375 13.125,19.625 13,19.5 q -0.125,-0.125 -0.28125,-0.21875 l -0.15625,-0.09375 0.07813,0.04687 0.07813,0.04687 0.265625,-0.265625 L 13.25,18.75 13.5,19 q 0.25,0.25 0.5,0.5 l 0.25,0.25 -0.265625,0.265625 -0.265625,0.265625 0.04687,0.07813 0.04687,0.07813 -0.09375,-0.15625 Q 13.625,20.125 13.5,20 L 13.375,19.875 13.5625,20.0625 13.75,20.25 13.5,20 Q 13.25,19.75 13,19.5 M 14.3125,19.8125 14.25,19.75 14.0625,19.5625 13.875,19.375 14,19.5 q 0.125,0.125 0.25,0.25 l 0.125,0.125 -0.0625,-0.0625 M 13.4375,18.9375 13.25,18.75 13.1875,18.6875 13.125,18.625 13.25,18.75 q 0.125,0.125 0.25,0.25 l 0.125,0.125 -0.1875,-0.1875"
       id="path8448"
       inkscape:connector-curvature="0" />
    <path
       style="fill:#3b1d19;fill-opacity:1"
       d="M 15.125,19.375 15,19 l 0.375,0.125 q 0.375,0.125 0.5,0.5 L 16,20 15.625,19.875 q -0.375,-0.125 -0.5,-0.5"
       id="path8450"
       inkscape:connector-curvature="0" />
    <path
       style="fill:#583729;fill-opacity:1"
       d="M 15.875,19.625 15.75,19.25 15.84375,19.53125 15.9375,19.8125 15.875,19.625 q -0.0625,-0.1875 -0.1875,-0.3125 l -0.125,-0.125 0.0625,0.0625 0.0625,0.0625 0.296875,-0.296875 L 16.28125,18.71875 16.20312,18.67188 16.125,18.625 16.28125,18.71875 Q 16.4375,18.8125 16.625,18.875 L 16.8125,18.9375 16.53125,18.84375 16.25,18.75 16.625,18.875 17,19 16.71875,18.90625 16.4375,18.8125 16.625,18.875 q 0.1875,0.0625 0.40625,0.09375 L 17.25,19 17.140625,18.984375 17.03125,18.96875 17.015625,19.484375 17,20 H 16.5 16 l -0.125,-0.375"
       id="path8452"
       inkscape:connector-curvature="0" />
    <path
       style="fill:#76351d;fill-opacity:1"
       d="M 17.015625,19.484375 17.03125,18.96875 16.921875,18.953125 16.8125,18.9375 17.03125,18.96875 Q 17.25,19 17.5,19 H 17.75 17.375 17 17.5 18 17.625 17.25 17.5 q 0.25,0 0.46875,-0.03125 L 18.1875,18.9375 18.078125,18.95313 17.96875,18.96876 V 19.5 20.03125 l 0.109375,0.01563 0.109375,0.01563 -0.21875,-0.03125 Q 17.75,20 17.5,20 H 17.25 17.625 18 17.5 17 l 0.01563,-0.515625 M 16.875,20 H 17 17.375 17.75 17.5 q -0.25,0 -0.5,0 h -0.25 0.125"
       id="path8454"
       inkscape:connector-curvature="0" />
    <path
       style="fill:#3b1611;fill-opacity:1"
       d="M 17.984375,19.515625 18,19 18.375,18.875 18.75,18.75 18.46875,18.84375 18.1875,18.9375 18.375,18.875 q 0.1875,-0.0625 0.3125,-0.1875 l 0.125,-0.125 -0.0625,0.0625 -0.0625,0.0625 0.328125,0.296875 0.328125,0.296875 0.04687,-0.04687 0.04687,-0.04687 -0.09375,0.09375 Q 19.25,19.375 19.25,19.5 V 19.625 19.4375 19.25 19.5 q 0,0.25 0.25,0.25 H 19.75 19.5625 19.375 19.5 q 0.125,0 0.21875,-0.09375 l 0.09375,-0.09375 -0.04687,0.04687 -0.04687,0.04687 0.296875,0.328125 L 20.3125,20.3125 20.34375,20.28125 20.375,20.25 20.3125,20.3125 Q 20.25,20.375 20.25,20.5 V 20.625 20.4375 20.25 20.5 20.75 20.5625 20.375 20.5 q 0,0.125 0.0625,0.1875 L 20.375,20.75 20.34375,20.71875 20.3125,20.6875 20.03125,21 19.75,21.3125 19.8125,21.34375 19.875,21.375 19.75,21.3125 Q 19.625,21.25 19.5,21.25 H 19.375 19.5625 19.75 19.5 19.25 19.4375 19.625 19.5 q -0.125,0 -0.1875,0.0625 L 19.25,21.375 19.28125,21.34375 19.3125,21.3125 19,21 18.6875,20.6875 18.65625,20.71875 18.625,20.75 18.6875,20.6875 Q 18.75,20.625 18.75,20.5 V 20.375 20.5625 20.75 20.5 q 0,-0.25 -0.375,-0.375 L 18,20 18.28125,20.09375 18.5625,20.1875 18.375,20.125 Q 18.1875,20.0625 17.96875,20.03125 L 17.75,20 l 0.109375,0.01563 0.109375,0.01563 0.01563,-0.515625"
       id="path8456"
       inkscape:connector-curvature="0" />
    <path
       style="fill:#2a1210;fill-opacity:1"
       d="m 19.25,19.5 q 0,-0.25 0.375,-0.375 L 20,19 19.875,19.375 Q 19.75,19.75 19.5,19.75 q -0.25,0 -0.25,-0.25"
       id="path8458"
       inkscape:connector-curvature="0" />
    <path
       style="fill:#32120d;fill-opacity:1"
       d="M 19.875,19.375 20,19 20.375,19.125 Q 20.75,19.25 21,19.5 L 21.25,19.75 21.0625,19.5625 20.875,19.375 21,19.5 q 0.125,0.125 0.25,0.1875 L 21.375,19.75 21.3125,19.71875 21.25,19.6875 21,19.96875 Q 20.75,20.25 20.5,20.25 H 20.25 20.4375 20.625 20.5 q -0.125,0 -0.1875,0.0625 L 20.25,20.375 20.28125,20.34375 20.3125,20.3125 20.015625,19.984375 19.71875,19.65625 19.671875,19.703125 19.625,19.75 19.71875,19.65625 Q 19.8125,19.5625 19.875,19.375 L 19.9375,19.1875 19.84375,19.46875 19.75,19.75 19.875,19.375"
       id="path8460"
       inkscape:connector-curvature="0" />
    <path
       style="fill:#321714;fill-opacity:1"
       d="M 21,19.5 20.75,19.25 20.9375,19.4375 21.125,19.625 21,19.5 Q 20.875,19.375 20.71875,19.28125 L 20.5625,19.1875 20.64063,19.23437 20.71876,19.28124 21,19 l 0.28125,-0.28125 -0.04687,-0.07813 -0.04687,-0.07813 0.09375,0.15625 Q 21.375,18.875 21.5,19 L 21.625,19.125 21.4375,18.9375 21.25,18.75 21.5,19 q 0.25,0.25 0.25,0.5 0,0.25 -0.25,0.25 -0.25,0 -0.5,-0.25"
       id="path8462"
       inkscape:connector-curvature="0" />
    <path
       style="fill:#3b1611;fill-opacity:1"
       d="M 21.75,19.5 V 19.25 19.4375 19.625 19.5 q 0,-0.125 -0.0625,-0.25 L 21.625,19.125 21.65625,19.1875 21.6875,19.25 21.96875,19 Q 22.25,18.75 22.5,19 q 0.25,0.25 0.25,0.5 0,0.25 -0.25,0.5 L 22.25,20.25 21.96875,19.96875 21.6875,19.6875 21.65625,19.71875 21.625,19.75 21.6875,19.6875 Q 21.75,19.625 21.75,19.5 V 19.375 19.5625 19.75 19.5 M 22.1875,20.3125 22.25,20.25 22.4375,20.0625 22.625,19.875 22.5,20 q -0.125,0.125 -0.25,0.25 l -0.125,0.125 0.0625,-0.0625"
       id="path8464"
       inkscape:connector-curvature="0" />
    <path
       style="fill:#582f1e;fill-opacity:1"
       d="M 22.75,19.5 V 19.25 19.4375 19.625 19.5 q 0,-0.125 -0.0625,-0.25 L 22.625,19.125 22.65625,19.1875 22.6875,19.25 23,18.96875 23.3125,18.6875 23.25,18.625 l -0.0625,-0.0625 0.125,0.125 q 0.125,0.125 0.3125,0.1875 L 23.8125,18.9375 23.53125,18.84375 23.25,18.75 23.625,18.875 24,19 23.875,19.375 Q 23.75,19.75 23.5,20 23.25,20.25 23,20.5 22.75,20.75 22.5,21 L 22.25,21.25 22,21 21.75,20.75 22,20.5 q 0.25,-0.25 0.5,-0.5 0.25,-0.25 0.25,-0.5 M 21.9375,20.5625 21.75,20.75 21.6875,20.8125 21.625,20.875 21.75,20.75 Q 21.875,20.625 22,20.5 l 0.125,-0.125 -0.1875,0.1875 m 0.25,0.75 L 22.25,21.25 22.4375,21.0625 22.625,20.875 22.5,21 q -0.125,0.125 -0.25,0.25 l -0.125,0.125 0.0625,-0.0625"
       id="path8466"
       inkscape:connector-curvature="0" />
    <path
       style="fill:#582511;fill-opacity:1"
       d="M 12.875,20.625 Q 12.75,20.25 13,20 L 13.25,19.75 13.5,20 q 0.25,0.25 0.375,0.625 L 14,21 13.875,21.375 Q 13.75,21.75 13.5,21.75 13.25,21.75 13,22 L 12.75,22.25 12.5,22 Q 12.25,21.75 12,21.5 L 11.75,21.25 11.9375,21.4375 12.125,21.625 12,21.5 q -0.125,-0.125 -0.28125,-0.21875 l -0.15625,-0.09375 0.07813,0.04687 0.07813,0.04687 0.265625,-0.265625 Q 12.25,20.75 12.625,20.875 13,21 12.875,20.625 M 12.5625,22.0625 12.75,22.25 12.8125,22.3125 12.875,22.375 12.75,22.25 Q 12.625,22.125 12.5,22 l -0.125,-0.125 0.1875,0.1875 m 0.875,-2.125 L 13.25,19.75 13.1875,19.6875 13.125,19.625 13.25,19.75 q 0.125,0.125 0.25,0.25 l 0.125,0.125 -0.1875,-0.1875"
       id="path8468"
       inkscape:connector-curvature="0" />
    <path
       style="fill:#4c1e0d;fill-opacity:1"
       d="M 13.875,20.625 13.75,20.25 13.84375,20.53125 13.9375,20.8125 13.875,20.625 Q 13.8125,20.4375 13.71875,20.28125 L 13.625,20.125 l 0.04687,0.07813 0.04687,0.07813 0.265625,-0.265625 L 14.25,19.75 14.5,20 q 0.25,0.25 0.25,0.5 0,0.25 -0.375,0.375 L 14,21 13.875,20.625 M 14.4375,19.9375 14.25,19.75 14.1875,19.6875 14.125,19.625 14.25,19.75 q 0.125,0.125 0.25,0.25 l 0.125,0.125 -0.1875,-0.1875"
       id="path8470"
       inkscape:connector-curvature="0" />
    <path
       style="fill:#4c2718;fill-opacity:1"
       d="M 16,20.5 V 20 h 0.5 0.5 l 0.125,0.375 0.125,0.375 -0.09375,-0.28125 -0.09375,-0.28125 0.0625,0.1875 q 0.0625,0.1875 0.15625,0.34375 L 17.375,20.875 17.328125,20.796875 17.28125,20.71875 16.984375,21.015625 16.6875,21.3125 16.75,21.375 l 0.0625,0.0625 -0.125,-0.125 Q 16.5625,21.1875 16.375,21.125 L 16.1875,21.0625 16.46875,21.15625 16.75,21.25 16.375,21.125 16,21 v -0.5"
       id="path8472"
       inkscape:connector-curvature="0" />
    <path
       style="fill:#4c1e0d;fill-opacity:1"
       d="M 17.125,20.375 17,20 h 0.5 0.5 l 0.125,0.375 0.125,0.375 -0.09375,-0.28125 -0.09375,-0.28125 0.0625,0.1875 q 0.0625,0.1875 0.15625,0.28125 L 18.375,20.75 18.328125,20.703125 18.28125,20.65625 17.984375,20.953125 17.6875,21.25 17.71875,21.3125 17.75,21.375 17.6875,21.25 Q 17.625,21.125 17.5,21 L 17.375,20.875 17.5625,21.0625 17.75,21.25 17.5,21 q -0.25,-0.25 -0.375,-0.625"
       id="path8474"
       inkscape:connector-curvature="0" />
    <path
       style="fill:#582511;fill-opacity:1"
       d="M 18.125,20.375 18,20 l 0.375,0.125 q 0.375,0.125 0.375,0.375 0,0.25 -0.25,0.25 -0.25,0 -0.375,-0.375"
       id="path8476"
       inkscape:connector-curvature="0" />
    <path
       style="fill:#320a05;fill-opacity:1"
       d="m 20.25,20.5 q 0,-0.25 0.25,-0.25 0.25,0 0.5,-0.28125 L 21.25,19.6875 21.1875,19.65625 21.125,19.625 21.25,19.6875 Q 21.375,19.75 21.5,19.75 H 21.625 21.4375 21.25 21.5 21.75 21.5625 21.375 21.5 q 0.125,0 0.1875,-0.0625 L 21.75,19.625 21.71875,19.65625 21.6875,19.6875 21.96875,19.96875 22.25,20.25 22,20.5 Q 21.75,20.75 21.5,21 L 21.25,21.25 21.4375,21.0625 21.625,20.875 21.5,21 q -0.125,0.125 -0.21875,0.28125 l -0.09375,0.15625 0.04687,-0.07813 0.04687,-0.07813 -0.265625,-0.265625 Q 20.75,20.75 20.5,20.75 q -0.25,0 -0.25,-0.25 M 22.0625,20.4375 22.25,20.25 22.3125,20.1875 22.375,20.125 22.25,20.25 Q 22.125,20.375 22,20.5 l -0.125,0.125 0.1875,-0.1875"
       id="path8478"
       inkscape:connector-curvature="0" />
    <path
       style="fill:#582f1e;fill-opacity:1"
       d="M 13.875,21.375 14,21 14.375,20.875 14.75,20.75 14.46875,20.84375 14.1875,20.9375 14.375,20.875 q 0.1875,-0.0625 0.28125,-0.15625 L 14.75,20.625 l -0.04687,0.04687 -0.04687,0.04687 0.328125,0.296875 0.328125,0.296875 0.0625,-0.0625 0.0625,-0.0625 -0.125,0.125 q -0.125,0.125 -0.1875,0.3125 L 15.0625,21.8125 15.15625,21.53125 15.25,21.25 15.125,21.625 15,22 14.625,22.125 q -0.375,0.125 -0.5,0.5 L 14,23 13.625,22.875 Q 13.25,22.75 13,22.5 L 12.75,22.25 13,22 q 0.25,-0.25 0.5,-0.25 0.25,0 0.375,-0.375 M 12.6875,22.1875 12.75,22.25 12.9375,22.4375 13.125,22.625 13,22.5 q -0.125,-0.125 -0.25,-0.25 l -0.125,-0.125 0.0625,0.0625"
       id="path8480"
       inkscape:connector-curvature="0" />
    <path
       style="fill:#320a05;fill-opacity:1"
       d="m 15.125,21.625 q 0.125,-0.375 0.5,-0.5 L 16,21 V 21.5 22 H 15.5 15 l 0.125,-0.375"
       id="path8482"
       inkscape:connector-curvature="0" />
    <path
       style="fill:#3b1611;fill-opacity:1"
       d="M 16,21.5 V 21 l 0.375,0.125 q 0.375,0.125 0.5,0.5 L 17,22 H 16.5 16 v -0.5"
       id="path8484"
       inkscape:connector-curvature="0" />
    <path
       style="fill:#2a0e0a;fill-opacity:1"
       d="M 16.875,21.625 16.75,21.25 16.84375,21.53125 16.9375,21.8125 16.875,21.625 q -0.0625,-0.1875 -0.1875,-0.3125 l -0.125,-0.125 0.0625,0.0625 0.0625,0.0625 0.296875,-0.296875 0.296875,-0.296875 -0.04687,-0.07813 -0.04687,-0.07813 0.09375,0.15625 Q 17.375,20.875 17.5,21 L 17.625,21.125 17.4375,20.9375 17.25,20.75 17.5,21 q 0.25,0.25 0.25,0.5 0,0.25 -0.375,0.375 L 17,22 16.875,21.625"
       id="path8486"
       inkscape:connector-curvature="0" />
    <path
       style="fill:#41180a;fill-opacity:1"
       d="M 17.75,21.5 V 21.25 21.4375 21.625 21.5 q 0,-0.125 -0.0625,-0.25 l -0.0625,-0.125 0.03125,0.0625 0.03125,0.0625 0.296875,-0.296875 0.296875,-0.296875 -0.04687,-0.04687 -0.04687,-0.04687 0.09375,0.09375 Q 18.375,20.75 18.5,20.75 H 18.625 18.4375 18.25 18.5 18.75 18.5625 18.375 18.5 q 0.125,0 0.1875,-0.0625 L 18.75,20.625 18.71875,20.65625 18.6875,20.6875 19,21 19.3125,21.3125 19.34375,21.28125 19.375,21.25 19.3125,21.3125 Q 19.25,21.375 19.25,21.5 V 21.625 21.4375 21.25 21.5 21.75 21.5625 21.375 21.5 q 0,0.125 0.0625,0.25 l 0.0625,0.125 -0.03125,-0.0625 -0.03125,-0.0625 -0.296875,0.296875 -0.296875,0.296875 0.04687,0.04687 0.04687,0.04687 -0.09375,-0.09375 Q 18.625,22.25 18.5,22.25 H 18.375 18.5625 18.75 18.5 q -0.25,0 -0.546875,-0.265625 l -0.296875,-0.265625 -0.04687,0.04687 -0.04687,0.04687 0.09375,-0.09375 Q 17.75,21.625 17.75,21.5 V 21.375 21.5625 21.75 21.5"
       id="path8488"
       inkscape:connector-curvature="0" />
    <path
       style="fill:#321714;fill-opacity:1"
       d="m 19.25,21.5 q 0,-0.25 0.25,-0.25 0.25,0 0.5,0.25 L 20.25,21.75 20.0625,21.5625 19.875,21.375 20,21.5 q 0.125,0.125 0.28125,0.21875 L 20.4375,21.8125 20.359375,21.765625 20.28125,21.71875 20,22 l -0.28125,0.28125 0.04687,0.07813 0.04687,0.07813 -0.09375,-0.15625 Q 19.625,22.125 19.5,22 L 19.375,21.875 19.5625,22.0625 19.75,22.25 19.5,22 q -0.25,-0.25 -0.25,-0.5"
       id="path8490"
       inkscape:connector-curvature="0" />
    <path
       style="fill:#3b0d07;fill-opacity:1"
       d="M 20,21.5 19.75,21.25 19.9375,21.4375 20.125,21.625 20,21.5 Q 19.875,21.375 19.75,21.3125 L 19.625,21.25 19.6875,21.28125 19.75,21.3125 20.03125,21 20.3125,20.6875 20.28125,20.65625 20.25,20.625 20.3125,20.6875 Q 20.375,20.75 20.5,20.75 H 20.625 20.4375 20.25 20.5 q 0.25,0 0.515625,0.265625 L 21.28125,21.28125 21.32812,21.20312 21.375,21.125 21.28125,21.28125 Q 21.1875,21.4375 21.125,21.625 L 21.0625,21.8125 21.15625,21.53125 21.25,21.25 21.125,21.625 21,22 20.625,21.875 Q 20.25,21.75 20,21.5"
       id="path8492"
       inkscape:connector-curvature="0" />
    <path
       style="fill:#582511;fill-opacity:1"
       d="M 21.125,21.625 Q 21.25,21.25 21.5,21 L 21.75,20.75 22,21 22.25,21.25 22,21.5 q -0.25,0.25 -0.625,0.375 L 21,22 21.125,21.625 M 21.09375,21.71875 21,22 20.96875,22.09375 20.9375,22.1875 21,22 q 0.0625,-0.1875 0.125,-0.375 l 0.0625,-0.1875 -0.09375,0.28125 M 22.0625,21.4375 22.25,21.25 22.3125,21.1875 22.375,21.125 22.25,21.25 Q 22.125,21.375 22,21.5 l -0.125,0.125 0.1875,-0.1875 m -0.25,-0.75 L 21.75,20.75 21.5625,20.9375 21.375,21.125 21.5,21 q 0.125,-0.125 0.25,-0.25 l 0.125,-0.125 -0.0625,0.0625"
       id="path8494"
       inkscape:connector-curvature="0" />
    <path
       style="fill:#3b0d07;fill-opacity:1"
       d="m 14.125,22.625 q 0.125,-0.375 0.5,-0.5 L 15,22 V 22.5 23 H 14.5 14 l 0.125,-0.375"
       id="path8496"
       inkscape:connector-curvature="0" />
    <path
       style="fill:#3b1611;fill-opacity:1"
       d="M 15,22.5 V 22 H 15.5 16 V 22.5 23 H 15.5 15 v -0.5"
       id="path8498"
       inkscape:connector-curvature="0" />
    <path
       style="fill:#2a0e0a;fill-opacity:1"
       d="M 16,22.5 V 22 h 0.5 0.5 v 0.5 Q 17,23 16.5,23 H 16 v -0.5"
       id="path8500"
       inkscape:connector-curvature="0" />
    <path
       style="fill:#320a05;fill-opacity:1"
       d="M 17,22.5 V 22 L 17.375,21.875 17.75,21.75 17.46875,21.84375 17.1875,21.9375 17.375,21.875 q 0.1875,-0.0625 0.28125,-0.15625 L 17.75,21.625 l -0.04687,0.04687 -0.04687,0.04687 0.296875,0.265625 Q 18.25,22.25 18.5,22.25 q 0.25,0 0.375,0.375 L 19,23 18.625,23.125 Q 18.25,23.25 18,23.5 17.75,23.75 17.375,23.875 17,24 16.5,24 H 16 V 23.5 23 h 0.5 Q 17,23 17,22.5"
       id="path8502"
       inkscape:connector-curvature="0" />
    <path
       style="fill:#32120d;fill-opacity:1"
       d="M 18.875,22.625 18.75,22.25 18.84375,22.53125 18.9375,22.8125 18.875,22.625 Q 18.8125,22.4375 18.71875,22.34375 L 18.625,22.25 l 0.04687,0.04687 0.04687,0.04687 0.296875,-0.296875 L 19.3125,21.75 19.28125,21.6875 19.25,21.625 19.3125,21.75 Q 19.375,21.875 19.5,22 L 19.625,22.125 19.4375,21.9375 19.25,21.75 19.5,22 q 0.25,0.25 0.375,0.625 L 20,23 H 19.5 19 l -0.125,-0.375"
       id="path8504"
       inkscape:connector-curvature="0" />
    <path
       style="fill:#3b1611;fill-opacity:1"
       d="M 19.875,22.625 19.75,22.25 19.84375,22.53125 19.9375,22.8125 19.875,22.625 Q 19.8125,22.4375 19.71875,22.28125 L 19.625,22.125 19.67187,22.20313 19.71874,22.28126 20,22 20.28125,21.71875 20.203125,21.671875 20.125,21.625 20.28125,21.71875 Q 20.4375,21.8125 20.625,21.875 L 20.8125,21.9375 20.53125,21.84375 20.25,21.75 20.625,21.875 21,22 20.875,22.375 q -0.125,0.375 -0.5,0.5 L 20,23 19.875,22.625"
       id="path8506"
       inkscape:connector-curvature="0" />
    <path
       style="fill:#32120d;fill-opacity:1"
       d="M 15.125,23.375 15,23 h 0.5 0.5 v 0.5 0.5 l -0.375,-0.125 q -0.375,-0.125 -0.5,-0.5"
       id="path8508"
       inkscape:connector-curvature="0" />
  </g>
</svg>
