<?xml version="1.0" encoding="UTF-8" standalone="no"?>
<!-- Created with Inkscape (http://www.inkscape.org/) -->

<svg
   xmlns:dc="http://purl.org/dc/elements/1.1/"
   xmlns:cc="http://creativecommons.org/ns#"
   xmlns:rdf="http://www.w3.org/1999/02/22-rdf-syntax-ns#"
   xmlns:svg="http://www.w3.org/2000/svg"
   xmlns="http://www.w3.org/2000/svg"
   xmlns:sodipodi="http://sodipodi.sourceforge.net/DTD/sodipodi-0.dtd"
   xmlns:inkscape="http://www.inkscape.org/namespaces/inkscape"
   version="1.1"
   id="svg1481"
   width="200"
   height="200"
   viewBox="0 0 200 200"
   sodipodi:docname="staff2.svg"
   inkscape:version="0.92.5 (2060ec1f9f, 2020-04-08)">
  <metadata
     id="metadata1487">
    <rdf:RDF>
      <cc:Work
         rdf:about="">
        <dc:format>image/svg+xml</dc:format>
        <dc:type
           rdf:resource="http://purl.org/dc/dcmitype/StillImage" />
        <dc:title></dc:title>
      </cc:Work>
    </rdf:RDF>
  </metadata>
  <defs
     id="defs1485" />
  <sodipodi:namedview
     pagecolor="#ffffff"
     bordercolor="#666666"
     borderopacity="1"
     objecttolerance="10"
     gridtolerance="10"
     guidetolerance="10"
     inkscape:pageopacity="0"
     inkscape:pageshadow="2"
     inkscape:window-width="1920"
     inkscape:window-height="1118"
     id="namedview1483"
     showgrid="false"
     inkscape:zoom="1.3037281"
     inkscape:cx="269.61129"
     inkscape:cy="-84.8234"
     inkscape:window-x="0"
     inkscape:window-y="24"
     inkscape:window-maximized="1"
     inkscape:current-layer="svg1481" />
  <g
     id="g1539"
     transform="matrix(3.125,0,0,3.125,50,50)">
    <path
       style="fill:#000000;fill-opacity:0"
       d="M 0,0.5 V 0 H 0.5 1 1.5 2 2.5 3 3.5 4 4.5 5 5.5 6 6.5 7 7.5 8 8.5 9 9.5 10 10.5 11 11.5 12 12.5 13 13.5 14 14.5 15 15.5 16 16.5 17 17.5 18 18.5 19 19.5 20 20.5 21 21.5 22 22.5 23 23.5 24 24.5 25 25.5 26 26.5 27 27.5 28 28.5 29 29.5 30 30.5 31 31.5 32 V 0.5 1 1.5 2 2.5 3 3.5 4 4.5 5 5.5 6 6.5 7 7.5 8 8.5 9 9.5 10 10.5 11 11.5 12 12.5 13 13.5 14 14.5 15 15.5 16 16.5 17 17.5 18 18.5 19 19.5 20 20.5 21 21.5 22 22.5 23 23.5 24 24.5 25 25.5 26 26.5 27 27.5 28 28.5 29 29.5 30 30.5 31 31.5 32 H 31.5 31 30.5 30 29.5 29 28.5 28 27.5 27 26.5 26 25.5 25 24.5 24 23.5 23 22.5 22 21.5 21 20.5 20 19.5 19 18.5 18 17.5 17 16.5 16 15.5 15 14.5 14 13.5 13 12.5 12 11.5 11 10.5 10 9.5 9 8.5 8 7.5 7 6.5 6 5.5 5 4.5 4 3.5 3 2.5 2 1.5 1 0.5 0 V 31.5 31 30.5 30 29.5 29 28.5 28 27.5 27 26.5 26 25.5 25 24.5 24 23.5 23 22.5 22 21.5 21 20.5 20 19.5 19 18.5 18 17.5 17 16.5 16 15.5 15 14.5 14 13.5 13 12.5 12 11.5 11 10.5 10 9.5 9 8.5 8 7.5 7 6.5 6 5.5 5 4.5 4 3.5 3 2.5 2 1.5 1 0.5 M 5.5,28 Q 6,28 6,27.5 V 27 H 6.5 Q 7,27 7,26.5 7,26 7.5,26 8,26 8,25.5 8,25 8.5,25 9,25 9,24.5 9,24 9.5,24 10,24 10,23.5 10,23 10.5,23 11,23 11,22.5 11,22 11.5,22 12,22 12,21.5 12,21 12.5,21 13,21 13,20.5 13,20 13.5,20 14,20 14,19.5 14,19 14.5,19 15,19 15,18.5 15,18 15.5,18 16,18 16,17.5 16,17 16.5,17 17,17 17,16.5 17,16 17.5,16 18,16 18,15.5 18,15 18.5,15 19,15 19,14.5 19,14 19.5,14 q 0.5,0 1,0 0.5,0 1,0 0.5,0 1,0 Q 23,14 23,13.5 23,13 23.5,13 24,13 24,12.5 24,12 24.5,12 25,12 25,11.5 25,11 25.5,11 26,11 26,10.5 26,10 26,9.5 26,9 25.625,8.875 25.25,8.75 25.125,8.375 25,8 24.5,8 24,8 23.625,7.875 23.25,7.75 23.125,7.375 23,7 23,6.5 23,6 22.625,5.875 22.25,5.75 22.125,5.375 22,5 21.5,5 21,5 20.875,5.375 20.75,5.75 20.375,5.875 20,6 20,6.5 20,7 19.875,7.375 19.75,7.75 19.375,7.875 19,8 18.5,8 18,8 17.875,8.375 17.75,8.75 17.375,8.875 17,9 17,9.5 q 0,0.5 0.375,0.625 0.375,0.125 0.5,0.5 0.125,0.375 0,0.75 -0.125,0.375 -0.5,0.5 -0.375,0.125 -0.5,0.5 -0.125,0.375 -0.5,0.5 -0.375,0.125 -0.5,0.5 -0.125,0.375 -0.5,0.5 -0.375,0.125 -0.5,0.5 -0.125,0.375 -0.5,0.5 -0.375,0.125 -0.5,0.5 -0.125,0.375 -0.5,0.5 -0.375,0.125 -0.5,0.5 -0.125,0.375 -0.5,0.5 -0.375,0.125 -0.5,0.5 -0.125,0.375 -0.5,0.5 -0.375,0.125 -0.5,0.5 -0.125,0.375 -0.5,0.5 Q 10,19 9.875,19.375 9.75,19.75 9.375,19.875 9,20 8.875,20.375 8.75,20.75 8.375,20.875 8,21 7.875,21.375 7.75,21.75 7.375,21.875 7,22 6.875,22.375 6.75,22.75 6.375,22.875 6,23 5.875,23.375 5.75,23.75 5.375,23.875 5,24 4.875,24.375 4.75,24.75 4.375,24.875 4,25 3.875,25.375 3.75,25.75 3.375,25.875 3,26 3,26.5 3,27 3,27.5 3,28 3.5,28 4,28 4.5,28 H 5 5.5"
       id="path1491"
       inkscape:connector-curvature="0" />
    <path
       style="fill:#000000;fill-opacity:1"
       d="M 20.875,5.375 Q 21,5 21.5,5 22,5 22.125,5.375 22.25,5.75 22.625,5.875 23,6 23,6.5 23,7 23.125,7.375 23.25,7.75 23.625,7.875 24,8 24.5,8 25,8 25.125,8.375 25.25,8.75 25.625,8.875 26,9 26,9.5 26,10 26,10.5 26,11 25.5,11 25,11 25,11.5 25,12 24.5,12 24,12 24,12.5 24,13 23.5,13 23,13 23,13.5 23,14 22.5,14 q -0.5,0 -1,0 -0.5,0 -1,0 -0.5,0 -1,0 Q 19,14 19,14.5 19,15 18.5,15 18,15 18,15.5 18,16 17.5,16 17,16 17,16.5 17,17 16.5,17 16,17 16,17.5 16,18 15.5,18 15,18 15,18.5 15,19 14.5,19 14,19 14,19.5 14,20 13.5,20 13,20 13,20.5 13,21 12.5,21 12,21 12,21.5 12,22 11.5,22 11,22 11,22.5 11,23 10.5,23 10,23 10,23.5 10,24 9.5,24 9,24 9,24.5 9,25 8.5,25 8,25 8,25.5 8,26 7.5,26 7,26 7,26.5 7,27 6.5,27 H 6 l -0.375,0.125 q -0.375,0.125 -0.5,0.5 L 5,28 H 4.5 Q 4,28 3.5,28 3,28 3,27.5 3,27 3,26.5 3,26 3.375,25.875 3.75,25.75 3.875,25.375 4,25 4.375,24.875 4.75,24.75 4.875,24.375 5,24 5.375,23.875 5.75,23.75 5.875,23.375 6,23 6.375,22.875 6.75,22.75 6.875,22.375 7,22 7.375,21.875 7.75,21.75 7.875,21.375 8,21 8.375,20.875 8.75,20.75 8.875,20.375 9,20 9.375,19.875 q 0.375,-0.125 0.5,-0.5 0.125,-0.375 0.5,-0.5 0.375,-0.125 0.5,-0.5 0.125,-0.375 0.5,-0.5 0.375,-0.125 0.5,-0.5 0.125,-0.375 0.5,-0.5 0.375,-0.125 0.5,-0.5 0.125,-0.375 0.5,-0.5 0.375,-0.125 0.5,-0.5 0.125,-0.375 0.5,-0.5 0.375,-0.125 0.5,-0.5 0.125,-0.375 0.5,-0.5 0.375,-0.125 0.5,-0.5 0.125,-0.375 0.5,-0.5 0.375,-0.125 0.5,-0.5 0.125,-0.375 0.5,-0.5 0.375,-0.125 0.5,-0.5 0.125,-0.375 0,-0.75 -0.125,-0.375 -0.5,-0.5 Q 17,10 17,9.5 17,9 17.375,8.875 17.75,8.75 17.875,8.375 18,8 18.5,8 19,8 19.375,7.875 19.75,7.75 19.875,7.375 20,7 20,6.5 20,6 20.375,5.875 20.75,5.75 20.875,5.375 M 4.25,26.5 q 0,0.25 0.25,0.25 0.25,0 0.25,-0.25 0,-0.25 -0.25,-0.25 -0.25,0 -0.25,0.25 m 1,-1 q 0,0.25 0.25,0.25 0.25,0 0.5,-0.25 Q 6.25,25.25 6.5,25 6.75,24.75 7,24.5 7.25,24.25 7.5,24 7.75,23.75 8,23.5 8.25,23.25 8.5,23 8.75,22.75 8.75,22.5 8.75,22.25 8.5,22.25 8.25,22.25 8,22.5 7.75,22.75 7.5,23 7.25,23.25 7,23.5 6.75,23.75 6.5,24 6.25,24.25 6,24.5 5.75,24.75 5.5,25 5.25,25.25 5.25,25.5 m 4,-4 q 0,0.25 0.25,0.25 0.25,0 0.25,-0.25 0,-0.25 -0.25,-0.25 -0.25,0 -0.25,0.25 m 1,-1 q 0,0.25 0.25,0.25 0.25,0 0.5,-0.25 0.25,-0.25 0.5,-0.5 0.25,-0.25 0.25,-0.5 0,-0.25 -0.25,-0.25 -0.25,0 -0.5,0.25 -0.25,0.25 -0.5,0.5 -0.25,0.25 -0.25,0.5 m 2,-2 q 0,0.25 0.25,0.25 0.25,0 0.25,-0.25 0,-0.25 -0.25,-0.25 -0.25,0 -0.25,0.25 m 1,-1 q 0,0.25 0.25,0.25 0.25,0 0.5,-0.25 0.25,-0.25 0.5,-0.5 0.25,-0.25 0.25,-0.5 0,-0.25 -0.25,-0.25 -0.25,0 -0.5,0.25 -0.25,0.25 -0.5,0.5 -0.25,0.25 -0.25,0.5 m 2,-2 q 0,0.25 0.25,0.25 0.25,0 0.5,-0.25 0.25,-0.25 0.5,-0.5 0.25,-0.25 0.5,-0.5 0.25,-0.25 0.5,-0.5 0.25,-0.25 0.25,-0.5 0,-0.25 -0.25,-0.25 -0.25,0 -0.5,0.25 -0.25,0.25 -0.5,0.5 -0.25,0.25 -0.5,0.5 -0.25,0.25 -0.5,0.5 -0.25,0.25 -0.25,0.5 m 3,-3 q 0,0.25 0.25,0.25 0.25,0 0.5,-0.25 0.25,-0.25 0.5,-0.5 0.25,-0.25 0.25,-0.5 0,-0.25 -0.25,-0.25 -0.25,0 -0.5,0.25 -0.25,0.25 -0.5,0.5 -0.25,0.25 -0.25,0.5 m 2.875,-0.125 q 0.125,0.375 0.375,0.375 0.25,0 0.375,-0.375 Q 22,12 22,11.5 V 11 11.375 11.75 11.5 q 0,-0.25 -0.125,-0.375 L 21.75,11 l 0.0625,0.0625 0.0625,0.0625 0.4375,-0.1875 Q 22.75,10.75 22.9375,10.3125 L 23.125,9.875 23.0625,9.8125 23,9.75 23.125,9.875 Q 23.25,10 23.5,10 H 23.75 23.375 23 23.5 Q 24,10 24.375,9.875 24.75,9.75 24.75,9.5 24.75,9.25 24.375,9.125 24,9 23.5,9 H 23 L 22.875,8.625 Q 22.75,8.25 22.375,8.125 L 22,8 V 7.5 Q 22,7 21.875,6.625 21.75,6.25 21.5,6.25 21.25,6.25 21.125,6.625 21,7 21.015625,7.515625 L 21.03125,8.03125 21.140625,8.015625 21.25,8 21.03125,8.03125 Q 20.8125,8.0625 20.625,8.125 L 20.4375,8.1875 20.71875,8.09375 21,8 20.625,8.125 q -0.375,0.125 -0.5,0.5 L 20,9 20.09375,8.71875 20.1875,8.4375 20.125,8.625 Q 20.0625,8.8125 20.03125,9.03125 L 20,9.25 20.015625,9.140625 20.03125,9.03125 19.515625,9.015625 Q 19,9 18.625,9.125 18.25,9.25 18.25,9.5 q 0,0.25 0.375,0.375 Q 19,10 19.5,10 H 20 l 0.125,0.375 q 0.125,0.375 0.5,0.5 L 21,11 v 0.5 q 0,0.5 0.125,0.875"
       id="path1493"
       inkscape:connector-curvature="0" />
    <path
       style="fill:#603000;fill-opacity:1"
       d="M 21.125,6.625 Q 21.25,6.25 21.5,6.25 q 0.25,0 0.375,0.375 L 22,7 21.90625,6.71875 21.8125,6.4375 21.875,6.625 q 0.0625,0.1875 0.09375,0.40625 L 22,7.25 21.984375,7.140625 21.96875,7.03125 H 21.5 21.03125 L 21.015625,7.140625 21,7.25 21.03125,7.03125 Q 21.0625,6.8125 21.125,6.625 L 21.1875,6.4375 21.09375,6.71875 21,7 21.125,6.625"
       id="path1495"
       inkscape:connector-curvature="0" />
    <path
       style="fill:#c06000;fill-opacity:1"
       d="M 21.015625,7.515625 21,7 V 7.375 7.75 7.5 Q 21,7.25 21.03125,7.03125 L 21.0625,6.8125 21.046875,6.921875 21.03125,7.03125 H 21.5 21.96875 L 21.953125,6.921875 21.9375,6.8125 21.96875,7.03125 Q 22,7.25 22,7.5 V 7.75 7.375 7 7.5 8 H 21.5 21 21.375 21.75 21.5 Q 21.25,8 21.03125,8.03125 L 20.8125,8.0625 20.921875,8.046875 21.03125,8.03125 21.015625,7.515625"
       id="path1497"
       inkscape:connector-curvature="0" />
    <path
       style="fill:#00e070;fill-opacity:1"
       d="M 20.125,8.625 Q 20.25,8.25 20.625,8.125 21,8 21.5,8 H 22 V 8.5 9 l -0.375,0.125 q -0.375,0.125 -0.5,0.5 L 21,10 H 20.5 20 V 9.5 Q 20,9 20.125,8.625"
       id="path1499"
       inkscape:connector-curvature="0" />
    <path
       style="fill:#00ff00;fill-opacity:1"
       d="M 22,8.5 V 8 l 0.375,0.125 q 0.375,0.125 0.5,0.5 L 23,9 H 22.5 22 V 8.5"
       id="path1501"
       inkscape:connector-curvature="0" />
    <path
       style="fill:#603000;fill-opacity:1"
       d="m 18.25,9.5 q 0,-0.25 0.375,-0.375 L 19,9 18.71875,9.09375 18.4375,9.1875 18.625,9.125 Q 18.8125,9.0625 19.03125,9.03125 L 19.25,9 19.140625,9.015625 19.03125,9.03125 V 9.5 9.96875 L 19.140625,9.984375 19.25,10 19.03125,9.96875 Q 18.8125,9.9375 18.625,9.875 L 18.4375,9.8125 18.71875,9.90625 19,10 18.625,9.875 Q 18.25,9.75 18.25,9.5"
       id="path1503"
       inkscape:connector-curvature="0" />
    <path
       style="fill:#c06000;fill-opacity:1"
       d="M 19.03125,9.5 V 9.03125 L 18.921875,9.046875 18.8125,9.0625 19.03125,9.03125 Q 19.25,9 19.5,9 H 19.75 19.375 19 L 19.515625,9.015625 20.03125,9.03125 20.046875,8.921875 20.0625,8.8125 20.03125,9.03125 Q 20,9.25 20,9.5 V 9.75 9.375 9 9.5 10 H 19.5 19 19.375 19.75 19.5 Q 19.25,10 19.03125,9.96875 L 18.8125,9.9375 18.921875,9.953125 19.03125,9.96875 V 9.5"
       id="path1505"
       inkscape:connector-curvature="0" />
    <path
       style="fill:#ffffff;fill-opacity:1"
       d="m 21.125,9.625 q 0.125,-0.375 0.5,-0.5 L 22,9 21.875,9.375 q -0.125,0.375 -0.5,0.5 L 21,10 21.125,9.625"
       id="path1507"
       inkscape:connector-curvature="0" />
    <path
       style="fill:#008040;fill-opacity:1"
       d="M 21.875,9.375 22,9 H 22.5 23 V 9.5 10 9.625 9.25 9.5 q 0,0.25 0.125,0.375 L 23.25,10 23.1875,9.9375 23.125,9.875 22.9375,10.3125 Q 22.75,10.75 22.3125,10.9375 L 21.875,11.125 21.9375,11.1875 22,11.25 21.875,11.125 Q 21.75,11 21.5,11 H 21.25 21.625 22 21.5 21 V 10.5 10 l 0.375,-0.125 q 0.375,-0.125 0.5,-0.5"
       id="path1509"
       inkscape:connector-curvature="0" />
    <path
       style="fill:#c06000;fill-opacity:1"
       d="M 23,9.5 V 9 H 23.5 24 23.625 23.25 23.5 q 0.25,0 0.46875,0.03125 L 24.1875,9.0625 24.078125,9.046875 23.96875,9.03125 V 9.5 9.96875 L 24.078125,9.953125 24.1875,9.9375 23.96875,9.96875 Q 23.75,10 23.5,10 H 23.25 23.625 24 23.5 Q 23,10 23,9.5"
       id="path1511"
       inkscape:connector-curvature="0" />
    <path
       style="fill:#603000;fill-opacity:1"
       d="M 23.96875,9.5 V 9.03125 L 23.859375,9.015625 23.75,9 23.96875,9.03125 Q 24.1875,9.0625 24.375,9.125 L 24.5625,9.1875 24.28125,9.09375 24,9 24.375,9.125 Q 24.75,9.25 24.75,9.5 q 0,0.25 -0.375,0.375 L 24,10 24.28125,9.90625 24.5625,9.8125 24.375,9.875 Q 24.1875,9.9375 23.96875,9.96875 L 23.75,10 23.859375,9.984375 23.96875,9.96875 V 9.5"
       id="path1513"
       inkscape:connector-curvature="0" />
    <path
       style="fill:#00ff00;fill-opacity:1"
       d="M 20.125,10.375 20,10 h 0.5 0.5 v 0.5 0.5 l -0.375,-0.125 q -0.375,-0.125 -0.5,-0.5"
       id="path1515"
       inkscape:connector-curvature="0" />
    <path
       style="fill:#a05000;fill-opacity:1"
       d="m 19,11.5 q 0.25,-0.25 0.5,-0.25 0.25,0 0.25,0.25 0,0.25 -0.25,0.5 -0.25,0.25 -0.5,0.5 -0.25,0.25 -0.5,0.25 -0.25,0 -0.25,-0.25 0,-0.25 0.25,-0.5 0.25,-0.25 0.5,-0.5"
       id="path1517"
       inkscape:connector-curvature="0" />
    <path
       style="fill:#c06000;fill-opacity:1"
       d="M 21,11.5 V 11 h 0.5 Q 22,11 22,11.5 V 12 11.625 11.25 11.5 q 0,0.25 -0.03125,0.46875 L 21.9375,12.1875 21.95313,12.078125 21.96876,11.96875 H 21.5 21.03125 l 0.01563,0.109375 0.01563,0.109375 -0.03125,-0.21875 Q 21,11.75 21,11.5 V 11.25 11.625 12 11.5"
       id="path1519"
       inkscape:connector-curvature="0" />
    <path
       style="fill:#603000;fill-opacity:1"
       d="M 21.125,12.375 21,12 21.09375,12.28125 21.1875,12.5625 21.125,12.375 Q 21.0625,12.1875 21.03125,11.96875 L 21,11.75 l 0.01563,0.109375 0.01563,0.109375 H 21.5 21.96875 L 21.984375,11.859375 22,11.75 21.96875,11.96875 Q 21.9375,12.1875 21.875,12.375 L 21.8125,12.5625 21.90625,12.28125 22,12 21.875,12.375 Q 21.75,12.75 21.5,12.75 q -0.25,0 -0.375,-0.375"
       id="path1521"
       inkscape:connector-curvature="0" />
    <path
       style="fill:#c06000;fill-opacity:1"
       d="m 17,13.5 q 0.25,-0.25 0.5,-0.25 0.25,0 0.25,0.25 0,0.25 -0.25,0.5 -0.25,0.25 -0.5,0.5 -0.25,0.25 -0.5,0.5 -0.25,0.25 -0.5,0.5 -0.25,0.25 -0.5,0.25 -0.25,0 -0.25,-0.25 0,-0.25 0.25,-0.5 0.25,-0.25 0.5,-0.5 0.25,-0.25 0.5,-0.5 0.25,-0.25 0.5,-0.5"
       id="path1523"
       inkscape:connector-curvature="0" />
    <path
       style="fill:#a05000;fill-opacity:1"
       d="m 14,16.5 q 0.25,-0.25 0.5,-0.25 0.25,0 0.25,0.25 0,0.25 -0.25,0.5 -0.25,0.25 -0.5,0.5 -0.25,0.25 -0.5,0.25 -0.25,0 -0.25,-0.25 0,-0.25 0.25,-0.5 0.25,-0.25 0.5,-0.5"
       id="path1525"
       inkscape:connector-curvature="0" />
    <path
       style="fill:#c06000;fill-opacity:1"
       d="m 12.25,18.5 q 0,-0.25 0.25,-0.25 0.25,0 0.25,0.25 0,0.25 -0.25,0.25 -0.25,0 -0.25,-0.25"
       id="path1527"
       inkscape:connector-curvature="0" />
    <path
       style="fill:#a05000;fill-opacity:1"
       d="m 11,19.5 q 0.25,-0.25 0.5,-0.25 0.25,0 0.25,0.25 0,0.25 -0.25,0.5 -0.25,0.25 -0.5,0.5 -0.25,0.25 -0.5,0.25 -0.25,0 -0.25,-0.25 0,-0.25 0.25,-0.5 0.25,-0.25 0.5,-0.5"
       id="path1529"
       inkscape:connector-curvature="0" />
    <path
       style="fill:#c06000;fill-opacity:1"
       d="m 9.25,21.5 q 0,-0.25 0.25,-0.25 0.25,0 0.25,0.25 0,0.25 -0.25,0.25 -0.25,0 -0.25,-0.25"
       id="path1531"
       inkscape:connector-curvature="0" />
    <path
       style="fill:#a05000;fill-opacity:1"
       d="m 8,22.5 q 0.25,-0.25 0.5,-0.25 0.25,0 0.25,0.25 0,0.25 -0.25,0.5 Q 8.25,23.25 8,23.5 7.75,23.75 7.5,24 7.25,24.25 7,24.5 6.75,24.75 6.5,25 6.25,25.25 6,25.5 5.75,25.75 5.5,25.75 5.25,25.75 5.25,25.5 5.25,25.25 5.5,25 5.75,24.75 6,24.5 6.25,24.25 6.5,24 6.75,23.75 7,23.5 7.25,23.25 7.5,23 7.75,22.75 8,22.5"
       id="path1533"
       inkscape:connector-curvature="0" />
    <path
       style="fill:#c06000;fill-opacity:1"
       d="m 4.25,26.5 q 0,-0.25 0.25,-0.25 0.25,0 0.25,0.25 0,0.25 -0.25,0.25 -0.25,0 -0.25,-0.25"
       id="path1535"
       inkscape:connector-curvature="0" />
    <path
       style="fill:#010101;fill-opacity:1"
       d="m 5.125,27.625 q 0.125,-0.375 0.5,-0.5 L 6,27 v 0.5 Q 6,28 5.5,28 H 5 l 0.125,-0.375"
       id="path1537"
       inkscape:connector-curvature="0" />
  </g>
</svg>
