<?xml version="1.0" encoding="UTF-8" standalone="no"?>
<!-- Created with Inkscape (http://www.inkscape.org/) -->

<svg
   xmlns:dc="http://purl.org/dc/elements/1.1/"
   xmlns:cc="http://creativecommons.org/ns#"
   xmlns:rdf="http://www.w3.org/1999/02/22-rdf-syntax-ns#"
   xmlns:svg="http://www.w3.org/2000/svg"
   xmlns="http://www.w3.org/2000/svg"
   xmlns:sodipodi="http://sodipodi.sourceforge.net/DTD/sodipodi-0.dtd"
   xmlns:inkscape="http://www.inkscape.org/namespaces/inkscape"
   version="1.1"
   id="svg1106"
   width="200"
   height="200"
   viewBox="0 0 200 200"
   sodipodi:docname="swamp.svg"
   inkscape:version="0.92.5 (2060ec1f9f, 2020-04-08)">
  <metadata
     id="metadata1112">
    <rdf:RDF>
      <cc:Work
         rdf:about="">
        <dc:format>image/svg+xml</dc:format>
        <dc:type
           rdf:resource="http://purl.org/dc/dcmitype/StillImage" />
        <dc:title></dc:title>
      </cc:Work>
    </rdf:RDF>
  </metadata>
  <defs
     id="defs1110" />
  <sodipodi:namedview
     pagecolor="#ffffff"
     bordercolor="#666666"
     borderopacity="1"
     objecttolerance="10"
     gridtolerance="10"
     guidetolerance="10"
     inkscape:pageopacity="0"
     inkscape:pageshadow="2"
     inkscape:window-width="1920"
     inkscape:window-height="1118"
     id="namedview1108"
     showgrid="false"
     inkscape:pagecheckerboard="true"
     inkscape:zoom="1.3244222"
     inkscape:cx="-5.9011824"
     inkscape:cy="67.308475"
     inkscape:window-x="0"
     inkscape:window-y="24"
     inkscape:window-maximized="1"
     inkscape:current-layer="svg1106" />
  <g
     id="g1659"
     style="display:inline"
     transform="matrix(1.8985118,0,0,1.8985118,57.164275,40.428238)">
    <path
       style="fill:#c1c382"
       d="M 13.75,62.401026 7,62.821652 V 62.033271 61.244889 L 8.25,60.260332 9.5,59.275775 12,58.646727 14.5,58.017678 15.943144,57.080452 17.386288,56.143227 16.231263,53.608221 15.076237,51.073215 11.05799,48.536608 7.0397438,46 H 5.5198719 4 L 2,44 0,42 V 39.57258 37.14516 L 2.5896819,35.108116 5.1793638,33.071072 6.991255,29.517153 8.8031461,25.963234 8.2650312,23.905479 7.7269163,21.847724 9.6124457,16.300589 11.497975,10.753453 13.883846,8.8767265 16.269717,7 17.384859,6.9999705 18.5,6.999941 21.292632,3.4999705 24.085264,0 h 3.61951 3.619511 l 4.327924,2.5363326 4.327925,2.5363327 0.61778,2.4614314 0.61778,2.4614313 -0.610551,1.591069 -0.610551,1.59107 2.015722,2.562575 2.015722,2.562575 0.05084,3.598591 0.05084,3.598592 0.06739,4.647673 0.06739,4.647674 -1.881244,3.852326 L 40.5,42.5 l -2.213031,-0.07543 -2.21303,-0.07543 -1.068691,3.065649 -1.068691,3.06565 1.722851,1.259779 1.722851,1.25978 h 0.735564 0.735563 L 41.426693,56.620841 44,62.241686 v 0.324408 0.324409 l -7,-0.06587 -7,-0.06587 v -0.856332 -0.856332 l 2.531208,-1.658511 2.531209,-1.658512 -0.613868,-0.61386 L 33.834682,56.501349 28.917341,55.393868 24,54.286387 v 1.797789 1.79779 L 25,58.5 l 1,0.618034 v 1.400726 1.400727 l -2.75,0.03046 -2.75,0.03046 -6.75,0.420627 z M 22.468615,51 H 23 v -4.083333 -4.083334 l -1.25,0.443566 -1.25,0.443566 0.261884,2.389767 L 21.023768,48.5 21.480499,49.75 21.93723,51 Z M 17.124088,30.266667 18.366667,29.033333 17.806872,28.473539 17.247077,27.913744 16.564293,29.706872 15.881509,31.5 Z"
       id="path1681"
       inkscape:connector-curvature="0" />
    <path
       style="fill:#bfb77c"
       d="M 13.75,62.401026 7,62.821652 V 62.033271 61.244889 L 8.25,60.260332 9.5,59.275775 12,58.646727 14.5,58.017678 15.943144,57.080452 17.386288,56.143227 16.231263,53.608221 15.076237,51.073215 11.05799,48.536608 7.0397438,46 H 5.5198719 4 L 2,44 0,42 V 39.57258 37.14516 L 2.5896819,35.108116 5.1793638,33.071072 6.991255,29.517153 8.8031461,25.963234 8.2650312,23.905479 7.7269163,21.847724 9.6124457,16.300589 11.497975,10.753453 13.883846,8.8767265 16.269717,7 17.384859,6.9999705 18.5,6.999941 21.292632,3.4999705 24.085264,0 h 3.61951 3.619511 l 4.327924,2.5363326 4.327925,2.5363327 0.61778,2.4614314 0.61778,2.4614313 -0.610551,1.591069 -0.610551,1.59107 2.015722,2.562575 2.015722,2.562575 0.05084,3.598591 0.05084,3.598592 0.06739,4.647673 0.06739,4.647674 -1.881244,3.852326 L 40.5,42.5 l -2.213031,-0.07543 -2.21303,-0.07543 -1.068691,3.065649 -1.068691,3.06565 1.722851,1.259779 1.722851,1.25978 h 0.735564 0.735563 L 41.426693,56.620841 44,62.241686 v 0.324408 0.324409 l -7,-0.06587 -7,-0.06587 V 61.902431 61.046099 L 32.491414,59.413662 34.982828,57.781225 34.50371,57.006004 34.024593,56.230776 29.343402,55.528788 24.66221,54.8268 26.052145,53.967773 27.442079,53.108746 26.666667,52.333333 25.891254,51.557921 24.96094,53.02896 24.030626,54.5 24.015313,56.190983 24,57.881966 25,58.5 l 1,0.618034 v 1.400726 1.400727 l -2.75,0.03046 -2.75,0.03046 -6.75,0.420627 z M 40.559017,62 H 41 V 61.559017 61.118034 L 39.845492,60.404508 38.690983,59.690983 39.404508,60.845492 40.118034,62 Z M 18,61 h 1.333333 L 18.666667,60.333333 18,59.666667 17.333333,60.333333 16.666667,61 Z m 18,-8 h 1.333333 L 36.666667,52.333333 36,51.666667 35.333333,52.333333 34.666667,53 Z M 22.468615,51 H 23 v -4.083333 -4.083334 l -1.25,0.443566 -1.25,0.443566 0.261884,2.389767 L 21.023768,48.5 21.480499,49.75 21.93723,51 Z M 7.6666667,43.666667 8.3333333,43 7.6666667,42.333333 7,41.666667 V 43 44.333333 Z M 35.559017,35 H 36 V 34 33 H 34.940983 33.881966 L 34.5,34 35.118034,35 Z M 17.124088,30.266667 18.366667,29.033333 17.806872,28.473539 17.247077,27.913744 16.564293,29.706872 15.881509,31.5 Z m 21.542579,0.4 L 39.333333,30 38.666667,29.333333 38,28.666667 V 30 31.333333 Z m -27,-7 L 12.333333,23 11.666667,22.333333 11,21.666667 V 23 24.333333 Z M 28,24 h 1.333333 L 28.666667,23.333333 28,22.666667 27.333333,23.333333 26.666667,24 Z m 9.5,-1 H 38 V 22.5 22 H 37.5 37 v 0.5 0.5 z m -1,-2 H 37 V 20.5 20 H 36.5 36 V 20.5 21 Z M 36,10 h 1.333333 L 36.666667,9.3333333 36,8.6666667 35.333333,9.3333333 34.666667,10 Z M 31,6 h 1.333333 L 31.666667,5.3333333 31,4.6666667 30.333333,5.3333333 29.666667,6 Z m 0,-2 h 1.333333 L 31.666667,3.3333333 31,2.6666667 30.333333,3.3333333 29.666667,4 Z"
       id="path1679"
       inkscape:connector-curvature="0" />
    <path
       style="fill:#b4a16d"
       d="M 13.75,62.401026 7,62.821652 V 62.033271 61.244889 L 8.25,60.260332 9.5,59.275775 12,58.646727 14.5,58.017678 15.943144,57.080452 17.386288,56.143227 16.231263,53.608221 15.076237,51.073215 11.05799,48.536608 7.0397438,46 H 5.5198719 4 L 2,44 0,42 V 39.57258 37.14516 L 2.5896819,35.108116 5.1793638,33.071072 6.991255,29.517153 8.8031461,25.963234 8.2650312,23.905479 7.7269163,21.847724 9.6124457,16.300589 11.497975,10.753453 13.883846,8.8767265 16.269717,7 17.384859,6.9999705 18.5,6.999941 21.292632,3.4999705 24.085264,0 h 3.61951 3.619511 l 4.327924,2.5363326 4.327925,2.5363327 0.61778,2.4614314 0.61778,2.4614313 -0.610551,1.591069 -0.610551,1.59107 2.015722,2.562575 2.015722,2.562575 0.05084,3.598591 0.05084,3.598592 0.06739,4.647673 0.06739,4.647674 -1.881244,3.852326 L 40.5,42.5 l -2.213031,-0.07543 -2.21303,-0.07543 -1.068691,3.065649 -1.068691,3.06565 1.722851,1.259779 1.722851,1.25978 h 0.735564 0.735563 L 41.426693,56.620841 44,62.241686 v 0.324408 0.324409 l -7,-0.06587 -7,-0.06587 V 61.902431 61.046099 L 32.491414,59.413662 34.982828,57.781225 34.50371,57.006004 34.024593,56.230776 29.262297,55.484083 24.5,54.737391 25.75,54.285362 27,53.833333 V 51.85765 49.881966 l -0.923063,0.570485 -0.923064,0.570484 -0.6781,3.087369 -0.6781,3.087369 1.101164,1.101164 L 26,59.4 v 1.259743 1.259744 l -2.75,0.03046 -2.75,0.03046 -6.75,0.420627 z M 40.559017,62 H 41 V 61 60 H 39.940983 38.881966 L 39.5,61 40.118034,62 Z M 18.416667,60.921053 20.333333,61 19.729167,60.395833 19.125,59.791667 17.8125,60.316886 16.5,60.842105 l 1.916667,0.07895 z m 18,-8 L 38.333333,53 37.729167,52.395833 37.125,51.791667 35.8125,52.316886 34.5,52.842105 l 1.916667,0.07895 z M 22.468615,51 H 23 v -4.083333 -4.083334 l -1.25,0.443566 -1.25,0.443566 0.261884,2.389767 L 21.023768,48.5 21.480499,49.75 21.93723,51 Z M 27,48 27.969374,46.5 V 45 43.5 L 27,45 26.030626,46.5 V 48 49.5 Z M 18.742636,47.590697 19.200271,47.133062 18.541119,46.066531 17.881966,45 h -1.063428 -1.063427 l 1.264945,1.524166 1.264945,1.524166 z M 8,44 H 9 V 43 42 H 8 7 v 1 1 z M 4.5,43 H 5 V 42.5 42 H 4.5 4 V 42.5 43 Z M 39,42 h 1 V 41.559017 41.118034 L 39,40.5 38,39.881966 V 40.940983 42 Z M 4.5,40 H 5 V 39.5 39 H 4.5 4 V 39.5 40 Z M 16.666667,38.666667 17.333333,38 16.666667,37.333333 16,36.666667 V 38 39.333333 Z M 4.381966,37 h 0.5 L 5.5,36 6.118034,35 h -0.5 -0.5 L 4.5,36 3.881966,37 Z M 41.5,37 H 42 V 36.5 36 H 41.5 41 V 36.5 37 Z M 21.440983,36 h 0.440983 L 22.5,35 23.118034,34 H 22.059017 21 v 1 1 z M 35.809017,34.984687 37.118034,35 36.5,34 35.881966,33 33.690983,33.015313 31.5,33.030626 33,34 l 1.5,0.969374 1.309017,0.01531 z M 23,32 h 1.333333 L 23.666667,31.333333 23,30.666667 22.333333,31.333333 21.666667,32 Z m 15.606989,0 H 39 V 30.5 29 H 38.031385 37.06277 l 0.575604,1.5 0.575604,1.5 z M 9.440983,31 H 9.881966 L 10.5,30 11.118034,29 H 10.059017 9 v 1 1 z m 7.683105,-0.733333 1.242579,-1.233334 -0.559795,-0.559794 -0.559795,-0.559795 -0.682784,1.793128 L 15.881509,31.5 Z M 12.2,24.2 13.4,23 12.2,21.8 11,20.6 V 23 25.4 Z M 28.809017,23.984687 30.5,23.969374 29,23 27.5,22.030626 26.690983,22.015313 25.881966,22 26.5,23 l 0.618034,1 1.690983,-0.01531 z m 9.398126,-0.79183 1.207143,-1.207143 -1.73833,-1.73833 -1.738331,-1.73833 0.456878,2.495473 L 36.85138,23.5 36.92569,23.95 37,24.4 Z M 24.5,14 H 25 V 13.5 13 H 24.5 24 v 0.5 0.5 z m 12,-2 H 37 V 11.5 11 H 36.5 36 V 11.5 12 Z M 21.666667,10.666667 22.333333,10 21.666667,9.3333333 21,8.6666667 V 10 11.333333 Z m 14.75,-0.7456144 L 38.333333,10 37.729167,9.3958333 37.125,8.7916667 35.8125,9.316886 34.5,9.8421053 Z M 31,9 h 1.333333 L 31.666667,8.3333333 31,7.6666667 30.333333,8.3333333 29.666667,9 Z m 0,-3 h 1.333333 L 31.666667,5.3333333 31,4.6666667 30.333333,5.3333333 29.666667,6 Z m 0,-2.1578947 h 2.5 L 32.25,3.3377193 31,2.8333333 29.75,3.3377193 28.5,3.8421053 Z"
       id="path1677"
       inkscape:connector-curvature="0" />
    <path
       style="fill:#8c8149"
       d="M 13.75,62.401026 7,62.821652 V 62.033271 61.244889 L 8.25,60.260332 9.5,59.275775 12,58.646727 14.5,58.017678 15.943144,57.080452 17.386288,56.143227 16.231263,53.608221 15.076237,51.073215 11.05799,48.536608 7.0397438,46 H 5.5198719 4 L 2,44 0,42 V 39.57258 37.14516 L 2.5896819,35.108116 5.1793638,33.071072 6.991255,29.517153 8.8031461,25.963234 8.2650312,23.905479 7.7269163,21.847724 9.6124457,16.300589 11.497975,10.753453 13.883846,8.8767265 16.269717,7 17.384859,6.9999705 18.5,6.999941 21.292632,3.4999705 24.085264,0 h 3.61951 3.619511 l 4.327924,2.5363326 4.327925,2.5363327 0.61778,2.4614314 0.61778,2.4614313 -0.610551,1.591069 -0.610551,1.59107 2.015722,2.562575 2.015722,2.562575 0.05084,3.598591 0.05084,3.598592 0.06739,4.647673 0.06739,4.647674 -1.881244,3.852326 L 40.5,42.5 l -2.213031,-0.07543 -2.21303,-0.07543 -1.068691,3.065649 -1.068691,3.06565 1.722851,1.259779 1.722851,1.25978 h 0.735564 0.735563 L 41.426693,56.620841 44,62.241686 v 0.324408 0.324409 l -7,-0.06587 -7,-0.06587 V 61.902431 61.046099 L 32.491414,59.413662 34.982828,57.781225 34.50371,57.006004 34.024593,56.230776 29.262297,55.484083 24.5,54.737391 25.75,54.285362 27,53.833333 V 51.481766 49.130199 L 27.975249,46.5651 28.950498,44 h -1 -1 l -0.838952,2.25 -0.838952,2.25 -0.684274,4.661332 -0.684273,4.661332 1.047977,0.647685 L 26,59.118034 v 1.400726 1.400727 l -2.75,0.03046 -2.75,0.03046 -6.75,0.420627 z M 10,62 h 1.333333 L 10.666667,61.333333 10,60.666667 9.3333333,61.333333 8.6666667,62 Z m 30.559017,0 H 41 V 61 60 H 39.940983 38.881966 L 39.5,61 40.118034,62 Z M 18.416667,60.921053 20.333333,61 19.729167,60.395833 19.125,59.791667 17.8125,60.316886 16.5,60.842105 l 1.916667,0.07895 z M 37.059017,54 H 38 V 53 52 H 36.440983 34.881966 L 35.5,53 36.118034,54 Z M 22.468615,51 H 23 v -4.083333 -4.083334 l -1.25,0.443566 -1.25,0.443566 0.261884,2.389767 L 21.023768,48.5 21.480499,49.75 21.93723,51 Z M 18.059017,48 H 19 v -0.940983 -0.940983 l -1.066531,-0.659153 -1.066531,-0.659152 -0.533605,0.533604 -0.533604,0.533605 0.659152,1.066531 L 17.118034,48 Z M 7.8,45 H 8.6 L 9.8,43.8 11,42.6 V 41.89362 41.187239 L 9,41.710251 7,42.233263 V 43.616631 45 Z M 4.5,43 H 5 V 42.5 42 H 4.5 4 V 42.5 43 Z M 39,42 h 1 V 41.559017 41.118034 L 39,40.5 38,39.881966 V 40.940983 42 Z M 4.4166667,39.921053 5.5,39.842105 4.188869,39.317342 2.877738,38.792579 4.5938566,36.89629 6.3099751,35 H 5.3955344 4.4810936 L 3.2994022,36.892189 2.1177108,38.784377 2.725522,39.392189 3.3333333,40 Z M 16.559017,39 H 17 v -1.559017 -1.559017 l -1.016312,0.628115 -1.016312,0.628116 0.575329,0.930901 L 16.118034,39 Z M 18.666667,38.666667 19.333333,38 18.666667,37.333333 18,36.666667 V 38 39.333333 Z M 41.5,37 H 42 V 36.5 36 H 41.5 41 V 36.5 37 Z M 21.18682,35.77106 22.375,35.375 22.770833,34.1875 23.166667,33 h -0.976345 -0.976344 l -0.607669,1.58356 -0.607669,1.58356 z M 35.273303,35 h 2.155268 l -1.618324,-1.618324 -1.618324,-1.618325 -1.112274,0.687423 -1.112273,0.687423 0.575329,0.930901 L 33.118034,35 Z M 23,32 h 1 v -1 -1 h -1 -1 v 1 1 z m 16.166667,0 H 40 V 31.122445 30.244889 L 38.5,29 37,27.755111 v 1.455778 1.455778 L 37.666667,31.333333 38.333333,32 Z M 9.440983,31 H 9.881966 L 10.5,30 11.118034,29 H 10.059017 9 v 1 1 z m 7.683105,-0.733333 1.242579,-1.233334 -0.559795,-0.559794 -0.559795,-0.559795 -0.682784,1.793128 L 15.881509,31.5 Z m -4.858523,-6.132232 1,-1 L 12.6,21.4 l -0.665565,-1.734435 -1,1 -1.0000001,1 L 10.6,23.4 11.265565,25.134435 Z M 29.205778,25 h 0.960889 l -0.4162,-1.25 -0.4162,-1.25 -1.885301,-0.365339 -1.885302,-0.36534 1.340613,1.61534 L 28.244889,25 Z m 9.051177,-1.856955 0.941719,-0.941719 -0.637404,-2.008282 -0.637404,-2.008282 -1.62915,-0.625163 -1.629151,-0.625164 -1.032782,1.032782 L 32.6,19 h 1.759017 1.759017 l -0.645107,1.043805 -0.645107,1.043805 1.243708,1.498577 1.243709,1.498576 z M 20.5,19 H 21 V 18.5 18 H 20.5 20 V 18.5 19 Z M 14,14.5 15,13.881966 V 12.440983 11 h -1 -1 v 2.059017 2.059017 z M 24.666667,13.666667 25.333333,13 24.666667,12.333333 24,11.666667 V 13 14.333333 Z M 29.822445,13 h 0.422444 l -1.231135,-1.483427 -1.231135,-1.483427 2.747379,-1.0445512 2.747379,-1.0445515 -0.5,-0.5 -0.5,-0.5 L 29.638688,7.9472708 27,8.9504983 V 9.7752492 10.6 l 1.2,1.2 1.2,1.2 z M 36,12 h 1.333333 L 36.666667,11.333333 36,10.666667 35.333333,11.333333 34.666667,12 Z M 21.604167,10.729167 22.208333,10.125 21.683114,8.8125 21.157895,7.5 21.078947,9.4166667 21,11.333333 Z M 36,9.8421053 h 2.5 L 37.25,9.3377193 36,8.8333333 34.75,9.3377193 33.5,9.8421053 Z M 31,6 h 1.333333 L 31.666667,5.3333333 31,4.6666667 30.333333,5.3333333 29.666667,6 Z M 30.559017,4 h 3.559017 L 33.5,3 32.881966,2 H 29.940983 27 v 1 1 z"
       id="path1675"
       inkscape:connector-curvature="0" />
    <path
       style="fill:#705c40"
       d="M 13.75,62.401026 7,62.821652 V 62.033271 61.244889 L 8.25,60.260332 9.5,59.275775 12,58.646727 14.5,58.017678 15.943144,57.080452 17.386288,56.143227 16.231263,53.608221 15.076237,51.073215 11.05799,48.536608 7.0397438,46 H 5.5198719 4 L 2,44 0,42 V 39.57258 37.14516 L 2.5896819,35.108116 5.1793638,33.071072 6.991255,29.517153 8.8031461,25.963234 8.2650312,23.905479 7.7269163,21.847724 9.6124457,16.300589 11.497975,10.753453 13.883846,8.8767265 16.269717,7 17.384859,6.9999705 18.5,6.999941 21.292632,3.4999705 24.085264,0 h 3.61951 3.619511 l 4.327924,2.5363326 4.327925,2.5363327 0.61778,2.4614314 0.61778,2.4614313 -0.610551,1.591069 -0.610551,1.59107 2.015722,2.562575 2.015722,2.562575 0.05084,3.598591 0.05084,3.598592 0.06739,4.647673 0.06739,4.647674 -1.881244,3.852326 L 40.5,42.5 l -2.213031,-0.07543 -2.21303,-0.07543 -1.068691,3.065649 -1.068691,3.06565 1.722851,1.259779 1.722851,1.25978 h 0.735564 0.735563 L 41.426693,56.620841 44,62.241686 v 0.324408 0.324409 l -7,-0.06587 -7,-0.06587 v -0.856332 -0.856332 l 2.531208,-1.658511 2.531209,-1.658512 -0.613868,-0.61386 L 33.834682,56.501349 28.917341,55.393868 24,54.286387 v 1.797789 1.79779 L 25,58.5 l 1,0.618034 v 1.400726 1.400727 l -2.75,0.03046 -2.75,0.03046 -6.75,0.420627 z M 9.881966,62 h 1 L 11.5,61 12.118034,60 h -1 -1 L 9.5,61 8.881966,62 Z M 15.5,61.978526 l 2,-0.0092 1.47104,-0.930314 1.471039,-0.930314 -0.572258,-0.572258 -0.572259,-0.572259 -2.898781,1.511725 -2.898781,1.511725 2,-0.0092 z M 31.6849,61.929363 32.869801,62 l 2.498462,-0.949913 2.498461,-0.949914 0.354686,1.064056 0.354685,1.064056 1.644842,-0.364143 1.644842,-0.364142 -1.30337,-1.764001 -1.30337,-1.764002 -4.37952,1.943365 -4.379519,1.943364 1.1849,0.07064 z M 22.059017,58 H 23 v -0.940983 -0.940983 l -1.066531,-0.659153 -1.066531,-0.659152 -0.533605,0.533604 -0.533604,0.533605 0.659152,1.066531 L 21.118034,58 Z M 38.25,54.936614 39,55 v -0.964816 -0.964816 l -2.107359,-1.127825 -2.10736,-1.127824 -1.062156,1.062156 -1.062157,1.062157 2.419516,0.967098 2.419516,0.967097 0.75,0.06339 z M 25.900521,54 h 0.963291 L 29.040997,50.942425 31.218183,47.884849 30.68735,47.354017 30.156518,46.823184 28.520775,49.661592 26.885032,52.5 27.507893,50 28.130753,47.5 28.682008,45.75 29.233263,44 h -1.167658 -1.167658 l -1.511168,3.616733 -1.511167,3.616733 0.530809,1.383267 L 24.93723,54 Z M 22.468615,51 H 23 v -4.083333 -4.083334 l -1.25,0.443566 -1.25,0.443566 0.261884,2.389767 L 21.023768,48.5 21.480499,49.75 21.93723,51 Z m -4.34617,-2 H 19 V 47.559017 46.118034 L 18,45.5 17,44.881966 15.951442,45.530011 14.902883,46.178055 16.073886,47.589028 17.244889,49 Z M 8.1855488,45 H 9.3710976 L 11.685549,42.825686 14,40.651372 v -0.86087 -0.86087 L 11.979333,40.01106 9.9586665,41.092489 9.0841181,40.551988 8.2095696,40.011487 7.6047848,41.587531 7,43.163575 V 44.081787 45 Z M 4.559017,44 H 5 V 43 42 H 3.940983 2.881966 L 3.5,43 4.118034,44 Z m 15.5,-2 H 21 V 41.606989 41.213978 L 19.448062,40.618443 17.896124,40.022909 18.507079,41.011454 19.118034,42 Z m 19,0 H 40 v -0.940983 -0.940983 l -1.066531,-0.659153 -1.066531,-0.659152 -0.533605,0.533604 -0.533604,0.533605 0.659152,1.066531 L 38.118034,42 Z m -35.5,-1 H 5 V 40 39 L 3.75,38.966731 2.5,38.933461 4.860784,36.966731 7.2215679,35 H 5.7657715 4.3099751 L 2.5570262,36.936987 0.80407733,38.873973 1.4610557,39.936987 2.118034,41 Z M 23.666667,39.666667 24.333333,39 23.666667,38.333333 23,37.666667 V 39 40.333333 Z M 17.115145,39 h 0.781811 L 20.594501,36.5 23.292045,34 H 24.646023 26 v -0.877555 -0.877556 l -1.431373,-1.187934 -1.431373,-1.187934 -4.043432,3.924018 -4.043432,3.924018 0.641472,0.641471 L 16.333333,39 Z M 41,37.5 42,36.881966 v -1 -1 L 41,35.5 40,36.118034 v 1 1 z M 36.218615,35.964565 37.93723,36 l -0.545934,-1.422681 -0.545934,-1.422681 -1.326229,-0.508922 -1.326229,-0.508922 -2.219693,0.580462 -2.219693,0.580463 2.373241,1.315705 2.373241,1.315705 1.718615,0.03544 z M 39.122445,33 H 40 v -1.940983 -1.940983 l -1.087132,-0.671885 -1.087133,-0.671884 -1.070486,1.070486 -1.070486,1.070486 1.280063,1.542381 L 38.244889,33 Z M 9.4164399,31.393691 11,30.786022 V 29.809678 28.833333 L 9.8125,29.229167 8.625,29.625 8.2289399,30.81318 7.8328799,32.00136 Z M 42.666667,31.666667 43.333333,31 42.666667,30.333333 42,29.666667 V 31 32.333333 Z m -25.542579,-1.4 1.242579,-1.233334 -0.559795,-0.559794 -0.559795,-0.559795 -0.682784,1.793128 L 15.881509,31.5 Z M 26.118034,27 h 1 L 26.5,26 25.881966,25 h -1 -1 L 24.5,26 25.118034,27 Z M 29.190983,25.947548 29.881966,26 30.450174,25.08062 31.018382,24.16124 29.437763,22.58062 27.857143,21 H 25.928571 24 v 0.878028 0.878028 l 2.25,1.56952 2.25,1.56952 0.690983,0.05245 z M 11.968615,25 H 13 V 23.059017 21.118034 L 12.069098,20.542705 11.138197,19.967376 10.480485,21.031575 9.8227744,22.095774 10.380002,23.547887 10.93723,25 Z M 38.25,23.969591 39,24 V 21.69113 19.382259 L 37.558569,17.44113 36.117138,15.5 l -1.74905,1.071443 -1.74905,1.071443 -0.392852,1.178557 L 31.833333,20 h 1.642351 1.64235 l -0.580049,0.93854 -0.58005,0.938539 1.771033,1.031052 1.771032,1.031052 0.75,0.03041 z M 19.666667,21.666667 20.333333,21 19.666667,20.333333 19,19.666667 V 21 22.333333 Z m 2.174584,-1.69042 0.34783,-1.043491 -1.237041,-1.490544 -1.237041,-1.490544 -0.426788,0.426787 -0.426787,0.426788 1.315998,2.107248 1.315998,2.107248 z M 25.416667,19.921053 27.333333,20 26.729167,19.395833 26.125,18.791667 24.8125,19.316886 23.5,19.842105 l 1.916667,0.07895 z M 15.03705,14.5 l 0.822379,-2 0.07029,-1.25 L 16,10 H 14.968615 13.93723 l -0.575604,1.5 -0.575604,1.5 0.714325,1.75 0.714324,1.75 z m 8.855961,0.5 h 0.893011 L 25.393011,13.418213 26,11.836425 V 11.295768 10.755111 L 24.5,12 23,13.244889 V 14.122445 15 Z M 32.05,13.969591 32.6,14 l 0.95,-0.902935 0.95,-0.902936 2,-0.528631 2,-0.528632 -4.398626,0.181567 L 29.702747,11.5 29.307331,10.367873 28.911915,9.235746 33.587587,9.762762 38.263259,10.289778 37.75663,8.894889 37.25,7.5 36.375,7.6759084 35.5,7.8518168 33.5,8.6131392 31.5,9.3744616 32.872445,7.6872308 34.244889,6 H 33.704232 33.163575 L 31.331787,5.4056678 29.5,4.8113355 31,5.890355 32.5,6.9693745 30.372445,6.9846872 28.244889,7 27,5.5 25.755111,4 30.127555,3.9681966 34.5,3.9363933 32.55887,2.4681966 30.617741,1 h -2.186426 -2.186426 l -1.15982,1.3974987 -1.159821,1.3974986 2.143357,4.1121214 2.143358,4.1121213 1.644018,0.959971 1.644019,0.959972 0.55,0.03041 z M 22.134033,10.653625 23.207249,8.8072491 22.103625,7.7036245 21,6.6 l 0.03041,2.95 0.03041,2.95 1.073216,-1.846375 z"
       id="path1673"
       inkscape:connector-curvature="0" />
    <path
       style="fill:#51401d"
       d="M 13.75,62.401026 7,62.821652 V 62.033271 61.244889 L 8.25,60.260332 9.5,59.275775 12,58.646727 14.5,58.017678 15.943144,57.080452 17.386288,56.143227 16.231263,53.608221 15.076237,51.073215 11.05799,48.536608 7.0397438,46 H 5.5198719 4 L 2,44 0,42 V 39.57258 37.14516 L 2.5896819,35.108116 5.1793638,33.071072 6.991255,29.517153 8.8031461,25.963234 8.2650312,23.905479 7.7269163,21.847724 9.6124457,16.300589 11.497975,10.753453 13.883846,8.8767265 16.269717,7 17.384859,6.9999705 18.5,6.999941 21.292632,3.4999705 24.085264,0 h 3.61951 3.619511 l 4.327924,2.5363326 4.327925,2.5363327 0.61778,2.4614314 0.61778,2.4614313 -0.610551,1.591069 -0.610551,1.59107 2.015722,2.562575 2.015722,2.562575 0.05084,3.598591 0.05084,3.598592 0.06739,4.647673 0.06739,4.647674 -1.881244,3.852326 L 40.5,42.5 l -2.213031,-0.07543 -2.21303,-0.07543 -1.068691,3.065649 -1.068691,3.06565 1.722851,1.259779 1.722851,1.25978 h 0.735564 0.735563 L 41.426693,56.620841 44,62.241686 v 0.324408 0.324409 l -7,-0.06587 -7,-0.06587 v -0.856332 -0.856332 l 2.531208,-1.658511 2.531209,-1.658512 -0.613868,-0.61386 L 33.834682,56.501349 28.917341,55.393868 24,54.286387 v 1.797789 1.79779 L 25,58.5 l 1,0.618034 v 1.400726 1.400727 l -2.75,0.03046 -2.75,0.03046 -6.75,0.420627 z M 9.690983,61.984687 10.5,61.969374 12,61 13.5,60.030626 11.809017,60.015313 10.118034,60 9.5,61 8.881966,62 Z m 7.2361,-0.475989 3.427084,-0.529531 0.513393,-0.513393 0.513392,-0.513393 L 19.940476,58.539476 18.5,57.126572 16,58.527851 l -2.5,1.401278 2,0.105721 2,0.105721 -2,0.948829 -2,0.948829 z m 19.161414,0.189953 5.588497,0.01564 L 40.600163,59.432498 39.523332,57.15071 38.511666,57.978583 37.5,58.806455 34,60.244736 l -3.5,1.43828 5.588497,0.01563 z M 24.08207,61 h 1.035964 l -0.52899,-0.855925 -0.528991,-0.855924 -1.067187,-2.806915 -1.067187,-2.806915 -1.111493,1.111493 -1.111493,1.111493 L 21.3744,58.448653 23.046106,61 Z M 38.75,55.959962 39,56 v -1.883369 -1.883368 l -2.232753,-0.583878 -2.232754,-0.583878 -0.877527,0.877527 -0.877528,0.877528 2.860281,1.549681 2.860281,1.549682 0.25,0.04004 z M 26.115388,54 h 0.997354 L 30.056371,50.777139 33,47.554277 v -1.432126 -1.432126 l -2.132901,1.904987 -2.1329,1.904988 0.655478,-2.108817 0.655479,-2.108817 -1.598793,-1.326881 -1.598794,-1.326881 -0.818027,1.323596 -0.818027,1.323596 -0.627277,3.922774 -0.627277,3.922775 0.580537,0.939327 L 25.118034,54 Z M 22.468615,51 H 23 v -4.083333 -4.083334 l -1.25,0.443566 -1.25,0.443566 0.261884,2.389767 L 21.023768,48.5 21.480499,49.75 21.93723,51 Z M 14.742636,49.590697 15.200271,49.133062 14.541119,48.066531 13.881966,47 h -1.063428 -1.063427 l 1.264945,1.524166 1.264945,1.524166 z M 18.188867,50 h 0.943978 L 18.816422,47.327119 18.5,44.654238 17.250526,44.243961 16.001052,43.833684 15.38865,45.429577 14.776249,47.02547 16.010569,48.512735 17.244889,50 Z M 8.3539773,45 H 9.7079545 L 12.410265,42.495583 15.112575,39.991167 14.49727,38.995583 13.881966,38 H 12.269724 10.657481 L 8.8287407,39.654988 7,41.309975 V 43.154988 45 Z M 5.306704,43.941193 6.5,43.882385 4.8271862,42.744995 3.1543724,41.607605 4.8271862,40.335606 6.5,39.063607 4.5,39 2.5,38.936393 4.3471992,37.53688 6.1943984,36.137367 7.8471992,36.755914 9.5,37.374462 8.1494121,35.713567 6.7988242,34.052672 3.8994121,35.552016 1,37.05136 v 1.251814 1.251814 L 2.556704,41.777494 4.1134079,44 Z m 16.13849,-2.326595 1.945194,-1.285763 0.450906,-1.414417 0.450905,-1.414418 -2.12525,1.886119 -2.125251,1.88612 -0.700759,-1.82615 -0.700759,-1.826149 1.197767,-0.399256 1.197767,-0.399255 1.410715,-1.410715 L 23.857143,34 h 2.39329 2.393289 l 4.928139,1.729159 4.928139,1.729159 -2.289807,0.345608 -2.289808,0.345609 2.447537,1.925232 L 38.815459,42 h 0.699259 0.69926 l -0.59013,-1.537854 -0.59013,-1.537854 1.483141,-0.569135 L 42,37.786022 v -1.515456 -1.515455 l -1.333412,1.106633 -1.333412,1.106634 -2.219043,-2.552123 -2.219042,-2.552124 -2.874557,0.631359 -2.874556,0.631358 L 26.122649,31.563424 23.09932,30 H 22.745077 22.390834 L 18.695417,33.38487 15,36.769741 v 0.530179 0.530178 l 2.25,2.535132 2.25,2.535131 z M 40.75,32.68593 43,32.563784 V 30.840909 29.118034 L 42,28.5 41,27.881966 V 29.140983 30.4 L 39.8,29.2 38.6,28 H 37.3 36 v 1.916667 1.916666 l 1.25,0.487372 1.25,0.487371 z M 8.8775553,32 H 9.7551106 L 11.020056,30.475834 12.285001,28.951668 11.685629,28.352295 11.086256,27.752923 9.5431281,28.345077 8,28.93723 V 30.468615 32 Z M 17.124088,30.266667 18.366667,29.033333 17.806872,28.473539 17.247077,27.913744 16.564293,29.706872 15.881509,31.5 Z M 27.809017,27.977764 29.118034,28 28.394972,26.830061 27.67191,25.660123 l 1.63202,0.626264 1.63202,0.626265 0.629986,-1.019339 0.629987,-1.01934 L 30.442974,22.936987 28.690025,21 26.595012,20.936614 24.5,20.873227 26.75,19.968838 29,19.064448 v -0.640632 -0.640632 l -2.605889,0.654037 -2.60589,0.654036 -2.3733,-1.555046 L 19.04162,15.981165 17.49513,12.990582 15.94864,10 h -1.367331 -1.367331 l -0.603403,1.572442 -0.603403,1.572442 1.163969,2.174895 1.163968,2.174895 0.415779,-1.247337 L 15.166667,15 h 1.256151 1.256152 l 1.10894,2.433858 1.10894,2.433859 -1.198425,0.40352 -1.198425,0.40352 1.381648,1.673711 1.381649,1.673711 1.370805,-1.761089 1.370805,-1.76109 -0.658544,1.877959 -0.658545,1.877959 2.406091,1.849805 2.406091,1.849805 1.309017,0.02224 z M 12.257971,26.142029 13.156355,25.243645 12.828178,22.448941 12.5,19.654238 l -1.249474,-0.410277 -1.249474,-0.410277 -0.6334019,1.650619 -0.6334018,1.650618 1.3126697,2.452746 1.31267,2.452745 z M 14.666667,26.666667 15.333333,26 14.666667,25.333333 14,24.666667 V 26 27.333333 Z M 19.559017,26 H 20 V 25.559017 25.118034 L 18.845492,24.404508 17.690983,23.690983 18.404508,24.845492 19.118034,26 Z M 38.22073,25 h 0.741166 L 39.599469,22.459705 40.237043,19.919411 38.423696,17.915685 36.610349,15.911959 34.56539,16.20598 32.520431,16.5 32.204614,18.157974 31.888797,19.815949 34.68418,22.407974 37.479563,25 Z M 23.759453,16 h 0.759453 l 1.263367,-2.022971 1.263366,-2.022971 1.911439,1.022971 L 30.868517,14 32.684259,13.9682 34.5,13.9364 l 2,-1.563025 2,-1.563026 -4.165883,0.363233 -4.165883,0.363233 0.4749,-0.768404 L 31.118034,10 h 4.593993 4.593992 L 38.171198,8.1484788 36.036376,6.2969577 36.57085,5.7624832 37.105325,5.2280087 34.417804,3.1140043 31.730283,1 H 28.333757 24.93723 L 24.318853,2.6114666 23.700475,4.2229333 25.287736,6.9099525 26.874998,9.5969718 24.937499,10.80696 23,12.016948 V 14.008474 16 Z M 33.25,5.90032 32.5,5.8006399 30,4.9824065 27.5,4.1641731 30.75,4.2947941 34,4.4254151 V 5.2127076 6 Z M 22.157043,12.277328 22.859429,10.5 22.929715,7.690983 23,4.881966 22,5.5 21,6.118034 v 2 2 L 20,9.5 19,8.881966 V 10.240983 11.6 l 1.227328,1.227328 1.227328,1.227328 z"
       id="path1671"
       inkscape:connector-curvature="0" />
    <path
       style="fill:#271f26"
       d="M 13.75,62.401026 7,62.821652 V 62.033271 61.244889 L 8.25,60.260332 9.5,59.275775 12,58.646727 14.5,58.017678 15.943144,57.080452 17.386288,56.143227 16.231263,53.608221 15.076237,51.073215 11.05799,48.536608 7.0397438,46 H 5.5198719 4 L 2,44 0,42 V 39.57258 37.14516 L 2.5896819,35.108116 5.1793638,33.071072 6.991255,29.517153 8.8031461,25.963234 8.2650312,23.905479 7.7269163,21.847724 9.6124457,16.300589 11.497975,10.753453 13.883846,8.8767265 16.269717,7 17.384859,6.9999705 18.5,6.999941 21.292632,3.4999705 24.085264,0 25.292632,0.02223585 26.5,0.04447169 24.43558,1.7722358 22.371161,3.5 20.68558,6.2148167 19,8.9296334 V 10.5 12.070367 l 1.604597,2.714816 1.604596,2.714817 -2.599629,-3 -2.59963,-3 -0.005,-1.25 L 17,9 H 16.434259 15.868517 L 13.934259,10.035184 12,11.070368 v 2.342371 2.342372 L 13.5,17 l 1.5,1.244889 1.379712,-1.145059 1.379711,-1.145059 -0.51629,4.580518 -0.516291,4.580518 2.125332,0.555787 2.125331,0.555786 -0.635457,1.13631 L 19.706591,28.5 21.053296,27.25 22.4,26 l 1.05,0.01531 1.05,0.01531 -1.327073,0.841337 -1.327072,0.841338 3.827072,0.623124 L 29.5,28.959549 29.833333,27.979775 30.166667,27 H 31.583333 33 v -0.535183 -0.535184 l -1.635458,-2.496025 -1.635459,-2.496025 0.569779,-0.569779 0.569779,-0.569779 3.555474,2.711893 3.555474,2.711892 1.632126,-0.626305 L 41.24384,23.969199 40.64692,20.9846 40.05,18 H 41.025 42 v 1.166667 1.166666 l 0.523539,-0.523538 0.523538,-0.523539 -0.628323,-1.637384 -0.628324,-1.637385 -0.93902,0.580346 -0.93902,0.580347 -1.344868,-1.116141 -1.344867,-1.116142 -3.861328,0.962133 -3.861327,0.962133 -2.202468,0.67212 -2.202467,0.67212 1.117084,-2.959494 1.117084,-2.959494 2.459806,1.276162 2.459806,1.276163 1.625577,-0.576105 L 35.5,13.689531 36.91252,12.594765 38.325039,11.5 34.91252,10.881641 31.5,10.263282 35.75,10.131641 40,10 V 8.5 7 H 38.5 37 L 37.25,5.8362136 37.5,4.6724271 33.5,2.352664 29.5,0.03290084 30.412142,0.01645042 31.324285,0 l 4.327924,2.5363326 4.327925,2.5363327 0.61778,2.4614314 0.61778,2.4614313 -0.610551,1.591069 -0.610551,1.59107 2.015722,2.562575 2.015722,2.562575 0.05084,3.598591 0.05084,3.598592 0.06739,4.647673 0.06739,4.647674 -1.881244,3.852326 L 40.5,42.5 l -2.213031,-0.07543 -2.21303,-0.07543 -1.068691,3.065649 -1.068691,3.06565 1.722851,1.259779 1.722851,1.25978 h 0.735564 0.735563 L 41.426693,56.620841 44,62.241686 v 0.324408 0.324409 l -7,-0.06587 -7,-0.06587 v -0.856332 -0.856332 l 2.531208,-1.658511 2.531209,-1.658512 -0.613868,-0.61386 L 33.834682,56.501349 28.917341,55.393868 24,54.286387 v 1.797789 1.79779 L 25,58.5 l 1,0.618034 v 1.400726 1.400727 l -2.75,0.03046 -2.75,0.03046 -6.75,0.420627 z M 14.269173,61.375294 20.5,61.003616 22.654753,60.890091 24.809506,60.776567 23.489956,57.638283 22.170407,54.5 20.835204,54.492839 19.5,54.485677 19.436557,50.992839 19.373113,47.5 19.186557,45.75 19,44 H 16.877555 14.755111 L 16,42.5 17.244889,41 H 16.322445 15.4 l -1.401772,1.25 -1.401772,1.25 1.219025,-1.623252 1.219025,-1.623252 -0.629129,-1.639483 -0.629128,-1.639483 1.23432,-1.487265 L 16.244889,34 H 15.625326 15.005762 L 11.002881,37.616362 7,41.232725 v 1.994928 1.994929 l 3.566068,-0.668999 3.566068,-0.668998 -1.065156,1.990263 -1.065157,1.990262 2.999089,2.135539 L 18,52.136188 v 2.406226 2.406226 L 15.04966,58.47432 12.09932,60 H 10.608677 9.118034 L 8.5781902,60.873486 8.0383464,61.746971 Z M 15,61 H 13.666667 L 14.333333,60.333333 15,59.666667 15.666667,60.333333 16.333333,61 Z m 21.140549,0.675174 5.640549,0.03911 L 41.583992,60.607143 41.386885,59.5 40.02242,55.832592 l -1.364466,-3.667408 -2.481103,-1.130467 -2.481102,-1.130466 -0.981178,0.981178 -0.981178,0.981178 2.696728,2.319627 2.696728,2.319628 -0.601471,1.567407 -0.60147,1.567408 -2.711954,0.997692 -2.711954,0.997693 5.640549,0.03911 z M 26.779553,53.531099 28.163575,53 h 0.734071 0.734072 l 2.285072,-4.065736 2.285071,-4.065736 -0.576765,-0.576765 -0.576764,-0.576764 -1.547058,1.283944 -1.547058,1.283944 0.634767,-1.654178 0.634768,-1.654179 -1.23432,-1.487265 L 28.755111,40 H 27.826529 26.897947 L 25.448973,43.467881 24,46.935763 v 2.865452 2.865452 l 0.697766,0.697765 0.697765,0.697766 z M 22.468615,51 H 23 v -4.083333 -4.083334 l -1.25,0.443566 -1.25,0.443566 0.261884,2.389767 L 21.023768,48.5 21.480499,49.75 21.93723,51 Z M 5.1549876,45 H 6 V 43.5 42 L 4.75,41.984687 3.5,41.969374 5,40.908556 6.5,39.847738 5.25,39.340536 4,38.833333 V 37.916667 37 H 6.5833333 9.1666667 L 8.7533857,35.760157 8.3401046,34.520314 10.716907,32.650721 13.093709,30.781128 12.720171,29.660513 12.346633,28.539899 14.294528,26.962589 16.242423,25.38528 14.729061,23.871919 13.2157,22.358557 12.844155,20.429279 12.47261,18.5 H 10.986305 9.5 l -0.3222576,2.810472 -0.3222576,2.810472 1.1848812,1.427695 1.184882,1.427695 L 9.6126241,27.595156 8,28.213978 v 2.294235 2.294235 L 4.5,34.867499 1,36.932549 v 2.204985 2.204985 L 2.6549876,43.171259 4.3099751,45 Z M 21.431567,41.631936 23.5,40.26104 23.790659,38.38052 24.081319,36.5 22.040659,38.860784 20,41.221568 V 40.692571 40.163575 L 19.443442,38.713209 18.886885,37.262843 20.693442,36.660454 22.5,36.058065 l 1.623816,-1.194323 1.623816,-1.194323 4.795745,1.342726 4.795746,1.342726 -1.714379,0.601371 -1.714378,0.601372 3.004324,2.221193 L 37.919015,42 h 1.061931 1.061932 L 40.9173,39.75 41.791722,37.5 43.065831,33.21997 44.33994,28.93994 43.16997,27.76997 42,26.6 40.823794,27.776206 39.647587,28.952413 38.367598,27.890116 37.08761,26.82782 36.043805,27.472927 35,28.118034 v 1.384279 1.384279 l 2.162968,1.515002 2.162967,1.515001 L 40.162968,33.39928 41,32.881966 v 1 1 L 39.920083,35.549392 38.840166,36.216817 37.338381,34.072719 35.836597,31.928622 32.168298,32.06405 28.5,32.199479 25.267131,30.886968 22.034263,29.574458 18.517131,32.983396 15,36.392334 v 0.796227 0.796227 l 2.181567,2.509022 2.181567,2.509022 z M 17.124088,30.266667 18.366667,29.033333 17.806872,28.473539 17.247077,27.913744 16.564293,29.706872 15.881509,31.5 Z M 23.526066,11.639719 21.872694,14.5 22.436347,12.668213 23,10.836425 V 8.7182125 6.6 l 1.089719,1.0897192 1.089719,1.0897192 z M 30.416667,4.9210526 28.5,4.8421053 29.8125,4.316886 31.125,3.7916667 31.729167,4.3958333 32.333333,5 Z"
       id="path1669"
       inkscape:connector-curvature="0" />
    <path
       style="fill:#27200f"
       d="M 13.75,62.401026 7,62.821652 V 62.033271 61.244889 L 8.25,60.260332 9.5,59.275775 12,58.646727 14.5,58.017678 15.943144,57.080452 17.386288,56.143227 16.231263,53.608221 15.076237,51.073215 11.05799,48.536608 7.0397438,46 H 5.5198719 4 L 2,44 0,42 V 39.57258 37.14516 L 2.5896819,35.108116 5.1793638,33.071072 6.991255,29.517153 8.8031461,25.963234 8.2650312,23.905479 7.7269163,21.847724 9.6124457,16.300589 11.497975,10.753453 13.883846,8.8767265 16.269717,7 h 1.250132 1.250131 L 20.38499,4.535184 21.999999,2.070368 24.25,0.96806902 26.5,-0.13422997 24.43558,1.682885 22.371161,3.5 20.68558,6.2148167 19,8.9296334 V 10.5 12.070367 l 1.604597,2.714816 1.604596,2.714817 -2.599629,-3 -2.59963,-3 -0.005,-1.25 L 17,9 H 16.434259 15.868517 L 13.934259,10.035184 12,11.070368 v 2.342371 2.342372 L 13.5,17 l 1.5,1.244889 1.379712,-1.145059 1.379711,-1.145059 -0.51629,4.580518 -0.516291,4.580518 2.125332,0.555787 2.125331,0.555786 -0.635457,1.13631 L 19.706591,28.5 21.053296,27.25 22.4,26 l 1.05,0.01531 1.05,0.01531 -1.327073,0.841337 -1.327072,0.841338 3.827072,0.623124 L 29.5,28.959549 29.833333,27.979775 30.166667,27 H 31.583333 33 v -0.535183 -0.535184 l -1.635458,-2.496025 -1.635459,-2.496025 0.569779,-0.569779 0.569779,-0.569779 3.555474,2.711893 3.555474,2.711892 1.632126,-0.626305 L 41.24384,23.969199 40.64692,20.9846 40.05,18 H 41.025 42 v 1.166667 1.166666 l 0.523539,-0.523538 0.523538,-0.523539 -0.628323,-1.637384 -0.628324,-1.637385 -0.93902,0.580346 -0.93902,0.580347 -1.344868,-1.116141 -1.344867,-1.116142 -3.861328,0.962133 -3.861327,0.962133 -2.202468,0.67212 -2.202467,0.67212 1.117084,-2.959494 1.117084,-2.959494 2.459806,1.276162 2.459806,1.276163 1.625577,-0.576105 L 35.5,13.689531 36.91252,12.594765 38.325039,11.5 34.91252,10.881641 31.5,10.263282 35.75,10.131641 40,10 V 8.5 7 H 38.5 37 L 37.25,5.8362136 37.5,4.6724271 33.5,2.352664 29.5,0.03290084 30.412142,0.01645042 31.324285,0 l 4.327924,2.5363326 4.327925,2.5363327 0.61778,2.4614314 0.61778,2.4614313 -0.610551,1.591069 -0.610551,1.59107 2.015722,2.562575 2.015722,2.562575 0.05084,3.598591 0.05084,3.598592 0.06739,4.647673 0.06739,4.647674 -1.881244,3.852326 L 40.5,42.5 l -2.213031,-0.07543 -2.21303,-0.07543 -1.068691,3.065649 -1.068691,3.06565 1.722851,1.259779 1.722851,1.25978 h 0.735564 0.735563 L 41.426693,56.620841 44,62.241686 v 0.324408 0.324409 l -7,-0.06587 -7,-0.06587 v -0.856332 -0.856332 l 2.531208,-1.658511 2.531209,-1.658512 -0.613868,-0.61386 L 33.834682,56.501349 28.917341,55.393868 24,54.286387 v 1.797789 1.79779 L 25,58.5 l 1,0.618034 v 1.400726 1.400727 l -2.75,0.03046 -2.75,0.03046 -6.75,0.420627 z M 14.269173,61.375294 20.5,61.003616 22.654753,60.890091 24.809506,60.776567 23.489956,57.638283 22.170407,54.5 20.835204,54.492839 19.5,54.485677 19.436557,50.992839 19.373113,47.5 19.186557,45.75 19,44 H 16.877555 14.755111 L 16,42.5 17.244889,41 H 16.322445 15.4 l -1.401772,1.25 -1.401772,1.25 1.219025,-1.623252 1.219025,-1.623252 -0.629129,-1.639483 -0.629128,-1.639483 1.23432,-1.487265 L 16.244889,34 H 15.625326 15.005762 L 11.002881,37.616362 7,41.232725 v 1.994928 1.994929 l 3.566068,-0.668999 3.566068,-0.668998 -1.065156,1.990263 -1.065157,1.990262 2.999089,2.135539 L 18,52.136188 v 2.406226 2.406226 L 15.04966,58.47432 12.09932,60 H 10.608677 9.118034 L 8.5781902,60.873486 8.0383464,61.746971 Z M 15,61 H 13.666667 L 14.333333,60.333333 15,59.666667 15.666667,60.333333 16.333333,61 Z m 21.140549,0.675174 5.640549,0.03911 L 41.583992,60.607143 41.386885,59.5 40.02242,55.832592 l -1.364466,-3.667408 -2.481103,-1.130467 -2.481102,-1.130466 -0.981178,0.981178 -0.981178,0.981178 2.696728,2.319627 2.696728,2.319628 -0.601471,1.567407 -0.60147,1.567408 -2.711954,0.997692 -2.711954,0.997693 5.640549,0.03911 z M 26.779553,53.531099 28.163575,53 h 0.734071 0.734072 l 2.285072,-4.065736 2.285071,-4.065736 -0.576765,-0.576765 -0.576764,-0.576764 -1.547058,1.283944 -1.547058,1.283944 0.634767,-1.654178 0.634768,-1.654179 -1.23432,-1.487265 L 28.755111,40 H 27.826529 26.897947 L 25.448973,43.467881 24,46.935763 v 2.865452 2.865452 l 0.697766,0.697765 0.697765,0.697766 z M 22.468615,51 H 23 v -4.083333 -4.083334 l -1.25,0.443566 -1.25,0.443566 0.261884,2.389767 L 21.023768,48.5 21.480499,49.75 21.93723,51 Z M 5.1549876,45 H 6 V 43.5 42 L 4.75,41.984687 3.5,41.969374 5,40.908556 6.5,39.847738 5.25,39.340536 4,38.833333 V 37.916667 37 H 6.5833333 9.1666667 L 8.7533857,35.760157 8.3401046,34.520314 10.716907,32.650721 13.093709,30.781128 12.720171,29.660513 12.346633,28.539899 14.294528,26.962589 16.242423,25.38528 14.729061,23.871919 13.2157,22.358557 12.844155,20.429279 12.47261,18.5 H 10.986305 9.5 l -0.3222576,2.810472 -0.3222576,2.810472 1.1848812,1.427695 1.184882,1.427695 L 9.6126241,27.595156 8,28.213978 v 2.294235 2.294235 L 4.5,34.867499 1,36.932549 v 2.204985 2.204985 L 2.6549876,43.171259 4.3099751,45 Z M 21.431567,41.631936 23.5,40.26104 23.790659,38.38052 24.081319,36.5 22.040659,38.860784 20,41.221568 V 40.692571 40.163575 L 19.443442,38.713209 18.886885,37.262843 20.693442,36.660454 22.5,36.058065 l 1.623816,-1.194323 1.623816,-1.194323 4.795745,1.342726 4.795746,1.342726 -1.714379,0.601371 -1.714378,0.601372 3.004324,2.221193 L 37.919015,42 h 1.061931 1.061932 L 40.9173,39.75 41.791722,37.5 43.065831,33.21997 44.33994,28.93994 43.16997,27.76997 42,26.6 40.823794,27.776206 39.647587,28.952413 38.367598,27.890116 37.08761,26.82782 36.043805,27.472927 35,28.118034 v 1.384279 1.384279 l 2.162968,1.515002 2.162967,1.515001 L 40.162968,33.39928 41,32.881966 v 1 1 L 39.920083,35.549392 38.840166,36.216817 37.338381,34.072719 35.836597,31.928622 32.168298,32.06405 28.5,32.199479 25.267131,30.886968 22.034263,29.574458 18.517131,32.983396 15,36.392334 v 0.796227 0.796227 l 2.181567,2.509022 2.181567,2.509022 z M 17.124088,30.266667 18.366667,29.033333 17.806872,28.473539 17.247077,27.913744 16.564293,29.706872 15.881509,31.5 Z M 23.526066,11.639719 21.872694,14.5 22.436347,12.668213 23,10.836425 V 8.7182125 6.6 l 1.089719,1.0897192 1.089719,1.0897192 z M 30.416667,4.9210526 28.5,4.8421053 29.8125,4.316886 31.125,3.7916667 31.729167,4.3958333 32.333333,5 Z"
       id="path1667"
       inkscape:connector-curvature="0" />
    <path
       style="fill:#1a171c"
       d="M 13.75,62.401026 7,62.821652 V 62.033271 61.244889 L 8.25,60.260332 9.5,59.275775 12,58.646727 14.5,58.017678 15.943144,57.080452 17.386288,56.143227 16.231263,53.608221 15.076237,51.073215 11.05799,48.536608 7.0397438,46 H 5.5198719 4 L 2,44 0,42 V 39.529937 37.059875 L 3,34.841879 6,32.623883 V 31.503071 30.382259 L 7.4250152,28.44113 8.8500305,26.5 7.7291001,30.094166 6.6081696,33.688332 3.8040848,35.297656 1,36.906979 v 2.391523 2.391523 L 2.8287407,43.345012 4.6574813,45 H 5.3287407 6 V 43.5 42 H 4.8088704 3.6177407 L 5.5588704,40.531803 7.5,39.063607 5.5833333,39.031803 3.6666667,39 l 0.75,-0.75 0.75,-0.75 L 6.0833333,37.375 7,37.25 8.1069888,37.125 9.2139776,37 8.6761854,35.598536 8.1383932,34.197072 9.9673509,33.718789 11.796309,33.240506 13.592893,30.498571 15.389478,27.756636 15.307022,24.128318 15.224565,20.5 l 0.863693,2.272166 0.863693,2.272165 1.524024,0.584824 L 20,26.213978 v 1.287224 1.287225 l 2.25,-0.09279 2.25,-0.0928 2.110625,0.721734 2.110625,0.721733 2.305522,-1.866899 2.305523,-1.866899 -1.666147,-2.37876 L 30,21.554988 V 20.642635 19.730283 L 32.07258,22.365141 34.14516,25 35.82258,25.03041 37.5,25.06082 35.75,26.080102 34,27.099383 v 1.37773 1.37773 l 2.652662,2.086584 2.652663,2.086585 -0.510162,0.510161 -0.510162,0.510162 L 37.020056,33.524166 35.755111,32 H 31.436572 27.118034 L 26.5,31 25.881966,30 H 23.384612 20.887258 L 17.943629,33.222861 15,36.445723 v 0.769532 0.769533 l 2.139804,2.460991 2.139804,2.46099 2.860196,-1.479064 L 25,39.94864 V 37.97432 36 h -0.639757 -0.639758 l -1.278481,1.748428 -1.278482,1.748427 -0.75876,-0.75876 -0.75876,-0.75876 1.926999,-1.457864 L 23.5,35.063607 25.522804,35.031803 27.545608,35 l 5.384991,3.546437 5.384991,3.546437 1.234653,-0.47378 1.234653,-0.473781 1.613534,-4.322657 1.613534,-4.322656 -0.573704,3 -0.573705,3 -1.517199,2.344424 -1.5172,2.344424 -1.903864,-0.497872 -1.903864,-0.497872 -1.117278,3.729139 -1.117277,3.729139 -1.961192,1.224785 -1.961193,1.224785 2.00536,-2.800476 L 33.876207,46.5 34.188103,44 34.5,41.5 H 33 31.5 L 30.782224,39.75 30.064448,38 h -1.088454 -1.088455 l -2.004738,4.532043 -2.004738,4.532043 0.310968,3.217957 L 24.5,53.5 l 5.353362,0.653362 5.353362,0.653362 0.92942,0.92942 0.929421,0.929421 -0.570829,1.487556 -0.570828,1.487556 -2.711954,1.029517 L 30.5,61.699711 37.25,61.591449 44,61.483186 v 0.703658 0.703659 l -7,-0.06587 -7,-0.06587 v -0.856332 -0.856332 l 2.531208,-1.658511 2.531209,-1.658512 -0.613868,-0.61386 L 33.834682,56.501349 28.917341,55.393868 24,54.286387 v 1.797789 1.79779 L 25,58.5 l 1,0.618034 v 1.400726 1.400727 l -2.75,0.03046 -2.75,0.03046 -6.75,0.420627 z M 14.269173,61.375294 20.5,61.003616 22.72783,60.894641 24.955659,60.785666 23.97783,58.958574 23,57.131483 V 55.17273 53.213978 L 21.64151,52.692676 20.28302,52.171375 19.629693,48.085687 18.976365,44 H 16.865738 14.755111 L 16,42.5 17.244889,41 h -1.055057 -1.055057 l -0.639536,-2.015001 -0.639536,-2.015 3.071606,-3.878219 3.071606,-3.878219 L 18.499457,28.638165 17,28.06277 16.875,29.031385 16.75,30 16.625,30.931875 16.5,31.86375 11.75,36.41505 7,40.96635 7.061104,42.733175 7.1222081,44.5 l 4.1638189,3.023639 4.163819,3.023639 1.525077,2.782816 1.525077,2.782817 -2,1.505637 -2,1.505638 -2.770809,0.567069 -2.7708099,0.567069 -0.4600173,0.744323 -0.4600174,0.744324 z M 15,61 H 13.666667 L 14.333333,60.333333 15,59.666667 15.666667,60.333333 16.333333,61 Z M 17.5,31 H 17 V 30.5 30 h 0.5 0.5 v 0.5 0.5 z m 4.968615,20 H 23 v -4.083333 -4.083334 l -1.25,0.443566 -1.25,0.443566 0.261884,2.389767 L 21.023768,48.5 21.480499,49.75 21.93723,51 Z M 42.5,60 H 42 V 59.5 59 h 0.5 0.5 v 0.5 0.5 z m -7,-9 H 35 V 50.5 50 H 35.5 36 V 50.5 51 Z M 44.698973,30.301585 44.272364,32.5 44.136182,30.110243 44,27.720485 l -1.676863,-1.226152 -1.676862,-1.226151 1.273182,-3.073734 1.273182,-3.073734 -0.750828,-1.214866 -0.750828,-1.214865 1.250627,0.77293 1.250628,0.77293 -0.476389,3.131579 -0.476388,3.131578 0.943061,1.801585 0.94306,1.801585 z M 10.9,27 H 10.4 L 9.2,25.8 8,24.6 l 8.145e-4,-2.05 8.145e-4,-2.05 1.952411,-5 1.952411,-5 0.01497,2.5 0.01497,2.5 -1.468196,1.94113 L 9,19.382259 V 21.99113 24.6 l 1.2,1.2 1.2,1.2 z m 1.6,-9 H 12 V 17.5 17 h 0.5 0.5 v 0.5 0.5 z m 21.25116,-2.347045 -3.496897,0.567469 -0.752361,-1.217346 -0.752361,-1.217346 2.198948,0.697919 2.198948,0.697919 2.926282,-1.212105 L 39,12.757359 V 11.948231 11.139102 L 36.75,10.705733 34.5,10.272364 37.358408,10.136182 40.216816,10 39.578031,7.25 38.939246,4.5 39.95431,6 40.969374,7.5 40.984687,9.5950124 41,11.690025 39.124028,13.387756 37.248056,15.085487 Z M 13.940983,10 H 12.881966 L 13.5,9 14.118034,8 H 14.559017 15 v 1 1 z M 18.511489,8.695627 18.442079,8.891254 16.97104,7.9609398 15.5,7.0306255 16.927174,7.0153128 18.354348,7 l 2.894979,-3.25 2.89498,-3.25 -2.781704,4 -2.781703,4 z"
       id="path1665"
       inkscape:connector-curvature="0" />
    <path
       style="fill:#130f05"
       d="M 13.75,62.401026 7,62.821652 V 62.033271 61.244889 L 8.25,60.260332 9.5,59.275775 12,58.646727 14.5,58.017678 15.943144,57.080452 17.386288,56.143227 16.231263,53.608221 15.076237,51.073215 11.05799,48.536608 7.0397438,46 H 5.5198719 4 L 2,44 0,42 V 39.529937 37.059875 L 3,34.841879 6,32.623883 V 31.503071 30.382259 L 7.4250152,28.44113 8.8500305,26.5 7.7291001,30.094166 6.6081696,33.688332 3.8040848,35.297656 1,36.906979 v 2.391523 2.391523 L 2.8287407,43.345012 4.6574813,45 H 5.3287407 6 V 43.5 42 H 4.8088704 3.6177407 L 5.5588704,40.531803 7.5,39.063607 5.5833333,39.031803 3.6666667,39 l 0.75,-0.75 0.75,-0.75 L 6.0833333,37.375 7,37.25 8.1069888,37.125 9.2139776,37 8.6761854,35.598536 8.1383932,34.197072 9.9673509,33.718789 11.796309,33.240506 13.592893,30.498571 15.389478,27.756636 15.307022,24.128318 15.224565,20.5 l 0.863693,2.272166 0.863693,2.272165 1.524024,0.584824 L 20,26.213978 v 1.287224 1.287225 l 2.25,-0.09279 2.25,-0.0928 2.110625,0.721734 2.110625,0.721733 2.305522,-1.866899 2.305523,-1.866899 -1.666147,-2.37876 L 30,21.554988 V 20.642635 19.730283 L 32.07258,22.365141 34.14516,25 35.82258,25.03041 37.5,25.06082 35.75,26.080102 34,27.099383 v 1.37773 1.37773 l 2.652662,2.086584 2.652663,2.086585 -0.510162,0.510161 -0.510162,0.510162 L 37.020056,33.524166 35.755111,32 H 31.436572 27.118034 L 26.5,31 25.881966,30 H 23.384612 20.887258 L 17.943629,33.222861 15,36.445723 v 0.769532 0.769533 l 2.139804,2.460991 2.139804,2.46099 2.860196,-1.479064 L 25,39.94864 V 37.97432 36 h -0.639757 -0.639758 l -1.278481,1.748428 -1.278482,1.748427 -0.75876,-0.75876 -0.75876,-0.75876 1.926999,-1.457864 L 23.5,35.063607 25.522804,35.031803 27.545608,35 l 5.384991,3.546437 5.384991,3.546437 1.234653,-0.47378 1.234653,-0.473781 1.613534,-4.322657 1.613534,-4.322656 -0.573704,3 -0.573705,3 -1.517199,2.344424 -1.5172,2.344424 -1.903864,-0.497872 -1.903864,-0.497872 -1.117278,3.729139 -1.117277,3.729139 -1.961192,1.224785 -1.961193,1.224785 2.00536,-2.800476 L 33.876207,46.5 34.188103,44 34.5,41.5 H 33 31.5 L 30.782224,39.75 30.064448,38 h -1.088454 -1.088455 l -2.004738,4.532043 -2.004738,4.532043 0.310968,3.217957 L 24.5,53.5 l 5.353362,0.653362 5.353362,0.653362 0.92942,0.92942 0.929421,0.929421 -0.570829,1.487556 -0.570828,1.487556 -2.711954,1.029517 L 30.5,61.699711 37.25,61.591449 44,61.483186 v 0.703658 0.703659 l -7,-0.06587 -7,-0.06587 v -0.856332 -0.856332 l 2.531208,-1.658511 2.531209,-1.658512 -0.613868,-0.61386 L 33.834682,56.501349 28.917341,55.393868 24,54.286387 v 1.797789 1.79779 L 25,58.5 l 1,0.618034 v 1.400726 1.400727 l -2.75,0.03046 -2.75,0.03046 -6.75,0.420627 z M 14.269173,61.375294 20.5,61.003616 22.72783,60.894641 24.955659,60.785666 23.97783,58.958574 23,57.131483 V 55.17273 53.213978 L 21.64151,52.692676 20.28302,52.171375 19.629693,48.085687 18.976365,44 H 16.865738 14.755111 L 16,42.5 17.244889,41 h -1.055057 -1.055057 l -0.639536,-2.015001 -0.639536,-2.015 3.071606,-3.878219 3.071606,-3.878219 L 18.499457,28.638165 17,28.06277 16.875,29.031385 16.75,30 16.625,30.931875 16.5,31.86375 11.75,36.41505 7,40.96635 7.061104,42.733175 7.1222081,44.5 l 4.1638189,3.023639 4.163819,3.023639 1.525077,2.782816 1.525077,2.782817 -2,1.505637 -2,1.505638 -2.770809,0.567069 -2.7708099,0.567069 -0.4600173,0.744323 -0.4600174,0.744324 z M 15,61 H 13.666667 L 14.333333,60.333333 15,59.666667 15.666667,60.333333 16.333333,61 Z M 17.5,31 H 17 V 30.5 30 h 0.5 0.5 v 0.5 0.5 z m 4.968615,20 H 23 v -4.083333 -4.083334 l -1.25,0.443566 -1.25,0.443566 0.261884,2.389767 L 21.023768,48.5 21.480499,49.75 21.93723,51 Z M 42.5,60 H 42 V 59.5 59 h 0.5 0.5 v 0.5 0.5 z m -7,-9 H 35 V 50.5 50 H 35.5 36 V 50.5 51 Z M 44.698973,30.301585 44.272364,32.5 44.136182,30.110243 44,27.720485 l -1.676863,-1.226152 -1.676862,-1.226151 1.273182,-3.073734 1.273182,-3.073734 -0.750828,-1.214866 -0.750828,-1.214865 1.250627,0.77293 1.250628,0.77293 -0.476389,3.131579 -0.476388,3.131578 0.943061,1.801585 0.94306,1.801585 z M 10.9,27 H 10.4 L 9.2,25.8 8,24.6 l 8.145e-4,-2.05 8.145e-4,-2.05 1.952411,-5 1.952411,-5 0.01497,2.5 0.01497,2.5 -1.468196,1.94113 L 9,19.382259 V 21.99113 24.6 l 1.2,1.2 1.2,1.2 z m 1.6,-9 H 12 V 17.5 17 h 0.5 0.5 v 0.5 0.5 z m 21.25116,-2.347045 -3.496897,0.567469 -0.752361,-1.217346 -0.752361,-1.217346 2.198948,0.697919 2.198948,0.697919 2.926282,-1.212105 L 39,12.757359 V 11.948231 11.139102 L 36.75,10.705733 34.5,10.272364 37.358408,10.136182 40.216816,10 39.578031,7.25 38.939246,4.5 39.95431,6 40.969374,7.5 40.984687,9.5950124 41,11.690025 39.124028,13.387756 37.248056,15.085487 Z M 14,10 H 12.666667 L 13.333333,9.3333333 14,8.6666667 14.666667,9.3333333 15.333333,10 Z M 18.29045,8.9166667 18,9.3333333 V 8.3788924 7.4244516 L 21.072153,3.9622258 24.144307,0.5 l -2.781704,4 -2.781703,4 z"
       id="path1663"
       inkscape:connector-curvature="0" />
    <path
       style="fill:#0b0805"
       d="M 13.005696,62.734015 7,62.677445 V 61.961167 61.244889 L 8.25,60.260332 9.5,59.275775 12.180073,58.636386 14.860146,57.996997 16.430073,56.42707 18,54.857143 v 1.045748 1.045749 L 15.04966,58.47432 12.09932,60 H 10.608677 9.118034 l -0.70817,1.145843 -0.7081699,1.145843 2.5562519,-0.641578 2.556252,-0.641579 1.842901,-0.598597 L 16.5,59.811336 15,60.976522 l -1.5,1.165187 3.197187,-0.38991 3.197188,-0.389911 -0.441492,0.714349 -0.441492,0.714348 z M 37,62.824636 30,62.75877 V 61.902438 61.046106 L 32.551347,59.3744 35.102693,57.702693 34.301347,56.936023 33.5,56.169352 31,55.683213 l -2.5,-0.486138 4,0.151462 4,0.151463 v 1.470467 1.470467 l -2.26771,1.130576 -2.267709,1.130576 -0.561855,0.561854 -0.561854,0.561855 6.579564,-0.171304 L 44,61.483186 v 0.703658 0.703659 l -7,-0.06587 z M 24.25,61.984687 22.5,61.969377 23.878115,61.096494 25.256231,60.22361 24.473607,58.957298 23.690983,57.690986 24.845492,58.404511 26,59.118034 V 60.559017 62 Z M 23.668645,55.857386 23.232003,57.5 23.116001,55.45 23,53.4 l -1.183333,-1.183333 -1.183334,-1.183334 0.582783,-0.582782 0.582782,-0.582782 1.850551,1.929032 1.850551,1.929033 1.5,0.648171 1.5,0.648171 -2.197357,-0.403702 -2.197356,-0.403702 z M 16.5,54 H 16 V 53.5 53 H 16.5 17 V 53.5 54 Z M 15.904988,51.918047 15.5,51.836095 l -4,-2.884826 -4,-2.884826 -2,-0.04853 -2,-0.04854 L 4.6009706,45.234687 5.7019412,44.5 6.2122987,41.75 6.7226563,39 H 5.3023111 3.881966 l 0.6281153,-1.016312 0.6281153,-1.016312 0.8502819,0.525503 0.8502819,0.525503 1.3512553,-1.351255 1.3512554,-1.351255 2.0490719,-1.09663 2.049073,-1.096631 1.337659,-4.053147 1.337659,-4.053147 1.342633,1.114286 L 19,27.244889 v 0.936573 0.936572 l -0.895215,-0.553273 -0.895215,-0.553274 -0.561111,1.462232 -0.561111,1.462231 1.110834,0.686533 1.110835,0.686534 -0.728838,-1.179285 -0.728839,-1.179285 0.82433,0.183535 0.82433,0.183535 1.766678,-0.772147 1.766679,-0.772148 2.733321,0.673987 L 27.5,30.121196 30.25,30.674097 33,31.226999 V 28.313499 25.4 l -1.25,-1.334268 -1.25,-1.334267 1.964345,1.043973 1.964346,1.043974 0.127802,3.680276 0.127802,3.680276 L 31.092148,31.646616 27.5,31.113268 24.348973,30.457661 21.197946,29.802054 19.161473,31.838527 17.125,33.875 16.795289,32.885866 16.465577,31.896732 11.669038,36.492626 6.8724979,41.088519 7.186249,43.284893 7.5,45.481267 l 2.5635,1.224545 2.563499,1.224545 1.841488,2.034822 L 16.309975,52 Z M 31.792651,50.629081 29.660591,52.5 l 2.20273,-3.040306 2.20273,-3.040307 0.216974,-2.843347 0.216975,-2.843347 -3.274467,-1.859699 -3.274468,-1.8597 -1.058124,2.32233 -1.058125,2.32233 L 22.59641,42.828977 19.358004,44 H 18.794012 18.23002 l -1.759221,-2.75 -1.759221,-2.75 2.607022,2.389377 2.607022,2.389377 2.537189,-1.66243 L 25,39.953894 v -2.083936 -2.083936 l -1.551938,0.595535 -1.551938,0.595534 0.610955,-0.988545 L 23.118034,35 h 1.480821 1.480821 l 4.210162,2.137448 4.210162,2.137449 2.5,2.018874 2.5,2.018873 -1.690359,-0.602051 -1.690359,-0.602051 -1.097286,3.32481 -1.097286,3.32481 z M 34.34003,15.581994 31.24256,16.201488 30.716772,15.350744 30.190983,14.5 32.845492,14.428475 35.5,14.35695 l 2,-0.825654 2,-0.825653 -1.03125,1.128428 -1.03125,1.128429 z"
       id="path1661"
       inkscape:connector-curvature="0" />
  </g>
</svg>
