<?xml version="1.0" encoding="UTF-8" standalone="no"?>
<!-- Created with Inkscape (http://www.inkscape.org/) -->

<svg
   xmlns:dc="http://purl.org/dc/elements/1.1/"
   xmlns:cc="http://creativecommons.org/ns#"
   xmlns:rdf="http://www.w3.org/1999/02/22-rdf-syntax-ns#"
   xmlns:svg="http://www.w3.org/2000/svg"
   xmlns="http://www.w3.org/2000/svg"
   xmlns:sodipodi="http://sodipodi.sourceforge.net/DTD/sodipodi-0.dtd"
   xmlns:inkscape="http://www.inkscape.org/namespaces/inkscape"
   version="1.1"
   id="svg166"
   width="32"
   height="32"
   viewBox="0 0 32 32"
   sodipodi:docname="agate.svg"
   inkscape:version="0.92.5 (2060ec1f9f, 2020-04-08)">
  <metadata
     id="metadata172">
    <rdf:RDF>
      <cc:Work
         rdf:about="">
        <dc:format>image/svg+xml</dc:format>
        <dc:type
           rdf:resource="http://purl.org/dc/dcmitype/StillImage" />
        <dc:title />
      </cc:Work>
    </rdf:RDF>
  </metadata>
  <defs
     id="defs170" />
  <sodipodi:namedview
     pagecolor="#ffffff"
     bordercolor="#666666"
     borderopacity="1"
     objecttolerance="10"
     gridtolerance="10"
     guidetolerance="10"
     inkscape:pageopacity="0"
     inkscape:pageshadow="2"
     inkscape:window-width="1920"
     inkscape:window-height="1118"
     id="namedview168"
     showgrid="false"
     inkscape:zoom="7.375"
     inkscape:cx="-6.0338983"
     inkscape:cy="16"
     inkscape:window-x="0"
     inkscape:window-y="24"
     inkscape:window-maximized="1"
     inkscape:current-layer="svg166" />
  <g
     id="g198"
     transform="translate(0,6)">
    <path
       style="fill:#000000;fill-opacity:0"
       d="M 0,0.5 V 0 H 0.5 1 1.5 2 2.5 3 3.5 4 4.5 5 5.5 6 6.5 7 7.5 8 8.5 9 9.5 10 10.5 11 11.5 12 12.5 13 13.5 14 14.5 15 15.5 16 16.5 17 17.5 18 18.5 19 19.5 20 20.5 21 21.5 22 22.5 23 23.5 24 24.5 25 25.5 26 26.5 27 27.5 28 28.5 29 29.5 30 30.5 31 31.5 32 V 0.5 1 1.5 2 2.5 3 3.5 4 4.5 5 5.5 6 6.5 7 7.5 8 8.5 9 9.5 10 10.5 11 11.5 12 12.5 13 13.5 14 14.5 15 15.5 16 16.5 17 17.5 18 18.5 19 19.5 20 20.5 21 21.5 22 22.5 23 23.5 24 24.5 25 25.5 26 26.5 27 27.5 28 28.5 29 29.5 30 30.5 31 31.5 32 H 31.5 31 30.5 30 29.5 29 28.5 28 27.5 27 26.5 26 25.5 25 24.5 24 23.5 23 22.5 22 21.5 21 20.5 20 19.5 19 18.5 18 17.5 17 16.5 16 15.5 15 14.5 14 13.5 13 12.5 12 11.5 11 10.5 10 9.5 9 8.5 8 7.5 7 6.5 6 5.5 5 4.5 4 3.5 3 2.5 2 1.5 1 0.5 0 V 31.5 31 30.5 30 29.5 29 28.5 28 27.5 27 26.5 26 25.5 25 24.5 24 23.5 23 22.5 22 21.5 21 20.5 20 19.5 19 18.5 18 17.5 17 16.5 16 15.5 15 14.5 14 13.5 13 12.5 12 11.5 11 10.5 10 9.5 9 8.5 8 7.5 7 6.5 6 5.5 5 4.5 4 3.5 3 2.5 2 1.5 1 0.5 M 19.5,24 Q 20,24 20,23.5 20,23 20.5,23 21,23 21.5,23 22,23 22,22.5 22,22 22.5,22 23,22 23,21.5 23,21 23.5,21 24,21 24,20.5 24,20 23.5,20 23,20 23,19.5 23,19 22.625,19.125 22.25,19.25 21.984375,18.984375 L 21.71875,18.71875 21.671875,18.796875 21.625,18.875 21.71875,18.71875 Q 21.8125,18.5625 21.875,18.375 L 21.9375,18.1875 21.84375,18.46875 21.75,18.75 21.875,18.375 Q 22,18 22,17.5 22,17 22,16.5 22,16 21.875,15.625 21.75,15.25 21.5,15 21.25,14.75 21,14.5 20.75,14.25 20.5,14 20.25,13.75 20,13.5 19.75,13.25 19.375,13.125 19,13 18.625,12.875 18.25,12.75 18,12.5 17.75,12.25 17.375,12.125 17,12 16.5,12 q -0.5,0 -1,0 -0.5,0 -1,0 -0.5,0 -1,0 Q 13,12 12.625,12.125 12.25,12.25 12,12.5 11.75,12.75 11.375,12.875 11,13 10.625,13.125 10.25,13.25 10,13.5 9.75,13.75 9.5,14 9.25,14.25 9.125,14.625 L 9,15 9.09375,14.71875 9.1875,14.4375 9.125,14.625 Q 9.0625,14.8125 9.0625,15 V 15.1875 15.09375 15 L 8.65625,15.125 Q 8.25,15.25 8.125,15.625 8,16 8,16.5 8,17 8,17.5 8,18 8.125,18.375 L 8.25,18.75 8.15625,18.46875 8.0625,18.1875 8.125,18.375 q 0.0625,0.1875 0.1875,0.3125 l 0.125,0.125 L 8.375,18.75 8.3125,18.6875 8.03125,18.96875 Q 7.75,19.25 7.875,19.625 8,20 8,20.5 8,21 8,21.5 8,22 8.5,22 9,22 9,22.5 9,23 9.5,23 q 0.5,0 1,0 0.5,0 0.5,0.5 0,0.5 0.5,0.5 0.5,0 1,0 0.5,0 1,0 0.5,0 1,0 0.5,0 1,0 0.5,0 1,0 0.5,0 1,0 0.5,0 1,0 0.5,0 1,0"
       id="path176"
       inkscape:connector-curvature="0" />
    <path
       style="fill:#60c000;fill-opacity:1"
       d="M 12,12.5 Q 12.25,12.25 12.625,12.125 13,12 13.5,12 q 0.5,0 1,0 H 15 v 0.5 q 0,0.5 -0.125,0.875 -0.125,0.375 -0.5,0.5 Q 14,14 13.5,14 q -0.5,0 -0.875,0.125 -0.375,0.125 -0.5,0.5 L 12,15 H 11.5 11 11.375 11.75 11.5 q -0.25,0 -0.46875,0.03125 L 10.8125,15.0625 10.921875,15.04687 11.03125,15.03124 11.01562,14.515615 Q 11,14 11,13.5 V 13 l 0.375,-0.125 Q 11.75,12.75 12,12.5 M 11.28125,12.90625 11,13 10.90625,13.03125 10.8125,13.0625 11,13 q 0.1875,-0.0625 0.375,-0.125 l 0.1875,-0.0625 -0.28125,0.09375 M 11.625,15 H 12 12.125 12.25 12 q -0.25,0 -0.5,0 h -0.25 0.375 m 3.5,-3 H 15 14.625 14.25 14.5 q 0.25,0 0.5,0 h 0.25 -0.125"
       id="path178"
       inkscape:connector-curvature="0" />
    <path
       style="fill:#50a000;fill-opacity:1"
       d="M 15,12.5 V 12 h 0.5 q 0.5,0 1,0 0.5,0 0.875,0.125 0.375,0.125 0.625,0.375 0.25,0.25 0.625,0.375 L 19,13 18.875,13.375 q -0.125,0.375 -0.5,0.5 Q 18,14 17.625,14.125 17.25,14.25 17,14.5 16.75,14.75 16.375,14.875 16,15 15.5,15 q -0.5,0 -1,0 -0.5,0 -1,0 -0.5,0 -1,0 H 12 l 0.125,-0.375 q 0.125,-0.375 0.5,-0.5 Q 13,14 13.5,14 q 0.5,0 0.875,-0.125 0.375,-0.125 0.5,-0.5 Q 15,13 15,12.5 M 11.875,15 H 12 12.375 12.75 12.5 q -0.25,0 -0.5,0 h -0.25 0.125 M 19.09375,13.03125 19,13 18.71875,12.90625 18.4375,12.8125 18.625,12.875 Q 18.8125,12.9375 19,13 l 0.1875,0.0625 -0.09375,-0.03125 M 15.375,12 H 15 14.875 14.75 15 q 0.25,0 0.5,0 h 0.25 -0.375"
       id="path180"
       inkscape:connector-curvature="0" />
    <path
       style="fill:#50a000;fill-opacity:1"
       d="m 10,13.5 q 0.25,-0.25 0.625,-0.375 L 11,13 v 0.5 q 0,0.5 0.01563,1.015625 L 11.03126,15.03125 11.140635,15.01562 11.25,15 11.03125,15.03125 Q 10.8125,15.0625 10.625,15.125 L 10.4375,15.1875 10.71875,15.09375 11,15 10.625,15.125 Q 10.25,15.25 10,15.5 9.75,15.75 9.5,15.75 9.25,15.75 9.125,15.375 9,15 9.125,14.625 9.25,14.25 9.5,14 9.75,13.75 10,13.5 M 11.09375,12.96875 11,13 10.71875,13.09375 10.4375,13.1875 10.625,13.125 Q 10.8125,13.0625 11,13 l 0.1875,-0.0625 -0.09375,0.03125"
       id="path182"
       inkscape:connector-curvature="0" />
    <path
       style="fill:#408000;fill-opacity:1"
       d="M 18.875,13.375 19,13 19.375,13.125 Q 19.75,13.25 20,13.5 q 0.25,0.25 0.5,0.5 0.25,0.25 0.5,0.5 0.25,0.25 0.5,0.5 0.25,0.25 0.375,0.625 L 22,16 21.90625,15.71875 21.8125,15.4375 21.875,15.625 q 0.0625,0.1875 0.09375,0.40625 L 22,16.25 21.984375,16.140625 21.96875,16.03125 21.484375,16.015625 Q 21,16 20.625,15.875 20.25,15.75 20,15.5 19.75,15.25 19.375,15.125 19,15 18.625,15.125 q -0.375,0.125 -0.5,0.5 L 18,16 18.09375,15.71875 18.1875,15.4375 18.125,15.625 Q 18.0625,15.8125 18.0625,16 V 16.1875 16.09375 16 H 17.53125 Q 17,16 16.5,16 q -0.5,0 -1,0 -0.5,0 -1,0 -0.5,0 -1,0 Q 13,16 12.625,16.125 12.25,16.25 12,16.5 11.75,16.75 11.375,16.875 11,17 10.5,17 10,17 9.625,17.125 9.25,17.25 9.125,17.625 9,18 9,18.5 V 19 L 8.625,18.875 Q 8.25,18.75 8.125,18.375 8,18 8,17.5 8,17 8,16.5 8,16 8.125,15.625 8.25,15.25 8.65625,15.125 L 9.0625,15 V 14.90625 14.8125 15 q 0,0.1875 0.0625,0.375 L 9.1875,15.5625 9.09375,15.28125 9,15 9.125,15.375 Q 9.25,15.75 9.5,15.75 9.75,15.75 10,15.5 10.25,15.25 10.625,15.125 11,15 11.5,15 q 0.5,0 1,0 0.5,0 1,0 0.5,0 1,0 0.5,0 1,0 0.5,0 0.875,-0.125 Q 16.75,14.75 17,14.5 17.25,14.25 17.625,14.125 18,14 18.375,13.875 q 0.375,-0.125 0.5,-0.5 M 19.28125,13.09375 19,13 18.90625,12.96875 18.8125,12.9375 19,13 q 0.1875,0.0625 0.375,0.125 l 0.1875,0.0625 -0.28125,-0.09375"
       id="path184"
       inkscape:connector-curvature="0" />
    <path
       style="fill:#306000;fill-opacity:1"
       d="m 18.125,15.625 q 0.125,-0.375 0.5,-0.5 Q 19,15 19.375,15.125 19.75,15.25 20,15.5 20.25,15.75 20.625,15.875 21,16 21.484375,16.015625 l 0.484375,0.01563 -0.01563,-0.109375 -0.01563,-0.109375 0.03125,0.21875 Q 22,16.25 22,16.5 V 16.75 16.375 16 16.5 q 0,0.5 0,1 0,0.5 -0.125,0.875 Q 21.75,18.75 21.5,19 q -0.25,0.25 -0.5,0.5 -0.25,0.25 -0.5,0.5 -0.25,0.25 -0.5,0.5 -0.25,0.25 -0.5,0.5 -0.25,0.25 -0.5,0.5 -0.25,0.25 -0.625,0.375 -0.375,0.125 -0.75,0 -0.375,-0.125 -0.5,-0.5 L 17,21 17.09375,21.28125 17.1875,21.5625 17.125,21.375 Q 17.0625,21.1875 17.0625,21 V 20.8125 20.90625 21 h 0.46875 Q 18,21 18.375,20.875 18.75,20.75 19,20.5 19.25,20.25 19.5,20 19.75,19.75 20,19.5 20.25,19.25 20.5,19 20.75,18.75 20.875,18.375 21,18 20.875,17.625 20.75,17.25 20.375,17.125 20,17 19.5,17 19,17 18.625,16.875 18.25,16.75 18.125,16.375 18,16 18.125,15.625"
       id="path186"
       inkscape:connector-curvature="0" />
    <path
       style="fill:#000000;fill-opacity:0"
       d="M 12,16.5 Q 12.25,16.25 12.625,16.125 13,16 13.5,16 q 0.5,0 1,0 0.5,0 1,0 0.5,0 1,0 0.5,0 1.03125,0 H 18.0625 V 15.90625 15.8125 16 q 0,0.1875 0.0625,0.375 L 18.1875,16.5625 18.09375,16.28125 18,16 l 0.125,0.375 q 0.125,0.375 0.5,0.5 Q 19,17 19.5,17 H 20 19.625 19.25 19.5 q 0.25,0 0.46875,0.03125 L 20.1875,17.0625 20.078125,17.04687 19.96875,17.03124 19.859375,17.390615 Q 19.75,17.75 19.5,18 19.25,18.25 19,18.5 18.75,18.75 18.5,19 L 18.25,19.25 18,19 Q 17.75,18.75 17.375,18.875 17,19 16.5,19 q -0.5,0 -1,0 -0.5,0 -1,0 -0.5,0 -1,0 Q 13,19 12.625,18.875 12.25,18.75 12,19 L 11.75,19.25 11.5,19 Q 11.25,18.75 11,18.5 10.75,18.25 10.5,18 10.25,17.75 10.140625,17.390625 L 10.03125,17.03125 9.921875,17.046875 9.8125,17.0625 10.03125,17.03125 Q 10.25,17 10.5,17 H 10.75 10.375 10 10.5 Q 11,17 11.375,16.875 11.75,16.75 12,16.5 M 11.5625,19.0625 11.75,19.25 11.8125,19.3125 11.875,19.375 11.75,19.25 Q 11.625,19.125 11.5,19 l -0.125,-0.125 0.1875,0.1875 m 6.625,0.25 L 18.25,19.25 18.4375,19.0625 18.625,18.875 18.5,19 q -0.125,0.125 -0.25,0.25 l -0.125,0.125 0.0625,-0.0625"
       id="path188"
       inkscape:connector-curvature="0" />
    <path
       style="fill:#204000;fill-opacity:1"
       d="m 9.125,17.625 q 0.125,-0.375 0.5,-0.5 L 10,17 9.71875,17.09375 9.4375,17.1875 9.625,17.125 q 0.1875,-0.0625 0.40625,-0.09375 L 10.25,17 l -0.109375,0.01563 -0.109375,0.01563 0.109375,0.359375 Q 10.25,17.75 10.5,18 q 0.25,0.25 0.5,0.5 0.25,0.25 0.5,0.5 0.25,0.25 0.5,0.5 0.25,0.25 0.5,0.5 0.25,0.25 0.375,0.625 L 13,21 12.90625,20.71875 12.8125,20.4375 12.875,20.625 Q 12.9375,20.8125 12.9375,21 V 21.1875 21.09375 21 H 12.46875 Q 12,21 11.625,20.875 11.25,20.75 11,20.5 10.75,20.25 10.5,20 10.25,19.75 10,19.5 9.75,19.25 9.375,19.125 L 9,19 V 18.5 Q 9,18 9.125,17.625"
       id="path190"
       inkscape:connector-curvature="0" />
    <path
       style="fill:#204000;fill-opacity:1"
       d="M 19.859375,17.390625 19.96875,17.03125 19.859375,17.015625 19.75,17 19.96875,17.03125 Q 20.1875,17.0625 20.375,17.125 L 20.5625,17.1875 20.28125,17.09375 20,17 l 0.375,0.125 q 0.375,0.125 0.5,0.5 0.125,0.375 0,0.75 Q 20.75,18.75 20.5,19 20.25,19.25 20,19.5 19.75,19.75 19.5,20 19.25,20.25 19,20.5 18.75,20.75 18.375,20.875 18,21 17.53125,21 H 17.0625 V 21.09375 21.1875 21 q 0,-0.1875 0.0625,-0.375 L 17.1875,20.4375 17.09375,20.71875 17,21 17.125,20.625 Q 17.25,20.25 17.5,20 q 0.25,-0.25 0.5,-0.5 0.25,-0.25 0.5,-0.5 0.25,-0.25 0.5,-0.5 0.25,-0.25 0.5,-0.5 0.25,-0.25 0.359375,-0.609375"
       id="path192"
       inkscape:connector-curvature="0" />
    <path
       style="fill:#000000;fill-opacity:1"
       d="M 7.875,19.625 Q 7.75,19.25 8.03125,18.96875 L 8.3125,18.6875 8.25,18.625 8.1875,18.5625 l 0.125,0.125 q 0.125,0.125 0.3125,0.1875 L 8.8125,18.9375 8.53125,18.84375 8.25,18.75 8.625,18.875 9,19 9.125,19.375 Q 9.25,19.75 9.5,20 q 0.25,0.25 0.5,0.5 0.25,0.25 0.5,0.5 0.25,0.25 0.5,0.5 0.25,0.25 0.625,0.375 0.375,0.125 0.75,0 0.375,-0.125 0.5,-0.5 Q 13,21 12.875,20.625 12.75,20.25 12.5,20 12.25,19.75 12,19.5 L 11.75,19.25 12,19 Q 12.25,18.75 12.625,18.875 13,19 13.5,19 q 0.5,0 1,0 0.5,0 1,0 0.5,0 1,0 0.5,0 0.875,-0.125 Q 17.75,18.75 18,19 L 18.25,19.25 18,19.5 q -0.25,0.25 -0.5,0.5 -0.25,0.25 -0.375,0.625 -0.125,0.375 0,0.75 0.125,0.375 0.5,0.5 0.375,0.125 0.75,0 Q 18.75,21.75 19,21.5 19.25,21.25 19.5,21 19.75,20.75 20,20.5 20.25,20.25 20.5,20 20.75,19.75 21,19.5 21.25,19.25 21.5,19 L 21.75,18.75 21.5625,18.9375 21.375,19.125 21.5,19 q 0.125,-0.125 0.21875,-0.28125 l 0.09375,-0.15625 -0.04687,0.07813 -0.04687,0.07813 0.265625,0.265625 Q 22.25,19.25 22.625,19.125 23,19 23,19.5 23,20 23.5,20 24,20 24,20.5 24,21 23.5,21 23,21 23,21.5 23,22 22.5,22 22,22 22,22.5 22,23 21.5,23 21,23 20.5,23 20,23 20,23.5 20,24 19.5,24 q -0.5,0 -1,0 -0.5,0 -1,0 -0.5,0 -1,0 -0.5,0 -1,0 -0.5,0 -1,0 -0.5,0 -1,0 -0.5,0 -1,0 -0.5,0 -1,0 Q 11,24 11,23.5 11,23 10.5,23 10,23 9.5,23 9,23 9,22.5 9,22 8.5,22 8,22 8,21.5 8,21 8,20.5 8,20 7.875,19.625 M 18.0625,19.4375 18.25,19.25 18.3125,19.1875 18.375,19.125 18.25,19.25 Q 18.125,19.375 18,19.5 l -0.125,0.125 0.1875,-0.1875 m -6.375,-0.25 L 11.75,19.25 11.9375,19.4375 12.125,19.625 12,19.5 q -0.125,-0.125 -0.25,-0.25 l -0.125,-0.125 0.0625,0.0625"
       id="path194"
       inkscape:connector-curvature="0" />
    <path
       style="fill:#306000;fill-opacity:1"
       d="M 9.125,19.375 9,19 9.375,19.125 Q 9.75,19.25 10,19.5 q 0.25,0.25 0.5,0.5 0.25,0.25 0.5,0.5 0.25,0.25 0.625,0.375 Q 12,21 12.46875,21 H 12.9375 V 20.90625 20.8125 21 q 0,0.1875 -0.0625,0.375 L 12.8125,21.5625 12.90625,21.28125 13,21 12.875,21.375 q -0.125,0.375 -0.5,0.5 Q 12,22 11.625,21.875 11.25,21.75 11,21.5 10.75,21.25 10.5,21 10.25,20.75 10,20.5 9.75,20.25 9.5,20 9.25,19.75 9.125,19.375"
       id="path196"
       inkscape:connector-curvature="0" />
  </g>
</svg>
