<?xml version="1.0" encoding="UTF-8" standalone="no"?>
<!-- Created with Inkscape (http://www.inkscape.org/) -->

<svg
   xmlns:dc="http://purl.org/dc/elements/1.1/"
   xmlns:cc="http://creativecommons.org/ns#"
   xmlns:rdf="http://www.w3.org/1999/02/22-rdf-syntax-ns#"
   xmlns:svg="http://www.w3.org/2000/svg"
   xmlns="http://www.w3.org/2000/svg"
   xmlns:sodipodi="http://sodipodi.sourceforge.net/DTD/sodipodi-0.dtd"
   xmlns:inkscape="http://www.inkscape.org/namespaces/inkscape"
   version="1.1"
   id="svg270"
   width="32"
   height="32"
   viewBox="0 0 32 32"
   sodipodi:docname="bronze.svg"
   inkscape:version="0.92.5 (2060ec1f9f, 2020-04-08)">
  <metadata
     id="metadata276">
    <rdf:RDF>
      <cc:Work
         rdf:about="">
        <dc:format>image/svg+xml</dc:format>
        <dc:type
           rdf:resource="http://purl.org/dc/dcmitype/StillImage" />
        <dc:title />
      </cc:Work>
    </rdf:RDF>
  </metadata>
  <defs
     id="defs274" />
  <sodipodi:namedview
     pagecolor="#ffffff"
     bordercolor="#666666"
     borderopacity="1"
     objecttolerance="10"
     gridtolerance="10"
     guidetolerance="10"
     inkscape:pageopacity="0"
     inkscape:pageshadow="2"
     inkscape:window-width="1920"
     inkscape:window-height="1118"
     id="namedview272"
     showgrid="false"
     inkscape:zoom="7.375"
     inkscape:cx="-6.0338983"
     inkscape:cy="16"
     inkscape:window-x="0"
     inkscape:window-y="24"
     inkscape:window-maximized="1"
     inkscape:current-layer="svg270" />
  <g
     id="g402"
     transform="translate(0,6)">
    <path
       style="fill:#000000;fill-opacity:0"
       d="M 0,0.5 V 0 H 0.5 1 1.5 2 2.5 3 3.5 4 4.5 5 5.5 6 6.5 7 7.5 8 8.5 9 9.5 10 10.5 11 11.5 12 12.5 13 13.5 14 14.5 15 15.5 16 16.5 17 17.5 18 18.5 19 19.5 20 20.5 21 21.5 22 22.5 23 23.5 24 24.5 25 25.5 26 26.5 27 27.5 28 28.5 29 29.5 30 30.5 31 31.5 32 V 0.5 1 1.5 2 2.5 3 3.5 4 4.5 5 5.5 6 6.5 7 7.5 8 8.5 9 9.5 10 10.5 11 11.5 12 12.5 13 13.5 14 14.5 15 15.5 16 16.5 17 17.5 18 18.5 19 19.5 20 20.5 21 21.5 22 22.5 23 23.5 24 24.5 25 25.5 26 26.5 27 27.5 28 28.5 29 29.5 30 30.5 31 31.5 32 H 31.5 31 30.5 30 29.5 29 28.5 28 27.5 27 26.5 26 25.5 25 24.5 24 23.5 23 22.5 22 21.5 21 20.5 20 19.5 19 18.5 18 17.5 17 16.5 16 15.5 15 14.5 14 13.5 13 12.5 12 11.5 11 10.5 10 9.5 9 8.5 8 7.5 7 6.5 6 5.5 5 4.5 4 3.5 3 2.5 2 1.5 1 0.5 0 V 31.5 31 30.5 30 29.5 29 28.5 28 27.5 27 26.5 26 25.5 25 24.5 24 23.5 23 22.5 22 21.5 21 20.5 20 19.5 19 18.5 18 17.5 17 16.5 16 15.5 15 14.5 14 13.5 13 12.5 12 11.5 11 10.5 10 9.5 9 8.5 8 7.5 7 6.5 6 5.5 5 4.5 4 3.5 3 2.5 2 1.5 1 0.5 M 19.5,25 Q 20,25 20,24.5 20,24 20.5,24 21,24 21.5,24 22,24 22,23.5 22,23 22.5,23 23,23 23,22.5 23,22 23.5,22 24,22 24,21.5 24,21 24,20.5 24,20 24,19.5 24,19 23.5,19 23,19 23,18.5 23,18 22.5,18 H 22 V 17.5 Q 22,17 22,16.5 22,16 21.875,15.625 21.75,15.25 21.5,15 21.25,14.75 21,14.5 20.75,14.25 20.375,14.125 L 20,14 19.875,13.625 Q 19.75,13.25 19.375,13.125 19,13 18.5,13 H 18 L 17.875,12.625 Q 17.75,12.25 17.375,12.125 17,12 16.5,12 q -0.5,0 -1,0 -0.5,0 -1,0 -0.5,0 -1,0 -0.5,0 -0.875,0.125 -0.375,0.125 -0.5,0.5 L 12,13 h -0.5 q -0.5,0 -0.875,0.125 -0.375,0.125 -0.5,0.5 L 10,14 9.625,14.125 q -0.375,0.125 -0.5,0.5 L 9,15 8.625,15.125 Q 8.25,15.25 8.125,15.625 8,16 8,16.5 q 0,0.5 0,1 0,0.5 0,1 0,0.5 0.125,0.875 L 8.25,19.75 8.15625,19.46875 8.0625,19.1875 8.125,19.375 q 0.0625,0.1875 0.1875,0.3125 l 0.125,0.125 L 8.375,19.75 8.3125,19.6875 8.03125,19.96875 Q 7.75,20.25 7.875,20.625 8,21 8,21.5 8,22 8,22.5 8,23 8.5,23 9,23 9,23.5 9,24 9.5,24 q 0.5,0 1,0 0.5,0 0.5,0.5 0,0.5 0.5,0.5 0.5,0 1,0 0.5,0 1,0 0.5,0 1,0 0.5,0 1,0 0.5,0 1,0 0.5,0 1,0 0.5,0 1,0 0.5,0 1,0"
       id="path280"
       inkscape:connector-curvature="0" />
    <path
       style="fill:#e0c0a0;fill-opacity:1"
       d="m 12.125,12.625 q 0.125,-0.375 0.5,-0.5 L 13,12 12.71875,12.09375 12.4375,12.1875 12.625,12.125 q 0.1875,-0.0625 0.40625,-0.09375 L 13.25,12 13.140625,12.01563 13.03125,12.03126 12.890625,12.390635 Q 12.75,12.75 12.375,12.875 L 12,13 12.125,12.625"
       id="path282"
       inkscape:connector-curvature="0" />
    <path
       style="fill:#90c090;fill-opacity:1"
       d="M 12.890625,12.390625 13.03125,12.03125 12.921875,12.046875 12.8125,12.0625 13.03125,12.03125 Q 13.25,12 13.5,12 H 13.75 13.375 13 13.5 14 v 0.5 0.5 l -0.375,0.125 Q 13.25,13.25 13,13.5 12.75,13.75 12.5,14 12.25,14.25 12.125,14.625 L 12,15 12.09375,14.71875 12.1875,14.4375 12.125,14.625 q -0.0625,0.1875 -0.09375,0.40625 L 12,15.25 12.01563,15.140625 12.03126,15.03125 11.53126,15 l -0.5,-0.03125 0.01563,0.109375 0.01563,0.109375 -0.03125,-0.21875 Q 11,14.75 11,14.5 V 14.25 14.625 15 14.5 14 l 0.375,-0.125 q 0.375,-0.125 0.5,-0.5 L 12,13 12.375,12.875 Q 12.75,12.75 12.890625,12.390625 M 14,13.125 V 13 12.625 12.25 12.5 q 0,0.25 0,0.5 v 0.25 -0.125 M 14.125,12 H 14 13.625 13.25 13.5 q 0.25,0 0.5,0 h 0.25 -0.125"
       id="path284"
       inkscape:connector-curvature="0" />
    <path
       style="fill:#d0a850;fill-opacity:1"
       d="M 14,12.5 V 12 h 0.5 0.5 v 0.5 q 0,0.5 0,1 V 14 H 14.5 14 v -0.5 q 0,-0.5 0,-1 m 0,1.125 V 14 14.125 14.25 14 q 0,-0.25 0,-0.5 v -0.25 0.375 M 15.125,12 H 15 14.625 14.25 14.5 q 0.25,0 0.5,0 h 0.25 -0.125 m -0.75,0 H 14 13.875 13.75 14 q 0.25,0 0.5,0 h 0.25 -0.375"
       id="path286"
       inkscape:connector-curvature="0" />
    <path
       style="fill:#c09000;fill-opacity:1"
       d="M 15,12.5 V 12 H 15.5 16 V 12.5 13 H 15.5 15 v -0.5 m 0,0.125 V 13 13.125 13.25 13 q 0,-0.25 0,-0.5 v -0.25 0.375 M 16.125,12 H 16 15.625 15.25 15.5 q 0.25,0 0.5,0 h 0.25 -0.125 m -0.75,0 H 15 14.875 14.75 15 q 0.25,0 0.5,0 h 0.25 -0.375"
       id="path288"
       inkscape:connector-curvature="0" />
    <path
       style="fill:#90c0c0;fill-opacity:1"
       d="M 16,12.5 V 12 H 16.5 17 16.625 16.25 16.5 q 0.25,0 0.46875,0.03125 L 17.1875,12.0625 17.078125,12.04687 16.96875,12.03124 16.859375,12.390615 Q 16.75,12.75 16.375,12.875 L 16,13 V 12.5 M 16.375,12 H 16 15.875 15.75 16 q 0.25,0 0.5,0 h 0.25 -0.375"
       id="path290"
       inkscape:connector-curvature="0" />
    <path
       style="fill:#00a0a0;fill-opacity:1"
       d="M 16.859375,12.390625 16.96875,12.03125 16.859375,12.015625 16.75,12 16.96875,12.03125 Q 17.1875,12.0625 17.375,12.125 L 17.5625,12.1875 17.28125,12.09375 17,12 l 0.375,0.125 q 0.375,0.125 0.5,0.5 L 18,13 17.625,13.125 q -0.375,0.125 -0.5,0.5 L 17,14 16.625,13.875 q -0.375,-0.125 -0.5,-0.5 L 16,13 16.375,12.875 q 0.375,-0.125 0.484375,-0.484375"
       id="path292"
       inkscape:connector-curvature="0" />
    <path
       style="fill:#008040;fill-opacity:1"
       d="m 10.125,13.625 q 0.125,-0.375 0.5,-0.5 L 11,13 10.71875,13.09375 10.4375,13.1875 10.625,13.125 q 0.1875,-0.0625 0.40625,-0.09375 L 11.25,13 11.140625,13.015625 11.03125,13.03125 11.015625,13.515625 11,14 H 10.5 10 l 0.125,-0.375"
       id="path294"
       inkscape:connector-curvature="0" />
    <path
       style="fill:#d0a850;fill-opacity:1"
       d="m 11.015625,13.515625 0.01563,-0.484375 -0.109375,0.01563 -0.109375,0.01563 0.21875,-0.03125 Q 11.25,13 11.5,13 H 11.75 11.375 11 11.5 12 l -0.125,0.375 q -0.125,0.375 -0.5,0.5 L 11,14 11.01563,13.515625"
       id="path296"
       inkscape:connector-curvature="0" />
    <path
       style="fill:#e0c0a0;fill-opacity:1"
       d="m 13,13.5 q 0.25,-0.25 0.625,-0.375 L 14,13 v 0.5 q 0,0.5 0,1 V 15 l -0.375,0.125 q -0.375,0.125 -0.5,0.5 L 13,16 H 12.5 12 V 15.5 Q 12,15 12.125,14.625 12.25,14.25 12.5,14 12.75,13.75 13,13.5 M 12.625,16 H 13 13.125 13.25 13 q -0.25,0 -0.5,0 h -0.25 0.375 M 14,13.375 V 13 12.875 12.75 13 q 0,0.25 0,0.5 v 0.25 -0.375"
       id="path298"
       inkscape:connector-curvature="0" />
    <path
       style="fill:#00a050;fill-opacity:1"
       d="M 15,13.5 V 13 h 0.5 0.5 l 0.125,0.375 q 0.125,0.375 0.5,0.5 L 17,14 V 14.5 15 L 16.625,14.875 Q 16.25,14.75 16,14.5 15.75,14.25 15.375,14.125 L 15,14 v -0.5 m 0,-0.625 V 13 13.375 13.75 13.5 q 0,-0.25 0,-0.5 v -0.25 0.125"
       id="path300"
       inkscape:connector-curvature="0" />
    <path
       style="fill:#a07800;fill-opacity:1"
       d="m 17.125,13.625 q 0.125,-0.375 0.5,-0.5 L 18,13 18.125,13.375 Q 18.25,13.75 18.5,14 q 0.25,0.25 0.390625,0.609375 L 19.03125,14.96875 19.140625,14.98438 19.25,15 19.03125,14.96875 Q 18.8125,14.9375 18.625,14.875 L 18.4375,14.8125 18.71875,14.90625 19,15 18.625,14.875 Q 18.25,14.75 18,14.5 17.75,14.25 17.375,14.125 L 17,14 17.125,13.625"
       id="path302"
       inkscape:connector-curvature="0" />
    <path
       style="fill:#008040;fill-opacity:1"
       d="M 18.125,13.375 18,13 H 18.5 19 18.625 18.25 18.5 q 0.25,0 0.46875,0.03125 l 0.21875,0.03125 -0.109375,-0.01563 -0.109375,-0.01563 0.140625,0.359375 Q 19.25,13.75 19.625,13.875 L 20,14 V 14.5 15 H 19.5 19 19.375 19.75 19.5 q -0.25,0 -0.46875,-0.03125 l -0.21875,-0.03125 0.109375,0.01563 0.109375,0.01563 -0.140625,-0.359375 Q 18.75,14.25 18.5,14 18.25,13.75 18.125,13.375"
       id="path304"
       inkscape:connector-curvature="0" />
    <path
       style="fill:#806000;fill-opacity:1"
       d="M 19.109375,13.390625 18.96875,13.03125 18.859375,13.015625 18.75,13 18.96875,13.03125 Q 19.1875,13.0625 19.375,13.125 L 19.5625,13.1875 19.28125,13.09375 19,13 l 0.375,0.125 q 0.375,0.125 0.5,0.5 L 20,14 19.625,13.875 Q 19.25,13.75 19.109375,13.390625"
       id="path306"
       inkscape:connector-curvature="0" />
    <path
       style="fill:#a07800;fill-opacity:1"
       d="m 9.125,14.625 q 0.125,-0.375 0.5,-0.5 L 10,14 V 14.5 15 H 9.5 9 L 9.125,14.625 M 10,15.125 V 15 14.625 14.25 14.5 q 0,0.25 0,0.5 v 0.25 -0.125"
       id="path308"
       inkscape:connector-curvature="0" />
    <path
       style="fill:#00a0a0;fill-opacity:1"
       d="M 10,14.5 V 14 h 0.5 0.5 v 0.5 q 0,0.5 0.125,0.875 0.125,0.375 0.5,0.5 L 12,16 11.875,16.375 q -0.125,0.375 -0.5,0.5 L 11,17 11.28125,16.90625 11.5625,16.8125 11.375,16.875 q -0.1875,0.0625 -0.40625,0.09375 L 10.75,17 10.859375,16.984375 10.96875,16.96875 10.859375,16.609375 Q 10.75,16.25 10.375,16.125 L 10,16 v -0.5 q 0,-0.5 0,-1"
       id="path310"
       inkscape:connector-curvature="0" />
    <path
       style="fill:#00a0a0;fill-opacity:1"
       d="M 14,14.5 V 14 h 0.5 0.5 l 0.125,0.375 Q 15.25,14.75 15.5,15 q 0.25,0.25 0.375,0.625 L 16,16 H 15.5 15 l -0.125,-0.375 q -0.125,-0.375 -0.5,-0.5 L 14,15 V 14.5 M 14.875,16 H 15 15.375 15.75 15.5 q -0.25,0 -0.5,0 h -0.25 0.125 m 0.75,0 H 16 16.125 16.25 16 q -0.25,0 -0.5,0 h -0.25 0.375 M 14,13.875 V 14 14.375 14.75 14.5 q 0,-0.25 0,-0.5 v -0.25 0.125"
       id="path312"
       inkscape:connector-curvature="0" />
    <path
       style="fill:#c09000;fill-opacity:1"
       d="M 15.125,14.375 15,14 15.375,14.125 Q 15.75,14.25 16,14.5 q 0.25,0.25 0.625,0.375 L 17,15 l -0.01563,0.515625 -0.01563,0.515625 0.109375,0.01563 0.109375,0.01563 -0.21875,-0.03125 Q 16.75,16 16.5,16 H 16.25 16.625 17 16.5 16 L 15.875,15.625 Q 15.75,15.25 15.5,15 15.25,14.75 15.125,14.375 M 15.875,16 H 16 16.375 16.75 16.5 q -0.25,0 -0.5,0 h -0.25 0.125"
       id="path314"
       inkscape:connector-curvature="0" />
    <path
       style="fill:#008080;fill-opacity:1"
       d="M 17,14.5 V 14 l 0.375,0.125 Q 17.75,14.25 18,14.5 18.25,14.75 18.625,14.875 19,15 19.5,15 H 20 l -0.125,0.375 q -0.125,0.375 -0.5,0.5 Q 19,16 18.625,15.875 18.25,15.75 18,15.5 17.75,15.25 17.375,15.125 L 17,15 v -0.5"
       id="path316"
       inkscape:connector-curvature="0" />
    <path
       style="fill:#604800;fill-opacity:1"
       d="M 20,14.5 V 14 l 0.375,0.125 Q 20.75,14.25 21,14.5 q 0.25,0.25 0.5,0.5 0.25,0.25 0.375,0.625 L 22,16 21.90625,15.71875 21.8125,15.4375 21.875,15.625 q 0.0625,0.1875 0.09375,0.40625 L 22,16.25 21.984375,16.140625 21.96875,16.03125 21.609375,15.890625 Q 21.25,15.75 21,15.5 20.75,15.25 20.375,15.125 L 20,15 v -0.5"
       id="path318"
       inkscape:connector-curvature="0" />
    <path
       style="fill:#006030;fill-opacity:1"
       d="m 8.125,15.625 q 0.125,-0.375 0.5,-0.5 L 9,15 V 15.5 16 L 8.515625,16.015625 8.03125,16.03125 8.015625,16.140625 8,16.25 8.03125,16.03125 Q 8.0625,15.8125 8.125,15.625 L 8.1875,15.4375 8.09375,15.71875 8,16 8.125,15.625"
       id="path320"
       inkscape:connector-curvature="0" />
    <path
       style="fill:#008040;fill-opacity:1"
       d="M 9,15.5 V 15 H 9.5 10 V 15.5 16 H 9.5 9 v -0.5 m 1,-0.125 V 15 14.875 14.75 15 q 0,0.25 0,0.5 v 0.25 -0.375"
       id="path322"
       inkscape:connector-curvature="0" />
    <path
       style="fill:#00a050;fill-opacity:1"
       d="M 11.125,15.375 11,15 11.09375,15.28125 11.1875,15.5625 11.125,15.375 Q 11.0625,15.1875 11.03125,14.96875 L 11,14.75 l 0.01563,0.109375 0.01563,0.109375 0.5,0.03125 0.5,0.03125 0.01563,-0.109375 0.01563,-0.109375 -0.03125,0.21875 Q 12,15.25 12,15.5 V 15.75 15.375 15 15.5 16 l -0.375,-0.125 q -0.375,-0.125 -0.5,-0.5"
       id="path324"
       inkscape:connector-curvature="0" />
    <path
       style="fill:#90c090;fill-opacity:1"
       d="m 13.125,15.625 q 0.125,-0.375 0.5,-0.5 L 14,15 V 15.5 16 H 13.5 13 l 0.125,-0.375 M 12.875,16 H 13 13.375 13.75 13.5 q -0.25,0 -0.5,0 h -0.25 0.125 m 0.75,0 H 14 14.125 14.25 14 q -0.25,0 -0.5,0 h -0.25 0.375"
       id="path326"
       inkscape:connector-curvature="0" />
    <path
       style="fill:#00a050;fill-opacity:1"
       d="M 14,15.5 V 15 l 0.375,0.125 q 0.375,0.125 0.5,0.5 L 15,16 H 14.5 14 V 15.5 M 13.875,16 H 14 14.375 14.75 14.5 q -0.25,0 -0.5,0 h -0.25 0.125 m 0.75,0 H 15 15.125 15.25 15 q -0.25,0 -0.5,0 h -0.25 0.375"
       id="path328"
       inkscape:connector-curvature="0" />
    <path
       style="fill:#008040;fill-opacity:1"
       d="M 16.984375,15.515625 17,15 17.375,15.125 Q 17.75,15.25 18,15.5 q 0.25,0.25 0.625,0.375 L 19,16 18.71875,15.90625 18.4375,15.8125 18.625,15.875 Q 18.8125,15.9375 19,15.9375 H 19.1875 19.09375 19 l 0.01563,0.515625 0.01563,0.515625 0.109375,0.01563 L 19.25,17 19.03125,16.96875 Q 18.8125,16.9375 18.625,16.875 L 18.4375,16.8125 18.71875,16.90625 19,17 18.625,16.875 Q 18.25,16.75 18,16.5 17.75,16.25 17.375,16.125 L 17,16 17.28125,16.09375 17.5625,16.1875 17.375,16.125 Q 17.1875,16.0625 16.96875,16.03125 L 16.75,16 l 0.109375,0.01563 0.109375,0.01563 0.01563,-0.515625"
       id="path330"
       inkscape:connector-curvature="0" />
    <path
       style="fill:#006030;fill-opacity:1"
       d="M 19.875,15.375 20,15 20.375,15.125 Q 20.75,15.25 21,15.5 q 0.25,0.25 0.609375,0.390625 L 21.96875,16.03125 21.953125,15.921875 21.9375,15.8125 21.96875,16.03125 Q 22,16.25 22,16.5 V 16.75 16.375 16 16.5 q 0,0.5 0,1 V 18 H 21.5 21 V 17.5 Q 21,17 20.875,16.625 20.75,16.25 20.5,16.25 q -0.25,0 -0.375,0.375 L 20,17 H 19.5 19 19.375 19.75 19.5 q -0.25,0 -0.46875,-0.03125 L 18.8125,16.9375 18.921875,16.95313 19.03125,16.96876 19.01562,16.453135 19,15.9375 H 18.90625 18.8125 19 q 0.1875,0 0.375,-0.0625 L 19.5625,15.8125 19.28125,15.90625 19,16 19.375,15.875 q 0.375,-0.125 0.5,-0.5 M 22,18.125 V 18 17.625 17.25 17.5 q 0,0.25 0,0.5 v 0.25 -0.125"
       id="path332"
       inkscape:connector-curvature="0" />
    <path
       style="fill:#006060;fill-opacity:1"
       d="M 8,16.5 V 16 16.375 16.75 16.5 Q 8,16.25 8.03125,16.03125 L 8.0625,15.8125 8.046875,15.921875 8.03125,16.03125 8.515625,16.015625 9,16 V 16.5 17 H 8.5 8 v -0.5 m 0,0.125 V 17 17.125 17.25 17 q 0,-0.25 0,-0.5 v -0.25 0.375 M 8.625,17 H 9 9.125 9.25 9 Q 8.75,17 8.5,17 H 8.25 8.625"
       id="path334"
       inkscape:connector-curvature="0" />
    <path
       style="fill:#a07800;fill-opacity:1"
       d="M 9,16.5 V 16 H 9.5 10 V 16.5 17 H 9.5 9 V 16.5 M 8.875,17 H 9 9.375 9.75 9.5 Q 9.25,17 9,17 H 8.75 8.875"
       id="path336"
       inkscape:connector-curvature="0" />
    <path
       style="fill:#c09000;fill-opacity:1"
       d="M 10,16.5 V 16 l 0.375,0.125 q 0.375,0.125 0.484375,0.484375 l 0.109375,0.359375 0.109375,-0.01563 0.109375,-0.01563 -0.21875,0.03125 Q 10.75,17 10.5,17 H 10.25 10.625 11 10.5 10 v -0.5"
       id="path338"
       inkscape:connector-curvature="0" />
    <path
       style="fill:#000000;fill-opacity:0"
       d="M 11.875,16.375 12,16 h 0.5 q 0.5,0 1,0 0.5,0 1,0 0.5,0 1,0 0.5,0 1,0 0.5,0 0.875,0.125 Q 17.75,16.25 18,16.5 18.25,16.75 18.625,16.875 19,17 19.5,17 H 20 v 0.5 0.5 h -0.5 q -0.5,0 -0.875,0.125 -0.375,0.125 -0.5,0.5 L 18,19 h -0.5 q -0.5,0 -1,0 -0.5,0 -1,0 -0.5,0 -1,0 -0.5,0 -1,0 -0.5,0 -1,0 H 12 L 11.875,18.625 Q 11.75,18.25 11.375,18.125 11,18 10.5,18 H 10 V 17.5 17 h 0.5 q 0.5,0 0.875,-0.125 0.375,-0.125 0.5,-0.5"
       id="path340"
       inkscape:connector-curvature="0" />
    <path
       style="fill:#006060;fill-opacity:1"
       d="M 20.125,16.625 Q 20.25,16.25 20.5,16.25 q 0.25,0 0.375,0.375 L 21,17 20.90625,16.71875 20.8125,16.4375 20.875,16.625 q 0.0625,0.1875 0.09375,0.40625 L 21,17.25 20.984375,17.140625 20.96875,17.03125 20.484375,17.015625 20,17 20.125,16.625"
       id="path342"
       inkscape:connector-curvature="0" />
    <path
       style="fill:#006030;fill-opacity:1"
       d="M 8,17.5 V 17 h 0.5 q 0.5,0 1,0 H 10 V 17.5 18 H 9.5 Q 9,18 8.5,18 H 8 v -0.5 m 0,0.125 V 18 18.125 18.25 18 q 0,-0.25 0,-0.5 v -0.25 0.375 m 0,-0.75 V 17 17.375 17.75 17.5 Q 8,17.25 8,17 v -0.25 0.125"
       id="path344"
       inkscape:connector-curvature="0" />
    <path
       style="fill:#604800;fill-opacity:1"
       d="M 20,17.5 V 17 l 0.484375,0.01563 0.484375,0.01563 -0.01563,-0.109375 -0.01563,-0.109375 0.03125,0.21875 Q 21,17.25 21,17.5 V 17.75 17.375 17 17.5 18 H 20.5 20 v -0.5"
       id="path346"
       inkscape:connector-curvature="0" />
    <path
       style="fill:#806000;fill-opacity:1"
       d="M 8,18.5 V 18 H 8.5 9 V 18.5 19 L 8.515625,18.984375 8.03125,18.96875 8.046875,19.078125 8.0625,19.1875 8.03125,18.96875 Q 8,18.75 8,18.5 V 18.25 18.625 19 18.5 m 1,0.625 V 19 18.625 18.25 18.5 q 0,0.25 0,0.5 v 0.25 -0.125 M 9.125,18 H 9 8.625 8.25 8.5 Q 8.75,18 9,18 H 9.25 9.125 M 8,17.875 V 18 18.375 18.75 18.5 Q 8,18.25 8,18 v -0.25 0.125"
       id="path348"
       inkscape:connector-curvature="0" />
    <path
       style="fill:#403000;fill-opacity:1"
       d="M 9,18.5 V 18 H 9.5 10 v 0.5 q 0,0.5 -0.125,0.875 -0.125,0.375 -0.5,0.5 L 9,20 V 19.5 Q 9,19 9,18.5 M 9.375,18 H 9 8.875 8.75 9 q 0.25,0 0.5,0 H 9.75 9.375"
       id="path350"
       inkscape:connector-curvature="0" />
    <path
       style="fill:#004040;fill-opacity:1"
       d="M 10,18.5 V 18 h 0.5 q 0.5,0 0.875,0.125 0.375,0.125 0.5,0.5 L 12,19 11.625,19.125 Q 11.25,19.25 11,19.5 10.75,19.75 10.5,20 10.25,20.25 10.125,20.625 L 10,21 10.09375,20.71875 10.1875,20.4375 10.125,20.625 Q 10.0625,20.8125 10.0625,21 V 21.1875 21.09375 21 L 9.65625,20.875 Q 9.25,20.75 9.125,20.375 L 9,20 9.375,19.875 Q 9.75,19.75 9.875,19.375 10,19 10,18.5"
       id="path352"
       inkscape:connector-curvature="0" />
    <path
       style="fill:#006030;fill-opacity:1"
       d="m 18.125,18.625 q 0.125,-0.375 0.5,-0.5 L 19,18 18.71875,18.09375 18.4375,18.1875 18.625,18.125 q 0.1875,-0.0625 0.40625,-0.09375 L 19.25,18 19.140625,18.015625 19.03125,18.03125 19.015625,18.515625 19,19 H 18.5 18 l 0.125,-0.375 M 19,19.125 V 19 18.625 18.25 18.5 q 0,0.25 0,0.5 v 0.25 -0.125"
       id="path354"
       inkscape:connector-curvature="0" />
    <path
       style="fill:#004020;fill-opacity:1"
       d="m 19.015625,18.515625 0.01563,-0.484375 -0.109375,0.01563 -0.109375,0.01563 0.21875,-0.03125 Q 19.25,18 19.5,18 H 19.75 19.375 19 19.5 20 v 0.5 q 0,0.5 -0.125,0.875 -0.125,0.375 -0.5,0.5 L 19,20 v -0.5 q 0,-0.5 0.01563,-0.984375"
       id="path356"
       inkscape:connector-curvature="0" />
    <path
       style="fill:#403000;fill-opacity:1"
       d="M 20,18.5 V 18 h 0.5 0.5 v 0.5 q 0,0.5 0,1 0,0.5 -0.125,0.875 -0.125,0.375 -0.5,0.5 Q 20,21 19.5,21 H 19 V 20.5 20 l 0.375,-0.125 q 0.375,-0.125 0.5,-0.5 Q 20,19 20,18.5"
       id="path358"
       inkscape:connector-curvature="0" />
    <path
       style="fill:#008040;fill-opacity:1"
       d="M 21,18.5 V 18 H 21.5 22 V 18.5 19 18.625 18.25 18.5 q 0,0.25 -0.03125,0.46875 L 21.9375,19.1875 21.95313,19.078125 21.96876,18.96875 21.484385,18.98438 21,19 v -0.5 m 0,0.125 V 19 19.125 19.25 19 q 0,-0.25 0,-0.5 v -0.25 0.375 m 1,-0.25 V 18 17.875 17.75 18 q 0,0.25 0,0.5 v 0.25 -0.375"
       id="path360"
       inkscape:connector-curvature="0" />
    <path
       style="fill:#000000;fill-opacity:1"
       d="M 22,18.5 V 18 h 0.5 q 0.5,0 0.5,0.5 0,0.5 0.5,0.5 0.5,0 0.5,0.5 0,0.5 0,1 0,0.5 0,1 Q 24,22 23.5,22 23,22 23,22.5 23,23 22.5,23 22,23 22,23.5 22,24 21.5,24 21,24 20.5,24 20,24 20,24.5 20,25 19.5,25 q -0.5,0 -1,0 -0.5,0 -1,0 -0.5,0 -1,0 -0.5,0 -1,0 -0.5,0 -1,0 -0.5,0 -1,0 -0.5,0 -1,0 -0.5,0 -1,0 Q 11,25 11,24.5 11,24 10.5,24 10,24 9.5,24 9,24 9,23.5 9,23 8.5,23 8,23 8,22.5 8,22 8,21.5 8,21 7.875,20.625 7.75,20.25 8.03125,19.96875 L 8.3125,19.6875 8.25,19.625 8.1875,19.5625 l 0.125,0.125 q 0.125,0.125 0.3125,0.1875 L 8.8125,19.9375 8.53125,19.84375 8.25,19.75 8.625,19.875 9,20 9.125,20.375 q 0.125,0.375 0.53125,0.5 L 10.0625,21 V 20.90625 20.8125 21 q 0,0.1875 0.0625,0.375 L 10.1875,21.5625 10.09375,21.28125 10,21 l 0.125,0.375 q 0.125,0.375 0.5,0.5 Q 11,22 11.5,22 H 12 l 0.125,0.375 q 0.125,0.375 0.5,0.5 Q 13,23 13.5,23 q 0.5,0 1,0 0.5,0 1,0 0.5,0 1,0 0.5,0 0.875,-0.125 Q 17.75,22.75 18,22.5 18.25,22.25 18.625,22.125 19,22 19.375,21.875 19.75,21.75 19.859375,21.359375 L 19.96875,20.96875 19.859375,20.984375 19.75,21 19.96875,20.96875 Q 20.1875,20.9375 20.375,20.875 L 20.5625,20.8125 20.28125,20.90625 20,21 20.375,20.875 q 0.375,-0.125 0.5,-0.5 L 21,20 20.90625,20.28125 20.8125,20.5625 20.875,20.375 q 0.0625,-0.1875 0.09375,-0.40625 L 21,19.75 20.98437,19.859375 20.96874,19.96875 21.359365,19.859375 Q 21.75,19.75 21.875,19.375 22,19 22,18.5"
       id="path362"
       inkscape:connector-curvature="0" />
    <path
       style="fill:#006030;fill-opacity:1"
       d="M 8.125,19.375 8,19 8.09375,19.28125 8.1875,19.5625 8.125,19.375 Q 8.0625,19.1875 8.03125,18.96875 L 8,18.75 8.015625,18.859375 8.03125,18.96875 8.515625,18.984375 9,19 V 19.5 20 L 8.625,19.875 q -0.375,-0.125 -0.5,-0.5 m 0.875,0 V 19 18.875 18.75 19 q 0,0.25 0,0.5 v 0.25 -0.375"
       id="path364"
       inkscape:connector-curvature="0" />
    <path
       style="fill:#403000;fill-opacity:1"
       d="m 11,19.5 q 0.25,-0.25 0.625,-0.375 L 12,19 v 0.5 0.5 l -0.375,0.125 q -0.375,0.125 -0.5,0.5 Q 11,21 11.015625,21.484375 l 0.01563,0.484375 0.109375,0.01563 L 11.25,22 11.03125,21.96875 Q 10.8125,21.9375 10.625,21.875 L 10.4375,21.8125 10.71875,21.90625 11,22 10.625,21.875 Q 10.25,21.75 10.125,21.375 10,21 10.125,20.625 10.25,20.25 10.5,20 10.75,19.75 11,19.5"
       id="path366"
       inkscape:connector-curvature="0" />
    <path
       style="fill:#006030;fill-opacity:1"
       d="M 12,19.5 V 19 H 12.5 13 V 19.5 20 19.625 19.25 19.5 q 0,0.25 -0.03125,0.46875 L 12.9375,20.1875 12.95313,20.078125 12.96876,19.96875 12.484385,19.98438 12,20 V 19.5 M 13.125,19 H 13 12.625 12.25 12.5 q 0.25,0 0.5,0 h 0.25 -0.125"
       id="path368"
       inkscape:connector-curvature="0" />
    <path
       style="fill:#604800;fill-opacity:1"
       d="M 13,19.5 V 19 h 0.5 0.5 v 0.5 q 0,0.5 0,1 V 21 l -0.375,0.125 Q 13.25,21.25 13,21.5 12.75,21.75 12.375,21.875 L 12,22 V 21.5 21 l 0.375,-0.125 q 0.375,-0.125 0.5,-0.5 Q 13,20 13,19.5 m -1,1.375 V 21 21.375 21.75 21.5 q 0,-0.25 0,-0.5 v -0.25 0.125 M 14.125,19 H 14 13.625 13.25 13.5 q 0.25,0 0.5,0 h 0.25 -0.125 m -0.75,0 H 13 12.875 12.75 13 q 0.25,0 0.5,0 h 0.25 -0.375"
       id="path370"
       inkscape:connector-curvature="0" />
    <path
       style="fill:#008080;fill-opacity:1"
       d="M 14,19.5 V 19 h 0.5 0.5 v 0.5 q 0,0.5 0.125,0.875 0.125,0.375 0.46875,0.5 L 15.9375,21 V 20.90625 20.8125 21 q 0,0.1875 -0.0625,0.375 L 15.8125,21.5625 15.90625,21.28125 16,21 15.875,21.375 q -0.125,0.375 -0.5,0.5 L 15,22 15.28125,21.90625 15.5625,21.8125 15.375,21.875 q -0.1875,0.0625 -0.40625,0.09375 L 14.75,22 14.859375,21.984375 14.96875,21.96875 14.859375,21.609375 Q 14.75,21.25 14.375,21.125 L 14,21 v -0.5 q 0,-0.5 0,-1 M 15.125,19 H 15 14.625 14.25 14.5 q 0.25,0 0.5,0 h 0.25 -0.125 m -0.75,0 H 14 13.875 13.75 14 q 0.25,0 0.5,0 h 0.25 -0.375"
       id="path372"
       inkscape:connector-curvature="0" />
    <path
       style="fill:#806000;fill-opacity:1"
       d="M 15,19.5 V 19 h 0.5 0.5 l 0.125,0.375 q 0.125,0.375 0.5,0.5 L 17,20 v 0.5 q 0,0.5 0,1 V 22 l -0.375,0.125 q -0.375,0.125 -0.5,0.5 L 16,23 h -0.5 q -0.5,0 -1,0 H 14 V 22.5 22 h 0.5 q 0.5,0 0.875,-0.125 0.375,-0.125 0.5,-0.5 Q 16,21 15.875,20.625 15.75,20.25 15.390625,20.109375 L 15.03125,19.96875 15.046875,20.078125 15.0625,20.1875 15.03125,19.96875 Q 15,19.75 15,19.5 V 19.25 19.625 20 19.5 m -1,2.375 V 22 22.375 22.75 22.5 q 0,-0.25 0,-0.5 v -0.25 0.125 M 13.875,23 H 14 14.375 14.75 14.5 q -0.25,0 -0.5,0 h -0.25 0.125 m 1.75,0 H 16 16.125 16.25 16 q -0.25,0 -0.5,0 h -0.25 0.375 m 0.5,-4 H 16 15.625 15.25 15.5 q 0.25,0 0.5,0 h 0.25 -0.125 m -0.75,0 H 15 14.875 14.75 15 q 0.25,0 0.5,0 h 0.25 -0.375"
       id="path374"
       inkscape:connector-curvature="0" />
    <path
       style="fill:#006030;fill-opacity:1"
       d="M 16.125,19.375 16,19 h 0.5 0.5 v 0.5 0.5 l -0.375,-0.125 q -0.375,-0.125 -0.5,-0.5 m 1,-0.375 H 17 16.625 16.25 16.5 q 0.25,0 0.5,0 h 0.25 -0.125 m -0.75,0 H 16 15.875 15.75 16 q 0.25,0 0.5,0 h 0.25 -0.375"
       id="path376"
       inkscape:connector-curvature="0" />
    <path
       style="fill:#604800;fill-opacity:1"
       d="M 17,19.5 V 19 h 0.5 0.5 l -0.125,0.375 q -0.125,0.375 -0.5,0.5 L 17,20 V 19.5 M 17.375,19 H 17 16.875 16.75 17 q 0.25,0 0.5,0 h 0.25 -0.375"
       id="path378"
       inkscape:connector-curvature="0" />
    <path
       style="fill:#006060;fill-opacity:1"
       d="M 17.875,19.375 18,19 h 0.5 0.5 v 0.5 0.5 l -0.375,0.125 q -0.375,0.125 -0.5,0.5 -0.125,0.375 -0.25,0.75 -0.125,0.375 -0.5,0.5 L 17,22 v -0.5 q 0,-0.5 0,-1 V 20 l 0.375,-0.125 q 0.375,-0.125 0.5,-0.5 m 1.125,0 V 19 18.875 18.75 19 q 0,0.25 0,0.5 v 0.25 -0.375"
       id="path380"
       inkscape:connector-curvature="0" />
    <path
       style="fill:#006030;fill-opacity:1"
       d="M 21,19.5 V 19 L 21.484375,18.98437 21.96875,18.96874 21.98438,18.859365 22,18.75 21.96875,18.96875 Q 21.9375,19.1875 21.875,19.375 L 21.8125,19.5625 21.90625,19.28125 22,19 21.875,19.375 Q 21.75,19.75 21.359375,19.859375 L 20.96875,19.96875 20.953125,20.078125 20.9375,20.1875 20.96875,19.96875 Q 21,19.75 21,19.5 V 19.25 19.625 20 19.5 m 0,-0.625 V 19 19.375 19.75 19.5 q 0,-0.25 0,-0.5 v -0.25 0.125"
       id="path382"
       inkscape:connector-curvature="0" />
    <path
       style="fill:#004040;fill-opacity:1"
       d="m 11.125,20.625 q 0.125,-0.375 0.5,-0.5 L 12,20 v 0.5 q 0,0.5 0,1 V 22 H 11.5 11 11.375 11.75 11.5 q -0.25,0 -0.46875,-0.03125 l -0.21875,-0.03125 0.109375,0.01563 0.109375,0.01563 -0.01563,-0.484375 Q 11,21 11.125,20.625"
       id="path384"
       inkscape:connector-curvature="0" />
    <path
       style="fill:#006060;fill-opacity:1"
       d="M 12,20.5 V 20 L 12.484375,19.98437 12.96875,19.96874 12.98438,19.859365 13,19.75 12.96875,19.96875 Q 12.9375,20.1875 12.875,20.375 L 12.8125,20.5625 12.90625,20.28125 13,20 12.875,20.375 q -0.125,0.375 -0.5,0.5 L 12,21 v -0.5 m 0,0.125 V 21 21.125 21.25 21 q 0,-0.25 0,-0.5 v -0.25 0.375"
       id="path386"
       inkscape:connector-curvature="0" />
    <path
       style="fill:#008040;fill-opacity:1"
       d="M 15.125,20.375 15,20 15.09375,20.28125 15.1875,20.5625 15.125,20.375 Q 15.0625,20.1875 15.03125,19.96875 L 15,19.75 l 0.01563,0.109375 0.01563,0.109375 0.359375,0.140625 Q 15.75,20.25 15.875,20.625 L 16,21 15.90625,20.71875 15.8125,20.4375 15.875,20.625 Q 15.9375,20.8125 15.9375,21 V 21.1875 21.09375 21 L 15.59375,20.875 Q 15.25,20.75 15.125,20.375"
       id="path388"
       inkscape:connector-curvature="0" />
    <path
       style="fill:#006030;fill-opacity:1"
       d="m 18.125,20.625 q 0.125,-0.375 0.5,-0.5 L 19,20 V 20.5 21 H 18.5 18 l 0.125,-0.375 M 18.09375,20.71875 18,21 17.96875,21.09375 17.9375,21.1875 18,21 q 0.0625,-0.1875 0.125,-0.375 l 0.0625,-0.1875 -0.09375,0.28125"
       id="path390"
       inkscape:connector-curvature="0" />
    <path
       style="fill:#006060;fill-opacity:1"
       d="m 13,21.5 q 0.25,-0.25 0.625,-0.375 L 14,21 v 0.5 q 0,0.5 0,1 V 23 h -0.5 q -0.5,0 -0.875,-0.125 -0.375,-0.125 -0.5,-0.5 L 12,22 12.375,21.875 Q 12.75,21.75 13,21.5 M 13.625,23 H 14 14.125 14.25 14 q -0.25,0 -0.5,0 h -0.25 0.375"
       id="path392"
       inkscape:connector-curvature="0" />
    <path
       style="fill:#008040;fill-opacity:1"
       d="M 14,21.5 V 21 l 0.375,0.125 q 0.375,0.125 0.484375,0.484375 l 0.109375,0.359375 0.109375,-0.01563 0.109375,-0.01563 -0.21875,0.03125 Q 14.75,22 14.5,22 H 14.25 14.625 15 14.5 14 v -0.5 m 0,0.125 V 22 22.125 22.25 22 q 0,-0.25 0,-0.5 v -0.25 0.375"
       id="path394"
       inkscape:connector-curvature="0" />
    <path
       style="fill:#604800;fill-opacity:1"
       d="M 17.875,21.375 18,21 h 0.5 0.5 v 0.5 0.5 l -0.375,0.125 Q 18.25,22.25 18,22.5 17.75,22.75 17.375,22.875 L 17,23 17.28125,22.90625 17.5625,22.8125 17.375,22.875 q -0.1875,0.0625 -0.40625,0.09375 L 16.75,23 16.859375,22.984375 16.96875,22.96875 16.984375,22.484375 17,22 17.375,21.875 q 0.375,-0.125 0.5,-0.5 M 18.71875,22.09375 19,22 19.09375,21.96875 19.1875,21.9375 19,22 q -0.1875,0.0625 -0.375,0.125 l -0.1875,0.0625 0.28125,-0.09375 M 18.03125,20.90625 18,21 17.90625,21.28125 17.8125,21.5625 17.875,21.375 Q 17.9375,21.1875 18,21 l 0.0625,-0.1875 -0.03125,0.09375"
       id="path396"
       inkscape:connector-curvature="0" />
    <path
       style="fill:#004020;fill-opacity:1"
       d="M 19,21.5 V 21 H 19.5 20 19.625 19.25 19.5 q 0.25,0 0.46875,-0.03125 l 0.21875,-0.03125 -0.109375,0.01563 -0.109375,0.01563 -0.109375,0.390625 Q 19.75,21.75 19.375,21.875 L 19,22 V 21.5 M 18.90625,22.03125 19,22 19.28125,21.90625 19.5625,21.8125 19.375,21.875 Q 19.1875,21.9375 19,22 l -0.1875,0.0625 0.09375,-0.03125"
       id="path398"
       inkscape:connector-curvature="0" />
    <path
       style="fill:#008040;fill-opacity:1"
       d="m 16.125,22.625 q 0.125,-0.375 0.5,-0.5 L 17,22 l -0.01563,0.484375 -0.01563,0.484375 0.109375,-0.01563 0.109375,-0.01563 -0.21875,0.03125 Q 16.75,23 16.5,23 H 16.25 16.625 17 16.5 16 l 0.125,-0.375 M 15.875,23 H 16 16.375 16.75 16.5 q -0.25,0 -0.5,0 h -0.25 0.125"
       id="path400"
       inkscape:connector-curvature="0" />
  </g>
</svg>
