<?xml version="1.0" encoding="UTF-8" standalone="no"?>
<!-- Created with Inkscape (http://www.inkscape.org/) -->

<svg
   xmlns:dc="http://purl.org/dc/elements/1.1/"
   xmlns:cc="http://creativecommons.org/ns#"
   xmlns:rdf="http://www.w3.org/1999/02/22-rdf-syntax-ns#"
   xmlns:svg="http://www.w3.org/2000/svg"
   xmlns="http://www.w3.org/2000/svg"
   xmlns:sodipodi="http://sodipodi.sourceforge.net/DTD/sodipodi-0.dtd"
   xmlns:inkscape="http://www.inkscape.org/namespaces/inkscape"
   version="1.1"
   id="svg474"
   width="32"
   height="32"
   viewBox="0 0 32 32"
   sodipodi:docname="copper.svg"
   inkscape:version="0.92.5 (2060ec1f9f, 2020-04-08)">
  <metadata
     id="metadata480">
    <rdf:RDF>
      <cc:Work
         rdf:about="">
        <dc:format>image/svg+xml</dc:format>
        <dc:type
           rdf:resource="http://purl.org/dc/dcmitype/StillImage" />
        <dc:title />
      </cc:Work>
    </rdf:RDF>
  </metadata>
  <defs
     id="defs478" />
  <sodipodi:namedview
     pagecolor="#ffffff"
     bordercolor="#666666"
     borderopacity="1"
     objecttolerance="10"
     gridtolerance="10"
     guidetolerance="10"
     inkscape:pageopacity="0"
     inkscape:pageshadow="2"
     inkscape:window-width="1920"
     inkscape:window-height="1118"
     id="namedview476"
     showgrid="false"
     inkscape:zoom="7.375"
     inkscape:cx="-5.4915254"
     inkscape:cy="15.457627"
     inkscape:window-x="0"
     inkscape:window-y="24"
     inkscape:window-maximized="1"
     inkscape:current-layer="svg474" />
  <g
     transform="translate(0,6)"
     id="g520">
    <path
       style="fill:#000000;fill-opacity:0"
       d="M 0,0.5 V 0 H 0.5 1 1.5 2 2.5 3 3.5 4 4.5 5 5.5 6 6.5 7 7.5 8 8.5 9 9.5 10 10.5 11 11.5 12 12.5 13 13.5 14 14.5 15 15.5 16 16.5 17 17.5 18 18.5 19 19.5 20 20.5 21 21.5 22 22.5 23 23.5 24 24.5 25 25.5 26 26.5 27 27.5 28 28.5 29 29.5 30 30.5 31 31.5 32 V 0.5 1 1.5 2 2.5 3 3.5 4 4.5 5 5.5 6 6.5 7 7.5 8 8.5 9 9.5 10 10.5 11 11.5 12 12.5 13 13.5 14 14.5 15 15.5 16 16.5 17 17.5 18 18.5 19 19.5 20 20.5 21 21.5 22 22.5 23 23.5 24 24.5 25 25.5 26 26.5 27 27.5 28 28.5 29 29.5 30 30.5 31 31.5 32 H 31.5 31 30.5 30 29.5 29 28.5 28 27.5 27 26.5 26 25.5 25 24.5 24 23.5 23 22.5 22 21.5 21 20.5 20 19.5 19 18.5 18 17.5 17 16.5 16 15.5 15 14.5 14 13.5 13 12.5 12 11.5 11 10.5 10 9.5 9 8.5 8 7.5 7 6.5 6 5.5 5 4.5 4 3.5 3 2.5 2 1.5 1 0.5 0 V 31.5 31 30.5 30 29.5 29 28.5 28 27.5 27 26.5 26 25.5 25 24.5 24 23.5 23 22.5 22 21.5 21 20.5 20 19.5 19 18.5 18 17.5 17 16.5 16 15.5 15 14.5 14 13.5 13 12.5 12 11.5 11 10.5 10 9.5 9 8.5 8 7.5 7 6.5 6 5.5 5 4.5 4 3.5 3 2.5 2 1.5 1 0.5 M 19.5,25 Q 20,25 20,24.5 20,24 20.5,24 21,24 21.5,24 22,24 22,23.5 22,23 22.5,23 23,23 23,22.5 23,22 23.5,22 24,22 24,21.5 24,21 24,20.5 24,20 24,19.5 24,19 23.5,19 23,19 23,18.5 23,18 22.5,18 H 22 V 17.5 Q 22,17 22,16.5 22,16 21.875,15.625 21.75,15.25 21.359375,15.140625 L 20.96875,15.03125 20.984375,15.140625 21,15.25 20.96875,15.03125 Q 20.9375,14.8125 20.875,14.625 L 20.8125,14.4375 20.90625,14.71875 21,15 20.875,14.625 Q 20.75,14.25 20.5,14 20.25,13.75 20,13.5 19.75,13.25 19.375,13.125 19,13 18.625,12.875 18.25,12.75 18,12.5 17.75,12.25 17.375,12.125 17,12 16.5,12 q -0.5,0 -1,0 -0.5,0 -1,0 -0.5,0 -1,0 -0.5,0 -0.875,0.125 -0.375,0.125 -0.5,0.5 Q 12,13 11.5,13 q -0.5,0 -0.875,0.125 -0.375,0.125 -0.5,0.5 L 10,14 10.09375,13.71875 10.1875,13.4375 10.125,13.625 q -0.0625,0.1875 -0.09375,0.40625 L 10,14.25 10.015625,14.140625 10.03125,14.03125 9.640625,14.140625 Q 9.25,14.25 9.125,14.625 L 9,15 9.09375,14.71875 9.1875,14.4375 9.125,14.625 Q 9.0625,14.8125 9.03125,15.03125 L 9,15.25 9.015625,15.140625 9.03125,15.03125 8.640625,15.140625 Q 8.25,15.25 8.125,15.625 8,16 8,16.5 q 0,0.5 0,1 0,0.5 0,1 0,0.5 0.125,0.875 L 8.25,19.75 8.15625,19.46875 8.0625,19.1875 8.125,19.375 q 0.0625,0.1875 0.1875,0.3125 l 0.125,0.125 L 8.375,19.75 8.3125,19.6875 8.03125,19.96875 Q 7.75,20.25 7.875,20.625 8,21 8,21.5 8,22 8,22.5 8,23 8.5,23 9,23 9,23.5 9,24 9.5,24 q 0.5,0 1,0 0.5,0 0.5,0.5 0,0.5 0.5,0.5 0.5,0 1,0 0.5,0 1,0 0.5,0 1,0 0.5,0 1,0 0.5,0 1,0 0.5,0 1,0 0.5,0 1,0 0.5,0 1,0"
       id="path484"
       inkscape:connector-curvature="0" />
    <path
       style="fill:#ff8000;fill-opacity:1"
       d="m 12.125,12.625 q 0.125,-0.375 0.5,-0.5 Q 13,12 13.5,12 H 14 v 0.5 q 0,0.5 0,1 0,0.5 0,1 0,0.5 0,1 V 16 h -0.5 q -0.5,0 -1,0 H 12 12.375 12.75 12.5 q -0.25,0 -0.40625,0.09375 l -0.15625,0.09375 0.07813,-0.04687 0.07813,-0.04687 -0.04687,-0.546875 Q 12,15 12,14.5 12,14 11.953125,13.453125 L 11.90625,12.90625 11.828125,12.953125 11.75,13 11.90625,12.90625 Q 12.0625,12.8125 12.125,12.625 L 12.1875,12.4375 12.09375,12.71875 12,13 12.125,12.625 M 13.625,16 H 14 14.125 14.25 14 q -0.25,0 -0.5,0 h -0.25 0.375 m 0.5,-4 H 14 13.625 13.25 13.5 q 0.25,0 0.5,0 h 0.25 -0.125"
       id="path486"
       inkscape:connector-curvature="0" />
    <path
       style="fill:#e07000;fill-opacity:1"
       d="M 14,12.5 V 12 h 0.5 0.5 v 0.5 q 0,0.5 0,1 0,0.5 0,1 0,0.5 0,1 V 16 H 14.5 14 v -0.5 q 0,-0.5 0,-1 0,-0.5 0,-1 0,-0.5 0,-1 M 13.875,16 H 14 14.375 14.75 14.5 q -0.25,0 -0.5,0 h -0.25 0.125 m 0.75,0 H 15 15.125 15.25 15 q -0.25,0 -0.5,0 h -0.25 0.375 m 0.5,-4 H 15 14.625 14.25 14.5 q 0.25,0 0.5,0 h 0.25 -0.125 m -0.75,0 H 14 13.875 13.75 14 q 0.25,0 0.5,0 h 0.25 -0.375"
       id="path488"
       inkscape:connector-curvature="0" />
    <path
       style="fill:#c06000;fill-opacity:1"
       d="M 15,12.5 V 12 h 0.5 q 0.5,0 1,0 H 17 16.625 16.25 16.5 q 0.25,0 0.46875,0.03125 l 0.21875,0.03125 -0.109375,-0.01563 -0.109375,-0.01563 0.01563,0.484375 Q 17,13 17,13.5 q 0,0.5 0,1 0,0.5 -0.01563,1.015625 l -0.01563,0.515625 0.109375,0.01563 0.109375,0.01563 -0.21875,-0.03125 Q 16.75,16 16.5,16 H 16.25 16.625 17 16.5 q -0.5,0 -1,0 H 15 v -0.5 q 0,-0.5 0,-1 0,-0.5 0,-1 0,-0.5 0,-1 M 14.875,16 H 15 15.375 15.75 15.5 q -0.25,0 -0.5,0 h -0.25 0.125 m 0.5,-4 H 15 14.875 14.75 15 q 0.25,0 0.5,0 h 0.25 -0.375"
       id="path490"
       inkscape:connector-curvature="0" />
    <path
       style="fill:#a05000;fill-opacity:1"
       d="M 16.984375,12.515625 16.96875,12.03125 16.859375,12.015625 16.75,12 16.96875,12.03125 Q 17.1875,12.0625 17.375,12.125 L 17.5625,12.1875 17.28125,12.09375 17,12 17.375,12.125 Q 17.75,12.25 18,12.5 q 0.25,0.25 0.625,0.375 L 19,13 v 0.5 q 0,0.5 0,1 0,0.5 0,1 0,0.5 0,1 V 17 L 18.625,16.875 Q 18.25,16.75 18,16.5 17.75,16.25 17.375,16.125 L 17,16 17.28125,16.09375 17.5625,16.1875 17.375,16.125 Q 17.1875,16.0625 16.96875,16.03125 L 16.75,16 l 0.109375,0.01563 0.109375,0.01563 0.01563,-0.515625 Q 17,15 17,14.5 17,14 17,13.5 17,13 16.984375,12.515625 M 18.71875,16.90625 19,17 19.09375,17.03125 19.1875,17.0625 19,17 q -0.1875,-0.0625 -0.375,-0.125 l -0.1875,-0.0625 0.28125,0.09375 m 0.375,-3.875 L 19,13 18.71875,12.90625 18.4375,12.8125 18.625,12.875 Q 18.8125,12.9375 19,13 l 0.1875,0.0625 -0.09375,-0.03125"
       id="path492"
       inkscape:connector-curvature="0" />
    <path
       style="fill:#c06000;fill-opacity:1"
       d="m 10.125,13.625 q 0.125,-0.375 0.5,-0.5 L 11,13 10.71875,13.09375 10.4375,13.1875 10.625,13.125 q 0.1875,-0.0625 0.40625,-0.09375 L 11.25,13 11.140625,13.01563 11.03125,13.03126 11.01562,13.515635 Q 11,14 11,14.5 q 0,0.5 0,1 0,0.5 -0.01563,0.984375 l -0.01563,0.484375 0.109375,-0.01563 0.109375,-0.01563 -0.21875,0.03125 Q 10.75,17 10.5,17 H 10.25 10.625 11 10.5 10 v -0.5 q 0,-0.5 0,-1 0,-0.5 0,-1 0,-0.5 0.125,-0.875 m -0.125,3 V 17 17.125 17.25 17 q 0,-0.25 0,-0.5 v -0.25 0.375"
       id="path494"
       inkscape:connector-curvature="0" />
    <path
       style="fill:#e07000;fill-opacity:1"
       d="m 11.015625,13.515625 0.01563,-0.484375 -0.109375,0.01563 -0.109375,0.01563 0.21875,-0.03125 Q 11.25,13 11.5,13 H 11.75 11.375 11 11.5 12 11.625 11.25 11.5 q 0.25,0 0.40625,-0.09375 l 0.15625,-0.09375 -0.07813,0.04687 -0.07813,0.04687 0.04687,0.546875 Q 12,14 12,14.5 12,15 12.04687,15.546875 L 12.09374,16.09375 12.17187,16.04688 12.25,16 12.09375,16.09375 Q 11.9375,16.1875 11.875,16.375 L 11.8125,16.5625 11.90625,16.28125 12,16 11.875,16.375 q -0.125,0.375 -0.5,0.5 L 11,17 11.28125,16.90625 11.5625,16.8125 11.375,16.875 q -0.1875,0.0625 -0.40625,0.09375 L 10.75,17 10.859375,16.98437 10.96875,16.96874 10.98438,16.484365 Q 11,16 11,15.5 q 0,-0.5 0,-1 0,-0.5 0.01563,-0.984375"
       id="path496"
       inkscape:connector-curvature="0" />
    <path
       style="fill:#804000;fill-opacity:1"
       d="M 19,13.5 V 13 l 0.375,0.125 Q 19.75,13.25 20,13.5 q 0.25,0.25 0.5,0.5 0.25,0.25 0.375,0.625 Q 21,15 21,15.5 q 0,0.5 0,1 0,0.5 0,1 V 18 H 20.5 20 l -0.125,-0.375 q -0.125,-0.375 -0.5,-0.5 L 19,17 v -0.5 q 0,-0.5 0,-1 0,-0.5 0,-1 0,-0.5 0,-1 M 18.90625,16.96875 19,17 19.28125,17.09375 19.5625,17.1875 19.375,17.125 Q 19.1875,17.0625 19,17 l -0.1875,-0.0625 0.09375,0.03125 M 19.875,18 H 20 20.375 20.75 20.5 q -0.25,0 -0.5,0 h -0.25 0.125 M 21,18.125 V 18 17.625 17.25 17.5 q 0,0.25 0,0.5 v 0.25 -0.125 M 19.28125,13.09375 19,13 18.90625,12.96875 18.8125,12.9375 19,13 q 0.1875,0.0625 0.375,0.125 l 0.1875,0.0625 -0.28125,-0.09375"
       id="path498"
       inkscape:connector-curvature="0" />
    <path
       style="fill:#a05000;fill-opacity:1"
       d="M 9.125,14.625 Q 9.25,14.25 9.640625,14.140625 L 10.03125,14.03125 10.046875,13.921875 10.0625,13.8125 10.03125,14.03125 Q 10,14.25 10,14.5 V 14.75 14.375 14 14.5 q 0,0.5 0,1 0,0.5 0,1 0,0.5 0,1 V 18 H 9.5 9 V 17.5 Q 9,17 9,16.5 9,16 9,15.5 9,15 9.125,14.625 M 9,17.625 V 18 18.125 18.25 18 q 0,-0.25 0,-0.5 v -0.25 0.375 M 9.625,18 H 10 10.125 10.25 10 Q 9.75,18 9.5,18 H 9.25 9.625"
       id="path500"
       inkscape:connector-curvature="0" />
    <path
       style="fill:#804000;fill-opacity:1"
       d="M 8.125,15.625 Q 8.25,15.25 8.640625,15.140625 L 9.03125,15.03125 9.046875,14.921875 9.0625,14.8125 9.03125,15.03125 Q 9,15.25 9,15.5 V 15.75 15.375 15 15.5 q 0,0.5 0,1 0,0.5 0,1 0,0.5 0,1 0,0.5 0,1 V 20 19.625 19.25 19.5 q 0,0.25 0.03125,0.46875 L 9.0625,20.1875 9.046875,20.078125 9.03125,19.96875 8.640625,19.859375 Q 8.25,19.75 8.125,19.375 8,19 8,18.5 8,18 8,17.5 8,17 8,16.5 8,16 8.125,15.625"
       id="path502"
       inkscape:connector-curvature="0" />
    <path
       style="fill:#603000;fill-opacity:1"
       d="M 21,15.5 V 15 15.375 15.75 15.5 q 0,-0.25 -0.03125,-0.46875 l -0.03125,-0.21875 0.01563,0.109375 0.01563,0.109375 0.390625,0.109375 Q 21.75,15.25 21.875,15.625 22,16 22,16.5 q 0,0.5 0,1 v 0.5 0.5 q 0,0.5 -0.125,0.875 -0.125,0.375 -0.515625,0.484375 L 20.96875,19.96875 20.953125,20.078125 20.9375,20.1875 20.96875,19.96875 Q 21,19.75 21,19.5 V 19.25 19.625 20 19.5 q 0,-0.5 0,-1 0,-0.5 0,-1 0,-0.5 0,-1 0,-0.5 0,-1"
       id="path504"
       inkscape:connector-curvature="0" />
    <path
       style="fill:#000000;fill-opacity:0"
       d="M 11.875,16.375 Q 12,16 12.5,16 q 0.5,0 1,0 0.5,0 1,0 0.5,0 1,0 0.5,0 1,0 0.5,0 0.875,0.125 0.375,0.125 0.625,0.375 0.25,0.25 0.625,0.375 0.375,0.125 0.75,0.25 0.375,0.125 0.5,0.5 L 20,18 H 19.5 Q 19,18 18.625,18.125 18.25,18.25 18,18.5 17.75,18.75 17.375,18.875 17,19 16.5,19 q -0.5,0 -1,0 -0.5,0 -1,0 -0.5,0 -1,0 -0.5,0 -1.015625,0.01563 L 11.96875,19.03126 11.98438,19.140635 12,19.25 11.96875,19.03125 Q 11.9375,18.8125 11.875,18.625 L 11.8125,18.4375 11.90625,18.71875 12,19 11.875,18.625 Q 11.75,18.25 11.375,18.125 11,18 10.5,18 H 10 V 17.5 17 h 0.5 q 0.5,0 0.875,-0.125 0.375,-0.125 0.5,-0.5 M 10,16.875 V 17 17.375 17.75 17.5 q 0,-0.25 0,-0.5 v -0.25 0.125 M 9.875,18 H 10 10.375 10.75 10.5 Q 10.25,18 10,18 H 9.75 9.875 m 9.75,0 H 20 20.125 20.25 20 q -0.25,0 -0.5,0 h -0.25 0.375"
       id="path506"
       inkscape:connector-curvature="0" />
    <path
       style="fill:#402000;fill-opacity:1"
       d="M 9,18.5 V 18 h 0.5 q 0.5,0 1,0 0.5,0 0.875,0.125 0.375,0.125 0.5,0.5 Q 12,19 12,19.5 q 0,0.5 0,1 0,0.5 0,1 V 22 21.625 21.25 21.5 q 0,0.25 0.03125,0.46875 L 12.0625,22.1875 12.04687,22.078125 12.03124,21.96875 11.515615,21.98438 Q 11,22 10.625,21.875 10.25,21.75 10,21.5 9.75,21.25 9.5,21 9.25,20.75 9.125,20.375 9,20 9,19.5 9,19 9,18.5 M 9,17.875 V 18 18.375 18.75 18.5 Q 9,18.25 9,18 v -0.25 0.125"
       id="path508"
       inkscape:connector-curvature="0" />
    <path
       style="fill:#603000;fill-opacity:1"
       d="m 18,18.5 q 0.25,-0.25 0.625,-0.375 L 19,18 18.71875,18.09375 18.4375,18.1875 18.625,18.125 q 0.1875,-0.0625 0.40625,-0.09375 L 19.25,18 19.140625,18.01563 19.03125,18.03126 19.01562,18.515635 Q 19,19 19,19.5 q 0,0.5 0,1 0,0.5 0,1 V 22 l -0.375,0.125 Q 18.25,22.25 18,22.5 17.75,22.75 17.375,22.875 L 17,23 17.28125,22.90625 17.5625,22.8125 17.375,22.875 q -0.1875,0.0625 -0.40625,0.09375 L 16.75,23 16.859375,22.98437 16.96875,22.96874 16.98438,22.484365 Q 17,22 17,21.5 17,21 17,20.5 17,20 16.984375,19.484375 L 16.96875,18.96875 16.859375,18.984375 16.75,19 16.96875,18.96875 Q 17.1875,18.9375 17.375,18.875 L 17.5625,18.8125 17.28125,18.90625 17,19 17.375,18.875 Q 17.75,18.75 18,18.5 M 18.71875,22.09375 19,22 19.09375,21.96875 19.1875,21.9375 19,22 q -0.1875,0.0625 -0.375,0.125 l -0.1875,0.0625 0.28125,-0.09375"
       id="path510"
       inkscape:connector-curvature="0" />
    <path
       style="fill:#402000;fill-opacity:1"
       d="m 19.015625,18.515625 0.01563,-0.484375 -0.109375,0.01563 -0.109375,0.01563 0.21875,-0.03125 Q 19.25,18 19.5,18 H 19.75 19.375 19 19.5 q 0.5,0 1,0 H 21 v 0.5 q 0,0.5 0,1 0,0.5 -0.125,0.875 Q 20.75,20.75 20.5,21 20.25,21.25 20,21.5 19.75,21.75 19.375,21.875 L 19,22 v -0.5 q 0,-0.5 0,-1 0,-0.5 0,-1 0,-0.5 0.01563,-0.984375 M 18.90625,22.03125 19,22 19.28125,21.90625 19.5625,21.8125 19.375,21.875 Q 19.1875,21.9375 19,22 l -0.1875,0.0625 0.09375,-0.03125 M 21,18.375 V 18 17.875 17.75 18 q 0,0.25 0,0.5 v 0.25 -0.375"
       id="path512"
       inkscape:connector-curvature="0" />
    <path
       style="fill:#000000;fill-opacity:1"
       d="M 22,18.5 V 18 h 0.5 q 0.5,0 0.5,0.5 0,0.5 0.5,0.5 0.5,0 0.5,0.5 0,0.5 0,1 0,0.5 0,1 Q 24,22 23.5,22 23,22 23,22.5 23,23 22.5,23 22,23 22,23.5 22,24 21.5,24 21,24 20.5,24 20,24 20,24.5 20,25 19.5,25 q -0.5,0 -1,0 -0.5,0 -1,0 -0.5,0 -1,0 -0.5,0 -1,0 -0.5,0 -1,0 -0.5,0 -1,0 -0.5,0 -1,0 -0.5,0 -1,0 Q 11,25 11,24.5 11,24 10.5,24 10,24 9.5,24 9,24 9,23.5 9,23 8.5,23 8,23 8,22.5 8,22 8,21.5 8,21 7.875,20.625 7.75,20.25 8.03125,19.96875 L 8.3125,19.6875 8.25,19.625 8.1875,19.5625 l 0.125,0.125 q 0.125,0.125 0.3125,0.1875 L 8.8125,19.9375 8.53125,19.84375 8.25,19.75 8.640625,19.859375 9.03125,19.96875 9.015625,19.859375 9,19.75 9.03125,19.96875 Q 9.0625,20.1875 9.125,20.375 L 9.1875,20.5625 9.09375,20.28125 9,20 9.125,20.375 Q 9.25,20.75 9.5,21 q 0.25,0.25 0.5,0.5 0.25,0.25 0.625,0.375 Q 11,22 11.515625,21.984375 L 12.03125,21.96875 12.015625,21.859375 12,21.75 12.03125,21.96875 Q 12.0625,22.1875 12.125,22.375 L 12.1875,22.5625 12.09375,22.28125 12,22 l 0.125,0.375 q 0.125,0.375 0.5,0.5 Q 13,23 13.5,23 q 0.5,0 1,0 0.5,0 1,0 0.5,0 1,0 0.5,0 0.875,-0.125 Q 17.75,22.75 18,22.5 18.25,22.25 18.625,22.125 19,22 19.375,21.875 19.75,21.75 20,21.5 20.25,21.25 20.5,21 20.75,20.75 20.875,20.375 L 21,20 20.90625,20.28125 20.8125,20.5625 20.875,20.375 q 0.0625,-0.1875 0.09375,-0.40625 L 21,19.75 20.98437,19.859375 20.96874,19.96875 21.359365,19.859375 Q 21.75,19.75 21.875,19.375 22,19 22,18.5"
       id="path514"
       inkscape:connector-curvature="0" />
    <path
       style="fill:#603000;fill-opacity:1"
       d="M 12,19.5 V 19 19.375 19.75 19.5 q 0,-0.25 -0.03125,-0.46875 l -0.03125,-0.21875 0.01563,0.109375 0.01563,0.109375 0.515625,-0.01563 Q 13,19 13.5,19 H 14 v 0.5 q 0,0.5 0,1 0,0.5 0,1 0,0.5 0,1 V 23 H 13.5 Q 13,23 12.625,22.875 12.25,22.75 12.125,22.375 12,22 12,21.5 q 0,-0.5 0,-1 0,-0.5 0,-1 M 13.625,23 H 14 14.125 14.25 14 q -0.25,0 -0.5,0 h -0.25 0.375 m 0.5,-4 H 14 13.625 13.25 13.5 q 0.25,0 0.5,0 h 0.25 -0.125"
       id="path516"
       inkscape:connector-curvature="0" />
    <path
       style="fill:#804000;fill-opacity:1"
       d="M 14,19.5 V 19 h 0.5 q 0.5,0 1,0 0.5,0 1,0 H 17 16.625 16.25 16.5 q 0.25,0 0.46875,-0.03125 l 0.21875,-0.03125 -0.109375,0.01563 -0.109375,0.01563 0.01563,0.515625 Q 17,20 17,20.5 q 0,0.5 0,1 0,0.5 -0.01563,0.984375 l -0.01563,0.484375 0.109375,-0.01563 0.109375,-0.01563 -0.21875,0.03125 Q 16.75,23 16.5,23 H 16.25 16.625 17 16.5 q -0.5,0 -1,0 -0.5,0 -1,0 H 14 v -0.5 q 0,-0.5 0,-1 0,-0.5 0,-1 0,-0.5 0,-1 M 13.875,23 H 14 14.375 14.75 14.5 q -0.25,0 -0.5,0 h -0.25 0.125 m 0.5,-4 H 14 13.875 13.75 14 q 0.25,0 0.5,0 h 0.25 -0.375"
       id="path518"
       inkscape:connector-curvature="0" />
  </g>
</svg>
