<?xml version="1.0" encoding="UTF-8" standalone="no"?>
<!-- Created with Inkscape (http://www.inkscape.org/) -->

<svg
   xmlns:dc="http://purl.org/dc/elements/1.1/"
   xmlns:cc="http://creativecommons.org/ns#"
   xmlns:rdf="http://www.w3.org/1999/02/22-rdf-syntax-ns#"
   xmlns:svg="http://www.w3.org/2000/svg"
   xmlns="http://www.w3.org/2000/svg"
   xmlns:sodipodi="http://sodipodi.sourceforge.net/DTD/sodipodi-0.dtd"
   xmlns:inkscape="http://www.inkscape.org/namespaces/inkscape"
   version="1.1"
   id="svg592"
   width="32"
   height="32"
   viewBox="0 0 32 32"
   sodipodi:docname="gold.svg"
   inkscape:version="0.92.5 (2060ec1f9f, 2020-04-08)">
  <metadata
     id="metadata598">
    <rdf:RDF>
      <cc:Work
         rdf:about="">
        <dc:format>image/svg+xml</dc:format>
        <dc:type
           rdf:resource="http://purl.org/dc/dcmitype/StillImage" />
        <dc:title />
      </cc:Work>
    </rdf:RDF>
  </metadata>
  <defs
     id="defs596" />
  <sodipodi:namedview
     pagecolor="#ffffff"
     bordercolor="#666666"
     borderopacity="1"
     objecttolerance="10"
     gridtolerance="10"
     guidetolerance="10"
     inkscape:pageopacity="0"
     inkscape:pageshadow="2"
     inkscape:window-width="1920"
     inkscape:window-height="1118"
     id="namedview594"
     showgrid="false"
     inkscape:zoom="7.375"
     inkscape:cx="-6.0338983"
     inkscape:cy="16"
     inkscape:window-x="0"
     inkscape:window-y="24"
     inkscape:window-maximized="1"
     inkscape:current-layer="svg592" />
  <g
     transform="translate(0,6)"
     id="g652">
    <path
       style="fill:#000000;fill-opacity:0"
       d="M 0,0.5 V 0 H 0.5 1 1.5 2 2.5 3 3.5 4 4.5 5 5.5 6 6.5 7 7.5 8 8.5 9 9.5 10 10.5 11 11.5 12 12.5 13 13.5 14 14.5 15 15.5 16 16.5 17 17.5 18 18.5 19 19.5 20 20.5 21 21.5 22 22.5 23 23.5 24 24.5 25 25.5 26 26.5 27 27.5 28 28.5 29 29.5 30 30.5 31 31.5 32 V 0.5 1 1.5 2 2.5 3 3.5 4 4.5 5 5.5 6 6.5 7 7.5 8 8.5 9 9.5 10 10.5 11 11.5 12 12.5 13 13.5 14 14.5 15 15.5 16 16.5 17 17.5 18 18.5 19 19.5 20 20.5 21 21.5 22 22.5 23 23.5 24 24.5 25 25.5 26 26.5 27 27.5 28 28.5 29 29.5 30 30.5 31 31.5 32 H 31.5 31 30.5 30 29.5 29 28.5 28 27.5 27 26.5 26 25.5 25 24.5 24 23.5 23 22.5 22 21.5 21 20.5 20 19.5 19 18.5 18 17.5 17 16.5 16 15.5 15 14.5 14 13.5 13 12.5 12 11.5 11 10.5 10 9.5 9 8.5 8 7.5 7 6.5 6 5.5 5 4.5 4 3.5 3 2.5 2 1.5 1 0.5 0 V 31.5 31 30.5 30 29.5 29 28.5 28 27.5 27 26.5 26 25.5 25 24.5 24 23.5 23 22.5 22 21.5 21 20.5 20 19.5 19 18.5 18 17.5 17 16.5 16 15.5 15 14.5 14 13.5 13 12.5 12 11.5 11 10.5 10 9.5 9 8.5 8 7.5 7 6.5 6 5.5 5 4.5 4 3.5 3 2.5 2 1.5 1 0.5 M 19.5,25 Q 20,25 20,24.5 20,24 20.5,24 21,24 21.5,24 22,24 22,23.5 22,23 22.5,23 23,23 23,22.5 23,22 23.5,22 24,22 24,21.5 q 0,-0.5 0,-1 0,-0.5 0,-1 0,-0.5 0,-1 Q 24,18 23.5,18 23,18 23,17.5 23,17 23,16.5 23,16 22.5,16 H 22 V 15.5 Q 22,15 21.875,14.625 21.75,14.25 21.375,14.125 21,14 20.875,13.625 20.75,13.25 20.375,13.125 20,13 19.875,12.625 19.75,12.25 19.375,12.125 19,12 18.625,11.875 18.25,11.75 18,11.5 17.75,11.25 17.375,11.125 17,11 16.5,11 q -0.5,0 -1,0 -0.5,0 -1,0 -0.5,0 -1,0 -0.5,0 -0.875,0.125 -0.375,0.125 -0.5,0.5 Q 12,12 11.5,12 11,12 10.625,12.125 10.25,12.25 10.125,12.625 10,13 9.625,13.125 9.25,13.25 9.125,13.625 9,14 8.625,14.125 8.25,14.25 8.125,14.625 8,15 8,15.5 q 0,0.5 0,1 0,0.5 0,1 0,0.5 0,1 0,0.5 0.125,0.875 L 8.25,19.75 8.15625,19.46875 8.0625,19.1875 8.125,19.375 q 0.0625,0.1875 0.1875,0.3125 l 0.125,0.125 L 8.375,19.75 8.3125,19.6875 8.03125,19.96875 Q 7.75,20.25 7.875,20.625 8,21 8,21.5 8,22 8,22.5 8,23 8.5,23 9,23 9,23.5 9,24 9.5,24 q 0.5,0 1,0 0.5,0 0.5,0.5 0,0.5 0.5,0.5 0.5,0 1,0 0.5,0 1,0 0.5,0 1,0 0.5,0 1,0 0.5,0 1,0 0.5,0 1,0 0.5,0 1,0 0.5,0 1,0"
       id="path602"
       inkscape:connector-curvature="0" />
    <path
       style="fill:#f8e060;fill-opacity:1"
       d="m 12.125,11.625 q 0.125,-0.375 0.5,-0.5 L 13,11 12.71875,11.09375 12.4375,11.1875 12.625,11.125 q 0.1875,-0.0625 0.40625,-0.09375 L 13.25,11 13.140625,11.01563 13.03125,11.03126 13.01562,11.515635 Q 13,12 13,12.5 q 0,0.5 0,1 0,0.5 0,1 V 15 H 12.5 12 12.375 12.75 12.5 q -0.25,0 -0.40625,0.09375 l -0.15625,0.09375 0.07813,-0.04687 0.07813,-0.04687 -0.04687,-0.546875 Q 12,14 12,13.5 12,13 11.953125,12.453125 L 11.90625,11.90625 11.828125,11.953125 11.75,12 11.90625,11.90625 Q 12.0625,11.8125 12.125,11.625 L 12.1875,11.4375 12.09375,11.71875 12,12 12.125,11.625 M 12.625,15 H 13 13.125 13.25 13 q -0.25,0 -0.5,0 h -0.25 0.375"
       id="path604"
       inkscape:connector-curvature="0" />
    <path
       style="fill:#fcfc99;fill-opacity:1"
       d="m 13.015625,11.515625 0.01563,-0.484375 -0.109375,0.01563 -0.109375,0.01563 0.21875,-0.03125 Q 13.25,11 13.5,11 H 13.75 13.375 13 13.5 q 0.5,0 1,0 H 15 v 0.5 q 0,0.5 0,1 0,0.5 0,1 0,0.5 0,1 V 15 h -0.5 q -0.5,0 -1,0 H 13 v -0.5 q 0,-0.5 0,-1 0,-0.5 0,-1 0,-0.5 0.01563,-0.984375 M 12.875,15 H 13 13.375 13.75 13.5 q -0.25,0 -0.5,0 h -0.25 0.125 m 1.75,0 H 15 15.125 15.25 15 q -0.25,0 -0.5,0 h -0.25 0.375 m 0.5,-4 H 15 14.625 14.25 14.5 q 0.25,0 0.5,0 h 0.25 -0.125"
       id="path606"
       inkscape:connector-curvature="0" />
    <path
       style="fill:#f8e060;fill-opacity:1"
       d="M 15,11.5 V 11 h 0.5 q 0.5,0 1,0 H 17 16.625 16.25 16.5 q 0.25,0 0.46875,0.03125 l 0.21875,0.03125 -0.109375,-0.01563 -0.109375,-0.01563 0.01563,0.484375 Q 17,12 17,12.5 q 0,0.5 0,1 0,0.5 -0.01563,1.015625 l -0.01563,0.515625 0.109375,0.01563 0.109375,0.01563 -0.21875,-0.03125 Q 16.75,15 16.5,15 H 16.25 16.625 17 16.5 q -0.5,0 -1,0 H 15 v -0.5 q 0,-0.5 0,-1 0,-0.5 0,-1 0,-0.5 0,-1 M 14.875,15 H 15 15.375 15.75 15.5 q -0.25,0 -0.5,0 h -0.25 0.125 m 0.5,-4 H 15 14.875 14.75 15 q 0.25,0 0.5,0 h 0.25 -0.375"
       id="path608"
       inkscape:connector-curvature="0" />
    <path
       style="fill:#f2c44d;fill-opacity:1"
       d="M 16.984375,11.515625 16.96875,11.03125 16.859375,11.015625 16.75,11 16.96875,11.03125 Q 17.1875,11.0625 17.375,11.125 L 17.5625,11.1875 17.28125,11.09375 17,11 17.375,11.125 Q 17.75,11.25 18,11.5 q 0.25,0.25 0.625,0.375 L 19,12 v 0.5 q 0,0.5 0,1 0,0.5 0,1 0,0.5 -0.03125,1.03125 L 18.9375,16.0625 19,16.125 l 0.0625,0.0625 -0.125,-0.125 Q 18.8125,15.9375 18.625,15.875 L 18.4375,15.8125 18.71875,15.90625 19,16 18.625,15.875 Q 18.25,15.75 18,15.5 17.75,15.25 17.375,15.125 L 17,15 17.28125,15.09375 17.5625,15.1875 17.375,15.125 Q 17.1875,15.0625 16.96875,15.03125 L 16.75,15 l 0.109375,0.01563 0.109375,0.01563 0.01563,-0.515625 Q 17,14 17,13.5 17,13 17,12.5 17,12 16.984375,11.515625 M 19.09375,12.03125 19,12 18.71875,11.90625 18.4375,11.8125 18.625,11.875 Q 18.8125,11.9375 19,12 l 0.1875,0.0625 -0.09375,-0.03125"
       id="path610"
       inkscape:connector-curvature="0" />
    <path
       style="fill:#f2c44d;fill-opacity:1"
       d="m 10.125,12.625 q 0.125,-0.375 0.5,-0.5 Q 11,12 11.5,12 H 12 11.625 11.25 11.5 q 0.25,0 0.40625,-0.09375 l 0.15625,-0.09375 -0.07813,0.04687 -0.07813,0.04687 0.04687,0.546875 Q 12,13 12,13.5 12,14 12.04687,14.546875 L 12.09374,15.09375 12.17187,15.04688 12.25,15 12.09375,15.09375 Q 11.9375,15.1875 11.875,15.375 L 11.8125,15.5625 11.90625,15.28125 12,15 11.875,15.375 Q 11.75,15.75 11.5,16 11.25,16.25 11,16.5 10.75,16.75 10.375,16.875 L 10,17 v -0.5 q 0,-0.5 0,-1 0,-0.5 0,-1 Q 10,14 9.96875,13.46875 L 9.9375,12.9375 9.875,13 l -0.0625,0.0625 0.125,-0.125 q 0.125,-0.125 0.1875,-0.3125 L 10.1875,12.4375 10.09375,12.71875 10,13 10.125,12.625"
       id="path612"
       inkscape:connector-curvature="0" />
    <path
       style="fill:#c0a040;fill-opacity:1"
       d="M 19,12.5 V 12 l 0.375,0.125 q 0.375,0.125 0.5,0.5 L 20,13 19.90625,12.71875 19.8125,12.4375 19.875,12.625 q 0.0625,0.1875 0.1875,0.3125 l 0.125,0.125 L 20.125,13 20.0625,12.9375 20.03125,13.46875 Q 20,14 20,14.5 q 0,0.5 0,1 0,0.5 0,1 V 17 l -0.375,-0.125 q -0.375,-0.125 -0.5,-0.5 L 19,16 19.09375,16.28125 19.1875,16.5625 19.125,16.375 q -0.0625,-0.1875 -0.1875,-0.3125 l -0.125,-0.125 0.0625,0.0625 0.0625,0.0625 0.03125,-0.53125 Q 19,15 19,14.5 q 0,-0.5 0,-1 0,-0.5 0,-1 M 19.28125,12.09375 19,12 18.90625,11.96875 18.8125,11.9375 19,12 q 0.1875,0.0625 0.375,0.125 l 0.1875,0.0625 -0.28125,-0.09375"
       id="path614"
       inkscape:connector-curvature="0" />
    <path
       style="fill:#c0a040;fill-opacity:1"
       d="m 9.125,13.625 q 0.125,-0.375 0.5,-0.5 L 10,13 9.71875,13.09375 9.4375,13.1875 9.625,13.125 q 0.1875,-0.0625 0.3125,-0.1875 l 0.125,-0.125 L 10,12.875 9.9375,12.9375 9.96875,13.46875 Q 10,14 10,14.5 q 0,0.5 0,1 0,0.5 0,1 V 17 H 9.5 9 V 16.5 Q 9,16 9,15.5 9,15 8.96875,14.46875 L 8.9375,13.9375 8.875,14 8.8125,14.0625 8.9375,13.9375 Q 9.0625,13.8125 9.125,13.625 L 9.1875,13.4375 9.09375,13.71875 9,14 9.125,13.625 M 9,16.625 V 17 17.125 17.25 17 q 0,-0.25 0,-0.5 v -0.25 0.375"
       id="path616"
       inkscape:connector-curvature="0" />
    <path
       style="fill:#f2c44d;fill-opacity:1"
       d="M 20.03125,13.46875 20.0625,12.9375 20,12.875 l -0.0625,-0.0625 0.125,0.125 q 0.125,0.125 0.3125,0.1875 L 20.5625,13.1875 20.28125,13.09375 20,13 l 0.375,0.125 q 0.375,0.125 0.5,0.5 L 21,14 20.90625,13.71875 20.8125,13.4375 20.875,13.625 q 0.0625,0.1875 0.1875,0.3125 l 0.125,0.125 L 21.125,14 21.0625,13.9375 21.03125,14.46875 Q 21,15 21,15.5 q 0,0.5 0,1 V 17 H 20.5 20 v -0.5 q 0,-0.5 0,-1 0,-0.5 0,-1 0,-0.5 0.03125,-1.03125 M 21,17.125 V 17 16.625 16.25 16.5 q 0,0.25 0,0.5 v 0.25 -0.125"
       id="path618"
       inkscape:connector-curvature="0" />
    <path
       style="fill:#f2c44d;fill-opacity:1"
       d="m 8.125,14.625 q 0.125,-0.375 0.5,-0.5 L 9,14 8.71875,14.09375 8.4375,14.1875 8.625,14.125 Q 8.8125,14.0625 8.9375,13.9375 L 9.0625,13.8125 9,13.875 8.9375,13.9375 8.96875,14.46875 Q 9,15 9,15.5 q 0,0.5 0,1 0,0.5 0,1 V 18 H 8.5 8 V 17.5 Q 8,17 8,16.5 8,16 8,15.5 8,15 8.125,14.625 M 8,17.625 V 18 18.125 18.25 18 q 0,-0.25 0,-0.5 v -0.25 0.375 m 1,0.5 V 18 17.625 17.25 17.5 q 0,0.25 0,0.5 v 0.25 -0.125"
       id="path620"
       inkscape:connector-curvature="0" />
    <path
       style="fill:#c0a040;fill-opacity:1"
       d="M 21.03125,14.46875 21.0625,13.9375 21,13.875 l -0.0625,-0.0625 0.125,0.125 q 0.125,0.125 0.3125,0.1875 L 21.5625,14.1875 21.28125,14.09375 21,14 l 0.375,0.125 q 0.375,0.125 0.5,0.5 Q 22,15 22,15.5 v 0.5 0.5 q 0,0.5 0,1 0,0.5 -0.125,0.875 -0.125,0.375 -0.5,0.5 L 21,19 v -0.5 q 0,-0.5 0,-1 0,-0.5 0,-1 0,-0.5 0,-1 0,-0.5 0.03125,-1.03125 M 21,18.625 V 19 19.125 19.25 19 q 0,-0.25 0,-0.5 v -0.25 0.375"
       id="path622"
       inkscape:connector-curvature="0" />
    <path
       style="fill:#000000;fill-opacity:0"
       d="M 11.875,15.375 Q 12,15 12.5,15 q 0.5,0 1,0 0.5,0 1,0 0.5,0 1,0 0.5,0 1,0 0.5,0 0.875,0.125 0.375,0.125 0.625,0.375 0.25,0.25 0.625,0.375 0.375,0.125 0.5,0.5 0.125,0.375 0.5,0.5 L 20,17 V 17.5 18 H 19.5 19 l -0.375,0.125 q -0.375,0.125 -0.5,0.5 Q 18,19 17.5,19 q -0.5,0 -1,0 -0.5,0 -1,0 -0.5,0 -1,0 -0.5,0 -1,0 -0.5,0 -1.015625,0.01563 L 11.96875,19.03126 11.98438,19.140635 12,19.25 11.96875,19.03125 Q 11.9375,18.8125 11.875,18.625 L 11.8125,18.4375 11.90625,18.71875 12,19 11.875,18.625 Q 11.75,18.25 11.375,18.125 11,18 10.5,18 H 10 V 17.5 17 l 0.375,-0.125 Q 10.75,16.75 11,16.5 11.25,16.25 11.5,16 11.75,15.75 11.875,15.375 M 10,17.625 V 18 18.125 18.25 18 q 0,-0.25 0,-0.5 v -0.25 0.375 m 10,0.5 V 18 17.625 17.25 17.5 q 0,0.25 0,0.5 v 0.25 -0.125"
       id="path624"
       inkscape:connector-curvature="0" />
    <path
       style="fill:#000000;fill-opacity:1"
       d="M 22,16.5 V 16 h 0.5 q 0.5,0 0.5,0.5 0,0.5 0,1 0,0.5 0.5,0.5 0.5,0 0.5,0.5 0,0.5 0,1 0,0.5 0,1 0,0.5 0,1 Q 24,22 23.5,22 23,22 23,22.5 23,23 22.5,23 22,23 22,23.5 22,24 21.5,24 21,24 20.5,24 20,24 20,24.5 20,25 19.5,25 q -0.5,0 -1,0 -0.5,0 -1,0 -0.5,0 -1,0 -0.5,0 -1,0 -0.5,0 -1,0 -0.5,0 -1,0 -0.5,0 -1,0 -0.5,0 -1,0 Q 11,25 11,24.5 11,24 10.5,24 10,24 9.5,24 9,24 9,23.5 9,23 8.5,23 8,23 8,22.5 8,22 8,21.5 8,21 7.875,20.625 7.75,20.25 8.03125,19.96875 L 8.3125,19.6875 8.25,19.625 8.1875,19.5625 l 0.125,0.125 q 0.125,0.125 0.3125,0.1875 L 8.8125,19.9375 8.53125,19.84375 8.25,19.75 8.640625,19.859375 9.03125,19.96875 9.015625,19.859375 9,19.75 9.03125,19.96875 Q 9.0625,20.1875 9.125,20.375 L 9.1875,20.5625 9.09375,20.28125 9,20 9.125,20.375 Q 9.25,20.75 9.640625,20.859375 L 10.03125,20.96875 10.015625,20.859375 10,20.75 10.03125,20.96875 Q 10.0625,21.1875 10.125,21.375 L 10.1875,21.5625 10.09375,21.28125 10,21 l 0.125,0.375 q 0.125,0.375 0.515625,0.484375 L 11.03125,21.96875 11.015625,21.859375 11,21.75 11.03125,21.96875 Q 11.0625,22.1875 11.125,22.375 L 11.1875,22.5625 11.09375,22.28125 11,22 l 0.125,0.375 q 0.125,0.375 0.5,0.5 Q 12,23 12.5,23 q 0.5,0 1,0 0.5,0 1,0 0.5,0 1,0 0.5,0 1,0 0.5,0 0.875,-0.125 0.375,-0.125 0.5,-0.5 Q 18,22 18.5,22 H 19 l 0.375,-0.125 q 0.375,-0.125 0.5,-0.5 L 20,21 19.90625,21.28125 19.8125,21.5625 19.875,21.375 q 0.0625,-0.1875 0.09375,-0.40625 L 20,20.75 19.98437,20.859375 19.96874,20.96875 20.359365,20.859375 Q 20.75,20.75 20.875,20.375 21,20 21,19.5 V 19 l 0.375,-0.125 q 0.375,-0.125 0.5,-0.5 Q 22,18 22,17.5 q 0,-0.5 0,-1 m -1,2.375 V 19 19.375 19.75 19.5 q 0,-0.25 0,-0.5 v -0.25 0.125"
       id="path626"
       inkscape:connector-curvature="0" />
    <path
       style="fill:#68541f;fill-opacity:1"
       d="M 9,17.5 V 17 H 9.5 10 v 0.5 q 0,0.5 0,1 0,0.5 0,1 0,0.5 0,1 V 21 20.625 20.25 20.5 q 0,0.25 0.03125,0.46875 L 10.0625,21.1875 10.046875,21.078125 10.03125,20.96875 9.640625,20.859375 Q 9.25,20.75 9.125,20.375 9,20 9,19.5 9,19 9,18.5 9,18 9,17.5 M 9,16.875 V 17 17.375 17.75 17.5 Q 9,17.25 9,17 v -0.25 0.125"
       id="path628"
       inkscape:connector-curvature="0" />
    <path
       style="fill:#68541f;fill-opacity:1"
       d="M 20,17.5 V 17 h 0.5 0.5 v 0.5 q 0,0.5 0,1 0,0.5 0,1 0,0.5 -0.125,0.875 -0.125,0.375 -0.515625,0.484375 L 19.96875,20.96875 19.953125,21.078125 19.9375,21.1875 19.96875,20.96875 Q 20,20.75 20,20.5 V 20.25 20.625 21 20.5 q 0,-0.5 0,-1 0,-0.5 0,-1 0,-0.5 0,-1 m 1,-0.125 V 17 16.875 16.75 17 q 0,0.25 0,0.5 v 0.25 -0.375"
       id="path630"
       inkscape:connector-curvature="0" />
    <path
       style="fill:#c0a040;fill-opacity:1"
       d="M 8,18.5 V 18 H 8.5 9 v 0.5 q 0,0.5 0,1 V 20 19.625 19.25 19.5 q 0,0.25 0.03125,0.46875 L 9.0625,20.1875 9.046875,20.078125 9.03125,19.96875 8.640625,19.859375 Q 8.25,19.75 8.125,19.375 8,19 8,18.5 M 9,18.375 V 18 17.875 17.75 18 q 0,0.25 0,0.5 v 0.25 -0.375 m -1,-0.5 V 18 18.375 18.75 18.5 Q 8,18.25 8,18 v -0.25 0.125"
       id="path632"
       inkscape:connector-curvature="0" />
    <path
       style="fill:#807020;fill-opacity:1"
       d="M 10,18.5 V 18 H 10.5 11 10.625 10.25 10.5 q 0.25,0 0.46875,0.03125 l 0.21875,0.03125 -0.109375,-0.01563 -0.109375,-0.01563 0.01563,0.484375 Q 11,19 11,19.5 q 0,0.5 0,1 0,0.5 0,1 V 22 21.625 21.25 21.5 q 0,0.25 0.03125,0.46875 L 11.0625,22.1875 11.046875,22.078125 11.03125,21.96875 10.640625,21.859375 Q 10.25,21.75 10.125,21.375 10,21 10,20.5 q 0,-0.5 0,-1 0,-0.5 0,-1 m 0,-0.625 V 18 18.375 18.75 18.5 q 0,-0.25 0,-0.5 v -0.25 0.125"
       id="path634"
       inkscape:connector-curvature="0" />
    <path
       style="fill:#68541f;fill-opacity:1"
       d="M 10.984375,18.515625 10.96875,18.03125 10.859375,18.015625 10.75,18 10.96875,18.03125 Q 11.1875,18.0625 11.375,18.125 L 11.5625,18.1875 11.28125,18.09375 11,18 l 0.375,0.125 q 0.375,0.125 0.5,0.5 Q 12,19 12,19.5 q 0,0.5 0,1 0,0.5 0,1 0,0.5 0.01563,0.984375 l 0.01563,0.484375 0.109375,0.01563 L 12.25,23 12.03125,22.96875 Q 11.8125,22.9375 11.625,22.875 L 11.4375,22.8125 11.71875,22.90625 12,23 11.625,22.875 Q 11.25,22.75 11.125,22.375 11,22 11,21.5 q 0,-0.5 0,-1 0,-0.5 0,-1 0,-0.5 -0.01563,-0.984375"
       id="path636"
       inkscape:connector-curvature="0" />
    <path
       style="fill:#c0a040;fill-opacity:1"
       d="m 18.125,18.625 q 0.125,-0.375 0.5,-0.5 L 19,18 v 0.5 q 0,0.5 0,1 0,0.5 0,1 0,0.5 0,1 V 22 H 18.5 18 18.375 18.75 18.5 q -0.25,0 -0.40625,0.09375 l -0.15625,0.09375 0.07813,-0.04687 0.07813,-0.04687 -0.04687,-0.546875 Q 18,21 18,20.5 18,20 17.953125,19.453125 L 17.90625,18.90625 17.828125,18.953125 17.75,19 17.90625,18.90625 Q 18.0625,18.8125 18.125,18.625 L 18.1875,18.4375 18.09375,18.71875 18,19 18.125,18.625"
       id="path638"
       inkscape:connector-curvature="0" />
    <path
       style="fill:#aa8834;fill-opacity:1"
       d="M 19,18.5 V 18 h 0.5 0.5 v 0.5 q 0,0.5 0,1 0,0.5 0,1 0,0.5 -0.125,0.875 -0.125,0.375 -0.5,0.5 L 19,22 v -0.5 q 0,-0.5 0,-1 0,-0.5 0,-1 0,-0.5 0,-1 m 1,-0.125 V 18 17.875 17.75 18 q 0,0.25 0,0.5 v 0.25 -0.375"
       id="path640"
       inkscape:connector-curvature="0" />
    <path
       style="fill:#807020;fill-opacity:1"
       d="M 12,19.5 V 19 19.375 19.75 19.5 q 0,-0.25 -0.03125,-0.46875 L 11.9375,18.8125 11.95313,18.921875 11.96876,19.03125 12.484385,19.01562 13,19 v 0.5 q 0,0.5 0,1 0,0.5 0,1 0,0.5 0,1 V 23 H 12.5 12 12.375 12.75 12.5 q -0.25,0 -0.46875,-0.03125 l -0.21875,-0.03125 0.109375,0.01563 0.109375,0.01563 -0.01563,-0.484375 Q 12,22 12,21.5 q 0,-0.5 0,-1 0,-0.5 0,-1 M 12.625,23 H 13 13.125 13.25 13 q -0.25,0 -0.5,0 h -0.25 0.375 m 0.5,-4 H 13 12.625 12.25 12.5 q 0.25,0 0.5,0 h 0.25 -0.125"
       id="path642"
       inkscape:connector-curvature="0" />
    <path
       style="fill:#c0a040;fill-opacity:1"
       d="M 13,19.5 V 19 h 0.5 0.5 v 0.5 q 0,0.5 0,1 0,0.5 0,1 0,0.5 0,1 V 23 H 13.5 13 v -0.5 q 0,-0.5 0,-1 0,-0.5 0,-1 0,-0.5 0,-1 M 12.875,23 H 13 13.375 13.75 13.5 q -0.25,0 -0.5,0 h -0.25 0.125 m 0.75,0 H 14 14.125 14.25 14 q -0.25,0 -0.5,0 h -0.25 0.375 m 0.5,-4 H 14 13.625 13.25 13.5 q 0.25,0 0.5,0 h 0.25 -0.125 m -0.75,0 H 13 12.875 12.75 13 q 0.25,0 0.5,0 h 0.25 -0.375"
       id="path644"
       inkscape:connector-curvature="0" />
    <path
       style="fill:#f2c44d;fill-opacity:1"
       d="M 14,19.5 V 19 h 0.5 0.5 v 0.5 q 0,0.5 0,1 0,0.5 0,1 0,0.5 0,1 V 23 H 14.5 14 v -0.5 q 0,-0.5 0,-1 0,-0.5 0,-1 0,-0.5 0,-1 M 13.875,23 H 14 14.375 14.75 14.5 q -0.25,0 -0.5,0 h -0.25 0.125 m 0.75,0 H 15 15.125 15.25 15 q -0.25,0 -0.5,0 h -0.25 0.375 m 0.5,-4 H 15 14.625 14.25 14.5 q 0.25,0 0.5,0 h 0.25 -0.125 m -0.75,0 H 14 13.875 13.75 14 q 0.25,0 0.5,0 h 0.25 -0.375"
       id="path646"
       inkscape:connector-curvature="0" />
    <path
       style="fill:#f8e060;fill-opacity:1"
       d="M 15,19.5 V 19 h 0.5 q 0.5,0 1,0 H 17 v 0.5 q 0,0.5 0,1 0,0.5 0,1 0,0.5 -0.01563,0.984375 l -0.01563,0.484375 0.109375,-0.01563 0.109375,-0.01563 -0.21875,0.03125 Q 16.75,23 16.5,23 H 16.25 16.625 17 16.5 q -0.5,0 -1,0 H 15 v -0.5 q 0,-0.5 0,-1 0,-0.5 0,-1 0,-0.5 0,-1 M 14.875,23 H 15 15.375 15.75 15.5 q -0.25,0 -0.5,0 h -0.25 0.125 m 2.25,-4 H 17 16.625 16.25 16.5 q 0.25,0 0.5,0 h 0.25 -0.125 m -1.75,0 H 15 14.875 14.75 15 q 0.25,0 0.5,0 h 0.25 -0.375"
       id="path648"
       inkscape:connector-curvature="0" />
    <path
       style="fill:#f2c44d;fill-opacity:1"
       d="M 17,19.5 V 19 H 17.5 18 17.625 17.25 17.5 q 0.25,0 0.40625,-0.09375 l 0.15625,-0.09375 -0.07813,0.04687 -0.07813,0.04687 0.04687,0.546875 Q 18,20 18,20.5 18,21 18.04687,21.546875 L 18.09374,22.09375 18.17187,22.04688 18.25,22 18.09375,22.09375 Q 17.9375,22.1875 17.875,22.375 L 17.8125,22.5625 17.90625,22.28125 18,22 17.875,22.375 q -0.125,0.375 -0.5,0.5 L 17,23 17.28125,22.90625 17.5625,22.8125 17.375,22.875 q -0.1875,0.0625 -0.40625,0.09375 L 16.75,23 16.859375,22.98437 16.96875,22.96874 16.98438,22.484365 Q 17,22 17,21.5 q 0,-0.5 0,-1 0,-0.5 0,-1 M 17.375,19 H 17 16.875 16.75 17 q 0.25,0 0.5,0 h 0.25 -0.375"
       id="path650"
       inkscape:connector-curvature="0" />
  </g>
</svg>
