<?xml version="1.0" encoding="UTF-8" standalone="no"?>
<!-- Created with Inkscape (http://www.inkscape.org/) -->

<svg
   xmlns:dc="http://purl.org/dc/elements/1.1/"
   xmlns:cc="http://creativecommons.org/ns#"
   xmlns:rdf="http://www.w3.org/1999/02/22-rdf-syntax-ns#"
   xmlns:svg="http://www.w3.org/2000/svg"
   xmlns="http://www.w3.org/2000/svg"
   xmlns:sodipodi="http://sodipodi.sourceforge.net/DTD/sodipodi-0.dtd"
   xmlns:inkscape="http://www.inkscape.org/namespaces/inkscape"
   version="1.1"
   id="svg724"
   width="32"
   height="32"
   viewBox="0 0 32 32"
   sodipodi:docname="iron.svg"
   inkscape:version="0.92.5 (2060ec1f9f, 2020-04-08)">
  <metadata
     id="metadata730">
    <rdf:RDF>
      <cc:Work
         rdf:about="">
        <dc:format>image/svg+xml</dc:format>
        <dc:type
           rdf:resource="http://purl.org/dc/dcmitype/StillImage" />
        <dc:title />
      </cc:Work>
    </rdf:RDF>
  </metadata>
  <defs
     id="defs728" />
  <sodipodi:namedview
     pagecolor="#ffffff"
     bordercolor="#666666"
     borderopacity="1"
     objecttolerance="10"
     gridtolerance="10"
     guidetolerance="10"
     inkscape:pageopacity="0"
     inkscape:pageshadow="2"
     inkscape:window-width="1920"
     inkscape:window-height="1118"
     id="namedview726"
     showgrid="false"
     inkscape:zoom="7.375"
     inkscape:cx="-6.0338983"
     inkscape:cy="16"
     inkscape:window-x="0"
     inkscape:window-y="24"
     inkscape:window-maximized="1"
     inkscape:current-layer="svg724" />
  <g
     transform="translate(0,6)"
     id="g764">
    <path
       style="fill:#000000;fill-opacity:0"
       d="M 0,0.5 V 0 H 0.5 1 1.5 2 2.5 3 3.5 4 4.5 5 5.5 6 6.5 7 7.5 8 8.5 9 9.5 10 10.5 11 11.5 12 12.5 13 13.5 14 14.5 15 15.5 16 16.5 17 17.5 18 18.5 19 19.5 20 20.5 21 21.5 22 22.5 23 23.5 24 24.5 25 25.5 26 26.5 27 27.5 28 28.5 29 29.5 30 30.5 31 31.5 32 V 0.5 1 1.5 2 2.5 3 3.5 4 4.5 5 5.5 6 6.5 7 7.5 8 8.5 9 9.5 10 10.5 11 11.5 12 12.5 13 13.5 14 14.5 15 15.5 16 16.5 17 17.5 18 18.5 19 19.5 20 20.5 21 21.5 22 22.5 23 23.5 24 24.5 25 25.5 26 26.5 27 27.5 28 28.5 29 29.5 30 30.5 31 31.5 32 H 31.5 31 30.5 30 29.5 29 28.5 28 27.5 27 26.5 26 25.5 25 24.5 24 23.5 23 22.5 22 21.5 21 20.5 20 19.5 19 18.5 18 17.5 17 16.5 16 15.5 15 14.5 14 13.5 13 12.5 12 11.5 11 10.5 10 9.5 9 8.5 8 7.5 7 6.5 6 5.5 5 4.5 4 3.5 3 2.5 2 1.5 1 0.5 0 V 31.5 31 30.5 30 29.5 29 28.5 28 27.5 27 26.5 26 25.5 25 24.5 24 23.5 23 22.5 22 21.5 21 20.5 20 19.5 19 18.5 18 17.5 17 16.5 16 15.5 15 14.5 14 13.5 13 12.5 12 11.5 11 10.5 10 9.5 9 8.5 8 7.5 7 6.5 6 5.5 5 4.5 4 3.5 3 2.5 2 1.5 1 0.5 M 19.5,25 Q 20,25 20,24.5 20,24 20.5,24 21,24 21.5,24 22,24 22,23.5 22,23 22.5,23 23,23 23,22.5 23,22 23.5,22 24,22 24,21.5 24,21 24,20.5 24,20 24,19.5 24,19 23.5,19 23,19 23,18.5 23,18 22.5,18 H 22 V 17.5 Q 22,17 22,16.5 22,16 21.875,15.625 21.75,15.25 21.5,15 21.25,14.75 21,14.5 20.75,14.25 20.5,14 20.25,13.75 20,13.5 19.75,13.25 19.375,13.125 19,13 18.625,12.875 18.25,12.75 18,12.5 17.75,12.25 17.375,12.125 17,12 16.5,12 H 16 15.5 q -0.5,0 -1,0 -0.5,0 -1,0 Q 13,12 12.625,12.125 12.25,12.25 12,12.5 11.75,12.75 11.375,12.875 L 11,13 10.625,13.125 Q 10.25,13.25 10,13.5 9.75,13.75 9.5,14 9.25,14.25 9,14.5 8.75,14.75 8.5,15 8.25,15.25 8.125,15.625 8,16 8,16.5 q 0,0.5 0,1 0,0.5 0,1 0,0.5 0.125,0.875 L 8.25,19.75 8.15625,19.46875 8.0625,19.1875 8.125,19.375 q 0.0625,0.1875 0.15625,0.28125 L 8.375,19.75 8.328125,19.703125 8.28125,19.65625 8.015625,19.953125 Q 7.75,20.25 7.875,20.625 8,21 8,21.5 8,22 8,22.5 8,23 8.5,23 9,23 9,23.5 9,24 9.5,24 q 0.5,0 1,0 0.5,0 0.5,0.5 0,0.5 0.5,0.5 0.5,0 1,0 0.5,0 1,0 0.5,0 1,0 0.5,0 1,0 0.5,0 1,0 0.5,0 1,0 0.5,0 1,0 0.5,0 1,0"
       id="path734"
       inkscape:connector-curvature="0" />
    <path
       style="fill:#a0a0a0;fill-opacity:1"
       d="M 12,12.5 Q 12.25,12.25 12.625,12.125 13,12 13.5,12 q 0.5,0 1,0 0.5,0 1,0 H 16 v 0.5 q 0,0.5 0,1 0,0.5 0,1 0,0.5 0,1 V 16 h -0.5 q -0.5,0 -1,0 -0.5,0 -1,0 Q 13,16 12.625,16.125 12.25,16.25 12,16.5 11.75,16.75 11.375,16.875 L 11,17 v -0.5 q 0,-0.5 0,-1 0,-0.5 0,-1 0,-0.5 0,-1 V 13 l 0.375,-0.125 Q 11.75,12.75 12,12.5"
       id="path736"
       inkscape:connector-curvature="0" />
    <path
       style="fill:#808080;fill-opacity:1"
       d="M 16,12.5 V 12 h 0.5 Q 17,12 17.375,12.125 17.75,12.25 18,12.5 L 18.25,12.75 18.0625,12.5625 17.875,12.375 18,12.5 q 0.125,0.125 0.28125,0.21875 l 0.15625,0.09375 -0.07813,-0.04687 -0.07813,-0.04687 -0.265625,0.265625 Q 17.75,13.25 17.875,13.625 18,14 18,14.5 q 0,0.5 0.125,0.875 0.125,0.375 -0.140625,0.640625 L 17.71875,16.28125 17.79688,16.32812 17.875,16.375 17.71875,16.28125 Q 17.5625,16.1875 17.375,16.125 L 17.1875,16.0625 17.46875,16.15625 17.75,16.25 17.375,16.125 Q 17,16 16.5,16 H 16 v -0.5 q 0,-0.5 0,-1 0,-0.5 0,-1 0,-0.5 0,-1"
       id="path738"
       inkscape:connector-curvature="0" />
    <path
       style="fill:#808080;fill-opacity:1"
       d="m 10,13.5 q 0.25,-0.25 0.625,-0.375 L 11,13 v 0.5 q 0,0.5 0,1 0,0.5 0,1 0,0.5 0,1 V 17 L 10.625,17.125 10.25,17.25 10.53125,17.15625 10.8125,17.0625 10.625,17.125 q -0.1875,0.0625 -0.34375,0.15625 L 10.125,17.375 10.20313,17.32813 10.28126,17.28126 10.015635,17.015635 Q 9.75,16.75 9.875,16.375 10,16 10,15.5 10,15 10.125,14.625 10.25,14.25 10,14 L 9.75,13.75 10,13.5 M 9.9375,13.5625 9.75,13.75 9.6875,13.8125 9.625,13.875 9.75,13.75 Q 9.875,13.625 10,13.5 l 0.125,-0.125 -0.1875,0.1875"
       id="path740"
       inkscape:connector-curvature="0" />
    <path
       style="fill:#606060;fill-opacity:1"
       d="M 17.875,13.625 Q 17.75,13.25 18.015625,12.984375 L 18.28125,12.71875 18.203125,12.671875 18.125,12.625 18.28125,12.71875 Q 18.4375,12.8125 18.625,12.875 L 18.8125,12.9375 18.53125,12.84375 18.25,12.75 18.625,12.875 Q 19,13 19.375,13.125 19.75,13.25 20,13.5 L 20.25,13.75 20,14 Q 19.75,14.25 19.875,14.625 20,15 20,15.5 q 0,0.5 0.125,0.875 0.125,0.375 -0.140625,0.640625 L 19.71875,17.28125 19.79688,17.32812 19.875,17.375 19.71875,17.28125 Q 19.5625,17.1875 19.375,17.125 L 19.1875,17.0625 19.46875,17.15625 19.75,17.25 19.375,17.125 Q 19,17 18.625,16.875 18.25,16.75 18,16.5 L 17.75,16.25 17.9375,16.4375 18.125,16.625 18,16.5 q -0.125,-0.125 -0.28125,-0.21875 l -0.15625,-0.09375 0.07813,0.04687 0.07813,0.04687 0.265625,-0.265625 Q 18.25,15.75 18.125,15.375 18,15 18,14.5 18,14 17.875,13.625 M 20.3125,13.8125 20.25,13.75 20.0625,13.5625 19.875,13.375 20,13.5 q 0.125,0.125 0.25,0.25 l 0.125,0.125 -0.0625,-0.0625"
       id="path742"
       inkscape:connector-curvature="0" />
    <path
       style="fill:#606060;fill-opacity:1"
       d="M 9,14.5 Q 9.25,14.25 9.5,14 L 9.75,13.75 10,14 q 0.25,0.25 0.125,0.625 Q 10,15 10,15.5 10,16 9.875,16.375 9.75,16.75 10.015625,17.015625 l 0.265625,0.265625 0.07813,-0.04687 0.07813,-0.04687 -0.15625,0.09375 Q 10.125,17.375 10,17.5 L 9.875,17.625 10.0625,17.4375 10.25,17.25 10,17.5 Q 9.75,17.75 9.5,18 L 9.25,18.25 9.4375,18.0625 9.625,17.875 9.5,18 Q 9.375,18.125 9.28125,18.28125 L 9.1875,18.4375 9.234375,18.359375 9.28125,18.28125 9.015625,18.015625 Q 8.75,17.75 8.875,17.375 9,17 9,16.5 9,16 9.125,15.625 9.25,15.25 9,15 L 8.75,14.75 9,14.5 M 8.9375,14.5625 8.75,14.75 8.6875,14.8125 8.625,14.875 8.75,14.75 Q 8.875,14.625 9,14.5 L 9.125,14.375 8.9375,14.5625 M 9.8125,13.6875 9.75,13.75 9.5625,13.9375 9.375,14.125 9.5,14 q 0.125,-0.125 0.25,-0.25 l 0.125,-0.125 -0.0625,0.0625"
       id="path744"
       inkscape:connector-curvature="0" />
    <path
       style="fill:#404040;fill-opacity:1"
       d="M 19.875,14.625 Q 19.75,14.25 20,14 L 20.25,13.75 20.5,14 q 0.25,0.25 0.5,0.5 0.25,0.25 0.5,0.5 0.25,0.25 0.375,0.625 Q 22,16 22,16.5 q 0,0.5 0,1 V 18 18.5 Q 22,19 21.875,19.375 21.75,19.75 21.5,19.75 21.25,19.75 21.125,19.375 21,19 21,18.5 21,18 20.625,17.875 20.25,17.75 20,17.5 L 19.75,17.25 19.9375,17.4375 20.125,17.625 20,17.5 q -0.125,-0.125 -0.28125,-0.21875 l -0.15625,-0.09375 0.07813,0.04687 0.07813,0.04687 0.265625,-0.265625 Q 20.25,16.75 20.125,16.375 20,16 20,15.5 20,15 19.875,14.625 M 20.4375,13.9375 20.25,13.75 20.1875,13.6875 20.125,13.625 20.25,13.75 q 0.125,0.125 0.25,0.25 l 0.125,0.125 -0.1875,-0.1875"
       id="path746"
       inkscape:connector-curvature="0" />
    <path
       style="fill:#404040;fill-opacity:1"
       d="M 8.125,15.625 Q 8.25,15.25 8.5,15 L 8.75,14.75 9,15 Q 9.25,15.25 9.125,15.625 9,16 9,16.5 9,17 8.875,17.375 8.75,17.75 9.015625,18.015625 L 9.28125,18.28125 9.328125,18.203125 9.375,18.125 9.28125,18.28125 Q 9.1875,18.4375 9.125,18.625 L 9.0625,18.8125 9.15625,18.53125 9.25,18.25 9.125,18.625 Q 9,19 8.875,19.375 8.75,19.75 8.5,19.75 8.25,19.75 8.125,19.375 8,19 8,18.5 8,18 8,17.5 8,17 8,16.5 8,16 8.125,15.625 M 8.8125,14.6875 8.75,14.75 8.5625,14.9375 8.375,15.125 8.5,15 q 0.125,-0.125 0.25,-0.25 l 0.125,-0.125 -0.0625,0.0625"
       id="path748"
       inkscape:connector-curvature="0" />
    <path
       style="fill:#000000;fill-opacity:0"
       d="M 12,16.5 Q 12.25,16.25 12.625,16.125 13,16 13.5,16 q 0.5,0 1,0 0.5,0 1,0 H 16 16.5 Q 17,16 17.375,16.125 17.75,16.25 18,16.5 18.25,16.75 18.625,16.875 19,17 19.375,17.125 19.75,17.25 20,17.5 L 20.25,17.75 20.0625,17.5625 19.875,17.375 20,17.5 q 0.125,0.125 0.28125,0.21875 l 0.15625,0.09375 -0.07813,-0.04687 -0.07813,-0.04687 -0.265625,0.265625 Q 19.75,18.25 19.5,18 19.25,17.75 18.984375,18.04687 l -0.265625,0.296875 0.04687,0.04687 0.04687,0.04687 -0.09375,-0.09375 Q 18.625,18.25 18.5,18.25 H 18.375 18.5625 18.75 18.5 q -0.25,0 -0.5,0.25 -0.25,0.25 -0.625,0.375 L 17,19 h -0.5 q -0.5,0 -1,0 -0.5,0 -1,0 H 14 13.5 Q 13,19 12.625,19.125 L 12.25,19.25 12.53125,19.15625 12.8125,19.0625 12.625,19.125 q -0.1875,0.0625 -0.3125,0.1875 l -0.125,0.125 0.0625,-0.0625 0.0625,-0.0625 -0.28125,-0.28125 Q 11.75,18.75 11.875,18.375 12,18 11.5,18 11,18 10.625,18.125 10.25,18.25 10,18 L 9.75,17.75 10,17.5 q 0.25,-0.25 0.625,-0.375 L 11,17 11.375,16.875 Q 11.75,16.75 12,16.5 M 9.9375,17.5625 9.75,17.75 9.6875,17.8125 9.625,17.875 9.75,17.75 Q 9.875,17.625 10,17.5 l 0.125,-0.125 -0.1875,0.1875"
       id="path750"
       inkscape:connector-curvature="0" />
    <path
       style="fill:#202020;fill-opacity:1"
       d="M 9.125,18.625 Q 9.25,18.25 9.5,18 L 9.75,17.75 10,18 q 0.25,0.25 0.625,0.125 Q 11,18 11.5,18 q 0.5,0 0.375,0.375 -0.125,0.375 0.15625,0.65625 l 0.28125,0.28125 0.0625,-0.0625 0.0625,-0.0625 -0.125,0.125 q -0.125,0.125 -0.1875,0.3125 L 12.0625,19.8125 12.15625,19.53125 12.25,19.25 12.125,19.625 Q 12,20 12,20.5 q 0,0.5 0.125,0.875 0.125,0.375 -0.140625,0.640625 L 11.71875,22.28125 11.79688,22.32812 11.875,22.375 11.71875,22.28125 Q 11.5625,22.1875 11.375,22.125 L 11.1875,22.0625 11.46875,22.15625 11.75,22.25 11.375,22.125 Q 11,22 10.5,22 10,22 10,21.5 10,21 9.5,21 9,21 9.125,20.625 9.25,20.25 8.984375,19.953125 L 8.71875,19.65625 8.671875,19.703125 8.625,19.75 8.71875,19.65625 Q 8.8125,19.5625 8.875,19.375 L 8.9375,19.1875 8.84375,19.46875 8.75,19.75 8.875,19.375 Q 9,19 9.125,18.625 M 9.8125,17.6875 9.75,17.75 9.5625,17.9375 9.375,18.125 9.5,18 q 0.125,-0.125 0.25,-0.25 l 0.125,-0.125 -0.0625,0.0625"
       id="path752"
       inkscape:connector-curvature="0" />
    <path
       style="fill:#404040;fill-opacity:1"
       d="m 18,18.5 q 0.25,-0.25 0.5,-0.25 0.25,0 0.375,0.375 Q 19,19 19,19.5 q 0,0.5 0,1 0,0.5 -0.125,0.875 Q 18.75,21.75 18.5,22 18.25,22.25 18,22.5 17.75,22.75 17.375,22.875 L 17,23 v -0.5 q 0,-0.5 0,-1 0,-0.5 0,-1 0,-0.5 0,-1 V 19 l 0.375,-0.125 Q 17.75,18.75 18,18.5"
       id="path754"
       inkscape:connector-curvature="0" />
    <path
       style="fill:#202020;fill-opacity:1"
       d="M 18.875,18.625 18.75,18.25 18.84375,18.53125 18.9375,18.8125 18.875,18.625 Q 18.8125,18.4375 18.71875,18.34375 L 18.625,18.25 l 0.04687,0.04687 0.04687,0.04687 0.265625,-0.296875 Q 19.25,17.75 19.5,18 q 0.25,0.25 0.515625,-0.01563 L 20.28125,17.71875 20.203125,17.671875 20.125,17.625 20.28125,17.71875 Q 20.4375,17.8125 20.625,17.875 L 20.8125,17.9375 20.53125,17.84375 20.25,17.75 20.625,17.875 Q 21,18 21,18.5 21,19 21.125,19.375 L 21.25,19.75 21.15625,19.46875 21.0625,19.1875 21.125,19.375 q 0.0625,0.1875 0.15625,0.28125 L 21.375,19.75 21.32813,19.70313 21.28126,19.65626 21.015635,19.953135 Q 20.75,20.25 20.875,20.625 21,21 20.5,21 20,21 20,21.5 20,22 19.625,22.125 19.25,22.25 18.984375,21.984375 L 18.71875,21.71875 18.671875,21.796875 18.625,21.875 18.71875,21.71875 Q 18.8125,21.5625 18.875,21.375 L 18.9375,21.1875 18.84375,21.46875 18.75,21.75 18.875,21.375 Q 19,21 19,20.5 19,20 19,19.5 19,19 18.875,18.625"
       id="path756"
       inkscape:connector-curvature="0" />
    <path
       style="fill:#000000;fill-opacity:1"
       d="M 22,18.5 V 18 h 0.5 q 0.5,0 0.5,0.5 0,0.5 0.5,0.5 0.5,0 0.5,0.5 0,0.5 0,1 0,0.5 0,1 Q 24,22 23.5,22 23,22 23,22.5 23,23 22.5,23 22,23 22,23.5 22,24 21.5,24 21,24 20.5,24 20,24 20,24.5 20,25 19.5,25 q -0.5,0 -1,0 -0.5,0 -1,0 -0.5,0 -1,0 -0.5,0 -1,0 -0.5,0 -1,0 -0.5,0 -1,0 -0.5,0 -1,0 -0.5,0 -1,0 Q 11,25 11,24.5 11,24 10.5,24 10,24 9.5,24 9,24 9,23.5 9,23 8.5,23 8,23 8,22.5 8,22 8,21.5 8,21 7.875,20.625 7.75,20.25 8.015625,19.953125 L 8.28125,19.65625 8.234375,19.609375 8.1875,19.5625 8.28125,19.65625 Q 8.375,19.75 8.5,19.75 H 8.625 8.4375 8.25 8.5 8.75 8.5625 8.375 8.5 q 0.125,0 0.21875,-0.09375 L 8.8125,19.5625 8.765625,19.609375 8.71875,19.65625 8.984375,19.953125 Q 9.25,20.25 9.125,20.625 9,21 9.5,21 10,21 10,21.5 10,22 10.5,22 11,22 11.375,22.125 11.75,22.25 12,22.5 12.25,22.75 12.625,22.875 13,23 13.5,23 h 0.5 0.5 q 0.5,0 1,0 0.5,0 1,0 H 17 l 0.375,-0.125 Q 17.75,22.75 18,22.5 18.25,22.25 18.5,22 L 18.75,21.75 18.5625,21.9375 18.375,22.125 18.5,22 q 0.125,-0.125 0.21875,-0.28125 l 0.09375,-0.15625 -0.04687,0.07813 -0.04687,0.07813 0.265625,0.265625 Q 19.25,22.25 19.625,22.125 20,22 20,21.5 20,21 20.5,21 21,21 20.875,20.625 20.75,20.25 21.015625,19.953125 l 0.265625,-0.296875 -0.04687,-0.04687 -0.04687,-0.04687 0.09375,0.09375 Q 21.375,19.75 21.5,19.75 H 21.625 21.4375 21.25 21.5 q 0.25,0 0.375,-0.375 Q 22,19 22,18.5"
       id="path758"
       inkscape:connector-curvature="0" />
    <path
       style="fill:#404040;fill-opacity:1"
       d="m 12.125,19.625 q 0.125,-0.375 0.5,-0.5 Q 13,19 13.5,19 H 14 v 0.5 q 0,0.5 0,1 0,0.5 0,1 0,0.5 0,1 V 23 H 13.5 Q 13,23 12.625,22.875 12.25,22.75 12,22.5 L 11.75,22.25 11.9375,22.4375 12.125,22.625 12,22.5 q -0.125,-0.125 -0.28125,-0.21875 l -0.15625,-0.09375 0.07813,0.04687 0.07813,0.04687 0.265625,-0.265625 Q 12.25,21.75 12.125,21.375 12,21 12,20.5 12,20 12.125,19.625"
       id="path760"
       inkscape:connector-curvature="0" />
    <path
       style="fill:#606060;fill-opacity:1"
       d="M 14,19.5 V 19 h 0.5 q 0.5,0 1,0 0.5,0 1,0 H 17 v 0.5 q 0,0.5 0,1 0,0.5 0,1 0,0.5 0,1 V 23 h -0.5 q -0.5,0 -1,0 -0.5,0 -1,0 H 14 v -0.5 q 0,-0.5 0,-1 0,-0.5 0,-1 0,-0.5 0,-1"
       id="path762"
       inkscape:connector-curvature="0" />
  </g>
</svg>
