<?xml version="1.0" encoding="UTF-8" standalone="no"?>
<!-- Created with Inkscape (http://www.inkscape.org/) -->

<svg
   xmlns:dc="http://purl.org/dc/elements/1.1/"
   xmlns:cc="http://creativecommons.org/ns#"
   xmlns:rdf="http://www.w3.org/1999/02/22-rdf-syntax-ns#"
   xmlns:svg="http://www.w3.org/2000/svg"
   xmlns="http://www.w3.org/2000/svg"
   xmlns:sodipodi="http://sodipodi.sourceforge.net/DTD/sodipodi-0.dtd"
   xmlns:inkscape="http://www.inkscape.org/namespaces/inkscape"
   version="1.1"
   id="svg956"
   width="32"
   height="32"
   viewBox="0 0 32 32"
   sodipodi:docname="ring_topaz.svg"
   inkscape:version="0.92.5 (2060ec1f9f, 2020-04-08)">
  <metadata
     id="metadata962">
    <rdf:RDF>
      <cc:Work
         rdf:about="">
        <dc:format>image/svg+xml</dc:format>
        <dc:type
           rdf:resource="http://purl.org/dc/dcmitype/StillImage" />
        <dc:title />
      </cc:Work>
    </rdf:RDF>
  </metadata>
  <defs
     id="defs960" />
  <sodipodi:namedview
     pagecolor="#ffffff"
     bordercolor="#666666"
     borderopacity="1"
     objecttolerance="10"
     gridtolerance="10"
     guidetolerance="10"
     inkscape:pageopacity="0"
     inkscape:pageshadow="2"
     inkscape:window-width="1920"
     inkscape:window-height="1118"
     id="namedview958"
     showgrid="false"
     inkscape:zoom="5.6848956"
     inkscape:cx="-7.8277599"
     inkscape:cy="20.756758"
     inkscape:window-x="0"
     inkscape:window-y="24"
     inkscape:window-maximized="1"
     inkscape:current-layer="svg956" />
  <g
     id="g1004"
     transform="translate(0,6)">
    <path
       style="fill:#000000;fill-opacity:0"
       d="M 0,0.5 V 0 H 0.5 1 1.5 2 2.5 3 3.5 4 4.5 5 5.5 6 6.5 7 7.5 8 8.5 9 9.5 10 10.5 11 11.5 12 12.5 13 13.5 14 14.5 15 15.5 16 16.5 17 17.5 18 18.5 19 19.5 20 20.5 21 21.5 22 22.5 23 23.5 24 24.5 25 25.5 26 26.5 27 27.5 28 28.5 29 29.5 30 30.5 31 31.5 32 V 0.5 1 1.5 2 2.5 3 3.5 4 4.5 5 5.5 6 6.5 7 7.5 8 8.5 9 9.5 10 10.5 11 11.5 12 12.5 13 13.5 14 14.5 15 15.5 16 16.5 17 17.5 18 18.5 19 19.5 20 20.5 21 21.5 22 22.5 23 23.5 24 24.5 25 25.5 26 26.5 27 27.5 28 28.5 29 29.5 30 30.5 31 31.5 32 H 31.5 31 30.5 30 29.5 29 28.5 28 27.5 27 26.5 26 25.5 25 24.5 24 23.5 23 22.5 22 21.5 21 20.5 20 19.5 19 18.5 18 17.5 17 16.5 16 15.5 15 14.5 14 13.5 13 12.5 12 11.5 11 10.5 10 9.5 9 8.5 8 7.5 7 6.5 6 5.5 5 4.5 4 3.5 3 2.5 2 1.5 1 0.5 0 V 31.5 31 30.5 30 29.5 29 28.5 28 27.5 27 26.5 26 25.5 25 24.5 24 23.5 23 22.5 22 21.5 21 20.5 20 19.5 19 18.5 18 17.5 17 16.5 16 15.5 15 14.5 14 13.5 13 12.5 12 11.5 11 10.5 10 9.5 9 8.5 8 7.5 7 6.5 6 5.5 5 4.5 4 3.5 3 2.5 2 1.5 1 0.5 M 18.5,25 Q 19,25 19,24.5 19,24 19.5,24 20,24 20.5,24 21,24 21,23.5 21,23 21.5,23 22,23 22,22.5 22,22 22.5,22 23,22 23,21.5 23,21 23,20.5 23,20 23,19.5 23,19 22.5,19 H 22 V 18.5 Q 22,18 22,17.5 22,17 21.875,16.625 21.75,16.25 21.5,16 21.25,15.75 21,15.5 20.75,15.25 20.5,15 20.25,14.75 20,14.5 19.75,14.25 19.375,14.125 19,14 19,13.5 19,13 19,12.5 19,12 18.875,11.625 18.75,11.25 18.5,11.25 q -0.25,0 -0.375,0.375 Q 18,12 17.5,12 q -0.5,0 -1,0 -0.5,0 -1,0 -0.5,0 -1,0 -0.5,0 -1,0 -0.5,0 -1,0 Q 12,12 11.875,11.625 11.75,11.25 11.5,11.25 q -0.25,0 -0.375,0.375 Q 11,12 11,12.5 q 0,0.5 0,1 0,0.5 -0.375,0.625 Q 10.25,14.25 10,14.5 9.75,14.75 9.5,15 9.25,15.25 9,15.5 8.75,15.75 8.5,16 8.25,16.25 8.125,16.625 8,17 8,17.5 8,18 8,18.5 8,19 8.125,19.375 L 8.25,19.75 8.15625,19.46875 8.0625,19.1875 8.125,19.375 q 0.0625,0.1875 0.1875,0.3125 l 0.125,0.125 L 8.375,19.75 8.3125,19.6875 8.03125,19.96875 Q 7.75,20.25 7.875,20.625 8,21 8,21.5 8,22 8,22.5 8,23 8.5,23 9,23 9,23.5 9,24 9.5,24 q 0.5,0 1,0 0.5,0 0.5,0.5 0,0.5 0.5,0.5 0.5,0 1,0 0.5,0 1,0 0.5,0 1,0 0.5,0 1,0 0.5,0 1,0 0.5,0 1,0 0.5,0 1,0"
       id="path966"
       inkscape:connector-curvature="0" />
    <path
       style="fill:#c0c0c0;fill-opacity:1"
       d="M 11.125,11.625 Q 11.25,11.25 11.5,11.25 q 0.25,0 0.375,0.375 L 12,12 11.90625,11.71875 11.8125,11.4375 11.875,11.625 q 0.0625,0.1875 0.21875,0.28125 L 12.25,12 l -0.07813,-0.04687 -0.07813,-0.04687 -0.53125,0.0625 -0.53125,0.0625 -0.01563,0.109375 L 11,12.25 11.03125,12.03125 Q 11.0625,11.8125 11.125,11.625 L 11.1875,11.4375 11.09375,11.71875 11,12 11.125,11.625"
       id="path968"
       inkscape:connector-curvature="0" />
    <path
       style="fill:#c0c0c0;fill-opacity:1"
       d="M 18.125,11.625 Q 18.25,11.25 18.5,11.25 q 0.25,0 0.375,0.375 L 19,12 18.90625,11.71875 18.8125,11.4375 18.875,11.625 q 0.0625,0.1875 0.09375,0.40625 L 19,12.25 18.984375,12.140625 18.96875,12.03125 18.4375,11.96875 17.90625,11.90625 17.828125,11.953125 17.75,12 17.90625,11.90625 Q 18.0625,11.8125 18.125,11.625 L 18.1875,11.4375 18.09375,11.71875 18,12 18.125,11.625"
       id="path970"
       inkscape:connector-curvature="0" />
    <path
       style="fill:#c09000;fill-opacity:1"
       d="M 11,12.5 V 12 12.375 12.75 12.5 q 0,-0.25 0.03125,-0.46875 l 0.03125,-0.21875 -0.01563,0.109375 -0.01563,0.109375 0.53125,-0.0625 0.53125,-0.0625 -0.07813,-0.04687 -0.07813,-0.04687 0.15625,0.09375 Q 12.25,12 12.5,12 H 12.75 12.375 12 12.5 q 0.5,0 1,0 0.5,0 1,0 0.5,0 1,0 0.5,0 1,0 0.5,0 1,0 H 18 17.625 17.25 17.5 q 0.25,0 0.40625,-0.09375 l 0.15625,-0.09375 -0.07813,0.04687 -0.07813,0.04687 0.53125,0.0625 0.53125,0.0625 -0.01563,-0.109375 -0.01563,-0.109375 0.03125,0.21875 Q 19,12.25 19,12.5 V 12.75 12.375 12 12.5 q 0,0.5 0,1 V 14 13.625 13.25 13.5 q 0,0.25 0.09375,0.40625 l 0.09375,0.15625 -0.04687,-0.07813 -0.04687,-0.07813 -0.04687,0.546875 Q 19,15 19,15.5 V 16 H 18.5 Q 18,16 17.625,15.875 17.25,15.75 17.125,15.375 17,15 17,14.5 17,14 16.875,13.625 16.75,13.25 16.375,13.125 16,13 15.5,13 q -0.5,0 -1,0 -0.5,0 -0.875,0.125 -0.375,0.125 -0.5,0.5 Q 13,14 13,14.5 q 0,0.5 -0.125,0.875 -0.125,0.375 -0.5,0.5 -0.375,0.125 -0.75,0 -0.375,-0.125 -0.5,-0.5 Q 11,15 10.953125,14.453125 l -0.04687,-0.546875 -0.04687,0.07813 -0.04687,0.07813 0.09375,-0.15625 Q 11,13.75 11,13.5 V 13.25 13.625 14 13.5 q 0,-0.5 0,-1 m 8,3.625 V 16 15.625 15.25 15.5 q 0,0.25 0,0.5 v 0.25 -0.125"
       id="path972"
       inkscape:connector-curvature="0" />
    <path
       style="fill:#ffc000;fill-opacity:1"
       d="m 13.125,13.625 q 0.125,-0.375 0.5,-0.5 Q 14,13 14.5,13 q 0.5,0 1,0 0.5,0 0.875,0.125 0.375,0.125 0.5,0.5 Q 17,14 17,14.5 V 15 14.625 14.25 14.5 q 0,0.25 0.03125,0.46875 L 17.0625,15.1875 17.04687,15.078125 17.03124,14.96875 16.515615,14.98438 Q 16,15 15.5,15 15,15 14.5,15 14,15 13.484375,14.984375 L 12.96875,14.96875 12.953125,15.078125 12.9375,15.1875 12.96875,14.96875 Q 13,14.75 13,14.5 V 14.25 14.625 15 14.5 q 0,-0.5 0.125,-0.875"
       id="path974"
       inkscape:connector-curvature="0" />
    <path
       style="fill:#a0a0a0;fill-opacity:1"
       d="m 10,14.5 q 0.25,-0.25 0.625,-0.375 L 11,14 10.71875,14.09375 10.4375,14.1875 10.625,14.125 q 0.1875,-0.0625 0.28125,-0.21875 L 11,13.75 l -0.04687,0.07813 -0.04687,0.07813 0.04687,0.546875 Q 11,15 11.125,15.375 L 11.25,15.75 11.15625,15.46875 11.0625,15.1875 11.125,15.375 q 0.0625,0.1875 0.1875,0.3125 l 0.125,0.125 L 11.375,15.75 11.3125,15.6875 11.03125,15.96875 Q 10.75,16.25 10.875,16.625 L 11,17 10.625,17.125 q -0.375,0.125 -0.5,0.5 L 10,18 10.09375,17.71875 10.1875,17.4375 10.125,17.625 Q 10.0625,17.8125 10.0625,18 V 18.1875 18.09375 18 L 9.65625,18.125 9.25,18.25 9.53125,18.15625 9.8125,18.0625 9.625,18.125 Q 9.4375,18.1875 9.3125,18.3125 L 9.1875,18.4375 9.25,18.375 9.3125,18.3125 9.03125,18.03125 Q 8.75,17.75 8.875,17.375 9,17 9.125,16.625 9.25,16.25 9,16 L 8.75,15.75 9,15.5 Q 9.25,15.25 9.5,15 9.75,14.75 10,14.5 M 8.9375,15.5625 8.75,15.75 8.6875,15.8125 8.625,15.875 8.75,15.75 Q 8.875,15.625 9,15.5 l 0.125,-0.125 -0.1875,0.1875"
       id="path976"
       inkscape:connector-curvature="0" />
    <path
       style="fill:#808080;fill-opacity:1"
       d="M 19.046875,14.453125 19.09375,13.90625 19.046875,13.828125 19,13.75 19.09375,13.90625 Q 19.1875,14.0625 19.375,14.125 L 19.5625,14.1875 19.28125,14.09375 19,14 19.375,14.125 Q 19.75,14.25 20,14.5 q 0.25,0.25 0.5,0.5 0.25,0.25 0.5,0.5 L 21.25,15.75 21,16 Q 20.75,16.25 20.875,16.625 21,17 21,17.5 V 18 H 20.46875 19.9375 V 18.09375 18.1875 18 q 0,-0.1875 -0.0625,-0.375 L 19.8125,17.4375 19.90625,17.71875 20,18 19.875,17.625 q -0.125,-0.375 -0.5,-0.5 L 19,17 19.28125,17.09375 19.5625,17.1875 19.375,17.125 Q 19.1875,17.0625 18.96875,17.03125 L 18.75,17 l 0.109375,0.01563 0.109375,0.01563 0.01563,-0.515625 Q 19,16 19,15.5 19,15 19.046875,14.453125 M 21.3125,15.8125 21.25,15.75 21.0625,15.5625 20.875,15.375 21,15.5 q 0.125,0.125 0.25,0.25 l 0.125,0.125 -0.0625,-0.0625"
       id="path978"
       inkscape:connector-curvature="0" />
    <path
       style="fill:#806000;fill-opacity:1"
       d="M 12.875,15.375 13,15 12.90625,15.28125 12.8125,15.5625 12.875,15.375 q 0.0625,-0.1875 0.09375,-0.40625 L 13,14.75 l -0.01563,0.109375 -0.01563,0.109375 0.515625,0.01563 Q 14,15 14.5,15 q 0.5,0 1,0 0.5,0 1.015625,-0.01563 L 17.03125,14.96875 17.015625,14.859375 17,14.75 17.03125,14.96875 Q 17.0625,15.1875 17.125,15.375 L 17.1875,15.5625 17.09375,15.28125 17,15 l 0.125,0.375 q 0.125,0.375 0.5,0.5 L 18,16 17.71875,15.90625 17.4375,15.8125 17.625,15.875 q 0.1875,0.0625 0.40625,0.09375 L 18.25,16 18.140625,15.984375 18.03125,15.96875 18.015625,16.484375 18,17 h -0.5 q -0.5,0 -1,0 -0.5,0 -1,0 -0.5,0 -1,0 -0.5,0 -1,0 -0.5,0 -1,0 H 12 V 16.46875 15.9375 H 11.90625 11.8125 12 q 0.1875,0 0.375,-0.0625 L 12.5625,15.8125 12.28125,15.90625 12,16 12.375,15.875 q 0.375,-0.125 0.5,-0.5 m -1,1.625 H 12 12.375 12.75 12.5 q -0.25,0 -0.5,0 h -0.25 0.125 m 5.75,0 H 18 18.125 18.25 18 q -0.25,0 -0.5,0 h -0.25 0.375"
       id="path980"
       inkscape:connector-curvature="0" />
    <path
       style="fill:#808080;fill-opacity:1"
       d="M 8.125,16.625 Q 8.25,16.25 8.5,16 L 8.75,15.75 9,16 Q 9.25,16.25 9.125,16.625 9,17 8.875,17.375 8.75,17.75 9.03125,18.03125 L 9.3125,18.3125 9.375,18.25 9.4375,18.1875 9.3125,18.3125 Q 9.1875,18.4375 9.125,18.625 L 9.0625,18.8125 9.15625,18.53125 9.25,18.25 9.125,18.625 Q 9,19 9,19.5 V 20 19.625 19.25 19.5 q 0,0.25 0.03125,0.46875 L 9.0625,20.1875 9.046875,20.078125 9.03125,19.96875 8.640625,19.859375 Q 8.25,19.75 8.125,19.375 8,19 8,18.5 8,18 8,17.5 8,17 8.125,16.625 M 8.8125,15.6875 8.75,15.75 8.5625,15.9375 8.375,16.125 8.5,16 q 0.125,-0.125 0.25,-0.25 l 0.125,-0.125 -0.0625,0.0625"
       id="path982"
       inkscape:connector-curvature="0" />
    <path
       style="fill:#c0c0c0;fill-opacity:1"
       d="M 10.875,16.625 Q 10.75,16.25 11.03125,15.96875 L 11.3125,15.6875 11.25,15.625 l -0.0625,-0.0625 0.125,0.125 q 0.125,0.125 0.3125,0.1875 L 11.8125,15.9375 11.53125,15.84375 11.25,15.75 11.625,15.875 12,16 11.71875,15.90625 11.4375,15.8125 11.625,15.875 Q 11.8125,15.9375 12,15.9375 H 12.1875 12.09375 12 V 16.46875 17 H 11.5 11 L 10.875,16.625 M 11.625,17 H 12 12.125 12.25 12 q -0.25,0 -0.5,0 h -0.25 0.375"
       id="path984"
       inkscape:connector-curvature="0" />
    <path
       style="fill:#c0c0c0;fill-opacity:1"
       d="M 18.015625,16.484375 18.03125,15.96875 17.921875,15.953125 17.8125,15.9375 18.03125,15.96875 Q 18.25,16 18.5,16 H 18.75 18.375 18 18.5 19 l -0.01563,0.515625 -0.01563,0.515625 0.109375,0.01563 0.109375,0.01563 -0.21875,-0.03125 Q 18.75,17 18.5,17 H 18.25 18.625 19 18.5 18 l 0.01563,-0.515625 M 17.875,17 H 18 18.375 18.75 18.5 q -0.25,0 -0.5,0 h -0.25 0.125 M 19,16.375 V 16 15.875 15.75 16 q 0,0.25 0,0.5 v 0.25 -0.375"
       id="path986"
       inkscape:connector-curvature="0" />
    <path
       style="fill:#606060;fill-opacity:1"
       d="M 20.875,16.625 Q 20.75,16.25 21,16 L 21.25,15.75 21.5,16 q 0.25,0.25 0.375,0.625 Q 22,17 22,17.5 q 0,0.5 0,1 V 19 l -0.125,0.375 Q 21.75,19.75 21.5,20 L 21.25,20.25 21,20 Q 20.75,19.75 20.875,19.375 21,19 21,18.5 V 18 17.5 Q 21,17 20.875,16.625 M 21.1875,20.3125 21.25,20.25 21.4375,20.0625 21.625,19.875 21.5,20 q -0.125,0.125 -0.25,0.25 l -0.125,0.125 0.0625,-0.0625 m 0.25,-4.375 L 21.25,15.75 21.1875,15.6875 21.125,15.625 21.25,15.75 q 0.125,0.125 0.25,0.25 l 0.125,0.125 -0.1875,-0.1875"
       id="path988"
       inkscape:connector-curvature="0" />
    <path
       style="fill:#000000;fill-opacity:0"
       d="m 10.125,17.625 q 0.125,-0.375 0.5,-0.5 L 11,17 h 0.5 q 0.5,0 1,0 0.5,0 1,0 0.5,0 1,0 0.5,0 1,0 0.5,0 1,0 0.5,0 1,0 0.5,0 1,0 0.5,0 0.875,0.125 0.375,0.125 0.5,0.5 0.125,0.375 0,0.75 -0.125,0.375 -0.5,0.5 L 19,19 18.625,19.125 Q 18.25,19.25 18,19.5 17.75,19.75 17.375,19.875 L 17,20 h -0.5 q -0.5,0 -1,0 -0.5,0 -1,0 H 14 13.5 Q 13,20 12.625,19.875 12.25,19.75 12,19.5 11.75,19.25 11.375,19.125 11,19 10.625,18.875 10.25,18.75 10.125,18.375 10,18 10.125,17.625"
       id="path990"
       inkscape:connector-curvature="0" />
    <path
       style="fill:#404040;fill-opacity:1"
       d="M 9.125,18.625 Q 9.25,18.25 9.65625,18.125 L 10.0625,18 V 17.90625 17.8125 18 q 0,0.1875 0.0625,0.375 L 10.1875,18.5625 10.09375,18.28125 10,18 l 0.125,0.375 q 0.125,0.375 0.5,0.5 Q 11,19 11.375,19.125 11.75,19.25 12,19.5 L 12.25,19.75 12.0625,19.5625 11.875,19.375 12,19.5 q 0.125,0.125 0.28125,0.21875 l 0.15625,0.09375 -0.07813,-0.04687 -0.07813,-0.04687 -0.265625,0.265625 Q 11.75,20.25 11.875,20.625 12,21 12.125,21.375 12.25,21.75 11.984375,22.015625 L 11.71875,22.28125 11.79688,22.32812 11.875,22.375 11.71875,22.28125 Q 11.5625,22.1875 11.375,22.125 L 11.1875,22.0625 11.46875,22.15625 11.75,22.25 11.375,22.125 Q 11,22 10.625,21.875 10.25,21.75 10,21.5 9.75,21.25 9.5,21 9.25,20.75 9.125,20.375 9,20 9,19.5 9,19 9.125,18.625"
       id="path992"
       inkscape:connector-curvature="0" />
    <path
       style="fill:#404040;fill-opacity:1"
       d="M 19.875,18.375 20,18 19.90625,18.28125 19.8125,18.5625 19.875,18.375 Q 19.9375,18.1875 19.9375,18 V 17.8125 17.90625 18 H 20.46875 21 v 0.5 Q 21,19 20.875,19.375 20.75,19.75 21,20 L 21.25,20.25 21,20.5 q -0.25,0.25 -0.5,0.5 -0.25,0.25 -0.5,0.5 -0.25,0.25 -0.625,0.375 L 19,22 v -0.5 q 0,-0.5 0,-1 0,-0.5 0,-1 V 19 l 0.375,-0.125 q 0.375,-0.125 0.5,-0.5 M 21.0625,20.4375 21.25,20.25 21.3125,20.1875 21.375,20.125 21.25,20.25 Q 21.125,20.375 21,20.5 l -0.125,0.125 0.1875,-0.1875"
       id="path994"
       inkscape:connector-curvature="0" />
    <path
       style="fill:#606060;fill-opacity:1"
       d="m 18,19.5 q 0.25,-0.25 0.625,-0.375 L 19,19 v 0.5 q 0,0.5 0,1 0,0.5 0,1 V 22 l -0.375,0.125 Q 18.25,22.25 18,22.5 17.75,22.75 17.375,22.875 L 17,23 v -0.5 q 0,-0.5 0,-1 0,-0.5 0,-1 V 20 l 0.375,-0.125 Q 17.75,19.75 18,19.5"
       id="path996"
       inkscape:connector-curvature="0" />
    <path
       style="fill:#000000;fill-opacity:1"
       d="M 21.875,19.375 22,19 h 0.5 q 0.5,0 0.5,0.5 0,0.5 0,1 0,0.5 0,1 Q 23,22 22.5,22 22,22 22,22.5 22,23 21.5,23 21,23 21,23.5 21,24 20.5,24 20,24 19.5,24 19,24 19,24.5 19,25 18.5,25 q -0.5,0 -1,0 -0.5,0 -1,0 -0.5,0 -1,0 -0.5,0 -1,0 -0.5,0 -1,0 -0.5,0 -1,0 -0.5,0 -1,0 Q 11,25 11,24.5 11,24 10.5,24 10,24 9.5,24 9,24 9,23.5 9,23 8.5,23 8,23 8,22.5 8,22 8,21.5 8,21 7.875,20.625 7.75,20.25 8.03125,19.96875 L 8.3125,19.6875 8.25,19.625 8.1875,19.5625 l 0.125,0.125 q 0.125,0.125 0.3125,0.1875 L 8.8125,19.9375 8.53125,19.84375 8.25,19.75 8.640625,19.859375 9.03125,19.96875 9.015625,19.859375 9,19.75 9.03125,19.96875 Q 9.0625,20.1875 9.125,20.375 L 9.1875,20.5625 9.09375,20.28125 9,20 9.125,20.375 Q 9.25,20.75 9.5,21 q 0.25,0.25 0.5,0.5 0.25,0.25 0.625,0.375 Q 11,22 11.375,22.125 11.75,22.25 12,22.5 12.25,22.75 12.625,22.875 13,23 13.5,23 h 0.5 0.5 q 0.5,0 1,0 0.5,0 1,0 H 17 l 0.375,-0.125 Q 17.75,22.75 18,22.5 18.25,22.25 18.625,22.125 L 19,22 19.375,21.875 Q 19.75,21.75 20,21.5 q 0.25,-0.25 0.5,-0.5 0.25,-0.25 0.5,-0.5 0.25,-0.25 0.5,-0.5 0.25,-0.25 0.375,-0.625"
       id="path998"
       inkscape:connector-curvature="0" />
    <path
       style="fill:#606060;fill-opacity:1"
       d="M 11.875,20.625 Q 11.75,20.25 12.015625,19.984375 L 12.28125,19.71875 12.203125,19.671875 12.125,19.625 12.28125,19.71875 Q 12.4375,19.8125 12.625,19.875 L 12.8125,19.9375 12.53125,19.84375 12.25,19.75 12.625,19.875 Q 13,20 13.5,20 H 14 v 0.5 q 0,0.5 0,1 0,0.5 0,1 V 23 H 13.5 Q 13,23 12.625,22.875 12.25,22.75 12,22.5 L 11.75,22.25 11.9375,22.4375 12.125,22.625 12,22.5 q -0.125,-0.125 -0.28125,-0.21875 l -0.15625,-0.09375 0.07813,0.04687 0.07813,0.04687 0.265625,-0.265625 Q 12.25,21.75 12.125,21.375 12,21 11.875,20.625"
       id="path1000"
       inkscape:connector-curvature="0" />
    <path
       style="fill:#808080;fill-opacity:1"
       d="M 14,20.5 V 20 h 0.5 q 0.5,0 1,0 0.5,0 1,0 H 17 v 0.5 q 0,0.5 0,1 0,0.5 0,1 V 23 h -0.5 q -0.5,0 -1,0 -0.5,0 -1,0 H 14 v -0.5 q 0,-0.5 0,-1 0,-0.5 0,-1"
       id="path1002"
       inkscape:connector-curvature="0" />
  </g>
</svg>
