<?xml version="1.0" encoding="UTF-8" standalone="no"?>
<!-- Created with Inkscape (http://www.inkscape.org/) -->

<svg
   xmlns:dc="http://purl.org/dc/elements/1.1/"
   xmlns:cc="http://creativecommons.org/ns#"
   xmlns:rdf="http://www.w3.org/1999/02/22-rdf-syntax-ns#"
   xmlns:svg="http://www.w3.org/2000/svg"
   xmlns="http://www.w3.org/2000/svg"
   xmlns:sodipodi="http://sodipodi.sourceforge.net/DTD/sodipodi-0.dtd"
   xmlns:inkscape="http://www.inkscape.org/namespaces/inkscape"
   version="1.1"
   id="svg1159"
   width="32"
   height="32"
   viewBox="0 0 32 32"
   sodipodi:docname="ruby.svg"
   inkscape:version="0.92.5 (2060ec1f9f, 2020-04-08)">
  <metadata
     id="metadata1165">
    <rdf:RDF>
      <cc:Work
         rdf:about="">
        <dc:format>image/svg+xml</dc:format>
        <dc:type
           rdf:resource="http://purl.org/dc/dcmitype/StillImage" />
        <dc:title />
      </cc:Work>
    </rdf:RDF>
  </metadata>
  <defs
     id="defs1163" />
  <sodipodi:namedview
     pagecolor="#ffffff"
     bordercolor="#666666"
     borderopacity="1"
     objecttolerance="10"
     gridtolerance="10"
     guidetolerance="10"
     inkscape:pageopacity="0"
     inkscape:pageshadow="2"
     inkscape:window-width="1920"
     inkscape:window-height="1118"
     id="namedview1161"
     showgrid="false"
     inkscape:zoom="7.375"
     inkscape:cx="-6.0338983"
     inkscape:cy="16"
     inkscape:window-x="0"
     inkscape:window-y="24"
     inkscape:window-maximized="1"
     inkscape:current-layer="svg1159" />
  <g
     transform="translate(0,8)"
     id="g1353">
    <path
       style="fill:#000000;fill-opacity:0"
       d="M 0,0.5 V 0 H 0.5 1 1.5 2 2.5 3 3.5 4 4.5 5 5.5 6 6.5 7 7.5 8 8.5 9 9.5 10 10.5 11 11.5 12 12.5 13 13.5 14 14.5 15 15.5 16 16.5 17 17.5 18 18.5 19 19.5 20 20.5 21 21.5 22 22.5 23 23.5 24 24.5 25 25.5 26 26.5 27 27.5 28 28.5 29 29.5 30 30.5 31 31.5 32 V 0.5 1 1.5 2 2.5 3 3.5 4 4.5 5 5.5 6 6.5 7 7.5 8 8.5 9 9.5 10 10.5 11 11.5 12 12.5 13 13.5 14 14.5 15 15.5 16 16.5 17 17.5 18 18.5 19 19.5 20 20.5 21 21.5 22 22.5 23 23.5 24 24.5 25 25.5 26 26.5 27 27.5 28 28.5 29 29.5 30 30.5 31 31.5 32 H 31.5 31 30.5 30 29.5 29 28.5 28 27.5 27 26.5 26 25.5 25 24.5 24 23.5 23 22.5 22 21.5 21 20.5 20 19.5 19 18.5 18 17.5 17 16.5 16 15.5 15 14.5 14 13.5 13 12.5 12 11.5 11 10.5 10 9.5 9 8.5 8 7.5 7 6.5 6 5.5 5 4.5 4 3.5 3 2.5 2 1.5 1 0.5 0 V 31.5 31 30.5 30 29.5 29 28.5 28 27.5 27 26.5 26 25.5 25 24.5 24 23.5 23 22.5 22 21.5 21 20.5 20 19.5 19 18.5 18 17.5 17 16.5 16 15.5 15 14.5 14 13.5 13 12.5 12 11.5 11 10.5 10 9.5 9 8.5 8 7.5 7 6.5 6 5.5 5 4.5 4 3.5 3 2.5 2 1.5 1 0.5 M 21.5,23 Q 22,23 22,22.5 V 22 h 0.5 0.5 0.5 Q 24,22 24,21.5 24,21 23.5,21 H 23 22.5 q -0.5,0 -1,0 H 21 V 20.5 20 h 0.5 q 0.5,0 0.625,-0.375 0.125,-0.375 0.5,-0.5 0.375,-0.125 0.5,-0.5 0.125,-0.375 0.5,-0.5 Q 24,18 24,17.5 q 0,-0.5 0,-1 0,-0.5 0,-1 0,-0.5 0,-1 0,-0.5 0,-1 0,-0.5 0,-1 0,-0.5 -0.375,-0.625 -0.375,-0.125 -0.5,-0.5 Q 23,11 22.625,10.875 22.25,10.75 22.125,10.375 22,10 21.625,9.875 21.25,9.75 21.125,9.375 21,9 20.5,9 20,9 19.625,8.875 19.25,8.75 19.125,8.375 19,8 18.625,7.875 18.25,7.75 18.125,7.375 18,7 17.625,6.875 17.25,6.75 17.125,6.375 17,6 16.5,6 16,6 15.625,5.875 15.25,5.75 15.125,5.375 15,5 14.625,4.875 14.25,4.75 14.125,4.375 14,4 13.5,4 13,4 12.5,4 12,4 11.875,4.375 11.75,4.75 11.375,4.875 11,5 10.875,5.375 10.75,5.75 10.375,5.875 10,6 9.875,6.375 9.75,6.75 9.375,6.875 9,7 9,7.5 9,8 9,8.5 9,9 9.375,9.125 9.75,9.25 9.875,9.625 10,10 9.875,10.375 9.75,10.75 9.375,10.875 9,11 8.875,11.375 8.75,11.75 8.375,11.875 8,12 8,12.5 q 0,0.5 0,1 0,0.5 0,1 0,0.5 0,1 0,0.5 0,1 0,0.5 0,1 0,0.5 0.375,0.625 0.375,0.125 0.5,0.5 0.125,0.375 0.5,0.5 0.375,0.125 0.5,0.5 Q 10,20 10.5,20 H 11 v 0.5 0.5 h -0.5 q -0.5,0 -1,0 H 9 8.5 Q 8,21 8,21.5 8,22 8.5,22 H 9 9.5 10 v 0.5 q 0,0.5 0.5,0.5 h 0.5 0.5 q 0.5,0 1,0 0.5,0 1,0 0.5,0 1,0 0.5,0 1,0 0.5,0 1,0 0.5,0 1,0 0.5,0 1,0 0.5,0 1,0 0.5,0 1,0 h 0.5 0.5"
       id="path1169"
       inkscape:connector-curvature="0" />
    <path
       style="fill:#000000;fill-opacity:1"
       d="M 11.875,4.375 Q 12,4 12.5,4 q 0.5,0 1,0 0.5,0 0.625,0.375 0.125,0.375 0.5,0.5 0.375,0.125 0.5,0.5 0.125,0.375 0.5,0.5 Q 16,6 16.5,6 q 0.5,0 0.625,0.375 0.125,0.375 0.5,0.5 0.375,0.125 0.5,0.5 0.125,0.375 0.5,0.5 0.375,0.125 0.5,0.5 0.125,0.375 0.5,0.5 Q 20,9 20.5,9 q 0.5,0 0.625,0.375 0.125,0.375 0.5,0.5 0.375,0.125 0.5,0.5 0.125,0.375 0.5,0.5 0.375,0.125 0.5,0.5 0.125,0.375 0.5,0.5 Q 24,12 24,12.5 q 0,0.5 0,1 0,0.5 0,1 0,0.5 0,1 0,0.5 0,1 0,0.5 0,1 0,0.5 -0.375,0.625 -0.375,0.125 -0.5,0.5 -0.125,0.375 -0.5,0.5 -0.375,0.125 -0.5,0.5 Q 22,20 21.5,20 H 21 l -0.375,0.125 q -0.375,0.125 -0.5,0.5 Q 20,21 20.5,21 h 0.5 0.5 q 0.5,0 1,0 H 23 V 21.5 22 H 22.5 22 21.5 Q 21,22 21,22.5 V 23 h -0.5 q -0.5,0 -1,0 -0.5,0 -1,0 -0.5,0 -1,0 -0.5,0 -1,0 -0.5,0 -1,0 -0.5,0 -1,0 -0.5,0 -1,0 -0.5,0 -1,0 -0.5,0 -1,0 H 11 V 22.5 Q 11,22 10.5,22 H 10 9.5 9 V 21.5 21 h 0.5 q 0.5,0 1,0 h 0.5 0.5 q 0.5,0 0.375,-0.375 -0.125,-0.375 -0.5,-0.5 L 11,20 H 10.5 Q 10,20 9.875,19.625 9.75,19.25 9.375,19.125 9,19 8.875,18.625 8.75,18.25 8.375,18.125 8,18 8,17.5 8,17 8,16.5 8,16 8,15.5 8,15 8,14.5 8,14 8,13.5 8,13 8,12.5 8,12 8.375,11.875 8.75,11.75 8.875,11.375 9,11 9.375,10.875 9.75,10.75 9.875,10.375 10,10 9.875,9.625 9.75,9.25 9.375,9.125 9,9 9,8.5 9,8 9,7.5 9,7 9.375,6.875 9.75,6.75 9.875,6.375 10,6 10.375,5.875 10.75,5.75 10.875,5.375 11,5 11.375,4.875 11.75,4.75 11.875,4.375 M 18.5,20 Q 19,20 19.375,19.875 19.75,19.75 20,19.5 20.25,19.25 20.625,19.125 21,19 21.375,18.875 21.75,18.75 22,18.5 22.25,18.25 22.5,18 22.75,17.75 22.875,17.375 23,17 23,16.5 V 16 15.5 q 0,-0.5 0,-1 0,-0.5 0,-1 Q 23,13 22.875,12.625 22.75,12.25 22.5,12 22.25,11.75 22,11.5 21.75,11.25 21.5,11 21.25,10.75 21,10.5 20.75,10.25 20.375,10.125 L 20,10 H 19.5 19 L 18.875,9.625 Q 18.75,9.25 18.375,9.125 L 18,9 17.875,8.625 Q 17.75,8.25 17.375,8.125 L 17,8 16.875,7.625 Q 16.75,7.25 16.375,7.125 16,7 15.5,7 H 15 L 14.875,6.625 Q 14.75,6.25 14.375,6.125 L 14,6 13.875,5.625 Q 13.75,5.25 13.375,5.125 13,5 12.625,5.125 12.25,5.25 12,5.5 11.75,5.75 11.5,6 11.25,6.25 11.125,6.625 L 11,7 10.625,7.125 Q 10.25,7.25 10.125,7.625 10,8 10.125,8.375 10.25,8.75 10.5,9 10.75,9.25 10.875,9.625 11,10 10.875,10.375 10.75,10.75 10.5,11 10.25,11.25 10,11.5 9.75,11.75 9.5,12 9.25,12.25 9.125,12.625 9,13 9,13.5 q 0,0.5 0,1 v 0.5 0.5 q 0,0.5 0,1 0,0.5 0.125,0.875 0.125,0.375 0.5,0.5 L 10,18 9.71875,17.90625 9.4375,17.8125 9.625,17.875 q 0.1875,0.0625 0.40625,0.09375 L 10.25,18 10.140625,17.984375 10.03125,17.96875 10.140625,18.359375 Q 10.25,18.75 10.625,18.875 11,19 11.375,19.125 11.75,19.25 12,19.5 12.25,19.75 12.625,19.875 13,20 13.5,20 h 0.5 0.5 0.5 0.5 0.5 0.5 0.5 0.5 0.5 0.5"
       id="path1171"
       inkscape:connector-curvature="0" />
    <path
       style="fill:#ca5d2e;fill-opacity:1"
       d="m 12,5.5 q 0.25,-0.25 0.625,-0.375 0.375,-0.125 0.75,0 0.375,0.125 0.5,0.5 L 14,6 H 13.5 Q 13,6 12.625,6.125 12.25,6.25 12.125,6.625 L 12,7 H 11.5 11 L 11.125,6.625 Q 11.25,6.25 11.5,6 11.75,5.75 12,5.5"
       id="path1173"
       inkscape:connector-curvature="0" />
    <path
       style="fill:#562712;fill-opacity:1"
       d="M 12.125,6.625 Q 12.25,6.25 12.625,6.125 13,6 13.5,6 H 14 l 0.125,0.375 q 0.125,0.375 0.5,0.5 L 15,7 15.125,7.375 q 0.125,0.375 0.5,0.5 Q 16,8 16.5,8 H 17 l 0.125,0.375 q 0.125,0.375 0.5,0.5 L 18,9 v 0.5 q 0,0.5 0.125,0.875 0.125,0.375 0.375,0.625 0.25,0.25 0.5,0.5 0.25,0.25 0.625,0.375 L 20,12 v 0.5 q 0,0.5 -0.125,0.875 -0.125,0.375 -0.5,0.5 L 19,14 V 13.5 Q 19,13 18.875,12.625 18.75,12.25 18.375,12.125 18,12 17.5,12 H 17 V 11.5 Q 17,11 17,10.5 17,10 16.875,9.625 16.75,9.25 16.375,9.125 16,9 15.5,9 15,9 14.5,9 H 14 V 8.5 Q 14,8 13.875,7.625 13.75,7.25 13.375,7.125 13,7 12.5,7 H 12 l 0.125,-0.375"
       id="path1175"
       inkscape:connector-curvature="0" />
    <path
       style="fill:#883e1e;fill-opacity:1"
       d="M 14.125,6.375 14,6 14.375,6.125 q 0.375,0.125 0.5,0.5 L 15,7 14.625,6.875 q -0.375,-0.125 -0.5,-0.5"
       id="path1177"
       inkscape:connector-curvature="0" />
    <path
       style="fill:#faa684;fill-opacity:1"
       d="m 10.125,7.625 q 0.125,-0.375 0.5,-0.5 L 11,7 V 7.5 Q 11,8 11.125,8.375 11.25,8.75 11.5,9 q 0.25,0.25 0.5,0.5 0.25,0.25 0.5,0.5 0.25,0.25 0.375,0.625 Q 13,11 13.125,11.375 13.25,11.75 13.5,11.75 H 13.75 13.5625 13.375 13.5 q 0.125,0 0.21875,-0.09375 l 0.09375,-0.09375 -0.04687,0.04687 -0.04687,0.04687 0.3125,0.3125 0.3125,0.3125 0.04687,-0.04687 0.04687,-0.04687 -0.09375,0.09375 Q 14.25,12.375 14.25,12.5 V 12.625 12.4375 12.25 12.5 q 0,0.25 0.375,0.375 Q 15,13 15.375,13.125 15.75,13.25 16,13.5 q 0.25,0.25 0.5,0.5 0.25,0.25 0.5,0.5 0.25,0.25 0.625,0.375 Q 18,15 18.5,15 H 19 l -0.125,0.375 q -0.125,0.375 -0.5,0.5 Q 18,16 17.625,15.875 17.25,15.75 17,15.5 16.75,15.25 16.5,15 16.25,14.75 16,14.5 15.75,14.25 15.375,14.125 15,14 14.625,13.875 14.25,13.75 14,13.5 13.75,13.25 13.375,13.125 L 13,13 12.875,12.625 Q 12.75,12.25 12.5,12 12.25,11.75 12.125,11.375 L 12,11 11.875,10.625 Q 11.75,10.25 11.34375,10.125 L 10.9375,10 V 10.09375 10.1875 10 q 0,-0.1875 -0.0625,-0.375 L 10.8125,9.4375 10.90625,9.71875 11,10 10.875,9.625 Q 10.75,9.25 10.5,9 10.25,8.75 10.125,8.375 10,8 10.125,7.625"
       id="path1179"
       inkscape:connector-curvature="0" />
    <path
       style="fill:#90401f;fill-opacity:1"
       d="M 11,7.5 V 7 h 0.5 0.5 v 0.5 q 0,0.5 0.125,0.875 0.125,0.375 0.5,0.5 Q 13,9 13.5,9 H 14 v 0.5 q 0,0.5 0,1 0,0.5 -0.125,0.875 -0.125,0.375 -0.375,0.375 -0.25,0 -0.375,-0.375 Q 13,11 12.875,10.625 12.75,10.25 12.5,10 12.25,9.75 12,9.5 11.75,9.25 11.5,9 11.25,8.75 11.125,8.375 11,8 11,7.5"
       id="path1181"
       inkscape:connector-curvature="0" />
    <path
       style="fill:#ff2102;fill-opacity:1"
       d="M 12,7.5 V 7 H 12.5 13 12.625 12.25 12.5 q 0.25,0 0.46875,0.03125 L 13.1875,7.0625 13.078125,7.046875 12.96875,7.03125 12.984375,7.515625 13,8 12.515625,7.984375 12.03125,7.96875 12.046875,8.078125 12.0625,8.1875 12.03125,7.96875 Q 12,7.75 12,7.5 V 7.25 7.625 8 7.5"
       id="path1183"
       inkscape:connector-curvature="0" />
    <path
       style="fill:#c70207;fill-opacity:1"
       d="M 12.984375,7.515625 12.96875,7.03125 12.859375,7.015625 12.75,7 12.96875,7.03125 Q 13.1875,7.0625 13.375,7.125 L 13.5625,7.1875 13.28125,7.09375 13,7 13.375,7.125 q 0.375,0.125 0.5,0.5 L 14,8 13.90625,7.71875 13.8125,7.4375 13.875,7.625 q 0.0625,0.1875 0.09375,0.40625 L 14,8.25 13.984375,8.140625 13.96875,8.03125 13.484375,8.015625 13,8 12.984375,7.515625"
       id="path1185"
       inkscape:connector-curvature="0" />
    <path
       style="fill:#a94d26;fill-opacity:1"
       d="M 15.125,7.375 15,7 H 15.5 16 15.625 15.25 15.5 q 0.25,0 0.46875,0.03125 L 16.1875,7.0625 16.078125,7.046875 15.96875,7.03125 16,7.5 16.03125,7.96875 16.140625,7.984375 16.25,8 16.03125,7.96875 Q 15.8125,7.9375 15.625,7.875 L 15.4375,7.8125 15.71875,7.90625 16,8 15.625,7.875 q -0.375,-0.125 -0.5,-0.5"
       id="path1187"
       inkscape:connector-curvature="0" />
    <path
       style="fill:#883e1e;fill-opacity:1"
       d="M 16,7.5 15.96875,7.03125 15.859375,7.015625 15.75,7 15.96875,7.03125 Q 16.1875,7.0625 16.375,7.125 L 16.5625,7.1875 16.28125,7.09375 16,7 16.375,7.125 q 0.375,0.125 0.5,0.5 L 17,8 H 16.5 16 16.375 16.75 16.5 Q 16.25,8 16.03125,7.96875 L 15.8125,7.9375 15.921875,7.953125 16.03125,7.96875 16,7.5"
       id="path1189"
       inkscape:connector-curvature="0" />
    <path
       style="fill:#ff956b;fill-opacity:1"
       d="M 12.125,8.375 12,8 12.09375,8.28125 12.1875,8.5625 12.125,8.375 Q 12.0625,8.1875 12.03125,7.96875 L 12,7.75 12.015625,7.859375 12.03125,7.96875 12.515625,7.984375 13,8 13.015625,8.484375 13.03125,8.96875 13.140625,8.984375 13.25,9 13.03125,8.96875 Q 12.8125,8.9375 12.625,8.875 L 12.4375,8.8125 12.71875,8.90625 13,9 12.625,8.875 q -0.375,-0.125 -0.5,-0.5"
       id="path1191"
       inkscape:connector-curvature="0" />
    <path
       style="fill:#e80801;fill-opacity:1"
       d="M 13.015625,8.484375 13,8 13.484375,8.015625 13.96875,8.03125 13.953125,7.921875 13.9375,7.8125 13.96875,8.03125 Q 14,8.25 14,8.5 V 8.75 8.375 8 8.5 9 H 13.5 13 13.375 13.75 13.5 Q 13.25,9 13.03125,8.96875 L 12.8125,8.9375 12.921875,8.953125 13.03125,8.96875 13.015625,8.484375"
       id="path1193"
       inkscape:connector-curvature="0" />
    <path
       style="fill:#a94d26;fill-opacity:1"
       d="M 17.125,8.375 17,8 17.375,8.125 q 0.375,0.125 0.5,0.5 L 18,9 17.625,8.875 q -0.375,-0.125 -0.5,-0.5"
       id="path1195"
       inkscape:connector-curvature="0" />
    <path
       style="fill:#ff7240;fill-opacity:1"
       d="M 14,9.5 V 9 H 14.5 15 V 9.5 10 H 14.5 14 V 9.5 m 0,0.125 V 10 10.125 10.25 10 Q 14,9.75 14,9.5 V 9.25 9.625 M 15.125,9 H 15 14.625 14.25 14.5 q 0.25,0 0.5,0 h 0.25 -0.125"
       id="path1197"
       inkscape:connector-curvature="0" />
    <path
       style="fill:#e80801;fill-opacity:1"
       d="M 15,9.5 V 9 H 15.5 16 15.625 15.25 15.5 q 0.25,0 0.46875,0.03125 L 16.1875,9.0625 16.078125,9.046875 15.96875,9.03125 16.109375,9.390625 q 0.140625,0.359375 0.5,0.5 L 16.96875,10.03125 16.953125,9.921875 16.9375,9.8125 16.96875,10.03125 Q 17,10.25 17,10.5 V 10.75 10.375 10 10.5 11 H 16.5 16 l -0.125,-0.375 q -0.125,-0.375 -0.5,-0.5 L 15,10 V 9.5 m 2,1.625 V 11 10.625 10.25 10.5 q 0,0.25 0,0.5 v 0.25 -0.125 M 15.375,9 H 15 14.875 14.75 15 q 0.25,0 0.5,0 h 0.25 -0.375"
       id="path1199"
       inkscape:connector-curvature="0" />
    <path
       style="fill:#ae010a;fill-opacity:1"
       d="M 16.109375,9.390625 15.96875,9.03125 15.859375,9.015625 15.75,9 15.96875,9.03125 Q 16.1875,9.0625 16.375,9.125 L 16.5625,9.1875 16.28125,9.09375 16,9 16.375,9.125 q 0.375,0.125 0.5,0.5 L 17,10 16.90625,9.71875 16.8125,9.4375 16.875,9.625 q 0.0625,0.1875 0.09375,0.40625 L 17,10.25 16.984375,10.140625 16.96875,10.03125 16.609375,9.890625 q -0.359375,-0.140625 -0.5,-0.5"
       id="path1201"
       inkscape:connector-curvature="0" />
    <path
       style="fill:#883e1e;fill-opacity:1"
       d="M 18,9.5 V 9 l 0.375,0.125 q 0.375,0.125 0.5,0.5 L 19,10 18.515625,9.984375 18.03125,9.96875 18.046875,10.078125 18.0625,10.1875 18.03125,9.96875 Q 18,9.75 18,9.5 V 9.25 9.625 10 9.5"
       id="path1203"
       inkscape:connector-curvature="0" />
    <path
       style="fill:#c58956;fill-opacity:1"
       d="M 10.875,10.375 11,10 10.90625,10.28125 10.8125,10.5625 10.875,10.375 Q 10.9375,10.1875 10.9375,10 V 9.8125 9.90625 10 l 0.40625,0.125 Q 11.75,10.25 11.875,10.625 L 12,11 11.625,11.125 11.25,11.25 11.53125,11.15625 11.8125,11.0625 11.625,11.125 q -0.1875,0.0625 -0.34375,0.15625 L 11.125,11.375 11.203125,11.328125 11.28125,11.28125 11,11 10.71875,10.71875 10.671875,10.796875 10.625,10.875 10.71875,10.71875 Q 10.8125,10.5625 10.875,10.375 L 10.9375,10.1875 10.84375,10.46875 10.75,10.75 10.875,10.375"
       id="path1205"
       inkscape:connector-curvature="0" />
    <path
       style="fill:#ff4615;fill-opacity:1"
       d="M 14,10.5 V 10 h 0.5 0.5 l 0.125,0.375 q 0.125,0.375 0.5,0.5 L 16,11 V 11.5 12 H 15.5 15 15.375 15.75 15.5 q -0.25,0 -0.46875,0.03125 L 14.8125,12.0625 14.921875,12.04687 15.03125,12.03124 14.890625,11.640615 Q 14.75,11.25 14.359375,11.109375 L 13.96875,10.96875 13.953125,11.078125 13.9375,11.1875 13.96875,10.96875 Q 14,10.75 14,10.5 V 10.25 10.625 11 10.5 M 15.625,12 H 16 16.125 16.25 16 q -0.25,0 -0.5,0 h -0.25 0.375 M 14,9.875 V 10 10.375 10.75 10.5 Q 14,10.25 14,10 V 9.75 9.875"
       id="path1207"
       inkscape:connector-curvature="0" />
    <path
       style="fill:#ff2102;fill-opacity:1"
       d="M 15.125,10.375 15,10 l 0.375,0.125 q 0.375,0.125 0.5,0.5 L 16,11 15.625,10.875 q -0.375,-0.125 -0.5,-0.5"
       id="path1209"
       inkscape:connector-curvature="0" />
    <path
       style="fill:#ca5d2e;fill-opacity:1"
       d="M 18.125,10.375 18,10 18.09375,10.28125 18.1875,10.5625 18.125,10.375 Q 18.0625,10.1875 18.03125,9.96875 L 18,9.75 18.015625,9.859375 18.03125,9.96875 18.515625,9.984375 19,10 19.125,10.375 Q 19.25,10.75 19.5,11 q 0.25,0.25 0.375,0.625 L 20,12 19.625,11.875 Q 19.25,11.75 19,11.5 18.75,11.25 18.5,11 18.25,10.75 18.125,10.375"
       id="path1211"
       inkscape:connector-curvature="0" />
    <path
       style="fill:#2f160a;fill-opacity:1"
       d="M 19.125,10.375 19,10 h 0.5 0.5 l 0.125,0.375 Q 20.25,10.75 20.5,11 q 0.25,0.25 0.5,0.5 0.25,0.25 0.5,0.5 0.25,0.25 0.375,0.625 Q 22,13 22,13.5 V 14 H 21.5 21 v -0.5 q 0,-0.5 -0.125,-0.875 -0.125,-0.375 -0.5,-0.5 L 20,12 19.875,11.625 Q 19.75,11.25 19.5,11 19.25,10.75 19.125,10.375 M 22,14.125 V 14 13.625 13.25 13.5 q 0,0.25 0,0.5 v 0.25 -0.125"
       id="path1213"
       inkscape:connector-curvature="0" />
    <path
       style="fill:#593d30;fill-opacity:1"
       d="M 20.125,10.375 20,10 20.375,10.125 Q 20.75,10.25 21,10.5 L 21.25,10.75 21,11 20.75,11.25 20.5,11 Q 20.25,10.75 20.125,10.375 M 20.5625,11.0625 20.75,11.25 20.8125,11.3125 20.875,11.375 20.75,11.25 Q 20.625,11.125 20.5,11 l -0.125,-0.125 0.1875,0.1875 m 0.75,-0.25 L 21.25,10.75 21.0625,10.5625 20.875,10.375 21,10.5 q 0.125,0.125 0.25,0.25 l 0.125,0.125 -0.0625,-0.0625"
       id="path1215"
       inkscape:connector-curvature="0" />
    <path
       style="fill:#ba7842;fill-opacity:1"
       d="M 10,11.5 Q 10.25,11.25 10.5,11 L 10.75,10.75 10.5625,10.9375 10.375,11.125 10.5,11 q 0.125,-0.125 0.21875,-0.28125 L 10.8125,10.5625 10.76563,10.64063 10.71876,10.71876 11,11 l 0.28125,0.28125 0.07813,-0.04687 0.07813,-0.04687 -0.15625,0.09375 Q 11.125,11.375 11,11.5 L 10.875,11.625 11.0625,11.4375 11.25,11.25 11,11.5 Q 10.75,11.75 10.5,12 L 10.25,12.25 10,12 9.75,11.75 10,11.5 M 9.9375,11.5625 9.75,11.75 9.6875,11.8125 9.625,11.875 9.75,11.75 Q 9.875,11.625 10,11.5 l 0.125,-0.125 -0.1875,0.1875 m 0.25,0.75 L 10.25,12.25 10.4375,12.0625 10.625,11.875 10.5,12 q -0.125,0.125 -0.25,0.25 l -0.125,0.125 0.0625,-0.0625"
       id="path1217"
       inkscape:connector-curvature="0" />
    <path
       style="fill:#f4ac70;fill-opacity:1"
       d="m 11,11.5 q 0.25,-0.25 0.625,-0.375 L 12,11 12.125,11.375 12.25,11.75 12.15625,11.46875 12.0625,11.1875 12.125,11.375 q 0.0625,0.1875 0.15625,0.34375 L 12.375,11.875 12.32813,11.79687 12.28126,11.71874 12.015635,11.984365 Q 11.75,12.25 11.75,12.5 q 0,0.25 -0.375,0.375 L 11,13 11.125,12.625 Q 11.25,12.25 11,12 L 10.75,11.75 11,11.5 M 10.9375,11.5625 10.75,11.75 10.6875,11.8125 10.625,11.875 10.75,11.75 Q 10.875,11.625 11,11.5 l 0.125,-0.125 -0.1875,0.1875"
       id="path1219"
       inkscape:connector-curvature="0" />
    <path
       style="fill:#ffaf90;fill-opacity:1"
       d="M 13.875,11.375 14,11 13.90625,11.28125 13.8125,11.5625 13.875,11.375 q 0.0625,-0.1875 0.09375,-0.40625 L 14,10.75 l -0.01563,0.109375 -0.01563,0.109375 0.390625,0.140625 Q 14.75,11.25 14.890625,11.640625 L 15.03125,12.03125 15.140625,12.015625 15.25,12 15.03125,12.03125 Q 14.8125,12.0625 14.625,12.125 L 14.4375,12.1875 14.71875,12.09375 15,12 14.625,12.125 14.25,12.25 14.53125,12.15625 14.8125,12.0625 14.625,12.125 q -0.1875,0.0625 -0.28125,0.15625 L 14.25,12.375 l 0.04687,-0.04687 0.04687,-0.04687 -0.3125,-0.3125 -0.3125,-0.3125 -0.04687,0.04687 L 13.625,11.75 13.71875,11.65625 Q 13.8125,11.5625 13.875,11.375 L 13.9375,11.1875 13.84375,11.46875 13.75,11.75 13.875,11.375"
       id="path1221"
       inkscape:connector-curvature="0" />
    <path
       style="fill:#c70207;fill-opacity:1"
       d="M 16,11.5 V 11 H 16.5 17 V 11.5 12 H 16.5 16 V 11.5 M 15.875,12 H 16 16.375 16.75 16.5 q -0.25,0 -0.5,0 h -0.25 0.125 M 17,11.375 V 11 10.875 10.75 11 q 0,0.25 0,0.5 v 0.25 -0.375"
       id="path1223"
       inkscape:connector-curvature="0" />
    <path
       style="fill:#674333;fill-opacity:1"
       d="M 21,11.5 20.75,11.25 21,11 21.25,10.75 21.5,11 q 0.25,0.25 0.5,0.5 l 0.25,0.25 -0.265625,0.265625 -0.265625,0.265625 0.04687,0.07813 0.04687,0.07813 -0.09375,-0.15625 Q 21.625,12.125 21.5,12 L 21.375,11.875 21.5625,12.0625 21.75,12.25 21.5,12 Q 21.25,11.75 21,11.5 M 22.3125,11.8125 22.25,11.75 22.0625,11.5625 21.875,11.375 22,11.5 q 0.125,0.125 0.25,0.25 l 0.125,0.125 -0.0625,-0.0625 M 21.4375,10.9375 21.25,10.75 21.1875,10.6875 21.125,10.625 21.25,10.75 q 0.125,0.125 0.25,0.25 l 0.125,0.125 -0.1875,-0.1875 m -0.75,0.25 L 20.75,11.25 20.9375,11.4375 21.125,11.625 21,11.5 q -0.125,-0.125 -0.25,-0.25 l -0.125,-0.125 0.0625,0.0625"
       id="path1225"
       inkscape:connector-curvature="0" />
    <path
       style="fill:#aa682f;fill-opacity:1"
       d="M 9.125,12.625 Q 9.25,12.25 9.5,12 L 9.75,11.75 10,12 10.25,12.25 10,12.5 Q 9.75,12.75 9.390625,12.890625 L 9.03125,13.03125 9.015625,13.140625 9,13.25 9.03125,13.03125 Q 9.0625,12.8125 9.125,12.625 L 9.1875,12.4375 9.09375,12.71875 9,13 9.125,12.625 M 10.0625,12.4375 10.25,12.25 10.3125,12.1875 10.375,12.125 10.25,12.25 Q 10.125,12.375 10,12.5 l -0.125,0.125 0.1875,-0.1875 m -0.25,-0.75 L 9.75,11.75 9.5625,11.9375 9.375,12.125 9.5,12 q 0.125,-0.125 0.25,-0.25 l 0.125,-0.125 -0.0625,0.0625"
       id="path1227"
       inkscape:connector-curvature="0" />
    <path
       style="fill:#e79855;fill-opacity:1"
       d="M 10,12.5 Q 10.25,12.25 10.5,12 L 10.75,11.75 11,12 q 0.25,0.25 0.125,0.625 L 11,13 10.875,13.375 q -0.125,0.375 -0.5,0.5 L 10,14 10.125,13.625 Q 10.25,13.25 9.984375,12.984375 L 9.71875,12.71875 9.640625,12.765625 9.5625,12.8125 9.71875,12.71875 Q 9.875,12.625 10,12.5 L 10.125,12.375 9.9375,12.5625 9.75,12.75 10,12.5 M 10.8125,11.6875 10.75,11.75 10.5625,11.9375 10.375,12.125 10.5,12 q 0.125,-0.125 0.25,-0.25 l 0.125,-0.125 -0.0625,0.0625"
       id="path1229"
       inkscape:connector-curvature="0" />
    <path
       style="fill:#fabb85;fill-opacity:1"
       d="m 11.75,12.5 q 0,-0.25 0.265625,-0.515625 l 0.265625,-0.265625 -0.04687,-0.07813 -0.04687,-0.07813 0.09375,0.15625 Q 12.375,11.875 12.5,12 L 12.625,12.125 12.4375,11.9375 12.25,11.75 12.5,12 q 0.25,0.25 0.375,0.625 L 13,13 12.625,13.125 12.25,13.25 12.53125,13.15625 12.8125,13.0625 12.625,13.125 q -0.1875,0.0625 -0.3125,0.1875 l -0.125,0.125 0.0625,-0.0625 0.0625,-0.0625 -0.328125,-0.296875 -0.328125,-0.296875 -0.04687,0.04687 -0.04687,0.04687 0.09375,-0.09375 Q 11.75,12.625 11.75,12.5 V 12.375 12.5625 12.75 12.5"
       id="path1231"
       inkscape:connector-curvature="0" />
    <path
       style="fill:#90401f;fill-opacity:1"
       d="m 14.25,12.5 q 0,-0.25 0.375,-0.375 Q 15,12 15.5,12 q 0.5,0 1,0 H 17 v 0.5 q 0,0.5 0.125,0.875 0.125,0.375 0.5,0.5 Q 18,14 18.5,14 H 19 V 14.5 15 H 18.5 Q 18,15 17.625,14.875 17.25,14.75 17,14.5 16.75,14.25 16.5,14 16.25,13.75 16,13.5 15.75,13.25 15.375,13.125 15,13 14.625,12.875 14.25,12.75 14.25,12.5"
       id="path1233"
       inkscape:connector-curvature="0" />
    <path
       style="fill:#ff2102;fill-opacity:1"
       d="M 17,12.5 V 12 H 17.5 18 17.625 17.25 17.5 q 0.25,0 0.46875,0.03125 L 18.1875,12.0625 18.078125,12.04687 17.96875,12.03124 17.98438,12.515615 18,13 17.515625,12.984375 17.03125,12.96875 17.046875,13.078125 17.0625,13.1875 17.03125,12.96875 Q 17,12.75 17,12.5 V 12.25 12.625 13 12.5"
       id="path1235"
       inkscape:connector-curvature="0" />
    <path
       style="fill:#c70207;fill-opacity:1"
       d="M 17.984375,12.515625 17.96875,12.03125 17.859375,12.015625 17.75,12 17.96875,12.03125 Q 18.1875,12.0625 18.375,12.125 L 18.5625,12.1875 18.28125,12.09375 18,12 l 0.375,0.125 q 0.375,0.125 0.5,0.5 L 19,13 18.90625,12.71875 18.8125,12.4375 18.875,12.625 q 0.0625,0.1875 0.09375,0.40625 L 19,13.25 18.984375,13.140625 18.96875,13.03125 18.484375,13.015625 18,13 17.984375,12.515625"
       id="path1237"
       inkscape:connector-curvature="0" />
    <path
       style="fill:#a94d26;fill-opacity:1"
       d="M 20,12.5 V 12 l 0.375,0.125 q 0.375,0.125 0.5,0.5 Q 21,13 21,13.5 V 14 l -0.375,0.125 q -0.375,0.125 -0.5,0.5 L 20,15 H 19.5 19 V 14.5 14 l 0.375,-0.125 q 0.375,-0.125 0.5,-0.5 Q 20,13 20,12.5 M 19.625,15 H 20 20.125 20.25 20 q -0.25,0 -0.5,0 h -0.25 0.375"
       id="path1239"
       inkscape:connector-curvature="0" />
    <path
       style="fill:#6f5036;fill-opacity:1"
       d="M 21.875,12.625 21.75,12.25 21.84375,12.53125 21.9375,12.8125 21.875,12.625 Q 21.8125,12.4375 21.71875,12.28125 L 21.625,12.125 l 0.04687,0.07813 0.04687,0.07813 0.265625,-0.265625 L 22.25,11.75 22.5,12 q 0.25,0.25 0.375,0.625 L 23,13 22.90625,12.71875 22.8125,12.4375 22.875,12.625 q 0.0625,0.1875 0.09375,0.40625 L 23,13.25 22.984375,13.140625 22.96875,13.03125 h -0.5 -0.5 L 21.98438,13.140625 22,13.25 21.96875,13.03125 Q 21.9375,12.8125 21.875,12.625 L 21.8125,12.4375 21.90625,12.71875 22,13 21.875,12.625 M 22.4375,11.9375 22.25,11.75 22.1875,11.6875 22.125,11.625 22.25,11.75 q 0.125,0.125 0.25,0.25 l 0.125,0.125 -0.1875,-0.1875"
       id="path1241"
       inkscape:connector-curvature="0" />
    <path
       style="fill:#d3803b;fill-opacity:1"
       d="M 9,13.5 V 13 13.375 13.75 13.5 Q 9,13.25 9.03125,13.03125 L 9.0625,12.8125 9.046875,12.921875 9.03125,13.03125 9.390625,12.890625 9.75,12.75 9.46875,12.84375 9.1875,12.9375 9.375,12.875 Q 9.5625,12.8125 9.71875,12.71875 L 9.875,12.625 9.796875,12.671875 9.71875,12.71875 9.984375,12.984375 Q 10.25,13.25 10.125,13.625 L 10,14 9.875,14.375 q -0.125,0.375 -0.5,0.5 L 9,15 v -0.5 q 0,-0.5 0,-1"
       id="path1243"
       inkscape:connector-curvature="0" />
    <path
       style="fill:#f3ae73;fill-opacity:1"
       d="M 10.875,13.375 11,13 11.375,12.875 11.75,12.75 11.46875,12.84375 11.1875,12.9375 11.375,12.875 q 0.1875,-0.0625 0.28125,-0.15625 L 11.75,12.625 l -0.04687,0.04687 -0.04687,0.04687 0.328125,0.296875 0.328125,0.296875 0.0625,-0.0625 0.0625,-0.0625 -0.125,0.125 q -0.125,0.125 -0.1875,0.3125 L 12.0625,13.8125 12.15625,13.53125 12.25,13.25 12.125,13.625 12,14 11.625,14.125 11.25,14.25 11.53125,14.15625 11.8125,14.0625 11.625,14.125 q -0.1875,0.0625 -0.34375,0.15625 L 11.125,14.375 11.203125,14.328125 11.28125,14.28125 10.984375,13.984375 10.6875,13.6875 10.625,13.75 l -0.0625,0.0625 0.125,-0.125 q 0.125,-0.125 0.1875,-0.3125 L 10.9375,13.1875 10.84375,13.46875 10.75,13.75 10.875,13.375"
       id="path1245"
       inkscape:connector-curvature="0" />
    <path
       style="fill:#a27a58;fill-opacity:1"
       d="m 12.125,13.625 q 0.125,-0.375 0.5,-0.5 L 13,13 12.875,13.375 q -0.125,0.375 -0.5,0.5 L 12,14 12.125,13.625"
       id="path1247"
       inkscape:connector-curvature="0" />
    <path
       style="fill:#000000;fill-opacity:1"
       d="M 12.875,13.375 13,13 13.375,13.125 Q 13.75,13.25 14,13.5 14.25,13.75 14.625,13.875 15,14 15.375,14.125 15.75,14.25 16,14.5 q 0.25,0.25 0.5,0.5 0.25,0.25 0.5,0.5 L 17.25,15.75 17.0625,15.5625 16.875,15.375 17,15.5 q 0.125,0.125 0.28125,0.21875 l 0.15625,0.09375 -0.07813,-0.04687 -0.07813,-0.04687 -0.265625,0.265625 Q 16.75,16.25 16.375,16.125 16,16 15.875,15.625 15.75,15.25 15.375,15.125 15,15 14.5,15 14,15 13.875,14.625 13.75,14.25 13.5,14.25 q -0.25,0 -0.375,0.375 Q 13,15 12.625,15.125 12.25,15.25 12.25,15.5 q 0,0.25 0.375,0.375 0.375,0.125 0.5,0.5 0.125,0.375 0.5,0.5 Q 14,17 14.5,17 q 0.5,0 1,0 0.5,0 1,0 0.5,0 1,0 0.5,0 0.875,-0.125 Q 18.75,16.75 19,16.5 19.25,16.25 19.5,16 19.75,15.75 19.875,15.375 L 20,15 h 0.5 0.5 v 0.5 0.5 l -0.375,0.125 Q 20.25,16.25 20,16.5 19.75,16.75 19.5,17 19.25,17.25 19,17.5 18.75,17.75 18.375,17.875 L 18,18 H 17.5 17 16.5 16 15.5 15 14.5 14 L 13.625,17.875 Q 13.25,17.75 13,17.5 12.75,17.25 12.5,17 12.25,16.75 12,16.5 11.75,16.25 11.5,16 q -0.25,-0.25 -0.25,-0.5 0,-0.25 0.25,-0.5 0.25,-0.25 0.375,-0.625 L 12,14 12.375,13.875 q 0.375,-0.125 0.5,-0.5 M 20.71875,16.09375 21,16 21.09375,15.96875 21.1875,15.9375 21,16 q -0.1875,0.0625 -0.375,0.125 l -0.1875,0.0625 0.28125,-0.09375"
       id="path1249"
       inkscape:connector-curvature="0" />
    <path
       style="fill:#ff956b;fill-opacity:1"
       d="M 17.125,13.375 17,13 17.09375,13.28125 17.1875,13.5625 17.125,13.375 Q 17.0625,13.1875 17.03125,12.96875 L 17,12.75 l 0.01563,0.109375 0.01563,0.109375 0.484375,0.01563 L 18,13 l 0.01563,0.484375 0.01563,0.484375 0.109375,0.01563 L 18.25,14 18.03125,13.96875 Q 17.8125,13.9375 17.625,13.875 L 17.4375,13.8125 17.71875,13.90625 18,14 17.625,13.875 q -0.375,-0.125 -0.5,-0.5"
       id="path1251"
       inkscape:connector-curvature="0" />
    <path
       style="fill:#e80801;fill-opacity:1"
       d="M 18.015625,13.484375 18,13 l 0.484375,0.01563 0.484375,0.01563 -0.01563,-0.109375 -0.01563,-0.109375 0.03125,0.21875 Q 19,13.25 19,13.5 V 13.75 13.375 13 13.5 14 H 18.5 18 18.375 18.75 18.5 q -0.25,0 -0.46875,-0.03125 l -0.21875,-0.03125 0.109375,0.01563 0.109375,0.01563 -0.01563,-0.484375"
       id="path1253"
       inkscape:connector-curvature="0" />
    <path
       style="fill:#6a3e18;fill-opacity:1"
       d="M 22,13.5 V 13 13.375 13.75 13.5 q 0,-0.25 -0.03125,-0.46875 l -0.03125,-0.21875 0.01563,0.109375 0.01563,0.109375 h 0.5 0.5 L 22.953125,12.921875 22.9375,12.8125 22.96875,13.03125 Q 23,13.25 23,13.5 V 13.75 13.375 13 13.5 q 0,0.5 0,1 0,0.5 0,1 V 16 L 22.625,16.125 22.25,16.25 22.53125,16.15625 22.8125,16.0625 22.625,16.125 q -0.1875,0.0625 -0.28125,0.15625 L 22.25,16.375 22.296875,16.328125 22.34375,16.28125 22.015625,15.984375 21.6875,15.6875 21.625,15.75 l -0.0625,0.0625 0.125,-0.125 q 0.125,-0.125 0.1875,-0.3125 L 21.9375,15.1875 21.84375,15.46875 21.75,15.75 21.875,15.375 Q 22,15 22,14.5 q 0,-0.5 0,-1"
       id="path1255"
       inkscape:connector-curvature="0" />
    <path
       style="fill:#e59857;fill-opacity:1"
       d="M 9.875,14.375 10,14 10.375,13.875 10.75,13.75 10.46875,13.84375 10.1875,13.9375 10.375,13.875 q 0.1875,-0.0625 0.3125,-0.1875 l 0.125,-0.125 -0.0625,0.0625 -0.0625,0.0625 0.296875,0.296875 0.296875,0.296875 0.07813,-0.04687 0.07813,-0.04687 -0.15625,0.09375 Q 11.125,14.375 11,14.5 L 10.875,14.625 11.0625,14.4375 11.25,14.25 11,14.5 Q 10.75,14.75 10.5,15 L 10.25,15.25 10.4375,15.0625 10.625,14.875 10.5,15 q -0.125,0.125 -0.21875,0.28125 L 10.1875,15.4375 10.23437,15.35937 10.28124,15.28124 9.984375,14.984375 9.6875,14.6875 9.625,14.75 9.5625,14.8125 9.6875,14.6875 Q 9.8125,14.5625 9.875,14.375 L 9.9375,14.1875 9.84375,14.46875 9.75,14.75 9.875,14.375"
       id="path1257"
       inkscape:connector-curvature="0" />
    <path
       style="fill:#76451a;fill-opacity:1"
       d="m 11,14.5 q 0.25,-0.25 0.625,-0.375 L 12,14 11.875,14.375 Q 11.75,14.75 11.5,15 L 11.25,15.25 11.4375,15.0625 11.625,14.875 11.5,15 q -0.125,0.125 -0.1875,0.25 L 11.25,15.375 11.28125,15.3125 11.3125,15.25 11.03125,15 10.75,14.75 11,14.5 M 10.9375,14.5625 10.75,14.75 10.6875,14.8125 10.625,14.875 10.75,14.75 Q 10.875,14.625 11,14.5 l 0.125,-0.125 -0.1875,0.1875"
       id="path1259"
       inkscape:connector-curvature="0" />
    <path
       style="fill:#000000;fill-opacity:0"
       d="M 13.125,14.625 Q 13.25,14.25 13.5,14.25 q 0.25,0 0.375,0.375 Q 14,15 14.5,15 q 0.5,0 0.875,0.125 0.375,0.125 0.5,0.5 0.125,0.375 0.5,0.5 0.375,0.125 0.640625,-0.140625 L 17.28125,15.71875 17.203125,15.671875 17.125,15.625 17.28125,15.71875 Q 17.4375,15.8125 17.625,15.875 L 17.8125,15.9375 17.53125,15.84375 17.25,15.75 l 0.375,0.125 q 0.375,0.125 0.75,0 0.375,-0.125 0.5,-0.5 L 19,15 h 0.5 0.5 l -0.125,0.375 Q 19.75,15.75 19.5,16 19.25,16.25 19,16.5 18.75,16.75 18.375,16.875 18,17 17.5,17 q -0.5,0 -1,0 -0.5,0 -1,0 -0.5,0 -1,0 -0.5,0 -0.875,-0.125 -0.375,-0.125 -0.5,-0.5 Q 13,16 12.625,15.875 12.25,15.75 12.25,15.5 q 0,-0.25 0.375,-0.375 0.375,-0.125 0.5,-0.5"
       id="path1261"
       inkscape:connector-curvature="0" />
    <path
       style="fill:#76451a;fill-opacity:1"
       d="m 20.125,14.625 q 0.125,-0.375 0.5,-0.5 L 21,14 V 14.5 15 H 20.5 20 l 0.125,-0.375 M 19.875,15 H 20 20.375 20.75 20.5 q -0.25,0 -0.5,0 h -0.25 0.125"
       id="path1263"
       inkscape:connector-curvature="0" />
    <path
       style="fill:#562712;fill-opacity:1"
       d="M 21,14.5 V 14 H 21.5 22 V 14.5 15 14.625 14.25 14.5 q 0,0.25 -0.03125,0.46875 L 21.9375,15.1875 21.95313,15.078125 21.96876,14.96875 21.484385,14.98438 21,15 v -0.5 m 1,-0.125 V 14 13.875 13.75 14 q 0,0.25 0,0.5 v 0.25 -0.375"
       id="path1265"
       inkscape:connector-curvature="0" />
    <path
       style="fill:#d1823d;fill-opacity:1"
       d="M 9,15.5 V 15 L 9.375,14.875 9.75,14.75 9.46875,14.84375 9.1875,14.9375 9.375,14.875 Q 9.5625,14.8125 9.6875,14.6875 L 9.8125,14.5625 9.75,14.625 9.6875,14.6875 9.984375,14.984375 10.28125,15.28125 10.32812,15.20312 10.375,15.125 10.28125,15.28125 Q 10.1875,15.4375 10.125,15.625 L 10.0625,15.8125 10.15625,15.53125 10.25,15.25 10.125,15.625 10,16 H 9.5 9 v -0.5 m 0,0.125 V 16 16.125 16.25 16 q 0,-0.25 0,-0.5 v -0.25 0.375"
       id="path1267"
       inkscape:connector-curvature="0" />
    <path
       style="fill:#95643a;fill-opacity:1"
       d="M 10.125,15.625 Q 10.25,15.25 10.5,15 L 10.75,14.75 11.03125,15 11.3125,15.25 11.34375,15.1875 11.375,15.125 11.3125,15.25 Q 11.25,15.375 11.25,15.5 V 15.625 15.4375 15.25 15.5 15.75 15.5625 15.375 15.5 q 0,0.125 0.0625,0.25 L 11.375,15.875 11.34375,15.8125 11.3125,15.75 10.984375,16.015625 10.65625,16.28125 10.703125,16.328125 10.75,16.375 10.65625,16.28125 Q 10.5625,16.1875 10.375,16.125 L 10.1875,16.0625 10.46875,16.15625 10.75,16.25 10.375,16.125 10,16 10.125,15.625 M 10.8125,14.6875 10.75,14.75 10.5625,14.9375 10.375,15.125 10.5,15 q 0.125,-0.125 0.25,-0.25 l 0.125,-0.125 -0.0625,0.0625"
       id="path1269"
       inkscape:connector-curvature="0" />
    <path
       style="fill:#975822;fill-opacity:1"
       d="M 21,15.5 V 15 L 21.484375,14.98437 21.96875,14.96874 21.98438,14.859365 22,14.75 21.96875,14.96875 Q 21.9375,15.1875 21.875,15.375 L 21.8125,15.5625 21.90625,15.28125 22,15 21.875,15.375 q -0.125,0.375 -0.5,0.5 L 21,16 V 15.5 M 20.90625,16.03125 21,16 21.28125,15.90625 21.5625,15.8125 21.375,15.875 Q 21.1875,15.9375 21,16 l -0.1875,0.0625 0.09375,-0.03125"
       id="path1271"
       inkscape:connector-curvature="0" />
    <path
       style="fill:#a66733;fill-opacity:1"
       d="M 9,16.5 V 16 H 9.5 10 V 16.5 17 L 9.515625,16.984375 9.03125,16.96875 9.046875,17.078125 9.0625,17.1875 9.03125,16.96875 Q 9,16.75 9,16.5 V 16.25 16.625 17 16.5 m 1,0.625 V 17 16.625 16.25 16.5 q 0,0.25 0,0.5 v 0.25 -0.125 M 9,15.875 V 16 16.375 16.75 16.5 Q 9,16.25 9,16 v -0.25 0.125"
       id="path1273"
       inkscape:connector-curvature="0" />
    <path
       style="fill:#502e11;fill-opacity:1"
       d="M 10,16.5 V 16 l 0.375,0.125 q 0.375,0.125 0.375,0.375 0,0.25 -0.375,0.375 L 10,17 v -0.5"
       id="path1275"
       inkscape:connector-curvature="0" />
    <path
       style="fill:#5c3515;fill-opacity:1"
       d="M 10.75,16.5 V 16.25 16.4375 16.625 16.5 q 0,-0.125 -0.09375,-0.21875 l -0.09375,-0.09375 0.04687,0.04687 0.04687,0.04687 0.328125,-0.265625 L 11.3125,15.75 11.28125,15.6875 11.25,15.625 11.3125,15.75 Q 11.375,15.875 11.5,16 L 11.625,16.125 11.4375,15.9375 11.25,15.75 11.5,16 q 0.25,0.25 0.5,0.5 l 0.25,0.25 -0.28125,0.28125 -0.28125,0.28125 0.03125,0.03125 L 11.75,17.375 11.6875,17.3125 Q 11.625,17.25 11.5,17.25 H 11.375 11.5625 11.75 11.5 11.25 11.4375 11.625 11.5 q -0.125,0 -0.21875,0.09375 l -0.09375,0.09375 0.04687,-0.04687 0.04687,-0.04687 -0.3125,-0.3125 -0.3125,-0.3125 -0.04687,0.04687 -0.04687,0.04687 0.09375,-0.09375 Q 10.75,16.625 10.75,16.5 V 16.375 16.5625 16.75 16.5 M 12.3125,16.8125 12.25,16.75 12.0625,16.5625 11.875,16.375 12,16.5 q 0.125,0.125 0.25,0.25 l 0.125,0.125 -0.0625,-0.0625"
       id="path1277"
       inkscape:connector-curvature="0" />
    <path
       style="fill:#6a3d17;fill-opacity:1"
       d="m 20,16.5 q 0.25,-0.25 0.625,-0.375 L 21,16 21.125,16.375 21.25,16.75 21.15625,16.46875 21.0625,16.1875 21.125,16.375 q 0.0625,0.1875 0.15625,0.34375 L 21.375,16.875 21.328125,16.796875 21.28125,16.71875 21,17.03125 l -0.28125,0.3125 0.04687,0.04687 0.04687,0.04687 -0.09375,-0.09375 Q 20.625,17.25 20.5,17.25 H 20.375 20.5625 20.75 20.5 20.25 20.4375 20.625 20.5 q -0.125,0 -0.1875,0.0625 L 20.25,17.375 20.28125,17.34375 20.3125,17.3125 20.03125,17.03125 19.75,16.75 20,16.5 M 19.9375,16.5625 19.75,16.75 19.6875,16.8125 19.625,16.875 19.75,16.75 Q 19.875,16.625 20,16.5 l 0.125,-0.125 -0.1875,0.1875"
       id="path1279"
       inkscape:connector-curvature="0" />
    <path
       style="fill:#623816;fill-opacity:1"
       d="M 21.125,16.375 21,16 21.375,15.875 21.75,15.75 21.46875,15.84375 21.1875,15.9375 21.375,15.875 q 0.1875,-0.0625 0.3125,-0.1875 l 0.125,-0.125 -0.0625,0.0625 -0.0625,0.0625 0.328125,0.296875 0.328125,0.296875 0.04687,-0.04687 0.04687,-0.04687 -0.09375,0.09375 Q 22.25,16.375 22.25,16.5 V 16.625 16.4375 16.25 16.5 16.75 16.5625 16.375 16.5 q 0,0.125 0.09375,0.21875 L 22.4375,16.8125 22.39063,16.76563 22.34376,16.71876 22.015635,16.984385 21.6875,17.25 21.71875,17.3125 21.75,17.375 21.6875,17.25 Q 21.625,17.125 21.5,17 L 21.375,16.875 21.5625,17.0625 21.75,17.25 21.5,17 q -0.25,-0.25 -0.375,-0.625"
       id="path1281"
       inkscape:connector-curvature="0" />
    <path
       style="fill:#693d18;fill-opacity:1"
       d="m 22.25,16.5 q 0,-0.25 0.375,-0.375 L 23,16 V 16.5 17 16.625 16.25 16.5 q 0,0.25 -0.03125,0.46875 L 22.9375,17.1875 22.95313,17.078125 22.96876,16.96875 22.609385,16.859375 Q 22.25,16.75 22.25,16.5"
       id="path1283"
       inkscape:connector-curvature="0" />
    <path
       style="fill:#7c4d25;fill-opacity:1"
       d="M 9.125,17.375 9,17 9.09375,17.28125 9.1875,17.5625 9.125,17.375 Q 9.0625,17.1875 9.03125,16.96875 L 9,16.75 9.015625,16.859375 9.03125,16.96875 9.515625,16.984375 10,17 V 17.5 18 L 9.625,17.875 q -0.375,-0.125 -0.5,-0.5"
       id="path1285"
       inkscape:connector-curvature="0" />
    <path
       style="fill:#573213;fill-opacity:1"
       d="M 10,17.5 V 17 L 10.375,16.875 10.75,16.75 10.46875,16.84375 10.1875,16.9375 10.375,16.875 q 0.1875,-0.0625 0.28125,-0.15625 L 10.75,16.625 l -0.04687,0.04687 -0.04687,0.04687 0.3125,0.3125 0.3125,0.3125 0.04687,-0.04687 L 11.375,17.25 11.28125,17.34375 Q 11.1875,17.4375 11.125,17.625 L 11.0625,17.8125 11.15625,17.53125 11.25,17.25 11.125,17.625 11,18 H 10.5 10 v -0.5"
       id="path1287"
       inkscape:connector-curvature="0" />
    <path
       style="fill:#76451a;fill-opacity:1"
       d="M 11.125,17.625 Q 11.25,17.25 11.5,17.25 q 0.25,0 0.25,0.25 0,0.25 -0.375,0.375 L 11,18 11.125,17.625"
       id="path1289"
       inkscape:connector-curvature="0" />
    <path
       style="fill:#77451b;fill-opacity:1"
       d="M 11.75,17.5 V 17.25 17.4375 17.625 17.5 q 0,-0.125 -0.0625,-0.1875 L 11.625,17.25 11.65625,17.28125 11.6875,17.3125 11.96875,17.03125 12.25,16.75 12.5,17 q 0.25,0.25 0.5,0.5 L 13.25,17.75 13.0625,17.5625 12.875,17.375 13,17.5 q 0.125,0.125 0.28125,0.21875 L 13.4375,17.8125 13.35937,17.76563 13.28124,17.71876 12.984365,18.015635 12.6875,18.3125 12.71875,18.34375 12.75,18.375 12.6875,18.3125 Q 12.625,18.25 12.5,18.25 H 12.375 12.5625 12.75 12.5 12.25 12.4375 12.625 12.5 q -0.125,0 -0.1875,0.0625 L 12.25,18.375 12.28125,18.34375 12.3125,18.3125 11.984375,18.015625 11.65625,17.71875 l -0.04687,0.04687 -0.04687,0.04687 0.09375,-0.09375 Q 11.75,17.625 11.75,17.5 V 17.375 17.5625 17.75 17.5 M 12.4375,16.9375 12.25,16.75 12.1875,16.6875 12.125,16.625 12.25,16.75 q 0.125,0.125 0.25,0.25 l 0.125,0.125 -0.1875,-0.1875"
       id="path1291"
       inkscape:connector-curvature="0" />
    <path
       style="fill:#824b1d;fill-opacity:1"
       d="m 19,17.5 q 0.25,-0.25 0.5,-0.5 l 0.25,-0.25 0.28125,0.28125 0.28125,0.28125 0.03125,-0.03125 L 20.375,17.25 20.3125,17.3125 Q 20.25,17.375 20.25,17.5 V 17.625 17.4375 17.25 17.5 17.75 17.5625 17.375 17.5 q 0,0.125 0.09375,0.21875 L 20.4375,17.8125 20.39063,17.76563 20.34376,17.71876 20.015635,18.015635 19.6875,18.3125 19.71875,18.34375 19.75,18.375 19.6875,18.3125 Q 19.625,18.25 19.5,18.25 H 19.375 19.5625 19.75 19.5 19.25 19.4375 19.625 19.5 q -0.125,0 -0.25,0.0625 L 19.125,18.375 19.1875,18.34375 19.25,18.3125 18.984375,18.015625 18.71875,17.71875 l -0.07813,0.04687 -0.07813,0.04687 0.15625,-0.09375 Q 18.875,17.625 19,17.5 L 19.125,17.375 18.9375,17.5625 18.75,17.75 19,17.5 M 19.8125,16.6875 19.75,16.75 19.5625,16.9375 19.375,17.125 19.5,17 q 0.125,-0.125 0.25,-0.25 l 0.125,-0.125 -0.0625,0.0625"
       id="path1293"
       inkscape:connector-curvature="0" />
    <path
       style="fill:#884f1f;fill-opacity:1"
       d="m 20.25,17.5 q 0,-0.25 0.25,-0.25 0.25,0 0.375,0.375 L 21,18 20.625,17.875 Q 20.25,17.75 20.25,17.5"
       id="path1295"
       inkscape:connector-curvature="0" />
    <path
       style="fill:#693c17;fill-opacity:1"
       d="M 20.875,17.625 20.75,17.25 20.84375,17.53125 20.9375,17.8125 20.875,17.625 Q 20.8125,17.4375 20.71875,17.34375 L 20.625,17.25 l 0.04687,0.04687 0.04687,0.04687 0.28125,-0.3125 0.28125,-0.3125 -0.04687,-0.07813 -0.04687,-0.07813 0.09375,0.15625 Q 21.375,16.875 21.5,17 L 21.625,17.125 21.4375,16.9375 21.25,16.75 21.5,17 q 0.25,0.25 0.25,0.5 0,0.25 -0.375,0.375 L 21,18 20.875,17.625"
       id="path1297"
       inkscape:connector-curvature="0" />
    <path
       style="fill:#4b2c10;fill-opacity:1"
       d="M 21.75,17.5 V 17.25 17.4375 17.625 17.5 q 0,-0.125 -0.0625,-0.25 L 21.625,17.125 21.65625,17.1875 21.6875,17.25 22.015625,16.984375 22.34375,16.71875 22.296875,16.671875 22.25,16.625 22.34375,16.71875 Q 22.4375,16.8125 22.625,16.875 L 22.8125,16.9375 22.53125,16.84375 22.25,16.75 22.609375,16.859375 22.96875,16.96875 22.984375,16.859375 23,16.75 22.96875,16.96875 Q 22.9375,17.1875 22.875,17.375 L 22.8125,17.5625 22.90625,17.28125 23,17 22.875,17.375 Q 22.75,17.75 22.5,18 l -0.25,0.25 -0.296875,-0.265625 -0.296875,-0.265625 -0.04687,0.04687 -0.04687,0.04687 0.09375,-0.09375 Q 21.75,17.625 21.75,17.5 V 17.375 17.5625 17.75 17.5 M 22.1875,18.3125 22.25,18.25 22.4375,18.0625 22.625,17.875 22.5,18 q -0.125,0.125 -0.25,0.25 l -0.125,0.125 0.0625,-0.0625"
       id="path1299"
       inkscape:connector-curvature="0" />
    <path
       style="fill:#502e11;fill-opacity:1"
       d="M 10.125,18.375 10,18 h 0.5 0.5 v 0.5 0.5 l -0.375,-0.125 q -0.375,-0.125 -0.5,-0.5 M 10.71875,18.90625 11,19 11.09375,19.03125 11.1875,19.0625 11,19 q -0.1875,-0.0625 -0.375,-0.125 l -0.1875,-0.0625 0.28125,0.09375"
       id="path1301"
       inkscape:connector-curvature="0" />
    <path
       style="fill:#814b1d;fill-opacity:1"
       d="M 11,18.5 V 18 L 11.375,17.875 11.75,17.75 11.46875,17.84375 11.1875,17.9375 11.375,17.875 q 0.1875,-0.0625 0.28125,-0.15625 L 11.75,17.625 11.70313,17.67187 11.65626,17.71874 11.984385,18.015615 12.3125,18.3125 12.34375,18.28125 12.375,18.25 12.3125,18.3125 Q 12.25,18.375 12.25,18.5 V 18.625 18.4375 18.25 18.5 18.75 18.5625 18.375 18.5 q 0,0.125 0.0625,0.1875 L 12.375,18.75 12.34375,18.71875 12.3125,18.6875 12.015625,18.984375 11.71875,19.28125 11.796875,19.328125 11.875,19.375 11.71875,19.28125 Q 11.5625,19.1875 11.375,19.125 L 11.1875,19.0625 11.46875,19.15625 11.75,19.25 11.375,19.125 11,19 V 18.5 M 10.90625,18.96875 11,19 11.28125,19.09375 11.5625,19.1875 11.375,19.125 Q 11.1875,19.0625 11,19 l -0.1875,-0.0625 0.09375,0.03125"
       id="path1303"
       inkscape:connector-curvature="0" />
    <path
       style="fill:#9c5a24;fill-opacity:1"
       d="m 12.25,18.5 q 0,-0.25 0.25,-0.25 0.25,0 0.25,0.25 0,0.25 -0.25,0.25 -0.25,0 -0.25,-0.25"
       id="path1305"
       inkscape:connector-curvature="0" />
    <path
       style="fill:#8e5220;fill-opacity:1"
       d="M 12.75,18.5 V 18.25 18.4375 18.625 18.5 q 0,-0.125 -0.0625,-0.1875 L 12.625,18.25 12.65625,18.28125 12.6875,18.3125 12.984375,18.015625 13.28125,17.71875 13.203125,17.671875 13.125,17.625 13.28125,17.71875 Q 13.4375,17.8125 13.625,17.875 L 13.8125,17.9375 13.53125,17.84375 13.25,17.75 13.625,17.875 14,18 V 18.5 19 L 13.625,19.125 13.25,19.25 13.53125,19.15625 13.8125,19.0625 13.625,19.125 q -0.1875,0.0625 -0.3125,0.1875 l -0.125,0.125 L 13.25,19.375 13.3125,19.3125 13,19 12.6875,18.6875 12.65625,18.71875 12.625,18.75 12.6875,18.6875 Q 12.75,18.625 12.75,18.5 V 18.375 18.5625 18.75 18.5"
       id="path1307"
       inkscape:connector-curvature="0" />
    <path
       style="fill:#995924;fill-opacity:1"
       d="M 14,18.5 V 18 H 14.5 15 V 18.5 19 H 14.5 14 v -0.5"
       id="path1309"
       inkscape:connector-curvature="0" />
    <path
       style="fill:#9f5d24;fill-opacity:1"
       d="M 15,18.5 V 18 H 15.5 16 V 18.5 19 H 15.5 15 v -0.5"
       id="path1311"
       inkscape:connector-curvature="0" />
    <path
       style="fill:#a15e24;fill-opacity:1"
       d="M 16,18.5 V 18 H 16.5 17 V 18.5 19 H 16.5 16 v -0.5"
       id="path1313"
       inkscape:connector-curvature="0" />
    <path
       style="fill:#9d5c24;fill-opacity:1"
       d="M 17,18.5 V 18 H 17.5 18 V 18.5 19 H 17.5 17 v -0.5"
       id="path1315"
       inkscape:connector-curvature="0" />
    <path
       style="fill:#955623;fill-opacity:1"
       d="M 18,18.5 V 18 L 18.375,17.875 18.75,17.75 18.46875,17.84375 18.1875,17.9375 18.375,17.875 q 0.1875,-0.0625 0.34375,-0.15625 L 18.875,17.625 18.79687,17.67187 18.71874,17.71874 18.984365,18.015615 19.25,18.3125 19.3125,18.28125 19.375,18.25 19.25,18.3125 Q 19.125,18.375 19,18.5 L 18.875,18.625 19.0625,18.4375 19.25,18.25 19,18.5 q -0.25,0.25 -0.625,0.375 L 18,19 v -0.5"
       id="path1317"
       inkscape:connector-curvature="0" />
    <path
       style="fill:#a96327;fill-opacity:1"
       d="m 19,18.5 q 0.25,-0.25 0.5,-0.25 0.25,0 0.25,0.25 0,0.25 -0.25,0.5 L 19.25,19.25 19.4375,19.0625 19.625,18.875 19.5,19 q -0.125,0.125 -0.21875,0.28125 L 19.1875,19.4375 19.23437,19.35937 19.28124,19.28124 19,19 l -0.28125,-0.28125 -0.07813,0.04687 -0.07813,0.04687 0.15625,-0.09375 Q 18.875,18.625 19,18.5 L 19.125,18.375 18.9375,18.5625 18.75,18.75 19,18.5"
       id="path1319"
       inkscape:connector-curvature="0" />
    <path
       style="fill:#915421;fill-opacity:1"
       d="M 19.75,18.5 V 18.25 18.4375 18.625 18.5 q 0,-0.125 -0.0625,-0.1875 L 19.625,18.25 19.65625,18.28125 19.6875,18.3125 20.015625,18.015625 20.34375,17.71875 20.296875,17.671875 20.25,17.625 20.34375,17.71875 Q 20.4375,17.8125 20.625,17.875 L 20.8125,17.9375 20.53125,17.84375 20.25,17.75 20.625,17.875 21,18 V 18.5 19 L 20.625,19.125 20.25,19.25 20.53125,19.15625 20.8125,19.0625 20.625,19.125 q -0.1875,0.0625 -0.34375,0.15625 L 20.125,19.375 20.203125,19.328125 20.28125,19.28125 19.984375,19.015625 19.6875,18.75 19.65625,18.8125 19.625,18.875 19.6875,18.75 Q 19.75,18.625 19.75,18.5 V 18.375 18.5625 18.75 18.5 M 20.71875,19.09375 21,19 21.09375,18.96875 21.1875,18.9375 21,19 q -0.1875,0.0625 -0.375,0.125 l -0.1875,0.0625 0.28125,-0.09375"
       id="path1321"
       inkscape:connector-curvature="0" />
    <path
       style="fill:#502e11;fill-opacity:1"
       d="M 21,18.5 V 18 L 21.375,17.875 21.75,17.75 21.46875,17.84375 21.1875,17.9375 21.375,17.875 q 0.1875,-0.0625 0.28125,-0.15625 L 21.75,17.625 21.70313,17.67187 21.65626,17.71874 21.953135,17.984365 22.25,18.25 22,18.5 q -0.25,0.25 -0.625,0.375 L 21,19 V 18.5 M 20.90625,19.03125 21,19 21.28125,18.90625 21.5625,18.8125 21.375,18.875 Q 21.1875,18.9375 21,19 l -0.1875,0.0625 0.09375,-0.03125 M 22.0625,18.4375 22.25,18.25 22.3125,18.1875 22.375,18.125 22.25,18.25 Q 22.125,18.375 22,18.5 l -0.125,0.125 0.1875,-0.1875"
       id="path1323"
       inkscape:connector-curvature="0" />
    <path
       style="fill:#945522;fill-opacity:1"
       d="M 12,19.5 11.75,19.25 11.9375,19.4375 12.125,19.625 12,19.5 q -0.125,-0.125 -0.28125,-0.21875 l -0.15625,-0.09375 0.07813,0.04687 0.07813,0.04687 0.296875,-0.296875 L 12.3125,18.6875 12.28125,18.65625 12.25,18.625 12.3125,18.6875 Q 12.375,18.75 12.5,18.75 H 12.625 12.4375 12.25 12.5 12.75 12.5625 12.375 12.5 q 0.125,0 0.1875,-0.0625 L 12.75,18.625 12.71875,18.65625 12.6875,18.6875 13,19 l 0.3125,0.3125 0.0625,-0.0625 0.0625,-0.0625 -0.125,0.125 q -0.125,0.125 -0.1875,0.3125 L 13.0625,19.8125 13.15625,19.53125 13.25,19.25 13.140625,19.609375 13.03125,19.96875 13.140625,19.984375 13.25,20 13.03125,19.96875 Q 12.8125,19.9375 12.625,19.875 L 12.4375,19.8125 12.71875,19.90625 13,20 12.625,19.875 Q 12.25,19.75 12,19.5"
       id="path1325"
       inkscape:connector-curvature="0" />
    <path
       style="fill:#b86a2a;fill-opacity:1"
       d="M 13.140625,19.609375 Q 13.25,19.25 13.625,19.125 L 14,19 V 19.5 20 H 13.5 13 13.375 13.75 13.5 q -0.25,0 -0.46875,-0.03125 l -0.21875,-0.03125 0.109375,0.01563 0.109375,0.01563 0.109375,-0.359375"
       id="path1327"
       inkscape:connector-curvature="0" />
    <path
       style="fill:#c3722d;fill-opacity:1"
       d="M 14,19.5 V 19 H 14.5 15 V 19.5 20 H 14.5 14 v -0.5"
       id="path1329"
       inkscape:connector-curvature="0" />
    <path
       style="fill:#cb752e;fill-opacity:1"
       d="M 15,19.5 V 19 H 15.5 16 V 19.5 20 H 15.5 15 v -0.5"
       id="path1331"
       inkscape:connector-curvature="0" />
    <path
       style="fill:#cc772f;fill-opacity:1"
       d="M 16,19.5 V 19 H 16.5 17 V 19.5 20 H 16.5 16 v -0.5"
       id="path1333"
       inkscape:connector-curvature="0" />
    <path
       style="fill:#c9742e;fill-opacity:1"
       d="M 17,19.5 V 19 H 17.5 18 V 19.5 20 H 17.5 17 v -0.5"
       id="path1335"
       inkscape:connector-curvature="0" />
    <path
       style="fill:#bf6f2c;fill-opacity:1"
       d="M 18,19.5 V 19 L 18.375,18.875 18.75,18.75 18.46875,18.84375 18.1875,18.9375 18.375,18.875 q 0.1875,-0.0625 0.34375,-0.15625 L 18.875,18.625 18.796875,18.671875 18.71875,18.71875 19,19 19.28125,19.28125 19.32812,19.20312 19.375,19.125 19.28125,19.28125 Q 19.1875,19.4375 19.125,19.625 L 19.0625,19.8125 19.15625,19.53125 19.25,19.25 19.109375,19.609375 18.96875,19.96875 19.078125,19.953125 19.1875,19.9375 18.96875,19.96875 Q 18.75,20 18.5,20 H 18.25 18.625 19 18.5 18 v -0.5"
       id="path1337"
       inkscape:connector-curvature="0" />
    <path
       style="fill:#945522;fill-opacity:1"
       d="M 19.109375,19.609375 Q 19.25,19.25 19.5,19 L 19.75,18.75 19.5625,18.9375 19.375,19.125 19.5,19 q 0.125,-0.125 0.1875,-0.25 l 0.0625,-0.125 -0.03125,0.0625 -0.03125,0.0625 0.296875,0.265625 0.296875,0.265625 0.07813,-0.04687 0.07813,-0.04687 -0.15625,0.09375 Q 20.125,19.375 20,19.5 L 19.875,19.625 20.0625,19.4375 20.25,19.25 20,19.5 q -0.25,0.25 -0.625,0.375 L 19,20 19.28125,19.90625 19.5625,19.8125 19.375,19.875 q -0.1875,0.0625 -0.40625,0.09375 L 18.75,20 l 0.109375,-0.01563 0.109375,-0.01563 0.140625,-0.359375"
       id="path1339"
       inkscape:connector-curvature="0" />
    <path
       style="fill:#000000;fill-opacity:0.49803922"
       d="M 11,20.5 V 20 l 0.375,0.125 q 0.375,0.125 0.5,0.5 Q 12,21 11.5,21 H 11 v -0.5"
       id="path1341"
       inkscape:connector-curvature="0" />
    <path
       style="fill:#000000;fill-opacity:0.49803922"
       d="m 20.125,20.625 q 0.125,-0.375 0.5,-0.5 L 21,20 V 20.5 21 H 20.5 Q 20,21 20.125,20.625"
       id="path1343"
       inkscape:connector-curvature="0" />
    <path
       style="fill:#000000;fill-opacity:0.49803922"
       d="M 8,21.5 Q 8,21 8.5,21 H 9 V 21.5 22 H 8.5 Q 8,22 8,21.5"
       id="path1345"
       inkscape:connector-curvature="0" />
    <path
       style="fill:#000000;fill-opacity:0.49803922"
       d="M 23,21.5 V 21 h 0.5 Q 24,21 24,21.5 24,22 23.5,22 H 23 v -0.5"
       id="path1347"
       inkscape:connector-curvature="0" />
    <path
       style="fill:#000000;fill-opacity:0.49803922"
       d="M 10,22.5 V 22 h 0.5 Q 11,22 11,22.5 V 23 H 10.5 Q 10,23 10,22.5"
       id="path1349"
       inkscape:connector-curvature="0" />
    <path
       style="fill:#000000;fill-opacity:0.49803922"
       d="M 21,22.5 Q 21,22 21.5,22 H 22 v 0.5 Q 22,23 21.5,23 H 21 v -0.5"
       id="path1351"
       inkscape:connector-curvature="0" />
  </g>
</svg>
