<?xml version="1.0" encoding="UTF-8" standalone="no"?>
<!-- Created with Inkscape (http://www.inkscape.org/) -->

<svg
   xmlns:dc="http://purl.org/dc/elements/1.1/"
   xmlns:cc="http://creativecommons.org/ns#"
   xmlns:rdf="http://www.w3.org/1999/02/22-rdf-syntax-ns#"
   xmlns:svg="http://www.w3.org/2000/svg"
   xmlns="http://www.w3.org/2000/svg"
   xmlns:sodipodi="http://sodipodi.sourceforge.net/DTD/sodipodi-0.dtd"
   xmlns:inkscape="http://www.inkscape.org/namespaces/inkscape"
   version="1.1"
   id="svg1425"
   width="32"
   height="32"
   viewBox="0 0 32 32"
   sodipodi:docname="tourmaline.svg"
   inkscape:version="0.92.5 (2060ec1f9f, 2020-04-08)">
  <metadata
     id="metadata1431">
    <rdf:RDF>
      <cc:Work
         rdf:about="">
        <dc:format>image/svg+xml</dc:format>
        <dc:type
           rdf:resource="http://purl.org/dc/dcmitype/StillImage" />
        <dc:title />
      </cc:Work>
    </rdf:RDF>
  </metadata>
  <defs
     id="defs1429" />
  <sodipodi:namedview
     pagecolor="#ffffff"
     bordercolor="#666666"
     borderopacity="1"
     objecttolerance="10"
     gridtolerance="10"
     guidetolerance="10"
     inkscape:pageopacity="0"
     inkscape:pageshadow="2"
     inkscape:window-width="1920"
     inkscape:window-height="1118"
     id="namedview1427"
     showgrid="false"
     inkscape:zoom="7.375"
     inkscape:cx="-6.0338983"
     inkscape:cy="16"
     inkscape:window-x="0"
     inkscape:window-y="24"
     inkscape:window-maximized="1"
     inkscape:current-layer="svg1425" />
  <g
     transform="translate(0,8)"
     id="g1661">
    <path
       style="fill:#000000;fill-opacity:0"
       d="M 0,0.5 V 0 H 0.5 1 1.5 2 2.5 3 3.5 4 4.5 5 5.5 6 6.5 7 7.5 8 8.5 9 9.5 10 10.5 11 11.5 12 12.5 13 13.5 14 14.5 15 15.5 16 16.5 17 17.5 18 18.5 19 19.5 20 20.5 21 21.5 22 22.5 23 23.5 24 24.5 25 25.5 26 26.5 27 27.5 28 28.5 29 29.5 30 30.5 31 31.5 32 V 0.5 1 1.5 2 2.5 3 3.5 4 4.5 5 5.5 6 6.5 7 7.5 8 8.5 9 9.5 10 10.5 11 11.5 12 12.5 13 13.5 14 14.5 15 15.5 16 16.5 17 17.5 18 18.5 19 19.5 20 20.5 21 21.5 22 22.5 23 23.5 24 24.5 25 25.5 26 26.5 27 27.5 28 28.5 29 29.5 30 30.5 31 31.5 32 H 31.5 31 30.5 30 29.5 29 28.5 28 27.5 27 26.5 26 25.5 25 24.5 24 23.5 23 22.5 22 21.5 21 20.5 20 19.5 19 18.5 18 17.5 17 16.5 16 15.5 15 14.5 14 13.5 13 12.5 12 11.5 11 10.5 10 9.5 9 8.5 8 7.5 7 6.5 6 5.5 5 4.5 4 3.5 3 2.5 2 1.5 1 0.5 0 V 31.5 31 30.5 30 29.5 29 28.5 28 27.5 27 26.5 26 25.5 25 24.5 24 23.5 23 22.5 22 21.5 21 20.5 20 19.5 19 18.5 18 17.5 17 16.5 16 15.5 15 14.5 14 13.5 13 12.5 12 11.5 11 10.5 10 9.5 9 8.5 8 7.5 7 6.5 6 5.5 5 4.5 4 3.5 3 2.5 2 1.5 1 0.5 M 21.5,23 Q 22,23 22,22.5 V 22 h 0.5 0.5 0.5 Q 24,22 24,21.5 24,21 23.5,21 H 23 22.5 q -0.5,0 -1,0 H 21 V 20.5 20 h 0.5 Q 22,20 22,19.5 V 19 h 0.5 Q 23,19 23,18.5 V 18 h 0.5 q 0.5,0 0.5,-0.5 0,-0.5 0,-1 0,-0.5 0,-1 0,-0.5 0,-1 0,-0.5 0,-1 0,-0.5 0,-1 0,-0.5 -0.375,-0.625 -0.375,-0.125 -0.5,-0.5 Q 23,11 23,10.5 23,10 23,9.5 23,9 22.625,8.875 22.25,8.75 22.125,8.375 22,8 21.625,7.875 21.25,7.75 21.125,7.375 21,7 20.5,7 20,7 19.875,7.375 19.75,7.75 19.375,7.875 19,8 18.625,7.875 18.25,7.75 18.125,7.375 18,7 17.625,6.875 17.25,6.75 17.125,6.375 17,6 16.5,6 16,6 15.5,6 15,6 14.875,6.375 14.75,6.75 14.375,6.875 14,7 13.875,7.375 13.75,7.75 13.375,7.875 13,8 12.625,7.875 12.25,7.75 12.125,7.375 12,7 11.5,7 11,7 10.875,7.375 10.75,7.75 10.375,7.875 10,8 9.875,8.375 9.75,8.75 9.375,8.875 9,9 9,9.5 9,10 9,10.5 9,11 8.875,11.375 8.75,11.75 8.375,11.875 8,12 8,12.5 q 0,0.5 0,1 0,0.5 0,1 0,0.5 0,1 0,0.5 0,1 0,0.5 0,1 0,0.5 0.375,0.625 0.375,0.125 0.5,0.5 Q 9,19 9.5,19 H 10 v 0.5 Q 10,20 10.5,20 H 11 v 0.5 0.5 h -0.5 q -0.5,0 -1,0 H 9 8.5 Q 8,21 8,21.5 8,22 8.5,22 H 9 9.5 10 v 0.5 q 0,0.5 0.5,0.5 h 0.5 0.5 q 0.5,0 1,0 0.5,0 1,0 0.5,0 1,0 0.5,0 1,0 0.5,0 1,0 0.5,0 1,0 0.5,0 1,0 0.5,0 1,0 0.5,0 1,0 h 0.5 0.5"
       id="path1435"
       inkscape:connector-curvature="0" />
    <path
       style="fill:#000000;fill-opacity:1"
       d="M 14.875,6.375 Q 15,6 15.5,6 q 0.5,0 1,0 0.5,0 0.625,0.375 0.125,0.375 0.5,0.5 0.375,0.125 0.5,0.5 0.125,0.375 0.5,0.5 0.375,0.125 0.75,0 0.375,-0.125 0.5,-0.5 Q 20,7 20.5,7 q 0.5,0 0.625,0.375 0.125,0.375 0.5,0.5 0.375,0.125 0.5,0.5 0.125,0.375 0.5,0.5 Q 23,9 23,9.5 q 0,0.5 0,1 0,0.5 0.125,0.875 0.125,0.375 0.5,0.5 Q 24,12 24,12.5 q 0,0.5 0,1 0,0.5 0,1 0,0.5 0,1 0,0.5 0,1 0,0.5 0,1 0,0.5 -0.5,0.5 H 23 l 0.125,-0.375 Q 23.25,17.25 22.96875,16.96875 L 22.6875,16.6875 22.625,16.75 l -0.0625,0.0625 0.125,-0.125 q 0.125,-0.125 0.1875,-0.3125 L 22.9375,16.1875 22.84375,16.46875 22.75,16.75 22.875,16.375 Q 23,16 23,15.5 q 0,-0.5 0,-1 0,-0.5 0,-1 V 13 l -0.125,-0.375 q -0.125,-0.375 -0.5,-0.5 L 22,12 22.28125,12.09375 22.5625,12.1875 22.375,12.125 Q 22.1875,12.0625 21.96875,12.03125 L 21.75,12 l 0.109375,0.01563 0.109375,0.01563 0.01563,-0.515625 Q 22,11 22,10.5 22,10 21.875,9.625 21.75,9.25 21.375,9.125 L 21,9 20.875,8.625 Q 20.75,8.25 20.5,8.25 q -0.25,0 -0.375,0.375 L 20,9 H 19.5 Q 19,9 18.5,9 H 18 L 17.875,8.625 Q 17.75,8.25 17.375,8.125 L 17,8 16.875,7.625 Q 16.75,7.25 16.375,7.125 L 16,7 15.625,7.125 q -0.375,0.125 -0.5,0.5 L 15,8 14.625,8.125 q -0.375,0.125 -0.5,0.5 L 14,9 H 13.5 Q 13,9 12.5,9 H 12 L 11.875,8.625 Q 11.75,8.25 11.5,8.25 q -0.25,0 -0.375,0.375 L 11,9 10.625,9.125 Q 10.25,9.25 10.125,9.625 10,10 10,10.5 10,11 10.01563,11.515625 L 10.03126,12.03125 10.140635,12.01562 10.25,12 10.03125,12.03125 Q 9.8125,12.0625 9.625,12.125 L 9.4375,12.1875 9.71875,12.09375 10,12 9.625,12.125 q -0.375,0.125 -0.5,0.5 L 9,13 v 0.5 q 0,0.5 0,1 0,0.5 0,1 V 16 16.5 17 l 0.125,0.375 Q 9.25,17.75 9.5,18 9.75,18.25 9.875,18.625 L 10,19 H 9.5 Q 9,19 8.875,18.625 8.75,18.25 8.375,18.125 8,18 8,17.5 8,17 8,16.5 8,16 8,15.5 8,15 8,14.5 8,14 8,13.5 8,13 8,12.5 8,12 8.375,11.875 8.75,11.75 8.875,11.375 9,11 9,10.5 9,10 9,9.5 9,9 9.375,8.875 9.75,8.75 9.875,8.375 10,8 10.375,7.875 10.75,7.75 10.875,7.375 11,7 11.5,7 q 0.5,0 0.625,0.375 0.125,0.375 0.5,0.5 0.375,0.125 0.75,0 0.375,-0.125 0.5,-0.5 0.125,-0.375 0.5,-0.5 0.375,-0.125 0.5,-0.5"
       id="path1437"
       inkscape:connector-curvature="0" />
    <path
       style="fill:#717171;fill-opacity:1"
       d="m 15.125,7.625 q 0.125,-0.375 0.5,-0.5 L 16,7 V 7.5 8 H 15.5 15 l 0.125,-0.375"
       id="path1439"
       inkscape:connector-curvature="0" />
    <path
       style="fill:#6d6d6d;fill-opacity:1"
       d="M 16,7.5 V 7 l 0.375,0.125 q 0.375,0.125 0.5,0.5 L 17,8 H 16.5 16 V 7.5"
       id="path1441"
       inkscape:connector-curvature="0" />
    <path
       style="fill:#7e7e7e;fill-opacity:1"
       d="M 11.125,8.625 Q 11.25,8.25 11.5,8.25 q 0.25,0 0.375,0.375 L 12,9 H 11.5 11 l 0.125,-0.375"
       id="path1443"
       inkscape:connector-curvature="0" />
    <path
       style="fill:#9f6c87;fill-opacity:1"
       d="m 14.125,8.625 q 0.125,-0.375 0.5,-0.5 L 15,8 V 8.5 9 H 14.5 14 l 0.125,-0.375"
       id="path1445"
       inkscape:connector-curvature="0" />
    <path
       style="fill:#b0035e;fill-opacity:1"
       d="M 15,8.5 V 8 H 15.5 16 V 8.5 9 H 15.5 15 V 8.5 M 15.625,9 H 16 16.125 16.25 16 q -0.25,0 -0.5,0 h -0.25 0.375 m 0.5,-1 H 16 15.625 15.25 15.5 q 0.25,0 0.5,0 h 0.25 -0.125"
       id="path1447"
       inkscape:connector-curvature="0" />
    <path
       style="fill:#980253;fill-opacity:1"
       d="M 16,8.5 V 8 H 16.5 17 V 8.5 9 H 16.5 16 V 8.5 M 15.875,9 H 16 16.375 16.75 16.5 Q 16.25,9 16,9 h -0.25 0.125 m 0.5,-1 H 16 15.875 15.75 16 q 0.25,0 0.5,0 h 0.25 -0.375"
       id="path1449"
       inkscape:connector-curvature="0" />
    <path
       style="fill:#7e4b66;fill-opacity:1"
       d="M 17,8.5 V 8 l 0.375,0.125 q 0.375,0.125 0.5,0.5 L 18,9 H 17.5 17 V 8.5"
       id="path1451"
       inkscape:connector-curvature="0" />
    <path
       style="fill:#5f5f5f;fill-opacity:1"
       d="M 20.125,8.625 Q 20.25,8.25 20.5,8.25 q 0.25,0 0.375,0.375 L 21,9 H 20.5 20 l 0.125,-0.375"
       id="path1453"
       inkscape:connector-curvature="0" />
    <path
       style="fill:#a5728c;fill-opacity:1"
       d="m 10.125,9.625 q 0.125,-0.375 0.5,-0.5 L 11,9 V 9.5 10 L 10.515625,10.01563 10.03125,10.03126 10.01562,10.140635 10,10.25 10.03125,10.03125 Q 10.0625,9.8125 10.125,9.625 L 10.1875,9.4375 10.09375,9.71875 10,10 10.125,9.625 M 11,10.125 V 10 9.625 9.25 9.5 q 0,0.25 0,0.5 v 0.25 -0.125"
       id="path1455"
       inkscape:connector-curvature="0" />
    <path
       style="fill:#cf1c79;fill-opacity:1"
       d="M 11,9.5 V 9 H 11.5 12 V 9.5 10 H 11.5 11 V 9.5"
       id="path1457"
       inkscape:connector-curvature="0" />
    <path
       style="fill:#8d5a75;fill-opacity:1"
       d="M 12,9.5 V 9 H 12.5 13 V 9.5 10 H 12.5 12 V 9.5 m 0,0.125 V 10 10.125 10.25 10 Q 12,9.75 12,9.5 V 9.25 9.625 m 1,0.5 V 10 9.625 9.25 9.5 q 0,0.25 0,0.5 v 0.25 -0.125 M 13.125,9 H 13 12.625 12.25 12.5 q 0.25,0 0.5,0 h 0.25 -0.125"
       id="path1459"
       inkscape:connector-curvature="0" />
    <path
       style="fill:#4a4a4a;fill-opacity:1"
       d="M 13,9.5 V 9 H 13.5 14 V 9.5 10 H 13.5 13 V 9.5 M 13.375,9 H 13 12.875 12.75 13 q 0.25,0 0.5,0 h 0.25 -0.375"
       id="path1461"
       inkscape:connector-curvature="0" />
    <path
       style="fill:#d5659d;fill-opacity:1"
       d="M 14,9.5 V 9 H 14.5 15 V 9.5 10 L 14.515625,9.984375 14.03125,9.96875 14.046875,10.078125 14.0625,10.1875 14.03125,9.96875 Q 14,9.75 14,9.5 V 9.25 9.625 10 9.5"
       id="path1463"
       inkscape:connector-curvature="0" />
    <path
       style="fill:#ca046a;fill-opacity:1"
       d="M 15,9.5 V 9 h 0.5 q 0.5,0 1,0 H 17 V 9.5 10 L 16.625,9.875 Q 16.25,9.75 15.96875,10.03125 l -0.28125,0.28125 0.0625,0.0625 0.0625,0.0625 -0.125,-0.125 Q 15.5625,10.1875 15.375,10.125 L 15.1875,10.0625 15.46875,10.15625 15.75,10.25 15.375,10.125 15,10 V 9.5"
       id="path1465"
       inkscape:connector-curvature="0" />
    <path
       style="fill:#790241;fill-opacity:1"
       d="M 17,9.5 V 9 H 17.5 18 V 9.5 10 9.625 9.25 9.5 q 0,0.25 -0.03125,0.46875 L 17.9375,10.1875 17.953125,10.078125 17.96875,9.96875 17.484375,9.984375 17,10 V 9.5 m 0,0.125 V 10 10.125 10.25 10 Q 17,9.75 17,9.5 V 9.25 9.625"
       id="path1467"
       inkscape:connector-curvature="0" />
    <path
       style="fill:#444444;fill-opacity:1"
       d="M 18,9.5 V 9 H 18.5 19 V 9.5 10 H 18.5 18 V 9.5 M 19.125,9 H 19 18.625 18.25 18.5 q 0.25,0 0.5,0 h 0.25 -0.125"
       id="path1469"
       inkscape:connector-curvature="0" />
    <path
       style="fill:#9a5a79;fill-opacity:1"
       d="M 19,9.5 V 9 H 19.5 20 V 9.5 10 H 19.5 19 V 9.5 m 0,0.125 V 10 10.125 10.25 10 Q 19,9.75 19,9.5 V 9.25 9.625 M 19.375,9 H 19 18.875 18.75 19 q 0.25,0 0.5,0 h 0.25 -0.375"
       id="path1471"
       inkscape:connector-curvature="0" />
    <path
       style="fill:#790241;fill-opacity:1"
       d="M 20,9.5 V 9 H 20.5 21 V 9.5 10 H 20.5 20 V 9.5"
       id="path1473"
       inkscape:connector-curvature="0" />
    <path
       style="fill:#844463;fill-opacity:1"
       d="M 21,9.5 V 9 l 0.375,0.125 q 0.375,0.125 0.5,0.5 L 22,10 21.90625,9.71875 21.8125,9.4375 21.875,9.625 q 0.0625,0.1875 0.09375,0.40625 L 22,10.25 21.984375,10.140625 21.96875,10.03125 21.484375,10.015625 21,10 V 9.5"
       id="path1475"
       inkscape:connector-curvature="0" />
    <path
       style="fill:#d183aa;fill-opacity:1"
       d="M 10,10.5 V 10 10.375 10.75 10.5 q 0,-0.25 0.03125,-0.46875 L 10.0625,9.8125 10.046875,9.921875 10.03125,10.03125 10.515625,10.015625 11,10 V 10.5 11 H 10.5 10 v -0.5 m 0,0.125 V 11 11.125 11.25 11 q 0,-0.25 0,-0.5 v -0.25 0.375 m 1,-0.25 V 10 9.875 9.75 10 q 0,0.25 0,0.5 v 0.25 -0.375"
       id="path1477"
       inkscape:connector-curvature="0" />
    <path
       style="fill:#dc3187;fill-opacity:1"
       d="M 11,10.5 V 10 H 11.5 12 V 10.5 11 H 11.5 11 v -0.5"
       id="path1479"
       inkscape:connector-curvature="0" />
    <path
       style="fill:#ac226b;fill-opacity:1"
       d="M 12,10.5 V 10 H 12.5 13 V 10.5 11 10.625 10.25 10.5 q 0,0.25 -0.03125,0.46875 L 12.9375,11.1875 12.95313,11.078125 12.96876,10.96875 12.484385,10.98438 12,11 v -0.5 m 1,-0.125 V 10 9.875 9.75 10 q 0,0.25 0,0.5 v 0.25 -0.375 m -1,-0.5 V 10 10.375 10.75 10.5 Q 12,10.25 12,10 V 9.75 9.875"
       id="path1481"
       inkscape:connector-curvature="0" />
    <path
       style="fill:#5c5c5c;fill-opacity:1"
       d="M 13,10.5 V 10 h 0.5 0.5 l 0.125,0.375 0.125,0.375 -0.09375,-0.28125 -0.09375,-0.28125 0.0625,0.1875 q 0.0625,0.1875 0.1875,0.3125 l 0.125,0.125 L 14.375,10.75 14.3125,10.6875 14,11 l -0.3125,0.3125 0.0625,0.0625 0.0625,0.0625 -0.125,-0.125 Q 13.5625,11.1875 13.375,11.125 L 13.1875,11.0625 13.46875,11.15625 13.75,11.25 13.375,11.125 13,11 v -0.5"
       id="path1483"
       inkscape:connector-curvature="0" />
    <path
       style="fill:#8a5771;fill-opacity:1"
       d="M 14.125,10.375 14,10 14.09375,10.28125 14.1875,10.5625 14.125,10.375 Q 14.0625,10.1875 14.03125,9.96875 L 14,9.75 14.015625,9.859375 14.03125,9.96875 14.515625,9.984375 15,10 l 0.01563,0.484375 0.01563,0.484375 0.109375,0.01563 L 15.25,11 15.03125,10.96875 Q 14.8125,10.9375 14.625,10.875 L 14.4375,10.8125 14.71875,10.90625 15,11 14.625,10.875 q -0.375,-0.125 -0.5,-0.5"
       id="path1485"
       inkscape:connector-curvature="0" />
    <path
       style="fill:#dc2c84;fill-opacity:1"
       d="M 15.015625,10.484375 15,10 l 0.375,0.125 q 0.375,0.125 0.5,0.5 L 16,11 H 15.5 15 15.375 15.75 15.5 q -0.25,0 -0.46875,-0.03125 l -0.21875,-0.03125 0.109375,0.01563 0.109375,0.01563 -0.01563,-0.484375 M 15.625,11 H 16 16.125 16.25 16 q -0.25,0 -0.5,0 h -0.25 0.375"
       id="path1487"
       inkscape:connector-curvature="0" />
    <path
       style="fill:#e0137a;fill-opacity:1"
       d="M 15.875,10.625 15.75,10.25 15.84375,10.53125 15.9375,10.8125 15.875,10.625 q -0.0625,-0.1875 -0.1875,-0.3125 l -0.125,-0.125 0.0625,0.0625 0.0625,0.0625 0.28125,-0.28125 Q 16.25,9.75 16.625,9.875 L 17,10 l -0.01563,0.484375 -0.01563,0.484375 0.109375,-0.01563 0.109375,-0.01563 -0.21875,0.03125 Q 16.75,11 16.5,11 H 16.25 16.625 17 16.5 16 l -0.125,-0.375 m 0,0.375 H 16 16.375 16.75 16.5 q -0.25,0 -0.5,0 h -0.25 0.125"
       id="path1489"
       inkscape:connector-curvature="0" />
    <path
       style="fill:#602d48;fill-opacity:1"
       d="M 16.984375,10.484375 17,10 17.484375,9.984375 17.96875,9.96875 17.984375,9.859375 18,9.75 17.96875,9.96875 Q 17.9375,10.1875 17.875,10.375 L 17.8125,10.5625 17.90625,10.28125 18,10 17.875,10.375 q -0.125,0.375 -0.5,0.5 L 17,11 17.28125,10.90625 17.5625,10.8125 17.375,10.875 q -0.1875,0.0625 -0.40625,0.09375 L 16.75,11 16.859375,10.98437 16.96875,10.96874 16.98438,10.484365 M 17,9.875 V 10 10.375 10.75 10.5 Q 17,10.25 17,10 V 9.75 9.875"
       id="path1491"
       inkscape:connector-curvature="0" />
    <path
       style="fill:#555555;fill-opacity:1"
       d="M 17.875,10.375 18,10 H 18.5 19 V 10.5 11 L 18.625,11.125 18.25,11.25 18.53125,11.15625 18.8125,11.0625 18.625,11.125 q -0.1875,0.0625 -0.3125,0.1875 l -0.125,0.125 L 18.25,11.375 18.3125,11.3125 18,11 17.6875,10.6875 17.625,10.75 l -0.0625,0.0625 0.125,-0.125 q 0.125,-0.125 0.1875,-0.3125 L 17.9375,10.1875 17.84375,10.46875 17.75,10.75 17.875,10.375"
       id="path1493"
       inkscape:connector-curvature="0" />
    <path
       style="fill:#d5659d;fill-opacity:1"
       d="M 19,10.5 V 10 h 0.5 0.5 v 0.5 0.5 l -0.484375,-0.01563 -0.484375,-0.01563 0.01563,0.109375 0.01563,0.109375 -0.03125,-0.21875 Q 19,10.75 19,10.5 V 10.25 10.625 11 10.5 M 19,9.875 V 10 10.375 10.75 10.5 Q 19,10.25 19,10 V 9.75 9.875"
       id="path1495"
       inkscape:connector-curvature="0" />
    <path
       style="fill:#ca046a;fill-opacity:1"
       d="M 20,10.5 V 10 H 20.5 21 V 10.5 11 H 20.5 20 v -0.5"
       id="path1497"
       inkscape:connector-curvature="0" />
    <path
       style="fill:#600134;fill-opacity:1"
       d="M 21,10.5 V 10 l 0.484375,0.01563 0.484375,0.01563 L 21.953125,9.921875 21.9375,9.8125 21.96875,10.03125 Q 22,10.25 22,10.5 V 10.75 10.375 10 10.5 11 H 21.5 21 v -0.5 m 1,0.625 V 11 10.625 10.25 10.5 q 0,0.25 0,0.5 v 0.25 -0.125"
       id="path1499"
       inkscape:connector-curvature="0" />
    <path
       style="fill:#87554b;fill-opacity:1"
       d="M 10.015625,11.515625 10,11 H 10.5 11 V 11.5 12 H 10.5 10 10.375 10.75 10.5 q -0.25,0 -0.46875,0.03125 L 9.8125,12.0625 9.921875,12.046875 10.03125,12.03125 10.015625,11.515625 M 10.625,12 H 11 11.125 11.25 11 q -0.25,0 -0.5,0 h -0.25 0.375 M 10,10.875 V 11 11.375 11.75 11.5 q 0,-0.25 0,-0.5 v -0.25 0.125"
       id="path1501"
       inkscape:connector-curvature="0" />
    <path
       style="fill:#d93f8c;fill-opacity:1"
       d="M 11,11.5 V 11 h 0.5 0.5 l -0.01563,0.484375 -0.01563,0.484375 0.109375,-0.01563 0.109375,-0.01563 -0.21875,0.03125 Q 11.75,12 11.5,12 H 11.25 11.625 12 11.5 11 V 11.5 M 10.875,12 H 11 11.375 11.75 11.5 q -0.25,0 -0.5,0 h -0.25 0.125"
       id="path1503"
       inkscape:connector-curvature="0" />
    <path
       style="fill:#73405b;fill-opacity:1"
       d="M 11.984375,11.484375 12,11 12.484375,10.984375 12.96875,10.96875 12.984375,10.859375 13,10.75 12.96875,10.96875 Q 12.9375,11.1875 12.875,11.375 L 12.8125,11.5625 12.90625,11.28125 13,11 12.875,11.375 q -0.125,0.375 -0.5,0.5 L 12,12 12.28125,11.90625 12.5625,11.8125 12.375,11.875 q -0.1875,0.0625 -0.40625,0.09375 L 11.75,12 l 0.109375,-0.01563 0.109375,-0.01563 0.01563,-0.484375"
       id="path1505"
       inkscape:connector-curvature="0" />
    <path
       style="fill:#5e5e5e;fill-opacity:1"
       d="M 12.875,11.375 13,11 l 0.375,0.125 q 0.375,0.125 0.5,0.5 L 14,12 13.625,12.125 13.25,12.25 13.53125,12.15625 13.8125,12.0625 13.625,12.125 q -0.1875,0.0625 -0.34375,0.15625 L 13.125,12.375 13.203125,12.328125 13.28125,12.28125 12.984375,11.984375 12.6875,11.6875 12.625,11.75 l -0.0625,0.0625 0.125,-0.125 q 0.125,-0.125 0.1875,-0.3125 L 12.9375,11.1875 12.84375,11.46875 12.75,11.75 12.875,11.375"
       id="path1507"
       inkscape:connector-curvature="0" />
    <path
       style="fill:#5a5a5a;fill-opacity:1"
       d="M 13.875,11.625 13.75,11.25 13.84375,11.53125 13.9375,11.8125 13.875,11.625 q -0.0625,-0.1875 -0.1875,-0.3125 l -0.125,-0.125 0.0625,0.0625 0.0625,0.0625 L 14,11 14.3125,10.6875 14.25,10.625 l -0.0625,-0.0625 0.125,0.125 q 0.125,0.125 0.3125,0.1875 L 14.8125,10.9375 14.53125,10.84375 14.25,10.75 14.625,10.875 15,11 V 11.5 12 H 14.5 14 l -0.125,-0.375"
       id="path1509"
       inkscape:connector-curvature="0" />
    <path
       style="fill:#515151;fill-opacity:1"
       d="M 15,11.5 V 11 h 0.5 0.5 l 0.125,0.375 0.125,0.375 -0.09375,-0.28125 -0.09375,-0.28125 0.0625,0.1875 q 0.0625,0.1875 0.1875,0.3125 l 0.125,0.125 L 16.375,11.75 16.3125,11.6875 16,12 l -0.3125,0.3125 0.0625,0.0625 0.0625,0.0625 -0.125,-0.125 Q 15.5625,12.1875 15.375,12.125 L 15.1875,12.0625 15.46875,12.15625 15.75,12.25 15.375,12.125 15,12 v -0.5"
       id="path1511"
       inkscape:connector-curvature="0" />
    <path
       style="fill:#4b4b4b;fill-opacity:1"
       d="M 16.125,11.375 16,11 h 0.5 0.5 v 0.5 0.5 l -0.375,-0.125 q -0.375,-0.125 -0.5,-0.5"
       id="path1513"
       inkscape:connector-curvature="0" />
    <path
       style="fill:#5d5d5d;fill-opacity:1"
       d="M 17,11.5 V 11 L 17.375,10.875 17.75,10.75 17.46875,10.84375 17.1875,10.9375 17.375,10.875 q 0.1875,-0.0625 0.3125,-0.1875 l 0.125,-0.125 L 17.75,10.625 17.6875,10.6875 18,11 l 0.3125,0.3125 0.0625,-0.0625 0.0625,-0.0625 -0.125,0.125 q -0.125,0.125 -0.1875,0.3125 L 18.0625,11.8125 18.15625,11.53125 18.25,11.25 18.125,11.625 18,12 H 17.5 17 v -0.5"
       id="path1515"
       inkscape:connector-curvature="0" />
    <path
       style="fill:#656565;fill-opacity:1"
       d="m 18.125,11.625 q 0.125,-0.375 0.5,-0.5 L 19,11 19.125,11.375 19.25,11.75 19.15625,11.46875 19.0625,11.1875 19.125,11.375 q 0.0625,0.1875 0.1875,0.3125 l 0.125,0.125 L 19.375,11.75 19.3125,11.6875 19.015625,11.984375 18.71875,12.28125 18.79688,12.32812 18.875,12.375 18.71875,12.28125 Q 18.5625,12.1875 18.375,12.125 L 18.1875,12.0625 18.46875,12.15625 18.75,12.25 18.375,12.125 18,12 18.125,11.625"
       id="path1517"
       inkscape:connector-curvature="0" />
    <path
       style="fill:#7f405e;fill-opacity:1"
       d="M 19.125,11.375 19,11 19.09375,11.28125 19.1875,11.5625 19.125,11.375 Q 19.0625,11.1875 19.03125,10.96875 L 19,10.75 l 0.01563,0.109375 0.01563,0.109375 0.484375,0.01563 L 20,11 l 0.01563,0.484375 0.01563,0.484375 0.109375,0.01563 L 20.25,12 20.03125,11.96875 Q 19.8125,11.9375 19.625,11.875 L 19.4375,11.8125 19.71875,11.90625 20,12 19.625,11.875 q -0.375,-0.125 -0.5,-0.5"
       id="path1519"
       inkscape:connector-curvature="0" />
    <path
       style="fill:#9e2a69;fill-opacity:1"
       d="M 20.015625,11.484375 20,11 H 20.5 21 V 11.5 12 H 20.5 20 20.375 20.75 20.5 q -0.25,0 -0.46875,-0.03125 l -0.21875,-0.03125 0.109375,0.01563 0.109375,0.01563 -0.01563,-0.484375 M 20.625,12 H 21 21.125 21.25 21 q -0.25,0 -0.5,0 h -0.25 0.375"
       id="path1521"
       inkscape:connector-curvature="0" />
    <path
       style="fill:#642543;fill-opacity:1"
       d="M 21,11.5 V 11 h 0.5 0.5 l -0.01563,0.515625 -0.01563,0.515625 0.109375,0.01563 0.109375,0.01563 -0.21875,-0.03125 Q 21.75,12 21.5,12 H 21.25 21.625 22 21.5 21 V 11.5 M 20.875,12 H 21 21.375 21.75 21.5 q -0.25,0 -0.5,0 h -0.25 0.125 M 22,11.375 V 11 10.875 10.75 11 q 0,0.25 0,0.5 v 0.25 -0.375"
       id="path1523"
       inkscape:connector-curvature="0" />
    <path
       style="fill:#636363;fill-opacity:1"
       d="m 9.125,12.625 q 0.125,-0.375 0.5,-0.5 L 10,12 V 12.5 13 H 9.5 9 l 0.125,-0.375"
       id="path1525"
       inkscape:connector-curvature="0" />
    <path
       style="fill:#5a5a5a;fill-opacity:1"
       d="M 10,12.5 V 12 h 0.5 0.5 l -0.125,0.375 q -0.125,0.375 -0.5,0.5 L 10,13 v -0.5"
       id="path1527"
       inkscape:connector-curvature="0" />
    <path
       style="fill:#5c5c5c;fill-opacity:1"
       d="M 10.875,12.375 11,12 H 11.5 12 V 12.5 13 L 11.625,13.125 11.25,13.25 11.53125,13.15625 11.8125,13.0625 11.625,13.125 q -0.1875,0.0625 -0.34375,0.15625 L 11.125,13.375 11.203125,13.328125 11.28125,13.28125 10.984375,12.984375 10.6875,12.6875 10.625,12.75 l -0.0625,0.0625 0.125,-0.125 q 0.125,-0.125 0.1875,-0.3125 L 10.9375,12.1875 10.84375,12.46875 10.75,12.75 10.875,12.375"
       id="path1529"
       inkscape:connector-curvature="0" />
    <path
       style="fill:#606060;fill-opacity:1"
       d="M 12,12.5 V 12 L 12.375,11.875 12.75,11.75 12.46875,11.84375 12.1875,11.9375 12.375,11.875 q 0.1875,-0.0625 0.3125,-0.1875 l 0.125,-0.125 -0.0625,0.0625 -0.0625,0.0625 0.296875,0.296875 0.296875,0.296875 0.07813,-0.04687 0.07813,-0.04687 -0.15625,0.09375 Q 13.125,12.375 13,12.5 L 12.875,12.625 13.0625,12.4375 13.25,12.25 13,12.5 q -0.25,0.25 -0.625,0.375 L 12,13 v -0.5"
       id="path1531"
       inkscape:connector-curvature="0" />
    <path
       style="fill:#898989;fill-opacity:1"
       d="m 13,12.5 q 0.25,-0.25 0.625,-0.375 L 14,12 V 12.5 13 L 13.625,13.125 13.25,13.25 13.53125,13.15625 13.8125,13.0625 13.625,13.125 q -0.1875,0.0625 -0.34375,0.15625 L 13.125,13.375 13.203125,13.328125 13.28125,13.28125 13,13 l -0.28125,-0.28125 -0.07813,0.04687 -0.07813,0.04687 0.15625,-0.09375 Q 12.875,12.625 13,12.5 L 13.125,12.375 12.9375,12.5625 12.75,12.75 13,12.5"
       id="path1533"
       inkscape:connector-curvature="0" />
    <path
       style="fill:#787878;fill-opacity:1"
       d="M 14,12.5 V 12 H 14.5 15 V 12.5 13 H 14.5 14 v -0.5"
       id="path1535"
       inkscape:connector-curvature="0" />
    <path
       style="fill:#7f7f7f;fill-opacity:1"
       d="M 15,12.5 V 12 l 0.375,0.125 q 0.375,0.125 0.5,0.5 L 16,13 H 15.5 15 v -0.5"
       id="path1537"
       inkscape:connector-curvature="0" />
    <path
       style="fill:#717171;fill-opacity:1"
       d="M 15.875,12.625 15.75,12.25 15.84375,12.53125 15.9375,12.8125 15.875,12.625 q -0.0625,-0.1875 -0.1875,-0.3125 l -0.125,-0.125 0.0625,0.0625 0.0625,0.0625 L 16,12 16.3125,11.6875 16.25,11.625 l -0.0625,-0.0625 0.125,0.125 q 0.125,0.125 0.3125,0.1875 L 16.8125,11.9375 16.53125,11.84375 16.25,11.75 16.625,11.875 17,12 V 12.5 13 H 16.5 16 l -0.125,-0.375"
       id="path1539"
       inkscape:connector-curvature="0" />
    <path
       style="fill:#777777;fill-opacity:1"
       d="M 17,12.5 V 12 H 17.5 18 V 12.5 13 H 17.5 17 v -0.5"
       id="path1541"
       inkscape:connector-curvature="0" />
    <path
       style="fill:#797979;fill-opacity:1"
       d="M 18,12.5 V 12 l 0.375,0.125 Q 18.75,12.25 19,12.5 L 19.25,12.75 19.0625,12.5625 18.875,12.375 19,12.5 q 0.125,0.125 0.28125,0.21875 L 19.4375,12.8125 19.359375,12.765625 19.28125,12.71875 19,13 18.71875,13.28125 18.79688,13.32812 18.875,13.375 18.71875,13.28125 Q 18.5625,13.1875 18.375,13.125 L 18.1875,13.0625 18.46875,13.15625 18.75,13.25 18.375,13.125 18,13 v -0.5"
       id="path1543"
       inkscape:connector-curvature="0" />
    <path
       style="fill:#646464;fill-opacity:1"
       d="M 19,12.5 18.75,12.25 18.9375,12.4375 19.125,12.625 19,12.5 q -0.125,-0.125 -0.28125,-0.21875 l -0.15625,-0.09375 0.07813,0.04687 0.07813,0.04687 0.296875,-0.296875 L 19.3125,11.6875 19.25,11.625 l -0.0625,-0.0625 0.125,0.125 q 0.125,0.125 0.3125,0.1875 L 19.8125,11.9375 19.53125,11.84375 19.25,11.75 19.625,11.875 20,12 V 12.5 13 L 19.625,12.875 Q 19.25,12.75 19,12.5"
       id="path1545"
       inkscape:connector-curvature="0" />
    <path
       style="fill:#4a4a4a;fill-opacity:1"
       d="M 20,12.5 V 12 H 20.5 21 V 12.5 13 H 20.5 20 v -0.5"
       id="path1547"
       inkscape:connector-curvature="0" />
    <path
       style="fill:#484848;fill-opacity:1"
       d="M 21,12.5 V 12 H 21.5 22 V 12.5 13 H 21.5 21 v -0.5"
       id="path1549"
       inkscape:connector-curvature="0" />
    <path
       style="fill:#343434;fill-opacity:1"
       d="M 22,12.5 V 12 l 0.375,0.125 q 0.375,0.125 0.5,0.5 L 23,13 H 22.5 22 v -0.5"
       id="path1551"
       inkscape:connector-curvature="0" />
    <path
       style="fill:#868686;fill-opacity:1"
       d="M 9,13.5 V 13 H 9.5 10 L 10.375,12.875 10.75,12.75 10.46875,12.84375 10.1875,12.9375 10.375,12.875 q 0.1875,-0.0625 0.3125,-0.1875 l 0.125,-0.125 -0.0625,0.0625 -0.0625,0.0625 0.296875,0.296875 0.296875,0.296875 0.07813,-0.04687 0.07813,-0.04687 -0.15625,0.09375 Q 11.125,13.375 11,13.5 L 10.875,13.625 11.0625,13.4375 11.25,13.25 11,13.5 Q 10.75,13.75 10.375,13.875 10,14 9.875,14.375 9.75,14.75 10,15 L 10.25,15.25 10,15.5 Q 9.75,15.75 9.375,15.875 L 9,16 V 15.5 Q 9,15 9,14.5 9,14 9,13.5 M 10.0625,15.4375 10.25,15.25 10.3125,15.1875 10.375,15.125 10.25,15.25 Q 10.125,15.375 10,15.5 l -0.125,0.125 0.1875,-0.1875"
       id="path1553"
       inkscape:connector-curvature="0" />
    <path
       style="fill:#8f8f8f;fill-opacity:1"
       d="m 11,13.5 q 0.25,-0.25 0.625,-0.375 L 12,13 V 13.5 14 L 11.625,14.125 11.25,14.25 11.53125,14.15625 11.8125,14.0625 11.625,14.125 q -0.1875,0.0625 -0.34375,0.15625 L 11.125,14.375 11.203125,14.328125 11.28125,14.28125 11,14 l -0.28125,-0.28125 -0.07813,0.04687 -0.07813,0.04687 0.15625,-0.09375 Q 10.875,13.625 11,13.5 L 11.125,13.375 10.9375,13.5625 10.75,13.75 11,13.5"
       id="path1555"
       inkscape:connector-curvature="0" />
    <path
       style="fill:#7c7c7c;fill-opacity:1"
       d="M 12,13.5 V 13 L 12.375,12.875 12.75,12.75 12.46875,12.84375 12.1875,12.9375 12.375,12.875 q 0.1875,-0.0625 0.34375,-0.15625 L 12.875,12.625 12.796875,12.671875 12.71875,12.71875 13,13 l 0.28125,0.28125 0.07813,-0.04687 0.07813,-0.04687 -0.15625,0.09375 Q 13.125,13.375 13,13.5 L 12.875,13.625 13.0625,13.4375 13.25,13.25 13,13.5 q -0.25,0.25 -0.625,0.375 L 12,14 v -0.5"
       id="path1557"
       inkscape:connector-curvature="0" />
    <path
       style="fill:#000000;fill-opacity:1"
       d="m 13,13.5 q 0.25,-0.25 0.625,-0.375 L 14,13 h 0.5 0.5 0.5 0.5 0.5 0.5 0.5 0.5 l 0.375,0.125 Q 18.75,13.25 19,13.5 q 0.25,0.25 0.5,0.5 0.25,0.25 0.5,0.5 0.25,0.25 0.5,0.5 0.25,0.25 0.25,0.5 0,0.25 -0.25,0.5 -0.25,0.25 -0.5,0.5 -0.25,0.25 -0.5,0.5 -0.25,0.25 -0.5,0.5 -0.25,0.25 -0.625,0.375 L 18,18 H 17.5 17 16.5 16 15.5 15 14.5 14 L 13.625,17.875 Q 13.25,17.75 13,17.5 12.75,17.25 12.5,17 12.25,16.75 12,16.5 11.75,16.25 11.5,16 q -0.25,-0.25 -0.25,-0.5 0,-0.25 0.25,-0.5 0.25,-0.25 0.375,-0.625 L 12,14 12.375,13.875 Q 12.75,13.75 13,13.5 M 12.28125,13.90625 12,14 11.90625,14.03125 11.8125,14.0625 12,14 q 0.1875,-0.0625 0.375,-0.125 l 0.1875,-0.0625 -0.28125,0.09375 M 17.5,17 q 0.5,0 0.875,-0.125 0.375,-0.125 0.5,-0.5 Q 19,16 19.375,15.875 19.75,15.75 19.75,15.5 19.75,15.25 19.375,15.125 19,15 18.875,14.625 18.75,14.25 18.375,14.125 18,14 17.5,14 q -0.5,0 -1,0 -0.5,0 -1,0 -0.5,0 -1,0 -0.5,0 -0.875,0.125 -0.375,0.125 -0.5,0.5 Q 13,15 12.625,15.125 12.25,15.25 12.25,15.5 q 0,0.25 0.375,0.375 0.375,0.125 0.5,0.5 0.125,0.375 0.5,0.5 Q 14,17 14.5,17 q 0.5,0 1,0 0.5,0 1,0 0.5,0 1,0"
       id="path1559"
       inkscape:connector-curvature="0" />
    <path
       style="fill:#4f4f4f;fill-opacity:1"
       d="M 19,13.5 18.75,13.25 18.9375,13.4375 19.125,13.625 19,13.5 Q 18.875,13.375 18.71875,13.28125 L 18.5625,13.1875 18.64063,13.23437 18.71876,13.28124 19,13 19.28125,12.71875 19.203125,12.671875 19.125,12.625 19.28125,12.71875 Q 19.4375,12.8125 19.625,12.875 L 19.8125,12.9375 19.53125,12.84375 19.25,12.75 19.625,12.875 20,13 20.125,13.375 20.25,13.75 20.15625,13.46875 20.0625,13.1875 20.125,13.375 q 0.0625,0.1875 0.1875,0.3125 l 0.125,0.125 L 20.375,13.75 20.3125,13.6875 20.03125,13.96875 19.75,14.25 19.5,14 Q 19.25,13.75 19,13.5 M 19.5625,14.0625 19.75,14.25 19.8125,14.3125 19.875,14.375 19.75,14.25 Q 19.625,14.125 19.5,14 l -0.125,-0.125 0.1875,0.1875"
       id="path1561"
       inkscape:connector-curvature="0" />
    <path
       style="fill:#5d5d5d;fill-opacity:1"
       d="M 20.125,13.375 20,13 H 20.5 21 21.5 22 V 13.5 14 H 21.5 21 l -0.375,-0.125 q -0.375,-0.125 -0.5,-0.5"
       id="path1563"
       inkscape:connector-curvature="0" />
    <path
       style="fill:#404040;fill-opacity:1"
       d="M 22,13.5 V 13 h 0.5 0.5 v 0.5 q 0,0.5 0,1 0,0.5 0,1 0,0.5 -0.125,0.875 -0.125,0.375 -0.5,0.5 L 22,17 V 16.5 16 15.5 q 0,-0.5 0,-1 V 14 13.5"
       id="path1565"
       inkscape:connector-curvature="0" />
    <path
       style="fill:#9d9d9d;fill-opacity:1"
       d="M 9.875,14.375 Q 10,14 10.375,13.875 L 10.75,13.75 10.46875,13.84375 10.1875,13.9375 10.375,13.875 q 0.1875,-0.0625 0.34375,-0.15625 L 10.875,13.625 10.796875,13.671875 10.71875,13.71875 11,14 l 0.28125,0.28125 0.07813,-0.04687 0.07813,-0.04687 -0.15625,0.09375 Q 11.125,14.375 11,14.5 L 10.875,14.625 11.0625,14.4375 11.25,14.25 11,14.5 Q 10.75,14.75 10.5,15 L 10.25,15.25 10,15 Q 9.75,14.75 9.875,14.375 M 10.1875,15.3125 10.25,15.25 10.4375,15.0625 10.625,14.875 10.5,15 q -0.125,0.125 -0.25,0.25 l -0.125,0.125 0.0625,-0.0625"
       id="path1567"
       inkscape:connector-curvature="0" />
    <path
       style="fill:#474747;fill-opacity:1"
       d="m 11,14.5 q 0.25,-0.25 0.625,-0.375 L 12,14 11.875,14.375 Q 11.75,14.75 11.5,15 L 11.25,15.25 11.4375,15.0625 11.625,14.875 11.5,15 q -0.125,0.125 -0.1875,0.25 L 11.25,15.375 11.28125,15.3125 11.3125,15.25 11.03125,15 10.75,14.75 11,14.5 M 10.9375,14.5625 10.75,14.75 10.6875,14.8125 10.625,14.875 10.75,14.75 Q 10.875,14.625 11,14.5 l 0.125,-0.125 -0.1875,0.1875 M 12.09375,13.96875 12,14 11.71875,14.09375 11.4375,14.1875 11.625,14.125 Q 11.8125,14.0625 12,14 l 0.1875,-0.0625 -0.09375,0.03125"
       id="path1569"
       inkscape:connector-curvature="0" />
    <path
       style="fill:#000000;fill-opacity:0"
       d="m 13.125,14.625 q 0.125,-0.375 0.5,-0.5 Q 14,14 14.5,14 q 0.5,0 1,0 0.5,0 1,0 0.5,0 1,0 0.5,0 0.875,0.125 0.375,0.125 0.5,0.5 0.125,0.375 0.5,0.5 0.375,0.125 0.375,0.375 0,0.25 -0.375,0.375 -0.375,0.125 -0.5,0.5 -0.125,0.375 -0.5,0.5 Q 18,17 17.5,17 q -0.5,0 -1,0 -0.5,0 -1,0 -0.5,0 -1,0 -0.5,0 -0.875,-0.125 -0.375,-0.125 -0.5,-0.5 Q 13,16 12.625,15.875 12.25,15.75 12.25,15.5 q 0,-0.25 0.375,-0.375 0.375,-0.125 0.5,-0.5"
       id="path1571"
       inkscape:connector-curvature="0" />
    <path
       style="fill:#474747;fill-opacity:1"
       d="M 20,14.5 19.75,14.25 20.03125,13.96875 20.3125,13.6875 20.25,13.625 l -0.0625,-0.0625 0.125,0.125 q 0.125,0.125 0.3125,0.1875 L 20.8125,13.9375 20.53125,13.84375 20.25,13.75 20.625,13.875 21,14 21.125,14.375 Q 21.25,14.75 20.96875,15 L 20.6875,15.25 20.71875,15.3125 20.75,15.375 20.6875,15.25 Q 20.625,15.125 20.5,15 L 20.375,14.875 20.5625,15.0625 20.75,15.25 20.5,15 Q 20.25,14.75 20,14.5 M 19.6875,14.1875 19.75,14.25 19.9375,14.4375 20.125,14.625 20,14.5 q -0.125,-0.125 -0.25,-0.25 l -0.125,-0.125 0.0625,0.0625"
       id="path1573"
       inkscape:connector-curvature="0" />
    <path
       style="fill:#5b5b5b;fill-opacity:1"
       d="M 21.125,14.375 21,14 h 0.5 0.5 v 0.5 q 0,0.5 0,1 V 16 L 21.625,16.125 21.25,16.25 21.53125,16.15625 21.8125,16.0625 21.625,16.125 q -0.1875,0.0625 -0.3125,0.1875 l -0.125,0.125 L 21.25,16.375 21.3125,16.3125 21,16.03125 20.6875,15.75 20.65625,15.8125 20.625,15.875 20.6875,15.75 Q 20.75,15.625 20.75,15.5 V 15.375 15.5625 15.75 15.5 15.25 15.4375 15.625 15.5 q 0,-0.125 -0.0625,-0.25 L 20.625,15.125 20.65625,15.1875 20.6875,15.25 20.96875,15 Q 21.25,14.75 21.125,14.375"
       id="path1575"
       inkscape:connector-curvature="0" />
    <path
       style="fill:#676767;fill-opacity:1"
       d="M 10,15.5 Q 10.25,15.25 10.5,15 L 10.75,14.75 11.03125,15 11.3125,15.25 11.34375,15.1875 11.375,15.125 11.3125,15.25 Q 11.25,15.375 11.25,15.5 V 15.625 15.4375 15.25 15.5 15.75 15.5625 15.375 15.5 q 0,0.125 0.0625,0.25 l 0.0625,0.125 -0.03125,-0.0625 -0.03125,-0.0625 -0.296875,0.296875 -0.296875,0.296875 0.04687,0.04687 0.04687,0.04687 -0.09375,-0.09375 Q 10.625,16.25 10.5,16.25 H 10.375 10.5625 10.75 10.5 10.25 10.4375 10.625 10.5 q -0.125,0 -0.25,0.0625 L 10.125,16.375 10.1875,16.34375 10.25,16.3125 9.984375,16.015625 9.71875,15.71875 9.640625,15.765625 9.5625,15.8125 9.71875,15.71875 Q 9.875,15.625 10,15.5 L 10.125,15.375 9.9375,15.5625 9.75,15.75 10,15.5 M 10.8125,14.6875 10.75,14.75 10.5625,14.9375 10.375,15.125 10.5,15 q 0.125,-0.125 0.25,-0.25 l 0.125,-0.125 -0.0625,0.0625"
       id="path1577"
       inkscape:connector-curvature="0" />
    <path
       style="fill:#6b6b6b;fill-opacity:1"
       d="M 9,16.5 V 16 L 9.375,15.875 9.75,15.75 9.46875,15.84375 9.1875,15.9375 9.375,15.875 Q 9.5625,15.8125 9.71875,15.71875 L 9.875,15.625 9.796875,15.671875 9.71875,15.71875 9.984375,16.015625 10.25,16.3125 10.3125,16.28125 10.375,16.25 10.25,16.3125 Q 10.125,16.375 10,16.5 L 9.875,16.625 10.0625,16.4375 10.25,16.25 10,16.5 Q 9.75,16.75 9.375,16.875 L 9,17 v -0.5"
       id="path1579"
       inkscape:connector-curvature="0" />
    <path
       style="fill:#303030;fill-opacity:1"
       d="m 10,16.5 q 0.25,-0.25 0.5,-0.25 0.25,0 0.375,0.375 L 11,17 10.625,17.125 10.25,17.25 10.53125,17.15625 10.8125,17.0625 10.625,17.125 q -0.1875,0.0625 -0.28125,0.15625 L 10.25,17.375 10.296875,17.328125 10.34375,17.28125 10.03125,17 9.71875,16.71875 9.640625,16.765625 9.5625,16.8125 9.71875,16.71875 Q 9.875,16.625 10,16.5 L 10.125,16.375 9.9375,16.5625 9.75,16.75 10,16.5"
       id="path1581"
       inkscape:connector-curvature="0" />
    <path
       style="fill:#383838;fill-opacity:1"
       d="M 10.875,16.625 10.75,16.25 10.84375,16.53125 10.9375,16.8125 10.875,16.625 Q 10.8125,16.4375 10.71875,16.34375 L 10.625,16.25 l 0.04687,0.04687 0.04687,0.04687 0.296875,-0.296875 L 11.3125,15.75 11.28125,15.6875 11.25,15.625 11.3125,15.75 Q 11.375,15.875 11.5,16 L 11.625,16.125 11.4375,15.9375 11.25,15.75 11.5,16 q 0.25,0.25 0.5,0.5 l 0.25,0.25 -0.28125,0.28125 -0.28125,0.28125 0.0625,0.0625 0.0625,0.0625 -0.125,-0.125 Q 11.5625,17.1875 11.375,17.125 L 11.1875,17.0625 11.46875,17.15625 11.75,17.25 11.375,17.125 11,17 10.875,16.625 M 12.3125,16.8125 12.25,16.75 12.0625,16.5625 11.875,16.375 12,16.5 q 0.125,0.125 0.25,0.25 l 0.125,0.125 -0.0625,-0.0625"
       id="path1583"
       inkscape:connector-curvature="0" />
    <path
       style="fill:#404040;fill-opacity:1"
       d="M 20,16.5 Q 20.25,16.25 20.5,16 L 20.75,15.75 20.5625,15.9375 20.375,16.125 20.5,16 q 0.125,-0.125 0.1875,-0.25 L 20.75,15.625 20.71875,15.6875 20.6875,15.75 21,16.03125 21.3125,16.3125 21.375,16.25 l 0.0625,-0.0625 -0.125,0.125 q -0.125,0.125 -0.1875,0.3125 L 21.0625,16.8125 21.15625,16.53125 21.25,16.25 21.125,16.625 21,17 20.625,17.125 20.25,17.25 20.53125,17.15625 20.8125,17.0625 20.625,17.125 q -0.1875,0.0625 -0.3125,0.1875 l -0.125,0.125 L 20.25,17.375 20.3125,17.3125 20.03125,17.03125 19.75,16.75 20,16.5 M 19.9375,16.5625 19.75,16.75 19.6875,16.8125 19.625,16.875 19.75,16.75 Q 19.875,16.625 20,16.5 l 0.125,-0.125 -0.1875,0.1875"
       id="path1585"
       inkscape:connector-curvature="0" />
    <path
       style="fill:#3b3b3b;fill-opacity:1"
       d="m 21.125,16.625 q 0.125,-0.375 0.5,-0.5 L 22,16 V 16.5 17 H 21.5 21 l 0.125,-0.375"
       id="path1587"
       inkscape:connector-curvature="0" />
    <path
       style="fill:#505050;fill-opacity:1"
       d="M 9.125,17.375 9,17 9.375,16.875 9.75,16.75 9.46875,16.84375 9.1875,16.9375 9.375,16.875 Q 9.5625,16.8125 9.71875,16.71875 L 9.875,16.625 9.796875,16.671875 9.71875,16.71875 10.03125,17 l 0.3125,0.28125 0.04687,-0.04687 0.04687,-0.04687 -0.09375,0.09375 Q 10.25,17.375 10.25,17.5 V 17.625 17.4375 17.25 17.5 17.75 17.5625 17.375 17.5 q 0,0.125 0.09375,0.21875 L 10.4375,17.8125 10.390625,17.765625 10.34375,17.71875 10.03125,18 9.71875,18.28125 9.765625,18.359375 9.8125,18.4375 9.71875,18.28125 Q 9.625,18.125 9.5,18 L 9.375,17.875 9.5625,18.0625 9.75,18.25 9.5,18 Q 9.25,17.75 9.125,17.375"
       id="path1589"
       inkscape:connector-curvature="0" />
    <path
       style="fill:#343434;fill-opacity:1"
       d="m 10.25,17.5 q 0,-0.25 0.375,-0.375 L 11,17 V 17.5 18 L 10.625,17.875 Q 10.25,17.75 10.25,17.5"
       id="path1591"
       inkscape:connector-curvature="0" />
    <path
       style="fill:#474747;fill-opacity:1"
       d="M 11,17.5 V 17 l 0.375,0.125 q 0.375,0.125 0.5,0.5 L 12,18 H 11.5 11 v -0.5"
       id="path1593"
       inkscape:connector-curvature="0" />
    <path
       style="fill:#484848;fill-opacity:1"
       d="M 11.875,17.625 11.75,17.25 11.84375,17.53125 11.9375,17.8125 11.875,17.625 q -0.0625,-0.1875 -0.1875,-0.3125 l -0.125,-0.125 0.0625,0.0625 0.0625,0.0625 0.28125,-0.28125 L 12.25,16.75 12.5,17 q 0.25,0.25 0.5,0.5 L 13.25,17.75 13.0625,17.5625 12.875,17.375 13,17.5 q 0.125,0.125 0.28125,0.21875 l 0.15625,0.09375 -0.07813,-0.04687 -0.07813,-0.04687 -0.296875,0.296875 -0.296875,0.296875 0.0625,0.0625 0.0625,0.0625 -0.125,-0.125 Q 12.5625,18.1875 12.375,18.125 L 12.1875,18.0625 12.46875,18.15625 12.75,18.25 12.375,18.125 12,18 11.875,17.625 M 12.4375,16.9375 12.25,16.75 12.1875,16.6875 12.125,16.625 12.25,16.75 q 0.125,0.125 0.25,0.25 l 0.125,0.125 -0.1875,-0.1875"
       id="path1595"
       inkscape:connector-curvature="0" />
    <path
       style="fill:#4f4f4f;fill-opacity:1"
       d="m 19,17.5 q 0.25,-0.25 0.5,-0.5 l 0.25,-0.25 0.28125,0.28125 0.28125,0.28125 0.0625,-0.0625 0.0625,-0.0625 -0.125,0.125 q -0.125,0.125 -0.1875,0.3125 L 20.0625,17.8125 20.15625,17.53125 20.25,17.25 20.125,17.625 20,18 19.625,18.125 19.25,18.25 19.53125,18.15625 19.8125,18.0625 19.625,18.125 q -0.1875,0.0625 -0.3125,0.1875 l -0.125,0.125 0.0625,-0.0625 0.0625,-0.0625 -0.296875,-0.296875 -0.296875,-0.296875 -0.07813,0.04687 -0.07813,0.04687 0.15625,-0.09375 Q 18.875,17.625 19,17.5 L 19.125,17.375 18.9375,17.5625 18.75,17.75 19,17.5 M 19.8125,16.6875 19.75,16.75 19.5625,16.9375 19.375,17.125 19.5,17 q 0.125,-0.125 0.25,-0.25 l 0.125,-0.125 -0.0625,0.0625"
       id="path1597"
       inkscape:connector-curvature="0" />
    <path
       style="fill:#525252;fill-opacity:1"
       d="m 20.125,17.625 q 0.125,-0.375 0.5,-0.5 L 21,17 V 17.5 18 H 20.5 20 l 0.125,-0.375"
       id="path1599"
       inkscape:connector-curvature="0" />
    <path
       style="fill:#3f3f3f;fill-opacity:1"
       d="M 21,17.5 V 17 h 0.5 0.5 l -0.125,0.375 q -0.125,0.375 -0.5,0.5 L 21,18 v -0.5"
       id="path1601"
       inkscape:connector-curvature="0" />
    <path
       style="fill:#2d2d2d;fill-opacity:1"
       d="M 21.875,17.375 22,17 22.375,16.875 22.75,16.75 22.46875,16.84375 22.1875,16.9375 22.375,16.875 q 0.1875,-0.0625 0.3125,-0.1875 l 0.125,-0.125 -0.0625,0.0625 -0.0625,0.0625 0.28125,0.28125 Q 23.25,17.25 23.125,17.625 L 23,18 22.625,18.125 22.25,18.25 22.53125,18.15625 22.8125,18.0625 22.625,18.125 q -0.1875,0.0625 -0.3125,0.1875 l -0.125,0.125 L 22.25,18.375 22.3125,18.3125 22,18 21.6875,17.6875 21.625,17.75 l -0.0625,0.0625 0.125,-0.125 q 0.125,-0.125 0.1875,-0.3125 L 21.9375,17.1875 21.84375,17.46875 21.75,17.75 21.875,17.375"
       id="path1603"
       inkscape:connector-curvature="0" />
    <path
       style="fill:#303030;fill-opacity:1"
       d="M 9.875,18.625 9.75,18.25 9.84375,18.53125 9.9375,18.8125 9.875,18.625 Q 9.8125,18.4375 9.71875,18.28125 L 9.625,18.125 9.671875,18.203125 9.71875,18.28125 10.03125,18 10.34375,17.71875 10.296875,17.671875 10.25,17.625 10.34375,17.71875 Q 10.4375,17.8125 10.625,17.875 L 10.8125,17.9375 10.53125,17.84375 10.25,17.75 10.625,17.875 11,18 11.125,18.375 11.25,18.75 11.15625,18.46875 11.0625,18.1875 11.125,18.375 q 0.0625,0.1875 0.15625,0.34375 L 11.375,18.875 11.32813,18.79687 11.28126,18.71874 11.015635,18.984365 Q 10.75,19.25 10.375,19.125 L 10,19 9.875,18.625"
       id="path1605"
       inkscape:connector-curvature="0" />
    <path
       style="fill:#4e4e4e;fill-opacity:1"
       d="M 11.125,18.375 11,18 h 0.5 0.5 l 0.125,0.375 0.125,0.375 -0.09375,-0.28125 -0.09375,-0.28125 0.0625,0.1875 q 0.0625,0.1875 0.1875,0.3125 l 0.125,0.125 L 12.375,18.75 12.3125,18.6875 12.03125,18.96875 11.75,19.25 11.5,19 Q 11.25,18.75 11.125,18.375 M 11.5625,19.0625 11.75,19.25 11.8125,19.3125 11.875,19.375 11.75,19.25 Q 11.625,19.125 11.5,19 l -0.125,-0.125 0.1875,0.1875"
       id="path1607"
       inkscape:connector-curvature="0" />
    <path
       style="fill:#5f5f5f;fill-opacity:1"
       d="M 12.125,18.375 12,18 l 0.375,0.125 q 0.375,0.125 0.5,0.5 L 13,19 12.625,18.875 q -0.375,-0.125 -0.5,-0.5"
       id="path1609"
       inkscape:connector-curvature="0" />
    <path
       style="fill:#565656;fill-opacity:1"
       d="M 12.875,18.625 12.75,18.25 12.84375,18.53125 12.9375,18.8125 12.875,18.625 q -0.0625,-0.1875 -0.1875,-0.3125 l -0.125,-0.125 0.0625,0.0625 0.0625,0.0625 0.296875,-0.296875 L 13.28125,17.71875 13.20312,17.67188 13.125,17.625 13.28125,17.71875 Q 13.4375,17.8125 13.625,17.875 L 13.8125,17.9375 13.53125,17.84375 13.25,17.75 13.625,17.875 14,18 V 18.5 19 H 13.5 13 l -0.125,-0.375"
       id="path1611"
       inkscape:connector-curvature="0" />
    <path
       style="fill:#5d5d5d;fill-opacity:1"
       d="M 14,18.5 V 18 H 14.5 15 V 18.5 19 H 14.5 14 v -0.5"
       id="path1613"
       inkscape:connector-curvature="0" />
    <path
       style="fill:#606060;fill-opacity:1"
       d="M 15,18.5 V 18 H 15.5 16 V 18.5 19 H 15.5 15 v -0.5"
       id="path1615"
       inkscape:connector-curvature="0" />
    <path
       style="fill:#616161;fill-opacity:1"
       d="M 16,18.5 V 18 H 16.5 17 V 18.5 19 H 16.5 16 v -0.5"
       id="path1617"
       inkscape:connector-curvature="0" />
    <path
       style="fill:#5f5f5f;fill-opacity:1"
       d="M 17,18.5 V 18 H 17.5 18 V 18.5 19 H 17.5 17 v -0.5"
       id="path1619"
       inkscape:connector-curvature="0" />
    <path
       style="fill:#5b5b5b;fill-opacity:1"
       d="M 18,18.5 V 18 L 18.375,17.875 18.75,17.75 18.46875,17.84375 18.1875,17.9375 18.375,17.875 q 0.1875,-0.0625 0.34375,-0.15625 L 18.875,17.625 l -0.07813,0.04687 -0.07813,0.04687 0.296875,0.296875 0.296875,0.296875 0.0625,-0.0625 0.0625,-0.0625 -0.125,0.125 q -0.125,0.125 -0.1875,0.3125 L 19.0625,18.8125 19.15625,18.53125 19.25,18.25 19.125,18.625 19,19 H 18.5 18 v -0.5"
       id="path1621"
       inkscape:connector-curvature="0" />
    <path
       style="fill:#676767;fill-opacity:1"
       d="m 19.125,18.625 q 0.125,-0.375 0.5,-0.5 L 20,18 19.875,18.375 q -0.125,0.375 -0.5,0.5 L 19,19 19.125,18.625"
       id="path1623"
       inkscape:connector-curvature="0" />
    <path
       style="fill:#585858;fill-opacity:1"
       d="M 19.875,18.375 20,18 h 0.5 0.5 l -0.125,0.375 Q 20.75,18.75 20.5,19 L 20.25,19.25 19.96875,18.96875 19.6875,18.6875 19.625,18.75 l -0.0625,0.0625 0.125,-0.125 q 0.125,-0.125 0.1875,-0.3125 L 19.9375,18.1875 19.84375,18.46875 19.75,18.75 19.875,18.375 M 20.1875,19.3125 20.25,19.25 20.4375,19.0625 20.625,18.875 20.5,19 q -0.125,0.125 -0.25,0.25 l -0.125,0.125 0.0625,-0.0625"
       id="path1625"
       inkscape:connector-curvature="0" />
    <path
       style="fill:#303030;fill-opacity:1"
       d="M 20.875,18.375 21,18 21.375,17.875 21.75,17.75 21.46875,17.84375 21.1875,17.9375 21.375,17.875 q 0.1875,-0.0625 0.3125,-0.1875 l 0.125,-0.125 L 21.75,17.625 21.6875,17.6875 22,18 l 0.3125,0.3125 0.0625,-0.0625 0.0625,-0.0625 -0.125,0.125 q -0.125,0.125 -0.1875,0.3125 L 22.0625,18.8125 22.15625,18.53125 22.25,18.25 22.125,18.625 22,19 21.625,19.125 Q 21.25,19.25 20.984375,18.984375 L 20.71875,18.71875 20.671875,18.796875 20.625,18.875 20.71875,18.71875 Q 20.8125,18.5625 20.875,18.375 L 20.9375,18.1875 20.84375,18.46875 20.75,18.75 20.875,18.375"
       id="path1627"
       inkscape:connector-curvature="0" />
    <path
       style="fill:#000000;fill-opacity:1"
       d="m 22.125,18.625 q 0.125,-0.375 0.5,-0.5 L 23,18 v 0.5 Q 23,19 22.5,19 H 22 l 0.125,-0.375"
       id="path1629"
       inkscape:connector-curvature="0" />
    <path
       style="fill:#000000;fill-opacity:1"
       d="M 10,19.5 V 19 l 0.375,0.125 q 0.375,0.125 0.640625,-0.140625 l 0.265625,-0.265625 -0.04687,-0.07813 -0.04687,-0.07813 0.09375,0.15625 Q 11.375,18.875 11.5,19 L 11.625,19.125 11.4375,18.9375 11.25,18.75 11.5,19 q 0.25,0.25 0.5,0.5 0.25,0.25 0.625,0.375 L 13,20 h 0.5 0.5 0.5 0.5 0.5 0.5 0.5 0.5 0.5 0.5 0.5 0.5 l 0.375,-0.125 Q 19.75,19.75 20,19.5 20.25,19.25 20.5,19 L 20.75,18.75 20.5625,18.9375 20.375,19.125 20.5,19 q 0.125,-0.125 0.21875,-0.28125 l 0.09375,-0.15625 -0.04687,0.07813 -0.04687,0.07813 0.265625,0.265625 Q 21.25,19.25 21.625,19.125 L 22,19 v 0.5 Q 22,20 21.5,20 H 21 l -0.375,0.125 q -0.375,0.125 -0.5,0.5 Q 20,21 20.5,21 h 0.5 0.5 q 0.5,0 1,0 H 23 V 21.5 22 H 22.5 22 21.5 Q 21,22 21,22.5 V 23 h -0.5 q -0.5,0 -1,0 -0.5,0 -1,0 -0.5,0 -1,0 -0.5,0 -1,0 -0.5,0 -1,0 -0.5,0 -1,0 -0.5,0 -1,0 -0.5,0 -1,0 -0.5,0 -1,0 H 11 V 22.5 Q 11,22 10.5,22 H 10 9.5 9 V 21.5 21 h 0.5 q 0.5,0 1,0 h 0.5 0.5 q 0.5,0 0.375,-0.375 -0.125,-0.375 -0.5,-0.5 L 11,20 H 10.5 Q 10,20 10,19.5"
       id="path1631"
       inkscape:connector-curvature="0" />
    <path
       style="fill:#5a5a5a;fill-opacity:1"
       d="M 12,19.5 11.75,19.25 12.03125,18.96875 12.3125,18.6875 12.25,18.625 l -0.0625,-0.0625 0.125,0.125 q 0.125,0.125 0.3125,0.1875 L 12.8125,18.9375 12.53125,18.84375 12.25,18.75 12.625,18.875 13,19 V 19.5 20 L 12.625,19.875 Q 12.25,19.75 12,19.5 M 11.6875,19.1875 11.75,19.25 11.9375,19.4375 12.125,19.625 12,19.5 q -0.125,-0.125 -0.25,-0.25 l -0.125,-0.125 0.0625,0.0625"
       id="path1633"
       inkscape:connector-curvature="0" />
    <path
       style="fill:#707070;fill-opacity:1"
       d="M 13,19.5 V 19 H 13.5 14 V 19.5 20 H 13.5 13 v -0.5"
       id="path1635"
       inkscape:connector-curvature="0" />
    <path
       style="fill:#777777;fill-opacity:1"
       d="M 14,19.5 V 19 H 14.5 15 V 19.5 20 H 14.5 14 v -0.5"
       id="path1637"
       inkscape:connector-curvature="0" />
    <path
       style="fill:#7b7b7b;fill-opacity:1"
       d="M 15,19.5 V 19 H 15.5 16 V 19.5 20 H 15.5 15 v -0.5"
       id="path1639"
       inkscape:connector-curvature="0" />
    <path
       style="fill:#7c7c7c;fill-opacity:1"
       d="M 16,19.5 V 19 H 16.5 17 V 19.5 20 H 16.5 16 v -0.5"
       id="path1641"
       inkscape:connector-curvature="0" />
    <path
       style="fill:#7a7a7a;fill-opacity:1"
       d="M 17,19.5 V 19 H 17.5 18 V 19.5 20 H 17.5 17 v -0.5"
       id="path1643"
       inkscape:connector-curvature="0" />
    <path
       style="fill:#747474;fill-opacity:1"
       d="M 18,19.5 V 19 H 18.5 19 V 19.5 20 H 18.5 18 v -0.5"
       id="path1645"
       inkscape:connector-curvature="0" />
    <path
       style="fill:#5a5a5a;fill-opacity:1"
       d="M 19,19.5 V 19 L 19.375,18.875 19.75,18.75 19.46875,18.84375 19.1875,18.9375 19.375,18.875 q 0.1875,-0.0625 0.3125,-0.1875 l 0.125,-0.125 -0.0625,0.0625 -0.0625,0.0625 0.28125,0.28125 L 20.25,19.25 20,19.5 q -0.25,0.25 -0.625,0.375 L 19,20 V 19.5 M 20.0625,19.4375 20.25,19.25 20.3125,19.1875 20.375,19.125 20.25,19.25 Q 20.125,19.375 20,19.5 l -0.125,0.125 0.1875,-0.1875"
       id="path1647"
       inkscape:connector-curvature="0" />
    <path
       style="fill:#000000;fill-opacity:0.49803922"
       d="M 11,20.5 V 20 l 0.375,0.125 q 0.375,0.125 0.5,0.5 Q 12,21 11.5,21 H 11 v -0.5"
       id="path1649"
       inkscape:connector-curvature="0" />
    <path
       style="fill:#000000;fill-opacity:0.49803922"
       d="m 20.125,20.625 q 0.125,-0.375 0.5,-0.5 L 21,20 V 20.5 21 H 20.5 Q 20,21 20.125,20.625"
       id="path1651"
       inkscape:connector-curvature="0" />
    <path
       style="fill:#000000;fill-opacity:0.49803922"
       d="M 8,21.5 Q 8,21 8.5,21 H 9 V 21.5 22 H 8.5 Q 8,22 8,21.5"
       id="path1653"
       inkscape:connector-curvature="0" />
    <path
       style="fill:#000000;fill-opacity:0.49803922"
       d="M 23,21.5 V 21 h 0.5 Q 24,21 24,21.5 24,22 23.5,22 H 23 v -0.5"
       id="path1655"
       inkscape:connector-curvature="0" />
    <path
       style="fill:#000000;fill-opacity:0.49803922"
       d="M 10,22.5 V 22 h 0.5 Q 11,22 11,22.5 V 23 H 10.5 Q 10,23 10,22.5"
       id="path1657"
       inkscape:connector-curvature="0" />
    <path
       style="fill:#000000;fill-opacity:0.49803922"
       d="M 21,22.5 Q 21,22 21.5,22 H 22 v 0.5 Q 22,23 21.5,23 H 21 v -0.5"
       id="path1659"
       inkscape:connector-curvature="0" />
  </g>
</svg>
