<?xml version="1.0" encoding="UTF-8" standalone="no"?>
<!-- Created with Inkscape (http://www.inkscape.org/) -->

<svg
   xmlns:dc="http://purl.org/dc/elements/1.1/"
   xmlns:cc="http://creativecommons.org/ns#"
   xmlns:rdf="http://www.w3.org/1999/02/22-rdf-syntax-ns#"
   xmlns:svg="http://www.w3.org/2000/svg"
   xmlns="http://www.w3.org/2000/svg"
   xmlns:sodipodi="http://sodipodi.sourceforge.net/DTD/sodipodi-0.dtd"
   xmlns:inkscape="http://www.inkscape.org/namespaces/inkscape"
   version="1.1"
   id="svg1871"
   width="32"
   height="32"
   viewBox="0 0 32 32"
   sodipodi:docname="ared.svg"
   inkscape:version="0.92.5 (2060ec1f9f, 2020-04-08)">
  <metadata
     id="metadata1877">
    <rdf:RDF>
      <cc:Work
         rdf:about="">
        <dc:format>image/svg+xml</dc:format>
        <dc:type
           rdf:resource="http://purl.org/dc/dcmitype/StillImage" />
        <dc:title></dc:title>
      </cc:Work>
    </rdf:RDF>
  </metadata>
  <defs
     id="defs1875" />
  <sodipodi:namedview
     pagecolor="#ffffff"
     bordercolor="#666666"
     borderopacity="1"
     objecttolerance="10"
     gridtolerance="10"
     guidetolerance="10"
     inkscape:pageopacity="0"
     inkscape:pageshadow="2"
     inkscape:window-width="1920"
     inkscape:window-height="1118"
     id="namedview1873"
     showgrid="false"
     inkscape:zoom="7.375"
     inkscape:cx="16"
     inkscape:cy="16"
     inkscape:window-x="0"
     inkscape:window-y="24"
     inkscape:window-maximized="1"
     inkscape:current-layer="svg1871" />
  <g
     transform="translate(0 0)"
     id="g2093">
    <path
       style="fill:#000000;fill-opacity:0"
       d="M 0,0.5 V 0 H 0.5 1 1.5 2 2.5 3 3.5 4 4.5 5 5.5 6 6.5 7 7.5 8 8.5 9 9.5 10 10.5 11 11.5 12 12.5 13 13.5 14 14.5 15 15.5 16 16.5 17 17.5 18 18.5 19 19.5 20 20.5 21 21.5 22 22.5 23 23.5 24 24.5 25 25.5 26 26.5 27 27.5 28 28.5 29 29.5 30 30.5 31 31.5 32 V 0.5 1 1.5 2 2.5 3 3.5 4 4.5 5 5.5 6 6.5 7 7.5 8 8.5 9 9.5 10 10.5 11 11.5 12 12.5 13 13.5 14 14.5 15 15.5 16 16.5 17 17.5 18 18.5 19 19.5 20 20.5 21 21.5 22 22.5 23 23.5 24 24.5 25 25.5 26 26.5 27 27.5 28 28.5 29 29.5 30 30.5 31 31.5 32 H 31.5 31 30.5 30 29.5 29 28.5 28 V 31.5 Q 28,31 28.5,31 29,31 29,30.5 29,30 29.5,30 30,30 30,29.5 30,29 30.5,29 31,29 31,28.5 q 0,-0.5 0,-1 0,-0.5 0,-1 0,-0.5 0,-1 Q 31,25 30.5,25 30,25 30,24.5 30,24 29.5,24 29,24 29,23.5 29,23 28.5,23 q -0.5,0 -1,0 -0.5,0 -0.375,-0.375 0.125,-0.375 0.5,-0.5 Q 28,22 28,21.5 q 0,-0.5 0,-1 0,-0.5 0.125,-0.875 0.125,-0.375 0.5,-0.5 Q 29,19 29,18.5 q 0,-0.5 0.125,-0.875 0.125,-0.375 0.5,-0.5 0.375,-0.125 0.5,-0.5 0.125,-0.375 0.5,-0.5 Q 31,16 31,15.5 q 0,-0.5 0,-1 0,-0.5 0,-1 0,-0.5 0,-1 0,-0.5 0,-1 0,-0.5 -0.375,-0.625 -0.375,-0.125 -0.5,-0.5 Q 30,10 30,9.5 30,9 30,8.5 30,8 29.625,7.875 29.25,7.75 29.125,7.375 29,7 29,6.5 29,6 29,5.5 29,5 28.625,4.875 28.25,4.75 28.125,4.375 28,4 27.625,3.875 27.25,3.75 27.125,3.375 27,3 26.5,3 26,3 25.875,3.375 25.75,3.75 25.375,3.875 25,4 25,4.5 25,5 25.375,5.125 25.75,5.25 25.75,5.5 25.75,5.75 25.375,5.875 25,6 25,6.5 25,7 24.875,7.375 24.75,7.75 24.375,7.875 24,8 23.875,8.375 23.75,8.75 23.375,8.875 23,9 22.875,9.375 22.75,9.75 22.375,9.875 22,10 21.875,10.375 21.75,10.75 21.5,10.75 21.25,10.75 21.125,10.375 21,10 21.125,9.625 21.25,9.25 21.625,9.125 22,9 22.125,8.625 22.25,8.25 22.625,8.125 23,8 23.125,7.625 23.25,7.25 23.625,7.125 24,7 24,6.5 24,6 23.625,5.875 23.25,5.75 23.125,5.375 23,5 22.625,4.875 22.25,4.75 22.125,4.375 22,4 21.625,3.875 21.25,3.75 21.125,3.375 21,3 20.5,3 20,3 19.875,3.375 19.75,3.75 19.375,3.875 19,4 19,4.5 19,5 19,5.5 19,6 19.375,6.125 19.75,6.25 19.75,6.5 19.75,6.75 19.375,6.875 19,7 18.5,7 18,7 17.5,7 17,7 16.5,7 16,7 15.5,7 15,7 14.5,7 14,7 14,6.5 14,6 14,5.5 14,5 14,4.5 14,4 13.625,3.875 13.25,3.75 13.125,3.375 13,3 12.5,3 12,3 11.875,3.375 11.75,3.75 11.375,3.875 11,4 11,4.5 11,5 10.875,5.375 10.75,5.75 10.375,5.875 10,6 10,6.5 10,7 10,7.5 10,8 9.875,8.375 9.75,8.75 9.375,8.875 9,9 9,9.5 q 0,0.5 0,1 0,0.5 0,1 0,0.5 0,1 0,0.5 0,1 Q 9,14 8.625,13.875 8.25,13.75 8.125,13.375 8,13 7.625,12.875 7.25,12.75 7.125,12.375 7,12 6.5,12 6,12 5.5,12 5,12 4.875,12.375 4.75,12.75 4.375,12.875 4,13 4,13.5 q 0,0.5 0,1 0,0.5 0,1 0,0.5 0.375,0.625 0.375,0.125 0.5,0.5 Q 5,17 5.5,17 6,17 6.375,17.125 6.75,17.25 6.875,17.625 7,18 7.5,18 q 0.5,0 1,0 0.5,0 1,0 0.5,0 0.5,0.5 0,0.5 0,1 0,0.5 0.375,0.625 0.375,0.125 0.5,0.5 0.125,0.375 0.5,0.5 0.375,0.125 0.375,0.375 0,0.25 -0.375,0.375 Q 11,22 11,22.5 q 0,0.5 0,1 0,0.5 0.375,0.625 0.375,0.125 0.5,0.5 0.125,0.375 0.5,0.5 0.375,0.125 0.5,0.5 0.125,0.375 0,0.75 -0.125,0.375 -0.5,0.5 Q 12,27 12,27.5 q 0,0.5 -0.125,0.875 -0.125,0.375 -0.5,0.5 Q 11,29 11,29.5 q 0,0.5 0,1 0,0.5 0.375,0.625 0.375,0.125 0.5,0.5 L 12,32 H 11.5 11 10.5 10 9.5 9 8.5 8 7.5 7 6.5 6 5.5 5 4.5 4 3.5 3 2.5 2 1.5 1 0.5 0 V 31.5 31 30.5 30 29.5 29 28.5 28 27.5 27 26.5 26 25.5 25 24.5 24 23.5 23 22.5 22 21.5 21 20.5 20 19.5 19 18.5 18 17.5 17 16.5 16 15.5 15 14.5 14 13.5 13 12.5 12 11.5 11 10.5 10 9.5 9 8.5 8 7.5 7 6.5 6 5.5 5 4.5 4 3.5 3 2.5 2 1.5 1 0.5"
       id="path1881" />
    <path
       style="fill:#000000;fill-opacity:1"
       d="M 11.875,3.375 Q 12,3 12.5,3 13,3 13.125,3.375 13.25,3.75 13.625,3.875 14,4 14,4.5 q 0,0.5 0,1 0,0.5 0,1 0,0.5 0.5,0.5 0.5,0 1,0 0.5,0 1,0 0.5,0 1,0 0.5,0 1,0 Q 19,7 19.375,6.875 19.75,6.75 19.75,6.5 19.75,6.25 19.375,6.125 19,6 19,5.5 19,5 19,4.5 19,4 19.375,3.875 19.75,3.75 19.875,3.375 20,3 20.5,3 q 0.5,0 0.625,0.375 0.125,0.375 0.5,0.5 0.375,0.125 0.5,0.5 0.125,0.375 0.5,0.5 0.375,0.125 0.5,0.5 0.125,0.375 0.5,0.5 Q 24,6 24,6.5 24,7 23.625,7.125 23.25,7.25 23.125,7.625 23,8 22.625,8.125 22.25,8.25 22.125,8.625 22,9 21.625,9.125 q -0.375,0.125 -0.5,0.5 -0.125,0.375 0,0.75 0.125,0.375 0.375,0.375 0.25,0 0.375,-0.375 Q 22,10 22.375,9.875 22.75,9.75 22.875,9.375 23,9 23.375,8.875 23.75,8.75 23.875,8.375 24,8 24.375,7.875 24.75,7.75 24.875,7.375 25,7 25,6.5 25,6 25.375,5.875 25.75,5.75 25.75,5.5 25.75,5.25 25.375,5.125 25,5 25,4.5 25,4 25.375,3.875 25.75,3.75 25.875,3.375 26,3 26.5,3 q 0.5,0 0.625,0.375 0.125,0.375 0.5,0.5 0.375,0.125 0.5,0.5 0.125,0.375 0.5,0.5 Q 29,5 29,5.5 q 0,0.5 0,1 0,0.5 0.125,0.875 0.125,0.375 0.5,0.5 Q 30,8 30,8.5 q 0,0.5 0,1 0,0.5 0.125,0.875 0.125,0.375 0.5,0.5 Q 31,11 31,11.5 q 0,0.5 0,1 0,0.5 0,1 0,0.5 0,1 0,0.5 0,1 0,0.5 -0.375,0.625 -0.375,0.125 -0.5,0.5 -0.125,0.375 -0.5,0.5 -0.375,0.125 -0.5,0.5 Q 29,18 29,18.5 q 0,0.5 -0.375,0.625 -0.375,0.125 -0.5,0.5 Q 28,20 28,20.5 q 0,0.5 0,1 0,0.5 -0.375,0.625 -0.375,0.125 -0.5,0.5 Q 27,23 27.5,23 q 0.5,0 1,0 0.5,0 0.5,0.5 0,0.5 0.5,0.5 0.5,0 0.5,0.5 0,0.5 0.5,0.5 0.5,0 0.5,0.5 0,0.5 0,1 0,0.5 0,1 0,0.5 0,1 Q 31,29 30.5,29 30,29 30,29.5 30,30 29.5,30 29,30 29,30.5 29,31 28.5,31 28,31 28,31.5 V 32 H 27.5 27 26.5 26 25.5 25 24.5 24 23.5 23 22.5 22 21.5 21 20.5 20 L 19.875,31.625 Q 19.75,31.25 19.375,31.125 19,31 19,30.5 19,30 19,29.5 19,29 18.5,29 18,29 18,29.5 18,30 17.5,30 17,30 17,30.5 q 0,0.5 -0.375,0.625 -0.375,0.125 -0.5,0.5 L 16,32 H 15.5 15 14.5 14 13.5 13 12.5 12 L 11.875,31.625 Q 11.75,31.25 11.375,31.125 11,31 11,30.5 q 0,-0.5 0,-1 0,-0.5 0.375,-0.625 0.375,-0.125 0.5,-0.5 Q 12,28 12,27.5 q 0,-0.5 0.375,-0.625 0.375,-0.125 0.5,-0.5 0.125,-0.375 0,-0.75 -0.125,-0.375 -0.5,-0.5 Q 12,25 11.875,24.625 11.75,24.25 11.375,24.125 11,24 11,23.5 11,23 11,22.5 11,22 11.375,21.875 11.75,21.75 11.75,21.5 11.75,21.25 11.375,21.125 11,21 10.875,20.625 10.75,20.25 10.375,20.125 10,20 10,19.5 10,19 10,18.5 10,18 9.5,18 9,18 8.5,18 8,18 7.5,18 7,18 6.875,17.625 6.75,17.25 6.375,17.125 6,17 5.5,17 5,17 4.875,16.625 4.75,16.25 4.375,16.125 4,16 4,15.5 4,15 4,14.5 4,14 4,13.5 4,13 4.375,12.875 4.75,12.75 4.875,12.375 5,12 5.5,12 q 0.5,0 1,0 0.5,0 0.625,0.375 0.125,0.375 0.5,0.5 0.375,0.125 0.5,0.5 0.125,0.375 0.5,0.5 Q 9,14 9,13.5 9,13 9,12.5 9,12 9,11.5 9,11 9,10.5 9,10 9,9.5 9,9 9.375,8.875 9.75,8.75 9.875,8.375 10,8 10,7.5 10,7 10,6.5 10,6 10.375,5.875 10.75,5.75 10.875,5.375 11,5 11,4.5 11,4 11.375,3.875 11.75,3.75 11.875,3.375 M 22.9375,30.8125 22.875,30.875 23.3125,30.8125 Q 23.75,30.75 24,30.5 24.25,30.25 24.5,30 24.75,29.75 24.875,29.375 25,29 25,28.5 25,28 24.875,27.625 24.75,27.25 24.375,27.125 L 24,27 v -0.5 q 0,-0.5 0,-1 0,-0.5 -0.125,-0.875 -0.125,-0.375 -0.5,-0.5 Q 23,24 22.5,24 H 22 V 23.5 Q 22,23 22,22.5 22,22 22.125,21.625 22.25,21.25 22.5,21 22.75,20.75 23,20.5 23.25,20.25 23.5,20 23.75,19.75 24,19.5 24.25,19.25 24.5,19 24.75,18.75 24.875,18.375 25,18 25,17.5 25,17 25.125,16.625 25.25,16.25 25.609375,16.140625 L 25.96875,16.03125 25.953125,15.921875 25.9375,15.8125 25.96875,16.03125 Q 26,16.25 26,16.5 V 16.75 16.375 16 16.5 q 0,0.5 0,1 0,0.5 -0.125,0.875 Q 25.75,18.75 25.5,19 q -0.25,0.25 -0.25,0.5 0,0.25 0.390625,0.390625 l 0.390625,0.140625 0.01563,-0.109375 0.01563,-0.109375 -0.03125,0.21875 Q 26,20.25 26,20.5 V 20.75 20.375 20 l 0.0625,0.5625 0.0625,0.5625 0.0625,-0.0625 L 26.25,21 26.125,21.125 Q 26,21.25 26,21.5 V 21.75 21.375 21 l 0.125,0.375 q 0.125,0.375 0.375,0.375 0.25,0 0.375,-0.375 L 27,21 v 0.375 0.375 -0.25 q 0,-0.25 -0.125,-0.375 L 26.75,21 l 0.0625,0.0625 0.0625,0.0625 0.0625,-0.5625 Q 27,20 27.125,19.625 27.25,19.25 27.5,19 27.75,18.75 27.875,18.375 28,18 28.125,17.625 28.25,17.25 28.5,17 28.75,16.75 29,16.5 29.25,16.25 29.5,16 29.75,15.75 29.875,15.375 30,15 30,14.5 30,14 30,13.5 30,13 30,12.5 30,12 29.875,11.625 29.75,11.25 29.5,11 29.25,10.75 29.125,10.375 29,10 29,9.5 29,9 28.875,8.625 28.75,8.25 28.375,8.125 L 28,8 V 7.5 Q 28,7 28,6.5 28,6 27.875,5.625 27.75,5.25 27.5,5 27.25,4.75 27,4.5 26.75,4.25 26.5,4.25 q -0.25,0 -0.25,0.25 0,0.25 0.25,0.5 0.25,0.25 0.375,0.625 L 27,6 26.625,6.125 Q 26.25,6.25 26.125,6.625 26,7 26,7.5 V 8 L 25.625,8.125 Q 25.25,8.25 25,8.5 24.75,8.75 24.5,9 24.25,9.25 24.125,9.625 L 24,10 23.625,10.125 q -0.375,0.125 -0.5,0.5 L 23,11 22.625,11.125 Q 22.25,11.25 22.25,11.5 q 0,0.25 0.375,0.375 Q 23,12 23.375,12.125 23.75,12.25 24,12.5 24.25,12.75 24.625,12.875 25,13 25,13.5 q 0,0.5 0,1 0,0.5 -0.125,0.875 -0.125,0.375 -0.5,0.5 L 24,16 v -0.5 q 0,-0.5 0,-1 0,-0.5 -0.125,-0.875 -0.125,-0.375 -0.5,-0.5 Q 23,13 22.625,12.875 22.25,12.75 22,12.5 21.75,12.25 21.375,12.125 L 21,12 20.875,11.625 Q 20.75,11.25 20.375,11.125 20,11 19.625,10.875 19.25,10.75 19.25,10.5 19.25,10.25 19.5,10 19.75,9.75 19.875,9.375 L 20,9 20.375,8.875 Q 20.75,8.75 21,8.5 21.25,8.25 21.5,8 21.75,7.75 21.875,7.375 22,7 22.375,6.875 22.75,6.75 22.75,6.5 22.75,6.25 22.5,6 22.25,5.75 22,5.5 21.75,5.25 21.5,5 21.25,4.75 21,4.5 20.75,4.25 20.5,4.25 20.25,4.25 20.125,4.625 20,5 20.125,5.375 20.25,5.75 20.5,6 20.75,6.25 20.875,6.625 21,7 20.625,7.125 20.25,7.25 20,7.5 19.75,7.75 19.375,7.875 L 19,8 19.28125,7.90625 19.5625,7.8125 19.375,7.875 Q 19.1875,7.9375 19.09375,8.09375 L 19,8.25 19.046875,8.171875 19.09375,8.09375 18.546875,8.046875 Q 18,8 17.5,8 17,8 16.5,8 16,8 15.5,8 15,8 14.453125,8.046875 L 13.90625,8.09375 13.953125,8.171875 14,8.25 13.90625,8.09375 Q 13.8125,7.9375 13.625,7.875 L 13.4375,7.8125 13.71875,7.90625 14,8 13.625,7.875 Q 13.25,7.75 13.125,7.375 13,7 13,6.5 13,6 13,5.5 13,5 12.875,4.625 12.75,4.25 12.5,4.25 12.25,4.25 12.125,4.625 12,5 11.875,5.375 11.75,5.75 11.5,6 11.25,6.25 11.125,6.625 11,7 11.125,7.375 11.25,7.75 11.5,8 11.75,8.25 12,8.5 12.25,8.75 12.625,8.875 L 13,9 13.125,9.375 q 0.125,0.375 0.5,0.5 L 14,10 v 0.5 q 0,0.5 0,1 V 12 l -0.375,0.125 Q 13.25,12.25 13,12.5 12.75,12.75 12.5,13 12.25,13.25 12,13.5 11.75,13.75 11.5,14 11.25,14.25 11,14.5 10.75,14.75 10.375,14.875 10,15 9.5,15 9,15 8.5,15 H 8 L 7.875,14.625 Q 7.75,14.25 7.375,14.125 L 7,14 6.875,13.625 Q 6.75,13.25 6.375,13.125 6,13 5.625,13.125 5.25,13.25 5.125,13.625 5,14 5,14.5 5,15 5.125,15.375 5.25,15.75 5.625,15.875 6,16 6.5,16 H 7 l 0.125,0.375 q 0.125,0.375 0.5,0.5 Q 8,17 8.5,17 q 0.5,0 1,0 0.5,0 1,0 0.5,0 0.875,-0.125 0.375,-0.125 0.5,-0.5 L 12,16 12.375,15.875 Q 12.75,15.75 13,15.5 13.25,15.25 13.625,15.125 L 14,15 v 0.5 q 0,0.5 0,1 0,0.5 0,1 0,0.5 0,1 0,0.5 0,1 V 20 H 13.5 13 V 19.5 Q 13,19 13,18.5 13,18 12.875,17.625 12.75,17.25 12.5,17.25 q -0.25,0 -0.375,0.375 L 12,18 11.625,18.125 q -0.375,0.125 -0.5,0.5 -0.125,0.375 0,0.75 0.125,0.375 0.515625,0.484375 L 12.03125,19.96875 12.015625,19.859375 12,19.75 12.03125,19.96875 Q 12.0625,20.1875 12.125,20.375 L 12.1875,20.5625 12.09375,20.28125 12,20 l 0.125,0.375 q 0.125,0.375 0.5,0.5 L 13,21 12.875,21.375 Q 12.75,21.75 12.5,22 q -0.25,0.25 -0.375,0.625 -0.125,0.375 0,0.75 0.125,0.375 0.5,0.5 L 13,24 12.71875,23.90625 12.4375,23.8125 12.625,23.875 q 0.1875,0.0625 0.40625,0.09375 L 13.25,24 13.140625,23.984375 13.03125,23.96875 13.140625,24.359375 Q 13.25,24.75 13.625,24.875 14,25 14.5,25 H 15 v 0.5 0.5 l -0.375,0.125 Q 14.25,26.25 14,26.5 13.75,26.75 13.5,27 13.25,27.25 13.125,27.625 13,28 13.015625,28.515625 l 0.01563,0.515625 0.109375,-0.01563 L 13.25,29 13.03125,29.03125 Q 12.8125,29.0625 12.625,29.125 L 12.4375,29.1875 12.71875,29.09375 13,29 12.625,29.125 q -0.375,0.125 -0.5,0.5 L 12,30 l 0.125,0.375 q 0.125,0.375 0.5,0.5 L 13,31 H 12.625 12.25 12.5 q 0.25,0 0.40625,-0.09375 l 0.15625,-0.09375 -0.07813,0.04687 -0.07813,0.04687 H 13.5 14.09375 l -0.07813,-0.04687 -0.07813,-0.04687 0.15625,0.09375 Q 14.25,31 14.5,31 H 14.75 14.375 14 14.5 15 14.625 14.25 14.5 q 0.25,0 0.375,-0.125 L 15,30.75 14.9375,30.8125 14.875,30.875 15.3125,30.8125 Q 15.75,30.75 15.875,30.375 16,30 16,29.5 16,29 16.125,28.625 16.25,28.25 16.5,28 16.75,27.75 16.875,27.375 17,27 17,26.5 17,26 17,25.5 17,25 16.875,24.625 16.75,24.25 16.5,24 16.25,23.75 16.125,23.375 16,23 16,22.5 V 22 22.375 22.75 22.5 q 0,-0.25 0.03125,-0.46875 l 0.03125,-0.21875 -0.01563,0.109375 -0.01563,0.109375 0.484375,-0.01563 Q 17,22 17.5,22 H 18 l 0.125,0.375 Q 18.25,22.75 18.5,23 q 0.25,0.25 0.375,0.625 0.125,0.375 0.25,0.75 0.125,0.375 0.5,0.5 L 20,25 19.71875,24.90625 19.4375,24.8125 19.625,24.875 q 0.1875,0.0625 0.40625,0.09375 L 20.25,25 20.140625,24.984375 20.03125,24.96875 20.140625,25.359375 Q 20.25,25.75 20.625,25.875 L 21,26 20.71875,25.90625 20.4375,25.8125 20.625,25.875 q 0.1875,0.0625 0.40625,0.09375 L 21.25,26 21.140625,25.984375 21.03125,25.96875 21.015625,26.484375 Q 21,27 21,27.5 q 0,0.5 0.01563,1.015625 l 0.01563,0.515625 0.109375,-0.01563 L 21.25,29 21.03125,29.03125 Q 20.8125,29.0625 20.625,29.125 L 20.4375,29.1875 20.71875,29.09375 21,29 20.625,29.125 q -0.375,0.125 -0.5,0.5 -0.125,0.375 0,0.75 0.125,0.375 0.5,0.5 L 21,31 H 20.625 20.25 20.5 q 0.25,0 0.40625,-0.09375 l 0.15625,-0.09375 -0.07813,0.04687 -0.07813,0.04687 H 21.5 22.09375 l -0.07813,-0.04687 -0.07813,-0.04687 0.15625,0.09375 Q 22.25,31 22.5,31 H 22.75 22.375 22 22.5 23 22.625 22.25 22.5 q 0.25,0 0.375,-0.125 L 23,30.75 22.9375,30.8125 M 24,26.625 V 27 27.125 27.25 27 q 0,-0.25 0,-0.5 v -0.25 0.375 M 27.03125,6.09375 27,6 26.90625,5.71875 26.8125,5.4375 26.875,5.625 Q 26.9375,5.8125 27,6 L 27.0625,6.1875 27.03125,6.09375 M 26,8.125 V 8 7.625 7.25 7.5 Q 26,7.75 26,8 V 8.25 8.125 m -15.875,5.25 q 0.125,0.375 0.375,0.375 0.25,0 0.375,-0.375 L 11,13 10.90625,13.28125 10.8125,13.5625 10.875,13.375 q 0.0625,-0.1875 0.09375,-0.40625 L 11,12.75 l -0.01563,0.109375 -0.01563,0.109375 0.390625,-0.109375 Q 11.75,12.75 12,12.5 q 0.25,-0.25 0.5,-0.5 0.25,-0.25 0.375,-0.625 0.125,-0.375 0,-0.75 -0.125,-0.375 -0.5,-0.5 L 12,10 11.875,9.625 Q 11.75,9.25 11.375,9.125 11,9 10.625,9.125 10.25,9.25 10.125,9.625 10,10 10,10.5 q 0,0.5 0,1 0,0.5 0,1 0,0.5 0.125,0.875 M 11.90625,9.71875 12,10 12.03125,10.09375 12.0625,10.1875 12,10 Q 11.9375,9.8125 11.875,9.625 l -0.0625,-0.1875 0.09375,0.28125 m -5,4 L 7,14 7.03125,14.09375 7.0625,14.1875 7,14 Q 6.9375,13.8125 6.875,13.625 l -0.0625,-0.1875 0.09375,0.28125 m 0.1875,2.5625 L 7,16 6.96875,15.90625 6.9375,15.8125 7,16 q 0.0625,0.1875 0.125,0.375 L 7.1875,16.5625 7.09375,16.28125 M 13,19.625 V 20 20.125 20.25 20 q 0,-0.25 0,-0.5 v -0.25 0.375 M 25.5,23 q 0.5,0 0.375,-0.375 -0.125,-0.375 -0.5,-0.5 Q 25,22 25,21.5 25,21 24.875,20.625 24.75,20.25 24.5,20.25 q -0.25,0 -0.375,0.375 -0.125,0.375 -0.5,0.5 -0.375,0.125 -0.5,0.5 Q 23,22 23,22.5 q 0,0.5 0.5,0.5 0.5,0 1,0 0.5,0 1,0"
       id="path1883" />
    <path
       style="fill:#ffc0c0;fill-opacity:1"
       d="M 12.125,4.625 Q 12.25,4.25 12.5,4.25 q 0.25,0 0.375,0.375 Q 13,5 13,5.5 V 6 L 12.625,6.125 Q 12.25,6.25 12,6.5 11.75,6.75 11.40625,6.875 L 11.0625,7 V 7.09375 7.1875 7 q 0,-0.1875 0.0625,-0.375 L 11.1875,6.4375 11.09375,6.71875 11,7 11.125,6.625 Q 11.25,6.25 11.5,6 11.75,5.75 11.875,5.375 12,5 12.125,4.625 M 13,6.125 V 6 5.625 5.25 5.5 Q 13,5.75 13,6 V 6.25 6.125"
       id="path1885" />
    <path
       style="fill:#ffc0c0;fill-opacity:1"
       d="M 20.125,4.625 Q 20.25,4.25 20.5,4.25 q 0.25,0 0.5,0.25 0.25,0.25 0.5,0.5 0.25,0.25 0.5,0.5 0.25,0.25 0.5,0.5 0.25,0.25 0.25,0.5 0,0.25 -0.375,0.375 L 22,7 22.28125,6.90625 22.5625,6.8125 22.375,6.875 Q 22.1875,6.9375 22.0625,7.0625 L 21.9375,7.1875 22,7.125 22.0625,7.0625 21.90625,6.65625 Q 21.75,6.25 21.5,6 21.25,5.75 21,5.5 20.75,5.25 20.40625,5.125 L 20.0625,5 V 5.09375 5.1875 5 q 0,-0.1875 0.0625,-0.375 L 20.1875,4.4375 20.09375,4.71875 20,5 20.125,4.625"
       id="path1887" />
    <path
       style="fill:#e0a8a8;fill-opacity:1"
       d="m 26.25,4.5 q 0,-0.25 0.25,-0.25 0.25,0 0.5,0.25 0.25,0.25 0.5,0.5 0.25,0.25 0.375,0.625 Q 28,6 28,6.5 V 7 L 27.625,6.875 Q 27.25,6.75 27.125,6.375 27,6 26.875,5.625 26.75,5.25 26.5,5 26.25,4.75 26.25,4.5 M 28,7.125 V 7 6.625 6.25 6.5 Q 28,6.75 28,7 V 7.25 7.125"
       id="path1889" />
    <path
       style="fill:#c09090;fill-opacity:1"
       d="M 20.125,5.375 20,5 20.09375,5.28125 20.1875,5.5625 20.125,5.375 Q 20.0625,5.1875 20.0625,5 V 4.8125 4.90625 5 l 0.34375,0.125 Q 20.75,5.25 21,5.5 21.25,5.75 21.5,6 21.75,6.25 21.90625,6.65625 L 22.0625,7.0625 22.125,7 22.1875,6.9375 22.0625,7.0625 Q 21.9375,7.1875 21.875,7.375 L 21.8125,7.5625 21.90625,7.28125 22,7 21.875,7.375 Q 21.75,7.75 21.5,8 21.25,8.25 21,8.5 20.75,8.75 20.375,8.875 L 20,9 20.125,8.625 Q 20.25,8.25 20.5,8 20.75,7.75 20.828125,7.328125 L 20.90625,6.90625 20.859375,6.984375 20.8125,7.0625 20.90625,6.90625 Q 21,6.75 21,6.5 V 6.25 6.625 7 L 20.875,6.625 Q 20.75,6.25 20.5,6 20.25,5.75 20.125,5.375"
       id="path1891" />
    <path
       style="fill:#c09090;fill-opacity:1"
       d="M 12,6.5 Q 12.25,6.25 12.625,6.125 L 13,6 V 6.5 7 6.625 6.25 6.5 q 0,0.25 0.03125,0.46875 L 13.0625,7.1875 13.046875,7.078125 13.03125,6.96875 12.640625,7.109375 Q 12.25,7.25 12.25,7.5 q 0,0.25 0.25,0.5 0.25,0.25 0.375,0.625 L 13,9 12.625,8.875 Q 12.25,8.75 12,8.5 11.75,8.25 11.5,8 11.25,7.75 11.125,7.375 L 11,7 11.09375,7.28125 11.1875,7.5625 11.125,7.375 Q 11.0625,7.1875 11.0625,7 V 6.8125 6.90625 7 L 11.40625,6.875 Q 11.75,6.75 12,6.5 M 13,6.375 V 6 5.875 5.75 6 q 0,0.25 0,0.5 V 6.75 6.375"
       id="path1893" />
    <path
       style="fill:#e00000;fill-opacity:1"
       d="m 26.125,6.625 q 0.125,-0.375 0.5,-0.5 L 27,6 27.125,6.375 q 0.125,0.375 0.5,0.5 L 28,7 V 7.5 8 L 27.484375,8.015625 26.96875,8.03125 26.984375,8.140625 27,8.25 26.96875,8.03125 Q 26.9375,7.8125 26.875,7.625 L 26.8125,7.4375 26.90625,7.71875 27,8 26.875,7.625 Q 26.75,7.25 26.390625,7.140625 L 26.03125,7.03125 26.015625,7.140625 26,7.25 26.03125,7.03125 Q 26.0625,6.8125 26.125,6.625 L 26.1875,6.4375 26.09375,6.71875 26,7 26.125,6.625 M 28,7.375 V 7 6.875 6.75 7 q 0,0.25 0,0.5 V 7.75 7.375 M 27.09375,6.28125 27,6 26.96875,5.90625 26.9375,5.8125 27,6 q 0.0625,0.1875 0.125,0.375 l 0.0625,0.1875 -0.09375,-0.28125"
       id="path1895" />
    <path
       style="fill:#ffc0c0;fill-opacity:1"
       d="m 12.25,7.5 q 0,-0.25 0.390625,-0.390625 L 13.03125,6.96875 13.015625,6.859375 13,6.75 13.03125,6.96875 Q 13.0625,7.1875 13.125,7.375 L 13.1875,7.5625 13.09375,7.28125 13,7 13.125,7.375 q 0.125,0.375 0.5,0.5 0.375,0.125 0.25,0.5 -0.125,0.375 -0.5,0.5 L 13,9 12.875,8.625 Q 12.75,8.25 12.5,8 12.25,7.75 12.25,7.5"
       id="path1897" />
    <path
       style="fill:#ffc0c0;fill-opacity:1"
       d="M 20,7.5 Q 20.25,7.25 20.625,7.125 L 21,7 20.71875,7.09375 20.4375,7.1875 20.625,7.125 Q 20.8125,7.0625 20.90625,6.90625 L 21,6.75 20.953125,6.828125 20.90625,6.90625 20.828125,7.328125 Q 20.75,7.75 20.5,8 20.25,8.25 20.125,8.625 L 20,9 19.625,8.875 Q 19.25,8.75 19.125,8.375 19,8 19.375,7.875 19.75,7.75 20,7.5"
       id="path1899" />
    <path
       style="fill:#c00000;fill-opacity:1"
       d="M 26,7.5 V 7 7.375 7.75 7.5 Q 26,7.25 26.03125,7.03125 L 26.0625,6.8125 26.046875,6.921875 26.03125,7.03125 26.390625,7.140625 Q 26.75,7.25 26.875,7.625 27,8 27,8.5 27,9 27,9.5 27,10 27.125,10.375 27.25,10.75 27.5,11 27.75,11.25 27.875,11.625 28,12 28.015625,12.515625 l 0.01563,0.515625 0.109375,-0.01563 L 28.25,13 28.03125,13.03125 Q 27.8125,13.0625 27.625,13.125 L 27.4375,13.1875 27.71875,13.09375 28,13 27.625,13.125 q -0.375,0.125 -0.5,0.5 Q 27,14 26.875,14.375 26.75,14.75 26.5,14.75 26.25,14.75 26.125,14.375 26,14 26.125,13.625 26.25,13.25 26.5,13 26.75,12.75 26.875,12.375 27,12 26.875,11.625 26.75,11.25 26.5,11 26.25,10.75 26.125,10.375 26,10 26,9.5 26,9 26,8.5 26,8 26,7.5"
       id="path1901" />
    <path
       style="fill:#a00000;fill-opacity:1"
       d="M 13.875,8.375 14,8 V 8.375 8.75 8.5 Q 14,8.25 13.90625,8.09375 L 13.8125,7.9375 13.859375,8.015625 13.90625,8.09375 14.453125,8.046875 15,8 14.875,8.375 Q 14.75,8.75 14.5,9 14.25,9.25 14.125,9.625 L 14,10 13.625,9.875 Q 13.25,9.75 13.125,9.375 L 13,9 13.375,8.875 q 0.375,-0.125 0.5,-0.5 M 15.125,8 H 15 14.625 14.25 14.5 q 0.25,0 0.5,0 h 0.25 -0.125"
       id="path1903" />
    <path
       style="fill:#ff0000;fill-opacity:1"
       d="M 14.875,8.375 15,8 H 15.5 16 L 15.875,8.375 Q 15.75,8.75 15.5,9 15.25,9.25 15.125,9.625 L 15,10 H 14.5 14 L 14.125,9.625 Q 14.25,9.25 14.5,9 14.75,8.75 14.875,8.375 M 16.125,8 H 16 15.625 15.25 15.5 q 0.25,0 0.5,0 h 0.25 -0.125 m -0.75,0 H 15 14.875 14.75 15 q 0.25,0 0.5,0 h 0.25 -0.375"
       id="path1905" />
    <path
       style="fill:#e00000;fill-opacity:1"
       d="M 15.875,8.375 16,8 h 0.5 0.5 l 0.125,0.375 Q 17.25,8.75 17.5,9 17.75,9.25 17.875,9.625 L 18,10 H 17.5 17 17.375 17.75 17.5 q -0.25,0 -0.46875,0.03125 L 16.8125,10.0625 16.921875,10.046875 17.03125,10.03125 16.890625,9.640625 Q 16.75,9.25 16.5,9.25 16.25,9.25 16,9.5 15.75,9.75 15.375,9.875 L 15,10 15.125,9.625 Q 15.25,9.25 15.5,9 15.75,8.75 15.875,8.375 M 17.125,8 H 17 16.625 16.25 16.5 q 0.25,0 0.5,0 h 0.25 -0.125 m -0.75,0 H 16 15.875 15.75 16 q 0.25,0 0.5,0 h 0.25 -0.375"
       id="path1907" />
    <path
       style="fill:#c00000;fill-opacity:1"
       d="M 17.125,8.375 17,8 h 0.5 0.5 l 0.125,0.375 Q 18.25,8.75 18.5,9 q 0.25,0.25 0.25,0.5 0,0.25 -0.375,0.375 L 18,10 17.875,9.625 Q 17.75,9.25 17.5,9 17.25,8.75 17.125,8.375 M 18.125,8 H 18 17.625 17.25 17.5 q 0.25,0 0.5,0 h 0.25 -0.125 m -0.75,0 H 17 16.875 16.75 17 q 0.25,0 0.5,0 h 0.25 -0.375"
       id="path1909" />
    <path
       style="fill:#a00000;fill-opacity:1"
       d="M 18.125,8.375 18,8 18.546875,8.046875 19.09375,8.09375 19.140625,8.015625 19.1875,7.9375 19.09375,8.09375 Q 19,8.25 19,8.5 V 8.75 8.375 8 l 0.125,0.375 q 0.125,0.375 0.5,0.5 L 20,9 19.875,9.375 Q 19.75,9.75 19.5,10 q -0.25,0.25 -0.25,0.5 0,0.25 0.375,0.375 L 20,11 v 0.5 q 0,0.5 -0.125,0.875 -0.125,0.375 -0.5,0.5 Q 19,13 18.625,13.125 18.25,13.25 18,13.5 q -0.25,0.25 -0.5,0.5 -0.25,0.25 -0.25,0.5 0,0.25 0.25,0.5 0.25,0.25 0.5,0.5 0.25,0.25 0.625,0.375 L 19,16 18.875,16.375 Q 18.75,16.75 18.5,17 q -0.25,0.25 -0.25,0.5 0,0.25 0.25,0.5 0.25,0.25 0.25,0.5 0,0.25 -0.25,0.5 -0.25,0.25 -0.5,0.5 -0.25,0.25 -0.5,0.25 -0.25,0 -0.375,-0.375 L 17,19 16.625,18.875 Q 16.25,18.75 16,18.5 15.75,18.25 15.5,18 15.25,17.75 15,17.5 14.75,17.25 14.375,17.125 L 14,17 V 16.5 16 l 0.375,0.125 Q 14.75,16.25 15,16.5 q 0.25,0.25 0.5,0.5 0.25,0.25 0.5,0.5 0.25,0.25 0.5,0.25 0.25,0 0.5,-0.25 0.25,-0.25 0.5,-0.5 0.25,-0.25 0.25,-0.5 0,-0.25 -0.25,-0.5 -0.25,-0.25 -0.5,-0.5 -0.25,-0.25 -0.5,-0.25 -0.25,0 -0.5,0.25 -0.25,0.25 -0.5,0.25 -0.25,0 -0.5,-0.25 -0.25,-0.25 -0.625,-0.375 L 14,15 14.125,14.625 Q 14.25,14.25 14.5,14 q 0.25,-0.25 0.5,-0.5 0.25,-0.25 0.5,-0.25 0.25,0 0.5,0.25 0.25,0.25 0.5,0.25 0.25,0 0.5,-0.25 0.25,-0.25 0.5,-0.5 0.25,-0.25 0.5,-0.5 0.25,-0.25 0.5,-0.5 0.25,-0.25 0.25,-0.5 0,-0.25 -0.375,-0.375 L 18,11 V 10.5 10 L 18.375,9.875 Q 18.75,9.75 18.75,9.5 18.75,9.25 18.5,9 18.25,8.75 18.125,8.375 M 15.25,14.5 q 0,0.25 0.25,0.25 0.25,0 0.25,-0.25 0,-0.25 -0.25,-0.25 -0.25,0 -0.25,0.25 M 14,15.875 V 16 16.375 16.75 16.5 q 0,-0.25 0,-0.5 v -0.25 0.125 m 0,0.75 V 17 17.125 17.25 17 q 0,-0.25 0,-0.5 v -0.25 0.375 m 3.125,2 L 17,19 17.375,18.875 Q 17.75,18.75 17.75,18.5 q 0,-0.25 -0.25,-0.25 -0.25,0 -0.375,0.375 M 18.90625,16.28125 19,16 19.03125,15.90625 19.0625,15.8125 19,16 q -0.0625,0.1875 -0.125,0.375 l -0.0625,0.1875 0.09375,-0.28125 m 1.1875,-5.25 L 20,11 19.71875,10.90625 19.4375,10.8125 19.625,10.875 Q 19.8125,10.9375 20,11 l 0.1875,0.0625 -0.09375,-0.03125 M 18.375,8 H 18 17.875 17.75 18 q 0.25,0 0.5,0 h 0.25 -0.375"
       id="path1911" />
    <path
       style="fill:#e00000;fill-opacity:1"
       d="M 25,8.5 Q 25.25,8.25 25.625,8.125 L 26,8 V 8.5 9 L 25.625,9.125 Q 25.25,9.25 25,9.5 24.75,9.75 24.375,9.875 L 24,10 24.125,9.625 Q 24.25,9.25 24.5,9 24.75,8.75 25,8.5 m 1,0.625 V 9 8.625 8.25 8.5 Q 26,8.75 26,9 V 9.25 9.125 m 0,-0.75 V 8 7.875 7.75 8 q 0,0.25 0,0.5 V 8.75 8.375"
       id="path1913" />
    <path
       style="fill:#a05050;fill-opacity:1"
       d="M 27,8.5 V 8 8.375 8.75 8.5 Q 27,8.25 26.96875,8.03125 L 26.9375,7.8125 26.953125,7.921875 26.96875,8.03125 27.484375,8.015625 28,8 v 0.5 q 0,0.5 0,1 0,0.5 0.125,0.875 Q 28.25,10.75 28.5,11 28.75,11.25 28.875,11.625 29,12 29,12.5 V 13 H 28.5 28 28.375 28.75 28.5 q -0.25,0 -0.46875,0.03125 l -0.21875,0.03125 0.109375,-0.01563 0.109375,-0.01563 -0.01563,-0.515625 Q 28,12 27.875,11.625 27.75,11.25 27.5,11 27.25,10.75 27.125,10.375 27,10 27,9.5 27,9 27,8.5 m 2,4.625 V 13 12.625 12.25 12.5 q 0,0.25 0,0.5 v 0.25 -0.125"
       id="path1915" />
    <path
       style="fill:#c00000;fill-opacity:1"
       d="M 28,8.5 V 8 l 0.375,0.125 q 0.375,0.125 0.5,0.5 L 29,9 28.90625,8.71875 28.8125,8.4375 28.875,8.625 q 0.0625,0.1875 0.09375,0.40625 L 29,9.25 28.984375,9.140625 28.96875,9.03125 28.484375,9.015625 28,9 V 8.5 m 0,0.125 V 9 9.125 9.25 9 Q 28,8.75 28,8.5 V 8.25 8.625"
       id="path1917" />
    <path
       style="fill:#c00000;fill-opacity:1"
       d="m 10.125,9.625 q 0.125,-0.375 0.5,-0.5 L 11,9 10.71875,9.09375 10.4375,9.1875 10.625,9.125 Q 10.8125,9.0625 11,9.0625 H 11.1875 11.09375 11 V 9.53125 10 l -0.484375,0.01563 -0.484375,0.01563 -0.01563,0.109375 L 10,10.25 10.03125,10.03125 Q 10.0625,9.8125 10.125,9.625 L 10.1875,9.4375 10.09375,9.71875 10,10 10.125,9.625 M 11,10.125 V 10 9.625 9.25 9.5 q 0,0.25 0,0.5 v 0.25 -0.125"
       id="path1919" />
    <path
       style="fill:#a05050;fill-opacity:1"
       d="M 11,9.53125 V 9.0625 H 10.90625 10.8125 11 q 0.1875,0 0.375,0.0625 L 11.5625,9.1875 11.28125,9.09375 11,9 11.375,9.125 q 0.375,0.125 0.5,0.5 0.125,0.375 0.25,0.75 0.125,0.375 0.46875,0.5 L 12.9375,11 V 10.90625 10.8125 11 q 0,0.1875 -0.0625,0.375 L 12.8125,11.5625 12.90625,11.28125 13,11 12.875,11.375 Q 12.75,11.75 12.5,12 12.25,12.25 12,12.5 11.75,12.75 11.359375,12.859375 L 10.96875,12.96875 10.953125,13.078125 10.9375,13.1875 10.96875,12.96875 Q 11,12.75 11,12.5 V 12.25 12.625 13 12.5 q 0,-0.5 0,-1 0,-0.5 0,-1 0,-0.5 0,-0.96875"
       id="path1921" />
    <path
       style="fill:#c00000;fill-opacity:1"
       d="m 16,9.5 q 0.25,-0.25 0.5,-0.25 0.25,0 0.390625,0.390625 L 17.03125,10.03125 17.140625,10.015625 17.25,10 17.03125,10.03125 Q 16.8125,10.0625 16.625,10.125 L 16.4375,10.1875 16.71875,10.09375 17,10 16.625,10.125 q -0.375,0.125 -0.5,0.5 L 16,11 H 15.5 15 V 10.5 10 L 15.375,9.875 Q 15.75,9.75 16,9.5"
       id="path1923" />
    <path
       style="fill:#a05050;fill-opacity:1"
       d="M 25,9.5 Q 25.25,9.25 25.625,9.125 L 26,9 V 9.5 10 9.625 9.25 9.5 q 0,0.25 0.03125,0.46875 L 26.0625,10.1875 26.046875,10.078125 26.03125,9.96875 25.640625,10.109375 Q 25.25,10.25 25.125,10.625 25,11 25,11.5 q 0,0.5 -0.04687,1.046875 l -0.04687,0.546875 0.04687,0.07813 L 25,13.25 24.90625,13.09375 Q 24.8125,12.9375 24.625,12.875 L 24.4375,12.8125 24.71875,12.90625 25,13 24.625,12.875 Q 24.25,12.75 24,12.5 23.75,12.25 23.375,12.125 L 23,12 V 11.5 11 l 0.375,-0.125 q 0.375,-0.125 0.5,-0.5 L 24,10 24.375,9.875 Q 24.75,9.75 25,9.5 M 22.90625,11.96875 23,12 23.28125,12.09375 23.5625,12.1875 23.375,12.125 Q 23.1875,12.0625 23,12 l -0.1875,-0.0625 0.09375,0.03125 M 26,9.375 V 9 8.875 8.75 9 q 0,0.25 0,0.5 V 9.75 9.375"
       id="path1925" />
    <path
       style="fill:#e00000;fill-opacity:1"
       d="M 28,9.5 V 9 L 28.484375,9.015625 28.96875,9.03125 28.953125,8.921875 28.9375,8.8125 28.96875,9.03125 Q 29,9.25 29,9.5 V 9.75 9.375 9 9.5 Q 29,10 29.125,10.375 29.25,10.75 29.5,11 29.75,11.25 29.875,11.625 30,12 30,12.5 q 0,0.5 0,1 0,0.5 0,1 V 15 14.625 14.25 14.5 q 0,0.25 -0.03125,0.46875 l -0.03125,0.21875 0.01563,-0.109375 0.01563,-0.109375 -0.484375,0.01563 L 29,15 h 0.375 0.375 -0.25 q -0.25,0 -0.46875,0.03125 l -0.21875,0.03125 0.109375,-0.01563 0.109375,-0.01563 -0.01563,-0.515625 Q 29,14 29,13.5 29,13 29,12.5 29,12 28.875,11.625 28.75,11.25 28.5,11 28.25,10.75 28.125,10.375 28,10 28,9.5 M 28,8.875 V 9 9.375 9.75 9.5 Q 28,9.25 28,9 V 8.75 8.875"
       id="path1927" />
    <path
       style="fill:#e00000;fill-opacity:1"
       d="M 10,10.5 V 10 10.375 10.75 10.5 q 0,-0.25 0.03125,-0.46875 L 10.0625,9.8125 10.046875,9.921875 10.03125,10.03125 10.515625,10.015625 11,10 v 0.5 q 0,0.5 0,1 V 12 H 10.5 10 v -0.5 q 0,-0.5 0,-1 m 0,1.125 V 12 12.125 12.25 12 q 0,-0.25 0,-0.5 v -0.25 0.375 m 1,0.5 V 12 11.625 11.25 11.5 q 0,0.25 0,0.5 v 0.25 -0.125 m 0,-1.75 V 10 9.875 9.75 10 q 0,0.25 0,0.5 v 0.25 -0.375"
       id="path1929" />
    <path
       style="fill:#c00000;fill-opacity:1"
       d="M 12.125,10.375 12,10 l 0.375,0.125 q 0.375,0.125 0.5,0.5 L 13,11 12.90625,10.71875 12.8125,10.4375 12.875,10.625 Q 12.9375,10.8125 12.9375,11 V 11.1875 11.09375 11 L 12.59375,10.875 Q 12.25,10.75 12.125,10.375 M 11.96875,9.90625 12,10 12.09375,10.28125 12.1875,10.5625 12.125,10.375 Q 12.0625,10.1875 12,10 l -0.0625,-0.1875 0.03125,0.09375"
       id="path1931" />
    <path
       style="fill:#ffc000;fill-opacity:1"
       d="M 14,10.5 V 10 H 14.5 15 V 10.5 11 H 14.5 14 v -0.5 m 0,0.125 V 11 11.125 11.25 11 q 0,-0.25 0,-0.5 v -0.25 0.375"
       id="path1933" />
    <path
       style="fill:#ffc000;fill-opacity:1"
       d="m 16.125,10.625 q 0.125,-0.375 0.5,-0.5 Q 17,10 17.5,10 H 18 v 0.5 0.5 h -0.5 q -0.5,0 -1,0 H 16 l 0.125,-0.375"
       id="path1935" />
    <path
       style="fill:#c00000;fill-opacity:1"
       d="m 23.125,10.625 q 0.125,-0.375 0.5,-0.5 L 24,10 23.875,10.375 q -0.125,0.375 -0.5,0.5 L 23,11 23.125,10.625"
       id="path1937" />
    <path
       style="fill:#c06060;fill-opacity:1"
       d="M 25.125,10.625 Q 25.25,10.25 25.640625,10.109375 L 26.03125,9.96875 26.015625,9.859375 26,9.75 26.03125,9.96875 Q 26.0625,10.1875 26.125,10.375 L 26.1875,10.5625 26.09375,10.28125 26,10 26.125,10.375 Q 26.25,10.75 26.5,11 q 0.25,0.25 0.375,0.625 0.125,0.375 0,0.75 Q 26.75,12.75 26.5,13 q -0.25,0.25 -0.375,0.625 -0.125,0.375 0,0.75 0.125,0.375 0.375,0.375 0.25,0 0.375,-0.375 Q 27,14 27.125,13.625 27.25,13.25 27.625,13.125 28,13 28.5,13 H 29 v 0.5 q 0,0.5 0.01563,1.015625 l 0.01563,0.515625 0.109375,-0.01563 L 29.25,15 29.03125,15.03125 Q 28.8125,15.0625 28.625,15.125 L 28.4375,15.1875 28.71875,15.09375 29,15 28.625,15.125 q -0.375,0.125 -0.5,0.5 Q 28,16 27.875,16.375 27.75,16.75 27.375,16.875 27,17 26.5,17 H 26 V 16.5 Q 26,16 25.875,15.625 25.75,15.25 25.359375,15.109375 L 24.96875,14.96875 24.953125,15.078125 24.9375,15.1875 24.96875,14.96875 Q 25,14.75 25,14.5 V 14.25 14.625 15 14.5 q 0,-0.5 0,-1 V 13 13.375 13.75 13.5 q 0,-0.25 -0.09375,-0.40625 l -0.09375,-0.15625 0.04687,0.07813 0.04687,0.07813 0.04687,-0.546875 Q 25,12 25,11.5 25,11 25.125,10.625 m 0.875,6 V 17 17.125 17.25 17 q 0,-0.25 0,-0.5 v -0.25 0.375 m 3,-3.25 V 13 12.875 12.75 13 q 0,0.25 0,0.5 v 0.25 -0.375"
       id="path1939" />
    <path
       style="fill:#ff0000;fill-opacity:1"
       d="M 14,11.5 V 11 H 14.5 15 V 11.5 12 H 14.5 14 v -0.5 m 0,-0.625 V 11 11.375 11.75 11.5 q 0,-0.25 0,-0.5 v -0.25 0.125"
       id="path1941" />
    <path
       style="fill:#e00000;fill-opacity:1"
       d="M 15,11.5 V 11 H 15.5 16 V 11.5 12 H 15.5 15 v -0.5"
       id="path1943" />
    <path
       style="fill:#ff0000;fill-opacity:1"
       d="M 16,11.5 V 11 H 16.5 17 V 11.5 12 H 16.5 16 V 11.5 M 17.125,11 H 17 16.625 16.25 16.5 q 0.25,0 0.5,0 h 0.25 -0.125"
       id="path1945" />
    <path
       style="fill:#e00000;fill-opacity:1"
       d="M 17,11.5 V 11 h 0.5 0.5 l -0.125,0.375 q -0.125,0.375 -0.5,0.5 L 17,12 V 11.5 M 17.375,11 H 17 16.875 16.75 17 q 0.25,0 0.5,0 h 0.25 -0.375"
       id="path1947" />
    <path
       style="fill:#600000;fill-opacity:1"
       d="M 17.875,11.375 18,11 l 0.375,0.125 q 0.375,0.125 0.375,0.375 0,0.25 -0.25,0.5 -0.25,0.25 -0.5,0.5 -0.25,0.25 -0.5,0.5 -0.25,0.25 -0.5,0.5 -0.25,0.25 -0.5,0.25 -0.25,0 -0.5,-0.25 -0.25,-0.25 -0.5,-0.25 -0.25,0 -0.5,0.25 -0.25,0.25 -0.5,0.5 -0.25,0.25 -0.375,0.625 L 14,15 13.625,15.125 Q 13.25,15.25 13,15.5 12.75,15.75 12.375,15.875 L 12,16 12.125,15.625 Q 12.25,15.25 12.5,15 12.75,14.75 13,14.5 13.25,14.25 13.5,14 13.75,13.75 13.875,13.375 L 14,13 14.375,12.875 q 0.375,-0.125 0.5,-0.5 L 15,12 h 0.5 0.5 l 0.125,0.375 q 0.125,0.375 0.375,0.375 0.25,0 0.375,-0.375 L 17,12 17.375,11.875 q 0.375,-0.125 0.5,-0.5"
       id="path1949" />
    <path
       style="fill:#ff0000;fill-opacity:1"
       d="M 20,11.5 V 11 l 0.375,0.125 q 0.375,0.125 0.5,0.5 L 21,12 20.484375,11.984375 19.96875,11.96875 19.953125,12.078125 19.9375,12.1875 19.96875,11.96875 Q 20,11.75 20,11.5 V 11.25 11.625 12 11.5 M 20.28125,11.09375 20,11 19.90625,10.96875 19.8125,10.9375 20,11 q 0.1875,0.0625 0.375,0.125 l 0.1875,0.0625 -0.28125,-0.09375"
       id="path1951" />
    <path
       style="fill:#800000;fill-opacity:1"
       d="m 22.25,11.5 q 0,-0.25 0.375,-0.375 L 23,11 V 11.5 12 L 22.625,11.875 Q 22.25,11.75 22.25,11.5 M 22.71875,11.90625 23,12 23.09375,12.03125 23.1875,12.0625 23,12 q -0.1875,-0.0625 -0.375,-0.125 l -0.1875,-0.0625 0.28125,0.09375"
       id="path1953" />
    <path
       style="fill:#800000;fill-opacity:1"
       d="M 10,12.5 V 12 h 0.5 0.5 v 0.5 Q 11,13 10.875,13.375 10.75,13.75 10.5,13.75 10.25,13.75 10.125,13.375 10,13 10,12.5 m 1,-0.125 V 12 11.875 11.75 12 q 0,0.25 0,0.5 v 0.25 -0.375 m -1,-0.5 V 12 12.375 12.75 12.5 q 0,-0.25 0,-0.5 v -0.25 0.125"
       id="path1955" />
    <path
       style="fill:#c00000;fill-opacity:1"
       d="m 13,12.5 q 0.25,-0.25 0.625,-0.375 L 14,12 v 0.5 0.5 l -0.375,0.125 Q 13.25,13.25 13,13.5 12.75,13.75 12.5,14 12.25,14.25 12,14.5 11.75,14.75 11.5,15 11.25,15.25 11.125,15.625 L 11,16 H 10.5 10 L 9.984375,15.484375 9.96875,14.96875 9.859375,14.984375 9.75,15 9.96875,14.96875 Q 10.1875,14.9375 10.375,14.875 L 10.5625,14.8125 10.28125,14.90625 10,15 10.375,14.875 Q 10.75,14.75 11,14.5 11.25,14.25 11.5,14 11.75,13.75 12,13.5 12.25,13.25 12.5,13 12.75,12.75 13,12.5"
       id="path1957" />
    <path
       style="fill:#c09090;fill-opacity:1"
       d="M 14,12.5 V 12 h 0.5 0.5 l -0.125,0.375 q -0.125,0.375 -0.5,0.5 L 14,13 v -0.5"
       id="path1959" />
    <path
       style="fill:#c09090;fill-opacity:1"
       d="M 16.125,12.375 16,12 h 0.5 0.5 l -0.125,0.375 Q 16.75,12.75 16.5,12.75 q -0.25,0 -0.375,-0.375"
       id="path1961" />
    <path
       style="fill:#800000;fill-opacity:1"
       d="M 19.875,12.375 20,12 19.90625,12.28125 19.8125,12.5625 19.875,12.375 q 0.0625,-0.1875 0.09375,-0.40625 L 20,11.75 l -0.01563,0.109375 -0.01563,0.109375 0.515625,0.01563 L 21,12 20.875,12.375 Q 20.75,12.75 20.5,13 q -0.25,0.25 -0.25,0.5 0,0.25 0.25,0.5 0.25,0.25 0.375,0.625 Q 21,15 21,15.5 V 16 l -0.375,0.125 Q 20.25,16.25 20,16.5 q -0.25,0.25 -0.5,0.5 -0.25,0.25 -0.25,0.5 0,0.25 0.25,0.5 0.25,0.25 0.25,0.5 0,0.25 -0.25,0.5 -0.25,0.25 -0.5,0.5 -0.25,0.25 -0.5,0.5 -0.25,0.25 -0.5,0.5 -0.25,0.25 -0.625,0.375 Q 17,21 16.625,21.125 16.25,21.25 16.125,21.625 16,22 16,22.5 V 23 22.625 22.25 22.5 q 0,0.25 0.03125,0.46875 l 0.03125,0.21875 -0.01563,-0.109375 -0.01563,-0.109375 -0.390625,0.140625 Q 15.25,23.25 15.25,23.5 q 0,0.25 0.25,0.5 0.25,0.25 0.25,0.5 0,0.25 -0.375,0.375 L 15,25 14.875,24.625 q -0.125,-0.375 -0.5,-0.5 L 14,24 14.28125,24.09375 14.5625,24.1875 14.375,24.125 Q 14.1875,24.0625 13.96875,24.03125 L 13.75,24 l 0.109375,0.01563 0.109375,0.01563 0.140625,-0.390625 Q 14.25,23.25 14.5,23 14.75,22.75 14.875,22.375 15,22 15,21.5 15,21 14.875,20.625 14.75,20.25 14.375,20.125 L 14,20 V 19.5 19 l 0.375,-0.125 Q 14.75,18.75 14.75,18.5 q 0,-0.25 -0.375,-0.375 L 14,18 V 17.5 17 l 0.375,0.125 Q 14.75,17.25 15,17.5 q 0.25,0.25 0.5,0.5 0.25,0.25 0.5,0.5 0.25,0.25 0.625,0.375 L 17,19 l 0.125,0.375 q 0.125,0.375 0.375,0.375 0.25,0 0.5,-0.25 0.25,-0.25 0.5,-0.5 0.25,-0.25 0.25,-0.5 0,-0.25 -0.25,-0.5 -0.25,-0.25 -0.25,-0.5 0,-0.25 0.25,-0.5 0.25,-0.25 0.375,-0.625 Q 19,16 19.125,15.625 19.25,15.25 19.5,15 q 0.25,-0.25 0.25,-0.5 0,-0.25 -0.25,-0.5 -0.25,-0.25 -0.375,-0.625 L 19,13 19.375,12.875 q 0.375,-0.125 0.5,-0.5 M 19.28125,12.90625 19,13 18.90625,13.03125 18.8125,13.0625 19,13 q 0.1875,-0.0625 0.375,-0.125 l 0.1875,-0.0625 -0.28125,0.09375 M 14,16.875 V 17 17.375 17.75 17.5 q 0,-0.25 0,-0.5 v -0.25 0.125 m 0,0.75 V 18 18.125 18.25 18 q 0,-0.25 0,-0.5 v -0.25 0.375 m 0,1.25 V 19 19.375 19.75 19.5 q 0,-0.25 0,-0.5 v -0.25 0.125 m 1.25,0.625 q 0,0.25 0.25,0.25 0.25,0 0.25,-0.25 0,-0.25 -0.25,-0.25 -0.25,0 -0.25,0.25 M 21,16.125 V 16 15.625 15.25 15.5 q 0,0.25 0,0.5 v 0.25 -0.125"
       id="path1963" />
    <path
       style="fill:#c00000;fill-opacity:1"
       d="M 20.875,12.375 21,12 21.375,12.125 Q 21.75,12.25 22,12.5 q 0.25,0.25 0.625,0.375 L 23,13 V 13.5 14 L 22.625,13.875 Q 22.25,13.75 22,13.5 q -0.25,-0.25 -0.5,-0.25 -0.25,0 -0.25,0.25 0,0.25 0.25,0.5 0.25,0.25 0.5,0.5 0.25,0.25 0.625,0.375 Q 23,15 23.5,15 H 24 v 0.5 0.5 l -0.375,0.125 Q 23.25,16.25 23.25,16.5 q 0,0.25 0.375,0.375 L 24,17 V 17.5 18 17.625 17.25 17.5 q 0,0.25 -0.03125,0.46875 l -0.03125,0.21875 0.01563,-0.109375 0.01563,-0.109375 -0.359375,0.140625 Q 23.25,18.25 23.125,18.625 23,19 22.875,19.375 q -0.125,0.375 -0.5,0.5 L 22,20 22.28125,19.90625 22.5625,19.8125 22.375,19.875 Q 22.1875,19.9375 22,19.9375 H 21.8125 21.90625 22 V 19.46875 Q 22,19 22.125,18.625 22.25,18.25 22.5,18 22.75,17.75 22.75,17.5 22.75,17.25 22.5,17 22.25,16.75 22.125,16.375 22,16 21.875,15.625 21.75,15.25 21.359375,15.140625 L 20.96875,15.03125 20.984375,15.140625 21,15.25 20.96875,15.03125 Q 20.9375,14.8125 20.875,14.625 L 20.8125,14.4375 20.90625,14.71875 21,15 20.875,14.625 Q 20.75,14.25 20.5,14 q -0.25,-0.25 -0.25,-0.5 0,-0.25 0.25,-0.5 0.25,-0.25 0.375,-0.625 m 3.125,5 V 17 16.875 16.75 17 q 0,0.25 0,0.5 v 0.25 -0.375 m 0,-2 V 15 14.875 14.75 15 q 0,0.25 0,0.5 v 0.25 -0.375 m -1,-1.25 V 14 13.625 13.25 13.5 q 0,0.25 0,0.5 v 0.25 -0.125 M 23.09375,13.03125 23,13 22.71875,12.90625 22.4375,12.8125 22.625,12.875 Q 22.8125,12.9375 23,13 l 0.1875,0.0625 -0.09375,-0.03125"
       id="path1965" />
    <path
       style="fill:#c00000;fill-opacity:1"
       d="m 5.125,13.625 q 0.125,-0.375 0.5,-0.5 L 6,13 5.71875,13.09375 5.4375,13.1875 5.625,13.125 Q 5.8125,13.0625 6,13.0625 H 6.1875 6.09375 6 V 13.53125 14 13.625 13.25 13.5 q 0,0.25 0.03125,0.46875 L 6.0625,14.1875 6.046875,14.078125 6.03125,13.96875 5.53125,14 5.03125,14.03125 5.015625,14.140625 5,14.25 5.03125,14.03125 Q 5.0625,13.8125 5.125,13.625 L 5.1875,13.4375 5.09375,13.71875 5,14 5.125,13.625"
       id="path1967" />
    <path
       style="fill:#800000;fill-opacity:1"
       d="M 6,13.53125 V 13.0625 H 5.90625 5.8125 6 q 0.1875,0 0.375,0.0625 L 6.5625,13.1875 6.28125,13.09375 6,13 6.375,13.125 q 0.375,0.125 0.5,0.5 0.125,0.375 0.25,0.75 0.125,0.375 0.5,0.5 L 8,15 v 0.5 Q 8,16 8.015625,16.484375 L 8.03125,16.96875 8.140625,16.984375 8.25,17 8.03125,16.96875 Q 7.8125,16.9375 7.625,16.875 L 7.4375,16.8125 7.71875,16.90625 8,17 7.625,16.875 Q 7.25,16.75 7.125,16.375 7,16 6.875,15.625 6.75,15.25 6.5,15 6.25,14.75 6.125,14.375 6,14 6,13.53125"
       id="path1969" />
    <path
       style="fill:#a00000;fill-opacity:1"
       d="m 13,13.5 q 0.25,-0.25 0.625,-0.375 L 14,13 13.875,13.375 Q 13.75,13.75 13.5,14 13.25,14.25 13,14.5 12.75,14.75 12.5,15 12.25,15.25 12.125,15.625 L 12,16 H 11.5 11 l 0.125,-0.375 Q 11.25,15.25 11.5,15 11.75,14.75 12,14.5 12.25,14.25 12.5,14 12.75,13.75 13,13.5"
       id="path1971" />
    <path
       style="fill:#c00000;fill-opacity:1"
       d="m 18,13.5 q 0.25,-0.25 0.625,-0.375 L 19,13 19.125,13.375 Q 19.25,13.75 19.5,14 q 0.25,0.25 0.25,0.5 0,0.25 -0.25,0.5 -0.25,0.25 -0.375,0.625 L 19,16 18.625,15.875 Q 18.25,15.75 18,15.5 17.75,15.25 17.5,15 q -0.25,-0.25 -0.25,-0.5 0,-0.25 0.25,-0.5 0.25,-0.25 0.5,-0.5 m 0.25,1 q 0,0.25 0.25,0.25 0.25,0 0.25,-0.25 0,-0.25 -0.25,-0.25 -0.25,0 -0.25,0.25 M 18.96875,16.09375 19,16 19.09375,15.71875 19.1875,15.4375 19.125,15.625 Q 19.0625,15.8125 19,16 l -0.0625,0.1875 0.03125,-0.09375 m 0.125,-3.125 L 19,13 18.71875,13.09375 18.4375,13.1875 18.625,13.125 Q 18.8125,13.0625 19,13 l 0.1875,-0.0625 -0.09375,0.03125"
       id="path1973" />
    <path
       style="fill:#a00000;fill-opacity:1"
       d="m 21.25,13.5 q 0,-0.25 0.25,-0.25 0.25,0 0.5,0.25 0.25,0.25 0.625,0.375 L 23,14 l 0.01563,0.484375 0.01563,0.484375 0.109375,0.01563 L 23.25,15 23.03125,14.96875 Q 22.8125,14.9375 22.625,14.875 L 22.4375,14.8125 22.71875,14.90625 23,15 22.625,14.875 Q 22.25,14.75 22,14.5 21.75,14.25 21.5,14 21.25,13.75 21.25,13.5 M 23,14.375 V 14 13.875 13.75 14 q 0,0.25 0,0.5 v 0.25 -0.375"
       id="path1975" />
    <path
       style="fill:#600000;fill-opacity:1"
       d="M 23,13.5 V 13 l 0.375,0.125 q 0.375,0.125 0.5,0.5 Q 24,14 24,14.5 V 15 H 23.5 23 23.375 23.75 23.5 q -0.25,0 -0.46875,-0.03125 l -0.21875,-0.03125 0.109375,0.01563 0.109375,0.01563 -0.01563,-0.484375 Q 23,14 23,13.5 m 1,1.625 V 15 14.625 14.25 14.5 q 0,0.25 0,0.5 v 0.25 -0.125 M 23.28125,13.09375 23,13 22.90625,12.96875 22.8125,12.9375 23,13 q 0.1875,0.0625 0.375,0.125 l 0.1875,0.0625 -0.28125,-0.09375"
       id="path1977" />
    <path
       style="fill:#a00000;fill-opacity:1"
       d="M 5,14.5 V 14 14.375 14.75 14.5 Q 5,14.25 5.03125,14.03125 L 5.0625,13.8125 5.046875,13.921875 5.03125,14.03125 5.53125,14 6.03125,13.96875 6.015625,13.859375 6,13.75 6.03125,13.96875 Q 6.0625,14.1875 6.125,14.375 L 6.1875,14.5625 6.09375,14.28125 6,14 6.125,14.375 Q 6.25,14.75 6.5,15 6.75,15.25 6.875,15.625 L 7,16 H 6.5 6 6.375 6.75 6.5 Q 6.25,16 6.03125,15.96875 L 5.8125,15.9375 5.921875,15.953125 6.03125,15.96875 5.890625,15.609375 Q 5.75,15.25 5.390625,15.109375 L 5.03125,14.96875 5.046875,15.078125 5.0625,15.1875 5.03125,14.96875 Q 5,14.75 5,14.5 V 14.25 14.625 15 14.5 M 7.03125,16.09375 7,16 6.90625,15.71875 6.8125,15.4375 6.875,15.625 Q 6.9375,15.8125 7,16 l 0.0625,0.1875 -0.03125,-0.09375"
       id="path1979" />
    <path
       style="fill:#600000;fill-opacity:1"
       d="M 7.125,14.375 7,14 7.375,14.125 q 0.375,0.125 0.5,0.5 L 8,15 7.625,14.875 Q 7.25,14.75 7.125,14.375 M 6.96875,13.90625 7,14 7.09375,14.28125 7.1875,14.5625 7.125,14.375 Q 7.0625,14.1875 7,14 l -0.0625,-0.1875 0.03125,0.09375"
       id="path1981" />
    <path
       style="fill:#c00000;fill-opacity:1"
       d="m 15.25,14.5 q 0,-0.25 0.25,-0.25 0.25,0 0.25,0.25 0,0.25 -0.25,0.25 -0.25,0 -0.25,-0.25"
       id="path1983" />
    <path
       style="fill:#a00000;fill-opacity:1"
       d="m 18.25,14.5 q 0,-0.25 0.25,-0.25 0.25,0 0.25,0.25 0,0.25 -0.25,0.25 -0.25,0 -0.25,-0.25"
       id="path1985" />
    <path
       style="fill:#c00000;fill-opacity:1"
       d="M 5.125,15.375 5,15 5.09375,15.28125 5.1875,15.5625 5.125,15.375 Q 5.0625,15.1875 5.03125,14.96875 L 5,14.75 5.015625,14.859375 5.03125,14.96875 5.390625,15.109375 q 0.359375,0.140625 0.5,0.5 L 6.03125,15.96875 6.140625,15.984375 6.25,16 6.03125,15.96875 Q 5.8125,15.9375 5.625,15.875 L 5.4375,15.8125 5.71875,15.90625 6,16 5.625,15.875 q -0.375,-0.125 -0.5,-0.5"
       id="path1987" />
    <path
       style="fill:#a00000;fill-opacity:1"
       d="M 8,15.5 V 15 h 0.5 q 0.5,0 1,0 H 10 9.625 9.25 9.5 q 0.25,0 0.46875,-0.03125 L 10.1875,14.9375 10.078125,14.953125 9.96875,14.96875 9.984375,15.484375 10,16 H 9.5 Q 9,16 8.5,16 H 8 v -0.5 m 0,0.125 V 16 16.125 16.25 16 q 0,-0.25 0,-0.5 v -0.25 0.375"
       id="path1989" />
    <path
       style="fill:#e00000;fill-opacity:1"
       d="M 14,15.5 V 15 l 0.375,0.125 Q 14.75,15.25 15,15.5 q 0.25,0.25 0.5,0.25 0.25,0 0.5,-0.25 0.25,-0.25 0.5,-0.25 0.25,0 0.5,0.25 0.25,0.25 0.5,0.5 0.25,0.25 0.25,0.5 0,0.25 -0.25,0.5 -0.25,0.25 -0.5,0.5 -0.25,0.25 -0.5,0.25 -0.25,0 -0.5,-0.25 Q 15.75,17.25 15.5,17 15.25,16.75 15,16.5 14.75,16.25 14.375,16.125 L 14,16 v -0.5 m 0,0.125 V 16 16.125 16.25 16 q 0,-0.25 0,-0.5 v -0.25 0.375 m 2.25,0.875 q 0,0.25 0.25,0.25 0.25,0 0.25,-0.25 0,-0.25 -0.25,-0.25 -0.25,0 -0.25,0.25"
       id="path1991" />
    <path
       style="fill:#000000;fill-opacity:1"
       d="M 21,15.5 V 15 15.375 15.75 15.5 q 0,-0.25 -0.03125,-0.46875 l -0.03125,-0.21875 0.01563,0.109375 0.01563,0.109375 0.390625,0.109375 Q 21.75,15.25 21.875,15.625 22,16 22.125,16.375 22.25,16.75 22.5,17 q 0.25,0.25 0.25,0.5 0,0.25 -0.25,0.5 -0.25,0.25 -0.375,0.625 L 22,19 22.09375,18.71875 22.1875,18.4375 22.125,18.625 q -0.0625,0.1875 -0.09375,0.40625 L 22,19.25 22.015625,19.140625 22.03125,19.03125 21.640625,18.890625 Q 21.25,18.75 21.125,18.375 21,18 21,17.5 q 0,-0.5 0,-1 0,-0.5 0,-1"
       id="path1993" />
    <path
       style="fill:#800000;fill-opacity:1"
       d="M 24.875,15.375 25,15 24.90625,15.28125 24.8125,15.5625 24.875,15.375 q 0.0625,-0.1875 0.09375,-0.40625 L 25,14.75 l -0.01563,0.109375 -0.01563,0.109375 0.390625,0.140625 Q 25.75,15.25 25.875,15.625 L 26,16 25.90625,15.71875 25.8125,15.4375 25.875,15.625 q 0.0625,0.1875 0.09375,0.40625 L 26,16.25 25.984375,16.140625 25.96875,16.03125 25.609375,16.140625 Q 25.25,16.25 25.125,16.625 25,17 25,17.5 25,18 24.875,18.375 24.75,18.75 24.5,19 24.25,19.25 24,19.5 23.75,19.75 23.5,20 23.25,20.25 23,20.5 22.75,20.75 22.5,21 22.25,21.25 22.125,21.625 22,22 22,22.5 q 0,0.5 0,1 V 24 L 21.625,23.875 Q 21.25,23.75 21.125,23.375 21,23 21,22.5 q 0,-0.5 0,-1 0,-0.5 -0.125,-0.875 -0.125,-0.375 -0.5,-0.5 L 20,20 20.28125,20.09375 20.5625,20.1875 20.375,20.125 Q 20.1875,20.0625 20,20.0625 H 19.8125 19.90625 20 l 0.125,-0.40625 Q 20.25,19.25 20.5,19.25 q 0.25,0 0.5,0.25 0.25,0.25 0.625,0.375 0.375,0.125 0.75,0 0.375,-0.125 0.5,-0.5 L 23,19 23.375,18.875 q 0.375,-0.125 0.5,-0.5 Q 24,18 24,17.5 24,17 24,16.5 V 16 l 0.375,-0.125 q 0.375,-0.125 0.5,-0.5 M 23.03125,18.90625 23,19 22.90625,19.28125 22.8125,19.5625 22.875,19.375 Q 22.9375,19.1875 23,19 l 0.0625,-0.1875 -0.03125,0.09375"
       id="path1995" />
    <path
       style="fill:#c00000;fill-opacity:1"
       d="m 28.125,15.625 q 0.125,-0.375 0.5,-0.5 Q 29,15 29.484375,14.984375 L 29.96875,14.96875 29.984375,14.859375 30,14.75 29.96875,14.96875 Q 29.9375,15.1875 29.875,15.375 L 29.8125,15.5625 29.90625,15.28125 30,15 29.875,15.375 Q 29.75,15.75 29.5,16 29.25,16.25 29,16.5 28.75,16.75 28.5,17 28.25,17.25 28.125,17.625 28,18 27.875,18.375 27.75,18.75 27.5,19 27.25,19.25 27.125,19.625 27,20 26.9375,20.5625 L 26.875,21.125 26.9375,21.1875 27,21.25 26.875,21.125 Q 26.75,21 26.5,21 H 26.25 26.625 27 26.5 26 26.375 26.75 26.5 q -0.25,0 -0.375,0.125 L 26,21.25 26.0625,21.1875 26.125,21.125 26.0625,20.5625 Q 26,20 26.125,19.625 26.25,19.25 26.5,19 26.75,18.75 26.875,18.375 27,18 26.984375,17.484375 L 26.96875,16.96875 26.859375,16.984375 26.75,17 26.96875,16.96875 Q 27.1875,16.9375 27.375,16.875 L 27.5625,16.8125 27.28125,16.90625 27,17 27.375,16.875 q 0.375,-0.125 0.5,-0.5 Q 28,16 28.125,15.625"
       id="path1997" />
    <path
       style="fill:#c00000;fill-opacity:1"
       d="M 8.015625,16.484375 8,16 H 8.5 9 V 16.5 17 H 8.5 8 8.375 8.75 8.5 Q 8.25,17 8.03125,16.96875 L 7.8125,16.9375 7.921875,16.953125 8.03125,16.96875 8.015625,16.484375 M 8.625,17 H 9 9.125 9.25 9 Q 8.75,17 8.5,17 H 8.25 8.625 m 0.5,-1 H 9 8.625 8.25 8.5 Q 8.75,16 9,16 H 9.25 9.125 M 8,15.875 V 16 16.375 16.75 16.5 Q 8,16.25 8,16 v -0.25 0.125"
       id="path1999" />
    <path
       style="fill:#800000;fill-opacity:1"
       d="M 9,16.5 V 16 H 9.5 10 V 16.5 17 H 9.5 9 V 16.5 M 8.875,17 H 9 9.375 9.75 9.5 Q 9.25,17 9,17 H 8.75 8.875 m 0.75,0 H 10 10.125 10.25 10 Q 9.75,17 9.5,17 H 9.25 9.625 M 9.375,16 H 9 8.875 8.75 9 q 0.25,0 0.5,0 H 9.75 9.375"
       id="path2001" />
    <path
       style="fill:#600000;fill-opacity:1"
       d="M 10,16.5 V 16 h 0.5 0.5 l -0.01563,0.484375 -0.01563,0.484375 0.109375,-0.01563 0.109375,-0.01563 -0.21875,0.03125 Q 10.75,17 10.5,17 H 10.25 10.625 11 10.5 10 V 16.5 M 9.875,17 H 10 10.375 10.75 10.5 Q 10.25,17 10,17 H 9.75 9.875"
       id="path2003" />
    <path
       style="fill:#800000;fill-opacity:1"
       d="M 10.984375,16.484375 11,16 h 0.5 0.5 l -0.125,0.375 q -0.125,0.375 -0.5,0.5 L 11,17 11.28125,16.90625 11.5625,16.8125 11.375,16.875 q -0.1875,0.0625 -0.40625,0.09375 L 10.75,17 l 0.109375,-0.01563 0.109375,-0.01563 0.01563,-0.484375"
       id="path2005" />
    <path
       style="fill:#a00000;fill-opacity:1"
       d="m 16.25,16.5 q 0,-0.25 0.25,-0.25 0.25,0 0.25,0.25 0,0.25 -0.25,0.25 -0.25,0 -0.25,-0.25"
       id="path2007" />
    <path
       style="fill:#600000;fill-opacity:1"
       d="m 20,16.5 q 0.25,-0.25 0.625,-0.375 L 21,16 v 0.5 0.5 l -0.375,0.125 Q 20.25,17.25 20.25,17.5 q 0,0.25 0.390625,0.359375 L 21.03125,17.96875 21.015625,17.859375 21,17.75 21.03125,17.96875 Q 21.0625,18.1875 21.125,18.375 L 21.1875,18.5625 21.09375,18.28125 21,18 l 0.125,0.375 q 0.125,0.375 0.515625,0.515625 l 0.390625,0.140625 0.01563,-0.109375 0.01563,-0.109375 -0.03125,0.21875 Q 22,19.25 22,19.5 V 19.75 19.375 19 19.46875 19.9375 H 22.09375 22.1875 22 q -0.1875,0 -0.375,-0.0625 L 21.4375,19.8125 21.71875,19.90625 22,20 21.625,19.875 Q 21.25,19.75 21,19.5 q -0.25,-0.25 -0.5,-0.25 -0.25,0 -0.375,0.40625 L 20,20.0625 H 20.09375 20.1875 20 q -0.1875,0 -0.375,0.0625 L 19.4375,20.1875 19.71875,20.09375 20,20 19.625,20.125 Q 19.25,20.25 19,20.5 18.75,20.75 18.5,21 18.25,21.25 18.125,21.625 L 18,22 h -0.5 q -0.5,0 -0.984375,0.01563 L 16.03125,22.03125 16.015625,22.140625 16,22.25 16.03125,22.03125 Q 16.0625,21.8125 16.125,21.625 L 16.1875,21.4375 16.09375,21.71875 16,22 16.125,21.625 q 0.125,-0.375 0.5,-0.5 Q 17,21 17.375,20.875 17.75,20.75 18,20.5 q 0.25,-0.25 0.5,-0.5 0.25,-0.25 0.5,-0.5 0.25,-0.25 0.5,-0.5 0.25,-0.25 0.25,-0.5 0,-0.25 -0.25,-0.5 -0.25,-0.25 -0.25,-0.5 0,-0.25 0.25,-0.5 0.25,-0.25 0.5,-0.5 m 1,0.625 V 17 16.625 16.25 16.5 q 0,0.25 0,0.5 v 0.25 -0.125 m 0,-0.75 V 16 15.875 15.75 16 q 0,0.25 0,0.5 v 0.25 -0.375"
       id="path2009" />
    <path
       style="fill:#a00000;fill-opacity:1"
       d="m 23.25,16.5 q 0,-0.25 0.375,-0.375 L 24,16 V 16.5 17 L 23.625,16.875 Q 23.25,16.75 23.25,16.5 M 24,17.125 V 17 16.625 16.25 16.5 q 0,0.25 0,0.5 v 0.25 -0.125"
       id="path2011" />
    <path
       style="fill:#c06060;fill-opacity:1"
       d="M 12.125,17.625 Q 12.25,17.25 12.5,17.25 q 0.25,0 0.375,0.375 L 13,18 12.90625,17.71875 12.8125,17.4375 12.875,17.625 q 0.0625,0.1875 0.09375,0.40625 L 13,18.25 12.984375,18.140625 12.96875,18.03125 12.484375,18.015625 12,18 12.125,17.625"
       id="path2013" />
    <path
       style="fill:#800000;fill-opacity:1"
       d="m 20.25,17.5 q 0,-0.25 0.375,-0.375 L 21,17 V 17.5 18 17.625 17.25 17.5 q 0,0.25 0.03125,0.46875 L 21.0625,18.1875 21.046875,18.078125 21.03125,17.96875 20.640625,17.859375 Q 20.25,17.75 20.25,17.5 M 21,17.375 V 17 16.875 16.75 17 q 0,0.25 0,0.5 v 0.25 -0.375"
       id="path2015" />
    <path
       style="fill:#a05050;fill-opacity:1"
       d="M 26,17.5 V 17 H 26.5 27 26.625 26.25 26.5 q 0.25,0 0.46875,-0.03125 l 0.21875,-0.03125 -0.109375,0.01563 -0.109375,0.01563 0.01563,0.515625 Q 27,18 26.875,18.375 26.75,18.75 26.5,19 26.25,19.25 26.125,19.625 L 26,20 26.09375,19.71875 26.1875,19.4375 26.125,19.625 q -0.0625,0.1875 -0.09375,0.40625 L 26,20.25 26.015625,20.140625 26.03125,20.03125 25.640625,19.890625 Q 25.25,19.75 25.25,19.5 25.25,19.25 25.5,19 25.75,18.75 25.875,18.375 26,18 26,17.5 m 0,-0.625 V 17 17.375 17.75 17.5 q 0,-0.25 0,-0.5 v -0.25 0.125"
       id="path2017" />
    <path
       style="fill:#800000;fill-opacity:1"
       d="m 11.125,18.625 q 0.125,-0.375 0.5,-0.5 L 12,18 V 18.5 19 H 11.53125 11.0625 V 19.09375 19.1875 19 q 0,-0.1875 0.0625,-0.375 L 11.1875,18.4375 11.09375,18.71875 11,19 11.125,18.625 M 12,19.125 V 19 18.625 18.25 18.5 q 0,0.25 0,0.5 v 0.25 -0.125"
       id="path2019" />
    <path
       style="fill:#a05050;fill-opacity:1"
       d="M 12,18.5 V 18 l 0.484375,0.01563 0.484375,0.01563 -0.01563,-0.109375 -0.01563,-0.109375 0.03125,0.21875 Q 13,18.25 13,18.5 V 18.75 18.375 18 18.5 q 0,0.5 0,1 0,0.5 0,1 V 21 L 12.625,20.875 Q 12.25,20.75 12.125,20.375 12,20 12,19.5 q 0,-0.5 0,-1"
       id="path2021" />
    <path
       style="fill:#a00000;fill-opacity:1"
       d="M 14,18.5 V 18 l 0.375,0.125 q 0.375,0.125 0.375,0.375 0,0.25 -0.375,0.375 L 14,19 v -0.5 m 0,0.125 V 19 19.125 19.25 19 q 0,-0.25 0,-0.5 v -0.25 0.375 m 0,-0.75 V 18 18.375 18.75 18.5 q 0,-0.25 0,-0.5 v -0.25 0.125"
       id="path2023" />
    <path
       style="fill:#800000;fill-opacity:1"
       d="M 17.125,18.625 Q 17.25,18.25 17.5,18.25 q 0.25,0 0.25,0.25 0,0.25 -0.375,0.375 L 17,19 17.125,18.625"
       id="path2025" />
    <path
       style="fill:#a00000;fill-opacity:1"
       d="M 23.125,18.625 Q 23.25,18.25 23.609375,18.109375 L 23.96875,17.96875 23.984375,17.859375 24,17.75 23.96875,17.96875 Q 23.9375,18.1875 23.875,18.375 L 23.8125,18.5625 23.90625,18.28125 24,18 23.875,18.375 q -0.125,0.375 -0.5,0.5 L 23,19 23.125,18.625 M 23.09375,18.71875 23,19 22.96875,19.09375 22.9375,19.1875 23,19 q 0.0625,-0.1875 0.125,-0.375 l 0.0625,-0.1875 -0.09375,0.28125"
       id="path2027" />
    <path
       style="fill:#c00000;fill-opacity:1"
       d="M 11.125,19.375 11,19 11.09375,19.28125 11.1875,19.5625 11.125,19.375 Q 11.0625,19.1875 11.0625,19 V 18.8125 18.90625 19 H 11.53125 12 V 19.5 20 19.625 19.25 19.5 q 0,0.25 0.03125,0.46875 L 12.0625,20.1875 12.046875,20.078125 12.03125,19.96875 11.640625,19.859375 Q 11.25,19.75 11.125,19.375 m 0.875,0 V 19 18.875 18.75 19 q 0,0.25 0,0.5 v 0.25 -0.375"
       id="path2029" />
    <path
       style="fill:#a00000;fill-opacity:1"
       d="m 15.25,19.5 q 0,-0.25 0.25,-0.25 0.25,0 0.25,0.25 0,0.25 -0.25,0.25 -0.25,0 -0.25,-0.25"
       id="path2031" />
    <path
       style="fill:#a00000;fill-opacity:1"
       d="M 13,20.5 V 20 h 0.5 0.5 l 0.125,0.375 q 0.125,0.375 0.484375,0.515625 L 14.96875,21.03125 14.953125,20.921875 14.9375,20.8125 14.96875,21.03125 Q 15,21.25 15,21.5 V 21.75 21.375 21 21.5 22 21.625 21.25 21.5 q 0,0.25 -0.03125,0.46875 l -0.03125,0.21875 0.01563,-0.109375 0.01563,-0.109375 -0.359375,0.140625 Q 14.25,22.25 14,22.5 q -0.25,0.25 -0.5,0.25 -0.25,0 -0.25,-0.25 0,-0.25 0.25,-0.5 0.25,-0.25 0.25,-0.5 0,-0.25 -0.375,-0.375 L 13,21 v -0.5 m 0,-0.625 V 20 20.375 20.75 20.5 q 0,-0.25 0,-0.5 v -0.25 0.125"
       id="path2033" />
    <path
       style="fill:#600000;fill-opacity:1"
       d="M 14.125,20.375 14,20 l 0.375,0.125 q 0.375,0.125 0.5,0.5 L 15,21 14.90625,20.71875 14.8125,20.4375 14.875,20.625 q 0.0625,0.1875 0.09375,0.40625 L 15,21.25 14.984375,21.140625 14.96875,21.03125 14.609375,20.890625 Q 14.25,20.75 14.125,20.375"
       id="path2035" />
    <path
       style="fill:#a00000;fill-opacity:1"
       d="m 19,20.5 q 0.25,-0.25 0.625,-0.375 0.375,-0.125 0.75,0 0.375,0.125 0.5,0.5 Q 21,21 21,21.5 V 22 L 20.625,21.875 Q 20.25,21.75 20,21.5 q -0.25,-0.25 -0.5,-0.25 -0.25,0 -0.5,0.25 -0.25,0.25 -0.625,0.375 L 18,22 18.125,21.625 Q 18.25,21.25 18.5,21 18.75,20.75 19,20.5 m 2,1.625 V 22 21.625 21.25 21.5 q 0,0.25 0,0.5 v 0.25 -0.125"
       id="path2037" />
    <path
       style="fill:#000000;fill-opacity:0"
       d="M 24.125,20.625 Q 24.25,20.25 24.5,20.25 q 0.25,0 0.375,0.375 Q 25,21 25,21.5 q 0,0.5 0.375,0.625 0.375,0.125 0.5,0.5 Q 26,23 25.5,23 q -0.5,0 -1,0 -0.5,0 -1,0 -0.5,0 -0.5,-0.5 0,-0.5 0.125,-0.875 0.125,-0.375 0.5,-0.5 0.375,-0.125 0.5,-0.5"
       id="path2039" />
    <path
       style="fill:#c00000;fill-opacity:1"
       d="M 12.875,21.375 13,21 l 0.375,0.125 q 0.375,0.125 0.375,0.375 0,0.25 -0.25,0.5 -0.25,0.25 -0.25,0.5 0,0.25 0.25,0.25 0.25,0 0.5,-0.25 0.25,-0.25 0.609375,-0.390625 L 14.96875,21.96875 14.984375,21.859375 15,21.75 14.96875,21.96875 Q 14.9375,22.1875 14.875,22.375 L 14.8125,22.5625 14.90625,22.28125 15,22 14.875,22.375 Q 14.75,22.75 14.5,23 q -0.25,0.25 -0.390625,0.640625 l -0.140625,0.390625 0.109375,0.01563 0.109375,0.01563 -0.21875,-0.03125 Q 13.75,24 13.5,24 H 13.25 13.625 14 13.5 Q 13,24 12.625,23.875 12.25,23.75 12.125,23.375 12,23 12.125,22.625 12.25,22.25 12.5,22 q 0.25,-0.25 0.375,-0.625"
       id="path2041" />
    <path
       style="fill:#c00000;fill-opacity:1"
       d="m 19,21.5 q 0.25,-0.25 0.5,-0.25 0.25,0 0.5,0.25 0.25,0.25 0.625,0.375 L 21,22 V 22.5 23 22.625 22.25 22.5 q 0,0.25 0.03125,0.46875 l 0.03125,0.21875 -0.01563,-0.109375 -0.01563,-0.109375 -0.390625,0.140625 Q 20.25,23.25 20,23.5 19.75,23.75 19.375,23.875 L 19,24 18.875,23.625 Q 18.75,23.25 18.5,23 18.25,22.75 18.125,22.375 L 18,22 18.375,21.875 Q 18.75,21.75 19,21.5 m 0.25,1 q 0,0.25 0.25,0.25 0.25,0 0.25,-0.25 0,-0.25 -0.25,-0.25 -0.25,0 -0.25,0.25 M 18.90625,23.71875 19,24 19.03125,24.09375 19.0625,24.1875 19,24 q -0.0625,-0.1875 -0.125,-0.375 l -0.0625,-0.1875 0.09375,0.28125 M 21,22.375 V 22 21.875 21.75 22 q 0,0.25 0,0.5 v 0.25 -0.375"
       id="path2043" />
    <path
       style="fill:#e0a8a8;fill-opacity:1"
       d="M 26.125,21.375 Q 26,21 26.5,21 27,21 26.875,21.375 26.75,21.75 26.5,21.75 q -0.25,0 -0.375,-0.375"
       id="path2045" />
    <path
       style="fill:#a00000;fill-opacity:1"
       d="m 19.25,22.5 q 0,-0.25 0.25,-0.25 0.25,0 0.25,0.25 0,0.25 -0.25,0.25 -0.25,0 -0.25,-0.25"
       id="path2047" />
    <path
       style="fill:#600000;fill-opacity:1"
       d="m 15.25,23.5 q 0,-0.25 0.390625,-0.390625 L 16.03125,22.96875 16.015625,22.859375 16,22.75 16.03125,22.96875 Q 16.0625,23.1875 16.125,23.375 L 16.1875,23.5625 16.09375,23.28125 16,23 16.125,23.375 Q 16.25,23.75 16.5,24 16.75,24.25 16.875,24.625 17,25 17,25.5 V 26 h -0.5 q -0.5,0 -1,0 H 15 V 25.5 25 l 0.375,-0.125 Q 15.75,24.75 15.75,24.5 15.75,24.25 15.5,24 15.25,23.75 15.25,23.5 M 17,26.125 V 26 25.625 25.25 25.5 q 0,0.25 0,0.5 v 0.25 -0.125"
       id="path2049" />
    <path
       style="fill:#a00000;fill-opacity:1"
       d="m 20,23.5 q 0.25,-0.25 0.640625,-0.390625 L 21.03125,22.96875 21.015625,22.859375 21,22.75 21.03125,22.96875 Q 21.0625,23.1875 21.125,23.375 L 21.1875,23.5625 21.09375,23.28125 21,23 l 0.125,0.375 q 0.125,0.375 0.5,0.5 L 22,24 21.875,24.375 q -0.125,0.375 -0.5,0.5 Q 21,25 20.5,25 20,25 19.625,24.875 19.25,24.75 19.125,24.375 L 19,24 19.375,23.875 Q 19.75,23.75 20,23.5 M 18.96875,23.90625 19,24 19.09375,24.28125 19.1875,24.5625 19.125,24.375 Q 19.0625,24.1875 19,24 l -0.0625,-0.1875 0.03125,0.09375"
       id="path2051" />
    <path
       style="fill:#a00000;fill-opacity:1"
       d="M 13.140625,24.359375 13.03125,23.96875 12.921875,23.953125 12.8125,23.9375 13.03125,23.96875 Q 13.25,24 13.5,24 H 13.75 13.375 13 13.5 q 0.5,0 0.875,0.125 0.375,0.125 0.5,0.5 L 15,25 H 14.5 Q 14,25 13.625,24.875 13.25,24.75 13.140625,24.359375"
       id="path2053" />
    <path
       style="fill:#600000;fill-opacity:1"
       d="M 21.875,24.375 22,24 H 22.5 23 22.625 22.25 22.5 q 0.25,0 0.46875,0.03125 l 0.21875,0.03125 -0.109375,-0.01563 -0.109375,-0.01563 -0.109375,0.359375 Q 22.75,24.75 22.5,25 22.25,25.25 22.125,25.625 L 22,26 H 21.5 Q 21,26 20.625,25.875 20.25,25.75 20.140625,25.359375 L 20.03125,24.96875 19.921875,24.953125 19.8125,24.9375 20.03125,24.96875 Q 20.25,25 20.5,25 H 20.75 20.375 20 20.5 q 0.5,0 0.875,-0.125 0.375,-0.125 0.5,-0.5"
       id="path2055" />
    <path
       style="fill:#800000;fill-opacity:1"
       d="M 22.859375,24.390625 22.96875,24.03125 22.859375,24.015625 22.75,24 22.96875,24.03125 Q 23.1875,24.0625 23.375,24.125 L 23.5625,24.1875 23.28125,24.09375 23,24 l 0.375,0.125 q 0.375,0.125 0.5,0.5 L 24,25 23.90625,24.71875 23.8125,24.4375 23.875,24.625 q 0.0625,0.1875 0.09375,0.40625 L 24,25.25 23.984375,25.140625 23.96875,25.03125 23.609375,25.140625 Q 23.25,25.25 23,25.5 22.75,25.75 22.375,25.875 L 22,26 22.125,25.625 Q 22.25,25.25 22.5,25 q 0.25,-0.25 0.359375,-0.609375"
       id="path2057" />
    <path
       style="fill:#a00000;fill-opacity:1"
       d="m 23,25.5 q 0.25,-0.25 0.609375,-0.359375 L 23.96875,25.03125 23.953125,24.921875 23.9375,24.8125 23.96875,25.03125 Q 24,25.25 24,25.5 V 25.75 25.375 25 25.5 q 0,0.5 0,1 0,0.5 0,1 0,0.5 -0.125,0.875 -0.125,0.375 -0.5,0.5 L 23,29 22.875,28.625 Q 22.75,28.25 22.5,28 22.25,27.75 22.125,27.375 22,27 22,26.5 V 26 l 0.375,-0.125 Q 22.75,25.75 23,25.5"
       id="path2059" />
    <path
       style="fill:#e00000;fill-opacity:1"
       d="m 14,26.5 q 0.25,-0.25 0.625,-0.375 L 15,26 14.875,26.375 Q 14.75,26.75 14.5,27 q -0.25,0.25 -0.25,0.5 0,0.25 0.375,0.375 L 15,28 14.71875,27.90625 14.4375,27.8125 14.625,27.875 Q 14.8125,27.9375 15,27.9375 H 15.1875 15.09375 15 V 28.46875 29 H 14.5 14 L 13.875,28.625 Q 13.75,28.25 13.390625,28.140625 L 13.03125,28.03125 13.015625,28.140625 13,28.25 13.03125,28.03125 Q 13.0625,27.8125 13.125,27.625 L 13.1875,27.4375 13.09375,27.71875 13,28 13.125,27.625 Q 13.25,27.25 13.5,27 13.75,26.75 14,26.5 M 13.875,29 H 14 14.375 14.75 14.5 q -0.25,0 -0.5,0 h -0.25 0.125 M 15,29.125 V 29 28.625 28.25 28.5 q 0,0.25 0,0.5 v 0.25 -0.125"
       id="path2061" />
    <path
       style="fill:#a00000;fill-opacity:1"
       d="M 14.875,26.375 15,26 h 0.5 0.5 v 0.5 q 0,0.5 -0.125,0.875 -0.125,0.375 -0.5,0.5 Q 15,28 14.625,27.875 14.25,27.75 14.25,27.5 q 0,-0.25 0.25,-0.5 0.25,-0.25 0.375,-0.625 M 16.125,26 H 16 15.625 15.25 15.5 q 0.25,0 0.5,0 h 0.25 -0.125"
       id="path2063" />
    <path
       style="fill:#800000;fill-opacity:1"
       d="M 16,26.5 V 26 h 0.5 0.5 v 0.5 Q 17,27 16.875,27.375 16.75,27.75 16.5,28 16.25,28.25 16.125,28.625 16,29 16,29.5 16,30 15.875,30.375 15.75,30.75 15.3125,30.8125 L 14.875,30.875 14.8125,30.9375 14.75,31 14.875,30.875 Q 15,30.75 15,30.5 V 30.25 30.625 31 30.5 q 0,-0.5 0,-1 0,-0.5 0,-1.03125 V 27.9375 H 14.90625 14.8125 15 q 0.1875,0 0.375,-0.0625 L 15.5625,27.8125 15.28125,27.90625 15,28 15.375,27.875 q 0.375,-0.125 0.5,-0.5 Q 16,27 16,26.5 m 1,-0.125 V 26 25.875 25.75 26 q 0,0.25 0,0.5 v 0.25 -0.375 M 16.375,26 H 16 15.875 15.75 16 q 0.25,0 0.5,0 h 0.25 -0.375"
       id="path2065" />
    <path
       style="fill:#e00000;fill-opacity:1"
       d="M 21.015625,26.484375 21.03125,25.96875 20.921875,25.953125 20.8125,25.9375 21.03125,25.96875 Q 21.25,26 21.5,26 H 21.75 21.375 21 21.5 22 v 0.5 q 0,0.5 0.125,0.875 0.125,0.375 0.375,0.625 0.25,0.25 0.375,0.625 L 23,29 H 22.5 22 l -0.125,-0.375 q -0.125,-0.375 -0.5,-0.5 L 21,28 v -0.5 q 0,-0.5 0.01563,-1.015625 M 21,27.625 V 28 28.125 28.25 28 q 0,-0.25 0,-0.5 v -0.25 0.375 M 21.875,29 H 22 22.375 22.75 22.5 q -0.25,0 -0.5,0 h -0.25 0.125"
       id="path2067" />
    <path
       style="fill:#800000;fill-opacity:1"
       d="M 24,27.5 V 27 l 0.375,0.125 q 0.375,0.125 0.5,0.5 Q 25,28 25,28.5 25,29 24.875,29.375 24.75,29.75 24.5,30 24.25,30.25 24,30.5 23.75,30.75 23.3125,30.8125 L 22.875,30.875 22.8125,30.9375 22.75,31 22.875,30.875 Q 23,30.75 23,30.5 V 30.25 30.625 31 30.5 q 0,-0.5 0,-1 V 29 l 0.375,-0.125 q 0.375,-0.125 0.5,-0.5 Q 24,28 24,27.5 m 0,-0.625 V 27 27.375 27.75 27.5 q 0,-0.25 0,-0.5 v -0.25 0.125"
       id="path2069" />
    <path
       style="fill:#a00000;fill-opacity:1"
       d="M 13.015625,28.515625 13,28 v 0.375 0.375 -0.25 q 0,-0.25 0.03125,-0.46875 l 0.03125,-0.21875 -0.01563,0.109375 -0.01563,0.109375 0.359375,0.109375 Q 13.75,28.25 13.875,28.625 L 14,29 H 13.5 13 13.375 13.75 13.5 q -0.25,0 -0.46875,0.03125 l -0.21875,0.03125 0.109375,-0.01563 0.109375,-0.01563 -0.01563,-0.515625 M 13.625,29 H 14 14.125 14.25 14 q -0.25,0 -0.5,0 h -0.25 0.375"
       id="path2071" />
    <path
       style="fill:#a00000;fill-opacity:1"
       d="M 21.015625,28.515625 21,28 l 0.375,0.125 q 0.375,0.125 0.5,0.5 L 22,29 H 21.5 21 21.375 21.75 21.5 q -0.25,0 -0.46875,0.03125 l -0.21875,0.03125 0.109375,-0.01563 0.109375,-0.01563 -0.01563,-0.515625 M 21.625,29 H 22 22.125 22.25 22 q -0.25,0 -0.5,0 h -0.25 0.375 M 21,27.875 V 28 28.375 28.75 28.5 q 0,-0.25 0,-0.5 v -0.25 0.125"
       id="path2073" />
    <path
       style="fill:#ffc0c0;fill-opacity:1"
       d="m 12.125,29.625 q 0.125,-0.375 0.5,-0.5 L 13,29 12.71875,29.09375 12.4375,29.1875 12.625,29.125 q 0.1875,-0.0625 0.40625,-0.09375 L 13.25,29 l -0.109375,0.01563 -0.109375,0.01563 -0.140625,0.359375 Q 12.75,29.75 12.375,29.875 L 12,30 12.125,29.625"
       id="path2075" />
    <path
       style="fill:#e0a8a8;fill-opacity:1"
       d="M 12.890625,29.390625 13.03125,29.03125 12.921875,29.046875 12.8125,29.0625 13.03125,29.03125 Q 13.25,29 13.5,29 H 13.75 13.375 13 13.5 14 l 0.125,0.375 q 0.125,0.375 -0.140625,0.671875 l -0.265625,0.296875 0.04687,0.04687 0.04687,0.04687 -0.09375,-0.09375 Q 13.625,30.25 13.5,30.25 H 13.375 13.5625 13.75 13.5 q -0.25,0 -0.375,0.375 -0.125,0.375 -0.5,0.25 -0.375,-0.125 -0.5,-0.5 L 12,30 12.375,29.875 q 0.375,-0.125 0.515625,-0.484375"
       id="path2077" />
    <path
       style="fill:#c09090;fill-opacity:1"
       d="M 14.125,29.375 14,29 h 0.5 0.5 v 0.5 q 0,0.5 0,1 Q 15,31 14.5,31 14,31 13.875,30.625 L 13.75,30.25 13.84375,30.53125 13.9375,30.8125 13.875,30.625 Q 13.8125,30.4375 13.71875,30.34375 L 13.625,30.25 l 0.04687,0.04687 0.04687,0.04687 0.265625,-0.296875 Q 14.25,29.75 14.125,29.375 m 0.875,0 V 29 28.875 28.75 29 q 0,0.25 0,0.5 v 0.25 -0.375"
       id="path2079" />
    <path
       style="fill:#000000;fill-opacity:0"
       d="m 18,29.5 q 0,-0.5 0.5,-0.5 0.5,0 0.5,0.5 0,0.5 0,1 0,0.5 0.375,0.625 0.375,0.125 0.5,0.5 L 20,32 H 19.5 19 18.5 18 17.5 17 16.5 16 l 0.125,-0.375 q 0.125,-0.375 0.5,-0.5 Q 17,31 17,30.5 17,30 17.5,30 18,30 18,29.5"
       id="path2081" />
    <path
       style="fill:#ffc0c0;fill-opacity:1"
       d="m 20.125,29.625 q 0.125,-0.375 0.5,-0.5 L 21,29 20.71875,29.09375 20.4375,29.1875 20.625,29.125 q 0.1875,-0.0625 0.40625,-0.09375 L 21.25,29 l -0.109375,0.01563 -0.109375,0.01563 -0.140625,0.359375 Q 20.75,29.75 21.015625,30.046875 l 0.265625,0.296875 0.04687,-0.04687 L 21.375,30.25 21.28125,30.34375 Q 21.1875,30.4375 21.125,30.625 L 21.0625,30.8125 21.15625,30.53125 21.25,30.25 21.125,30.625 Q 21,31 20.625,30.875 20.25,30.75 20.125,30.375 20,30 20.125,29.625"
       id="path2083" />
    <path
       style="fill:#e0a8a8;fill-opacity:1"
       d="M 20.890625,29.390625 21.03125,29.03125 20.921875,29.046875 20.8125,29.0625 21.03125,29.03125 Q 21.25,29 21.5,29 H 21.75 21.375 21 21.5 22 l 0.125,0.375 q 0.125,0.375 -0.140625,0.671875 l -0.265625,0.296875 0.04687,0.04687 0.04687,0.04687 -0.09375,-0.09375 Q 21.625,30.25 21.5,30.25 H 21.375 21.5625 21.75 21.5 21.25 21.4375 21.625 21.5 q -0.125,0 -0.21875,0.09375 l -0.09375,0.09375 0.04687,-0.04687 0.04687,-0.04687 -0.265625,-0.296875 Q 20.75,29.75 20.890625,29.390625"
       id="path2085" />
    <path
       style="fill:#c09090;fill-opacity:1"
       d="M 22.125,29.375 22,29 h 0.5 0.5 v 0.5 q 0,0.5 0,1 Q 23,31 22.5,31 22,31 21.875,30.625 L 21.75,30.25 21.84375,30.53125 21.9375,30.8125 21.875,30.625 Q 21.8125,30.4375 21.71875,30.34375 L 21.625,30.25 l 0.04687,0.04687 0.04687,0.04687 0.265625,-0.296875 Q 22.25,29.75 22.125,29.375"
       id="path2087" />
    <path
       style="fill:#300000;fill-opacity:1"
       d="M 13.125,30.625 Q 13.25,30.25 13.5,30.25 q 0.25,0 0.375,0.375 L 14,31 13.90625,30.71875 13.8125,30.4375 13.875,30.625 q 0.0625,0.1875 0.21875,0.28125 L 14.25,31 14.171875,30.953125 14.09375,30.90625 H 13.5 12.90625 l -0.07813,0.04687 L 12.75,31 12.90625,30.90625 Q 13.0625,30.8125 13.125,30.625 L 13.1875,30.4375 13.09375,30.71875 13,31 13.125,30.625"
       id="path2089" />
    <path
       style="fill:#300000;fill-opacity:1"
       d="M 21.125,30.625 Q 21.25,30.25 21.5,30.25 q 0.25,0 0.375,0.375 L 22,31 21.90625,30.71875 21.8125,30.4375 21.875,30.625 q 0.0625,0.1875 0.21875,0.28125 L 22.25,31 22.171875,30.953125 22.09375,30.90625 H 21.5 20.90625 l -0.07813,0.04687 L 20.75,31 20.90625,30.90625 Q 21.0625,30.8125 21.125,30.625 L 21.1875,30.4375 21.09375,30.71875 21,31 21.125,30.625"
       id="path2091" />
  </g>
</svg>
