<?xml version="1.0" encoding="UTF-8" standalone="no"?>
<!-- Created with Inkscape (http://www.inkscape.org/) -->

<svg
   xmlns:dc="http://purl.org/dc/elements/1.1/"
   xmlns:cc="http://creativecommons.org/ns#"
   xmlns:rdf="http://www.w3.org/1999/02/22-rdf-syntax-ns#"
   xmlns:svg="http://www.w3.org/2000/svg"
   xmlns="http://www.w3.org/2000/svg"
   xmlns:sodipodi="http://sodipodi.sourceforge.net/DTD/sodipodi-0.dtd"
   xmlns:inkscape="http://www.inkscape.org/namespaces/inkscape"
   version="1.1"
   id="svg385"
   width="32"
   height="32"
   viewBox="0 0 32 32"
   sodipodi:docname="ballistra.svg"
   inkscape:version="0.92.5 (2060ec1f9f, 2020-04-08)">
  <metadata
     id="metadata391">
    <rdf:RDF>
      <cc:Work
         rdf:about="">
        <dc:format>image/svg+xml</dc:format>
        <dc:type
           rdf:resource="http://purl.org/dc/dcmitype/StillImage" />
        <dc:title></dc:title>
      </cc:Work>
    </rdf:RDF>
  </metadata>
  <defs
     id="defs389" />
  <sodipodi:namedview
     pagecolor="#ffffff"
     bordercolor="#666666"
     borderopacity="1"
     objecttolerance="10"
     gridtolerance="10"
     guidetolerance="10"
     inkscape:pageopacity="0"
     inkscape:pageshadow="2"
     inkscape:window-width="1920"
     inkscape:window-height="1118"
     id="namedview387"
     showgrid="false"
     inkscape:zoom="7.375"
     inkscape:cx="-6.0338983"
     inkscape:cy="16"
     inkscape:window-x="0"
     inkscape:window-y="24"
     inkscape:window-maximized="1"
     inkscape:current-layer="svg385" />
  <g
     transform="translate(0 0)"
     id="g801">
    <path
       style="fill:#000000;fill-opacity:0"
       d="M 0,0.5 V 0 H 0.5 1 1.5 2 2.5 3 3.5 4 4.5 5 5.5 6 6.5 7 7.5 8 8.5 9 9.5 10 10.5 11 11.5 12 12.5 13 13.5 14 14.5 15 15.5 16 16.5 17 17.5 18 18.5 19 19.5 20 20.5 21 21.5 22 22.5 23 23.5 24 24.5 25 25.5 26 26.5 27 27.5 28 28.5 29 29.5 30 30.5 31 31.5 32 V 0.5 1 1.5 2 2.5 3 3.5 4 4.5 5 5.5 6 6.5 7 7.5 8 8.5 9 9.5 10 10.5 11 11.5 12 12.5 13 13.5 14 14.5 15 15.5 16 16.5 17 17.5 18 18.5 19 19.5 20 H 31.5 31 V 19.5 Q 31,19 30.5,19 H 30 29.5 29 28.5 28 V 18.5 18 17.5 Q 28,17 27.5,17 H 27 V 16.5 16 h 0.5 q 0.5,0 1,0 0.5,0 1,0 0.5,0 0.625,-0.375 0.125,-0.375 0.5,-0.5 Q 31,15 31,14.5 31,14 30.625,13.875 30.25,13.75 30.125,13.375 30,13 30,12.5 30,12 30,11.5 30,11 29.625,10.875 29.25,10.75 29.125,10.375 29,10 28.5,10 28,10 27.625,9.875 27.25,9.75 27.125,9.375 27,9 26.625,8.875 26.25,8.75 26.125,8.375 26,8 25.625,7.875 25.25,7.75 25.125,7.375 25,7 25.125,6.625 25.25,6.25 25.625,6.125 26,6 26,5.5 26,5 25.625,4.875 25.25,4.75 25.125,4.375 25,4 24.625,3.875 24.25,3.75 24.125,3.375 24,3 23.5,3 23,3 22.5,3 22,3 21.875,3.375 21.75,3.75 21.375,3.875 21,4 20.625,3.875 20.25,3.75 20.125,3.375 20,3 19.5,3 19,3 18.875,3.375 18.75,3.75 18.375,3.875 18,4 18,4.5 18,5 18,5.5 18,6 17.5,6 17,6 16.625,5.875 16.25,5.75 16.125,5.375 16,5 15.5,5 15,5 14.5,5 14,5 13.5,5 13,5 12.5,5 12,5 11.625,4.875 11.25,4.75 11.125,4.375 11,4 10.5,4 10,4 9.875,4.375 9.75,4.75 9.375,4.875 9,5 8.875,5.375 8.75,5.75 8.375,5.875 8,6 7.625,5.875 7.25,5.75 7.125,5.375 7,5 6.5,5 6,5 5.875,5.375 5.75,5.75 5.375,5.875 5,6 5,6.5 5,7 5,7.5 5,8 5.375,8.125 5.75,8.25 5.875,8.625 6,9 6.375,9.125 6.75,9.25 6.875,9.625 7,10 7.375,10.125 7.75,10.25 8.015625,9.984375 L 8.28125,9.71875 8.234375,9.640625 8.1875,9.5625 8.28125,9.71875 Q 8.375,9.875 8.5,10 L 8.625,10.125 8.4375,9.9375 8.25,9.75 8.5,10 q 0.25,0.25 0.5,0.5 0.25,0.25 0.5,0.5 0.25,0.25 0.5,0.5 0.25,0.25 0.5,0.5 0.25,0.25 0.5,0.5 L 11.25,12.75 11.0625,12.5625 10.875,12.375 11,12.5 q 0.125,0.125 0.25,0.1875 L 11.375,12.75 11.3125,12.71875 11.25,12.6875 11,12.96875 Q 10.75,13.25 10.75,13.5 q 0,0.25 -0.375,0.375 Q 10,14 10,14.5 10,15 9.875,15.375 9.75,15.75 9.375,15.875 9,16 8.875,16.375 8.75,16.75 8.375,16.875 L 8,17 H 7.5 7 6.5 6 5.5 Q 5,17 5,17.5 V 18 18.5 19 L 4.875,19.375 Q 4.75,19.75 4.375,19.875 4,20 3.875,20.375 3.75,20.75 3.375,20.875 3,21 2.875,21.375 2.75,21.75 2.375,21.875 2,22 2,22.5 q 0,0.5 0,1 0,0.5 0,1 0,0.5 0,1 0,0.5 0,1 V 27 27.5 28 28.5 Q 2,29 2.5,29 H 3 v 0.5 Q 3,30 3.5,30 H 4 v 0.5 Q 4,31 4.5,31 H 5 5.5 6 6.5 7 7.5 8 8.5 Q 9,31 9,30.5 V 30 H 9.5 10 10.5 Q 11,30 11,29.5 V 29 28.5 28 h 0.5 0.5 0.5 0.5 0.5 0.5 0.5 Q 15,28 15,27.5 V 27 h 0.5 0.5 0.5 Q 17,27 17,26.5 V 26 h 0.5 Q 18,26 18,25.5 V 25 h 0.5 Q 19,25 19,24.5 V 24 h 0.5 Q 20,24 20,23.5 V 23 h 0.5 q 0.5,0 1,0 H 22 22.5 23 23.5 24 24.5 25 25.5 26 26.5 27 v 0.5 Q 27,24 27.5,24 H 28 28.5 29 29.5 30 30.5 31 31.5 32 V 24.5 25 25.5 26 26.5 27 27.5 28 28.5 29 29.5 30 30.5 31 31.5 32 H 31.5 31 30.5 30 29.5 29 28.5 28 27.5 27 26.5 26 25.5 25 24.5 24 23.5 23 22.5 22 21.5 21 20.5 20 19.5 19 18.5 18 17.5 17 16.5 16 15.5 15 14.5 14 13.5 13 12.5 12 11.5 11 10.5 10 9.5 9 8.5 8 7.5 7 6.5 6 5.5 5 4.5 4 3.5 3 2.5 2 1.5 1 0.5 0 V 31.5 31 30.5 30 29.5 29 28.5 28 27.5 27 26.5 26 25.5 25 24.5 24 23.5 23 22.5 22 21.5 21 20.5 20 19.5 19 18.5 18 17.5 17 16.5 16 15.5 15 14.5 14 13.5 13 12.5 12 11.5 11 10.5 10 9.5 9 8.5 8 7.5 7 6.5 6 5.5 5 4.5 4 3.5 3 2.5 2 1.5 1 0.5"
       id="path395" />
    <path
       style="fill:#000000;fill-opacity:1"
       d="M 18.875,3.375 Q 19,3 19.5,3 q 0.5,0 0.625,0.375 0.125,0.375 0.5,0.5 0.375,0.125 0.75,0 0.375,-0.125 0.5,-0.5 Q 22,3 22.5,3 q 0.5,0 1,0 0.5,0 0.625,0.375 0.125,0.375 0.5,0.5 0.375,0.125 0.5,0.5 0.125,0.375 0.5,0.5 Q 26,5 26,5.5 26,6 25.625,6.125 q -0.375,0.125 -0.5,0.5 -0.125,0.375 0,0.75 0.125,0.375 0.5,0.5 0.375,0.125 0.5,0.5 0.125,0.375 0.5,0.5 0.375,0.125 0.5,0.5 0.125,0.375 0.5,0.5 Q 28,10 28.5,10 q 0.5,0 0.625,0.375 0.125,0.375 0.5,0.5 Q 30,11 30,11.5 q 0,0.5 0,1 0,0.5 0.125,0.875 0.125,0.375 0.5,0.5 Q 31,14 31,14.5 q 0,0.5 -0.375,0.625 -0.375,0.125 -0.5,0.5 Q 30,16 29.5,16 q -0.5,0 -1,0 -0.5,0 -1,0 H 27 V 15.5 15 h 0.5 q 0.5,0 1,0 0.5,0 0.875,-0.125 Q 29.75,14.75 29.75,14.5 29.75,14.25 29.5,14 29.25,13.75 29.125,13.375 29,13 29,12.5 29,12 28.875,11.625 28.75,11.25 28.375,11.125 28,11 27.625,10.875 27.25,10.75 27,10.5 26.75,10.25 26.5,10 26.25,9.75 26,9.5 25.75,9.25 25.5,9 25.25,8.75 25,8.5 24.75,8.25 24.375,8.125 L 24,8 H 23.5 Q 23,8 23.125,7.625 23.25,7.25 23.5,7 23.75,6.75 24,6.5 24.25,6.25 24.5,6 24.75,5.75 24.75,5.5 24.75,5.25 24.5,5 24.25,4.75 24,4.5 23.75,4.25 23.375,4.125 L 23,4 22.625,4.125 Q 22.25,4.25 22.25,4.5 q 0,0.25 0.375,0.375 L 23,5 23.375,5.125 Q 23.75,5.25 23.75,5.5 23.75,5.75 23.5,6 23.25,6.25 23,6.5 22.75,6.75 22.375,6.875 L 22,7 V 6.5 Q 22,6 21.875,5.625 21.75,5.25 21.5,5.25 q -0.25,0 -0.375,0.375 L 21,6 20.625,5.875 Q 20.25,5.75 20.125,5.375 20,5 19.875,4.625 19.75,4.25 19.5,4.25 19.25,4.25 19.125,4.625 19,5 19,5.5 19,6 18.875,6.375 18.75,6.75 18.375,6.875 18,7 17.5,7 H 17 L 16.625,6.875 Q 16.25,6.75 16,6.5 15.75,6.25 15.375,6.125 L 15,6 H 14.5 14 13.5 13 12.5 12 11.5 11 L 10.875,5.625 Q 10.75,5.25 10.5,5.25 q -0.25,0 -0.375,0.375 L 10,6 9.625,6.125 Q 9.25,6.25 9,6.5 8.75,6.75 8.375,6.875 8,7 7.625,6.875 7.25,6.75 7,6.5 6.75,6.25 6.5,6.25 6.25,6.25 6.125,6.625 6,7 6.125,7.375 6.25,7.75 6.5,8 6.75,8.25 7,8.5 7.25,8.75 7.625,8.875 L 8,9 8.125,9.375 8.25,9.75 8.15625,9.46875 8.0625,9.1875 8.125,9.375 Q 8.1875,9.5625 8.28125,9.71875 L 8.375,9.875 8.328125,9.796875 8.28125,9.71875 8.015625,9.984375 Q 7.75,10.25 7.375,10.125 7,10 6.875,9.625 6.75,9.25 6.375,9.125 6,9 5.875,8.625 5.75,8.25 5.375,8.125 5,8 5,7.5 5,7 5,6.5 5,6 5.375,5.875 5.75,5.75 5.875,5.375 6,5 6.5,5 7,5 7.125,5.375 7.25,5.75 7.625,5.875 8,6 8.375,5.875 8.75,5.75 8.875,5.375 9,5 9.375,4.875 9.75,4.75 9.875,4.375 10,4 10.5,4 11,4 11.125,4.375 11.25,4.75 11.625,4.875 12,5 12.5,5 q 0.5,0 1,0 0.5,0 1,0 0.5,0 1,0 0.5,0 0.625,0.375 0.125,0.375 0.5,0.5 Q 17,6 17.5,6 18,6 18,5.5 18,5 18,4.5 18,4 18.375,3.875 18.75,3.75 18.875,3.375 M 10.875,6 H 11 11.375 11.75 11.5 Q 11.25,6 11,6 h -0.25 0.125 M 20.96875,6.09375 21,6 21.09375,5.71875 21.1875,5.4375 21.125,5.625 Q 21.0625,5.8125 21,6 L 20.9375,6.1875 20.96875,6.09375 M 27.375,15 H 27 26.875 26.75 27 q 0.25,0 0.5,0 h 0.25 -0.375"
       id="path397" />
    <path
       style="fill:#d9d9d9;fill-opacity:1"
       d="M 19.125,4.625 Q 19.25,4.25 19.5,4.25 q 0.25,0 0.375,0.375 L 20,5 19.515625,5.015625 19.03125,5.03125 19.015625,5.140625 19,5.25 19.03125,5.03125 Q 19.0625,4.8125 19.125,4.625 L 19.1875,4.4375 19.09375,4.71875 19,5 19.125,4.625 M 20.03125,5.09375 20,5 19.90625,4.71875 19.8125,4.4375 19.875,4.625 Q 19.9375,4.8125 20,5 l 0.0625,0.1875 -0.03125,-0.09375"
       id="path399" />
    <path
       style="fill:#6f6f6f;fill-opacity:1"
       d="m 22.25,4.5 q 0,-0.25 0.375,-0.375 L 23,4 V 4.5 5 L 22.625,4.875 Q 22.25,4.75 22.25,4.5"
       id="path401" />
    <path
       style="fill:#989898;fill-opacity:1"
       d="M 23,4.5 V 4 l 0.375,0.125 Q 23.75,4.25 24,4.5 24.25,4.75 24.5,5 24.75,5.25 24.75,5.5 24.75,5.75 24.5,6 24.25,6.25 24,6.5 23.75,6.75 23.5,7 23.25,7.25 23.125,7.625 L 23,8 V 7.625 7.25 7.5 q 0,0.25 0.125,0.375 L 23.25,8 23.1875,7.9375 23.125,7.875 22.5625,7.9375 22,8 H 22.375 22.75 22.5 Q 22.25,8 22.03125,8.03125 L 21.8125,8.0625 21.921875,8.046875 22.03125,8.03125 22.015625,7.515625 22,7 22.375,6.875 Q 22.75,6.75 23,6.5 23.25,6.25 23.5,6 23.75,5.75 23.75,5.5 23.75,5.25 23.375,5.125 L 23,5 V 4.5"
       id="path403" />
    <path
       style="fill:#989898;fill-opacity:1"
       d="M 10.125,5.625 Q 10.25,5.25 10.5,5.25 q 0.25,0 0.375,0.375 L 11,6 H 10.5 10 L 10.125,5.625 M 10.625,6 H 11 11.125 11.25 11 q -0.25,0 -0.5,0 h -0.25 0.375"
       id="path405" />
    <path
       style="fill:#989898;fill-opacity:1"
       d="M 19,5.5 V 5 5.375 5.75 5.5 Q 19,5.25 19.03125,5.03125 L 19.0625,4.8125 19.046875,4.921875 19.03125,5.03125 19.515625,5.015625 20,5 20.125,5.375 20.25,5.75 20.15625,5.46875 20.0625,5.1875 20.125,5.375 q 0.0625,0.1875 0.1875,0.3125 l 0.125,0.125 L 20.375,5.75 20.3125,5.6875 20.03125,5.96875 Q 19.75,6.25 19.75,6.5 19.75,6.75 19.5,7 19.25,7.25 19,7.5 18.75,7.75 18.5,8 18.25,8.25 18,8.5 17.75,8.75 17.5,9 17.25,9.25 17,9.5 16.75,9.75 16.5,10 16.25,10.25 16,10.5 15.75,10.75 15.5,11 15.25,11.25 15.125,11.625 L 15,12 14.625,11.875 q -0.375,-0.125 -0.5,-0.5 L 14,11 14.375,10.875 Q 14.75,10.75 15,10.5 15.25,10.25 15.5,10 15.75,9.75 15.859375,9.359375 L 15.96875,8.96875 15.859375,8.984375 15.75,9 15.96875,8.96875 Q 16.1875,8.9375 16.375,8.875 L 16.5625,8.8125 16.28125,8.90625 16,9 16.375,8.875 Q 16.75,8.75 17,8.5 17.25,8.25 17.5,8 17.75,7.75 17.859375,7.359375 L 17.96875,6.96875 17.859375,6.984375 17.75,7 17.96875,6.96875 Q 18.1875,6.9375 18.375,6.875 L 18.5625,6.8125 18.28125,6.90625 18,7 18.375,6.875 Q 18.75,6.75 18.875,6.375 19,6 19,5.5 M 14.28125,10.90625 14,11 13.90625,11.03125 13.8125,11.0625 14,11 q 0.1875,-0.0625 0.375,-0.125 l 0.1875,-0.0625 -0.28125,0.09375 m 5.8125,-5.625 L 20,5 19.96875,4.90625 19.9375,4.8125 20,5 q 0.0625,0.1875 0.125,0.375 l 0.0625,0.1875 -0.09375,-0.28125"
       id="path407" />
    <path
       style="fill:#d9d9d9;fill-opacity:1"
       d="M 21.125,5.625 Q 21.25,5.25 21.5,5.25 q 0.25,0 0.375,0.375 Q 22,6 22,6.5 V 7 L 21.625,7.125 Q 21.25,7.25 21,7.5 20.75,7.75 20.5,8 20.25,8.25 20,8.5 19.75,8.75 19.5,9 19.25,9.25 19,9.5 18.75,9.75 18.5,10 18.25,10.25 18,10.5 17.75,10.75 17.5,11 17.25,11.25 17,11.5 16.75,11.75 16.5,12 16.25,12.25 16,12.5 15.75,12.75 15.5,13 15.25,13.25 15.125,13.625 L 15,14 V 13.625 13.25 13.5 q 0,0.25 0.125,0.375 L 15.25,14 15.1875,13.9375 15.125,13.875 14.5625,13.9375 14,14 V 13.5 Q 14,13 13.875,12.625 13.75,12.25 13.390625,12.140625 L 13.03125,12.03125 13.015625,12.140625 13,12.25 13.03125,12.03125 Q 13.0625,11.8125 13.125,11.625 L 13.1875,11.4375 13.09375,11.71875 13,12 13.125,11.625 q 0.125,-0.375 0.5,-0.5 L 14,11 l 0.125,0.375 q 0.125,0.375 0.5,0.5 L 15,12 15.375,11.875 Q 15.75,11.75 16,11.5 16.25,11.25 16.5,11 16.75,10.75 17,10.5 17.25,10.25 17.5,10 17.75,9.75 18,9.5 18.25,9.25 18.5,9 18.75,8.75 19,8.5 19.25,8.25 19.5,8 19.75,7.75 20,7.5 20.25,7.25 20.5,7 20.75,6.75 20.875,6.375 21,6 21.125,5.625 M 14.09375,10.96875 14,11 13.71875,11.09375 13.4375,11.1875 13.625,11.125 Q 13.8125,11.0625 14,11 l 0.1875,-0.0625 -0.09375,0.03125 M 14,13.625 V 14 14.125 14.25 14 q 0,-0.25 0,-0.5 v -0.25 0.375"
       id="path409" />
    <path
       style="fill:#989898;fill-opacity:1"
       d="M 6.125,6.625 Q 6.25,6.25 6.5,6.25 6.75,6.25 7,6.5 7.25,6.75 7.625,6.875 L 8,7 7.71875,6.90625 7.4375,6.8125 7.625,6.875 Q 7.8125,6.9375 8,6.9375 H 8.1875 8.09375 8 L 7.875,7.34375 Q 7.75,7.75 7.5,7.75 7.25,7.75 7,7.5 6.75,7.25 6.40625,7.125 L 6.0625,7 V 7.09375 7.1875 7 q 0,-0.1875 0.0625,-0.375 L 6.1875,6.4375 6.09375,6.71875 6,7 6.125,6.625"
       id="path411" />
    <path
       style="fill:#d9d9d9;fill-opacity:1"
       d="M 9,6.5 Q 9.25,6.25 9.625,6.125 L 10,6 9.875,6.375 Q 9.75,6.75 9.5,7 9.25,7.25 9,7.5 8.75,7.75 8.5,8 8.25,8.25 8.125,8.625 L 8,9 7.625,8.875 Q 7.25,8.75 7,8.5 6.75,8.25 6.5,8 6.25,7.75 6.125,7.375 L 6,7 6.09375,7.28125 6.1875,7.5625 6.125,7.375 Q 6.0625,7.1875 6.0625,7 V 6.8125 6.90625 7 L 6.40625,7.125 Q 6.75,7.25 7,7.5 7.25,7.75 7.5,7.75 7.75,7.75 7.875,7.34375 L 8,6.9375 H 7.90625 7.8125 8 q 0.1875,0 0.375,-0.0625 L 8.5625,6.8125 8.28125,6.90625 8,7 8.375,6.875 Q 8.75,6.75 9,6.5"
       id="path413" />
    <path
       style="fill:#403f7f;fill-opacity:1"
       d="M 9.875,6.375 10,6 H 10.5 11 L 11.125,6.375 11.25,6.75 11.15625,6.46875 11.0625,6.1875 11.125,6.375 q 0.0625,0.1875 0.15625,0.28125 L 11.375,6.75 11.328125,6.703125 11.28125,6.65625 11.015625,6.953125 Q 10.75,7.25 10.5,7.25 10.25,7.25 9.984375,6.984375 L 9.71875,6.71875 9.671875,6.796875 9.625,6.875 9.71875,6.71875 Q 9.8125,6.5625 9.875,6.375 L 9.9375,6.1875 9.84375,6.46875 9.75,6.75 9.875,6.375"
       id="path415" />
    <path
       style="fill:#5b5199;fill-opacity:1"
       d="M 11.125,6.375 11,6 H 11.5 12 L 11.875,6.375 Q 11.75,6.75 11.5,6.75 q -0.25,0 -0.375,-0.375"
       id="path417" />
    <path
       style="fill:#403f7f;fill-opacity:1"
       d="M 11.875,6.375 12,6 H 12.5 13 L 13.125,6.375 13.25,6.75 13.15625,6.46875 13.0625,6.1875 13.125,6.375 q 0.0625,0.1875 0.1875,0.3125 l 0.125,0.125 L 13.375,6.75 13.3125,6.6875 13.03125,6.96875 Q 12.75,7.25 12.5,7.25 12.25,7.25 11.984375,6.953125 L 11.71875,6.65625 11.671875,6.703125 11.625,6.75 11.71875,6.65625 Q 11.8125,6.5625 11.875,6.375 L 11.9375,6.1875 11.84375,6.46875 11.75,6.75 11.875,6.375"
       id="path419" />
    <path
       style="fill:#5b5199;fill-opacity:1"
       d="M 13.125,6.375 13,6 H 13.5 14 V 6.5 7 L 13.625,6.875 q -0.375,-0.125 -0.5,-0.5"
       id="path421" />
    <path
       style="fill:#785fa7;fill-opacity:1"
       d="M 14,6.5 V 6 H 14.5 15 V 6.5 7 H 14.5 14 V 6.5"
       id="path423" />
    <path
       style="fill:#5b5199;fill-opacity:1"
       d="M 15,6.5 V 6 l 0.375,0.125 Q 15.75,6.25 16,6.5 L 16.25,6.75 16.0625,6.5625 15.875,6.375 16,6.5 q 0.125,0.125 0.28125,0.21875 L 16.4375,6.8125 16.359375,6.765625 16.28125,6.71875 16.015625,6.984375 Q 15.75,7.25 15.375,7.125 L 15,7 V 6.5"
       id="path425" />
    <path
       style="fill:#6f6f6f;fill-opacity:1"
       d="m 19.75,6.5 q 0,-0.25 0.28125,-0.53125 L 20.3125,5.6875 20.25,5.625 20.1875,5.5625 l 0.125,0.125 q 0.125,0.125 0.3125,0.1875 L 20.8125,5.9375 20.53125,5.84375 20.25,5.75 20.625,5.875 21,6 20.875,6.375 Q 20.75,6.75 20.5,7 20.25,7.25 20,7.5 19.75,7.75 19.5,8 19.25,8.25 19,8.5 18.75,8.75 18.5,9 18.25,9.25 18,9.5 17.75,9.75 17.5,10 17.25,10.25 17,10.5 16.75,10.75 16.5,11 16.25,11.25 16,11.5 15.75,11.75 15.375,11.875 L 15,12 15.125,11.625 Q 15.25,11.25 15.5,11 15.75,10.75 16,10.5 16.25,10.25 16.5,10 16.75,9.75 17,9.5 17.25,9.25 17.5,9 17.75,8.75 18,8.5 18.25,8.25 18.5,8 18.75,7.75 19,7.5 19.25,7.25 19.5,7 19.75,6.75 19.75,6.5 M 20.90625,6.28125 21,6 21.03125,5.90625 21.0625,5.8125 21,6 q -0.0625,0.1875 -0.125,0.375 l -0.0625,0.1875 0.09375,-0.28125"
       id="path427" />
    <path
       style="fill:#2d3465;fill-opacity:1"
       d="M 9,7.5 Q 9.25,7.25 9.5,7 L 9.75,6.75 9.5625,6.9375 9.375,7.125 9.5,7 Q 9.625,6.875 9.71875,6.71875 L 9.8125,6.5625 9.765625,6.640625 9.71875,6.71875 9.984375,6.984375 Q 10.25,7.25 10.5,7.25 q 0.25,0 0.515625,-0.296875 L 11.28125,6.65625 11.234375,6.609375 11.1875,6.5625 11.28125,6.65625 Q 11.375,6.75 11.5,6.75 H 11.625 11.4375 11.25 11.5 11.75 11.5625 11.375 11.5 q 0.125,0 0.21875,-0.09375 L 11.8125,6.5625 11.765625,6.609375 11.71875,6.65625 11.984375,6.953125 Q 12.25,7.25 12.5,7.25 q 0.25,0 0.53125,-0.28125 L 13.3125,6.6875 13.25,6.625 13.1875,6.5625 l 0.125,0.125 q 0.125,0.125 0.3125,0.1875 L 13.8125,6.9375 13.53125,6.84375 13.25,6.75 13.625,6.875 14,7 H 14.5 15 V 7.5 Q 15,8 15.5,8 16,8 16.375,7.875 16.75,7.75 16.875,7.375 L 17,7 H 17.5 18 17.625 17.25 17.5 q 0.25,0 0.46875,-0.03125 L 18.1875,6.9375 18.078125,6.953125 17.96875,6.96875 17.859375,7.359375 Q 17.75,7.75 17.5,8 17.25,8.25 17,8.5 16.75,8.75 16.375,8.875 16,9 15.5,9 15,9 14.625,8.875 14.25,8.75 14,8.5 13.75,8.25 13.375,8.125 13,8 12.5,8 12,8 11.5,8 11,8 10.5,8 10,8 9.625,8.125 9.25,8.25 9.078125,8.671875 L 8.90625,9.09375 8.984375,9.140625 9.0625,9.1875 8.90625,9.09375 Q 8.75,9 8.5,9 H 8.25 8.625 9 8.5 8 L 8.125,8.625 Q 8.25,8.25 8.5,8 8.75,7.75 9,7.5"
       id="path429" />
    <path
       style="fill:#403f7f;fill-opacity:1"
       d="M 15,7.5 V 7 l 0.375,0.125 Q 15.75,7.25 16.015625,6.984375 L 16.28125,6.71875 16.203125,6.671875 16.125,6.625 16.28125,6.71875 Q 16.4375,6.8125 16.625,6.875 L 16.8125,6.9375 16.53125,6.84375 16.25,6.75 16.625,6.875 17,7 16.875,7.375 Q 16.75,7.75 16.375,7.875 16,8 15.5,8 15,8 15,7.5"
       id="path431" />
    <path
       style="fill:#2d3465;fill-opacity:1"
       d="M 21,7.5 Q 21.25,7.25 21.625,7.125 L 22,7 V 7.5 8 L 21.625,8.125 Q 21.25,8.25 21,8.5 20.75,8.75 21.046875,9.015625 L 21.34375,9.28125 21.390625,9.234375 21.4375,9.1875 21.34375,9.28125 Q 21.25,9.375 21.25,9.5 V 9.625 9.4375 9.25 9.5 q 0,0.25 0.25,0.25 H 21.75 21.5625 21.375 21.5 q 0.125,0 0.21875,-0.09375 L 21.8125,9.5625 21.765625,9.609375 21.71875,9.65625 21.984375,9.953125 Q 22.25,10.25 22.625,10.125 23,10 23,9.5 V 9 H 23.5 24 V 9.5 Q 24,10 24.375,10.125 24.75,10.25 25,10 L 25.25,9.75 25.5,10 q 0.25,0.25 0.375,0.625 0.125,0.375 0.5,0.5 0.375,0.125 0.5,0.5 Q 27,12 27.5,12 H 28 l -0.125,0.375 q -0.125,0.375 -0.5,0.5 L 27,13 27.28125,12.90625 27.5625,12.8125 27.375,12.875 q -0.1875,0.0625 -0.28125,0.21875 L 27,13.25 l 0.04687,-0.07813 0.04687,-0.07813 -0.421875,-0.171875 Q 26.25,12.75 26,12.5 25.75,12.25 25.5,12 25.25,11.75 25,11.5 24.75,11.25 24.375,11.125 24,11 23.5,11 23,11 22.5,11 22,11 21.625,11.125 L 21.25,11.25 21.53125,11.15625 21.8125,11.0625 21.625,11.125 q -0.1875,0.0625 -0.3125,0.1875 l -0.125,0.125 0.0625,-0.0625 0.0625,-0.0625 -0.28125,-0.28125 Q 20.75,10.75 20.75,10.5 20.75,10.25 20.375,10.125 20,10 20.125,9.625 20.25,9.25 20,9 L 19.75,8.75 20,8.5 Q 20.25,8.25 20.5,8 20.75,7.75 21,7.5 M 19.9375,8.5625 19.75,8.75 19.6875,8.8125 19.625,8.875 19.75,8.75 Q 19.875,8.625 20,8.5 l 0.125,-0.125 -0.1875,0.1875 m 5.5,1.375 L 25.25,9.75 25.1875,9.6875 25.125,9.625 25.25,9.75 Q 25.375,9.875 25.5,10 l 0.125,0.125 -0.1875,-0.1875"
       id="path433" />
    <path
       style="fill:#000000;fill-opacity:1"
       d="M 9.078125,8.671875 Q 9.25,8.25 9.625,8.125 10,8 10.5,8 11,8 11.5,8 12,8 12.5,8 13,8 13.375,8.125 13.75,8.25 14,8.5 14.25,8.75 14.625,8.875 15,9 15.5,9 H 16 15.625 15.25 15.5 q 0.25,0 0.46875,-0.03125 L 16.1875,8.9375 16.078125,8.953125 15.96875,8.96875 15.859375,9.359375 Q 15.75,9.75 15.5,10 15.25,10.25 15,10.5 14.75,10.75 14.375,10.875 14,11 13.625,11.125 13.25,11.25 13.125,11.625 13,12 13.015625,12.515625 l 0.01563,0.515625 0.109375,-0.01563 L 13.25,13 13.03125,13.03125 Q 12.8125,13.0625 12.625,13.125 L 12.4375,13.1875 12.71875,13.09375 13,13 12.625,13.125 Q 12.25,13.25 12,13.5 11.75,13.75 11.5,14 11.25,14.25 11.125,14.625 11,15 10.875,15.375 10.75,15.75 10.5,16 10.25,16.25 10.125,16.625 L 10,17 9.625,17.125 Q 9.25,17.25 9.140625,17.640625 L 9.03125,18.03125 9.140625,18.015625 9.25,18 9.03125,18.03125 Q 8.8125,18.0625 8.625,18.125 L 8.4375,18.1875 8.71875,18.09375 9,18 8.625,18.125 Q 8.25,18.25 8,18.5 7.75,18.75 7.375,18.875 L 7,19 6.625,19.125 Q 6.25,19.25 6,19.5 5.75,19.75 5.5,20 5.25,20.25 5,20.5 4.75,20.75 4.5,21 4.25,21.25 4.125,21.625 4,22 3.625,22.125 3.25,22.25 3.125,22.625 3,23 3,23.5 3,24 3,24.5 V 25 25.5 Q 3,26 3.125,26.375 3.25,26.75 3.5,27 3.75,27.25 3.875,27.625 4,28 4.125,28.375 4.25,28.75 4.625,28.875 5,29 5.5,29 6,29 6.375,28.875 6.75,28.75 6.875,28.34375 L 7,27.9375 H 6.90625 6.8125 7 q 0.1875,0 0.375,-0.0625 L 7.5625,27.8125 7.28125,27.90625 7,28 7.375,27.875 Q 7.75,27.75 7.875,27.375 8,27 8,26.5 V 26 25.5 25 L 8.375,24.875 Q 8.75,24.75 8.875,24.375 9,24 9,23.5 V 23 22.5 22 22.375 22.75 22.5 Q 9,22.25 8.96875,22.03125 L 8.9375,21.8125 8.953125,21.921875 8.96875,22.03125 9.359375,21.890625 Q 9.75,21.75 10,21.5 10.25,21.25 10.5,21 10.75,20.75 10.875,20.375 L 11,20 10.90625,20.28125 10.8125,20.5625 10.875,20.375 q 0.0625,-0.1875 0.09375,-0.40625 L 11,19.75 l -0.01563,0.109375 -0.01563,0.109375 0.390625,-0.109375 Q 11.75,19.75 11.875,19.375 L 12,19 11.90625,19.28125 11.8125,19.5625 11.875,19.375 q 0.0625,-0.1875 0.09375,-0.40625 L 12,18.75 l -0.01563,0.109375 -0.01563,0.109375 0.515625,0.01563 L 13,19 l 0.515625,0.01563 0.515625,0.01563 0.01563,-0.109375 0.01563,-0.109375 -0.03125,0.21875 Q 14,19.25 14,19.5 V 19.75 19.375 19 19.5 20 l -0.125,0.375 Q 13.75,20.75 13.5,21 q -0.25,0.25 -0.5,0.5 -0.25,0.25 -0.5,0.5 -0.25,0.25 -0.25,0.5 0,0.25 0.25,0.25 0.25,0 0.5,-0.25 0.25,-0.25 0.5,-0.5 0.25,-0.25 0.5,-0.5 0.25,-0.25 0.5,-0.5 0.25,-0.25 0.375,-0.625 L 15,20 V 19.5 Q 15,19 15.125,18.625 15.25,18.25 15.5,18 15.75,17.75 15.875,17.375 L 16,17 16.375,16.875 Q 16.75,16.75 16.75,16.5 16.75,16.25 16.5,16 16.25,15.75 16.125,15.375 L 16,15 h 0.5 0.5 l 0.125,0.375 q 0.125,0.375 0.5,0.5 Q 18,16 18,16.5 V 17 l -0.375,0.125 q -0.375,0.125 -0.5,0.5 L 17,18 16.625,18.125 q -0.375,0.125 -0.5,0.5 Q 16,19 16.5,19 H 17 17.5 18 18.5 19 19.5 20 20.5 Q 21,19 21,18.5 V 18 h 0.5 0.5 0.5 0.5 0.5 q 0.5,0 1,0 H 25 V 18.5 19 19.5 20 H 24.5 24 23.5 23 22.5 Q 22,20 22,20.5 V 21 h -0.5 q -0.5,0 -1,0 -0.5,0 -1,0 H 19 18.5 Q 18,21 18,21.5 V 22 H 17.5 Q 17,22 17,22.5 V 23 H 16.5 Q 16,23 16,23.5 V 24 24.5 25 H 15.5 15 V 24.5 Q 15,24 14.5,24 H 14 13.5 Q 13,24 12.5,24 12,24 12,24.5 V 25 H 11.5 11 10.5 Q 10,25 10,25.5 V 26 26.5 27 H 9.5 Q 9,27 9,27.5 V 28 l -0.375,0.125 q -0.375,0.125 -0.5,0.5 L 8,29 7.625,29.125 q -0.375,0.125 -0.5,0.5 L 7,30 H 6.5 6 5.5 5 4.5 4 L 3.875,29.625 Q 3.75,29.25 3.375,29.125 L 3,29 V 28.5 28 L 2.875,27.625 Q 2.75,27.25 2.375,27.125 L 2,27 V 26.5 Q 2,26 2,25.5 2,25 2,24.5 2,24 2,23.5 2,23 2,22.5 2,22 2.375,21.875 2.75,21.75 2.875,21.375 3,21 3.375,20.875 3.75,20.75 3.875,20.375 4,20 4.375,19.875 4.75,19.75 4.875,19.375 L 5,19 5.375,18.875 q 0.375,-0.125 0.5,-0.5 L 6,18 H 6.5 7 l 0.375,-0.125 q 0.375,-0.125 0.5,-0.5 L 8,17 8.375,16.875 Q 8.75,16.75 8.875,16.375 9,16 9.375,15.875 9.75,15.75 9.875,15.375 10,15 10,14.5 10,14 10.375,13.875 10.75,13.75 10.75,13.5 10.75,13.25 11,12.96875 L 11.25,12.6875 11.1875,12.65625 11.125,12.625 11.25,12.6875 Q 11.375,12.75 11.5,12.75 H 11.625 11.4375 11.25 11.5 q 0.25,0 0.25,-0.25 V 12.25 12.4375 12.625 12.5 q 0,-0.125 -0.0625,-0.25 L 11.625,12.125 11.65625,12.1875 11.6875,12.25 11.96875,12 Q 12.25,11.75 12.125,11.375 12,11 12.375,10.875 12.75,10.75 12.875,10.375 13,10 13.5,10 14,10 13.875,9.625 13.75,9.25 13.375,9.125 13,9 12.5,9 12,9 11.5,9 11,9 10.5,9 10,9 9.453125,9.046875 L 8.90625,9.09375 9.078125,8.671875 M 10.5,24 Q 11,24 11,23.5 V 23 22.5 22 l -0.375,0.125 q -0.375,0.125 -0.5,0.5 L 10,23 v 0.5 Q 10,24 10.5,24 M 11.125,21.625 11,22 11.375,21.875 q 0.375,-0.125 0.5,-0.5 L 12,21 11.625,21.125 q -0.375,0.125 -0.5,0.5 m 1,-1 L 12,21 12.375,20.875 q 0.375,-0.125 0.5,-0.5 Q 13,20 12.625,20.125 q -0.375,0.125 -0.5,0.5 M 16.375,15 H 16 15.875 15.75 16 q 0.25,0 0.5,0 h 0.25 -0.375 M 16.28125,16.90625 16,17 15.90625,17.03125 15.8125,17.0625 16,17 q 0.1875,-0.0625 0.375,-0.125 l 0.1875,-0.0625 -0.28125,0.09375"
       id="path435" />
    <path
       style="fill:#403f7f;fill-opacity:1"
       d="M 21,8.5 Q 21.25,8.25 21.625,8.125 L 22,8 V 8.5 9 L 21.625,9.125 21.25,9.25 21.53125,9.15625 21.8125,9.0625 21.625,9.125 Q 21.4375,9.1875 21.34375,9.28125 L 21.25,9.375 21.296875,9.328125 21.34375,9.28125 21.046875,9.015625 Q 20.75,8.75 21,8.5"
       id="path437" />
    <path
       style="fill:#5b5199;fill-opacity:1"
       d="M 22,8.5 V 8 L 22.5625,7.9375 23.125,7.875 23.0625,8.4375 23,9 H 22.5 22 V 8.5"
       id="path439" />
    <path
       style="fill:#785fa7;fill-opacity:1"
       d="M 23.0625,8.4375 23.125,7.875 23.0625,7.8125 23,7.75 23.125,7.875 Q 23.25,8 23.5,8 H 23.75 23.375 23 23.5 24 V 8.5 9 H 23.5 23 l 0.0625,-0.5625"
       id="path441" />
    <path
       style="fill:#5b5199;fill-opacity:1"
       d="M 24,8.5 V 8 l 0.375,0.125 Q 24.75,8.25 25,8.5 25.25,8.75 25.5,9 25.75,9.25 26,9.5 l 0.25,0.25 -0.265625,0.265625 -0.265625,0.265625 0.04687,0.07813 0.04687,0.07813 -0.09375,-0.15625 Q 25.625,10.125 25.5,10 L 25.375,9.875 25.5625,10.0625 25.75,10.25 25.5,10 Q 25.25,9.75 25,9.5 24.75,9.25 24.375,9.125 L 24,9 V 8.5 M 26.3125,9.8125 26.25,9.75 26.0625,9.5625 25.875,9.375 26,9.5 q 0.125,0.125 0.25,0.25 l 0.125,0.125 -0.0625,-0.0625"
       id="path443" />
    <path
       style="fill:#d59909;fill-opacity:1"
       d="M 8.125,9.375 8,9 H 8.5 Q 9,9 9.125,9.375 9.25,9.75 9.5,10 q 0.25,0.25 0.5,0.5 0.25,0.25 0.5,0.5 0.25,0.25 0.5,0.5 0.25,0.25 0.5,0.5 0.25,0.25 0.25,0.5 0,0.25 -0.25,0.25 -0.25,0 -0.5,-0.25 Q 10.75,12.25 10.5,12 10.25,11.75 10,11.5 9.75,11.25 9.5,11 9.25,10.75 9,10.5 8.75,10.25 8.5,10 8.25,9.75 8.125,9.375"
       id="path445" />
    <path
       style="fill:#000000;fill-opacity:0"
       d="M 9.125,9.375 9,9 9.09375,9.28125 9.1875,9.5625 9.125,9.375 Q 9.0625,9.1875 8.90625,9.09375 L 8.75,9 8.828125,9.046875 8.90625,9.09375 9.453125,9.046875 Q 10,9 10.5,9 q 0.5,0 1,0 0.5,0 1,0 0.5,0 0.875,0.125 0.375,0.125 0.5,0.5 Q 14,10 13.5,10 13,10 12.875,10.375 12.75,10.75 12.375,10.875 12,11 12.125,11.375 12.25,11.75 11.96875,12 L 11.6875,12.25 11.71875,12.3125 11.75,12.375 11.6875,12.25 Q 11.625,12.125 11.5,12 L 11.375,11.875 11.5625,12.0625 11.75,12.25 11.5,12 Q 11.25,11.75 11,11.5 10.75,11.25 10.5,11 10.25,10.75 10,10.5 9.75,10.25 9.5,10 9.25,9.75 9.125,9.375"
       id="path447" />
    <path
       style="fill:#151b41;fill-opacity:1"
       d="M 19,9.5 Q 19.25,9.25 19.5,9 L 19.75,8.75 20,9 q 0.25,0.25 0.125,0.625 -0.125,0.375 0.25,0.5 0.375,0.125 0.375,0.375 0,0.25 0.28125,0.53125 l 0.28125,0.28125 0.0625,-0.0625 0.0625,-0.0625 -0.125,0.125 q -0.125,0.125 -0.1875,0.3125 L 21.0625,11.8125 21.15625,11.53125 21.25,11.25 21.125,11.625 21,12 20.625,11.875 Q 20.25,11.75 20.125,11.375 20,11 19.5,11 19,11 18.625,11.125 18.25,11.25 18,11 L 17.75,10.75 18,10.5 Q 18.25,10.25 18.5,10 18.75,9.75 19,9.5 M 17.9375,10.5625 17.75,10.75 17.6875,10.8125 17.625,10.875 17.75,10.75 Q 17.875,10.625 18,10.5 l 0.125,-0.125 -0.1875,0.1875 M 19.8125,8.6875 19.75,8.75 19.5625,8.9375 19.375,9.125 19.5,9 q 0.125,-0.125 0.25,-0.25 l 0.125,-0.125 -0.0625,0.0625"
       id="path449" />
    <path
       style="fill:#5b5199;fill-opacity:1"
       d="m 21.25,9.5 q 0,-0.25 0.375,-0.375 L 22,9 21.875,9.375 Q 21.75,9.75 21.5,9.75 21.25,9.75 21.25,9.5"
       id="path451" />
    <path
       style="fill:#403f7f;fill-opacity:1"
       d="M 21.875,9.375 22,9 H 22.5 23 V 9.5 Q 23,10 22.625,10.125 22.25,10.25 21.984375,9.953125 L 21.71875,9.65625 21.671875,9.703125 21.625,9.75 21.71875,9.65625 Q 21.8125,9.5625 21.875,9.375 L 21.9375,9.1875 21.84375,9.46875 21.75,9.75 21.875,9.375"
       id="path453" />
    <path
       style="fill:#403f7f;fill-opacity:1"
       d="M 24,9.5 V 9 l 0.375,0.125 Q 24.75,9.25 25,9.5 L 25.25,9.75 25,10 Q 24.75,10.25 24.375,10.125 24,10 24,9.5 M 25.3125,9.8125 25.25,9.75 25.0625,9.5625 24.875,9.375 25,9.5 q 0.125,0.125 0.25,0.25 l 0.125,0.125 -0.0625,-0.0625"
       id="path455" />
    <path
       style="fill:#403f7f;fill-opacity:1"
       d="M 25.875,10.625 25.75,10.25 25.84375,10.53125 25.9375,10.8125 25.875,10.625 Q 25.8125,10.4375 25.71875,10.28125 L 25.625,10.125 l 0.04687,0.07813 0.04687,0.07813 0.265625,-0.265625 L 26.25,9.75 26.5,10 q 0.25,0.25 0.5,0.5 0.25,0.25 0.625,0.375 L 28,11 V 11.5 12 H 27.5 Q 27,12 26.875,11.625 26.75,11.25 26.375,11.125 26,11 25.875,10.625 M 28.09375,11.03125 28,11 27.71875,10.90625 27.4375,10.8125 27.625,10.875 Q 27.8125,10.9375 28,11 l 0.1875,0.0625 -0.09375,-0.03125 M 26.4375,9.9375 26.25,9.75 26.1875,9.6875 26.125,9.625 26.25,9.75 Q 26.375,9.875 26.5,10 l 0.125,0.125 -0.1875,-0.1875"
       id="path457" />
    <path
       style="fill:#2d3465;fill-opacity:1"
       d="M 17,11.5 Q 17.25,11.25 17.5,11 L 17.75,10.75 18,11 q 0.25,0.25 0.625,0.125 Q 19,11 19.5,11 q 0.5,0 0.625,0.375 0.125,0.375 0.5,0.5 L 21,12 20.875,12.375 Q 20.75,12.75 20.5,12.75 20.25,12.75 20,12.5 19.75,12.25 19.375,12.125 19,12 18.625,12.125 L 18.25,12.25 18.53125,12.15625 18.8125,12.0625 18.625,12.125 q -0.1875,0.0625 -0.34375,0.15625 L 18.125,12.375 l 0.07813,-0.04687 0.07813,-0.04687 -0.265625,-0.265625 Q 17.75,11.75 17.5,12 17.25,12.25 17,12.5 16.75,12.75 16.5,13 16.25,13.25 16.125,13.625 L 16,14 H 15.5 Q 15,14 15.125,13.625 15.25,13.25 15.5,13 15.75,12.75 16,12.5 16.25,12.25 16.5,12 16.75,11.75 17,11.5 M 17.8125,10.6875 17.75,10.75 17.5625,10.9375 17.375,11.125 17.5,11 q 0.125,-0.125 0.25,-0.25 l 0.125,-0.125 -0.0625,0.0625"
       id="path459" />
    <path
       style="fill:#000000;fill-opacity:1"
       d="m 21.125,11.625 q 0.125,-0.375 0.5,-0.5 Q 22,11 22.5,11 q 0.5,0 1,0 0.5,0 0.875,0.125 0.375,0.125 0.625,0.375 0.25,0.25 0.5,0.5 0.25,0.25 0.5,0.5 0.25,0.25 0.671875,0.421875 l 0.421875,0.171875 0.04687,-0.07813 0.04687,-0.07813 -0.09375,0.15625 Q 27,13.25 27,13.5 V 13.75 13.375 13 13.5 Q 27,14 26.5,14 H 26 L 25.875,13.625 Q 25.75,13.25 25.375,13.125 25,13 24.875,12.625 24.75,12.25 24.375,12.125 24,12 23.5,12 q -0.5,0 -1,0 -0.5,0 -0.5,0.5 0,0.5 -0.375,0.625 -0.375,0.125 -0.5,0.5 L 21,14 H 20.5 20 l -0.125,-0.375 q -0.125,-0.375 -0.5,-0.5 -0.375,-0.125 -0.75,0 -0.375,0.125 -0.5,0.5 L 18,14 H 17.5 17 l 0.125,-0.375 Q 17.25,13.25 17.5,13 17.75,12.75 18,12.5 18.25,12.25 18.625,12.125 19,12 19.375,12.125 19.75,12.25 20,12.5 q 0.25,0.25 0.5,0.25 0.25,0 0.375,-0.375 L 21,12 21.125,11.625 M 16.875,14 H 17 17.375 17.75 17.5 q -0.25,0 -0.5,0 h -0.25 0.125 m 0.75,0 H 18 18.125 18.25 18 q -0.25,0 -0.5,0 h -0.25 0.375"
       id="path461" />
    <path
       style="fill:#989898;fill-opacity:1"
       d="M 28,11.5 V 11 l 0.375,0.125 q 0.375,0.125 0.5,0.5 L 29,12 28.90625,11.71875 28.8125,11.4375 28.875,11.625 q 0.0625,0.1875 0.09375,0.40625 L 29,12.25 28.984375,12.140625 28.96875,12.03125 28.46875,12 l -0.5,-0.03125 -0.01563,0.109375 -0.01563,0.109375 0.03125,-0.21875 Q 28,11.75 28,11.5 V 11.25 11.625 12 11.5 M 28.28125,11.09375 28,11 27.90625,10.96875 27.8125,10.9375 28,11 q 0.1875,0.0625 0.375,0.125 l 0.1875,0.0625 -0.28125,-0.09375"
       id="path463" />
    <path
       style="fill:#989898;fill-opacity:1"
       d="M 13.015625,12.515625 13,12 v 0.375 0.375 -0.25 q 0,-0.25 0.03125,-0.46875 l 0.03125,-0.21875 -0.01563,0.109375 -0.01563,0.109375 0.359375,0.109375 Q 13.75,12.25 13.875,12.625 L 14,13 13.90625,12.71875 13.8125,12.4375 13.875,12.625 q 0.0625,0.1875 0.09375,0.40625 L 14,13.25 13.984375,13.140625 13.96875,13.03125 13.484375,13.015625 13,13 h 0.375 0.375 -0.25 q -0.25,0 -0.46875,0.03125 l -0.21875,0.03125 0.109375,-0.01563 0.109375,-0.01563 -0.01563,-0.515625"
       id="path465" />
    <path
       style="fill:#151b41;fill-opacity:1"
       d="m 17,12.5 q 0.25,-0.25 0.5,-0.5 0.25,-0.25 0.515625,0.01563 l 0.265625,0.265625 0.07813,-0.04687 0.07813,-0.04687 -0.15625,0.09375 Q 18.125,12.375 18,12.5 L 17.875,12.625 18.0625,12.4375 18.25,12.25 18,12.5 q -0.25,0.25 -0.5,0.5 -0.25,0.25 -0.375,0.625 L 17,14 H 16.5 16 l 0.125,-0.375 Q 16.25,13.25 16.5,13 16.75,12.75 17,12.5 M 16.625,14 H 17 17.125 17.25 17 q -0.25,0 -0.5,0 h -0.25 0.375"
       id="path467" />
    <path
       style="fill:#000000;fill-opacity:0"
       d="m 22,12.5 q 0,-0.5 0.5,-0.5 0.5,0 1,0 0.5,0 0.875,0.125 0.375,0.125 0.5,0.5 0.125,0.375 0.5,0.5 0.375,0.125 0.5,0.5 L 26,14 h -0.5 q -0.5,0 -1,0 -0.5,0 -1,0 -0.5,0 -1,0 -0.5,0 -1,0 H 21 l 0.125,-0.375 q 0.125,-0.375 0.5,-0.5 Q 22,13 22,12.5"
       id="path469" />
    <path
       style="fill:#d9d9d9;fill-opacity:1"
       d="M 27.875,12.375 28,12 27.90625,12.28125 27.8125,12.5625 27.875,12.375 q 0.0625,-0.1875 0.09375,-0.40625 L 28,11.75 l -0.01563,0.109375 -0.01563,0.109375 0.5,0.03125 0.5,0.03125 -0.01563,-0.109375 -0.01563,-0.109375 0.03125,0.21875 Q 29,12.25 29,12.5 V 12.75 12.375 12 12.5 13 12.625 12.25 12.5 q 0,0.25 0.03125,0.46875 l 0.03125,0.21875 -0.01563,-0.109375 -0.01563,-0.109375 -0.390625,0.140625 Q 28.25,13.25 28.25,13.5 q 0,0.25 0.25,0.5 0.25,0.25 0.359375,0.609375 l 0.109375,0.359375 0.109375,-0.01563 0.109375,-0.01563 -0.21875,0.03125 Q 28.75,15 28.5,15 H 28.25 28.625 29 28.5 q -0.5,0 -1,0 H 27 L 26.9375,14.4375 26.875,13.875 26.8125,13.9375 26.75,14 26.875,13.875 Q 27,13.75 27,13.5 V 13.25 13.625 14 13.5 q 0,-0.5 0.375,-0.625 0.375,-0.125 0.5,-0.5 m -1,2.625 H 27 27.375 27.75 27.5 q -0.25,0 -0.5,0 h -0.25 0.125"
       id="path471" />
    <path
       style="fill:#5b5199;fill-opacity:1"
       d="M 12,13.5 Q 12.25,13.25 12.625,13.125 13,13 13.484375,13.015625 l 0.484375,0.01563 -0.01563,-0.109375 -0.01563,-0.109375 0.03125,0.21875 Q 14,13.25 14,13.5 V 13.75 13.375 13 13.5 14 h -0.5 q -0.5,0 -0.625,0.375 -0.125,0.375 -0.5,0.5 Q 12,15 12.125,14.625 12.25,14.25 12,14 L 11.75,13.75 12,13.5 M 11.9375,13.5625 11.75,13.75 11.6875,13.8125 11.625,13.875 11.75,13.75 Q 11.875,13.625 12,13.5 l 0.125,-0.125 -0.1875,0.1875 M 14,14.125 V 14 13.625 13.25 13.5 q 0,0.25 0,0.5 v 0.25 -0.125"
       id="path473" />
    <path
       style="fill:#000000;fill-opacity:0"
       d="m 18.125,13.625 q 0.125,-0.375 0.5,-0.5 0.375,-0.125 0.75,0 0.375,0.125 0.5,0.5 L 20,14 h -0.5 q -0.5,0 -1,0 H 18 l 0.125,-0.375 M 17.875,14 H 18 18.375 18.75 18.5 q -0.25,0 -0.5,0 h -0.25 0.125"
       id="path475" />
    <path
       style="fill:#989898;fill-opacity:1"
       d="m 28.25,13.5 q 0,-0.25 0.390625,-0.390625 L 29.03125,12.96875 29.015625,12.859375 29,12.75 29.03125,12.96875 Q 29.0625,13.1875 29.125,13.375 L 29.1875,13.5625 29.09375,13.28125 29,13 29.125,13.375 Q 29.25,13.75 29.5,14 q 0.25,0.25 0.25,0.5 0,0.25 -0.375,0.375 L 29,15 29.28125,14.90625 29.5625,14.8125 29.375,14.875 q -0.1875,0.0625 -0.40625,0.09375 L 28.75,15 28.859375,14.984375 28.96875,14.96875 28.859375,14.609375 Q 28.75,14.25 28.5,14 28.25,13.75 28.25,13.5"
       id="path477" />
    <path
       style="fill:#785fa7;fill-opacity:1"
       d="M 11.125,14.625 Q 11.25,14.25 11.5,14 L 11.75,13.75 12,14 q 0.25,0.25 0.125,0.625 -0.125,0.375 0.25,0.25 0.375,-0.125 0.5,-0.5 Q 13,14 13.5,14 H 14 V 14.5 15 14.625 14.25 14.5 q 0,0.25 0.125,0.375 L 14.25,15 14.1875,14.9375 14.125,14.875 13.6875,15.0625 Q 13.25,15.25 13.125,15.625 13,16 12.875,16.375 12.75,16.75 12.5,17 L 12.25,17.25 12.4375,17.0625 12.625,16.875 12.5,17 q -0.125,0.125 -0.21875,0.28125 l -0.09375,0.15625 0.04687,-0.07813 0.04687,-0.07813 -0.265625,-0.265625 Q 11.75,16.75 11.875,16.375 12,16 11.625,16.125 11.25,16.25 10.984375,15.984375 L 10.71875,15.71875 10.671875,15.796875 10.625,15.875 10.71875,15.71875 Q 10.8125,15.5625 10.875,15.375 L 10.9375,15.1875 10.84375,15.46875 10.75,15.75 10.875,15.375 Q 11,15 11.125,14.625 M 14,14.375 V 14 13.875 13.75 14 q 0,0.25 0,0.5 v 0.25 -0.375 M 11.8125,13.6875 11.75,13.75 11.5625,13.9375 11.375,14.125 11.5,14 q 0.125,-0.125 0.25,-0.25 l 0.125,-0.125 -0.0625,0.0625"
       id="path479" />
    <path
       style="fill:#d59909;fill-opacity:1"
       d="M 14,14.5 V 14 L 14.5625,13.9375 15.125,13.875 15.0625,13.8125 15,13.75 15.125,13.875 Q 15.25,14 15.5,14 H 15.75 15.375 15 15.5 16 16.5 q 0.5,0 1,0 H 18 V 14.5 15 H 17.5 17 16.5 q -0.5,0 -1,0 -0.5,0 -1,0 Q 14,15 14,14.5 M 17.625,15 H 18 18.125 18.25 18 q -0.25,0 -0.5,0 h -0.25 0.375 m 0.5,-1 H 18 17.625 17.25 17.5 q 0.25,0 0.5,0 h 0.25 -0.125 M 14,13.875 V 14 14.375 14.75 14.5 q 0,-0.25 0,-0.5 v -0.25 0.125"
       id="path481" />
    <path
       style="fill:#d9b525;fill-opacity:1"
       d="M 18,14.5 V 14 h 0.5 q 0.5,0 1,0 h 0.5 0.5 0.5 0.5 q 0.5,0 1,0 H 23 v 0.5 0.5 h -0.5 q -0.5,0 -1,0 -0.5,0 -1,0 -0.5,0 -1,0 -0.5,0 -1,0 H 18 V 14.5 M 17.875,15 H 18 18.375 18.75 18.5 q -0.25,0 -0.5,0 h -0.25 0.125 m 4.75,0 H 23 23.125 23.25 23 q -0.25,0 -0.5,0 h -0.25 0.375 m 0.5,-1 H 23 22.625 22.25 22.5 q 0.25,0 0.5,0 h 0.25 -0.125 m -4.75,0 H 18 17.875 17.75 18 q 0.25,0 0.5,0 h 0.25 -0.375"
       id="path483" />
    <path
       style="fill:#d59909;fill-opacity:1"
       d="M 23,14.5 V 14 H 23.5 24 V 14.5 15 H 23.5 23 V 14.5 M 22.875,15 H 23 23.375 23.75 23.5 q -0.25,0 -0.5,0 h -0.25 0.125 m 0.75,0 H 24 24.125 24.25 24 q -0.25,0 -0.5,0 h -0.25 0.375 m 0.5,-1 H 24 23.625 23.25 23.5 q 0.25,0 0.5,0 h 0.25 -0.125 m -0.75,0 H 23 22.875 22.75 23 q 0.25,0 0.5,0 h 0.25 -0.375"
       id="path485" />
    <path
       style="fill:#d9b525;fill-opacity:1"
       d="M 24,14.5 V 14 H 24.5 25 V 14.5 15 H 24.5 24 V 14.5 M 23.875,15 H 24 24.375 24.75 24.5 q -0.25,0 -0.5,0 h -0.25 0.125 m 0.75,0 H 25 25.125 25.25 25 q -0.25,0 -0.5,0 h -0.25 0.375 m 0.5,-1 H 25 24.625 24.25 24.5 q 0.25,0 0.5,0 h 0.25 -0.125 m -0.75,0 H 24 23.875 23.75 24 q 0.25,0 0.5,0 h 0.25 -0.375"
       id="path487" />
    <path
       style="fill:#d59909;fill-opacity:1"
       d="M 25,14.5 V 14 H 25.5 26 26.5 27 26.625 26.25 26.5 q 0.25,0 0.375,-0.125 L 27,13.75 26.9375,13.8125 26.875,13.875 26.9375,14.4375 27,15 h -0.5 q -0.5,0 -1,0 H 25 V 14.5 M 24.875,15 H 25 25.375 25.75 25.5 q -0.25,0 -0.5,0 h -0.25 0.125 m 1.75,0 H 27 27.125 27.25 27 q -0.25,0 -0.5,0 h -0.25 0.375 m -1.25,-1 H 25 24.875 24.75 25 q 0.25,0 0.5,0 h 0.25 -0.375"
       id="path489" />
    <path
       style="fill:#2d3465;fill-opacity:1"
       d="M 13.125,15.625 Q 13.25,15.25 13.6875,15.0625 L 14.125,14.875 14.0625,14.8125 14,14.75 14.125,14.875 Q 14.25,15 14.5,15 H 14.75 14.375 14 14.5 q 0.5,0 1,0 H 16 l 0.125,0.375 Q 16.25,15.75 16.5,16 q 0.25,0.25 0.25,0.5 0,0.25 -0.375,0.375 Q 16,17 15.625,17.125 15.25,17.25 15,17.5 14.75,17.75 14.5,18 L 14.25,18.25 14.4375,18.0625 14.625,17.875 14.5,18 q -0.125,0.125 -0.21875,0.28125 l -0.09375,0.15625 0.04687,-0.07813 0.04687,-0.07813 -0.265625,-0.265625 Q 13.75,17.75 13.375,17.875 13,18 13,18.5 V 19 l -0.515625,-0.01563 -0.515625,-0.01563 -0.01563,0.109375 -0.01563,0.109375 0.03125,-0.21875 Q 12,18.75 12,18.5 V 18.25 18.625 19 18.5 Q 12,18 12.125,17.625 12.25,17.25 12.5,17 12.75,16.75 12.875,16.375 13,16 13.125,15.625 m 3,-0.625 H 16 15.625 15.25 15.5 q 0.25,0 0.5,0 h 0.25 -0.125"
       id="path491" />
    <path
       style="fill:#000000;fill-opacity:0"
       d="M 17.125,15.375 17,15 h 0.5 q 0.5,0 1,0 0.5,0 1,0 0.5,0 1,0 0.5,0 1,0 0.5,0 1,0 0.5,0 1,0 0.5,0 1,0 0.5,0 1,0 0.5,0 1,0 H 27 V 15.5 16 H 26.5 26 25.5 25 24.5 q -0.5,0 -1,0 H 23 22.5 22 21.5 21 20.5 Q 20,16 20,16.5 V 17 H 19.5 19 18.5 18 v -0.5 q 0,-0.5 -0.375,-0.625 -0.375,-0.125 -0.5,-0.5 M 27.125,15 H 27 26.625 26.25 26.5 q 0.25,0 0.5,0 h 0.25 -0.125"
       id="path493" />
    <path
       style="fill:#5b5199;fill-opacity:1"
       d="M 10.125,16.625 Q 10.25,16.25 10.5,16 L 10.75,15.75 10.5625,15.9375 10.375,16.125 10.5,16 q 0.125,-0.125 0.21875,-0.28125 l 0.09375,-0.15625 -0.04687,0.07813 -0.04687,0.07813 0.265625,0.265625 Q 11.25,16.25 11.625,16.125 12,16 11.875,16.375 11.75,16.75 12.015625,17.015625 l 0.265625,0.265625 0.04687,-0.07813 L 12.375,17.125 12.28125,17.28125 Q 12.1875,17.4375 12.125,17.625 L 12.0625,17.8125 12.15625,17.53125 12.25,17.25 12.125,17.625 12,18 12.09375,17.71875 12.1875,17.4375 12.125,17.625 q -0.0625,0.1875 -0.09375,0.40625 L 12,18.25 l 0.01563,-0.109375 0.01563,-0.109375 -0.390625,0.109375 Q 11.25,18.25 11.125,18.625 L 11,19 11.09375,18.71875 11.1875,18.4375 11.125,18.625 q -0.0625,0.1875 -0.09375,0.40625 L 11,19.25 l 0.01563,-0.109375 0.01563,-0.109375 -0.515625,-0.01563 Q 10,19 9.625,19.125 9.25,19.25 9,19.5 8.75,19.75 8.5,20 L 8.25,20.25 8,20 Q 7.75,19.75 7.5,20 7.25,20.25 6.984375,19.984375 L 6.71875,19.71875 6.671875,19.796875 6.625,19.875 6.71875,19.71875 Q 6.8125,19.5625 6.875,19.375 L 6.9375,19.1875 6.84375,19.46875 6.75,19.75 6.875,19.375 7,19 7.375,18.875 7.75,18.75 7.46875,18.84375 7.1875,18.9375 7.375,18.875 Q 7.5625,18.8125 7.71875,18.71875 L 7.875,18.625 7.796875,18.671875 7.71875,18.71875 7.984375,18.984375 Q 8.25,19.25 8.5,19 8.75,18.75 8.875,18.375 L 9,18 h 0.5 q 0.5,0 0.875,-0.125 0.375,-0.125 0.375,-0.375 0,-0.25 -0.375,-0.375 L 10,17 10.125,16.625 M 8.1875,20.3125 8.25,20.25 8.4375,20.0625 8.625,19.875 8.5,20 q -0.125,0.125 -0.25,0.25 l -0.125,0.125 0.0625,-0.0625"
       id="path495" />
    <path
       style="fill:#000000;fill-opacity:0.03921569"
       d="M 20,16.5 Q 20,16 20.5,16 H 21 V 16.5 17 H 20.5 20 v -0.5"
       id="path497" />
    <path
       style="fill:#000000;fill-opacity:0.09019608"
       d="M 21,16.5 V 16 H 21.5 22 V 16.5 17 H 21.5 21 v -0.5"
       id="path499" />
    <path
       style="fill:#000000;fill-opacity:0.25882353"
       d="M 22,16.5 V 16 H 22.5 23 V 16.5 17 H 22.5 22 v -0.5"
       id="path501" />
    <path
       style="fill:#000000;fill-opacity:0.38039216"
       d="M 23,16.5 V 16 h 0.5 q 0.5,0 1,0 H 25 v 0.5 0.5 h -0.5 q -0.5,0 -1,0 H 23 v -0.5"
       id="path503" />
    <path
       style="fill:#000000;fill-opacity:0.20392157"
       d="M 25,16.5 V 16 H 25.5 26 V 16.5 17 H 25.5 25 v -0.5"
       id="path505" />
    <path
       style="fill:#000000;fill-opacity:0.03921569"
       d="M 26,16.5 V 16 H 26.5 27 V 16.5 17 H 26.5 26 v -0.5"
       id="path507" />
    <path
       style="fill:#000000;fill-opacity:0.04705882"
       d="M 5,17.5 Q 5,17 5.5,17 H 6 V 17.5 18 H 5.5 5 v -0.5"
       id="path509" />
    <path
       style="fill:#000000;fill-opacity:0.21176471"
       d="M 6,17.5 V 17 H 6.5 7 V 17.5 18 H 6.5 6 v -0.5"
       id="path511" />
    <path
       style="fill:#000000;fill-opacity:0.25882353"
       d="M 7,17.5 V 17 H 7.5 8 l -0.125,0.375 q -0.125,0.375 -0.5,0.5 L 7,18 v -0.5"
       id="path513" />
    <path
       style="fill:#989898;fill-opacity:1"
       d="M 9.140625,17.640625 Q 9.25,17.25 9.625,17.125 L 10,17 9.984375,17.484375 9.96875,17.96875 10.078125,17.953125 10.1875,17.9375 9.96875,17.96875 Q 9.75,18 9.5,18 H 9.25 9.625 10 9.5 9 9.375 9.75 9.5 Q 9.25,18 9.03125,18.03125 L 8.8125,18.0625 8.921875,18.046875 9.03125,18.03125 9.140625,17.640625"
       id="path515" />
    <path
       style="fill:#d9d9d9;fill-opacity:1"
       d="M 9.984375,17.484375 10,17 l 0.375,0.125 q 0.375,0.125 0.375,0.375 0,0.25 -0.375,0.375 L 10,18 10.28125,17.90625 10.5625,17.8125 10.375,17.875 q -0.1875,0.0625 -0.40625,0.09375 L 9.75,18 9.859375,17.984375 9.96875,17.96875 9.984375,17.484375"
       id="path517" />
    <path
       style="fill:#6f6f6f;fill-opacity:1"
       d="m 15,17.5 q 0.25,-0.25 0.625,-0.375 L 16,17 15.875,17.375 Q 15.75,17.75 15.5,18 L 15.25,18.25 15.4375,18.0625 15.625,17.875 15.5,18 q -0.125,0.125 -0.21875,0.28125 l -0.09375,0.15625 0.04687,-0.07813 0.04687,-0.07813 L 15.015625,18.015625 14.75,17.75 15,17.5 M 14.9375,17.5625 14.75,17.75 14.6875,17.8125 14.625,17.875 14.75,17.75 Q 14.875,17.625 15,17.5 l 0.125,-0.125 -0.1875,0.1875 M 16.09375,16.96875 16,17 15.71875,17.09375 15.4375,17.1875 15.625,17.125 Q 15.8125,17.0625 16,17 l 0.1875,-0.0625 -0.09375,0.03125"
       id="path519" />
    <path
       style="fill:#000000;fill-opacity:0.25882353"
       d="m 17.125,17.625 q 0.125,-0.375 0.5,-0.5 L 18,17 V 17.5 18 H 17.5 17 l 0.125,-0.375"
       id="path521" />
    <path
       style="fill:#000000;fill-opacity:0.14509804"
       d="M 18,17.5 V 17 H 18.5 19 V 17.5 18 H 18.5 18 v -0.5"
       id="path523" />
    <path
       style="fill:#000000;fill-opacity:0.25882353"
       d="M 19,17.5 V 17 H 19.5 20 V 17.5 18 H 19.5 19 v -0.5"
       id="path525" />
    <path
       style="fill:#000000;fill-opacity:0.49803922"
       d="M 20,17.5 V 17 H 20.5 21 V 17.5 18 H 20.5 20 v -0.5"
       id="path527" />
    <path
       style="fill:#000000;fill-opacity:0.7372549"
       d="M 21,17.5 V 17 H 21.5 22 V 17.5 18 H 21.5 21 v -0.5"
       id="path529" />
    <path
       style="fill:#000000;fill-opacity:0.90588235"
       d="M 22,17.5 V 17 H 22.5 23 V 17.5 18 H 22.5 22 v -0.5"
       id="path531" />
    <path
       style="fill:#000000;fill-opacity:0.96470588"
       d="M 23,17.5 V 17 h 0.5 q 0.5,0 1,0 H 25 v 0.5 0.5 h -0.5 q -0.5,0 -1,0 H 23 v -0.5"
       id="path533" />
    <path
       style="fill:#000000;fill-opacity:0.74117647"
       d="M 25,17.5 V 17 H 25.5 26 V 17.5 18 H 25.5 25 v -0.5"
       id="path535" />
    <path
       style="fill:#000000;fill-opacity:0.4"
       d="M 26,17.5 V 17 H 26.5 27 V 17.5 18 H 26.5 26 v -0.5"
       id="path537" />
    <path
       style="fill:#000000;fill-opacity:0.11372549"
       d="M 27,17.5 V 17 h 0.5 Q 28,17 28,17.5 V 18 H 27.5 27 v -0.5"
       id="path539" />
    <path
       style="fill:#000000;fill-opacity:0.23529412"
       d="M 5,18.5 V 18 H 5.5 6 l -0.125,0.375 q -0.125,0.375 -0.5,0.5 L 5,19 v -0.5"
       id="path541" />
    <path
       style="fill:#403f7f;fill-opacity:1"
       d="M 8,18.5 Q 8.25,18.25 8.625,18.125 L 9,18 8.875,18.375 Q 8.75,18.75 8.5,19 8.25,19.25 7.984375,18.984375 L 7.71875,18.71875 7.640625,18.765625 7.5625,18.8125 7.71875,18.71875 Q 7.875,18.625 8,18.5 L 8.125,18.375 7.9375,18.5625 7.75,18.75 8,18.5"
       id="path543" />
    <path
       style="fill:#989898;fill-opacity:1"
       d="M 11.125,18.625 Q 11.25,18.25 11.640625,18.140625 L 12.03125,18.03125 12.046875,17.921875 12.0625,17.8125 12.03125,18.03125 Q 12,18.25 12,18.5 V 18.75 18.375 18 18.5 19 H 11.5 11 l 0.125,-0.375"
       id="path545" />
    <path
       style="fill:#151b41;fill-opacity:1"
       d="m 13,18.5 q 0,-0.5 0.375,-0.625 0.375,-0.125 0.640625,0.140625 l 0.265625,0.265625 0.04687,-0.07813 L 14.375,18.125 14.28125,18.28125 Q 14.1875,18.4375 14.125,18.625 L 14.0625,18.8125 14.15625,18.53125 14.25,18.25 14.125,18.625 14,19 14.09375,18.71875 14.1875,18.4375 14.125,18.625 q -0.0625,0.1875 -0.09375,0.40625 L 14,19.25 14.015625,19.140625 14.03125,19.03125 13.515625,19.015625 13,19 v -0.5"
       id="path547" />
    <path
       style="fill:#989898;fill-opacity:1"
       d="M 14.125,18.625 Q 14.25,18.25 14.5,18 l 0.25,-0.25 0.265625,0.265625 0.265625,0.265625 0.04687,-0.07813 L 15.375,18.125 15.28125,18.28125 Q 15.1875,18.4375 15.125,18.625 L 15.0625,18.8125 15.15625,18.53125 15.25,18.25 15.125,18.625 Q 15,19 15,19.5 V 20 H 14.5 14 V 19.5 Q 14,19 14.125,18.625 M 14.8125,17.6875 14.75,17.75 14.5625,17.9375 14.375,18.125 14.5,18 q 0.125,-0.125 0.25,-0.25 l 0.125,-0.125 -0.0625,0.0625"
       id="path549" />
    <path
       style="fill:#000000;fill-opacity:0.96470588"
       d="m 16.125,18.625 q 0.125,-0.375 0.5,-0.5 L 17,18 V 18.5 19 H 16.5 Q 16,19 16.125,18.625"
       id="path551" />
    <path
       style="fill:#000000;fill-opacity:0.90588235"
       d="M 17,18.5 V 18 H 17.5 18 V 18.5 19 H 17.5 17 v -0.5"
       id="path553" />
    <path
       style="fill:#000000;fill-opacity:0.85098039"
       d="M 18,18.5 V 18 H 18.5 19 V 18.5 19 H 18.5 18 v -0.5"
       id="path555" />
    <path
       style="fill:#000000;fill-opacity:0.90588235"
       d="M 19,18.5 V 18 H 19.5 20 V 18.5 19 H 19.5 19 v -0.5"
       id="path557" />
    <path
       style="fill:#000000;fill-opacity:0.95686275"
       d="M 20,18.5 V 18 h 0.5 0.5 v 0.5 Q 21,19 20.5,19 H 20 v -0.5"
       id="path559" />
    <path
       style="fill:#000000;fill-opacity:0.76862745"
       d="M 25,18.5 V 18 H 25.5 26 V 18.5 19 H 25.5 25 v -0.5"
       id="path561" />
    <path
       style="fill:#000000;fill-opacity:0.42745098"
       d="M 26,18.5 V 18 H 26.5 27 V 18.5 19 H 26.5 26 v -0.5"
       id="path563" />
    <path
       style="fill:#000000;fill-opacity:0.09411765"
       d="M 27,18.5 V 18 H 27.5 28 V 18.5 19 H 27.5 27 v -0.5"
       id="path565" />
    <path
       style="fill:#403f7f;fill-opacity:1"
       d="M 6,19.5 Q 6.25,19.25 6.625,19.125 L 7,19 6.875,19.375 Q 6.75,19.75 6.5,20 L 6.25,20.25 6.4375,20.0625 6.625,19.875 6.5,20 Q 6.375,20.125 6.28125,20.28125 L 6.1875,20.4375 6.234375,20.359375 6.28125,20.28125 6.015625,20.015625 5.75,19.75 6,19.5 M 5.9375,19.5625 5.75,19.75 5.6875,19.8125 5.625,19.875 5.75,19.75 Q 5.875,19.625 6,19.5 l 0.125,-0.125 -0.1875,0.1875"
       id="path567" />
    <path
       style="fill:#2d3465;fill-opacity:1"
       d="M 9,19.5 Q 9.25,19.25 9.625,19.125 10,19 10.515625,19.015625 l 0.515625,0.01563 0.01563,-0.109375 0.01563,-0.109375 -0.03125,0.21875 Q 11,19.25 11,19.5 V 19.75 19.375 19 19.5 20 H 10.5 Q 10,20 9.875,20.375 9.75,20.75 10,21 L 10.25,21.25 10,21.5 Q 9.75,21.75 9.359375,21.890625 L 8.96875,22.03125 8.984375,22.140625 9,22.25 8.96875,22.03125 Q 8.9375,21.8125 8.875,21.625 L 8.8125,21.4375 8.90625,21.71875 9,22 8.875,21.625 Q 8.75,21.25 8.5,21.25 q -0.25,0 -0.375,0.375 L 8,22 7.625,22.125 7.25,22.25 7.53125,22.15625 7.8125,22.0625 7.625,22.125 Q 7.4375,22.1875 7.28125,22.28125 L 7.125,22.375 7.203125,22.328125 7.28125,22.28125 7.015625,22.015625 6.75,21.75 7,21.5 Q 7.25,21.25 7.5,21 7.75,20.75 8,20.5 8.25,20.25 8.5,20 8.75,19.75 9,19.5 M 6.9375,21.5625 6.75,21.75 6.6875,21.8125 6.625,21.875 6.75,21.75 Q 6.875,21.625 7,21.5 L 7.125,21.375 6.9375,21.5625 M 7.96875,22.09375 8,22 8.09375,21.71875 8.1875,21.4375 8.125,21.625 Q 8.0625,21.8125 8,22 L 7.9375,22.1875 7.96875,22.09375 M 10.0625,21.4375 10.25,21.25 10.3125,21.1875 10.375,21.125 10.25,21.25 Q 10.125,21.375 10,21.5 l -0.125,0.125 0.1875,-0.1875"
       id="path569" />
    <path
       style="fill:#6f6f6f;fill-opacity:1"
       d="M 11,19.5 V 19 h 0.5 0.5 l -0.125,0.375 Q 11.75,19.75 11.359375,19.859375 L 10.96875,19.96875 10.953125,20.078125 10.9375,20.1875 10.96875,19.96875 Q 11,19.75 11,19.5 V 19.25 19.625 20 19.5"
       id="path571" />
    <path
       style="fill:#000000;fill-opacity:0.94901961"
       d="M 25,19.5 V 19 H 25.5 26 V 19.5 20 H 25.5 25 v -0.5"
       id="path573" />
    <path
       style="fill:#000000;fill-opacity:0.78431373"
       d="M 26,19.5 V 19 H 26.5 27 V 19.5 20 H 26.5 26 v -0.5"
       id="path575" />
    <path
       style="fill:#000000;fill-opacity:0.49803922"
       d="M 27,19.5 V 19 H 27.5 28 V 19.5 20 H 27.5 27 v -0.5"
       id="path577" />
    <path
       style="fill:#000000;fill-opacity:0.25882353"
       d="M 28,19.5 V 19 H 28.5 29 V 19.5 20 H 28.5 28 v -0.5"
       id="path579" />
    <path
       style="fill:#000000;fill-opacity:0.09019608"
       d="M 29,19.5 V 19 H 29.5 30 V 19.5 20 H 29.5 29 v -0.5"
       id="path581" />
    <path
       style="fill:#000000;fill-opacity:0.03921569"
       d="M 30,19.5 V 19 h 0.5 Q 31,19 31,19.5 V 20 H 30.5 30 v -0.5"
       id="path583" />
    <path
       style="fill:#5b5199;fill-opacity:1"
       d="M 5,20.5 Q 5.25,20.25 5.5,20 L 5.75,19.75 6.015625,20.015625 6.28125,20.28125 6.328125,20.203125 6.375,20.125 6.28125,20.28125 Q 6.1875,20.4375 6.125,20.625 L 6.0625,20.8125 6.15625,20.53125 6.25,20.25 6.125,20.625 Q 6,21 5.625,21.125 5.25,21.25 5,21 L 4.75,20.75 5,20.5 M 4.9375,20.5625 4.75,20.75 4.6875,20.8125 4.625,20.875 4.75,20.75 Q 4.875,20.625 5,20.5 L 5.125,20.375 4.9375,20.5625 M 5.8125,19.6875 5.75,19.75 5.5625,19.9375 5.375,20.125 5.5,20 q 0.125,-0.125 0.25,-0.25 l 0.125,-0.125 -0.0625,0.0625"
       id="path585" />
    <path
       style="fill:#785fa7;fill-opacity:1"
       d="M 6.125,20.625 Q 6.25,20.25 6.5,20 L 6.75,19.75 6.5625,19.9375 6.375,20.125 6.5,20 Q 6.625,19.875 6.71875,19.71875 L 6.8125,19.5625 6.765625,19.640625 6.71875,19.71875 6.984375,19.984375 Q 7.25,20.25 7.5,20 7.75,19.75 8,20 L 8.25,20.25 8,20.5 Q 7.75,20.75 7.5,21 7.25,21.25 7,21.5 6.75,21.75 6.5,22 6.25,22.25 6,22.5 5.75,22.75 5.5,22.75 5.25,22.75 4.96875,23 L 4.6875,23.25 4.71875,23.3125 4.75,23.375 4.6875,23.25 Q 4.625,23.125 4.5,23 L 4.375,22.875 4.5625,23.0625 4.75,23.25 4.5,23 Q 4.25,22.75 4.09375,22.34375 L 3.9375,21.9375 3.875,22 3.8125,22.0625 3.9375,21.9375 Q 4.0625,21.8125 4.125,21.625 L 4.1875,21.4375 4.09375,21.71875 4,22 4.125,21.625 Q 4.25,21.25 4.5,21 L 4.75,20.75 5,21 Q 5.25,21.25 5.625,21.125 6,21 6.125,20.625 M 4.8125,20.6875 4.75,20.75 4.5625,20.9375 4.375,21.125 4.5,21 q 0.125,-0.125 0.25,-0.25 l 0.125,-0.125 -0.0625,0.0625 m 3.25,-0.25 L 8.25,20.25 8.3125,20.1875 8.375,20.125 8.25,20.25 Q 8.125,20.375 8,20.5 l -0.125,0.125 0.1875,-0.1875"
       id="path587" />
    <path
       style="fill:#151b41;fill-opacity:1"
       d="M 9.875,20.375 Q 10,20 10.5,20 H 11 l -0.125,0.375 Q 10.75,20.75 10.5,21 L 10.25,21.25 10,21 Q 9.75,20.75 9.875,20.375 M 10.1875,21.3125 10.25,21.25 10.4375,21.0625 10.625,20.875 10.5,21 q -0.125,0.125 -0.25,0.25 l -0.125,0.125 0.0625,-0.0625"
       id="path589" />
    <path
       style="fill:#000000;fill-opacity:0.19215686"
       d="m 12.125,20.625 q 0.125,-0.375 0.5,-0.5 0.375,-0.125 0.25,0.25 -0.125,0.375 -0.5,0.5 L 12,21 12.125,20.625"
       id="path591" />
    <path
       style="fill:#6f6f6f;fill-opacity:1"
       d="M 13.875,20.375 14,20 h 0.5 0.5 l -0.125,0.375 Q 14.75,20.75 14.5,21 14.25,21.25 14,21.5 13.75,21.75 13.5,22 L 13.25,22.25 13,22 12.75,21.75 13,21.5 q 0.25,-0.25 0.5,-0.5 0.25,-0.25 0.375,-0.625 M 12.9375,21.5625 12.75,21.75 12.6875,21.8125 12.625,21.875 12.75,21.75 Q 12.875,21.625 13,21.5 l 0.125,-0.125 -0.1875,0.1875 m 0.25,0.75 L 13.25,22.25 13.4375,22.0625 13.625,21.875 13.5,22 q -0.125,0.125 -0.25,0.25 l -0.125,0.125 0.0625,-0.0625"
       id="path593" />
    <path
       style="fill:#000000;fill-opacity:0.95686275"
       d="M 22,20.5 Q 22,20 22.5,20 H 23 V 20.5 21 H 22.5 22 v -0.5"
       id="path595" />
    <path
       style="fill:#000000;fill-opacity:0.90588235"
       d="M 23,20.5 V 20 H 23.5 24 V 20.5 21 H 23.5 23 v -0.5"
       id="path597" />
    <path
       style="fill:#000000;fill-opacity:0.85098039"
       d="M 24,20.5 V 20 H 24.5 25 V 20.5 21 H 24.5 24 v -0.5"
       id="path599" />
    <path
       style="fill:#000000;fill-opacity:0.90588235"
       d="M 25,20.5 V 20 H 25.5 26 V 20.5 21 H 25.5 25 v -0.5"
       id="path601" />
    <path
       style="fill:#000000;fill-opacity:0.96470588"
       d="M 26,20.5 V 20 H 26.5 27 27.5 28 V 20.5 21 H 27.5 27 26.5 26 v -0.5"
       id="path603" />
    <path
       style="fill:#000000;fill-opacity:0.90588235"
       d="M 28,20.5 V 20 H 28.5 29 V 20.5 21 H 28.5 28 v -0.5"
       id="path605" />
    <path
       style="fill:#000000;fill-opacity:0.7372549"
       d="M 29,20.5 V 20 H 29.5 30 V 20.5 21 H 29.5 29 v -0.5"
       id="path607" />
    <path
       style="fill:#000000;fill-opacity:0.45098039"
       d="M 30,20.5 V 20 H 30.5 31 V 20.5 21 H 30.5 30 v -0.5"
       id="path609" />
    <path
       style="fill:#000000;fill-opacity:0.16470588"
       d="M 31,20.5 V 20 H 31.5 32 V 20.5 21 H 31.5 31 v -0.5"
       id="path611" />
    <path
       style="fill:#989898;fill-opacity:1"
       d="M 8.125,21.625 Q 8.25,21.25 8.5,21.25 q 0.25,0 0.375,0.375 Q 9,22 9,22.5 V 23 l -0.375,0.125 q -0.375,0.125 -0.5,0.5 L 8,24 7.625,23.875 Q 7.25,23.75 7.25,23.5 7.25,23.25 7.5,23 7.75,22.75 7.875,22.375 8,22 8.125,21.625"
       id="path613" />
    <path
       style="fill:#000000;fill-opacity:0.38039216"
       d="m 11.125,21.625 q 0.125,-0.375 0.5,-0.5 L 12,21 11.875,21.375 q -0.125,0.375 -0.5,0.5 L 11,22 11.125,21.625"
       id="path615" />
    <path
       style="fill:#000000;fill-opacity:0.89411765"
       d="M 18,21.5 Q 18,21 18.5,21 H 19 V 21.5 22 H 18.5 18 v -0.5"
       id="path617" />
    <path
       style="fill:#000000;fill-opacity:0.78039216"
       d="M 19,21.5 V 21 h 0.5 q 0.5,0 1,0 0.5,0 1,0 H 22 v 0.5 0.5 h -0.5 q -0.5,0 -1,0 H 20 19.5 19 v -0.5"
       id="path619" />
    <path
       style="fill:#000000;fill-opacity:0.66666667"
       d="M 22,21.5 V 21 H 22.5 23 V 21.5 22 H 22.5 22 v -0.5"
       id="path621" />
    <path
       style="fill:#000000;fill-opacity:0.42745098"
       d="M 23,21.5 V 21 H 23.5 24 V 21.5 22 H 23.5 23 v -0.5"
       id="path623" />
    <path
       style="fill:#000000;fill-opacity:0.30980392"
       d="M 24,21.5 V 21 H 24.5 25 V 21.5 22 H 24.5 24 v -0.5"
       id="path625" />
    <path
       style="fill:#000000;fill-opacity:0.42745098"
       d="M 25,21.5 V 21 H 25.5 26 V 21.5 22 H 25.5 25 v -0.5"
       id="path627" />
    <path
       style="fill:#000000;fill-opacity:0.66666667"
       d="M 26,21.5 V 21 H 26.5 27 V 21.5 22 H 26.5 26 v -0.5"
       id="path629" />
    <path
       style="fill:#000000;fill-opacity:0.89411765"
       d="M 27,21.5 V 21 H 27.5 28 V 21.5 22 H 27.5 27 v -0.5"
       id="path631" />
    <path
       style="fill:#000000;fill-opacity:1"
       d="M 28,21.5 V 21 H 28.5 29 29.5 30 V 21.5 22 H 29.5 29 28.5 28 v -0.5"
       id="path633" />
    <path
       style="fill:#000000;fill-opacity:0.7254902"
       d="M 30,21.5 V 21 H 30.5 31 V 21.5 22 H 30.5 30 v -0.5"
       id="path635" />
    <path
       style="fill:#000000;fill-opacity:0.39215686"
       d="M 31,21.5 V 21 H 31.5 32 V 21.5 22 H 31.5 31 v -0.5"
       id="path637" />
    <path
       style="fill:#a47ac4;fill-opacity:1"
       d="m 3.125,22.625 q 0.125,-0.375 0.5,-0.5 L 4,22 3.71875,22.09375 3.4375,22.1875 3.625,22.125 Q 3.8125,22.0625 3.9375,21.9375 L 4.0625,21.8125 4,21.875 3.9375,21.9375 4.09375,22.34375 Q 4.25,22.75 4.5,23 q 0.25,0.25 0.25,0.5 0,0.25 -0.25,0.25 Q 4.25,23.75 4,23.5 3.75,23.25 3.390625,23.140625 L 3.03125,23.03125 3.015625,23.140625 3,23.25 3.03125,23.03125 Q 3.0625,22.8125 3.125,22.625 L 3.1875,22.4375 3.09375,22.71875 3,23 3.125,22.625"
       id="path639" />
    <path
       style="fill:#403f7f;fill-opacity:1"
       d="M 6,22.5 Q 6.25,22.25 6.5,22 L 6.75,21.75 7.015625,22.015625 7.28125,22.28125 7.359375,22.234375 7.4375,22.1875 7.28125,22.28125 Q 7.125,22.375 7,22.5 L 6.875,22.625 7.0625,22.4375 7.25,22.25 7,22.5 Q 6.75,22.75 6.5,23 L 6.25,23.25 6.4375,23.0625 6.625,22.875 6.5,23 Q 6.375,23.125 6.28125,23.28125 L 6.1875,23.4375 6.234375,23.359375 6.28125,23.28125 6.015625,22.984375 5.75,22.6875 5.6875,22.71875 5.625,22.75 5.75,22.6875 Q 5.875,22.625 6,22.5 L 6.125,22.375 5.9375,22.5625 5.75,22.75 6,22.5 M 6.8125,21.6875 6.75,21.75 6.5625,21.9375 6.375,22.125 6.5,22 q 0.125,-0.125 0.25,-0.25 l 0.125,-0.125 -0.0625,0.0625"
       id="path641" />
    <path
       style="fill:#d9d9d9;fill-opacity:1"
       d="M 7,22.5 Q 7.25,22.25 7.625,22.125 L 8,22 7.875,22.375 Q 7.75,22.75 7.5,23 q -0.25,0.25 -0.25,0.5 0,0.25 0.375,0.375 L 8,24 7.71875,23.90625 7.4375,23.8125 7.625,23.875 q 0.1875,0.0625 0.40625,0.09375 L 8.25,24 8.140625,23.984375 8.03125,23.96875 8.015625,24.484375 8,25 7.625,25.125 Q 7.25,25.25 7,25.5 6.75,25.75 6.390625,25.859375 L 6.03125,25.96875 6.046875,26.078125 6.0625,26.1875 6.03125,25.96875 Q 6,25.75 6,25.5 V 25.25 25.625 26 25.5 25 L 6.375,24.875 Q 6.75,24.75 6.75,24.5 6.75,24.25 6.375,24.125 L 6,24 6.125,23.625 Q 6.25,23.25 6.5,23 6.75,22.75 7,22.5 M 6,24.875 V 25 25.375 25.75 25.5 Q 6,25.25 6,25 v -0.25 0.125 M 7.90625,22.28125 8,22 8.03125,21.90625 8.0625,21.8125 8,22 q -0.0625,0.1875 -0.125,0.375 l -0.0625,0.1875 0.09375,-0.28125"
       id="path643" />
    <path
       style="fill:#000000;fill-opacity:0.3254902"
       d="m 10.125,22.625 q 0.125,-0.375 0.5,-0.5 L 11,22 V 22.5 23 H 10.5 10 l 0.125,-0.375"
       id="path645" />
    <path
       style="fill:#989898;fill-opacity:1"
       d="m 12.25,22.5 q 0,-0.25 0.25,-0.5 L 12.75,21.75 13,22 13.25,22.25 13,22.5 q -0.25,0.25 -0.5,0.25 -0.25,0 -0.25,-0.25 M 13.0625,22.4375 13.25,22.25 13.3125,22.1875 13.375,22.125 13.25,22.25 Q 13.125,22.375 13,22.5 l -0.125,0.125 0.1875,-0.1875 m -0.25,-0.75 L 12.75,21.75 12.5625,21.9375 12.375,22.125 12.5,22 q 0.125,-0.125 0.25,-0.25 l 0.125,-0.125 -0.0625,0.0625"
       id="path647" />
    <path
       style="fill:#000000;fill-opacity:0.89019608"
       d="M 17,22.5 Q 17,22 17.5,22 H 18 V 22.5 23 H 17.5 17 v -0.5"
       id="path649" />
    <path
       style="fill:#000000;fill-opacity:0.66666667"
       d="M 18,22.5 V 22 H 18.5 19 V 22.5 23 H 18.5 18 v -0.5"
       id="path651" />
    <path
       style="fill:#000000;fill-opacity:0.44313725"
       d="M 19,22.5 V 22 H 19.5 20 V 22.5 23 H 19.5 19 v -0.5"
       id="path653" />
    <path
       style="fill:#000000;fill-opacity:0.38823529"
       d="M 20,22.5 V 22 h 0.5 q 0.5,0 1,0 H 22 v 0.5 0.5 h -0.5 q -0.5,0 -1,0 H 20 v -0.5"
       id="path655" />
    <path
       style="fill:#000000;fill-opacity:0.39215686"
       d="M 22,22.5 V 22 H 22.5 23 V 22.5 23 H 22.5 22 v -0.5"
       id="path657" />
    <path
       style="fill:#000000;fill-opacity:0.34509804"
       d="M 23,22.5 V 22 H 23.5 24 V 22.5 23 H 23.5 23 v -0.5"
       id="path659" />
    <path
       style="fill:#000000;fill-opacity:0.35294118"
       d="M 24,22.5 V 22 H 24.5 25 V 22.5 23 H 24.5 24 v -0.5"
       id="path661" />
    <path
       style="fill:#000000;fill-opacity:0.34509804"
       d="M 25,22.5 V 22 H 25.5 26 V 22.5 23 H 25.5 25 v -0.5"
       id="path663" />
    <path
       style="fill:#000000;fill-opacity:0.39215686"
       d="M 26,22.5 V 22 H 26.5 27 V 22.5 23 H 26.5 26 v -0.5"
       id="path665" />
    <path
       style="fill:#000000;fill-opacity:0.56078431"
       d="M 27,22.5 V 22 H 27.5 28 V 22.5 23 H 27.5 27 v -0.5"
       id="path667" />
    <path
       style="fill:#000000;fill-opacity:0.7372549"
       d="M 28,22.5 V 22 H 28.5 29 V 22.5 23 H 28.5 28 v -0.5"
       id="path669" />
    <path
       style="fill:#000000;fill-opacity:0.85098039"
       d="M 29,22.5 V 22 H 29.5 30 V 22.5 23 H 29.5 29 v -0.5"
       id="path671" />
    <path
       style="fill:#000000;fill-opacity:0.68627451"
       d="M 30,22.5 V 22 H 30.5 31 V 22.5 23 H 30.5 30 v -0.5"
       id="path673" />
    <path
       style="fill:#000000;fill-opacity:0.4"
       d="M 31,22.5 V 22 H 31.5 32 V 22.5 23 H 31.5 31 v -0.5"
       id="path675" />
    <path
       style="fill:#785fa7;fill-opacity:1"
       d="M 3,23.5 V 23 23.375 23.75 23.5 Q 3,23.25 3.03125,23.03125 L 3.0625,22.8125 3.046875,22.921875 3.03125,23.03125 3.390625,23.140625 Q 3.75,23.25 4,23.5 L 4.25,23.75 4.0625,23.5625 3.875,23.375 4,23.5 q 0.125,0.125 0.25,0.1875 L 4.375,23.75 4.3125,23.71875 4.25,23.6875 4,23.96875 Q 3.75,24.25 3.875,24.625 L 4,25 H 3.5 3 v -0.5 q 0,-0.5 0,-1"
       id="path677" />
    <path
       style="fill:#5b5199;fill-opacity:1"
       d="M 4.75,23.5 V 23.25 23.4375 23.625 23.5 q 0,-0.125 -0.0625,-0.25 L 4.625,23.125 4.65625,23.1875 4.6875,23.25 4.96875,23 Q 5.25,22.75 5.5,22.75 H 5.75 5.5625 5.375 5.5 q 0.125,0 0.25,-0.0625 L 5.875,22.625 5.8125,22.65625 5.75,22.6875 6.015625,22.984375 6.28125,23.28125 6.328125,23.203125 6.375,23.125 6.28125,23.28125 Q 6.1875,23.4375 6.125,23.625 L 6.0625,23.8125 6.15625,23.53125 6.25,23.25 6.125,23.625 6,24 5.625,24.125 q -0.375,0.125 -0.5,0.5 L 5,25 H 4.5 4 L 3.875,24.625 Q 3.75,24.25 4,23.96875 L 4.25,23.6875 4.1875,23.65625 4.125,23.625 4.25,23.6875 Q 4.375,23.75 4.5,23.75 H 4.625 4.4375 4.25 4.5 q 0.25,0 0.25,-0.25"
       id="path679" />
    <path
       style="fill:#6f6f6f;fill-opacity:1"
       d="m 8.125,23.625 q 0.125,-0.375 0.5,-0.5 L 9,23 V 23.5 24 23.625 23.25 23.5 q 0,0.25 -0.03125,0.46875 L 8.9375,24.1875 8.953125,24.078125 8.96875,23.96875 8.484375,23.984375 8,24 8.125,23.625"
       id="path681" />
    <path
       style="fill:#000000;fill-opacity:0.78431373"
       d="M 10,23.5 V 23 h 0.5 0.5 v 0.5 Q 11,24 10.5,24 10,24 10,23.5"
       id="path683" />
    <path
       style="fill:#000000;fill-opacity:0.94901961"
       d="M 16,23.5 Q 16,23 16.5,23 H 17 V 23.5 24 H 16.5 16 v -0.5"
       id="path685" />
    <path
       style="fill:#000000;fill-opacity:0.7254902"
       d="M 17,23.5 V 23 H 17.5 18 V 23.5 24 H 17.5 17 v -0.5"
       id="path687" />
    <path
       style="fill:#000000;fill-opacity:0.38823529"
       d="M 18,23.5 V 23 H 18.5 19 V 23.5 24 H 18.5 18 v -0.5"
       id="path689" />
    <path
       style="fill:#000000;fill-opacity:0.09411765"
       d="M 19,23.5 V 23 h 0.5 0.5 v 0.5 Q 20,24 19.5,24 H 19 v -0.5"
       id="path691" />
    <path
       style="fill:#000000;fill-opacity:0.03137255"
       d="M 27,23.5 V 23 H 27.5 28 V 23.5 24 H 27.5 Q 27,24 27,23.5"
       id="path693" />
    <path
       style="fill:#000000;fill-opacity:0.09019608"
       d="M 28,23.5 V 23 H 28.5 29 V 23.5 24 H 28.5 28 v -0.5"
       id="path695" />
    <path
       style="fill:#000000;fill-opacity:0.14509804"
       d="M 29,23.5 V 23 H 29.5 30 V 23.5 24 H 29.5 29 v -0.5"
       id="path697" />
    <path
       style="fill:#000000;fill-opacity:0.09019608"
       d="M 30,23.5 V 23 H 30.5 31 V 23.5 24 H 30.5 30 v -0.5"
       id="path699" />
    <path
       style="fill:#000000;fill-opacity:0.03921569"
       d="M 31,23.5 V 23 H 31.5 32 V 23.5 24 H 31.5 31 v -0.5"
       id="path701" />
    <path
       style="fill:#2d3465;fill-opacity:1"
       d="m 5.125,24.625 q 0.125,-0.375 0.5,-0.5 L 6,24 v 0.5 q 0,0.5 0,1 0,0.5 0.125,0.875 0.125,0.375 0.5,0.5 L 7,27 7.484375,26.984375 7.96875,26.96875 7.984375,26.859375 8,26.75 7.96875,26.96875 Q 7.9375,27.1875 7.875,27.375 L 7.8125,27.5625 7.90625,27.28125 8,27 7.875,27.375 Q 7.75,27.75 7.375,27.875 7,28 6.625,27.875 6.25,27.75 6,27.5 5.75,27.25 5.5,27 5.25,26.75 5.125,26.375 L 5,26 V 25.5 25 l 0.125,-0.375"
       id="path703" />
    <path
       style="fill:#989898;fill-opacity:1"
       d="M 6,24.5 V 24 l 0.375,0.125 Q 6.75,24.25 6.75,24.5 q 0,0.25 -0.375,0.375 L 6,25 v -0.5 m 0,0.125 V 25 25.125 25.25 25 q 0,-0.25 0,-0.5 v -0.25 0.375"
       id="path705" />
    <path
       style="fill:#151b41;fill-opacity:1"
       d="M 8.015625,24.484375 8.03125,23.96875 7.921875,23.953125 7.8125,23.9375 8.03125,23.96875 Q 8.25,24 8.5,24 H 8.75 8.375 8 L 8.484375,23.984375 8.96875,23.96875 8.984375,23.859375 9,23.75 8.96875,23.96875 Q 8.9375,24.1875 8.875,24.375 L 8.8125,24.5625 8.90625,24.28125 9,24 8.875,24.375 q -0.125,0.375 -0.5,0.5 L 8,25 8.015625,24.484375"
       id="path707" />
    <path
       style="fill:#000000;fill-opacity:0.94901961"
       d="m 12,24.5 q 0,-0.5 0.5,-0.5 0.5,0 1,0 H 14 V 24.5 25 H 13.5 13 12.5 12 v -0.5"
       id="path709" />
    <path
       style="fill:#000000;fill-opacity:0.94509804"
       d="M 14,24.5 V 24 h 0.5 Q 15,24 15,24.5 V 25 H 14.5 14 v -0.5"
       id="path711" />
    <path
       style="fill:#000000;fill-opacity:0.71764706"
       d="M 16,24.5 V 24 H 16.5 17 V 24.5 25 H 16.5 16 v -0.5"
       id="path713" />
    <path
       style="fill:#000000;fill-opacity:0.38039216"
       d="M 17,24.5 V 24 H 17.5 18 V 24.5 25 H 17.5 17 v -0.5"
       id="path715" />
    <path
       style="fill:#000000;fill-opacity:0.03921569"
       d="M 18,24.5 V 24 h 0.5 0.5 v 0.5 Q 19,25 18.5,25 H 18 v -0.5"
       id="path717" />
    <path
       style="fill:#5b5199;fill-opacity:1"
       d="M 3,25.5 V 25 H 3.5 4 v 0.5 Q 4,26 4.5,26 H 5 l 0.125,0.375 Q 5.25,26.75 5.5,27 5.75,27.25 6,27.5 6.25,27.75 6.625,27.875 L 7,28 6.71875,27.90625 6.4375,27.8125 6.625,27.875 Q 6.8125,27.9375 7,27.9375 H 7.1875 7.09375 7 L 6.875,28.34375 Q 6.75,28.75 6.375,28.875 6,29 5.5,29 H 5 5.375 5.75 5.5 Q 5.25,29 5.03125,28.96875 L 4.8125,28.9375 4.921875,28.953125 5.03125,28.96875 4.890625,28.609375 Q 4.75,28.25 4.375,28.125 L 4,28 3.875,27.625 Q 3.75,27.25 3.5,27 3.25,26.75 3.125,26.375 3,26 3,25.5 M 3.90625,27.71875 4,28 4.03125,28.09375 4.0625,28.1875 4,28 Q 3.9375,27.8125 3.875,27.625 l -0.0625,-0.1875 0.09375,0.28125"
       id="path719" />
    <path
       style="fill:#785fa7;fill-opacity:1"
       d="M 4,25.5 V 25 H 4.5 5 V 25.5 26 H 4.5 Q 4,26 4,25.5"
       id="path721" />
    <path
       style="fill:#989898;fill-opacity:1"
       d="M 7,25.5 Q 7.25,25.25 7.625,25.125 L 8,25 v 0.5 0.5 l -0.375,0.125 q -0.375,0.125 -0.5,0.5 L 7,27 6.625,26.875 Q 6.25,26.75 6.125,26.375 L 6,26 6.09375,26.28125 6.1875,26.5625 6.125,26.375 Q 6.0625,26.1875 6.03125,25.96875 L 6,25.75 6.015625,25.859375 6.03125,25.96875 6.390625,25.859375 Q 6.75,25.75 7,25.5"
       id="path723" />
    <path
       style="fill:#000000;fill-opacity:0.94901961"
       d="M 10,25.5 Q 10,25 10.5,25 H 11 V 25.5 26 H 10.5 10 v -0.5"
       id="path725" />
    <path
       style="fill:#000000;fill-opacity:0.83137255"
       d="M 11,25.5 V 25 H 11.5 12 V 25.5 26 H 11.5 11 v -0.5"
       id="path727" />
    <path
       style="fill:#000000;fill-opacity:0.71372549"
       d="M 12,25.5 V 25 H 12.5 13 V 25.5 26 H 12.5 12 v -0.5"
       id="path729" />
    <path
       style="fill:#000000;fill-opacity:0.76862745"
       d="M 13,25.5 V 25 H 13.5 14 V 25.5 26 H 13.5 13 v -0.5"
       id="path731" />
    <path
       style="fill:#000000;fill-opacity:0.83921569"
       d="M 14,25.5 V 25 H 14.5 15 V 25.5 26 H 14.5 14 v -0.5"
       id="path733" />
    <path
       style="fill:#000000;fill-opacity:0.79215686"
       d="M 15,25.5 V 25 H 15.5 16 V 25.5 26 H 15.5 15 v -0.5"
       id="path735" />
    <path
       style="fill:#000000;fill-opacity:0.45098039"
       d="M 16,25.5 V 25 H 16.5 17 V 25.5 26 H 16.5 16 v -0.5"
       id="path737" />
    <path
       style="fill:#000000;fill-opacity:0.16470588"
       d="M 17,25.5 V 25 h 0.5 0.5 v 0.5 Q 18,26 17.5,26 H 17 v -0.5"
       id="path739" />
    <path
       style="fill:#6f6f6f;fill-opacity:1"
       d="m 7.125,26.625 q 0.125,-0.375 0.5,-0.5 L 8,26 V 26.5 27 26.625 26.25 26.5 q 0,0.25 -0.03125,0.46875 L 7.9375,27.1875 7.953125,27.078125 7.96875,26.96875 7.484375,26.984375 7,27 7.125,26.625"
       id="path741" />
    <path
       style="fill:#000000;fill-opacity:0.71764706"
       d="M 10,26.5 V 26 H 10.5 11 V 26.5 27 H 10.5 10 v -0.5"
       id="path743" />
    <path
       style="fill:#000000;fill-opacity:0.61568627"
       d="M 11,26.5 V 26 H 11.5 12 V 26.5 27 H 11.5 11 v -0.5"
       id="path745" />
    <path
       style="fill:#000000;fill-opacity:0.56862745"
       d="M 12,26.5 V 26 H 12.5 13 V 26.5 27 H 12.5 12 v -0.5"
       id="path747" />
    <path
       style="fill:#000000;fill-opacity:0.68627451"
       d="M 13,26.5 V 26 H 13.5 14 V 26.5 27 H 13.5 13 v -0.5"
       id="path749" />
    <path
       style="fill:#000000;fill-opacity:0.50588235"
       d="M 14,26.5 V 26 H 14.5 15 V 26.5 27 H 14.5 14 v -0.5"
       id="path751" />
    <path
       style="fill:#000000;fill-opacity:0.20392157"
       d="M 15,26.5 V 26 H 15.5 16 V 26.5 27 H 15.5 15 v -0.5"
       id="path753" />
    <path
       style="fill:#000000;fill-opacity:0.03921569"
       d="M 16,26.5 V 26 h 0.5 0.5 v 0.5 Q 17,27 16.5,27 H 16 v -0.5"
       id="path755" />
    <path
       style="fill:#000000;fill-opacity:0.3372549"
       d="M 2,27.5 V 27 l 0.375,0.125 q 0.375,0.125 0.5,0.5 L 3,28 H 2.5 2 v -0.5"
       id="path757" />
    <path
       style="fill:#000000;fill-opacity:0.83137255"
       d="M 9,27.5 Q 9,27 9.5,27 H 10 V 27.5 28 H 9.5 9 v -0.5"
       id="path759" />
    <path
       style="fill:#000000;fill-opacity:0.49803922"
       d="M 10,27.5 V 27 H 10.5 11 V 27.5 28 H 10.5 10 v -0.5"
       id="path761" />
    <path
       style="fill:#000000;fill-opacity:0.21176471"
       d="M 11,27.5 V 27 H 11.5 12 V 27.5 28 H 11.5 11 v -0.5"
       id="path763" />
    <path
       style="fill:#000000;fill-opacity:0.09803922"
       d="M 12,27.5 V 27 H 12.5 13 V 27.5 28 H 12.5 12 v -0.5"
       id="path765" />
    <path
       style="fill:#000000;fill-opacity:0.09019608"
       d="M 13,27.5 V 27 H 13.5 14 V 27.5 28 H 13.5 13 v -0.5"
       id="path767" />
    <path
       style="fill:#000000;fill-opacity:0.03921569"
       d="M 14,27.5 V 27 h 0.5 0.5 v 0.5 Q 15,28 14.5,28 H 14 v -0.5"
       id="path769" />
    <path
       style="fill:#000000;fill-opacity:0.16470588"
       d="M 2,28.5 V 28 H 2.5 3 V 28.5 29 H 2.5 Q 2,29 2,28.5"
       id="path771" />
    <path
       style="fill:#2d3465;fill-opacity:1"
       d="M 4.125,28.375 4,28 4.375,28.125 Q 4.75,28.25 4.890625,28.609375 L 5.03125,28.96875 5.140625,28.984375 5.25,29 5.03125,28.96875 Q 4.8125,28.9375 4.625,28.875 L 4.4375,28.8125 4.71875,28.90625 5,29 4.625,28.875 Q 4.25,28.75 4.125,28.375 M 3.96875,27.90625 4,28 4.09375,28.28125 4.1875,28.5625 4.125,28.375 Q 4.0625,28.1875 4,28 l -0.0625,-0.1875 0.03125,0.09375"
       id="path773" />
    <path
       style="fill:#000000;fill-opacity:0.95686275"
       d="m 8.125,28.625 q 0.125,-0.375 0.5,-0.5 L 9,28 V 28.5 29 H 8.5 8 l 0.125,-0.375"
       id="path775" />
    <path
       style="fill:#000000;fill-opacity:0.61568627"
       d="M 9,28.5 V 28 H 9.5 10 V 28.5 29 H 9.5 9 v -0.5"
       id="path777" />
    <path
       style="fill:#000000;fill-opacity:0.27843137"
       d="M 10,28.5 V 28 H 10.5 11 V 28.5 29 H 10.5 10 v -0.5"
       id="path779" />
    <path
       style="fill:#000000;fill-opacity:0.15686275"
       d="M 3,29.5 V 29 l 0.375,0.125 q 0.375,0.125 0.5,0.5 L 4,30 H 3.5 Q 3,30 3,29.5"
       id="path781" />
    <path
       style="fill:#000000;fill-opacity:0.7372549"
       d="m 7.125,29.625 q 0.125,-0.375 0.5,-0.5 L 8,29 V 29.5 30 H 7.5 7 l 0.125,-0.375"
       id="path783" />
    <path
       style="fill:#000000;fill-opacity:0.49803922"
       d="M 8,29.5 V 29 H 8.5 9 V 29.5 30 H 8.5 8 v -0.5"
       id="path785" />
    <path
       style="fill:#000000;fill-opacity:0.21176471"
       d="M 9,29.5 V 29 H 9.5 10 V 29.5 30 H 9.5 9 v -0.5"
       id="path787" />
    <path
       style="fill:#000000;fill-opacity:0.04705882"
       d="M 10,29.5 V 29 h 0.5 0.5 v 0.5 Q 11,30 10.5,30 H 10 v -0.5"
       id="path789" />
    <path
       style="fill:#000000;fill-opacity:0.03921569"
       d="M 4,30.5 V 30 H 4.5 5 V 30.5 31 H 4.5 Q 4,31 4,30.5"
       id="path791" />
    <path
       style="fill:#000000;fill-opacity:0.09019608"
       d="M 5,30.5 V 30 H 5.5 6 V 30.5 31 H 5.5 5 v -0.5"
       id="path793" />
    <path
       style="fill:#000000;fill-opacity:0.14509804"
       d="M 6,30.5 V 30 H 6.5 7 V 30.5 31 H 6.5 6 v -0.5"
       id="path795" />
    <path
       style="fill:#000000;fill-opacity:0.09019608"
       d="M 7,30.5 V 30 H 7.5 8 V 30.5 31 H 7.5 7 v -0.5"
       id="path797" />
    <path
       style="fill:#000000;fill-opacity:0.03921569"
       d="M 8,30.5 V 30 H 8.5 9 v 0.5 Q 9,31 8.5,31 H 8 v -0.5"
       id="path799" />
  </g>
</svg>
