<?xml version="1.0" encoding="UTF-8" standalone="no"?>
<!-- Created with Inkscape (http://www.inkscape.org/) -->

<svg
   xmlns:dc="http://purl.org/dc/elements/1.1/"
   xmlns:cc="http://creativecommons.org/ns#"
   xmlns:rdf="http://www.w3.org/1999/02/22-rdf-syntax-ns#"
   xmlns:svg="http://www.w3.org/2000/svg"
   xmlns="http://www.w3.org/2000/svg"
   xmlns:sodipodi="http://sodipodi.sourceforge.net/DTD/sodipodi-0.dtd"
   xmlns:inkscape="http://www.inkscape.org/namespaces/inkscape"
   version="1.1"
   id="svg1271"
   width="32"
   height="32"
   viewBox="0 0 32 32"
   sodipodi:docname="blacksmith.svg"
   inkscape:version="0.92.5 (2060ec1f9f, 2020-04-08)">
  <metadata
     id="metadata1277">
    <rdf:RDF>
      <cc:Work
         rdf:about="">
        <dc:format>image/svg+xml</dc:format>
        <dc:type
           rdf:resource="http://purl.org/dc/dcmitype/StillImage" />
        <dc:title></dc:title>
      </cc:Work>
    </rdf:RDF>
  </metadata>
  <defs
     id="defs1275" />
  <sodipodi:namedview
     pagecolor="#ffffff"
     bordercolor="#666666"
     borderopacity="1"
     objecttolerance="10"
     gridtolerance="10"
     guidetolerance="10"
     inkscape:pageopacity="0"
     inkscape:pageshadow="2"
     inkscape:window-width="1920"
     inkscape:window-height="1118"
     id="namedview1273"
     showgrid="false"
     inkscape:zoom="5.7096776"
     inkscape:cx="-34.887003"
     inkscape:cy="19.966101"
     inkscape:window-x="0"
     inkscape:window-y="24"
     inkscape:window-maximized="1"
     inkscape:current-layer="svg1271" />
  <g
     id="g1397"
     transform="scale(1,1.0322581)"
     style="display:inline">
    <path
       style="fill:#000000;fill-opacity:0"
       d="M 0,0.5 V 0 H 0.5 1 1.5 2 2.5 3 3.5 4 4.5 5 5.5 6 6.5 7 7.5 8 8.5 9 9.5 10 10.5 11 11.5 12 12.5 13 13.5 14 L 13.875,0.375 Q 13.75,0.75 13.375,0.875 13,1 12.875,1.375 12.75,1.75 12.375,1.875 12,2 12,2.5 q 0,0.5 0,1 0,0.5 0.375,0.625 0.375,0.125 0.5,0.5 Q 13,5 12.5,5 12,5 11.875,5.375 11.75,5.75 11.375,5.875 11,6 10.875,6.375 10.75,6.75 10.375,6.875 10,7 10,7.5 10,8 9.875,8.375 9.75,8.75 9.375,8.875 9,9 9,9.5 9,10 9,10.5 9,11 8.875,11.375 8.75,11.75 8.375,11.875 8,12 8,12.5 q 0,0.5 0,1 0,0.5 0,1 0,0.5 0,1 0,0.5 0,1 0,0.5 0,1 0,0.5 0.375,0.625 0.375,0.125 0.5,0.5 Q 9,19 9.5,19 q 0.5,0 0.5,0.5 0,0.5 0,1 0,0.5 0,1 0,0.5 0,1 V 23 H 9.5 Q 9,23 9,23.5 q 0,0.5 0,1 0,0.5 0,1 V 26 H 8.5 Q 8,26 8,26.5 q 0,0.5 0,1 0,0.5 0,1 0,0.5 0,1 0,0.5 0,1 V 31 H 7.5 7 6.5 6 5.5 5 4.5 4 3.5 3 2.5 2 1.5 1 0.5 0 V 30.5 30 29.5 29 28.5 28 27.5 27 26.5 26 25.5 25 24.5 24 23.5 23 22.5 22 21.5 21 20.5 20 19.5 19 18.5 18 17.5 17 16.5 16 15.5 15 14.5 14 13.5 13 12.5 12 11.5 11 10.5 10 9.5 9 8.5 8 7.5 7 6.5 6 5.5 5 4.5 4 3.5 3 2.5 2 1.5 1 0.5"
       id="path1281"
       inkscape:connector-curvature="0" />
    <path
       style="fill:#000000;fill-opacity:1"
       d="M 13.875,0.375 14,0 h 0.5 0.5 0.5 0.5 0.5 0.5 l 0.125,0.375 q 0.125,0.375 0.5,0.5 0.375,0.125 0.5,0.5 0.125,0.375 0.5,0.5 Q 19,2 19,2.5 q 0,0.5 0,1 0,0.5 0,1 0,0.5 -0.375,0.625 -0.375,0.125 -0.5,0.5 L 18,6 H 17.5 17 L 17.125,5.625 Q 17.25,5.25 17.5,5 17.75,4.75 17.875,4.375 18,4 18,3.5 18,3 17.875,2.625 17.75,2.25 17.375,2.125 L 17,2 16.875,1.625 Q 16.75,1.25 16.375,1.125 L 16,1 H 15.5 Q 15,1 14.625,1.125 14.25,1.25 14.125,1.625 L 14,2 13.625,2.125 q -0.375,0.125 -0.5,0.5 -0.125,0.375 0,0.75 0.125,0.375 0.5,0.5 L 14,4 v 0.5 q 0,0.5 0,1 V 6 5.625 5.25 5.5 q 0,0.25 0.03125,0.46875 L 14.0625,6.1875 14.046875,6.078125 14.03125,5.96875 13.640625,5.859375 Q 13.25,5.75 12.984375,6.046875 L 12.71875,6.34375 12.765625,6.390625 12.8125,6.4375 12.71875,6.34375 Q 12.625,6.25 12.5,6.25 H 12.375 12.5625 12.75 12.5 Q 12.25,6.25 12,6.5 11.75,6.75 11.5,7 11.25,7.25 11.125,7.625 11,8 10.875,8.375 10.75,8.75 10.5,9 10.25,9.25 10.125,9.625 10,10 10,10.5 10,11 9.875,11.375 9.75,11.75 9.5,12 9.25,12.25 9.125,12.625 9,13 9.125,13.375 L 9.25,13.75 9.15625,13.46875 9.0625,13.1875 9.125,13.375 q 0.0625,0.1875 0.1875,0.3125 l 0.125,0.125 L 9.375,13.75 9.3125,13.6875 9.03125,13.96875 Q 8.75,14.25 8.875,14.625 9,15 8.875,15.375 8.75,15.75 9.03125,16.03125 L 9.3125,16.3125 9.375,16.25 9.4375,16.1875 9.3125,16.3125 Q 9.1875,16.4375 9.125,16.625 L 9.0625,16.8125 9.15625,16.53125 9.25,16.25 9.125,16.625 q -0.125,0.375 0,0.75 0.125,0.375 0.5,0.5 L 10,18 10.375,17.875 10.75,17.75 10.46875,17.84375 10.1875,17.9375 10.375,17.875 q 0.1875,-0.0625 0.3125,-0.1875 l 0.125,-0.125 -0.0625,0.0625 -0.0625,0.0625 0.28125,0.28125 Q 11.25,18.25 11.125,18.625 11,19 11,19.5 q 0,0.5 0,1 0,0.5 0,1 V 22 22.5 Q 11,23 10.5,23 H 10 v -0.5 q 0,-0.5 0,-1 0,-0.5 0,-1 0,-0.5 0,-1 Q 10,19 9.5,19 9,19 8.875,18.625 8.75,18.25 8.375,18.125 8,18 8,17.5 8,17 8,16.5 8,16 8,15.5 8,15 8,14.5 8,14 8,13.5 8,13 8,12.5 8,12 8.375,11.875 8.75,11.75 8.875,11.375 9,11 9,10.5 9,10 9,9.5 9,9 9.375,8.875 9.75,8.75 9.875,8.375 10,8 10,7.5 10,7 10.375,6.875 10.75,6.75 10.875,6.375 11,6 11.375,5.875 11.75,5.75 11.875,5.375 12,5 12.5,5 13,5 12.875,4.625 12.75,4.25 12.375,4.125 12,4 12,3.5 12,3 12,2.5 12,2 12.375,1.875 12.75,1.75 12.875,1.375 13,1 13.375,0.875 q 0.375,-0.125 0.5,-0.5"
       id="path1283"
       inkscape:connector-curvature="0" />
    <path
       style="fill:#000000;fill-opacity:0"
       d="M 17.125,0.375 17,0 H 17.5 18 18.5 19 19.5 20 20.5 21 21.5 22 22.5 23 23.5 24 24.5 25 25.5 26 26.5 27 27.5 28 28.5 29 29.5 30 30.5 31 31.5 32 V 0.5 1 1.5 2 2.5 3 3.5 4 4.5 5 5.5 6 6.5 7 7.5 8 8.5 9 9.5 10 10.5 11 11.5 12 12.5 13 13.5 14 14.5 15 15.5 16 16.5 17 17.5 18 18.5 19 19.5 20 20.5 21 21.5 22 22.5 23 23.5 24 24.5 25 25.5 26 26.5 27 27.5 28 28.5 29 29.5 30 30.5 31 H 31.5 31 30.5 30 29.5 29 v -0.5 q 0,-0.5 0.5,-0.5 0.5,0 1,0 0.5,0 0.5,-0.5 0,-0.5 0,-1 0,-0.5 0,-1 0,-0.5 -0.5,-0.5 -0.5,0 -1,0 -0.5,0 -1,0 -0.5,0 -1,0 Q 27,27 27,26.5 27,26 26.5,26 q -0.5,0 -1,0 -0.5,0 -1,0 -0.5,0 -1,0 Q 23,26 23,25.5 23,25 23,24.5 23,24 22.5,24 H 22 v -0.5 q 0,-0.5 0,-1 0,-0.5 0,-1 0,-0.5 0,-1 Q 22,20 21.5,20 H 21 v -0.5 q 0,-0.5 0.5,-0.5 0.5,0 0.625,-0.375 0.125,-0.375 0.5,-0.5 Q 23,18 23,17.5 q 0,-0.5 0,-1 0,-0.5 0,-1 0,-0.5 0,-1 0,-0.5 0,-1 0,-0.5 0,-1 0,-0.5 0,-1 Q 23,11 22.5,11 H 22 V 10.5 Q 22,10 22,9.5 22,9 21.5,9 H 21 V 8.5 Q 21,8 21,7.5 21,7 20.5,7 H 20 V 6.5 Q 20,6 19.5,6 19,6 18.5,6 H 18 L 18.125,5.625 Q 18.25,5.25 18.625,5.125 19,5 19,4.5 19,4 19,3.5 19,3 19,2.5 19,2 18.625,1.875 18.25,1.75 18.125,1.375 18,1 17.625,0.875 17.25,0.75 17.125,0.375"
       id="path1285"
       inkscape:connector-curvature="0" />
    <path
       style="fill:#ffb691;fill-opacity:1"
       d="M 14.125,1.625 Q 14.25,1.25 14.625,1.125 15,1 15.5,1 H 16 L 15.875,1.375 Q 15.75,1.75 15.5,1.75 q -0.25,0 -0.546875,0.265625 L 14.65625,2.28125 14.703125,2.328125 14.75,2.375 14.65625,2.28125 Q 14.5625,2.1875 14.375,2.125 L 14.1875,2.0625 14.46875,2.15625 14.75,2.25 14.375,2.125 14,2 14.125,1.625"
       id="path1287"
       inkscape:connector-curvature="0" />
    <path
       style="fill:#e5a282;fill-opacity:1"
       d="M 15.875,1.375 16,1 16.375,1.125 q 0.375,0.125 0.5,0.5 L 17,2 16.625,2.125 Q 16.25,2.25 16.25,2.5 V 2.75 2.5625 2.375 2.5 q 0,0.125 0.09375,0.21875 L 16.4375,2.8125 16.390625,2.765625 16.34375,2.71875 16.046875,2.984375 Q 15.75,3.25 15.75,3.5 q 0,0.25 0.265625,0.515625 L 16.28125,4.28125 16.359375,4.234375 16.4375,4.1875 16.28125,4.28125 Q 16.125,4.375 16,4.5 L 15.875,4.625 16.0625,4.4375 16.25,4.25 16,4.5 Q 15.75,4.75 15.5,4.75 15.25,4.75 15,4.5 14.75,4.25 14.375,4.125 L 14,4 V 3.5 3 L 14.375,2.875 Q 14.75,2.75 14.75,2.5 V 2.25 2.4375 2.625 2.5 q 0,-0.125 -0.09375,-0.21875 L 14.5625,2.1875 14.609375,2.234375 14.65625,2.28125 14.953125,2.015625 Q 15.25,1.75 15.5,1.75 q 0.25,0 0.375,-0.375"
       id="path1289"
       inkscape:connector-curvature="0" />
    <path
       style="fill:#e0e0e0;fill-opacity:1"
       d="m 13.125,2.625 q 0.125,-0.375 0.5,-0.5 L 14,2 V 2.5 3 H 13.53125 13.0625 V 3.09375 3.1875 3 q 0,-0.1875 0.0625,-0.375 L 13.1875,2.4375 13.09375,2.71875 13,3 13.125,2.625"
       id="path1291"
       inkscape:connector-curvature="0" />
    <path
       style="fill:#7f5a48;fill-opacity:1"
       d="M 14,2.5 V 2 l 0.375,0.125 Q 14.75,2.25 14.75,2.5 q 0,0.25 -0.375,0.375 L 14,3 V 2.5"
       id="path1293"
       inkscape:connector-curvature="0" />
    <path
       style="fill:#7f5a48;fill-opacity:1"
       d="m 16.25,2.5 q 0,-0.25 0.375,-0.375 L 17,2 V 2.5 3 L 16.625,2.875 Q 16.25,2.75 16.25,2.5"
       id="path1295"
       inkscape:connector-curvature="0" />
    <path
       style="fill:#e0e0e0;fill-opacity:1"
       d="M 17,2.5 V 2 l 0.375,0.125 q 0.375,0.125 0.5,0.5 L 18,3 17.90625,2.71875 17.8125,2.4375 17.875,2.625 q 0.0625,0.1875 0.09375,0.40625 L 18,3.25 17.984375,3.140625 17.96875,3.03125 17.484375,3.015625 17,3 V 2.5"
       id="path1297"
       inkscape:connector-curvature="0" />
    <path
       style="fill:#b0b0b0;fill-opacity:1"
       d="M 13.125,3.375 13,3 13.09375,3.28125 13.1875,3.5625 13.125,3.375 Q 13.0625,3.1875 13.0625,3 V 2.8125 2.90625 3 H 13.53125 14 V 3.5 4 L 13.625,3.875 q -0.375,-0.125 -0.5,-0.5"
       id="path1299"
       inkscape:connector-curvature="0" />
    <path
       style="fill:#ffb691;fill-opacity:1"
       d="m 15.75,3.5 q 0,-0.25 0.296875,-0.515625 L 16.34375,2.71875 16.296875,2.671875 16.25,2.625 16.34375,2.71875 Q 16.4375,2.8125 16.625,2.875 L 16.8125,2.9375 16.53125,2.84375 16.25,2.75 16.625,2.875 17,3 V 3.5 4 3.625 3.25 3.5 q 0,0.25 -0.03125,0.46875 L 16.9375,4.1875 16.953125,4.078125 16.96875,3.96875 16.609375,4.109375 16.25,4.25 16.53125,4.15625 16.8125,4.0625 16.625,4.125 Q 16.4375,4.1875 16.28125,4.28125 L 16.125,4.375 16.203125,4.328125 16.28125,4.28125 16.015625,4.015625 Q 15.75,3.75 15.75,3.5"
       id="path1301"
       inkscape:connector-curvature="0" />
    <path
       style="fill:#b0b0b0;fill-opacity:1"
       d="M 17,3.5 V 3 L 17.484375,3.015625 17.96875,3.03125 17.953125,2.921875 17.9375,2.8125 17.96875,3.03125 Q 18,3.25 18,3.5 V 3.75 3.375 3 3.5 Q 18,4 17.875,4.375 17.75,4.75 17.5,5 17.25,5.25 17.125,5.625 L 17,6 16.875,6.375 Q 16.75,6.75 16.5,7 16.25,7.25 16,7.5 15.75,7.75 15.5,7.75 15.25,7.75 15,7.5 14.75,7.25 14.5,7 14.25,6.75 14.125,6.375 L 14,6 14.09375,6.28125 14.1875,6.5625 14.125,6.375 Q 14.0625,6.1875 14.03125,5.96875 L 14,5.75 14.01563,5.859375 14.03126,5.96875 14.390635,6.109375 Q 14.75,6.25 15,6.5 q 0.25,0.25 0.5,0.25 0.25,0 0.375,-0.375 Q 16,6 16.125,5.625 16.25,5.25 16.5,5 16.75,4.75 16.875,4.375 17,4 17,3.5"
       id="path1303"
       inkscape:connector-curvature="0" />
    <path
       style="fill:#e0e0e0;fill-opacity:1"
       d="M 14,4.5 V 4 l 0.375,0.125 Q 14.75,4.25 15,4.5 q 0.25,0.25 0.5,0.25 0.25,0 0.5,-0.25 0.25,-0.25 0.609375,-0.390625 L 16.96875,3.96875 16.984375,3.859375 17,3.75 16.96875,3.96875 Q 16.9375,4.1875 16.875,4.375 L 16.8125,4.5625 16.90625,4.28125 17,4 16.875,4.375 Q 16.75,4.75 16.5,5 16.25,5.25 16.125,5.625 16,6 15.875,6.375 15.75,6.75 15.5,6.75 15.25,6.75 15,6.5 14.75,6.25 14.390625,6.109375 L 14.03125,5.96875 14.046875,6.078125 14.0625,6.1875 14.03125,5.96875 Q 14,5.75 14,5.5 V 5.25 5.625 6 5.5 q 0,-0.5 0,-1"
       id="path1305"
       inkscape:connector-curvature="0" />
    <path
       style="fill:#404040;fill-opacity:1"
       d="m 12,6.5 q 0.25,-0.25 0.5,-0.25 0.25,0 0.375,0.375 Q 13,7 12.625,7.125 12.25,7.25 12.125,7.625 12,8 12,8.5 12,9 12,9.5 V 10 h -0.5 q -0.5,0 -0.5,0.5 0,0.5 0,1 0,0.5 -0.375,0.625 -0.375,0.125 -0.5,0.5 Q 10,13 10,13.5 10,14 9.625,13.875 9.25,13.75 9.125,13.375 9,13 9.125,12.625 9.25,12.25 9.5,12 9.75,11.75 9.875,11.375 10,11 10,10.5 10,10 10.125,9.625 10.25,9.25 10.5,9 10.75,8.75 10.875,8.375 11,8 11.125,7.625 11.25,7.25 11.5,7 11.75,6.75 12,6.5"
       id="path1307"
       inkscape:connector-curvature="0" />
    <path
       style="fill:#303030;fill-opacity:1"
       d="M 12.875,6.625 12.75,6.25 12.84375,6.53125 12.9375,6.8125 12.875,6.625 Q 12.8125,6.4375 12.71875,6.34375 L 12.625,6.25 12.671875,6.296875 12.71875,6.34375 12.984375,6.046875 Q 13.25,5.75 13.640625,5.859375 L 14.03125,5.96875 14.015625,5.859375 14,5.75 14.03125,5.96875 Q 14.0625,6.1875 14.125,6.375 L 14.1875,6.5625 14.09375,6.28125 14,6 14.125,6.375 Q 14.25,6.75 14.5,7 14.75,7.25 15,7.5 L 15.25,7.75 15.0625,7.5625 14.875,7.375 15,7.5 q 0.125,0.125 0.25,0.1875 L 15.375,7.75 15.3125,7.71875 15.25,7.6875 15,7.96875 Q 14.75,8.25 14.875,8.625 15,9 14.5,9 H 14 V 8.5 Q 14,8 13.5,8 13,8 13,8.5 13,9 13,9.5 V 10 H 12.5 12 V 9.5 Q 12,9 12,8.5 12,8 12.125,7.625 12.25,7.25 12.625,7.125 13,7 12.875,6.625"
       id="path1309"
       inkscape:connector-curvature="0" />
    <path
       style="fill:#303030;fill-opacity:1"
       d="M 16.875,6.375 17,6 H 17.5 18 V 6.5 Q 18,7 18.5,7 H 19 V 7.5 Q 19,8 19,8.5 19,9 19.5,9 H 20 v 0.5 q 0,0.5 0,1 0,0.5 0,1 0,0.5 0.5,0.5 0.5,0 0.5,0.5 0,0.5 0,1 0,0.5 0,1 0,0.5 0,1 V 16 L 20.625,16.125 20.25,16.25 20.53125,16.15625 20.8125,16.0625 20.625,16.125 q -0.1875,0.0625 -0.3125,0.1875 l -0.125,0.125 0.0625,-0.0625 0.0625,-0.0625 -0.28125,-0.28125 Q 19.75,15.75 19.875,15.375 20,15 20,14.5 20,14 20,13.5 20,13 19.5,13 19,13 19,12.5 19,12 19,11.5 19,11 19,10.5 19,10 18.5,10 H 18 V 9.5 Q 18,9 18,8.5 18,8 17.5,8 H 17 L 17.125,7.625 Q 17.25,7.25 16.984375,6.984375 L 16.71875,6.71875 16.671875,6.796875 16.625,6.875 16.71875,6.71875 Q 16.8125,6.5625 16.875,6.375 L 16.9375,6.1875 16.84375,6.46875 16.75,6.75 16.875,6.375"
       id="path1311"
       inkscape:connector-curvature="0" />
    <path
       style="fill:#000000;fill-opacity:1"
       d="M 18,6.5 V 6 h 0.5 Q 19,6 19.5,6 20,6 20,6.5 V 7 H 19.5 19 18.5 Q 18,7 18,6.5"
       id="path1313"
       inkscape:connector-curvature="0" />
    <path
       style="fill:#202020;fill-opacity:1"
       d="M 16,7.5 Q 16.25,7.25 16.5,7 L 16.75,6.75 16.5625,6.9375 16.375,7.125 16.5,7 Q 16.625,6.875 16.71875,6.71875 L 16.8125,6.5625 16.765625,6.640625 16.71875,6.71875 16.984375,6.984375 Q 17.25,7.25 17.125,7.625 L 17,8 16.625,8.125 q -0.375,0.125 -0.5,0.5 L 16,9 v 0.5 q 0,0.5 0,1 V 11 H 15.5 Q 15,11 15,11.5 15,12 14.875,12.375 14.75,12.75 14.5,12.75 14.25,12.75 14.125,12.375 14,12 14,11.5 V 11 10.5 q 0,-0.5 0,-1 V 9 h 0.5 Q 15,9 14.875,8.625 14.75,8.25 15,7.96875 L 15.25,7.6875 15.1875,7.65625 15.125,7.625 15.25,7.6875 Q 15.375,7.75 15.5,7.75 H 15.625 15.4375 15.25 15.5 q 0.25,0 0.5,-0.25"
       id="path1315"
       inkscape:connector-curvature="0" />
    <path
       style="fill:#202020;fill-opacity:1"
       d="M 19,7.5 V 7 h 0.5 0.5 v 0.5 q 0,0.5 0,1 V 9 H 19.5 Q 19,9 19,8.5 19,8 19,7.5"
       id="path1317"
       inkscape:connector-curvature="0" />
    <path
       style="fill:#000000;fill-opacity:1"
       d="M 20,7.5 V 7 h 0.5 Q 21,7 21,7.5 21,8 21,8.5 V 9 H 20.5 20 V 8.5 q 0,-0.5 0,-1"
       id="path1319"
       inkscape:connector-curvature="0" />
    <path
       style="fill:#404040;fill-opacity:1"
       d="M 13,8.5 Q 13,8 13.5,8 14,8 14,8.5 V 9 9.5 q 0,0.5 0,1 V 11 H 13.5 13 V 10.5 10 9.5 q 0,-0.5 0,-1"
       id="path1321"
       inkscape:connector-curvature="0" />
    <path
       style="fill:#303030;fill-opacity:1"
       d="m 16.125,8.625 q 0.125,-0.375 0.5,-0.5 L 17,8 V 8.5 Q 17,9 16.5,9 H 16 l 0.125,-0.375"
       id="path1323"
       inkscape:connector-curvature="0" />
    <path
       style="fill:#404040;fill-opacity:1"
       d="M 17,8.5 V 8 h 0.5 Q 18,8 18,8.5 18,9 18,9.5 V 10 H 17.5 Q 17,10 17,10.5 17,11 17,11.5 17,12 16.5,12 16,12 16,11.5 V 11 10.5 q 0,-0.5 0,-1 V 9 h 0.5 Q 17,9 17,8.5"
       id="path1325"
       inkscape:connector-curvature="0" />
    <path
       style="fill:#202020;fill-opacity:1"
       d="M 20,9.5 V 9 h 0.5 0.5 v 0.5 q 0,0.5 0,1 0,0.5 0.5,0.5 H 22 v 0.5 q 0,0.5 0,1 0,0.5 0,1 0,0.5 0,1 0,0.5 0.125,0.875 0.125,0.375 -0.15625,0.65625 l -0.28125,0.28125 0.0625,0.0625 0.0625,0.0625 -0.125,-0.125 Q 21.5625,16.1875 21.375,16.125 L 21.1875,16.0625 21.46875,16.15625 21.75,16.25 21.375,16.125 21,16 v -0.5 q 0,-0.5 0,-1 0,-0.5 0,-1 0,-0.5 0,-1 Q 21,12 20.5,12 20,12 20,11.5 q 0,-0.5 0,-1 0,-0.5 0,-1"
       id="path1327"
       inkscape:connector-curvature="0" />
    <path
       style="fill:#000000;fill-opacity:1"
       d="M 21,9.5 V 9 h 0.5 q 0.5,0 0.5,0.5 0,0.5 0,1 V 11 H 21.5 Q 21,11 21,10.5 21,10 21,9.5"
       id="path1329"
       inkscape:connector-curvature="0" />
    <path
       style="fill:#303030;fill-opacity:1"
       d="M 11,10.5 Q 11,10 11.5,10 H 12 v 0.5 q 0,0.5 0,1 0,0.5 0,1 0,0.5 0,1 0,0.5 -0.5,0.5 -0.5,0 -0.5,0.5 0,0.5 0.125,0.875 0.125,0.375 -0.15625,0.65625 l -0.28125,0.28125 0.0625,0.0625 0.0625,0.0625 -0.125,-0.125 Q 10.5625,16.1875 10.375,16.125 L 10.1875,16.0625 10.46875,16.15625 10.75,16.25 10.375,16.125 10,16 9.625,16.125 9.25,16.25 9.53125,16.15625 9.8125,16.0625 9.625,16.125 Q 9.4375,16.1875 9.3125,16.3125 L 9.1875,16.4375 9.25,16.375 9.3125,16.3125 9.03125,16.03125 Q 8.75,15.75 8.875,15.375 9,15 8.875,14.625 8.75,14.25 9.03125,13.96875 L 9.3125,13.6875 9.25,13.625 9.1875,13.5625 l 0.125,0.125 q 0.125,0.125 0.3125,0.1875 L 9.8125,13.9375 9.53125,13.84375 9.25,13.75 9.625,13.875 Q 10,14 10,13.5 10,13 10.125,12.625 10.25,12.25 10.625,12.125 11,12 11,11.5 q 0,-0.5 0,-1"
       id="path1331"
       inkscape:connector-curvature="0" />
    <path
       style="fill:#202020;fill-opacity:1"
       d="M 12,10.5 V 10 h 0.5 0.5 v 0.5 0.5 0.5 q 0,0.5 -0.125,0.875 -0.125,0.375 0.140625,0.671875 L 13.28125,13.34375 13.32812,13.29688 13.375,13.25 13.28125,13.34375 Q 13.1875,13.4375 13.125,13.625 L 13.0625,13.8125 13.15625,13.53125 13.25,13.25 13.125,13.625 13,14 13.125,14.375 13.25,14.75 13.15625,14.46875 13.0625,14.1875 13.125,14.375 q 0.0625,0.1875 0.1875,0.3125 l 0.125,0.125 L 13.375,14.75 13.3125,14.6875 13.03125,14.96875 Q 12.75,15.25 12.875,15.625 L 13,16 V 16.5 17 H 12.5 Q 12,17 12,17.5 v 0.5 0.5 q 0,0.5 0,1 0,0.5 0,1 0,0.5 0,1 V 22 H 11.5 11 v -0.5 q 0,-0.5 0,-1 0,-0.5 0,-1 0,-0.5 0.125,-0.875 0.125,-0.375 -0.15625,-0.65625 L 10.6875,17.6875 10.625,17.75 l -0.0625,0.0625 0.125,-0.125 q 0.125,-0.125 0.1875,-0.3125 L 10.9375,17.1875 10.84375,17.46875 10.75,17.75 10.875,17.375 Q 11,17 10.875,16.625 L 10.75,16.25 10.84375,16.53125 10.9375,16.8125 10.875,16.625 q -0.0625,-0.1875 -0.1875,-0.3125 l -0.125,-0.125 0.0625,0.0625 0.0625,0.0625 0.28125,-0.28125 Q 11.25,15.75 11.125,15.375 11,15 11,14.5 11,14 11.5,14 12,14 12,13.5 q 0,-0.5 0,-1 0,-0.5 0,-1 0,-0.5 0,-1"
       id="path1333"
       inkscape:connector-curvature="0" />
    <path
       style="fill:#303030;fill-opacity:1"
       d="M 17,10.5 Q 17,10 17.5,10 H 18 v 0.5 q 0,0.5 0,1 0,0.5 0.125,0.875 0.125,0.375 -0.140625,0.640625 l -0.265625,0.265625 0.04687,0.07813 0.04687,0.07813 -0.09375,-0.15625 Q 17.625,13.125 17.5,13 L 17.375,12.875 17.5625,13.0625 17.75,13.25 17.5,13 q -0.25,-0.25 -0.53125,0.03125 l -0.28125,0.28125 0.0625,0.0625 0.0625,0.0625 -0.125,-0.125 Q 16.5625,13.1875 16.375,13.125 L 16.1875,13.0625 16.46875,13.15625 16.75,13.25 16.375,13.125 Q 16,13 15.625,13.125 L 15.25,13.25 15.53125,13.15625 15.8125,13.0625 15.625,13.125 q -0.1875,0.0625 -0.3125,0.1875 l -0.125,0.125 L 15.25,13.375 15.3125,13.3125 15.015625,12.984375 14.71875,12.65625 14.671875,12.703125 14.625,12.75 14.71875,12.65625 Q 14.8125,12.5625 14.875,12.375 L 14.9375,12.1875 14.84375,12.46875 14.75,12.75 14.875,12.375 Q 15,12 15,11.5 15,11 15.5,11 H 16 v 0.5 q 0,0.5 0.5,0.5 0.5,0 0.5,-0.5 0,-0.5 0,-1"
       id="path1335"
       inkscape:connector-curvature="0" />
    <path
       style="fill:#202020;fill-opacity:1"
       d="M 18,10.5 V 10 h 0.5 q 0.5,0 0.5,0.5 0,0.5 0,1 0,0.5 0,1 0,0.5 0.5,0.5 0.5,0 0.5,0.5 0,0.5 0,1 0,0.5 -0.125,0.875 -0.125,0.375 0.15625,0.65625 l 0.28125,0.28125 0.0625,-0.0625 0.0625,-0.0625 -0.125,0.125 q -0.125,0.125 -0.1875,0.3125 L 20.0625,16.8125 20.15625,16.53125 20.25,16.25 20.125,16.625 Q 20,17 20.125,17.375 L 20.25,17.75 20.15625,17.46875 20.0625,17.1875 20.125,17.375 q 0.0625,0.1875 0.1875,0.3125 l 0.125,0.125 L 20.375,17.75 20.3125,17.6875 20.03125,17.96875 Q 19.75,18.25 19.875,18.625 20,19 20,19.5 V 20 H 19.5 Q 19,20 19,19.5 q 0,-0.5 0,-1 0,-0.5 0,-1 0,-0.5 0,-1 0,-0.5 0,-1 Q 19,15 18.625,15.125 18.25,15.25 17.96875,14.96875 L 17.6875,14.6875 17.625,14.75 l -0.0625,0.0625 0.125,-0.125 q 0.125,-0.125 0.1875,-0.3125 L 17.9375,14.1875 17.84375,14.46875 17.75,14.75 17.875,14.375 Q 18,14 17.875,13.625 L 17.75,13.25 17.84375,13.53125 17.9375,13.8125 17.875,13.625 Q 17.8125,13.4375 17.71875,13.28125 L 17.625,13.125 l 0.04687,0.07813 0.04687,0.07813 0.265625,-0.265625 Q 18.25,12.75 18.125,12.375 18,12 18,11.5 q 0,-0.5 0,-1"
       id="path1337"
       inkscape:connector-curvature="0" />
    <path
       style="fill:#303030;fill-opacity:1"
       d="M 13,11.5 V 11 h 0.5 0.5 v 0.5 q 0,0.5 0.125,0.875 L 14.25,12.75 14.15625,12.46875 14.0625,12.1875 14.125,12.375 q 0.0625,0.1875 0.15625,0.28125 L 14.375,12.75 14.32813,12.70313 14.28126,12.65626 14.015635,12.953135 Q 13.75,13.25 13.5,13.25 H 13.25 13.4375 13.625 13.5 q -0.125,0 -0.21875,0.09375 l -0.09375,0.09375 0.04687,-0.04687 0.04687,-0.04687 -0.265625,-0.296875 Q 12.75,12.75 12.875,12.375 13,12 13,11.5"
       id="path1339"
       inkscape:connector-curvature="0" />
    <path
       style="fill:#000000;fill-opacity:1"
       d="M 22,11.5 V 11 h 0.5 q 0.5,0 0.5,0.5 0,0.5 0,1 0,0.5 0,1 0,0.5 0,1 0,0.5 0,1 0,0.5 0,1 0,0.5 0,1 0,0.5 -0.375,0.625 -0.375,0.125 -0.5,0.5 Q 22,19 21.5,19 21,19 21,19.5 V 20 H 20.5 20 V 19.5 Q 20,19 19.875,18.625 19.75,18.25 20.03125,17.96875 L 20.3125,17.6875 20.25,17.625 l -0.0625,-0.0625 0.125,0.125 q 0.125,0.125 0.3125,0.1875 L 20.8125,17.9375 20.53125,17.84375 20.25,17.75 20.625,17.875 21,18 21.375,17.875 q 0.375,-0.125 0.5,-0.5 0.125,-0.375 0,-0.75 L 21.75,16.25 21.84375,16.53125 21.9375,16.8125 21.875,16.625 q -0.0625,-0.1875 -0.1875,-0.3125 l -0.125,-0.125 0.0625,0.0625 0.0625,0.0625 0.28125,-0.28125 Q 22.25,15.75 22.125,15.375 22,15 22,14.5 q 0,-0.5 0,-1 0,-0.5 0,-1 0,-0.5 0,-1"
       id="path1341"
       inkscape:connector-curvature="0" />
    <path
       style="fill:#505050;fill-opacity:1"
       d="M 13.125,13.625 Q 13.25,13.25 13.5,13.25 q 0.25,0 0.515625,-0.296875 l 0.265625,-0.296875 -0.04687,-0.04687 -0.04687,-0.04687 0.09375,0.09375 Q 14.375,12.75 14.5,12.75 H 14.625 14.4375 14.25 14.5 14.75 14.5625 14.375 14.5 q 0.125,0 0.21875,-0.09375 l 0.09375,-0.09375 -0.04687,0.04687 -0.04687,0.04687 0.296875,0.328125 0.296875,0.328125 0.0625,-0.0625 0.0625,-0.0625 -0.125,0.125 q -0.125,0.125 -0.1875,0.3125 L 15.0625,13.8125 15.15625,13.53125 15.25,13.25 15.125,13.625 15,14 h -0.5 q -0.5,0 -1,0 H 13 l 0.125,-0.375"
       id="path1343"
       inkscape:connector-curvature="0" />
    <path
       style="fill:#707070;fill-opacity:1"
       d="m 15.125,13.625 q 0.125,-0.375 0.5,-0.5 0.375,-0.125 0.75,0 0.375,0.125 0.5,0.5 Q 17,14 16.5,14 16,14 15.5,14 H 15 l 0.125,-0.375"
       id="path1345"
       inkscape:connector-curvature="0" />
    <path
       style="fill:#505050;fill-opacity:1"
       d="M 16.875,13.625 16.75,13.25 16.84375,13.53125 16.9375,13.8125 16.875,13.625 q -0.0625,-0.1875 -0.1875,-0.3125 l -0.125,-0.125 0.0625,0.0625 0.0625,0.0625 0.28125,-0.28125 Q 17.25,12.75 17.5,13 q 0.25,0.25 0.375,0.625 0.125,0.375 0,0.75 -0.125,0.375 -0.5,0.5 Q 17,15 16.5,15 16,15 15.625,15.125 15.25,15.25 14.96875,14.96875 L 14.6875,14.6875 14.625,14.75 l -0.0625,0.0625 0.125,-0.125 q 0.125,-0.125 0.1875,-0.3125 L 14.9375,14.1875 14.84375,14.46875 14.75,14.75 14.875,14.375 15,14 h 0.5 q 0.5,0 1,0 0.5,0 0.375,-0.375"
       id="path1347"
       inkscape:connector-curvature="0" />
    <path
       style="fill:#707070;fill-opacity:1"
       d="M 13.125,14.375 13,14 h 0.5 q 0.5,0 1,0 H 15 l -0.125,0.375 q -0.125,0.375 -0.5,0.5 -0.375,0.125 -0.75,0 -0.375,-0.125 -0.5,-0.5"
       id="path1349"
       inkscape:connector-curvature="0" />
    <path
       style="fill:#303030;fill-opacity:1"
       d="M 12.875,15.625 Q 12.75,15.25 13.03125,14.96875 L 13.3125,14.6875 13.25,14.625 l -0.0625,-0.0625 0.125,0.125 q 0.125,0.125 0.3125,0.1875 L 13.8125,14.9375 13.53125,14.84375 13.25,14.75 l 0.375,0.125 q 0.375,0.125 0.75,0 L 14.75,14.75 14.46875,14.84375 14.1875,14.9375 14.375,14.875 q 0.1875,-0.0625 0.3125,-0.1875 l 0.125,-0.125 -0.0625,0.0625 -0.0625,0.0625 0.28125,0.28125 Q 15.25,15.25 15.625,15.125 16,15 16.5,15 17,15 17.375,14.875 L 17.75,14.75 17.46875,14.84375 17.1875,14.9375 17.375,14.875 q 0.1875,-0.0625 0.3125,-0.1875 l 0.125,-0.125 -0.0625,0.0625 -0.0625,0.0625 0.28125,0.28125 Q 18.25,15.25 18.625,15.125 19,15 19,15.5 q 0,0.5 0,1 0,0.5 0,1 0,0.5 0,1 0,0.5 0,1 0,0.5 0.5,0.5 H 20 v 0.5 q 0,0.5 0,1 0,0.5 0,1 0,0.5 0,1 0,0.5 0,1 V 25 H 19.5 Q 19,25 19,24.5 19,24 19,23.5 19,23 18.5,23 H 18 v -0.5 q 0,-0.5 0,-1 0,-0.5 0,-1 0,-0.5 0,-1 0,-0.5 0,-1 0,-0.5 0,-1 Q 18,17 17.5,17 17,17 17,17.5 q 0,0.5 0,1 0,0.5 -0.5,0.5 H 16 V 18.5 Q 16,18 16,17.5 16,17 15.5,17 15,17 15,17.5 q 0,0.5 0,1 0,0.5 0,1 0,0.5 0,1 0,0.5 0,1 0,0.5 0,1 0,0.5 0,1 0,0.5 -0.5,0.5 H 14 v -0.5 q 0,-0.5 0,-1 0,-0.5 0,-1 0,-0.5 0,-1 0,-0.5 0,-1 0,-0.5 0,-1 0,-0.5 0,-1 0,-0.5 0,-1 Q 14,16 13.5,16 H 13 l -0.125,-0.375"
       id="path1351"
       inkscape:connector-curvature="0" />
    <path
       style="fill:#e5a282;fill-opacity:1"
       d="m 9.125,16.625 q 0.125,-0.375 0.5,-0.5 L 10,16 v 0.5 q 0,0.5 0,1 V 18 L 9.625,17.875 Q 9.25,17.75 9.125,17.375 9,17 9.125,16.625"
       id="path1353"
       inkscape:connector-curvature="0" />
    <path
       style="fill:#ca8f72;fill-opacity:1"
       d="M 10,16.5 V 16 l 0.375,0.125 q 0.375,0.125 0.5,0.5 0.125,0.375 0,0.75 -0.125,0.375 -0.5,0.5 L 10,18 v -0.5 q 0,-0.5 0,-1"
       id="path1355"
       inkscape:connector-curvature="0" />
    <path
       style="fill:#404040;fill-opacity:1"
       d="M 13,16.5 V 16 h 0.5 q 0.5,0 0.5,0.5 0,0.5 0,1 0,0.5 0,1 0,0.5 0,1 0,0.5 0,1 0,0.5 0,1 0,0.5 0,1 0,0.5 0,1 v 0.5 0.5 q 0,0.5 0,1 V 26 H 13.5 Q 13,26 13,26.5 13,27 12.5,27 H 12 v -0.5 q 0,-0.5 0,-1 0,-0.5 0,-1 V 24 23.5 q 0,-0.5 0,-1 V 22 21.5 q 0,-0.5 0,-1 0,-0.5 0,-1 0,-0.5 0,-1 V 18 h 0.5 Q 13,18 13,17.5 V 17 16.5"
       id="path1357"
       inkscape:connector-curvature="0" />
    <path
       style="fill:#e5a282;fill-opacity:1"
       d="m 20.125,16.625 q 0.125,-0.375 0.5,-0.5 L 21,16 v 0.5 q 0,0.5 0,1 V 18 l -0.375,-0.125 q -0.375,-0.125 -0.5,-0.5 -0.125,-0.375 0,-0.75"
       id="path1359"
       inkscape:connector-curvature="0" />
    <path
       style="fill:#ca8f72;fill-opacity:1"
       d="M 21,16.5 V 16 l 0.375,0.125 q 0.375,0.125 0.5,0.5 0.125,0.375 0,0.75 -0.125,0.375 -0.5,0.5 L 21,18 v -0.5 q 0,-0.5 0,-1"
       id="path1361"
       inkscape:connector-curvature="0" />
    <path
       style="fill:#303030;fill-opacity:1"
       d="M 12,17.5 Q 12,17 12.5,17 H 13 v 0.5 Q 13,18 12.5,18 H 12 v -0.5"
       id="path1363"
       inkscape:connector-curvature="0" />
    <path
       style="fill:#202020;fill-opacity:1"
       d="m 15,17.5 q 0,-0.5 0.5,-0.5 0.5,0 0.5,0.5 0,0.5 0,1 v 0.5 0.5 q 0,0.5 0,1 0,0.5 0,1 0,0.5 0,1 0,0.5 0,1 0,0.5 0,1 v 0.5 0.5 q 0,0.5 0,1 0,0.5 0.5,0.5 0.5,0 0.5,0.5 0,0.5 0.5,0.5 0.5,0 0.5,-0.5 0,-0.5 0,-1 0,-0.5 0,-1 V 25 24.5 q 0,-0.5 0,-1 V 23 h 0.5 q 0.5,0 0.5,0.5 0,0.5 0,1 0,0.5 0.5,0.5 H 20 v -0.5 q 0,-0.5 0,-1 0,-0.5 0,-1 0,-0.5 0,-1 0,-0.5 0,-1 V 20 h 0.5 0.5 v 0.5 q 0,0.5 0,1 0,0.5 0,1 0,0.5 0,1 0,0.5 0.5,0.5 H 22 v 0.5 q 0,0.5 0,1 0,0.5 0,1 0,0.5 0,1 0,0.5 0.125,0.875 0.125,0.375 0.5,0.5 Q 23,29 23,29.5 q 0,0.5 -0.375,0.625 -0.375,0.125 -0.5,0.5 L 22,31 H 21.5 21 20.5 20 19.5 19 18.5 18 L 17.875,30.625 Q 17.75,30.25 18.046875,29.984375 L 18.34375,29.71875 18.296875,29.671875 18.25,29.625 18.34375,29.71875 Q 18.4375,29.8125 18.625,29.875 L 18.8125,29.9375 18.53125,29.84375 18.25,29.75 18.625,29.875 Q 19,30 19.5,30 q 0.5,0 1,0 H 21 l 0.375,-0.125 Q 21.75,29.75 21.75,29.5 21.75,29.25 21.5,29 21.25,28.75 21,28.5 20.75,28.25 20.375,28.125 20,28 19.625,28.125 19.25,28.25 19,28.5 18.75,28.75 18.5,29 L 18.25,29.25 18.4375,29.0625 18.625,28.875 18.5,29 q -0.125,0.125 -0.1875,0.25 L 18.25,29.375 18.28125,29.3125 18.3125,29.25 18.03125,29 Q 17.75,28.75 17.375,28.875 17,29 16.5,29 q -0.5,0 -1,0 -0.5,0 -1,0 -0.5,0 -1,0 H 13 V 28.5 Q 13,28 13.5,28 14,28 14,27.5 14,27 14,26.5 V 26 25.5 q 0,-0.5 0,-1 V 24 h 0.5 q 0.5,0 0.5,-0.5 0,-0.5 0,-1 0,-0.5 0,-1 0,-0.5 0,-1 0,-0.5 0,-1 0,-0.5 0,-1 0,-0.5 0,-1 M 20.5,25 H 20 v 0.5 Q 20,26 20.5,26 21,26 21,25.5 21,25 20.5,25"
       id="path1365"
       inkscape:connector-curvature="0" />
    <path
       style="fill:#404040;fill-opacity:1"
       d="m 17,17.5 q 0,-0.5 0.5,-0.5 0.5,0 0.5,0.5 0,0.5 0,1 0,0.5 0,1 0,0.5 0,1 0,0.5 0,1 0,0.5 0,1 v 0.5 0.5 q 0,0.5 0,1 V 25 h -0.5 q -0.5,0 -1,0 H 16 v -0.5 q 0,-0.5 0,-1 0,-0.5 0,-1 0,-0.5 0,-1 0,-0.5 0,-1 0,-0.5 0,-1 V 19 h 0.5 q 0.5,0 0.5,-0.5 0,-0.5 0,-1"
       id="path1367"
       inkscape:connector-curvature="0" />
    <path
       style="fill:#000000;fill-opacity:1"
       d="M 21,20.5 V 20 h 0.5 q 0.5,0 0.5,0.5 0,0.5 0,1 0,0.5 0,1 0,0.5 0,1 V 24 H 21.5 Q 21,24 21,23.5 q 0,-0.5 0,-1 0,-0.5 0,-1 0,-0.5 0,-1"
       id="path1369"
       inkscape:connector-curvature="0" />
    <path
       style="fill:#303030;fill-opacity:1"
       d="M 11,22.5 V 22 h 0.5 0.5 v 0.5 q 0,0.5 0,1 V 24 h -0.5 q -0.5,0 -0.5,0.5 0,0.5 0,1 0,0.5 0,1 0,0.5 0,1 Q 11,28 10.5,28 10,28 10,27.5 10,27 10,26.5 V 26 25.5 q 0,-0.5 0,-1 0,-0.5 0,-1 V 23 h 0.5 Q 11,23 11,22.5"
       id="path1371"
       inkscape:connector-curvature="0" />
    <path
       style="fill:#000000;fill-opacity:1"
       d="M 9,23.5 Q 9,23 9.5,23 H 10 v 0.5 q 0,0.5 0,1 0,0.5 0,1 V 26 H 9.5 9 v -0.5 q 0,-0.5 0,-1 0,-0.5 0,-1"
       id="path1373"
       inkscape:connector-curvature="0" />
    <path
       style="fill:#202020;fill-opacity:1"
       d="M 11,24.5 Q 11,24 11.5,24 H 12 v 0.5 q 0,0.5 0,1 0,0.5 0,1 v 0.5 0.5 q 0,0.5 0.125,0.875 0.125,0.375 0.5,0.5 L 13,29 v 0.5 q 0,0.5 -0.375,0.625 -0.375,0.125 -0.5,0.5 L 12,31 H 11.5 11 10.5 10 9.5 9 L 8.875,30.625 Q 8.75,30.25 9.046875,29.984375 L 9.34375,29.71875 9.296875,29.671875 9.25,29.625 9.34375,29.71875 Q 9.4375,29.8125 9.625,29.875 L 9.8125,29.9375 9.53125,29.84375 9.25,29.75 9.625,29.875 10,30 h 0.5 Q 11,30 11.375,29.875 11.75,29.75 11.75,29.5 11.75,29.25 11.375,29.125 11,29 10.5,29 H 10 L 9.625,29.125 9.25,29.25 9.53125,29.15625 9.8125,29.0625 9.625,29.125 Q 9.4375,29.1875 9.34375,29.28125 L 9.25,29.375 9.296875,29.328125 9.34375,29.28125 9.046875,29.015625 Q 8.75,28.75 8.875,28.375 9,28 9,27.5 9,27 9,26.5 V 26 H 9.5 10 v 0.5 q 0,0.5 0,1 0,0.5 0.5,0.5 0.5,0 0.5,-0.5 0,-0.5 0,-1 0,-0.5 0,-1 0,-0.5 0,-1"
       id="path1375"
       inkscape:connector-curvature="0" />
    <path
       style="fill:#000000;fill-opacity:1"
       d="M 22,24.5 V 24 h 0.5 q 0.5,0 0.5,0.5 0,0.5 0,1 0,0.5 0.5,0.5 0.5,0 1,0 0.5,0 1,0 0.5,0 1,0 0.5,0 0.5,0.5 0,0.5 0.5,0.5 0.5,0 1,0 0.5,0 1,0 0.5,0 1,0 0.5,0 0.5,0.5 0,0.5 0,1 0,0.5 0,1 0,0.5 -0.5,0.5 -0.5,0 -1,0 Q 29,30 29,30.5 V 31 H 28.5 28 27.5 27 26.5 26 25.5 25 24.5 24 23.5 23 22.5 22 l 0.125,-0.375 q 0.125,-0.375 0.5,-0.5 Q 23,30 23,29.5 23,29 22.625,28.875 22.25,28.75 22.125,28.375 22,28 22,27.5 q 0,-0.5 0,-1 0,-0.5 0,-1 0,-0.5 0,-1"
       id="path1377"
       inkscape:connector-curvature="0" />
    <path
       style="fill:#303030;fill-opacity:1"
       d="M 16,25.5 V 25 h 0.5 q 0.5,0 1,0 H 18 v 0.5 q 0,0.5 0,1 0,0.5 0,1 Q 18,28 17.5,28 17,28 17,27.5 17,27 16.5,27 16,27 16,26.5 q 0,-0.5 0,-1"
       id="path1379"
       inkscape:connector-curvature="0" />
    <path
       style="fill:#303030;fill-opacity:1"
       d="M 20,25.5 V 25 h 0.5 Q 21,25 21,25.5 21,26 20.5,26 20,26 20,25.5"
       id="path1381"
       inkscape:connector-curvature="0" />
    <path
       style="fill:#000000;fill-opacity:1"
       d="M 8,26.5 Q 8,26 8.5,26 H 9 v 0.5 Q 9,27 9,27.5 9,28 8.875,28.375 8.75,28.75 9.046875,29.015625 L 9.34375,29.28125 9.390625,29.234375 9.4375,29.1875 9.34375,29.28125 Q 9.25,29.375 9.25,29.5 V 29.625 29.4375 29.25 29.5 29.75 29.5625 29.375 29.5 q 0,0.125 0.09375,0.21875 L 9.4375,29.8125 9.390625,29.765625 9.34375,29.71875 9.046875,29.984375 Q 8.75,30.25 8.875,30.625 L 9,31 H 8.5 8 v -0.5 q 0,-0.5 0,-1 0,-0.5 0,-1 0,-0.5 0,-1 0,-0.5 0,-1"
       id="path1383"
       inkscape:connector-curvature="0" />
    <path
       style="fill:#303030;fill-opacity:1"
       d="M 13,26.5 Q 13,26 13.5,26 H 14 v 0.5 q 0,0.5 0,1 Q 14,28 13.5,28 13,28 13,28.5 V 29 L 12.625,28.875 Q 12.25,28.75 12.125,28.375 12,28 12,27.5 V 27 h 0.5 Q 13,27 13,26.5"
       id="path1385"
       inkscape:connector-curvature="0" />
    <path
       style="fill:#ca8f72;fill-opacity:1"
       d="m 19,28.5 q 0.25,-0.25 0.625,-0.375 0.375,-0.125 0.75,0 0.375,0.125 0.625,0.375 0.25,0.25 0.5,0.5 0.25,0.25 0.25,0.5 0,0.25 -0.375,0.375 L 21,30 20.875,29.625 Q 20.75,29.25 20.375,29.125 20,29 19.625,29.125 19.25,29.25 19,29 L 18.75,28.75 19,28.5 M 18.9375,28.5625 18.75,28.75 18.6875,28.8125 18.625,28.875 18.75,28.75 Q 18.875,28.625 19,28.5 l 0.125,-0.125 -0.1875,0.1875"
       id="path1387"
       inkscape:connector-curvature="0" />
    <path
       style="fill:#e5a282;fill-opacity:1"
       d="m 9.25,29.5 q 0,-0.25 0.375,-0.375 L 10,29 V 29.5 30 L 9.625,29.875 Q 9.25,29.75 9.25,29.5"
       id="path1389"
       inkscape:connector-curvature="0" />
    <path
       style="fill:#ca8f72;fill-opacity:1"
       d="M 10,29.5 V 29 h 0.5 q 0.5,0 0.875,0.125 0.375,0.125 0.375,0.375 0,0.25 -0.375,0.375 Q 11,30 10.5,30 H 10 v -0.5"
       id="path1391"
       inkscape:connector-curvature="0" />
    <path
       style="fill:#000000;fill-opacity:1"
       d="M 13,29.5 V 29 h 0.5 q 0.5,0 1,0 0.5,0 1,0 0.5,0 1,0 0.5,0 0.875,-0.125 Q 17.75,28.75 18.03125,29 L 18.3125,29.25 18.34375,29.1875 18.375,29.125 18.3125,29.25 Q 18.25,29.375 18.25,29.5 V 29.625 29.4375 29.25 29.5 29.75 29.5625 29.375 29.5 q 0,0.125 0.09375,0.21875 l 0.09375,0.09375 -0.04687,-0.04687 -0.04687,-0.04687 -0.296875,0.265625 Q 17.75,30.25 17.875,30.625 L 18,31 H 17.5 17 16.5 16 15.5 15 14.5 14 13.5 13 12.5 12 l 0.125,-0.375 q 0.125,-0.375 0.5,-0.5 Q 13,30 13,29.5"
       id="path1393"
       inkscape:connector-curvature="0" />
    <path
       style="fill:#e5a282;fill-opacity:1"
       d="m 18.25,29.5 q 0,-0.25 0.25,-0.5 L 18.75,28.75 19,29 q 0.25,0.25 0.625,0.125 0.375,-0.125 0.75,0 0.375,0.125 0.5,0.5 L 21,30 H 20.5 Q 20,30 19.5,30 19,30 18.625,29.875 18.25,29.75 18.25,29.5 M 18.8125,28.6875 18.75,28.75 18.5625,28.9375 18.375,29.125 18.5,29 q 0.125,-0.125 0.25,-0.25 l 0.125,-0.125 -0.0625,0.0625"
       id="path1395"
       inkscape:connector-curvature="0" />
  </g>
</svg>
