<?xml version="1.0" encoding="UTF-8" standalone="no"?>
<!-- Created with Inkscape (http://www.inkscape.org/) -->

<svg
   xmlns:dc="http://purl.org/dc/elements/1.1/"
   xmlns:cc="http://creativecommons.org/ns#"
   xmlns:rdf="http://www.w3.org/1999/02/22-rdf-syntax-ns#"
   xmlns:svg="http://www.w3.org/2000/svg"
   xmlns="http://www.w3.org/2000/svg"
   xmlns:sodipodi="http://sodipodi.sourceforge.net/DTD/sodipodi-0.dtd"
   xmlns:inkscape="http://www.inkscape.org/namespaces/inkscape"
   version="1.1"
   id="svg64"
   width="32"
   height="32"
   viewBox="0 0 32 32"
   sodipodi:docname="champ_dwarves2.svg"
   inkscape:version="0.92.5 (2060ec1f9f, 2020-04-08)">
  <metadata
     id="metadata70">
    <rdf:RDF>
      <cc:Work
         rdf:about="">
        <dc:format>image/svg+xml</dc:format>
        <dc:type
           rdf:resource="http://purl.org/dc/dcmitype/StillImage" />
        <dc:title></dc:title>
      </cc:Work>
    </rdf:RDF>
  </metadata>
  <defs
     id="defs68" />
  <sodipodi:namedview
     pagecolor="#ffffff"
     bordercolor="#666666"
     borderopacity="1"
     objecttolerance="10"
     gridtolerance="10"
     guidetolerance="10"
     inkscape:pageopacity="0"
     inkscape:pageshadow="2"
     inkscape:window-width="1920"
     inkscape:window-height="1118"
     id="namedview66"
     showgrid="false"
     inkscape:zoom="9.9326406"
     inkscape:cx="-1.0412491"
     inkscape:cy="20.927274"
     inkscape:window-x="0"
     inkscape:window-y="24"
     inkscape:window-maximized="1"
     inkscape:current-layer="svg64" />
  <g
     transform="translate(0 0)"
     id="g394">
    <path
       style="fill:#000000;fill-opacity:0"
       d="M 0,0.5 V 0 H 0.5 1 1.5 2 2.5 3 3.5 4 4.5 5 5.5 6 6.5 7 7.5 8 8.5 9 9.5 10 10.5 11 11.5 12 12.5 13 13.5 14 14.5 15 15.5 16 16.5 17 17.5 18 18.5 19 19.5 20 20.5 21 21.5 22 22.5 23 23.5 24 24.5 25 25.5 26 26.5 27 27.5 28 28.5 29 29.5 30 30.5 31 31.5 32 V 0.5 1 1.5 2 2.5 3 3.5 4 4.5 5 5.5 6 6.5 7 7.5 8 8.5 9 9.5 10 10.5 11 11.5 12 12.5 13 13.5 14 14.5 15 15.5 16 16.5 17 17.5 18 18.5 19 19.5 20 20.5 21 21.5 22 22.5 23 23.5 24 24.5 25 25.5 26 26.5 27 27.5 28 28.5 29 29.5 30 30.5 31 31.5 32 H 31.5 31 30.5 30 29.5 29 28.5 28 27.5 27 26.5 26 25.5 25 24.5 24 23.5 23 22.5 22 21.5 21 20.5 20 19.5 19 18.5 18 17.5 17 16.5 16 15.5 15 14.5 14 13.5 13 12.5 12 11.5 11 10.5 10 9.5 9 8.5 8 7.5 7 6.5 6 5.5 5 4.5 4 3.5 3 2.5 2 1.5 1 0.5 0 V 31.5 31 30.5 30 29.5 29 28.5 28 27.5 27 26.5 26 25.5 25 24.5 24 23.5 23 22.5 22 21.5 21 20.5 20 19.5 19 18.5 18 17.5 17 16.5 16 15.5 15 14.5 14 13.5 13 12.5 12 11.5 11 10.5 10 9.5 9 8.5 8 7.5 7 6.5 6 5.5 5 4.5 4 3.5 3 2.5 2 1.5 1 0.5 M 23.5,31 Q 24,31 24,30.5 24,30 24.5,30 25,30 25.5,30 26,30 26,29.5 26,29 26.5,29 27,29 27,28.5 27,28 27.5,28 28,28 28.5,28 29,28 29,27.5 29,27 29.5,27 30,27 30,26.5 30,26 30.5,26 31,26 31,25.5 31,25 31,24.5 31,24 30.5,24 30,24 30,23.5 30,23 29.5,23 q -0.5,0 -1,0 -0.5,0 -1,0 -0.5,0 -0.5,-0.5 0,-0.5 0,-1 0,-0.5 0,-1 0,-0.5 0,-1 0,-0.5 0,-1 0,-0.5 0,-1 Q 27,17 26.5,17 26,17 26,16.5 26,16 25.625,15.875 25.25,15.75 25.125,15.375 25,15 25,14.5 25,14 24.625,13.875 24.25,13.75 24.125,13.375 24,13 23.625,12.875 23.25,12.75 23.125,12.375 23,12 22.625,11.875 22.25,11.75 22.125,11.375 22,11 21.5,11 21,11 20.625,10.875 20.25,10.75 20.125,10.375 20,10 19.5,10 19,10 18.625,9.875 18.25,9.75 18.125,9.375 18,9 18.125,8.625 18.25,8.25 18.625,8.125 19,8 19,7.5 19,7 19.125,6.625 19.25,6.25 19.625,6.125 20,6 20,5.5 20,5 20,4.5 20,4 20,3.5 20,3 20,2.5 20,2 19.625,1.875 19.25,1.75 19.125,1.375 19,1 18.5,1 18,1 17.875,1.375 17.75,1.75 17.375,1.875 17,2 16.875,2.375 16.75,2.75 16.375,2.875 16,3 15.875,3.375 15.75,3.75 15.375,3.875 15,4 15,4.5 15,5 14.875,5.375 14.75,5.75 14.375,5.875 14,6 14,6.5 q 0,0.5 0,1 0,0.5 0.375,0.625 0.375,0.125 0.5,0.5 0.125,0.375 0,0.75 -0.125,0.375 -0.5,0.5 Q 14,10 13.5,10 13,10 12.875,10.375 12.75,10.75 12.375,10.875 12,11 11.5,11 11,11 10.875,11.375 10.75,11.75 10.375,11.875 10,12 9.875,12.375 9.75,12.75 9.375,12.875 9,13 8.875,13.375 8.75,13.75 8.375,13.875 8,14 8,14.5 8,15 7.875,15.375 7.75,15.75 7.375,15.875 7,16 7,16.5 7,17 6.5,17 6,17 5.5,17 5,17 5,17.5 q 0,0.5 0,1 0,0.5 0,1 0,0.5 0,1 0,0.5 0,1 0,0.5 0.375,0.625 0.375,0.125 0.5,0.5 Q 6,23 6,23.5 q 0,0.5 0,1 0,0.5 0,1 0,0.5 0.375,0.625 0.375,0.125 0.5,0.5 Q 7,27 7,27.5 q 0,0.5 0,1 0,0.5 0,1 0,0.5 0.375,0.625 0.375,0.125 0.5,0.5 Q 8,31 8.5,31 9,31 9.125,30.625 9.25,30.25 9.625,30.125 10,30 10.5,30 11,30 11,29.5 11,29 11.5,29 12,29 12,28.5 12,28 12.5,28 13,28 13,27.5 13,27 13.5,27 q 0.5,0 1,0 0.5,0 1,0 0.5,0 1,0 0.5,0 0.875,0.125 0.375,0.125 0.5,0.5 Q 18,28 18.5,28 q 0.5,0 0.5,0.5 0,0.5 0.5,0.5 0.5,0 1,0 0.5,0 0.5,0.5 0,0.5 0.375,0.625 0.375,0.125 0.5,0.5 Q 22,31 22.5,31 q 0.5,0 1,0"
       id="path74" />
    <path
       style="fill:#000000;fill-opacity:1"
       d="M 17.875,1.375 Q 18,1 18.5,1 19,1 19.125,1.375 19.25,1.75 19.625,1.875 20,2 20,2.5 q 0,0.5 0,1 0,0.5 0,1 0,0.5 0,1 0,0.5 -0.375,0.625 -0.375,0.125 -0.5,0.5 Q 19,7 19,7.5 19,8 18.625,8.125 18.25,8.25 18.125,8.625 18,9 18.125,9.375 18.25,9.75 18.625,9.875 19,10 19.5,10 q 0.5,0 0.625,0.375 0.125,0.375 0.5,0.5 Q 21,11 21.5,11 q 0.5,0 0.625,0.375 0.125,0.375 0.5,0.5 0.375,0.125 0.5,0.5 0.125,0.375 0.5,0.5 0.375,0.125 0.5,0.5 0.125,0.375 0.5,0.5 Q 25,14 25,14.5 q 0,0.5 0.125,0.875 0.125,0.375 0.5,0.5 Q 26,16 26,16.5 q 0,0.5 0.5,0.5 0.5,0 0.5,0.5 0,0.5 0,1 0,0.5 0,1 0,0.5 0,1 0,0.5 0,1 0,0.5 0,1 0,0.5 0.5,0.5 0.5,0 1,0 0.5,0 1,0 0.5,0 0.5,0.5 0,0.5 0.5,0.5 0.5,0 0.5,0.5 0,0.5 0,1 Q 31,26 30.5,26 30,26 30,26.5 30,27 29.5,27 29,27 29,27.5 29,28 28.5,28 28,28 27.5,28 27,28 27,28.5 27,29 26.5,29 26,29 26,29.5 26,30 25.5,30 25,30 24.5,30 24,30 24,30.5 24,31 23.5,31 23,31 22.5,31 22,31 21.875,30.625 21.75,30.25 21.375,30.125 21,30 21,29.5 21,29 20.5,29 20,29 19.5,29 19,29 19,28.5 19,28 18.5,28 18,28 17.875,27.625 17.75,27.25 17.375,27.125 17,27 16.5,27 q -0.5,0 -1,0 -0.5,0 -1,0 -0.5,0 -1,0 Q 13,27 13,27.5 13,28 12.5,28 12,28 12,28.5 12,29 11.5,29 11,29 11,29.5 11,30 10.5,30 10,30 9.625,30.125 9.25,30.25 9.125,30.625 9,31 8.5,31 8,31 7.875,30.625 7.75,30.25 7.375,30.125 7,30 7,29.5 7,29 7,28.5 7,28 7,27.5 7,27 6.875,26.625 6.75,26.25 6.375,26.125 6,26 6,25.5 6,25 6,24.5 6,24 6,23.5 6,23 5.875,22.625 5.75,22.25 5.375,22.125 5,22 5,21.5 5,21 5,20.5 5,20 5,19.5 5,19 5,18.5 5,18 5,17.5 5,17 5.5,17 6,17 6.5,17 7,17 7,16.5 7,16 7.375,15.875 7.75,15.75 7.875,15.375 8,15 8,14.5 8,14 8.375,13.875 8.75,13.75 8.875,13.375 9,13 9.375,12.875 9.75,12.75 9.875,12.375 10,12 10.375,11.875 10.75,11.75 10.875,11.375 11,11 11.5,11 q 0.5,0 0.875,-0.125 0.375,-0.125 0.5,-0.5 Q 13,10 13.5,10 14,10 14.375,9.875 14.75,9.75 14.875,9.375 15,9 14.875,8.625 14.75,8.25 14.375,8.125 14,8 14,7.5 14,7 14,6.5 14,6 14.375,5.875 14.75,5.75 14.875,5.375 15,5 15,4.5 15,4 15.375,3.875 15.75,3.75 15.875,3.375 16,3 16.375,2.875 16.75,2.75 16.875,2.375 17,2 17.375,1.875 q 0.375,-0.125 0.5,-0.5 m 4.25,28 q 0.125,0.375 0.375,0.375 0.25,0 0.5,-0.25 0.25,-0.25 0.5,-0.5 0.25,-0.25 0.5,-0.5 0.25,-0.25 0.5,-0.5 0.25,-0.25 0.375,-0.625 Q 25,27 25,26.5 V 26 25.5 q 0,-0.5 0,-1 0,-0.5 0,-1 V 23 l 0.125,-0.375 Q 25.25,22.25 25.5,22 25.75,21.75 25.875,21.375 L 26,21 V 20.5 20 19.5 q 0,-0.5 -0.125,-0.875 -0.125,-0.375 -0.5,-0.5 L 25,18 25.28125,18.09375 25.5625,18.1875 25.375,18.125 Q 25.1875,18.0625 24.96875,18.03125 L 24.75,18 l 0.109375,0.01563 0.109375,0.01563 0.01563,-0.515625 Q 25,17 24.875,16.625 24.75,16.25 24.390625,16.109375 L 24.03125,15.96875 24.046875,16.078125 24.0625,16.1875 24.03125,15.96875 Q 24,15.75 24,15.5 V 15.25 15.625 16 15.5 Q 24,15 23.875,14.625 23.75,14.25 23.5,14 23.25,13.75 23,13.5 22.75,13.25 22.5,13 22.25,12.75 22,12.5 21.75,12.25 21.375,12.125 21,12 20.625,11.875 20.25,11.75 20,11.5 19.75,11.25 19.375,11.125 19,11 18.5,11 H 18 l -0.125,-0.375 q -0.125,-0.375 -0.5,-0.5 L 17,10 V 9.5 Q 17,9 17.125,8.625 17.25,8.25 17.5,8 17.75,7.75 17.875,7.375 18,7 18,6.5 V 6 l 0.375,-0.125 q 0.375,-0.125 0.5,-0.5 L 19,5 V 4.5 Q 19,4 19,3.5 19,3 18.875,2.625 18.75,2.25 18.5,2.25 18.25,2.25 18.125,2.625 18,3 17.625,3.125 17.25,3.25 17.125,3.625 L 17,4 16.625,4.125 Q 16.25,4.25 16.125,4.625 16,5 16,5.5 V 6 L 15.625,6.125 Q 15.25,6.25 15.125,6.625 15,7 15.125,7.375 15.25,7.75 15.5,8 15.75,8.25 15.875,8.625 16,9 15.875,9.375 15.75,9.75 15.5,10 15.25,10.25 15.125,10.625 L 15,11 H 14.5 Q 14,11 13.625,11.125 13.25,11.25 13,11.5 12.75,11.75 12.375,11.875 12,12 11.625,12.125 11.25,12.25 11,12.5 10.75,12.75 10.5,13 10.25,13.25 10,13.5 9.75,13.75 9.5,14 9.25,14.25 9.125,14.625 9,15 9,15.5 V 16 L 8.625,16.125 Q 8.25,16.25 8.125,16.625 8,17 8,17.5 V 18 H 7.5 7 L 6.625,18.125 Q 6.25,18.25 6.125,18.625 6,19 6,19.5 V 20 20.5 21 l 0.125,0.375 Q 6.25,21.75 6.5,22 6.75,22.25 6.875,22.625 L 7,23 v 0.5 0.5 0.5 0.5 l 0.125,0.375 q 0.125,0.375 0.5,0.5 Q 8,26 8,26.5 8,27 8,27.5 V 28 28.5 Q 8,29 8.125,29.375 8.25,29.75 8.5,29.75 q 0.25,0 0.359375,-0.390625 L 8.96875,28.96875 8.859375,28.984375 8.75,29 8.96875,28.96875 Q 9.1875,28.9375 9.375,28.875 L 9.5625,28.8125 9.28125,28.90625 9,29 9.375,28.875 Q 9.75,28.75 10,28.5 10.25,28.25 10.5,28 10.75,27.75 11,27.5 11.25,27.25 11.5,27 11.75,26.75 12,26.5 12.25,26.25 12.625,26.125 13,26 13.5,26 q 0.5,0 1,0 0.5,0 1,0 0.5,0 1,0 0.5,0 0.875,0.125 Q 17.75,26.25 18,26.5 18.25,26.75 18.625,26.875 19,27 19.5,27 H 20 l 0.125,0.375 q 0.125,0.375 0.5,0.5 L 21,28 l 0.515625,0.01563 0.515625,0.01563 0.01563,-0.109375 0.01563,-0.109375 -0.03125,0.21875 Q 22,28.25 22,28.5 V 28.75 28.375 28 28.5 q 0,0.5 0.125,0.875"
       id="path76" />
    <path
       style="fill:#faf0be;fill-opacity:1"
       d="M 18.125,2.625 Q 18.25,2.25 18.5,2.25 q 0.25,0 0.375,0.375 Q 19,3 19,3.5 V 4 H 18.5 18 L 17.96875,3.46875 17.9375,2.9375 17.875,3 17.8125,3.0625 17.9375,2.9375 Q 18.0625,2.8125 18.125,2.625 L 18.1875,2.4375 18.09375,2.71875 18,3 18.125,2.625 M 19,4.125 V 4 3.625 3.25 3.5 Q 19,3.75 19,4 V 4.25 4.125"
       id="path78" />
    <path
       style="fill:#f7e57f;fill-opacity:1"
       d="m 17.125,3.625 q 0.125,-0.375 0.5,-0.5 L 18,3 17.71875,3.09375 17.4375,3.1875 17.625,3.125 Q 17.8125,3.0625 17.9375,2.9375 L 18.0625,2.8125 18,2.875 17.9375,2.9375 17.96875,3.46875 18,4 H 17.5 17 l 0.125,-0.375"
       id="path80" />
    <path
       style="fill:#faf0be;fill-opacity:1"
       d="m 16.125,4.625 q 0.125,-0.375 0.5,-0.5 L 17,4 V 4.5 5 L 16.515625,5.015625 16.03125,5.03125 16.015625,5.140625 16,5.25 16.03125,5.03125 Q 16.0625,4.8125 16.125,4.625 L 16.1875,4.4375 16.09375,4.71875 16,5 16.125,4.625"
       id="path82" />
    <path
       style="fill:#f0d14b;fill-opacity:1"
       d="M 17,4.5 V 4 H 17.5 18 V 4.5 5 H 17.5 17 V 4.5 m 1,0.625 V 5 4.625 4.25 4.5 Q 18,4.75 18,5 V 5.25 5.125"
       id="path84" />
    <path
       style="fill:#efce5c;fill-opacity:1"
       d="M 18,4.5 V 4 H 18.5 19 V 4.5 5 H 18.5 18 V 4.5 M 19,4.375 V 4 3.875 3.75 4 q 0,0.25 0,0.5 V 4.75 4.375"
       id="path86" />
    <path
       style="fill:#f1d685;fill-opacity:1"
       d="M 16,5.5 V 5 5.375 5.75 5.5 Q 16,5.25 16.03125,5.03125 L 16.0625,4.8125 16.046875,4.921875 16.03125,5.03125 16.515625,5.015625 17,5 16.875,5.375 q -0.125,0.375 -0.5,0.5 L 16,6 V 5.5"
       id="path88" />
    <path
       style="fill:#ebc329;fill-opacity:1"
       d="M 16.875,5.375 17,5 H 17.5 18 V 5.5 6 L 17.625,6.125 17.25,6.25 17.53125,6.15625 17.8125,6.0625 17.625,6.125 Q 17.4375,6.1875 17.3125,6.3125 L 17.1875,6.4375 17.25,6.375 17.3125,6.3125 17,6 16.6875,5.6875 16.625,5.75 16.5625,5.8125 16.6875,5.6875 Q 16.8125,5.5625 16.875,5.375 L 16.9375,5.1875 16.84375,5.46875 16.75,5.75 16.875,5.375 m 1.125,0 V 5 4.875 4.75 5 q 0,0.25 0,0.5 V 5.75 5.375"
       id="path90" />
    <path
       style="fill:#eecd5a;fill-opacity:1"
       d="M 18,5.5 V 5 h 0.5 0.5 l -0.125,0.375 q -0.125,0.375 -0.5,0.5 L 18,6 V 5.5"
       id="path92" />
    <path
       style="fill:#f0d262;fill-opacity:1"
       d="m 15.125,6.625 q 0.125,-0.375 0.5,-0.5 L 16,6 V 6.5 7 6.625 6.25 6.5 q 0,0.25 0.03125,0.46875 L 16.0625,7.1875 16.046875,7.078125 16.03125,6.96875 15.546875,6.984375 15.0625,7 V 7.09375 7.1875 7 q 0,-0.1875 0.0625,-0.375 L 15.1875,6.4375 15.09375,6.71875 15,7 15.125,6.625"
       id="path94" />
    <path
       style="fill:#e8be17;fill-opacity:1"
       d="M 16,6.5 V 6 L 16.375,5.875 16.75,5.75 16.46875,5.84375 16.1875,5.9375 16.375,5.875 Q 16.5625,5.8125 16.6875,5.6875 L 16.8125,5.5625 16.75,5.625 16.6875,5.6875 17,6 17.3125,6.3125 17.375,6.25 17.4375,6.1875 17.3125,6.3125 Q 17.1875,6.4375 17.125,6.625 L 17.0625,6.8125 17.15625,6.53125 17.25,6.25 17.125,6.625 Q 17,7 16.875,7.375 16.75,7.75 16.5,7.75 16.25,7.75 16.125,7.375 16,7 16,6.5"
       id="path96" />
    <path
       style="fill:#edc741;fill-opacity:1"
       d="m 17.125,6.625 q 0.125,-0.375 0.5,-0.5 L 18,6 V 6.5 Q 18,7 17.875,7.375 17.75,7.75 17.5,8 L 17.25,8.25 17.4375,8.0625 17.625,7.875 17.5,8 Q 17.375,8.125 17.28125,8.28125 L 17.1875,8.4375 17.234375,8.359375 17.28125,8.28125 17,7.96875 16.71875,7.65625 16.671875,7.703125 16.625,7.75 16.71875,7.65625 Q 16.8125,7.5625 16.875,7.375 L 16.9375,7.1875 16.84375,7.46875 16.75,7.75 16.875,7.375 Q 17,7 17.125,6.625"
       id="path98" />
    <path
       style="fill:#efcd46;fill-opacity:1"
       d="M 15.125,7.375 15,7 15.09375,7.28125 15.1875,7.5625 15.125,7.375 Q 15.0625,7.1875 15.0625,7 V 6.8125 6.90625 7 L 15.546875,6.984375 16.03125,6.96875 16.015625,6.859375 16,6.75 16.03125,6.96875 Q 16.0625,7.1875 16.125,7.375 L 16.1875,7.5625 16.09375,7.28125 16,7 16.125,7.375 16.25,7.75 16.15625,7.46875 16.0625,7.1875 16.125,7.375 q 0.0625,0.1875 0.15625,0.28125 L 16.375,7.75 16.328125,7.703125 16.28125,7.65625 16,7.96875 15.71875,8.28125 15.765625,8.359375 15.8125,8.4375 15.71875,8.28125 Q 15.625,8.125 15.5,8 L 15.375,7.875 15.5625,8.0625 15.75,8.25 15.5,8 Q 15.25,7.75 15.125,7.375"
       id="path100" />
    <path
       style="fill:#f0d14a;fill-opacity:1"
       d="M 15.875,8.625 15.75,8.25 15.84375,8.53125 15.9375,8.8125 15.875,8.625 Q 15.8125,8.4375 15.71875,8.28125 L 15.625,8.125 15.671875,8.203125 15.71875,8.28125 16,7.96875 16.28125,7.65625 16.234375,7.609375 16.1875,7.5625 16.28125,7.65625 Q 16.375,7.75 16.5,7.75 H 16.625 16.4375 16.25 16.5 16.75 16.5625 16.375 16.5 q 0.125,0 0.21875,-0.09375 L 16.8125,7.5625 16.765625,7.609375 16.71875,7.65625 17,7.96875 17.28125,8.28125 17.328125,8.203125 17.375,8.125 17.28125,8.28125 Q 17.1875,8.4375 17.125,8.625 L 17.0625,8.8125 17.15625,8.53125 17.25,8.25 17.125,8.625 17,9 17.09375,8.71875 17.1875,8.4375 17.125,8.625 Q 17.0625,8.8125 17.03125,9.03125 L 17,9.25 17.015625,9.140625 17.03125,9.03125 16.484375,9.015625 15.9375,9 V 9.09375 9.1875 9 q 0,-0.1875 -0.0625,-0.375 L 15.8125,8.4375 15.90625,8.71875 16,9 15.875,8.625"
       id="path102" />
    <path
       style="fill:#f2d86a;fill-opacity:1"
       d="M 15.875,9.375 16,9 15.90625,9.28125 15.8125,9.5625 15.875,9.375 Q 15.9375,9.1875 15.9375,9 V 8.8125 8.90625 9 L 16.484375,9.015625 17.03125,9.03125 17.046875,8.921875 17.0625,8.8125 17.03125,9.03125 Q 17,9.25 17,9.5 V 9.75 9.375 9 9.5 10 L 16.625,10.125 16.25,10.25 16.53125,10.15625 16.8125,10.0625 16.625,10.125 q -0.1875,0.0625 -0.3125,0.1875 l -0.125,0.125 L 16.25,10.375 16.3125,10.3125 16.015625,10.015625 15.71875,9.71875 15.671875,9.796875 15.625,9.875 15.71875,9.71875 Q 15.8125,9.5625 15.875,9.375 L 15.9375,9.1875 15.84375,9.46875 15.75,9.75 15.875,9.375"
       id="path104" />
    <path
       style="fill:#f0d262;fill-opacity:1"
       d="M 15.125,10.625 Q 15.25,10.25 15.5,10 L 15.75,9.75 15.5625,9.9375 15.375,10.125 15.5,10 Q 15.625,9.875 15.71875,9.71875 L 15.8125,9.5625 15.765625,9.640625 15.71875,9.71875 16.015625,10.015625 16.3125,10.3125 16.375,10.25 l 0.0625,-0.0625 -0.125,0.125 q -0.125,0.125 -0.1875,0.3125 L 16.0625,10.8125 16.15625,10.53125 16.25,10.25 16.125,10.625 16,11 H 15.5 15 l 0.125,-0.375 M 15.625,11 H 16 16.125 16.25 16 q -0.25,0 -0.5,0 h -0.25 0.375"
       id="path106" />
    <path
       style="fill:#ebc329;fill-opacity:1"
       d="m 16.125,10.625 q 0.125,-0.375 0.5,-0.5 L 17,10 V 10.5 11 H 16.5 16 l 0.125,-0.375 M 15.875,11 H 16 16.375 16.75 16.5 q -0.25,0 -0.5,0 h -0.25 0.125 m 0.75,0 H 17 17.125 17.25 17 q -0.25,0 -0.5,0 h -0.25 0.375"
       id="path108" />
    <path
       style="fill:#edc741;fill-opacity:1"
       d="M 17,10.5 V 10 l 0.375,0.125 q 0.375,0.125 0.5,0.5 L 18,11 H 17.5 17 V 10.5 M 16.875,11 H 17 17.375 17.75 17.5 q -0.25,0 -0.5,0 h -0.25 0.125"
       id="path110" />
    <path
       style="fill:#439f61;fill-opacity:1"
       d="M 13,11.5 Q 13.25,11.25 13.625,11.125 14,11 14.5,11 H 15 V 11.5 12 H 14.5 Q 14,12 13.625,12.125 13.25,12.25 13,12.5 12.75,12.75 12.375,12.875 L 12,13 12.28125,12.90625 12.5625,12.8125 12.375,12.875 q -0.1875,0.0625 -0.3125,0.1875 l -0.125,0.125 L 12,13.125 12.0625,13.0625 11.65625,13.15625 Q 11.25,13.25 11,13.5 10.75,13.75 10.5,14 10.25,14.25 10,14.5 9.75,14.75 9.390625,14.890625 L 9.03125,15.03125 9.015625,15.140625 9,15.25 9.03125,15.03125 Q 9.0625,14.8125 9.125,14.625 L 9.1875,14.4375 9.09375,14.71875 9,15 9.125,14.625 Q 9.25,14.25 9.5,14 9.75,13.75 10,13.5 10.25,13.25 10.5,13 10.75,12.75 11,12.5 11.25,12.25 11.625,12.125 12,12 12.375,11.875 12.75,11.75 13,11.5 M 14.625,12 H 15 15.125 15.25 15 q -0.25,0 -0.5,0 h -0.25 0.375"
       id="path112" />
    <path
       style="fill:#307046;fill-opacity:1"
       d="M 15,11.5 V 11 h 0.5 q 0.5,0 1,0 0.5,0 1,0 H 18 l 0.125,0.375 q 0.125,0.375 0.5,0.5 Q 19,12 19.375,12.125 19.75,12.25 20,12.5 20.25,12.75 20.625,12.875 21,13 21.375,13.125 21.75,13.25 22,13.5 q 0.25,0.25 0.5,0.5 0.25,0.25 0.5,0.5 0.25,0.25 0.609375,0.390625 L 23.96875,15.03125 23.953125,14.921875 23.9375,14.8125 23.96875,15.03125 Q 24,15.25 24,15.5 V 15.75 15.375 15 15.5 q 0,0.5 0.125,0.875 0.125,0.375 0.484375,0.515625 L 24.96875,17.03125 24.953125,16.921875 24.9375,16.8125 24.96875,17.03125 Q 25,17.25 25,17.5 V 17.75 17.375 17 l -0.01563,0.515625 -0.01563,0.515625 0.109375,0.01563 0.109375,0.01563 -0.21875,-0.03125 Q 24.75,18 24.5,18 H 24.25 24.625 25 24.5 24 L 23.625,17.875 Q 23.25,17.75 23,17.5 L 22.75,17.25 23,17 Q 23.25,16.75 23.125,16.375 23,16 22.625,15.875 22.25,15.75 22,15.5 21.75,15.25 21.34375,15.15625 L 20.9375,15.0625 21,15.125 l 0.0625,0.0625 -0.125,-0.125 Q 20.8125,14.9375 20.625,14.875 L 20.4375,14.8125 20.71875,14.90625 21,15 20.625,14.875 Q 20.25,14.75 20,14.5 19.75,14.25 19.5,14 19.25,13.75 19,13.5 18.75,13.25 18.375,13.125 18,13 17.5,13 H 17 L 16.875,12.625 Q 16.75,12.25 16.375,12.125 16,12 15.5,12 H 15 V 11.5 M 14.875,12 H 15 15.375 15.75 15.5 q -0.25,0 -0.5,0 h -0.25 0.125 M 22.6875,17.1875 22.75,17.25 22.9375,17.4375 23.125,17.625 23,17.5 q -0.125,-0.125 -0.25,-0.25 l -0.125,-0.125 0.0625,0.0625"
       id="path114" />
    <path
       style="fill:#439f61;fill-opacity:1"
       d="M 18.125,11.375 18,11 h 0.5 Q 19,11 19.375,11.125 19.75,11.25 20,11.5 20.25,11.75 20.625,11.875 21,12 21.375,12.125 21.75,12.25 22,12.5 q 0.25,0.25 0.5,0.5 0.25,0.25 0.5,0.5 0.25,0.25 0.5,0.5 0.25,0.25 0.375,0.625 L 24,15 23.90625,14.71875 23.8125,14.4375 23.875,14.625 q 0.0625,0.1875 0.09375,0.40625 L 24,15.25 23.984375,15.140625 23.96875,15.03125 23.609375,14.890625 Q 23.25,14.75 23,14.5 22.75,14.25 22.5,14 22.25,13.75 22,13.5 21.75,13.25 21.375,13.125 21,13 20.625,12.875 20.25,12.75 20,12.5 19.75,12.25 19.375,12.125 19,12 18.625,11.875 q -0.375,-0.125 -0.5,-0.5"
       id="path116" />
    <path
       style="fill:#faf0be;fill-opacity:1"
       d="M 13,12.5 Q 13.25,12.25 13.625,12.125 14,12 14.5,12 q 0.5,0 1,0 H 16 15.625 15.25 15.5 q 0.25,0 0.46875,0.03125 l 0.21875,0.03125 -0.109375,-0.01563 -0.109375,-0.01563 0.01563,0.484375 L 16,13 H 15.5 15 14.5 Q 14,13 13.625,13.125 13.25,13.25 13,13.5 12.75,13.75 12.5,14 L 12.25,14.25 11.984375,13.984375 11.71875,13.71875 11.671875,13.796875 11.625,13.875 11.71875,13.71875 Q 11.8125,13.5625 11.875,13.375 L 11.9375,13.1875 11.84375,13.46875 11.75,13.75 11.875,13.375 Q 12,13 12.375,12.875 12.75,12.75 13,12.5 M 12.1875,14.3125 12.25,14.25 12.4375,14.0625 12.625,13.875 12.5,14 q -0.125,0.125 -0.25,0.25 l -0.125,0.125 0.0625,-0.0625 M 15.625,13 H 16 16.125 16.25 16 q -0.25,0 -0.5,0 h -0.25 0.375"
       id="path118" />
    <path
       style="fill:#f7e57f;fill-opacity:1"
       d="M 15.984375,12.515625 15.96875,12.03125 15.859375,12.015625 15.75,12 15.96875,12.03125 Q 16.1875,12.0625 16.375,12.125 L 16.5625,12.1875 16.28125,12.09375 16,12 l 0.375,0.125 q 0.375,0.125 0.5,0.5 L 17,13 H 16.5 16 l -0.01563,-0.484375 M 15.875,13 H 16 16.375 16.75 16.5 q -0.25,0 -0.5,0 h -0.25 0.125"
       id="path120" />
    <path
       style="fill:#307046;fill-opacity:1"
       d="m 11,13.5 q 0.25,-0.25 0.65625,-0.34375 L 12.0625,13.0625 12.125,13 l 0.0625,-0.0625 -0.125,0.125 q -0.125,0.125 -0.1875,0.3125 L 11.8125,13.5625 11.90625,13.28125 12,13 11.875,13.375 Q 11.75,13.75 11.5,14 11.25,14.25 11,14.5 10.75,14.75 10.5,15 10.25,15.25 10,15.5 9.75,15.75 9.375,15.875 L 9,16 V 15.5 15 15.375 15.75 15.5 Q 9,15.25 9.03125,15.03125 L 9.0625,14.8125 9.046875,14.921875 9.03125,15.03125 9.390625,14.890625 Q 9.75,14.75 10,14.5 10.25,14.25 10.5,14 10.75,13.75 11,13.5"
       id="path122" />
    <path
       style="fill:#9e860b;fill-opacity:1"
       d="M 13,13.5 Q 13.25,13.25 13.625,13.125 14,13 14.5,13 H 15 V 13.5 14 L 14.625,14.125 14.25,14.25 14.53125,14.15625 14.8125,14.0625 14.625,14.125 q -0.1875,0.0625 -0.34375,0.15625 L 14.125,14.375 l 0.07813,-0.04687 0.07813,-0.04687 -0.265625,-0.265625 Q 13.75,13.75 13.5,14 L 13.25,14.25 13,14 12.75,13.75 13,13.5 M 12.9375,13.5625 12.75,13.75 12.6875,13.8125 12.625,13.875 12.75,13.75 Q 12.875,13.625 13,13.5 l 0.125,-0.125 -0.1875,0.1875 m 0.25,0.75 L 13.25,14.25 13.4375,14.0625 13.625,13.875 13.5,14 q -0.125,0.125 -0.25,0.25 l -0.125,0.125 0.0625,-0.0625"
       id="path124" />
    <path
       style="fill:#9b840a;fill-opacity:1"
       d="M 15,13.5 V 13 H 15.5 16 V 13.5 14 H 15.5 15 v -0.5"
       id="path126" />
    <path
       style="fill:#9e860b;fill-opacity:1"
       d="M 16,13.5 V 13 h 0.5 0.5 l 0.125,0.375 0.125,0.375 -0.09375,-0.28125 -0.09375,-0.28125 0.0625,0.1875 q 0.0625,0.1875 0.1875,0.3125 l 0.125,0.125 -0.0625,-0.0625 -0.0625,-0.0625 -0.296875,0.296875 -0.296875,0.296875 0.07813,0.04687 L 16.875,14.375 16.71875,14.28125 Q 16.5625,14.1875 16.375,14.125 L 16.1875,14.0625 16.46875,14.15625 16.75,14.25 16.375,14.125 16,14 v -0.5"
       id="path128" />
    <path
       style="fill:#faf0be;fill-opacity:1"
       d="M 17.125,13.375 17,13 h 0.5 q 0.5,0 0.875,0.125 0.375,0.125 0.625,0.375 0.25,0.25 0.5,0.5 0.25,0.25 0.5,0.5 0.25,0.25 0.625,0.375 0.375,0.125 0.5,0.5 0.125,0.375 0.375,0.625 0.25,0.25 0.5,0.5 0.25,0.25 0.5,0.5 0.25,0.25 0.5,0.5 L 23.25,17.75 23.0625,17.5625 22.875,17.375 23,17.5 q 0.125,0.125 0.28125,0.21875 l 0.15625,0.09375 -0.07813,-0.04687 -0.07813,-0.04687 -0.296875,0.296875 -0.296875,0.296875 0.0625,0.0625 0.0625,0.0625 -0.125,-0.125 Q 22.5625,18.1875 22.375,18.125 L 22.1875,18.0625 22.46875,18.15625 22.75,18.25 22.375,18.125 22,18 21.875,17.625 Q 21.75,17.25 21.5,17 21.25,16.75 21,16.5 20.75,16.25 20.5,16 20.25,15.75 20,15.5 19.75,15.25 19.5,15 19.25,14.75 19,14.5 18.75,14.25 18.375,14.125 L 18,14 17.625,13.875 q -0.375,-0.125 -0.5,-0.5"
       id="path130" />
    <path
       style="fill:#f9efbd;fill-opacity:1"
       d="M 11,14.5 Q 11.25,14.25 11.5,14 L 11.75,13.75 11.5625,13.9375 11.375,14.125 11.5,14 q 0.125,-0.125 0.21875,-0.28125 l 0.09375,-0.15625 -0.04687,0.07813 -0.04687,0.07813 0.265625,0.265625 L 12.25,14.25 12,14.5 Q 11.75,14.75 11.5,15 L 11.25,15.25 11,15 10.75,14.75 11,14.5 M 10.9375,14.5625 10.75,14.75 10.6875,14.8125 10.625,14.875 10.75,14.75 Q 10.875,14.625 11,14.5 l 0.125,-0.125 -0.1875,0.1875 m 0.25,0.75 L 11.25,15.25 11.4375,15.0625 11.625,14.875 11.5,15 q -0.125,0.125 -0.25,0.25 l -0.125,0.125 0.0625,-0.0625 m 0.875,-0.875 L 12.25,14.25 12.3125,14.1875 12.375,14.125 12.25,14.25 Q 12.125,14.375 12,14.5 l -0.125,0.125 0.1875,-0.1875"
       id="path132" />
    <path
       style="fill:#9f850a;fill-opacity:1"
       d="M 12,14.5 Q 12.25,14.25 12.5,14 L 12.75,13.75 13,14 13.25,14.25 13,14.5 Q 12.75,14.75 12.5,15 L 12.25,15.25 12,15 11.75,14.75 12,14.5 M 11.9375,14.5625 11.75,14.75 11.6875,14.8125 11.625,14.875 11.75,14.75 Q 11.875,14.625 12,14.5 l 0.125,-0.125 -0.1875,0.1875 m 0.25,0.75 L 12.25,15.25 12.4375,15.0625 12.625,14.875 12.5,15 q -0.125,0.125 -0.25,0.25 l -0.125,0.125 0.0625,-0.0625 m 0.875,-0.875 L 13.25,14.25 13.3125,14.1875 13.375,14.125 13.25,14.25 Q 13.125,14.375 13,14.5 l -0.125,0.125 0.1875,-0.1875 m -0.25,-0.75 L 12.75,13.75 12.5625,13.9375 12.375,14.125 12.5,14 q 0.125,-0.125 0.25,-0.25 l 0.125,-0.125 -0.0625,0.0625"
       id="path134" />
    <path
       style="fill:#b18e10;fill-opacity:1"
       d="m 13,14.5 q 0.25,-0.25 0.5,-0.5 0.25,-0.25 0.515625,0.01563 l 0.265625,0.265625 0.07813,-0.04687 0.07813,-0.04687 -0.15625,0.09375 Q 14.125,14.375 14,14.5 L 13.875,14.625 14.0625,14.4375 14.25,14.25 14,14.5 Q 13.75,14.75 13.5,15 L 13.25,15.25 13.4375,15.0625 13.625,14.875 13.5,15 q -0.125,0.125 -0.1875,0.25 L 13.25,15.375 13.28125,15.3125 13.3125,15.25 13.03125,15 12.75,14.75 13,14.5 M 12.9375,14.5625 12.75,14.75 12.6875,14.8125 12.625,14.875 12.75,14.75 Q 12.875,14.625 13,14.5 l 0.125,-0.125 -0.1875,0.1875"
       id="path136" />
    <path
       style="fill:#c8a213;fill-opacity:1"
       d="m 14,14.5 q 0.25,-0.25 0.625,-0.375 L 15,14 h 0.5 0.5 l 0.125,0.375 0.125,0.375 -0.09375,-0.28125 -0.09375,-0.28125 0.0625,0.1875 q 0.0625,0.1875 0.15625,0.34375 L 16.375,14.875 16.328125,14.796875 16.28125,14.71875 15.96875,15 l -0.3125,0.28125 0.04687,0.04687 L 15.75,15.375 15.65625,15.28125 Q 15.5625,15.1875 15.375,15.125 L 15.1875,15.0625 15.46875,15.15625 15.75,15.25 15.375,15.125 Q 15,15 14.625,15.125 14.25,15.25 14.25,15.5 V 15.75 15.5625 15.375 15.5 q 0,0.125 0.09375,0.21875 l 0.09375,0.09375 -0.04687,-0.04687 -0.04687,-0.04687 -0.3125,0.28125 -0.3125,0.28125 0.04687,0.07813 0.04687,0.07813 -0.09375,-0.15625 Q 13.625,16.125 13.5,16 L 13.375,15.875 13.5625,16.0625 13.75,16.25 13.5,16 q -0.25,-0.25 -0.25,-0.5 0,-0.25 0.25,-0.5 0.25,-0.25 0.5,-0.5"
       id="path138" />
    <path
       style="fill:#b59111;fill-opacity:1"
       d="M 16.125,14.375 16,14 16.375,14.125 Q 16.75,14.25 17,14.5 l 0.25,0.25 -0.265625,0.265625 -0.265625,0.265625 0.04687,0.07813 0.04687,0.07813 -0.09375,-0.15625 Q 16.625,15.125 16.5,15 L 16.375,14.875 16.5625,15.0625 16.75,15.25 16.5,15 Q 16.25,14.75 16.125,14.375 M 17.3125,14.8125 17.25,14.75 17.0625,14.5625 16.875,14.375 17,14.5 q 0.125,0.125 0.25,0.25 l 0.125,0.125 -0.0625,-0.0625"
       id="path140" />
    <path
       style="fill:#9e840a;fill-opacity:1"
       d="M 17,14.5 16.75,14.25 16.9375,14.4375 17.125,14.625 17,14.5 q -0.125,-0.125 -0.28125,-0.21875 l -0.15625,-0.09375 0.07813,0.04687 0.07813,0.04687 0.296875,-0.296875 L 17.3125,13.6875 17.25,13.625 l -0.0625,-0.0625 0.125,0.125 q 0.125,0.125 0.3125,0.1875 L 17.8125,13.9375 17.53125,13.84375 17.25,13.75 17.625,13.875 18,14 18.125,14.375 18.25,14.75 18.15625,14.46875 18.0625,14.1875 18.125,14.375 q 0.0625,0.1875 0.15625,0.34375 L 18.375,14.875 18.328125,14.796875 18.28125,14.71875 17.984375,14.984375 17.6875,15.25 17.71875,15.3125 17.75,15.375 17.6875,15.25 Q 17.625,15.125 17.5,15 L 17.375,14.875 17.5625,15.0625 17.75,15.25 17.5,15 Q 17.25,14.75 17,14.5"
       id="path142" />
    <path
       style="fill:#958009;fill-opacity:1"
       d="M 18.125,14.375 18,14 18.375,14.125 Q 18.75,14.25 19,14.5 L 19.25,14.75 19,15 18.75,15.25 18.5,15 Q 18.25,14.75 18.125,14.375 M 18.5625,15.0625 18.75,15.25 18.8125,15.3125 18.875,15.375 18.75,15.25 Q 18.625,15.125 18.5,15 l -0.125,-0.125 0.1875,0.1875 m 0.75,-0.25 L 19.25,14.75 19.0625,14.5625 18.875,14.375 19,14.5 q 0.125,0.125 0.25,0.25 l 0.125,0.125 -0.0625,-0.0625"
       id="path144" />
    <path
       style="fill:#faf0be;fill-opacity:1"
       d="M 10,15.5 Q 10.25,15.25 10.5,15 L 10.75,14.75 11,15 11.25,15.25 11,15.5 Q 10.75,15.75 10.5,16 L 10.25,16.25 10.4375,16.0625 10.625,15.875 10.5,16 q -0.125,0.125 -0.21875,0.28125 l -0.09375,0.15625 0.04687,-0.07813 0.04687,-0.07813 L 10,16 9.71875,15.71875 9.640625,15.765625 9.5625,15.8125 9.71875,15.71875 Q 9.875,15.625 10,15.5 L 10.125,15.375 9.9375,15.5625 9.75,15.75 10,15.5 M 11.0625,15.4375 11.25,15.25 11.3125,15.1875 11.375,15.125 11.25,15.25 Q 11.125,15.375 11,15.5 l -0.125,0.125 0.1875,-0.1875 m -0.25,-0.75 L 10.75,14.75 10.5625,14.9375 10.375,15.125 10.5,15 q 0.125,-0.125 0.25,-0.25 l 0.125,-0.125 -0.0625,0.0625"
       id="path146" />
    <path
       style="fill:#ab8f0b;fill-opacity:1"
       d="M 11,15.5 Q 11.25,15.25 11.5,15 L 11.75,14.75 12,15 12.25,15.25 12,15.5 Q 11.75,15.75 11.5,16 L 11.25,16.25 11.4375,16.0625 11.625,15.875 11.5,16 q -0.125,0.125 -0.21875,0.28125 l -0.09375,0.15625 0.04687,-0.07813 0.04687,-0.07813 L 11.015625,16.015625 10.75,15.75 11,15.5 M 10.9375,15.5625 10.75,15.75 10.6875,15.8125 10.625,15.875 10.75,15.75 Q 10.875,15.625 11,15.5 l 0.125,-0.125 -0.1875,0.1875 m 1.125,-0.125 L 12.25,15.25 12.3125,15.1875 12.375,15.125 12.25,15.25 Q 12.125,15.375 12,15.5 l -0.125,0.125 0.1875,-0.1875 m -0.25,-0.75 L 11.75,14.75 11.5625,14.9375 11.375,15.125 11.5,15 q 0.125,-0.125 0.25,-0.25 l 0.125,-0.125 -0.0625,0.0625"
       id="path148" />
    <path
       style="fill:#ad890e;fill-opacity:1"
       d="M 12,15.5 Q 12.25,15.25 12.5,15 L 12.75,14.75 13.03125,15 13.3125,15.25 13.34375,15.1875 13.375,15.125 13.3125,15.25 Q 13.25,15.375 13.25,15.5 V 15.625 15.4375 15.25 15.5 15.75 15.5625 15.375 15.5 q 0,0.125 0.0625,0.25 L 13.375,15.875 13.34375,15.8125 13.3125,15.75 13,16.03125 12.6875,16.3125 12.71875,16.34375 12.75,16.375 12.6875,16.3125 Q 12.625,16.25 12.5,16.25 H 12.375 12.5625 12.75 12.5 12.25 12.4375 12.625 12.5 q -0.125,0 -0.21875,0.09375 l -0.09375,0.09375 0.04687,-0.04687 0.04687,-0.04687 L 12.015625,16.046875 11.75,15.75 12,15.5 M 11.9375,15.5625 11.75,15.75 11.6875,15.8125 11.625,15.875 11.75,15.75 Q 11.875,15.625 12,15.5 l 0.125,-0.125 -0.1875,0.1875 m 0.875,-0.875 L 12.75,14.75 12.5625,14.9375 12.375,15.125 12.5,15 q 0.125,-0.125 0.25,-0.25 l 0.125,-0.125 -0.0625,0.0625"
       id="path150" />
    <path
       style="fill:#e8be17;fill-opacity:1"
       d="m 14.25,15.5 q 0,-0.25 0.375,-0.375 0.375,-0.125 0.75,0 0.375,0.125 0.375,0.375 0,0.25 -0.375,0.375 L 15,16 14.625,15.875 Q 14.25,15.75 14.25,15.5"
       id="path152" />
    <path
       style="fill:#ba9411;fill-opacity:1"
       d="M 15.75,15.5 V 15.25 15.4375 15.625 15.5 q 0,-0.125 -0.09375,-0.21875 l -0.09375,-0.09375 0.04687,0.04687 0.04687,0.04687 0.3125,-0.28125 0.3125,-0.28125 -0.04687,-0.07813 -0.04687,-0.07813 0.09375,0.15625 Q 16.375,14.875 16.5,15 L 16.625,15.125 16.4375,14.9375 16.25,14.75 16.5,15 q 0.25,0.25 0.375,0.625 L 17,16 16.625,16.125 16.25,16.25 16.53125,16.15625 16.8125,16.0625 16.625,16.125 q -0.1875,0.0625 -0.28125,0.15625 L 16.25,16.375 16.296875,16.328125 16.34375,16.28125 16,16 l -0.34375,-0.28125 -0.04687,0.04687 -0.04687,0.04687 0.09375,-0.09375 Q 15.75,15.625 15.75,15.5 V 15.375 15.5625 15.75 15.5"
       id="path154" />
    <path
       style="fill:#b08a0e;fill-opacity:1"
       d="M 16.875,15.625 16.75,15.25 16.84375,15.53125 16.9375,15.8125 16.875,15.625 Q 16.8125,15.4375 16.71875,15.28125 L 16.625,15.125 l 0.04687,0.07813 0.04687,0.07813 0.265625,-0.265625 L 17.25,14.75 17.5,15 q 0.25,0.25 0.25,0.5 0,0.25 -0.375,0.375 L 17,16 16.875,15.625 M 17.4375,14.9375 17.25,14.75 17.1875,14.6875 17.125,14.625 17.25,14.75 q 0.125,0.125 0.25,0.25 l 0.125,0.125 -0.1875,-0.1875"
       id="path156" />
    <path
       style="fill:#a7880d;fill-opacity:1"
       d="M 17.75,15.5 V 15.25 15.4375 15.625 15.5 q 0,-0.125 -0.0625,-0.25 l -0.0625,-0.125 0.03125,0.0625 0.03125,0.0625 0.296875,-0.265625 0.296875,-0.265625 -0.04687,-0.07813 -0.04687,-0.07813 0.09375,0.15625 Q 18.375,14.875 18.5,15 L 18.625,15.125 18.4375,14.9375 18.25,14.75 18.5,15 q 0.25,0.25 0.5,0.5 l 0.25,0.25 -0.265625,0.296875 -0.265625,0.296875 0.04687,0.04687 0.04687,0.04687 -0.09375,-0.09375 Q 18.625,16.25 18.5,16.25 H 18.375 18.5625 18.75 18.5 18.25 18.4375 18.625 18.5 q -0.125,0 -0.25,0.0625 L 18.125,16.375 18.1875,16.34375 18.25,16.3125 17.953125,16.015625 17.65625,15.71875 l -0.04687,0.04687 -0.04687,0.04687 0.09375,-0.09375 Q 17.75,15.625 17.75,15.5 V 15.375 15.5625 15.75 15.5 M 19.3125,15.8125 19.25,15.75 19.0625,15.5625 18.875,15.375 19,15.5 q 0.125,0.125 0.25,0.25 l 0.125,0.125 -0.0625,-0.0625"
       id="path158" />
    <path
       style="fill:#99820b;fill-opacity:1"
       d="M 19,15.5 18.75,15.25 19,15 19.25,14.75 19.5,15 q 0.25,0.25 0.5,0.5 L 20.25,15.75 20,16 19.75,16.25 19.5,16 Q 19.25,15.75 19,15.5 M 19.5625,16.0625 19.75,16.25 19.8125,16.3125 19.875,16.375 19.75,16.25 Q 19.625,16.125 19.5,16 l -0.125,-0.125 0.1875,0.1875 m 0.75,-0.25 L 20.25,15.75 20.0625,15.5625 19.875,15.375 20,15.5 q 0.125,0.125 0.25,0.25 l 0.125,0.125 -0.0625,-0.0625 M 19.4375,14.9375 19.25,14.75 19.1875,14.6875 19.125,14.625 19.25,14.75 q 0.125,0.125 0.25,0.25 l 0.125,0.125 -0.1875,-0.1875 m -0.75,0.25 L 18.75,15.25 18.9375,15.4375 19.125,15.625 19,15.5 q -0.125,-0.125 -0.25,-0.25 l -0.125,-0.125 0.0625,0.0625"
       id="path160" />
    <path
       style="fill:#215131;fill-opacity:1"
       d="M 21.125,15.375 21,15 21.09375,15.28125 21.1875,15.5625 21.125,15.375 q -0.0625,-0.1875 -0.1875,-0.3125 l -0.125,-0.125 0.0625,0.0625 0.0625,0.0625 0.40625,0.09375 Q 21.75,15.25 22,15.5 L 22.25,15.75 22.0625,15.5625 21.875,15.375 22,15.5 q 0.125,0.125 0.28125,0.21875 l 0.15625,0.09375 -0.07813,-0.04687 -0.07813,-0.04687 -0.265625,0.265625 L 21.75,16.25 21.5,16 Q 21.25,15.75 21.125,15.375 M 21.5625,16.0625 21.75,16.25 21.8125,16.3125 21.875,16.375 21.75,16.25 Q 21.625,16.125 21.5,16 l -0.125,-0.125 0.1875,0.1875"
       id="path162" />
    <path
       style="fill:#439f61;fill-opacity:1"
       d="m 8.125,16.625 q 0.125,-0.375 0.5,-0.5 L 9,16 V 16.5 17 L 8.515625,17.015625 8.03125,17.03125 8.015625,17.140625 8,17.25 8.03125,17.03125 Q 8.0625,16.8125 8.125,16.625 L 8.1875,16.4375 8.09375,16.71875 8,17 8.125,16.625"
       id="path164" />
    <path
       style="fill:#f1e3a4;fill-opacity:1"
       d="M 9,16.5 V 16 L 9.375,15.875 9.75,15.75 9.46875,15.84375 9.1875,15.9375 9.375,15.875 Q 9.5625,15.8125 9.71875,15.71875 L 9.875,15.625 9.796875,15.671875 9.71875,15.71875 10,16 l 0.28125,0.28125 0.04687,-0.07813 L 10.375,16.125 10.28125,16.28125 Q 10.1875,16.4375 10.125,16.625 L 10.0625,16.8125 10.15625,16.53125 10.25,16.25 10.125,16.625 10,17 H 9.5 9 v -0.5"
       id="path166" />
    <path
       style="fill:#c59f13;fill-opacity:1"
       d="M 10.125,16.625 Q 10.25,16.25 10.5,16 l 0.25,-0.25 0.265625,0.265625 0.265625,0.265625 0.04687,-0.07813 L 11.375,16.125 11.28125,16.28125 Q 11.1875,16.4375 11.125,16.625 L 11.0625,16.8125 11.15625,16.53125 11.25,16.25 11.125,16.625 11,17 H 10.5 10 l 0.125,-0.375 M 10.8125,15.6875 10.75,15.75 10.5625,15.9375 10.375,16.125 10.5,16 q 0.125,-0.125 0.25,-0.25 l 0.125,-0.125 -0.0625,0.0625"
       id="path168" />
    <path
       style="fill:#bd9810;fill-opacity:1"
       d="M 11.125,16.625 Q 11.25,16.25 11.5,16 l 0.25,-0.25 0.265625,0.296875 0.265625,0.296875 0.04687,-0.04687 L 12.375,16.25 12.28125,16.34375 Q 12.1875,16.4375 12.125,16.625 L 12.0625,16.8125 12.15625,16.53125 12.25,16.25 12.125,16.625 12,17 12.09375,16.71875 12.1875,16.4375 12.125,16.625 q -0.0625,0.1875 -0.09375,0.40625 L 12,17.25 12.015625,17.140625 12.03125,17.03125 11.515625,17.015625 11,17 11.125,16.625 M 11.8125,15.6875 11.75,15.75 11.5625,15.9375 11.375,16.125 11.5,16 q 0.125,-0.125 0.25,-0.25 l 0.125,-0.125 -0.0625,0.0625"
       id="path170" />
    <path
       style="fill:#ab850e;fill-opacity:1"
       d="M 12.125,16.625 Q 12.25,16.25 12.5,16.25 q 0.25,0 0.25,0.25 0,0.25 -0.375,0.375 L 12,17 12.125,16.625"
       id="path172" />
    <path
       style="fill:#ae880f;fill-opacity:1"
       d="M 12.75,16.5 V 16.25 16.4375 16.625 16.5 q 0,-0.125 -0.0625,-0.1875 L 12.625,16.25 12.65625,16.28125 12.6875,16.3125 13,16.03125 13.3125,15.75 13.28125,15.6875 13.25,15.625 13.3125,15.75 Q 13.375,15.875 13.5,16 L 13.625,16.125 13.4375,15.9375 13.25,15.75 13.5,16 q 0.25,0.25 0.375,0.625 L 14,17 13.625,17.125 13.25,17.25 13.53125,17.15625 13.8125,17.0625 13.625,17.125 q -0.1875,0.0625 -0.3125,0.1875 l -0.125,0.125 0.0625,-0.0625 0.0625,-0.0625 -0.328125,-0.296875 -0.328125,-0.296875 -0.04687,0.04687 -0.04687,0.04687 0.09375,-0.09375 Q 12.75,16.625 12.75,16.5 V 16.375 16.5625 16.75 16.5"
       id="path174" />
    <path
       style="fill:#bb9612;fill-opacity:1"
       d="M 13.875,16.625 13.75,16.25 13.84375,16.53125 13.9375,16.8125 13.875,16.625 Q 13.8125,16.4375 13.71875,16.28125 L 13.625,16.125 l 0.04687,0.07813 0.04687,0.07813 L 14.03125,16 14.34375,15.71875 14.296875,15.671875 14.25,15.625 14.34375,15.71875 Q 14.4375,15.8125 14.625,15.875 L 14.8125,15.9375 14.53125,15.84375 14.25,15.75 14.625,15.875 15,16 V 16.5 17 H 14.5 14 l -0.125,-0.375"
       id="path176" />
    <path
       style="fill:#ba9512;fill-opacity:1"
       d="M 15,16.5 V 16 L 15.375,15.875 15.75,15.75 15.46875,15.84375 15.1875,15.9375 15.375,15.875 q 0.1875,-0.0625 0.28125,-0.15625 L 15.75,15.625 15.703125,15.671875 15.65625,15.71875 16,16 l 0.34375,0.28125 0.04687,-0.04687 0.04687,-0.04687 -0.09375,0.09375 Q 16.25,16.375 16.25,16.5 V 16.625 16.4375 16.25 16.5 16.75 16.5625 16.375 16.5 q 0,0.125 0.0625,0.1875 L 16.375,16.75 16.34375,16.71875 16.3125,16.6875 16.015625,16.984375 15.71875,17.28125 15.796875,17.328125 15.875,17.375 15.71875,17.28125 Q 15.5625,17.1875 15.375,17.125 L 15.1875,17.0625 15.46875,17.15625 15.75,17.25 15.375,17.125 15,17 v -0.5"
       id="path178" />
    <path
       style="fill:#ab850e;fill-opacity:1"
       d="m 16.25,16.5 q 0,-0.25 0.375,-0.375 L 17,16 16.875,16.375 Q 16.75,16.75 16.5,16.75 q -0.25,0 -0.25,-0.25"
       id="path180" />
    <path
       style="fill:#b48e0f;fill-opacity:1"
       d="M 16.875,16.375 17,16 17.375,15.875 17.75,15.75 17.46875,15.84375 17.1875,15.9375 17.375,15.875 q 0.1875,-0.0625 0.28125,-0.15625 L 17.75,15.625 l -0.04687,0.04687 -0.04687,0.04687 0.296875,0.296875 L 18.25,16.3125 18.3125,16.28125 18.375,16.25 18.25,16.3125 Q 18.125,16.375 18,16.5 L 17.875,16.625 18.0625,16.4375 18.25,16.25 18,16.5 Q 17.75,16.75 17.5,17 L 17.25,17.25 17.4375,17.0625 17.625,16.875 17.5,17 q -0.125,0.125 -0.1875,0.25 L 17.25,17.375 17.28125,17.3125 17.3125,17.25 17.015625,16.953125 16.71875,16.65625 16.671875,16.703125 16.625,16.75 16.71875,16.65625 Q 16.8125,16.5625 16.875,16.375 L 16.9375,16.1875 16.84375,16.46875 16.75,16.75 16.875,16.375"
       id="path182" />
    <path
       style="fill:#c59f13;fill-opacity:1"
       d="m 18,16.5 q 0.25,-0.25 0.5,-0.25 0.25,0 0.375,0.40625 L 19,17.0625 H 19.09375 19.1875 19 q -0.1875,0 -0.375,0.0625 L 18.4375,17.1875 18.71875,17.09375 19,17 18.625,17.125 18.25,17.25 18.53125,17.15625 18.8125,17.0625 18.625,17.125 q -0.1875,0.0625 -0.28125,0.15625 L 18.25,17.375 18.296875,17.328125 18.34375,17.28125 18.046875,17.015625 17.75,16.75 18,16.5 M 17.9375,16.5625 17.75,16.75 17.6875,16.8125 17.625,16.875 17.75,16.75 Q 17.875,16.625 18,16.5 l 0.125,-0.125 -0.1875,0.1875"
       id="path184" />
    <path
       style="fill:#ae8e12;fill-opacity:1"
       d="M 18.875,16.65625 18.75,16.25 18.84375,16.53125 18.9375,16.8125 18.875,16.625 Q 18.8125,16.4375 18.71875,16.34375 L 18.625,16.25 l 0.04687,0.04687 0.04687,0.04687 0.265625,-0.296875 L 19.25,15.75 19.5,16 q 0.25,0.25 0.5,0.5 l 0.25,0.25 -0.296875,0.265625 -0.296875,0.265625 0.04687,0.04687 L 19.75,17.375 19.65625,17.28125 Q 19.5625,17.1875 19.375,17.125 L 19.1875,17.0625 19.46875,17.15625 19.75,17.25 19.375,17.125 19,17 19.28125,17.09375 19.5625,17.1875 19.375,17.125 Q 19.1875,17.0625 19,17.0625 H 18.8125 18.90625 19 L 18.875,16.65625 M 20.3125,16.8125 20.25,16.75 20.0625,16.5625 19.875,16.375 20,16.5 q 0.125,0.125 0.25,0.25 l 0.125,0.125 -0.0625,-0.0625 M 19.4375,15.9375 19.25,15.75 19.1875,15.6875 19.125,15.625 19.25,15.75 q 0.125,0.125 0.25,0.25 l 0.125,0.125 -0.1875,-0.1875"
       id="path186" />
    <path
       style="fill:#947c09;fill-opacity:1"
       d="M 20,16.5 19.75,16.25 20,16 20.25,15.75 20.5,16 q 0.25,0.25 0.5,0.5 L 21.25,16.75 20.96875,17 20.6875,17.25 20.71875,17.3125 20.75,17.375 20.6875,17.25 Q 20.625,17.125 20.5,17 L 20.375,16.875 20.5625,17.0625 20.75,17.25 20.5,17 Q 20.25,16.75 20,16.5 M 21.3125,16.8125 21.25,16.75 21.0625,16.5625 20.875,16.375 21,16.5 q 0.125,0.125 0.25,0.25 l 0.125,0.125 -0.0625,-0.0625 M 20.4375,15.9375 20.25,15.75 20.1875,15.6875 20.125,15.625 20.25,15.75 q 0.125,0.125 0.25,0.25 l 0.125,0.125 -0.1875,-0.1875 m -0.75,0.25 L 19.75,16.25 19.9375,16.4375 20.125,16.625 20,16.5 q -0.125,-0.125 -0.25,-0.25 l -0.125,-0.125 0.0625,0.0625"
       id="path188" />
    <path
       style="fill:#255735;fill-opacity:1"
       d="M 22,16.5 21.75,16.25 22.015625,15.984375 22.28125,15.71875 22.203125,15.671875 22.125,15.625 22.28125,15.71875 Q 22.4375,15.8125 22.625,15.875 L 22.8125,15.9375 22.53125,15.84375 22.25,15.75 22.625,15.875 Q 23,16 23.125,16.375 23.25,16.75 23,17 L 22.75,17.25 22.5,17 Q 22.25,16.75 22,16.5 M 22.5625,17.0625 22.75,17.25 22.8125,17.3125 22.875,17.375 22.75,17.25 Q 22.625,17.125 22.5,17 l -0.125,-0.125 0.1875,0.1875 M 21.6875,16.1875 21.75,16.25 21.9375,16.4375 22.125,16.625 22,16.5 q -0.125,-0.125 -0.25,-0.25 l -0.125,-0.125 0.0625,0.0625"
       id="path190" />
    <path
       style="fill:#439f61;fill-opacity:1"
       d="M 24.125,16.375 24,16 24.09375,16.28125 24.1875,16.5625 24.125,16.375 Q 24.0625,16.1875 24.03125,15.96875 L 24,15.75 l 0.01563,0.109375 0.01563,0.109375 0.359375,0.140625 Q 24.75,16.25 24.875,16.625 L 25,17 24.90625,16.71875 24.8125,16.4375 24.875,16.625 q 0.0625,0.1875 0.09375,0.40625 L 25,17.25 24.984375,17.140625 24.96875,17.03125 24.609375,16.890625 Q 24.25,16.75 24.125,16.375"
       id="path192" />
    <path
       style="fill:#307046;fill-opacity:1"
       d="M 8,17.5 V 17 17.375 17.75 17.5 Q 8,17.25 8.03125,17.03125 L 8.0625,16.8125 8.046875,16.921875 8.03125,17.03125 8.515625,17.015625 9,17 8.875,17.375 q -0.125,0.375 -0.5,0.5 L 8,18 v -0.5"
       id="path194" />
    <path
       style="fill:#cbae5d;fill-opacity:1"
       d="M 8.875,17.375 9,17 H 9.5 10 V 17.5 18 L 9.625,18.125 9.25,18.25 9.53125,18.15625 9.8125,18.0625 9.625,18.125 Q 9.4375,18.1875 9.3125,18.3125 L 9.1875,18.4375 9.25,18.375 9.3125,18.3125 9,18 8.6875,17.6875 8.625,17.75 8.5625,17.8125 8.6875,17.6875 Q 8.8125,17.5625 8.875,17.375 L 8.9375,17.1875 8.84375,17.46875 8.75,17.75 8.875,17.375"
       id="path196" />
    <path
       style="fill:#e8be17;fill-opacity:1"
       d="M 10,17.5 V 17 h 0.5 0.5 l 0.515625,0.01563 0.515625,0.01563 0.01563,-0.109375 0.01563,-0.109375 -0.03125,0.21875 Q 12,17.25 12,17.5 V 17.75 17.375 17 17.5 18 H 11.5 11 10.5 10 v -0.5"
       id="path198" />
    <path
       style="fill:#b39016;fill-opacity:1"
       d="M 12,17.5 V 17 L 12.375,16.875 12.75,16.75 12.46875,16.84375 12.1875,16.9375 12.375,16.875 q 0.1875,-0.0625 0.28125,-0.15625 L 12.75,16.625 l -0.04687,0.04687 -0.04687,0.04687 0.328125,0.296875 0.328125,0.296875 0.0625,-0.0625 0.0625,-0.0625 -0.125,0.125 q -0.125,0.125 -0.1875,0.3125 L 13.0625,17.8125 13.15625,17.53125 13.25,17.25 13.125,17.625 13,18 H 12.5 12 v -0.5"
       id="path200" />
    <path
       style="fill:#f3e08a;fill-opacity:1"
       d="m 13.125,17.625 q 0.125,-0.375 0.5,-0.5 L 14,17 13.71875,17.09375 13.4375,17.1875 13.625,17.125 q 0.1875,-0.0625 0.40625,-0.09375 L 14.25,17 14.140625,17.015625 14.03125,17.03125 14.015625,17.515625 14,18 H 13.5 13 l 0.125,-0.375 M 13.625,18 H 14 14.125 14.25 14 q -0.25,0 -0.5,0 h -0.25 0.375"
       id="path202" />
    <path
       style="fill:#faf0be;fill-opacity:1"
       d="m 14.015625,17.515625 0.01563,-0.484375 -0.109375,0.01563 -0.109375,0.01563 0.21875,-0.03125 Q 14.25,17 14.5,17 H 14.75 14.375 14 14.5 15 l 0.375,0.125 Q 15.75,17.25 16,17.5 q 0.25,0.25 0.5,0.5 0.25,0.25 0.375,0.625 L 17,19 16.625,18.875 Q 16.25,18.75 16,18.5 15.75,18.25 15.375,18.125 15,18 14.5,18 H 14 l 0.01563,-0.484375 M 13.875,18 H 14 14.375 14.75 14.5 q -0.25,0 -0.5,0 h -0.25 0.125"
       id="path204" />
    <path
       style="fill:#a4850d;fill-opacity:1"
       d="M 16,17.5 15.75,17.25 15.9375,17.4375 16.125,17.625 16,17.5 q -0.125,-0.125 -0.28125,-0.21875 l -0.15625,-0.09375 0.07813,0.04687 0.07813,0.04687 0.296875,-0.296875 L 16.3125,16.6875 16.28125,16.65625 16.25,16.625 16.3125,16.6875 Q 16.375,16.75 16.5,16.75 H 16.625 16.4375 16.25 16.5 16.75 16.5625 16.375 16.5 q 0.125,0 0.21875,-0.09375 l 0.09375,-0.09375 -0.04687,0.04687 -0.04687,0.04687 0.296875,0.296875 L 17.3125,17.25 17.34375,17.1875 17.375,17.125 17.3125,17.25 Q 17.25,17.375 17.25,17.5 V 17.625 17.4375 17.25 17.5 17.75 17.5625 17.375 17.5 q 0,0.125 0.0625,0.25 l 0.0625,0.125 -0.03125,-0.0625 -0.03125,-0.0625 -0.296875,0.265625 -0.296875,0.265625 0.04687,0.07813 0.04687,0.07813 -0.09375,-0.15625 Q 16.625,18.125 16.5,18 L 16.375,17.875 16.5625,18.0625 16.75,18.25 16.5,18 Q 16.25,17.75 16,17.5"
       id="path206" />
    <path
       style="fill:#c19b12;fill-opacity:1"
       d="m 17.25,17.5 q 0,-0.25 0.25,-0.5 l 0.25,-0.25 0.296875,0.265625 0.296875,0.265625 0.04687,-0.04687 0.04687,-0.04687 -0.09375,0.09375 Q 18.25,17.375 18.25,17.5 V 17.625 17.4375 17.25 17.5 17.75 17.5625 17.375 17.5 q 0,0.125 0.09375,0.21875 l 0.09375,0.09375 -0.04687,-0.04687 -0.04687,-0.04687 -0.296875,0.265625 L 17.75,18.25 17.5,18 Q 17.25,17.75 17.25,17.5 M 17.5625,18.0625 17.75,18.25 17.8125,18.3125 17.875,18.375 17.75,18.25 Q 17.625,18.125 17.5,18 l -0.125,-0.125 0.1875,0.1875 m 0.25,-1.375 L 17.75,16.75 17.5625,16.9375 17.375,17.125 17.5,17 q 0.125,-0.125 0.25,-0.25 l 0.125,-0.125 -0.0625,0.0625"
       id="path208" />
    <path
       style="fill:#e8be17;fill-opacity:1"
       d="m 18.25,17.5 q 0,-0.25 0.375,-0.375 0.375,-0.125 0.75,0 0.375,0.125 0.375,0.375 0,0.25 -0.375,0.375 L 19,18 18.625,17.875 Q 18.25,17.75 18.25,17.5"
       id="path210" />
    <path
       style="fill:#aa8c0f;fill-opacity:1"
       d="M 19.75,17.5 V 17.25 17.4375 17.625 17.5 q 0,-0.125 -0.09375,-0.21875 l -0.09375,-0.09375 0.04687,0.04687 0.04687,0.04687 0.296875,-0.265625 L 20.25,16.75 20.5,17 q 0.25,0.25 0.25,0.5 0,0.25 -0.25,0.5 l -0.25,0.25 -0.296875,-0.265625 -0.296875,-0.265625 -0.04687,0.04687 -0.04687,0.04687 0.09375,-0.09375 Q 19.75,17.625 19.75,17.5 V 17.375 17.5625 17.75 17.5 M 20.1875,18.3125 20.25,18.25 20.4375,18.0625 20.625,17.875 20.5,18 q -0.125,0.125 -0.25,0.25 l -0.125,0.125 0.0625,-0.0625 m 0.25,-1.375 L 20.25,16.75 20.1875,16.6875 20.125,16.625 20.25,16.75 q 0.125,0.125 0.25,0.25 l 0.125,0.125 -0.1875,-0.1875"
       id="path212" />
    <path
       style="fill:#998309;fill-opacity:1"
       d="M 20.75,17.5 V 17.25 17.4375 17.625 17.5 q 0,-0.125 -0.0625,-0.25 L 20.625,17.125 20.65625,17.1875 20.6875,17.25 20.96875,17 21.25,16.75 21.5,17 q 0.25,0.25 0.375,0.625 L 22,18 21.625,18.125 21.25,18.25 21.53125,18.15625 21.8125,18.0625 21.625,18.125 q -0.1875,0.0625 -0.3125,0.1875 l -0.125,0.125 L 21.25,18.375 21.3125,18.3125 21,18.03125 20.6875,17.75 20.65625,17.8125 20.625,17.875 20.6875,17.75 Q 20.75,17.625 20.75,17.5 V 17.375 17.5625 17.75 17.5 M 21.4375,16.9375 21.25,16.75 21.1875,16.6875 21.125,16.625 21.25,16.75 q 0.125,0.125 0.25,0.25 l 0.125,0.125 -0.1875,-0.1875"
       id="path214" />
    <path
       style="fill:#f6e9a9;fill-opacity:1"
       d="m 6.125,18.625 q 0.125,-0.375 0.5,-0.5 L 7,18 V 18.5 19 L 6.515625,19.015625 6.03125,19.03125 6.015625,19.140625 6,19.25 6.03125,19.03125 Q 6.0625,18.8125 6.125,18.625 L 6.1875,18.4375 6.09375,18.71875 6,19 6.125,18.625"
       id="path216" />
    <path
       style="fill:#e8d495;fill-opacity:1"
       d="M 7,18.5 V 18 H 7.5 8 V 18.5 19 H 7.5 7 v -0.5"
       id="path218" />
    <path
       style="fill:#d5bb6f;fill-opacity:1"
       d="M 8,18.5 V 18 L 8.375,17.875 8.75,17.75 8.46875,17.84375 8.1875,17.9375 8.375,17.875 Q 8.5625,17.8125 8.6875,17.6875 L 8.8125,17.5625 8.75,17.625 8.6875,17.6875 9,18 9.3125,18.3125 9.375,18.25 9.4375,18.1875 9.3125,18.3125 Q 9.1875,18.4375 9.125,18.625 L 9.0625,18.8125 9.15625,18.53125 9.25,18.25 9.125,18.625 9,19 H 8.5 8 V 18.5 M 8.96875,19.09375 9,19 9.09375,18.71875 9.1875,18.4375 9.125,18.625 Q 9.0625,18.8125 9,19 l -0.0625,0.1875 0.03125,-0.09375"
       id="path220" />
    <path
       style="fill:#a68218;fill-opacity:1"
       d="m 9.125,18.625 q 0.125,-0.375 0.5,-0.5 L 10,18 10.125,18.375 Q 10.25,18.75 10.5,19 q 0.25,0.25 0.25,0.5 0,0.25 -0.25,0.5 L 10.25,20.25 10.4375,20.0625 10.625,19.875 10.5,20 q -0.125,0.125 -0.21875,0.28125 l -0.09375,0.15625 0.04687,-0.07813 0.04687,-0.07813 -0.265625,-0.265625 Q 9.75,19.75 9.75,19.5 9.75,19.25 9.375,19.125 L 9,19 9.125,18.625"
       id="path222" />
    <path
       style="fill:#c8a213;fill-opacity:1"
       d="M 10.125,18.375 10,18 h 0.5 0.5 l 0.125,0.375 0.125,0.375 -0.09375,-0.28125 -0.09375,-0.28125 0.0625,0.1875 q 0.0625,0.1875 0.1875,0.3125 l 0.125,0.125 L 11.375,18.75 11.3125,18.6875 11,18.96875 10.6875,19.25 10.71875,19.3125 10.75,19.375 10.6875,19.25 Q 10.625,19.125 10.5,19 L 10.375,18.875 10.5625,19.0625 10.75,19.25 10.5,19 q -0.25,-0.25 -0.375,-0.625"
       id="path224" />
    <path
       style="fill:#c89d11;fill-opacity:1"
       d="M 11.125,18.375 11,18 h 0.5 0.5 v 0.5 0.5 l -0.375,-0.125 q -0.375,-0.125 -0.5,-0.5"
       id="path226" />
    <path
       style="fill:#faf0be;fill-opacity:1"
       d="M 12,18.5 V 18 h 0.5 0.5 l -0.125,0.375 q -0.125,0.375 -0.5,0.5 L 12,19 v -0.5"
       id="path228" />
    <path
       style="fill:#0a180e;fill-opacity:1"
       d="M 12.875,18.375 13,18 h 0.5 q 0.5,0 1,0 0.5,0 0.875,0.125 0.375,0.125 0.625,0.375 0.25,0.25 0.625,0.375 L 17,19 l 0.125,0.375 q 0.125,0.375 0.5,0.5 L 18,20 18.125,20.375 Q 18.25,20.75 18.5,21 18.75,21.25 19,21.5 L 19.25,21.75 19.0625,21.5625 18.875,21.375 19,21.5 q 0.125,0.125 0.28125,0.21875 l 0.15625,0.09375 -0.07813,-0.04687 -0.07813,-0.04687 -0.265625,0.265625 Q 18.75,22.25 18.375,22.125 L 18,22 17.875,21.625 q -0.125,-0.375 -0.5,-0.5 L 17,21 16.875,20.625 q -0.125,-0.375 -0.5,-0.5 L 16,20 15.875,19.625 Q 15.75,19.25 15.375,19.125 15,19 14.5,19 H 14 l -0.375,0.125 q -0.375,0.125 -0.5,0.5 L 13,20 V 20.5 21 H 12.5 12 l 0.125,-0.375 Q 12.25,20.25 11.984375,19.984375 L 11.71875,19.71875 11.671875,19.796875 11.625,19.875 11.71875,19.71875 Q 11.8125,19.5625 11.875,19.375 L 11.9375,19.1875 11.84375,19.46875 11.75,19.75 11.875,19.375 12,19 12.375,18.875 q 0.375,-0.125 0.5,-0.5"
       id="path230" />
    <path
       style="fill:#9e7a0d;fill-opacity:1"
       d="M 16.875,18.625 16.75,18.25 16.84375,18.53125 16.9375,18.8125 16.875,18.625 Q 16.8125,18.4375 16.71875,18.28125 L 16.625,18.125 l 0.04687,0.07813 0.04687,0.07813 0.296875,-0.265625 L 17.3125,17.75 17.28125,17.6875 17.25,17.625 17.3125,17.75 Q 17.375,17.875 17.5,18 L 17.625,18.125 17.4375,17.9375 17.25,17.75 17.5,18 q 0.25,0.25 0.5,0.5 0.25,0.25 0.5,0.5 0.25,0.25 0.5,0.5 L 19.25,19.75 19.0625,19.5625 18.875,19.375 19,19.5 q 0.125,0.125 0.25,0.1875 L 19.375,19.75 19.3125,19.71875 19.25,19.6875 18.984375,19.984375 18.71875,20.28125 18.796875,20.328125 18.875,20.375 18.71875,20.28125 Q 18.5625,20.1875 18.375,20.125 L 18.1875,20.0625 18.46875,20.15625 18.75,20.25 18.375,20.125 18,20 17.875,19.625 q -0.125,-0.375 -0.5,-0.5 L 17,19 16.875,18.625"
       id="path232" />
    <path
       style="fill:#b59213;fill-opacity:1"
       d="M 18,18.5 17.75,18.25 18.046875,17.984375 18.34375,17.71875 18.296875,17.671875 18.25,17.625 18.34375,17.71875 Q 18.4375,17.8125 18.625,17.875 L 18.8125,17.9375 18.53125,17.84375 18.25,17.75 18.625,17.875 19,18 19.125,18.375 19.25,18.75 19.15625,18.46875 19.0625,18.1875 19.125,18.375 q 0.0625,0.1875 0.15625,0.28125 L 19.375,18.75 19.328125,18.703125 19.28125,18.65625 19.015625,18.953125 18.75,19.25 18.5,19 Q 18.25,18.75 18,18.5 M 18.5625,19.0625 18.75,19.25 18.8125,19.3125 18.875,19.375 18.75,19.25 Q 18.625,19.125 18.5,19 l -0.125,-0.125 0.1875,0.1875 M 17.6875,18.1875 17.75,18.25 17.9375,18.4375 18.125,18.625 18,18.5 q -0.125,-0.125 -0.25,-0.25 l -0.125,-0.125 0.0625,0.0625"
       id="path234" />
    <path
       style="fill:#b69213;fill-opacity:1"
       d="M 19.125,18.375 19,18 19.375,17.875 19.75,17.75 19.46875,17.84375 19.1875,17.9375 19.375,17.875 q 0.1875,-0.0625 0.28125,-0.15625 L 19.75,17.625 l -0.04687,0.04687 -0.04687,0.04687 0.296875,0.265625 L 20.25,18.25 20,18.5 q -0.25,0.25 -0.5,0.25 -0.25,0 -0.375,-0.375 M 20.0625,18.4375 20.25,18.25 20.3125,18.1875 20.375,18.125 20.25,18.25 Q 20.125,18.375 20,18.5 l -0.125,0.125 0.1875,-0.1875"
       id="path236" />
    <path
       style="fill:#9e7a0d;fill-opacity:1"
       d="M 20,18.5 Q 20.25,18.25 20.5,18 L 20.75,17.75 20.5625,17.9375 20.375,18.125 20.5,18 q 0.125,-0.125 0.1875,-0.25 L 20.75,17.625 20.71875,17.6875 20.6875,17.75 21,18.03125 21.3125,18.3125 21.375,18.25 l 0.0625,-0.0625 -0.125,0.125 q -0.125,0.125 -0.1875,0.3125 L 21.0625,18.8125 21.15625,18.53125 21.25,18.25 21.125,18.625 21,19 20.625,19.125 20.25,19.25 20.53125,19.15625 20.8125,19.0625 20.625,19.125 q -0.1875,0.0625 -0.34375,0.15625 L 20.125,19.375 20.203125,19.328125 20.28125,19.28125 20.015625,18.984375 19.75,18.6875 19.6875,18.71875 19.625,18.75 19.75,18.6875 Q 19.875,18.625 20,18.5 L 20.125,18.375 19.9375,18.5625 19.75,18.75 20,18.5"
       id="path238" />
    <path
       style="fill:#8d6a09;fill-opacity:1"
       d="m 21.125,18.625 q 0.125,-0.375 0.5,-0.5 L 22,18 v 0.5 Q 22,19 21.875,19.375 21.75,19.75 21.5,20 L 21.25,20.25 21.4375,20.0625 21.625,19.875 21.5,20 q -0.125,0.125 -0.1875,0.25 L 21.25,20.375 21.28125,20.3125 21.3125,20.25 21.015625,19.984375 20.71875,19.71875 20.671875,19.796875 20.625,19.875 20.71875,19.71875 Q 20.8125,19.5625 20.875,19.375 L 20.9375,19.1875 20.84375,19.46875 20.75,19.75 20.875,19.375 21,19 21.125,18.625"
       id="path240" />
    <path
       style="fill:#cdb47e;fill-opacity:1"
       d="M 22,18.5 V 18 l 0.375,0.125 q 0.375,0.125 0.5,0.5 L 23,19 22.484375,18.984375 21.96875,18.96875 21.953125,19.078125 21.9375,19.1875 21.96875,18.96875 Q 22,18.75 22,18.5 V 18.25 18.625 19 18.5"
       id="path242" />
    <path
       style="fill:#eddeab;fill-opacity:1"
       d="M 22.875,18.625 22.75,18.25 22.84375,18.53125 22.9375,18.8125 22.875,18.625 q -0.0625,-0.1875 -0.1875,-0.3125 l -0.125,-0.125 0.0625,0.0625 0.0625,0.0625 0.296875,-0.296875 0.296875,-0.296875 -0.07813,-0.04687 L 23.125,17.625 23.28125,17.71875 Q 23.4375,17.8125 23.625,17.875 L 23.8125,17.9375 23.53125,17.84375 23.25,17.75 23.625,17.875 24,18 V 18.5 19 H 23.5 23 l -0.125,-0.375"
       id="path244" />
    <path
       style="fill:#faf0be;fill-opacity:1"
       d="M 24,18.5 V 18 h 0.5 q 0.5,0 0.875,0.125 0.375,0.125 0.5,0.5 L 26,19 25.90625,18.71875 25.8125,18.4375 25.875,18.625 q 0.0625,0.1875 0.09375,0.40625 L 26,19.25 25.984375,19.140625 25.96875,19.03125 25.484375,19.015625 Q 25,19 24.5,19 H 24 v -0.5"
       id="path246" />
    <path
       style="fill:#c3a745;fill-opacity:1"
       d="M 6,19.5 V 19 19.375 19.75 19.5 Q 6,19.25 6.03125,19.03125 L 6.0625,18.8125 6.046875,18.921875 6.03125,19.03125 6.515625,19.015625 7,19 V 19.5 20 H 6.5 6 V 19.5 M 7.125,19 H 7 6.625 6.25 6.5 Q 6.75,19 7,19 H 7.25 7.125"
       id="path248" />
    <path
       style="fill:#e8be17;fill-opacity:1"
       d="M 7,19.5 V 19 H 7.5 8 L 7.875,19.375 Q 7.75,19.75 7.390625,19.859375 L 7.03125,19.96875 7.046875,20.078125 7.0625,20.1875 7.03125,19.96875 Q 7,19.75 7,19.5 V 19.25 19.625 20 19.5 M 7.375,19 H 7 6.875 6.75 7 q 0.25,0 0.5,0 H 7.75 7.375"
       id="path250" />
    <path
       style="fill:#c8a213;fill-opacity:1"
       d="M 7.875,19.375 8,19 H 8.5 9 L 8.875,19.375 Q 8.75,19.75 8.5,20 8.25,20.25 8,20.5 7.75,20.75 7.5,20.75 7.25,20.75 7.125,20.375 L 7,20 7.09375,20.28125 7.1875,20.5625 7.125,20.375 Q 7.0625,20.1875 7.03125,19.96875 L 7,19.75 7.015625,19.859375 7.03125,19.96875 7.390625,19.859375 Q 7.75,19.75 7.875,19.375 M 8.90625,19.28125 9,19 9.03125,18.90625 9.0625,18.8125 9,19 q -0.0625,0.1875 -0.125,0.375 l -0.0625,0.1875 0.09375,-0.28125"
       id="path252" />
    <path
       style="fill:#a6801b;fill-opacity:1"
       d="M 8.875,19.375 9,19 9.375,19.125 Q 9.75,19.25 9.75,19.5 q 0,0.25 0.265625,0.515625 l 0.265625,0.265625 0.04687,-0.07813 L 10.375,20.125 10.28125,20.28125 Q 10.1875,20.4375 10.125,20.625 L 10.0625,20.8125 10.15625,20.53125 10.25,20.25 10.125,20.625 10,21 9.625,21.125 q -0.375,0.125 -0.5,0.5 L 9,22 H 8.5 8 L 8.125,21.625 Q 8.25,21.25 8,20.96875 L 7.75,20.6875 7.6875,20.71875 7.625,20.75 7.75,20.6875 Q 7.875,20.625 8,20.5 L 8.125,20.375 7.9375,20.5625 7.75,20.75 8,20.5 Q 8.25,20.25 8.5,20 8.75,19.75 8.875,19.375"
       id="path254" />
    <path
       style="fill:#f0d14b;fill-opacity:1"
       d="M 10.75,19.5 V 19.25 19.4375 19.625 19.5 q 0,-0.125 -0.0625,-0.25 L 10.625,19.125 10.65625,19.1875 10.6875,19.25 11,18.96875 11.3125,18.6875 11.25,18.625 l -0.0625,-0.0625 0.125,0.125 q 0.125,0.125 0.3125,0.1875 L 11.8125,18.9375 11.53125,18.84375 11.25,18.75 11.625,18.875 12,19 11.875,19.375 Q 11.75,19.75 11.5,20 11.25,20.25 11,20.5 10.75,20.75 10.375,20.875 L 10,21 10.125,20.625 Q 10.25,20.25 10.5,20 q 0.25,-0.25 0.25,-0.5"
       id="path256" />
    <path
       style="fill:#0d1f12;fill-opacity:1"
       d="m 13.125,19.625 q 0.125,-0.375 0.5,-0.5 L 14,19 V 19.5 20 H 13.5 13 l 0.125,-0.375"
       id="path258" />
    <path
       style="fill:#0e2214;fill-opacity:1"
       d="M 14,19.5 V 19 h 0.5 q 0.5,0 0.875,0.125 0.375,0.125 0.5,0.5 L 16,20 h -0.5 q -0.5,0 -1,0 H 14 v -0.5"
       id="path260" />
    <path
       style="fill:#f7e57f;fill-opacity:1"
       d="M 17.125,19.375 17,19 l 0.375,0.125 q 0.375,0.125 0.5,0.5 L 18,20 17.625,19.875 q -0.375,-0.125 -0.5,-0.5"
       id="path262" />
    <path
       style="fill:#a68a0e;fill-opacity:1"
       d="m 19,19.5 -0.25,-0.25 0.265625,-0.296875 0.265625,-0.296875 -0.04687,-0.04687 -0.04687,-0.04687 0.09375,0.09375 Q 19.375,18.75 19.5,18.75 H 19.625 19.4375 19.25 19.5 19.75 19.5625 19.375 19.5 q 0.125,0 0.25,-0.0625 l 0.125,-0.0625 -0.0625,0.03125 -0.0625,0.03125 0.265625,0.296875 0.265625,0.296875 0.07813,-0.04687 0.07813,-0.04687 -0.15625,0.09375 Q 20.125,19.375 20,19.5 L 19.875,19.625 20.0625,19.4375 20.25,19.25 20,19.5 q -0.25,0.25 -0.5,0.25 -0.25,0 -0.5,-0.25 M 18.6875,19.1875 18.75,19.25 18.9375,19.4375 19.125,19.625 19,19.5 q -0.125,-0.125 -0.25,-0.25 l -0.125,-0.125 0.0625,0.0625"
       id="path264" />
    <path
       style="fill:#916c0b;fill-opacity:1"
       d="m 20,19.5 q 0.25,-0.25 0.625,-0.375 L 21,19 20.875,19.375 Q 20.75,19.75 20.5,20 L 20.25,20.25 20.4375,20.0625 20.625,19.875 20.5,20 q -0.125,0.125 -0.1875,0.25 L 20.25,20.375 20.28125,20.3125 20.3125,20.25 20.03125,19.96875 19.75,19.6875 19.6875,19.71875 19.625,19.75 19.75,19.6875 Q 19.875,19.625 20,19.5 L 20.125,19.375 19.9375,19.5625 19.75,19.75 20,19.5"
       id="path266" />
    <path
       style="fill:#c8a213;fill-opacity:1"
       d="M 21.875,19.375 22,19 21.90625,19.28125 21.8125,19.5625 21.875,19.375 q 0.0625,-0.1875 0.09375,-0.40625 L 22,18.75 l -0.01563,0.109375 -0.01563,0.109375 0.515625,0.01563 L 23,19 22.875,19.375 Q 22.75,19.75 22.5,20 q -0.25,0.25 -0.25,0.5 0,0.25 0.25,0.25 0.25,0 0.5,-0.25 0.25,-0.25 0.5,-0.5 0.25,-0.25 0.375,-0.625 L 24,19 h 0.5 0.5 v 0.5 0.5 l -0.375,0.125 q -0.375,0.125 -0.5,0.5 L 24,21 23.625,21.125 q -0.375,0.125 -0.5,0.5 L 23,22 22.625,21.875 Q 22.25,21.75 22,21.5 21.75,21.25 21.5,21 q -0.25,-0.25 -0.25,-0.5 0,-0.25 0.25,-0.5 0.25,-0.25 0.375,-0.625 M 25,20.125 V 20 19.625 19.25 19.5 q 0,0.25 0,0.5 v 0.25 -0.125 M 25.125,19 H 25 24.625 24.25 24.5 q 0.25,0 0.5,0 h 0.25 -0.125 m -0.75,0 H 24 23.875 23.75 24 q 0.25,0 0.5,0 h 0.25 -0.375 m -1.25,0 H 23 22.625 22.25 22.5 q 0.25,0 0.5,0 h 0.25 -0.125"
       id="path268" />
    <path
       style="fill:#e8be17;fill-opacity:1"
       d="M 22.875,19.375 23,19 h 0.5 0.5 l -0.125,0.375 Q 23.75,19.75 23.5,20 q -0.25,0.25 -0.5,0.5 -0.25,0.25 -0.5,0.25 -0.25,0 -0.25,-0.25 0,-0.25 0.25,-0.5 0.25,-0.25 0.375,-0.625 M 24.125,19 H 24 23.625 23.25 23.5 q 0.25,0 0.5,0 h 0.25 -0.125 m -0.75,0 H 23 22.875 22.75 23 q 0.25,0 0.5,0 h 0.25 -0.375"
       id="path270" />
    <path
       style="fill:#d3bc57;fill-opacity:1"
       d="M 25,19.5 V 19 l 0.484375,0.01563 0.484375,0.01563 -0.01563,-0.109375 -0.01563,-0.109375 0.03125,0.21875 Q 26,19.25 26,19.5 V 19.75 19.375 19 19.5 20 H 25.5 25 V 19.5 M 25.375,19 H 25 24.875 24.75 25 q 0.25,0 0.5,0 h 0.25 -0.375"
       id="path272" />
    <path
       style="fill:#b69831;fill-opacity:1"
       d="M 6,20.5 V 20 H 6.5 7 L 7.125,20.375 7.25,20.75 7.15625,20.46875 7.0625,20.1875 7.125,20.375 q 0.0625,0.1875 0.15625,0.28125 L 7.375,20.75 7.328125,20.703125 7.28125,20.65625 7,20.96875 6.71875,21.28125 6.796875,21.328125 6.875,21.375 6.71875,21.28125 Q 6.5625,21.1875 6.375,21.125 L 6.1875,21.0625 6.46875,21.15625 6.75,21.25 6.375,21.125 6,21 v -0.5"
       id="path274" />
    <path
       style="fill:#0b190f;fill-opacity:1"
       d="M 11,20.5 Q 11.25,20.25 11.5,20 L 11.75,19.75 11.5625,19.9375 11.375,20.125 11.5,20 q 0.125,-0.125 0.21875,-0.28125 l 0.09375,-0.15625 -0.04687,0.07813 -0.04687,0.07813 0.265625,0.265625 Q 12.25,20.25 12.125,20.625 L 12,21 V 21.5 22 H 11.5 11 l 0.125,-0.375 Q 11.25,21.25 10.984375,20.984375 l -0.265625,-0.265625 -0.07813,0.04687 -0.07813,0.04687 0.15625,-0.09375 Q 10.875,20.625 11,20.5 L 11.125,20.375 10.9375,20.5625 10.75,20.75 11,20.5"
       id="path276" />
    <path
       style="fill:#0f2316;fill-opacity:1"
       d="M 13,20.5 V 20 H 13.5 14 V 20.5 21 H 13.5 13 v -0.5"
       id="path278" />
    <path
       style="fill:#0e2615;fill-opacity:1"
       d="M 14,20.5 V 20 h 0.5 q 0.5,0 1,0 H 16 V 20.5 21 21.5 22 H 15.5 Q 15,22 15,21.5 15,21 14.5,21 H 14 v -0.5"
       id="path280" />
    <path
       style="fill:#0c1e11;fill-opacity:1"
       d="M 16,20.5 V 20 l 0.375,0.125 q 0.375,0.125 0.5,0.5 L 17,21 H 16.5 16 v -0.5"
       id="path282" />
    <path
       style="fill:#f0d14b;fill-opacity:1"
       d="M 18.125,20.375 18,20 18.375,20.125 Q 18.75,20.25 19,20.5 q 0.25,0.25 0.5,0.5 0.25,0.25 0.375,0.625 L 20,22 19.625,21.875 Q 19.25,21.75 19,21.5 18.75,21.25 18.5,21 18.25,20.75 18.125,20.375"
       id="path284" />
    <path
       style="fill:#8d6a09;fill-opacity:1"
       d="M 19,20.5 18.75,20.25 18.9375,20.4375 19.125,20.625 19,20.5 q -0.125,-0.125 -0.28125,-0.21875 l -0.15625,-0.09375 0.07813,0.04687 0.07813,0.04687 0.265625,-0.296875 L 19.25,19.6875 19.1875,19.65625 19.125,19.625 19.25,19.6875 Q 19.375,19.75 19.5,19.75 H 19.625 19.4375 19.25 19.5 19.75 19.5625 19.375 19.5 q 0.125,0 0.25,-0.0625 L 19.875,19.625 19.8125,19.65625 19.75,19.6875 20.03125,19.96875 20.3125,20.25 20.34375,20.1875 20.375,20.125 20.3125,20.25 Q 20.25,20.375 20.25,20.5 V 20.625 20.4375 20.25 20.5 q 0,0.25 0.25,0.5 0.25,0.25 0.53125,0 L 21.3125,20.75 21.28125,20.6875 21.25,20.625 21.3125,20.75 Q 21.375,20.875 21.5,21 L 21.625,21.125 21.4375,20.9375 21.25,20.75 21.5,21 q 0.25,0.25 0.5,0.5 0.25,0.25 0.625,0.375 L 23,22 v 0.5 q 0,0.5 0.375,0.375 L 23.75,22.75 23.46875,22.84375 23.1875,22.9375 23.375,22.875 q 0.1875,-0.0625 0.3125,-0.1875 l 0.125,-0.125 -0.0625,0.0625 -0.0625,0.0625 0.296875,0.296875 0.296875,0.296875 0.07813,-0.04687 0.07813,-0.04687 -0.15625,0.09375 Q 24.125,23.375 24,23.5 L 23.875,23.625 24.0625,23.4375 24.25,23.25 24,23.5 Q 23.75,23.75 23.375,23.875 23,24 23,24.5 V 25 l -0.125,0.375 q -0.125,0.375 -0.5,0.5 L 22,26 V 25.5 25 24.5 Q 22,24 21.5,24 H 21 v -0.5 q 0,-0.5 -0.125,-0.875 -0.125,-0.375 -0.5,-0.5 L 20,22 19.875,21.625 Q 19.75,21.25 19.5,21 19.25,20.75 19,20.5"
       id="path286" />
    <path
       style="fill:#917309;fill-opacity:1"
       d="m 20.25,20.5 q 0,-0.25 0.25,-0.5 L 20.75,19.75 20.5625,19.9375 20.375,20.125 20.5,20 q 0.125,-0.125 0.21875,-0.28125 l 0.09375,-0.15625 -0.04687,0.07813 -0.04687,0.07813 0.296875,0.265625 L 21.3125,20.25 21.34375,20.1875 21.375,20.125 21.3125,20.25 Q 21.25,20.375 21.25,20.5 V 20.625 20.4375 20.25 20.5 20.75 20.5625 20.375 20.5 q 0,0.125 0.0625,0.25 L 21.375,20.875 21.34375,20.8125 21.3125,20.75 21.03125,21 Q 20.75,21.25 20.5,21 20.25,20.75 20.25,20.5"
       id="path288" />
    <path
       style="fill:#a27e0b;fill-opacity:1"
       d="m 24.125,20.625 q 0.125,-0.375 0.5,-0.5 L 25,20 V 20.5 21 H 24.5 24 l 0.125,-0.375 M 25,20.375 V 20 19.875 19.75 20 q 0,0.25 0,0.5 v 0.25 -0.375"
       id="path290" />
    <path
       style="fill:#b09330;fill-opacity:1"
       d="M 25,20.5 V 20 H 25.5 26 V 20.5 21 H 25.5 25 v -0.5"
       id="path292" />
    <path
       style="fill:#aa8a21;fill-opacity:1"
       d="M 6.125,21.375 6,21 6.375,21.125 Q 6.75,21.25 7,21.5 L 7.25,21.75 7.0625,21.5625 6.875,21.375 7,21.5 q 0.125,0.125 0.28125,0.21875 L 7.4375,21.8125 7.359375,21.765625 7.28125,21.71875 7,22 6.71875,22.28125 6.765625,22.359375 6.8125,22.4375 6.71875,22.28125 Q 6.625,22.125 6.5,22 L 6.375,21.875 6.5625,22.0625 6.75,22.25 6.5,22 Q 6.25,21.75 6.125,21.375"
       id="path294" />
    <path
       style="fill:#8d6a09;fill-opacity:1"
       d="M 7,21.5 6.75,21.25 6.9375,21.4375 7.125,21.625 7,21.5 Q 6.875,21.375 6.71875,21.28125 L 6.5625,21.1875 6.640625,21.234375 6.71875,21.28125 7,20.96875 7.28125,20.65625 7.234375,20.609375 7.1875,20.5625 7.28125,20.65625 Q 7.375,20.75 7.5,20.75 H 7.625 7.4375 7.25 7.5 7.75 7.5625 7.375 7.5 q 0.125,0 0.25,-0.0625 L 7.875,20.625 7.8125,20.65625 7.75,20.6875 8,20.96875 Q 8.25,21.25 8.125,21.625 L 8,22 7.625,21.875 Q 7.25,21.75 7,21.5"
       id="path296" />
    <path
       style="fill:#c89d11;fill-opacity:1"
       d="m 9.125,21.625 q 0.125,-0.375 0.5,-0.5 L 10,21 V 21.5 22 L 9.515625,22.015625 9.03125,22.03125 9.015625,22.140625 9,22.25 9.03125,22.03125 Q 9.0625,21.8125 9.125,21.625 L 9.1875,21.4375 9.09375,21.71875 9,22 9.125,21.625 M 10,22.125 V 22 21.625 21.25 21.5 q 0,0.25 0,0.5 v 0.25 -0.125"
       id="path298" />
    <path
       style="fill:#0b1d10;fill-opacity:1"
       d="M 10,21.5 V 21 L 10.375,20.875 10.75,20.75 10.46875,20.84375 10.1875,20.9375 10.375,20.875 q 0.1875,-0.0625 0.34375,-0.15625 L 10.875,20.625 l -0.07813,0.04687 -0.07813,0.04687 0.265625,0.265625 Q 11.25,21.25 11.125,21.625 L 11,22 H 10.5 10 v -0.5 m 0,0.125 V 22 22.125 22.25 22 q 0,-0.25 0,-0.5 v -0.25 0.375"
       id="path300" />
    <path
       style="fill:#0b1d10;fill-opacity:1"
       d="M 12,21.5 V 21 H 12.5 13 V 21.5 22 H 12.5 12 v -0.5"
       id="path302" />
    <path
       style="fill:#0e2214;fill-opacity:1"
       d="M 13,21.5 V 21 h 0.5 0.5 v 0.5 Q 14,22 13.5,22 H 13 v -0.5"
       id="path304" />
    <path
       style="fill:#0f2316;fill-opacity:1"
       d="M 14,21.5 V 21 h 0.5 Q 15,21 15,21.5 15,22 15.5,22 H 16 V 22.5 23 H 15.5 15 14.5 14 13.5 13 V 22.5 22 h 0.5 Q 14,22 14,21.5"
       id="path306" />
    <path
       style="fill:#0f2316;fill-opacity:1"
       d="M 16,21.5 V 21 H 16.5 17 V 21.5 22 H 16.5 16 v -0.5"
       id="path308" />
    <path
       style="fill:#0e2214;fill-opacity:1"
       d="M 17,21.5 V 21 l 0.375,0.125 q 0.375,0.125 0.5,0.5 L 18,22 H 17.5 17 v -0.5"
       id="path310" />
    <path
       style="fill:#c89d11;fill-opacity:1"
       d="m 23.125,21.625 q 0.125,-0.375 0.5,-0.5 L 24,21 V 21.5 22 H 23.5 23 l 0.125,-0.375"
       id="path312" />
    <path
       style="fill:#ab8a0b;fill-opacity:1"
       d="M 24,21.5 V 21 h 0.5 0.5 l -0.125,0.375 q -0.125,0.375 -0.5,0.5 L 24,22 v -0.5"
       id="path314" />
    <path
       style="fill:#9e7e1d;fill-opacity:1"
       d="M 24.875,21.375 25,21 h 0.5 0.5 l -0.125,0.375 Q 25.75,21.75 25.5,22 L 25.25,22.25 25.4375,22.0625 25.625,21.875 25.5,22 q -0.125,0.125 -0.21875,0.28125 l -0.09375,0.15625 0.04687,-0.07813 0.04687,-0.07813 L 24.984375,21.984375 24.6875,21.6875 24.625,21.75 l -0.0625,0.0625 0.125,-0.125 q 0.125,-0.125 0.1875,-0.3125 L 24.9375,21.1875 24.84375,21.46875 24.75,21.75 24.875,21.375"
       id="path316" />
    <path
       style="fill:#a17e19;fill-opacity:1"
       d="M 6.875,22.625 6.75,22.25 6.84375,22.53125 6.9375,22.8125 6.875,22.625 Q 6.8125,22.4375 6.71875,22.28125 L 6.625,22.125 6.671875,22.203125 6.71875,22.28125 7,22 7.28125,21.71875 7.203125,21.671875 7.125,21.625 7.28125,21.71875 Q 7.4375,21.8125 7.625,21.875 L 7.8125,21.9375 7.53125,21.84375 7.25,21.75 7.625,21.875 8,22 V 22.5 23 H 7.5 7 L 6.875,22.625"
       id="path318" />
    <path
       style="fill:#8d6a09;fill-opacity:1"
       d="M 8,22.5 V 22 H 8.5 9 v 0.5 0.5 0.5 q 0,0.5 0,1 V 25 H 8.5 8 V 24.5 24 23.5 23 22.5"
       id="path320" />
    <path
       style="fill:#b08510;fill-opacity:1"
       d="M 9,22.5 V 22 22.375 22.75 22.5 Q 9,22.25 9.03125,22.03125 L 9.0625,21.8125 9.046875,21.921875 9.03125,22.03125 9.515625,22.015625 10,22 V 22.5 23 H 9.5 9 v -0.5 m 1,-0.125 V 22 21.875 21.75 22 q 0,0.25 0,0.5 v 0.25 -0.375"
       id="path322" />
    <path
       style="fill:#0d1f12;fill-opacity:1"
       d="M 10,22.5 V 22 h 0.5 0.5 0.5 0.5 0.5 0.5 v 0.5 0.5 0.5 q 0,0.5 0,1 V 25 l -0.375,0.125 Q 12.25,25.25 12,25.5 11.75,25.75 11.5,26 11.25,26.25 11,26.5 10.75,26.75 10.375,26.875 L 10,27 v -0.5 q 0,-0.5 0,-1 0,-0.5 0,-1 0,-0.5 0,-1 V 23 22.5 m 0,-0.625 V 22 22.375 22.75 22.5 q 0,-0.25 0,-0.5 v -0.25 0.125"
       id="path324" />
    <path
       style="fill:#0d1f12;fill-opacity:1"
       d="M 16,22.5 V 22 h 0.5 0.5 0.5 0.5 l 0.375,0.125 q 0.375,0.125 0.640625,-0.140625 L 19.28125,21.71875 19.203125,21.671875 19.125,21.625 19.28125,21.71875 Q 19.4375,21.8125 19.625,21.875 L 19.8125,21.9375 19.53125,21.84375 19.25,21.75 19.625,21.875 20,22 v 0.5 q 0,0.5 0,1 v 0.5 0.5 q 0,0.5 0,1 V 26 H 19.5 Q 19,26 18.625,25.875 18.25,25.75 18,25.5 17.75,25.25 17.375,25.125 17,25 16.5,25 H 16 v -0.5 q 0,-0.5 0,-1 V 23 22.5 m 4,3.625 V 26 25.625 25.25 25.5 q 0,0.25 0,0.5 v 0.25 -0.125"
       id="path326" />
    <path
       style="fill:#c89d11;fill-opacity:1"
       d="M 20,22.5 V 22 l 0.375,0.125 q 0.375,0.125 0.5,0.5 L 21,23 20.90625,22.71875 20.8125,22.4375 20.875,22.625 q 0.0625,0.1875 0.09375,0.40625 L 21,23.25 20.984375,23.140625 20.96875,23.03125 20.484375,23.015625 20,23 v -0.5 m 0,0.125 V 23 23.125 23.25 23 q 0,-0.25 0,-0.5 v -0.25 0.375"
       id="path328" />
    <path
       style="fill:#9a7509;fill-opacity:1"
       d="M 23,22.5 V 22 h 0.5 0.5 l -0.125,0.375 q -0.125,0.375 -0.5,0.5 Q 23,23 23,22.5"
       id="path330" />
    <path
       style="fill:#a08129;fill-opacity:1"
       d="M 23.875,22.375 24,22 24.375,21.875 24.75,21.75 24.46875,21.84375 24.1875,21.9375 24.375,21.875 q 0.1875,-0.0625 0.3125,-0.1875 l 0.125,-0.125 -0.0625,0.0625 -0.0625,0.0625 0.296875,0.296875 0.296875,0.296875 0.04687,-0.07813 L 25.375,22.125 25.28125,22.28125 Q 25.1875,22.4375 25.125,22.625 L 25.0625,22.8125 25.15625,22.53125 25.25,22.25 25.125,22.625 25,23 24.625,23.125 24.25,23.25 24.53125,23.15625 24.8125,23.0625 24.625,23.125 q -0.1875,0.0625 -0.34375,0.15625 L 24.125,23.375 24.203125,23.328125 24.28125,23.28125 23.984375,22.984375 23.6875,22.6875 23.625,22.75 l -0.0625,0.0625 0.125,-0.125 q 0.125,-0.125 0.1875,-0.3125 L 23.9375,22.1875 23.84375,22.46875 23.75,22.75 23.875,22.375"
       id="path332" />
    <path
       style="fill:#a58522;fill-opacity:1"
       d="M 7,23.5 V 23 H 7.5 8 V 23.5 24 H 7.5 7 v -0.5"
       id="path334" />
    <path
       style="fill:#a68a0e;fill-opacity:1"
       d="M 9,23.5 V 23 H 9.5 10 v 0.5 q 0,0.5 0,1 0,0.5 0,1 V 26 L 9.625,25.875 Q 9.25,25.75 9.125,25.375 L 9,25 v -0.5 q 0,-0.5 0,-1 m 1,2.625 V 26 25.625 25.25 25.5 q 0,0.25 0,0.5 v 0.25 -0.125"
       id="path336" />
    <path
       style="fill:#0b1d10;fill-opacity:1"
       d="M 13,23.5 V 23 H 13.5 14 V 23.5 24 24.5 25 H 13.5 13 v -0.5 q 0,-0.5 0,-1"
       id="path338" />
    <path
       style="fill:#0e2214;fill-opacity:1"
       d="M 14,23.5 V 23 H 14.5 15 V 23.5 24 H 14.5 14 v -0.5"
       id="path340" />
    <path
       style="fill:#0e2615;fill-opacity:1"
       d="M 15,23.5 V 23 h 0.5 0.5 v 0.5 q 0,0.5 0,1 V 25 H 15.5 15 V 24.5 24 23.5"
       id="path342" />
    <path
       style="fill:#b08510;fill-opacity:1"
       d="M 20,23.5 V 23 l 0.484375,0.01563 0.484375,0.01563 -0.01563,-0.109375 -0.01563,-0.109375 0.03125,0.21875 Q 21,23.25 21,23.5 V 23.75 23.375 23 23.5 24 H 20.5 20 v -0.5 m 0,-0.625 V 23 23.375 23.75 23.5 q 0,-0.25 0,-0.5 v -0.25 0.125"
       id="path344" />
    <path
       style="fill:#a88a28;fill-opacity:1"
       d="m 24,23.5 q 0.25,-0.25 0.625,-0.375 L 25,23 V 23.5 24 L 24.625,24.125 24.25,24.25 24.53125,24.15625 24.8125,24.0625 24.625,24.125 q -0.1875,0.0625 -0.3125,0.1875 l -0.125,0.125 0.0625,-0.0625 0.0625,-0.0625 -0.296875,-0.296875 -0.296875,-0.296875 -0.07813,0.04687 -0.07813,0.04687 0.15625,-0.09375 Q 23.875,23.625 24,23.5 L 24.125,23.375 23.9375,23.5625 23.75,23.75 24,23.5 m 1,0.625 V 24 23.625 23.25 23.5 q 0,0.25 0,0.5 v 0.25 -0.125"
       id="path346" />
    <path
       style="fill:#a98928;fill-opacity:1"
       d="M 7,24.5 V 24 H 7.5 8 V 24.5 25 H 7.5 7 v -0.5"
       id="path348" />
    <path
       style="fill:#0f2316;fill-opacity:1"
       d="M 14,24.5 V 24 H 14.5 15 V 24.5 25 H 14.5 14 v -0.5"
       id="path350" />
    <path
       style="fill:#a68a0e;fill-opacity:1"
       d="M 20,24.5 V 24 h 0.5 0.5 v 0.5 0.5 l 0.125,0.375 0.125,0.375 -0.09375,-0.28125 -0.09375,-0.28125 0.0625,0.1875 q 0.0625,0.1875 0.1875,0.3125 l 0.125,0.125 L 21.375,25.75 21.3125,25.6875 21.03125,25.96875 Q 20.75,26.25 20.875,26.625 L 21,27 H 20.5 20 v -0.5 q 0,-0.5 0,-1 0,-0.5 0,-1"
       id="path352" />
    <path
       style="fill:#8b6809;fill-opacity:1"
       d="M 21,24.5 V 24 h 0.5 Q 22,24 22,24.5 V 25 H 21.5 21 v -0.5"
       id="path354" />
    <path
       style="fill:#9e7c1f;fill-opacity:1"
       d="M 23,24.5 Q 23,24 23.375,23.875 L 23.75,23.75 23.46875,23.84375 23.1875,23.9375 23.375,23.875 q 0.1875,-0.0625 0.34375,-0.15625 L 23.875,23.625 l -0.07813,0.04687 -0.07813,0.04687 0.296875,0.296875 0.296875,0.296875 0.0625,-0.0625 0.0625,-0.0625 -0.125,0.125 q -0.125,0.125 -0.1875,0.3125 L 24.0625,24.8125 24.15625,24.53125 24.25,24.25 24.125,24.625 24,25 H 23.5 23 v -0.5"
       id="path356" />
    <path
       style="fill:#255735;fill-opacity:1"
       d="m 24.125,24.625 q 0.125,-0.375 0.5,-0.5 L 25,24 v 0.5 q 0,0.5 0,1 V 26 l -0.375,0.125 Q 24.25,26.25 24,26.5 23.75,26.75 23.5,27 23.25,27.25 23,27.5 22.75,27.75 22.375,27.875 L 22,28 22.125,27.625 Q 22.25,27.25 22.5,27 22.75,26.75 23,26.5 23.25,26.25 23.5,26 23.75,25.75 23.875,25.375 L 24,25 24.125,24.625 M 25,24.375 V 24 23.875 23.75 24 q 0,0.25 0,0.5 v 0.25 -0.375"
       id="path358" />
    <path
       style="fill:#ab8a25;fill-opacity:1"
       d="M 7.125,25.375 7,25 H 7.5 8 L 7.953125,25.546875 7.90625,26.09375 7.953125,26.171875 8,26.25 7.90625,26.09375 Q 7.8125,25.9375 7.625,25.875 L 7.4375,25.8125 7.71875,25.90625 8,26 7.625,25.875 q -0.375,-0.125 -0.5,-0.5"
       id="path360" />
    <path
       style="fill:#907109;fill-opacity:1"
       d="M 7.953125,25.546875 8,25 H 8.5 9 L 9.125,25.375 9.25,25.75 9.15625,25.46875 9.0625,25.1875 9.125,25.375 q 0.0625,0.1875 0.1875,0.3125 l 0.125,0.125 L 9.375,25.75 9.3125,25.6875 9.015625,25.984375 8.71875,26.28125 8.796875,26.328125 8.875,26.375 8.71875,26.28125 Q 8.5625,26.1875 8.375,26.125 L 8.1875,26.0625 8.46875,26.15625 8.75,26.25 8.328125,26.171875 7.90625,26.09375 7.953125,25.546875"
       id="path362" />
    <path
       style="fill:#214f30;fill-opacity:1"
       d="m 12,25.5 q 0.25,-0.25 0.625,-0.375 L 13,25 h 0.5 0.5 0.5 0.5 0.5 0.5 0.5 Q 17,25 17.375,25.125 17.75,25.25 18,25.5 18.25,25.75 18.625,25.875 19,26 19.5,26 H 20 V 26.5 27 H 19.5 Q 19,27 18.625,26.875 18.25,26.75 18,26.5 17.75,26.25 17.375,26.125 17,26 16.5,26 q -0.5,0 -1,0 -0.5,0 -1,0 -0.5,0 -1,0 Q 13,26 12.625,26.125 12.25,26.25 12,26.5 11.75,26.75 11.5,27 11.25,27.25 11,27.5 10.75,27.75 10.5,28 L 10.25,28.25 9.984375,27.953125 9.71875,27.65625 9.671875,27.703125 9.625,27.75 9.71875,27.65625 Q 9.8125,27.5625 9.875,27.375 L 9.9375,27.1875 9.84375,27.46875 9.75,27.75 9.875,27.375 10,27 10.375,26.875 Q 10.75,26.75 11,26.5 11.25,26.25 11.5,26 11.75,25.75 12,25.5 M 10.1875,28.3125 10.25,28.25 10.4375,28.0625 10.625,27.875 10.5,28 q -0.125,0.125 -0.25,0.25 l -0.125,0.125 0.0625,-0.0625 M 20,26.375 V 26 25.875 25.75 26 q 0,0.25 0,0.5 v 0.25 -0.375"
       id="path364" />
    <path
       style="fill:#8e6c09;fill-opacity:1"
       d="M 21.125,25.375 21,25 h 0.5 0.5 v 0.5 0.5 l -0.375,-0.125 q -0.375,-0.125 -0.5,-0.5"
       id="path366" />
    <path
       style="fill:#a28122;fill-opacity:1"
       d="M 22.875,25.375 23,25 h 0.5 0.5 l -0.125,0.375 Q 23.75,25.75 23.5,26 L 23.25,26.25 22.96875,25.96875 22.6875,25.6875 22.625,25.75 l -0.0625,0.0625 0.125,-0.125 q 0.125,-0.125 0.1875,-0.3125 L 22.9375,25.1875 22.84375,25.46875 22.75,25.75 22.875,25.375 M 23.1875,26.3125 23.25,26.25 23.4375,26.0625 23.625,25.875 23.5,26 q -0.125,0.125 -0.25,0.25 l -0.125,0.125 0.0625,-0.0625"
       id="path368" />
    <path
       style="fill:#b49947;fill-opacity:1"
       d="M 8,26.5 V 26 26.375 26.75 26.5 Q 8,26.25 7.90625,26.09375 L 7.8125,25.9375 l 0.046875,0.07813 0.046875,0.07813 0.421875,0.07813 Q 8.75,26.25 9,26.5 L 9.25,26.75 9.0625,26.5625 8.875,26.375 9,26.5 q 0.125,0.125 0.28125,0.21875 L 9.4375,26.8125 9.359375,26.765625 9.28125,26.71875 9,27 8.71875,27.28125 8.796875,27.328125 8.875,27.375 8.71875,27.28125 Q 8.5625,27.1875 8.375,27.125 L 8.1875,27.0625 8.46875,27.15625 8.75,27.25 8.375,27.125 8,27 v -0.5 m 0,0.125 V 27 27.125 27.25 27 q 0,-0.25 0,-0.5 v -0.25 0.375"
       id="path370" />
    <path
       style="fill:#a6852b;fill-opacity:1"
       d="M 9,26.5 8.75,26.25 8.9375,26.4375 9.125,26.625 9,26.5 Q 8.875,26.375 8.71875,26.28125 L 8.5625,26.1875 8.640625,26.234375 8.71875,26.28125 9.015625,25.984375 9.3125,25.6875 9.25,25.625 9.1875,25.5625 l 0.125,0.125 q 0.125,0.125 0.3125,0.1875 L 9.8125,25.9375 9.53125,25.84375 9.25,25.75 9.625,25.875 10,26 V 26.5 27 L 9.625,26.875 Q 9.25,26.75 9,26.5 m 1,-0.125 V 26 25.875 25.75 26 q 0,0.25 0,0.5 v 0.25 -0.375"
       id="path372" />
    <path
       style="fill:#967d09;fill-opacity:1"
       d="M 20.875,26.625 Q 20.75,26.25 21.03125,25.96875 L 21.3125,25.6875 21.25,25.625 l -0.0625,-0.0625 0.125,0.125 q 0.125,0.125 0.3125,0.1875 L 21.8125,25.9375 21.53125,25.84375 21.25,25.75 21.625,25.875 22,26 21.875,26.375 q -0.125,0.375 -0.5,0.5 L 21,27 20.875,26.625"
       id="path374" />
    <path
       style="fill:#a98c39;fill-opacity:1"
       d="M 21.875,26.375 22,26 21.90625,26.28125 21.8125,26.5625 21.875,26.375 q 0.0625,-0.1875 0.09375,-0.40625 L 22,25.75 21.984375,25.859375 21.96875,25.96875 22.359375,25.859375 22.75,25.75 22.46875,25.84375 22.1875,25.9375 22.375,25.875 q 0.1875,-0.0625 0.3125,-0.1875 l 0.125,-0.125 -0.0625,0.0625 -0.0625,0.0625 0.28125,0.28125 L 23.25,26.25 23,26.5 Q 22.75,26.75 22.5,27 L 22.25,27.25 22.4375,27.0625 22.625,26.875 22.5,27 q -0.125,0.125 -0.21875,0.28125 l -0.09375,0.15625 0.04687,-0.07813 0.04687,-0.07813 L 21.984375,26.984375 21.6875,26.6875 21.625,26.75 l -0.0625,0.0625 0.125,-0.125 q 0.125,-0.125 0.1875,-0.3125 L 21.9375,26.1875 21.84375,26.46875 21.75,26.75 21.875,26.375 M 23.0625,26.4375 23.25,26.25 23.3125,26.1875 23.375,26.125 23.25,26.25 Q 23.125,26.375 23,26.5 l -0.125,0.125 0.1875,-0.1875"
       id="path376" />
    <path
       style="fill:#307046;fill-opacity:1"
       d="m 24,26.5 q 0.25,-0.25 0.625,-0.375 L 25,26 V 26.5 27 26.625 26.25 26.5 q 0,0.25 -0.03125,0.46875 l -0.03125,0.21875 0.01563,-0.109375 0.01563,-0.109375 -0.359375,0.140625 Q 24.25,27.25 24,27.5 q -0.25,0.25 -0.5,0.5 -0.25,0.25 -0.5,0.5 -0.25,0.25 -0.609375,0.359375 l -0.359375,0.109375 0.01563,0.109375 0.01563,0.109375 -0.03125,-0.21875 Q 22,28.75 22,28.5 V 28.25 28.625 29 28.5 28 l 0.375,-0.125 Q 22.75,27.75 23,27.5 23.25,27.25 23.5,27 23.75,26.75 24,26.5"
       id="path378" />
    <path
       style="fill:#255735;fill-opacity:1"
       d="M 8,27.5 V 27 l 0.375,0.125 Q 8.75,27.25 9,27.5 9.25,27.75 9.5,27.75 H 9.75 9.5625 9.375 9.5 q 0.125,0 0.21875,-0.09375 L 9.8125,27.5625 9.765625,27.609375 9.71875,27.65625 9.984375,27.953125 10.25,28.25 10,28.5 Q 9.75,28.75 9.375,28.875 L 9,29 8.875,28.625 Q 8.75,28.25 8.375,28.125 L 8,28 V 27.5 M 10.0625,28.4375 10.25,28.25 10.3125,28.1875 10.375,28.125 10.25,28.25 Q 10.125,28.375 10,28.5 l -0.125,0.125 0.1875,-0.1875 M 8,26.875 V 27 27.375 27.75 27.5 Q 8,27.25 8,27 v -0.25 0.125"
       id="path380" />
    <path
       style="fill:#c8b26b;fill-opacity:1"
       d="M 9,27.5 8.75,27.25 8.9375,27.4375 9.125,27.625 9,27.5 Q 8.875,27.375 8.71875,27.28125 L 8.5625,27.1875 8.640625,27.234375 8.71875,27.28125 9,27 9.28125,26.71875 9.203125,26.671875 9.125,26.625 9.28125,26.71875 Q 9.4375,26.8125 9.625,26.875 L 9.8125,26.9375 9.53125,26.84375 9.25,26.75 9.625,26.875 10,27 9.875,27.375 Q 9.75,27.75 9.5,27.75 9.25,27.75 9,27.5"
       id="path382" />
    <path
       style="fill:#ae9341;fill-opacity:1"
       d="M 20.125,27.375 20,27 h 0.5 0.5 v 0.5 0.5 l -0.375,-0.125 q -0.375,-0.125 -0.5,-0.5"
       id="path384" />
    <path
       style="fill:#a1832a;fill-opacity:1"
       d="M 21,27.5 V 27 L 21.375,26.875 21.75,26.75 21.46875,26.84375 21.1875,26.9375 21.375,26.875 q 0.1875,-0.0625 0.3125,-0.1875 l 0.125,-0.125 -0.0625,0.0625 -0.0625,0.0625 0.296875,0.296875 0.296875,0.296875 0.04687,-0.07813 L 22.375,27.125 22.28125,27.28125 Q 22.1875,27.4375 22.125,27.625 L 22.0625,27.8125 22.15625,27.53125 22.25,27.25 22.125,27.625 22,28 22.09375,27.71875 22.1875,27.4375 22.125,27.625 q -0.0625,0.1875 -0.09375,0.40625 L 22,28.25 22.015625,28.140625 22.03125,28.03125 21.515625,28.015625 21,28 v -0.5"
       id="path386" />
    <path
       style="fill:#439f61;fill-opacity:1"
       d="m 24,27.5 q 0.25,-0.25 0.609375,-0.390625 L 24.96875,26.96875 24.984375,26.859375 25,26.75 24.96875,26.96875 Q 24.9375,27.1875 24.875,27.375 L 24.8125,27.5625 24.90625,27.28125 25,27 24.875,27.375 Q 24.75,27.75 24.5,28 q -0.25,0.25 -0.5,0.5 -0.25,0.25 -0.5,0.5 -0.25,0.25 -0.5,0.5 -0.25,0.25 -0.5,0.25 -0.25,0 -0.375,-0.375 L 22,29 22.09375,29.28125 22.1875,29.5625 22.125,29.375 Q 22.0625,29.1875 22.03125,28.96875 L 22,28.75 l 0.01563,0.109375 0.01563,0.109375 0.359375,-0.109375 Q 22.75,28.75 23,28.5 23.25,28.25 23.5,28 23.75,27.75 24,27.5"
       id="path388" />
    <path
       style="fill:#307046;fill-opacity:1"
       d="M 8,28.5 V 28 l 0.375,0.125 q 0.375,0.125 0.5,0.5 L 9,29 8.515625,28.984375 8.03125,28.96875 8.046875,29.078125 8.0625,29.1875 8.03125,28.96875 Q 8,28.75 8,28.5 V 28.25 28.625 29 28.5"
       id="path390" />
    <path
       style="fill:#439f61;fill-opacity:1"
       d="M 8.125,29.375 8,29 8.09375,29.28125 8.1875,29.5625 8.125,29.375 Q 8.0625,29.1875 8.03125,28.96875 L 8,28.75 8.015625,28.859375 8.03125,28.96875 8.515625,28.984375 9,29 H 8.625 8.25 8.5 q 0.25,0 0.46875,-0.03125 L 9.1875,28.9375 9.078125,28.953125 8.96875,28.96875 8.859375,29.359375 Q 8.75,29.75 8.5,29.75 q -0.25,0 -0.375,-0.375"
       id="path392" />
  </g>
</svg>
