<?xml version="1.0" encoding="UTF-8" standalone="no"?>
<!-- Created with Inkscape (http://www.inkscape.org/) -->

<svg
   xmlns:dc="http://purl.org/dc/elements/1.1/"
   xmlns:cc="http://creativecommons.org/ns#"
   xmlns:rdf="http://www.w3.org/1999/02/22-rdf-syntax-ns#"
   xmlns:svg="http://www.w3.org/2000/svg"
   xmlns="http://www.w3.org/2000/svg"
   xmlns:sodipodi="http://sodipodi.sourceforge.net/DTD/sodipodi-0.dtd"
   xmlns:inkscape="http://www.inkscape.org/namespaces/inkscape"
   version="1.1"
   id="svg2584"
   width="32"
   height="32"
   viewBox="0 0 32 32"
   sodipodi:docname="cup.svg"
   inkscape:version="0.92.5 (2060ec1f9f, 2020-04-08)">
  <metadata
     id="metadata2590">
    <rdf:RDF>
      <cc:Work
         rdf:about="">
        <dc:format>image/svg+xml</dc:format>
        <dc:type
           rdf:resource="http://purl.org/dc/dcmitype/StillImage" />
        <dc:title></dc:title>
      </cc:Work>
    </rdf:RDF>
  </metadata>
  <defs
     id="defs2588" />
  <sodipodi:namedview
     pagecolor="#ffffff"
     bordercolor="#666666"
     borderopacity="1"
     objecttolerance="10"
     gridtolerance="10"
     guidetolerance="10"
     inkscape:pageopacity="0"
     inkscape:pageshadow="2"
     inkscape:window-width="1920"
     inkscape:window-height="1118"
     id="namedview2586"
     showgrid="false"
     inkscape:zoom="5.5312498"
     inkscape:cx="16.361582"
     inkscape:cy="21.333334"
     inkscape:window-x="0"
     inkscape:window-y="24"
     inkscape:window-maximized="1"
     inkscape:current-layer="svg2584" />
  <g
     id="g2652"
     transform="matrix(1.0451977,0,0,1.0451977,3.4576276,-1.4463287)"
     style="display:inline">
    <path
       style="fill:#000000;fill-opacity:0"
       d="M 0,0.5 V 0 H 0.5 1 1.5 2 2.5 3 3.5 4 4.5 5 5.5 6 6.5 7 7.5 8 8.5 9 9.5 10 10.5 11 11.5 12 12.5 13 13.5 14 14.5 15 15.5 16 16.5 17 17.5 18 18.5 19 19.5 20 20.5 21 21.5 22 22.5 23 23.5 24 V 0.5 1 1.5 2 2.5 3 3.5 4 4.5 5 5.5 6 6.5 7 7.5 8 8.5 9 9.5 10 10.5 11 H 23.5 Q 23,11 22.625,10.875 22.25,10.75 22.125,10.375 22,10 21.625,9.875 21.25,9.75 21.125,9.375 21,9 21,8.5 21,8 20.5,8 20,8 19.5,8 19,8 18.5,8 18,8 17.5,8 17,8 16.5,8 16,8 15.5,8 15,8 14.5,8 14,8 13.5,8 13,8 12.5,8 12,8 11.5,8 11,8 10.5,8 10,8 9.5,8 9,8 8.5,8 8,8 7.5,8 7,8 6.5,8 6,8 5.5,8 5,8 4.5,8 4,8 3.5,8 3,8 3,8.5 3,9 2.875,9.375 2.75,9.75 2.375,9.875 2,10 1.875,10.375 1.75,10.75 1.375,10.875 1,11 0.5,11 H 0 V 10.5 10 9.5 9 8.5 8 7.5 7 6.5 6 5.5 5 4.5 4 3.5 3 2.5 2 1.5 1 0.5"
       id="path2594"
       inkscape:connector-curvature="0" />
    <path
       style="fill:#000000;fill-opacity:1"
       d="M 3,8.5 Q 3,8 3.5,8 q 0.5,0 1,0 0.5,0 1,0 0.5,0 1,0 0.5,0 1,0 0.5,0 1,0 0.5,0 1,0 0.5,0 1,0 0.5,0 1,0 0.5,0 1,0 0.5,0 1,0 0.5,0 1,0 0.5,0 1,0 0.5,0 1,0 0.5,0 1,0 0.5,0 1,0 0.5,0 1,0 0.5,0 1,0 0.5,0 0.5,0.5 0,0.5 0.125,0.875 0.125,0.375 0.5,0.5 0.375,0.125 0.5,0.5 0.125,0.375 0.5,0.5 Q 23,11 23.5,11 H 24 v 0.5 0.5 0.5 0.5 0.5 0.5 h -0.5 q -0.5,0 -0.875,0.125 -0.375,0.125 -0.5,0.5 Q 22,15 22,15.5 22,16 21.5,16 21,16 20.5,16 20,16 19.5,16 19,16 19,15.5 19,15 18.875,14.625 18.75,14.25 18.375,14.125 18,14 18,14.5 q 0,0.5 0,1 0,0.5 0,1 0,0.5 0,1 0,0.5 0,1 0,0.5 -0.5,0.5 -0.5,0 -0.875,0.125 -0.375,0.125 -0.5,0.5 Q 16,20 16,20.5 q 0,0.5 0,1 0,0.5 0,1 0,0.5 0,1 0,0.5 -0.5,0.5 -0.5,0 -0.875,0.125 -0.375,0.125 -0.5,0.5 Q 14,25 14,25.5 q 0,0.5 0.125,0.875 0.125,0.375 0.5,0.5 Q 15,27 15.5,27 q 0.5,0 1,0 0.5,0 1,0 0.5,0 0.5,0.5 0,0.5 0.125,0.875 0.125,0.375 0.5,0.5 Q 19,29 19,29.5 q 0,0.5 0,1 0,0.5 0,1 V 32 H 18.5 18 17.5 17 16.5 16 15.5 15 14.5 14 13.5 13 12.5 12 11.5 11 10.5 10 9.5 9 8.5 8 7.5 7 6.5 6 5.5 5 V 31.5 Q 5,31 5,30.5 5,30 5,29.5 5,29 5.375,28.875 5.75,28.75 5.875,28.375 6,28 6,27.5 6,27 6.5,27 q 0.5,0 1,0 0.5,0 1,0 0.5,0 0.875,-0.125 0.375,-0.125 0.5,-0.5 Q 10,26 10,25.5 10,25 9.875,24.625 9.75,24.25 9.375,24.125 9,24 8.5,24 8,24 8,23.5 8,23 8,22.5 8,22 8,21.5 8,21 8,20.5 8,20 7.875,19.625 7.75,19.25 7.375,19.125 7,19 6.5,19 6,19 6,18.5 6,18 6,17.5 6,17 6,16.5 6,16 6,15.5 6,15 6,14.5 6,14 5.625,14.125 5.25,14.25 5.125,14.625 5,15 5,15.5 5,16 4.5,16 4,16 3.5,16 3,16 2.5,16 2,16 2,15.5 2,15 1.875,14.625 1.75,14.25 1.375,14.125 1,14 0.5,14 H 0 V 13.5 13 12.5 12 11.5 11 H 0.5 Q 1,11 1.375,10.875 1.75,10.75 1.875,10.375 2,10 2.375,9.875 2.75,9.75 2.875,9.375 3,9 3,8.5 M 16.5,30 Q 17,30 17.375,29.875 17.75,29.75 17.75,29.5 17.75,29.25 17.375,29.125 17,29 16.5,29 16,29 15.5,29 15,29 14.625,28.875 14.25,28.75 14.125,28.375 14,28 13.875,27.625 13.75,27.25 13.5,27 13.25,26.75 13.125,26.375 13,26 13,25.5 13,25 13,24.5 V 24 l 0.375,-0.125 q 0.375,-0.125 0.5,-0.5 Q 14,23 13.875,22.625 13.75,22.25 13.5,22 13.25,21.75 13.25,21.5 13.25,21.25 13.5,21 13.75,20.75 13.875,20.375 14,20 14.125,19.625 14.25,19.25 14.625,19.125 15,19 15.375,18.875 15.75,18.75 15.875,18.375 16,18 16,17.5 q 0,-0.5 0,-1 0,-0.5 0,-1 0,-0.5 0,-1 0,-0.5 0,-1 V 13 h 0.5 q 0.5,0 0.875,-0.125 0.375,-0.125 0.5,-0.5 Q 18,12 18,11.5 V 11 h 0.5 q 0.5,0 1,0 0.5,0 0.875,0.125 0.375,0.125 0.5,0.5 Q 21,12 21,12.5 V 13 H 20.5 Q 20,13 19.625,13.125 19.25,13.25 19.25,13.5 q 0,0.25 0.375,0.375 Q 20,14 20.5,14 H 21 20.625 20.25 20.5 q 0.25,0 0.375,-0.125 L 21,13.75 20.9375,13.8125 20.875,13.875 21.3125,13.8125 Q 21.75,13.75 21.875,13.375 22,13 22,12.5 22,12 21.875,11.625 21.75,11.25 21.5,11 21.25,10.75 21,10.5 20.75,10.25 20.375,10.125 20,10 19.5,10 q -0.5,0 -1,0 -0.5,0 -1,0 -0.5,0 -1,0 -0.5,0 -1,0 -0.5,0 -1,0 -0.5,0 -1,0 -0.5,0 -1,0 -0.5,0 -1,0 -0.5,0 -1,0 -0.5,0 -1,0 Q 9,10 8.5,10 8,10 7.5,10 7,10 6.5,10 6,10 5.5,10 5,10 4.5,10 4,10 3.625,10.125 3.25,10.25 3,10.5 2.75,10.75 2.5,11 2.25,11.25 2.125,11.625 2,12 2,12.5 V 13 12.625 12.25 12.5 q 0,0.25 0.125,0.375 L 2.25,13 2.1875,12.9375 2.125,12.875 2.1875,13.3125 Q 2.25,13.75 2.625,13.875 3,14 3.5,14 4,14 4.375,13.875 4.75,13.75 4.75,13.5 4.75,13.25 4.375,13.125 4,13 3.5,13 H 3 V 12.5 Q 3,12 3.125,11.625 3.25,11.25 3.625,11.125 4,11 4.5,11 5,11 5.5,11 H 6 v 0.5 q 0,0.5 0.125,0.875 0.125,0.375 0.5,0.5 Q 7,13 7.5,13 H 8 v 0.5 q 0,0.5 0,1 0,0.5 0,1 0,0.5 0,1 0,0.5 0,1 0,0.5 0.125,0.875 0.125,0.375 0.5,0.5 0.375,0.125 0.75,0.25 0.375,0.125 0.5,0.5 0.125,0.375 0.25,0.75 0.125,0.375 0.5,0.5 Q 11,21 11,21.5 q 0,0.5 -0.375,0.625 -0.375,0.125 -0.5,0.5 -0.125,0.375 0,0.75 0.125,0.375 0.5,0.5 L 11,24 10.71875,23.90625 10.4375,23.8125 10.625,23.875 q 0.1875,0.0625 0.40625,0.09375 L 11.25,24 11.140625,23.984375 11.03125,23.96875 11.015625,24.484375 Q 11,25 11,25.5 11,26 10.875,26.375 10.75,26.75 10.5,27 10.25,27.25 10.125,27.625 10,28 10,28.5 V 29 H 9.5 Q 9,29 8.5,29 8,29 7.5,29 7,29 6.625,29.125 6.25,29.25 6.25,29.5 q 0,0.25 0.375,0.375 Q 7,30 7.5,30 q 0.5,0 1,0 0.5,0 1,0 0.5,0 1,0 0.5,0 1,0 0.5,0 1,0 0.5,0 1,0 0.5,0 1,0 0.5,0 1,0 0.5,0 1,0 M 16.375,13 H 16 15.875 15.75 16 q 0.25,0 0.5,0 h 0.25 -0.375 m 2,-2 H 18 17.875 17.75 18 q 0.25,0 0.5,0 h 0.25 -0.375"
       id="path2596"
       inkscape:connector-curvature="0" />
    <path
       style="fill:#edb933;fill-opacity:1"
       d="M 3,10.5 Q 3.25,10.25 3.625,10.125 4,10 4.5,10 H 5 V 10.5 11 H 4.5 Q 4,11 3.625,11.125 3.25,11.25 3.125,11.625 3,12 3,12.5 V 13 H 2.5 Q 2,13 2,12.5 2,12 2.125,11.625 2.25,11.25 2.5,11 2.75,10.75 3,10.5 M 4.625,11 H 5 5.125 5.25 5 Q 4.75,11 4.5,11 H 4.25 4.625 m 0.5,-1 H 5 4.625 4.25 4.5 Q 4.75,10 5,10 H 5.25 5.125"
       id="path2598"
       inkscape:connector-curvature="0" />
    <path
       style="fill:#e9e9e9;fill-opacity:1"
       d="M 5,10.5 V 10 H 5.5 6 V 10.5 11 H 5.5 5 V 10.5 M 4.875,11 H 5 5.375 5.75 5.5 Q 5.25,11 5,11 H 4.75 4.875 m 1.25,-1 H 6 5.625 5.25 5.5 Q 5.75,10 6,10 H 6.25 6.125 m -0.75,0 H 5 4.875 4.75 5 q 0.25,0 0.5,0 H 5.75 5.375"
       id="path2600"
       inkscape:connector-curvature="0" />
    <path
       style="fill:#edb933;fill-opacity:1"
       d="M 6,10.5 V 10 h 0.5 q 0.5,0 1,0 H 8 V 10.5 11 H 7.5 Q 7,11 6.5,11 H 6 V 10.5 M 8.125,10 H 8 7.625 7.25 7.5 Q 7.75,10 8,10 H 8.25 8.125 m -1.75,0 H 6 5.875 5.75 6 q 0.25,0 0.5,0 H 6.75 6.375"
       id="path2602"
       inkscape:connector-curvature="0" />
    <path
       style="fill:#e9e9e9;fill-opacity:1"
       d="M 8,10.5 V 10 h 0.5 q 0.5,0 1,0 0.5,0 1,0 0.5,0 1,0 0.5,0 1,0 0.5,0 1,0 H 14 v 0.5 0.5 h -0.5 q -0.5,0 -1,0 -0.5,0 -1,0 -0.5,0 -1,0 -0.5,0 -1,0 -0.5,0 -1,0 H 8 V 10.5 M 13.625,11 H 14 14.125 14.25 14 q -0.25,0 -0.5,0 h -0.25 0.375 m 0.5,-1 H 14 13.625 13.25 13.5 q 0.25,0 0.5,0 h 0.25 -0.125 m -5.75,0 H 8 7.875 7.75 8 q 0.25,0 0.5,0 H 8.75 8.375"
       id="path2604"
       inkscape:connector-curvature="0" />
    <path
       style="fill:#edb933;fill-opacity:1"
       d="M 14,10.5 V 10 h 0.5 q 0.5,0 1,0 0.5,0 1,0 0.5,0 1,0 0.5,0 1,0 H 19 v 0.5 0.5 h -0.5 q -0.5,0 -1,0 -0.5,0 -1,0 -0.5,0 -1,0 -0.5,0 -1,0 H 14 V 10.5 M 13.875,11 H 14 14.375 14.75 14.5 q -0.25,0 -0.5,0 h -0.25 0.125 m 4.75,0 H 19 19.125 19.25 19 q -0.25,0 -0.5,0 h -0.25 0.375 m 0.5,-1 H 19 18.625 18.25 18.5 q 0.25,0 0.5,0 h 0.25 -0.125 m -4.75,0 H 14 13.875 13.75 14 q 0.25,0 0.5,0 h 0.25 -0.375"
       id="path2606"
       inkscape:connector-curvature="0" />
    <path
       style="fill:#ec7219;fill-opacity:1"
       d="M 19,10.5 V 10 h 0.5 q 0.5,0 0.875,0.125 0.375,0.125 0.625,0.375 0.25,0.25 0.5,0.5 0.25,0.25 0.375,0.625 Q 22,12 22,12.5 V 13 12.625 12.25 12.5 q 0,0.25 -0.03125,0.46875 L 21.9375,13.1875 21.95313,13.078125 21.96876,12.96875 21.484385,12.98438 21,13 V 12.5 Q 21,12 20.875,11.625 20.75,11.25 20.375,11.125 20,11 19.5,11 H 19 V 10.5 M 18.875,11 H 19 19.375 19.75 19.5 q -0.25,0 -0.5,0 h -0.25 0.125 m 0.5,-1 H 19 18.875 18.75 19 q 0.25,0 0.5,0 h 0.25 -0.375"
       id="path2608"
       inkscape:connector-curvature="0" />
    <path
       style="fill:#bc1b0a;fill-opacity:1"
       d="M 6,11.5 V 11 h 0.5 q 0.5,0 1,0 H 8 v 0.5 q 0,0.5 0,1 V 13 H 7.5 Q 7,13 6.625,12.875 6.25,12.75 6.125,12.375 6,12 6,11.5"
       id="path2610"
       inkscape:connector-curvature="0" />
    <path
       style="fill:#ec7219;fill-opacity:1"
       d="M 8,11.5 V 11 h 0.5 q 0.5,0 1,0 0.5,0 1,0 0.5,0 1,0 0.5,0 1,0 H 13 v 0.5 q 0,0.5 0,1 V 13 h -0.5 q -0.5,0 -1,0 -0.5,0 -1,0 -0.5,0 -1,0 -0.5,0 -1,0 H 8 V 12.5 Q 8,12 8,11.5 M 12.625,13 H 13 13.125 13.25 13 q -0.25,0 -0.5,0 h -0.25 0.375 m 0.5,-2 H 13 12.625 12.25 12.5 q 0.25,0 0.5,0 h 0.25 -0.125"
       id="path2612"
       inkscape:connector-curvature="0" />
    <path
       style="fill:#bc1b0a;fill-opacity:1"
       d="M 13,11.5 V 11 h 0.5 q 0.5,0 1,0 0.5,0 1,0 0.5,0 1,0 0.5,0 1,0 H 18 v 0.5 q 0,0.5 -0.125,0.875 -0.125,0.375 -0.5,0.5 Q 17,13 16.5,13 q -0.5,0 -1,0 -0.5,0 -1,0 -0.5,0 -1,0 H 13 v -0.5 q 0,-0.5 0,-1 M 12.875,13 H 13 13.375 13.75 13.5 q -0.25,0 -0.5,0 h -0.25 0.125 m 5.25,-2 H 18 17.625 17.25 17.5 q 0.25,0 0.5,0 h 0.25 -0.125 m -4.75,0 H 13 12.875 12.75 13 q 0.25,0 0.5,0 h 0.25 -0.375"
       id="path2614"
       inkscape:connector-curvature="0" />
    <path
       style="fill:#bc1b0a;fill-opacity:1"
       d="M 2.1875,13.3125 2.125,12.875 2.0625,12.8125 2,12.75 2.125,12.875 Q 2.25,13 2.5,13 H 2.75 2.375 2 2.5 3 L 3.015625,13.484375 3.03125,13.96875 3.140625,13.984375 3.25,14 3.03125,13.96875 Q 2.8125,13.9375 2.625,13.875 L 2.4375,13.8125 2.71875,13.90625 3,14 2.625,13.875 Q 2.25,13.75 2.1875,13.3125"
       id="path2616"
       inkscape:connector-curvature="0" />
    <path
       style="fill:#ec7219;fill-opacity:1"
       d="M 3.015625,13.484375 3,13 H 3.5 Q 4,13 4.375,13.125 4.75,13.25 4.75,13.5 4.75,13.75 4.375,13.875 4,14 3.5,14 H 3 3.375 3.75 3.5 Q 3.25,14 3.03125,13.96875 L 2.8125,13.9375 2.921875,13.953125 3.03125,13.96875 3.015625,13.484375"
       id="path2618"
       inkscape:connector-curvature="0" />
    <path
       style="fill:#edb933;fill-opacity:1"
       d="M 8,13.5 V 13 h 0.5 q 0.5,0 1,0 H 10 v 0.5 q 0,0.5 0,1 0,0.5 0.125,0.875 0.125,0.375 0.375,0.375 0.25,0 0.375,-0.375 Q 11,15 11,14.5 11,14 11,13.5 V 13 h 0.5 q 0.5,0 1,0 0.5,0 1,0 H 14 l -0.125,0.375 Q 13.75,13.75 13.5,14 13.25,14.25 13.125,14.625 13,15 13,15.5 q 0,0.5 0,1 0,0.5 0,1 0,0.5 0,1 0,0.5 0,1 0,0.5 -0.125,0.875 -0.125,0.375 -0.5,0.5 Q 12,21 11.453125,21.046875 l -0.546875,0.04687 0.04687,0.07813 L 11,21.25 10.90625,21.09375 Q 10.8125,20.9375 10.625,20.875 L 10.4375,20.8125 10.71875,20.90625 11,21 10.625,20.875 Q 10.25,20.75 10.125,20.375 10,20 9.875,19.625 9.75,19.25 9.375,19.125 9,19 8.625,18.875 8.25,18.75 8.125,18.375 8,18 8,17.5 8,17 8,16.5 8,16 8,15.5 8,15 8,14.5 8,14 8,13.5 m 2.25,5 q 0,0.25 0.25,0.25 0.25,0 0.25,-0.25 0,-0.25 -0.25,-0.25 -0.25,0 -0.25,0.25 M 14.125,13 H 14 13.625 13.25 13.5 q 0.25,0 0.5,0 h 0.25 -0.125 m -2.75,0 H 11 10.875 10.75 11 q 0.25,0 0.5,0 h 0.25 -0.375 m -1.25,0 H 10 9.625 9.25 9.5 q 0.25,0 0.5,0 h 0.25 -0.125"
       id="path2620"
       inkscape:connector-curvature="0" />
    <path
       style="fill:#e9e9e9;fill-opacity:1"
       d="M 10,13.5 V 13 h 0.5 0.5 v 0.5 q 0,0.5 0,1 0,0.5 -0.125,0.875 -0.125,0.375 -0.375,0.375 -0.25,0 -0.375,-0.375 Q 10,15 10,14.5 10,14 10,13.5 M 11.125,13 H 11 10.625 10.25 10.5 q 0.25,0 0.5,0 h 0.25 -0.125 m -0.75,0 H 10 9.875 9.75 10 q 0.25,0 0.5,0 h 0.25 -0.375"
       id="path2622"
       inkscape:connector-curvature="0" />
    <path
       style="fill:#ec7219;fill-opacity:1"
       d="M 13.875,13.375 14,13 h 0.5 q 0.5,0 1,0 H 16 v 0.5 q 0,0.5 0,1 0,0.5 0,1 0,0.5 0,1 0,0.5 0,1 0,0.5 -0.125,0.875 -0.125,0.375 -0.5,0.5 Q 15,19 14.625,19.125 14.25,19.25 14.125,19.625 14,20 13.875,20.375 13.75,20.75 13.5,21 q -0.25,0.25 -0.25,0.5 0,0.25 0.25,0.5 0.25,0.25 0.375,0.625 0.125,0.375 0,0.75 -0.125,0.375 -0.5,0.5 L 13,24 V 23.5 Q 13,23 12.875,22.625 12.75,22.25 12.375,22.125 12,22 11.453125,21.953125 l -0.546875,-0.04687 -0.04687,0.07813 -0.04687,0.07813 0.09375,-0.15625 Q 11,21.75 11,21.5 V 21.25 21.625 22 21.5 21 21.375 21.75 21.5 q 0,-0.25 -0.09375,-0.40625 l -0.09375,-0.15625 0.04687,0.07813 0.04687,0.07813 0.546875,-0.04687 Q 12,21 12.375,20.875 12.75,20.75 12.875,20.375 13,20 13,19.5 q 0,-0.5 0,-1 0,-0.5 0,-1 0,-0.5 0,-1 0,-0.5 0,-1 Q 13,15 13.125,14.625 13.25,14.25 13.5,14 13.75,13.75 13.875,13.375 M 16.125,13 H 16 15.625 15.25 15.5 q 0.25,0 0.5,0 h 0.25 -0.125 m -1.75,0 H 14 13.875 13.75 14 q 0.25,0 0.5,0 h 0.25 -0.375"
       id="path2624"
       inkscape:connector-curvature="0" />
    <path
       style="fill:#edb933;fill-opacity:1"
       d="m 19.25,13.5 q 0,-0.25 0.375,-0.375 Q 20,13 20.5,13 H 21 v 0.5 Q 21,14 20.5,14 20,14 19.625,13.875 19.25,13.75 19.25,13.5"
       id="path2626"
       inkscape:connector-curvature="0" />
    <path
       style="fill:#bc1b0a;fill-opacity:1"
       d="M 21,13.5 V 13 L 21.484375,12.98437 21.96875,12.96874 21.98438,12.859365 22,12.75 21.96875,12.96875 Q 21.9375,13.1875 21.875,13.375 L 21.8125,13.5625 21.90625,13.28125 22,13 21.875,13.375 Q 21.75,13.75 21.3125,13.8125 L 20.875,13.875 20.8125,13.9375 20.75,14 20.875,13.875 Q 21,13.75 21,13.5 V 13.25 13.625 14 13.5"
       id="path2628"
       inkscape:connector-curvature="0" />
    <path
       style="fill:#000000;fill-opacity:0"
       d="M 0,14.5 V 14 h 0.5 q 0.5,0 0.875,0.125 0.375,0.125 0.5,0.5 Q 2,15 2,15.5 2,16 2.5,16 3,16 3.5,16 4,16 4.5,16 5,16 5,15.5 5,15 5.125,14.625 5.25,14.25 5.625,14.125 6,14 6,14.5 q 0,0.5 0,1 0,0.5 0,1 0,0.5 0,1 0,0.5 0,1 0,0.5 0.5,0.5 0.5,0 0.875,0.125 0.375,0.125 0.5,0.5 Q 8,20 8,20.5 q 0,0.5 0,1 0,0.5 0,1 0,0.5 0,1 0,0.5 0.5,0.5 0.5,0 0.875,0.125 0.375,0.125 0.5,0.5 Q 10,25 10,25.5 10,26 9.875,26.375 9.75,26.75 9.375,26.875 9,27 8.5,27 8,27 7.5,27 7,27 6.5,27 6,27 6,27.5 6,28 5.875,28.375 5.75,28.75 5.375,28.875 5,29 5,29.5 q 0,0.5 0,1 0,0.5 0,1 V 32 H 4.5 4 3.5 3 2.5 2 1.5 1 0.5 0 V 31.5 31 30.5 30 29.5 29 28.5 28 27.5 27 26.5 26 25.5 25 24.5 24 23.5 23 22.5 22 21.5 21 20.5 20 19.5 19 18.5 18 17.5 17 16.5 16 15.5 15 14.5"
       id="path2630"
       inkscape:connector-curvature="0" />
    <path
       style="fill:#000000;fill-opacity:0"
       d="m 18,14.5 q 0,-0.5 0.375,-0.375 0.375,0.125 0.5,0.5 Q 19,15 19,15.5 q 0,0.5 0.5,0.5 0.5,0 1,0 0.5,0 1,0 0.5,0 0.5,-0.5 0,-0.5 0.125,-0.875 0.125,-0.375 0.5,-0.5 Q 23,14 23.5,14 H 24 V 14.5 15 15.5 16 16.5 17 17.5 18 18.5 19 19.5 20 20.5 21 21.5 22 22.5 23 23.5 24 24.5 25 25.5 26 26.5 27 27.5 28 28.5 29 29.5 30 30.5 31 31.5 32 H 23.5 23 22.5 22 21.5 21 20.5 20 19.5 19 v -0.5 q 0,-0.5 0,-1 0,-0.5 0,-1 0,-0.5 -0.375,-0.625 -0.375,-0.125 -0.5,-0.5 Q 18,28 18,27.5 18,27 17.5,27 q -0.5,0 -1,0 -0.5,0 -1,0 -0.5,0 -0.875,-0.125 -0.375,-0.125 -0.5,-0.5 Q 14,26 14,25.5 14,25 14.125,24.625 14.25,24.25 14.625,24.125 15,24 15.5,24 16,24 16,23.5 q 0,-0.5 0,-1 0,-0.5 0,-1 0,-0.5 0,-1 0,-0.5 0.125,-0.875 0.125,-0.375 0.5,-0.5 Q 17,19 17.5,19 18,19 18,18.5 q 0,-0.5 0,-1 0,-0.5 0,-1 0,-0.5 0,-1 0,-0.5 0,-1"
       id="path2632"
       inkscape:connector-curvature="0" />
    <path
       style="fill:#e9e9e9;fill-opacity:1"
       d="m 10.25,18.5 q 0,-0.25 0.25,-0.25 0.25,0 0.25,0.25 0,0.25 -0.25,0.25 -0.25,0 -0.25,-0.25"
       id="path2634"
       inkscape:connector-curvature="0" />
    <path
       style="fill:#edb933;fill-opacity:1"
       d="m 10.125,22.625 q 0.125,-0.375 0.5,-0.5 L 11,22 10.71875,22.09375 10.4375,22.1875 10.625,22.125 q 0.1875,-0.0625 0.28125,-0.21875 L 11,21.75 l -0.04687,0.07813 -0.04687,0.07813 0.546875,0.04687 Q 12,22 12.375,22.125 q 0.375,0.125 0.5,0.5 Q 13,23 13,23.5 V 24 h -0.5 q -0.5,0 -1,0 -0.5,0 -0.875,-0.125 -0.375,-0.125 -0.5,-0.5 -0.125,-0.375 0,-0.75"
       id="path2636"
       inkscape:connector-curvature="0" />
    <path
       style="fill:#bc1b0a;fill-opacity:1"
       d="M 11.015625,24.484375 11.03125,23.96875 10.921875,23.953125 10.8125,23.9375 11.03125,23.96875 Q 11.25,24 11.5,24 H 11.75 11.375 11 11.5 q 0.5,0 1,0 H 13 v 0.5 q 0,0.5 0,1 V 26 25.625 25.25 25.5 q 0,0.25 0.03125,0.46875 L 13.0625,26.1875 13.04687,26.078125 13.03124,25.96875 12.515615,25.98438 Q 12,26 11.484375,25.984375 L 10.96875,25.96875 10.953125,26.078125 10.9375,26.1875 10.96875,25.96875 Q 11,25.75 11,25.5 V 25.25 25.625 26 25.5 q 0,-0.5 0.01563,-1.015625"
       id="path2638"
       inkscape:connector-curvature="0" />
    <path
       style="fill:#ec7219;fill-opacity:1"
       d="M 10.875,26.375 11,26 10.90625,26.28125 10.8125,26.5625 10.875,26.375 q 0.0625,-0.1875 0.09375,-0.40625 L 11,25.75 l -0.01563,0.109375 -0.01563,0.109375 0.515625,0.01563 Q 12,26 12.515625,25.984375 L 13.03125,25.96875 13.015625,25.859375 13,25.75 13.03125,25.96875 Q 13.0625,26.1875 13.125,26.375 L 13.1875,26.5625 13.09375,26.28125 13,26 13.125,26.375 Q 13.25,26.75 13.5,27 q 0.25,0.25 0.375,0.625 0.125,0.375 0.25,0.75 0.125,0.375 0.5,0.5 Q 15,29 15.5,29 H 16 v 0.5 0.5 h -0.5 q -0.5,0 -1,0 H 14 L 13.875,29.625 Q 13.75,29.25 13.375,29.125 13,29 12.5,29 q -0.5,0 -1,0 -0.5,0 -1,0 H 10 V 28.5 Q 10,28 10.125,27.625 10.25,27.25 10.5,27 q 0.25,-0.25 0.375,-0.625 m 3,3.625 H 14 14.375 14.75 14.5 q -0.25,0 -0.5,0 h -0.25 0.125 m 1.75,0 H 16 16.125 16.25 16 q -0.25,0 -0.5,0 h -0.25 0.375 m 0.5,-1 H 16 15.625 15.25 15.5 q 0.25,0 0.5,0 h 0.25 -0.125"
       id="path2640"
       inkscape:connector-curvature="0" />
    <path
       style="fill:#ec7219;fill-opacity:1"
       d="m 6.25,29.5 q 0,-0.25 0.375,-0.375 Q 7,29 7.5,29 H 8 V 29.5 30 H 7.5 Q 7,30 6.625,29.875 6.25,29.75 6.25,29.5 M 7.625,30 H 8 8.125 8.25 8 Q 7.75,30 7.5,30 H 7.25 7.625 m 0.5,-1 H 8 7.625 7.25 7.5 Q 7.75,29 8,29 H 8.25 8.125"
       id="path2642"
       inkscape:connector-curvature="0" />
    <path
       style="fill:#edb933;fill-opacity:1"
       d="M 8,29.5 V 29 h 0.5 q 0.5,0 1,0 H 10 V 29.5 30 H 9.5 Q 9,30 8.5,30 H 8 V 29.5 M 7.875,30 H 8 8.375 8.75 8.5 Q 8.25,30 8,30 H 7.75 7.875 m 1.75,0 H 10 10.125 10.25 10 Q 9.75,30 9.5,30 H 9.25 9.625 M 8.375,29 H 8 7.875 7.75 8 q 0.25,0 0.5,0 H 8.75 8.375"
       id="path2644"
       inkscape:connector-curvature="0" />
    <path
       style="fill:#e9e9e9;fill-opacity:1"
       d="M 10,29.5 V 29 h 0.5 q 0.5,0 1,0 0.5,0 1,0 H 13 12.625 12.25 12.5 q 0.25,0 0.46875,0.03125 L 13.1875,29.0625 13.078125,29.04687 12.96875,29.03124 12.98438,29.515615 13,30 h -0.5 q -0.5,0 -1,0 -0.5,0 -1,0 H 10 V 29.5 M 9.875,30 H 10 10.375 10.75 10.5 Q 10.25,30 10,30 H 9.75 9.875 m 2.75,0 H 13 13.125 13.25 13 q -0.25,0 -0.5,0 h -0.25 0.375"
       id="path2646"
       inkscape:connector-curvature="0" />
    <path
       style="fill:#edb933;fill-opacity:1"
       d="M 12.984375,29.515625 12.96875,29.03125 12.859375,29.015625 12.75,29 12.96875,29.03125 Q 13.1875,29.0625 13.375,29.125 L 13.5625,29.1875 13.28125,29.09375 13,29 l 0.375,0.125 q 0.375,0.125 0.5,0.5 L 14,30 H 13.5 13 L 12.98437,29.515625 M 12.875,30 H 13 13.375 13.75 13.5 q -0.25,0 -0.5,0 h -0.25 0.125 m 0.75,0 H 14 14.125 14.25 14 q -0.25,0 -0.5,0 h -0.25 0.375"
       id="path2648"
       inkscape:connector-curvature="0" />
    <path
       style="fill:#bc1b0a;fill-opacity:1"
       d="M 16,29.5 V 29 h 0.5 q 0.5,0 0.875,0.125 0.375,0.125 0.375,0.375 0,0.25 -0.375,0.375 Q 17,30 16.5,30 H 16 V 29.5 M 15.875,30 H 16 16.375 16.75 16.5 q -0.25,0 -0.5,0 h -0.25 0.125 m 0.5,-1 H 16 15.875 15.75 16 q 0.25,0 0.5,0 h 0.25 -0.375"
       id="path2650"
       inkscape:connector-curvature="0" />
  </g>
</svg>
