<?xml version="1.0" encoding="UTF-8" standalone="no"?>
<!-- Created with Inkscape (http://www.inkscape.org/) -->

<svg
   xmlns:dc="http://purl.org/dc/elements/1.1/"
   xmlns:cc="http://creativecommons.org/ns#"
   xmlns:rdf="http://www.w3.org/1999/02/22-rdf-syntax-ns#"
   xmlns:svg="http://www.w3.org/2000/svg"
   xmlns="http://www.w3.org/2000/svg"
   xmlns:sodipodi="http://sodipodi.sourceforge.net/DTD/sodipodi-0.dtd"
   xmlns:inkscape="http://www.inkscape.org/namespaces/inkscape"
   version="1.1"
   id="svg566"
   width="32"
   height="32"
   viewBox="0 0 32 32"
   sodipodi:docname="dagahra.svg"
   inkscape:version="0.92.5 (2060ec1f9f, 2020-04-08)">
  <metadata
     id="metadata572">
    <rdf:RDF>
      <cc:Work
         rdf:about="">
        <dc:format>image/svg+xml</dc:format>
        <dc:type
           rdf:resource="http://purl.org/dc/dcmitype/StillImage" />
        <dc:title></dc:title>
      </cc:Work>
    </rdf:RDF>
  </metadata>
  <defs
     id="defs570" />
  <sodipodi:namedview
     pagecolor="#ffffff"
     bordercolor="#666666"
     borderopacity="1"
     objecttolerance="10"
     gridtolerance="10"
     guidetolerance="10"
     inkscape:pageopacity="0"
     inkscape:pageshadow="2"
     inkscape:window-width="1920"
     inkscape:window-height="1118"
     id="namedview568"
     showgrid="false"
     inkscape:zoom="7.375"
     inkscape:cx="16"
     inkscape:cy="16"
     inkscape:window-x="0"
     inkscape:window-y="24"
     inkscape:window-maximized="1"
     inkscape:current-layer="svg566" />
  <g
     transform="translate(0 0)"
     id="g796">
    <path
       style="fill:#000000;fill-opacity:0"
       d="M 0,0.5 V 0 H 0.5 1 1.5 2 2.5 3 3.5 4 4.5 5 5.5 6 6.5 7 7.5 8 8.5 9 9.5 10 10.5 11 11.5 12 12.5 13 13.5 14 14.5 15 15.5 16 16.5 17 17.5 18 18.5 19 19.5 20 20.5 21 21.5 22 22.5 23 23.5 24 24.5 25 25.5 26 26.5 27 27.5 28 28.5 29 29.5 30 30.5 31 31.5 32 V 0.5 1 1.5 2 2.5 3 3.5 4 4.5 5 5.5 6 6.5 7 7.5 8 8.5 9 9.5 10 10.5 11 11.5 12 12.5 13 13.5 14 14.5 15 15.5 16 16.5 17 17.5 18 18.5 19 19.5 20 20.5 21 21.5 22 22.5 23 H 31.5 Q 31,23 31,22.5 31,22 30.5,22 30,22 29.5,22 29,22 28.5,22 28,22 28,22.5 28,23 27.5,23 27,23 26.5,23 26,23 26,23.5 26,24 25.5,24 25,24 24.625,24.125 24.25,24.25 23.984375,23.984375 l -0.265625,-0.265625 -0.07813,0.04687 -0.07813,0.04687 0.15625,-0.09375 Q 23.875,23.625 24,23.5 L 24.125,23.375 23.9375,23.5625 23.75,23.75 24,23.5 Q 24.25,23.25 24.5,23 24.75,22.75 25,22.5 25.25,22.25 25.5,22 25.75,21.75 25.875,21.375 26,21 25.875,20.625 25.75,20.25 25.5,20 25.25,19.75 25.125,19.375 25,19 24.875,18.625 24.75,18.25 24.375,18.125 L 24,18 V 17.5 Q 24,17 23.875,16.625 23.75,16.25 23.5,16 23.25,15.75 23.25,15.5 23.25,15.25 23.5,15 23.75,14.75 23.875,14.375 24,14 24,13.5 24,13 23.875,12.625 23.75,12.25 23.5,12 23.25,11.75 23.125,11.375 23,11 23,10.5 23,10 22.875,9.625 22.75,9.25 22.5,9 22.25,8.75 22.125,8.375 22,8 21.875,7.625 21.75,7.25 21.5,7 21.25,6.75 21,6.5 20.75,6.25 20.5,6 20.25,5.75 20,5.5 19.75,5.25 19.375,5.125 19,5 18.5,5 H 18 18.375 18.75 18.5 Q 18.25,5 18.03125,4.96875 L 17.8125,4.9375 17.921875,4.953125 18.03125,4.96875 18.015625,4.484375 18,4 18.375,3.875 Q 18.75,3.75 18.875,3.375 19,3 18.875,2.625 18.75,2.25 18.5,2.25 18.25,2.25 18,2.5 17.75,2.75 17.5,3 17.25,3.25 17,3.5 16.75,3.75 16.375,3.875 16,4 16,3.5 16,3 16,2.5 16,2 15.875,1.625 15.75,1.25 15.5,1.25 15.25,1.25 15,1.5 14.75,1.75 14.5,2 14.25,2.25 14.125,2.625 14,3 14,3.5 V 4 L 13.625,4.125 Q 13.25,4.25 13.125,4.625 13,5 13,5.5 13,6 13,6.5 V 7 L 12.625,7.125 Q 12.25,7.25 12.125,7.625 12,8 12,8.5 12,9 11.875,9.375 11.75,9.75 11.5,10 11.25,10.25 11.125,10.625 11,11 11.125,11.375 11.25,11.75 11.5,12 q 0.25,0.25 0.5,0.5 0.25,0.25 0.625,0.375 0.375,0.125 0.75,0 Q 13.75,12.75 14,12.5 14.25,12.25 14.5,12 14.75,11.75 14.875,11.375 L 15,11 15.375,10.875 Q 15.75,10.75 16,10.5 16.25,10.25 16.5,10 16.75,9.75 17,9.5 17.25,9.25 17.625,9.125 L 18,9 18.125,9.375 q 0.125,0.375 0.5,0.5 L 19,10 18.71875,9.90625 18.4375,9.8125 18.625,9.875 q 0.1875,0.0625 0.40625,0.09375 L 19.25,10 19.140625,9.984375 19.03125,9.96875 19.015625,10.484375 Q 19,11 19,11.5 q 0,0.5 0,1 0,0.5 0,1 0,0.5 0,1 0,0.5 0,1 0,0.5 0,1 V 17 l -0.375,0.125 Q 18.25,17.25 18,17.5 17.75,17.75 17.375,17.875 17,18 16.5,18 16,18 15.5,18 H 15 L 14.875,17.625 Q 14.75,17.25 14.375,17.125 14,17 13.625,16.875 13.25,16.75 13,16.5 12.75,16.25 12.375,16.125 12,16 11.625,15.875 11.25,15.75 11,15.5 10.75,15.25 10.5,15 10.25,14.75 10,14.5 9.75,14.25 9.375,14.125 L 9,14 V 13.5 13 L 9.375,12.875 Q 9.75,12.75 9.875,12.375 10,12 9.875,11.625 9.75,11.25 9.5,11.25 9.25,11.25 9,11.5 8.75,11.75 8.5,12 8.25,12.25 8,12.5 7.75,12.75 7.375,12.875 7,13 7,12.5 7,12 7,11.5 7,11 6.875,10.625 6.75,10.25 6.5,10.25 6.25,10.25 6,10.5 5.75,10.75 5.5,11 5.25,11.25 5.125,11.625 5,12 5,12.5 V 13 L 4.625,13.125 Q 4.25,13.25 4.125,13.625 4,14 4,14.5 4,15 4,15.5 V 16 L 3.625,16.125 Q 3.25,16.25 3.125,16.625 3,17 3,17.5 V 18 L 2.625,18.125 Q 2.25,18.25 2.125,18.625 2,19 2,19.5 2,20 2.125,20.375 2.25,20.75 2.5,21 2.75,21.25 3,21.5 3.25,21.75 3.625,21.875 4,22 4.375,21.875 4.75,21.75 5,21.5 5.25,21.25 5.5,21 5.75,20.75 5.875,20.375 L 6,20 6.375,19.875 Q 6.75,19.75 7,19.5 7.25,19.25 7.5,19 7.75,18.75 8,18.5 8.25,18.25 8.625,18.125 L 9,18 9.125,18.375 Q 9.25,18.75 9.5,19 q 0.25,0.25 0.5,0.5 0.25,0.25 0.625,0.375 Q 11,20 11.5,20 q 0.5,0 1,0 H 13 l 0.125,0.375 q 0.125,0.375 0.5,0.5 L 14,21 l 0.125,0.375 q 0.125,0.375 0.5,0.5 Q 15,22 15.5,22 H 16 15.625 15.25 15.5 q 0.25,0 0.46875,0.03125 l 0.21875,0.03125 -0.109375,-0.01563 -0.109375,-0.01563 0.01563,0.484375 Q 16,23 15.875,23.375 15.75,23.75 15.5,24 15.25,24.25 15.125,24.625 15,25 15.125,25.375 15.25,25.75 15.5,26 q 0.25,0.25 0.375,0.625 0.125,0.375 0,0.75 -0.125,0.375 -0.5,0.5 Q 15,28 14.625,28.125 14.25,28.25 14.140625,28.640625 L 14.03125,29.03125 14.140625,29.015625 14.25,29 14.03125,29.03125 Q 13.8125,29.0625 13.625,29.125 L 13.4375,29.1875 13.71875,29.09375 14,29 13.625,29.125 Q 13.25,29.25 13.25,29.5 q 0,0.25 0.375,0.375 L 14,30 v 0.5 q 0,0.5 0.5,0.5 0.5,0 1,0 0.5,0 1,0 0.5,0 1,0 0.5,0 1,0 0.5,0 0.5,0.5 V 32 H 18.5 18 17.5 17 16.5 16 15.5 15 14.5 14 13.5 13 12.5 12 11.5 11 10.5 10 9.5 9 8.5 8 7.5 7 6.5 6 5.5 5 4.5 4 3.5 3 2.5 2 1.5 1 0.5 0 V 31.5 31 30.5 30 29.5 29 28.5 28 27.5 27 26.5 26 25.5 25 24.5 24 23.5 23 22.5 22 21.5 21 20.5 20 19.5 19 18.5 18 17.5 17 16.5 16 15.5 15 14.5 14 13.5 13 12.5 12 11.5 11 10.5 10 9.5 9 8.5 8 7.5 7 6.5 6 5.5 5 4.5 4 3.5 3 2.5 2 1.5 1 0.5 M 14.09375,21.03125 14,21 13.71875,20.90625 13.4375,20.8125 13.625,20.875 Q 13.8125,20.9375 14,21 l 0.1875,0.0625 -0.09375,-0.03125 M 4,16.125 V 16 15.625 15.25 15.5 q 0,0.25 0,0.5 v 0.25 -0.125 M 8.90625,13.96875 9,14 9.28125,14.09375 9.5625,14.1875 9.375,14.125 Q 9.1875,14.0625 9,14 L 8.8125,13.9375 8.90625,13.96875 M 13,7.125 V 7 6.625 6.25 6.5 Q 13,6.75 13,7 V 7.25 7.125 m 11,10.5 V 18 18.125 18.25 18 q 0,-0.25 0,-0.5 v -0.25 0.375"
       id="path576" />
    <path
       style="fill:#00c060;fill-opacity:1"
       d="m 15,1.5 q 0.25,-0.25 0.5,-0.25 0.25,0 0.375,0.375 L 16,2 15.90625,1.71875 15.8125,1.4375 15.875,1.625 q 0.0625,0.1875 0.09375,0.40625 L 16,2.25 15.984375,2.140625 15.96875,2.03125 15.609375,2.140625 Q 15.25,2.25 15.125,2.625 15,3 14.875,3.375 14.75,3.75 14.375,3.875 L 14,4 V 3.5 Q 14,3 14.125,2.625 14.25,2.25 14.5,2 14.75,1.75 15,1.5"
       id="path578" />
    <path
       style="fill:#00a050;fill-opacity:1"
       d="M 15.125,2.625 Q 15.25,2.25 15.609375,2.140625 L 15.96875,2.03125 15.953125,1.921875 15.9375,1.8125 15.96875,2.03125 Q 16,2.25 16,2.5 V 2.75 2.375 2 2.5 q 0,0.5 0,1 V 4 3.625 3.25 3.5 q 0,0.25 0.125,0.375 L 16.25,4 16.1875,3.9375 16.125,3.875 15.6875,4.0625 Q 15.25,4.25 15,4.5 14.75,4.75 14.375,4.875 L 14,5 V 4.5 4 L 14.375,3.875 Q 14.75,3.75 14.875,3.375 15,3 15.125,2.625 M 14,4.625 V 5 5.125 5.25 5 Q 14,4.75 14,4.5 V 4.25 4.625"
       id="path580" />
    <path
       style="fill:#00c060;fill-opacity:1"
       d="m 18,2.5 q 0.25,-0.25 0.5,-0.25 0.25,0 0.375,0.375 L 19,3 18.90625,2.71875 18.8125,2.4375 18.875,2.625 Q 18.9375,2.8125 18.9375,3 V 3.1875 3.09375 3 L 18.59375,3.125 Q 18.25,3.25 18.125,3.625 L 18,4 17.625,4.125 Q 17.25,4.25 17.25,4.5 q 0,0.25 0.375,0.375 Q 18,5 18.5,5 H 19 18.625 18.25 18.5 q 0.25,0 0.46875,0.03125 L 19.1875,5.0625 19.078125,5.046875 18.96875,5.03125 18.984375,5.515625 Q 19,6 19,6.5 V 7 L 18.625,6.875 Q 18.25,6.75 18,6.5 17.75,6.25 17.359375,6.140625 L 16.96875,6.03125 16.984375,6.140625 17,6.25 16.96875,6.03125 Q 16.9375,5.8125 16.875,5.625 L 16.8125,5.4375 16.90625,5.71875 17,6 16.875,5.625 Q 16.75,5.25 16.375,5.125 L 16,5 H 16.375 16.75 16.5 Q 16.25,5 16.09375,5.09375 L 15.9375,5.1875 16.015625,5.140625 16.09375,5.09375 15.671875,5.171875 q -0.421875,0.078125 -0.5,0.5 L 15.09375,6.09375 15.140625,6.015625 15.1875,5.9375 15.09375,6.09375 Q 15,6.25 15,6.5 V 6.75 6.375 6 6.5 7 6.625 6.25 6.5 q 0,0.25 0.125,0.375 L 15.25,7 15.1875,6.9375 15.125,6.875 14.9375,7.3125 Q 14.75,7.75 14.5,7.75 14.25,7.75 14.125,7.375 14,7 14,6.5 14,6 14,5.5 V 5 L 14.375,4.875 Q 14.75,4.75 15,4.5 15.25,4.25 15.6875,4.0625 L 16.125,3.875 16.0625,3.8125 16,3.75 16.125,3.875 Q 16.25,4 16.5,4 H 16.75 16.375 16 L 16.375,3.875 Q 16.75,3.75 17,3.5 17.25,3.25 17.5,3 17.75,2.75 18,2.5 M 14,4.875 V 5 5.375 5.75 5.5 Q 14,5.25 14,5 V 4.75 4.875 m 5,2.25 V 7 6.625 6.25 6.5 Q 19,6.75 19,7 V 7.25 7.125"
       id="path582" />
    <path
       style="fill:#00a050;fill-opacity:1"
       d="M 18.125,3.625 Q 18.25,3.25 18.59375,3.125 L 18.9375,3 V 2.90625 2.8125 3 q 0,0.1875 -0.0625,0.375 L 18.8125,3.5625 18.90625,3.28125 19,3 18.875,3.375 q -0.125,0.375 -0.5,0.5 L 18,4 18.125,3.625"
       id="path584" />
    <path
       style="fill:#008040;fill-opacity:1"
       d="m 13.125,4.625 q 0.125,-0.375 0.5,-0.5 L 14,4 v 0.5 q 0,0.5 0,1 V 6 H 13.5 13 V 5.5 Q 13,5 13.125,4.625 M 13,5.625 V 6 6.125 6.25 6 Q 13,5.75 13,5.5 V 5.25 5.625 m 1,0.5 V 6 5.625 5.25 5.5 Q 14,5.75 14,6 V 6.25 6.125"
       id="path586" />
    <path
       style="fill:#008040;fill-opacity:1"
       d="m 17.25,4.5 q 0,-0.25 0.375,-0.375 L 18,4 18.015625,4.484375 18.03125,4.96875 18.140625,4.984375 18.25,5 18.03125,4.96875 Q 17.8125,4.9375 17.625,4.875 L 17.4375,4.8125 17.71875,4.90625 18,5 17.625,4.875 Q 17.25,4.75 17.25,4.5"
       id="path588" />
    <path
       style="fill:#008040;fill-opacity:1"
       d="m 15.171875,5.671875 q 0.07813,-0.421875 0.5,-0.5 L 16.09375,5.09375 16.171875,5.046875 16.25,5 16.09375,5.09375 Q 15.9375,5.1875 15.875,5.375 L 15.8125,5.5625 15.90625,5.28125 16,5 15.875,5.375 q -0.125,0.375 -0.5,0.5 L 15,6 15.28125,5.90625 15.5625,5.8125 15.375,5.875 Q 15.1875,5.9375 15.09375,6.09375 L 15,6.25 15.046875,6.171875 15.09375,6.09375 15.171875,5.671875"
       id="path590" />
    <path
       style="fill:#ffff00;fill-opacity:1"
       d="M 15.875,5.375 Q 16,5 16.375,5.125 16.75,5.25 16.875,5.625 17,6 17,6.5 V 7 H 16.5 Q 16,7 15.5,7 15,7 15,6.5 15,6 15.375,5.875 q 0.375,-0.125 0.5,-0.5"
       id="path592" />
    <path
       style="fill:#00a050;fill-opacity:1"
       d="M 18.984375,5.515625 18.96875,5.03125 18.859375,5.015625 18.75,5 18.96875,5.03125 Q 19.1875,5.0625 19.375,5.125 L 19.5625,5.1875 19.28125,5.09375 19,5 19.375,5.125 Q 19.75,5.25 20,5.5 20.25,5.75 20.5,6 20.75,6.25 21,6.5 21.25,6.75 21.5,7 21.75,7.25 21.875,7.625 22,8 22.125,8.375 22.25,8.75 22.5,9 22.75,9.25 22.875,9.625 23,10 23,10.5 23,11 23.125,11.375 23.25,11.75 23.5,12 23.75,12.25 23.875,12.625 24,13 24,13.5 24,14 23.875,14.375 23.75,14.75 23.5,15 q -0.25,0.25 -0.25,0.5 0,0.25 0.25,0.5 0.25,0.25 0.375,0.625 Q 24,17 24,17.5 q 0,0.5 0,1 0,0.5 -0.375,0.625 -0.375,0.125 -0.5,0.5 L 23,20 23.09375,19.71875 23.1875,19.4375 23.125,19.625 q -0.0625,0.1875 -0.09375,0.40625 L 23,20.25 23.015625,20.140625 23.03125,20.03125 22.515625,20.015625 22,20 V 19.5 Q 22,19 22.125,18.625 22.25,18.25 22.5,18 22.75,17.75 22.875,17.375 23,17 22.875,16.625 22.75,16.25 22.5,16 22.25,15.75 22.125,15.375 22,15 22,14.5 22,14 21.984375,13.484375 L 21.96875,12.96875 21.859375,12.984375 21.75,13 21.96875,12.96875 Q 22.1875,12.9375 22.375,12.875 L 22.5625,12.8125 22.28125,12.90625 22,13 22.375,12.875 Q 22.75,12.75 22.75,12.5 22.75,12.25 22.5,12 22.25,11.75 22.125,11.375 22,11 22,10.5 22,10 21.875,9.625 21.75,9.25 21.5,9 21.25,8.75 21,8.5 20.75,8.25 20.5,8 20.25,7.75 20.125,7.375 20,7 19.875,6.625 19.75,6.25 19.375,6.125 L 19,6 18.984375,5.515625 M 19,5.625 V 6 6.125 6.25 6 Q 19,5.75 19,5.5 V 5.25 5.625"
       id="path594" />
    <path
       style="fill:#00a050;fill-opacity:1"
       d="M 13,6.5 V 6 H 13.5 14 V 6.5 Q 14,7 14.125,7.375 14.25,7.75 14.5,7.75 q 0.25,0 0.4375,-0.4375 L 15.125,6.875 15.0625,6.8125 15,6.75 15.125,6.875 Q 15.25,7 15.5,7 H 15.75 15.375 15 15.5 16 V 7.5 8 L 15.625,8.125 Q 15.25,8.25 15,8.5 14.75,8.75 14.5,9 14.25,9.25 14,9.5 13.75,9.75 13.5,10 q -0.25,0.25 -0.5,0.5 -0.25,0.25 -0.5,0.5 -0.25,0.25 -0.25,0.5 0,0.25 0.375,0.375 L 13,12 v 0.46875 0.46875 H 13.09375 13.1875 13 q -0.1875,0 -0.375,-0.0625 L 12.4375,12.8125 12.71875,12.90625 13,13 12.625,12.875 Q 12.25,12.75 12,12.5 11.75,12.25 11.5,12 11.25,11.75 11.125,11.375 11,11 11.125,10.625 11.25,10.25 11.5,10 11.75,9.75 11.875,9.375 L 12,9 11.90625,9.28125 11.8125,9.5625 11.875,9.375 Q 11.9375,9.1875 11.96875,8.96875 L 12,8.75 11.984375,8.859375 11.96875,8.96875 12.359375,8.859375 Q 12.75,8.75 12.875,8.375 13,8 13,7.5 13,7 13,6.5 m 3,1.625 V 8 7.625 7.25 7.5 Q 16,7.75 16,8 V 8.25 8.125 M 16.125,7 H 16 15.625 15.25 15.5 q 0.25,0 0.5,0 h 0.25 -0.125 M 14,6.375 V 6 5.875 5.75 6 q 0,0.25 0,0.5 V 6.75 6.375 m -1,-0.5 V 6 6.375 6.75 6.5 Q 13,6.25 13,6 V 5.75 5.875"
       id="path596" />
    <path
       style="fill:#006030;fill-opacity:1"
       d="M 17,6.5 V 6 6.375 6.75 6.5 Q 17,6.25 16.96875,6.03125 L 16.9375,5.8125 l 0.01563,0.109375 0.01563,0.109375 0.390625,0.109375 Q 17.75,6.25 18,6.5 18.25,6.75 18.625,6.875 L 19,7 V 7.5 8 H 18.5 18 L 17.875,7.625 Q 17.75,7.25 17.375,7.125 L 17,7 V 6.5 m 2,0.875 V 7 6.875 6.75 7 q 0,0.25 0,0.5 V 7.75 7.375"
       id="path598" />
    <path
       style="fill:#008040;fill-opacity:1"
       d="M 19,6.5 V 6 l 0.375,0.125 q 0.375,0.125 0.5,0.5 Q 20,7 20.125,7.375 20.25,7.75 20.5,8 20.75,8.25 21,8.5 21.25,8.75 21.5,9 21.75,9.25 21.875,9.625 22,10 22,10.5 22,11 22.125,11.375 22.25,11.75 22.5,12 q 0.25,0.25 0.25,0.5 0,0.25 -0.375,0.375 Q 22,13 21.5,13 H 21 v -0.5 q 0,-0.5 0,-1 0,-0.5 0,-1 Q 21,10 20.875,9.625 20.75,9.25 20.5,9 20.25,8.75 20,8.5 19.75,8.25 19.375,8.125 L 19,8 V 7.5 Q 19,7 19,6.5 M 19,5.875 V 6 6.375 6.75 6.5 Q 19,6.25 19,6 V 5.75 5.875"
       id="path600" />
    <path
       style="fill:#008040;fill-opacity:1"
       d="m 12.125,7.625 q 0.125,-0.375 0.5,-0.5 L 13,7 V 7.5 8 7.625 7.25 7.5 q 0,0.25 -0.03125,0.46875 L 12.9375,8.1875 12.953125,8.078125 12.96875,7.96875 12.5,8 12.03125,8.03125 12.015625,8.140625 12,8.25 12.03125,8.03125 Q 12.0625,7.8125 12.125,7.625 L 12.1875,7.4375 12.09375,7.71875 12,8 12.125,7.625 M 13,7.375 V 7 6.875 6.75 7 q 0,0.25 0,0.5 V 7.75 7.375"
       id="path602" />
    <path
       style="fill:#004020;fill-opacity:1"
       d="M 16,7.5 V 7 h 0.5 0.5 l 0.125,0.375 q 0.125,0.375 0.5,0.5 L 18,8 V 8.5 9 L 17.625,9.125 Q 17.25,9.25 17,9.5 16.75,9.75 16.5,10 16.25,10.25 16,10.5 15.75,10.75 15.375,10.875 L 15,11 V 10.5 10 L 15.375,9.875 Q 15.75,9.75 15.875,9.375 16,9 16,8.5 16,8 16,7.5 M 16.375,7 H 16 15.875 15.75 16 q 0.25,0 0.5,0 h 0.25 -0.375"
       id="path604" />
    <path
       style="fill:#008040;fill-opacity:1"
       d="M 17.125,7.375 17,7 17.375,7.125 q 0.375,0.125 0.5,0.5 L 18,8 17.625,7.875 q -0.375,-0.125 -0.5,-0.5"
       id="path606" />
    <path
       style="fill:#00c060;fill-opacity:1"
       d="M 12,8.5 V 8 8.375 8.75 8.5 Q 12,8.25 12.03125,8.03125 L 12.0625,7.8125 12.046875,7.921875 12.03125,8.03125 12.5,8 12.96875,7.96875 12.984375,7.859375 13,7.75 12.96875,7.96875 Q 12.9375,8.1875 12.875,8.375 L 12.8125,8.5625 12.90625,8.28125 13,8 12.875,8.375 Q 12.75,8.75 12.359375,8.859375 L 11.96875,8.96875 11.953125,9.078125 11.9375,9.1875 11.96875,8.96875 Q 12,8.75 12,8.5 V 8.25 8.625 9 8.5"
       id="path608" />
    <path
       style="fill:#001818;fill-opacity:1"
       d="M 15,8.5 Q 15.25,8.25 15.625,8.125 L 16,8 V 8.5 9 8.625 8.25 8.5 q 0,0.25 -0.03125,0.46875 L 15.9375,9.1875 15.953125,9.078125 15.96875,8.96875 15.609375,9.109375 Q 15.25,9.25 15.125,9.625 L 15,10 14.625,10.125 Q 14.25,10.25 14,10.5 13.75,10.75 13.5,11 13.25,11.25 13.125,11.625 L 13,12 12.625,11.875 Q 12.25,11.75 12.25,11.5 12.25,11.25 12.5,11 12.75,10.75 13,10.5 13.25,10.25 13.5,10 13.75,9.75 14,9.5 14.25,9.25 14.5,9 14.75,8.75 15,8.5 M 16,8.375 V 8 7.875 7.75 8 q 0,0.25 0,0.5 V 8.75 8.375"
       id="path610" />
    <path
       style="fill:#606030;fill-opacity:1"
       d="M 18,8.5 V 8 H 18.5 19 L 18.984375,8.515625 18.96875,9.03125 19.078125,9.046875 19.1875,9.0625 18.96875,9.03125 Q 18.75,9 18.5,9 H 18.25 18.625 19 18.5 18 V 8.5"
       id="path612" />
    <path
       style="fill:#004020;fill-opacity:1"
       d="M 18.984375,8.515625 19,8 19.375,8.125 Q 19.75,8.25 20,8.5 20.25,8.75 20.5,9 20.75,9.25 20.875,9.625 L 21,10 20.90625,9.71875 20.8125,9.4375 20.875,9.625 q 0.0625,0.1875 0.09375,0.40625 L 21,10.25 20.984375,10.140625 20.96875,10.03125 20.484375,10.015625 20,10 19.875,9.625 Q 19.75,9.25 19.375,9.125 L 19,9 19.28125,9.09375 19.5625,9.1875 19.375,9.125 Q 19.1875,9.0625 18.96875,9.03125 L 18.75,9 18.859375,9.015625 18.96875,9.03125 18.984375,8.515625 M 19.875,10 H 20 20.375 20.75 20.5 q -0.25,0 -0.5,0 h -0.25 0.125"
       id="path614" />
    <path
       style="fill:#006030;fill-opacity:1"
       d="M 15.125,9.625 Q 15.25,9.25 15.609375,9.109375 L 15.96875,8.96875 15.984375,8.859375 16,8.75 15.96875,8.96875 Q 15.9375,9.1875 15.875,9.375 L 15.8125,9.5625 15.90625,9.28125 16,9 15.875,9.375 q -0.125,0.375 -0.5,0.5 L 15,10 15.125,9.625"
       id="path616" />
    <path
       style="fill:#808040;fill-opacity:1"
       d="M 18.125,9.375 18,9 h 0.5 q 0.5,0 0.875,0.125 0.375,0.125 0.5,0.5 L 20,10 H 19.5 Q 19,10 18.625,9.875 18.25,9.75 18.125,9.375 M 19.625,10 H 20 20.125 20.25 20 q -0.25,0 -0.5,0 h -0.25 0.375"
       id="path618" />
    <path
       style="fill:#00c060;fill-opacity:1"
       d="m 6,10.5 q 0.25,-0.25 0.5,-0.25 0.25,0 0.375,0.375 L 7,11 6.90625,10.71875 6.8125,10.4375 6.875,10.625 q 0.0625,0.1875 0.09375,0.40625 L 7,11.25 6.984375,11.140625 6.96875,11.03125 6.609375,11.140625 Q 6.25,11.25 6.125,11.625 6,12 5.875,12.375 5.75,12.75 5.375,12.875 L 5,13 V 12.5 Q 5,12 5.125,11.625 5.25,11.25 5.5,11 5.75,10.75 6,10.5"
       id="path620" />
    <path
       style="fill:#003018;fill-opacity:1"
       d="m 14,10.5 q 0.25,-0.25 0.625,-0.375 L 15,10 v 0.5 0.5 l -0.375,0.125 Q 14.25,11.25 14,11.5 13.75,11.75 13.375,11.875 L 13,12 13.125,11.625 Q 13.25,11.25 13.5,11 13.75,10.75 14,10.5"
       id="path622" />
    <path
       style="fill:#606030;fill-opacity:1"
       d="M 19.015625,10.484375 19.03125,9.96875 18.921875,9.953125 18.8125,9.9375 19.03125,9.96875 Q 19.25,10 19.5,10 H 19.75 19.375 19 19.5 q 0.5,0 0.984375,0.01563 L 20.96875,10.03125 20.953125,9.921875 20.9375,9.8125 20.96875,10.03125 Q 21,10.25 21,10.5 V 10.75 10.375 10 10.5 11 h -0.5 q -0.5,0 -1,0 H 19 l 0.01563,-0.515625 M 19,10.625 V 11 11.125 11.25 11 q 0,-0.25 0,-0.5 v -0.25 0.375 m 2,0.5 V 11 10.625 10.25 10.5 q 0,0.25 0,0.5 v 0.25 -0.125"
       id="path624" />
    <path
       style="fill:#00a050;fill-opacity:1"
       d="M 6.125,11.625 Q 6.25,11.25 6.609375,11.140625 L 6.96875,11.03125 6.953125,10.921875 6.9375,10.8125 6.96875,11.03125 Q 7,11.25 7,11.5 V 11.75 11.375 11 11.5 q 0,0.5 0,1 V 13 12.625 12.25 12.5 q 0,0.25 0.125,0.375 L 7.25,13 7.1875,12.9375 7.125,12.875 6.6875,13.0625 Q 6.25,13.25 6,13.5 5.75,13.75 5.375,13.875 L 5,14 V 13.5 13 L 5.375,12.875 Q 5.75,12.75 5.875,12.375 6,12 6.125,11.625 M 5,13.625 V 14 14.125 14.25 14 q 0,-0.25 0,-0.5 v -0.25 0.375"
       id="path626" />
    <path
       style="fill:#00c060;fill-opacity:1"
       d="m 9,11.5 q 0.25,-0.25 0.5,-0.25 0.25,0 0.375,0.375 L 10,12 9.90625,11.71875 9.8125,11.4375 9.875,11.625 Q 9.9375,11.8125 9.9375,12 V 12.1875 12.09375 12 L 9.59375,12.125 Q 9.25,12.25 9.125,12.625 L 9,13 8.625,13.125 Q 8.25,13.25 8.25,13.5 q 0,0.25 0.375,0.375 Q 9,14 9.375,14.125 9.75,14.25 10,14.5 q 0.25,0.25 0.5,0.5 0.25,0.25 0.5,0.5 0.25,0.25 0.625,0.375 L 12,16 v 0.5 Q 12,17 11.875,17.375 11.75,17.75 11.5,17.75 11.25,17.75 11.125,17.375 11,17 10.875,16.625 10.75,16.25 10.375,16.125 10,16 9.625,15.875 9.25,15.75 9,15.5 8.75,15.25 8.359375,15.140625 L 7.96875,15.03125 7.984375,15.140625 8,15.25 7.96875,15.03125 Q 7.9375,14.8125 7.875,14.625 L 7.8125,14.4375 7.90625,14.71875 8,15 7.875,14.625 Q 7.75,14.25 7.375,14.125 L 7,14 H 7.375 7.75 7.5 Q 7.25,14 7.09375,14.09375 L 6.9375,14.1875 7.015625,14.140625 7.09375,14.09375 6.671875,14.171875 q -0.421875,0.07813 -0.5,0.5 L 6.09375,15.09375 6.140625,15.015625 6.1875,14.9375 6.09375,15.09375 Q 6,15.25 6,15.5 V 15.75 15.375 15 15.5 16 15.625 15.25 15.5 q 0,0.25 0.125,0.375 L 6.25,16 6.1875,15.9375 6.125,15.875 5.9375,16.3125 Q 5.75,16.75 5.5,16.75 5.25,16.75 5.125,16.375 5,16 5,15.5 5,15 5,14.5 V 14 L 5.375,13.875 Q 5.75,13.75 6,13.5 6.25,13.25 6.6875,13.0625 L 7.125,12.875 7.0625,12.8125 7,12.75 7.125,12.875 Q 7.25,13 7.5,13 H 7.75 7.375 7 L 7.375,12.875 Q 7.75,12.75 8,12.5 8.25,12.25 8.5,12 8.75,11.75 9,11.5 M 5,13.875 V 14 14.375 14.75 14.5 Q 5,14.25 5,14 v -0.25 0.125 M 12.09375,16.03125 12,16 11.71875,15.90625 11.4375,15.8125 11.625,15.875 Q 11.8125,15.9375 12,16 l 0.1875,0.0625 -0.09375,-0.03125"
       id="path628" />
    <path
       style="fill:#006030;fill-opacity:1"
       d="m 14,11.5 q 0.25,-0.25 0.625,-0.375 L 15,11 14.875,11.375 Q 14.75,11.75 14.5,12 14.25,12.25 14,12.5 13.75,12.75 13.375,12.875 L 13,13 13.28125,12.90625 13.5625,12.8125 13.375,12.875 Q 13.1875,12.9375 13,12.9375 H 12.8125 12.90625 13 V 12.46875 12 l 0.375,-0.125 Q 13.75,11.75 14,11.5"
       id="path630" />
    <path
       style="fill:#808040;fill-opacity:1"
       d="M 19,11.5 V 11 h 0.5 q 0.5,0 1,0 H 21 v 0.5 0.5 h -0.5 q -0.5,0 -1,0 H 19 v -0.5 m 0,0.125 V 12 12.125 12.25 12 q 0,-0.25 0,-0.5 v -0.25 0.375 m 2,0.5 V 12 11.625 11.25 11.5 q 0,0.25 0,0.5 v 0.25 -0.125 m 0,-0.75 V 11 10.875 10.75 11 q 0,0.25 0,0.5 v 0.25 -0.375 m -2,-0.5 V 11 11.375 11.75 11.5 q 0,-0.25 0,-0.5 v -0.25 0.125"
       id="path632" />
    <path
       style="fill:#00a050;fill-opacity:1"
       d="M 9.125,12.625 Q 9.25,12.25 9.59375,12.125 L 9.9375,12 V 11.90625 11.8125 12 q 0,0.1875 -0.0625,0.375 L 9.8125,12.5625 9.90625,12.28125 10,12 9.875,12.375 q -0.125,0.375 -0.5,0.5 L 9,13 9.125,12.625"
       id="path634" />
    <path
       style="fill:#606030;fill-opacity:1"
       d="M 19,12.5 V 12 h 0.5 q 0.5,0 1,0 H 21 v 0.5 0.5 h -0.5 q -0.5,0 -1,0 H 19 v -0.5 m 0,0.125 V 13 13.125 13.25 13 q 0,-0.25 0,-0.5 v -0.25 0.375 m 2,-0.25 V 12 11.875 11.75 12 q 0,0.25 0,0.5 v 0.25 -0.375 m -2,-0.5 V 12 12.375 12.75 12.5 q 0,-0.25 0,-0.5 v -0.25 0.125"
       id="path636" />
    <path
       style="fill:#008040;fill-opacity:1"
       d="m 4.125,13.625 q 0.125,-0.375 0.5,-0.5 L 5,13 v 0.5 q 0,0.5 0,1 V 15 H 4.5 4 V 14.5 Q 4,14 4.125,13.625 M 4,14.625 V 15 15.125 15.25 15 q 0,-0.25 0,-0.5 v -0.25 0.375 m 1,0.5 V 15 14.625 14.25 14.5 q 0,0.25 0,0.5 v 0.25 -0.125"
       id="path638" />
    <path
       style="fill:#008040;fill-opacity:1"
       d="m 8.25,13.5 q 0,-0.25 0.375,-0.375 L 9,13 V 13.5 14 L 8.625,13.875 Q 8.25,13.75 8.25,13.5 M 8.71875,13.90625 9,14 9.09375,14.03125 9.1875,14.0625 9,14 Q 8.8125,13.9375 8.625,13.875 l -0.1875,-0.0625 0.28125,0.09375"
       id="path640" />
    <path
       style="fill:#808040;fill-opacity:1"
       d="M 19,13.5 V 13 h 0.5 q 0.5,0 1,0 H 21 v 0.5 0.5 h -0.5 q -0.5,0 -1,0 H 19 v -0.5 m 0,0.125 V 14 14.125 14.25 14 q 0,-0.25 0,-0.5 v -0.25 0.375 m 2,0.5 V 14 13.625 13.25 13.5 q 0,0.25 0,0.5 v 0.25 -0.125 m -2,-1.25 V 13 13.375 13.75 13.5 q 0,-0.25 0,-0.5 v -0.25 0.125"
       id="path642" />
    <path
       style="fill:#004020;fill-opacity:1"
       d="M 21,13.5 V 13 H 21.5 22 21.625 21.25 21.5 q 0.25,0 0.46875,-0.03125 l 0.21875,-0.03125 -0.109375,0.01563 -0.109375,0.01563 0.01563,0.515625 Q 22,14 22,14.5 V 15 14.625 14.25 14.5 q 0,0.25 0.03125,0.46875 L 22.0625,15.1875 22.046875,15.078125 22.03125,14.96875 21.515625,14.984375 21,15 v -0.5 q 0,-0.5 0,-1"
       id="path644" />
    <path
       style="fill:#008040;fill-opacity:1"
       d="m 6.171875,14.671875 q 0.078125,-0.421875 0.5,-0.5 L 7.09375,14.09375 7.171875,14.046875 7.25,14 7.09375,14.09375 Q 6.9375,14.1875 6.875,14.375 L 6.8125,14.5625 6.90625,14.28125 7,14 6.875,14.375 q -0.125,0.375 -0.5,0.5 L 6,15 6.28125,14.90625 6.5625,14.8125 6.375,14.875 Q 6.1875,14.9375 6.09375,15.09375 L 6,15.25 6.046875,15.171875 6.09375,15.09375 6.171875,14.671875"
       id="path646" />
    <path
       style="fill:#ffff00;fill-opacity:1"
       d="M 6.875,14.375 Q 7,14 7.375,14.125 7.75,14.25 7.875,14.625 8,15 8,15.5 V 16 H 7.5 Q 7,16 6.5,16 6,16 6,15.5 6,15 6.375,14.875 q 0.375,-0.125 0.5,-0.5"
       id="path648" />
    <path
       style="fill:#606030;fill-opacity:1"
       d="M 19,14.5 V 14 h 0.5 q 0.5,0 1,0 H 21 v 0.5 0.5 h -0.5 q -0.5,0 -1,0 H 19 v -0.5 m 0,0.125 V 15 15.125 15.25 15 q 0,-0.25 0,-0.5 v -0.25 0.375 m 2,-0.25 V 14 13.875 13.75 14 q 0,0.25 0,0.5 v 0.25 -0.375 m -2,-0.5 V 14 14.375 14.75 14.5 q 0,-0.25 0,-0.5 v -0.25 0.125"
       id="path650" />
    <path
       style="fill:#00a050;fill-opacity:1"
       d="M 4,15.5 V 15 H 4.5 5 v 0.5 Q 5,16 5.125,16.375 5.25,16.75 5.5,16.75 q 0.25,0 0.4375,-0.4375 L 6.125,15.875 6.0625,15.8125 6,15.75 6.125,15.875 Q 6.25,16 6.5,16 H 6.75 6.375 6 6.5 7 V 16.5 17 L 6.625,17.125 Q 6.25,17.25 6,17.5 5.75,17.75 5.5,18 5.25,18.25 5,18.5 4.75,18.75 4.5,19 4.25,19.25 4,19.5 3.75,19.75 3.5,20 q -0.25,0.25 -0.25,0.5 0,0.25 0.375,0.375 L 4,21 v 0.46875 0.46875 H 4.09375 4.1875 4 q -0.1875,0 -0.375,-0.0625 L 3.4375,21.8125 3.71875,21.90625 4,22 3.625,21.875 Q 3.25,21.75 3,21.5 2.75,21.25 2.5,21 2.25,20.75 2.125,20.375 2,20 2,19.5 V 19 19.375 19.75 19.5 Q 2,19.25 2.03125,19.03125 L 2.0625,18.8125 2.046875,18.921875 2.03125,19.03125 2.390625,18.890625 Q 2.75,18.75 2.875,18.375 L 3,18 3.375,17.875 Q 3.75,17.75 3.875,17.375 4,17 4,16.5 4,16 4,15.5 m 3,1.625 V 17 16.625 16.25 16.5 q 0,0.25 0,0.5 v 0.25 -0.125 M 7.125,16 H 7 6.625 6.25 6.5 Q 6.75,16 7,16 H 7.25 7.125 M 5,15.375 V 15 14.875 14.75 15 q 0,0.25 0,0.5 v 0.25 -0.375 m -1,-0.5 V 15 15.375 15.75 15.5 Q 4,15.25 4,15 v -0.25 0.125"
       id="path652" />
    <path
       style="fill:#006030;fill-opacity:1"
       d="M 8,15.5 V 15 15.375 15.75 15.5 Q 8,15.25 7.96875,15.03125 L 7.9375,14.8125 7.953125,14.921875 7.96875,15.03125 8.359375,15.140625 Q 8.75,15.25 9,15.5 9.25,15.75 9.625,15.875 L 10,16 v 0.5 q 0,0.5 0,1 V 18 H 9.5 9 V 17.5 Q 9,17 8.875,16.625 8.75,16.25 8.375,16.125 L 8,16 V 15.5 M 10.09375,16.03125 10,16 9.71875,15.90625 9.4375,15.8125 9.625,15.875 Q 9.8125,15.9375 10,16 l 0.1875,0.0625 -0.09375,-0.03125"
       id="path654" />
    <path
       style="fill:#808040;fill-opacity:1"
       d="M 19,15.5 V 15 h 0.5 q 0.5,0 1,0 H 21 v 0.5 0.5 h -0.5 q -0.5,0 -1,0 H 19 v -0.5 m 0,0.125 V 16 16.125 16.25 16 q 0,-0.25 0,-0.5 v -0.25 0.375 m 2,0.5 V 16 15.625 15.25 15.5 q 0,0.25 0,0.5 v 0.25 -0.125 m -2,-1.25 V 15 15.375 15.75 15.5 q 0,-0.25 0,-0.5 v -0.25 0.125"
       id="path656" />
    <path
       style="fill:#008040;fill-opacity:1"
       d="M 21,15.5 V 15 l 0.515625,-0.01563 0.515625,-0.01563 -0.01563,-0.109375 L 22,14.75 22.03125,14.96875 Q 22.0625,15.1875 22.125,15.375 L 22.1875,15.5625 22.09375,15.28125 22,15 22.125,15.375 Q 22.25,15.75 22.5,16 q 0.25,0.25 0.375,0.625 0.125,0.375 0,0.75 Q 22.75,17.75 22.5,18 22.25,18.25 22.125,18.625 L 22,19 22.09375,18.71875 22.1875,18.4375 22.125,18.625 q -0.0625,0.1875 -0.09375,0.40625 L 22,19.25 22.015625,19.140625 22.03125,19.03125 21.515625,19.015625 21,19 v -0.5 q 0,-0.5 0,-1 0,-0.5 0,-1 0,-0.5 0,-1"
       id="path658" />
    <path
       style="fill:#008040;fill-opacity:1"
       d="m 3.125,16.625 q 0.125,-0.375 0.5,-0.5 L 4,16 V 16.5 17 16.625 16.25 16.5 q 0,0.25 -0.03125,0.46875 L 3.9375,17.1875 3.953125,17.078125 3.96875,16.96875 3.5,17 3.03125,17.03125 3.015625,17.140625 3,17.25 3.03125,17.03125 Q 3.0625,16.8125 3.125,16.625 L 3.1875,16.4375 3.09375,16.71875 3,17 3.125,16.625 M 4,16.375 V 16 15.875 15.75 16 q 0,0.25 0,0.5 v 0.25 -0.375"
       id="path660" />
    <path
       style="fill:#004020;fill-opacity:1"
       d="M 7,16.5 V 16 H 7.5 8 l 0.125,0.375 Q 8.25,16.75 8.609375,16.890625 L 8.96875,17.03125 8.953125,16.921875 8.9375,16.8125 8.96875,17.03125 Q 9,17.25 9,17.5 V 17.75 17.375 17 17.5 18 L 8.625,18.125 Q 8.25,18.25 8,18.5 7.75,18.75 7.5,19 7.25,19.25 7,19.5 6.75,19.75 6.375,19.875 L 6,20 V 19.5 19 L 6.375,18.875 Q 6.75,18.75 6.875,18.375 7,18 7,17.5 7,17 7,16.5 M 7.375,16 H 7 6.875 6.75 7 q 0.25,0 0.5,0 H 7.75 7.375"
       id="path662" />
    <path
       style="fill:#008040;fill-opacity:1"
       d="M 8.125,16.375 8,16 8.375,16.125 q 0.375,0.125 0.5,0.5 L 9,17 8.90625,16.71875 8.8125,16.4375 8.875,16.625 q 0.0625,0.1875 0.09375,0.40625 L 9,17.25 8.984375,17.140625 8.96875,17.03125 8.609375,16.890625 Q 8.25,16.75 8.125,16.375"
       id="path664" />
    <path
       style="fill:#00a050;fill-opacity:1"
       d="M 10,16.5 V 16 l 0.375,0.125 q 0.375,0.125 0.5,0.5 L 11,17 H 10.5 10 v -0.5 m 0,0.125 V 17 17.125 17.25 17 q 0,-0.25 0,-0.5 v -0.25 0.375 M 11.03125,17.09375 11,17 10.90625,16.71875 10.8125,16.4375 10.875,16.625 Q 10.9375,16.8125 11,17 l 0.0625,0.1875 -0.03125,-0.09375 m -0.75,-1 L 10,16 9.90625,15.96875 9.8125,15.9375 10,16 q 0.1875,0.0625 0.375,0.125 l 0.1875,0.0625 -0.28125,-0.09375"
       id="path666" />
    <path
       style="fill:#00a050;fill-opacity:1"
       d="M 12,16.5 V 16 l 0.375,0.125 Q 12.75,16.25 13,16.5 q 0.25,0.25 0.625,0.375 L 14,17 13.875,17.375 Q 13.75,17.75 13.5,17.75 13.25,17.75 13,17.5 12.75,17.25 12.359375,17.109375 L 11.96875,16.96875 11.953125,17.078125 11.9375,17.1875 11.96875,16.96875 Q 12,16.75 12,16.5 V 16.25 16.625 17 16.5 M 14.09375,17.03125 14,17 13.71875,16.90625 13.4375,16.8125 13.625,16.875 Q 13.8125,16.9375 14,17 l 0.1875,0.0625 -0.09375,-0.03125 M 12.28125,16.09375 12,16 11.90625,15.96875 11.8125,15.9375 12,16 q 0.1875,0.0625 0.375,0.125 l 0.1875,0.0625 -0.28125,-0.09375"
       id="path668" />
    <path
       style="fill:#006030;fill-opacity:1"
       d="M 19,16.5 V 16 h 0.5 0.5 l -0.125,0.375 q -0.125,0.375 -0.5,0.5 L 19,17 V 16.5 M 20.125,16 H 20 19.625 19.25 19.5 q 0.25,0 0.5,0 h 0.25 -0.125 M 19,15.875 V 16 16.375 16.75 16.5 q 0,-0.25 0,-0.5 v -0.25 0.125"
       id="path670" />
    <path
       style="fill:#606030;fill-opacity:1"
       d="M 19.875,16.375 20,16 h 0.5 0.5 v 0.5 q 0,0.5 0,1 V 18 l -0.375,0.125 Q 20.25,18.25 20.25,18.5 q 0,0.25 0.375,0.375 L 21,19 20.875,19.375 q -0.125,0.375 -0.5,0.5 L 20,20 19.875,19.625 q -0.125,-0.375 -0.5,-0.5 L 19,19 v -0.5 q 0,-0.5 0,-1 V 17 l 0.375,-0.125 q 0.375,-0.125 0.5,-0.5 M 19,18.625 V 19 19.125 19.25 19 q 0,-0.25 0,-0.5 v -0.25 0.375 m 2,-0.5 V 18 17.625 17.25 17.5 q 0,0.25 0,0.5 v 0.25 -0.125 m 0,-1.75 V 16 15.875 15.75 16 q 0,0.25 0,0.5 v 0.25 -0.375 M 20.375,16 H 20 19.875 19.75 20 q 0.25,0 0.5,0 h 0.25 -0.375"
       id="path672" />
    <path
       style="fill:#00c060;fill-opacity:1"
       d="M 3,17.5 V 17 17.375 17.75 17.5 Q 3,17.25 3.03125,17.03125 L 3.0625,16.8125 3.046875,16.921875 3.03125,17.03125 3.5,17 3.96875,16.96875 3.984375,16.859375 4,16.75 3.96875,16.96875 Q 3.9375,17.1875 3.875,17.375 L 3.8125,17.5625 3.90625,17.28125 4,17 3.875,17.375 q -0.125,0.375 -0.5,0.5 L 3,18 v -0.5"
       id="path674" />
    <path
       style="fill:#001818;fill-opacity:1"
       d="M 6,17.5 Q 6.25,17.25 6.625,17.125 L 7,17 V 17.5 18 17.625 17.25 17.5 q 0,0.25 -0.03125,0.46875 L 6.9375,18.1875 6.953125,18.078125 6.96875,17.96875 6.609375,18.109375 Q 6.25,18.25 6.125,18.625 L 6,19 5.625,19.125 Q 5.25,19.25 5,19.5 4.75,19.75 4.5,20 4.25,20.25 4.125,20.625 L 4,21 3.625,20.875 Q 3.25,20.75 3.25,20.5 3.25,20.25 3.5,20 3.75,19.75 4,19.5 4.25,19.25 4.5,19 4.75,18.75 5,18.5 5.25,18.25 5.5,18 5.75,17.75 6,17.5 M 7,17.375 V 17 16.875 16.75 17 q 0,0.25 0,0.5 v 0.25 -0.375"
       id="path676" />
    <path
       style="fill:#008040;fill-opacity:1"
       d="M 10,17.5 V 17 h 0.5 0.5 l 0.125,0.375 q 0.125,0.375 0.375,0.375 0.25,0 0.375,-0.375 L 12,17 11.90625,17.28125 11.8125,17.5625 11.875,17.375 q 0.0625,-0.1875 0.09375,-0.40625 L 12,16.75 l -0.01563,0.109375 -0.01563,0.109375 0.390625,0.140625 Q 12.75,17.25 13,17.5 q 0.25,0.25 0.5,0.25 0.25,0 0.375,-0.375 L 14,17 l 0.375,0.125 q 0.375,0.125 0.5,0.5 L 15,18 14.625,18.125 Q 14.25,18.25 14.140625,18.609375 L 14.03125,18.96875 14.140625,18.984375 14.25,19 14.03125,18.96875 Q 13.8125,18.9375 13.625,18.875 L 13.4375,18.8125 13.71875,18.90625 14,19 13.625,18.875 Q 13.25,18.75 13,18.5 q -0.25,-0.25 -0.5,-0.25 -0.25,0 -0.375,0.375 L 12,19 H 11.5 11 11.375 11.75 11.5 q -0.25,0 -0.46875,-0.03125 l -0.21875,-0.03125 0.109375,0.01563 0.109375,0.01563 -0.140625,-0.359375 Q 10.75,18.25 10.375,18.125 L 10,18 V 17.5 M 14.28125,17.09375 14,17 13.90625,16.96875 13.8125,16.9375 14,17 q 0.1875,0.0625 0.375,0.125 l 0.1875,0.0625 -0.28125,-0.09375 m -3.1875,0.1875 L 11,17 10.96875,16.90625 10.9375,16.8125 11,17 q 0.0625,0.1875 0.125,0.375 l 0.0625,0.1875 -0.09375,-0.28125 M 10,16.875 V 17 17.375 17.75 17.5 q 0,-0.25 0,-0.5 v -0.25 0.125"
       id="path678" />
    <path
       style="fill:#004020;fill-opacity:1"
       d="m 18,17.5 q 0.25,-0.25 0.625,-0.375 L 19,17 v 0.5 q 0,0.5 0,1 0,0.5 0.01563,1.015625 l 0.01563,0.515625 0.109375,-0.01563 L 19.25,20 19.03125,20.03125 Q 18.8125,20.0625 18.625,20.125 L 18.4375,20.1875 18.71875,20.09375 19,20 18.625,20.125 q -0.375,0.125 -0.5,0.5 L 18,21 H 17.5 17 l -0.125,-0.375 q -0.125,-0.375 -0.5,-0.5 L 16,20 16.28125,20.09375 16.5625,20.1875 16.375,20.125 Q 16.1875,20.0625 15.96875,20.03125 L 15.75,20 l 0.109375,0.01563 0.109375,0.01563 V 19.5 18.96875 L 15.859375,18.984375 15.75,19 15.96875,18.96875 Q 16.1875,18.9375 16.375,18.875 L 16.5625,18.8125 16.28125,18.90625 16,19 16.375,18.875 Q 16.75,18.75 16.859375,18.359375 L 16.96875,17.96875 16.859375,17.984375 16.75,18 16.96875,17.96875 Q 17.1875,17.9375 17.375,17.875 L 17.5625,17.8125 17.28125,17.90625 17,18 17.375,17.875 Q 17.75,17.75 18,17.5 M 16.90625,20.71875 17,21 17.03125,21.09375 17.0625,21.1875 17,21 q -0.0625,-0.1875 -0.125,-0.375 l -0.0625,-0.1875 0.09375,0.28125 M 17.625,21 H 18 18.125 18.25 18 q -0.25,0 -0.5,0 h -0.25 0.375"
       id="path680" />
    <path
       style="fill:#006030;fill-opacity:1"
       d="m 2.125,18.625 q 0.125,-0.375 0.5,-0.5 L 3,18 2.875,18.375 Q 2.75,18.75 2.390625,18.890625 L 2.03125,19.03125 2.015625,19.140625 2,19.25 2.03125,19.03125 Q 2.0625,18.8125 2.125,18.625 L 2.1875,18.4375 2.09375,18.71875 2,19 2.125,18.625"
       id="path682" />
    <path
       style="fill:#006030;fill-opacity:1"
       d="M 6.125,18.625 Q 6.25,18.25 6.609375,18.109375 L 6.96875,17.96875 6.984375,17.859375 7,17.75 6.96875,17.96875 Q 6.9375,18.1875 6.875,18.375 L 6.8125,18.5625 6.90625,18.28125 7,18 6.875,18.375 q -0.125,0.375 -0.5,0.5 L 6,19 6.125,18.625"
       id="path684" />
    <path
       style="fill:#606030;fill-opacity:1"
       d="M 9.125,18.375 9,18 H 9.5 10 l 0.125,0.375 q 0.125,0.375 0.5,0.5 Q 11,19 11.5,19 H 12 V 19.5 20 H 11.5 Q 11,20 10.625,19.875 10.25,19.75 10,19.5 9.75,19.25 9.5,19 9.25,18.75 9.125,18.375 M 11.625,20 H 12 12.125 12.25 12 q -0.25,0 -0.5,0 h -0.25 0.375"
       id="path686" />
    <path
       style="fill:#004020;fill-opacity:1"
       d="M 10.125,18.375 10,18 l 0.375,0.125 q 0.375,0.125 0.515625,0.484375 l 0.140625,0.359375 0.109375,0.01563 L 11.25,19 11.03125,18.96875 Q 10.8125,18.9375 10.625,18.875 L 10.4375,18.8125 10.71875,18.90625 11,19 10.625,18.875 q -0.375,-0.125 -0.5,-0.5"
       id="path688" />
    <path
       style="fill:#006030;fill-opacity:1"
       d="M 12.125,18.625 Q 12.25,18.25 12.5,18.25 q 0.25,0 0.5,0.25 0.25,0.25 0.625,0.375 Q 14,19 14.5,19 q 0.5,0 1,0 H 16 15.625 15.25 15.5 q 0.25,0 0.46875,-0.03125 l 0.21875,-0.03125 -0.109375,0.01563 -0.109375,0.01563 V 19.5 20.03125 l 0.109375,0.01563 0.109375,0.01563 -0.21875,-0.03125 Q 15.75,20 15.5,20 H 15.25 15.625 16 15.5 q -0.5,0 -1,0 -0.5,0 -1,0 H 13 l -0.125,-0.375 q -0.125,-0.375 -0.5,-0.5 L 12,19 12.125,18.625"
       id="path690" />
    <path
       style="fill:#00c060;fill-opacity:1"
       d="M 14.140625,18.609375 Q 14.25,18.25 14.625,18.125 L 15,18 V 18.5 19 H 14.5 14 14.375 14.75 14.5 q -0.25,0 -0.46875,-0.03125 l -0.21875,-0.03125 0.109375,0.01563 0.109375,0.01563 0.109375,-0.359375 M 14.625,19 H 15 15.125 15.25 15 q -0.25,0 -0.5,0 h -0.25 0.375"
       id="path692" />
    <path
       style="fill:#00a050;fill-opacity:1"
       d="M 15,18.5 V 18 h 0.5 q 0.5,0 1,0 H 17 16.625 16.25 16.5 q 0.25,0 0.46875,-0.03125 l 0.21875,-0.03125 -0.109375,0.01563 -0.109375,0.01563 -0.109375,0.390625 Q 16.75,18.75 16.375,18.875 16,19 15.5,19 H 15 V 18.5 M 14.875,19 H 15 15.375 15.75 15.5 q -0.25,0 -0.5,0 h -0.25 0.125"
       id="path694" />
    <path
       style="fill:#808040;fill-opacity:1"
       d="m 20.25,18.5 q 0,-0.25 0.375,-0.375 L 21,18 V 18.5 19 L 20.625,18.875 Q 20.25,18.75 20.25,18.5 M 21,18.375 V 18 17.875 17.75 18 q 0,0.25 0,0.5 v 0.25 -0.375"
       id="path696" />
    <path
       style="fill:#c06060;fill-opacity:1"
       d="M 24,18.5 V 18 l 0.375,0.125 q 0.375,0.125 0.5,0.5 Q 25,19 25.125,19.375 25.25,19.75 25.5,20 q 0.25,0.25 0.375,0.625 L 26,21 25.90625,20.71875 25.8125,20.4375 25.875,20.625 Q 25.9375,20.8125 25.9375,21 V 21.1875 21.09375 21 h -0.5 -0.5 V 21.09375 21.1875 21 q 0,-0.1875 -0.0625,-0.375 L 24.8125,20.4375 24.90625,20.71875 25,21 24.875,20.625 Q 24.75,20.25 24.5,20 24.25,19.75 24.078125,19.328125 l -0.171875,-0.421875 -0.04687,0.07813 -0.04687,0.07813 0.09375,-0.15625 Q 24,18.75 24,18.5 V 18.25 18.625 19 18.5 m 0,-0.625 V 18 18.375 18.75 18.5 q 0,-0.25 0,-0.5 v -0.25 0.125"
       id="path698" />
    <path
       style="fill:#003018;fill-opacity:1"
       d="M 5,19.5 Q 5.25,19.25 5.625,19.125 L 6,19 V 19.5 20 L 5.625,20.125 Q 5.25,20.25 5,20.5 4.75,20.75 4.375,20.875 L 4,21 4.125,20.625 Q 4.25,20.25 4.5,20 4.75,19.75 5,19.5"
       id="path700" />
    <path
       style="fill:#808040;fill-opacity:1"
       d="M 12,19.5 V 19 l 0.375,0.125 q 0.375,0.125 0.5,0.5 L 13,20 H 12.5 12 V 19.5 M 11.875,20 H 12 12.375 12.75 12.5 q -0.25,0 -0.5,0 h -0.25 0.125"
       id="path702" />
    <path
       style="fill:#001818;fill-opacity:1"
       d="M 19.015625,19.515625 19,19 l 0.375,0.125 q 0.375,0.125 0.5,0.5 L 20,20 H 19.5 19 19.375 19.75 19.5 q -0.25,0 -0.46875,0.03125 l -0.21875,0.03125 0.109375,-0.01563 0.109375,-0.01563 -0.01563,-0.515625 M 19,18.875 V 19 19.375 19.75 19.5 q 0,-0.25 0,-0.5 v -0.25 0.125"
       id="path704" />
    <path
       style="fill:#404020;fill-opacity:1"
       d="M 20.875,19.375 21,19 l 0.515625,0.01563 0.515625,0.01563 0.01563,-0.109375 0.01563,-0.109375 -0.03125,0.21875 Q 22,19.25 22,19.5 V 19.75 19.375 19 19.5 20 l -0.375,0.125 q -0.375,0.125 -0.5,0.5 Q 21,21 20.984375,21.515625 l -0.01563,0.515625 0.109375,0.01563 0.109375,0.01563 -0.21875,-0.03125 Q 20.75,22 20.5,22 H 20.25 20.625 21 20.5 20 v -0.5 q 0,-0.5 0,-1 V 20 l 0.375,-0.125 q 0.375,-0.125 0.5,-0.5"
       id="path706" />
    <path
       style="fill:#a05050;fill-opacity:1"
       d="m 23.125,19.625 q 0.125,-0.375 0.5,-0.5 L 24,19 23.71875,19.09375 23.4375,19.1875 23.625,19.125 q 0.1875,-0.0625 0.28125,-0.21875 L 24,18.75 l -0.04687,0.07813 -0.04687,0.07813 0.171875,0.421875 Q 24.25,19.75 24.5,20 q 0.25,0.25 0.375,0.625 0.125,0.375 0,0.75 Q 24.75,21.75 24.5,21.75 24.25,21.75 24,21.5 23.75,21.25 23.375,21.125 L 23,21 v -0.5 q 0,-0.5 0.125,-0.875 m -0.125,1 V 21 21.125 21.25 21 q 0,-0.25 0,-0.5 v -0.25 0.375"
       id="path708" />
    <path
       style="fill:#006030;fill-opacity:1"
       d="M 5,20.5 Q 5.25,20.25 5.625,20.125 L 6,20 5.875,20.375 Q 5.75,20.75 5.5,21 5.25,21.25 5,21.5 4.75,21.75 4.375,21.875 L 4,22 4.28125,21.90625 4.5625,21.8125 4.375,21.875 Q 4.1875,21.9375 4,21.9375 H 3.8125 3.90625 4 V 21.46875 21 L 4.375,20.875 Q 4.75,20.75 5,20.5"
       id="path710" />
    <path
       style="fill:#606030;fill-opacity:1"
       d="M 13.125,20.375 13,20 h 0.5 q 0.5,0 1,0 0.5,0 1,0 0.5,0 0.875,0.125 0.375,0.125 0.5,0.5 0.125,0.375 0.25,0.75 0.125,0.375 0.5,0.5 Q 18,22 18.5,22 q 0.5,0 1,0 H 20 v 0.5 0.5 h -0.5 q -0.5,0 -1,0 -0.5,0 -1,0 H 17 L 16.875,22.625 Q 16.75,22.25 16.375,22.125 16,22 15.5,22 H 15 15.375 15.75 15.5 q -0.25,0 -0.46875,-0.03125 l -0.21875,-0.03125 0.109375,0.01563 0.109375,0.01563 -0.140625,-0.359375 Q 14.75,21.25 14.375,21.125 14,21 13.625,20.875 q -0.375,-0.125 -0.5,-0.5"
       id="path712" />
    <path
       style="fill:#008040;fill-opacity:1"
       d="m 18.125,20.625 q 0.125,-0.375 0.5,-0.5 Q 19,20 19.5,20 H 20 v 0.5 0.5 h -0.5 q -0.5,0 -1,0 H 18 l 0.125,-0.375 M 17.875,21 H 18 18.375 18.75 18.5 q -0.25,0 -0.5,0 h -0.25 0.125 M 20,21.125 V 21 20.625 20.25 20.5 q 0,0.25 0,0.5 v 0.25 -0.125"
       id="path714" />
    <path
       style="fill:#004020;fill-opacity:1"
       d="m 21.125,20.625 q 0.125,-0.375 0.5,-0.5 L 22,20 21.875,20.375 Q 21.75,20.75 21.390625,20.890625 L 21.03125,21.03125 21.015625,21.140625 21,21.25 21.03125,21.03125 Q 21.0625,20.8125 21.125,20.625 L 21.1875,20.4375 21.09375,20.71875 21,21 21.125,20.625"
       id="path716" />
    <path
       style="fill:#008040;fill-opacity:1"
       d="M 21.875,20.375 22,20 l 0.515625,0.01563 0.515625,0.01563 0.01563,-0.109375 0.01563,-0.109375 -0.03125,0.21875 Q 23,20.25 23,20.5 V 20.75 20.375 20 20.5 q 0,0.5 0,1 0,0.5 -0.125,0.875 Q 22.75,22.75 22.5,22.75 22.25,22.75 22,22.5 21.75,22.25 21.375,22.125 L 21,22 21.28125,22.09375 21.5625,22.1875 21.375,22.125 Q 21.1875,22.0625 20.96875,22.03125 L 20.75,22 l 0.109375,0.01563 0.109375,0.01563 0.01563,-0.515625 L 21,21 v 0.375 0.375 -0.25 q 0,-0.25 0.03125,-0.46875 l 0.03125,-0.21875 -0.01563,0.109375 -0.01563,0.109375 0.359375,-0.140625 Q 21.75,20.75 21.875,20.375"
       id="path718" />
    <path
       style="fill:#006030;fill-opacity:1"
       d="M 14.125,21.375 14,21 l 0.375,0.125 q 0.375,0.125 0.515625,0.484375 l 0.140625,0.359375 0.109375,0.01563 L 15.25,22 15.03125,21.96875 Q 14.8125,21.9375 14.625,21.875 L 14.4375,21.8125 14.71875,21.90625 15,22 14.625,21.875 q -0.375,-0.125 -0.5,-0.5 M 14.28125,21.09375 14,21 13.90625,20.96875 13.8125,20.9375 14,21 q 0.1875,0.0625 0.375,0.125 l 0.1875,0.0625 -0.28125,-0.09375"
       id="path720" />
    <path
       style="fill:#808040;fill-opacity:1"
       d="M 17.125,21.375 17,21 h 0.5 q 0.5,0 1,0 0.5,0 1,0 H 20 v 0.5 0.5 h -0.5 q -0.5,0 -1,0 -0.5,0 -0.875,-0.125 -0.375,-0.125 -0.5,-0.5 m 2.875,0 V 21 20.875 20.75 21 q 0,0.25 0,0.5 v 0.25 -0.375 M 16.96875,20.90625 17,21 17.09375,21.28125 17.1875,21.5625 17.125,21.375 Q 17.0625,21.1875 17,21 l -0.0625,-0.1875 0.03125,0.09375"
       id="path722" />
    <path
       style="fill:#006030;fill-opacity:1"
       d="M 23,21.5 V 21 l 0.375,0.125 Q 23.75,21.25 24,21.5 q 0.25,0.25 0.5,0.25 0.25,0 0.375,-0.375 L 25,21 24.90625,21.28125 24.8125,21.5625 24.875,21.375 Q 24.9375,21.1875 24.9375,21 V 20.8125 20.90625 21 h 0.5 0.5 V 20.90625 20.8125 21 q 0,0.1875 -0.0625,0.375 L 25.8125,21.5625 25.90625,21.28125 26,21 25.875,21.375 Q 25.75,21.75 25.5,22 25.25,22.25 25,22.5 24.75,22.75 24.5,23 24.25,23.25 24,23.5 23.75,23.75 23.375,23.875 23,24 22.625,23.875 22.25,23.75 22,23.5 21.75,23.25 21.375,23.125 21,23 20.5,23 H 20 V 22.5 22 h 0.5 q 0.5,0 0.875,0.125 0.375,0.125 0.625,0.375 0.25,0.25 0.5,0.25 0.25,0 0.375,-0.375 Q 23,22 23,21.5 m 0,-0.625 V 21 21.375 21.75 21.5 q 0,-0.25 0,-0.5 v -0.25 0.125"
       id="path724" />
    <path
       style="fill:#006030;fill-opacity:1"
       d="M 15.984375,22.515625 15.96875,22.03125 15.859375,22.015625 15.75,22 15.96875,22.03125 Q 16.1875,22.0625 16.375,22.125 L 16.5625,22.1875 16.28125,22.09375 16,22 l 0.375,0.125 q 0.375,0.125 0.5,0.5 L 17,23 16.484375,22.984375 15.96875,22.96875 15.953125,23.078125 15.9375,23.1875 15.96875,22.96875 Q 16,22.75 16,22.5 V 22.25 22.625 23 l -0.01563,-0.484375"
       id="path726" />
    <path
       style="fill:#000000;fill-opacity:1"
       d="m 28,22.5 q 0,-0.5 0.5,-0.5 0.5,0 1,0 0.5,0 1,0 0.5,0 0.5,0.5 0,0.5 0.5,0.5 H 32 V 23.5 24 24.5 25 25.5 26 H 31.5 Q 31,26 31,26.5 31,27 31,27.5 31,28 30.5,28 30,28 30,28.5 V 29 L 29.625,28.875 Q 29.25,28.75 29,28.5 28.75,28.25 28.375,28.125 28,28 27.5,28 27,28 26.5,28 H 26 l -0.125,-0.375 q -0.125,-0.375 -0.5,-0.5 L 25,27 24.875,26.625 q -0.125,-0.375 -0.5,-0.5 L 24,26 23.875,25.625 Q 23.75,25.25 23.359375,25.109375 L 22.96875,24.96875 22.953125,25.078125 22.9375,25.1875 22.96875,24.96875 Q 23,24.75 23,24.5 V 24.25 24.625 25 24.46875 23.9375 H 22.90625 22.8125 23 q 0.1875,0 0.375,-0.0625 L 23.5625,23.8125 23.28125,23.90625 23,24 23.375,23.875 23.75,23.75 23.46875,23.84375 23.1875,23.9375 23.375,23.875 q 0.1875,-0.0625 0.34375,-0.15625 L 23.875,23.625 l -0.07813,0.04687 -0.07813,0.04687 0.265625,0.265625 Q 24.25,24.25 24.625,24.125 25,24 25.5,24 26,24 26,23.5 26,23 26.5,23 q 0.5,0 1,0 0.5,0 0.5,-0.5 M 24.90625,26.96875 25,27 25.28125,27.09375 25.5625,27.1875 25.375,27.125 Q 25.1875,27.0625 25,27 l -0.1875,-0.0625 0.09375,0.03125 M 25.875,28 H 26 26.375 26.75 26.5 q -0.25,0 -0.5,0 h -0.25 0.125"
       id="path728" />
    <path
       style="fill:#008040;fill-opacity:1"
       d="M 15.875,23.375 16,23 15.90625,23.28125 15.8125,23.5625 15.875,23.375 q 0.0625,-0.1875 0.09375,-0.40625 L 16,22.75 l -0.01563,0.109375 -0.01563,0.109375 0.515625,0.01563 L 17,23 v 0.5 q 0,0.5 0.01563,1.015625 l 0.01563,0.515625 0.109375,-0.01563 L 17.25,25 17.03125,25.03125 Q 16.8125,25.0625 16.625,25.125 L 16.4375,25.1875 16.71875,25.09375 17,25 16.625,25.125 Q 16.25,25.25 16.25,25.5 q 0,0.25 0.375,0.375 L 17,26 16.71875,25.90625 16.4375,25.8125 16.625,25.875 q 0.1875,0.0625 0.40625,0.09375 L 17.25,26 17.140625,25.984375 17.03125,25.96875 17.015625,26.484375 Q 17,27 17,27.5 V 28 27.625 27.25 27.5 q 0,0.25 0.03125,0.46875 l 0.03125,0.21875 -0.01563,-0.109375 -0.01563,-0.109375 -0.390625,0.140625 Q 16.25,28.25 16,28.5 15.75,28.75 15.375,28.875 15,29 14.5,29 H 14 14.375 14.75 14.5 q -0.25,0 -0.46875,0.03125 l -0.21875,0.03125 0.109375,-0.01563 0.109375,-0.01563 0.109375,-0.390625 Q 14.25,28.25 14.625,28.125 15,28 15.375,27.875 15.75,27.75 15.875,27.375 16,27 15.875,26.625 15.75,26.25 15.5,26 15.25,25.75 15.125,25.375 15,25 15.125,24.625 15.25,24.25 15.5,24 q 0.25,-0.25 0.375,-0.625"
       id="path730" />
    <path
       style="fill:#808040;fill-opacity:1"
       d="M 17,23.5 V 23 h 0.5 q 0.5,0 1,0 0.5,0 1,0 H 20 v 0.5 0.5 h -0.5 q -0.5,0 -1,0 -0.5,0 -1,0 H 17 v -0.5 m 0,0.125 V 24 24.125 24.25 24 q 0,-0.25 0,-0.5 v -0.25 0.375"
       id="path732" />
    <path
       style="fill:#008040;fill-opacity:1"
       d="M 20,23.5 V 23 h 0.5 q 0.5,0 0.875,0.125 0.375,0.125 0.625,0.375 0.25,0.25 0.625,0.375 L 23,24 22.71875,23.90625 22.4375,23.8125 22.625,23.875 Q 22.8125,23.9375 23,23.9375 H 23.1875 23.09375 23 v 0.53125 Q 23,25 22.875,25.375 22.75,25.75 22.375,25.875 22,26 21.5,26 H 21 V 25.5 25 l 0.375,-0.125 Q 21.75,24.75 21.75,24.5 21.75,24.25 21.375,24.125 21,24 20.5,24 H 20 v -0.5"
       id="path734" />
    <path
       style="fill:#606030;fill-opacity:1"
       d="M 17.015625,24.515625 17,24 h 0.5 q 0.5,0 1,0 0.5,0 1,0 H 20 v 0.5 0.5 h -0.5 q -0.5,0 -1,0 -0.5,0 -1,0 H 17 17.375 17.75 17.5 q -0.25,0 -0.46875,0.03125 l -0.21875,0.03125 0.109375,-0.01563 0.109375,-0.01563 -0.01563,-0.515625 M 19.625,25 H 20 20.125 20.25 20 q -0.25,0 -0.5,0 h -0.25 0.375 M 17,23.875 V 24 24.375 24.75 24.5 q 0,-0.25 0,-0.5 v -0.25 0.125"
       id="path736" />
    <path
       style="fill:#006030;fill-opacity:1"
       d="M 20,24.5 V 24 H 20.5 21 20.625 20.25 20.5 q 0.25,0 0.46875,0.03125 l 0.21875,0.03125 -0.109375,-0.01563 -0.109375,-0.01563 0.01563,0.484375 L 21,25 H 20.5 20 V 24.5 M 19.875,25 H 20 20.375 20.75 20.5 q -0.25,0 -0.5,0 h -0.25 0.125"
       id="path738" />
    <path
       style="fill:#00a050;fill-opacity:1"
       d="M 20.984375,24.515625 20.96875,24.03125 20.859375,24.015625 20.75,24 20.96875,24.03125 Q 21.1875,24.0625 21.375,24.125 L 21.5625,24.1875 21.28125,24.09375 21,24 l 0.375,0.125 q 0.375,0.125 0.375,0.375 0,0.25 -0.375,0.375 L 21,25 20.984375,24.515625"
       id="path740" />
    <path
       style="fill:#006030;fill-opacity:1"
       d="m 16.25,25.5 q 0,-0.25 0.375,-0.375 Q 17,25 17.5,25 H 18 V 25.5 26 H 17.5 Q 17,26 16.625,25.875 16.25,25.75 16.25,25.5 M 18.125,25 H 18 17.625 17.25 17.5 q 0.25,0 0.5,0 h 0.25 -0.125"
       id="path742" />
    <path
       style="fill:#808040;fill-opacity:1"
       d="M 18,25.5 V 25 h 0.5 q 0.5,0 1,0 0.5,0 1,0 H 21 v 0.5 0.5 h -0.5 q -0.5,0 -1,0 -0.5,0 -1,0 H 18 V 25.5 M 18.375,25 H 18 17.875 17.75 18 q 0.25,0 0.5,0 h 0.25 -0.375"
       id="path744" />
    <path
       style="fill:#00a050;fill-opacity:1"
       d="M 22.875,25.375 23,25 22.90625,25.28125 22.8125,25.5625 22.875,25.375 q 0.0625,-0.1875 0.09375,-0.40625 L 23,24.75 l -0.01563,0.109375 -0.01563,0.109375 0.390625,0.140625 Q 23.75,25.25 23.875,25.625 L 24,26 23.625,26.125 Q 23.25,26.25 23.25,26.5 q 0,0.25 0.25,0.5 0.25,0.25 0.5,0.5 0.25,0.25 0.625,0.375 L 25,28 24.71875,27.90625 24.4375,27.8125 24.625,27.875 q 0.1875,0.0625 0.40625,0.09375 L 25.25,28 25.140625,27.984375 25.03125,27.96875 25.015625,28.484375 25,29 H 24.5 24 l -0.125,-0.375 q -0.125,-0.375 -0.5,-0.5 L 23,28 22.875,27.625 Q 22.75,27.25 22.375,27.125 22,27 21.5,27 H 21 V 26.5 26 h 0.5 q 0.5,0 0.875,-0.125 0.375,-0.125 0.5,-0.5 M 24.625,29 H 25 25.125 25.25 25 q -0.25,0 -0.5,0 h -0.25 0.375"
       id="path746" />
    <path
       style="fill:#003018;fill-opacity:1"
       d="M 17.015625,26.484375 17.03125,25.96875 16.921875,25.953125 16.8125,25.9375 17.03125,25.96875 Q 17.25,26 17.5,26 H 17.75 17.375 17 17.5 18 V 26.5 27 H 17.5 17 l 0.01563,-0.515625 M 17,26.625 V 27 27.125 27.25 27 q 0,-0.25 0,-0.5 v -0.25 0.375"
       id="path748" />
    <path
       style="fill:#004020;fill-opacity:1"
       d="M 18,26.5 V 26 H 18.5 19 V 26.5 27 H 18.5 18 V 26.5 M 19.125,26 H 19 18.625 18.25 18.5 q 0.25,0 0.5,0 h 0.25 -0.125"
       id="path750" />
    <path
       style="fill:#404020;fill-opacity:1"
       d="M 19,26.5 V 26 h 0.5 q 0.5,0 1,0 H 21 v 0.5 0.5 h -0.5 q -0.5,0 -1,0 H 19 V 26.5 M 19.375,26 H 19 18.875 18.75 19 q 0.25,0 0.5,0 h 0.25 -0.375"
       id="path752" />
    <path
       style="fill:#006030;fill-opacity:1"
       d="m 23.25,26.5 q 0,-0.25 0.375,-0.375 L 24,26 l 0.125,0.375 q 0.125,0.375 0.5,0.5 0.375,0.125 0.75,0.25 0.375,0.125 0.5,0.5 L 26,28 H 25.5 Q 25,28 24.625,27.875 24.25,27.75 24,27.5 23.75,27.25 23.5,27 23.25,26.75 23.25,26.5 M 25.625,28 H 26 26.125 26.25 26 q -0.25,0 -0.5,0 h -0.25 0.375"
       id="path754" />
    <path
       style="fill:#008040;fill-opacity:1"
       d="M 24.125,26.375 24,26 l 0.375,0.125 q 0.375,0.125 0.5,0.5 L 25,27 24.625,26.875 q -0.375,-0.125 -0.5,-0.5 M 24.71875,26.90625 25,27 25.09375,27.03125 25.1875,27.0625 25,27 q -0.1875,-0.0625 -0.375,-0.125 l -0.1875,-0.0625 0.28125,0.09375"
       id="path756" />
    <path
       style="fill:#000000;fill-opacity:0"
       d="M 31,26.5 Q 31,26 31.5,26 H 32 V 26.5 27 27.5 28 28.5 29 29.5 30 H 31.5 31 l -0.125,-0.375 q -0.125,-0.375 -0.5,-0.5 L 30,29 V 28.5 Q 30,28 30.5,28 31,28 31,27.5 31,27 31,26.5 M 30.875,30 H 31 31.375 31.75 31.5 q -0.25,0 -0.5,0 h -0.25 0.125"
       id="path758" />
    <path
       style="fill:#004020;fill-opacity:1"
       d="M 17,27.5 V 27 h 0.5 0.5 v 0.5 q 0,0.5 0,1 V 29 28.625 28.25 28.5 q 0,0.25 -0.03125,0.46875 l -0.03125,0.21875 0.01563,-0.109375 0.01563,-0.109375 -0.359375,-0.109375 Q 17.25,28.75 17.125,28.375 17,28 17,27.5 m 0,-0.625 V 27 27.375 27.75 27.5 q 0,-0.25 0,-0.5 v -0.25 0.125"
       id="path760" />
    <path
       style="fill:#003018;fill-opacity:1"
       d="M 18,27.5 V 27 H 18.5 19 V 27.5 28 H 18.5 18 v -0.5 m 0,0.125 V 28 28.125 28.25 28 q 0,-0.25 0,-0.5 v -0.25 0.375 M 18.625,28 H 19 19.125 19.25 19 q -0.25,0 -0.5,0 h -0.25 0.375"
       id="path762" />
    <path
       style="fill:#606030;fill-opacity:1"
       d="M 19,27.5 V 27 h 0.5 q 0.5,0 1,0 H 21 v 0.5 0.5 h -0.5 q -0.5,0 -1,0 H 19 V 27.5 M 18.875,28 H 19 19.375 19.75 19.5 q -0.25,0 -0.5,0 h -0.25 0.125"
       id="path764" />
    <path
       style="fill:#006030;fill-opacity:1"
       d="M 21,27.5 V 27 H 21.5 22 21.625 21.25 21.5 q 0.25,0 0.46875,0.03125 l 0.21875,0.03125 -0.109375,-0.01563 -0.109375,-0.01563 0.140625,0.359375 Q 22.25,27.75 22.625,27.875 L 23,28 v 0.5 q 0,0.5 0,1 0,0.5 -0.01563,0.984375 l -0.01563,0.484375 0.109375,-0.01563 0.109375,-0.01563 -0.21875,0.03125 Q 22.75,31 22.5,31 H 22.25 22.625 23 22.5 22 v -0.5 q 0,-0.5 0,-1 0,-0.5 -0.125,-0.875 -0.125,-0.375 -0.5,-0.5 L 21,28 V 27.5 M 21.875,31 H 22 22.375 22.75 22.5 q -0.25,0 -0.5,0 h -0.25 0.125"
       id="path766" />
    <path
       style="fill:#008040;fill-opacity:1"
       d="M 22.109375,27.390625 21.96875,27.03125 21.859375,27.015625 21.75,27 21.96875,27.03125 Q 22.1875,27.0625 22.375,27.125 L 22.5625,27.1875 22.28125,27.09375 22,27 l 0.375,0.125 q 0.375,0.125 0.5,0.5 L 23,28 22.625,27.875 Q 22.25,27.75 22.109375,27.390625"
       id="path768" />
    <path
       style="fill:#006030;fill-opacity:1"
       d="m 16,28.5 q 0.25,-0.25 0.640625,-0.390625 L 17.03125,27.96875 17.015625,27.859375 17,27.75 17.03125,27.96875 Q 17.0625,28.1875 17.125,28.375 L 17.1875,28.5625 17.09375,28.28125 17,28 l 0.125,0.375 q 0.125,0.375 0.484375,0.484375 L 17.96875,28.96875 17.984375,28.859375 18,28.75 17.96875,28.96875 Q 17.9375,29.1875 17.875,29.375 L 17.8125,29.5625 17.90625,29.28125 18,29 17.875,29.375 q -0.125,0.375 -0.5,0.5 Q 17,30 16.5,30 16,30 15.5,30 H 15 L 14.984375,29.484375 14.96875,28.96875 14.859375,28.984375 14.75,29 14.96875,28.96875 Q 15.1875,28.9375 15.375,28.875 L 15.5625,28.8125 15.28125,28.90625 15,29 15.375,28.875 Q 15.75,28.75 16,28.5 M 14.875,30 H 15 15.375 15.75 15.5 q -0.25,0 -0.5,0 h -0.25 0.125"
       id="path770" />
    <path
       style="fill:#000000;fill-opacity:1"
       d="M 18,28.5 V 28 h 0.5 q 0.5,0 1,0 0.5,0 1,0 H 21 l 0.125,0.375 q 0.125,0.375 0.484375,0.515625 L 21.96875,29.03125 21.953125,28.921875 21.9375,28.8125 21.96875,29.03125 Q 22,29.25 22,29.5 V 29.75 29.375 29 29.5 30 H 21.5 Q 21,30 20.625,30.125 20.25,30.25 20.25,30.5 q 0,0.25 0.375,0.375 Q 21,31 21.5,31 q 0.5,0 1,0 0.5,0 0.875,-0.125 0.375,-0.125 0.5,-0.5 L 24,30 23.90625,30.28125 23.8125,30.5625 23.875,30.375 q 0.0625,-0.1875 0.09375,-0.40625 L 24,29.75 l -0.01563,0.109375 -0.01563,0.109375 0.515625,0.01563 Q 25,30 25.5,30 26,30 26.375,30.125 26.75,30.25 27,30.5 27.25,30.75 27.625,30.875 28,31 28.5,31 q 0.5,0 1,0 0.5,0 1,0 0.5,0 1,0 H 32 V 31.5 32 H 31.5 31 30.5 30 29.5 29 28.5 28 27.5 27 26.5 26 25.5 25 v -0.5 q 0,-0.5 -0.375,-0.375 -0.375,0.125 -0.5,0.5 L 24,32 H 23.5 23 22.5 22 21.5 21 20.5 20 19.5 19 V 31.5 Q 19,31 18.5,31 q -0.5,0 -1,0 -0.5,0 -1,0 -0.5,0 -1,0 -0.5,0 -1,0 Q 14,31 14,30.5 V 30 h 0.5 q 0.5,0 1,0 0.5,0 1,0 0.5,0 0.875,-0.125 0.375,-0.125 0.5,-0.5 Q 18,29 18,28.5 m 4,1.625 V 30 29.625 29.25 29.5 q 0,0.25 0,0.5 v 0.25 -0.125 m -4,-2.25 V 28 28.375 28.75 28.5 q 0,-0.25 0,-0.5 v -0.25 0.125"
       id="path772" />
    <path
       style="fill:#008040;fill-opacity:1"
       d="M 21.125,28.375 21,28 l 0.375,0.125 q 0.375,0.125 0.5,0.5 L 22,29 21.90625,28.71875 21.8125,28.4375 21.875,28.625 q 0.0625,0.1875 0.09375,0.40625 L 22,29.25 21.984375,29.140625 21.96875,29.03125 21.609375,28.890625 Q 21.25,28.75 21.125,28.375"
       id="path774" />
    <path
       style="fill:#003018;fill-opacity:1"
       d="M 23,28.5 V 28 l 0.375,0.125 q 0.375,0.125 0.5,0.5 L 24,29 H 23.5 23 v -0.5 m 0,0.125 V 29 29.125 29.25 29 q 0,-0.25 0,-0.5 v -0.25 0.375"
       id="path776" />
    <path
       style="fill:#008040;fill-opacity:1"
       d="M 25.015625,28.484375 25.03125,27.96875 24.921875,27.953125 24.8125,27.9375 25.03125,27.96875 Q 25.25,28 25.5,28 H 25.75 25.375 25 25.5 q 0.5,0 1,0 H 27 l 0.125,0.375 q 0.125,0.375 0.375,0.375 0.25,0 0.359375,-0.359375 L 27.96875,28.03125 27.859375,28.015625 27.75,28 27.96875,28.03125 Q 28.1875,28.0625 28.375,28.125 L 28.5625,28.1875 28.28125,28.09375 28,28 28.375,28.125 Q 28.75,28.25 29,28.5 q 0.25,0.25 0.625,0.375 L 30,29 V 29.5 30 H 29.5 29 L 28.875,29.625 Q 28.75,29.25 28.5,29.25 q -0.25,0 -0.359375,0.359375 L 28.03125,29.96875 28.140625,29.984375 28.25,30 28.03125,29.96875 Q 27.8125,29.9375 27.625,29.875 L 27.4375,29.8125 27.71875,29.90625 28,30 27.625,29.875 Q 27.25,29.75 27,29.5 26.75,29.25 26.375,29.125 26,29 25.5,29 H 25 l 0.01563,-0.515625 M 24.875,29 H 25 25.375 25.75 25.5 q -0.25,0 -0.5,0 h -0.25 0.125 m 4,1 H 29 29.375 29.75 29.5 q -0.25,0 -0.5,0 h -0.25 0.125 m 0.75,0 H 30 30.125 30.25 30 q -0.25,0 -0.5,0 h -0.25 0.375 M 30.09375,29.03125 30,29 29.71875,28.90625 29.4375,28.8125 29.625,28.875 Q 29.8125,28.9375 30,29 l 0.1875,0.0625 -0.09375,-0.03125 M 27.125,28 H 27 26.625 26.25 26.5 q 0.25,0 0.5,0 h 0.25 -0.125"
       id="path778" />
    <path
       style="fill:#00a050;fill-opacity:1"
       d="M 27.125,28.375 27,28 H 27.5 28 27.625 27.25 27.5 q 0.25,0 0.46875,0.03125 l 0.21875,0.03125 -0.109375,-0.01563 -0.109375,-0.01563 -0.109375,0.359375 Q 27.75,28.75 27.5,28.75 q -0.25,0 -0.375,-0.375 M 27.375,28 H 27 26.875 26.75 27 q 0.25,0 0.5,0 h 0.25 -0.375"
       id="path780" />
    <path
       style="fill:#808000;fill-opacity:1"
       d="m 13.25,29.5 q 0,-0.25 0.375,-0.375 Q 14,29 14.5,29 H 15 14.625 14.25 14.5 q 0.25,0 0.46875,-0.03125 l 0.21875,-0.03125 -0.109375,0.01563 -0.109375,0.01563 0.01563,0.515625 L 15,30 H 14.5 14 L 13.625,29.875 Q 13.25,29.75 13.25,29.5 M 14.625,30 H 15 15.125 15.25 15 q -0.25,0 -0.5,0 h -0.25 0.375"
       id="path782" />
    <path
       style="fill:#008040;fill-opacity:1"
       d="M 23,29.5 V 29 h 0.5 0.5 v 0.5 q 0,0.5 -0.125,0.875 -0.125,0.375 -0.5,0.5 L 23,31 23.28125,30.90625 23.5625,30.8125 23.375,30.875 q -0.1875,0.0625 -0.40625,0.09375 L 22.75,31 l 0.109375,-0.01563 0.109375,-0.01563 0.01563,-0.484375 Q 23,30 23,29.5 m 0,-0.625 V 29 29.375 29.75 29.5 q 0,-0.25 0,-0.5 v -0.25 0.125"
       id="path784" />
    <path
       style="fill:#004020;fill-opacity:1"
       d="M 24,29.5 V 29 h 0.5 q 0.5,0 1,0 0.5,0 0.875,0.125 Q 26.75,29.25 27,29.5 27.25,29.75 27.625,29.875 28,30 28.5,30 q 0.5,0 1,0 0.5,0 1,0 0.5,0 1,0 H 32 v 0.5 0.5 h -0.5 q -0.5,0 -1,0 -0.5,0 -1,0 -0.5,0 -1,0 Q 28,31 27.625,30.875 27.25,30.75 27,30.5 26.75,30.25 26.375,30.125 26,30 25.5,30 25,30 24.484375,29.984375 L 23.96875,29.96875 23.953125,30.078125 23.9375,30.1875 23.96875,29.96875 Q 24,29.75 24,29.5 V 29.25 29.625 30 29.5"
       id="path786" />
    <path
       style="fill:#006030;fill-opacity:1"
       d="M 28.140625,29.609375 Q 28.25,29.25 28.5,29.25 q 0.25,0 0.375,0.375 L 29,30 H 28.5 28 28.375 28.75 28.5 q -0.25,0 -0.46875,-0.03125 l -0.21875,-0.03125 0.109375,0.01563 0.109375,0.01563 0.109375,-0.359375 M 28.625,30 H 29 29.125 29.25 29 q -0.25,0 -0.5,0 h -0.25 0.375"
       id="path788" />
    <path
       style="fill:#00a050;fill-opacity:1"
       d="M 30,29.5 V 29 l 0.375,0.125 q 0.375,0.125 0.5,0.5 L 31,30 H 30.5 30 V 29.5 M 29.875,30 H 30 30.375 30.75 30.5 q -0.25,0 -0.5,0 h -0.25 0.125 m 0.75,0 H 31 31.125 31.25 31 q -0.25,0 -0.5,0 h -0.25 0.375 M 30.28125,29.09375 30,29 29.90625,28.96875 29.8125,28.9375 30,29 q 0.1875,0.0625 0.375,0.125 l 0.1875,0.0625 -0.28125,-0.09375"
       id="path790" />
    <path
       style="fill:#808000;fill-opacity:1"
       d="m 20.25,30.5 q 0,-0.25 0.375,-0.375 Q 21,30 21.5,30 H 22 V 30.5 31 H 21.5 Q 21,31 20.625,30.875 20.25,30.75 20.25,30.5 M 21.625,31 H 22 22.125 22.25 22 q -0.25,0 -0.5,0 h -0.25 0.375 M 22,30.375 V 30 29.875 29.75 30 q 0,0.25 0,0.5 v 0.25 -0.375"
       id="path792" />
    <path
       style="fill:#000000;fill-opacity:0"
       d="m 24.125,31.625 q 0.125,-0.375 0.5,-0.5 Q 25,31 25,31.5 V 32 H 24.5 24 l 0.125,-0.375"
       id="path794" />
  </g>
</svg>
