<?xml version="1.0" encoding="UTF-8" standalone="no"?>
<!-- Created with Inkscape (http://www.inkscape.org/) -->

<svg
   xmlns:dc="http://purl.org/dc/elements/1.1/"
   xmlns:cc="http://creativecommons.org/ns#"
   xmlns:rdf="http://www.w3.org/1999/02/22-rdf-syntax-ns#"
   xmlns:svg="http://www.w3.org/2000/svg"
   xmlns="http://www.w3.org/2000/svg"
   xmlns:sodipodi="http://sodipodi.sourceforge.net/DTD/sodipodi-0.dtd"
   xmlns:inkscape="http://www.inkscape.org/namespaces/inkscape"
   version="1.1"
   id="svg871"
   width="32"
   height="32"
   viewBox="0 0 32 32"
   sodipodi:docname="eborsisk.svg"
   inkscape:version="0.92.5 (2060ec1f9f, 2020-04-08)">
  <metadata
     id="metadata877">
    <rdf:RDF>
      <cc:Work
         rdf:about="">
        <dc:format>image/svg+xml</dc:format>
        <dc:type
           rdf:resource="http://purl.org/dc/dcmitype/StillImage" />
        <dc:title></dc:title>
      </cc:Work>
    </rdf:RDF>
  </metadata>
  <defs
     id="defs875" />
  <sodipodi:namedview
     pagecolor="#ffffff"
     bordercolor="#666666"
     borderopacity="1"
     objecttolerance="10"
     gridtolerance="10"
     guidetolerance="10"
     inkscape:pageopacity="0"
     inkscape:pageshadow="2"
     inkscape:window-width="1920"
     inkscape:window-height="1118"
     id="namedview873"
     showgrid="false"
     inkscape:zoom="7.375"
     inkscape:cx="16"
     inkscape:cy="16"
     inkscape:window-x="0"
     inkscape:window-y="24"
     inkscape:window-maximized="1"
     inkscape:current-layer="svg871" />
  <g
     transform="translate(0 0)"
     id="g1181">
    <path
       style="fill:#000000;fill-opacity:0"
       d="M 0,0.5 V 0 H 0.5 1 1.5 2 2.5 3 3.5 4 4.5 5 5.5 6 6.5 7 7.5 8 8.5 9 9.5 10 10.5 11 11.5 12 12.5 13 13.5 14 14.5 15 15.5 16 16.5 17 17.5 18 18.5 19 19.5 20 20.5 21 21.5 22 22.5 23 l 0.125,0.375 Q 23.25,0.75 23.5,1 23.75,1.25 24,1.5 24.25,1.75 24.5,2 24.75,2.25 24.875,2.625 L 25,3 24.453125,3.046875 23.90625,3.09375 23.953125,3.171875 24,3.25 23.90625,3.09375 Q 23.8125,2.9375 23.625,2.875 L 23.4375,2.8125 23.71875,2.90625 24,3 23.625,2.875 Q 23.25,2.75 23,2.5 22.75,2.25 22.375,2.125 22,2 21.625,2.125 21.25,2.25 21.125,2.625 L 21,3 H 20.5 20 19.5 Q 19,3 18.625,3.125 18.25,3.25 18,3.5 17.75,3.75 17.375,3.875 L 17,4 H 16.5 Q 16,4 15.625,4.125 15.25,4.25 15.125,4.625 L 15,5 V 4.625 4.25 4.5 q 0,0.25 0.09375,0.40625 L 15.1875,5.0625 15.140625,4.984375 15.09375,4.90625 15.046875,5.453125 15,6 H 14.5 Q 14,6 13.5,6 H 13 V 5.5 Q 13,5 12.9375,4.4375 L 12.875,3.875 12.8125,3.9375 12.75,4 12.875,3.875 Q 13,3.75 13,3.5 V 3.25 3.625 4 L 12.875,3.625 Q 12.75,3.25 12.375,3.125 L 12,3 H 12.375 12.75 12.5 Q 12.25,3 12.125,3.125 L 12,3.25 12.0625,3.1875 12.125,3.125 11.5625,3.0625 Q 11,3 10.5,3 10,3 9.5,3 9,3 8.5,3 8,3 7.5,3 7,3 6.5,3 6,3 5.5,3 5,3 4.625,2.875 4.25,2.75 4,2.5 3.75,2.25 3.375,2.125 3,2 2.5,2 2,2 1.625,1.875 1.25,1.75 1,1.5 0.75,1.25 0.375,1.125 L 0,1 V 0.5"
       id="path881" />
    <path
       style="fill:#ffffff;fill-opacity:1"
       d="M 23.125,0.375 23,0 h 0.5 0.5 l 0.125,0.375 Q 24.25,0.75 24.5,1 q 0.25,0.25 0.5,0.5 0.25,0.25 0.5,0.25 0.25,0 0.5,-0.25 0.25,-0.25 0.5,-0.25 0.25,0 0.5,0.25 0.25,0.25 0.5,0.5 0.25,0.25 0.5,0.5 L 28.25,2.75 28,3 q -0.25,0.25 -0.5,0.25 -0.25,0 -0.53125,-0.28125 L 26.6875,2.6875 26.65625,2.71875 26.625,2.75 26.6875,2.6875 Q 26.75,2.625 26.75,2.5 V 2.375 2.5625 2.75 2.5 q 0,-0.25 -0.25,-0.25 -0.25,0 -0.25,0.25 V 2.75 2.5625 2.375 2.5 q 0,0.125 0.0625,0.1875 L 26.375,2.75 26.34375,2.71875 26.3125,2.6875 26.015625,2.984375 25.71875,3.28125 25.796875,3.328125 25.875,3.375 25.71875,3.28125 Q 25.5625,3.1875 25.375,3.125 L 25.1875,3.0625 25.46875,3.15625 25.75,3.25 25.375,3.125 25,3 24.875,2.625 Q 24.75,2.25 24.5,2 24.25,1.75 24,1.5 23.75,1.25 23.5,1 23.25,0.75 23.125,0.375 M 28.3125,2.8125 28.25,2.75 28.0625,2.5625 27.875,2.375 28,2.5 q 0.125,0.125 0.25,0.25 l 0.125,0.125 -0.0625,-0.0625"
       id="path883" />
    <path
       style="fill:#000000;fill-opacity:0"
       d="M 24.125,0.375 24,0 H 24.5 25 25.5 26 26.5 27 27.5 28 28.5 29 29.5 30 30.5 31 31.5 32 V 0.5 1 1.5 2 2.5 3 3.5 4 4.5 5 5.5 6 6.5 7 L 31.625,6.875 Q 31.25,6.75 31,6.5 30.75,6.25 30.5,6 30.25,5.75 30.125,5.375 30,5 29.875,4.625 29.75,4.25 29.5,4 29.25,3.75 29,3.5 28.75,3.25 28.5,3 28.25,2.75 28,2.5 27.75,2.25 27.5,2 27.25,1.75 27,1.5 26.75,1.25 26.5,1.25 26.25,1.25 26,1.5 25.75,1.75 25.5,1.75 25.25,1.75 25,1.5 24.75,1.25 24.5,1 24.25,0.75 24.125,0.375"
       id="path885" />
    <path
       style="fill:#002020;fill-opacity:1"
       d="M 0,1.5 V 1 L 0.375,1.125 Q 0.75,1.25 1,1.5 1.25,1.75 1.625,1.875 2,2 2.5,2 3,2 3.375,2.125 3.75,2.25 4,2.5 4.25,2.75 4.625,2.875 5,3 5.5,3 6,3 6.5,3 7,3 7.5,3 8,3 8.5,3 9,3 9.5,3 10,3 10.5,3 11,3 11.5625,3.0625 L 12.125,3.125 12.1875,3.0625 12.25,3 12.125,3.125 Q 12,3.25 12,3.5 V 3.75 3.375 3 l 0.125,0.375 q 0.125,0.375 0.5,0.5 L 13,4 H 12.625 12.25 12.5 q 0.25,0 0.375,-0.125 L 13,3.75 12.9375,3.8125 12.875,3.875 12.9375,4.4375 Q 13,5 13,5.5 V 6 H 12.5 Q 12,6 11.625,6.125 11.25,6.25 11.125,6.625 11,7 10.875,7.375 10.75,7.75 10.5,8 10.25,8.25 10.125,8.625 10,9 9.875,9.375 9.75,9.75 9.5,10 9.25,10.25 9.125,10.625 9,11 8.875,11.375 8.75,11.75 8.5,12 8.25,12.25 8.140625,12.609375 L 8.03125,12.96875 8.140625,12.984375 8.25,13 8.03125,12.96875 Q 7.8125,12.9375 7.625,12.875 L 7.4375,12.8125 7.71875,12.90625 8,13 7.625,12.875 Q 7.25,12.75 7.109375,12.359375 L 6.96875,11.96875 6.859375,11.984375 6.75,12 6.96875,11.96875 Q 7.1875,11.9375 7.375,11.875 L 7.5625,11.8125 7.28125,11.90625 7,12 7.375,11.875 Q 7.75,11.75 7.875,11.375 8,11 8.125,10.625 8.25,10.25 8.5,10 8.75,9.75 8.875,9.375 9,9 9.125,8.625 9.25,8.25 9.5,8 9.75,7.75 9.875,7.375 10,7 10.125,6.625 10.25,6.25 10.5,6 10.75,5.75 11,5.5 11.25,5.25 11.5,5 11.75,4.75 11.75,4.5 11.75,4.25 11.5,4.25 11.25,4.25 11,4.5 10.75,4.75 10.375,4.875 10,5 9.625,5.125 9.25,5.25 9,5.5 8.75,5.75 8.375,5.875 8,6 7.5,6 7,6 6.625,6.125 6.25,6.25 6,6.5 5.75,6.75 5.5,7 5.25,7.25 5,7.5 4.75,7.75 4.5,8 4.25,8.25 4,8.5 3.75,8.75 3.375,8.875 3,9 2.625,9.125 2.25,9.25 2.125,9.625 L 2,10 2.09375,9.71875 2.1875,9.4375 2.125,9.625 Q 2.0625,9.8125 2.0625,10 V 10.1875 10.09375 10 L 1.65625,9.875 Q 1.25,9.75 1.125,9.375 L 1,9 1.09375,9.28125 1.1875,9.5625 1.125,9.375 Q 1.0625,9.1875 1.03125,8.96875 L 1,8.75 1.015625,8.859375 1.03125,8.96875 1.390625,8.859375 Q 1.75,8.75 2,8.5 2.25,8.25 2.625,8.125 3,8 3.375,7.875 3.75,7.75 4,7.5 4.25,7.25 4.5,7 4.75,6.75 4.875,6.375 L 5,6 5.375,5.875 Q 5.75,5.75 5.875,5.375 L 6,5 H 6.5 Q 7,5 7.5,5 8,5 8.375,4.875 8.75,4.75 8.75,4.5 8.75,4.25 8.375,4.125 8,4 7.5,4 7,4 6.5,4 6,4 5.5,4 5,4 4.5,4 4,4 3.625,3.875 3.25,3.75 3,3.5 2.75,3.25 2.375,3.125 2,3 1.5,3 1,3 0.5,3 H 0 V 2.5 2 1.5 M 5.28125,5.90625 5,6 4.90625,6.03125 4.8125,6.0625 5,6 Q 5.1875,5.9375 5.375,5.875 L 5.5625,5.8125 5.28125,5.90625"
       id="path887" />
    <path
       style="fill:#c0c0c0;fill-opacity:1"
       d="M 21.125,2.625 Q 21.25,2.25 21.625,2.125 22,2 22.375,2.125 22.75,2.25 23,2.5 L 23.25,2.75 23.0625,2.5625 22.875,2.375 23,2.5 q 0.125,0.125 0.28125,0.21875 L 23.4375,2.8125 23.359375,2.765625 23.28125,2.71875 22.984375,3.015625 22.6875,3.3125 22.75,3.375 22.8125,3.4375 22.6875,3.3125 Q 22.5625,3.1875 22.375,3.125 L 22.1875,3.0625 22.46875,3.15625 22.75,3.25 22.375,3.125 Q 22,3 21.5,3 H 21 l 0.125,-0.375"
       id="path889" />
    <path
       style="fill:#000000;fill-opacity:0"
       d="m 26.25,2.5 q 0,-0.25 0.25,-0.25 0.25,0 0.25,0.25 0,0.25 -0.25,0.25 -0.25,0 -0.25,-0.25"
       id="path891" />
    <path
       style="fill:#000000;fill-opacity:0"
       d="M 0,3.5 V 3 H 0.5 1 L 1.125,3.375 Q 1.25,3.75 1.5,4 1.75,4.25 1.875,4.625 2,5 2,5.5 2,6 2,6.5 2,7 1.625,7.125 1.25,7.25 1.125,7.625 1,8 1,8.5 1,9 1.125,9.375 1.25,9.75 1.65625,9.875 L 2.0625,10 V 9.90625 9.8125 10 q 0,0.1875 0.0625,0.375 L 2.1875,10.5625 2.09375,10.28125 2,10 2.125,10.375 q 0.125,0.375 0.5,0.5 Q 3,11 3.5,11 H 4 3.625 3.25 3.5 q 0.25,0 0.46875,-0.03125 L 4.1875,10.9375 4.078125,10.953125 3.96875,10.96875 4.109375,11.359375 Q 4.25,11.75 4.625,11.875 5,12 5.5,12 6,12 6.5,12 H 7 6.625 6.25 6.5 q 0.25,0 0.46875,-0.03125 L 7.1875,11.9375 7.078125,11.953125 6.96875,11.96875 7.109375,12.359375 Q 7.25,12.75 7.625,12.875 8,13 8.5,13 9,13 9.5,13 H 10 l 0.125,0.375 q 0.125,0.375 0.5,0.5 L 11,14 10.71875,13.90625 10.4375,13.8125 10.625,13.875 q 0.1875,0.0625 0.40625,0.09375 L 11.25,14 11.140625,13.984375 11.03125,13.96875 11.015625,14.484375 Q 11,15 10.875,15.375 10.75,15.75 10.375,15.875 10,16 9.625,16.125 9.25,16.25 9.25,16.5 q 0,0.25 0.375,0.375 L 10,17 v 0.5 q 0,0.5 0,1 Q 10,19 9.625,19.125 9.25,19.25 9.25,19.5 q 0,0.25 0.375,0.375 L 10,20 v 0.5 Q 10,21 10.125,21.375 10.25,21.75 10.5,22 10.75,22.25 10.875,22.625 11,23 10.625,23.125 10.25,23.25 10.25,23.5 q 0,0.25 0.375,0.375 L 11,24 v 0.5 q 0,0.5 0.125,0.875 0.125,0.375 0.375,0.625 0.25,0.25 0.375,0.625 0.125,0.375 0.25,0.75 0.125,0.375 0.5,0.5 L 13,28 12.71875,27.90625 12.4375,27.8125 12.625,27.875 q 0.1875,0.0625 0.40625,0.09375 L 13.25,28 13.140625,27.984375 13.03125,27.96875 13.140625,28.359375 13.25,28.75 13.15625,28.46875 13.0625,28.1875 13.125,28.375 q 0.0625,0.1875 0.15625,0.34375 l 0.09375,0.15625 -0.04687,-0.07813 -0.04687,-0.07813 -0.265625,0.265625 Q 12.75,29.25 12.875,29.625 q 0.125,0.375 0.5,0.5 0.375,0.125 0.5,0.5 Q 14,31 14.5,31 15,31 15,31.5 V 32 H 14.5 14 13.5 13 12.5 12 11.5 11 10.5 10 9.5 9 8.5 8 7.5 7 6.5 6 5.5 5 4.5 4 3.5 3 2.5 2 1.5 1 0.5 0 V 31.5 31 30.5 30 29.5 29 28.5 28 27.5 27 26.5 26 25.5 25 24.5 24 23.5 23 22.5 22 21.5 21 20.5 20 19.5 19 18.5 18 17.5 17 16.5 16 15.5 15 14.5 14 13.5 13 12.5 12 11.5 11 10.5 10 9.5 9 8.5 8 7.5 7 6.5 6 5.5 5 4.5 4 3.5 M 1.125,3 H 1 0.625 0.25 0.5 Q 0.75,3 1,3 H 1.25 1.125"
       id="path893" />
    <path
       style="fill:#a05000;fill-opacity:1"
       d="M 1.125,3.375 1,3 H 1.5 Q 2,3 2.375,3.125 2.75,3.25 3,3.5 3.25,3.75 3.625,3.875 4,4 4.5,4 5,4 5.5,4 H 6 V 4.5 5 H 5.5 Q 5,5 4.625,5.125 4.25,5.25 4,5.5 3.75,5.75 3.375,5.875 3,6 2.5,6 H 2 V 5.5 Q 2,5 1.875,4.625 1.75,4.25 1.5,4 1.25,3.75 1.125,3.375 M 2,5.625 V 6 6.125 6.25 6 Q 2,5.75 2,5.5 V 5.25 5.625 M 6.125,4 H 6 5.625 5.25 5.5 Q 5.75,4 6,4 H 6.25 6.125 M 1.375,3 H 1 0.875 0.75 1 Q 1.25,3 1.5,3 H 1.75 1.375"
       id="path895" />
    <path
       style="fill:#ffffff;fill-opacity:1"
       d="M 12.125,3.375 Q 12,3 12.375,3.125 12.75,3.25 12.875,3.625 13,4 12.625,3.875 12.25,3.75 12.125,3.375"
       id="path897" />
    <path
       style="fill:#e0e0e0;fill-opacity:1"
       d="M 18,3.5 Q 18.25,3.25 18.625,3.125 19,3 19.5,3 H 20 L 19.875,3.375 Q 19.75,3.75 19.5,3.75 19.25,3.75 19,4.03125 L 18.75,4.3125 18.8125,4.34375 18.875,4.375 18.75,4.3125 Q 18.625,4.25 18.5,4.25 H 18.375 18.5625 18.75 18.5 18.25 18.4375 18.625 18.5 q -0.125,0 -0.21875,0.09375 L 18.1875,4.4375 18.234375,4.390625 18.28125,4.34375 18,4.03125 17.71875,3.71875 17.640625,3.765625 17.5625,3.8125 17.71875,3.71875 Q 17.875,3.625 18,3.5 L 18.125,3.375 17.9375,3.5625 17.75,3.75 18,3.5"
       id="path899" />
    <path
       style="fill:#ffffff;fill-opacity:1"
       d="M 19.875,3.375 20,3 H 20.5 21 V 3.53125 4.0625 H 21.09375 21.1875 21 q -0.1875,0 -0.375,0.0625 L 20.4375,4.1875 20.71875,4.09375 21,4 20.625,4.125 Q 20.25,4.25 20.140625,4.609375 L 20.03125,4.96875 20.140625,4.984375 20.25,5 20.03125,4.96875 Q 19.8125,4.9375 19.625,4.875 L 19.4375,4.8125 19.71875,4.90625 20,5 19.625,4.875 Q 19.25,4.75 19,4.5 L 18.75,4.25 18.9375,4.4375 19.125,4.625 19,4.5 Q 18.875,4.375 18.75,4.3125 L 18.625,4.25 18.6875,4.28125 18.75,4.3125 19,4.03125 Q 19.25,3.75 19.5,3.75 q 0.25,0 0.375,-0.375"
       id="path901" />
    <path
       style="fill:#606060;fill-opacity:1"
       d="M 21,3.53125 V 3 H 21.5 22 21.625 21.25 21.5 q 0.25,0 0.46875,0.03125 L 22.1875,3.0625 22.078125,3.046875 21.96875,3.03125 22.109375,3.390625 22.25,3.75 22.15625,3.46875 22.0625,3.1875 22.125,3.375 q 0.0625,0.1875 0.1875,0.3125 l 0.125,0.125 L 22.375,3.75 22.3125,3.6875 21.984375,3.984375 21.65625,4.28125 21.703125,4.328125 21.75,4.375 21.65625,4.28125 Q 21.5625,4.1875 21.375,4.125 L 21.1875,4.0625 21.46875,4.15625 21.75,4.25 21.375,4.125 21,4 21.28125,4.09375 21.5625,4.1875 21.375,4.125 Q 21.1875,4.0625 21,4.0625 H 20.8125 20.90625 21 V 3.53125"
       id="path903" />
    <path
       style="fill:#ffffff;fill-opacity:1"
       d="M 22.109375,3.390625 21.96875,3.03125 21.859375,3.015625 21.75,3 21.96875,3.03125 Q 22.1875,3.0625 22.375,3.125 L 22.5625,3.1875 22.28125,3.09375 22,3 22.375,3.125 q 0.375,0.125 0.5,0.5 L 23,4 22.625,3.875 Q 22.25,3.75 22.109375,3.390625"
       id="path905" />
    <path
       style="fill:#e0e0e0;fill-opacity:1"
       d="M 22.875,3.625 22.75,3.25 22.84375,3.53125 22.9375,3.8125 22.875,3.625 Q 22.8125,3.4375 22.6875,3.3125 L 22.5625,3.1875 22.625,3.25 22.6875,3.3125 22.984375,3.015625 23.28125,2.71875 23.203125,2.671875 23.125,2.625 23.28125,2.71875 Q 23.4375,2.8125 23.625,2.875 L 23.8125,2.9375 23.53125,2.84375 23.25,2.75 23.625,2.875 Q 24,3 23.875,3.375 23.75,3.75 23.375,3.875 L 23,4 22.875,3.625"
       id="path907" />
    <path
       style="fill:#606060;fill-opacity:1"
       d="M 23.875,3.375 24,3 V 3.375 3.75 3.5 Q 24,3.25 23.90625,3.09375 L 23.8125,2.9375 23.859375,3.015625 23.90625,3.09375 24.453125,3.046875 25,3 25.125,3.375 Q 25.25,3.75 25.5,4 25.75,4.25 26,4.5 26.25,4.75 26.5,5 26.75,5.25 27,5.5 27.25,5.75 27.625,5.875 28,6 28.375,6.125 28.75,6.25 29,6.5 L 29.25,6.75 29,7 28.75,7.25 28.5,7 Q 28.25,6.75 27.984375,7.015625 L 27.71875,7.28125 27.765625,7.359375 27.8125,7.4375 27.71875,7.28125 Q 27.625,7.125 27.5,7 L 27.375,6.875 27.5625,7.0625 27.75,7.25 27.5,7 Q 27.25,6.75 27,6.5 26.75,6.25 26.375,6.125 L 26,6 25.875,5.625 Q 25.75,5.25 25.5,5 25.25,4.75 25,4.5 24.75,4.25 24.5,4.25 24.25,4.25 24.25,4.5 V 4.75 4.5625 4.375 4.5 q 0,0.125 0.0625,0.25 L 24.375,4.875 24.34375,4.8125 24.3125,4.75 24.03125,5 Q 23.75,5.25 23.5,5.25 H 23.25 23.4375 23.625 23.5 q -0.125,0 -0.21875,0.09375 L 23.1875,5.4375 23.234375,5.390625 23.28125,5.34375 23.015625,5.046875 Q 22.75,4.75 22.875,4.375 L 23,4 23.375,3.875 q 0.375,-0.125 0.5,-0.5 M 28.5625,7.0625 28.75,7.25 28.8125,7.3125 28.875,7.375 28.75,7.25 Q 28.625,7.125 28.5,7 l -0.125,-0.125 0.1875,0.1875 m 0.75,-0.25 L 29.25,6.75 29.0625,6.5625 28.875,6.375 29,6.5 q 0.125,0.125 0.25,0.25 l 0.125,0.125 -0.0625,-0.0625"
       id="path909" />
    <path
       style="fill:#c0c0c0;fill-opacity:1"
       d="M 25.125,3.375 25,3 25.375,3.125 Q 25.75,3.25 26,3.5 q 0.25,0.25 0.5,0.25 0.25,0 0.546875,0.265625 L 27.34375,4.28125 27.390625,4.234375 27.4375,4.1875 27.34375,4.28125 Q 27.25,4.375 27.25,4.5 V 4.625 4.4375 4.25 4.5 4.75 4.5625 4.375 4.5 q 0,0.125 0.09375,0.21875 L 27.4375,4.8125 27.390625,4.765625 27.34375,4.71875 27.046875,4.984375 26.75,5.25 26.5,5 Q 26.25,4.75 26,4.5 25.75,4.25 25.5,4 25.25,3.75 25.125,3.375 M 26.5625,5.0625 26.75,5.25 26.8125,5.3125 26.875,5.375 26.75,5.25 Q 26.625,5.125 26.5,5 l -0.125,-0.125 0.1875,0.1875"
       id="path911" />
    <path
       style="fill:#e0e0e0;fill-opacity:1"
       d="M 26,3.5 25.75,3.25 25.9375,3.4375 26.125,3.625 26,3.5 Q 25.875,3.375 25.71875,3.28125 L 25.5625,3.1875 25.640625,3.234375 25.71875,3.28125 26.015625,2.984375 26.3125,2.6875 26.28125,2.65625 26.25,2.625 26.3125,2.6875 Q 26.375,2.75 26.5,2.75 H 26.625 26.4375 26.25 26.5 26.75 26.5625 26.375 26.5 q 0.125,0 0.1875,-0.0625 L 26.75,2.625 26.71875,2.65625 26.6875,2.6875 26.96875,2.96875 Q 27.25,3.25 27.5,3.25 27.75,3.25 28,3 L 28.25,2.75 28.5,3 Q 28.75,3.25 29,3.5 L 29.25,3.75 28.96875,4.03125 28.6875,4.3125 28.75,4.375 28.8125,4.4375 28.6875,4.3125 Q 28.5625,4.1875 28.375,4.125 L 28.1875,4.0625 28.46875,4.15625 28.75,4.25 28.375,4.125 Q 28,4 27.625,4.125 L 27.25,4.25 27.53125,4.15625 27.8125,4.0625 27.625,4.125 Q 27.4375,4.1875 27.34375,4.28125 L 27.25,4.375 27.296875,4.328125 27.34375,4.28125 27.046875,4.015625 Q 26.75,3.75 26.5,3.75 26.25,3.75 26,3.5 M 29.3125,3.8125 29.25,3.75 29.0625,3.5625 28.875,3.375 29,3.5 q 0.125,0.125 0.25,0.25 L 29.375,3.875 29.3125,3.8125 M 28.4375,2.9375 28.25,2.75 28.1875,2.6875 28.125,2.625 28.25,2.75 Q 28.375,2.875 28.5,3 l 0.125,0.125 -0.1875,-0.1875"
       id="path913" />
    <path
       style="fill:#c06000;fill-opacity:1"
       d="M 6,4.5 V 4 H 6.5 Q 7,4 7.5,4 8,4 8.375,4.125 8.75,4.25 8.75,4.5 8.75,4.75 8.375,4.875 8,5 7.5,5 7,5 6.5,5 H 6 V 4.5 M 6.375,4 H 6 5.875 5.75 6 Q 6.25,4 6.5,4 H 6.75 6.375"
       id="path915" />
    <path
       style="fill:#a05000;fill-opacity:1"
       d="m 11,4.5 q 0.25,-0.25 0.5,-0.25 0.25,0 0.25,0.25 0,0.25 -0.25,0.5 Q 11.25,5.25 11,5.5 10.75,5.75 10.5,6 10.25,6.25 10.125,6.625 L 10,7 H 9.5 Q 9,7 8.625,7.125 8.25,7.25 8,7.5 7.75,7.75 7.5,8 7.25,8.25 7,8.5 6.75,8.75 6.5,9 6.25,9.25 6,9.5 5.75,9.75 5.5,10 5.25,10.25 5,10.5 4.75,10.75 4.375,10.875 4,11 3.5,11 3,11 2.625,10.875 2.25,10.75 2.125,10.375 2,10 2.125,9.625 2.25,9.25 2.625,9.125 3,9 3.375,8.875 3.75,8.75 4,8.5 4.25,8.25 4.5,8 4.75,7.75 5,7.5 5.25,7.25 5.5,7 5.75,6.75 6,6.5 6.25,6.25 6.625,6.125 7,6 7.5,6 8,6 8.375,5.875 8.75,5.75 9,5.5 9.25,5.25 9.625,5.125 10,5 10.375,4.875 10.75,4.75 11,4.5 M 9.96875,7.09375 10,7 10.09375,6.71875 10.1875,6.4375 10.125,6.625 Q 10.0625,6.8125 10,7 L 9.9375,7.1875 9.96875,7.09375"
       id="path917" />
    <path
       style="fill:#e0e0e0;fill-opacity:1"
       d="M 15.125,4.625 Q 15.25,4.25 15.625,4.125 16,4 16.5,4 H 17 V 4.5 5 L 16.625,4.875 Q 16.25,4.75 15.984375,5.015625 L 15.71875,5.28125 15.796875,5.328125 15.875,5.375 15.71875,5.28125 Q 15.5625,5.1875 15.375,5.125 L 15.1875,5.0625 15.46875,5.15625 15.75,5.25 15.375,5.125 Q 15,5 15.125,4.625"
       id="path919" />
    <path
       style="fill:#ffffff;fill-opacity:1"
       d="M 17,4.5 V 4 L 17.375,3.875 17.75,3.75 17.46875,3.84375 17.1875,3.9375 17.375,3.875 Q 17.5625,3.8125 17.71875,3.71875 L 17.875,3.625 17.796875,3.671875 17.71875,3.71875 18,4.03125 18.28125,4.34375 18.328125,4.296875 18.375,4.25 18.28125,4.34375 Q 18.1875,4.4375 18.125,4.625 L 18.0625,4.8125 18.15625,4.53125 18.25,4.25 18.125,4.625 18,5 H 17.5 17 V 4.5"
       id="path921" />
    <path
       style="fill:#606060;fill-opacity:1"
       d="M 18.109375,4.640625 Q 18.25,4.25 18.5,4.25 18.75,4.25 19,4.5 L 19.25,4.75 19.0625,4.5625 18.875,4.375 19,4.5 q 0.125,0.125 0.28125,0.21875 L 19.4375,4.8125 19.359375,4.765625 19.28125,4.71875 18.96875,5 18.65625,5.28125 18.703125,5.328125 18.75,5.375 18.65625,5.28125 Q 18.5625,5.1875 18.375,5.125 L 18.1875,5.0625 18.46875,5.15625 18.75,5.25 18.375,5.125 18,5 18.28125,5.09375 18.5625,5.1875 18.375,5.125 Q 18.1875,5.0625 17.96875,5.03125 L 17.75,5 17.859375,5.015625 17.96875,5.03125 18.109375,4.640625"
       id="path923" />
    <path
       style="fill:#c0c0c0;fill-opacity:1"
       d="M 20.140625,4.609375 Q 20.25,4.25 20.625,4.125 21,4 21.375,4.125 21.75,4.25 21.75,4.5 21.75,4.75 21.375,4.875 21,5 20.5,5 H 20 20.375 20.75 20.5 Q 20.25,5 20.03125,4.96875 L 19.8125,4.9375 19.921875,4.953125 20.03125,4.96875 20.140625,4.609375"
       id="path925" />
    <path
       style="fill:#404040;fill-opacity:1"
       d="M 21.75,4.5 V 4.25 4.4375 4.625 4.5 q 0,-0.125 -0.09375,-0.21875 L 21.5625,4.1875 21.609375,4.234375 21.65625,4.28125 21.984375,3.984375 22.3125,3.6875 22.25,3.625 22.1875,3.5625 l 0.125,0.125 q 0.125,0.125 0.3125,0.1875 L 22.8125,3.9375 22.53125,3.84375 22.25,3.75 22.625,3.875 23,4 22.875,4.375 Q 22.75,4.75 23.015625,5.046875 L 23.28125,5.34375 23.328125,5.296875 23.375,5.25 23.28125,5.34375 Q 23.1875,5.4375 23.125,5.625 L 23.0625,5.8125 23.15625,5.53125 23.25,5.25 23.125,5.625 23,6 H 22.5 22 L 22.125,5.625 Q 22.25,5.25 21.953125,4.984375 L 21.65625,4.71875 21.609375,4.765625 21.5625,4.8125 21.65625,4.71875 Q 21.75,4.625 21.75,4.5 V 4.375 4.5625 4.75 4.5"
       id="path927" />
    <path
       style="fill:#404040;fill-opacity:1"
       d="m 24.25,4.5 q 0,-0.25 0.25,-0.25 0.25,0 0.5,0.25 0.25,0.25 0.5,0.5 0.25,0.25 0.375,0.625 L 26,6 H 25.5 25 L 24.875,5.625 Q 24.75,5.25 24.5,5 24.25,4.75 24.25,4.5 M 24.875,6 H 25 25.375 25.75 25.5 Q 25.25,6 25,6 h -0.25 0.125"
       id="path929" />
    <path
       style="fill:#300000;fill-opacity:1"
       d="m 27.25,4.5 q 0,-0.25 0.375,-0.375 0.375,-0.125 0.75,0 0.375,0.125 0.5,0.5 Q 29,5 28.5,5 28,5 27.625,4.875 27.25,4.75 27.25,4.5"
       id="path931" />
    <path
       style="fill:#ffffff;fill-opacity:1"
       d="M 28.875,4.625 28.75,4.25 28.84375,4.53125 28.9375,4.8125 28.875,4.625 Q 28.8125,4.4375 28.6875,4.3125 L 28.5625,4.1875 28.625,4.25 28.6875,4.3125 28.96875,4.03125 29.25,3.75 29.5,4 q 0.25,0.25 0.375,0.625 L 30,5 29.4375,4.9375 28.875,4.875 28.8125,4.9375 28.75,5 28.875,4.875 Q 29,4.75 29,4.5 V 4.25 4.625 5 L 28.875,4.625 M 30.03125,5.09375 30,5 29.90625,4.71875 29.8125,4.4375 29.875,4.625 Q 29.9375,4.8125 30,5 L 30.0625,5.1875 30.03125,5.09375 M 29.4375,3.9375 29.25,3.75 29.1875,3.6875 29.125,3.625 29.25,3.75 Q 29.375,3.875 29.5,4 l 0.125,0.125 -0.1875,-0.1875"
       id="path933" />
    <path
       style="fill:#e07000;fill-opacity:1"
       d="M 4,5.5 Q 4.25,5.25 4.625,5.125 5,5 5.5,5 H 6 L 5.875,5.375 Q 5.75,5.75 5.375,5.875 5,6 4.625,6.125 4.25,6.25 4,6.5 3.75,6.75 3.375,6.875 3,7 2.453125,6.953125 L 1.90625,6.90625 1.859375,6.984375 1.8125,7.0625 1.90625,6.90625 Q 2,6.75 2,6.5 V 6.25 6.625 7 6.5 6 H 2.5 Q 3,6 3.375,5.875 3.75,5.75 4,5.5 M 2,5.875 V 6 6.375 6.75 6.5 Q 2,6.25 2,6 V 5.75 5.875"
       id="path935" />
    <path
       style="fill:#606060;fill-opacity:1"
       d="M 15.046875,5.453125 15.09375,4.90625 15.046875,4.828125 15,4.75 15.09375,4.90625 Q 15.1875,5.0625 15.375,5.125 L 15.5625,5.1875 15.28125,5.09375 15,5 15.375,5.125 Q 15.75,5.25 16,5.5 L 16.25,5.75 16.0625,5.5625 15.875,5.375 16,5.5 q 0.125,0.125 0.28125,0.21875 L 16.4375,5.8125 16.359375,5.765625 16.28125,5.71875 15.984375,6.015625 15.6875,6.3125 15.75,6.375 15.8125,6.4375 15.6875,6.3125 Q 15.5625,6.1875 15.375,6.125 L 15.1875,6.0625 15.46875,6.15625 15.75,6.25 15.375,6.125 15,6 15.046875,5.453125"
       id="path937" />
    <path
       style="fill:#ffffff;fill-opacity:1"
       d="M 16,5.5 15.75,5.25 15.9375,5.4375 16.125,5.625 16,5.5 Q 15.875,5.375 15.71875,5.28125 L 15.5625,5.1875 15.640625,5.234375 15.71875,5.28125 15.984375,5.015625 Q 16.25,4.75 16.625,4.875 L 17,5 16.96875,5.53125 16.9375,6.0625 17,6.125 17.0625,6.1875 16.9375,6.0625 Q 16.8125,5.9375 16.625,5.875 L 16.4375,5.8125 16.71875,5.90625 17,6 16.625,5.875 Q 16.25,5.75 16,5.5"
       id="path939" />
    <path
       style="fill:#e0e0e0;fill-opacity:1"
       d="M 16.96875,5.53125 17,5 H 17.5 18 L 17.875,5.375 Q 17.75,5.75 17.34375,5.90625 L 16.9375,6.0625 16.96875,5.53125"
       id="path941" />
    <path
       style="fill:#c0c0c0;fill-opacity:1"
       d="M 17.875,5.375 18,5 18.375,5.125 Q 18.75,5.25 18.75,5.5 18.75,5.75 18.5,6 18.25,6.25 18,6.5 17.75,6.75 17.5,6.75 17.25,6.75 17.125,6.375 L 17,6 17.09375,6.28125 17.1875,6.5625 17.125,6.375 Q 17.0625,6.1875 16.9375,6.0625 L 16.8125,5.9375 16.875,6 16.9375,6.0625 17.34375,5.90625 Q 17.75,5.75 17.875,5.375"
       id="path943" />
    <path
       style="fill:#404040;fill-opacity:1"
       d="M 18.75,5.5 V 5.25 5.4375 5.625 5.5 q 0,-0.125 -0.09375,-0.21875 L 18.5625,5.1875 18.609375,5.234375 18.65625,5.28125 18.96875,5 19.28125,4.71875 19.203125,4.671875 19.125,4.625 19.28125,4.71875 Q 19.4375,4.8125 19.625,4.875 L 19.8125,4.9375 19.53125,4.84375 19.25,4.75 19.625,4.875 20,5 20.125,5.375 Q 20.25,5.75 20.5,6 20.75,6.25 20.875,6.625 L 21,7 H 20.5 20 L 19.875,6.625 Q 19.75,6.25 19.5,6.25 H 19.25 19.4375 19.625 19.5 q -0.125,0 -0.25,0.0625 L 19.125,6.375 19.1875,6.34375 19.25,6.3125 18.96875,6.03125 18.6875,5.75 18.65625,5.8125 18.625,5.875 18.6875,5.75 Q 18.75,5.625 18.75,5.5 V 5.375 5.5625 5.75 5.5 M 20.625,7 H 21 21.125 21.25 21 q -0.25,0 -0.5,0 h -0.25 0.375"
       id="path945" />
    <path
       style="fill:#606060;fill-opacity:1"
       d="M 20.125,5.375 20,5 h 0.5 Q 21,5 21.375,4.875 L 21.75,4.75 21.46875,4.84375 21.1875,4.9375 21.375,4.875 Q 21.5625,4.8125 21.65625,4.71875 L 21.75,4.625 21.703125,4.671875 21.65625,4.71875 21.953125,4.984375 Q 22.25,5.25 22.125,5.625 L 22,6 21.625,5.875 Q 21.25,5.75 20.984375,6.015625 L 20.71875,6.28125 20.765625,6.359375 20.8125,6.4375 20.71875,6.28125 Q 20.625,6.125 20.5,6 L 20.375,5.875 20.5625,6.0625 20.75,6.25 20.5,6 Q 20.25,5.75 20.125,5.375"
       id="path947" />
    <path
       style="fill:#808080;fill-opacity:1"
       d="M 23.125,5.625 Q 23.25,5.25 23.5,5.25 23.75,5.25 24.03125,5 L 24.3125,4.75 24.28125,4.6875 24.25,4.625 24.3125,4.75 Q 24.375,4.875 24.5,5 L 24.625,5.125 24.4375,4.9375 24.25,4.75 24.5,5 q 0.25,0.25 0.375,0.625 L 25,6 H 24.5 Q 24,6 23.5,6 H 23 L 23.125,5.625 M 24.625,6 H 25 25.125 25.25 25 q -0.25,0 -0.5,0 h -0.25 0.375"
       id="path949" />
    <path
       style="fill:#a0a0a0;fill-opacity:1"
       d="M 27,5.5 26.75,5.25 27.046875,4.984375 27.34375,4.71875 27.296875,4.671875 27.25,4.625 27.34375,4.71875 Q 27.4375,4.8125 27.625,4.875 L 27.8125,4.9375 27.53125,4.84375 27.25,4.75 27.625,4.875 Q 28,5 28.5,5 H 29 28.625 28.25 28.5 q 0.25,0 0.375,-0.125 L 29,4.75 28.9375,4.8125 28.875,4.875 29.0625,5.3125 Q 29.25,5.75 29.5,6 29.75,6.25 30,6.5 30.25,6.75 30.5,7 30.75,7.25 31,7.5 L 31.25,7.75 31.0625,7.5625 30.875,7.375 31,7.5 q 0.125,0.125 0.28125,0.21875 L 31.4375,7.8125 31.359375,7.765625 31.28125,7.71875 31,8 30.71875,8.28125 30.765625,8.359375 30.8125,8.4375 30.71875,8.28125 Q 30.625,8.125 30.5,8 L 30.375,7.875 30.5625,8.0625 30.75,8.25 30.5,8 Q 30.25,7.75 30,7.5 29.75,7.25 29.5,7 29.25,6.75 29,6.5 28.75,6.25 28.375,6.125 28,6 27.625,5.875 27.25,5.75 27,5.5 M 26.6875,5.1875 26.75,5.25 26.9375,5.4375 27.125,5.625 27,5.5 Q 26.875,5.375 26.75,5.25 l -0.125,-0.125 0.0625,0.0625"
       id="path951" />
    <path
       style="fill:#c0c0c0;fill-opacity:1"
       d="M 29.0625,5.3125 28.875,4.875 29.4375,4.9375 30,5 30.125,5.375 30.25,5.75 30.15625,5.46875 30.0625,5.1875 30.125,5.375 q 0.0625,0.1875 0.15625,0.34375 L 30.375,5.875 30.328125,5.796875 30.28125,5.71875 30.015625,5.984375 29.75,6.25 29.5,6 Q 29.25,5.75 29.0625,5.3125 m 0.5,0.75 L 29.75,6.25 29.8125,6.3125 29.875,6.375 29.75,6.25 Q 29.625,6.125 29.5,6 L 29.375,5.875 29.5625,6.0625 M 30.09375,5.28125 30,5 29.96875,4.90625 29.9375,4.8125 30,5 q 0.0625,0.1875 0.125,0.375 l 0.0625,0.1875 -0.09375,-0.28125"
       id="path953" />
    <path
       style="fill:#c06000;fill-opacity:1"
       d="M 4,6.5 Q 4.25,6.25 4.625,6.125 L 5,6 4.875,6.375 Q 4.75,6.75 4.5,7 4.25,7.25 4,7.5 3.75,7.75 3.375,7.875 3,8 2.625,8.125 2.25,8.25 2,8.5 1.75,8.75 1.390625,8.859375 L 1.03125,8.96875 1.046875,9.078125 1.0625,9.1875 1.03125,8.96875 Q 1,8.75 1,8.5 V 8.25 8.625 9 8.5 Q 1,8 1.125,7.625 1.25,7.25 1.625,7.125 L 2,7 1.71875,7.09375 1.4375,7.1875 1.625,7.125 Q 1.8125,7.0625 1.90625,6.90625 L 2,6.75 1.953125,6.828125 1.90625,6.90625 2.453125,6.953125 Q 3,7 3.375,6.875 3.75,6.75 4,6.5 M 5.09375,5.96875 5,6 4.71875,6.09375 4.4375,6.1875 4.625,6.125 Q 4.8125,6.0625 5,6 L 5.1875,5.9375 5.09375,5.96875"
       id="path955" />
    <path
       style="fill:#a05000;fill-opacity:1"
       d="m 11.125,6.625 q 0.125,-0.375 0.5,-0.5 L 12,6 11.71875,6.09375 11.4375,6.1875 11.625,6.125 Q 11.8125,6.0625 12.03125,6.03125 L 12.25,6 12.140625,6.015625 12.03125,6.03125 12.015625,6.515625 Q 12,7 12.03125,7.53125 L 12.0625,8.0625 12.125,8 12.1875,7.9375 12.0625,8.0625 Q 11.9375,8.1875 11.875,8.375 L 11.8125,8.5625 11.90625,8.28125 12,8 11.875,8.375 Q 11.75,8.75 11.5,9 11.25,9.25 11.125,9.625 L 11,10 V 9.625 9.25 9.5 q 0,0.25 0.09375,0.40625 L 11.1875,10.0625 11.140625,9.984375 11.09375,9.90625 11.046875,10.453125 11,11 10.625,11.125 q -0.375,0.125 -0.5,0.5 Q 10,12 10,12.5 V 13 H 9.5 Q 9,13 8.5,13 H 8 8.375 8.75 8.5 Q 8.25,13 8.03125,12.96875 L 7.8125,12.9375 7.921875,12.953125 8.03125,12.96875 8.140625,12.609375 Q 8.25,12.25 8.5,12 8.75,11.75 8.875,11.375 9,11 9.125,10.625 9.25,10.25 9.5,10 9.75,9.75 9.875,9.375 10,9 10.125,8.625 10.25,8.25 10.5,8 10.75,7.75 10.875,7.375 11,7 11.125,6.625"
       id="path957" />
    <path
       style="fill:#c06000;fill-opacity:1"
       d="M 12.015625,6.515625 12.03125,6.03125 11.921875,6.046875 11.8125,6.0625 12.03125,6.03125 Q 12.25,6 12.5,6 H 12.75 12.375 12 12.5 13 v 0.5 q 0,0.5 -0.125,0.875 -0.125,0.375 -0.5,0.5 L 12,8 12.28125,7.90625 12.5625,7.8125 12.375,7.875 Q 12.1875,7.9375 12.0625,8.0625 L 11.9375,8.1875 12,8.125 12.0625,8.0625 12.03125,7.53125 Q 12,7 12.015625,6.515625"
       id="path959" />
    <path
       style="fill:#ffffff;fill-opacity:1"
       d="M 13,6.5 V 6 h 0.5 0.5 l 0.125,0.375 Q 14.25,6.75 14.5,6.75 q 0.25,0 0.375,-0.375 L 15,6 15.375,6.125 q 0.375,0.125 0.5,0.53125 L 16,7.0625 H 16.09375 16.1875 16 q -0.1875,0 -0.375,0.0625 L 15.4375,7.1875 15.71875,7.09375 16,7 15.625,7.125 q -0.375,0.125 -0.5,0.5 L 15,8 H 14.5 14 14.375 14.75 14.5 Q 14.25,8 14.03125,8.03125 L 13.8125,8.0625 13.921875,8.046875 14.03125,8.03125 13.890625,7.640625 Q 13.75,7.25 13.359375,7.109375 L 12.96875,6.96875 12.953125,7.078125 12.9375,7.1875 12.96875,6.96875 Q 13,6.75 13,6.5 V 6.25 6.625 7 6.5 M 14.625,8 H 15 15.125 15.25 15 q -0.25,0 -0.5,0 h -0.25 0.375 m -0.5,-2 H 14 13.625 13.25 13.5 q 0.25,0 0.5,0 h 0.25 -0.125"
       id="path961" />
    <path
       style="fill:#c0c0c0;fill-opacity:1"
       d="M 14.125,6.375 14,6 H 14.5 15 L 14.875,6.375 Q 14.75,6.75 14.5,6.75 14.25,6.75 14.125,6.375 M 14.375,6 H 14 13.875 13.75 14 q 0.25,0 0.5,0 h 0.25 -0.375"
       id="path963" />
    <path
       style="fill:#404040;fill-opacity:1"
       d="M 15.875,6.65625 15.75,6.25 15.84375,6.53125 15.9375,6.8125 15.875,6.625 Q 15.8125,6.4375 15.6875,6.3125 L 15.5625,6.1875 15.625,6.25 15.6875,6.3125 15.984375,6.015625 16.28125,5.71875 16.203125,5.671875 16.125,5.625 16.28125,5.71875 Q 16.4375,5.8125 16.625,5.875 L 16.8125,5.9375 16.53125,5.84375 16.25,5.75 16.625,5.875 Q 17,6 17.125,6.375 17.25,6.75 17.5,6.75 H 17.75 17.5625 17.375 17.5 q 0.125,0 0.25,-0.0625 L 17.875,6.625 17.8125,6.65625 17.75,6.6875 18.015625,6.984375 18.28125,7.28125 18.328125,7.203125 18.375,7.125 18.28125,7.28125 Q 18.1875,7.4375 18.125,7.625 L 18.0625,7.8125 18.15625,7.53125 18.25,7.25 18.125,7.625 18,8 17.484375,8.015625 16.96875,8.03125 16.984375,8.140625 17,8.25 16.96875,8.03125 Q 16.9375,7.8125 16.875,7.625 L 16.8125,7.4375 16.90625,7.71875 17,8 16.875,7.625 Q 16.75,7.25 16.375,7.125 L 16,7 16.28125,7.09375 16.5625,7.1875 16.375,7.125 Q 16.1875,7.0625 16,7.0625 H 15.8125 15.90625 16 L 15.875,6.65625"
       id="path965" />
    <path
       style="fill:#606060;fill-opacity:1"
       d="M 18,6.5 Q 18.25,6.25 18.5,6 L 18.75,5.75 18.5625,5.9375 18.375,6.125 18.5,6 Q 18.625,5.875 18.6875,5.75 L 18.75,5.625 18.71875,5.6875 18.6875,5.75 18.96875,6.03125 19.25,6.3125 19.3125,6.28125 19.375,6.25 19.25,6.3125 Q 19.125,6.375 19,6.5 L 18.875,6.625 19.0625,6.4375 19.25,6.25 19,6.5 Q 18.75,6.75 18.5,7 L 18.25,7.25 18.4375,7.0625 18.625,6.875 18.5,7 Q 18.375,7.125 18.28125,7.28125 L 18.1875,7.4375 18.234375,7.359375 18.28125,7.28125 18.015625,6.984375 17.75,6.6875 17.6875,6.71875 17.625,6.75 17.75,6.6875 Q 17.875,6.625 18,6.5 L 18.125,6.375 17.9375,6.5625 17.75,6.75 18,6.5"
       id="path967" />
    <path
       style="fill:#808080;fill-opacity:1"
       d="m 19,6.5 q 0.25,-0.25 0.5,-0.25 0.25,0 0.375,0.375 L 20,7 19.625,7.125 Q 19.25,7.25 19,7.5 18.75,7.75 18.375,7.875 L 18,8 18.125,7.625 Q 18.25,7.25 18.5,7 18.75,6.75 19,6.5"
       id="path969" />
    <path
       style="fill:#808080;fill-opacity:1"
       d="M 20.875,6.625 20.75,6.25 20.84375,6.53125 20.9375,6.8125 20.875,6.625 Q 20.8125,6.4375 20.71875,6.28125 L 20.625,6.125 20.671875,6.203125 20.71875,6.28125 20.984375,6.015625 Q 21.25,5.75 21.625,5.875 L 22,6 21.984375,6.515625 21.96875,7.03125 22.078125,7.046875 22.1875,7.0625 21.96875,7.03125 Q 21.75,7 21.5,7 H 21.25 21.625 22 21.5 21 L 20.875,6.625 m 0,0.375 H 21 21.375 21.75 21.5 Q 21.25,7 21,7 h -0.25 0.125"
       id="path971" />
    <path
       style="fill:#002020;fill-opacity:1"
       d="M 21.984375,6.515625 22,6 V 6.375 6.75 6.5 Q 22,6.25 22.03125,6.03125 L 22.0625,5.8125 22.046875,5.921875 22.03125,6.03125 22.515625,6.015625 23,6 23.125,6.375 q 0.125,0.375 0.5,0.5 Q 24,7 24.375,7.125 24.75,7.25 25,7.5 25.25,7.75 25.5,8 25.75,8.25 26,8.5 26.25,8.75 26.5,9 26.75,9.25 27,9.5 27.25,9.75 27.640625,9.859375 L 28.03125,9.96875 28.015625,9.859375 28,9.75 28.03125,9.96875 Q 28.0625,10.1875 28.125,10.375 L 28.1875,10.5625 28.09375,10.28125 28,10 28.125,10.375 Q 28.25,10.75 28.5,11 q 0.25,0.25 0.25,0.5 0,0.25 -0.375,0.375 L 28,12 28.28125,11.90625 28.5625,11.8125 28.375,11.875 q -0.1875,0.0625 -0.40625,0.09375 L 27.75,12 27.859375,11.984375 27.96875,11.96875 27.859375,11.609375 Q 27.75,11.25 27.5,11 27.25,10.75 27,10.5 26.75,10.25 26.5,10 26.25,9.75 26,9.5 25.75,9.25 25.5,9 25.25,8.75 25,8.5 24.75,8.25 24.375,8.125 24,8 23.625,7.875 23.25,7.75 23,7.5 22.75,7.25 22.375,7.125 L 22,7 22.28125,7.09375 22.5625,7.1875 22.375,7.125 Q 22.1875,7.0625 21.96875,7.03125 L 21.75,7 21.859375,7.015625 21.96875,7.03125 21.984375,6.515625"
       id="path973" />
    <path
       style="fill:#c06000;fill-opacity:1"
       d="M 23.125,6.375 23,6 h 0.5 q 0.5,0 1,0 0.5,0 1,0 H 26 l 0.375,0.125 Q 26.75,6.25 27,6.5 27.25,6.75 27.5,7 27.75,7.25 27.9375,7.6875 L 28.125,8.125 28.1875,8.0625 28.25,8 28.125,8.125 Q 28,8.25 28,8.5 V 8.75 8.375 8 8.5 q 0,0.5 0,1 V 10 9.625 9.25 9.5 q 0,0.25 0.03125,0.46875 L 28.0625,10.1875 28.046875,10.078125 28.03125,9.96875 27.640625,9.859375 Q 27.25,9.75 27,9.5 26.75,9.25 26.5,9 26.25,8.75 26,8.5 25.75,8.25 25.5,8 25.25,7.75 25,7.5 24.75,7.25 24.375,7.125 24,7 23.625,6.875 23.25,6.75 23.125,6.375"
       id="path975" />
    <path
       style="fill:#e0e0e0;fill-opacity:1"
       d="M 30,6.5 29.75,6.25 30.015625,5.984375 30.28125,5.71875 30.234375,5.640625 30.1875,5.5625 30.28125,5.71875 Q 30.375,5.875 30.5,6 L 30.625,6.125 30.4375,5.9375 30.25,5.75 30.5,6 Q 30.75,6.25 31,6.5 L 31.25,6.75 31.0625,6.5625 30.875,6.375 31,6.5 q 0.125,0.125 0.28125,0.21875 L 31.4375,6.8125 31.359375,6.765625 31.28125,6.71875 31.015625,6.984375 30.75,7.25 30.5,7 Q 30.25,6.75 30,6.5 M 30.5625,7.0625 30.75,7.25 30.8125,7.3125 30.875,7.375 30.75,7.25 Q 30.625,7.125 30.5,7 L 30.375,6.875 30.5625,7.0625 M 29.6875,6.1875 29.75,6.25 29.9375,6.4375 30.125,6.625 30,6.5 Q 29.875,6.375 29.75,6.25 l -0.125,-0.125 0.0625,0.0625"
       id="path977" />
    <path
       style="fill:#c06000;fill-opacity:1"
       d="M 8,7.5 Q 8.25,7.25 8.625,7.125 9,7 9.5,7 H 10 L 9.875,7.375 Q 9.75,7.75 9.5,8 9.25,8.25 9.125,8.625 9,9 8.875,9.375 8.75,9.75 8.5,10 8.25,10.25 8.125,10.625 8,11 7.875,11.375 7.75,11.75 7.375,11.875 7,12 6.5,12 6,12 5.5,12 5,12 4.625,11.875 4.25,11.75 4.109375,11.359375 L 3.96875,10.96875 3.859375,10.984375 3.75,11 3.96875,10.96875 Q 4.1875,10.9375 4.375,10.875 L 4.5625,10.8125 4.28125,10.90625 4,11 4.375,10.875 Q 4.75,10.75 5,10.5 5.25,10.25 5.5,10 5.75,9.75 6,9.5 6.25,9.25 6.5,9 6.75,8.75 7,8.5 7.25,8.25 7.5,8 7.75,7.75 8,7.5 M 9.90625,7.28125 10,7 10.03125,6.90625 10.0625,6.8125 10,7 Q 9.9375,7.1875 9.875,7.375 L 9.8125,7.5625 9.90625,7.28125"
       id="path979" />
    <path
       style="fill:#c0c0c0;fill-opacity:1"
       d="M 12.875,7.375 13,7 12.90625,7.28125 12.8125,7.5625 12.875,7.375 Q 12.9375,7.1875 12.96875,6.96875 L 13,6.75 12.984375,6.859375 12.96875,6.96875 13.359375,7.109375 Q 13.75,7.25 13.890625,7.640625 L 14.03125,8.03125 14.140625,8.015625 14.25,8 14.03125,8.03125 Q 13.8125,8.0625 13.625,8.125 L 13.4375,8.1875 13.71875,8.09375 14,8 13.625,8.125 13.25,8.25 13.53125,8.15625 13.8125,8.0625 13.625,8.125 Q 13.4375,8.1875 13.34375,8.28125 L 13.25,8.375 13.296875,8.328125 13.34375,8.28125 13.015625,7.984375 12.6875,7.6875 12.625,7.75 12.5625,7.8125 12.6875,7.6875 Q 12.8125,7.5625 12.875,7.375 L 12.9375,7.1875 12.84375,7.46875 12.75,7.75 12.875,7.375"
       id="path981" />
    <path
       style="fill:#c0c0c0;fill-opacity:1"
       d="m 15.125,7.625 q 0.125,-0.375 0.5,-0.5 L 16,7 V 7.5 8 H 15.5 15 L 15.125,7.625 M 14.875,8 H 15 15.375 15.75 15.5 Q 15.25,8 15,8 h -0.25 0.125"
       id="path983" />
    <path
       style="fill:#a0a0a0;fill-opacity:1"
       d="M 16,7.5 V 7 l 0.375,0.125 q 0.375,0.125 0.5,0.5 L 17,8 H 16.5 16 V 7.5"
       id="path985" />
    <path
       style="fill:#002020;fill-opacity:1"
       d="M 19,7.5 Q 19.25,7.25 19.625,7.125 L 20,7 20.125,7.375 Q 20.25,7.75 20.5,8 20.75,8.25 20.875,8.625 21,9 21.125,9.375 21.25,9.75 21.5,10 21.75,10.25 21.875,10.625 22,11 22.125,11.375 22.25,11.75 22.5,12 q 0.25,0.25 0.375,0.625 0.125,0.375 0.25,0.75 0.125,0.375 0.5,0.5 L 24,14 23.71875,13.90625 23.4375,13.8125 23.625,13.875 Q 23.8125,13.9375 24,13.9375 H 24.1875 24.09375 24 v 0.53125 Q 24,15 24,15.5 24,16 23.875,16.375 23.75,16.75 23.5,16.75 23.25,16.75 23.125,16.375 23,16 23,15.5 23,15 22.875,14.625 22.75,14.25 22.5,14 22.25,13.75 22.125,13.375 22,13 21.875,12.625 21.75,12.25 21.5,12 21.25,11.75 21.125,11.375 21,11 20.875,10.625 20.75,10.25 20.5,10 20.25,9.75 20.125,9.375 20,9 19.875,8.625 19.75,8.25 19.5,8.25 19.25,8.25 19.125,8.625 19,9 19,9.5 q 0,0.5 0,1 0,0.5 -0.125,0.875 Q 18.75,11.75 18.5,12 18.25,12.25 18.125,12.625 18,13 17.875,13.375 17.75,13.75 17.5,14 17.25,14.25 17.125,14.625 L 17,15 H 16.5 16 16.375 16.75 16.5 q -0.25,0 -0.46875,0.03125 l -0.21875,0.03125 0.109375,-0.01563 0.109375,-0.01563 -0.01563,-0.515625 Q 16,14 16,13.5 V 13 l 0.375,-0.125 q 0.375,-0.125 0.5,-0.5 Q 17,12 17.125,11.625 17.25,11.25 17.5,11 17.75,10.75 17.875,10.375 18,10 18,9.5 18,9 18,8.5 V 8 L 18.375,7.875 Q 18.75,7.75 19,7.5 m -3,5.375 V 13 13.375 13.75 13.5 q 0,-0.25 0,-0.5 v -0.25 0.125 M 16.625,15 H 17 17.125 17.25 17 q -0.25,0 -0.5,0 h -0.25 0.375"
       id="path987" />
    <path
       style="fill:#a05000;fill-opacity:1"
       d="M 20.125,7.375 20,7 h 0.5 Q 21,7 21.5,7 22,7 22.375,7.125 22.75,7.25 23,7.5 23.25,7.75 23.625,7.875 24,8 24.375,8.125 24.75,8.25 25,8.5 q 0.25,0.25 0.5,0.5 0.25,0.25 0.5,0.5 0.25,0.25 0.5,0.5 0.25,0.25 0.5,0.5 0.25,0.25 0.5,0.5 0.25,0.25 0.359375,0.609375 l 0.109375,0.359375 0.109375,-0.01563 0.109375,-0.01563 -0.21875,0.03125 Q 27.75,12 27.5,12 H 27.25 27.625 28 27.5 Q 27,12 26.46875,12 H 25.9375 V 12.09375 12.1875 12 q 0,-0.1875 -0.0625,-0.375 L 25.8125,11.4375 25.90625,11.71875 26,12 25.875,11.625 Q 25.75,11.25 25.5,11 25.25,10.75 25,10.5 24.75,10.25 24.375,10.125 24,10 23.625,9.875 23.25,9.75 23,9.5 22.75,9.25 22.375,9.125 22,9 21.5,9 H 21 L 20.875,8.625 Q 20.75,8.25 20.5,8 20.25,7.75 20.125,7.375 M 20.90625,8.71875 21,9 21.03125,9.09375 21.0625,9.1875 21,9 Q 20.9375,8.8125 20.875,8.625 l -0.0625,-0.1875 0.09375,0.28125"
       id="path989" />
    <path
       style="fill:#808080;fill-opacity:1"
       d="M 27.9375,7.6875 27.75,7.25 27.84375,7.53125 27.9375,7.8125 27.875,7.625 Q 27.8125,7.4375 27.71875,7.28125 L 27.625,7.125 27.671875,7.203125 27.71875,7.28125 27.984375,7.015625 Q 28.25,6.75 28.5,7 28.75,7.25 29,7.5 29.25,7.75 29.5,8 29.75,8.25 29.890625,8.609375 L 30.03125,8.96875 30.140625,8.984375 30.25,9 30.03125,8.96875 Q 29.8125,8.9375 29.625,8.875 L 29.4375,8.8125 29.71875,8.90625 30,9 29.625,8.875 Q 29.25,8.75 29,8.5 28.75,8.25 28.375,8.125 L 28,8 H 28.375 28.75 28.5 Q 28.25,8 28.125,8.125 L 28,8.25 28.0625,8.1875 28.125,8.125 27.9375,7.6875"
       id="path991" />
    <path
       style="fill:#404040;fill-opacity:1"
       d="M 29,7.5 28.75,7.25 29,7 29.25,6.75 29.5,7 q 0.25,0.25 0.5,0.5 0.25,0.25 0.5,0.5 0.25,0.25 0.375,0.625 L 31,9 H 30.5 30 30.375 30.75 30.5 Q 30.25,9 30.03125,8.96875 L 29.8125,8.9375 29.921875,8.953125 30.03125,8.96875 29.890625,8.609375 Q 29.75,8.25 29.5,8 29.25,7.75 29,7.5 M 30.625,9 H 31 31.125 31.25 31 q -0.25,0 -0.5,0 h -0.25 0.375 M 29.4375,6.9375 29.25,6.75 29.1875,6.6875 29.125,6.625 29.25,6.75 Q 29.375,6.875 29.5,7 l 0.125,0.125 -0.1875,-0.1875 m -0.75,0.25 L 28.75,7.25 28.9375,7.4375 29.125,7.625 29,7.5 Q 28.875,7.375 28.75,7.25 l -0.125,-0.125 0.0625,0.0625"
       id="path993" />
    <path
       style="fill:#c0c0c0;fill-opacity:1"
       d="M 31,7.5 30.75,7.25 31.015625,6.984375 31.28125,6.71875 31.203125,6.671875 31.125,6.625 31.28125,6.71875 Q 31.4375,6.8125 31.625,6.875 L 31.8125,6.9375 31.53125,6.84375 31.25,6.75 31.625,6.875 32,7 V 7.5 8 L 31.625,7.875 Q 31.25,7.75 31,7.5 M 30.6875,7.1875 30.75,7.25 30.9375,7.4375 31.125,7.625 31,7.5 Q 30.875,7.375 30.75,7.25 l -0.125,-0.125 0.0625,0.0625"
       id="path995" />
    <path
       style="fill:#e0e0e0;fill-opacity:1"
       d="M 11.875,8.375 Q 12,8 12.375,7.875 L 12.75,7.75 12.46875,7.84375 12.1875,7.9375 12.375,7.875 Q 12.5625,7.8125 12.6875,7.6875 L 12.8125,7.5625 12.75,7.625 12.6875,7.6875 13.015625,7.984375 13.34375,8.28125 13.390625,8.234375 13.4375,8.1875 13.34375,8.28125 Q 13.25,8.375 13.25,8.5 V 8.625 8.4375 8.25 8.5 8.75 8.5625 8.375 8.5 q 0,0.125 0.09375,0.21875 L 13.4375,8.8125 13.390625,8.765625 13.34375,8.71875 13.015625,9.015625 12.6875,9.3125 12.71875,9.34375 12.75,9.375 12.6875,9.3125 Q 12.625,9.25 12.5,9.25 H 12.375 12.5625 12.75 12.5 q -0.25,0 -0.25,0.25 0,0.25 0.25,0.25 H 12.75 12.5625 12.375 12.5 q 0.125,0 0.1875,-0.0625 L 12.75,9.625 12.71875,9.65625 12.6875,9.6875 12.984375,9.984375 13.28125,10.28125 13.328125,10.203125 13.375,10.125 13.28125,10.28125 Q 13.1875,10.4375 13.125,10.625 L 13.0625,10.8125 13.15625,10.53125 13.25,10.25 13.125,10.625 13,11 12.625,10.875 Q 12.25,10.75 12,10.5 11.75,10.25 11.375,10.125 11,10 11.125,9.625 11.25,9.25 11.5,9 11.75,8.75 11.875,8.375 M 12.71875,10.90625 13,11 13.09375,11.03125 13.1875,11.0625 13,11 q -0.1875,-0.0625 -0.375,-0.125 l -0.1875,-0.0625 0.28125,0.09375"
       id="path997" />
    <path
       style="fill:#404040;fill-opacity:1"
       d="m 13.25,8.5 q 0,-0.25 0.375,-0.375 Q 14,8 14.5,8 H 15 l 0.125,0.375 Q 15.25,8.75 15.5,9 15.75,9.25 16.03125,8.96875 L 16.3125,8.6875 16.25,8.625 16.1875,8.5625 l 0.125,0.125 q 0.125,0.125 0.3125,0.1875 L 16.8125,8.9375 16.53125,8.84375 16.25,8.75 16.625,8.875 17,9 V 9.5 10 9.625 9.25 9.5 q 0,0.25 -0.03125,0.46875 L 16.9375,10.1875 16.953125,10.078125 16.96875,9.96875 16.609375,10.109375 16.25,10.25 16.53125,10.15625 16.8125,10.0625 16.625,10.125 q -0.1875,0.0625 -0.34375,0.15625 L 16.125,10.375 l 0.07813,-0.04687 0.07813,-0.04687 -0.265625,-0.265625 Q 15.75,9.75 15.375,9.875 L 15,10 14.875,9.625 Q 14.75,9.25 14.375,9.125 L 14,9 13.625,8.875 Q 13.25,8.75 13.25,8.5 M 17,9.375 V 9 8.875 8.75 9 q 0,0.25 0,0.5 V 9.75 9.375"
       id="path999" />
    <path
       style="fill:#606060;fill-opacity:1"
       d="M 15.125,8.375 15,8 H 15.5 16 L 16.125,8.375 16.25,8.75 16.15625,8.46875 16.0625,8.1875 16.125,8.375 q 0.0625,0.1875 0.1875,0.3125 l 0.125,0.125 L 16.375,8.75 16.3125,8.6875 16.03125,8.96875 Q 15.75,9.25 15.5,9 15.25,8.75 15.125,8.375"
       id="path1001" />
    <path
       style="fill:#808080;fill-opacity:1"
       d="M 16.125,8.375 16,8 H 16.5 17 V 8.5 9 L 16.625,8.875 Q 16.25,8.75 16.125,8.375 M 17,9.125 V 9 8.625 8.25 8.5 Q 17,8.75 17,9 V 9.25 9.125"
       id="path1003" />
    <path
       style="fill:#000000;fill-opacity:0"
       d="M 17,8.5 V 8 8.375 8.75 8.5 Q 17,8.25 16.96875,8.03125 L 16.9375,7.8125 16.953125,7.921875 16.96875,8.03125 17.484375,8.015625 18,8 v 0.5 q 0,0.5 0,1 0,0.5 -0.125,0.875 Q 17.75,10.75 17.5,11 17.25,11.25 17.125,11.625 17,12 16.875,12.375 q -0.125,0.375 -0.5,0.5 L 16,13 V 12.5 Q 16,12 16.125,11.625 16.25,11.25 16.5,11 16.75,10.75 16.875,10.375 17,10 17,9.5 17,9 17,8.5 m -1,4.125 V 13 13.125 13.25 13 q 0,-0.25 0,-0.5 v -0.25 0.375"
       id="path1005" />
    <path
       style="fill:#a05000;fill-opacity:1"
       d="M 19.125,8.625 Q 19.25,8.25 19.5,8.25 q 0.25,0 0.375,0.375 Q 20,9 20.125,9.375 20.25,9.75 20.5,10 20.75,10.25 20.875,10.625 21,11 21.125,11.375 21.25,11.75 21.5,12 21.75,12.25 21.875,12.625 22,13 22.125,13.375 22.25,13.75 22.5,14 22.75,14.25 22.875,14.625 23,15 23,15.5 V 16 15.625 15.25 15.5 q 0,0.25 0.03125,0.46875 L 23.0625,16.1875 23.046875,16.078125 23.03125,15.96875 22.640625,15.859375 Q 22.25,15.75 22,15.5 21.75,15.25 21.375,15.125 L 21,15 21.28125,15.09375 21.5625,15.1875 21.375,15.125 Q 21.1875,15.0625 20.96875,15.03125 L 20.75,15 l 0.109375,0.01563 0.109375,0.01563 0.01563,-0.515625 Q 21,14 20.875,13.625 20.75,13.25 20.5,13 20.25,12.75 20.125,12.375 20,12 20,11.5 20,11 19.875,10.625 19.75,10.25 19.375,10.125 L 19,10 V 9.5 Q 19,9 19.125,8.625 M 19,9.625 V 10 10.125 10.25 10 Q 19,9.75 19,9.5 V 9.25 9.625"
       id="path1007" />
    <path
       style="fill:#000000;fill-opacity:0"
       d="M 28,8.5 Q 28,8 28.375,8.125 28.75,8.25 29,8.5 29.25,8.75 29.625,8.875 30,9 30.5,9 31,9 31.5,9 H 32 V 9.5 10 10.5 11 11.5 12 12.5 13 13.5 14 14.5 15 15.5 16 16.5 17 17.5 18 18.5 19 19.5 20 20.5 21 21.5 22 22.5 23 23.5 24 24.5 25 25.5 26 26.5 27 27.5 28 28.5 29 29.5 30 30.5 31 31.5 32 H 31.5 31 30.5 30 29.5 29 28.5 28 27.5 27 26.5 26 25.5 25 V 31.5 Q 25,31 25.5,31 26,31 26,30.5 26,30 26.5,30 27,30 27,29.5 27,29 27.5,29 q 0.5,0 1,0 0.5,0 0.5,-0.5 0,-0.5 0,-1 Q 29,27 29.5,27 30,27 30,26.5 30,26 30,25.5 30,25 29.5,25 29,25 29,25.5 29,26 28.5,26 q -0.5,0 -1,0 -0.5,0 -0.5,0.5 0,0.5 -0.375,0.625 -0.375,0.125 -0.5,0.5 Q 26,28 25.5,28 H 25 l 0.125,-0.375 Q 25.25,27.25 25.5,27 25.75,26.75 25.875,26.375 26,26 26,25.5 26,25 26,24.5 V 24 L 25.875,23.625 Q 25.75,23.25 25.5,23 25.25,22.75 25.125,22.375 25,22 24.875,21.625 24.75,21.25 24.375,21.125 L 24,21 23.875,20.625 23.75,20.25 23.84375,20.53125 23.9375,20.8125 23.875,20.625 Q 23.8125,20.4375 23.71875,20.34375 L 23.625,20.25 l 0.04687,0.04687 0.04687,0.04687 0.265625,-0.296875 Q 24.25,19.75 24.125,19.375 24,19 24,18.5 24,18 23.5,18 23,18 22.875,17.625 22.75,17.25 22.375,17.125 22,17 21.5,17 21,17 20.5,17 20,17 20,16.5 20,16 19.5,16 q -0.5,0 -1,0 -0.5,0 -1,0 -0.5,0 -1,0 Q 16,16 16,16.5 16,17 15.5,17 H 15 v -0.5 q 0,-0.5 0.125,-0.875 0.125,-0.375 0.5,-0.5 Q 16,15 16.5,15 q 0.5,0 1,0 0.5,0 1,0 0.5,0 1,0 0.5,0 1,0 0.5,0 0.875,0.125 0.375,0.125 0.625,0.375 0.25,0.25 0.640625,0.359375 L 23.03125,15.96875 23.015625,15.859375 23,15.75 23.03125,15.96875 Q 23.0625,16.1875 23.125,16.375 L 23.1875,16.5625 23.09375,16.28125 23,16 l 0.125,0.375 q 0.125,0.375 0.375,0.375 0.25,0 0.375,-0.375 Q 24,16 24,15.5 24,15 24,14.46875 V 13.9375 H 23.90625 23.8125 24 q 0.1875,0 0.375,-0.0625 L 24.5625,13.8125 24.28125,13.90625 24,14 24.375,13.875 Q 24.75,13.75 25,13.5 25.25,13.25 25.5,13 25.75,12.75 25.875,12.375 L 26,12 25.90625,12.28125 25.8125,12.5625 25.875,12.375 Q 25.9375,12.1875 25.9375,12 V 11.8125 11.90625 12 h 0.53125 Q 27,12 27.5,12 28,12 28.375,11.875 28.75,11.75 28.75,11.5 28.75,11.25 28.5,11 28.25,10.75 28.125,10.375 28,10 28,9.5 28,9 28,8.5 M 23.90625,20.71875 24,21 24.03125,21.09375 24.0625,21.1875 24,21 q -0.0625,-0.1875 -0.125,-0.375 l -0.0625,-0.1875 0.09375,0.28125"
       id="path1009" />
    <path
       style="fill:#808080;fill-opacity:1"
       d="M 30.875,8.625 30.75,8.25 30.84375,8.53125 30.9375,8.8125 30.875,8.625 Q 30.8125,8.4375 30.71875,8.28125 L 30.625,8.125 30.671875,8.203125 30.71875,8.28125 31,8 31.28125,7.71875 31.203125,7.671875 31.125,7.625 31.28125,7.71875 Q 31.4375,7.8125 31.625,7.875 L 31.8125,7.9375 31.53125,7.84375 31.25,7.75 31.625,7.875 32,8 V 8.5 9 H 31.5 31 L 30.875,8.625 m 0,0.375 H 31 31.375 31.75 31.5 Q 31.25,9 31,9 h -0.25 0.125"
       id="path1011" />
    <path
       style="fill:#a0a0a0;fill-opacity:1"
       d="m 12.25,9.5 q 0,-0.25 0.25,-0.25 0.25,0 0.25,0.25 0,0.25 -0.25,0.25 -0.25,0 -0.25,-0.25"
       id="path1013" />
    <path
       style="fill:#c0c0c0;fill-opacity:1"
       d="M 12.75,9.5 V 9.25 9.4375 9.625 9.5 q 0,-0.125 -0.0625,-0.1875 L 12.625,9.25 12.65625,9.28125 12.6875,9.3125 13.015625,9.015625 13.34375,8.71875 13.296875,8.671875 13.25,8.625 13.34375,8.71875 Q 13.4375,8.8125 13.625,8.875 L 13.8125,8.9375 13.53125,8.84375 13.25,8.75 13.625,8.875 14,9 13.875,9.375 Q 13.75,9.75 13.5,10 L 13.25,10.25 13.4375,10.0625 13.625,9.875 13.5,10 q -0.125,0.125 -0.21875,0.28125 l -0.09375,0.15625 0.04687,-0.07813 0.04687,-0.07813 L 12.984375,9.984375 12.6875,9.6875 12.65625,9.71875 12.625,9.75 12.6875,9.6875 Q 12.75,9.625 12.75,9.5 V 9.375 9.5625 9.75 9.5"
       id="path1015" />
    <path
       style="fill:#a0a0a0;fill-opacity:1"
       d="M 13.875,9.375 14,9 14.375,9.125 q 0.375,0.125 0.5,0.5 L 15,10 14.625,10.125 14.25,10.25 14.53125,10.15625 14.8125,10.0625 14.625,10.125 q -0.1875,0.0625 -0.28125,0.15625 L 14.25,10.375 14.296875,10.328125 14.34375,10.28125 14.03125,10 13.71875,9.71875 13.671875,9.796875 13.625,9.875 13.71875,9.71875 Q 13.8125,9.5625 13.875,9.375 L 13.9375,9.1875 13.84375,9.46875 13.75,9.75 13.875,9.375"
       id="path1017" />
    <path
       style="fill:#c06000;fill-opacity:1"
       d="M 21.125,9.375 21,9 h 0.5 Q 22,9 22.375,9.125 22.75,9.25 23,9.5 23.25,9.75 23.625,9.875 24,10 24.375,10.125 24.75,10.25 25,10.5 q 0.25,0.25 0.5,0.5 0.25,0.25 0.375,0.625 0.125,0.375 0,0.75 Q 25.75,12.75 25.5,13 25.25,13.25 25,13.5 24.75,13.75 24.375,13.875 24,14 23.625,13.875 23.25,13.75 23.125,13.375 23,13 22.875,12.625 22.75,12.25 22.5,12 22.25,11.75 22.125,11.375 22,11 21.875,10.625 21.75,10.25 21.5,10 21.25,9.75 21.125,9.375 M 20.96875,8.90625 21,9 21.09375,9.28125 21.1875,9.5625 21.125,9.375 Q 21.0625,9.1875 21,9 l -0.0625,-0.1875 0.03125,0.09375"
       id="path1019" />
    <path
       style="fill:#404040;fill-opacity:1"
       d="M 11.046875,10.453125 11.09375,9.90625 11.046875,9.828125 11,9.75 11.09375,9.90625 Q 11.1875,10.0625 11.375,10.125 L 11.5625,10.1875 11.28125,10.09375 11,10 11.375,10.125 Q 11.75,10.25 12,10.5 q 0.25,0.25 0.625,0.375 0.375,0.125 0.75,0.25 0.375,0.125 0.5,0.5 L 14,12 13.625,11.875 Q 13.25,11.75 12.984375,12.015625 l -0.265625,0.265625 0.04687,0.07813 0.04687,0.07813 -0.09375,-0.15625 Q 12.625,12.125 12.5,12 L 12.375,11.875 12.5625,12.0625 12.75,12.25 12.5,12 Q 12.25,11.75 12,11.5 11.75,11.25 11.375,11.125 L 11,11 l 0.04687,-0.546875"
       id="path1021" />
    <path
       style="fill:#808080;fill-opacity:1"
       d="M 13.125,10.625 Q 13.25,10.25 13.5,10 L 13.75,9.75 13.5625,9.9375 13.375,10.125 13.5,10 Q 13.625,9.875 13.71875,9.71875 L 13.8125,9.5625 13.765625,9.640625 13.71875,9.71875 14.03125,10 l 0.3125,0.28125 0.04687,-0.04687 0.04687,-0.04687 -0.09375,0.09375 Q 14.25,10.375 14.25,10.5 V 10.625 10.4375 10.25 10.5 10.75 10.5625 10.375 10.5 q 0,0.125 0.0625,0.25 L 14.375,10.875 14.34375,10.8125 14.3125,10.75 14,11.03125 13.6875,11.3125 13.75,11.375 l 0.0625,0.0625 -0.125,-0.125 Q 13.5625,11.1875 13.375,11.125 L 13.1875,11.0625 13.46875,11.15625 13.75,11.25 13.375,11.125 13,11 13.125,10.625 M 12.90625,10.96875 13,11 13.28125,11.09375 13.5625,11.1875 13.375,11.125 Q 13.1875,11.0625 13,11 l -0.1875,-0.0625 0.09375,0.03125"
       id="path1023" />
    <path
       style="fill:#707070;fill-opacity:1"
       d="m 14.25,10.5 q 0,-0.25 0.375,-0.375 L 15,10 15.125,10.375 15.25,10.75 15.15625,10.46875 15.0625,10.1875 15.125,10.375 q 0.0625,0.1875 0.15625,0.28125 L 15.375,10.75 15.328125,10.703125 15.28125,10.65625 15.015625,10.953125 14.75,11.25 14.5,11 Q 14.25,10.75 14.25,10.5 M 14.5625,11.0625 14.75,11.25 14.8125,11.3125 14.875,11.375 14.75,11.25 Q 14.625,11.125 14.5,11 l -0.125,-0.125 0.1875,0.1875"
       id="path1025" />
    <path
       style="fill:#606060;fill-opacity:1"
       d="M 15.125,10.375 15,10 15.375,9.875 q 0.375,-0.125 0.640625,0.140625 l 0.265625,0.265625 0.07813,-0.04687 0.07813,-0.04687 -0.15625,0.09375 Q 16.125,10.375 16,10.5 L 15.875,10.625 16.0625,10.4375 16.25,10.25 16,10.5 q -0.25,0.25 -0.5,0.25 -0.25,0 -0.375,-0.375"
       id="path1027" />
    <path
       style="fill:#808080;fill-opacity:1"
       d="m 16,10.5 q 0.25,-0.25 0.609375,-0.390625 L 16.96875,9.96875 16.984375,9.859375 17,9.75 16.96875,9.96875 Q 16.9375,10.1875 16.875,10.375 L 16.8125,10.5625 16.90625,10.28125 17,10 16.875,10.375 Q 16.75,10.75 16.5,11 L 16.25,11.25 16.4375,11.0625 16.625,10.875 16.5,11 q -0.125,0.125 -0.21875,0.28125 l -0.09375,0.15625 0.04687,-0.07813 0.04687,-0.07813 L 16.015625,10.984375 15.75,10.6875 15.6875,10.71875 15.625,10.75 15.75,10.6875 Q 15.875,10.625 16,10.5 L 16.125,10.375 15.9375,10.5625 15.75,10.75 16,10.5"
       id="path1029" />
    <path
       style="fill:#c06000;fill-opacity:1"
       d="M 19,10.5 V 10 l 0.375,0.125 q 0.375,0.125 0.5,0.5 Q 20,11 20,11.5 20,12 20.125,12.375 20.25,12.75 20.5,13 20.75,13.25 20.875,13.625 21,14 20.984375,14.515625 l -0.01563,0.515625 0.109375,0.01563 0.109375,0.01563 -0.21875,-0.03125 Q 20.75,15 20.5,15 H 20.25 20.625 21 20.5 q -0.5,0 -1,0 -0.5,0 -1,0 -0.5,0 -1,0 H 17 l 0.125,-0.375 Q 17.25,14.25 17.5,14 17.75,13.75 17.875,13.375 18,13 18.125,12.625 18.25,12.25 18.5,12 18.75,11.75 18.875,11.375 19,11 19,10.5 M 16.875,15 H 17 17.375 17.75 17.5 q -0.25,0 -0.5,0 h -0.25 0.125 M 19,9.875 V 10 10.375 10.75 10.5 Q 19,10.25 19,10 V 9.75 9.875"
       id="path1031" />
    <path
       style="fill:#c06000;fill-opacity:1"
       d="m 10.125,11.625 q 0.125,-0.375 0.5,-0.5 L 11,11 v 0.5 0.5 l -0.125,0.375 q -0.125,0.375 -0.5,0.5 L 10,13 v -0.5 q 0,-0.5 0.125,-0.875"
       id="path1033" />
    <path
       style="fill:#a0a0a0;fill-opacity:1"
       d="M 11,11.5 V 11 l 0.375,0.125 Q 11.75,11.25 12,11.5 q 0.25,0.25 0.5,0.5 0.25,0.25 0.375,0.625 0.125,0.375 0,0.75 -0.125,0.375 -0.5,0.5 L 12,14 v -0.5 q 0,-0.5 -0.125,-0.875 -0.125,-0.375 -0.5,-0.5 L 11,12 v -0.5"
       id="path1035" />
    <path
       style="fill:#606060;fill-opacity:1"
       d="M 13.875,11.625 13.75,11.25 13.84375,11.53125 13.9375,11.8125 13.875,11.625 q -0.0625,-0.1875 -0.1875,-0.3125 l -0.125,-0.125 0.0625,0.0625 0.0625,0.0625 L 14,11.03125 14.3125,10.75 14.28125,10.6875 14.25,10.625 14.3125,10.75 Q 14.375,10.875 14.5,11 L 14.625,11.125 14.4375,10.9375 14.25,10.75 14.5,11 q 0.25,0.25 0.5,0.5 L 15.25,11.75 15.0625,11.5625 14.875,11.375 15,11.5 q 0.125,0.125 0.28125,0.21875 l 0.15625,0.09375 -0.07813,-0.04687 -0.07813,-0.04687 -0.265625,0.265625 Q 14.75,12.25 14.375,12.125 L 14,12 13.875,11.625"
       id="path1037" />
    <path
       style="fill:#a0a0a0;fill-opacity:1"
       d="m 15,11.5 -0.25,-0.25 0.265625,-0.296875 0.265625,-0.296875 -0.04687,-0.04687 -0.04687,-0.04687 0.09375,0.09375 Q 15.375,10.75 15.5,10.75 H 15.625 15.4375 15.25 15.5 15.75 15.5625 15.375 15.5 q 0.125,0 0.25,-0.0625 l 0.125,-0.0625 -0.0625,0.03125 -0.0625,0.03125 0.265625,0.296875 0.265625,0.296875 0.04687,-0.07813 L 16.375,11.125 16.28125,11.28125 Q 16.1875,11.4375 16.125,11.625 L 16.0625,11.8125 16.15625,11.53125 16.25,11.25 16.125,11.625 16,12 16.09375,11.71875 16.1875,11.4375 16.125,11.625 q -0.0625,0.1875 -0.09375,0.40625 L 16,12.25 16.015625,12.140625 16.03125,12.03125 15.640625,11.890625 Q 15.25,11.75 15,11.5 M 14.6875,11.1875 14.75,11.25 14.9375,11.4375 15.125,11.625 15,11.5 q -0.125,-0.125 -0.25,-0.25 l -0.125,-0.125 0.0625,0.0625"
       id="path1039" />
    <path
       style="fill:#c0c0c0;fill-opacity:1"
       d="M 10.875,12.375 11,12 l 0.375,0.125 q 0.375,0.125 0.5,0.5 Q 12,13 12,13.5 V 14 H 11.5 11 11.375 11.75 11.5 q -0.25,0 -0.46875,-0.03125 l -0.21875,-0.03125 0.109375,0.01563 0.109375,0.01563 0.109375,-0.359375 Q 11.25,13.25 10.96875,12.96875 L 10.6875,12.6875 10.625,12.75 l -0.0625,0.0625 0.125,-0.125 q 0.125,-0.125 0.1875,-0.3125 L 10.9375,12.1875 10.84375,12.46875 10.75,12.75 10.875,12.375"
       id="path1041" />
    <path
       style="fill:#606060;fill-opacity:1"
       d="M 12.875,12.625 12.75,12.25 12.84375,12.53125 12.9375,12.8125 12.875,12.625 Q 12.8125,12.4375 12.71875,12.28125 L 12.625,12.125 l 0.04687,0.07813 0.04687,0.07813 0.265625,-0.265625 Q 13.25,11.75 13.625,11.875 L 14,12 13.875,12.375 q -0.125,0.375 0.140625,0.671875 l 0.265625,0.296875 0.04687,-0.04687 L 14.375,13.25 14.28125,13.34375 Q 14.1875,13.4375 14.125,13.625 L 14.0625,13.8125 14.15625,13.53125 14.25,13.25 14.125,13.625 Q 14,14 14.125,14.375 L 14.25,14.75 14.15625,14.46875 14.0625,14.1875 14.125,14.375 q 0.0625,0.1875 0.15625,0.28125 L 14.375,14.75 l -0.04687,-0.04687 -0.04687,-0.04687 -0.265625,0.296875 Q 13.75,15.25 13.5,15 q -0.25,-0.25 -0.25,-0.5 0,-0.25 -0.28125,-0.53125 L 12.6875,13.6875 12.625,13.75 l -0.0625,0.0625 0.125,-0.125 q 0.125,-0.125 0.1875,-0.3125 L 12.9375,13.1875 12.84375,13.46875 12.75,13.75 12.875,13.375 Q 13,13 12.875,12.625"
       id="path1043" />
    <path
       style="fill:#404040;fill-opacity:1"
       d="M 13.875,12.375 14,12 l 0.375,0.125 q 0.375,0.125 0.640625,-0.140625 L 15.28125,11.71875 15.203125,11.671875 15.125,11.625 15.28125,11.71875 Q 15.4375,11.8125 15.625,11.875 L 15.8125,11.9375 15.53125,11.84375 15.25,11.75 l 0.390625,0.140625 0.390625,0.140625 0.01563,-0.109375 0.01563,-0.109375 -0.03125,0.21875 Q 16,12.25 16,12.5 V 12.75 12.375 12 12.5 13 L 15.625,12.875 Q 15.25,12.75 14.984375,13.046875 l -0.265625,0.296875 0.04687,0.04687 0.04687,0.04687 -0.09375,-0.09375 Q 14.625,13.25 14.5,13.25 H 14.375 14.5625 14.75 14.5 14.25 14.4375 14.625 14.5 q -0.125,0 -0.21875,0.09375 l -0.09375,0.09375 0.04687,-0.04687 0.04687,-0.04687 -0.265625,-0.296875 Q 13.75,12.75 13.875,12.375"
       id="path1045" />
    <path
       style="fill:#e0e0e0;fill-opacity:1"
       d="M 10.125,13.375 10,13 10.375,12.875 10.75,12.75 10.46875,12.84375 10.1875,12.9375 10.375,12.875 q 0.1875,-0.0625 0.3125,-0.1875 l 0.125,-0.125 -0.0625,0.0625 -0.0625,0.0625 0.28125,0.28125 Q 11.25,13.25 11.140625,13.609375 L 11.03125,13.96875 11.140625,13.984375 11.25,14 11.03125,13.96875 Q 10.8125,13.9375 10.625,13.875 L 10.4375,13.8125 10.71875,13.90625 11,14 10.625,13.875 q -0.375,-0.125 -0.5,-0.5"
       id="path1047" />
    <path
       style="fill:#808080;fill-opacity:1"
       d="M 14.125,13.625 Q 14.25,13.25 14.5,13.25 q 0.25,0 0.375,0.375 0.125,0.375 0,0.75 -0.125,0.375 -0.375,0.375 -0.25,0 -0.375,-0.375 -0.125,-0.375 0,-0.75"
       id="path1049" />
    <path
       style="fill:#606060;fill-opacity:1"
       d="M 14.875,13.625 14.75,13.25 14.84375,13.53125 14.9375,13.8125 14.875,13.625 Q 14.8125,13.4375 14.71875,13.34375 L 14.625,13.25 l 0.04687,0.04687 0.04687,0.04687 0.265625,-0.296875 Q 15.25,12.75 15.625,12.875 L 16,13 v 0.5 q 0,0.5 0.01563,1.015625 l 0.01563,0.515625 0.109375,-0.01563 L 16.25,15 16.03125,15.03125 Q 15.8125,15.0625 15.625,15.125 L 15.4375,15.1875 15.71875,15.09375 16,15 15.625,15.125 15.25,15.25 15.53125,15.15625 15.8125,15.0625 15.625,15.125 q -0.1875,0.0625 -0.3125,0.1875 l -0.125,0.125 L 15.25,15.375 15.3125,15.3125 15.015625,14.984375 14.71875,14.65625 14.671875,14.703125 14.625,14.75 14.71875,14.65625 Q 14.8125,14.5625 14.875,14.375 L 14.9375,14.1875 14.84375,14.46875 14.75,14.75 14.875,14.375 Q 15,14 14.875,13.625"
       id="path1051" />
    <path
       style="fill:#404040;fill-opacity:1"
       d="M 11.015625,14.484375 11.03125,13.96875 10.921875,13.953125 10.8125,13.9375 11.03125,13.96875 Q 11.25,14 11.5,14 H 11.75 11.375 11 11.5 12 L 12.375,13.875 12.75,13.75 12.46875,13.84375 12.1875,13.9375 12.375,13.875 q 0.1875,-0.0625 0.3125,-0.1875 l 0.125,-0.125 -0.0625,0.0625 -0.0625,0.0625 0.28125,0.28125 Q 13.25,14.25 13.25,14.5 q 0,0.25 0.25,0.5 0.25,0.25 0.515625,-0.04687 l 0.265625,-0.296875 -0.04687,-0.04687 -0.04687,-0.04687 0.09375,0.09375 Q 14.375,14.75 14.5,14.75 H 14.625 14.4375 14.25 14.5 14.75 14.5625 14.375 14.5 q 0.125,0 0.21875,-0.09375 l 0.09375,-0.09375 -0.04687,0.04687 -0.04687,0.04687 0.296875,0.328125 0.296875,0.328125 0.0625,-0.0625 0.0625,-0.0625 -0.125,0.125 q -0.125,0.125 -0.1875,0.3125 L 15.0625,15.8125 15.15625,15.53125 15.25,15.25 15.125,15.625 15,16 15.09375,15.71875 15.1875,15.4375 15.125,15.625 q -0.0625,0.1875 -0.09375,0.40625 L 15,16.25 15.015625,16.140625 15.03125,16.03125 14.640625,16.140625 14.25,16.25 14.53125,16.15625 14.8125,16.0625 14.625,16.125 q -0.1875,0.0625 -0.3125,0.1875 l -0.125,0.125 0.0625,-0.0625 0.0625,-0.0625 -0.28125,-0.28125 Q 13.75,15.75 13.375,15.875 L 13,16 12.875,15.625 q -0.125,-0.375 -0.5,-0.5 L 12,15 11.484375,14.984375 10.96875,14.96875 10.953125,15.078125 10.9375,15.1875 10.96875,14.96875 Q 11,14.75 11,14.5 V 14.25 14.625 15 l 0.01563,-0.515625"
       id="path1053" />
    <path
       style="fill:#a0a0a0;fill-opacity:1"
       d="M 10.875,15.375 11,15 10.90625,15.28125 10.8125,15.5625 10.875,15.375 q 0.0625,-0.1875 0.09375,-0.40625 L 11,14.75 l -0.01563,0.109375 -0.01563,0.109375 0.515625,0.01563 L 12,15 v 0.5 q 0,0.5 0,1 V 17 h -0.5 q -0.5,0 -1,0 H 10 V 16.5 16 l 0.375,-0.125 q 0.375,-0.125 0.5,-0.5 M 10.28125,15.90625 10,16 9.90625,16.03125 9.8125,16.0625 10,16 q 0.1875,-0.0625 0.375,-0.125 l 0.1875,-0.0625 -0.28125,0.09375"
       id="path1055" />
    <path
       style="fill:#c0c0c0;fill-opacity:1"
       d="M 12,15.5 V 15 l 0.375,0.125 q 0.375,0.125 0.5,0.5 L 13,16 12.875,16.375 q -0.125,0.375 -0.5,0.5 L 12,17 v -0.5 q 0,-0.5 0,-1"
       id="path1057" />
    <path
       style="fill:#e0e0e0;fill-opacity:1"
       d="m 9.25,16.5 q 0,-0.25 0.375,-0.375 L 10,16 V 16.5 17 L 9.625,16.875 Q 9.25,16.75 9.25,16.5 M 10.09375,15.96875 10,16 9.71875,16.09375 9.4375,16.1875 9.625,16.125 Q 9.8125,16.0625 10,16 l 0.1875,-0.0625 -0.09375,0.03125"
       id="path1059" />
    <path
       style="fill:#606060;fill-opacity:1"
       d="M 12.875,16.375 13,16 13.375,15.875 q 0.375,-0.125 0.65625,0.15625 l 0.28125,0.28125 0.0625,-0.0625 0.0625,-0.0625 -0.125,0.125 q -0.125,0.125 -0.1875,0.3125 L 14.0625,16.8125 14.15625,16.53125 14.25,16.25 14.125,16.625 Q 14,17 14.125,17.375 L 14.25,17.75 14.15625,17.46875 14.0625,17.1875 14.125,17.375 q 0.0625,0.1875 0.1875,0.3125 l 0.125,0.125 L 14.375,17.75 14.3125,17.6875 14.03125,17.96875 Q 13.75,18.25 13.5,18 q -0.25,-0.25 -0.25,-0.5 0,-0.25 -0.28125,-0.53125 L 12.6875,16.6875 12.625,16.75 l -0.0625,0.0625 0.125,-0.125 q 0.125,-0.125 0.1875,-0.3125 L 12.9375,16.1875 12.84375,16.46875 12.75,16.75 12.875,16.375"
       id="path1061" />
    <path
       style="fill:#808080;fill-opacity:1"
       d="M 14.125,16.625 Q 14.25,16.25 14.640625,16.140625 L 15.03125,16.03125 15.046875,15.921875 15.0625,15.8125 15.03125,16.03125 Q 15,16.25 15,16.5 V 16.75 16.375 16 16.5 17 17.5 18 17.625 17.25 17.5 q 0,0.25 0.03125,0.46875 L 15.0625,18.1875 15.046875,18.078125 15.03125,17.96875 14.640625,17.859375 Q 14.25,17.75 14.125,17.375 14,17 14.125,16.625"
       id="path1063" />
    <path
       style="fill:#000000;fill-opacity:1"
       d="m 16,16.5 q 0,-0.5 0.5,-0.5 0.5,0 1,0 0.5,0 1,0 0.5,0 1,0 0.5,0 0.5,0.5 0,0.5 0.5,0.5 0.5,0 1,0 0.5,0 0.875,0.125 0.375,0.125 0.5,0.5 Q 23,18 23.5,18 q 0.5,0 0.5,0.5 0,0.5 0.125,0.875 0.125,0.375 -0.140625,0.671875 l -0.265625,0.296875 0.04687,0.04687 0.04687,0.04687 -0.09375,-0.09375 Q 23.625,20.25 23.5,20.25 H 23.375 23.5625 23.75 23.5 23.25 23.4375 23.625 23.5 q -0.125,0 -0.21875,0.09375 l -0.09375,0.09375 0.04687,-0.04687 0.04687,-0.04687 -0.265625,-0.296875 Q 22.75,19.75 22.375,19.875 22,20 22,20.5 22,21 21.5,21 21,21 21,21.5 21,22 20.5,22 20,22 20,22.5 q 0,0.5 0,1 0,0.5 -0.5,0.5 -0.5,0 -0.5,0.5 0,0.5 0,1 0,0.5 0.5,0.5 0.5,0 0.5,0.5 0,0.5 0,1 V 28 H 19.5 19 19.375 19.75 19.5 q -0.25,0 -0.46875,0.03125 l -0.21875,0.03125 0.109375,-0.01563 0.109375,-0.01563 -0.140625,-0.390625 Q 18.75,27.25 18.375,27.125 18,27 17.5,27 H 17 17.375 17.75 17.5 q -0.25,0 -0.46875,0.03125 l -0.21875,0.03125 0.109375,-0.01563 0.109375,-0.01563 -0.01563,-0.515625 Q 17,26 17,25.5 17,25 16.875,24.625 16.75,24.25 16.375,24.125 L 16,24 v -0.5 q 0,-0.5 0,-1 0,-0.5 0,-1 0,-0.5 0,-1 V 20 L 15.875,19.625 Q 15.75,19.25 15.5,19 15.25,18.75 15.125,18.375 15,18 15,17.5 V 17 h 0.5 Q 16,17 16,16.5 M 15.90625,23.96875 16,24 16.28125,24.09375 16.5625,24.1875 16.375,24.125 Q 16.1875,24.0625 16,24 l -0.1875,-0.0625 0.09375,0.03125"
       id="path1065" />
    <path
       style="fill:#404040;fill-opacity:1"
       d="M 10,17.5 V 17 h 0.5 q 0.5,0 1,0 H 12 L 12.375,16.875 12.75,16.75 12.46875,16.84375 12.1875,16.9375 12.375,16.875 q 0.1875,-0.0625 0.3125,-0.1875 l 0.125,-0.125 -0.0625,0.0625 -0.0625,0.0625 0.28125,0.28125 Q 13.25,17.25 13.25,17.5 q 0,0.25 0.25,0.5 0.25,0.25 0.53125,-0.03125 L 14.3125,17.6875 14.25,17.625 l -0.0625,-0.0625 0.125,0.125 q 0.125,0.125 0.3125,0.1875 L 14.8125,17.9375 14.53125,17.84375 14.25,17.75 14.640625,17.859375 15.03125,17.96875 15.015625,17.859375 15,17.75 15.03125,17.96875 Q 15.0625,18.1875 15.125,18.375 L 15.1875,18.5625 15.09375,18.28125 15,18 15.125,18.375 15.25,18.75 15.15625,18.46875 15.0625,18.1875 15.125,18.375 q 0.0625,0.1875 0.15625,0.34375 L 15.375,18.875 15.328125,18.796875 15.28125,18.71875 14.984375,19.015625 14.6875,19.3125 14.71875,19.34375 14.75,19.375 14.6875,19.3125 Q 14.625,19.25 14.5,19.25 H 14.375 14.5625 14.75 14.5 14.25 14.4375 14.625 14.5 q -0.125,0 -0.1875,0.0625 L 14.25,19.375 14.28125,19.34375 14.3125,19.3125 14.03125,19.03125 Q 13.75,18.75 13.375,18.875 L 13,19 12.875,18.625 q -0.125,-0.375 -0.5,-0.5 L 12,18 H 11.5 11 10.5 10 v -0.5 m 0,0.125 V 18 18.125 18.25 18 q 0,-0.25 0,-0.5 v -0.25 0.375"
       id="path1067" />
    <path
       style="fill:#a0a0a0;fill-opacity:1"
       d="M 10,18.5 V 18 h 0.5 0.5 v 0.5 q 0,0.5 0,1 V 20 H 10.5 10 L 9.953125,19.453125 9.90625,18.90625 9.859375,18.984375 9.8125,19.0625 9.90625,18.90625 Q 10,18.75 10,18.5 V 18.25 18.625 19 18.5 m 0,-0.625 V 18 18.375 18.75 18.5 q 0,-0.25 0,-0.5 v -0.25 0.125"
       id="path1069" />
    <path
       style="fill:#c0c0c0;fill-opacity:1"
       d="M 11,18.5 V 18 h 0.5 0.5 v 0.5 q 0,0.5 0,1 V 20 H 11.5 11 v -0.5 q 0,-0.5 0,-1"
       id="path1071" />
    <path
       style="fill:#a0a0a0;fill-opacity:1"
       d="M 12,18.5 V 18 l 0.375,0.125 q 0.375,0.125 0.5,0.5 L 13,19 12.875,19.375 q -0.125,0.375 -0.5,0.5 L 12,20 v -0.5 q 0,-0.5 0,-1"
       id="path1073" />
    <path
       style="fill:#e0e0e0;fill-opacity:1"
       d="m 9.25,19.5 q 0,-0.25 0.375,-0.375 L 10,19 9.71875,19.09375 9.4375,19.1875 9.625,19.125 Q 9.8125,19.0625 9.90625,18.90625 L 10,18.75 9.953125,18.828125 9.90625,18.90625 9.953125,19.453125 10,20 9.625,19.875 Q 9.25,19.75 9.25,19.5"
       id="path1075" />
    <path
       style="fill:#606060;fill-opacity:1"
       d="M 12.875,19.375 13,19 13.375,18.875 q 0.375,-0.125 0.65625,0.15625 L 14.3125,19.3125 14.34375,19.28125 14.375,19.25 14.3125,19.3125 Q 14.25,19.375 14.25,19.5 V 19.625 19.4375 19.25 19.5 19.75 19.5625 19.375 19.5 q 0,0.125 0.0625,0.1875 L 14.375,19.75 14.34375,19.71875 14.3125,19.6875 14.03125,19.96875 Q 13.75,20.25 13.5,20.25 q -0.25,0 -0.53125,-0.28125 L 12.6875,19.6875 12.625,19.75 l -0.0625,0.0625 0.125,-0.125 q 0.125,-0.125 0.1875,-0.3125 L 12.9375,19.1875 12.84375,19.46875 12.75,19.75 12.875,19.375"
       id="path1077" />
    <path
       style="fill:#808080;fill-opacity:1"
       d="m 14.25,19.5 q 0,-0.25 0.25,-0.25 0.25,0 0.25,0.25 0,0.25 -0.25,0.25 -0.25,0 -0.25,-0.25"
       id="path1079" />
    <path
       style="fill:#606060;fill-opacity:1"
       d="M 14.75,19.5 V 19.25 19.4375 19.625 19.5 q 0,-0.125 -0.0625,-0.1875 L 14.625,19.25 l 0.03125,0.03125 0.03125,0.03125 0.296875,-0.296875 0.296875,-0.296875 -0.04687,-0.07813 -0.04687,-0.07813 0.09375,0.15625 Q 15.375,18.875 15.5,19 L 15.625,19.125 15.4375,18.9375 15.25,18.75 15.5,19 q 0.25,0.25 0.375,0.625 L 16,20 15.625,20.125 Q 15.25,20.25 14.96875,19.96875 L 14.6875,19.6875 14.65625,19.71875 14.625,19.75 14.6875,19.6875 Q 14.75,19.625 14.75,19.5 V 19.375 19.5625 19.75 19.5"
       id="path1081" />
    <path
       style="fill:#404040;fill-opacity:1"
       d="M 10,20.5 V 20 H 10.5 11 11.5 12 L 12.375,19.875 12.75,19.75 12.46875,19.84375 12.1875,19.9375 12.375,19.875 q 0.1875,-0.0625 0.3125,-0.1875 l 0.125,-0.125 -0.0625,0.0625 -0.0625,0.0625 0.28125,0.28125 Q 13.25,20.25 13.5,20.25 q 0.25,0 0.53125,-0.28125 L 14.3125,19.6875 14.28125,19.65625 14.25,19.625 14.3125,19.6875 Q 14.375,19.75 14.5,19.75 H 14.625 14.4375 14.25 14.5 14.75 14.5625 14.375 14.5 q 0.125,0 0.1875,-0.0625 L 14.75,19.625 14.71875,19.65625 14.6875,19.6875 14.96875,19.96875 Q 15.25,20.25 15.625,20.125 L 16,20 V 20.5 21 L 15.625,21.125 15.25,21.25 15.53125,21.15625 15.8125,21.0625 15.625,21.125 q -0.1875,0.0625 -0.3125,0.1875 l -0.125,0.125 0.0625,-0.0625 0.0625,-0.0625 -0.28125,-0.28125 Q 14.75,20.75 14.5,20.75 q -0.25,0 -0.53125,0.28125 l -0.28125,0.28125 0.0625,0.0625 0.0625,0.0625 -0.125,-0.125 Q 13.5625,21.1875 13.375,21.125 L 13.1875,21.0625 13.46875,21.15625 13.75,21.25 13.375,21.125 13,21 h -0.5 q -0.5,0 -1,0 H 11 l -0.484375,-0.01563 -0.484375,-0.01563 0.01563,0.109375 0.01563,0.109375 -0.03125,-0.21875 Q 10,20.75 10,20.5 V 20.25 20.625 21 20.5 m 6,0.625 V 21 20.625 20.25 20.5 q 0,0.25 0,0.5 v 0.25 -0.125"
       id="path1083" />
    <path
       style="fill:#000000;fill-opacity:0"
       d="m 22,20.5 q 0,-0.5 0.375,-0.625 0.375,-0.125 0.640625,0.171875 l 0.265625,0.296875 0.04687,-0.04687 L 23.375,20.25 23.28125,20.34375 Q 23.1875,20.4375 23.125,20.625 L 23.0625,20.8125 23.15625,20.53125 23.25,20.25 23.125,20.625 23,21 v 0.5 0.5 l 0.125,0.375 q 0.125,0.375 0.5,0.5 L 24,23 v 0.5 q 0,0.5 0,1 V 25 24.625 24.25 24.5 q 0,0.25 0.03125,0.46875 l 0.03125,0.21875 -0.01563,-0.109375 -0.01563,-0.109375 -0.390625,0.140625 Q 23.25,25.25 23.125,25.65625 L 23,26.0625 H 23.09375 23.1875 23 q -0.1875,0 -0.375,0.0625 L 22.4375,26.1875 22.71875,26.09375 23,26 22.625,26.125 q -0.375,0.125 -0.5,0.5 Q 22,27 21.875,27.375 21.75,27.75 21.375,27.875 21,28 20.5,28 H 20 V 27.5 Q 20,27 20,26.5 20,26 19.5,26 19,26 19,25.5 19,25 19,24.5 19,24 19.5,24 20,24 20,23.5 20,23 20,22.5 20,22 20.5,22 21,22 21,21.5 21,21 21.5,21 22,21 22,20.5 M 24.09375,23.03125 24,23 23.71875,22.90625 23.4375,22.8125 23.625,22.875 Q 23.8125,22.9375 24,23 l 0.1875,0.0625 -0.09375,-0.03125"
       id="path1085" />
    <path
       style="fill:#a0a0a0;fill-opacity:1"
       d="M 23.125,20.625 Q 23.25,20.25 23.5,20.25 q 0.25,0 0.375,0.375 L 24,21 H 23.5 23 l 0.125,-0.375"
       id="path1087" />
    <path
       style="fill:#a0a0a0;fill-opacity:1"
       d="M 10.125,21.375 10,21 10.09375,21.28125 10.1875,21.5625 10.125,21.375 Q 10.0625,21.1875 10.03125,20.96875 L 10,20.75 l 0.01563,0.109375 0.01563,0.109375 0.484375,0.01563 L 11,21 l 0.125,0.375 q 0.125,0.375 -0.140625,0.640625 l -0.265625,0.265625 0.04687,0.07813 0.04687,0.07813 -0.09375,-0.15625 Q 10.625,22.125 10.5,22 L 10.375,21.875 10.5625,22.0625 10.75,22.25 10.5,22 q -0.25,-0.25 -0.375,-0.625"
       id="path1089" />
    <path
       style="fill:#808080;fill-opacity:1"
       d="M 11.125,21.375 11,21 h 0.5 0.5 v 0.5 q 0,0.5 0.125,0.875 0.125,0.375 0.375,0.625 0.25,0.25 0.359375,0.609375 l 0.109375,0.359375 0.109375,-0.01563 0.109375,-0.01563 -0.21875,0.03125 Q 12.75,24 12.5,24 H 12.25 12.625 13 12.5 12 L 11.875,23.625 Q 11.75,23.25 11.328125,23.078125 l -0.421875,-0.171875 -0.04687,0.07813 -0.04687,0.07813 0.09375,-0.15625 Q 11,22.75 11,22.5 V 22.25 22.625 23 L 10.875,22.625 10.75,22.25 10.84375,22.53125 10.9375,22.8125 10.875,22.625 Q 10.8125,22.4375 10.71875,22.28125 L 10.625,22.125 l 0.04687,0.07813 0.04687,0.07813 0.265625,-0.265625 Q 11.25,21.75 11.125,21.375 m 1,-0.375 H 12 11.625 11.25 11.5 q 0.25,0 0.5,0 h 0.25 -0.125"
       id="path1091" />
    <path
       style="fill:#c0c0c0;fill-opacity:1"
       d="M 12,21.5 V 21 h 0.5 0.5 v 0.5 q 0,0.5 0.125,0.875 0.125,0.375 0.5,0.5 L 14,23 13.875,23.375 q -0.125,0.375 -0.5,0.5 L 13,24 13.28125,23.90625 13.5625,23.8125 13.375,23.875 q -0.1875,0.0625 -0.40625,0.09375 L 12.75,24 12.859375,23.984375 12.96875,23.96875 12.859375,23.609375 Q 12.75,23.25 12.5,23 12.25,22.75 12.125,22.375 12,22 12,21.5 M 12.375,21 H 12 11.875 11.75 12 q 0.25,0 0.5,0 h 0.25 -0.375"
       id="path1093" />
    <path
       style="fill:#a0a0a0;fill-opacity:1"
       d="M 13,21.5 V 21 l 0.375,0.125 q 0.375,0.125 0.5,0.5 Q 14,22 14,22.5 V 23 L 13.625,22.875 Q 13.25,22.75 13.125,22.375 13,22 13,21.5"
       id="path1095" />
    <path
       style="fill:#606060;fill-opacity:1"
       d="M 13.875,21.625 13.75,21.25 13.84375,21.53125 13.9375,21.8125 13.875,21.625 q -0.0625,-0.1875 -0.1875,-0.3125 l -0.125,-0.125 0.0625,0.0625 0.0625,0.0625 0.28125,-0.28125 Q 14.25,20.75 14.5,20.75 q 0.25,0 0.53125,0.28125 l 0.28125,0.28125 0.0625,-0.0625 0.0625,-0.0625 -0.125,0.125 q -0.125,0.125 -0.1875,0.3125 L 15.0625,21.8125 15.15625,21.53125 15.25,21.25 15.125,21.625 Q 15,22 15.125,22.375 L 15.25,22.75 15.15625,22.46875 15.0625,22.1875 15.125,22.375 q 0.0625,0.1875 0.1875,0.3125 l 0.125,0.125 L 15.375,22.75 15.3125,22.6875 15.03125,22.96875 Q 14.75,23.25 14.375,23.125 L 14,23 V 22.5 Q 14,22 13.875,21.625"
       id="path1097" />
    <path
       style="fill:#808080;fill-opacity:1"
       d="m 15.125,21.625 q 0.125,-0.375 0.5,-0.5 L 16,21 v 0.5 q 0,0.5 0,1 V 23 L 15.625,22.875 Q 15.25,22.75 15.125,22.375 15,22 15.125,21.625 M 16,23.125 V 23 22.625 22.25 22.5 q 0,0.25 0,0.5 v 0.25 -0.125 m 0,-1.75 V 21 20.875 20.75 21 q 0,0.25 0,0.5 v 0.25 -0.375"
       id="path1099" />
    <path
       style="fill:#808080;fill-opacity:1"
       d="M 23,21.5 V 21 h 0.5 0.5 l 0.125,0.375 q 0.125,0.375 0.5,0.5 L 25,22 25.125,22.375 Q 25.25,22.75 25.5,23 q 0.25,0.25 0.375,0.625 L 26,24 25.625,23.875 Q 25.25,23.75 25,23.5 24.75,23.25 24.375,23.125 L 24,23 23.875,22.625 q -0.125,-0.375 -0.5,-0.5 L 23,22 V 21.5 M 25.09375,22.28125 25,22 24.96875,21.90625 24.9375,21.8125 25,22 q 0.0625,0.1875 0.125,0.375 l 0.0625,0.1875 -0.09375,-0.28125"
       id="path1101" />
    <path
       style="fill:#404040;fill-opacity:1"
       d="M 24.125,21.375 24,21 l 0.375,0.125 q 0.375,0.125 0.5,0.5 L 25,22 24.625,21.875 q -0.375,-0.125 -0.5,-0.5 M 25.03125,22.09375 25,22 24.90625,21.71875 24.8125,21.4375 24.875,21.625 Q 24.9375,21.8125 25,22 l 0.0625,0.1875 -0.03125,-0.09375 M 23.96875,20.90625 24,21 24.09375,21.28125 24.1875,21.5625 24.125,21.375 Q 24.0625,21.1875 24,21 l -0.0625,-0.1875 0.03125,0.09375"
       id="path1103" />
    <path
       style="fill:#a0a0a0;fill-opacity:1"
       d="M 23.125,22.375 23,22 l 0.375,0.125 q 0.375,0.125 0.5,0.5 L 24,23 23.625,22.875 q -0.375,-0.125 -0.5,-0.5"
       id="path1105" />
    <path
       style="fill:#e0e0e0;fill-opacity:1"
       d="m 10.25,23.5 q 0,-0.25 0.375,-0.375 L 11,23 10.71875,23.09375 10.4375,23.1875 10.625,23.125 q 0.1875,-0.0625 0.28125,-0.21875 L 11,22.75 l -0.04687,0.07813 -0.04687,0.07813 0.04687,0.546875 L 11,24 10.625,23.875 Q 10.25,23.75 10.25,23.5"
       id="path1107" />
    <path
       style="fill:#a0a0a0;fill-opacity:1"
       d="m 10.953125,23.453125 -0.04687,-0.546875 0.421875,0.171875 Q 11.75,23.25 11.875,23.625 L 12,24 H 11.5 11 l -0.04687,-0.546875"
       id="path1109" />
    <path
       style="fill:#404040;fill-opacity:1"
       d="M 13.875,23.375 14,23 l 0.375,0.125 q 0.375,0.125 0.65625,-0.15625 L 15.3125,22.6875 15.25,22.625 l -0.0625,-0.0625 0.125,0.125 q 0.125,0.125 0.3125,0.1875 L 15.8125,22.9375 15.53125,22.84375 15.25,22.75 15.625,22.875 16,23 V 23.5 24 L 15.625,23.875 Q 15.25,23.75 15,24.03125 L 14.75,24.3125 14.8125,24.34375 14.875,24.375 14.75,24.3125 Q 14.625,24.25 14.5,24.25 H 14.375 14.5625 14.75 14.5 q -0.25,0 -0.375,0.375 L 14,25 h -0.5 q -0.5,0 -1,0 H 12 l -0.484375,-0.01563 -0.484375,-0.01563 0.01563,0.109375 0.01563,0.109375 -0.03125,-0.21875 Q 11,24.75 11,24.5 V 24.25 24.625 25 24.5 24 h 0.5 0.5 0.5 q 0.5,0 0.875,-0.125 0.375,-0.125 0.5,-0.5 M 13.96875,25.09375 14,25 14.09375,24.71875 14.1875,24.4375 14.125,24.625 Q 14.0625,24.8125 14,25 l -0.0625,0.1875 0.03125,-0.09375 M 16,23.375 V 23 22.875 22.75 23 q 0,0.25 0,0.5 v 0.25 -0.375"
       id="path1111" />
    <path
       style="fill:#404040;fill-opacity:1"
       d="M 24,23.5 V 23 l 0.375,0.125 Q 24.75,23.25 25,23.5 L 25.25,23.75 25.0625,23.5625 24.875,23.375 25,23.5 q 0.125,0.125 0.28125,0.21875 l 0.15625,0.09375 -0.07813,-0.04687 -0.07813,-0.04687 -0.3125,0.28125 -0.3125,0.28125 0.04687,0.04687 L 24.75,24.375 24.65625,24.28125 Q 24.5625,24.1875 24.375,24.125 L 24.1875,24.0625 24.46875,24.15625 24.75,24.25 24.375,24.125 24,24 v -0.5 m 0,0.125 V 24 24.125 24.25 24 q 0,-0.25 0,-0.5 v -0.25 0.375 M 24.28125,23.09375 24,23 23.90625,22.96875 23.8125,22.9375 24,23 q 0.1875,0.0625 0.375,0.125 l 0.1875,0.0625 -0.28125,-0.09375"
       id="path1113" />
    <path
       style="fill:#808080;fill-opacity:1"
       d="M 14.125,24.625 Q 14.25,24.25 14.5,24.25 q 0.25,0 0.5,0.25 0.25,0.25 -0.04687,0.515625 l -0.296875,0.265625 0.04687,0.04687 L 14.75,25.375 14.65625,25.28125 Q 14.5625,25.1875 14.375,25.125 L 14.1875,25.0625 14.46875,25.15625 14.75,25.25 14.375,25.125 14,25 14.125,24.625"
       id="path1115" />
    <path
       style="fill:#606060;fill-opacity:1"
       d="M 15,24.5 14.75,24.25 14.9375,24.4375 15.125,24.625 15,24.5 Q 14.875,24.375 14.75,24.3125 L 14.625,24.25 14.6875,24.28125 14.75,24.3125 15,24.03125 Q 15.25,23.75 15.625,23.875 L 16,24 16.125,24.375 16.25,24.75 16.15625,24.46875 16.0625,24.1875 16.125,24.375 q 0.0625,0.1875 0.1875,0.3125 l 0.125,0.125 L 16.375,24.75 16.3125,24.6875 16.03125,24.96875 Q 15.75,25.25 15.75,25.5 q 0,0.25 -0.25,0.5 -0.25,0.25 -0.53125,0 L 14.6875,25.75 14.65625,25.8125 14.625,25.875 14.6875,25.75 Q 14.75,25.625 14.75,25.5 V 25.375 25.5625 25.75 25.5 25.25 25.4375 25.625 25.5 q 0,-0.125 -0.09375,-0.21875 l -0.09375,-0.09375 0.04687,0.04687 0.04687,0.04687 0.296875,-0.265625 Q 15.25,24.75 15,24.5"
       id="path1117" />
    <path
       style="fill:#808080;fill-opacity:1"
       d="M 16.125,24.375 16,24 l 0.375,0.125 q 0.375,0.125 0.5,0.5 L 17,25 16.90625,24.71875 16.8125,24.4375 16.875,24.625 q 0.0625,0.1875 0.09375,0.40625 L 17,25.25 16.984375,25.140625 16.96875,25.03125 16.609375,24.890625 Q 16.25,24.75 16.125,24.375"
       id="path1119" />
    <path
       style="fill:#a0a0a0;fill-opacity:1"
       d="M 24,24.5 V 24 l 0.375,0.125 q 0.375,0.125 0.375,0.375 0,0.25 -0.375,0.375 L 24,25 v -0.5 m 0,-0.625 V 24 24.375 24.75 24.5 q 0,-0.25 0,-0.5 v -0.25 0.125"
       id="path1121" />
    <path
       style="fill:#606060;fill-opacity:1"
       d="M 24.75,24.5 V 24.25 24.4375 24.625 24.5 q 0,-0.125 -0.09375,-0.21875 l -0.09375,-0.09375 0.04687,0.04687 0.04687,0.04687 L 24.96875,24 25.28125,23.71875 25.203125,23.671875 25.125,23.625 25.28125,23.71875 Q 25.4375,23.8125 25.625,23.875 L 25.8125,23.9375 25.53125,23.84375 25.25,23.75 25.625,23.875 26,24 v 0.5 q 0,0.5 0,1 0,0.5 -0.125,0.875 Q 25.75,26.75 25.5,27 25.25,27.25 25.125,27.625 L 25,28 24.875,28.375 Q 24.75,28.75 24.5,29 24.25,29.25 24,29.5 23.75,29.75 23.5,30 23.25,30.25 23,30.5 22.75,30.75 22.375,30.875 L 22,31 21.875,30.625 Q 21.75,30.25 22.015625,29.953125 l 0.265625,-0.296875 -0.04687,-0.04687 -0.04687,-0.04687 0.09375,0.09375 Q 22.375,29.75 22.5,29.75 H 22.625 22.4375 22.25 22.5 q 0.25,0 0.375,-0.375 L 23,29 23.375,28.875 Q 23.75,28.75 24,28.5 24.25,28.25 23.96875,28 L 23.6875,27.75 23.65625,27.8125 23.625,27.875 23.6875,27.75 Q 23.75,27.625 23.75,27.5 V 27.375 27.5625 27.75 27.5 27.25 27.4375 27.625 27.5 q 0,-0.125 -0.0625,-0.25 L 23.625,27.125 23.65625,27.1875 23.6875,27.25 23.96875,26.96875 24.25,26.6875 24.1875,26.65625 24.125,26.625 24.25,26.6875 Q 24.375,26.75 24.5,26.75 H 24.625 24.4375 24.25 24.5 q 0.25,0 0.5,-0.25 0.25,-0.25 0,-0.53125 L 24.75,25.6875 24.6875,25.71875 24.625,25.75 24.75,25.6875 Q 24.875,25.625 25,25.5 L 25.125,25.375 24.9375,25.5625 24.75,25.75 25,25.5 q 0.25,-0.25 -0.04687,-0.515625 l -0.296875,-0.265625 -0.04687,0.04687 -0.04687,0.04687 0.09375,-0.09375 Q 24.75,24.625 24.75,24.5 V 24.375 24.5625 24.75 24.5"
       id="path1123" />
    <path
       style="fill:#a0a0a0;fill-opacity:1"
       d="M 11.125,25.375 11,25 11.09375,25.28125 11.1875,25.5625 11.125,25.375 Q 11.0625,25.1875 11.03125,24.96875 L 11,24.75 l 0.01563,0.109375 0.01563,0.109375 0.484375,0.01563 L 12,25 12.125,25.375 Q 12.25,25.75 12.5,26 q 0.25,0.25 0.375,0.625 L 13,27 H 12.5 12 L 11.875,26.625 Q 11.75,26.25 11.5,26 11.25,25.75 11.125,25.375 M 11.90625,26.71875 12,27 12.03125,27.09375 12.0625,27.1875 12,27 q -0.0625,-0.1875 -0.125,-0.375 l -0.0625,-0.1875 0.09375,0.28125"
       id="path1125" />
    <path
       style="fill:#808080;fill-opacity:1"
       d="M 12.125,25.375 12,25 h 0.5 0.5 l 0.125,0.375 Q 13.25,25.75 13.5,25.75 H 13.75 13.5625 13.375 13.5 q 0.125,0 0.21875,-0.09375 l 0.09375,-0.09375 -0.04687,0.04687 -0.04687,0.04687 0.265625,0.296875 L 14.25,26.25 14,26.5 q -0.25,0.25 -0.625,0.375 L 13,27 12.875,26.625 Q 12.75,26.25 12.5,26 12.25,25.75 12.125,25.375 M 14.0625,26.4375 14.25,26.25 14.3125,26.1875 14.375,26.125 14.25,26.25 Q 14.125,26.375 14,26.5 l -0.125,0.125 0.1875,-0.1875 M 13.125,25 H 13 12.625 12.25 12.5 q 0.25,0 0.5,0 h 0.25 -0.125"
       id="path1127" />
    <path
       style="fill:#c0c0c0;fill-opacity:1"
       d="M 13.125,25.375 13,25 h 0.5 0.5 l -0.125,0.375 Q 13.75,25.75 13.5,25.75 q -0.25,0 -0.375,-0.375 M 13.375,25 H 13 12.875 12.75 13 q 0.25,0 0.5,0 h 0.25 -0.375"
       id="path1129" />
    <path
       style="fill:#a0a0a0;fill-opacity:1"
       d="M 13.875,25.375 14,25 l 0.375,0.125 q 0.375,0.125 0.375,0.375 0,0.25 -0.25,0.5 L 14.25,26.25 13.984375,25.953125 13.71875,25.65625 13.671875,25.703125 13.625,25.75 13.71875,25.65625 Q 13.8125,25.5625 13.875,25.375 L 13.9375,25.1875 13.84375,25.46875 13.75,25.75 13.875,25.375 M 14.1875,26.3125 14.25,26.25 14.4375,26.0625 14.625,25.875 14.5,26 q -0.125,0.125 -0.25,0.25 l -0.125,0.125 0.0625,-0.0625"
       id="path1131" />
    <path
       style="fill:#404040;fill-opacity:1"
       d="m 15.75,25.5 q 0,-0.25 0.28125,-0.53125 L 16.3125,24.6875 16.25,24.625 l -0.0625,-0.0625 0.125,0.125 q 0.125,0.125 0.3125,0.1875 L 16.8125,24.9375 16.53125,24.84375 16.25,24.75 16.609375,24.890625 16.96875,25.03125 16.953125,24.921875 16.9375,24.8125 16.96875,25.03125 Q 17,25.25 17,25.5 V 25.75 25.375 25 25.5 26 l -0.375,0.125 Q 16.25,26.25 16,26.5 15.75,26.75 15.375,26.875 15,27 14.625,27.125 14.25,27.25 14.109375,27.640625 l -0.140625,0.390625 0.109375,0.01563 0.109375,0.01563 -0.21875,-0.03125 Q 13.75,28 13.5,28 H 13.25 13.625 14 13.5 q -0.5,0 -0.875,-0.125 -0.375,-0.125 -0.5,-0.5 L 12,27 h 0.5 0.5 l 0.375,-0.125 Q 13.75,26.75 14,26.5 14.25,26.25 14.5,26 L 14.75,25.75 14.5625,25.9375 14.375,26.125 14.5,26 q 0.125,-0.125 0.1875,-0.25 L 14.75,25.625 14.71875,25.6875 14.6875,25.75 14.96875,26 Q 15.25,26.25 15.5,26 15.75,25.75 15.75,25.5 M 11.96875,26.90625 12,27 12.09375,27.28125 12.1875,27.5625 12.125,27.375 Q 12.0625,27.1875 12,27 l -0.0625,-0.1875 0.03125,0.09375 M 17,26.125 V 26 25.625 25.25 25.5 q 0,0.25 0,0.5 v 0.25 -0.125"
       id="path1133" />
    <path
       style="fill:#404040;fill-opacity:1"
       d="M 23.125,25.65625 Q 23.25,25.25 23.640625,25.109375 L 24.03125,24.96875 24.015625,24.859375 24,24.75 24.03125,24.96875 Q 24.0625,25.1875 24.125,25.375 L 24.1875,25.5625 24.09375,25.28125 24,25 24.125,25.375 Q 24.25,25.75 24.5,25.75 H 24.75 24.5625 24.375 24.5 q 0.125,0 0.25,-0.0625 L 24.875,25.625 24.8125,25.65625 24.75,25.6875 25,25.96875 Q 25.25,26.25 25,26.5 q -0.25,0.25 -0.5,0.25 -0.25,0 -0.5,-0.25 -0.25,-0.25 -0.625,-0.375 L 23,26 23.28125,26.09375 23.5625,26.1875 23.375,26.125 Q 23.1875,26.0625 23,26.0625 H 22.8125 22.90625 23 l 0.125,-0.40625"
       id="path1135" />
    <path
       style="fill:#808080;fill-opacity:1"
       d="M 24.125,25.375 24,25 24.375,24.875 24.75,24.75 24.46875,24.84375 24.1875,24.9375 24.375,24.875 q 0.1875,-0.0625 0.28125,-0.15625 L 24.75,24.625 l -0.04687,0.04687 -0.04687,0.04687 0.296875,0.265625 Q 25.25,25.25 25,25.5 q -0.25,0.25 -0.5,0.25 -0.25,0 -0.375,-0.375"
       id="path1137" />
    <path
       style="fill:#000000;fill-opacity:1"
       d="m 29,25.5 q 0,-0.5 0.5,-0.5 0.5,0 0.5,0.5 0,0.5 0,1 0,0.5 -0.5,0.5 -0.5,0 -0.5,0.5 0,0.5 0,1 0,0.5 -0.5,0.5 -0.5,0 -1,0 Q 27,29 27,29.5 27,30 26.5,30 26,30 26,30.5 26,31 25.5,31 25,31 25,31.5 V 32 H 24.5 24 23.5 23 22.5 22 21.5 21 20.5 20 19.5 19 18.5 18 17.5 17 16.5 16 15.5 15 V 31.5 Q 15,31 14.5,31 14,31 13.875,30.625 13.75,30.25 13.375,30.125 13,30 12.875,29.625 12.75,29.25 13.015625,28.984375 l 0.265625,-0.265625 -0.04687,-0.07813 -0.04687,-0.07813 0.09375,0.15625 Q 13.375,28.875 13.5,29 L 13.625,29.125 13.4375,28.9375 13.25,28.75 13.5,29 q 0.25,0.25 0.5,0.5 0.25,0.25 0.625,0.375 Q 15,30 15.5,30 H 16 l 0.125,0.375 q 0.125,0.375 0.5,0.5 L 17,31 H 17.5 18 17.625 17.25 17.5 q 0.25,0 0.375,-0.125 L 18,30.75 17.9375,30.8125 17.875,30.875 H 18.5 19.125 L 19.0625,30.8125 19,30.75 19.125,30.875 Q 19.25,31 19.5,31 H 19.75 19.375 19 19.5 20 20.5 q 0.5,0 1,0 H 22 l 0.375,-0.125 Q 22.75,30.75 23,30.5 23.25,30.25 23.5,30 23.75,29.75 24,29.5 24.25,29.25 24.5,29 24.75,28.75 24.875,28.375 L 25,28 h 0.5 q 0.5,0 0.625,-0.375 0.125,-0.375 0.5,-0.5 Q 27,27 27,26.5 27,26 27.5,26 q 0.5,0 1,0 0.5,0 0.5,-0.5"
       id="path1139" />
    <path
       style="fill:#808080;fill-opacity:1"
       d="m 16,26.5 q 0.25,-0.25 0.625,-0.375 L 17,26 v 0.5 0.5 l -0.375,0.125 q -0.375,0.125 -0.5,0.5 L 16,28 15.625,27.875 q -0.375,-0.125 -0.5,-0.5 L 15,27 15.375,26.875 Q 15.75,26.75 16,26.5 M 15.28125,26.90625 15,27 14.90625,27.03125 14.8125,27.0625 15,27 q 0.1875,-0.0625 0.375,-0.125 l 0.1875,-0.0625 -0.28125,0.09375 M 17,26.375 V 26 25.875 25.75 26 q 0,0.25 0,0.5 v 0.25 -0.375"
       id="path1141" />
    <path
       style="fill:#808080;fill-opacity:1"
       d="m 22.125,26.625 q 0.125,-0.375 0.5,-0.5 Q 23,26 23.375,26.125 23.75,26.25 24,26.5 L 24.25,26.75 24.0625,26.5625 23.875,26.375 24,26.5 q 0.125,0.125 0.25,0.1875 L 24.375,26.75 24.3125,26.71875 24.25,26.6875 23.96875,26.96875 23.6875,27.25 23.71875,27.3125 23.75,27.375 23.6875,27.25 Q 23.625,27.125 23.5,27 L 23.375,26.875 23.5625,27.0625 23.75,27.25 23.5,27 q -0.25,-0.25 -0.546875,0.01563 l -0.296875,0.265625 0.04687,0.04687 L 22.75,27.375 22.65625,27.28125 Q 22.5625,27.1875 22.375,27.125 L 22.1875,27.0625 22.46875,27.15625 22.75,27.25 22.375,27.125 22,27 22.125,26.625 M 22.09375,26.71875 22,27 21.96875,27.09375 21.9375,27.1875 22,27 q 0.0625,-0.1875 0.125,-0.375 l 0.0625,-0.1875 -0.09375,0.28125"
       id="path1143" />
    <path
       style="fill:#c0c0c0;fill-opacity:1"
       d="M 14.109375,27.640625 Q 14.25,27.25 14.625,27.125 L 15,27 l 0.125,0.375 q 0.125,0.375 0.5,0.5 L 16,28 15.71875,27.90625 15.4375,27.8125 15.625,27.875 Q 15.8125,27.9375 16,27.9375 H 16.1875 16.09375 16 l 0.125,0.40625 q 0.125,0.40625 0.515625,0.546875 l 0.390625,0.140625 0.01563,-0.109375 0.01563,-0.109375 -0.03125,0.21875 Q 17,29.25 17,29.5 V 29.75 29.375 29 29.5 30 H 16.5 16 L 15.875,29.625 Q 15.75,29.25 15.359375,29.140625 L 14.96875,29.03125 14.984375,29.140625 15,29.25 14.96875,29.03125 Q 14.9375,28.8125 14.875,28.625 L 14.8125,28.4375 14.90625,28.71875 15,29 14.875,28.625 q -0.125,-0.375 -0.5,-0.5 L 14,28 14.28125,28.09375 14.5625,28.1875 14.375,28.125 Q 14.1875,28.0625 13.96875,28.03125 L 13.75,28 l 0.109375,0.01563 0.109375,0.01563 0.140625,-0.390625 M 17,30.125 V 30 29.625 29.25 29.5 q 0,0.25 0,0.5 v 0.25 -0.125 M 15.09375,26.96875 15,27 14.71875,27.09375 14.4375,27.1875 14.625,27.125 Q 14.8125,27.0625 15,27 l 0.1875,-0.0625 -0.09375,0.03125"
       id="path1145" />
    <path
       style="fill:#606060;fill-opacity:1"
       d="m 16.125,27.625 q 0.125,-0.375 0.5,-0.5 L 17,27 16.875,27.375 q -0.125,0.375 -0.5,0.5 L 16,28 16.125,27.625"
       id="path1147" />
    <path
       style="fill:#404040;fill-opacity:1"
       d="M 16.875,27.375 17,27 H 17.5 18 17.625 17.25 17.5 q 0.25,0 0.46875,0.03125 l 0.21875,0.03125 -0.109375,-0.01563 -0.109375,-0.01563 -0.109375,0.359375 Q 17.75,27.75 17.5,28 17.25,28.25 17.125,28.625 L 17,29 17.09375,28.71875 17.1875,28.4375 17.125,28.625 q -0.0625,0.1875 -0.09375,0.40625 L 17,29.25 17.015625,29.140625 17.03125,29.03125 16.640625,28.890625 Q 16.25,28.75 16.125,28.375 L 16,28 16.375,27.875 q 0.375,-0.125 0.5,-0.5"
       id="path1149" />
    <path
       style="fill:#808080;fill-opacity:1"
       d="M 17.859375,27.390625 17.96875,27.03125 17.859375,27.015625 17.75,27 17.96875,27.03125 Q 18.1875,27.0625 18.375,27.125 L 18.5625,27.1875 18.28125,27.09375 18,27 l 0.375,0.125 q 0.375,0.125 0.5,0.5 L 19,28 18.625,28.125 Q 18.25,28.25 18,28.5 q -0.25,0.25 0.01563,0.515625 l 0.265625,0.265625 0.04687,-0.07813 L 18.375,29.125 18.28125,29.28125 Q 18.1875,29.4375 18.125,29.625 L 18.0625,29.8125 18.15625,29.53125 18.25,29.25 18.125,29.625 18,30 H 17.5 17 V 29.5 Q 17,29 17.125,28.625 17.25,28.25 17.5,28 q 0.25,-0.25 0.359375,-0.609375"
       id="path1151" />
    <path
       style="fill:#404040;fill-opacity:1"
       d="M 21.875,27.375 22,27 l 0.375,0.125 q 0.375,0.125 0.375,0.375 0,0.25 -0.25,0.5 -0.25,0.25 -0.375,0.625 L 22,29 22.125,29.375 22.25,29.75 22.15625,29.46875 22.0625,29.1875 22.125,29.375 q 0.0625,0.1875 0.15625,0.28125 L 22.375,29.75 l -0.04687,-0.04687 -0.04687,-0.04687 -0.265625,0.296875 Q 21.75,30.25 21.875,30.625 L 22,31 H 21.5 21 V 30.5 30 29.5 29 L 20.984375,28.484375 20.96875,27.96875 20.859375,27.984375 20.75,28 20.96875,27.96875 Q 21.1875,27.9375 21.375,27.875 L 21.5625,27.8125 21.28125,27.90625 21,28 21.375,27.875 q 0.375,-0.125 0.5,-0.5 m -1,3.625 H 21 21.375 21.75 21.5 q -0.25,0 -0.5,0 h -0.25 0.125 M 22.03125,26.90625 22,27 21.90625,27.28125 21.8125,27.5625 21.875,27.375 Q 21.9375,27.1875 22,27 l 0.0625,-0.1875 -0.03125,0.09375"
       id="path1153" />
    <path
       style="fill:#a0a0a0;fill-opacity:1"
       d="M 22.75,27.5 V 27.25 27.4375 27.625 27.5 q 0,-0.125 -0.09375,-0.21875 l -0.09375,-0.09375 0.04687,0.04687 0.04687,0.04687 0.296875,-0.265625 Q 23.25,26.75 23.5,27 q 0.25,0.25 0.25,0.5 0,0.25 -0.25,0.5 -0.25,0.25 -0.375,0.625 L 23,29 H 22.5 22 l 0.125,-0.375 Q 22.25,28.25 22.5,28 q 0.25,-0.25 0.25,-0.5"
       id="path1155" />
    <path
       style="fill:#808080;fill-opacity:1"
       d="M 13.140625,28.359375 13.03125,27.96875 12.921875,27.953125 12.8125,27.9375 13.03125,27.96875 Q 13.25,28 13.5,28 H 13.75 13.375 13 13.5 q 0.5,0 0.875,0.125 0.375,0.125 0.5,0.5 Q 15,29 15.015625,29.484375 l 0.01563,0.484375 0.109375,0.01563 L 15.25,30 15.03125,29.96875 Q 14.8125,29.9375 14.625,29.875 L 14.4375,29.8125 14.71875,29.90625 15,30 14.625,29.875 Q 14.25,29.75 14,29.5 13.75,29.25 13.5,29 13.25,28.75 13.140625,28.359375"
       id="path1157" />
    <path
       style="fill:#606060;fill-opacity:1"
       d="m 18,28.5 q 0.25,-0.25 0.625,-0.375 L 19,28 18.875,28.375 Q 18.75,28.75 18.5,29 L 18.25,29.25 18.4375,29.0625 18.625,28.875 18.5,29 q -0.125,0.125 -0.21875,0.28125 l -0.09375,0.15625 0.04687,-0.07813 0.04687,-0.07813 -0.265625,-0.265625 Q 17.75,28.75 18,28.5"
       id="path1159" />
    <path
       style="fill:#404040;fill-opacity:1"
       d="M 18.875,28.375 19,28 h 0.5 0.5 l -0.125,0.375 Q 19.75,28.75 19.5,29 19.25,29.25 19.125,29.625 L 19,30 V 30.5 31 30.625 30.25 30.5 q 0,0.25 0.125,0.375 L 19.25,31 19.1875,30.9375 19.125,30.875 H 18.5 17.875 L 17.8125,30.9375 17.75,31 17.875,30.875 Q 18,30.75 18,30.5 V 30.25 30.625 31 30.5 30 l 0.125,-0.375 Q 18.25,29.25 18.5,29 18.75,28.75 18.875,28.375 M 20.125,28 H 20 19.625 19.25 19.5 q 0.25,0 0.5,0 h 0.25 -0.125"
       id="path1161" />
    <path
       style="fill:#808080;fill-opacity:1"
       d="M 19.875,28.375 20,28 H 20.5 21 20.625 20.25 20.5 q 0.25,0 0.46875,-0.03125 l 0.21875,-0.03125 -0.109375,0.01563 -0.109375,0.01563 0.01563,0.515625 L 21,29 20.625,29.125 q -0.375,0.125 -0.5,0.5 L 20,30 H 19.5 19 l 0.125,-0.375 Q 19.25,29.25 19.5,29 19.75,28.75 19.875,28.375 M 20.375,28 H 20 19.875 19.75 20 q 0.25,0 0.5,0 h 0.25 -0.375"
       id="path1163" />
    <path
       style="fill:#404040;fill-opacity:1"
       d="M 23.125,28.625 Q 23.25,28.25 23.5,28 L 23.75,27.75 23.5625,27.9375 23.375,28.125 23.5,28 q 0.125,-0.125 0.1875,-0.25 L 23.75,27.625 23.71875,27.6875 23.6875,27.75 23.96875,28 Q 24.25,28.25 24,28.5 23.75,28.75 23.375,28.875 L 23,29 23.125,28.625"
       id="path1165" />
    <path
       style="fill:#404040;fill-opacity:1"
       d="M 15.015625,29.484375 15,29 v 0.375 0.375 -0.25 q 0,-0.25 -0.03125,-0.46875 l -0.03125,-0.21875 0.01563,0.109375 0.01563,0.109375 0.390625,0.109375 Q 15.75,29.25 15.875,29.625 L 16,30 H 15.5 15 15.375 15.75 15.5 q -0.25,0 -0.46875,-0.03125 l -0.21875,-0.03125 0.109375,0.01563 0.109375,0.01563 -0.01563,-0.484375"
       id="path1167" />
    <path
       style="fill:#a0a0a0;fill-opacity:1"
       d="m 20.125,29.625 q 0.125,-0.375 0.5,-0.5 L 21,29 V 29.5 30 H 20.5 20 l 0.125,-0.375"
       id="path1169" />
    <path
       style="fill:#808080;fill-opacity:1"
       d="M 22.125,29.375 22,29 h 0.5 0.5 l -0.125,0.375 Q 22.75,29.75 22.5,29.75 q -0.25,0 -0.375,-0.375"
       id="path1171" />
    <path
       style="fill:#808080;fill-opacity:1"
       d="M 16.125,30.375 16,30 h 0.5 0.5 v 0.5 0.5 l -0.375,-0.125 q -0.375,-0.125 -0.5,-0.5"
       id="path1173" />
    <path
       style="fill:#b0b0b0;fill-opacity:1"
       d="M 17,30.5 V 30 h 0.5 0.5 v 0.5 Q 18,31 17.5,31 H 17 v -0.5"
       id="path1175" />
    <path
       style="fill:#b0b0b0;fill-opacity:1"
       d="M 19,30.5 V 30 H 19.5 20 V 30.5 31 H 19.5 Q 19,31 19,30.5"
       id="path1177" />
    <path
       style="fill:#808080;fill-opacity:1"
       d="M 20,30.5 V 30 H 20.5 21 V 30.5 31 H 20.5 20 V 30.5 M 20.625,31 H 21 21.125 21.25 21 q -0.25,0 -0.5,0 h -0.25 0.375"
       id="path1179" />
  </g>
</svg>
