<?xml version="1.0" encoding="UTF-8" standalone="no"?>
<!-- Created with Inkscape (http://www.inkscape.org/) -->

<svg
   xmlns:dc="http://purl.org/dc/elements/1.1/"
   xmlns:cc="http://creativecommons.org/ns#"
   xmlns:rdf="http://www.w3.org/1999/02/22-rdf-syntax-ns#"
   xmlns:svg="http://www.w3.org/2000/svg"
   xmlns="http://www.w3.org/2000/svg"
   xmlns:sodipodi="http://sodipodi.sourceforge.net/DTD/sodipodi-0.dtd"
   xmlns:inkscape="http://www.inkscape.org/namespaces/inkscape"
   version="1.1"
   id="svg291"
   width="32"
   height="32"
   viewBox="0 0 32 32"
   sodipodi:docname="grape.svg"
   inkscape:version="0.92.5 (2060ec1f9f, 2020-04-08)">
  <metadata
     id="metadata297">
    <rdf:RDF>
      <cc:Work
         rdf:about="">
        <dc:format>image/svg+xml</dc:format>
        <dc:type
           rdf:resource="http://purl.org/dc/dcmitype/StillImage" />
        <dc:title></dc:title>
      </cc:Work>
    </rdf:RDF>
  </metadata>
  <defs
     id="defs295" />
  <sodipodi:namedview
     pagecolor="#ffffff"
     bordercolor="#666666"
     borderopacity="1"
     objecttolerance="10"
     gridtolerance="10"
     guidetolerance="10"
     inkscape:pageopacity="0"
     inkscape:pageshadow="2"
     inkscape:window-width="1920"
     inkscape:window-height="1118"
     id="namedview293"
     showgrid="false"
     inkscape:zoom="7.375"
     inkscape:cx="16"
     inkscape:cy="16"
     inkscape:window-x="0"
     inkscape:window-y="24"
     inkscape:window-maximized="1"
     inkscape:current-layer="svg291" />
  <g
     id="g491"
     transform="matrix(0.97881356,0,0,0.97881356,4,0.6779661)">
    <path
       style="fill:#000000;fill-opacity:0"
       d="M 0,0.5 V 0 H 0.5 1 1.5 2 2.5 3 3.5 4 4.5 5 5.5 6 6.5 7 7.5 8 8.5 9 9.5 10 10.5 11 11.5 12 12.5 13 13.5 14 14.5 15 15.5 16 16.5 17 17.5 18 18.5 19 19.5 20 20.5 21 21.5 22 22.5 23 23.5 24 24.5 25 25.5 26 26.5 27 27.5 28 28.5 29 29.5 30 30.5 31 31.5 32 V 0.5 1 1.5 2 2.5 3 3.5 4 4.5 5 5.5 6 6.5 7 7.5 8 8.5 9 9.5 10 10.5 11 11.5 12 12.5 13 13.5 14 14.5 15 15.5 16 16.5 17 17.5 18 18.5 19 19.5 20 20.5 21 21.5 22 22.5 23 23.5 24 24.5 25 25.5 26 26.5 27 27.5 28 28.5 29 29.5 30 30.5 31 31.5 32 H 31.5 31 30.5 30 29.5 29 28.5 28 27.5 27 26.5 26 25.5 25 24.5 24 23.5 23 22.5 22 21.5 21 20.5 20 19.5 19 18.5 18 17.5 17 16.5 16 15.5 15 14.5 14 13.5 13 12.5 12 11.5 11 10.5 10 9.5 9 8.5 8 7.5 7 6.5 6 5.5 5 4.5 4 3.5 3 2.5 2 1.5 1 0.5 0 V 31.5 31 30.5 30 29.5 29 28.5 28 27.5 27 26.5 26 25.5 25 24.5 24 23.5 23 22.5 22 21.5 21 20.5 20 19.5 19 18.5 18 17.5 17 16.5 16 15.5 15 14.5 14 13.5 13 12.5 12 11.5 11 10.5 10 9.5 9 8.5 8 7.5 7 6.5 6 5.5 5 4.5 4 3.5 3 2.5 2 1.5 1 0.5 M 9.5,30 q 0.5,0 0.625,-0.375 0.125,-0.375 0.5,-0.5 Q 11,29 11.5,29 q 0.5,0 1,0 0.5,0 1,0 0.5,0 1,0 Q 15,29 15,28.5 15,28 15.5,28 16,28 16,27.5 16,27 16.5,27 17,27 17,26.5 17,26 17.5,26 18,26 18,25.5 18,25 18.5,25 19,25 19,24.5 19,24 19.125,23.625 19.25,23.25 19.625,23.125 20,23 20.5,23 21,23 21,22.5 21,22 21.5,22 22,22 22,21.5 22,21 22.5,21 23,21 23,20.5 23,20 23.125,19.625 23.25,19.25 23.625,19.125 24,19 24,18.5 24,18 24,17.5 24,17 24,16.5 24,16 24.5,16 25,16 25,15.5 25,15 25,14.5 25,14 25.125,13.625 25.25,13.25 24.96875,13 L 24.6875,12.75 24.65625,12.8125 24.625,12.875 24.6875,12.75 Q 24.75,12.625 24.75,12.5 V 12.375 12.5625 12.75 12.5 Q 24.75,12.25 24.5,12 24.25,11.75 24,11.5 23.75,11.25 23.5,11 23.25,10.75 23,10.5 22.75,10.25 22.5,10 22.25,9.75 22.25,9.5 22.25,9.25 22.625,9.125 23,9 23.5,9 24,9 24.5,9 25,9 25.375,8.875 25.75,8.75 25.875,8.375 26,8 25.875,7.625 25.75,7.25 25.375,7.125 L 25,7 24.875,6.625 Q 24.75,6.25 24.375,6.125 24,6 23.5,6 23,6 22.625,5.875 22.25,5.75 22,5.5 21.75,5.25 21.375,5.125 21,5 20.5,5 20,5 19.5,5 H 19 L 18.875,4.625 Q 18.75,4.25 18.375,4.125 18,4 17.5,4 17,4 16.5,4 16,4 15.625,3.875 15.25,3.75 15,3.5 14.75,3.25 14.375,3.125 14,3 13.5,3 13,3 12.625,3.125 12.25,3.25 12.125,3.625 12,4 12,4.5 12,5 12.125,5.375 12.25,5.75 12.625,5.875 13,6 13.375,6.125 13.75,6.25 13.875,6.65625 L 14,7.0625 H 14.09375 14.1875 14 q -0.1875,0 -0.375,0.0625 L 13.4375,7.1875 13.71875,7.09375 14,7 13.625,7.125 Q 13.25,7.25 13,7.5 12.75,7.75 12.375,7.875 12,8 11.5,8 11,8 10.625,8.125 10.25,8.25 10,8.5 9.75,8.75 9.5,9 9.25,9.25 9,9.5 8.75,9.75 8.5,10 8.25,10.25 8.125,10.625 8,11 8,11.5 8,12 7.875,12.375 7.75,12.75 7.5,13 7.25,13.25 7.125,13.625 7,14 7,14.5 7,15 7,15.5 7,16 6.875,16.375 6.75,16.75 6.5,17 6.25,17.25 6.125,17.625 6,18 6,18.5 6,19 6.125,19.375 6.25,19.75 6.5,20 6.75,20.25 7,20.5 7.25,20.75 7.625,20.875 L 8,21 7.71875,20.90625 7.4375,20.8125 7.625,20.875 Q 7.8125,20.9375 8,20.9375 H 8.1875 8.09375 8 L 7.875,21.34375 Q 7.75,21.75 7.5,22 7.25,22.25 7.125,22.625 7,23 6.875,23.375 6.75,23.75 6.5,24 6.25,24.25 6,24.5 5.75,24.75 5.5,25 5.25,25.25 5.125,25.625 5,26 5,26.5 5,27 5.125,27.375 5.25,27.75 5.5,28 5.75,28.25 6,28.5 6.25,28.75 6.625,28.875 L 7,29 v 0.5 q 0,0.5 0.5,0.5 0.5,0 1,0 0.5,0 1,0"
       id="path301"
       inkscape:connector-curvature="0" />
    <path
       style="fill:#00a000;fill-opacity:1"
       d="M 12.125,3.625 Q 12.25,3.25 12.625,3.125 13,3 13.5,3 14,3 14.375,3.125 14.75,3.25 15,3.5 15.25,3.75 15.625,3.875 16,4 16.5,4 17,4 17.5,4 H 18 17.625 17.25 17.5 q 0.25,0 0.46875,0.03125 L 18.1875,4.0625 18.078125,4.046875 17.96875,4.03125 17.984375,4.515625 18,5 H 17.5 Q 17,5 16.5,5 16,5 15.625,4.875 15.25,4.75 15,4.5 14.75,4.25 14.375,4.125 14,4 13.5,4 13,4 12.515625,4.015625 L 12.03125,4.03125 12.015625,4.140625 12,4.25 12.03125,4.03125 Q 12.0625,3.8125 12.125,3.625 L 12.1875,3.4375 12.09375,3.71875 12,4 12.125,3.625 M 17.625,5 H 18 18.125 18.25 18 q -0.25,0 -0.5,0 h -0.25 0.375"
       id="path303"
       inkscape:connector-curvature="0" />
    <path
       style="fill:#006000;fill-opacity:1"
       d="M 12,4.5 V 4 4.375 4.75 4.5 Q 12,4.25 12.03125,4.03125 L 12.0625,3.8125 12.046875,3.921875 12.03125,4.03125 12.515625,4.015625 Q 13,4 13.5,4 14,4 14.375,4.125 14.75,4.25 15,4.5 15.25,4.75 15.625,4.875 16,5 16.5,5 q 0.5,0 1,0 0.5,0 1,0 H 19 V 5.5 6 H 18.5 Q 18,6 17.5,6 17,6 16.5,6 16,6 15.625,5.875 15.25,5.75 15,5.5 14.75,5.25 14.375,5.125 14,5 13.5,5 13,5 12.515625,4.984375 L 12.03125,4.96875 12.046875,5.078125 12.0625,5.1875 12.03125,4.96875 Q 12,4.75 12,4.5 V 4.25 4.625 5 4.5"
       id="path305"
       inkscape:connector-curvature="0" />
    <path
       style="fill:#008000;fill-opacity:1"
       d="M 17.984375,4.515625 17.96875,4.03125 17.859375,4.015625 17.75,4 17.96875,4.03125 Q 18.1875,4.0625 18.375,4.125 L 18.5625,4.1875 18.28125,4.09375 18,4 18.375,4.125 q 0.375,0.125 0.5,0.5 L 19,5 H 18.5 18 L 17.984375,4.515625 M 17.875,5 H 18 18.375 18.75 18.5 Q 18.25,5 18,5 h -0.25 0.125"
       id="path307"
       inkscape:connector-curvature="0" />
    <path
       style="fill:#200040;fill-opacity:1"
       d="M 12.125,5.375 12,5 12.09375,5.28125 12.1875,5.5625 12.125,5.375 Q 12.0625,5.1875 12.03125,4.96875 L 12,4.75 12.01563,4.859375 12.03126,4.96875 12.515635,4.984375 Q 13,5 13.5,5 14,5 14.375,5.125 14.75,5.25 15,5.5 15.25,5.75 15.625,5.875 16,6 16.5,6 17,6 17.5,6 H 18 v 0.5 q 0,0.5 0,1 V 8 L 17.625,8.125 Q 17.25,8.25 17.25,8.5 q 0,0.25 0.375,0.375 L 18,9 v 0.5 q 0,0.5 0,1 0,0.5 0,1 0,0.5 -0.125,0.875 -0.125,0.375 -0.515625,0.515625 L 16.96875,13.03125 16.984375,13.140625 17,13.25 16.96875,13.03125 Q 16.9375,12.8125 16.875,12.625 L 16.8125,12.4375 16.90625,12.71875 17,13 16.875,12.625 q -0.125,-0.375 -0.5,-0.5 L 16,12 v -0.5 q 0,-0.5 0,-1 V 10 L 16.375,9.875 Q 16.75,9.75 16.75,9.5 16.75,9.25 16.359375,9.140625 L 15.96875,9.03125 15.984375,9.140625 16,9.25 15.96875,9.03125 Q 15.9375,8.8125 15.875,8.625 L 15.8125,8.4375 15.90625,8.71875 16,9 15.875,8.625 Q 15.75,8.25 15.375,8.125 L 15,8 14.875,7.625 Q 14.75,7.25 14.375,7.125 L 14,7 14.28125,7.09375 14.5625,7.1875 14.375,7.125 Q 14.1875,7.0625 14,7.0625 H 13.8125 13.90625 14 L 13.875,6.65625 Q 13.75,6.25 13.375,6.125 13,6 12.625,5.875 12.25,5.75 12.125,5.375 m 6,0.625 H 18 17.625 17.25 17.5 q 0.25,0 0.5,0 h 0.25 -0.125"
       id="path309"
       inkscape:connector-curvature="0" />
    <path
       style="fill:#00a000;fill-opacity:1"
       d="M 19,5.5 V 5 h 0.5 Q 20,5 20.5,5 21,5 21.375,5.125 21.75,5.25 22,5.5 22.25,5.75 22.625,5.875 23,6 23.5,6 q 0.5,0 0.875,0.125 0.375,0.125 0.5,0.5 L 25,7 H 24.5 Q 24,7 23.5,7 23,7 22.625,6.875 22.25,6.75 22,6.5 21.75,6.25 21.375,6.125 21,6 20.5,6 20,6 19.5,6 H 19 V 5.5"
       id="path311"
       inkscape:connector-curvature="0" />
    <path
       style="fill:#00a000;fill-opacity:1"
       d="M 18,6.5 V 6 h 0.5 0.5 v 0.5 q 0,0.5 0,1 V 8 H 18.5 18 V 7.5 Q 18,7 18,6.5 M 18.375,6 H 18 17.875 17.75 18 q 0.25,0 0.5,0 h 0.25 -0.375"
       id="path313"
       inkscape:connector-curvature="0" />
    <path
       style="fill:#006000;fill-opacity:1"
       d="M 19,6.5 V 6 h 0.5 Q 20,6 20.5,6 21,6 21.375,6.125 21.75,6.25 22,6.5 22.25,6.75 22.625,6.875 23,7 23.5,7 24,7 24.5,7 H 25 L 24.875,7.375 Q 24.75,7.75 24.375,7.875 24,8 23.5,8 23,8 22.625,7.875 22.25,7.75 22,7.5 21.75,7.25 21.375,7.125 21,7 20.625,7.125 20.25,7.25 20.125,7.625 L 20,8 20.09375,7.71875 20.1875,7.4375 20.125,7.625 Q 20.0625,7.8125 20.03125,8.03125 L 20,8.25 20.015625,8.140625 20.03125,8.03125 19.515625,8.015625 19,8 V 7.5 q 0,-0.5 0,-1"
       id="path315"
       inkscape:connector-curvature="0" />
    <path
       style="fill:#300060;fill-opacity:1"
       d="m 13,7.5 q 0.25,-0.25 0.625,-0.375 0.375,-0.125 0.75,0 0.375,0.125 0.5,0.5 L 15,8 H 14.5 Q 14,8 13.625,8.125 13.25,8.25 13.125,8.625 L 13,9 12.625,9.125 Q 12.25,9.25 12.25,9.5 q 0,0.25 0.375,0.375 L 13,10 l 0.125,0.375 q 0.125,0.375 0.5,0.5 Q 14,11 14.5,11 q 0.5,0 1,0 H 16 v 0.5 0.5 h -0.5 q -0.5,0 -0.875,0.125 -0.375,0.125 -0.5,0.5 L 14,13 13.625,13.125 Q 13.25,13.25 13.25,13.5 q 0,0.25 0.375,0.375 L 14,14 14.125,14.375 Q 14.25,14.75 14.5,15 q 0.25,0.25 0.359375,0.609375 l 0.109375,0.359375 0.109375,-0.01563 0.109375,-0.01563 -0.21875,0.03125 Q 14.75,16 14.5,16 H 14.25 14.625 15 14.5 q -0.5,0 -0.875,0.125 -0.375,0.125 -0.5,0.5 L 13,17 12.625,17.125 q -0.375,0.125 -0.5,0.5 L 12,18 11.625,18.125 Q 11.25,18.25 11.25,18.5 q 0,0.25 0.375,0.375 L 12,19 12.125,19.375 Q 12.25,19.75 12.5,20 q 0.25,0.25 0.359375,0.609375 l 0.109375,0.359375 0.109375,-0.01563 0.109375,-0.01563 -0.21875,0.03125 Q 12.75,21 12.5,21 H 12.25 12.625 13 12.5 Q 12,21 11.625,20.875 11.25,20.75 11,20.5 q -0.25,-0.25 -0.5,-0.25 -0.25,0 -0.375,0.375 L 10,21 9.625,21.125 q -0.375,0.125 -0.5,0.5 L 9,22 8.625,22.125 Q 8.25,22.25 8.25,22.5 q 0,0.25 0.375,0.375 L 9,23 9.125,23.375 Q 9.25,23.75 9.5,23.75 q 0.25,0 0.375,-0.375 L 10,23 10.375,22.875 q 0.375,-0.125 0.5,-0.5 L 11,22 h 0.5 q 0.5,0 0.875,0.125 0.375,0.125 0.5,0.5 L 13,23 h -0.5 q -0.5,0 -0.875,0.125 -0.375,0.125 -0.5,0.5 L 11,24 10.625,24.125 Q 10.25,24.25 10.25,24.5 q 0,0.25 0.375,0.375 L 11,25 11.125,25.375 Q 11.25,25.75 11.5,26 q 0.25,0.25 0.359375,0.609375 l 0.109375,0.359375 0.109375,-0.01563 0.109375,-0.01563 -0.21875,0.03125 Q 11.75,27 11.5,27 H 11.25 11.625 12 11.5 Q 11,27 10.625,26.875 10.25,26.75 10,26.5 9.75,26.25 9.5,26 9.25,25.75 9,25.5 8.75,25.25 8.5,25 8.25,24.75 8,24.5 7.75,24.25 7.5,24.25 q -0.25,0 -0.375,0.375 L 7,25 6.625,25.125 Q 6.25,25.25 6.25,25.5 q 0,0.25 0.375,0.375 L 7,26 7.125,26.375 Q 7.25,26.75 7.5,27 7.75,27.25 7.859375,27.609375 L 7.96875,27.96875 8.078125,27.953125 8.1875,27.9375 7.96875,27.96875 Q 7.75,28 7.5,28 H 7.25 7.625 8 7.5 Q 7,28 6.625,27.875 6.25,27.75 6,27.5 5.75,27.25 5.390625,27.109375 L 5.03125,26.96875 5.046875,27.078125 5.0625,27.1875 5.03125,26.96875 Q 5,26.75 5,26.5 V 26.25 26.625 27 26.5 Q 5,26 5.125,25.625 5.25,25.25 5.5,25 5.75,24.75 6,24.5 6.25,24.25 6.5,24 6.75,23.75 6.875,23.375 7,23 7.125,22.625 7.25,22.25 7.5,22 7.75,21.75 7.875,21.34375 L 8,20.9375 H 7.90625 7.8125 8 q 0.1875,0 0.375,-0.0625 L 8.5625,20.8125 8.28125,20.90625 8,21 8.375,20.875 Q 8.75,20.75 8.75,20.5 8.75,20.25 8.375,20.125 8,20 7.625,19.875 7.25,19.75 7,19.5 6.75,19.25 6.390625,19.109375 L 6.03125,18.96875 6.046875,19.078125 6.0625,19.1875 6.03125,18.96875 Q 6,18.75 6,18.5 V 18.25 18.625 19 18.5 Q 6,18 6.125,17.625 6.25,17.25 6.5,17 6.75,16.75 6.875,16.375 L 7,16 6.90625,16.28125 6.8125,16.5625 6.875,16.375 Q 6.9375,16.1875 6.96875,15.96875 L 7,15.75 6.984375,15.859375 6.96875,15.96875 7.359375,16.109375 Q 7.75,16.25 7.875,16.625 L 8,17 7.625,17.125 Q 7.25,17.25 7.25,17.5 q 0,0.25 0.375,0.375 L 8,18 8.125,18.375 Q 8.25,18.75 8.5,19 q 0.25,0.25 0.5,0.5 0.25,0.25 0.5,0.25 0.25,0 0.375,-0.375 Q 10,19 9.984375,18.484375 L 9.96875,17.96875 9.859375,17.984375 9.75,18 9.96875,17.96875 Q 10.1875,17.9375 10.375,17.875 L 10.5625,17.8125 10.28125,17.90625 10,18 10.375,17.875 Q 10.75,17.75 11,17.5 q 0.25,-0.25 0.5,-0.5 0.25,-0.25 0.5,-0.5 0.25,-0.25 0.5,-0.5 0.25,-0.25 0.25,-0.5 0,-0.25 -0.375,-0.375 L 12,15 12.28125,15.09375 12.5625,15.1875 12.375,15.125 Q 12.1875,15.0625 12,15.0625 H 11.8125 11.90625 12 V 14.53125 Q 12,14 12,13.5 V 13 13.375 13.75 13.5 q 0,-0.25 -0.03125,-0.46875 l -0.03125,-0.21875 0.01563,0.109375 0.01563,0.109375 0.390625,-0.140625 Q 12.75,12.75 12.75,12.5 12.75,12.25 12.5,12 12.25,11.75 12,11.5 q -0.25,-0.25 -0.5,-0.25 -0.25,0 -0.375,0.375 L 11,12 h -0.5 q -0.5,0 -0.875,0.125 -0.375,0.125 -0.5,0.5 L 9,13 8.625,13.125 Q 8.25,13.25 8.25,13.5 q 0,0.25 0.375,0.375 L 9,14 9.125,14.375 Q 9.25,14.75 9.5,15 9.75,15.25 9.859375,15.609375 L 9.96875,15.96875 10.078125,15.953125 10.1875,15.9375 9.96875,15.96875 Q 9.75,16 9.5,16 H 9.25 9.625 10 9.5 Q 9,16 8.625,15.875 8.25,15.75 8,15.5 7.75,15.25 7.375,15.125 L 7,15 V 14.5 Q 7,14 7.125,13.625 7.25,13.25 7.5,13 7.75,12.75 7.875,12.375 8,12 8,11.5 8,11 8.125,10.625 8.25,10.25 8.5,10 8.75,9.75 9,9.5 9.25,9.25 9.5,9 9.75,8.75 10,8.5 10.25,8.25 10.625,8.125 11,8 11.5,8 12,8 12.375,7.875 12.75,7.75 13,7.5 M 7,14.625 V 15 15.125 15.25 15 q 0,-0.25 0,-0.5 v -0.25 0.375 m 2.625,-3.75 q 0.375,0.125 0.75,0 0.375,-0.125 0.5,-0.5 Q 11,10 10.875,9.625 10.75,9.25 10.5,9.25 q -0.25,0 -0.375,0.375 L 10,10 9.625,10.125 Q 9.25,10.25 9.25,10.5 q 0,0.25 0.375,0.375 M 16,11.375 V 11 10.875 10.75 11 q 0,0.25 0,0.5 v 0.25 -0.375"
       id="path317"
       inkscape:connector-curvature="0" />
    <path
       style="fill:#200040;fill-opacity:1"
       d="M 20.125,7.625 Q 20.25,7.25 20.625,7.125 21,7 21.375,7.125 21.75,7.25 22,7.5 22.25,7.75 22.625,7.875 23,8 23.5,8 24,8 24.375,7.875 24.75,7.75 24.875,7.375 L 25,7 25.375,7.125 q 0.375,0.125 0.5,0.5 0.125,0.375 0,0.75 -0.125,0.375 -0.5,0.5 Q 25,9 24.5,9 24,9 23.5,9 23,9 22.625,9.125 22.25,9.25 22.25,9.5 q 0,0.25 0.25,0.5 0.25,0.25 0.5,0.5 0.25,0.25 0.5,0.5 0.25,0.25 0.5,0.5 0.25,0.25 0.5,0.5 0.25,0.25 0.25,0.5 0,0.25 -0.25,0.5 -0.25,0.25 -0.375,0.625 Q 24,14 23.875,14.375 23.75,14.75 23.375,14.875 23,15 22.625,15.125 22.25,15.25 22.125,15.625 22,16 22,16.5 22,17 22.125,17.375 22.25,17.75 22.5,18 q 0.25,0.25 0.25,0.5 0,0.25 -0.25,0.5 -0.25,0.25 -0.5,0.5 -0.25,0.25 -0.5,0.5 -0.25,0.25 -0.5,0.5 -0.25,0.25 -0.5,0.5 -0.25,0.25 -0.5,0.5 -0.25,0.25 -0.5,0.5 -0.25,0.25 -0.5,0.5 -0.25,0.25 -0.625,0.375 Q 18,23 17.625,23.125 17.25,23.25 17.125,23.625 17,24 16.875,24.375 16.75,24.75 16.5,25 16.25,25.25 16,25.5 15.75,25.75 15.5,26 15.25,26.25 15,26.5 14.75,26.75 14.375,26.875 14,27 13.625,27.125 13.25,27.25 13,27.5 12.75,27.75 12.375,27.875 12,28 11.5,28 11,28 10.625,28.125 10.25,28.25 10,28.5 9.75,28.75 9.375,28.875 9,29 8.5,29 8,29 7.5,29 H 7 L 6.625,28.875 Q 6.25,28.75 6,28.5 5.75,28.25 5.5,28 5.25,27.75 5.125,27.375 L 5,27 5.09375,27.28125 5.1875,27.5625 5.125,27.375 Q 5.0625,27.1875 5.03125,26.96875 L 5,26.75 5.015625,26.859375 5.03125,26.96875 5.390625,27.109375 Q 5.75,27.25 6,27.5 6.25,27.75 6.625,27.875 7,28 7.5,28 8,28 8.375,27.875 8.75,27.75 8.875,27.375 9,27 8.875,26.625 8.75,26.25 8.375,26.125 L 8,26 7.875,25.625 Q 7.75,25.25 7.375,25.125 L 7,25 7.125,24.625 Q 7.25,24.25 7.5,24.25 q 0.25,0 0.5,0.25 0.25,0.25 0.5,0.5 0.25,0.25 0.5,0.5 0.25,0.25 0.5,0.5 0.25,0.25 0.5,0.5 0.25,0.25 0.625,0.375 Q 11,27 11.5,27 12,27 12.375,26.875 12.75,26.75 13,26.5 13.25,26.25 13.5,26 13.75,25.75 13.875,25.375 L 14,25 14.375,24.875 Q 14.75,24.75 14.75,24.5 q 0,-0.25 -0.390625,-0.359375 L 13.96875,24.03125 13.984375,24.140625 14,24.25 13.96875,24.03125 Q 13.9375,23.8125 13.875,23.625 L 13.8125,23.4375 13.90625,23.71875 14,24 13.875,23.625 q -0.125,-0.375 -0.5,-0.5 L 13,23 12.875,22.625 Q 12.75,22.25 12.375,22.125 12,22 11.5,22 H 11 l -0.125,-0.375 q -0.125,-0.375 -0.5,-0.5 L 10,21 10.125,20.625 Q 10.25,20.25 10.5,20.25 q 0.25,0 0.5,0.25 0.25,0.25 0.625,0.375 Q 12,21 12.5,21 13,21 13.375,20.875 13.75,20.75 14,20.5 14.25,20.25 14.5,20 14.75,19.75 14.875,19.375 L 15,19 15.375,19.125 Q 15.75,19.25 16,19.5 q 0.25,0.25 0.5,0.5 0.25,0.25 0.25,0.5 0,0.25 -0.25,0.5 -0.25,0.25 -0.25,0.5 0,0.25 0.25,0.25 0.25,0 0.5,-0.25 0.25,-0.25 0.625,-0.375 Q 18,21 18.5,21 19,21 19.375,20.875 19.75,20.75 20,20.5 20.25,20.25 20.5,20 20.75,19.75 20.875,19.375 L 21,19 21.375,18.875 Q 21.75,18.75 21.75,18.5 q 0,-0.25 -0.390625,-0.359375 L 20.96875,18.03125 20.984375,18.140625 21,18.25 20.96875,18.03125 Q 20.9375,17.8125 20.875,17.625 L 20.8125,17.4375 20.90625,17.71875 21,18 20.875,17.625 q -0.125,-0.375 -0.5,-0.5 L 20,17 19.875,16.625 q -0.125,-0.375 -0.5,-0.5 L 19,16 19.28125,16.09375 19.5625,16.1875 19.375,16.125 Q 19.1875,16.0625 18.96875,16.03125 L 18.75,16 l 0.109375,0.01563 0.109375,0.01563 -0.109375,-0.390625 Q 18.75,15.25 18.5,15.25 q -0.25,0 -0.359375,0.390625 L 18.03125,16.03125 18.140625,16.015625 18.25,16 18.03125,16.03125 Q 17.8125,16.0625 17.625,16.125 L 17.4375,16.1875 17.71875,16.09375 18,16 17.625,16.125 Q 17.25,16.25 17,16.5 16.75,16.75 16.5,17 16.25,17.25 16,17.5 15.75,17.75 15.375,17.875 15,18 14.5,18 H 14 l -0.125,-0.375 q -0.125,-0.375 -0.5,-0.5 L 13,17 13.125,16.625 q 0.125,-0.375 0.5,-0.5 Q 14,16 14.5,16 15,16 15.375,15.875 15.75,15.75 16,15.5 16.25,15.25 16.5,15 16.75,14.75 16.875,14.375 L 17,14 h 0.5 Q 18,14 18.375,14.125 18.75,14.25 19,14.5 19.25,14.75 19.625,14.875 20,15 20.5,15 21,15 21.375,14.875 21.75,14.75 22,14.5 22.25,14.25 22.5,14 22.75,13.75 22.875,13.375 L 23,13 23.375,12.875 Q 23.75,12.75 23.75,12.5 q 0,-0.25 -0.390625,-0.359375 L 22.96875,12.03125 22.984375,12.140625 23,12.25 22.96875,12.03125 Q 22.9375,11.8125 22.875,11.625 L 22.8125,11.4375 22.90625,11.71875 23,12 22.875,11.625 q -0.125,-0.375 -0.5,-0.5 L 22,11 21.875,10.625 Q 21.75,10.25 21.5,10 21.25,9.75 21,9.5 20.75,9.25 20.375,9.125 L 20,9 V 8.5 Q 20,8 20.125,7.625 M 20,8.625 V 9 9.125 9.25 9 Q 20,8.75 20,8.5 V 8.25 8.625 M 14.25,22.5 q 0,0.25 0.25,0.25 0.25,0 0.25,-0.25 0,-0.25 -0.25,-0.25 -0.25,0 -0.25,0.25 m 1,1 q 0,0.25 0.25,0.25 0.25,0 0.25,-0.25 0,-0.25 -0.25,-0.25 -0.25,0 -0.25,0.25"
       id="path319"
       inkscape:connector-curvature="0" />
    <path
       style="fill:#5000a0;fill-opacity:1"
       d="m 13.125,8.625 q 0.125,-0.375 0.5,-0.5 L 14,8 13.71875,8.09375 13.4375,8.1875 13.625,8.125 Q 13.8125,8.0625 14.03125,8.03125 L 14.25,8 14.140625,8.015625 14.03125,8.03125 13.890625,8.390625 Q 13.75,8.75 13.375,8.875 L 13,9 13.125,8.625"
       id="path321"
       inkscape:connector-curvature="0" />
    <path
       style="fill:#8000ff;fill-opacity:1"
       d="M 13.890625,8.390625 14.03125,8.03125 13.921875,8.046875 13.8125,8.0625 14.03125,8.03125 Q 14.25,8 14.5,8 H 14.75 14.375 14 14.5 15 V 8.5 9 l -0.375,0.125 q -0.375,0.125 -0.5,0.5 L 14,10 H 13.5 13 V 9.5 9 L 13.375,8.875 Q 13.75,8.75 13.890625,8.390625 M 15,9.125 V 9 8.625 8.25 8.5 Q 15,8.75 15,9 V 9.25 9.125"
       id="path323"
       inkscape:connector-curvature="0" />
    <path
       style="fill:#400080;fill-opacity:1"
       d="M 15,8.5 V 8 l 0.375,0.125 q 0.375,0.125 0.5,0.5 Q 16,9 16,9.5 V 10 H 15.5 15 V 9.5 q 0,-0.5 0,-1"
       id="path325"
       inkscape:connector-curvature="0" />
    <path
       style="fill:#5000a0;fill-opacity:1"
       d="m 17.25,8.5 q 0,-0.25 0.375,-0.375 L 18,8 V 8.5 9 L 17.625,8.875 Q 17.25,8.75 17.25,8.5"
       id="path327"
       inkscape:connector-curvature="0" />
    <path
       style="fill:#8000ff;fill-opacity:1"
       d="M 18,8.5 V 8 H 18.5 19 V 8.5 9 H 18.5 18 V 8.5 m 1,0.625 V 9 8.625 8.25 8.5 Q 19,8.75 19,9 V 9.25 9.125"
       id="path329"
       inkscape:connector-curvature="0" />
    <path
       style="fill:#400080;fill-opacity:1"
       d="M 19,8.5 V 8 L 19.515625,8.015625 20.03125,8.03125 20.046875,7.921875 20.0625,7.8125 20.03125,8.03125 Q 20,8.25 20,8.5 V 8.75 8.375 8 8.5 q 0,0.5 0,1 V 10 9.625 9.25 9.5 q 0,0.25 0.03125,0.46875 L 20.0625,10.1875 20.046875,10.078125 20.03125,9.96875 19.515625,9.984375 19,10 V 9.5 q 0,-0.5 0,-1"
       id="path331"
       inkscape:connector-curvature="0" />
    <path
       style="fill:#5000a0;fill-opacity:1"
       d="M 10.125,9.625 Q 10.25,9.25 10.5,9.25 q 0.25,0 0.375,0.375 L 11,10 10.90625,9.71875 10.8125,9.4375 10.875,9.625 Q 10.9375,9.8125 10.9375,10 V 10.1875 10.09375 10 H 10.46875 10 l 0.125,-0.375"
       id="path333"
       inkscape:connector-curvature="0" />
    <path
       style="fill:#400080;fill-opacity:1"
       d="m 12.25,9.5 q 0,-0.25 0.375,-0.375 L 13,9 V 9.5 10 L 12.625,9.875 Q 12.25,9.75 12.25,9.5"
       id="path335"
       inkscape:connector-curvature="0" />
    <path
       style="fill:#7000e0;fill-opacity:1"
       d="m 14.125,9.625 q 0.125,-0.375 0.5,-0.5 L 15,9 V 9.5 10 H 14.5 14 L 14.125,9.625 M 15,9.375 V 9 8.875 8.75 9 q 0,0.25 0,0.5 V 9.75 9.375"
       id="path337"
       inkscape:connector-curvature="0" />
    <path
       style="fill:#300060;fill-opacity:1"
       d="M 16,9.5 V 9 9.375 9.75 9.5 Q 16,9.25 15.96875,9.03125 L 15.9375,8.8125 15.95313,8.921875 15.96876,9.03125 16.359385,9.140625 Q 16.75,9.25 16.75,9.5 q 0,0.25 -0.375,0.375 L 16,10 V 9.5"
       id="path339"
       inkscape:connector-curvature="0" />
    <path
       style="fill:#7000e0;fill-opacity:1"
       d="M 18,9.5 V 9 H 18.5 19 V 9.5 10 H 18.5 18 V 9.5 m 0,0.125 V 10 10.125 10.25 10 Q 18,9.75 18,9.5 V 9.25 9.625 m 1,-0.25 V 9 8.875 8.75 9 q 0,0.25 0,0.5 V 9.75 9.375"
       id="path341"
       inkscape:connector-curvature="0" />
    <path
       style="fill:#300060;fill-opacity:1"
       d="M 20,9.5 V 9 l 0.375,0.125 Q 20.75,9.25 21,9.5 q 0.25,0.25 0.5,0.5 0.25,0.25 0.375,0.625 L 22,11 H 21.5 Q 21,11 20.625,10.875 20.25,10.75 20.125,10.375 20,10 20,9.5 M 20,8.875 V 9 9.375 9.75 9.5 Q 20,9.25 20,9 V 8.75 8.875"
       id="path343"
       inkscape:connector-curvature="0" />
    <path
       style="fill:#400080;fill-opacity:1"
       d="m 9.25,10.5 q 0,-0.25 0.375,-0.375 L 10,10 v 0.46875 0.46875 H 10.09375 10.1875 10 q -0.1875,0 -0.375,-0.0625 L 9.4375,10.8125 9.71875,10.90625 10,11 9.625,10.875 Q 9.25,10.75 9.25,10.5"
       id="path345"
       inkscape:connector-curvature="0" />
    <path
       style="fill:#8000ff;fill-opacity:1"
       d="M 10,10.46875 V 10 h 0.46875 0.46875 V 9.90625 9.8125 10 q 0,0.1875 -0.0625,0.375 L 10.8125,10.5625 10.90625,10.28125 11,10 10.875,10.375 q -0.125,0.375 -0.5,0.5 L 10,11 10.28125,10.90625 10.5625,10.8125 10.375,10.875 Q 10.1875,10.9375 10,10.9375 H 9.8125 9.90625 10 v -0.46875"
       id="path347"
       inkscape:connector-curvature="0" />
    <path
       style="fill:#5000a0;fill-opacity:1"
       d="M 13.125,10.375 13,10 h 0.5 0.5 l 0.01563,0.484375 0.01563,0.484375 0.109375,0.01563 L 14.25,11 14.03125,10.96875 Q 13.8125,10.9375 13.625,10.875 L 13.4375,10.8125 13.71875,10.90625 14,11 13.625,10.875 q -0.375,-0.125 -0.5,-0.5"
       id="path349"
       inkscape:connector-curvature="0" />
    <path
       style="fill:#6000c0;fill-opacity:1"
       d="M 14.015625,10.484375 14,10 H 14.5 15 V 10.5 11 H 14.5 14 14.375 14.75 14.5 q -0.25,0 -0.46875,-0.03125 l -0.21875,-0.03125 0.109375,0.01563 0.109375,0.01563 -0.01563,-0.484375 M 14.625,11 H 15 15.125 15.25 15 q -0.25,0 -0.5,0 h -0.25 0.375"
       id="path351"
       inkscape:connector-curvature="0" />
    <path
       style="fill:#5000a0;fill-opacity:1"
       d="M 15,10.5 V 10 H 15.5 16 V 10.5 11 H 15.5 15 V 10.5 M 14.875,11 H 15 15.375 15.75 15.5 q -0.25,0 -0.5,0 h -0.25 0.125 M 16,11.125 V 11 10.625 10.25 10.5 q 0,0.25 0,0.5 v 0.25 -0.125"
       id="path353"
       inkscape:connector-curvature="0" />
    <path
       style="fill:#6000c0;fill-opacity:1"
       d="M 18,10.5 V 10 h 0.5 0.5 l -0.125,0.375 q -0.125,0.375 -0.5,0.5 L 18,11 v -0.5 m 0,0.125 V 11 11.125 11.25 11 q 0,-0.25 0,-0.5 v -0.25 0.375 m 0,-0.75 V 10 10.375 10.75 10.5 Q 18,10.25 18,10 V 9.75 9.875"
       id="path355"
       inkscape:connector-curvature="0" />
    <path
       style="fill:#5000a0;fill-opacity:1"
       d="M 18.875,10.375 19,10 19.515625,9.984375 20.03125,9.96875 20.015625,9.859375 20,9.75 20.03125,9.96875 Q 20.0625,10.1875 20.125,10.375 L 20.1875,10.5625 20.09375,10.28125 20,10 l 0.125,0.375 q 0.125,0.375 0.5,0.5 L 21,11 20.71875,10.90625 20.4375,10.8125 20.625,10.875 q 0.1875,0.0625 0.40625,0.09375 L 21.25,11 21.140625,10.984375 21.03125,10.96875 20.890625,11.359375 Q 20.75,11.75 20.375,11.875 L 20,12 19.875,11.625 Q 19.75,11.25 19.5,11.25 q -0.25,0 -0.5,0.25 -0.25,0.25 -0.640625,0.359375 L 17.96875,11.96875 17.953125,12.078125 17.9375,12.1875 17.96875,11.96875 Q 18,11.75 18,11.5 V 11.25 11.625 12 11.5 11 l 0.375,-0.125 q 0.375,-0.125 0.5,-0.5 M 18,10.875 V 11 11.375 11.75 11.5 q 0,-0.25 0,-0.5 v -0.25 0.125"
       id="path357"
       inkscape:connector-curvature="0" />
    <path
       style="fill:#200040;fill-opacity:1"
       d="M 11.125,11.625 Q 11.25,11.25 11.5,11.25 q 0.25,0 0.5,0.25 0.25,0.25 0.5,0.5 0.25,0.25 0.25,0.5 0,0.25 -0.390625,0.390625 L 11.96875,13.03125 11.984375,13.140625 12,13.25 11.96875,13.03125 Q 11.9375,12.8125 11.875,12.625 L 11.8125,12.4375 11.90625,12.71875 12,13 11.875,12.625 q -0.125,-0.375 -0.5,-0.5 L 11,12 11.125,11.625"
       id="path359"
       inkscape:connector-curvature="0" />
    <path
       style="fill:#300060;fill-opacity:1"
       d="m 19,11.5 q 0.25,-0.25 0.5,-0.25 0.25,0 0.375,0.375 L 20,12 19.625,12.125 Q 19.25,12.25 19.25,12.5 q 0,0.25 0.375,0.375 L 20,13 20.125,13.375 Q 20.25,13.75 20.5,14 q 0.25,0.25 0.359375,0.609375 l 0.109375,0.359375 0.109375,-0.01563 0.109375,-0.01563 -0.21875,0.03125 Q 20.75,15 20.5,15 H 20.25 20.625 21 20.5 Q 20,15 19.625,14.875 19.25,14.75 19,14.5 18.75,14.25 18.375,14.125 18,14 17.5,14 H 17 V 13.5 13 13.375 13.75 13.5 q 0,-0.25 -0.03125,-0.46875 l -0.03125,-0.21875 0.01563,0.109375 0.01563,0.109375 0.390625,-0.140625 Q 17.75,12.75 17.875,12.375 L 18,12 17.90625,12.28125 17.8125,12.5625 17.875,12.375 q 0.0625,-0.1875 0.09375,-0.40625 L 18,11.75 17.98437,11.859375 17.96874,11.96875 18.359365,11.859375 Q 18.75,11.75 19,11.5"
       id="path361"
       inkscape:connector-curvature="0" />
    <path
       style="fill:#8000ff;fill-opacity:1"
       d="M 20.890625,11.359375 21.03125,10.96875 20.921875,10.953125 20.8125,10.9375 21.03125,10.96875 Q 21.25,11 21.5,11 H 21.75 21.375 21 21.5 22 v 0.5 0.5 l -0.375,0.125 q -0.375,0.125 -0.5,0.5 L 21,13 H 20.5 20 V 12.5 12 l 0.375,-0.125 Q 20.75,11.75 20.890625,11.359375 M 22,12.125 V 12 11.625 11.25 11.5 q 0,0.25 0,0.5 v 0.25 -0.125"
       id="path363"
       inkscape:connector-curvature="0" />
    <path
       style="fill:#400080;fill-opacity:1"
       d="M 22,11.5 V 11 l 0.375,0.125 q 0.375,0.125 0.5,0.5 Q 23,12 23,12.5 V 13 H 22.5 22 v -0.5 q 0,-0.5 0,-1"
       id="path365"
       inkscape:connector-curvature="0" />
    <path
       style="fill:#5000a0;fill-opacity:1"
       d="m 9.125,12.625 q 0.125,-0.375 0.5,-0.5 L 10,12 9.71875,12.09375 9.4375,12.1875 9.625,12.125 q 0.1875,-0.0625 0.40625,-0.09375 L 10.25,12 10.140625,12.015625 10.03125,12.03125 9.890625,12.390625 Q 9.75,12.75 9.375,12.875 L 9,13 9.125,12.625"
       id="path367"
       inkscape:connector-curvature="0" />
    <path
       style="fill:#8000ff;fill-opacity:1"
       d="M 9.890625,12.390625 10.03125,12.03125 9.921875,12.046875 9.8125,12.0625 10.03125,12.03125 Q 10.25,12 10.5,12 H 10.75 10.375 10 10.5 11 v 0.5 0.5 l -0.375,0.125 q -0.375,0.125 -0.5,0.5 L 10,14 H 9.5 9 V 13.5 13 L 9.375,12.875 Q 9.75,12.75 9.890625,12.390625 M 11,13.125 V 13 12.625 12.25 12.5 q 0,0.25 0,0.5 v 0.25 -0.125"
       id="path369"
       inkscape:connector-curvature="0" />
    <path
       style="fill:#400080;fill-opacity:1"
       d="M 11,12.5 V 12 l 0.375,0.125 q 0.375,0.125 0.5,0.5 Q 12,13 12,13.5 V 14 H 11.5 11 v -0.5 q 0,-0.5 0,-1 m 1,1.625 V 14 13.625 13.25 13.5 q 0,0.25 0,0.5 v 0.25 -0.125"
       id="path371"
       inkscape:connector-curvature="0" />
    <path
       style="fill:#5000a0;fill-opacity:1"
       d="m 14.125,12.625 q 0.125,-0.375 0.5,-0.5 L 15,12 14.71875,12.09375 14.4375,12.1875 14.625,12.125 q 0.1875,-0.0625 0.40625,-0.09375 L 15.25,12 15.140625,12.01563 15.03125,12.03126 14.890625,12.390635 Q 14.75,12.75 14.375,12.875 L 14,13 14.125,12.625"
       id="path373"
       inkscape:connector-curvature="0" />
    <path
       style="fill:#8000ff;fill-opacity:1"
       d="M 14.890625,12.390625 15.03125,12.03125 14.921875,12.046875 14.8125,12.0625 15.03125,12.03125 Q 15.25,12 15.5,12 H 15.75 15.375 15 15.5 16 v 0.5 0.5 l -0.375,0.125 q -0.375,0.125 -0.5,0.5 L 15,14 H 14.5 14 V 13.5 13 l 0.375,-0.125 Q 14.75,12.75 14.890625,12.390625 M 16,13.125 V 13 12.625 12.25 12.5 q 0,0.25 0,0.5 v 0.25 -0.125"
       id="path375"
       inkscape:connector-curvature="0" />
    <path
       style="fill:#400080;fill-opacity:1"
       d="M 16,12.5 V 12 l 0.375,0.125 q 0.375,0.125 0.5,0.5 Q 17,13 17,13.5 V 14 H 16.5 16 v -0.5 q 0,-0.5 0,-1"
       id="path377"
       inkscape:connector-curvature="0" />
    <path
       style="fill:#400080;fill-opacity:1"
       d="m 19.25,12.5 q 0,-0.25 0.375,-0.375 L 20,12 V 12.5 13 L 19.625,12.875 Q 19.25,12.75 19.25,12.5"
       id="path379"
       inkscape:connector-curvature="0" />
    <path
       style="fill:#7000e0;fill-opacity:1"
       d="m 21.125,12.625 q 0.125,-0.375 0.5,-0.5 L 22,12 V 12.5 13 H 21.5 21 l 0.125,-0.375 M 22,12.375 V 12 11.875 11.75 12 q 0,0.25 0,0.5 v 0.25 -0.375"
       id="path381"
       inkscape:connector-curvature="0" />
    <path
       style="fill:#300060;fill-opacity:1"
       d="M 23,12.5 V 12 12.375 12.75 12.5 q 0,-0.25 -0.03125,-0.46875 l -0.03125,-0.21875 0.01563,0.109375 0.01563,0.109375 0.390625,0.109375 Q 23.75,12.25 23.75,12.5 q 0,0.25 -0.375,0.375 L 23,13 v -0.5"
       id="path383"
       inkscape:connector-curvature="0" />
    <path
       style="fill:#400080;fill-opacity:1"
       d="m 8.25,13.5 q 0,-0.25 0.375,-0.375 L 9,13 V 13.5 14 L 8.625,13.875 Q 8.25,13.75 8.25,13.5"
       id="path385"
       inkscape:connector-curvature="0" />
    <path
       style="fill:#7000e0;fill-opacity:1"
       d="m 10.125,13.625 q 0.125,-0.375 0.5,-0.5 L 11,13 V 13.5 14 H 10.5 10 l 0.125,-0.375 M 11,13.375 V 13 12.875 12.75 13 q 0,0.25 0,0.5 v 0.25 -0.375"
       id="path387"
       inkscape:connector-curvature="0" />
    <path
       style="fill:#400080;fill-opacity:1"
       d="m 13.25,13.5 q 0,-0.25 0.375,-0.375 L 14,13 V 13.5 14 L 13.625,13.875 Q 13.25,13.75 13.25,13.5"
       id="path389"
       inkscape:connector-curvature="0" />
    <path
       style="fill:#7000e0;fill-opacity:1"
       d="m 15.125,13.625 q 0.125,-0.375 0.5,-0.5 L 16,13 V 13.5 14 H 15.5 15 l 0.125,-0.375 M 16,13.375 V 13 12.875 12.75 13 q 0,0.25 0,0.5 v 0.25 -0.375"
       id="path391"
       inkscape:connector-curvature="0" />
    <path
       style="fill:#5000a0;fill-opacity:1"
       d="M 20.125,13.375 20,13 h 0.5 0.5 l 0.125,0.375 q 0.125,0.375 0.375,0.375 0.25,0 0.375,-0.375 L 22,13 h 0.5 0.5 l -0.125,0.375 Q 22.75,13.75 22.5,14 22.25,14.25 22,14.5 21.75,14.75 21.375,14.875 L 21,15 21.28125,14.90625 21.5625,14.8125 21.375,14.875 q -0.1875,0.0625 -0.40625,0.09375 L 20.75,15 20.859375,14.984375 20.96875,14.96875 20.859375,14.609375 Q 20.75,14.25 20.5,14 20.25,13.75 20.125,13.375"
       id="path393"
       inkscape:connector-curvature="0" />
    <path
       style="fill:#6000c0;fill-opacity:1"
       d="M 21.125,13.375 21,13 h 0.5 0.5 l -0.125,0.375 Q 21.75,13.75 21.5,13.75 q -0.25,0 -0.375,-0.375"
       id="path395"
       inkscape:connector-curvature="0" />
    <path
       style="fill:#000000;fill-opacity:1"
       d="M 24.125,13.625 Q 24.25,13.25 24.5,13 L 24.75,12.75 24.5625,12.9375 24.375,13.125 24.5,13 q 0.125,-0.125 0.1875,-0.25 L 24.75,12.625 24.71875,12.6875 24.6875,12.75 24.96875,13 Q 25.25,13.25 25.125,13.625 25,14 25,14.5 q 0,0.5 0,1 0,0.5 -0.5,0.5 -0.5,0 -0.5,0.5 0,0.5 0,1 0,0.5 0,1 0,0.5 -0.375,0.625 -0.375,0.125 -0.5,0.5 Q 23,20 23,20.5 23,21 22.5,21 22,21 22,21.5 22,22 21.5,22 21,22 21,22.5 21,23 20.5,23 20,23 19.625,23.125 19.25,23.25 19.125,23.625 19,24 19,24.5 19,25 18.5,25 18,25 18,25.5 18,26 17.5,26 17,26 17,26.5 17,27 16.5,27 16,27 16,27.5 16,28 15.5,28 15,28 15,28.5 15,29 14.5,29 q -0.5,0 -1,0 -0.5,0 -1,0 -0.5,0 -1,0 -0.5,0 -0.875,0.125 -0.375,0.125 -0.5,0.5 Q 10,30 9.5,30 9,30 8.5,30 8,30 7.5,30 7,30 7,29.5 V 29 H 7.5 Q 8,29 8.5,29 9,29 9.375,28.875 9.75,28.75 10,28.5 10.25,28.25 10.625,28.125 11,28 11.5,28 12,28 12.375,27.875 12.75,27.75 13,27.5 13.25,27.25 13.625,27.125 14,27 14.375,26.875 14.75,26.75 15,26.5 15.25,26.25 15.5,26 15.75,25.75 16,25.5 16.25,25.25 16.5,25 16.75,24.75 16.875,24.375 17,24 17.125,23.625 17.25,23.25 17.625,23.125 18,23 18.375,22.875 18.75,22.75 19,22.5 19.25,22.25 19.5,22 19.75,21.75 20,21.5 20.25,21.25 20.5,21 20.75,20.75 21,20.5 21.25,20.25 21.5,20 21.75,19.75 22,19.5 22.25,19.25 22.5,19 22.75,18.75 22.75,18.5 22.75,18.25 22.5,18 22.25,17.75 22.125,17.375 22,17 22,16.5 22,16 22.125,15.625 22.25,15.25 22.625,15.125 23,15 23.375,14.875 23.75,14.75 23.875,14.375 24,14 24.125,13.625"
       id="path397"
       inkscape:connector-curvature="0" />
    <path
       style="fill:#5000a0;fill-opacity:1"
       d="M 9.125,14.375 9,14 H 9.5 10 l 0.125,0.375 q 0.125,0.375 0.375,0.375 0.25,0 0.375,-0.375 L 11,14 h 0.5 0.5 v 0.53125 0.53125 H 12.09375 12.1875 12 q -0.1875,0 -0.375,0.0625 L 11.4375,15.1875 11.71875,15.09375 12,15 11.625,15.125 Q 11.25,15.25 11,15.5 10.75,15.75 10.375,15.875 L 10,16 10.28125,15.90625 10.5625,15.8125 10.375,15.875 q -0.1875,0.0625 -0.40625,0.09375 L 9.75,16 9.859375,15.984375 9.96875,15.96875 9.859375,15.609375 Q 9.75,15.25 9.5,15 9.25,14.75 9.125,14.375 m 2.875,0 V 14 13.875 13.75 14 q 0,0.25 0,0.5 v 0.25 -0.375"
       id="path399"
       inkscape:connector-curvature="0" />
    <path
       style="fill:#6000c0;fill-opacity:1"
       d="M 10.125,14.375 10,14 h 0.5 0.5 l -0.125,0.375 Q 10.75,14.75 10.5,14.75 q -0.25,0 -0.375,-0.375"
       id="path401"
       inkscape:connector-curvature="0" />
    <path
       style="fill:#5000a0;fill-opacity:1"
       d="M 14.125,14.375 14,14 h 0.5 0.5 l 0.125,0.375 q 0.125,0.375 0.375,0.375 0.25,0 0.375,-0.375 L 16,14 h 0.5 0.5 l -0.125,0.375 Q 16.75,14.75 16.5,15 16.25,15.25 16,15.5 15.75,15.75 15.375,15.875 L 15,16 15.28125,15.90625 15.5625,15.8125 15.375,15.875 q -0.1875,0.0625 -0.40625,0.09375 L 14.75,16 14.859375,15.984375 14.96875,15.96875 14.859375,15.609375 Q 14.75,15.25 14.5,15 14.25,14.75 14.125,14.375"
       id="path403"
       inkscape:connector-curvature="0" />
    <path
       style="fill:#6000c0;fill-opacity:1"
       d="M 15.125,14.375 15,14 h 0.5 0.5 l -0.125,0.375 Q 15.75,14.75 15.5,14.75 q -0.25,0 -0.375,-0.375"
       id="path405"
       inkscape:connector-curvature="0" />
    <path
       style="fill:#200040;fill-opacity:1"
       d="M 7,15.5 V 15 l 0.375,0.125 Q 7.75,15.25 8,15.5 8.25,15.75 8.625,15.875 9,16 9.5,16 10,16 10.375,15.875 10.75,15.75 11,15.5 q 0.25,-0.25 0.625,-0.375 0.375,-0.125 0.75,0 0.375,0.125 0.375,0.375 0,0.25 -0.25,0.5 -0.25,0.25 -0.5,0.5 -0.25,0.25 -0.5,0.5 -0.25,0.25 -0.5,0.5 -0.25,0.25 -0.625,0.375 Q 10,18 9.5,18 H 9 L 8.875,17.625 Q 8.75,17.25 8.375,17.125 L 8,17 7.875,16.625 Q 7.75,16.25 7.359375,16.109375 L 6.96875,15.96875 6.953125,16.078125 6.9375,16.1875 6.96875,15.96875 Q 7,15.75 7,15.5 V 15.25 15.625 16 15.5 M 7,14.875 V 15 15.375 15.75 15.5 Q 7,15.25 7,15 v -0.25 0.125"
       id="path407"
       inkscape:connector-curvature="0" />
    <path
       style="fill:#5000a0;fill-opacity:1"
       d="M 18.140625,15.640625 Q 18.25,15.25 18.5,15.25 q 0.25,0 0.359375,0.390625 l 0.109375,0.390625 0.109375,0.01563 0.109375,0.01563 -0.21875,-0.03125 Q 18.75,16 18.5,16 H 18.25 18.625 19 18.5 18 18.375 18.75 18.5 q -0.25,0 -0.46875,0.03125 l -0.21875,0.03125 0.109375,-0.01563 0.109375,-0.01563 0.109375,-0.390625"
       id="path409"
       inkscape:connector-curvature="0" />
    <path
       style="fill:#300060;fill-opacity:1"
       d="M 17,16.5 Q 17.25,16.25 17.625,16.125 18,16 18.5,16 q 0.5,0 0.875,0.125 0.375,0.125 0.5,0.5 L 20,17 h -0.5 q -0.5,0 -0.875,0.125 -0.375,0.125 -0.5,0.5 L 18,18 17.625,18.125 Q 17.25,18.25 17.25,18.5 q 0,0.25 0.375,0.375 L 18,19 18.125,19.375 Q 18.25,19.75 18.5,20 q 0.25,0.25 0.359375,0.609375 l 0.109375,0.359375 0.109375,-0.01563 0.109375,-0.01563 -0.21875,0.03125 Q 18.75,21 18.5,21 H 18.25 18.625 19 18.5 Q 18,21 17.625,21.125 17.25,21.25 17,21.5 q -0.25,0.25 -0.5,0.25 -0.25,0 -0.25,-0.25 0,-0.25 0.25,-0.5 0.25,-0.25 0.25,-0.5 0,-0.25 -0.25,-0.5 Q 16.25,19.75 16,19.5 15.75,19.25 15.375,19.125 L 15,19 14.984375,18.484375 14.96875,17.96875 14.859375,17.984375 14.75,18 14.96875,17.96875 Q 15.1875,17.9375 15.375,17.875 L 15.5625,17.8125 15.28125,17.90625 15,18 15.375,17.875 Q 15.75,17.75 16,17.5 16.25,17.25 16.5,17 16.75,16.75 17,16.5"
       id="path411"
       inkscape:connector-curvature="0" />
    <path
       style="fill:#400080;fill-opacity:1"
       d="m 7.25,17.5 q 0,-0.25 0.375,-0.375 L 8,17 V 17.5 18 L 7.625,17.875 Q 7.25,17.75 7.25,17.5"
       id="path413"
       inkscape:connector-curvature="0" />
    <path
       style="fill:#8000ff;fill-opacity:1"
       d="M 8,17.5 V 17 l 0.375,0.125 q 0.375,0.125 0.5,0.5 L 9,18 H 8.5 8 v -0.5"
       id="path415"
       inkscape:connector-curvature="0" />
    <path
       style="fill:#5000a0;fill-opacity:1"
       d="m 12.125,17.625 q 0.125,-0.375 0.5,-0.5 L 13,17 12.875,17.375 q -0.125,0.375 -0.5,0.5 L 12,18 12.125,17.625"
       id="path417"
       inkscape:connector-curvature="0" />
    <path
       style="fill:#8000ff;fill-opacity:1"
       d="M 12.875,17.375 13,17 l 0.375,0.125 q 0.375,0.125 0.5,0.5 L 14,18 13.625,18.125 q -0.375,0.125 -0.5,0.5 L 13,19 H 12.5 12 V 18.5 18 l 0.375,-0.125 q 0.375,-0.125 0.5,-0.5"
       id="path419"
       inkscape:connector-curvature="0" />
    <path
       style="fill:#5000a0;fill-opacity:1"
       d="m 18.125,17.625 q 0.125,-0.375 0.5,-0.5 L 19,17 18.71875,17.09375 18.4375,17.1875 18.625,17.125 q 0.1875,-0.0625 0.40625,-0.09375 L 19.25,17 19.140625,17.01563 19.03125,17.03126 18.890625,17.390635 Q 18.75,17.75 18.375,17.875 L 18,18 18.125,17.625"
       id="path421"
       inkscape:connector-curvature="0" />
    <path
       style="fill:#8000ff;fill-opacity:1"
       d="M 18.890625,17.390625 19.03125,17.03125 18.921875,17.046875 18.8125,17.0625 19.03125,17.03125 Q 19.25,17 19.5,17 H 19.75 19.375 19 19.5 20 v 0.5 0.5 l -0.375,0.125 q -0.375,0.125 -0.5,0.5 L 19,19 H 18.5 18 V 18.5 18 l 0.375,-0.125 Q 18.75,17.75 18.890625,17.390625 M 20,18.125 V 18 17.625 17.25 17.5 q 0,0.25 0,0.5 v 0.25 -0.125"
       id="path423"
       inkscape:connector-curvature="0" />
    <path
       style="fill:#400080;fill-opacity:1"
       d="M 20,17.5 V 17 l 0.375,0.125 q 0.375,0.125 0.5,0.5 Q 21,18 21,18.5 V 19 H 20.5 20 v -0.5 q 0,-0.5 0,-1"
       id="path425"
       inkscape:connector-curvature="0" />
    <path
       style="fill:#5000a0;fill-opacity:1"
       d="M 8.125,18.375 8,18 H 8.5 9 l 0.125,0.375 Q 9.25,18.75 9.609375,18.859375 L 9.96875,18.96875 9.984375,18.859375 10,18.75 9.96875,18.96875 Q 9.9375,19.1875 9.875,19.375 L 9.8125,19.5625 9.90625,19.28125 10,19 9.875,19.375 Q 9.75,19.75 9.5,19.75 9.25,19.75 9,19.5 8.75,19.25 8.5,19 8.25,18.75 8.125,18.375"
       id="path427"
       inkscape:connector-curvature="0" />
    <path
       style="fill:#6000c0;fill-opacity:1"
       d="M 9.125,18.375 9,18 H 9.5 10 9.625 9.25 9.5 q 0.25,0 0.46875,-0.03125 L 10.1875,17.9375 10.078125,17.953125 9.96875,17.96875 9.984375,18.484375 10,19 V 18.625 18.25 18.5 q 0,0.25 -0.03125,0.46875 L 9.9375,19.1875 9.953125,19.078125 9.96875,18.96875 9.609375,18.859375 Q 9.25,18.75 9.125,18.375"
       id="path429"
       inkscape:connector-curvature="0" />
    <path
       style="fill:#400080;fill-opacity:1"
       d="m 11.25,18.5 q 0,-0.25 0.375,-0.375 L 12,18 V 18.5 19 L 11.625,18.875 Q 11.25,18.75 11.25,18.5"
       id="path431"
       inkscape:connector-curvature="0" />
    <path
       style="fill:#7000e0;fill-opacity:1"
       d="m 13.125,18.625 q 0.125,-0.375 0.5,-0.5 L 14,18 V 18.5 19 H 13.5 13 l 0.125,-0.375"
       id="path433"
       inkscape:connector-curvature="0" />
    <path
       style="fill:#400080;fill-opacity:1"
       d="M 14,18.5 V 18 H 14.5 15 14.625 14.25 14.5 q 0.25,0 0.46875,-0.03125 L 15.1875,17.9375 15.078125,17.95313 14.96875,17.96876 14.98438,18.484385 15,19 H 14.5 14 v -0.5"
       id="path435"
       inkscape:connector-curvature="0" />
    <path
       style="fill:#400080;fill-opacity:1"
       d="m 17.25,18.5 q 0,-0.25 0.375,-0.375 L 18,18 V 18.5 19 L 17.625,18.875 Q 17.25,18.75 17.25,18.5"
       id="path437"
       inkscape:connector-curvature="0" />
    <path
       style="fill:#7000e0;fill-opacity:1"
       d="m 19.125,18.625 q 0.125,-0.375 0.5,-0.5 L 20,18 V 18.5 19 H 19.5 19 l 0.125,-0.375 M 20,18.375 V 18 17.875 17.75 18 q 0,0.25 0,0.5 v 0.25 -0.375"
       id="path439"
       inkscape:connector-curvature="0" />
    <path
       style="fill:#300060;fill-opacity:1"
       d="M 21,18.5 V 18 18.375 18.75 18.5 q 0,-0.25 -0.03125,-0.46875 l -0.03125,-0.21875 0.01563,0.109375 0.01563,0.109375 0.390625,0.109375 Q 21.75,18.25 21.75,18.5 q 0,0.25 -0.375,0.375 L 21,19 v -0.5"
       id="path441"
       inkscape:connector-curvature="0" />
    <path
       style="fill:#200040;fill-opacity:1"
       d="M 6.125,19.375 6,19 6.09375,19.28125 6.1875,19.5625 6.125,19.375 Q 6.0625,19.1875 6.03125,18.96875 L 6,18.75 6.015625,18.859375 6.03125,18.96875 6.390625,19.109375 Q 6.75,19.25 7,19.5 7.25,19.75 7.625,19.875 8,20 8.375,20.125 8.75,20.25 8.75,20.5 8.75,20.75 8.375,20.875 8,21 7.625,20.875 7.25,20.75 7,20.5 6.75,20.25 6.5,20 6.25,19.75 6.125,19.375"
       id="path443"
       inkscape:connector-curvature="0" />
    <path
       style="fill:#5000a0;fill-opacity:1"
       d="M 12.125,19.375 12,19 h 0.5 0.5 l 0.125,0.375 q 0.125,0.375 0.375,0.375 0.25,0 0.375,-0.375 L 14,19 h 0.5 0.5 l -0.125,0.375 Q 14.75,19.75 14.5,20 14.25,20.25 14,20.5 13.75,20.75 13.375,20.875 L 13,21 13.28125,20.90625 13.5625,20.8125 13.375,20.875 q -0.1875,0.0625 -0.40625,0.09375 L 12.75,21 12.859375,20.984375 12.96875,20.96875 12.859375,20.609375 Q 12.75,20.25 12.5,20 12.25,19.75 12.125,19.375"
       id="path445"
       inkscape:connector-curvature="0" />
    <path
       style="fill:#6000c0;fill-opacity:1"
       d="M 13.125,19.375 13,19 h 0.5 0.5 l -0.125,0.375 Q 13.75,19.75 13.5,19.75 q -0.25,0 -0.375,-0.375"
       id="path447"
       inkscape:connector-curvature="0" />
    <path
       style="fill:#5000a0;fill-opacity:1"
       d="M 18.125,19.375 18,19 h 0.5 0.5 l 0.125,0.375 q 0.125,0.375 0.375,0.375 0.25,0 0.375,-0.375 L 20,19 h 0.5 0.5 l -0.125,0.375 Q 20.75,19.75 20.5,20 20.25,20.25 20,20.5 19.75,20.75 19.375,20.875 L 19,21 19.28125,20.90625 19.5625,20.8125 19.375,20.875 q -0.1875,0.0625 -0.40625,0.09375 L 18.75,21 18.859375,20.984375 18.96875,20.96875 18.859375,20.609375 Q 18.75,20.25 18.5,20 18.25,19.75 18.125,19.375"
       id="path449"
       inkscape:connector-curvature="0" />
    <path
       style="fill:#6000c0;fill-opacity:1"
       d="M 19.125,19.375 19,19 h 0.5 0.5 l -0.125,0.375 Q 19.75,19.75 19.5,19.75 q -0.25,0 -0.375,-0.375"
       id="path451"
       inkscape:connector-curvature="0" />
    <path
       style="fill:#5000a0;fill-opacity:1"
       d="m 9.125,21.625 q 0.125,-0.375 0.5,-0.5 L 10,21 9.875,21.375 q -0.125,0.375 -0.5,0.5 L 9,22 9.125,21.625"
       id="path453"
       inkscape:connector-curvature="0" />
    <path
       style="fill:#8000ff;fill-opacity:1"
       d="M 9.875,21.375 10,21 l 0.375,0.125 q 0.375,0.125 0.5,0.5 L 11,22 10.625,22.125 q -0.375,0.125 -0.5,0.5 L 10,23 H 9.5 9 V 22.5 22 l 0.375,-0.125 q 0.375,-0.125 0.5,-0.5"
       id="path455"
       inkscape:connector-curvature="0" />
    <path
       style="fill:#400080;fill-opacity:1"
       d="m 8.25,22.5 q 0,-0.25 0.375,-0.375 L 9,22 V 22.5 23 L 8.625,22.875 Q 8.25,22.75 8.25,22.5"
       id="path457"
       inkscape:connector-curvature="0" />
    <path
       style="fill:#7000e0;fill-opacity:1"
       d="m 10.125,22.625 q 0.125,-0.375 0.5,-0.5 L 11,22 10.875,22.375 q -0.125,0.375 -0.5,0.5 L 10,23 10.125,22.625"
       id="path459"
       inkscape:connector-curvature="0" />
    <path
       style="fill:#8000ff;fill-opacity:1"
       d="m 14.25,22.5 q 0,-0.25 0.25,-0.25 0.25,0 0.25,0.25 0,0.25 -0.25,0.25 -0.25,0 -0.25,-0.25"
       id="path461"
       inkscape:connector-curvature="0" />
    <path
       style="fill:#5000a0;fill-opacity:1"
       d="M 9.125,23.375 9,23 H 9.5 10 L 9.875,23.375 Q 9.75,23.75 9.5,23.75 q -0.25,0 -0.375,-0.375"
       id="path463"
       inkscape:connector-curvature="0" />
    <path
       style="fill:#5000a0;fill-opacity:1"
       d="m 11.125,23.625 q 0.125,-0.375 0.5,-0.5 L 12,23 11.71875,23.09375 11.4375,23.1875 11.625,23.125 q 0.1875,-0.0625 0.40625,-0.09375 L 12.25,23 12.140625,23.01563 12.03125,23.03126 11.890625,23.390635 Q 11.75,23.75 11.375,23.875 L 11,24 11.125,23.625"
       id="path465"
       inkscape:connector-curvature="0" />
    <path
       style="fill:#8000ff;fill-opacity:1"
       d="M 11.890625,23.390625 12.03125,23.03125 11.921875,23.046875 11.8125,23.0625 12.03125,23.03125 Q 12.25,23 12.5,23 H 12.75 12.375 12 12.5 13 v 0.5 0.5 l -0.375,0.125 q -0.375,0.125 -0.5,0.5 L 12,25 H 11.5 11 V 24.5 24 l 0.375,-0.125 Q 11.75,23.75 11.890625,23.390625 M 13,24.125 V 24 23.625 23.25 23.5 q 0,0.25 0,0.5 v 0.25 -0.125"
       id="path467"
       inkscape:connector-curvature="0" />
    <path
       style="fill:#400080;fill-opacity:1"
       d="M 13,23.5 V 23 l 0.375,0.125 q 0.375,0.125 0.5,0.5 Q 14,24 14,24.5 V 25 H 13.5 13 v -0.5 q 0,-0.5 0,-1"
       id="path469"
       inkscape:connector-curvature="0" />
    <path
       style="fill:#6000c0;fill-opacity:1"
       d="m 15.25,23.5 q 0,-0.25 0.25,-0.25 0.25,0 0.25,0.25 0,0.25 -0.25,0.25 -0.25,0 -0.25,-0.25"
       id="path471"
       inkscape:connector-curvature="0" />
    <path
       style="fill:#400080;fill-opacity:1"
       d="m 10.25,24.5 q 0,-0.25 0.375,-0.375 L 11,24 V 24.5 25 L 10.625,24.875 Q 10.25,24.75 10.25,24.5"
       id="path473"
       inkscape:connector-curvature="0" />
    <path
       style="fill:#7000e0;fill-opacity:1"
       d="m 12.125,24.625 q 0.125,-0.375 0.5,-0.5 L 13,24 V 24.5 25 H 12.5 12 l 0.125,-0.375 M 13,24.375 V 24 23.875 23.75 24 q 0,0.25 0,0.5 v 0.25 -0.375"
       id="path475"
       inkscape:connector-curvature="0" />
    <path
       style="fill:#300060;fill-opacity:1"
       d="M 14,24.5 V 24 24.375 24.75 24.5 q 0,-0.25 -0.03125,-0.46875 l -0.03125,-0.21875 0.01563,0.109375 0.01563,0.109375 0.390625,0.109375 Q 14.75,24.25 14.75,24.5 q 0,0.25 -0.375,0.375 L 14,25 v -0.5"
       id="path477"
       inkscape:connector-curvature="0" />
    <path
       style="fill:#400080;fill-opacity:1"
       d="m 6.25,25.5 q 0,-0.25 0.375,-0.375 L 7,25 V 25.5 26 L 6.625,25.875 Q 6.25,25.75 6.25,25.5"
       id="path479"
       inkscape:connector-curvature="0" />
    <path
       style="fill:#8000ff;fill-opacity:1"
       d="M 7,25.5 V 25 l 0.375,0.125 q 0.375,0.125 0.5,0.5 L 8,26 H 7.5 7 v -0.5"
       id="path481"
       inkscape:connector-curvature="0" />
    <path
       style="fill:#5000a0;fill-opacity:1"
       d="M 11.125,25.375 11,25 h 0.5 0.5 l 0.125,0.375 q 0.125,0.375 0.375,0.375 0.25,0 0.375,-0.375 L 13,25 h 0.5 0.5 l -0.125,0.375 Q 13.75,25.75 13.5,26 13.25,26.25 13,26.5 12.75,26.75 12.375,26.875 L 12,27 12.28125,26.90625 12.5625,26.8125 12.375,26.875 q -0.1875,0.0625 -0.40625,0.09375 L 11.75,27 11.859375,26.984375 11.96875,26.96875 11.859375,26.609375 Q 11.75,26.25 11.5,26 11.25,25.75 11.125,25.375"
       id="path483"
       inkscape:connector-curvature="0" />
    <path
       style="fill:#6000c0;fill-opacity:1"
       d="M 12.125,25.375 12,25 h 0.5 0.5 l -0.125,0.375 Q 12.75,25.75 12.5,25.75 q -0.25,0 -0.375,-0.375"
       id="path485"
       inkscape:connector-curvature="0" />
    <path
       style="fill:#5000a0;fill-opacity:1"
       d="M 7.125,26.375 7,26 H 7.5 8 l 0.125,0.375 q 0.125,0.375 0.46875,0.5 L 8.9375,27 V 26.90625 26.8125 27 q 0,0.1875 -0.0625,0.375 L 8.8125,27.5625 8.90625,27.28125 9,27 8.875,27.375 q -0.125,0.375 -0.5,0.5 L 8,28 8.28125,27.90625 8.5625,27.8125 8.375,27.875 Q 8.1875,27.9375 7.96875,27.96875 L 7.75,28 7.859375,27.984375 7.96875,27.96875 7.859375,27.609375 Q 7.75,27.25 7.5,27 7.25,26.75 7.125,26.375"
       id="path487"
       inkscape:connector-curvature="0" />
    <path
       style="fill:#6000c0;fill-opacity:1"
       d="M 8.125,26.375 8,26 8.375,26.125 q 0.375,0.125 0.5,0.5 L 9,27 8.90625,26.71875 8.8125,26.4375 8.875,26.625 Q 8.9375,26.8125 8.9375,27 V 27.1875 27.09375 27 L 8.59375,26.875 Q 8.25,26.75 8.125,26.375"
       id="path489"
       inkscape:connector-curvature="0" />
  </g>
</svg>
