<?xml version="1.0" encoding="UTF-8" standalone="no"?>
<!-- Created with Inkscape (http://www.inkscape.org/) -->

<svg
   xmlns:dc="http://purl.org/dc/elements/1.1/"
   xmlns:cc="http://creativecommons.org/ns#"
   xmlns:rdf="http://www.w3.org/1999/02/22-rdf-syntax-ns#"
   xmlns:svg="http://www.w3.org/2000/svg"
   xmlns="http://www.w3.org/2000/svg"
   xmlns:sodipodi="http://sodipodi.sourceforge.net/DTD/sodipodi-0.dtd"
   xmlns:inkscape="http://www.inkscape.org/namespaces/inkscape"
   version="1.1"
   id="svg64"
   width="32"
   height="32"
   viewBox="0 0 32 32"
   sodipodi:docname="grimlord.svg"
   inkscape:version="0.92.5 (2060ec1f9f, 2020-04-08)">
  <metadata
     id="metadata70">
    <rdf:RDF>
      <cc:Work
         rdf:about="">
        <dc:format>image/svg+xml</dc:format>
        <dc:type
           rdf:resource="http://purl.org/dc/dcmitype/StillImage" />
        <dc:title></dc:title>
      </cc:Work>
    </rdf:RDF>
  </metadata>
  <defs
     id="defs68" />
  <sodipodi:namedview
     pagecolor="#ffffff"
     bordercolor="#666666"
     borderopacity="1"
     objecttolerance="10"
     gridtolerance="10"
     guidetolerance="10"
     inkscape:pageopacity="0"
     inkscape:pageshadow="2"
     inkscape:window-width="1920"
     inkscape:window-height="1118"
     id="namedview66"
     showgrid="false"
     inkscape:zoom="4.9663203"
     inkscape:cx="12.960497"
     inkscape:cy="14.085877"
     inkscape:window-x="0"
     inkscape:window-y="24"
     inkscape:window-maximized="1"
     inkscape:current-layer="svg64" />
  <g
     transform="translate(0 0)"
     id="g272">
    <path
       style="fill:#000000;fill-opacity:0"
       d="M 0,0.5 V 0 H 0.5 1 1.5 2 2.5 3 3.5 4 4.5 5 5.5 6 6.5 7 7.5 8 8.5 9 9.5 10 10.5 11 11.5 12 12.5 13 13.5 14 14.5 15 15.5 16 16.5 17 17.5 18 18.5 19 19.5 20 20.5 21 21.5 22 22.5 23 23.5 24 24.5 25 25.5 26 26.5 27 27.5 28 28.5 29 29.5 30 30.5 31 31.5 32 V 0.5 1 1.5 2 2.5 3 3.5 4 4.5 5 5.5 6 6.5 7 7.5 8 8.5 9 9.5 10 10.5 11 11.5 12 12.5 13 13.5 14 14.5 15 15.5 16 16.5 17 17.5 18 18.5 19 19.5 20 20.5 21 21.5 22 22.5 23 23.5 24 24.5 25 25.5 26 26.5 27 27.5 28 28.5 29 29.5 30 30.5 31 31.5 32 H 31.5 31 30.5 30 29.5 29 28.5 28 27.5 27 26.5 26 25.5 25 24.5 24 23.5 23 22.5 22 21.5 21 20.5 20 19.5 19 18.5 18 17.5 17 16.5 16 15.5 15 14.5 14 13.5 13 12.5 12 11.5 11 10.5 10 9.5 9 8.5 8 7.5 7 6.5 6 5.5 5 4.5 4 3.5 3 2.5 2 1.5 1 0.5 0 V 31.5 31 30.5 30 29.5 29 28.5 28 27.5 27 26.5 26 25.5 25 24.5 24 23.5 23 22.5 22 21.5 21 20.5 20 19.5 19 18.5 18 17.5 17 16.5 16 15.5 15 14.5 14 13.5 13 12.5 12 11.5 11 10.5 10 9.5 9 8.5 8 7.5 7 6.5 6 5.5 5 4.5 4 3.5 3 2.5 2 1.5 1 0.5 M 17.5,31 q 0.5,0 0.625,-0.375 0.125,-0.375 0.5,-0.5 Q 19,30 19,29.5 19,29 19.125,28.625 19.25,28.25 19.625,28.125 20,28 20,27.5 q 0,-0.5 0,-1 0,-0.5 0,-1 0,-0.5 0,-1 0,-0.5 0.125,-0.875 0.125,-0.375 0.5,-0.5 Q 21,23 21,22.5 q 0,-0.5 0,-1 0,-0.5 0,-1 0,-0.5 0,-1 0,-0.5 0,-1 0,-0.5 0.5,-0.5 0.5,0 0.625,-0.375 0.125,-0.375 0.5,-0.5 Q 23,17 23,17.5 q 0,0.5 0,1 0,0.5 0,1 0,0.5 0.375,0.625 0.375,0.125 0.5,0.5 Q 24,21 24,21.5 q 0,0.5 0,1 0,0.5 0.375,0.625 0.375,0.125 0.5,0.5 Q 25,24 25.5,24 q 0.5,0 0.625,-0.375 0.125,-0.375 0.5,-0.5 Q 27,23 27,22.5 q 0,-0.5 0,-1 0,-0.5 0,-1 0,-0.5 0,-1 0,-0.5 0.125,-0.875 0.125,-0.375 0.5,-0.5 Q 28,18 28,17.5 28,17 28.125,16.625 28.25,16.25 28.625,16.125 29,16 29,15.5 29,15 29,14.5 29,14 28.625,13.875 28.25,13.75 28.25,13.5 q 0,-0.25 0.375,-0.375 Q 29,13 29,12.5 29,12 28.625,11.875 28.25,11.75 28.125,11.375 28,11 27.5,11 27,11 26.625,10.875 26.25,10.75 26.125,10.375 26,10 25.625,9.875 25.25,9.75 25.125,9.375 25,9 24.5,9 24,9 23.5,9 23,9 22.625,8.875 22.25,8.75 22.125,8.375 22,8 21.5,8 21,8 20.625,7.875 20.25,7.75 20.125,7.375 20,7 19.5,7 19,7 19.125,6.625 19.25,6.25 19.625,6.125 20,6 20,5.5 20,5 20,4.5 20,4 20,3.5 20,3 19.625,2.875 19.25,2.75 19.125,2.375 19,2 18.625,1.875 18.25,1.75 18.125,1.375 18,1 17.5,1 17,1 16.5,1 16,1 15.5,1 15,1 14.875,1.375 14.75,1.75 14.375,1.875 14,2 13.875,2.375 13.75,2.75 13.375,2.875 13,3 13,3.5 q 0,0.5 0,1 0,0.5 0.375,0.625 0.375,0.125 0.5,0.5 0.125,0.375 0,0.75 -0.125,0.375 -0.5,0.5 Q 13,7 12.875,7.375 12.75,7.75 12.375,7.875 12,8 11.875,8.375 11.75,8.75 11.375,8.875 11,9 10.875,9.375 10.75,9.75 10.375,9.875 10,10 9.875,10.375 9.75,10.75 9.375,10.875 9,11 8.875,11.375 8.75,11.75 8.375,11.875 8,12 7.875,12.375 7.75,12.75 7.375,12.875 7,13 6.5,13 6,13 5.5,13 5,13 4.875,13.375 4.75,13.75 4.375,13.875 4,14 4,14.5 4,15 4.375,15.125 4.75,15.25 4.75,15.5 4.75,15.75 4.375,15.875 4,16 4,16.5 q 0,0.5 0,1 0,0.5 0,1 0,0.5 0,1 0,0.5 0,1 0,0.5 0.375,0.625 0.375,0.125 0.5,0.5 Q 5,22 5.5,22 6,22 6,22.5 q 0,0.5 0,1 0,0.5 0.375,0.625 0.375,0.125 0.5,0.5 Q 7,25 7.5,25 8,25 8.125,24.625 8.25,24.25 8.625,24.125 9,24 9,23.5 9,23 9,22.5 9,22 9,21.5 9,21 9.375,21.125 9.75,21.25 9.875,21.625 10,22 10.5,22 11,22 11,22.5 11,23 11.5,23 12,23 12,22.5 q 0,-0.5 0.375,-0.375 0.375,0.125 0.5,0.5 Q 13,23 13,23.5 q 0,0.5 0.375,0.625 0.375,0.125 0.5,0.5 0.125,0.375 0.5,0.5 0.375,0.125 0.5,0.5 Q 15,26 15,26.5 q 0,0.5 0.375,0.625 0.375,0.125 0.5,0.5 Q 16,28 16,28.5 q 0,0.5 0,1 0,0.5 0.375,0.625 0.375,0.125 0.5,0.5 Q 17,31 17.5,31"
       id="path74" />
    <path
       style="fill:#000000;fill-opacity:1"
       d="M 14.875,1.375 Q 15,1 15.5,1 q 0.5,0 1,0 0.5,0 1,0 0.5,0 0.625,0.375 0.125,0.375 0.5,0.5 0.375,0.125 0.5,0.5 0.125,0.375 0.5,0.5 Q 20,3 20,3.5 q 0,0.5 0,1 0,0.5 0,1 0,0.5 -0.375,0.625 -0.375,0.125 -0.5,0.5 Q 19,7 19.5,7 20,7 20.125,7.375 20.25,7.75 20.625,7.875 21,8 21.5,8 22,8 22.125,8.375 22.25,8.75 22.625,8.875 23,9 23.5,9 q 0.5,0 1,0 0.5,0 0.625,0.375 0.125,0.375 0.5,0.5 0.375,0.125 0.5,0.5 0.125,0.375 0.5,0.5 Q 27,11 27.5,11 q 0.5,0 0.625,0.375 0.125,0.375 0.5,0.5 Q 29,12 29,12.5 29,13 28.625,13.125 28.25,13.25 28.25,13.5 q 0,0.25 0.375,0.375 Q 29,14 29,14.5 q 0,0.5 0,1 0,0.5 -0.375,0.625 -0.375,0.125 -0.5,0.5 Q 28,17 28,17.5 q 0,0.5 -0.375,0.625 -0.375,0.125 -0.5,0.5 Q 27,19 27,19.5 q 0,0.5 0,1 0,0.5 0,1 0,0.5 0,1 0,0.5 -0.375,0.625 -0.375,0.125 -0.5,0.5 Q 26,24 25.5,24 25,24 24.875,23.625 24.75,23.25 24.375,23.125 24,23 24,22.5 24,22 24,21.5 24,21 23.875,20.625 23.75,20.25 23.375,20.125 23,20 23,19.5 q 0,-0.5 0,-1 0,-0.5 0,-1 0,-0.5 -0.375,-0.375 -0.375,0.125 -0.5,0.5 Q 22,18 21.5,18 21,18 21,18.5 q 0,0.5 0,1 0,0.5 0,1 0,0.5 0,1 0,0.5 0,1 0,0.5 -0.375,0.625 -0.375,0.125 -0.5,0.5 Q 20,24 20,24.5 q 0,0.5 0,1 0,0.5 0,1 0,0.5 0,1 0,0.5 -0.375,0.625 -0.375,0.125 -0.5,0.5 Q 19,29 19,29.5 q 0,0.5 -0.375,0.625 -0.375,0.125 -0.5,0.5 Q 18,31 17.5,31 17,31 16.875,30.625 16.75,30.25 16.375,30.125 16,30 16,29.5 16,29 16,28.5 16,28 15.875,27.625 15.75,27.25 15.375,27.125 15,27 15,26.5 15,26 14.875,25.625 14.75,25.25 14.375,25.125 14,25 13.875,24.625 13.75,24.25 13.375,24.125 13,24 13,23.5 13,23 12.875,22.625 12.75,22.25 12.375,22.125 12,22 12,22.5 12,23 11.5,23 11,23 11,22.5 11,22 10.5,22 10,22 9.875,21.625 9.75,21.25 9.375,21.125 9,21 9,21.5 q 0,0.5 0,1 0,0.5 0,1 0,0.5 -0.375,0.625 -0.375,0.125 -0.5,0.5 Q 8,25 7.5,25 7,25 6.875,24.625 6.75,24.25 6.375,24.125 6,24 6,23.5 6,23 6,22.5 6,22 5.5,22 5,22 4.875,21.625 4.75,21.25 4.375,21.125 4,21 4,20.5 4,20 4,19.5 4,19 4,18.5 4,18 4,17.5 4,17 4,16.5 4,16 4.375,15.875 4.75,15.75 4.75,15.5 4.75,15.25 4.375,15.125 4,15 4,14.5 4,14 4.375,13.875 4.75,13.75 4.875,13.375 5,13 5.5,13 6,13 6.5,13 7,13 7.375,12.875 7.75,12.75 7.875,12.375 8,12 8.375,11.875 8.75,11.75 8.875,11.375 9,11 9.375,10.875 9.75,10.75 9.875,10.375 10,10 10.375,9.875 10.75,9.75 10.875,9.375 11,9 11.375,8.875 11.75,8.75 11.875,8.375 12,8 12.375,7.875 12.75,7.75 12.875,7.375 13,7 13.375,6.875 13.75,6.75 13.875,6.375 14,6 13.875,5.625 13.75,5.25 13.375,5.125 13,5 13,4.5 13,4 13,3.5 13,3 13.375,2.875 13.75,2.75 13.875,2.375 14,2 14.375,1.875 q 0.375,-0.125 0.5,-0.5 m 2.25,28 q 0.125,0.375 0.375,0.375 0.25,0 0.375,-0.375 Q 18,29 18.125,28.625 18.25,28.25 18.5,28 18.75,27.75 18.875,27.375 19,27 19,26.5 q 0,-0.5 0,-1 0,-0.5 0,-1 0,-0.5 0,-1 V 23 23.375 23.75 23.5 q 0,-0.25 0.03125,-0.46875 l 0.03125,-0.21875 -0.01563,0.109375 -0.01563,0.109375 0.359375,-0.140625 Q 19.75,22.75 19.875,22.375 20,22 20,21.5 q 0,-0.5 0,-1 0,-0.5 0,-1 0,-0.5 -0.125,-0.875 -0.125,-0.375 -0.5,-0.5 L 19,18 v -0.5 q 0,-0.5 0,-1 0,-0.5 0,-1 V 15 l 0.375,-0.125 q 0.375,-0.125 0.5,-0.5 Q 20,14 20,13.5 V 13 13.375 13.75 13.5 q 0,-0.25 0.03125,-0.46875 l 0.03125,-0.21875 -0.01563,0.109375 -0.01563,0.109375 0.484375,-0.01563 L 21,13 v 0.5 q 0,0.5 0,1 V 15 14.625 14.25 14.5 q 0,0.25 0.125,0.375 L 21.25,15 21.1875,14.9375 21.125,14.875 21.0625,15.4375 Q 21,16 21.125,16.375 21.25,16.75 21.5,16.75 q 0.25,0 0.5,-0.25 0.25,-0.25 0.5,-0.5 0.25,-0.25 0.375,-0.625 Q 23,15 23,14.5 23,14 23,13.5 V 13 l 0.484375,0.01563 0.484375,0.01563 -0.01563,-0.109375 -0.01563,-0.109375 0.03125,0.21875 Q 24,13.25 24,13.5 V 13.75 13.375 13 13.5 q 0,0.5 0.125,0.875 0.125,0.375 0.5,0.5 L 25,15 v 0.5 Q 25,16 24.875,16.375 24.75,16.75 24.5,17 24.25,17.25 24.125,17.625 24,18 24,18.5 q 0,0.5 0.125,0.875 0.125,0.375 0.484375,0.515625 L 24.96875,20.03125 24.953125,19.921875 24.9375,19.8125 24.96875,20.03125 Q 25,20.25 25,20.5 V 20.75 20.375 20 20.5 q 0,0.5 0,1 0,0.5 0.125,0.875 0.125,0.375 0.375,0.375 0.25,0 0.375,-0.375 Q 26,22 26,21.5 26,21 26,20.5 26,20 26,19.5 26,19 26.125,18.625 26.25,18.25 26.5,18 26.75,17.75 26.875,17.375 27,17 27,16.5 V 16 l 0.375,-0.125 q 0.375,-0.125 0.5,-0.5 0.125,-0.375 0,-0.75 -0.125,-0.375 -0.5,-0.5 L 27,14 V 13.5 13 13.375 13.75 13.5 q 0,-0.25 -0.09375,-0.40625 l -0.09375,-0.15625 0.04687,0.07813 0.04687,0.07813 0.421875,-0.171875 Q 27.75,12.75 27.75,12.5 27.75,12.25 27.375,12.125 27,12 26.625,11.875 26.25,11.75 26,11.5 25.75,11.25 25.34375,11.125 L 24.9375,11 V 11.09375 11.1875 11 q 0,-0.1875 -0.0625,-0.375 L 24.8125,10.4375 24.90625,10.71875 25,11 24.875,10.625 Q 24.75,10.25 24.375,10.125 24,10 23.5,10 23,10 22.625,9.875 22.25,9.75 22,9.5 21.75,9.25 21.375,9.125 21,9 20.484375,9.015625 L 19.96875,9.03125 19.984375,9.140625 20,9.25 19.96875,9.03125 Q 19.9375,8.8125 19.875,8.625 L 19.8125,8.4375 19.90625,8.71875 20,9 19.875,8.625 Q 19.75,8.25 19.375,8.125 19,8 18.5,8 H 18 V 7.5 Q 18,7 18.125,6.625 18.25,6.25 18.5,6 18.75,5.75 18.875,5.375 19,5 19,4.5 19,4 18.875,3.625 18.75,3.25 18.5,3 18.25,2.75 18,2.5 17.75,2.25 17.375,2.125 17,2 16.5,2 16,2 15.625,2.125 15.25,2.25 15,2.5 14.75,2.75 14.5,3 14.25,3.25 14.125,3.625 14,4 14.125,4.375 q 0.125,0.375 0.5,0.5 L 15,5 v 0.5 q 0,0.5 0,1 V 7 L 14.625,7.125 Q 14.25,7.25 14.125,7.625 14,8 13.625,8.125 13.25,8.25 13.125,8.625 L 13,9 12.625,9.125 q -0.375,0.125 -0.5,0.5 L 12,10 11.625,10.125 Q 11.25,10.25 11,10.5 10.75,10.75 10.5,11 10.25,11.25 10.125,11.625 L 10,12 9.625,12.125 Q 9.25,12.25 9.125,12.625 9,13 8.625,13.125 8.25,13.25 8.125,13.625 8,14 7.5,14 7,14 6.5,14 6,14 5.625,14.125 5.25,14.25 5.25,14.5 q 0,0.25 0.375,0.375 Q 6,15 6,15.5 V 16 L 5.625,16.125 Q 5.25,16.25 5.125,16.625 5,17 5,17.5 q 0,0.5 0,1 0,0.5 0,1 0,0.5 0.125,0.875 0.125,0.375 0.375,0.375 0.25,0 0.375,-0.375 Q 6,20 6,19.5 6,19 6,18.5 V 18 H 6.5 7 L 7.0625,18.5625 7.125,19.125 7.1875,19.0625 7.25,19 7.125,19.125 Q 7,19.25 7,19.5 V 19.75 19.375 19 19.5 q 0,0.5 0,1 V 21 20.625 20.25 20.5 q 0,0.25 0.125,0.375 L 7.25,21 7.1875,20.9375 7.125,20.875 7.0625,21.4375 Q 7,22 7,22.5 7,23 7.125,23.375 7.25,23.75 7.5,23.75 7.75,23.75 7.875,23.375 8,23 8,22.5 8,22 7.9375,21.4375 L 7.875,20.875 7.8125,20.9375 7.75,21 7.875,20.875 Q 8,20.75 8,20.5 V 20.25 20.625 21 20.5 20 L 8.375,19.875 Q 8.75,19.75 8.875,19.375 9,19 9,18.5 9,18 9,17.5 9,17 9,16.5 V 16 H 9.5 10 v 0.5 q 0,0.5 0,1 0,0.5 0,1 0,0.5 0,1 0,0.5 0.125,0.875 0.125,0.375 0.375,0.375 0.25,0 0.375,-0.375 Q 11,20 11,19.5 q 0,-0.5 0,-1 0,-0.5 0,-1 0,-0.5 0,-1 0,-0.5 0,-1 V 15 H 11.5 12 V 15.5 16 15.625 15.25 15.5 q 0,0.25 0.125,0.375 L 12.25,16 12.1875,15.9375 12.125,15.875 12.1875,16.3125 Q 12.25,16.75 12.625,16.875 L 13,17 v 0.5 q 0,0.5 0,1 0,0.5 0,1 0,0.5 0,1 0,0.5 0.125,0.875 Q 13.25,21.75 13.5,22 13.75,22.25 13.875,22.625 14,23 14.125,23.375 14.25,23.75 14.5,24 q 0.25,0.25 0.5,0.5 0.25,0.25 0.5,0.5 0.25,0.25 0.375,0.625 Q 16,26 16.125,26.375 16.25,26.75 16.5,27 16.75,27.25 16.875,27.625 17,28 17,28.5 17,29 17.125,29.375 M 19,14.875 V 15 15.375 15.75 15.5 q 0,-0.25 0,-0.5 v -0.25 0.125 m -12,3.5 V 18 17.875 17.75 18 q 0,0.25 0,0.5 v 0.25 -0.375 m 1,1.5 V 20 20.375 20.75 20.5 Q 8,20.25 8,20 v -0.25 0.125 m 2,-3.5 V 16 15.875 15.75 16 q 0,0.25 0,0.5 v 0.25 -0.375 m 3,1 V 17 16.875 16.75 17 q 0,0.25 0,0.5 v 0.25 -0.375"
       id="path76" />
    <path
       style="fill:#e00000;fill-opacity:1"
       d="M 15,2.5 Q 15.25,2.25 15.625,2.125 L 16,2 15.71875,2.09375 15.4375,2.1875 15.625,2.125 Q 15.8125,2.0625 16.03125,2.03125 L 16.25,2 16.140625,2.015625 16.03125,2.03125 16.015625,2.515625 16,3 V 2.625 2.25 2.5 q 0,0.25 -0.03125,0.46875 L 15.9375,3.1875 15.953125,3.078125 15.96875,2.96875 15.609375,3.109375 Q 15.25,3.25 15.125,3.625 15,4 15,4.5 V 5 L 14.625,4.875 Q 14.25,4.75 14.125,4.375 14,4 14.125,3.625 14.25,3.25 14.5,3 14.75,2.75 15,2.5"
       id="path78" />
    <path
       style="fill:#800000;fill-opacity:1"
       d="M 16.015625,2.515625 16.03125,2.03125 15.921875,2.046875 15.8125,2.0625 16.03125,2.03125 Q 16.25,2 16.5,2 H 16.75 16.375 16 16.5 17 16.625 16.25 16.5 q 0.25,0 0.46875,0.03125 L 17.1875,2.0625 17.078125,2.046875 16.96875,2.03125 16.984375,2.515625 Q 17,3 17.125,3.375 17.25,3.75 17.609375,3.890625 L 17.96875,4.03125 17.953125,3.921875 17.9375,3.8125 17.96875,4.03125 Q 18,4.25 18,4.5 V 4.75 4.375 4 4.5 Q 18,5 17.875,5.375 17.75,5.75 17.359375,5.890625 L 16.96875,6.03125 16.984375,6.140625 17,6.25 16.96875,6.03125 Q 16.9375,5.8125 16.875,5.625 L 16.8125,5.4375 16.90625,5.71875 17,6 16.875,5.625 Q 16.75,5.25 16.375,5.125 16,5 15.5,5 H 15 V 4.5 4 4.375 4.75 4.5 Q 15,4.25 15.03125,4.03125 L 15.0625,3.8125 15.046875,3.921875 15.03125,4.03125 15.390625,3.890625 Q 15.75,3.75 15.875,3.375 16,3 16.015625,2.515625"
       id="path80" />
    <path
       style="fill:#a00000;fill-opacity:1"
       d="M 16.984375,2.515625 16.96875,2.03125 16.859375,2.015625 16.75,2 16.96875,2.03125 Q 17.1875,2.0625 17.375,2.125 L 17.5625,2.1875 17.28125,2.09375 17,2 17.375,2.125 Q 17.75,2.25 18,2.5 18.25,2.75 18.5,3 18.75,3.25 18.875,3.625 19,4 19,4.5 19,5 18.875,5.375 18.75,5.75 18.5,6 18.25,6.25 18.125,6.625 18,7 18,7.5 V 8 L 17.484375,7.984375 16.96875,7.96875 16.953125,8.078125 16.9375,8.1875 16.96875,7.96875 Q 17,7.75 17,7.5 V 7.25 7.625 8 7.5 Q 17,7 17,6.5 V 6 6.375 6.75 6.5 Q 17,6.25 16.96875,6.03125 L 16.9375,5.8125 16.953125,5.921875 16.96875,6.03125 17.359375,5.890625 Q 17.75,5.75 17.875,5.375 18,5 18,4.5 18,4 17.875,3.625 17.75,3.25 17.390625,3.109375 L 17.03125,2.96875 17.046875,3.078125 17.0625,3.1875 17.03125,2.96875 Q 17,2.75 17,2.5 V 2.25 2.625 3 l -0.01563,-0.484375"
       id="path82" />
    <path
       style="fill:#000000;fill-opacity:1"
       d="M 15.125,3.625 Q 15.25,3.25 15.609375,3.109375 L 15.96875,2.96875 15.984375,2.859375 16,2.75 15.96875,2.96875 Q 15.9375,3.1875 15.875,3.375 L 15.8125,3.5625 15.90625,3.28125 16,3 15.875,3.375 Q 15.75,3.75 15.390625,3.890625 L 15.03125,4.03125 15.015625,4.140625 15,4.25 15.03125,4.03125 Q 15.0625,3.8125 15.125,3.625 L 15.1875,3.4375 15.09375,3.71875 15,4 15.125,3.625"
       id="path84" />
    <path
       style="fill:#000000;fill-opacity:1"
       d="M 17.125,3.375 17,3 17.09375,3.28125 17.1875,3.5625 17.125,3.375 Q 17.0625,3.1875 17.03125,2.96875 L 17,2.75 l 0.01563,0.109375 0.01563,0.109375 0.359375,0.140625 Q 17.75,3.25 17.875,3.625 L 18,4 17.90625,3.71875 17.8125,3.4375 17.875,3.625 q 0.0625,0.1875 0.09375,0.40625 L 18,4.25 17.984375,4.140625 17.96875,4.03125 17.609375,3.890625 Q 17.25,3.75 17.125,3.375"
       id="path86" />
    <path
       style="fill:#a00000;fill-opacity:1"
       d="M 15,5.5 V 5 H 15.5 16 15.625 15.25 15.5 q 0.25,0 0.46875,0.03125 L 16.1875,5.0625 16.078125,5.046875 15.96875,5.03125 15.984375,5.515625 16,6 H 15.5 15 V 5.5 m 0,0.125 V 6 6.125 6.25 6 Q 15,5.75 15,5.5 V 5.25 5.625 m 1,0.5 V 6 5.625 5.25 5.5 Q 16,5.75 16,6 V 6.25 6.125"
       id="path88" />
    <path
       style="fill:#000000;fill-opacity:1"
       d="M 15.984375,5.515625 15.96875,5.03125 15.859375,5.015625 15.75,5 15.96875,5.03125 Q 16.1875,5.0625 16.375,5.125 L 16.5625,5.1875 16.28125,5.09375 16,5 16.375,5.125 q 0.375,0.125 0.5,0.5 Q 17,6 17,6.5 V 7 H 16.5 16 V 6.5 Q 16,6 15.984375,5.515625 M 17,7.125 V 7 6.625 6.25 6.5 Q 17,6.75 17,7 V 7.25 7.125"
       id="path90" />
    <path
       style="fill:#c00000;fill-opacity:1"
       d="M 15,6.5 V 6 H 15.5 16 V 6.5 7 H 15.5 15 V 6.5 M 16,6.375 V 6 5.875 5.75 6 q 0,0.25 0,0.5 V 6.75 6.375 m -1,-0.5 V 6 6.375 6.75 6.5 Q 15,6.25 15,6 V 5.75 5.875"
       id="path92" />
    <path
       style="fill:#ffc0c0;fill-opacity:1"
       d="m 14.125,7.625 q 0.125,-0.375 0.5,-0.5 L 15,7 v 0.5 q 0,0.5 0.125,0.875 0.125,0.375 0.5,0.5 L 16,9 V 9.5 10 L 15.625,9.875 Q 15.25,9.75 15,9.5 14.75,9.25 14.5,9 14.25,8.75 14.09375,8.34375 L 13.9375,7.9375 13.875,8 13.8125,8.0625 13.9375,7.9375 Q 14.0625,7.8125 14.125,7.625 L 14.1875,7.4375 14.09375,7.71875 14,8 14.125,7.625"
       id="path94" />
    <path
       style="fill:#ff8080;fill-opacity:1"
       d="M 15,7.5 V 7 h 0.5 0.5 v 0.5 q 0,0.5 0,1 V 9 L 15.625,8.875 Q 15.25,8.75 15.125,8.375 15,8 15,7.5"
       id="path96" />
    <path
       style="fill:#800000;fill-opacity:1"
       d="M 16,7.5 V 7 h 0.5 0.5 v 0.5 q 0,0.5 -0.125,0.875 -0.125,0.375 -0.5,0.5 L 16,9 V 8.5 Q 16,8 16,7.5 M 17,7.375 V 7 6.875 6.75 7 q 0,0.25 0,0.5 V 7.75 7.375"
       id="path98" />
    <path
       style="fill:#ff8080;fill-opacity:1"
       d="m 13.125,8.625 q 0.125,-0.375 0.5,-0.5 L 14,8 13.71875,8.09375 13.4375,8.1875 13.625,8.125 Q 13.8125,8.0625 13.9375,7.9375 L 14.0625,7.8125 14,7.875 13.9375,7.9375 14.09375,8.34375 Q 14.25,8.75 14.5,9 14.75,9.25 15,9.5 15.25,9.75 15.625,9.875 L 16,10 15.875,10.375 q -0.125,0.375 -0.5,0.5 L 15,11 14.875,10.625 Q 14.75,10.25 14.5,10 14.25,9.75 14,9.5 13.75,9.25 13.375,9.125 L 13,9 13.125,8.625"
       id="path100" />
    <path
       style="fill:#c00000;fill-opacity:1"
       d="M 16.875,8.375 17,8 16.90625,8.28125 16.8125,8.5625 16.875,8.375 Q 16.9375,8.1875 16.96875,7.96875 L 17,7.75 16.984375,7.859375 16.96875,7.96875 17.484375,7.984375 18,8 v 0.5 q 0,0.5 0,1 0,0.5 0,1 0,0.5 -0.5,0.5 H 17 l -0.125,-0.375 q -0.125,-0.375 -0.5,-0.5 L 16,10 V 9.5 9 l 0.375,-0.125 q 0.375,-0.125 0.5,-0.5"
       id="path102" />
    <path
       style="fill:#ff8080;fill-opacity:1"
       d="M 18,8.5 V 8 H 18.5 19 18.625 18.25 18.5 q 0.25,0 0.46875,0.03125 L 19.1875,8.0625 19.078125,8.046875 18.96875,8.03125 18.984375,8.515625 19,9 H 18.5 18 V 8.5 m 0,0.125 V 9 9.125 9.25 9 Q 18,8.75 18,8.5 V 8.25 8.625 m 1,0.5 V 9 8.625 8.25 8.5 Q 19,8.75 19,9 V 9.25 9.125"
       id="path104" />
    <path
       style="fill:#c06060;fill-opacity:1"
       d="M 18.984375,8.515625 18.96875,8.03125 18.859375,8.015625 18.75,8 18.96875,8.03125 Q 19.1875,8.0625 19.375,8.125 L 19.5625,8.1875 19.28125,8.09375 19,8 19.375,8.125 q 0.375,0.125 0.5,0.5 Q 20,9 20,9.5 V 10 9.625 9.25 9.5 q 0,0.25 -0.03125,0.46875 l -0.03125,0.21875 0.01563,-0.109375 0.01563,-0.109375 h -0.5 -0.5 L 18.953125,10.078125 18.9375,10.1875 18.96875,9.96875 Q 19,9.75 19,9.5 V 9.25 9.625 10 9.5 Q 19,9 18.984375,8.515625"
       id="path106" />
    <path
       style="fill:#e00000;fill-opacity:1"
       d="m 12.125,9.625 q 0.125,-0.375 0.5,-0.5 L 13,9 13.125,9.375 Q 13.25,9.75 13.5,10 q 0.25,0.25 0.5,0.5 0.25,0.25 0.625,0.375 L 15,11 l 0.125,0.375 q 0.125,0.375 0.375,0.375 0.25,0 0.5,-0.25 0.25,-0.25 0.625,-0.375 L 17,11 v 0.5 0.5 l -0.375,0.125 q -0.375,0.125 -0.5,0.5 L 16,13 15.625,13.125 q -0.375,0.125 -0.5,0.5 L 15,14 H 14.5 14 V 13.5 13 13.375 13.75 13.5 q 0,-0.25 -0.125,-0.375 L 13.75,13 l 0.0625,0.0625 0.0625,0.0625 0.0625,-0.5625 Q 14,12 13.875,11.625 13.75,11.25 13.5,11 13.25,10.75 13,10.5 12.75,10.25 12.375,10.125 L 12,10 12.125,9.625"
       id="path108" />
    <path
       style="fill:#c00000;fill-opacity:1"
       d="M 13.125,9.375 13,9 13.375,9.125 Q 13.75,9.25 14,9.5 q 0.25,0.25 0.5,0.5 0.25,0.25 0.375,0.625 L 15,11 14.625,10.875 Q 14.25,10.75 14,10.5 13.75,10.25 13.5,10 13.25,9.75 13.125,9.375"
       id="path110" />
    <path
       style="fill:#ffc0c0;fill-opacity:1"
       d="M 18,9.5 V 9 h 0.5 0.5 v 0.5 q 0,0.5 -0.125,0.875 -0.125,0.375 -0.5625,0.4375 L 17.875,10.875 17.8125,10.9375 17.75,11 17.875,10.875 Q 18,10.75 18,10.5 V 10.25 10.625 11 10.5 q 0,-0.5 0,-1 M 19,9.375 V 9 8.875 8.75 9 q 0,0.25 0,0.5 V 9.75 9.375 m -1,-0.5 V 9 9.375 9.75 9.5 Q 18,9.25 18,9 V 8.75 8.875"
       id="path112" />
    <path
       style="fill:#c00000;fill-opacity:1"
       d="M 20,9.5 V 9 9.375 9.75 9.5 Q 20,9.25 19.96875,9.03125 L 19.9375,8.8125 19.953125,8.921875 19.96875,9.03125 20.484375,9.015625 21,9 H 20.625 20.25 20.5 q 0.25,0 0.46875,0.03125 L 21.1875,9.0625 21.078125,9.046875 20.96875,9.03125 21.109375,9.390625 Q 21.25,9.75 21.5,10 q 0.25,0.25 0.375,0.625 L 22,11 H 21.5 Q 21,11 20.625,11.125 20.25,11.25 20,11.5 19.75,11.75 19.390625,11.890625 L 19.03125,12.03125 19.015625,12.140625 19,12.25 19.03125,12.03125 Q 19.0625,11.8125 19.125,11.625 L 19.1875,11.4375 19.09375,11.71875 19,12 19.125,11.625 Q 19.25,11.25 19.5,11 19.75,10.75 19.875,10.375 20,10 20,9.5"
       id="path114" />
    <path
       style="fill:#e00000;fill-opacity:1"
       d="M 21.109375,9.390625 20.96875,9.03125 20.859375,9.015625 20.75,9 20.96875,9.03125 Q 21.1875,9.0625 21.375,9.125 L 21.5625,9.1875 21.28125,9.09375 21,9 21.375,9.125 Q 21.75,9.25 22,9.5 22.25,9.75 22.625,9.875 23,10 23.5,10 q 0.5,0 0.875,0.125 0.375,0.125 0.5,0.5 0.125,0.375 0,0.75 Q 24.75,11.75 24.5,11.75 24.25,11.75 24,11.5 23.75,11.25 23.375,11.125 23,11 22.5,11 H 22 L 21.875,10.625 Q 21.75,10.25 21.5,10 21.25,9.75 21.109375,9.390625"
       id="path116" />
    <path
       style="fill:#ff0000;fill-opacity:1"
       d="m 11,10.5 q 0.25,-0.25 0.625,-0.375 L 12,10 v 0.5 0.5 l -0.375,0.125 q -0.375,0.125 -0.5,0.5 L 11,12 H 10.5 10 l 0.125,-0.375 Q 10.25,11.25 10.5,11 10.75,10.75 11,10.5"
       id="path118" />
    <path
       style="fill:#c00000;fill-opacity:1"
       d="M 12,10.5 V 10 l 0.375,0.125 Q 12.75,10.25 13,10.5 q 0.25,0.25 0.5,0.5 0.25,0.25 0.375,0.625 Q 14,12 13.9375,12.5625 L 13.875,13.125 13.9375,13.1875 14,13.25 13.875,13.125 Q 13.75,13 13.5,13 H 13.25 13.625 14 13.5 13 13.375 13.75 13.5 q -0.25,0 -0.40625,0.09375 l -0.15625,0.09375 0.07813,-0.04687 0.07813,-0.04687 -0.04687,-0.546875 Q 13,12 12.875,11.625 12.75,11.25 12.375,11.125 L 12,11 v -0.5"
       id="path120" />
    <path
       style="fill:#ff0000;fill-opacity:1"
       d="M 15.875,10.375 16,10 l 0.375,0.125 q 0.375,0.125 0.5,0.5 L 17,11 16.625,11.125 Q 16.25,11.25 16,11.5 q -0.25,0.25 -0.5,0.25 -0.25,0 -0.375,-0.375 L 15,11 15.375,10.875 q 0.375,-0.125 0.5,-0.5"
       id="path122" />
    <path
       style="fill:#ff8080;fill-opacity:1"
       d="M 18.875,10.375 19,10 18.90625,10.28125 18.8125,10.5625 18.875,10.375 q 0.0625,-0.1875 0.09375,-0.40625 L 19,9.75 18.984375,9.859375 18.96875,9.96875 h 0.5 0.5 L 19.984375,9.859375 20,9.75 19.96875,9.96875 Q 19.9375,10.1875 19.875,10.375 L 19.8125,10.5625 19.90625,10.28125 20,10 19.875,10.375 Q 19.75,10.75 19.5,11 19.25,11.25 19.125,11.625 19,12 19,12.5 q 0,0.5 -0.375,0.625 -0.375,0.125 -0.5,0.5 L 18,14 17.625,13.875 q -0.375,-0.125 -0.5,-0.5 L 17,13 17.375,12.875 Q 17.75,12.75 17.75,12.5 q 0,-0.25 -0.375,-0.375 L 17,12 V 11.5 11 H 17.5 18 17.625 17.25 17.5 q 0.25,0 0.375,-0.125 L 18,10.75 17.9375,10.8125 17.875,10.875 18.3125,10.8125 Q 18.75,10.75 18.875,10.375"
       id="path124" />
    <path
       style="fill:#e00000;fill-opacity:1"
       d="m 11.125,11.625 q 0.125,-0.375 0.5,-0.5 L 12,11 11.875,11.375 q -0.125,0.375 -0.5,0.5 L 11,12 11.125,11.625"
       id="path126" />
    <path
       style="fill:#a00000;fill-opacity:1"
       d="M 11.875,11.375 12,11 l 0.375,0.125 q 0.375,0.125 0.5,0.5 Q 13,12 13.046875,12.546875 l 0.04687,0.546875 0.07813,-0.04687 L 13.25,13 13.09375,13.09375 Q 12.9375,13.1875 12.875,13.375 L 12.8125,13.5625 12.90625,13.28125 13,13 12.875,13.375 q -0.125,0.375 -0.5,0.5 L 12,14 12.28125,13.90625 12.5625,13.8125 12.375,13.875 q -0.1875,0.0625 -0.28125,0.21875 L 12,14.25 l 0.04687,-0.07813 0.04687,-0.07813 -0.546875,-0.04687 L 11,14 v -0.5 q 0,-0.5 0,-1 V 12 l 0.375,-0.125 q 0.375,-0.125 0.5,-0.5 M 11,13.625 V 14 14.125 14.25 14 q 0,-0.25 0,-0.5 v -0.25 0.375"
       id="path128" />
    <path
       style="fill:#a00000;fill-opacity:1"
       d="m 20,11.5 q 0.25,-0.25 0.625,-0.375 L 21,11 20.71875,11.09375 20.4375,11.1875 20.625,11.125 q 0.1875,-0.0625 0.40625,-0.09375 L 21.25,11 21.140625,11.015625 21.03125,11.03125 21.015625,11.515625 21,12 20.625,12.125 q -0.375,0.125 -0.5,0.5 Q 20,13 20,13.5 V 14 13.625 13.25 13.5 q 0,0.25 -0.03125,0.46875 l -0.03125,0.21875 0.01563,-0.109375 0.01563,-0.109375 -0.484375,0.01563 L 19,14 l -0.04687,-0.546875 -0.04687,-0.546875 -0.04687,0.07813 -0.04687,0.07813 0.09375,-0.15625 Q 19,12.75 19,12.5 V 12.25 12.625 13 12.5 12 12.375 12.75 12.5 q 0,-0.25 0.03125,-0.46875 l 0.03125,-0.21875 -0.01563,0.109375 -0.01563,0.109375 0.359375,-0.140625 Q 19.75,11.75 20,11.5"
       id="path130" />
    <path
       style="fill:#c06060;fill-opacity:1"
       d="m 21.015625,11.515625 0.01563,-0.484375 -0.109375,0.01563 -0.109375,0.01563 0.21875,-0.03125 Q 21.25,11 21.5,11 H 21.75 21.375 21 21.5 22 l -0.125,0.375 q -0.125,0.375 -0.5,0.5 L 21,12 l 0.01563,-0.484375"
       id="path132" />
    <path
       style="fill:#ff8080;fill-opacity:1"
       d="M 21.875,11.375 22,11 H 22.5 23 22.625 22.25 22.5 q 0.25,0 0.46875,0.03125 l 0.21875,0.03125 -0.109375,-0.01563 -0.109375,-0.01563 0.01563,0.484375 L 23,12 22.625,12.125 Q 22.25,12.25 22,12.5 21.75,12.75 21.375,12.875 L 21,13 V 12.5 12 l 0.375,-0.125 q 0.375,-0.125 0.5,-0.5"
       id="path134" />
    <path
       style="fill:#c00000;fill-opacity:1"
       d="M 22.984375,11.515625 22.96875,11.03125 22.859375,11.015625 22.75,11 22.96875,11.03125 Q 23.1875,11.0625 23.375,11.125 L 23.5625,11.1875 23.28125,11.09375 23,11 23.375,11.125 Q 23.75,11.25 24,11.5 q 0.25,0.25 0.5,0.25 0.25,0 0.375,-0.375 L 25,11 24.90625,11.28125 24.8125,11.5625 24.875,11.375 Q 24.9375,11.1875 24.9375,11 V 10.8125 10.90625 11 l 0.40625,0.125 Q 25.75,11.25 26,11.5 q 0.25,0.25 0.625,0.375 0.375,0.125 0.75,0.25 0.375,0.125 0.375,0.375 0,0.25 -0.421875,0.421875 l -0.421875,0.171875 0.04687,0.07813 L 27,13.25 26.90625,13.09375 Q 26.8125,12.9375 26.625,12.875 L 26.4375,12.8125 26.71875,12.90625 27,13 26.625,12.875 Q 26.25,12.75 26,12.5 q -0.25,-0.25 -0.5,-0.25 -0.25,0 -0.375,0.375 Q 25,13 25,13.5 V 14 l -0.484375,-0.01563 -0.484375,-0.01563 0.01563,0.109375 0.01563,0.109375 -0.03125,-0.21875 Q 24,13.75 24,13.5 V 13.25 13.625 14 13.5 q 0,-0.5 -0.125,-0.875 -0.125,-0.375 -0.5,-0.5 L 23,12 22.984375,11.515625"
       id="path136" />
    <path
       style="fill:#e00000;fill-opacity:1"
       d="m 9.125,12.625 q 0.125,-0.375 0.5,-0.5 L 10,12 v 0.5 q 0,0.5 -0.125,0.875 -0.125,0.375 -0.5,0.5 L 9,14 8.96875,13.46875 8.9375,12.9375 8.875,13 8.8125,13.0625 8.9375,12.9375 Q 9.0625,12.8125 9.125,12.625 L 9.1875,12.4375 9.09375,12.71875 9,13 9.125,12.625"
       id="path138" />
    <path
       style="fill:#c00000;fill-opacity:1"
       d="M 10,12.5 V 12 h 0.5 0.5 v 0.5 q 0,0.5 0,1 0,0.5 0,1 V 15 h -0.5 q -0.5,0 -0.875,0.125 -0.375,0.125 -0.5,0.5 L 9,16 8.625,16.125 Q 8.25,16.25 8.125,16.625 8,17 8,17.5 8,18 7.9375,18.5625 L 7.875,19.125 7.9375,19.1875 8,19.25 7.875,19.125 Q 7.75,19 7.5,19 H 7.25 7.625 8 7.5 7 7.375 7.75 7.5 Q 7.25,19 7.125,19.125 L 7,19.25 7.0625,19.1875 7.125,19.125 7.0625,18.5625 Q 7,18 6.9375,17.4375 L 6.875,16.875 6.8125,16.9375 6.75,17 6.875,16.875 Q 7,16.75 7,16.5 V 16.25 16.625 17 16.5 Q 7,16 7,15.5 7,15 7.5,15 8,15 8.375,14.875 8.75,14.75 8.875,14.375 L 9,14 9.375,13.875 Q 9.75,13.75 9.875,13.375 10,13 10,12.5"
       id="path140" />
    <path
       style="fill:#c00000;fill-opacity:1"
       d="m 16.125,12.625 q 0.125,-0.375 0.5,-0.5 L 17,12 V 12.5 13 H 16.5 16 l 0.125,-0.375"
       id="path142" />
    <path
       style="fill:#ffc0c0;fill-opacity:1"
       d="M 17,12.5 V 12 l 0.375,0.125 q 0.375,0.125 0.375,0.375 0,0.25 -0.375,0.375 L 17,13 v -0.5"
       id="path144" />
    <path
       style="fill:#400000;fill-opacity:1"
       d="m 20.125,12.625 q 0.125,-0.375 0.5,-0.5 L 21,12 v 0.5 0.5 l -0.484375,0.01563 -0.484375,0.01563 -0.01563,0.109375 L 20,13.25 20.03125,13.03125 Q 20.0625,12.8125 20.125,12.625 L 20.1875,12.4375 20.09375,12.71875 20,13 20.125,12.625"
       id="path146" />
    <path
       style="fill:#ffc0c0;fill-opacity:1"
       d="m 22,12.5 q 0.25,-0.25 0.625,-0.375 L 23,12 v 0.5 0.5 l -0.375,0.125 q -0.375,0.125 -0.5,0.5 L 22,14 H 21.5 21 V 13.5 13 l 0.375,-0.125 Q 21.75,12.75 22,12.5 m -1,1.125 V 14 14.125 14.25 14 q 0,-0.25 0,-0.5 v -0.25 0.375"
       id="path148" />
    <path
       style="fill:#400000;fill-opacity:1"
       d="M 23,12.5 V 12 l 0.375,0.125 q 0.375,0.125 0.5,0.5 L 24,13 23.90625,12.71875 23.8125,12.4375 23.875,12.625 q 0.0625,0.1875 0.09375,0.40625 L 24,13.25 23.984375,13.140625 23.96875,13.03125 23.484375,13.015625 23,13 v -0.5"
       id="path150" />
    <path
       style="fill:#ff8080;fill-opacity:1"
       d="M 25.125,12.625 Q 25.25,12.25 25.5,12.25 q 0.25,0 0.5,0.25 0.25,0.25 0.625,0.375 Q 27,13 27,13.5 V 14 L 26.625,13.875 Q 26.25,13.75 26,13.5 25.75,13.25 25.390625,13.140625 L 25.03125,13.03125 25.015625,13.140625 25,13.25 25.03125,13.03125 Q 25.0625,12.8125 25.125,12.625 L 25.1875,12.4375 25.09375,12.71875 25,13 25.125,12.625"
       id="path152" />
    <path
       style="fill:#c06060;fill-opacity:1"
       d="m 8.125,13.625 q 0.125,-0.375 0.5,-0.5 L 9,13 8.71875,13.09375 8.4375,13.1875 8.625,13.125 Q 8.8125,13.0625 8.9375,12.9375 L 9.0625,12.8125 9,12.875 8.9375,12.9375 8.96875,13.46875 9,14 8.453125,13.953125 7.90625,13.90625 7.828125,13.953125 7.75,14 7.90625,13.90625 Q 8.0625,13.8125 8.125,13.625 L 8.1875,13.4375 8.09375,13.71875 8,14 8.125,13.625"
       id="path154" />
    <path
       style="fill:#ffc0c0;fill-opacity:1"
       d="M 12.875,13.375 Q 13,13 13.5,13 14,13 14,13.5 V 14 l -0.375,0.125 Q 13.25,14.25 13,14.5 12.75,14.75 12.375,14.875 L 12,15 v -0.5 q 0,-0.5 0.375,-0.625 0.375,-0.125 0.5,-0.5"
       id="path156" />
    <path
       style="fill:#ff8080;fill-opacity:1"
       d="m 15.125,13.625 q 0.125,-0.375 0.5,-0.5 L 16,13 V 13.5 14 H 15.5 15 l 0.125,-0.375 M 16,14.125 V 14 13.625 13.25 13.5 q 0,0.25 0,0.5 v 0.25 -0.125"
       id="path158" />
    <path
       style="fill:#a00000;fill-opacity:1"
       d="M 16,13.5 V 13 h 0.5 0.5 l 0.125,0.375 q 0.125,0.375 0.5,0.5 L 18,14 v 0.5 0.5 h -0.5 q -0.5,0 -1,0 H 16 v -0.5 q 0,-0.5 0,-1 m 0,1.125 V 15 15.125 15.25 15 q 0,-0.25 0,-0.5 v -0.25 0.375 m 2,0.5 V 15 14.625 14.25 14.5 q 0,0.25 0,0.5 v 0.25 -0.125"
       id="path160" />
    <path
       style="fill:#c00000;fill-opacity:1"
       d="m 18.125,13.625 q 0.125,-0.375 0.5,-0.5 L 19,13 18.71875,13.09375 18.4375,13.1875 18.625,13.125 q 0.1875,-0.0625 0.28125,-0.21875 L 19,12.75 l -0.04687,0.07813 -0.04687,0.07813 0.04687,0.546875 L 19,14 H 18.5 18 l 0.125,-0.375"
       id="path162" />
    <path
       style="fill:#c00000;fill-opacity:1"
       d="m 22.125,13.625 q 0.125,-0.375 0.5,-0.5 L 23,13 V 13.5 14 H 22.5 22 l 0.125,-0.375 M 23,14.125 V 14 13.625 13.25 13.5 q 0,0.25 0,0.5 v 0.25 -0.125"
       id="path164" />
    <path
       style="fill:#ffc0c0;fill-opacity:1"
       d="M 25,13.5 V 13 13.375 13.75 13.5 q 0,-0.25 0.03125,-0.46875 l 0.03125,-0.21875 -0.01563,0.109375 -0.01563,0.109375 0.359375,0.109375 Q 25.75,13.25 26,13.5 q 0.25,0.25 0.625,0.375 L 27,14 V 14.5 15 H 26.5 26 l -0.125,-0.375 q -0.125,-0.375 -0.5,-0.5 L 25,14 v -0.5 m 2,1.625 V 15 14.625 14.25 14.5 q 0,0.25 0,0.5 v 0.25 -0.125"
       id="path166" />
    <path
       style="fill:#ff8080;fill-opacity:1"
       d="m 5.25,14.5 q 0,-0.25 0.375,-0.375 L 6,14 5.71875,14.09375 5.4375,14.1875 5.625,14.125 Q 5.8125,14.0625 6.03125,14.03125 L 6.25,14 6.140625,14.015625 6.03125,14.03125 5.96875,14.5625 5.90625,15.09375 5.953125,15.171875 6,15.25 5.90625,15.09375 Q 5.8125,14.9375 5.625,14.875 L 5.4375,14.8125 5.71875,14.90625 6,15 5.625,14.875 Q 5.25,14.75 5.25,14.5"
       id="path168" />
    <path
       style="fill:#ffc0c0;fill-opacity:1"
       d="M 5.96875,14.5625 6.03125,14.03125 5.921875,14.046875 5.8125,14.0625 6.03125,14.03125 Q 6.25,14 6.5,14 H 6.75 6.375 6 6.5 7 L 7.0625,14.5625 7.125,15.125 7.1875,15.0625 7.25,15 7.125,15.125 Q 7,15.25 7,15.5 V 15.75 15.375 15 15.5 16 H 6.5 6 V 15.5 15 15.375 15.75 15.5 Q 6,15.25 5.90625,15.09375 L 5.8125,14.9375 5.859375,15.015625 5.90625,15.09375 5.96875,14.5625 M 7,16.125 V 16 15.625 15.25 15.5 q 0,0.25 0,0.5 v 0.25 -0.125 M 7.125,14 H 7 6.625 6.25 6.5 Q 6.75,14 7,14 H 7.25 7.125"
       id="path170" />
    <path
       style="fill:#ff8080;fill-opacity:1"
       d="M 7.0625,14.5625 7,14 H 7.5 8 7.625 7.25 7.5 q 0.25,0 0.40625,-0.09375 L 8.0625,13.8125 7.984375,13.859375 7.90625,13.90625 8.453125,13.953125 9,14 8.875,14.375 Q 8.75,14.75 8.375,14.875 8,15 7.5,15 H 7 7.375 7.75 7.5 Q 7.25,15 7.125,15.125 L 7,15.25 7.0625,15.1875 7.125,15.125 7.0625,14.5625 M 7.375,14 H 7 6.875 6.75 7 q 0.25,0 0.5,0 H 7.75 7.375"
       id="path172" />
    <path
       style="fill:#400000;fill-opacity:1"
       d="M 11,14.5 V 14 l 0.546875,0.04687 0.546875,0.04687 0.04687,-0.07813 0.04687,-0.07813 -0.09375,0.15625 Q 12,14.25 12,14.5 V 14.75 14.375 14 14.5 15 H 11.5 11 v -0.5 m 0,-0.625 V 14 14.375 14.75 14.5 q 0,-0.25 0,-0.5 v -0.25 0.125"
       id="path174" />
    <path
       style="fill:#ff8080;fill-opacity:1"
       d="m 13,14.5 q 0.25,-0.25 0.625,-0.375 L 14,14 13.875,14.375 Q 13.75,14.75 13.5,15 13.25,15.25 13.125,15.625 L 13,16 H 12.5 Q 12,16 12,15.5 V 15 l 0.375,-0.125 Q 12.75,14.75 13,14.5"
       id="path176" />
    <path
       style="fill:#c00000;fill-opacity:1"
       d="M 13.875,14.375 14,14 h 0.5 0.5 v 0.5 0.5 l -0.375,0.125 q -0.375,0.125 -0.5,0.5 L 14,16 H 13.5 13 l 0.125,-0.375 Q 13.25,15.25 13.5,15 13.75,14.75 13.875,14.375 M 15,15.125 V 15 14.625 14.25 14.5 q 0,0.25 0,0.5 v 0.25 -0.125"
       id="path178" />
    <path
       style="fill:#ffc0c0;fill-opacity:1"
       d="M 15,14.5 V 14 h 0.5 0.5 v 0.5 q 0,0.5 0,1 V 16 H 15.5 15 v -0.5 q 0,-0.5 0,-1 m 1,-0.125 V 14 13.875 13.75 14 q 0,0.25 0,0.5 v 0.25 -0.375"
       id="path180" />
    <path
       style="fill:#800000;fill-opacity:1"
       d="M 18,14.5 V 14 h 0.5 0.5 v 0.5 q 0,0.5 0,1 V 16 H 18.5 18 v -0.5 q 0,-0.5 0,-1 m 0,1.125 V 16 16.125 16.25 16 q 0,-0.25 0,-0.5 v -0.25 0.375 m 1,0.5 V 16 15.625 15.25 15.5 q 0,0.25 0,0.5 v 0.25 -0.125"
       id="path182" />
    <path
       style="fill:#400000;fill-opacity:1"
       d="M 19,14.5 V 14 l 0.484375,-0.01563 0.484375,-0.01563 0.01563,-0.109375 L 20,13.75 19.96875,13.96875 Q 19.9375,14.1875 19.875,14.375 L 19.8125,14.5625 19.90625,14.28125 20,14 19.875,14.375 q -0.125,0.375 -0.5,0.5 L 19,15 v -0.5 m 0,0.125 V 15 15.125 15.25 15 q 0,-0.25 0,-0.5 v -0.25 0.375"
       id="path184" />
    <path
       style="fill:#ff8080;fill-opacity:1"
       d="M 21,14.5 V 14 h 0.5 0.5 v 0.5 Q 22,15 21.5,15 21,15 21,14.5 m 0,-0.625 V 14 14.375 14.75 14.5 q 0,-0.25 0,-0.5 v -0.25 0.125"
       id="path186" />
    <path
       style="fill:#a00000;fill-opacity:1"
       d="M 22,14.5 V 14 h 0.5 0.5 v 0.5 Q 23,15 22.875,15.375 22.75,15.75 22.5,16 q -0.25,0.25 -0.5,0.5 -0.25,0.25 -0.5,0.25 -0.25,0 -0.375,-0.375 L 21,16 21.09375,16.28125 21.1875,16.5625 21.125,16.375 Q 21.0625,16.1875 21.03125,15.96875 L 21,15.75 l 0.01563,0.109375 0.01563,0.109375 0.359375,-0.109375 Q 21.75,15.75 21.8125,15.3125 L 21.875,14.875 21.8125,14.9375 21.75,15 21.875,14.875 Q 22,14.75 22,14.5 V 14.25 14.625 15 14.5 m 1,-0.125 V 14 13.875 13.75 14 q 0,0.25 0,0.5 v 0.25 -0.375"
       id="path188" />
    <path
       style="fill:#400000;fill-opacity:1"
       d="M 24.125,14.375 24,14 24.09375,14.28125 24.1875,14.5625 24.125,14.375 Q 24.0625,14.1875 24.03125,13.96875 L 24,13.75 l 0.01563,0.109375 0.01563,0.109375 0.484375,0.01563 L 25,14 v 0.5 0.5 l -0.375,-0.125 q -0.375,-0.125 -0.5,-0.5"
       id="path190" />
    <path
       style="fill:#ff0000;fill-opacity:1"
       d="M 25,14.5 V 14 l 0.375,0.125 q 0.375,0.125 0.5,0.5 L 26,15 H 25.5 25 v -0.5"
       id="path192" />
    <path
       style="fill:#c00000;fill-opacity:1"
       d="M 27,14.5 V 14 l 0.375,0.125 q 0.375,0.125 0.5,0.5 0.125,0.375 0,0.75 -0.125,0.375 -0.5,0.5 L 27,16 v -0.5 q 0,-0.5 0,-1"
       id="path194" />
    <path
       style="fill:#400000;fill-opacity:1"
       d="m 9.125,15.625 q 0.125,-0.375 0.5,-0.5 L 10,15 9.71875,15.09375 9.4375,15.1875 9.625,15.125 q 0.1875,-0.0625 0.40625,-0.09375 L 10.25,15 10.140625,15.015625 10.03125,15.03125 10.015625,15.515625 10,16 H 9.5 9 L 9.125,15.625 M 10,16.125 V 16 15.625 15.25 15.5 q 0,0.25 0,0.5 v 0.25 -0.125"
       id="path196" />
    <path
       style="fill:#e00000;fill-opacity:1"
       d="M 10.015625,15.515625 10.03125,15.03125 9.921875,15.046875 9.8125,15.0625 10.03125,15.03125 Q 10.25,15 10.5,15 H 10.75 10.375 10 10.5 11 v 0.5 q 0,0.5 0,1 V 17 H 10.5 10 v -0.5 q 0,-0.5 0.01563,-0.984375 M 10,16.625 V 17 17.125 17.25 17 q 0,-0.25 0,-0.5 v -0.25 0.375 m 1,0.5 V 17 16.625 16.25 16.5 q 0,0.25 0,0.5 v 0.25 -0.125"
       id="path198" />
    <path
       style="fill:#e00000;fill-opacity:1"
       d="m 14.125,15.625 q 0.125,-0.375 0.5,-0.5 L 15,15 V 15.5 16 H 14.5 14 l 0.125,-0.375 M 15,15.375 V 15 14.875 14.75 15 q 0,0.25 0,0.5 v 0.25 -0.375"
       id="path200" />
    <path
       style="fill:#c00000;fill-opacity:1"
       d="M 16,15.5 V 15 h 0.5 q 0.5,0 1,0 H 18 v 0.5 q 0,0.5 0,1 0,0.5 -0.125,0.875 Q 17.75,17.75 17.5,18 17.25,18.25 17.125,18.625 17,19 16.875,19.375 16.75,19.75 16.5,20 16.25,20.25 16.125,20.625 L 16,21 16.09375,20.71875 16.1875,20.4375 16.125,20.625 Q 16.0625,20.8125 16.0625,21 V 21.1875 21.09375 21 L 15.65625,20.875 Q 15.25,20.75 15.125,20.375 15,20 14.875,19.625 14.75,19.25 14.5,19 14.25,18.75 14.125,18.375 L 14,18 14.09375,18.28125 14.1875,18.5625 14.125,18.375 Q 14.0625,18.1875 14.03125,17.96875 L 14,17.75 l 0.01563,0.109375 0.01563,0.109375 0.359375,0.140625 Q 14.75,18.25 15,18.5 q 0.25,0.25 0.5,0.25 0.25,0 0.5,-0.25 0.25,-0.25 0.5,-0.5 0.25,-0.25 0.375,-0.625 0.125,-0.375 0,-0.75 -0.125,-0.375 -0.5,-0.5 L 16,16 v -0.5 m 2,-0.125 V 15 14.875 14.75 15 q 0,0.25 0,0.5 v 0.25 -0.375 m -2,-0.5 V 15 15.375 15.75 15.5 q 0,-0.25 0,-0.5 v -0.25 0.125"
       id="path202" />
    <path
       style="fill:#c00000;fill-opacity:1"
       d="M 21.0625,15.4375 21.125,14.875 21.0625,14.8125 21,14.75 21.125,14.875 Q 21.25,15 21.5,15 H 21.75 21.375 21 21.5 22 21.625 21.25 21.5 q 0.25,0 0.375,-0.125 L 22,14.75 21.9375,14.8125 21.875,14.875 21.8125,15.3125 Q 21.75,15.75 21.390625,15.859375 l -0.359375,0.109375 0.01563,0.109375 0.01563,0.109375 -0.03125,-0.21875 Q 21,15.75 21,15.5 V 15.25 15.625 16 l 0.0625,-0.5625"
       id="path204" />
    <path
       style="fill:#c00000;fill-opacity:1"
       d="M 25,15.5 V 15 h 0.5 0.5 v 0.5 q 0,0.5 0.125,0.875 0.125,0.375 0.484375,0.484375 L 26.96875,16.96875 26.984375,16.859375 27,16.75 26.96875,16.96875 Q 26.9375,17.1875 26.875,17.375 L 26.8125,17.5625 26.90625,17.28125 27,17 26.875,17.375 Q 26.75,17.75 26.5,18 26.25,18.25 26.125,18.625 L 26,19 26.09375,18.71875 26.1875,18.4375 26.125,18.625 q -0.0625,0.1875 -0.09375,0.40625 L 26,19.25 26.015625,19.140625 26.03125,19.03125 25.640625,18.890625 Q 25.25,18.75 25,18.5 24.75,18.25 24.390625,18.140625 L 24.03125,18.03125 24.015625,18.140625 24,18.25 24.03125,18.03125 Q 24.0625,17.8125 24.125,17.625 L 24.1875,17.4375 24.09375,17.71875 24,18 24.125,17.625 Q 24.25,17.25 24.5,17 24.75,16.75 24.875,16.375 25,16 25,15.5"
       id="path206" />
    <path
       style="fill:#ff8080;fill-opacity:1"
       d="M 26,15.5 V 15 h 0.5 0.5 v 0.5 0.5 l -0.484375,-0.01563 -0.484375,-0.01563 0.01563,0.109375 0.01563,0.109375 -0.03125,-0.21875 Q 26,15.75 26,15.5 V 15.25 15.625 16 15.5 m 1,-0.125 V 15 14.875 14.75 15 q 0,0.25 0,0.5 v 0.25 -0.375"
       id="path208" />
    <path
       style="fill:#c00000;fill-opacity:1"
       d="m 5.125,16.625 q 0.125,-0.375 0.5,-0.5 L 6,16 V 16.5 17 16.625 16.25 16.5 q 0,0.25 0.125,0.375 L 6.25,17 6.1875,16.9375 6.125,16.875 6.0625,17.4375 6,18 H 5.5 5 V 17.5 Q 5,17 5.125,16.625 M 5,17.625 V 18 18.125 18.25 18 q 0,-0.25 0,-0.5 v -0.25 0.375"
       id="path210" />
    <path
       style="fill:#ff8080;fill-opacity:1"
       d="M 6,16.5 V 16 H 6.5 7 v 0.5 Q 7,17 6.5,17 6,17 6,16.5 M 7,16.375 V 16 15.875 15.75 16 q 0,0.25 0,0.5 v 0.25 -0.375"
       id="path212" />
    <path
       style="fill:#a00000;fill-opacity:1"
       d="m 8.125,16.625 q 0.125,-0.375 0.5,-0.5 L 9,16 v 0.5 q 0,0.5 0,1 V 18 H 8.5 8 V 17.5 Q 8,17 8.125,16.625 M 8,17.625 V 18 18.125 18.25 18 q 0,-0.25 0,-0.5 v -0.25 0.375 m 1,0.5 V 18 17.625 17.25 17.5 q 0,0.25 0,0.5 v 0.25 -0.125"
       id="path214" />
    <path
       style="fill:#400000;fill-opacity:1"
       d="M 12.1875,16.3125 12.125,15.875 12.0625,15.8125 12,15.75 12.125,15.875 Q 12.25,16 12.5,16 H 12.75 12.375 12 12.5 13 V 16.5 17 L 12.625,16.875 Q 12.25,16.75 12.1875,16.3125 M 13,17.125 V 17 16.625 16.25 16.5 q 0,0.25 0,0.5 v 0.25 -0.125"
       id="path216" />
    <path
       style="fill:#a00000;fill-opacity:1"
       d="M 13,16.5 V 16 h 0.5 0.5 v 0.5 q 0,0.5 0,1 0,0.5 0.125,0.875 0.125,0.375 0.375,0.625 0.25,0.25 0.375,0.625 L 15,20 14.625,19.875 Q 14.25,19.75 14,19.5 13.75,19.25 13.375,19.125 L 13,19 v -0.5 q 0,-0.5 0,-1 0,-0.5 0,-1 m 0,2.125 V 19 19.125 19.25 19 q 0,-0.25 0,-0.5 v -0.25 0.375 M 15.03125,20.09375 15,20 14.90625,19.71875 14.8125,19.4375 14.875,19.625 Q 14.9375,19.8125 15,20 l 0.0625,0.1875 -0.03125,-0.09375"
       id="path218" />
    <path
       style="fill:#ff0000;fill-opacity:1"
       d="M 14,16.5 V 16 h 0.5 0.5 l 0.125,0.375 q 0.125,0.375 0.484375,0.484375 L 15.96875,16.96875 15.984375,16.859375 16,16.75 15.96875,16.96875 Q 15.9375,17.1875 15.875,17.375 L 15.8125,17.5625 15.90625,17.28125 16,17 15.875,17.375 Q 15.75,17.75 15.5,17.75 15.25,17.75 15,17.5 14.75,17.25 14.375,17.125 L 14,17 v -0.5 m 0,0.125 V 17 17.125 17.25 17 q 0,-0.25 0,-0.5 v -0.25 0.375"
       id="path220" />
    <path
       style="fill:#ff8080;fill-opacity:1"
       d="M 15.125,16.375 15,16 H 15.5 16 V 16.5 17 16.625 16.25 16.5 q 0,0.25 -0.03125,0.46875 l -0.03125,0.21875 0.01563,-0.109375 0.01563,-0.109375 -0.359375,-0.109375 Q 15.25,16.75 15.125,16.375"
       id="path222" />
    <path
       style="fill:#e00000;fill-opacity:1"
       d="M 16,16.5 V 16 l 0.375,0.125 q 0.375,0.125 0.5,0.5 0.125,0.375 0,0.75 Q 16.75,17.75 16.5,18 q -0.25,0.25 -0.5,0.5 -0.25,0.25 -0.5,0.25 -0.25,0 -0.5,-0.25 -0.25,-0.25 -0.609375,-0.390625 L 14.03125,17.96875 14.046875,18.078125 14.0625,18.1875 14.03125,17.96875 Q 14,17.75 14,17.5 V 17.25 17.625 18 17.5 17 l 0.375,0.125 Q 14.75,17.25 15,17.5 q 0.25,0.25 0.5,0.25 0.25,0 0.375,-0.375 Q 16,17 16,16.5 m -2,0.375 V 17 17.375 17.75 17.5 q 0,-0.25 0,-0.5 v -0.25 0.125"
       id="path224" />
    <path
       style="fill:#400000;fill-opacity:1"
       d="M 18,16.5 V 16 h 0.5 0.5 v 0.5 0.5 l -0.515625,-0.01563 -0.515625,-0.01563 -0.01563,0.109375 -0.01563,0.109375 0.03125,-0.21875 Q 18,16.75 18,16.5 V 16.25 16.625 17 16.5 m 1,0.625 V 17 16.625 16.25 16.5 q 0,0.25 0,0.5 v 0.25 -0.125 m 0,-0.75 V 16 15.875 15.75 16 q 0,0.25 0,0.5 v 0.25 -0.375 m -1,-0.5 V 16 16.375 16.75 16.5 q 0,-0.25 0,-0.5 v -0.25 0.125"
       id="path226" />
    <path
       style="fill:#ff0000;fill-opacity:1"
       d="M 26.125,16.375 26,16 26.09375,16.28125 26.1875,16.5625 26.125,16.375 Q 26.0625,16.1875 26.03125,15.96875 L 26,15.75 l 0.01563,0.109375 0.01563,0.109375 0.484375,0.01563 L 27,16 V 16.5 17 16.625 16.25 16.5 q 0,0.25 -0.03125,0.46875 l -0.03125,0.21875 0.01563,-0.109375 0.01563,-0.109375 -0.359375,-0.109375 Q 26.25,16.75 26.125,16.375"
       id="path228" />
    <path
       style="fill:#400000;fill-opacity:1"
       d="M 6.0625,17.4375 6.125,16.875 6.0625,16.8125 6,16.75 6.125,16.875 Q 6.25,17 6.5,17 H 6.75 6.375 6 6.5 7 6.625 6.25 6.5 q 0.25,0 0.375,-0.125 L 7,16.75 6.9375,16.8125 6.875,16.875 6.9375,17.4375 7,18 H 6.5 6 L 6.0625,17.4375 M 7,18.125 V 18 17.625 17.25 17.5 q 0,0.25 0,0.5 v 0.25 -0.125"
       id="path230" />
    <path
       style="fill:#c00000;fill-opacity:1"
       d="M 10,17.5 V 17 H 10.5 11 V 17.5 18 H 10.5 10 v -0.5 m 0,0.125 V 18 18.125 18.25 18 q 0,-0.25 0,-0.5 v -0.25 0.375 m 1,0.5 V 18 17.625 17.25 17.5 q 0,0.25 0,0.5 v 0.25 -0.125 m 0,-0.75 V 17 16.875 16.75 17 q 0,0.25 0,0.5 v 0.25 -0.375 m -1,-0.5 V 17 17.375 17.75 17.5 q 0,-0.25 0,-0.5 v -0.25 0.125"
       id="path232" />
    <path
       style="fill:#a00000;fill-opacity:1"
       d="M 17.875,17.375 18,17 17.90625,17.28125 17.8125,17.5625 17.875,17.375 q 0.0625,-0.1875 0.09375,-0.40625 L 18,16.75 l -0.01563,0.109375 -0.01563,0.109375 0.515625,0.01563 L 19,17 v 0.5 0.5 l -0.375,0.125 q -0.375,0.125 -0.5,0.5 Q 18,19 17.875,19.375 17.75,19.75 17.5,20 17.25,20.25 17.125,20.625 17,21 16.875,21.375 16.75,21.75 16.5,21.75 16.25,21.75 16.125,21.375 16,21 16.125,20.625 16.25,20.25 16.5,20 16.75,19.75 16.875,19.375 17,19 17.125,18.625 17.25,18.25 17.5,18 q 0.25,-0.25 0.375,-0.625 m 1.125,0 V 17 16.875 16.75 17 q 0,0.25 0,0.5 v 0.25 -0.375"
       id="path234" />
    <path
       style="fill:#a00000;fill-opacity:1"
       d="M 5,18.5 V 18 H 5.5 6 v 0.5 q 0,0.5 0,1 V 20 19.625 19.25 19.5 q 0,0.25 -0.03125,0.46875 L 5.9375,20.1875 5.953125,20.078125 5.96875,19.96875 H 5.5 5.03125 L 5.046875,20.078125 5.0625,20.1875 5.03125,19.96875 Q 5,19.75 5,19.5 V 19.25 19.625 20 19.5 Q 5,19 5,18.5 M 5,17.875 V 18 18.375 18.75 18.5 Q 5,18.25 5,18 v -0.25 0.125"
       id="path236" />
    <path
       style="fill:#400000;fill-opacity:1"
       d="M 7.9375,18.5625 8,18 H 8.5 9 v 0.5 q 0,0.5 -0.125,0.875 -0.125,0.375 -0.5,0.5 L 8,20 V 19.5 19 19.375 19.75 19.5 Q 8,19.25 7.875,19.125 L 7.75,19 7.8125,19.0625 7.875,19.125 7.9375,18.5625 M 8,19.625 V 20 20.125 20.25 20 q 0,-0.25 0,-0.5 v -0.25 0.375 m 1,-1.25 V 18 17.875 17.75 18 q 0,0.25 0,0.5 v 0.25 -0.375 m -1,-0.5 V 18 18.375 18.75 18.5 Q 8,18.25 8,18 v -0.25 0.125"
       id="path238" />
    <path
       style="fill:#a00000;fill-opacity:1"
       d="M 10,18.5 V 18 H 10.5 11 V 18.5 19 H 10.5 10 v -0.5 m 0,0.125 V 19 19.125 19.25 19 q 0,-0.25 0,-0.5 v -0.25 0.375 m 1,0.5 V 19 18.625 18.25 18.5 q 0,0.25 0,0.5 v 0.25 -0.125 m 0,-0.75 V 18 17.875 17.75 18 q 0,0.25 0,0.5 v 0.25 -0.375 m -1,-0.5 V 18 18.375 18.75 18.5 q 0,-0.25 0,-0.5 v -0.25 0.125"
       id="path240" />
    <path
       style="fill:#800000;fill-opacity:1"
       d="m 18.125,18.625 q 0.125,-0.375 0.5,-0.5 L 19,18 v 0.5 q 0,0.5 0,1 0,0.5 -0.125,0.875 Q 18.75,20.75 18.5,21 18.25,21.25 18,21.5 17.75,21.75 17.5,22 17.25,22.25 17.125,22.625 17,23 16.875,23.375 16.75,23.75 16.390625,23.859375 l -0.359375,0.109375 0.01563,0.109375 0.01563,0.109375 -0.03125,-0.21875 Q 16,23.75 16,23.5 V 23.25 23.625 24 23.5 Q 16,23 15.875,22.625 15.75,22.25 15.5,22 15.25,21.75 15,21.5 14.75,21.25 14.5,21 14.25,20.75 14,20.5 13.75,20.25 13.375,20.125 L 13,20 V 19.5 19 l 0.375,0.125 Q 13.75,19.25 14,19.5 q 0.25,0.25 0.625,0.375 L 15,20 l 0.125,0.375 q 0.125,0.375 0.53125,0.5 L 16.0625,21 V 20.90625 20.8125 21 q 0,0.1875 0.0625,0.375 L 16.1875,21.5625 16.09375,21.28125 16,21 l 0.125,0.375 q 0.125,0.375 0.375,0.375 0.25,0 0.375,-0.375 Q 17,21 17.125,20.625 17.25,20.25 17.5,20 17.75,19.75 17.875,19.375 18,19 18.125,18.625 M 15.09375,20.28125 15,20 14.96875,19.90625 14.9375,19.8125 15,20 q 0.0625,0.1875 0.125,0.375 l 0.0625,0.1875 -0.09375,-0.28125 M 13,18.875 V 19 19.375 19.75 19.5 q 0,-0.25 0,-0.5 v -0.25 0.125 m 0,0.75 V 20 20.125 20.25 20 q 0,-0.25 0,-0.5 v -0.25 0.375"
       id="path242" />
    <path
       style="fill:#600000;fill-opacity:1"
       d="M 19,18.5 V 18 l 0.375,0.125 q 0.375,0.125 0.5,0.5 Q 20,19 20,19.5 q 0,0.5 0,1 V 21 l -0.375,0.125 Q 19.25,21.25 19,21.5 18.75,21.75 18.5,22 18.25,22.25 18.125,22.625 18,23 17.875,23.375 17.75,23.75 17.5,24 q -0.25,0.25 -0.5,0.5 -0.25,0.25 -0.5,0.25 -0.25,0 -0.375,-0.375 L 16,24 16.09375,24.28125 16.1875,24.5625 16.125,24.375 Q 16.0625,24.1875 16.03125,23.96875 L 16,23.75 l 0.01563,0.109375 0.01563,0.109375 0.359375,-0.109375 Q 16.75,23.75 16.875,23.375 17,23 17.125,22.625 17.25,22.25 17.5,22 17.75,21.75 18,21.5 18.25,21.25 18.5,21 18.75,20.75 18.875,20.375 19,20 19,19.5 q 0,-0.5 0,-1 m 1,2.625 V 21 20.625 20.25 20.5 q 0,0.25 0,0.5 v 0.25 -0.125"
       id="path244" />
    <path
       style="fill:#a00000;fill-opacity:1"
       d="M 24,18.5 V 18 18.375 18.75 18.5 q 0,-0.25 0.03125,-0.46875 l 0.03125,-0.21875 -0.01563,0.109375 -0.01563,0.109375 0.359375,0.109375 Q 24.75,18.25 25,18.5 q 0.25,0.25 0.640625,0.390625 l 0.390625,0.140625 0.01563,-0.109375 0.01563,-0.109375 -0.03125,0.21875 Q 26,19.25 26,19.5 V 19.75 19.375 19 19.5 q 0,0.5 0,1 V 21 H 25.5 25 V 20.5 Q 25,20 24.875,19.625 24.75,19.25 24.390625,19.109375 L 24.03125,18.96875 24.046875,19.078125 24.0625,19.1875 24.03125,18.96875 Q 24,18.75 24,18.5 V 18.25 18.625 19 18.5 m 1,2.125 V 21 21.125 21.25 21 q 0,-0.25 0,-0.5 v -0.25 0.375 m 1,0.5 V 21 20.625 20.25 20.5 q 0,0.25 0,0.5 v 0.25 -0.125"
       id="path246" />
    <path
       style="fill:#ffc0c0;fill-opacity:1"
       d="M 7,19.5 Q 7,19 7.5,19 8,19 8,19.5 8,20 8,20.5 8,21 7.5,21 7,21 7,20.5 7,20 7,19.5"
       id="path248" />
    <path
       style="fill:#800000;fill-opacity:1"
       d="M 10,19.5 V 19 h 0.5 0.5 v 0.5 Q 11,20 10.875,20.375 10.75,20.75 10.5,20.75 10.25,20.75 10.125,20.375 10,20 10,19.5 m 1,-0.125 V 19 18.875 18.75 19 q 0,0.25 0,0.5 v 0.25 -0.375 m -1,-0.5 V 19 19.375 19.75 19.5 q 0,-0.25 0,-0.5 v -0.25 0.125"
       id="path250" />
    <path
       style="fill:#800000;fill-opacity:1"
       d="M 24.125,19.375 24,19 24.09375,19.28125 24.1875,19.5625 24.125,19.375 Q 24.0625,19.1875 24.03125,18.96875 L 24,18.75 l 0.01563,0.109375 0.01563,0.109375 0.359375,0.140625 Q 24.75,19.25 24.875,19.625 L 25,20 24.90625,19.71875 24.8125,19.4375 24.875,19.625 q 0.0625,0.1875 0.09375,0.40625 L 25,20.25 24.984375,20.140625 24.96875,20.03125 24.609375,19.890625 Q 24.25,19.75 24.125,19.375"
       id="path252" />
    <path
       style="fill:#800000;fill-opacity:1"
       d="M 5.125,20.375 5,20 5.09375,20.28125 5.1875,20.5625 5.125,20.375 Q 5.0625,20.1875 5.03125,19.96875 L 5,19.75 5.015625,19.859375 5.03125,19.96875 H 5.5 5.96875 L 5.984375,19.859375 6,19.75 5.96875,19.96875 Q 5.9375,20.1875 5.875,20.375 L 5.8125,20.5625 5.90625,20.28125 6,20 5.875,20.375 Q 5.75,20.75 5.5,20.75 q -0.25,0 -0.375,-0.375"
       id="path254" />
    <path
       style="fill:#600000;fill-opacity:1"
       d="M 13,20.5 V 20 l 0.375,0.125 Q 13.75,20.25 14,20.5 q 0.25,0.25 0.5,0.5 0.25,0.25 0.5,0.5 0.25,0.25 0.5,0.5 0.25,0.25 0.375,0.625 L 16,23 15.90625,22.71875 15.8125,22.4375 15.875,22.625 q 0.0625,0.1875 0.09375,0.40625 L 16,23.25 15.984375,23.140625 15.96875,23.03125 15.484375,23.015625 Q 15,23 14.5,23 H 14 L 13.875,22.625 Q 13.75,22.25 13.5,22 13.25,21.75 13.125,21.375 13,21 13,20.5 M 13.90625,22.71875 14,23 14.03125,23.09375 14.0625,23.1875 14,23 q -0.0625,-0.1875 -0.125,-0.375 l -0.0625,-0.1875 0.09375,0.28125 M 13,19.875 V 20 20.375 20.75 20.5 q 0,-0.25 0,-0.5 v -0.25 0.125"
       id="path256" />
    <path
       style="fill:#c00000;fill-opacity:1"
       d="M 7.0625,21.4375 7.125,20.875 7.0625,20.8125 7,20.75 7.125,20.875 Q 7.25,21 7.5,21 H 7.75 7.375 7 7.5 8 7.625 7.25 7.5 q 0.25,0 0.375,-0.125 L 8,20.75 7.9375,20.8125 7.875,20.875 7.9375,21.4375 8,22 H 7.5 7 L 7.0625,21.4375 M 7,21.625 V 22 22.125 22.25 22 q 0,-0.25 0,-0.5 v -0.25 0.375 m 1,0.5 V 22 21.625 21.25 21.5 q 0,0.25 0,0.5 v 0.25 -0.125"
       id="path258" />
    <path
       style="fill:#400000;fill-opacity:1"
       d="m 19,21.5 q 0.25,-0.25 0.625,-0.375 L 20,21 V 21.5 22 21.625 21.25 21.5 q 0,0.25 -0.03125,0.46875 l -0.03125,0.21875 0.01563,-0.109375 0.01563,-0.109375 -0.359375,0.140625 Q 19.25,22.25 19.125,22.625 19,23 19,23.5 q 0,0.5 0,1 V 25 l -0.375,0.125 q -0.375,0.125 -0.5,0.5 Q 18,26 18,26.5 18,27 17.875,27.375 17.75,27.75 17.359375,27.890625 L 16.96875,28.03125 16.984375,28.140625 17,28.25 16.96875,28.03125 Q 16.9375,27.8125 16.875,27.625 L 16.8125,27.4375 16.90625,27.71875 17,28 16.875,27.625 Q 16.75,27.25 16.5,27 16.25,26.75 16.125,26.375 16,26 15.875,25.625 15.75,25.25 15.5,25 15.25,24.75 15,24.5 14.75,24.25 14.5,24 14.25,23.75 14.125,23.375 L 14,23 h 0.5 q 0.5,0 0.984375,0.01563 l 0.484375,0.01563 -0.01563,-0.109375 -0.01563,-0.109375 0.03125,0.21875 Q 16,23.25 16,23.5 V 23.75 23.375 23 23.5 q 0,0.5 0.125,0.875 0.125,0.375 0.375,0.375 0.25,0 0.5,-0.25 0.25,-0.25 0.5,-0.5 0.25,-0.25 0.375,-0.625 Q 18,23 18.125,22.625 18.25,22.25 18.5,22 18.75,21.75 19,21.5 M 13.96875,22.90625 14,23 14.09375,23.28125 14.1875,23.5625 14.125,23.375 Q 14.0625,23.1875 14,23 l -0.0625,-0.1875 0.03125,0.09375 M 19,25.125 V 25 24.625 24.25 24.5 q 0,0.25 0,0.5 v 0.25 -0.125 m 1,-3.75 V 21 20.875 20.75 21 q 0,0.25 0,0.5 v 0.25 -0.375"
       id="path260" />
    <path
       style="fill:#800000;fill-opacity:1"
       d="M 25,21.5 V 21 h 0.5 0.5 v 0.5 Q 26,22 25.875,22.375 25.75,22.75 25.5,22.75 25.25,22.75 25.125,22.375 25,22 25,21.5 m 1,-0.125 V 21 20.875 20.75 21 q 0,0.25 0,0.5 v 0.25 -0.375 m -1,-0.5 V 21 21.375 21.75 21.5 q 0,-0.25 0,-0.5 v -0.25 0.125"
       id="path262" />
    <path
       style="fill:#a00000;fill-opacity:1"
       d="M 7,22.5 V 22 H 7.5 8 V 22.5 23 22.625 22.25 22.5 q 0,0.25 -0.03125,0.46875 L 7.9375,23.1875 7.953125,23.078125 7.96875,22.96875 H 7.5 7.03125 L 7.046875,23.078125 7.0625,23.1875 7.03125,22.96875 Q 7,22.75 7,22.5 V 22.25 22.625 23 22.5 M 8,22.375 V 22 21.875 21.75 22 q 0,0.25 0,0.5 v 0.25 -0.375 m -1,-0.5 V 22 22.375 22.75 22.5 Q 7,22.25 7,22 v -0.25 0.125"
       id="path264" />
    <path
       style="fill:#300000;fill-opacity:1"
       d="M 19.125,22.625 Q 19.25,22.25 19.609375,22.109375 L 19.96875,21.96875 19.984375,21.859375 20,21.75 19.96875,21.96875 Q 19.9375,22.1875 19.875,22.375 L 19.8125,22.5625 19.90625,22.28125 20,22 19.875,22.375 Q 19.75,22.75 19.390625,22.890625 L 19.03125,23.03125 19.015625,23.140625 19,23.25 19.03125,23.03125 Q 19.0625,22.8125 19.125,22.625 L 19.1875,22.4375 19.09375,22.71875 19,23 19.125,22.625"
       id="path266" />
    <path
       style="fill:#800000;fill-opacity:1"
       d="M 7.125,23.375 7,23 7.09375,23.28125 7.1875,23.5625 7.125,23.375 Q 7.0625,23.1875 7.03125,22.96875 L 7,22.75 7.015625,22.859375 7.03125,22.96875 H 7.5 7.96875 L 7.984375,22.859375 8,22.75 7.96875,22.96875 Q 7.9375,23.1875 7.875,23.375 L 7.8125,23.5625 7.90625,23.28125 8,23 7.875,23.375 Q 7.75,23.75 7.5,23.75 q -0.25,0 -0.375,-0.375"
       id="path268" />
    <path
       style="fill:#300000;fill-opacity:1"
       d="m 18.125,25.625 q 0.125,-0.375 0.5,-0.5 L 19,25 v 0.5 q 0,0.5 0,1 0,0.5 -0.125,0.875 Q 18.75,27.75 18.5,28 18.25,28.25 18.125,28.625 18,29 17.875,29.375 17.75,29.75 17.5,29.75 17.25,29.75 17.125,29.375 17,29 17,28.5 V 28 28.375 28.75 28.5 q 0,-0.25 -0.03125,-0.46875 l -0.03125,-0.21875 0.01563,0.109375 0.01563,0.109375 0.390625,-0.140625 Q 17.75,27.75 17.875,27.375 18,27 18,26.5 18,26 18.125,25.625 M 19,25.375 V 25 24.875 24.75 25 q 0,0.25 0,0.5 v 0.25 -0.375"
       id="path270" />
  </g>
</svg>
