<?xml version="1.0" encoding="UTF-8" standalone="no"?>
<!-- Created with Inkscape (http://www.inkscape.org/) -->

<svg
   xmlns:dc="http://purl.org/dc/elements/1.1/"
   xmlns:cc="http://creativecommons.org/ns#"
   xmlns:rdf="http://www.w3.org/1999/02/22-rdf-syntax-ns#"
   xmlns:svg="http://www.w3.org/2000/svg"
   xmlns="http://www.w3.org/2000/svg"
   xmlns:sodipodi="http://sodipodi.sourceforge.net/DTD/sodipodi-0.dtd"
   xmlns:inkscape="http://www.inkscape.org/namespaces/inkscape"
   version="1.1"
   id="svg1472"
   width="32"
   height="32"
   viewBox="0 0 32 32"
   sodipodi:docname="hammer.svg"
   inkscape:version="0.92.5 (2060ec1f9f, 2020-04-08)">
  <metadata
     id="metadata1478">
    <rdf:RDF>
      <cc:Work
         rdf:about="">
        <dc:format>image/svg+xml</dc:format>
        <dc:type
           rdf:resource="http://purl.org/dc/dcmitype/StillImage" />
        <dc:title></dc:title>
      </cc:Work>
    </rdf:RDF>
  </metadata>
  <defs
     id="defs1476" />
  <sodipodi:namedview
     pagecolor="#ffffff"
     bordercolor="#666666"
     borderopacity="1"
     objecttolerance="10"
     gridtolerance="10"
     guidetolerance="10"
     inkscape:pageopacity="0"
     inkscape:pageshadow="2"
     inkscape:window-width="1920"
     inkscape:window-height="1118"
     id="namedview1474"
     showgrid="false"
     inkscape:zoom="11.369791"
     inkscape:cx="11.900158"
     inkscape:cy="16.863108"
     inkscape:window-x="0"
     inkscape:window-y="24"
     inkscape:window-maximized="1"
     inkscape:current-layer="svg1472" />
  <g
     id="g1628"
     style="display:inline">
    <path
       style="fill:#000000;fill-opacity:0"
       d="M 0,0.5 V 0 H 0.5 1 1.5 2 2.5 3 3.5 4 4.5 5 5.5 6 6.5 7 7.5 8 8.5 9 9.5 10 10.5 11 11.5 12 12.5 13 13.5 14 14.5 15 15.5 16 16.5 17 17.5 18 18.5 19 19.5 20 20.5 21 21.5 22 22.5 23 23.5 24 24.5 25 25.5 26 26.5 27 27.5 28 28.5 29 l 0.125,0.375 Q 29.25,0.75 28.96875,1.03125 L 28.6875,1.3125 28.75,1.375 28.8125,1.4375 28.6875,1.3125 Q 28.5625,1.1875 28.375,1.125 L 28.1875,1.0625 28.46875,1.15625 28.75,1.25 28.375,1.125 Q 28,1 27.625,1.125 27.25,1.25 27,1.5 26.75,1.75 26.5,2 26.25,2.25 26,2.5 25.75,2.75 25.5,3 25.25,3.25 25,3.5 24.75,3.75 24.5,4 24.25,4.25 24,4.5 23.75,4.75 23.5,5 23.25,5.25 23,5.5 22.75,5.75 22.5,6 22.25,6.25 22,6.5 21.75,6.75 21.5,7 21.25,7.25 21,7.5 20.75,7.75 20.5,8 20.25,8.25 20,8.5 19.75,8.75 19.5,9 19.25,9.25 19,9.5 18.75,9.75 18.5,10 18.25,10.25 18,10.5 17.75,10.75 17.5,11 L 17.25,11.25 17,11 Q 16.75,10.75 16.375,10.875 16,11 16,10.5 16,10 15.5,10 15,10 15,9.5 15,9 14.5,9 14,9 13.625,8.875 13.25,8.75 13.125,8.375 13,8 12.5,8 12,8 11.625,7.875 11.25,7.75 11.125,7.375 11,7 10.5,7 10,7 9.5,7 9,7 9,6.5 9,6 8.5,6 8,6 7.5,6 7,6 7,6.5 7,7 6.5,7 6,7 6,7.5 6,8 5.5,8 5,8 4.875,8.375 4.75,8.75 4.375,8.875 4,9 4,9.5 4,10 3.5,10 3,10 2.875,10.375 2.75,10.75 2.375,10.875 2,11 2,11.5 2,12 1.5,12 1,12 1,12.5 V 13 H 0.5 0 V 12.5 12 11.5 11 10.5 10 9.5 9 8.5 8 7.5 7 6.5 6 5.5 5 4.5 4 3.5 3 2.5 2 1.5 1 0.5 M 17.1875,11.3125 17.25,11.25 17.4375,11.0625 17.625,10.875 17.5,11 q -0.125,0.125 -0.25,0.25 l -0.125,0.125 0.0625,-0.0625"
       id="path1482"
       inkscape:connector-curvature="0" />
    <path
       style="fill:#000000;fill-opacity:1"
       d="M 29.125,0.375 29,0 H 29.5 30 30.5 31 V 0.5 Q 31,1 31.5,1 H 32 V 1.5 2 2.5 3 H 31.5 Q 31,3 31,3.5 31,4 30.5,4 30,4 30,4.5 30,5 29.5,5 29,5 29,5.5 29,6 28.5,6 28,6 28,6.5 28,7 27.5,7 27,7 27,7.5 27,8 26.5,8 26,8 26,8.5 26,9 25.5,9 25,9 25,9.5 25,10 24.5,10 24,10 24,10.5 24,11 23.5,11 23,11 23,11.5 q 0,0.5 0,1 V 13 L 22.625,12.875 Q 22.25,12.75 21.984375,13.046875 l -0.265625,0.296875 0.04687,0.04687 0.04687,0.04687 -0.09375,-0.09375 Q 21.625,13.25 21.5,13.25 H 21.375 21.5625 21.75 21.5 21.25 21.4375 21.625 21.5 q -0.125,0 -0.21875,0.09375 l -0.09375,0.09375 0.04687,-0.04687 0.04687,-0.04687 -0.265625,-0.296875 Q 20.75,12.75 20.5,13 20.25,13.25 20.125,13.625 20,14 19.625,14.125 19.25,14.25 19,14 L 18.75,13.75 19,13.5 Q 19.25,13.25 19.5,13 19.75,12.75 20,12.5 20.25,12.25 20.5,12 20.75,11.75 21,11.5 21.25,11.25 21.5,11 21.75,10.75 22,10.5 22.25,10.25 22.5,10 22.75,9.75 23,9.5 23.25,9.25 23.5,9 23.75,8.75 24,8.5 24.25,8.25 24.5,8 24.75,7.75 25,7.5 25.25,7.25 25.5,7 25.75,6.75 26,6.5 26.25,6.25 26.5,6 26.75,5.75 27,5.5 27.25,5.25 27.5,5 27.75,4.75 28,4.5 28.25,4.25 28.5,4 28.75,3.75 29,3.5 29.25,3.25 29.5,3 29.75,2.75 29.75,2.5 29.75,2.25 29.34375,2.125 L 28.9375,2 V 2.09375 2.1875 2 q 0,-0.1875 -0.0625,-0.375 L 28.8125,1.4375 28.90625,1.71875 29,2 28.875,1.625 28.75,1.25 28.84375,1.53125 28.9375,1.8125 28.875,1.625 Q 28.8125,1.4375 28.6875,1.3125 L 28.5625,1.1875 28.625,1.25 28.6875,1.3125 28.96875,1.03125 Q 29.25,0.75 29.125,0.375 M 18.9375,13.5625 18.75,13.75 18.6875,13.8125 18.625,13.875 18.75,13.75 Q 18.875,13.625 19,13.5 l 0.125,-0.125 -0.1875,0.1875"
       id="path1484"
       inkscape:connector-curvature="0" />
    <path
       style="fill:#000000;fill-opacity:0"
       d="M 31,0.5 V 0 H 31.5 32 V 0.5 1 H 31.5 Q 31,1 31,0.5"
       id="path1486"
       inkscape:connector-curvature="0" />
    <path
       style="fill:#603000;fill-opacity:1"
       d="M 27,1.5 Q 27.25,1.25 27.625,1.125 L 28,1 27.71875,1.09375 27.4375,1.1875 27.625,1.125 Q 27.8125,1.0625 28,1.0625 H 28.1875 28.09375 28 L 27.875,1.40625 Q 27.75,1.75 27.5,2 27.25,2.25 27,2.5 26.75,2.75 26.5,3 26.25,3.25 26,3.5 25.75,3.75 25.5,4 25.25,4.25 25,4.5 24.75,4.75 24.5,5 24.25,5.25 24,5.5 23.75,5.75 23.5,6 23.25,6.25 23,6.5 22.75,6.75 22.5,7 22.25,7.25 22,7.5 21.75,7.75 21.5,8 21.25,8.25 21,8.5 20.75,8.75 20.5,9 20.25,9.25 20,9.5 19.75,9.75 19.5,10 19.25,10.25 19,10.5 18.75,10.75 18.5,11 18.25,11.25 18,11.5 17.75,11.75 17.5,12 17.25,12.25 17,12.5 16.75,12.75 16.5,13 16.25,13.25 16,13.5 15.75,13.75 15.40625,13.875 L 15.0625,14 V 14.09375 14.1875 14 q 0,-0.1875 0.0625,-0.375 L 15.1875,13.4375 15.09375,13.71875 15,14 15.125,13.625 Q 15.25,13.25 15.5,13 15.75,12.75 16,12.5 16.25,12.25 16.5,12 16.75,11.75 17,11.5 17.25,11.25 17.5,11 17.75,10.75 18,10.5 18.25,10.25 18.5,10 18.75,9.75 19,9.5 19.25,9.25 19.5,9 19.75,8.75 20,8.5 20.25,8.25 20.5,8 20.75,7.75 21,7.5 21.25,7.25 21.5,7 21.75,6.75 22,6.5 22.25,6.25 22.5,6 22.75,5.75 23,5.5 23.25,5.25 23.5,5 23.75,4.75 24,4.5 24.25,4.25 24.5,4 24.75,3.75 25,3.5 25.25,3.25 25.5,3 25.75,2.75 26,2.5 26.25,2.25 26.5,2 26.75,1.75 27,1.5"
       id="path1488"
       inkscape:connector-curvature="0" />
    <path
       style="fill:#402000;fill-opacity:1"
       d="M 27.875,1.40625 28,1.0625 H 27.90625 27.8125 28 q 0.1875,0 0.375,0.0625 L 28.5625,1.1875 28.28125,1.09375 28,1 28.375,1.125 q 0.375,0.125 0.5,0.5 Q 29,2 28.875,2.375 28.75,2.75 28.5,3 28.25,3.25 28,3.5 27.75,3.75 27.5,4 27.25,4.25 27,4.5 26.75,4.75 26.5,5 26.25,5.25 26,5.5 25.75,5.75 25.5,6 25.25,6.25 25,6.5 24.75,6.75 24.5,7 24.25,7.25 24,7.5 23.75,7.75 23.5,8 23.25,8.25 23,8.5 22.75,8.75 22.5,9 22.25,9.25 22,9.5 21.75,9.75 21.5,10 q -0.25,0.25 -0.5,0.5 -0.25,0.25 -0.5,0.5 -0.25,0.25 -0.5,0.5 -0.25,0.25 -0.5,0.5 -0.25,0.25 -0.5,0.5 -0.25,0.25 -0.5,0.5 -0.25,0.25 -0.5,0.5 -0.25,0.25 -0.5,0.5 -0.25,0.25 -0.5,0.5 -0.25,0.25 -0.625,0.375 -0.375,0.125 -0.75,0 -0.375,-0.125 -0.5,-0.5 L 15,14 15.09375,14.28125 15.1875,14.5625 15.125,14.375 Q 15.0625,14.1875 15.0625,14 V 13.8125 13.90625 14 l 0.34375,-0.125 Q 15.75,13.75 16,13.5 16.25,13.25 16.5,13 16.75,12.75 17,12.5 17.25,12.25 17.5,12 17.75,11.75 18,11.5 18.25,11.25 18.5,11 18.75,10.75 19,10.5 19.25,10.25 19.5,10 19.75,9.75 20,9.5 20.25,9.25 20.5,9 20.75,8.75 21,8.5 21.25,8.25 21.5,8 21.75,7.75 22,7.5 22.25,7.25 22.5,7 22.75,6.75 23,6.5 23.25,6.25 23.5,6 23.75,5.75 24,5.5 24.25,5.25 24.5,5 24.75,4.75 25,4.5 25.25,4.25 25.5,4 25.75,3.75 26,3.5 26.25,3.25 26.5,3 26.75,2.75 27,2.5 27.25,2.25 27.5,2 27.75,1.75 27.875,1.40625"
       id="path1490"
       inkscape:connector-curvature="0" />
    <path
       style="fill:#181800;fill-opacity:1"
       d="M 28.875,2.375 29,2 28.90625,2.28125 28.8125,2.5625 28.875,2.375 Q 28.9375,2.1875 28.9375,2 V 1.8125 1.90625 2 l 0.40625,0.125 Q 29.75,2.25 29.75,2.5 29.75,2.75 29.5,3 29.25,3.25 29,3.5 28.75,3.75 28.5,4 28.25,4.25 28,4.5 27.75,4.75 27.5,5 27.25,5.25 27,5.5 26.75,5.75 26.5,6 26.25,6.25 26,6.5 25.75,6.75 25.5,7 25.25,7.25 25,7.5 24.75,7.75 24.5,8 24.25,8.25 24,8.5 23.75,8.75 23.5,9 23.25,9.25 23,9.5 22.75,9.75 22.5,10 q -0.25,0.25 -0.5,0.5 -0.25,0.25 -0.5,0.5 -0.25,0.25 -0.5,0.5 -0.25,0.25 -0.5,0.5 -0.25,0.25 -0.5,0.5 -0.25,0.25 -0.5,0.5 -0.25,0.25 -0.5,0.5 -0.25,0.25 -0.5,0.5 -0.25,0.25 -0.5,0.5 -0.25,0.25 -0.5,0.5 -0.25,0.25 -0.5,0.5 -0.25,0.25 -0.5,0.25 -0.25,0 -0.375,-0.40625 L 16,14.9375 H 15.90625 15.8125 16 q 0.1875,0 0.375,-0.0625 L 16.5625,14.8125 16.28125,14.90625 16,15 16.375,14.875 Q 16.75,14.75 17,14.5 17.25,14.25 17.5,14 17.75,13.75 18,13.5 18.25,13.25 18.5,13 18.75,12.75 19,12.5 19.25,12.25 19.5,12 19.75,11.75 20,11.5 20.25,11.25 20.5,11 20.75,10.75 21,10.5 21.25,10.25 21.5,10 21.75,9.75 22,9.5 22.25,9.25 22.5,9 22.75,8.75 23,8.5 23.25,8.25 23.5,8 23.75,7.75 24,7.5 24.25,7.25 24.5,7 24.75,6.75 25,6.5 25.25,6.25 25.5,6 25.75,5.75 26,5.5 26.25,5.25 26.5,5 26.75,4.75 27,4.5 27.25,4.25 27.5,4 27.75,3.75 28,3.5 28.25,3.25 28.5,3 28.75,2.75 28.875,2.375"
       id="path1492"
       inkscape:connector-curvature="0" />
    <path
       style="fill:#000000;fill-opacity:0"
       d="M 31,3.5 Q 31,3 31.5,3 H 32 V 3.5 4 4.5 5 5.5 6 6.5 7 7.5 8 8.5 9 9.5 10 10.5 11 11.5 12 12.5 13 13.5 14 14.5 15 15.5 16 16.5 17 17.5 18 18.5 19 19.5 20 20.5 21 21.5 22 22.5 23 23.5 24 24.5 25 25.5 26 26.5 27 27.5 28 28.5 29 29.5 30 30.5 31 31.5 32 H 31.5 31 30.5 30 29.5 29 28.5 28 27.5 27 26.5 26 25.5 25 24.5 24 23.5 23 22.5 22 21.5 21 20.5 20 19.5 19 18.5 18 17.5 17 16.5 16 15.5 15 14.5 14 13.5 13 12.5 12 11.5 11 10.5 10 9.5 9 8.5 8 7.5 7 6.5 6 5.5 5 4.5 4 3.5 3 2.5 2 1.5 1 0.5 0 V 31.5 31 30.5 30 29.5 29 28.5 28 27.5 27 26.5 26 25.5 25 24.5 24 23.5 23 H 0.5 Q 1,23 1,23.5 1,24 1.5,24 2,24 2.5,24 3,24 3,24.5 3,25 3.5,25 q 0.5,0 1,0 0.5,0 1,0 0.5,0 1,0 0.5,0 1,0 0.5,0 1,0 0.5,0 1,0 0.5,0 0.5,0.5 0,0.5 0.5,0.5 0.5,0 1,0 0.5,0 0.5,0.5 0,0.5 0.5,0.5 0.5,0 0.5,0.5 0,0.5 0,1 0,0.5 0.5,0.5 H 14 v 0.5 q 0,0.5 0.5,0.5 0.5,0 1,0 H 16 v 0.5 q 0,0.5 0.5,0.5 0.5,0 1,0 h 0.5 0.5 0.5 0.5 0.5 0.5 q 0.5,0 0.625,-0.375 0.125,-0.375 0.5,-0.5 0.375,-0.125 0.5,-0.5 0.125,-0.375 0.5,-0.5 0.375,-0.125 0.5,-0.5 0.125,-0.375 0.5,-0.5 0.375,-0.125 0.5,-0.5 0.125,-0.375 0.5,-0.5 0.375,-0.125 0.5,-0.5 0.125,-0.375 0.5,-0.5 0.375,-0.125 0.5,-0.5 0.125,-0.375 0.5,-0.5 0.375,-0.125 0.5,-0.5 0.125,-0.375 0.5,-0.5 Q 28,24 28,23.5 28,23 28,22.5 28,22 28.5,22 29,22 29,21.5 29,21 29,20.5 29,20 29.5,20 30,20 30,19.5 q 0,-0.5 0,-1 0,-0.5 0,-1 0,-0.5 0,-1 Q 30,16 29.5,16 29,16 29,15.5 29,15 28.5,15 28,15 28,14.5 28,14 27.5,14 27,14 26.5,14 26,14 26,13.5 26,13 25.5,13 q -0.5,0 -1,0 -0.5,0 -1,0 H 23 V 12.5 Q 23,12 23,11.5 23,11 23.5,11 24,11 24,10.5 24,10 24.5,10 25,10 25,9.5 25,9 25.5,9 26,9 26,8.5 26,8 26.5,8 27,8 27,7.5 27,7 27.5,7 28,7 28,6.5 28,6 28.5,6 29,6 29,5.5 29,5 29.5,5 30,5 30,4.5 30,4 30.5,4 31,4 31,3.5"
       id="path1494"
       inkscape:connector-curvature="0" />
    <path
       style="fill:#303030;fill-opacity:1"
       d="M 7,6.5 Q 7,6 7.5,6 8,6 8.5,6 9,6 9,6.5 9,7 9.5,7 q 0.5,0 1,0 0.5,0 0.625,0.375 0.125,0.375 0.5,0.5 Q 12,8 12.5,8 13,8 13.125,8.375 L 13.25,8.75 13.15625,8.46875 13.0625,8.1875 13.125,8.375 q 0.0625,0.1875 0.1875,0.3125 l 0.125,0.125 L 13.375,8.75 13.3125,8.6875 13,9 12.6875,9.3125 12.75,9.375 12.8125,9.4375 12.6875,9.3125 Q 12.5625,9.1875 12.375,9.125 L 12.1875,9.0625 12.46875,9.15625 12.75,9.25 12.375,9.125 Q 12,9 12,9.5 q 0,0.5 0,1 V 11 H 11.5 Q 11,11 11,11.5 V 12 H 10.5 Q 10,12 9.5,12 9,12 9,12.5 V 13 H 8.5 Q 8,13 8,13.5 V 14 H 7.5 Q 7,14 7,14.5 7,15 6.5,15 H 6 5.5 Q 5,15 4.5,15 4,15 4,14.5 V 14 H 3.5 Q 3,14 2.5,14 2,14 2,13.5 2,13 1.5,13 H 1 V 12.5 Q 1,12 1.5,12 2,12 2,11.5 2,11 2.375,10.875 2.75,10.75 2.875,10.375 3,10 3.5,10 4,10 4,9.5 4,9 4.375,8.875 4.75,8.75 4.875,8.375 5,8 5.5,8 6,8 6,7.5 6,7 6.5,7 7,7 7,6.5 m -3,7 V 14 H 4.5 Q 5,14 5,13.5 5,13 4.5,13 4,13 4,13.5 M 3.5,12 Q 4,12 4,11.5 4,11 3.625,11.125 3.25,11.25 3.125,11.625 3,12 3.5,12 m 3,0 Q 7,12 7,11.5 7,11 6.5,11 6,11 6,11.5 6,12 6.5,12 m -1,-2 Q 6,10 6,9.5 6,9 5.625,9.125 5.25,9.25 5.125,9.625 5,10 5.5,10 m 3,1 Q 9,11 9,10.5 9,10 8.5,10 8,10 8,10.5 8,11 8.5,11 m 0,-2 Q 9,9 9,8.5 9,8 8.5,8 8,8 8,8.5 8,9 8.5,9 m 2,0 Q 11,9 10.875,8.625 10.75,8.25 10.375,8.125 10,8 10,8.5 10,9 10.5,9"
       id="path1496"
       inkscape:connector-curvature="0" />
    <path
       style="fill:#404040;fill-opacity:1"
       d="M 8,8.5 Q 8,8 8.5,8 9,8 9,8.5 9,9 8.5,9 8,9 8,8.5"
       id="path1498"
       inkscape:connector-curvature="0" />
    <path
       style="fill:#404040;fill-opacity:1"
       d="M 10,8.5 Q 10,8 10.375,8.125 10.75,8.25 10.875,8.625 11,9 10.5,9 10,9 10,8.5"
       id="path1500"
       inkscape:connector-curvature="0" />
    <path
       style="fill:#404040;fill-opacity:1"
       d="M 5.125,9.625 Q 5.25,9.25 5.625,9.125 6,9 6,9.5 6,10 5.5,10 5,10 5.125,9.625"
       id="path1502"
       inkscape:connector-curvature="0" />
    <path
       style="fill:#404040;fill-opacity:1"
       d="M 12,9.5 Q 12,9 12.375,9.125 12.75,9.25 12.875,9.625 13,10 13.125,10.375 13.25,10.75 13.5,11 13.75,11.25 13.875,11.625 14,12 14,12.5 q 0,0.5 0,1 V 14 H 13.5 13 V 13.5 Q 13,13 12.5,13 12,13 12,12.5 V 12 h 0.5 q 0.5,0 0.375,-0.375 -0.125,-0.375 -0.5,-0.5 L 12,11 v -0.5 q 0,-0.5 0,-1"
       id="path1504"
       inkscape:connector-curvature="0" />
    <path
       style="fill:#000000;fill-opacity:1"
       d="M 12.875,9.625 12.75,9.25 12.84375,9.53125 12.9375,9.8125 12.875,9.625 Q 12.8125,9.4375 12.6875,9.3125 L 12.5625,9.1875 12.625,9.25 12.6875,9.3125 13,9 13.3125,8.6875 13.25,8.625 13.1875,8.5625 l 0.125,0.125 q 0.125,0.125 0.3125,0.1875 L 13.8125,8.9375 13.53125,8.84375 13.25,8.75 13.625,8.875 Q 14,9 14.5,9 15,9 15,9.5 15,10 15.5,10 16,10 16,10.5 16,11 16.375,10.875 16.75,10.75 17,11 L 17.25,11.25 17,11.5 q -0.25,0.25 -0.5,0.5 -0.25,0.25 -0.5,0.5 -0.25,0.25 -0.5,0.5 -0.25,0.25 -0.375,0.625 L 15,14 H 14.5 14 V 13.5 Q 14,13 14,12.5 14,12 13.875,11.625 13.75,11.25 13.5,11 13.25,10.75 13.125,10.375 13,10 12.875,9.625 M 17.0625,11.4375 17.25,11.25 17.3125,11.1875 17.375,11.125 17.25,11.25 Q 17.125,11.375 17,11.5 l -0.125,0.125 0.1875,-0.1875"
       id="path1506"
       inkscape:connector-curvature="0" />
    <path
       style="fill:#404040;fill-opacity:1"
       d="M 8,10.5 Q 8,10 8.5,10 9,10 9,10.5 9,11 8.5,11 8,11 8,10.5"
       id="path1508"
       inkscape:connector-curvature="0" />
    <path
       style="fill:#404040;fill-opacity:1"
       d="M 3.125,11.625 Q 3.25,11.25 3.625,11.125 4,11 4,11.5 4,12 3.5,12 3,12 3.125,11.625"
       id="path1510"
       inkscape:connector-curvature="0" />
    <path
       style="fill:#404040;fill-opacity:1"
       d="M 6,11.5 Q 6,11 6.5,11 7,11 7,11.5 7,12 6.5,12 6,12 6,11.5"
       id="path1512"
       inkscape:connector-curvature="0" />
    <path
       style="fill:#404040;fill-opacity:1"
       d="M 11,11.5 Q 11,11 11.5,11 H 12 V 11.5 12 H 11.5 11 v -0.5"
       id="path1514"
       inkscape:connector-curvature="0" />
    <path
       style="fill:#303030;fill-opacity:1"
       d="M 12,11.5 V 11 l 0.375,0.125 q 0.375,0.125 0.5,0.5 Q 13,12 12.5,12 H 12 v -0.5"
       id="path1516"
       inkscape:connector-curvature="0" />
    <path
       style="fill:#404040;fill-opacity:1"
       d="M 9,12.5 Q 9,12 9.5,12 q 0.5,0 1,0 H 11 v 0.5 q 0,0.5 0,1 0,0.5 -0.5,0.5 H 10 V 13.5 Q 10,13 9.5,13 H 9 v -0.5"
       id="path1518"
       inkscape:connector-curvature="0" />
    <path
       style="fill:#303030;fill-opacity:1"
       d="M 11,12.5 V 12 h 0.5 0.5 v 0.5 Q 12,13 12.5,13 13,13 13,13.5 V 14 H 12.5 Q 12,14 12,14.5 V 15 h -0.5 q -0.5,0 -1,0 H 10 V 14.5 14 h 0.5 q 0.5,0 0.5,-0.5 0,-0.5 0,-1"
       id="path1520"
       inkscape:connector-curvature="0" />
    <path
       style="fill:#101010;fill-opacity:1"
       d="M 0,13.5 V 13 H 0.5 1 1.5 Q 2,13 2,13.5 2,14 2.5,14 3,14 3.5,14 H 4 v 0.5 Q 4,15 4.5,15 5,15 5.5,15 H 6 v 0.5 0.5 0.5 q 0,0.5 0,1 0,0.5 0,1 0,0.5 0,1 0,0.5 0,1 0,0.5 0,1 0,0.5 0,1 0,0.5 0,1 V 24 H 5.5 Q 5,24 4.5,24 4,24 4,23.5 V 23 H 3.5 Q 3,23 2.5,23 2,23 2,22.5 2,22 1.5,22 1,22 0.5,22 H 0 V 21.5 21 H 0.5 Q 1,21 1,20.5 1,20 0.5,20 H 0 V 19.5 19 18.5 18 17.5 17 16.5 16 15.5 15 14.5 14 13.5 M 1.5,18 Q 2,18 2,17.5 2,17 1.5,17 1,17 1,17.5 1,18 1.5,18 M 4,22.5 V 23 H 4.5 Q 5,23 5,22.5 5,22 4.5,22 4,22 4,22.5 M 4.5,18 Q 5,18 5,17.5 5,17 4.5,17 4,17 4,17.5 4,18 4.5,18 m -1,3 Q 4,21 4,20.5 4,20 3.5,20 3,20 3,20.5 3,21 3.5,21 m -1,-5 Q 3,16 3,15.5 3,15 2.5,15 2,15 2,15.5 2,16 2.5,16"
       id="path1522"
       inkscape:connector-curvature="0" />
    <path
       style="fill:#404040;fill-opacity:1"
       d="M 4,13.5 Q 4,13 4.5,13 5,13 5,13.5 5,14 4.5,14 H 4 v -0.5"
       id="path1524"
       inkscape:connector-curvature="0" />
    <path
       style="fill:#404040;fill-opacity:1"
       d="M 8,13.5 Q 8,13 8.5,13 H 9 V 13.5 14 H 8.5 8 v -0.5"
       id="path1526"
       inkscape:connector-curvature="0" />
    <path
       style="fill:#303030;fill-opacity:1"
       d="M 9,13.5 V 13 H 9.5 Q 10,13 10,13.5 V 14 H 9.5 9 v -0.5"
       id="path1528"
       inkscape:connector-curvature="0" />
    <path
       style="fill:#303030;fill-opacity:1"
       d="M 20.125,13.625 Q 20.25,13.25 20.5,13 q 0.25,-0.25 0.515625,0.04687 l 0.265625,0.296875 0.04687,-0.04687 L 21.375,13.25 21.28125,13.34375 Q 21.1875,13.4375 21.125,13.625 L 21.0625,13.8125 21.15625,13.53125 21.25,13.25 21.125,13.625 Q 21,14 21.5,14 22,14 21.875,13.625 L 21.75,13.25 21.84375,13.53125 21.9375,13.8125 21.875,13.625 Q 21.8125,13.4375 21.71875,13.34375 L 21.625,13.25 l 0.04687,0.04687 0.04687,0.04687 0.265625,-0.296875 Q 22.25,12.75 22.625,12.875 L 23,13 v 0.5 q 0,0.5 0.5,0.5 0.5,0 1,0 0.5,0 0.625,0.375 0.125,0.375 0.5,0.5 Q 26,15 26.5,15 q 0.5,0 0.625,0.375 0.125,0.375 -0.15625,0.65625 l -0.28125,0.28125 0.0625,0.0625 0.0625,0.0625 -0.125,-0.125 Q 26.5625,16.1875 26.375,16.125 L 26.1875,16.0625 26.46875,16.15625 26.75,16.25 26.375,16.125 Q 26,16 26,16.5 26,17 25.5,17 25,17 25,17.5 25,18 24.5,18 H 24 v 0.5 Q 24,19 23.5,19 23,19 23,19.5 23,20 22.5,20 22,20 22,20.5 22,21 21.5,21 21,21 21,21.5 21,22 20.5,22 20,22 20,22.5 q 0,0.5 0,1 0,0.5 0,1 0,0.5 0,1 0,0.5 0,1 0,0.5 0,1 0,0.5 0,1 0,0.5 0,1 V 30 30.5 31 H 19.5 19 v -0.5 q 0,-0.5 0,-1 0,-0.5 0,-1 V 28 27.5 27 26.5 q 0,-0.5 0,-1 0,-0.5 0,-1 0,-0.5 0,-1 0,-0.5 0,-1 Q 19,22 18.5,22 18,22 18,21.5 18,21 17.5,21 H 17 16.5 16 V 20.5 Q 16,20 15.5,20 15,20 14.5,20 H 14 V 19.5 Q 14,19 14,18.5 14,18 13.5,18 H 13 12.5 Q 12,18 12,17.5 12,17 11.5,17 H 11 10.5 10 V 16.5 16 h 0.5 q 0.5,0 1,0 0.5,0 0.5,-0.5 V 15 h 0.5 Q 13,15 13,14.5 V 14 h 0.5 0.5 0.5 0.5 l 0.125,0.375 q 0.125,0.375 0.5,0.5 L 16,15 15.71875,14.90625 15.4375,14.8125 15.625,14.875 Q 15.8125,14.9375 16,14.9375 H 16.1875 16.09375 16 l 0.125,0.40625 Q 16.25,15.75 16.5,15.75 q 0.25,0 0.5,-0.25 0.25,-0.25 0.5,-0.5 0.25,-0.25 0.5,-0.5 0.25,-0.25 0.5,-0.5 L 18.75,13.75 19,14 q 0.25,0.25 0.625,0.125 Q 20,14 20.125,13.625 M 18.8125,13.6875 18.75,13.75 18.5625,13.9375 18.375,14.125 18.5,14 q 0.125,-0.125 0.25,-0.25 l 0.125,-0.125 -0.0625,0.0625 M 16.5,19 q 0.5,0 0.5,-0.5 0,-0.5 0,-1 V 17 H 16.5 Q 16,17 16,17.5 16,18 15.5,18 15,18 15,18.5 q 0,0.5 0.5,0.5 0.5,0 1,0 M 17.125,16.625 17,17 h 0.5 Q 18,17 18,16.5 V 16 l -0.375,0.125 q -0.375,0.125 -0.5,0.5 m 1,-1 L 18,16 h 0.5 q 0.5,0 0.5,-0.5 0,-0.5 -0.375,-0.375 -0.375,0.125 -0.5,0.5 M 18.5,20 Q 19,20 19,19.5 19,19 18.5,19 18,19 18,19.5 18,20 18.5,20 m 2,-1 Q 21,19 21,18.5 21,18 20.5,18 20,18 20,18.5 20,19 20.5,19 m 0,-3 Q 21,16 21,15.5 21,15 20.5,15 20,15 20,15.5 20,16 20.5,16 m 3,2 H 24 V 17.5 Q 24,17 23.5,17 23,17 23,17.5 23,18 23.5,18 m -1,-2 Q 23,16 23,15.5 23,15 22.5,15 22,15 22,15.5 22,16 22.5,16 m 2,0 q 0.5,0 0.375,-0.375 -0.125,-0.375 -0.5,-0.5 Q 24,15 24,15.5 24,16 24.5,16"
       id="path1530"
       inkscape:connector-curvature="0" />
    <path
       style="fill:#404040;fill-opacity:1"
       d="M 21.125,13.625 Q 21.25,13.25 21.5,13.25 q 0.25,0 0.375,0.375 Q 22,14 21.5,14 21,14 21.125,13.625"
       id="path1532"
       inkscape:connector-curvature="0" />
    <path
       style="fill:#000000;fill-opacity:1"
       d="M 23,13.5 V 13 h 0.5 q 0.5,0 1,0 0.5,0 1,0 0.5,0 0.5,0.5 0,0.5 0.5,0.5 0.5,0 1,0 0.5,0 0.5,0.5 0,0.5 0.5,0.5 0.5,0 0.5,0.5 0,0.5 0.5,0.5 0.5,0 0.5,0.5 0,0.5 0,1 0,0.5 0,1 0,0.5 0,1 0,0.5 -0.5,0.5 -0.5,0 -0.5,0.5 0,0.5 0,1 0,0.5 -0.5,0.5 -0.5,0 -0.5,0.5 0,0.5 0,1 0,0.5 -0.375,0.625 -0.375,0.125 -0.5,0.5 -0.125,0.375 -0.5,0.5 -0.375,0.125 -0.5,0.5 -0.125,0.375 -0.5,0.5 -0.375,0.125 -0.5,0.5 -0.125,0.375 -0.5,0.5 -0.375,0.125 -0.5,0.5 -0.125,0.375 -0.5,0.5 -0.375,0.125 -0.5,0.5 -0.125,0.375 -0.5,0.5 -0.375,0.125 -0.5,0.5 -0.125,0.375 -0.5,0.5 -0.375,0.125 -0.5,0.5 Q 21,31 20.5,31 H 20 V 30.5 30 l 0.375,-0.125 Q 20.75,29.75 21,29.5 21.25,29.25 21.5,29 21.75,28.75 22,28.5 22.25,28.25 22.5,28 22.75,27.75 23,27.5 23.25,27.25 23.5,27 23.75,26.75 24,26.5 24.25,26.25 24.5,26 24.75,25.75 25,25.5 25.25,25.25 25.5,25 25.75,24.75 26,24.5 26.25,24.25 26.5,24 26.75,23.75 26.875,23.375 27,23 27,22.5 q 0,-0.5 0,-1 0,-0.5 0,-1 0,-0.5 0,-1 0,-0.5 0,-1 0,-0.5 0,-1 0,-0.5 -0.125,-0.875 L 26.75,16.25 26.84375,16.53125 26.9375,16.8125 26.875,16.625 q -0.0625,-0.1875 -0.1875,-0.3125 l -0.125,-0.125 0.0625,0.0625 0.0625,0.0625 0.28125,-0.28125 Q 27.25,15.75 27.125,15.375 27,15 26.5,15 26,15 25.625,14.875 25.25,14.75 25.125,14.375 25,14 24.5,14 24,14 23.5,14 23,14 23,13.5"
       id="path1534"
       inkscape:connector-curvature="0" />
    <path
       style="fill:#404040;fill-opacity:1"
       d="M 7,14.5 Q 7,14 7.5,14 H 8 v 0.5 Q 8,15 8.5,15 H 9 V 15.5 16 H 8.5 8 7.5 Q 7,16 6.5,16 H 6 V 15.5 15 H 6.5 Q 7,15 7,14.5"
       id="path1536"
       inkscape:connector-curvature="0" />
    <path
       style="fill:#303030;fill-opacity:1"
       d="M 8,14.5 V 14 H 8.5 9 V 14.5 15 H 8.5 Q 8,15 8,14.5"
       id="path1538"
       inkscape:connector-curvature="0" />
    <path
       style="fill:#404040;fill-opacity:1"
       d="M 9,14.5 V 14 H 9.5 10 V 14.5 15 H 9.5 9 v -0.5"
       id="path1540"
       inkscape:connector-curvature="0" />
    <path
       style="fill:#404040;fill-opacity:1"
       d="M 12,14.5 Q 12,14 12.5,14 H 13 v 0.5 Q 13,15 12.5,15 H 12 v -0.5"
       id="path1542"
       inkscape:connector-curvature="0" />
    <path
       style="fill:#202020;fill-opacity:1"
       d="M 2,15.5 Q 2,15 2.5,15 3,15 3,15.5 3,16 2.5,16 2,16 2,15.5"
       id="path1544"
       inkscape:connector-curvature="0" />
    <path
       style="fill:#303030;fill-opacity:1"
       d="M 9,15.5 V 15 H 9.5 10 V 15.5 16 H 9.5 9 v -0.5"
       id="path1546"
       inkscape:connector-curvature="0" />
    <path
       style="fill:#404040;fill-opacity:1"
       d="M 10,15.5 V 15 h 0.5 q 0.5,0 1,0 H 12 v 0.5 q 0,0.5 -0.5,0.5 -0.5,0 -1,0 H 10 v -0.5"
       id="path1548"
       inkscape:connector-curvature="0" />
    <path
       style="fill:#404040;fill-opacity:1"
       d="m 18.125,15.625 q 0.125,-0.375 0.5,-0.5 Q 19,15 19,15.5 19,16 18.5,16 H 18 l 0.125,-0.375"
       id="path1550"
       inkscape:connector-curvature="0" />
    <path
       style="fill:#404040;fill-opacity:1"
       d="M 20,15.5 Q 20,15 20.5,15 21,15 21,15.5 21,16 20.5,16 20,16 20,15.5"
       id="path1552"
       inkscape:connector-curvature="0" />
    <path
       style="fill:#404040;fill-opacity:1"
       d="M 22,15.5 Q 22,15 22.5,15 23,15 23,15.5 23,16 22.5,16 22,16 22,15.5"
       id="path1554"
       inkscape:connector-curvature="0" />
    <path
       style="fill:#404040;fill-opacity:1"
       d="m 24,15.5 q 0,-0.5 0.375,-0.375 0.375,0.125 0.5,0.5 Q 25,16 24.5,16 24,16 24,15.5"
       id="path1556"
       inkscape:connector-curvature="0" />
    <path
       style="fill:#202020;fill-opacity:1"
       d="M 6,16.5 V 16 h 0.5 q 0.5,0 1,0 H 8 V 16.5 17 H 8.5 9 9.5 10 v 0.5 0.5 0.5 q 0,0.5 0.5,0.5 0.5,0 0.5,0.5 0,0.5 0,1 V 21 H 10.5 Q 10,21 10,21.5 10,22 9.5,22 9,22 9,22.5 9,23 8.5,23 8,23 7.5,23 7,23 7,23.5 7,24 6.5,24 H 6 V 23.5 Q 6,23 6,22.5 6,22 6,21.5 6,21 6,20.5 6,20 6,19.5 6,19 6,18.5 6,18 6,17.5 6,17 6,16.5 M 7.5,21 Q 8,21 8,20.5 V 20 H 7.5 Q 7,20 7,20.5 7,21 7.5,21 M 8,19.5 V 20 H 8.5 Q 9,20 9,19.5 9,19 8.5,19 8,19 8,19.5 m 0,-2 V 17 H 7.5 Q 7,17 7,17.5 7,18 7.5,18 8,18 8,17.5"
       id="path1558"
       inkscape:connector-curvature="0" />
    <path
       style="fill:#303030;fill-opacity:1"
       d="M 8,16.5 V 16 H 8.5 9 V 16.5 17 H 8.5 8 v -0.5"
       id="path1560"
       inkscape:connector-curvature="0" />
    <path
       style="fill:#404040;fill-opacity:1"
       d="M 9,16.5 V 16 H 9.5 10 V 16.5 17 H 9.5 9 v -0.5"
       id="path1562"
       inkscape:connector-curvature="0" />
    <path
       style="fill:#404040;fill-opacity:1"
       d="m 17.125,16.625 q 0.125,-0.375 0.5,-0.5 L 18,16 v 0.5 Q 18,17 17.5,17 H 17 l 0.125,-0.375"
       id="path1564"
       inkscape:connector-curvature="0" />
    <path
       style="fill:#404040;fill-opacity:1"
       d="m 26,16.5 q 0,-0.5 0.375,-0.375 0.375,0.125 0.5,0.5 Q 27,17 27,17.5 q 0,0.5 0,1 0,0.5 0,1 0,0.5 0,1 0,0.5 0,1 0,0.5 0,1 0,0.5 -0.125,0.875 Q 26.75,23.75 26.5,24 26.25,24.25 26,24.5 25.75,24.75 25.5,25 25.25,25.25 25,25.5 24.75,25.75 24.5,26 24.25,26.25 24,26.5 23.75,26.75 23.5,27 23.25,27.25 23,27.5 22.75,27.75 22.5,28 22.25,28.25 22,28.5 21.75,28.75 21.5,29 21.25,29.25 21,29.5 20.75,29.75 20.375,29.875 L 20,30 v -0.5 q 0,-0.5 0,-1 0,-0.5 0,-1 0,-0.5 0,-1 0,-0.5 0,-1 0,-0.5 0,-1 0,-0.5 0,-1 0,-0.5 0,-1 Q 20,22 20.5,22 21,22 21,21.5 21,21 21.5,21 22,21 22,20.5 22,20 22.5,20 23,20 23,19.5 23,19 23.5,19 24,19 24,18.5 V 18 h 0.5 Q 25,18 25,17.5 25,17 25.5,17 26,17 26,16.5 m -2.625,9.375 q -0.375,0.125 0,0 0.375,-0.125 0,0 M 24,24.5 q 0,0.5 0.375,0.375 0.375,-0.125 0.5,-0.5 Q 25,24 24.5,24 24,24 24,24.5 M 25.5,23 Q 26,23 26,22.5 26,22 25.5,22 25,22 25,22.5 25,23 25.5,23 m 0,-3 Q 26,20 26,19.5 26,19 25.5,19 25,19 25,19.5 25,20 25.5,20 m -2,3 Q 24,23 24,22.5 24,22 23.5,22 23,22 23,22.5 23,23 23.5,23 m -1,3 Q 23,26 23,25.5 23,25 22.5,25 22,25 22,25.5 22,26 22.5,26 m -1,-2 Q 22,24 22,23.5 22,23 21.5,23 21,23 21,23.5 21,24 21.5,24"
       id="path1566"
       inkscape:connector-curvature="0" />
    <path
       style="fill:#202020;fill-opacity:1"
       d="M 1,17.5 Q 1,17 1.5,17 2,17 2,17.5 2,18 1.5,18 1,18 1,17.5"
       id="path1568"
       inkscape:connector-curvature="0" />
    <path
       style="fill:#202020;fill-opacity:1"
       d="M 4,17.5 Q 4,17 4.5,17 5,17 5,17.5 5,18 4.5,18 4,18 4,17.5"
       id="path1570"
       inkscape:connector-curvature="0" />
    <path
       style="fill:#101010;fill-opacity:1"
       d="M 7,17.5 Q 7,17 7.5,17 H 8 v 0.5 Q 8,18 7.5,18 7,18 7,17.5"
       id="path1572"
       inkscape:connector-curvature="0" />
    <path
       style="fill:#404040;fill-opacity:1"
       d="M 10,17.5 V 17 h 0.5 0.5 v 0.5 Q 11,18 10.5,18 H 10 v -0.5"
       id="path1574"
       inkscape:connector-curvature="0" />
    <path
       style="fill:#101010;fill-opacity:1"
       d="M 11,17.5 V 17 h 0.5 Q 12,17 12,17.5 12,18 12.5,18 H 13 v 0.5 Q 13,19 12.5,19 12,19 12,19.5 12,20 12.5,20 13,20 13,20.5 13,21 13,21.5 13,22 12.5,22 12,22 12,21.5 12,21 11.5,21 H 11 V 20.5 Q 11,20 11,19.5 11,19 10.5,19 10,19 10,18.5 V 18 h 0.5 Q 11,18 11,17.5"
       id="path1576"
       inkscape:connector-curvature="0" />
    <path
       style="fill:#404040;fill-opacity:1"
       d="M 16,17.5 Q 16,17 16.5,17 H 17 v 0.5 q 0,0.5 0,1 0,0.5 -0.5,0.5 -0.5,0 -1,0 Q 15,19 15,18.5 15,18 15.5,18 16,18 16,17.5"
       id="path1578"
       inkscape:connector-curvature="0" />
    <path
       style="fill:#404040;fill-opacity:1"
       d="M 23,17.5 Q 23,17 23.5,17 24,17 24,17.5 V 18 H 23.5 Q 23,18 23,17.5"
       id="path1580"
       inkscape:connector-curvature="0" />
    <path
       style="fill:#000000;fill-opacity:1"
       d="M 13,18.5 V 18 h 0.5 q 0.5,0 0.5,0.5 0,0.5 0,1 v 0.5 0.5 q 0,0.5 0,1 0,0.5 0,1 0,0.5 0,1 0,0.5 0,1 0,0.5 0,1 0,0.5 0,1 0,0.5 0,1 0,0.5 0,1 V 29 H 13.5 Q 13,29 13,28.5 13,28 13,27.5 13,27 12.5,27 12,27 12,26.5 12,26 11.5,26 11,26 10.5,26 10,26 10,25.5 10,25 9.5,25 9,25 8.5,25 8,25 7.5,25 7,25 6.5,25 6,25 5.5,25 5,25 4.5,25 4,25 3.5,25 3,25 3,24.5 3,24 2.5,24 2,24 1.5,24 1,24 1,23.5 1,23 0.5,23 H 0 V 22.5 22 H 0.5 Q 1,22 1.5,22 2,22 2,22.5 2,23 2.5,23 3,23 3.5,23 H 4 v 0.5 Q 4,24 4.5,24 5,24 5.5,24 H 6 6.5 Q 7,24 7,23.5 7,23 7.5,23 8,23 8.5,23 9,23 9,22.5 9,22 9.5,22 10,22 10,21.5 10,21 10.5,21 H 11 11.5 Q 12,21 12,21.5 12,22 12.5,22 13,22 13,21.5 13,21 13,20.5 13,20 12.5,20 12,20 12,19.5 12,19 12.5,19 13,19 13,18.5"
       id="path1582"
       inkscape:connector-curvature="0" />
    <path
       style="fill:#404040;fill-opacity:1"
       d="M 20,18.5 Q 20,18 20.5,18 21,18 21,18.5 21,19 20.5,19 20,19 20,18.5"
       id="path1584"
       inkscape:connector-curvature="0" />
    <path
       style="fill:#101010;fill-opacity:1"
       d="M 8,19.5 Q 8,19 8.5,19 9,19 9,19.5 9,20 8.5,20 H 8 v -0.5"
       id="path1586"
       inkscape:connector-curvature="0" />
    <path
       style="fill:#404040;fill-opacity:1"
       d="M 18,19.5 Q 18,19 18.5,19 19,19 19,19.5 19,20 18.5,20 18,20 18,19.5"
       id="path1588"
       inkscape:connector-curvature="0" />
    <path
       style="fill:#303030;fill-opacity:1"
       d="M 25,19.5 Q 25,19 25.5,19 26,19 26,19.5 26,20 25.5,20 25,20 25,19.5"
       id="path1590"
       inkscape:connector-curvature="0" />
    <path
       style="fill:#202020;fill-opacity:1"
       d="M 0,20.5 V 20 H 0.5 Q 1,20 1,20.5 1,21 0.5,21 H 0 v -0.5"
       id="path1592"
       inkscape:connector-curvature="0" />
    <path
       style="fill:#202020;fill-opacity:1"
       d="M 3,20.5 Q 3,20 3.5,20 4,20 4,20.5 4,21 3.5,21 3,21 3,20.5"
       id="path1594"
       inkscape:connector-curvature="0" />
    <path
       style="fill:#101010;fill-opacity:1"
       d="M 7,20.5 Q 7,20 7.5,20 H 8 v 0.5 Q 8,21 7.5,21 7,21 7,20.5"
       id="path1596"
       inkscape:connector-curvature="0" />
    <path
       style="fill:#101010;fill-opacity:1"
       d="M 14,20.5 V 20 h 0.5 q 0.5,0 1,0 0.5,0 0.5,0.5 V 21 21.5 Q 16,22 16.5,22 17,22 17,21.5 V 21 h 0.5 q 0.5,0 0.5,0.5 0,0.5 0.5,0.5 0.5,0 0.5,0.5 0,0.5 0,1 0,0.5 0,1 0,0.5 0,1 0,0.5 0,1 V 27 H 18.5 Q 18,27 18,27.5 18,28 18.5,28 H 19 v 0.5 q 0,0.5 0,1 0,0.5 0,1 V 31 H 18.5 18 V 30.5 Q 18,30 17.5,30 17,30 16.5,30 H 16 V 29.5 29 h -0.5 q -0.5,0 -1,0 H 14 v -0.5 q 0,-0.5 0,-1 0,-0.5 0,-1 0,-0.5 0,-1 0,-0.5 0,-1 0,-0.5 0,-1 0,-0.5 0,-1 0,-0.5 0,-1 0,-0.5 0,-1 m 2,8 V 29 h 0.5 Q 17,29 17,28.5 17,28 16.5,28 16,28 16,28.5 M 15.5,27 Q 16,27 16,26.5 16,26 15.5,26 15,26 15,26.5 15,27 15.5,27 m 0,-3 Q 16,24 16,23.5 16,23 15.5,23 15,23 15,23.5 15,24 15.5,24 m 2,1 Q 18,25 18,24.5 18,24 17.5,24 17,24 17,24.5 17,25 17.5,25"
       id="path1598"
       inkscape:connector-curvature="0" />
    <path
       style="fill:#202020;fill-opacity:1"
       d="M 16,21.5 V 21 h 0.5 0.5 v 0.5 Q 17,22 16.5,22 16,22 16,21.5"
       id="path1600"
       inkscape:connector-curvature="0" />
    <path
       style="fill:#202020;fill-opacity:1"
       d="M 4,22.5 Q 4,22 4.5,22 5,22 5,22.5 5,23 4.5,23 H 4 v -0.5"
       id="path1602"
       inkscape:connector-curvature="0" />
    <path
       style="fill:#303030;fill-opacity:1"
       d="M 23,22.5 Q 23,22 23.5,22 24,22 24,22.5 24,23 23.5,23 23,23 23,22.5"
       id="path1604"
       inkscape:connector-curvature="0" />
    <path
       style="fill:#303030;fill-opacity:1"
       d="M 25,22.5 Q 25,22 25.5,22 26,22 26,22.5 26,23 25.5,23 25,23 25,22.5"
       id="path1606"
       inkscape:connector-curvature="0" />
    <path
       style="fill:#202020;fill-opacity:1"
       d="M 15,23.5 Q 15,23 15.5,23 16,23 16,23.5 16,24 15.5,24 15,24 15,23.5"
       id="path1608"
       inkscape:connector-curvature="0" />
    <path
       style="fill:#303030;fill-opacity:1"
       d="M 21,23.5 Q 21,23 21.5,23 22,23 22,23.5 22,24 21.5,24 21,24 21,23.5"
       id="path1610"
       inkscape:connector-curvature="0" />
    <path
       style="fill:#202020;fill-opacity:1"
       d="M 17,24.5 Q 17,24 17.5,24 18,24 18,24.5 18,25 17.5,25 17,25 17,24.5"
       id="path1612"
       inkscape:connector-curvature="0" />
    <path
       style="fill:#303030;fill-opacity:1"
       d="m 24,24.5 q 0,-0.5 0.5,-0.5 0.5,0 0.375,0.375 -0.125,0.375 -0.5,0.5 Q 24,25 24,24.5"
       id="path1614"
       inkscape:connector-curvature="0" />
    <path
       style="fill:#303030;fill-opacity:1"
       d="M 22,25.5 Q 22,25 22.5,25 23,25 23,25.5 23,26 22.5,26 22,26 22,25.5"
       id="path1616"
       inkscape:connector-curvature="0" />
    <path
       style="fill:#202020;fill-opacity:1"
       d="M 15,26.5 Q 15,26 15.5,26 16,26 16,26.5 16,27 15.5,27 15,27 15,26.5"
       id="path1618"
       inkscape:connector-curvature="0" />
    <path
       style="fill:#202020;fill-opacity:1"
       d="M 18,27.5 Q 18,27 18.5,27 H 19 V 27.5 28 H 18.5 Q 18,28 18,27.5"
       id="path1620"
       inkscape:connector-curvature="0" />
    <path
       style="fill:#202020;fill-opacity:1"
       d="M 16,28.5 Q 16,28 16.5,28 17,28 17,28.5 17,29 16.5,29 H 16 v -0.5"
       id="path1622"
       inkscape:connector-curvature="0" />
    <path
       style="fill:#000000;fill-opacity:1"
       d="M 14,29.5 V 29 h 0.5 q 0.5,0 1,0 H 16 V 29.5 30 H 15.5 Q 15,30 14.5,30 14,30 14,29.5"
       id="path1624"
       inkscape:connector-curvature="0" />
    <path
       style="fill:#000000;fill-opacity:1"
       d="M 16,30.5 V 30 h 0.5 q 0.5,0 1,0 0.5,0 0.5,0.5 V 31 H 17.5 Q 17,31 16.5,31 16,31 16,30.5"
       id="path1626"
       inkscape:connector-curvature="0" />
  </g>
</svg>
