<?xml version="1.0" encoding="UTF-8" standalone="no"?>
<!-- Created with Inkscape (http://www.inkscape.org/) -->

<svg
   xmlns:dc="http://purl.org/dc/elements/1.1/"
   xmlns:cc="http://creativecommons.org/ns#"
   xmlns:rdf="http://www.w3.org/1999/02/22-rdf-syntax-ns#"
   xmlns:svg="http://www.w3.org/2000/svg"
   xmlns="http://www.w3.org/2000/svg"
   xmlns:sodipodi="http://sodipodi.sourceforge.net/DTD/sodipodi-0.dtd"
   xmlns:inkscape="http://www.inkscape.org/namespaces/inkscape"
   version="1.1"
   id="svg64"
   width="32"
   height="32"
   viewBox="0 0 32 32"
   sodipodi:docname="human.svg"
   inkscape:version="0.92.5 (2060ec1f9f, 2020-04-08)">
  <metadata
     id="metadata70">
    <rdf:RDF>
      <cc:Work
         rdf:about="">
        <dc:format>image/svg+xml</dc:format>
        <dc:type
           rdf:resource="http://purl.org/dc/dcmitype/StillImage" />
        <dc:title></dc:title>
      </cc:Work>
    </rdf:RDF>
  </metadata>
  <defs
     id="defs68" />
  <sodipodi:namedview
     pagecolor="#ffffff"
     bordercolor="#666666"
     borderopacity="1"
     objecttolerance="10"
     gridtolerance="10"
     guidetolerance="10"
     inkscape:pageopacity="0"
     inkscape:pageshadow="2"
     inkscape:window-width="1920"
     inkscape:window-height="1118"
     id="namedview66"
     showgrid="false"
     inkscape:zoom="5.267578"
     inkscape:cx="-35.975795"
     inkscape:cy="17.164039"
     inkscape:window-x="0"
     inkscape:window-y="24"
     inkscape:window-maximized="1"
     inkscape:current-layer="svg64" />
  <g
     id="g260"
     style="display:inline">
    <path
       style="fill:#000000;fill-opacity:0"
       d="M 0,0.5 V 0 H 0.5 1 1.5 2 2.5 3 3.5 4 4.5 5 5.5 6 6.5 7 7.5 8 8.5 9 9.5 10 10.5 11 11.5 12 12.5 13 13.5 14 14.5 15 15.5 16 16.5 17 17.5 18 18.5 19 19.5 20 20.5 21 21.5 22 22.5 23 23.5 24 24.5 25 25.5 26 26.5 27 27.5 28 28.5 29 29.5 30 30.5 31 31.5 32 V 0.5 1 1.5 2 2.5 3 3.5 4 4.5 5 5.5 6 6.5 7 7.5 8 8.5 9 9.5 10 10.5 11 11.5 12 12.5 13 13.5 14 14.5 15 15.5 16 16.5 17 17.5 18 18.5 19 19.5 20 20.5 21 21.5 22 22.5 23 23.5 24 24.5 25 25.5 26 26.5 27 27.5 28 28.5 29 29.5 30 30.5 31 31.5 32 H 31.5 31 30.5 30 29.5 29 28.5 28 27.5 27 26.5 26 25.5 25 24.5 24 23.5 23 22.5 22 21.5 21 20.5 20 19.5 19 18.5 18 17.5 17 16.5 16 15.5 15 14.5 14 13.5 13 12.5 12 l 0.125,-0.375 q 0.125,-0.375 0.5,-0.5 Q 13,31 13.5,31 q 0.5,0 1,0 0.5,0 0.5,-0.5 0,-0.5 0.5,-0.5 0.5,0 1,0 0.5,0 0.5,-0.5 0,-0.5 0.5,-0.5 0.5,0 1,0 0.5,0 0.875,0.125 0.375,0.125 0.5,0.5 0.125,0.375 0.5,0.5 0.375,0.125 0.5,0.5 Q 21,31 21.5,31 q 0.5,0 1,0 0.5,0 1,0 0.5,0 1,0 0.5,0 0.5,-0.5 0,-0.5 0.5,-0.5 0.5,0 1,0 Q 27,30 27,29.5 27,29 27.5,29 28,29 28,28.5 28,28 28.5,28 q 0.5,0 1,0 0.5,0 0.5,-0.5 0,-0.5 0,-1 Q 30,26 30.5,26 31,26 31,25.5 31,25 31,24.5 31,24 30.5,24 30,24 30,23.5 30,23 29.5,23 29,23 28.5,23 28,23 28,22.5 28,22 27.5,22 27,22 26.5,22 26,22 25.5,22 25,22 25,21.5 25,21 25,20.5 25,20 24.625,19.875 24.25,19.75 24.125,19.375 24,19 24,18.5 24,18 24,17.5 V 17 h 0.5 q 0.5,0 0.875,-0.125 L 25.75,16.75 25.46875,16.84375 25.1875,16.9375 25.375,16.875 q 0.1875,-0.0625 0.34375,-0.15625 L 25.875,16.625 l -0.07813,0.04687 -0.07813,0.04687 0.265625,0.265625 Q 26.25,17.25 26.625,17.125 27,17 27.5,17 q 0.5,0 1,0 0.5,0 0.625,-0.375 0.125,-0.375 0.5,-0.5 0.375,-0.125 0.5,-0.5 0.125,-0.375 0.5,-0.5 Q 31,15 31,14.5 31,14 30.625,13.875 30.25,13.75 30.125,13.375 30,13 29.5,13 29,13 28.875,13.375 28.75,13.75 28.375,13.875 28,14 27.5,14 q -0.5,0 -1,0 -0.5,0 -0.625,0.375 -0.125,0.375 -0.5,0.5 Q 25,15 24.5,15 24,15 23.5,15 23,15 23,14.5 23,14 23,13.5 23,13 22.625,12.875 22.25,12.75 22.125,12.375 22,12 22,11.5 22,11 22,10.5 22,10 22,9.5 22,9 22,8.5 22,8 22,7.5 22,7 22,6.5 22,6 21.625,5.875 21.25,5.75 21.125,5.375 21,5 20.625,4.875 20.25,4.75 20.125,4.375 20,4 19.5,4 19,4 19,3.5 19,3 18.625,2.875 18.25,2.75 18.125,2.375 18,2 17.625,1.875 17.25,1.75 17.125,1.375 17,1 16.5,1 16,1 15.5,1 15,1 14.5,1 14,1 13.875,1.375 13.75,1.75 13.375,1.875 13,2 12.875,2.375 12.75,2.75 12.375,2.875 12,3 12,3.5 12,4 11.625,3.875 11.25,3.75 11.125,3.375 11,3 10.625,2.875 10.25,2.75 10.125,2.375 10,2 9.5,2 9,2 8.5,2 8,2 7.875,2.375 7.75,2.75 7.375,2.875 7,3 6.875,3.375 6.75,3.75 6.375,3.875 6,4 5.875,4.375 5.75,4.75 5.375,4.875 5,5 5,5.5 5,6 5.375,6.125 5.75,6.25 5.875,6.625 6,7 6.375,7.125 6.75,7.25 6.875,7.625 7,8 7.5,8 8,8 8.375,8.125 8.75,8.25 8.875,8.625 9,9 9,9.5 q 0,0.5 0,1 0,0.5 0,1 0,0.5 0,1 V 13 H 8.5 Q 8,13 7.625,12.875 7.25,12.75 7.125,12.375 7,12 6.5,12 6,12 5.625,11.875 5.25,11.75 5.125,11.375 5,11 4.5,11 4,11 3.875,11.375 3.75,11.75 3.375,11.875 3,12 3,12.5 q 0,0.5 0.375,0.625 0.375,0.125 0.5,0.5 0.125,0.375 0.5,0.5 0.375,0.125 0.5,0.5 Q 5,15 5.5,15 6,15 6.375,15.125 6.75,15.25 6.875,15.625 7,16 7.5,16 8,16 8.375,16.125 8.75,16.25 8.875,16.625 9,17 9.5,17 q 0.5,0 0.5,0.5 0,0.5 0,1 0,0.5 0,1 0,0.5 0,1 0,0.5 0,1 0,0.5 0,1 0,0.5 0.375,0.625 0.375,0.125 0.5,0.5 Q 11,24 11,24.5 q 0,0.5 0,1 0,0.5 -0.125,0.875 -0.125,0.375 -0.5,0.5 Q 10,27 10,27.5 10,28 9.875,28.375 9.75,28.75 9.375,28.875 9,29 8.875,29.375 8.75,29.75 8.375,29.875 8,30 8,30.5 q 0,0.5 0.375,0.625 0.375,0.125 0.5,0.5 L 9,32 H 8.5 8 7.5 7 6.5 6 5.5 5 4.5 4 3.5 3 2.5 2 1.5 1 0.5 0 V 31.5 31 30.5 30 29.5 29 28.5 28 27.5 27 26.5 26 25.5 25 24.5 24 23.5 23 22.5 22 21.5 21 20.5 20 19.5 19 18.5 18 17.5 17 16.5 16 15.5 15 14.5 14 13.5 13 12.5 12 11.5 11 10.5 10 9.5 9 8.5 8 7.5 7 6.5 6 5.5 5 4.5 4 3.5 3 2.5 2 1.5 1 0.5"
       id="path74"
       inkscape:connector-curvature="0" />
    <path
       style="fill:#000000;fill-opacity:1"
       d="M 13.875,1.375 Q 14,1 14.5,1 q 0.5,0 1,0 0.5,0 1,0 0.5,0 0.625,0.375 0.125,0.375 0.5,0.5 0.375,0.125 0.5,0.5 0.125,0.375 0.5,0.5 Q 19,3 19,3.5 19,4 19.5,4 q 0.5,0 0.625,0.375 0.125,0.375 0.5,0.5 0.375,0.125 0.5,0.5 0.125,0.375 0.5,0.5 Q 22,6 22,6.5 q 0,0.5 0,1 0,0.5 0,1 0,0.5 0,1 0,0.5 0,1 0,0.5 0,1 0,0.5 0.125,0.875 0.125,0.375 0.5,0.5 Q 23,13 23,13.5 q 0,0.5 0,1 0,0.5 0.5,0.5 0.5,0 1,0 0.5,0 0.875,-0.125 0.375,-0.125 0.5,-0.5 Q 26,14 26.5,14 q 0.5,0 1,0 0.5,0 0.875,-0.125 0.375,-0.125 0.5,-0.5 Q 29,13 29.5,13 q 0.5,0 0.625,0.375 0.125,0.375 0.5,0.5 Q 31,14 31,14.5 q 0,0.5 -0.375,0.625 -0.375,0.125 -0.5,0.5 -0.125,0.375 -0.5,0.5 -0.375,0.125 -0.5,0.5 Q 29,17 28.5,17 28,17 27.5,17 27,17 26.625,17.125 26.25,17.25 25.984375,16.984375 l -0.265625,-0.265625 -0.07813,0.04687 -0.07813,0.04687 0.15625,-0.09375 Q 25.875,16.625 26,16.5 L 26.125,16.375 25.9375,16.5625 25.75,16.75 26,16.5 Q 26.25,16.25 26.625,16.125 27,16 27.5625,15.9375 L 28.125,15.875 28.0625,15.8125 28,15.75 28.125,15.875 Q 28.25,16 28.5,16 H 28.75 28.375 28 l 0.375,-0.125 Q 28.75,15.75 29,15.5 q 0.25,-0.25 0.5,-0.5 0.25,-0.25 0.25,-0.5 0,-0.25 -0.25,-0.25 -0.25,0 -0.5,0.25 -0.25,0.25 -0.625,0.375 L 28,15 28.28125,14.90625 28.5625,14.8125 28.375,14.875 q -0.1875,0.0625 -0.28125,0.21875 L 28,15.25 28.04687,15.17187 28.09374,15.09374 27.546865,15.04687 Q 27,15 26.625,15.125 26.25,15.25 26,15.5 25.75,15.75 25.375,15.875 25,16 24.5,16 q -0.5,0 -1,0 -0.5,0 -1,0 H 22 22.375 22.75 22.5 q -0.25,0 -0.46875,0.03125 L 21.8125,16.0625 21.921875,16.04687 22.03125,16.03124 22.01562,15.515615 Q 22,15 22,14.5 22,14 21.875,13.625 21.75,13.25 21.375,13.125 L 21,13 v -0.5 q 0,-0.5 0,-1 0,-0.5 0,-1 0,-0.5 0,-1 Q 21,9 21,8.5 21,8 21,7.5 21,7 20.875,6.625 20.75,6.25 20.375,6.125 L 20,6 19.875,5.625 Q 19.75,5.25 19.375,5.125 19,5 18.5,5 H 18 V 4.5 Q 18,4 17.875,3.625 17.75,3.25 17.375,3.125 L 17,3 17.28125,3.09375 17.5625,3.1875 17.375,3.125 Q 17.1875,3.0625 17,3.0625 H 16.8125 16.90625 17 L 16.875,2.65625 Q 16.75,2.25 16.375,2.125 16,2 15.5,2 15,2 14.625,2.125 14.25,2.25 14,2.5 13.75,2.75 13.5,3 13.25,3.25 13.125,3.625 13,4 13,4.5 V 5 H 12.5 Q 12,5 11.5,5 H 11 L 10.875,4.625 Q 10.75,4.25 10.5,4 10.25,3.75 10,3.5 9.75,3.25 9.375,3.125 9,3 8.625,3.125 8.25,3.25 8.125,3.625 L 8,4 7.625,4.125 Q 7.25,4.25 7,4.5 6.75,4.75 6.5,5 6.25,5.25 6.25,5.5 6.25,5.75 6.5,6 6.75,6.25 7,6.5 7.25,6.75 7.625,6.875 8,7 8.5,7 H 9 8.625 8.25 8.5 Q 8.75,7 8.96875,6.96875 L 9.1875,6.9375 9.078125,6.953125 8.96875,6.96875 9.109375,7.359375 Q 9.25,7.75 9.625,7.875 L 10,8 v 0.5 q 0,0.5 0,1 0,0.5 0,1 0,0.5 0,1 0,0.5 0.125,0.875 0.125,0.375 0.5,0.5 L 11,13 11.125,13.375 Q 11.25,13.75 11.5,14 q 0.25,0.25 0.375,0.625 L 12,15 11.90625,14.71875 11.8125,14.4375 11.875,14.625 q 0.0625,0.1875 0.21875,0.28125 L 12.25,15 12.171875,14.953125 12.09375,14.90625 12.046875,15.453125 12,16 11.625,15.875 Q 11.25,15.75 11,15.5 10.75,15.25 10.375,15.125 10,15 9.625,15.125 9.25,15.25 9.25,15.5 q 0,0.25 0.375,0.375 0.375,0.125 0.75,0.25 0.375,0.125 0.5,0.5 Q 11,17 11,17.5 q 0,0.5 0,1 0,0.5 0,1 0,0.5 0,1 0,0.5 0,1 0,0.5 0.125,0.875 0.125,0.375 0.5,0.5 L 12,23 v 0.5 q 0,0.5 0,1 0,0.5 0,1 0,0.5 0,1.03125 V 27.0625 H 12.09375 12.1875 12 q -0.1875,0 -0.375,0.0625 L 11.4375,27.1875 11.71875,27.09375 12,27 11.625,27.125 q -0.375,0.125 -0.5,0.5 Q 11,28 11.015625,28.515625 L 11.031255,29.03125 11.14063,29.01562 11.25,29 11.03125,29.03125 Q 10.8125,29.0625 10.625,29.125 L 10.4375,29.1875 10.71875,29.09375 11,29 10.625,29.125 Q 10.25,29.25 10,29.5 9.75,29.75 9.5,30 q -0.25,0.25 -0.25,0.5 0,0.25 0.375,0.375 Q 10,31 10.5,31 11,31 11.375,30.875 11.75,30.75 12,30.5 12.25,30.25 12.5,30 12.75,29.75 12.875,29.375 13,29 13.125,28.625 13.25,28.25 13.5,28 13.75,27.75 13.875,27.375 14,27 14,26.5 14,26 14,25.5 14,25 14.125,24.625 14.25,24.25 14.5,24 L 14.75,23.75 14.5625,23.9375 14.375,24.125 14.5,24 q 0.125,-0.125 0.21875,-0.28125 l 0.09375,-0.15625 -0.04687,0.07813 -0.04687,0.07813 0.265625,0.265625 Q 15.25,24.25 15.5,24.25 q 0.25,0 0.546875,-0.265625 L 16.34375,23.71875 16.296875,23.671875 16.25,23.625 16.34375,23.71875 Q 16.4375,23.8125 16.625,23.875 L 16.8125,23.9375 16.53125,23.84375 16.25,23.75 16.625,23.875 17,24 l 0.125,0.375 q 0.125,0.375 0.5,0.5 L 18,25 l 0.125,0.375 q 0.125,0.375 0.5,0.5 L 19,26 v 0.5 q 0,0.5 0.125,0.875 0.125,0.375 0.375,0.625 0.25,0.25 0.5,0.5 0.25,0.25 0.5,0.5 0.25,0.25 0.5,0.5 0.25,0.25 0.625,0.375 0.375,0.125 0.75,0 0.375,-0.125 0.5,-0.5 0.125,-0.375 0,-0.75 -0.125,-0.375 -0.5,-0.5 L 22,28 22.28125,28.09375 22.5625,28.1875 22.375,28.125 Q 22.1875,28.0625 21.96875,28.03125 L 21.75,28 l 0.109375,0.01563 0.109375,0.01563 -0.109375,-0.390625 Q 21.75,27.25 21.5,27 21.25,26.75 21.125,26.375 L 21,26 21.09375,26.28125 21.1875,26.5625 21.125,26.375 Q 21.0625,26.1875 21.03125,25.96875 L 21,25.75 l 0.01563,0.109375 0.01563,0.109375 0.359375,-0.109375 Q 21.75,25.75 21.875,25.375 L 22,25 21.90625,25.28125 21.8125,25.5625 21.875,25.375 q 0.0625,-0.1875 0.09375,-0.40625 L 22,24.75 21.98437,24.859375 21.96874,24.96875 22.359365,24.859375 Q 22.75,24.75 23,24.5 23.25,24.25 23.5,24 23.75,23.75 23.875,23.375 24,23 24,22.5 q 0,-0.5 0,-1 0,-0.5 -0.125,-0.875 -0.125,-0.375 -0.5,-0.5 L 23,20 v -0.5 q 0,-0.5 0,-1 0,-0.5 0,-1 V 17 h 0.5 0.5 v 0.5 q 0,0.5 0,1 0,0.5 0.125,0.875 0.125,0.375 0.5,0.5 Q 25,20 25,20.5 q 0,0.5 0,1 0,0.5 0.5,0.5 0.5,0 1,0 0.5,0 1,0 0.5,0 0.5,0.5 0,0.5 0.5,0.5 0.5,0 1,0 0.5,0 0.5,0.5 0,0.5 0.5,0.5 0.5,0 0.5,0.5 0,0.5 0,1 0,0.5 -0.5,0.5 -0.5,0 -0.5,0.5 0,0.5 0,1 0,0.5 -0.5,0.5 -0.5,0 -1,0 Q 28,28 28,28.5 28,29 27.5,29 27,29 27,29.5 27,30 26.5,30 26,30 25.5,30 25,30 25,30.5 25,31 24.5,31 q -0.5,0 -1,0 -0.5,0 -1,0 -0.5,0 -1,0 -0.5,0 -0.625,-0.375 -0.125,-0.375 -0.5,-0.5 Q 20,30 19.875,29.625 19.75,29.25 19.375,29.125 19,29 18.5,29 18,29 17.5,29 17,29 17,29.5 17,30 16.5,30 16,30 15.5,30 15,30 15,30.5 15,31 14.5,31 q -0.5,0 -1,0 -0.5,0 -0.875,0.125 -0.375,0.125 -0.5,0.5 L 12,32 H 11.5 11 10.5 10 9.5 9 L 8.875,31.625 Q 8.75,31.25 8.375,31.125 8,31 8,30.5 8,30 8.375,29.875 8.75,29.75 8.875,29.375 9,29 9.375,28.875 9.75,28.75 9.875,28.375 10,28 10,27.5 10,27 10.375,26.875 10.75,26.75 10.875,26.375 11,26 11,25.5 11,25 11,24.5 11,24 10.875,23.625 10.75,23.25 10.375,23.125 10,23 10,22.5 q 0,-0.5 0,-1 0,-0.5 0,-1 0,-0.5 0,-1 0,-0.5 0,-1 0,-0.5 0,-1 Q 10,17 9.5,17 9,17 8.875,16.625 8.75,16.25 8.375,16.125 8,16 7.5,16 7,16 6.875,15.625 6.75,15.25 6.375,15.125 6,15 5.5,15 5,15 4.875,14.625 4.75,14.25 4.375,14.125 4,14 3.875,13.625 3.75,13.25 3.375,13.125 3,13 3,12.5 3,12 3.375,11.875 3.75,11.75 3.875,11.375 4,11 4.5,11 5,11 5.125,11.375 5.25,11.75 5.625,11.875 6,12 6.5,12 7,12 7.125,12.375 7.25,12.75 7.625,12.875 8,13 8.5,13 H 9 V 12.5 Q 9,12 9,11.5 9,11 9,10.5 9,10 9,9.5 9,9 8.875,8.625 8.75,8.25 8.375,8.125 8,8 7.5,8 7,8 6.875,7.625 6.75,7.25 6.375,7.125 6,7 5.875,6.625 5.75,6.25 5.375,6.125 5,6 5,5.5 5,5 5.375,4.875 5.75,4.75 5.875,4.375 6,4 6.375,3.875 6.75,3.75 6.875,3.375 7,3 7.375,2.875 7.75,2.75 7.875,2.375 8,2 8.5,2 q 0.5,0 1,0 0.5,0 0.625,0.375 0.125,0.375 0.5,0.5 0.375,0.125 0.5,0.5 0.125,0.375 0.5,0.5 Q 12,4 12,3.5 12,3 12.375,2.875 12.75,2.75 12.875,2.375 13,2 13.375,1.875 13.75,1.75 13.875,1.375 M 9.375,13.125 9,13 9.125,13.375 q 0.125,0.375 0.5,0.5 Q 10,14 9.875,13.625 9.75,13.25 9.375,13.125 m -1.75,1.75 Q 8,15 8.375,14.875 8.75,14.75 8.75,14.5 8.75,14.25 8.375,14.125 8,14 7.625,13.875 7.25,13.75 7,13.5 6.75,13.25 6.328125,13.171875 L 5.90625,13.09375 5.953125,13.171875 6,13.25 5.90625,13.09375 Q 5.8125,12.9375 5.625,12.875 L 5.4375,12.8125 5.71875,12.90625 6,13 5.625,12.875 Q 5.25,12.75 5,12.5 4.75,12.25 4.5,12.25 q -0.25,0 -0.25,0.25 0,0.25 0.25,0.5 0.25,0.25 0.5,0.5 0.25,0.25 0.625,0.375 L 6,14 H 5.625 5.25 5.5 q 0.25,0 0.375,-0.125 L 6,13.75 5.9375,13.8125 5.875,13.875 6.3125,14.0625 Q 6.75,14.25 7,14.5 7.25,14.75 7.625,14.875 M 23.375,17 H 23 22.875 22.75 23 q 0.25,0 0.5,0 h 0.25 -0.375 M 23,19.625 V 20 20.125 20.25 20 q 0,-0.25 0,-0.5 v -0.25 0.375 M 19.09375,26.03125 19,26 18.71875,25.90625 18.4375,25.8125 18.625,25.875 Q 18.8125,25.9375 19,26 l 0.1875,0.0625 -0.09375,-0.03125 M 12,23.375 V 23 22.875 22.75 23 q 0,0.25 0,0.5 v 0.25 -0.375 M 11.71875,15.90625 12,16 12.09375,16.03125 12.1875,16.0625 12,16 q -0.1875,-0.0625 -0.375,-0.125 l -0.1875,-0.0625 0.28125,0.09375 M 18,4.625 V 5 5.125 5.25 5 Q 18,4.75 18,4.5 V 4.25 4.625 m 3,8 V 13 13.125 13.25 13 q 0,-0.25 0,-0.5 v -0.25 0.375"
       id="path76"
       inkscape:connector-curvature="0" />
    <path
       style="fill:#c03000;fill-opacity:1"
       d="M 14,2.5 Q 14.25,2.25 14.625,2.125 15,2 15.5,2 H 16 15.625 15.25 15.5 q 0.25,0 0.46875,0.03125 L 16.1875,2.0625 16.078125,2.046875 15.96875,2.03125 15.859375,2.390625 Q 15.75,2.75 15.375,2.875 15,3 14.625,3.125 14.25,3.25 14.125,3.625 14,4 13.875,4.375 13.75,4.75 13.375,4.875 L 13,5 V 4.5 Q 13,4 13.125,3.625 13.25,3.25 13.5,3 13.75,2.75 14,2.5"
       id="path78"
       inkscape:connector-curvature="0" />
    <path
       style="fill:#802000;fill-opacity:1"
       d="M 15.859375,2.390625 15.96875,2.03125 15.859375,2.015625 15.75,2 15.96875,2.03125 Q 16.1875,2.0625 16.375,2.125 L 16.5625,2.1875 16.28125,2.09375 16,2 16.375,2.125 q 0.375,0.125 0.5,0.53125 L 17,3.0625 H 17.09375 17.1875 17 q -0.1875,0 -0.375,0.0625 L 16.4375,3.1875 16.71875,3.09375 17,3 16.625,3.125 q -0.375,0.125 -0.5,0.5 L 16,4 15.625,4.125 q -0.375,0.125 -0.5,0.5 L 15,5 14.625,5.125 q -0.375,0.125 -0.5,0.5 L 14,6 13.625,5.875 Q 13.25,5.75 13.125,5.375 L 13,5 13.375,4.875 Q 13.75,4.75 13.875,4.375 14,4 14.125,3.625 14.25,3.25 14.625,3.125 15,3 15.375,2.875 15.75,2.75 15.859375,2.390625 M 14.71875,5.09375 15,5 15.09375,4.96875 15.1875,4.9375 15,5 q -0.1875,0.0625 -0.375,0.125 l -0.1875,0.0625 0.28125,-0.09375"
       id="path80"
       inkscape:connector-curvature="0" />
    <path
       style="fill:#a05000;fill-opacity:1"
       d="M 8.125,3.625 Q 8.25,3.25 8.625,3.125 L 9,3 8.71875,3.09375 8.4375,3.1875 8.625,3.125 Q 8.8125,3.0625 9,3.0625 H 9.1875 9.09375 9 L 9.125,3.40625 Q 9.25,3.75 9.5,4 9.75,4.25 10,4.5 10.25,4.75 10.625,4.875 L 11,5 10.875,5.375 Q 10.75,5.75 10.5,5.75 10.25,5.75 10,5.5 9.75,5.25 9.5,5 9.25,4.75 9,4.5 8.75,4.25 8.375,4.125 L 8,4 8.125,3.625"
       id="path82"
       inkscape:connector-curvature="0" />
    <path
       style="fill:#68541f;fill-opacity:1"
       d="M 9.125,3.40625 9,3.0625 H 8.90625 8.8125 9 q 0.1875,0 0.375,0.0625 L 9.5625,3.1875 9.28125,3.09375 9,3 9.375,3.125 Q 9.75,3.25 10,3.5 10.25,3.75 10.5,4 10.75,4.25 10.875,4.625 L 11,5 10.625,4.875 Q 10.25,4.75 10,4.5 9.75,4.25 9.5,4 9.25,3.75 9.125,3.40625"
       id="path84"
       inkscape:connector-curvature="0" />
    <path
       style="fill:#401000;fill-opacity:1"
       d="m 16.125,3.625 q 0.125,-0.375 0.5,-0.5 0.375,-0.125 0.75,0 0.375,0.125 0.5,0.5 L 18,4 17.90625,3.71875 17.8125,3.4375 17.875,3.625 q 0.0625,0.1875 0.09375,0.40625 L 18,4.25 17.984375,4.140625 17.96875,4.03125 17.421875,4.078125 16.875,4.125 16.9375,4.1875 17,4.25 16.875,4.125 Q 16.75,4 16.5,4 H 16.25 16.625 17 16.5 16 l 0.125,-0.375"
       id="path86"
       inkscape:connector-curvature="0" />
    <path
       style="fill:#68541f;fill-opacity:1"
       d="M 7,4.5 Q 7.25,4.25 7.625,4.125 L 8,4 8.125,4.375 Q 8.25,4.75 8.5,5 8.75,5.25 8.875,5.625 L 9,6 8.625,5.875 Q 8.25,5.75 8,5.5 7.75,5.25 7.5,5.25 7.25,5.25 7.25,5.5 7.25,5.75 7.5,6 7.75,6.25 7.890625,6.609375 L 8.03125,6.96875 8.140625,6.984375 8.25,7 8.03125,6.96875 Q 7.8125,6.9375 7.625,6.875 L 7.4375,6.8125 7.71875,6.90625 8,7 7.625,6.875 Q 7.25,6.75 7,6.5 6.75,6.25 6.5,6 6.25,5.75 6.25,5.5 6.25,5.25 6.5,5 6.75,4.75 7,4.5 M 8.71875,5.90625 9,6 9.09375,6.03125 9.1875,6.0625 9,6 Q 8.8125,5.9375 8.625,5.875 L 8.4375,5.8125 8.71875,5.90625"
       id="path88"
       inkscape:connector-curvature="0" />
    <path
       style="fill:#301800;fill-opacity:1"
       d="M 8.125,4.375 8,4 8.375,4.125 Q 8.75,4.25 9,4.5 9.25,4.75 9.5,5 9.75,5.25 10,5.5 q 0.25,0.25 0.5,0.25 0.25,0 0.375,-0.375 L 11,5 H 11.5 12 V 5.5 6 L 11.625,6.125 Q 11.25,6.25 11,6.5 10.75,6.75 10.5,7 10.25,7.25 10.125,7.625 L 10,8 9.625,7.875 Q 9.25,7.75 9.109375,7.359375 L 8.96875,6.96875 8.859375,6.984375 8.75,7 8.96875,6.96875 Q 9.1875,6.9375 9.375,6.875 L 9.5625,6.8125 9.28125,6.90625 9,7 9.375,6.875 Q 9.75,6.75 9.75,6.5 9.75,6.25 9.375,6.125 L 9,6 8.875,5.625 Q 8.75,5.25 8.5,5 8.25,4.75 8.125,4.375 M 8.90625,5.96875 9,6 9.28125,6.09375 9.5625,6.1875 9.375,6.125 Q 9.1875,6.0625 9,6 L 8.8125,5.9375 8.90625,5.96875 M 12.125,5 H 12 11.625 11.25 11.5 q 0.25,0 0.5,0 h 0.25 -0.125"
       id="path90"
       inkscape:connector-curvature="0" />
    <path
       style="fill:#7f5a48;fill-opacity:1"
       d="m 15.125,4.625 q 0.125,-0.375 0.5,-0.5 L 16,4 15.875,4.375 q -0.125,0.375 -0.5,0.5 L 15,5 15.125,4.625 M 14.90625,5.03125 15,5 15.28125,4.90625 15.5625,4.8125 15.375,4.875 Q 15.1875,4.9375 15,5 l -0.1875,0.0625 0.09375,-0.03125"
       id="path92"
       inkscape:connector-curvature="0" />
    <path
       style="fill:#e5a282;fill-opacity:1"
       d="M 15.875,4.375 16,4 h 0.5 Q 17,4 17,4.5 V 5 L 16.625,5.125 Q 16.25,5.25 16.125,5.625 16,6 16,6.5 V 7 H 15.5 Q 15,7 14.875,6.625 14.75,6.25 14.375,6.125 L 14,6 14.125,5.625 Q 14.25,5.25 14.625,5.125 15,5 15.375,4.875 q 0.375,-0.125 0.5,-0.5"
       id="path94"
       inkscape:connector-curvature="0" />
    <path
       style="fill:#802000;fill-opacity:1"
       d="M 17,4.5 V 4 4.375 4.75 4.5 Q 17,4.25 16.875,4.125 L 16.75,4 16.8125,4.0625 16.875,4.125 17.421875,4.078125 17.96875,4.03125 17.953125,3.921875 17.9375,3.8125 17.96875,4.03125 Q 18,4.25 18,4.5 V 4.75 4.375 4 4.5 q 0,0.5 0,1 V 6 L 17.484375,5.984375 16.96875,5.96875 16.953125,6.078125 16.9375,6.1875 16.96875,5.96875 Q 17,5.75 17,5.5 V 5.25 5.625 6 5.5 5 4.5 m 1,1.625 V 6 5.625 5.25 5.5 Q 18,5.75 18,6 V 6.25 6.125"
       id="path96"
       inkscape:connector-curvature="0" />
    <path
       style="fill:#a05000;fill-opacity:1"
       d="M 7.25,5.5 Q 7.25,5.25 7.5,5.25 7.75,5.25 8,5.5 8.25,5.75 8.625,5.875 9,6 9.375,6.125 9.75,6.25 9.75,6.5 9.75,6.75 9.375,6.875 9,7 8.5,7 H 8 8.375 8.75 8.5 Q 8.25,7 8.03125,6.96875 L 7.8125,6.9375 7.921875,6.953125 8.03125,6.96875 7.890625,6.609375 Q 7.75,6.25 7.5,6 7.25,5.75 7.25,5.5"
       id="path98"
       inkscape:connector-curvature="0" />
    <path
       style="fill:#002000;fill-opacity:1"
       d="M 12,5.5 V 5 h 0.5 0.5 l 0.125,0.375 q 0.125,0.375 0.5,0.5 L 14,6 v 0.5 q 0,0.5 0.125,0.875 0.125,0.375 0.5,0.5 Q 15,8 15.5,8 H 16 15.625 15.25 15.5 q 0.25,0 0.46875,-0.03125 L 16.1875,7.9375 16.078125,7.953125 15.96875,7.96875 15.984375,8.484375 16,9 V 8.625 8.25 8.5 q 0,0.25 0.03125,0.46875 L 16.0625,9.1875 16.046875,9.078125 16.03125,8.96875 15.515625,8.984375 Q 15,9 14.625,9.125 14.25,9.25 14.109375,9.640625 l -0.140625,0.390625 0.109375,0.01563 0.109375,0.01563 -0.21875,-0.03125 Q 13.75,10 13.5,10 H 13.25 13.625 14 13.5 q -0.5,0 -1,0 H 12 12.375 12.75 12.5 q -0.25,0 -0.46875,0.03125 L 11.8125,10.0625 11.921875,10.04687 12.03125,10.03124 12.140625,9.640615 Q 12.25,9.25 12.5,9 12.75,8.75 12.875,8.375 13,8 13,7.5 13,7 12.875,6.625 12.75,6.25 12.375,6.125 L 12,6 V 5.5 M 12.375,5 H 12 11.875 11.75 12 q 0.25,0 0.5,0 h 0.25 -0.375"
       id="path100"
       inkscape:connector-curvature="0" />
    <path
       style="fill:#ffb691;fill-opacity:1"
       d="m 16.125,5.625 q 0.125,-0.375 0.5,-0.5 L 17,5 v 0.5 q 0,0.5 -0.125,0.875 -0.125,0.375 -0.5,0.5 L 16,7 V 6.5 Q 16,6 16.125,5.625"
       id="path102"
       inkscape:connector-curvature="0" />
    <path
       style="fill:#002000;fill-opacity:1"
       d="M 18,5.5 V 5 h 0.5 q 0.5,0 0.875,0.125 0.375,0.125 0.5,0.5 L 20,6 19.625,6.125 Q 19.25,6.25 19,6.5 18.75,6.75 18.375,6.875 L 18,7 V 6.5 Q 18,6 18,5.5 M 17.90625,7.03125 18,7 18.28125,6.90625 18.5625,6.8125 18.375,6.875 Q 18.1875,6.9375 18,7 L 17.8125,7.0625 17.90625,7.03125 M 18,4.875 V 5 5.375 5.75 5.5 Q 18,5.25 18,5 V 4.75 4.875"
       id="path104"
       inkscape:connector-curvature="0" />
    <path
       style="fill:#a05000;fill-opacity:1"
       d="M 11,6.5 Q 11.25,6.25 11.625,6.125 L 12,6 V 6.5 7 L 11.625,7.125 Q 11.25,7.25 11,7.5 10.75,7.75 10.375,7.875 L 10,8 10.125,7.625 Q 10.25,7.25 10.5,7 10.75,6.75 11,6.5 m 1,0.625 V 7 6.625 6.25 6.5 Q 12,6.75 12,7 V 7.25 7.125"
       id="path106"
       inkscape:connector-curvature="0" />
    <path
       style="fill:#204000;fill-opacity:1"
       d="M 12,6.5 V 6 l 0.375,0.125 q 0.375,0.125 0.5,0.5 Q 13,7 13,7.5 13,8 12.875,8.375 12.75,8.75 12.5,9 12.25,9.25 12.140625,9.640625 L 12.03125,10.03125 12.140625,10.015625 12.25,10 12.03125,10.03125 Q 11.8125,10.0625 11.625,10.125 L 11.4375,10.1875 11.71875,10.09375 12,10 11.625,10.125 q -0.375,0.125 -0.515625,0.515625 l -0.140625,0.390625 0.109375,0.01563 0.109375,0.01563 -0.21875,-0.03125 Q 10.75,11 10.5,11 H 10.25 10.625 11 10.5 10 V 10.5 10 L 10.375,9.875 Q 10.75,9.75 11,9.5 11.25,9.25 11.5,9 11.75,8.75 11.875,8.375 12,8 12,7.5 12,7 12,6.5 M 10,9.875 V 10 10.375 10.75 10.5 Q 10,10.25 10,10 V 9.75 9.875 m 0,0.75 V 11 11.125 11.25 11 q 0,-0.25 0,-0.5 v -0.25 0.375"
       id="path108"
       inkscape:connector-curvature="0" />
    <path
       style="fill:#401000;fill-opacity:1"
       d="M 14,6.5 V 6 l 0.375,0.125 q 0.375,0.125 0.5,0.5 L 15,7 14.90625,6.71875 14.8125,6.4375 14.875,6.625 q 0.0625,0.1875 0.21875,0.28125 L 15.25,7 15.171875,6.953125 15.09375,6.90625 14.5625,6.9375 14.03125,6.96875 14.046875,7.078125 14.0625,7.1875 14.03125,6.96875 Q 14,6.75 14,6.5 V 6.25 6.625 7 6.5"
       id="path110"
       inkscape:connector-curvature="0" />
    <path
       style="fill:#004000;fill-opacity:1"
       d="M 16.875,6.375 17,6 16.90625,6.28125 16.8125,6.5625 16.875,6.375 Q 16.9375,6.1875 16.96875,5.96875 L 17,5.75 16.984375,5.859375 16.96875,5.96875 17.484375,5.984375 18,6 V 6.5 7 L 17.625,7.125 Q 17.25,7.25 17,7.5 16.75,7.75 16.375,7.875 16,8 15.5,8 15,8 14.625,7.875 14.25,7.75 14.125,7.375 L 14,7 14.09375,7.28125 14.1875,7.5625 14.125,7.375 Q 14.0625,7.1875 14.03125,6.96875 L 14,6.75 14.015625,6.859375 14.03125,6.96875 14.5625,6.9375 15.09375,6.90625 15.015625,6.859375 14.9375,6.8125 15.09375,6.90625 Q 15.25,7 15.5,7 H 15.75 15.375 15 15.5 16 l 0.375,-0.125 q 0.375,-0.125 0.5,-0.5 M 17.71875,7.09375 18,7 18.09375,6.96875 18.1875,6.9375 18,7 Q 17.8125,7.0625 17.625,7.125 L 17.4375,7.1875 17.71875,7.09375 M 18,6.375 V 6 5.875 5.75 6 q 0,0.25 0,0.5 V 6.75 6.375"
       id="path112"
       inkscape:connector-curvature="0" />
    <path
       style="fill:#408000;fill-opacity:1"
       d="M 19,6.5 Q 19.25,6.25 19.625,6.125 L 20,6 19.875,6.375 Q 19.75,6.75 19.5,7 19.25,7.25 19.109375,7.640625 L 18.96875,8.03125 19.078125,8.046875 19.1875,8.0625 18.96875,8.03125 Q 18.75,8 18.5,8 H 18.25 18.625 19 18.5 Q 18,8 17.625,8.125 17.25,8.25 17.125,8.625 17,9 17,9.5 V 10 L 16.625,9.875 Q 16.25,9.75 16.125,9.375 16,9 15.984375,8.484375 L 15.96875,7.96875 15.859375,7.984375 15.75,8 15.96875,7.96875 Q 16.1875,7.9375 16.375,7.875 L 16.5625,7.8125 16.28125,7.90625 16,8 16.375,7.875 Q 16.75,7.75 17,7.5 17.25,7.25 17.625,7.125 18,7 18.375,6.875 18.75,6.75 19,6.5 m -2,3.625 V 10 9.625 9.25 9.5 q 0,0.25 0,0.5 v 0.25 -0.125"
       id="path114"
       inkscape:connector-curvature="0" />
    <path
       style="fill:#204000;fill-opacity:1"
       d="M 19.875,6.375 20,6 20.375,6.125 q 0.375,0.125 0.5,0.5 Q 21,7 21,7.5 q 0,0.5 0,1 0,0.5 0,1 V 10 L 20.625,9.875 Q 20.25,9.75 20.125,9.375 20,9 19.875,8.625 19.75,8.25 19.375,8.125 L 19,8 19.28125,8.09375 19.5625,8.1875 19.375,8.125 Q 19.1875,8.0625 18.96875,8.03125 L 18.75,8 18.859375,8.015625 18.96875,8.03125 19.109375,7.640625 Q 19.25,7.25 19.5,7 19.75,6.75 19.875,6.375 M 21,10.125 V 10 9.625 9.25 9.5 q 0,0.25 0,0.5 v 0.25 -0.125"
       id="path116"
       inkscape:connector-curvature="0" />
    <path
       style="fill:#408000;fill-opacity:1"
       d="M 11,7.5 Q 11.25,7.25 11.625,7.125 L 12,7 V 7.5 Q 12,8 11.875,8.375 11.75,8.75 11.5,9 11.25,9.25 11,9.5 10.75,9.75 10.375,9.875 L 10,10 V 9.5 Q 10,9 10,8.5 V 8 L 10.375,7.875 Q 10.75,7.75 11,7.5 M 10,9.625 V 10 10.125 10.25 10 Q 10,9.75 10,9.5 V 9.25 9.625 m 2,-2.25 V 7 6.875 6.75 7 q 0,0.25 0,0.5 V 7.75 7.375"
       id="path118"
       inkscape:connector-curvature="0" />
    <path
       style="fill:#204000;fill-opacity:1"
       d="m 17.125,8.625 q 0.125,-0.375 0.5,-0.5 L 18,8 17.71875,8.09375 17.4375,8.1875 17.625,8.125 Q 17.8125,8.0625 18.03125,8.03125 L 18.25,8 18.140625,8.015625 18.03125,8.03125 17.890625,8.390625 q -0.140625,0.359375 -0.5,0.5 L 17.03125,9.03125 17.015625,9.140625 17,9.25 17.03125,9.03125 Q 17.0625,8.8125 17.125,8.625 L 17.1875,8.4375 17.09375,8.71875 17,9 17.125,8.625"
       id="path120"
       inkscape:connector-curvature="0" />
    <path
       style="fill:#008040;fill-opacity:1"
       d="M 17.890625,8.390625 18.03125,8.03125 17.921875,8.046875 17.8125,8.0625 18.03125,8.03125 Q 18.25,8 18.5,8 H 18.75 18.375 18 18.5 q 0.5,0 0.875,0.125 0.375,0.125 0.5,0.5 0.125,0.375 0.25,0.75 0.125,0.375 0.5,0.5 L 21,10 v 0.5 0.5 l -0.375,0.125 q -0.375,0.125 -0.5,0.5 L 20,12 h -0.5 q -0.5,0 -1,0 H 18 l 0.125,-0.375 q 0.125,-0.375 0.5,-0.5 Q 19,11 19.375,10.875 19.75,10.75 19.75,10.5 19.75,10.25 19.5,10 19.25,9.75 19,9.5 18.75,9.25 18.5,9.25 18.25,9.25 18.125,9.625 18,10 17.875,10.375 q -0.125,0.375 -0.5,0.5 L 17,11 v -0.5 q 0,-0.5 0,-1 V 9 9.375 9.75 9.5 Q 17,9.25 17.03125,9.03125 L 17.0625,8.8125 17.046875,8.921875 17.03125,9.03125 17.390625,8.890625 q 0.359375,-0.140625 0.5,-0.5 M 21,11.125 V 11 10.625 10.25 10.5 q 0,0.25 0,0.5 v 0.25 -0.125 m 0,-0.75 V 10 9.875 9.75 10 q 0,0.25 0,0.5 v 0.25 -0.375"
       id="path122"
       inkscape:connector-curvature="0" />
    <path
       style="fill:#401000;fill-opacity:1"
       d="M 14.109375,9.640625 Q 14.25,9.25 14.625,9.125 15,9 15.515625,8.984375 L 16.03125,8.96875 16.015625,8.859375 16,8.75 16.03125,8.96875 Q 16.0625,9.1875 16.125,9.375 L 16.1875,9.5625 16.09375,9.28125 16,9 16.125,9.375 q 0.125,0.375 0.5,0.5 L 17,10 v 0.5 0.5 l -0.375,0.125 Q 16.25,11.25 16,11.5 15.75,11.75 15.375,11.875 L 15,12 v -0.5 q 0,-0.5 -0.125,-0.875 -0.125,-0.375 -0.5,-0.5 L 14,10 14.28125,10.09375 14.5625,10.1875 14.375,10.125 Q 14.1875,10.0625 13.96875,10.03125 L 13.75,10 l 0.109375,0.01563 0.109375,0.01563 0.140625,-0.390625 M 17,10.375 V 10 9.875 9.75 10 q 0,0.25 0,0.5 v 0.25 -0.375"
       id="path124"
       inkscape:connector-curvature="0" />
    <path
       style="fill:#00c060;fill-opacity:1"
       d="M 18.125,9.625 Q 18.25,9.25 18.5,9.25 q 0.25,0 0.5,0.25 0.25,0.25 0.5,0.5 0.25,0.25 0.25,0.5 0,0.25 -0.375,0.375 -0.375,0.125 -0.75,0.25 -0.375,0.125 -0.5,0.5 L 18,12 H 17.5 17 V 11.5 11 l 0.375,-0.125 q 0.375,-0.125 0.5,-0.5 Q 18,10 18.125,9.625 m -1.125,2 V 12 12.125 12.25 12 q 0,-0.25 0,-0.5 v -0.25 0.375"
       id="path126"
       inkscape:connector-curvature="0" />
    <path
       style="fill:#008040;fill-opacity:1"
       d="M 11.109375,10.640625 Q 11.25,10.25 11.625,10.125 12,10 12.5,10 H 13 v 0.5 q 0,0.5 0,1 V 12 l -0.515625,0.01563 -0.515625,0.01563 0.01563,0.109375 L 12,12.25 11.96875,12.03125 Q 11.9375,11.8125 11.875,11.625 L 11.8125,11.4375 11.90625,11.71875 12,12 11.875,11.625 q -0.125,-0.375 -0.5,-0.5 L 11,11 11.28125,11.09375 11.5625,11.1875 11.375,11.125 Q 11.1875,11.0625 10.96875,11.03125 L 10.75,11 l 0.109375,0.01563 0.109375,0.01563 0.140625,-0.390625 M 13.125,10 H 13 12.625 12.25 12.5 q 0.25,0 0.5,0 h 0.25 -0.125"
       id="path128"
       inkscape:connector-curvature="0" />
    <path
       style="fill:#802000;fill-opacity:1"
       d="M 13,10.5 V 10 h 0.5 q 0.5,0 0.875,0.125 0.375,0.125 0.5,0.5 Q 15,11 15,11.5 V 12 H 14.5 14 l -0.125,-0.375 q -0.125,-0.375 -0.5,-0.5 L 13,11 v -0.5 m 0,0.125 V 11 11.125 11.25 11 q 0,-0.25 0,-0.5 v -0.25 0.375 M 13.375,10 H 13 12.875 12.75 13 q 0.25,0 0.5,0 h 0.25 -0.375"
       id="path130"
       inkscape:connector-curvature="0" />
    <path
       style="fill:#00c060;fill-opacity:1"
       d="M 10,11.5 V 11 h 0.5 q 0.5,0 0.875,0.125 0.375,0.125 0.5,0.5 Q 12,12 12,12.5 12,13 11.5,13 H 11 L 10.875,12.625 Q 10.75,12.25 10.390625,12.109375 L 10.03125,11.96875 10.046875,12.078125 10.0625,12.1875 10.03125,11.96875 Q 10,11.75 10,11.5 V 11.25 11.625 12 11.5 m 0,-0.625 V 11 11.375 11.75 11.5 q 0,-0.25 0,-0.5 v -0.25 0.125"
       id="path132"
       inkscape:connector-curvature="0" />
    <path
       style="fill:#401000;fill-opacity:1"
       d="M 13,11.5 V 11 l 0.375,0.125 q 0.375,0.125 0.5,0.5 L 14,12 H 13.5 13 v -0.5 m 0,-0.625 V 11 11.375 11.75 11.5 q 0,-0.25 0,-0.5 v -0.25 0.125"
       id="path134"
       inkscape:connector-curvature="0" />
    <path
       style="fill:#300c00;fill-opacity:1"
       d="m 16,11.5 q 0.25,-0.25 0.625,-0.375 L 17,11 v 0.5 q 0,0.5 0,1 0,0.5 0,1 0,0.5 -0.375,0.625 -0.375,0.125 -0.5,0.5 L 16,15 15.625,14.875 Q 15.25,14.75 15.125,14.375 15,14 15,13.5 15,13 15,12.5 V 12 l 0.375,-0.125 Q 15.75,11.75 16,11.5"
       id="path136"
       inkscape:connector-curvature="0" />
    <path
       style="fill:#002020;fill-opacity:1"
       d="m 20.125,11.625 q 0.125,-0.375 0.5,-0.5 L 21,11 V 11.5 12 H 20.5 20 l 0.125,-0.375 M 21,12.125 V 12 11.625 11.25 11.5 q 0,0.25 0,0.5 v 0.25 -0.125 m 0,-0.75 V 11 10.875 10.75 11 q 0,0.25 0,0.5 v 0.25 -0.375"
       id="path138"
       inkscape:connector-curvature="0" />
    <path
       style="fill:#f2c44d;fill-opacity:1"
       d="m 4.25,12.5 q 0,-0.25 0.25,-0.25 0.25,0 0.5,0.25 0.25,0.25 0.625,0.375 Q 6,13 6,13.5 6,14 5.625,13.875 5.25,13.75 5,13.5 4.75,13.25 4.5,13 4.25,12.75 4.25,12.5"
       id="path140"
       inkscape:connector-curvature="0" />
    <path
       style="fill:#008040;fill-opacity:1"
       d="M 10.125,12.375 10,12 10.09375,12.28125 10.1875,12.5625 10.125,12.375 Q 10.0625,12.1875 10.03125,11.96875 L 10,11.75 l 0.01563,0.109375 0.01563,0.109375 0.359375,0.140625 Q 10.75,12.25 10.875,12.625 L 11,13 10.625,12.875 q -0.375,-0.125 -0.5,-0.5"
       id="path142"
       inkscape:connector-curvature="0" />
    <path
       style="fill:#c0a040;fill-opacity:1"
       d="M 12,12.5 V 12 12.375 12.75 12.5 q 0,-0.25 -0.03125,-0.46875 L 11.9375,11.8125 11.95313,11.921875 11.96876,12.03125 12.484385,12.01562 13,12 v 0.5 q 0,0.5 0,1 V 14 L 12.625,13.875 Q 12.25,13.75 12.0625,13.3125 L 11.875,12.875 11.8125,12.9375 11.75,13 11.875,12.875 Q 12,12.75 12,12.5 V 12.25 12.625 13 12.5"
       id="path144"
       inkscape:connector-curvature="0" />
    <path
       style="fill:#ffd3af;fill-opacity:1"
       d="M 13,12.5 V 12 H 13.5 14 V 12.5 13 H 13.5 13 v -0.5 m 0,0.125 V 13 13.125 13.25 13 q 0,-0.25 0,-0.5 v -0.25 0.375"
       id="path146"
       inkscape:connector-curvature="0" />
    <path
       style="fill:#7f5a48;fill-opacity:1"
       d="M 14,12.5 V 12 H 14.5 15 V 12.5 13 H 14.5 14 v -0.5 m 1,0.625 V 13 12.625 12.25 12.5 q 0,0.25 0,0.5 v 0.25 -0.125"
       id="path148"
       inkscape:connector-curvature="0" />
    <path
       style="fill:#f2c44d;fill-opacity:1"
       d="M 17,12.5 V 12 h 0.5 0.5 v 0.5 q 0,0.5 0,1 0,0.5 0,1 V 15 H 17.5 17 l -0.04687,-0.546875 -0.04687,-0.546875 -0.04687,0.07813 -0.04687,0.07813 0.09375,-0.15625 Q 17,13.75 17,13.5 V 13.25 13.625 14 13.5 q 0,-0.5 0,-1 m 0,-0.625 V 12 12.375 12.75 12.5 q 0,-0.25 0,-0.5 v -0.25 0.125"
       id="path150"
       inkscape:connector-curvature="0" />
    <path
       style="fill:#807020;fill-opacity:1"
       d="M 18,12.5 V 12 h 0.5 q 0.5,0 1,0 H 20 v 0.5 0.5 l -0.375,0.125 q -0.375,0.125 -0.5,0.5 Q 19,14 19,14.5 V 15 H 18.5 18 v -0.5 q 0,-0.5 0,-1 0,-0.5 0,-1 m 1,2.625 V 15 14.625 14.25 14.5 q 0,0.25 0,0.5 v 0.25 -0.125 m 1,-2 V 13 12.625 12.25 12.5 q 0,0.25 0,0.5 v 0.25 -0.125"
       id="path152"
       inkscape:connector-curvature="0" />
    <path
       style="fill:#004040;fill-opacity:1"
       d="M 20,12.5 V 12 h 0.5 0.5 v 0.5 q 0,0.5 0,1 0,0.5 -0.125,0.875 -0.125,0.375 -0.5,0.5 L 20,15 v -0.5 q 0,-0.5 0,-1 0,-0.5 0,-1 m 0,2.125 V 15 15.125 15.25 15 q 0,-0.25 0,-0.5 v -0.25 0.375 m 1,-2.25 V 12 11.875 11.75 12 q 0,0.25 0,0.5 v 0.25 -0.375"
       id="path154"
       inkscape:connector-curvature="0" />
    <path
       style="fill:#802000;fill-opacity:1"
       d="M 6,13.5 V 13 13.375 13.75 13.5 Q 6,13.25 5.90625,13.09375 L 5.8125,12.9375 5.859375,13.01563 5.90625,13.09376 6.328125,13.17189 Q 6.75,13.25 7,13.5 7.25,13.75 7.625,13.875 8,14 8.375,14.125 8.75,14.25 8.75,14.5 8.75,14.75 8.375,14.875 8,15 7.625,14.875 7.25,14.75 7,14.5 6.75,14.25 6.3125,14.0625 L 5.875,13.875 5.8125,13.9375 5.75,14 5.875,13.875 Q 6,13.75 6,13.5 V 13.25 13.625 14 13.5"
       id="path156"
       inkscape:connector-curvature="0" />
    <path
       style="fill:#000000;fill-opacity:0"
       d="M 9.125,13.375 9,13 9.375,13.125 q 0.375,0.125 0.5,0.5 Q 10,14 9.625,13.875 9.25,13.75 9.125,13.375"
       id="path158"
       inkscape:connector-curvature="0" />
    <path
       style="fill:#f2c44d;fill-opacity:1"
       d="M 11.125,13.375 11,13 H 11.5 12 11.625 11.25 11.5 q 0.25,0 0.375,-0.125 L 12,12.75 11.9375,12.8125 11.875,12.875 12.0625,13.3125 Q 12.25,13.75 12.625,13.875 L 13,14 V 14.5 15 H 12.5 Q 12,15 11.875,14.625 11.75,14.25 11.5,14 11.25,13.75 11.125,13.375 M 12.625,15 H 13 13.125 13.25 13 q -0.25,0 -0.5,0 h -0.25 0.375"
       id="path160"
       inkscape:connector-curvature="0" />
    <path
       style="fill:#e5a282;fill-opacity:1"
       d="M 13,13.5 V 13 H 13.5 14 V 13.5 14 H 13.5 13 v -0.5 m 1,0.625 V 14 13.625 13.25 13.5 q 0,0.25 0,0.5 v 0.25 -0.125 m -1,-1.25 V 13 13.375 13.75 13.5 q 0,-0.25 0,-0.5 v -0.25 0.125"
       id="path162"
       inkscape:connector-curvature="0" />
    <path
       style="fill:#a05000;fill-opacity:1"
       d="M 14,13.5 V 13 h 0.5 0.5 v 0.5 q 0,0.5 0.125,0.875 0.125,0.375 0.5,0.5 L 16,15 v 0.5 q 0,0.5 0,1 V 17 H 15.5 15 v -0.5 q 0,-0.5 -0.125,-0.875 -0.125,-0.375 -0.5,-0.5 L 14,15 14.28125,15.09375 14.5625,15.1875 14.375,15.125 Q 14.1875,15.0625 13.96875,15.03125 L 13.75,15 l 0.109375,0.01563 0.109375,0.01563 0.01563,-0.515625 Q 14,14 14,13.5 m 1,-0.125 V 13 12.875 12.75 13 q 0,0.25 0,0.5 v 0.25 -0.375"
       id="path164"
       inkscape:connector-curvature="0" />
    <path
       style="fill:#002020;fill-opacity:1"
       d="m 19.125,13.625 q 0.125,-0.375 0.5,-0.5 L 20,13 v 0.5 q 0,0.5 0,1 0,0.5 0,1 0,0.5 -0.01563,0.984375 l -0.01563,0.484375 0.109375,-0.01563 0.109375,-0.01563 -0.21875,0.03125 Q 19.75,17 19.5,17 H 19.25 19.625 20 19.5 19 v -0.5 q 0,-0.5 0,-1 0,-0.5 0,-1 0,-0.5 0.125,-0.875 M 18.875,17 H 19 19.375 19.75 19.5 q -0.25,0 -0.5,0 h -0.25 0.125 M 20,13.375 V 13 12.875 12.75 13 q 0,0.25 0,0.5 v 0.25 -0.375"
       id="path166"
       inkscape:connector-curvature="0" />
    <path
       style="fill:#006060;fill-opacity:1"
       d="M 21,13.5 V 13 l 0.375,0.125 q 0.375,0.125 0.5,0.5 Q 22,14 22,14.5 22,15 22.01563,15.515625 L 22.03126,16.03125 22.140635,16.01562 22.25,16 22.03125,16.03125 Q 21.8125,16.0625 21.625,16.125 L 21.4375,16.1875 21.71875,16.09375 22,16 21.625,16.125 Q 21.25,16.25 21,16.5 20.75,16.75 20.375,16.875 L 20,17 20.28125,16.90625 20.5625,16.8125 20.375,16.875 q -0.1875,0.0625 -0.40625,0.09375 L 19.75,17 19.859375,16.98437 19.96875,16.96874 19.98438,16.484365 Q 20,16 20,15.5 V 15 l 0.375,-0.125 q 0.375,-0.125 0.5,-0.5 Q 21,14 21,13.5 m -1,1.375 V 15 15.375 15.75 15.5 q 0,-0.25 0,-0.5 v -0.25 0.125 m 1,-2 V 13 13.375 13.75 13.5 q 0,-0.25 0,-0.5 v -0.25 0.125"
       id="path168"
       inkscape:connector-curvature="0" />
    <path
       style="fill:#807020;fill-opacity:1"
       d="M 13,14.5 V 14 h 0.5 0.5 l -0.01563,0.515625 -0.01563,0.515625 0.109375,0.01563 0.109375,0.01563 -0.21875,-0.03125 Q 13.75,15 13.5,15 H 13.25 13.625 14 13.5 13 V 14.5 M 12.875,15 H 13 13.375 13.75 13.5 q -0.25,0 -0.5,0 h -0.25 0.125 M 14,14.375 V 14 13.875 13.75 14 q 0,0.25 0,0.5 v 0.25 -0.375"
       id="path170"
       inkscape:connector-curvature="0" />
    <path
       style="fill:#c0a040;fill-opacity:1"
       d="m 16.125,14.625 q 0.125,-0.375 0.5,-0.5 L 17,14 16.71875,14.09375 16.4375,14.1875 16.625,14.125 q 0.1875,-0.0625 0.28125,-0.21875 L 17,13.75 16.95313,13.82813 16.90626,13.90626 16.95313,14.453135 17,15 H 16.5 16 l 0.125,-0.375"
       id="path172"
       inkscape:connector-curvature="0" />
    <path
       style="fill:#f2c44d;fill-opacity:1"
       d="m 29,14.5 q 0.25,-0.25 0.5,-0.25 0.25,0 0.25,0.25 0,0.25 -0.25,0.5 -0.25,0.25 -0.5,0.5 -0.25,0.25 -0.625,0.375 Q 28,16 28,15.5 28,15 28.375,14.875 28.75,14.75 29,14.5"
       id="path174"
       inkscape:connector-curvature="0" />
    <path
       style="fill:#401000;fill-opacity:1"
       d="m 9.25,15.5 q 0,-0.25 0.375,-0.375 Q 10,15 10.375,15.125 10.75,15.25 11,15.5 11.25,15.75 11.625,15.875 12,16 12.375,16.125 12.75,16.25 13,16.5 q 0.25,0.25 0.625,0.375 L 14,17 13.71875,16.90625 13.4375,16.8125 13.625,16.875 q 0.1875,0.0625 0.40625,0.09375 L 14.25,17 14.140625,16.984375 14.03125,16.96875 14.015625,17.484375 14,18 13.484375,18.01563 12.96875,18.03126 12.98438,18.140635 13,18.25 12.96875,18.03125 Q 12.9375,17.8125 12.875,17.625 L 12.8125,17.4375 12.90625,17.71875 13,18 12.875,17.625 q -0.125,-0.375 -0.5,-0.5 L 12,17 11.484375,17.01563 10.96875,17.03126 10.98438,17.140635 11,17.25 10.96875,17.03125 Q 10.9375,16.8125 10.875,16.625 L 10.8125,16.4375 10.90625,16.71875 11,17 10.875,16.625 Q 10.75,16.25 10.375,16.125 10,16 9.625,15.875 9.25,15.75 9.25,15.5"
       id="path176"
       inkscape:connector-curvature="0" />
    <path
       style="fill:#001800;fill-opacity:1"
       d="m 12.046875,15.453125 0.04687,-0.546875 -0.07813,-0.04687 -0.07813,-0.04687 0.15625,0.09375 Q 12.25,15 12.5,15 H 12.75 12.375 12 12.5 q 0.5,0 1,0 0.5,0 0.875,0.125 0.375,0.125 0.5,0.5 Q 15,16 15,16.5 V 17 H 14.5 Q 14,17 13.625,16.875 13.25,16.75 13,16.5 12.75,16.25 12.375,16.125 L 12,16 12.046875,15.453125 M 11.90625,15.96875 12,16 12.28125,16.09375 12.5625,16.1875 12.375,16.125 Q 12.1875,16.0625 12,16 l -0.1875,-0.0625 0.09375,0.03125"
       id="path178"
       inkscape:connector-curvature="0" />
    <path
       style="fill:#ffd3af;fill-opacity:1"
       d="M 16,15.5 V 15 h 0.5 0.5 v 0.5 q 0,0.5 0,1 V 17 H 16.5 16 v -0.5 q 0,-0.5 0,-1 M 16.625,17 H 17 17.125 17.25 17 q -0.25,0 -0.5,0 h -0.25 0.375"
       id="path180"
       inkscape:connector-curvature="0" />
    <path
       style="fill:#7f5a48;fill-opacity:1"
       d="M 17,15.5 V 15 H 17.5 18 V 15.5 16 H 17.5 17 v -0.5 m 0,0.125 V 16 16.125 16.25 16 q 0,-0.25 0,-0.5 v -0.25 0.375"
       id="path182"
       inkscape:connector-curvature="0" />
    <path
       style="fill:#300c00;fill-opacity:1"
       d="M 18,15.5 V 15 H 18.5 19 V 15.5 16 H 18.5 18 v -0.5 m 1,0.625 V 16 15.625 15.25 15.5 q 0,0.25 0,0.5 v 0.25 -0.125 m 0,-0.75 V 15 14.875 14.75 15 q 0,0.25 0,0.5 v 0.25 -0.375"
       id="path184"
       inkscape:connector-curvature="0" />
    <path
       style="fill:#401000;fill-opacity:1"
       d="M 26,15.5 Q 26.25,15.25 26.625,15.125 27,15 27.546875,15.046875 l 0.546875,0.04687 0.04687,-0.07813 0.04687,-0.07813 -0.09375,0.15625 Q 28,15.25 28,15.5 V 15.75 15.375 15 15.5 16 15.625 15.25 15.5 q 0,0.25 0.125,0.375 L 28.25,16 28.1875,15.9375 28.125,15.875 27.5625,15.9375 Q 27,16 26.625,16.125 26.25,16.25 26,16.5 25.75,16.75 25.375,16.875 25,17 24.5,17 H 24 V 16.5 16 h 0.5 Q 25,16 25.375,15.875 25.75,15.75 26,15.5 M 24.375,16 H 24 23.875 23.75 24 q 0.25,0 0.5,0 h 0.25 -0.375 m -0.5,1 H 24 24.375 24.75 24.5 q -0.25,0 -0.5,0 h -0.25 0.125"
       id="path186"
       inkscape:connector-curvature="0" />
    <path
       style="fill:#e5a282;fill-opacity:1"
       d="M 17,16.5 V 16 h 0.5 0.5 v 0.5 Q 18,17 17.5,17 H 17 V 16.5 M 16.875,17 H 17 17.375 17.75 17.5 q -0.25,0 -0.5,0 h -0.25 0.125 M 17,15.875 V 16 16.375 16.75 16.5 q 0,-0.25 0,-0.5 v -0.25 0.125"
       id="path188"
       inkscape:connector-curvature="0" />
    <path
       style="fill:#001800;fill-opacity:1"
       d="M 18,16.5 V 16 H 18.5 19 V 16.5 17 L 18.4375,16.9375 17.875,16.875 17.8125,16.9375 17.75,17 17.875,16.875 Q 18,16.75 18,16.5 V 16.25 16.625 17 16.5 M 18.625,17 H 19 19.125 19.25 19 q -0.25,0 -0.5,0 h -0.25 0.375 M 19,16.375 V 16 15.875 15.75 16 q 0,0.25 0,0.5 v 0.25 -0.375"
       id="path190"
       inkscape:connector-curvature="0" />
    <path
       style="fill:#300c00;fill-opacity:1"
       d="M 21,16.5 Q 21.25,16.25 21.625,16.125 22,16 22.5,16 q 0.5,0 1,0 H 24 v 0.5 0.5 h -0.5 q -0.5,0 -1,0 -0.5,0 -0.875,0.125 -0.375,0.125 -0.5,0.5 L 21,18 21.09375,17.71875 21.1875,17.4375 21.125,17.625 q -0.0625,0.1875 -0.09375,0.40625 L 21,18.25 21.01563,18.140625 21.03126,18.03125 20.515635,18.01562 Q 20,18 19.5,18 q -0.5,0 -1,0 -0.5,0 -1,0 -0.5,0 -0.984375,-0.01563 l -0.484375,-0.01563 0.01563,0.109375 0.01563,0.109375 -0.03125,-0.21875 Q 16,17.75 16,17.5 V 17.25 17.625 18 17.5 17 h 0.5 q 0.5,0 1,0 H 18 17.625 17.25 17.5 q 0.25,0 0.375,-0.125 L 18,16.75 17.9375,16.8125 17.875,16.875 18.4375,16.9375 Q 19,17 19.5,17 20,17 20.375,16.875 20.75,16.75 21,16.5 M 23.625,17 H 24 24.125 24.25 24 q -0.25,0 -0.5,0 h -0.25 0.375 m 0.5,-1 H 24 23.625 23.25 23.5 q 0.25,0 0.5,0 h 0.25 -0.125"
       id="path192"
       inkscape:connector-curvature="0" />
    <path
       style="fill:#204000;fill-opacity:1"
       d="M 11,17.5 V 17 17.375 17.75 17.5 q 0,-0.25 -0.03125,-0.46875 L 10.9375,16.8125 10.95313,16.921875 10.96876,17.03125 11.484385,17.01562 12,17 l 0.125,0.375 q 0.125,0.375 -0.15625,0.65625 l -0.28125,0.28125 0.0625,0.0625 0.0625,0.0625 -0.125,-0.125 Q 11.5625,18.1875 11.375,18.125 L 11.1875,18.0625 11.46875,18.15625 11.75,18.25 11.375,18.125 11,18 v -0.5 m 0,0.125 V 18 18.125 18.25 18 q 0,-0.25 0,-0.5 v -0.25 0.375"
       id="path194"
       inkscape:connector-curvature="0" />
    <path
       style="fill:#183000;fill-opacity:1"
       d="M 12.125,17.375 12,17 l 0.375,0.125 q 0.375,0.125 0.5,0.5 Q 13,18 13,18.5 q 0,0.5 0,1 0,0.5 -0.125,0.875 -0.125,0.375 -0.5,0.5 L 12,21 v -0.5 q 0,-0.5 0,-1 0,-0.5 -0.125,-0.875 L 11.75,18.25 11.84375,18.53125 11.9375,18.8125 11.875,18.625 q -0.0625,-0.1875 -0.1875,-0.3125 l -0.125,-0.125 0.0625,0.0625 0.0625,0.0625 0.28125,-0.28125 Q 12.25,17.75 12.125,17.375 M 12,20.625 V 21 21.125 21.25 21 q 0,-0.25 0,-0.5 v -0.25 0.375"
       id="path196"
       inkscape:connector-curvature="0" />
    <path
       style="fill:#300c00;fill-opacity:1"
       d="M 14.015625,17.484375 14.03125,16.96875 13.921875,16.953125 13.8125,16.9375 14.03125,16.96875 Q 14.25,17 14.5,17 H 14.75 14.375 14 14.5 15 V 17.5 18 H 14.5 14 l 0.01563,-0.515625 M 15,18.125 V 18 17.625 17.25 17.5 q 0,0.25 0,0.5 v 0.25 -0.125"
       id="path198"
       inkscape:connector-curvature="0" />
    <path
       style="fill:#c06000;fill-opacity:1"
       d="M 15,17.5 V 17 h 0.5 0.5 v 0.5 q 0,0.5 0.125,0.875 0.125,0.375 0.5,0.5 L 17,19 v 0.5 q 0,0.5 0,1 0,0.5 0,1 V 22 H 16.5 16 v -0.5 q 0,-0.5 0,-1 0,-0.5 -0.125,-0.875 -0.125,-0.375 -0.5,-0.5 L 15,19 v -0.5 q 0,-0.5 0,-1 m 0,1.125 V 19 19.125 19.25 19 q 0,-0.25 0,-0.5 v -0.25 0.375 M 15.875,22 H 16 16.375 16.75 16.5 q -0.25,0 -0.5,0 h -0.25 0.125 M 17,19.375 V 19 18.875 18.75 19 q 0,0.25 0,0.5 v 0.25 -0.375"
       id="path200"
       inkscape:connector-curvature="0" />
    <path
       style="fill:#006060;fill-opacity:1"
       d="m 21.125,17.625 q 0.125,-0.375 0.5,-0.5 L 22,17 21.71875,17.09375 21.4375,17.1875 21.625,17.125 q 0.1875,-0.0625 0.40625,-0.09375 L 22.25,17 22.140625,17.01563 22.03125,17.03126 22.01562,17.515635 Q 22,18 21.875,18.375 21.75,18.75 21.390625,18.859375 l -0.359375,0.109375 0.01563,0.109375 0.01563,0.109375 -0.03125,-0.21875 Q 21,18.75 21,18.5 V 18.25 18.625 19 18.5 q 0,-0.5 0.125,-0.875"
       id="path202"
       inkscape:connector-curvature="0" />
    <path
       style="fill:#002020;fill-opacity:1"
       d="m 22.015625,17.515625 0.01563,-0.484375 -0.109375,0.01563 -0.109375,0.01563 0.21875,-0.03125 Q 22.25,17 22.5,17 H 22.75 22.375 22 22.5 23 v 0.5 0.5 l -0.515625,-0.01563 -0.515625,-0.01563 -0.01563,0.109375 -0.01563,0.109375 0.03125,-0.21875 Q 22,17.75 22,17.5 V 17.25 17.625 18 l 0.01563,-0.484375 M 23,18.125 V 18 17.625 17.25 17.5 q 0,0.25 0,0.5 v 0.25 -0.125 M 23.125,17 H 23 22.625 22.25 22.5 q 0.25,0 0.5,0 h 0.25 -0.125"
       id="path204"
       inkscape:connector-curvature="0" />
    <path
       style="fill:#408000;fill-opacity:1"
       d="M 11,18.5 V 18 l 0.375,0.125 q 0.375,0.125 0.5,0.5 Q 12,19 12,19.5 q 0,0.5 0,1 0,0.5 0,1 V 22 l -0.484375,-0.01563 -0.484375,-0.01563 0.01563,0.109375 0.01563,0.109375 -0.03125,-0.21875 Q 11,21.75 11,21.5 V 21.25 21.625 22 21.5 q 0,-0.5 0,-1 0,-0.5 0,-1 0,-0.5 0,-1 m 0,-0.625 V 18 18.375 18.75 18.5 q 0,-0.25 0,-0.5 v -0.25 0.125"
       id="path206"
       inkscape:connector-curvature="0" />
    <path
       style="fill:#001800;fill-opacity:1"
       d="M 13,18.5 V 18 18.375 18.75 18.5 q 0,-0.25 -0.03125,-0.46875 L 12.9375,17.8125 12.95313,17.921875 12.96876,18.03125 13.484385,18.01562 14,18 v 0.5 q 0,0.5 0,1 0,0.5 0,1 0,0.5 0,1 V 22 21.625 21.25 21.5 q 0,0.25 0.03125,0.46875 L 14.0625,22.1875 14.04687,22.078125 14.03124,21.96875 13.515615,21.98438 Q 13,22 12.5,22 H 12 V 21.5 21 l 0.375,-0.125 q 0.375,-0.125 0.5,-0.5 Q 13,20 13,19.5 q 0,-0.5 0,-1 m -1,2.375 V 21 21.375 21.75 21.5 q 0,-0.25 0,-0.5 v -0.25 0.125"
       id="path208"
       inkscape:connector-curvature="0" />
    <path
       style="fill:#180000;fill-opacity:1"
       d="M 14,18.5 V 18 h 0.5 0.5 v 0.5 q 0,0.5 0,1 0,0.5 0,1 0,0.5 0,1 0,0.5 0,1 V 23 22.625 22.25 22.5 q 0,0.25 -0.03125,0.46875 L 14.9375,23.1875 14.95313,23.078125 14.96876,22.96875 14.609385,22.859375 Q 14.25,22.75 14.125,22.375 14,22 14,21.5 q 0,-0.5 0,-1 0,-0.5 0,-1 0,-0.5 0,-1 m 1,-0.125 V 18 17.875 17.75 18 q 0,0.25 0,0.5 v 0.25 -0.375"
       id="path210"
       inkscape:connector-curvature="0" />
    <path
       style="fill:#183000;fill-opacity:1"
       d="M 16.125,18.375 16,18 16.09375,18.28125 16.1875,18.5625 16.125,18.375 Q 16.0625,18.1875 16.03125,17.96875 L 16,17.75 l 0.01563,0.109375 0.01563,0.109375 0.484375,0.01563 L 17,18 v 0.5 0.5 l -0.375,-0.125 q -0.375,-0.125 -0.5,-0.5 M 17,19.125 V 19 18.625 18.25 18.5 q 0,0.25 0,0.5 v 0.25 -0.125 M 17.125,18 H 17 16.625 16.25 16.5 q 0.25,0 0.5,0 h 0.25 -0.125"
       id="path212"
       inkscape:connector-curvature="0" />
    <path
       style="fill:#408000;fill-opacity:1"
       d="M 17,18.5 V 18 h 0.5 0.5 l 0.125,0.375 q 0.125,0.375 0.5,0.5 L 19,19 v 0.5 q 0,0.5 0,1 0,0.5 -0.125,0.875 -0.125,0.375 -0.375,0.375 -0.25,0 -0.375,-0.375 Q 18,21 17.875,20.625 17.75,20.25 17.375,20.125 L 17,20 v -0.5 q 0,-0.5 0,-1 m 0,1.125 V 20 20.125 20.25 20 q 0,-0.25 0,-0.5 v -0.25 0.375 m 2,-0.25 V 19 18.875 18.75 19 q 0,0.25 0,0.5 v 0.25 -0.375 M 18.125,18 H 18 17.625 17.25 17.5 q 0.25,0 0.5,0 h 0.25 -0.125 m -0.75,0 H 17 16.875 16.75 17 q 0.25,0 0.5,0 h 0.25 -0.375"
       id="path214"
       inkscape:connector-curvature="0" />
    <path
       style="fill:#204000;fill-opacity:1"
       d="M 18.125,18.375 18,18 h 0.5 0.5 v 0.5 0.5 l -0.375,-0.125 q -0.375,-0.125 -0.5,-0.5 M 19,19.125 V 19 18.625 18.25 18.5 q 0,0.25 0,0.5 v 0.25 -0.125 M 19.125,18 H 19 18.625 18.25 18.5 q 0.25,0 0.5,0 h 0.25 -0.125 m -0.75,0 H 18 17.875 17.75 18 q 0.25,0 0.5,0 h 0.25 -0.375"
       id="path216"
       inkscape:connector-curvature="0" />
    <path
       style="fill:#001800;fill-opacity:1"
       d="M 19,18.5 V 18 h 0.5 0.5 v 0.5 Q 20,19 20.125,19.375 20.25,19.75 20.5,20 20.75,20.25 20.875,20.625 21,21 21,21.5 q 0,0.5 0,1 0,0.5 0,1 0,0.5 0,1 V 25 H 20.5 20 v -0.5 q 0,-0.5 0,-1 0,-0.5 0,-1 0,-0.5 0,-1 0,-0.5 -0.125,-0.875 -0.125,-0.375 -0.5,-0.5 L 19,20 v -0.5 q 0,-0.5 0,-1 m 0,1.125 V 20 20.125 20.25 20 q 0,-0.25 0,-0.5 v -0.25 0.375 M 19.875,25 H 20 20.375 20.75 20.5 q -0.25,0 -0.5,0 h -0.25 0.125 M 21,25.125 V 25 24.625 24.25 24.5 q 0,0.25 0,0.5 v 0.25 -0.125 M 20.125,18 H 20 19.625 19.25 19.5 q 0.25,0 0.5,0 h 0.25 -0.125 m -0.75,0 H 19 18.875 18.75 19 q 0.25,0 0.5,0 h 0.25 -0.375"
       id="path218"
       inkscape:connector-curvature="0" />
    <path
       style="fill:#002020;fill-opacity:1"
       d="M 20,18.5 V 18 l 0.515625,0.01563 0.515625,0.01563 0.01563,-0.109375 0.01563,-0.109375 -0.03125,0.21875 Q 21,18.25 21,18.5 V 18.75 18.375 18 18.5 q 0,0.5 0.125,0.875 0.125,0.375 0.515625,0.515625 l 0.390625,0.140625 0.01563,-0.109375 0.01563,-0.109375 -0.03125,0.21875 Q 22,20.25 22,20.5 V 20.75 20.375 20 20.5 q 0,0.5 0,1 0,0.5 0,1 0,0.5 0,1 0,0.5 0,1 0,0.5 -0.125,0.875 -0.125,0.375 -0.484375,0.484375 l -0.359375,0.109375 0.01563,0.109375 0.01563,0.109375 -0.03125,-0.21875 Q 21,25.75 21,25.5 V 25.25 25.625 26 25.5 q 0,-0.5 0,-1 0,-0.5 0,-1 0,-0.5 0,-1 0,-0.5 0,-1 Q 21,21 20.875,20.625 20.75,20.25 20.5,20 20.25,19.75 20.125,19.375 20,19 20,18.5 M 20.375,18 H 20 19.875 19.75 20 q 0.25,0 0.5,0 h 0.25 -0.375"
       id="path220"
       inkscape:connector-curvature="0" />
    <path
       style="fill:#004040;fill-opacity:1"
       d="M 21.875,18.375 22,18 21.90625,18.28125 21.8125,18.5625 21.875,18.375 q 0.0625,-0.1875 0.09375,-0.40625 L 22,17.75 21.98437,17.859375 21.96874,17.96875 22.484365,17.98438 23,18 v 0.5 0.5 l -0.375,0.125 q -0.375,0.125 -0.5,0.5 L 22,20 22.09375,19.71875 22.1875,19.4375 22.125,19.625 q -0.0625,0.1875 -0.09375,0.40625 L 22,20.25 22.015625,20.140625 22.03125,20.03125 21.640625,19.890625 Q 21.25,19.75 21.125,19.375 L 21,19 21.09375,19.28125 21.1875,19.5625 21.125,19.375 Q 21.0625,19.1875 21.03125,18.96875 L 21,18.75 l 0.01563,0.109375 0.01563,0.109375 0.359375,-0.109375 Q 21.75,18.75 21.875,18.375 M 23,19.125 V 19 18.625 18.25 18.5 q 0,0.25 0,0.5 v 0.25 -0.125 m 0,-0.75 V 18 17.875 17.75 18 q 0,0.25 0,0.5 v 0.25 -0.375"
       id="path222"
       inkscape:connector-curvature="0" />
    <path
       style="fill:#001800;fill-opacity:1"
       d="M 15,19.5 V 19 l 0.375,0.125 q 0.375,0.125 0.5,0.5 Q 16,20 16,20.5 q 0,0.5 0,1 V 22 H 15.5 15 v -0.5 q 0,-0.5 0,-1 0,-0.5 0,-1 m 0,2.125 V 22 22.125 22.25 22 q 0,-0.25 0,-0.5 v -0.25 0.375 M 15.625,22 H 16 16.125 16.25 16 q -0.25,0 -0.5,0 h -0.25 0.375 M 15,18.875 V 19 19.375 19.75 19.5 q 0,-0.25 0,-0.5 v -0.25 0.125"
       id="path224"
       inkscape:connector-curvature="0" />
    <path
       style="fill:#006060;fill-opacity:1"
       d="m 22.125,19.625 q 0.125,-0.375 0.5,-0.5 L 23,19 v 0.5 q 0,0.5 0,1 0,0.5 0,1 0,0.5 0,1 0,0.5 -0.125,0.875 -0.125,0.375 -0.5,0.5 L 22,24 v -0.5 q 0,-0.5 0,-1 0,-0.5 0,-1 0,-0.5 0,-1 0,-0.5 0.125,-0.875 m -0.125,4 V 24 24.125 24.25 24 q 0,-0.25 0,-0.5 v -0.25 0.375 m 1,-4.25 V 19 18.875 18.75 19 q 0,0.25 0,0.5 v 0.25 -0.375"
       id="path226"
       inkscape:connector-curvature="0" />
    <path
       style="fill:#204000;fill-opacity:1"
       d="M 17,20.5 V 20 l 0.375,0.125 q 0.375,0.125 0.5,0.5 Q 18,21 18.125,21.375 18.25,21.75 18.5,21.75 H 18.75 18.5625 18.375 18.5 q 0.125,0 0.21875,-0.09375 l 0.09375,-0.09375 -0.04687,0.04687 -0.04687,0.04687 0.265625,0.296875 Q 19.25,22.25 19.25,22.5 q 0,0.25 -0.296875,0.515625 L 18.65625,23.28125 18.70312,23.32812 18.75,23.375 18.65625,23.28125 Q 18.5625,23.1875 18.375,23.125 L 18.1875,23.0625 18.46875,23.15625 18.75,23.25 18.34375,23.125 17.9375,23 V 23.09375 23.1875 23 q 0,-0.1875 -0.0625,-0.375 L 17.8125,22.4375 17.90625,22.71875 18,23 17.875,22.625 q -0.125,-0.375 -0.5,-0.5 L 17,22 v -0.5 q 0,-0.5 0,-1 m 0,-0.625 V 20 20.375 20.75 20.5 q 0,-0.25 0,-0.5 v -0.25 0.125"
       id="path228"
       inkscape:connector-curvature="0" />
    <path
       style="fill:#183000;fill-opacity:1"
       d="M 19,20.5 V 20 l 0.375,0.125 q 0.375,0.125 0.5,0.5 Q 20,21 20,21.5 q 0,0.5 0,1 0,0.5 0,1 0,0.5 0,1 V 25 h -0.5 q -0.5,0 -1,0 H 18 l 0.125,-0.375 Q 18.25,24.25 18.5,24 18.75,23.75 18.75,23.5 V 23.25 23.4375 23.625 23.5 q 0,-0.125 -0.09375,-0.21875 l -0.09375,-0.09375 0.04687,0.04687 0.04687,0.04687 0.296875,-0.265625 Q 19.25,22.75 19.25,22.5 q 0,-0.25 -0.265625,-0.546875 L 18.71875,21.65625 18.671875,21.703125 18.625,21.75 18.71875,21.65625 Q 18.8125,21.5625 18.875,21.375 L 18.9375,21.1875 18.84375,21.46875 18.75,21.75 18.875,21.375 Q 19,21 19,20.5 M 19.625,25 H 20 20.125 20.25 20 q -0.25,0 -0.5,0 h -0.25 0.375 M 19,19.875 V 20 20.375 20.75 20.5 q 0,-0.25 0,-0.5 v -0.25 0.125"
       id="path230"
       inkscape:connector-curvature="0" />
    <path
       style="fill:#002020;fill-opacity:1"
       d="M 23,20.5 V 20 l 0.375,0.125 q 0.375,0.125 0.5,0.5 Q 24,21 24,21.5 V 22 H 23.5 23 v -0.5 q 0,-0.5 0,-1 m 0,1.125 V 22 22.125 22.25 22 q 0,-0.25 0,-0.5 v -0.25 0.375 m 1,0.5 V 22 21.625 21.25 21.5 q 0,0.25 0,0.5 v 0.25 -0.125 m -1,-2.25 V 20 20.375 20.75 20.5 q 0,-0.25 0,-0.5 v -0.25 0.125"
       id="path232"
       inkscape:connector-curvature="0" />
    <path
       style="fill:#204000;fill-opacity:1"
       d="M 11.125,22.375 11,22 11.09375,22.28125 11.1875,22.5625 11.125,22.375 Q 11.0625,22.1875 11.03125,21.96875 L 11,21.75 l 0.01563,0.109375 0.01563,0.109375 0.484375,0.01563 L 12,22 v 0.5 0.5 l -0.375,-0.125 q -0.375,-0.125 -0.5,-0.5 M 12,23.125 V 23 22.625 22.25 22.5 q 0,0.25 0,0.5 v 0.25 -0.125"
       id="path234"
       inkscape:connector-curvature="0" />
    <path
       style="fill:#300c00;fill-opacity:1"
       d="M 12,22.5 V 22 h 0.5 q 0.5,0 1.015625,-0.01563 L 14.03125,21.96875 14.015625,21.859375 14,21.75 14.03125,21.96875 Q 14.0625,22.1875 14.125,22.375 L 14.1875,22.5625 14.09375,22.28125 14,22 l 0.125,0.375 q 0.125,0.375 0.484375,0.484375 L 14.96875,22.96875 14.984375,22.859375 15,22.75 14.96875,22.96875 Q 14.9375,23.1875 14.875,23.375 L 14.8125,23.5625 14.90625,23.28125 15,23 14.875,23.375 Q 14.75,23.75 14.5,24 14.25,24.25 14.125,24.625 L 14,25 14.09375,24.71875 14.1875,24.4375 14.125,24.625 q -0.0625,0.1875 -0.09375,0.40625 L 14,25.25 14.015625,25.140625 14.03125,25.03125 13.640625,24.890625 Q 13.25,24.75 13,24.5 12.75,24.25 12.375,24.125 L 12,24 v -0.5 q 0,-0.5 0,-1 m 0,1.125 V 24 24.125 24.25 24 q 0,-0.25 0,-0.5 v -0.25 0.375"
       id="path236"
       inkscape:connector-curvature="0" />
    <path
       style="fill:#101010;fill-opacity:1"
       d="M 15,22.5 V 22 h 0.5 q 0.5,0 1,0 H 17 L 16.9375,22.5625 16.875,23.125 16.9375,23.1875 17,23.25 16.875,23.125 Q 16.75,23 16.5,23 H 16.25 16.625 17 l -0.375,0.125 Q 16.25,23.25 16.25,23.5 V 23.75 23.5625 23.375 23.5 q 0,0.125 0.09375,0.21875 l 0.09375,0.09375 -0.04687,-0.04687 -0.04687,-0.04687 -0.296875,0.265625 Q 15.75,24.25 15.5,24.25 q -0.25,0 -0.515625,-0.265625 L 14.71875,23.71875 14.671875,23.796875 14.625,23.875 14.71875,23.71875 Q 14.8125,23.5625 14.875,23.375 L 14.9375,23.1875 14.84375,23.46875 14.75,23.75 14.875,23.375 Q 15,23 15,22.5 m 0,-0.625 V 22 22.375 22.75 22.5 q 0,-0.25 0,-0.5 v -0.25 0.125"
       id="path238"
       inkscape:connector-curvature="0" />
    <path
       style="fill:#a05000;fill-opacity:1"
       d="M 16.9375,22.5625 17,22 l 0.375,0.125 q 0.375,0.125 0.5,0.5 0.125,0.375 0,0.75 -0.125,0.375 -0.5,0.5 L 17,24 V 23.5 23 23.375 23.75 23.5 q 0,-0.25 -0.125,-0.375 L 16.75,23 l 0.0625,0.0625 0.0625,0.0625 0.0625,-0.5625"
       id="path240"
       inkscape:connector-curvature="0" />
    <path
       style="fill:#004040;fill-opacity:1"
       d="M 23,22.5 V 22 h 0.5 0.5 v 0.5 Q 24,23 23.875,23.375 23.75,23.75 23.5,24 23.25,24.25 23,24.5 22.75,24.75 22.359375,24.859375 L 21.96875,24.96875 21.953125,25.078125 21.9375,25.1875 21.96875,24.96875 Q 22,24.75 22,24.5 V 24.25 24.625 25 24.5 24 l 0.375,-0.125 q 0.375,-0.125 0.5,-0.5 Q 23,23 23,22.5 m -1,1.375 V 24 24.375 24.75 24.5 q 0,-0.25 0,-0.5 v -0.25 0.125 m 2,-1.5 V 22 21.875 21.75 22 q 0,0.25 0,0.5 v 0.25 -0.375 m -1,-0.5 V 22 22.375 22.75 22.5 q 0,-0.25 0,-0.5 v -0.25 0.125"
       id="path242"
       inkscape:connector-curvature="0" />
    <path
       style="fill:#ffffff;fill-opacity:1"
       d="m 16.25,23.5 q 0,-0.25 0.375,-0.375 Q 17,23 17,23.5 V 24 L 16.625,23.875 Q 16.25,23.75 16.25,23.5"
       id="path244"
       inkscape:connector-curvature="0" />
    <path
       style="fill:#b0b0b0;fill-opacity:1"
       d="M 17.875,23.375 18,23 17.90625,23.28125 17.8125,23.5625 17.875,23.375 Q 17.9375,23.1875 17.9375,23 V 22.8125 22.90625 23 l 0.40625,0.125 Q 18.75,23.25 18.75,23.5 q 0,0.25 -0.25,0.5 -0.25,0.25 -0.375,0.625 L 18,25 17.625,24.875 q -0.375,-0.125 -0.5,-0.5 L 17,24 17.375,23.875 q 0.375,-0.125 0.5,-0.5"
       id="path246"
       inkscape:connector-curvature="0" />
    <path
       style="fill:#601800;fill-opacity:1"
       d="M 12,24.5 V 24 l 0.375,0.125 Q 12.75,24.25 13,24.5 q 0.25,0.25 0.640625,0.390625 l 0.390625,0.140625 0.01563,-0.109375 0.01563,-0.109375 -0.03125,0.21875 Q 14,25.25 14,25.5 V 25.75 25.375 25 25.5 q 0,0.5 0,1 0,0.5 -0.125,0.875 Q 13.75,27.75 13.5,28 13.25,28.25 13.125,28.625 13,29 12.875,29.375 12.75,29.75 12.5,30 12.25,30.25 12,30.5 11.75,30.75 11.375,30.875 11,31 10.5,31 H 10 10.375 10.75 10.5 q -0.25,0 -0.46875,-0.03125 L 9.8125,30.9375 l 0.109375,0.01563 0.109375,0.01563 0.109375,-0.359375 Q 10.25,30.25 10.625,30.125 11,30 11.375,29.875 11.75,29.75 11.875,29.375 12,29 12.125,28.625 12.25,28.25 12.5,28 q 0.25,-0.25 0.25,-0.5 0,-0.25 -0.375,-0.375 L 12,27 12.28125,27.09375 12.5625,27.1875 12.375,27.125 Q 12.1875,27.0625 12,27.0625 H 11.8125 11.90625 12 V 26.53125 Q 12,26 12,25.5 q 0,-0.5 0,-1 m 0,-0.625 V 24 24.375 24.75 24.5 q 0,-0.25 0,-0.5 v -0.25 0.125"
       id="path248"
       inkscape:connector-curvature="0" />
    <path
       style="fill:#300c00;fill-opacity:1"
       d="M 18.125,25.375 18,25 h 0.5 q 0.5,0 1,0 0.5,0 1,0 H 21 v 0.5 q 0,0.5 0.125,0.875 0.125,0.375 0.375,0.625 0.25,0.25 0.359375,0.640625 l 0.109375,0.390625 0.109375,0.01563 0.109375,0.01563 -0.21875,-0.03125 Q 21.75,28 21.5,28 H 21.25 21.625 22 21.5 21 L 20.875,27.625 Q 20.75,27.25 20.5,27 20.25,26.75 20,26.5 19.75,26.25 19.375,26.125 19,26 18.625,25.875 18.25,25.75 18.125,25.375 M 20.90625,27.71875 21,28 21.03125,28.09375 21.0625,28.1875 21,28 q -0.0625,-0.1875 -0.125,-0.375 l -0.0625,-0.1875 0.09375,0.28125 M 21,25.375 V 25 24.875 24.75 25 q 0,0.25 0,0.5 v 0.25 -0.375"
       id="path250"
       inkscape:connector-curvature="0" />
    <path
       style="fill:#601800;fill-opacity:1"
       d="M 19,26.5 V 26 l 0.375,0.125 Q 19.75,26.25 20,26.5 q 0.25,0.25 0.5,0.5 0.25,0.25 0.375,0.625 0.125,0.375 0.25,0.75 0.125,0.375 0.5,0.5 Q 22,29 22.46875,29 H 22.9375 V 28.90625 28.8125 29 q 0,0.1875 -0.0625,0.375 L 22.8125,29.5625 22.90625,29.28125 23,29 22.875,29.375 q -0.125,0.375 -0.5,0.5 Q 22,30 21.625,29.875 21.25,29.75 21,29.5 20.75,29.25 20.5,29 20.25,28.75 20,28.5 19.75,28.25 19.5,28 19.25,27.75 19.125,27.375 19,27 19,26.5 M 19.28125,26.09375 19,26 18.90625,25.96875 18.8125,25.9375 19,26 q 0.1875,0.0625 0.375,0.125 l 0.1875,0.0625 -0.28125,-0.09375"
       id="path252"
       inkscape:connector-curvature="0" />
    <path
       style="fill:#802000;fill-opacity:1"
       d="m 11.125,27.625 q 0.125,-0.375 0.5,-0.5 0.375,-0.125 0.75,0 0.375,0.125 0.375,0.375 0,0.25 -0.25,0.5 -0.25,0.25 -0.375,0.625 L 12,29 H 11.5 11 11.375 11.75 11.5 q -0.25,0 -0.46875,0.03125 L 10.8125,29.0625 10.921875,29.04687 11.03125,29.03124 11.01562,28.515615 Q 11,28 11.125,27.625 M 11.96875,29.09375 12,29 12.09375,28.71875 12.1875,28.4375 12.125,28.625 Q 12.0625,28.8125 12,29 l -0.0625,0.1875 0.03125,-0.09375"
       id="path254"
       inkscape:connector-curvature="0" />
    <path
       style="fill:#a02800;fill-opacity:1"
       d="M 21.125,28.375 21,28 h 0.5 q 0.5,0 0.875,0.125 0.375,0.125 0.5,0.5 L 23,29 22.90625,28.71875 22.8125,28.4375 22.875,28.625 Q 22.9375,28.8125 22.9375,29 V 29.1875 29.09375 29 H 22.46875 Q 22,29 21.625,28.875 21.25,28.75 21.125,28.375 M 20.96875,27.90625 21,28 21.09375,28.28125 21.1875,28.5625 21.125,28.375 Q 21.0625,28.1875 21,28 l -0.0625,-0.1875 0.03125,0.09375"
       id="path256"
       inkscape:connector-curvature="0" />
    <path
       style="fill:#a02800;fill-opacity:1"
       d="M 10,29.5 Q 10.25,29.25 10.625,29.125 11,29 11.5,29 H 12 l -0.125,0.375 q -0.125,0.375 -0.5,0.5 Q 11,30 10.625,30.125 10.25,30.25 10.140625,30.609375 L 10.03125,30.96875 10.140625,30.984375 10.25,31 10.03125,30.96875 Q 9.8125,30.9375 9.625,30.875 L 9.4375,30.8125 9.71875,30.90625 10,31 9.625,30.875 Q 9.25,30.75 9.25,30.5 9.25,30.25 9.5,30 9.75,29.75 10,29.5 M 11.90625,29.28125 12,29 12.03125,28.90625 12.0625,28.8125 12,29 q -0.0625,0.1875 -0.125,0.375 l -0.0625,0.1875 0.09375,-0.28125"
       id="path258"
       inkscape:connector-curvature="0" />
  </g>
</svg>
