<?xml version="1.0" encoding="UTF-8" standalone="no"?>
<!-- Created with Inkscape (http://www.inkscape.org/) -->

<svg
   xmlns:dc="http://purl.org/dc/elements/1.1/"
   xmlns:cc="http://creativecommons.org/ns#"
   xmlns:rdf="http://www.w3.org/1999/02/22-rdf-syntax-ns#"
   xmlns:svg="http://www.w3.org/2000/svg"
   xmlns="http://www.w3.org/2000/svg"
   xmlns:sodipodi="http://sodipodi.sourceforge.net/DTD/sodipodi-0.dtd"
   xmlns:inkscape="http://www.inkscape.org/namespaces/inkscape"
   version="1.1"
   id="svg2"
   width="32"
   height="32"
   viewBox="0 0 32 32"
   sodipodi:docname="key.svg"
   inkscape:version="0.92.5 (2060ec1f9f, 2020-04-08)">
  <metadata
     id="metadata8">
    <rdf:RDF>
      <cc:Work
         rdf:about="">
        <dc:format>image/svg+xml</dc:format>
        <dc:type
           rdf:resource="http://purl.org/dc/dcmitype/StillImage" />
        <dc:title></dc:title>
      </cc:Work>
    </rdf:RDF>
  </metadata>
  <defs
     id="defs6" />
  <sodipodi:namedview
     pagecolor="#ffffff"
     bordercolor="#666666"
     borderopacity="1"
     objecttolerance="10"
     gridtolerance="10"
     guidetolerance="10"
     inkscape:pageopacity="0"
     inkscape:pageshadow="2"
     inkscape:window-width="1920"
     inkscape:window-height="1118"
     id="namedview4"
     showgrid="false"
     inkscape:zoom="5.6848956"
     inkscape:cx="19.546792"
     inkscape:cy="12.81134"
     inkscape:window-x="0"
     inkscape:window-y="24"
     inkscape:window-maximized="1"
     inkscape:current-layer="svg2" />
  <g
     id="g46"
     transform="matrix(-0.81429872,0.81429872,0.81429872,0.81429872,16,-10.057559)">
    <path
       style="fill:#000000;fill-opacity:0"
       d="M 0,0.5 V 0 H 0.5 1 1.5 2 2.5 3 3.5 4 4.5 5 5.5 6 6.5 7 7.5 8 8.5 9 9.5 10 10.5 11 11.5 12 12.5 13 13.5 14 14.5 15 15.5 16 16.5 17 17.5 18 18.5 19 19.5 20 20.5 21 21.5 22 22.5 23 23.5 24 24.5 25 25.5 26 26.5 27 27.5 28 28.5 29 29.5 30 30.5 31 31.5 32 V 0.5 1 1.5 2 2.5 3 3.5 4 4.5 5 5.5 6 6.5 7 7.5 8 8.5 9 9.5 10 10.5 11 11.5 12 12.5 13 13.5 14 14.5 15 15.5 16 16.5 17 17.5 18 18.5 19 19.5 20 20.5 21 21.5 22 22.5 23 23.5 24 24.5 25 25.5 26 26.5 27 27.5 28 28.5 29 29.5 30 30.5 31 31.5 32 H 31.5 31 30.5 30 29.5 29 28.5 28 27.5 27 26.5 26 25.5 25 24.5 24 23.5 23 22.5 22 21.5 21 20.5 20 19.5 19 18.5 18 17.5 17 16.5 16 15.5 15 14.5 14 13.5 13 12.5 12 11.5 11 10.5 10 9.5 9 8.5 8 7.5 7 6.5 6 5.5 5 4.5 4 3.5 3 2.5 2 1.5 1 0.5 0 V 31.5 31 30.5 30 29.5 29 28.5 28 27.5 27 26.5 26 25.5 25 24.5 24 23.5 23 22.5 22 21.5 21 20.5 20 19.5 19 18.5 18 17.5 17 16.5 16 15.5 15 14.5 14 13.5 13 12.5 12 11.5 11 10.5 10 9.5 9 8.5 8 7.5 7 6.5 6 5.5 5 4.5 4 3.5 3 2.5 2 1.5 1 0.5 M 27.5,21 Q 28,21 28,20.5 28,20 28.5,20 29,20 29,19.5 q 0,-0.5 0,-1 0,-0.5 0,-1 0,-0.5 0,-1 0,-0.5 0,-1 0,-0.5 0,-1 0,-0.5 -0.375,-0.625 -0.375,-0.125 -0.65625,0.15625 l -0.28125,0.28125 0.0625,0.0625 0.0625,0.0625 -0.125,-0.125 Q 27.5625,14.1875 27.375,14.125 L 27.1875,14.0625 27.46875,14.15625 27.75,14.25 27.375,14.125 Q 27,14 26.5,14 q -0.5,0 -1,0 -0.5,0 -1,0 -0.5,0 -1,0 -0.5,0 -1,0 -0.5,0 -1,0 -0.5,0 -1,0 -0.5,0 -1,0 -0.5,0 -1,0 -0.5,0 -1,0 -0.5,0 -1,0 -0.5,0 -1,0 -0.5,0 -1,0 -0.5,0 -1,0 -0.5,0 -1,0 -0.5,0 -1,0 H 11 v -0.5 q 0,-0.5 0,-1 0,-0.5 0,-1 Q 11,11 10.625,10.875 10.25,10.75 9.96875,11.03125 L 9.6875,11.3125 9.75,11.375 9.8125,11.4375 9.6875,11.3125 Q 9.5625,11.1875 9.375,11.125 L 9.1875,11.0625 9.46875,11.15625 9.75,11.25 9.375,11.125 Q 9,11 8.875,10.625 8.75,10.25 8.375,10.125 8,10 7.625,10.125 7.25,10.25 7,10.5 6.75,10.75 6.5,11 6.25,11.25 6.125,11.625 6,12 5.875,12.375 5.75,12.75 5.375,12.875 5,13 4.625,13.125 4.25,13.25 4,13.5 3.75,13.75 3.5,14 3.25,14.25 3.125,14.625 3,15 3.125,15.375 L 3.25,15.75 3.15625,15.46875 3.0625,15.1875 3.125,15.375 q 0.0625,0.1875 0.15625,0.34375 L 3.375,15.875 3.328125,15.796875 3.28125,15.71875 3.015625,15.984375 Q 2.75,16.25 2.875,16.625 3,17 3,17.5 3,18 3.5,18 4,18 4.5,18 5,18 5,18.5 5,19 5.375,19.125 5.75,19.25 5.875,19.625 6,20 6,20.5 6,21 6.5,21 q 0.5,0 1,0 0.5,0 1,0 0.5,0 1,0 0.5,0 0.5,-0.5 0,-0.5 0.5,-0.5 0.5,0 0.5,-0.5 0,-0.5 0,-1 0,-0.5 0.5,-0.5 0.5,0 1,0 0.5,0 1,0 0.5,0 1,0 0.5,0 1,0 0.5,0 1,0 0.5,0 1,0 0.5,0 0.5,0.5 0,0.5 0,1 0,0.5 0.5,0.5 0.5,0 1,0 0.5,0 0.5,0.5 0,0.5 0.5,0.5 0.5,0 1,0 0.5,0 0.5,-0.5 0,-0.5 0.5,-0.5 0.5,0 1,0 0.5,0 0.5,0.5 0,0.5 0.5,0.5 0.5,0 1,0 0.5,0 1,0 0.5,0 1,0"
       id="path12"
       inkscape:connector-curvature="0" />
    <path
       style="fill:#f2c44d;fill-opacity:1"
       d="m 7,10.5 q 0.25,-0.25 0.625,-0.375 0.375,-0.125 0.75,0 0.375,0.125 0.5,0.5 L 9,11 8.90625,10.71875 8.8125,10.4375 8.875,10.625 q 0.0625,0.1875 0.1875,0.3125 l 0.125,0.125 L 9.125,11 9.0625,10.9375 8.53125,10.96875 Q 8,11 7.625,11.125 7.25,11.25 7.125,11.625 7,12 6.875,12.375 6.75,12.75 6.5,13 6.25,13.25 6,13.5 5.75,13.75 5.375,13.875 5,14 4.625,14.125 4.25,14.25 4.125,14.625 L 4,15 4.09375,14.71875 4.1875,14.4375 4.125,14.625 Q 4.0625,14.8125 4.0625,15 V 15.1875 15.09375 15 h -0.5 -0.5 V 15.09375 15.1875 15 q 0,-0.1875 0.0625,-0.375 L 3.1875,14.4375 3.09375,14.71875 3,15 3.125,14.625 Q 3.25,14.25 3.5,14 3.75,13.75 4,13.5 4.25,13.25 4.625,13.125 5,13 5.375,12.875 5.75,12.75 5.875,12.375 6,12 6.125,11.625 6.25,11.25 6.5,11 6.75,10.75 7,10.5"
       id="path14"
       inkscape:connector-curvature="0" />
    <path
       style="fill:#c0a040;fill-opacity:1"
       d="M 7.125,11.625 Q 7.25,11.25 7.625,11.125 8,11 8.53125,10.96875 L 9.0625,10.9375 9,10.875 8.9375,10.8125 l 0.125,0.125 q 0.125,0.125 0.3125,0.1875 L 9.5625,11.1875 9.28125,11.09375 9,11 9.375,11.125 q 0.375,0.125 0.5,0.5 Q 10,12 10,12.5 q 0,0.5 0,1 V 14 13.625 13.25 13.5 q 0,0.25 0.125,0.375 L 10.25,14 10.1875,13.9375 10.125,13.875 9.5625,13.9375 9,14 8.875,13.625 Q 8.75,13.25 8.375,13.125 8,13 7.625,13.125 7.25,13.25 7,13.5 6.75,13.75 6.5,14 6.25,14.25 6.125,14.625 6,15 5.875,15.375 5.75,15.75 5.375,15.875 5,16 4.625,15.875 4.25,15.75 4.125,15.375 4,15 4.125,14.625 4.25,14.25 4.625,14.125 5,14 5.375,13.875 5.75,13.75 6,13.5 6.25,13.25 6.5,13 6.75,12.75 6.875,12.375 7,12 7.125,11.625"
       id="path16"
       inkscape:connector-curvature="0" />
    <path
       style="fill:#000000;fill-opacity:1"
       d="M 9.875,11.625 9.75,11.25 9.84375,11.53125 9.9375,11.8125 9.875,11.625 Q 9.8125,11.4375 9.6875,11.3125 L 9.5625,11.1875 9.625,11.25 9.6875,11.3125 9.96875,11.03125 Q 10.25,10.75 10.625,10.875 11,11 11,11.5 q 0,0.5 0,1 0,0.5 0,1 V 14 H 10.5 Q 10,14 10,13.5 10,13 10,12.5 10,12 9.875,11.625"
       id="path18"
       inkscape:connector-curvature="0" />
    <path
       style="fill:#807020;fill-opacity:1"
       d="m 7,13.5 q 0.25,-0.25 0.625,-0.375 0.375,-0.125 0.75,0 0.375,0.125 0.5,0.5 L 9,14 H 8.5 Q 8,14 7.625,14.125 7.25,14.25 7.125,14.625 7,15 7,15.5 V 16 L 6.625,16.125 Q 6.25,16.25 6.25,16.5 q 0,0.25 0.25,0.5 0.25,0.25 0.375,0.625 0.125,0.375 0.25,0.75 0.125,0.375 0.5,0.5 0.375,0.125 0.75,0 0.375,-0.125 0.5,-0.5 Q 9,18 9.125,17.625 9.25,17.25 9.5,17 9.75,16.75 10,16.5 10.25,16.25 10.625,16.125 11,16 11.5,16 q 0.5,0 1,0 0.5,0 1,0 0.5,0 1,0 0.5,0 1,0 0.5,0 1,0 0.5,0 1,0 0.5,0 1,0 H 19 18.625 18.25 18.5 q 0.25,0 0.46875,0.03125 L 19.1875,16.0625 19.078125,16.046875 18.96875,16.03125 18.921875,16.578125 18.875,17.125 18.9375,17.1875 19,17.25 18.875,17.125 Q 18.75,17 18.5,17 H 18.25 18.625 19 18.5 q -0.5,0 -1,0 -0.5,0 -1,0 -0.5,0 -1,0 -0.5,0 -1,0 -0.5,0 -1,0 -0.5,0 -1,0 -0.5,0 -1,0 -0.5,0 -0.875,0.125 -0.375,0.125 -0.5,0.5 Q 10,18 9.875,18.375 9.75,18.75 9.5,19 9.25,19.25 9,19.5 8.75,19.75 8.375,19.875 8,20 7.625,19.875 7.25,19.75 7,19.5 6.75,19.25 6.5,19 6.25,18.75 6.125,18.375 6,18 5.875,17.625 5.75,17.25 5.375,17.125 5,17 4.625,16.875 4.25,16.75 4,16.5 3.75,16.25 3.5,16 3.25,15.75 3.125,15.375 L 3,15 3.09375,15.28125 3.1875,15.5625 3.125,15.375 Q 3.0625,15.1875 3.0625,15 V 14.8125 14.90625 15 h 0.5 0.5 V 14.90625 14.8125 15 q 0,0.1875 0.0625,0.375 L 4.1875,15.5625 4.09375,15.28125 4,15 4.125,15.375 q 0.125,0.375 0.5,0.5 0.375,0.125 0.75,0 0.375,-0.125 0.5,-0.5 Q 6,15 6.125,14.625 6.25,14.25 6.5,14 6.75,13.75 7,13.5"
       id="path20"
       inkscape:connector-curvature="0" />
    <path
       style="fill:#000000;fill-opacity:1"
       d="M 7.125,14.625 Q 7.25,14.25 7.625,14.125 8,14 8.5,14 H 9 v 0.5 Q 9,15 8.875,15.375 8.75,15.75 8.375,15.875 8,16 7.5,16 H 7 V 15.5 Q 7,15 7.125,14.625"
       id="path22"
       inkscape:connector-curvature="0" />
    <path
       style="fill:#f2c44d;fill-opacity:1"
       d="M 9,14.5 V 14 L 9.5625,13.9375 10.125,13.875 10.0625,13.8125 10,13.75 10.125,13.875 Q 10.25,14 10.5,14 H 10.75 10.375 10 10.5 11 11.5 q 0.5,0 1,0 0.5,0 1,0 0.5,0 1,0 0.5,0 1,0 0.5,0 1,0 0.5,0 1,0 0.5,0 1,0 0.5,0 1,0 0.5,0 1,0 0.5,0 1,0 0.5,0 1,0 0.5,0 1,0 0.5,0 1,0 0.5,0 1,0 0.5,0 1,0 H 27 26.625 26.25 26.5 q 0.25,0 0.46875,0.03125 L 27.1875,14.0625 27.078125,14.04687 26.96875,14.03124 26.859375,14.390615 Q 26.75,14.75 26.375,14.875 26,15 25.5,15 q -0.5,0 -1,0 -0.5,0 -1,0 -0.5,0 -1,0 -0.5,0 -1,0 -0.5,0 -1,0 -0.5,0 -1,0 -0.5,0 -1,0 -0.5,0 -1,0 -0.5,0 -1,0 -0.5,0 -1,0 -0.5,0 -1,0 -0.5,0 -1,0 -0.5,0 -1,0 -0.5,0 -1,0 Q 11,15 10.625,15.125 10.25,15.25 10,15.5 9.75,15.75 9.5,16 9.25,16.25 9,16.5 8.75,16.75 8.375,16.875 8,17 7.625,16.875 7.25,16.75 7.125,16.375 L 7,16 H 7.5 Q 8,16 8.375,15.875 8.75,15.75 8.875,15.375 9,15 9,14.5"
       id="path24"
       inkscape:connector-curvature="0" />
    <path
       style="fill:#aa8834;fill-opacity:1"
       d="M 26.859375,14.390625 26.96875,14.03125 26.859375,14.015625 26.75,14 26.96875,14.03125 Q 27.1875,14.0625 27.375,14.125 L 27.5625,14.1875 27.28125,14.09375 27,14 l 0.375,0.125 q 0.375,0.125 0.5,0.5 L 28,15 27.90625,14.71875 27.8125,14.4375 27.875,14.625 q 0.0625,0.1875 0.09375,0.40625 L 28,15.25 27.984375,15.140625 27.96875,15.03125 27.609375,15.140625 27.25,15.25 27.53125,15.15625 27.8125,15.0625 27.625,15.125 q -0.1875,0.0625 -0.3125,0.1875 l -0.125,0.125 L 27.25,15.375 27.3125,15.3125 27,15 26.6875,14.6875 26.625,14.75 l -0.0625,0.0625 0.125,-0.125 q 0.125,-0.125 0.1875,-0.3125 L 26.9375,14.1875 26.84375,14.46875 26.75,14.75 26.859375,14.390625"
       id="path26"
       inkscape:connector-curvature="0" />
    <path
       style="fill:#000000;fill-opacity:1"
       d="M 27.875,14.625 27.75,14.25 27.84375,14.53125 27.9375,14.8125 27.875,14.625 q -0.0625,-0.1875 -0.1875,-0.3125 l -0.125,-0.125 0.0625,0.0625 0.0625,0.0625 0.28125,-0.28125 Q 28.25,13.75 28.625,13.875 29,14 29,14.5 q 0,0.5 0,1 0,0.5 0,1 0,0.5 0,1 0,0.5 0,1 0,0.5 0,1 0,0.5 -0.5,0.5 -0.5,0 -0.5,0.5 0,0.5 -0.5,0.5 -0.5,0 -1,0 -0.5,0 -1,0 -0.5,0 -1,0 Q 24,21 24,20.5 24,20 23.5,20 23,20 22.5,20 22,20 22,20.5 22,21 21.5,21 21,21 20.5,21 20,21 20,20.5 20,20 19.5,20 19,20 18.5,20 18,20 18,19.5 18,19 18,18.5 18,18 17.5,18 q -0.5,0 -1,0 -0.5,0 -1,0 -0.5,0 -1,0 -0.5,0 -1,0 -0.5,0 -1,0 -0.5,0 -1,0 -0.5,0 -0.5,0.5 0,0.5 0,1 Q 11,20 10.5,20 10,20 10,20.5 10,21 9.5,21 9,21 8.5,21 8,21 7.5,21 7,21 6.5,21 6,21 6,20.5 6,20 5.875,19.625 5.75,19.25 5.375,19.125 5,19 5,18.5 5,18 4.5,18 4,18 3.5,18 3,18 3,17.5 3,17 2.875,16.625 2.75,16.25 3.015625,15.984375 L 3.28125,15.71875 3.234375,15.640625 3.1875,15.5625 3.28125,15.71875 Q 3.375,15.875 3.5,16 L 3.625,16.125 3.4375,15.9375 3.25,15.75 3.5,16 Q 3.75,16.25 4,16.5 4.25,16.75 4.625,16.875 5,17 5.375,17.125 5.75,17.25 5.875,17.625 6,18 6.125,18.375 6.25,18.75 6.5,19 6.75,19.25 7,19.5 7.25,19.75 7.625,19.875 8,20 8.375,19.875 8.75,19.75 9,19.5 9.25,19.25 9.5,19 9.75,18.75 9.875,18.375 10,18 10.125,17.625 10.25,17.25 10.625,17.125 11,17 11.5,17 q 0.5,0 1,0 0.5,0 1,0 0.5,0 1,0 0.5,0 1,0 0.5,0 1,0 0.5,0 1,0 0.5,0 1,0 0.5,0 0.5,0.5 0,0.5 0.125,0.875 0.125,0.375 0.5,0.5 0.375,0.125 0.75,0 0.375,-0.125 0.5,-0.5 Q 21,18 21,17.5 V 17 17.375 17.75 17.5 q 0,-0.25 0.03125,-0.46875 L 21.0625,16.8125 21.04687,16.921875 21.03124,17.03125 21.515615,17.01562 22,17 l 0.125,0.375 q 0.125,0.375 0.5,0.5 0.375,0.125 0.75,0 0.375,-0.125 0.5,-0.5 L 24,17 h 0.5 0.5 v 0.5 q 0,0.5 0.125,0.875 0.125,0.375 0.5,0.5 Q 26,19 26.5,19 q 0.5,0 0.875,-0.125 0.375,-0.125 0.5,-0.5 Q 28,18 28,17.5 q 0,-0.5 0,-1 0,-0.5 0,-1 0,-0.5 -0.125,-0.875 M 25,17.375 V 17 16.875 16.75 17 q 0,0.25 0,0.5 v 0.25 -0.375"
       id="path28"
       inkscape:connector-curvature="0" />
    <path
       style="fill:#c0a040;fill-opacity:1"
       d="M 10,15.5 Q 10.25,15.25 10.625,15.125 11,15 11.5,15 q 0.5,0 1,0 0.5,0 1,0 0.5,0 1,0 0.5,0 1,0 0.5,0 1,0 0.5,0 1,0 0.5,0 1,0 0.5,0 1,0 0.5,0 1,0 0.5,0 1,0 0.5,0 1,0 0.5,0 1,0 0.5,0 1,0 0.5,0 1,0 0.5,0 0.875,-0.125 L 26.75,14.75 26.46875,14.84375 26.1875,14.9375 26.375,14.875 q 0.1875,-0.0625 0.3125,-0.1875 l 0.125,-0.125 L 26.75,14.625 26.6875,14.6875 27,15 l 0.3125,0.3125 0.0625,-0.0625 0.0625,-0.0625 -0.125,0.125 q -0.125,0.125 -0.1875,0.3125 L 27.0625,15.8125 27.15625,15.53125 27.25,15.25 27.125,15.625 Q 27,16 27,16.5 q 0,0.5 0,1 0,0.5 -0.01563,0.984375 l -0.01563,0.484375 0.109375,-0.01563 0.109375,-0.01563 -0.21875,0.03125 Q 26.75,19 26.5,19 H 26.25 26.625 27 26.5 26 26.375 26.75 26.5 q -0.25,0 -0.46875,-0.03125 l -0.21875,-0.03125 0.109375,0.01563 0.109375,0.01563 -0.01563,-0.484375 Q 26,18 26,17.5 26,17 25.875,16.625 q -0.125,-0.375 -0.5,-0.5 -0.375,-0.125 -0.75,0 -0.375,0.125 -0.5,0.5 L 24,17 H 23.5 23 l -0.125,-0.375 q -0.125,-0.375 -0.5,-0.5 -0.375,-0.125 -0.75,0 -0.375,0.125 -0.5,0.5 Q 21,17 21,17.5 q 0,0.5 -0.125,0.875 -0.125,0.375 -0.5,0.5 L 20,19 20.28125,18.90625 20.5625,18.8125 20.375,18.875 Q 20.1875,18.9375 20,18.9375 H 19.8125 19.90625 20 V 18.46875 Q 20,18 20,17.5 20,17 19.875,16.625 19.75,16.25 19.375,16.125 19,16 18.5,16 q -0.5,0 -1,0 -0.5,0 -1,0 -0.5,0 -1,0 -0.5,0 -1,0 -0.5,0 -1,0 -0.5,0 -1,0 -0.5,0 -1,0 Q 11,16 10.625,16.125 10.25,16.25 10,16.5 9.75,16.75 9.5,17 9.25,17.25 9.125,17.625 9,18 8.875,18.375 8.75,18.75 8.375,18.875 8,19 7.625,18.875 7.25,18.75 7.125,18.375 7,18 6.875,17.625 6.75,17.25 6.5,17 6.25,16.75 6.25,16.5 q 0,-0.25 0.375,-0.375 L 7,16 7.125,16.375 q 0.125,0.375 0.5,0.5 Q 8,17 8.375,16.875 8.75,16.75 9,16.5 9.25,16.25 9.5,16 9.75,15.75 10,15.5 M 22.875,17 H 23 23.375 23.75 23.5 q -0.25,0 -0.5,0 h -0.25 0.125"
       id="path30"
       inkscape:connector-curvature="0" />
    <path
       style="fill:#807020;fill-opacity:1"
       d="M 27.125,15.625 Q 27.25,15.25 27.609375,15.140625 L 27.96875,15.03125 27.953125,14.921875 27.9375,14.8125 27.96875,15.03125 Q 28,15.25 28,15.5 V 15.75 15.375 15 15.5 q 0,0.5 0,1 0,0.5 0,1 0,0.5 -0.125,0.875 -0.125,0.375 -0.5,0.5 L 27,19 27.28125,18.90625 27.5625,18.8125 27.375,18.875 q -0.1875,0.0625 -0.40625,0.09375 L 26.75,19 26.859375,18.98437 26.96875,18.96874 26.98438,18.484365 Q 27,18 27,17.5 q 0,-0.5 0,-1 0,-0.5 0.125,-0.875"
       id="path32"
       inkscape:connector-curvature="0" />
    <path
       style="fill:#f2c44d;fill-opacity:1"
       d="M 18.921875,16.578125 18.96875,16.03125 18.859375,16.015625 18.75,16 18.96875,16.03125 Q 19.1875,16.0625 19.375,16.125 L 19.5625,16.1875 19.28125,16.09375 19,16 l 0.375,0.125 q 0.375,0.125 0.5,0.5 Q 20,17 20,17.5 20,18 20,18.46875 V 18.9375 H 20.09375 20.1875 20 q -0.1875,0 -0.375,-0.0625 L 19.4375,18.8125 19.71875,18.90625 20,19 19.625,18.875 Q 19.25,18.75 19.125,18.375 19,18 19,17.5 V 17 17.375 17.75 17.5 q 0,-0.25 -0.125,-0.375 L 18.75,17 l 0.0625,0.0625 0.0625,0.0625 0.04687,-0.546875"
       id="path34"
       inkscape:connector-curvature="0" />
    <path
       style="fill:#68541f;fill-opacity:1"
       d="m 21.125,16.625 q 0.125,-0.375 0.5,-0.5 L 22,16 21.71875,16.09375 21.4375,16.1875 21.625,16.125 Q 21.8125,16.0625 22,16.0625 H 22.1875 22.09375 22 V 16.53125 17 L 21.515625,17.01563 21.03125,17.03126 21.01562,17.140635 21,17.25 21.03125,17.03125 Q 21.0625,16.8125 21.125,16.625 L 21.1875,16.4375 21.09375,16.71875 21,17 21.125,16.625"
       id="path36"
       inkscape:connector-curvature="0" />
    <path
       style="fill:#f2c44d;fill-opacity:1"
       d="M 22,16.53125 V 16.0625 H 21.90625 21.8125 22 q 0.1875,0 0.375,0.0625 L 22.5625,16.1875 22.28125,16.09375 22,16 l 0.375,0.125 q 0.375,0.125 0.5,0.5 L 23,17 H 22.5 22 V 16.53125 M 22.625,17 H 23 23.125 23.25 23 q -0.25,0 -0.5,0 h -0.25 0.375"
       id="path38"
       inkscape:connector-curvature="0" />
    <path
       style="fill:#68541f;fill-opacity:1"
       d="m 24.125,16.625 q 0.125,-0.375 0.5,-0.5 L 25,16 24.71875,16.09375 24.4375,16.1875 24.625,16.125 Q 24.8125,16.0625 25,16.0625 H 25.1875 25.09375 25 V 16.53125 17 H 24.5 24 l 0.125,-0.375 M 25,17.125 V 17 16.625 16.25 16.5 q 0,0.25 0,0.5 v 0.25 -0.125"
       id="path40"
       inkscape:connector-curvature="0" />
    <path
       style="fill:#f2c44d;fill-opacity:1"
       d="M 25,16.53125 V 16.0625 H 24.90625 24.8125 25 q 0.1875,0 0.375,0.0625 L 25.5625,16.1875 25.28125,16.09375 25,16 l 0.375,0.125 q 0.375,0.125 0.5,0.5 Q 26,17 26,17.5 q 0,0.5 0.01563,0.984375 l 0.01563,0.484375 0.109375,0.01563 L 26.25,19 26.03125,18.96875 Q 25.8125,18.9375 25.625,18.875 L 25.4375,18.8125 25.71875,18.90625 26,19 25.625,18.875 Q 25.25,18.75 25.125,18.375 25,18 25,17.5 25,17 25,16.53125"
       id="path42"
       inkscape:connector-curvature="0" />
    <path
       style="fill:#807020;fill-opacity:1"
       d="M 22.125,17.375 22,17 h 0.5 q 0.5,0 1,0 H 24 l -0.125,0.375 q -0.125,0.375 -0.5,0.5 -0.375,0.125 -0.75,0 -0.375,-0.125 -0.5,-0.5"
       id="path44"
       inkscape:connector-curvature="0" />
  </g>
</svg>
