<?xml version="1.0" encoding="UTF-8" standalone="no"?>
<!-- Created with Inkscape (http://www.inkscape.org/) -->

<svg
   xmlns:dc="http://purl.org/dc/elements/1.1/"
   xmlns:cc="http://creativecommons.org/ns#"
   xmlns:rdf="http://www.w3.org/1999/02/22-rdf-syntax-ns#"
   xmlns:svg="http://www.w3.org/2000/svg"
   xmlns="http://www.w3.org/2000/svg"
   xmlns:sodipodi="http://sodipodi.sourceforge.net/DTD/sodipodi-0.dtd"
   xmlns:inkscape="http://www.inkscape.org/namespaces/inkscape"
   version="1.1"
   id="svg4241"
   width="32"
   height="32"
   viewBox="0 0 32 32"
   sodipodi:docname="skeleton.svg"
   inkscape:version="0.92.5 (2060ec1f9f, 2020-04-08)">
  <metadata
     id="metadata4247">
    <rdf:RDF>
      <cc:Work
         rdf:about="">
        <dc:format>image/svg+xml</dc:format>
        <dc:type
           rdf:resource="http://purl.org/dc/dcmitype/StillImage" />
        <dc:title></dc:title>
      </cc:Work>
    </rdf:RDF>
  </metadata>
  <defs
     id="defs4245" />
  <sodipodi:namedview
     pagecolor="#ffffff"
     bordercolor="#666666"
     borderopacity="1"
     objecttolerance="10"
     gridtolerance="10"
     guidetolerance="10"
     inkscape:pageopacity="0"
     inkscape:pageshadow="2"
     inkscape:window-width="1920"
     inkscape:window-height="1118"
     id="namedview4243"
     showgrid="false"
     inkscape:zoom="7.375"
     inkscape:cx="16"
     inkscape:cy="16"
     inkscape:window-x="0"
     inkscape:window-y="24"
     inkscape:window-maximized="1"
     inkscape:current-layer="svg4241" />
  <g
     transform="translate(0 0)"
     id="g4629">
    <path
       style="fill:#000000;fill-opacity:0"
       d="M 0,0.5 V 0 H 0.5 1 1.5 2 2.5 3 3.5 4 4.5 5 5.5 6 6.5 7 7.5 8 8.5 9 9.5 10 10.5 11 11.5 12 12.5 13 13.5 14 14.5 15 L 14.875,0.375 Q 14.75,0.75 14.375,0.875 14,1 14,1.5 V 2 L 13.875,2.375 Q 13.75,2.75 13.375,2.875 13,3 13,3.5 V 4 4.5 q 0,0.5 0,1 0,0.5 0,1 V 7 H 12.5 Q 12,7 12,7.5 V 8 H 11.5 Q 11,8 11,8.5 V 9 H 10.5 Q 10,9 9.875,9.375 9.75,9.75 9.375,9.875 9,10 9,10.5 V 11 H 8.5 Q 8,11 7.875,11.375 7.75,11.75 7.375,11.875 7,12 6.5,12 H 6 V 11.5 Q 6,11 6,10.5 6,10 6,9.5 6,9 6,8.5 6,8 6,7.5 6,7 6.125,6.625 6.25,6.25 6.625,6.125 7,6 7,5.5 7,5 7,4.5 7,4 7,3.5 V 3 2.5 Q 7,2 6.625,1.875 6.25,1.75 6.125,1.375 6,1 5.5,1 H 5 4.5 4 3.5 Q 3,1 2.5,1 2,1 1.875,1.375 1.75,1.75 1.375,1.875 1,2 1,2.5 1,3 1.375,3.125 1.75,3.25 1.75,3.5 1.75,3.75 1.375,3.875 1,4 1,4.5 1,5 1,5.5 1,6 1,6.5 1,7 1.375,7.125 1.75,7.25 1.875,7.625 2,8 2.375,8.125 2.75,8.25 2.875,8.625 3,9 3,9.5 q 0,0.5 0,1 0,0.5 0,1 0,0.5 -0.125,0.875 -0.125,0.375 -0.5,0.5 Q 2,13 2,13.5 q 0,0.5 0,1 0,0.5 0.375,0.625 0.375,0.125 0.5,0.5 Q 3,16 3,16.5 q 0,0.5 0,1 0,0.5 0,1 0,0.5 0,1 0,0.5 0.375,0.625 0.375,0.125 0.5,0.5 Q 4,21 4,21.5 q 0,0.5 0,1 0,0.5 0,1 0,0.5 0,1 0,0.5 0,1 0,0.5 0,1 0,0.5 0.375,0.625 0.375,0.125 0.5,0.5 Q 5,28 5,28.5 q 0,0.5 0,1 0,0.5 0,1 0,0.5 0.375,0.625 0.375,0.125 0.5,0.5 L 6,32 H 5.5 5 4.5 4 3.5 3 2.5 2 1.5 1 0.5 0 V 31.5 31 30.5 30 29.5 29 28.5 28 27.5 27 26.5 26 25.5 25 24.5 24 23.5 23 22.5 22 21.5 21 20.5 20 19.5 19 18.5 18 17.5 17 16.5 16 15.5 15 14.5 14 13.5 13 12.5 12 11.5 11 10.5 10 9.5 9 8.5 8 7.5 7 6.5 6 5.5 5 4.5 4 3.5 3 2.5 2 1.5 1 0.5"
       id="path4251" />
    <path
       style="fill:#000000;fill-opacity:1"
       d="M 14.875,0.375 15,0 H 15.5 16 16.5 17 17.5 18 18.5 19 V 0.5 1 L 18.625,0.875 Q 18.25,0.75 17.96875,1.03125 L 17.6875,1.3125 17.75,1.375 17.8125,1.4375 17.6875,1.3125 Q 17.5625,1.1875 17.375,1.125 L 17.1875,1.0625 17.46875,1.15625 17.75,1.25 17.375,1.125 Q 17,1 16.5,1 16,1 15.625,1.125 15.25,1.25 15,1.5 14.75,1.75 14.375,1.875 L 14,2 V 1.5 q 0,-0.5 0.375,-0.625 0.375,-0.125 0.5,-0.5"
       id="path4253" />
    <path
       style="fill:#000000;fill-opacity:0"
       d="M 19,0.5 V 0 H 19.5 20 20.5 21 21.5 22 22.5 23 23.5 24 24.5 25 25.5 26 26.5 27 27.5 28 28.5 29 29.5 30 30.5 31 31.5 32 V 0.5 1 1.5 2 2.5 3 3.5 4 4.5 5 5.5 6 6.5 7 7.5 8 8.5 9 9.5 10 10.5 11 11.5 12 12.5 13 13.5 14 14.5 15 15.5 16 16.5 17 17.5 18 18.5 19 19.5 20 20.5 21 21.5 22 22.5 23 23.5 24 24.5 25 25.5 26 26.5 27 27.5 28 28.5 29 29.5 30 30.5 31 31.5 32 H 31.5 31 30.5 30 29.5 29 28.5 28 27.5 27 26.5 26 25.5 25 V 31.5 Q 25,31 25.5,31 26,31 26,30.5 26,30 26.5,30 27,30 27,29.5 27,29 27.5,29 28,29 28,28.5 28,28 28,27.5 28,27 28.5,27 29,27 29,26.5 29,26 29,25.5 29,25 28.5,25 28,25 28,24.5 28,24 27.5,24 q -0.5,0 -1,0 -0.5,0 -1,0 -0.5,0 -1,0 -0.5,0 -1,0 Q 23,24 23,23.5 23,23 22.5,23 H 22 v -0.5 q 0,-0.5 0,-1 0,-0.5 0,-1 0,-0.5 0,-1 0,-0.5 0,-1 0,-0.5 0,-1 V 17 h 0.5 0.5 v 0.5 q 0,0.5 0,1 0,0.5 0,1 0,0.5 0,1 0,0.5 0.5,0.5 H 24 v 0.5 q 0,0.5 0.5,0.5 0.5,0 1,0 0.5,0 0.5,-0.5 V 21 h 0.5 q 0.5,0 1,0 0.5,0 0.5,-0.5 0,-0.5 0,-1 V 19 h 0.5 Q 29,19 29,18.5 V 18 h 0.5 Q 30,18 30,17.5 30,17 30,16.5 30,16 29.5,16 H 29 v -0.5 q 0,-0.5 0,-1 0,-0.5 0,-1 Q 29,13 28.5,13 H 28 V 12.5 Q 28,12 27.5,12 H 27 V 11.5 Q 27,11 26.625,10.875 26.25,10.75 26.125,10.375 26,10 25.5,10 H 25 V 9.5 Q 25,9 24.5,9 H 24 V 8.5 Q 24,8 23.625,7.875 23.25,7.75 23.125,7.375 23,7 22.5,7 22,7 21.5,7 H 21 V 6.5 Q 21,6 21,5.5 21,5 20.5,5 H 20 V 4.5 4 3.5 Q 20,3 20,2.5 20,2 20,1.5 20,1 19.5,1 H 19 V 0.5"
       id="path4255" />
    <path
       style="fill:#000000;fill-opacity:1"
       d="M 1.875,1.375 Q 2,1 2.5,1 3,1 3.5,1 H 4 V 1.5 2 H 3.5 Q 3,2 2.625,2.125 2.25,2.25 2.25,2.5 V 2.75 2.5625 2.375 2.5 q 0,0.125 0.0625,0.25 L 2.375,2.875 2.34375,2.8125 2.3125,2.75 1.984375,3.015625 1.65625,3.28125 1.703125,3.328125 1.75,3.375 1.65625,3.28125 Q 1.5625,3.1875 1.375,3.125 L 1.1875,3.0625 1.46875,3.15625 1.75,3.25 1.375,3.125 Q 1,3 1,2.5 1,2 1.375,1.875 1.75,1.75 1.875,1.375"
       id="path4257" />
    <path
       style="fill:#202020;fill-opacity:1"
       d="M 4,1.5 V 1 H 4.5 5 L 4.953125,1.546875 4.90625,2.09375 4.984375,2.140625 5.0625,2.1875 4.90625,2.09375 Q 4.75,2 4.5,2 H 4.25 4.625 5 4.5 4 V 1.5"
       id="path4259" />
    <path
       style="fill:#000000;fill-opacity:1"
       d="M 4.953125,1.546875 5,1 H 5.5 Q 6,1 6.125,1.375 6.25,1.75 6.625,1.875 7,2 7,2.5 V 3 H 6.5 6 L 5.875,2.625 Q 5.75,2.25 5.328125,2.171875 L 4.90625,2.09375 4.953125,1.546875"
       id="path4261" />
    <path
       style="fill:#404040;fill-opacity:1"
       d="M 15,1.5 Q 15.25,1.25 15.625,1.125 16,1 16.5,1 q 0.5,0 0.875,0.125 0.375,0.125 0.5,0.5 L 18,2 17.625,2.125 17.25,2.25 17.53125,2.15625 17.8125,2.0625 17.625,2.125 Q 17.4375,2.1875 17.3125,2.3125 L 17.1875,2.4375 17.25,2.375 17.3125,2.3125 17.03125,2.03125 Q 16.75,1.75 16.5,1.75 q -0.25,0 -0.515625,0.296875 L 15.71875,2.34375 15.765625,2.390625 15.8125,2.4375 15.71875,2.34375 Q 15.625,2.25 15.5,2.25 H 15.375 15.5625 15.75 15.5 15.25 15.4375 15.625 15.5 q -0.125,0 -0.25,0.0625 L 15.125,2.375 15.1875,2.34375 15.25,2.3125 14.984375,2.015625 14.71875,1.71875 14.640625,1.765625 14.5625,1.8125 14.71875,1.71875 Q 14.875,1.625 15,1.5 L 15.125,1.375 14.9375,1.5625 14.75,1.75 15,1.5"
       id="path4263" />
    <path
       style="fill:#202020;fill-opacity:1"
       d="M 17.875,1.625 17.75,1.25 17.84375,1.53125 17.9375,1.8125 17.875,1.625 Q 17.8125,1.4375 17.6875,1.3125 L 17.5625,1.1875 17.625,1.25 17.6875,1.3125 17.96875,1.03125 Q 18.25,0.75 18.625,0.875 L 19,1 19.125,1.375 Q 19.25,1.75 18.953125,2.015625 L 18.65625,2.28125 18.703125,2.328125 18.75,2.375 18.65625,2.28125 Q 18.5625,2.1875 18.375,2.125 L 18.1875,2.0625 18.46875,2.15625 18.75,2.25 18.375,2.125 18,2 17.875,1.625"
       id="path4265" />
    <path
       style="fill:#000000;fill-opacity:1"
       d="M 19.125,1.375 19,1 h 0.5 q 0.5,0 0.5,0.5 0,0.5 0,1 0,0.5 0,1 V 4 L 19.625,3.875 Q 19.25,3.75 19.25,3.5 19.25,3.25 18.96875,2.96875 L 18.6875,2.6875 18.65625,2.71875 18.625,2.75 18.6875,2.6875 Q 18.75,2.625 18.75,2.5 V 2.375 2.5625 2.75 2.5 2.25 2.4375 2.625 2.5 q 0,-0.125 -0.09375,-0.21875 L 18.5625,2.1875 18.609375,2.234375 18.65625,2.28125 18.953125,2.015625 Q 19.25,1.75 19.125,1.375"
       id="path4267" />
    <path
       style="fill:#ffffff;fill-opacity:1"
       d="M 2.25,2.5 Q 2.25,2.25 2.625,2.125 3,2 3.5,2 H 4 L 3.875,2.375 Q 3.75,2.75 3.5,2.75 3.25,2.75 2.96875,3 L 2.6875,3.25 2.71875,3.3125 2.75,3.375 2.6875,3.25 Q 2.625,3.125 2.5,3 L 2.375,2.875 2.5625,3.0625 2.75,3.25 2.5,3 Q 2.25,2.75 2.25,2.5"
       id="path4269" />
    <path
       style="fill:#d0d0d0;fill-opacity:1"
       d="M 3.875,2.375 4,2 H 4.5 Q 5,2 5.125,2.375 L 5.25,2.75 5.15625,2.46875 5.0625,2.1875 5.125,2.375 Q 5.1875,2.5625 5.3125,2.6875 L 5.4375,2.8125 5.375,2.75 5.3125,2.6875 5,3 4.6875,3.3125 4.71875,3.34375 4.75,3.375 4.6875,3.3125 Q 4.625,3.25 4.5,3.25 H 4.375 4.5625 4.75 4.5 Q 4.25,3.25 4.25,3.5 V 3.75 3.5625 3.375 3.5 q 0,0.125 0.0625,0.1875 L 4.375,3.75 4.34375,3.71875 4.3125,3.6875 4,4 3.6875,4.3125 3.71875,4.34375 3.75,4.375 3.6875,4.3125 Q 3.625,4.25 3.5,4.25 H 3.375 3.5625 3.75 3.5 3.25 3.4375 3.625 3.5 q -0.125,0 -0.21875,0.09375 L 3.1875,4.4375 3.234375,4.390625 3.28125,4.34375 2.984375,4.046875 2.6875,3.75 2.65625,3.8125 2.625,3.875 2.6875,3.75 Q 2.75,3.625 2.75,3.5 V 3.375 3.5625 3.75 3.5 3.25 3.4375 3.625 3.5 Q 2.75,3.375 2.6875,3.25 L 2.625,3.125 2.65625,3.1875 2.6875,3.25 2.96875,3 Q 3.25,2.75 3.5,2.75 q 0.25,0 0.375,-0.375"
       id="path4271" />
    <path
       style="fill:#606060;fill-opacity:1"
       d="M 5.125,2.375 5,2 5.09375,2.28125 5.1875,2.5625 5.125,2.375 Q 5.0625,2.1875 4.90625,2.09375 L 4.75,2 4.828125,2.046875 4.90625,2.09375 5.328125,2.171875 Q 5.75,2.25 5.875,2.625 L 6,3 5.90625,2.71875 5.8125,2.4375 5.875,2.625 Q 5.9375,2.8125 5.96875,3.03125 L 6,3.25 5.984375,3.140625 5.96875,3.03125 5.609375,2.890625 Q 5.25,2.75 5.125,2.375"
       id="path4273" />
    <path
       style="fill:#202020;fill-opacity:1"
       d="M 13.875,2.375 14,2 14.375,1.875 14.75,1.75 14.46875,1.84375 14.1875,1.9375 14.375,1.875 Q 14.5625,1.8125 14.71875,1.71875 L 14.875,1.625 14.796875,1.671875 14.71875,1.71875 14.984375,2.015625 15.25,2.3125 15.3125,2.28125 15.375,2.25 15.25,2.3125 Q 15.125,2.375 15,2.5 L 14.875,2.625 15.0625,2.4375 15.25,2.25 15,2.5 q -0.25,0.25 -0.5,0.5 -0.25,0.25 -0.25,0.5 0,0.25 0.375,0.375 Q 15,4 15.125,4.375 15.25,4.75 15.5,5 15.75,5.25 15.875,5.625 L 16,6 15.90625,5.71875 15.8125,5.4375 15.875,5.625 Q 15.9375,5.8125 15.9375,6 V 6.1875 6.09375 6 H 15.46875 15 L 14.875,5.625 Q 14.75,5.25 14.5,5.25 H 14.25 14.4375 14.625 14.5 q -0.125,0 -0.21875,0.09375 L 14.1875,5.4375 14.234375,5.390625 14.28125,5.34375 14.015625,5.046875 Q 13.75,4.75 13.75,4.5 13.75,4.25 13.375,4.125 L 13,4 V 3.5 Q 13,3 13.375,2.875 13.75,2.75 13.875,2.375 M 14.90625,5.71875 15,6 15.03125,6.09375 15.0625,6.1875 15,6 Q 14.9375,5.8125 14.875,5.625 l -0.0625,-0.1875 0.09375,0.28125"
       id="path4275" />
    <path
       style="fill:#a0a0a0;fill-opacity:1"
       d="m 15,2.5 q 0.25,-0.25 0.5,-0.25 0.25,0 0.375,0.375 L 16,3 15.625,3.125 Q 15.25,3.25 15.09375,3.65625 L 14.9375,4.0625 15,4.125 15.0625,4.1875 14.9375,4.0625 Q 14.8125,3.9375 14.625,3.875 L 14.4375,3.8125 14.71875,3.90625 15,4 14.625,3.875 Q 14.25,3.75 14.25,3.5 14.25,3.25 14.5,3 14.75,2.75 15,2.5"
       id="path4277" />
    <path
       style="fill:#606060;fill-opacity:1"
       d="M 15.890625,2.640625 15.75,2.25 15.84375,2.53125 15.9375,2.8125 15.875,2.625 Q 15.8125,2.4375 15.71875,2.34375 L 15.625,2.25 15.671875,2.296875 15.71875,2.34375 15.984375,2.046875 Q 16.25,1.75 16.5,1.75 q 0.25,0 0.53125,0.28125 L 17.3125,2.3125 17.375,2.25 17.4375,2.1875 17.3125,2.3125 Q 17.1875,2.4375 17.125,2.625 L 17.0625,2.8125 17.15625,2.53125 17.25,2.25 17.109375,2.640625 16.96875,3.03125 17.078125,3.046875 17.1875,3.0625 16.96875,3.03125 Q 16.75,3 16.5,3 H 16.25 16.625 17 16.5 16 16.375 16.75 16.5 Q 16.25,3 16.03125,3.03125 L 15.8125,3.0625 15.921875,3.046875 16.03125,3.03125 15.890625,2.640625"
       id="path4279" />
    <path
       style="fill:#202020;fill-opacity:1"
       d="M 17.109375,2.640625 Q 17.25,2.25 17.625,2.125 L 18,2 18.125,2.375 Q 18.25,2.75 18.5,2.75 H 18.75 18.5625 18.375 18.5 q 0.125,0 0.1875,-0.0625 L 18.75,2.625 18.71875,2.65625 18.6875,2.6875 18.96875,2.96875 Q 19.25,3.25 19.25,3.5 q 0,0.25 0.375,0.375 L 20,4 V 4.5 5 L 19.625,5.125 Q 19.25,5.25 19.125,5.625 19,6 19,6.5 19,7 19.5,7 H 20 V 7.5 8 H 19.5 19 l -0.375,0.125 q -0.375,0.125 -0.5,0.5 L 18,9 H 17.5 Q 17,9 16.5,9 16,9 15.5,9 H 15 L 14.875,8.625 Q 14.75,8.25 14.375,8.125 L 14,8 13.625,8.125 Q 13.25,8.25 13,8.5 12.75,8.75 13.03125,9.03125 L 13.3125,9.3125 13.34375,9.28125 13.375,9.25 13.3125,9.3125 Q 13.25,9.375 13.25,9.5 V 9.625 9.4375 9.25 9.5 q 0,0.25 0.25,0.5 0.25,0.25 0.25,0.5 0,0.25 -0.25,0.5 -0.25,0.25 -0.25,0.5 0,0.25 0.25,0.5 0.25,0.25 0.25,0.5 0,0.25 -0.25,0.5 L 13.25,13.25 13.4375,13.0625 13.625,12.875 13.5,13 q -0.125,0.125 -0.1875,0.25 L 13.25,13.375 13.28125,13.3125 13.3125,13.25 13.03125,13 Q 12.75,12.75 12.75,12.5 q 0,-0.25 -0.375,-0.375 L 12,12 v -0.5 q 0,-0.5 0,-1 0,-0.5 0,-1 V 9 8.5 8 l 0.375,-0.125 q 0.375,-0.125 0.5,-0.5 L 13,7 13.375,7.125 Q 13.75,7.25 14.015625,6.984375 L 14.28125,6.71875 14.234375,6.640625 14.1875,6.5625 14.28125,6.71875 Q 14.375,6.875 14.5,7 L 14.625,7.125 14.4375,6.9375 14.25,6.75 14.5,7 q 0.25,0.25 0.5,0.5 0.25,0.25 0.625,0.375 L 16,8 h 0.5 Q 17,8 17.375,7.875 17.75,7.75 17.875,7.375 18,7 18,6.5 18,6 18.125,5.625 18.25,5.25 18.5,5 18.75,4.75 18.75,4.5 18.75,4.25 18.5,4.25 18.25,4.25 18,4.5 17.75,4.75 17.34375,4.90625 L 16.9375,5.0625 17,5.125 17.0625,5.1875 16.9375,5.0625 Q 16.8125,4.9375 16.625,4.875 L 16.4375,4.8125 16.71875,4.90625 17,5 16.625,4.875 Q 16.25,4.75 16.25,4.5 q 0,-0.25 0.375,-0.375 L 17,4 17.375,3.875 Q 17.75,3.75 17.75,3.5 17.75,3.25 17.375,3.125 L 17,3 17.28125,3.09375 17.5625,3.1875 17.375,3.125 Q 17.1875,3.0625 16.96875,3.03125 L 16.75,3 16.859375,3.015625 16.96875,3.03125 17.109375,2.640625"
       id="path4281" />
    <path
       style="fill:#404040;fill-opacity:1"
       d="M 18.125,2.375 18,2 18.375,2.125 Q 18.75,2.25 18.75,2.5 q 0,0.25 -0.25,0.25 -0.25,0 -0.375,-0.375"
       id="path4283" />
    <path
       style="fill:#202020;fill-opacity:1"
       d="M 1.75,3.5 V 3.25 3.4375 3.625 3.5 Q 1.75,3.375 1.65625,3.28125 L 1.5625,3.1875 1.609375,3.234375 1.65625,3.28125 1.984375,3.015625 2.3125,2.75 2.28125,2.6875 2.25,2.625 2.3125,2.75 Q 2.375,2.875 2.5,3 L 2.625,3.125 2.4375,2.9375 2.25,2.75 2.5,3 Q 2.75,3.25 2.75,3.5 2.75,3.75 2.5,4 L 2.25,4.25 2.4375,4.0625 2.625,3.875 2.5,4 Q 2.375,4.125 2.28125,4.28125 L 2.1875,4.4375 2.234375,4.359375 2.28125,4.28125 1.96875,4 1.65625,3.71875 1.609375,3.765625 1.5625,3.8125 1.65625,3.71875 Q 1.75,3.625 1.75,3.5 V 3.375 3.5625 3.75 3.5"
       id="path4285" />
    <path
       style="fill:#202020;fill-opacity:1"
       d="m 4.25,3.5 q 0,-0.25 0.25,-0.25 0.25,0 0.25,0.25 0,0.25 -0.25,0.25 -0.25,0 -0.25,-0.25"
       id="path4287" />
    <path
       style="fill:#b0b0b0;fill-opacity:1"
       d="M 4.75,3.5 V 3.25 3.4375 3.625 3.5 Q 4.75,3.375 4.6875,3.3125 L 4.625,3.25 4.65625,3.28125 4.6875,3.3125 5,3 5.3125,2.6875 5.25,2.625 5.1875,2.5625 5.3125,2.6875 Q 5.4375,2.8125 5.625,2.875 L 5.8125,2.9375 5.53125,2.84375 5.25,2.75 5.609375,2.890625 5.96875,3.03125 5.953125,2.921875 5.9375,2.8125 5.96875,3.03125 Q 6,3.25 6,3.5 V 3.75 3.375 3 3.5 4 L 5.625,4.125 Q 5.25,4.25 5.125,4.625 L 5,5 4.625,5.125 4.25,5.25 4.53125,5.15625 4.8125,5.0625 4.625,5.125 Q 4.4375,5.1875 4.28125,5.28125 L 4.125,5.375 4.203125,5.328125 4.28125,5.28125 3.96875,5 3.65625,4.71875 3.609375,4.765625 3.5625,4.8125 3.65625,4.71875 Q 3.75,4.625 3.75,4.5 V 4.375 4.5625 4.75 4.5 4.25 4.4375 4.625 4.5 Q 3.75,4.375 3.6875,4.3125 L 3.625,4.25 3.65625,4.28125 3.6875,4.3125 4,4 4.3125,3.6875 4.28125,3.65625 4.25,3.625 4.3125,3.6875 Q 4.375,3.75 4.5,3.75 H 4.625 4.4375 4.25 4.5 q 0.25,0 0.25,-0.25 M 6,4.125 V 4 3.625 3.25 3.5 Q 6,3.75 6,4 V 4.25 4.125"
       id="path4289" />
    <path
       style="fill:#202020;fill-opacity:1"
       d="M 6,3.5 V 3 H 6.5 7 V 3.5 Q 7,4 7,4.5 7,5 7,5.5 7,6 6.625,6.125 L 6.25,6.25 6.53125,6.15625 6.8125,6.0625 6.625,6.125 Q 6.4375,6.1875 6.3125,6.3125 L 6.1875,6.4375 6.25,6.375 6.3125,6.3125 6.015625,6.015625 5.71875,5.71875 5.671875,5.796875 5.625,5.875 5.71875,5.71875 Q 5.8125,5.5625 5.875,5.375 L 5.9375,5.1875 5.84375,5.46875 5.75,5.75 5.875,5.375 Q 6,5 6,4.5 6,4 6,3.5"
       id="path4291" />
    <path
       style="fill:#c0c0c0;fill-opacity:1"
       d="M 15.09375,3.65625 Q 15.25,3.25 15.625,3.125 L 16,3 15.875,3.375 Q 15.75,3.75 15.34375,3.90625 L 14.9375,4.0625 15.09375,3.65625"
       id="path4293" />
    <path
       style="fill:#e0e0e0;fill-opacity:1"
       d="M 15.875,3.375 16,3 H 16.5 17 16.625 16.25 16.5 q 0.25,0 0.46875,0.03125 L 17.1875,3.0625 17.078125,3.046875 16.96875,3.03125 16.984375,3.515625 17,4 16.625,4.125 Q 16.25,4.25 16.25,4.5 q 0,0.25 0.375,0.375 Q 17,5 17.125,5.375 L 17.25,5.75 17.15625,5.46875 17.0625,5.1875 17.125,5.375 q 0.0625,0.1875 0.1875,0.3125 l 0.125,0.125 L 17.375,5.75 17.3125,5.6875 17.03125,5.96875 Q 16.75,6.25 16.375,6.125 L 16,6 15.875,5.625 Q 15.75,5.25 15.5,5 15.25,4.75 15.125,4.375 L 15,4 15.09375,4.28125 15.1875,4.5625 15.125,4.375 Q 15.0625,4.1875 14.9375,4.0625 L 14.8125,3.9375 14.875,4 14.9375,4.0625 15.34375,3.90625 Q 15.75,3.75 15.875,3.375"
       id="path4295" />
    <path
       style="fill:#c0c0c0;fill-opacity:1"
       d="M 16.984375,3.515625 16.96875,3.03125 16.859375,3.015625 16.75,3 16.96875,3.03125 Q 17.1875,3.0625 17.375,3.125 L 17.5625,3.1875 17.28125,3.09375 17,3 17.375,3.125 Q 17.75,3.25 17.75,3.5 q 0,0.25 -0.375,0.375 L 17,4 16.984375,3.515625"
       id="path4297" />
    <path
       style="fill:#000000;fill-opacity:1"
       d="M 1,4.5 Q 1,4 1.375,3.875 L 1.75,3.75 1.46875,3.84375 1.1875,3.9375 1.375,3.875 Q 1.5625,3.8125 1.65625,3.71875 L 1.75,3.625 1.703125,3.671875 1.65625,3.71875 1.96875,4 2.28125,4.28125 2.328125,4.203125 2.375,4.125 2.28125,4.28125 Q 2.1875,4.4375 2.125,4.625 L 2.0625,4.8125 2.15625,4.53125 2.25,4.25 2.125,4.625 2,5 V 5.5 6 5.625 5.25 5.5 Q 2,5.75 2.09375,5.90625 L 2.1875,6.0625 2.140625,5.984375 2.09375,5.90625 2.171875,6.328125 Q 2.25,6.75 2.5,7 2.75,7.25 3,7.5 3.25,7.75 3.5,8 3.75,8.25 3.875,8.625 4,9 4,9.5 4,10 4,10.5 4,11 4,11.5 4,12 3.875,12.375 3.75,12.75 3.5,13 3.25,13.25 3.125,13.625 3,14 3.125,14.375 3.25,14.75 3.640625,14.890625 L 4.03125,15.03125 4.046875,14.921875 4.0625,14.8125 4.03125,15.03125 Q 4,15.25 4,15.5 V 15.75 15.375 15 15.5 q 0,0.5 0,1 V 17 17.5 Q 4,18 4,18.5 4,19 4.125,19.375 4.25,19.75 4.5,20 4.75,20.25 4.875,20.625 L 5,21 v 0.5 q 0,0.5 0,1 0,0.5 0,1 0,0.5 0,1 0,0.5 0,1 V 26 l 0.125,0.375 Q 5.25,26.75 5.5,27 5.75,27.25 5.875,27.625 6,28 6,28.5 6,29 6,29.5 6,30 6.125,30.375 6.25,30.75 6.5,30.75 6.75,30.75 6.875,30.375 7,30 7,29.5 7,29 7,28.5 7,28 6.875,27.625 6.75,27.25 6.5,27 6.25,26.75 6.125,26.375 L 6,26 V 25.5 Q 6,25 6,24.5 6,24 6,23.5 6,23 6,22.5 V 22 H 6.5 7 v 0.5 q 0,0.5 0.5,0.5 0.5,0 1,0 0.5,0 1,0 H 10 v 0.5 Q 10,24 9.5,24 9,24 8.5,24 8,24 7.5,24 7,24 7,24.5 q 0,0.5 0,1 0,0.5 0.125,0.875 0.125,0.375 0.5,0.5 Q 8,27 8,27.5 8,28 8,28.5 8,29 8.5,29 9,29 9,28.5 9,28 9.5,28 10,28 10,27.5 10,27 10.5,27 11,27 11,26.5 11,26 11.5,26 12,26 12,25.5 q 0,-0.5 0,-1 0,-0.5 0,-1 0,-0.5 0,-1 0,-0.5 0,-1 0,-0.5 0,-1 0,-0.5 0,-1 Q 12,19 11.5,19 H 11 V 18.5 Q 11,18 11.5,18 12,18 12,17.5 q 0,-0.5 0,-1 0,-0.5 0,-1 V 15 14.5 q 0,-0.5 0,-1 0,-0.5 0,-1 V 12 l 0.375,0.125 q 0.375,0.125 0.375,0.375 0,0.25 0.28125,0.5 L 13.3125,13.25 13.34375,13.1875 13.375,13.125 13.3125,13.25 Q 13.25,13.375 13.25,13.5 V 13.625 13.4375 13.25 13.5 13.75 13.5625 13.375 13.5 q 0,0.125 0.0625,0.25 L 13.375,13.875 13.34375,13.8125 13.3125,13.75 13.03125,14 Q 12.75,14.25 12.875,14.625 13,15 13,15.5 q 0,0.5 0,1 0,0.5 0,1 0,0.5 0,1 v 0.5 0.5 q 0,0.5 0,1 0,0.5 0,1 v 0.5 0.5 q 0,0.5 0,1 0,0.5 0,1 0,0.5 0,1 v 0.5 0.5 q 0,0.5 0,1 V 28 l -0.125,0.375 q -0.125,0.375 0.140625,0.640625 l 0.265625,0.265625 0.07813,-0.04687 0.07813,-0.04687 -0.15625,0.09375 Q 13.125,29.375 13,29.5 L 12.875,29.625 13.0625,29.4375 13.25,29.25 13,29.5 q -0.25,0.25 -0.5,0.5 -0.25,0.25 -0.25,0.5 V 30.75 30.5625 30.375 30.5 q 0,0.125 0.09375,0.21875 l 0.09375,0.09375 -0.04687,-0.04687 -0.04687,-0.04687 -0.296875,0.265625 Q 11.75,31.25 11.875,31.625 L 12,32 H 11.5 11 v -0.5 q 0,-0.5 0,-1 0,-0.5 0.375,-0.625 0.375,-0.125 0.5,-0.5 Q 12,29 12,28.5 12,28 11.5,28 11,28 11,28.5 11,29 10.5,29 10,29 10,29.5 10,30 9.5,30 9,30 9,30.5 9,31 8.5,31 8,31 7.625,31.125 7.25,31.25 7.125,31.625 L 7,32 H 6.5 6 L 5.875,31.625 Q 5.75,31.25 5.375,31.125 5,31 5,30.5 5,30 5,29.5 5,29 5,28.5 5,28 4.875,27.625 4.75,27.25 4.375,27.125 4,27 4,26.5 4,26 4,25.5 4,25 4,24.5 4,24 4,23.5 4,23 4,22.5 4,22 4,21.5 4,21 3.875,20.625 3.75,20.25 3.375,20.125 3,20 3,19.5 3,19 3,18.5 3,18 3,17.5 3,17 3,16.5 3,16 2.875,15.625 2.75,15.25 2.375,15.125 2,15 2,14.5 2,14 2,13.5 2,13 2.375,12.875 2.75,12.75 2.875,12.375 3,12 3,11.5 3,11 3,10.5 3,10 3,9.5 3,9 2.875,8.625 2.75,8.25 2.375,8.125 2,8 1.875,7.625 1.75,7.25 1.375,7.125 1,7 1,6.5 1,6 1,5.5 1,5 1,4.5"
       id="path4299" />
    <path
       style="fill:#ffffff;fill-opacity:1"
       d="M 2.125,4.625 Q 2.25,4.25 2.5,4 L 2.75,3.75 2.5625,3.9375 2.375,4.125 2.5,4 Q 2.625,3.875 2.6875,3.75 L 2.75,3.625 2.71875,3.6875 2.6875,3.75 2.984375,4.046875 3.28125,4.34375 3.328125,4.296875 3.375,4.25 3.28125,4.34375 Q 3.1875,4.4375 3.125,4.625 L 3.0625,4.8125 3.15625,4.53125 3.25,4.25 3.125,4.625 3,5 V 4.625 4.25 4.5 Q 3,4.75 3.125,4.875 L 3.25,5 3.1875,4.9375 3.125,4.875 2.5625,4.9375 2,5 2.125,4.625"
       id="path4301" />
    <path
       style="fill:#202020;fill-opacity:1"
       d="M 3.125,4.625 Q 3.25,4.25 3.5,4.25 3.75,4.25 3.75,4.5 3.75,4.75 3.375,4.875 3,5 3.125,4.625"
       id="path4303" />
    <path
       style="fill:#606060;fill-opacity:1"
       d="M 5.125,4.625 Q 5.25,4.25 5.625,4.125 L 6,4 V 4.5 Q 6,5 5.875,5.375 5.75,5.75 5.5,6 5.25,6.25 5,6.5 4.75,6.75 4.5,7 L 4.25,7.25 4.4375,7.0625 4.625,6.875 4.5,7 Q 4.375,7.125 4.3125,7.25 L 4.25,7.375 4.28125,7.3125 4.3125,7.25 4.03125,6.96875 3.75,6.6875 3.6875,6.71875 3.625,6.75 3.75,6.6875 Q 3.875,6.625 4,6.5 L 4.125,6.375 3.9375,6.5625 3.75,6.75 4,6.5 Q 4.25,6.25 4.5,6 4.75,5.75 4.875,5.375 L 5,5 5.125,4.625 M 6,4.375 V 4 3.875 3.75 4 Q 6,4.25 6,4.5 V 4.75 4.375"
       id="path4305" />
    <path
       style="fill:#000000;fill-opacity:1"
       d="M 13,4.5 V 4 l 0.375,0.125 Q 13.75,4.25 13.75,4.5 q 0,0.25 0.265625,0.546875 L 14.28125,5.34375 14.328125,5.296875 14.375,5.25 14.28125,5.34375 Q 14.1875,5.4375 14.125,5.625 L 14.0625,5.8125 14.15625,5.53125 14.25,5.25 14.125,5.625 14,6 14.125,6.375 14.25,6.75 14.15625,6.46875 14.0625,6.1875 14.125,6.375 q 0.0625,0.1875 0.15625,0.34375 L 14.375,6.875 14.328125,6.796875 14.28125,6.71875 14.015625,6.984375 Q 13.75,7.25 13.375,7.125 L 13,7 V 6.5 q 0,-0.5 0,-1 0,-0.5 0,-1"
       id="path4307" />
    <path
       style="fill:#606060;fill-opacity:1"
       d="m 18,4.5 q 0.25,-0.25 0.5,-0.25 0.25,0 0.25,0.25 0,0.25 -0.25,0.5 -0.25,0.25 -0.375,0.625 L 18,6 18.09375,5.71875 18.1875,5.4375 18.125,5.625 Q 18.0625,5.8125 18.03125,6.03125 L 18,6.25 18.015625,6.140625 18.03125,6.03125 17.640625,5.890625 Q 17.25,5.75 17.125,5.375 L 17,5 17.09375,5.28125 17.1875,5.5625 17.125,5.375 Q 17.0625,5.1875 16.9375,5.0625 L 16.8125,4.9375 16.875,5 16.9375,5.0625 17.34375,4.90625 Q 17.75,4.75 18,4.5"
       id="path4309" />
    <path
       style="fill:#d0d0d0;fill-opacity:1"
       d="M 2,5.5 V 5 L 2.5625,4.9375 3.125,4.875 3.1875,5.3125 Q 3.25,5.75 3.5,5.75 3.75,5.75 4,5.5 4.25,5.25 4.625,5.125 L 5,5 4.875,5.375 Q 4.75,5.75 4.5,6 4.25,6.25 4,6.5 3.75,6.75 3.5,6.75 3.25,6.75 3,6.5 2.75,6.25 2.375,6.125 2,6 2,5.5"
       id="path4311" />
    <path
       style="fill:#909090;fill-opacity:1"
       d="M 3.1875,5.3125 3.125,4.875 3.0625,4.8125 3,4.75 3.125,4.875 Q 3.25,5 3.5,5 H 3.75 3.375 3 L 3.375,4.875 3.75,4.75 3.46875,4.84375 3.1875,4.9375 3.375,4.875 Q 3.5625,4.8125 3.65625,4.71875 L 3.75,4.625 3.703125,4.671875 3.65625,4.71875 3.96875,5 4.28125,5.28125 4.359375,5.234375 4.4375,5.1875 4.28125,5.28125 Q 4.125,5.375 4,5.5 L 3.875,5.625 4.0625,5.4375 4.25,5.25 4,5.5 Q 3.75,5.75 3.5,5.75 3.25,5.75 3.1875,5.3125"
       id="path4313" />
    <path
       style="fill:#a0a0a0;fill-opacity:1"
       d="M 14.125,5.625 Q 14.25,5.25 14.5,5.25 q 0.25,0 0.375,0.375 L 15,6 H 14.5 14 l 0.125,-0.375"
       id="path4315" />
    <path
       style="fill:#303030;fill-opacity:1"
       d="m 19.125,5.625 q 0.125,-0.375 0.5,-0.5 L 20,5 v 0.5 q 0,0.5 0,1 V 7 H 19.5 Q 19,7 19,6.5 19,6 19.125,5.625"
       id="path4317" />
    <path
       style="fill:#000000;fill-opacity:1"
       d="M 20,5.5 V 5 h 0.5 Q 21,5 21,5.5 21,6 21,6.5 V 7 H 20.5 20 V 6.5 q 0,-0.5 0,-1"
       id="path4319" />
    <path
       style="fill:#606060;fill-opacity:1"
       d="M 2.171875,6.328125 2.09375,5.90625 2.046875,5.828125 2,5.75 2.09375,5.90625 Q 2.1875,6.0625 2.375,6.125 L 2.5625,6.1875 2.28125,6.09375 2,6 2.375,6.125 Q 2.75,6.25 3,6.5 L 3.25,6.75 3.0625,6.5625 2.875,6.375 3,6.5 Q 3.125,6.625 3.25,6.6875 L 3.375,6.75 3.3125,6.71875 3.25,6.6875 3,6.96875 2.75,7.25 2.5,7 Q 2.25,6.75 2.171875,6.328125 M 2.5625,7.0625 2.75,7.25 2.8125,7.3125 2.875,7.375 2.75,7.25 Q 2.625,7.125 2.5,7 L 2.375,6.875 2.5625,7.0625"
       id="path4321" />
    <path
       style="fill:#000000;fill-opacity:1"
       d="M 5,6.5 Q 5.25,6.25 5.5,6 L 5.75,5.75 5.5625,5.9375 5.375,6.125 5.5,6 Q 5.625,5.875 5.71875,5.71875 L 5.8125,5.5625 5.765625,5.640625 5.71875,5.71875 6.015625,6.015625 6.3125,6.3125 6.375,6.25 6.4375,6.1875 6.3125,6.3125 Q 6.1875,6.4375 6.125,6.625 L 6.0625,6.8125 6.15625,6.53125 6.25,6.25 6.125,6.625 Q 6,7 6,7.5 q 0,0.5 0,1 0,0.5 0,1 0,0.5 0,1 0,0.5 0,1 V 12 H 5.5 5 V 11.5 Q 5,11 5,10.5 5,10 5,9.5 5,9 4.875,8.625 L 4.75,8.25 4.84375,8.53125 4.9375,8.8125 4.875,8.625 Q 4.8125,8.4375 4.71875,8.28125 L 4.625,8.125 4.671875,8.203125 4.71875,8.28125 4.984375,8.015625 Q 5.25,7.75 5.25,7.5 5.25,7.25 5,7 L 4.75,6.75 5,6.5 M 4.9375,6.5625 4.75,6.75 4.6875,6.8125 4.625,6.875 4.75,6.75 Q 4.875,6.625 5,6.5 L 5.125,6.375 4.9375,6.5625"
       id="path4323" />
    <path
       style="fill:#c0c0c0;fill-opacity:1"
       d="M 14.125,6.375 14,6 h 0.5 0.5 l 0.125,0.375 Q 15.25,6.75 15.5,6.75 q 0.25,0 0.375,-0.375 L 16,6 16.375,6.125 Q 16.75,6.25 17.03125,5.96875 L 17.3125,5.6875 17.25,5.625 17.1875,5.5625 l 0.125,0.125 q 0.125,0.125 0.3125,0.1875 L 17.8125,5.9375 17.53125,5.84375 17.25,5.75 17.640625,5.890625 18.03125,6.03125 18.046875,5.921875 18.0625,5.8125 18.03125,6.03125 Q 18,6.25 18,6.5 V 6.75 6.375 6 6.5 7 6.625 6.25 6.5 q 0,0.25 -0.03125,0.46875 L 17.9375,7.1875 17.953125,7.078125 17.96875,6.96875 17.609375,7.109375 17.25,7.25 17.53125,7.15625 17.8125,7.0625 17.625,7.125 Q 17.4375,7.1875 17.3125,7.3125 L 17.1875,7.4375 17.25,7.375 17.3125,7.3125 17.03125,7.03125 Q 16.75,6.75 16.5,7 16.25,7.25 16.125,7.625 L 16,8 15.625,7.875 Q 15.25,7.75 15,7.5 14.75,7.25 14.5,7 14.25,6.75 14.125,6.375"
       id="path4325" />
    <path
       style="fill:#606060;fill-opacity:1"
       d="M 15.125,6.375 15,6 h 0.46875 0.46875 V 5.90625 5.8125 6 q 0,0.1875 -0.0625,0.375 L 15.8125,6.5625 15.90625,6.28125 16,6 15.875,6.375 Q 15.75,6.75 15.5,6.75 15.25,6.75 15.125,6.375 M 14.96875,5.90625 15,6 15.09375,6.28125 15.1875,6.5625 15.125,6.375 Q 15.0625,6.1875 15,6 l -0.0625,-0.1875 0.03125,0.09375"
       id="path4327" />
    <path
       style="fill:#707070;fill-opacity:1"
       d="M 3,7.5 2.75,7.25 3,6.96875 3.25,6.6875 3.1875,6.65625 3.125,6.625 3.25,6.6875 Q 3.375,6.75 3.5,6.75 H 3.625 3.4375 3.25 3.5 3.75 3.5625 3.375 3.5 q 0.125,0 0.25,-0.0625 L 3.875,6.625 3.8125,6.65625 3.75,6.6875 4.03125,6.96875 4.3125,7.25 4.34375,7.1875 4.375,7.125 4.3125,7.25 Q 4.25,7.375 4.25,7.5 V 7.625 7.4375 7.25 7.5 7.75 7.5625 7.375 7.5 q 0,0.125 0.0625,0.25 L 4.375,7.875 4.34375,7.8125 4.3125,7.75 4.015625,8.015625 3.71875,8.28125 3.765625,8.359375 3.8125,8.4375 3.71875,8.28125 Q 3.625,8.125 3.5,8 L 3.375,7.875 3.5625,8.0625 3.75,8.25 3.5,8 Q 3.25,7.75 3,7.5 M 2.6875,7.1875 2.75,7.25 2.9375,7.4375 3.125,7.625 3,7.5 Q 2.875,7.375 2.75,7.25 L 2.625,7.125 2.6875,7.1875"
       id="path4329" />
    <path
       style="fill:#303030;fill-opacity:1"
       d="M 4.25,7.5 Q 4.25,7.25 4.5,7 L 4.75,6.75 5,7 q 0.25,0.25 0.25,0.5 0,0.25 -0.265625,0.515625 L 4.71875,8.28125 4.765625,8.359375 4.8125,8.4375 4.71875,8.28125 Q 4.625,8.125 4.5,8 L 4.375,7.875 4.5625,8.0625 4.75,8.25 4.5,8 Q 4.25,7.75 4.25,7.5 M 4.8125,6.6875 4.75,6.75 4.5625,6.9375 4.375,7.125 4.5,7 Q 4.625,6.875 4.75,6.75 L 4.875,6.625 4.8125,6.6875"
       id="path4331" />
    <path
       style="fill:#000000;fill-opacity:1"
       d="M 12,7.5 Q 12,7 12.5,7 H 13 l -0.125,0.375 q -0.125,0.375 -0.5,0.5 L 12,8 V 7.5"
       id="path4333" />
    <path
       style="fill:#a0a0a0;fill-opacity:1"
       d="M 16.125,7.625 Q 16.25,7.25 16.5,7 16.75,6.75 17.03125,7.03125 L 17.3125,7.3125 17.375,7.25 17.4375,7.1875 17.3125,7.3125 Q 17.1875,7.4375 17.125,7.625 L 17.0625,7.8125 17.15625,7.53125 17.25,7.25 17.109375,7.609375 16.96875,7.96875 17.078125,7.953125 17.1875,7.9375 16.96875,7.96875 Q 16.75,8 16.5,8 H 16.25 16.625 17 16.5 16 l 0.125,-0.375"
       id="path4335" />
    <path
       style="fill:#606060;fill-opacity:1"
       d="m 17.109375,7.609375 q 0.140625,-0.359375 0.5,-0.5 L 17.96875,6.96875 17.984375,6.859375 18,6.75 17.96875,6.96875 Q 17.9375,7.1875 17.875,7.375 L 17.8125,7.5625 17.90625,7.28125 18,7 17.875,7.375 q -0.125,0.375 -0.5,0.5 L 17,8 17.28125,7.90625 17.5625,7.8125 17.375,7.875 Q 17.1875,7.9375 16.96875,7.96875 L 16.75,8 16.859375,7.984375 16.96875,7.96875 17.109375,7.609375"
       id="path4337" />
    <path
       style="fill:#303030;fill-opacity:1"
       d="M 20,7.5 V 7 H 20.5 21 V 7.5 8 H 20.5 20 V 7.5"
       id="path4339" />
    <path
       style="fill:#000000;fill-opacity:1"
       d="M 21,7.5 V 7 h 0.5 q 0.5,0 1,0 0.5,0 0.625,0.375 0.125,0.375 0.5,0.5 Q 24,8 24,8.5 V 9 H 23.5 23 L 22.875,8.625 Q 22.75,8.25 22.5,8.25 H 22.25 22.4375 22.625 22.5 q -0.125,0 -0.21875,0.09375 L 22.1875,8.4375 22.234375,8.390625 22.28125,8.34375 22.015625,8.046875 Q 21.75,7.75 21.375,7.875 L 21,8 V 7.5"
       id="path4341" />
    <path
       style="fill:#909090;fill-opacity:1"
       d="M 3.875,8.625 3.75,8.25 3.84375,8.53125 3.9375,8.8125 3.875,8.625 Q 3.8125,8.4375 3.71875,8.28125 L 3.625,8.125 3.671875,8.203125 3.71875,8.28125 4.015625,8.015625 4.3125,7.75 4.28125,7.6875 4.25,7.625 4.3125,7.75 Q 4.375,7.875 4.5,8 L 4.625,8.125 4.4375,7.9375 4.25,7.75 4.5,8 Q 4.75,8.25 4.875,8.625 5,9 5,9.5 5,10 5,10.5 V 11 H 4.5 4 V 10.5 Q 4,10 4,9.5 4,9 3.875,8.625 m 0.125,2 V 11 11.125 11.25 11 q 0,-0.25 0,-0.5 v -0.25 0.375 m 1,0.5 V 11 10.625 10.25 10.5 q 0,0.25 0,0.5 v 0.25 -0.125"
       id="path4343" />
    <path
       style="fill:#000000;fill-opacity:1"
       d="M 11,8.5 Q 11,8 11.5,8 H 12 V 8.5 9 H 11.5 11 V 8.5"
       id="path4345" />
    <path
       style="fill:#404040;fill-opacity:1"
       d="M 13,8.5 Q 13.25,8.25 13.625,8.125 L 14,8 14.125,8.375 14.25,8.75 14.15625,8.46875 14.0625,8.1875 14.125,8.375 q 0.0625,0.1875 0.1875,0.3125 l 0.125,0.125 L 14.375,8.75 14.3125,8.6875 14.03125,9 13.75,9.3125 13.8125,9.34375 13.875,9.375 13.75,9.3125 Q 13.625,9.25 13.5,9.25 H 13.375 13.5625 13.75 13.5 13.25 13.4375 13.625 13.5 q -0.125,0 -0.1875,0.0625 L 13.25,9.375 13.28125,9.34375 13.3125,9.3125 13.03125,9.03125 Q 12.75,8.75 13,8.5"
       id="path4347" />
    <path
       style="fill:#303030;fill-opacity:1"
       d="M 14.125,8.375 14,8 14.375,8.125 q 0.375,0.125 0.5,0.5 L 15,9 14.625,8.875 q -0.375,-0.125 -0.5,-0.5"
       id="path4349" />
    <path
       style="fill:#303030;fill-opacity:1"
       d="m 18.125,8.625 q 0.125,-0.375 0.5,-0.5 L 19,8 18.875,8.375 q -0.125,0.375 -0.5,0.5 L 18,9 18.125,8.625"
       id="path4351" />
    <path
       style="fill:#404040;fill-opacity:1"
       d="M 18.875,8.375 19,8 H 19.5 20 L 20.125,8.375 20.25,8.75 20.15625,8.46875 20.0625,8.1875 20.125,8.375 q 0.0625,0.1875 0.15625,0.28125 L 20.375,8.75 20.328125,8.703125 20.28125,8.65625 19.984375,8.984375 19.6875,9.3125 19.71875,9.34375 19.75,9.375 19.6875,9.3125 Q 19.625,9.25 19.5,9.25 H 19.375 19.5625 19.75 19.5 19.25 19.4375 19.625 19.5 q -0.125,0 -0.25,0.0625 L 19.125,9.375 19.1875,9.34375 19.25,9.3125 18.96875,9 18.6875,8.6875 18.625,8.75 18.5625,8.8125 18.6875,8.6875 Q 18.8125,8.5625 18.875,8.375 L 18.9375,8.1875 18.84375,8.46875 18.75,8.75 18.875,8.375"
       id="path4353" />
    <path
       style="fill:#202020;fill-opacity:1"
       d="M 20.125,8.375 20,8 H 20.5 21 L 20.875,8.375 Q 20.75,8.75 20.5,8.75 q -0.25,0 -0.375,-0.375"
       id="path4355" />
    <path
       style="fill:#303030;fill-opacity:1"
       d="M 20.875,8.375 21,8 21.375,7.875 Q 21.75,7.75 22.015625,8.046875 L 22.28125,8.34375 22.328125,8.296875 22.375,8.25 22.28125,8.34375 Q 22.1875,8.4375 22.125,8.625 L 22.0625,8.8125 22.15625,8.53125 22.25,8.25 22.125,8.625 22,9 21.625,9.125 q -0.375,0.125 -0.5,0.5 L 21,10 V 10.5 11 L 20.625,11.125 20.25,11.25 20.53125,11.15625 20.8125,11.0625 20.625,11.125 q -0.1875,0.0625 -0.34375,0.15625 L 20.125,11.375 l 0.07813,-0.04687 0.07813,-0.04687 -0.265625,-0.265625 Q 19.75,10.75 20,10.5 20.25,10.25 19.96875,10 L 19.6875,9.75 19.65625,9.8125 19.625,9.875 19.6875,9.75 Q 19.75,9.625 19.75,9.5 V 9.375 9.5625 9.75 9.5 9.25 9.4375 9.625 9.5 q 0,-0.125 -0.0625,-0.1875 L 19.625,9.25 19.65625,9.28125 19.6875,9.3125 19.984375,8.984375 20.28125,8.65625 20.234375,8.609375 20.1875,8.5625 20.28125,8.65625 Q 20.375,8.75 20.5,8.75 H 20.625 20.4375 20.25 20.5 q 0.25,0 0.375,-0.375"
       id="path4357" />
    <path
       style="fill:#505050;fill-opacity:1"
       d="M 22.125,8.625 Q 22.25,8.25 22.5,8.25 q 0.25,0 0.375,0.375 L 23,9 H 22.5 22 l 0.125,-0.375"
       id="path4359" />
    <path
       style="fill:#000000;fill-opacity:1"
       d="M 9.875,9.375 Q 10,9 10.5,9 H 11 V 9.5 10 l -0.375,0.125 Q 10.25,10.25 10,10.5 9.75,10.75 9.375,10.875 L 9,11 V 10.5 Q 9,10 9.375,9.875 9.75,9.75 9.875,9.375"
       id="path4361" />
    <path
       style="fill:#303030;fill-opacity:1"
       d="M 11,9.5 V 9 h 0.5 0.5 v 0.5 q 0,0.5 0,1 0,0.5 0,1 v 0.5 0.5 q 0,0.5 0,1 0,0.5 0,1 V 15 H 11.5 11 V 14.5 14 13.5 q 0,-0.5 0,-1 V 12 11.5 11 10.5 10 9.5"
       id="path4363" />
    <path
       style="fill:#808080;fill-opacity:1"
       d="m 13.25,9.5 q 0,-0.25 0.25,-0.25 0.25,0 0.5,0.25 0.25,0.25 0.5,0.5 0.25,0.25 0.25,0.5 0,0.25 -0.25,0.5 -0.25,0.25 -0.25,0.5 0,0.25 0.25,0.5 0.25,0.25 0.25,0.5 0,0.25 -0.25,0.5 L 14.25,13.25 14.4375,13.0625 14.625,12.875 14.5,13 q -0.125,0.125 -0.1875,0.25 L 14.25,13.375 14.28125,13.3125 14.3125,13.25 14,13 13.6875,12.75 13.65625,12.8125 13.625,12.875 13.6875,12.75 Q 13.75,12.625 13.75,12.5 V 12.375 12.5625 12.75 12.5 q 0,-0.25 -0.25,-0.5 -0.25,-0.25 -0.25,-0.5 0,-0.25 0.25,-0.5 0.25,-0.25 0.25,-0.5 0,-0.25 -0.25,-0.5 -0.25,-0.25 -0.25,-0.5"
       id="path4365" />
    <path
       style="fill:#202020;fill-opacity:1"
       d="M 14,9.5 13.75,9.25 13.9375,9.4375 14.125,9.625 14,9.5 Q 13.875,9.375 13.75,9.3125 L 13.625,9.25 13.6875,9.28125 13.75,9.3125 14.03125,9 14.3125,8.6875 14.25,8.625 14.1875,8.5625 l 0.125,0.125 q 0.125,0.125 0.3125,0.1875 L 14.8125,8.9375 14.53125,8.84375 14.25,8.75 14.625,8.875 15,9 15.125,9.375 Q 15.25,9.75 14.96875,10 L 14.6875,10.25 14.71875,10.3125 14.75,10.375 14.6875,10.25 Q 14.625,10.125 14.5,10 L 14.375,9.875 14.5625,10.0625 14.75,10.25 14.5,10 Q 14.25,9.75 14,9.5"
       id="path4367" />
    <path
       style="fill:#303030;fill-opacity:1"
       d="M 15.125,9.375 15,9 h 0.5 q 0.5,0 1,0 0.5,0 1,0 H 18 L 18.125,9.375 18.25,9.75 18.15625,9.46875 18.0625,9.1875 18.125,9.375 q 0.0625,0.1875 0.15625,0.28125 L 18.375,9.75 18.328125,9.703125 18.28125,9.65625 17.984375,9.984375 17.6875,10.3125 17.75,10.375 l 0.0625,0.0625 -0.125,-0.125 Q 17.5625,10.1875 17.375,10.125 L 17.1875,10.0625 17.46875,10.15625 17.75,10.25 17.375,10.125 Q 17,10 16.625,10.125 16.25,10.25 16.25,10.5 V 10.75 10.5625 10.375 10.5 q 0,0.125 0.09375,0.21875 l 0.09375,0.09375 -0.04687,-0.04687 -0.04687,-0.04687 -0.296875,0.265625 Q 15.75,11.25 15.75,11.5 q 0,0.25 0.296875,0.515625 l 0.296875,0.265625 0.04687,-0.04687 0.04687,-0.04687 -0.09375,0.09375 Q 16.25,12.375 16.25,12.5 V 12.625 12.4375 12.25 12.5 q 0,0.25 0.375,0.375 L 17,13 V 13.5 14 L 16.625,14.125 16.25,14.25 16.53125,14.15625 16.8125,14.0625 16.625,14.125 q -0.1875,0.0625 -0.28125,0.15625 L 16.25,14.375 l 0.04687,-0.04687 0.04687,-0.04687 -0.296875,-0.265625 Q 15.75,13.75 15.75,13.5 q 0,-0.25 -0.25,-0.25 H 15.25 15.4375 15.625 15.5 q -0.125,0 -0.1875,0.0625 L 15.25,13.375 15.28125,13.34375 15.3125,13.3125 15,13.03125 14.6875,12.75 14.65625,12.8125 14.625,12.875 14.6875,12.75 Q 14.75,12.625 14.75,12.5 V 12.375 12.5625 12.75 12.5 12.25 12.4375 12.625 12.5 q 0,-0.125 -0.0625,-0.25 L 14.625,12.125 14.65625,12.1875 14.6875,12.25 14.96875,12 Q 15.25,11.75 15.25,11.5 15.25,11.25 14.96875,11 L 14.6875,10.75 14.65625,10.8125 14.625,10.875 14.6875,10.75 Q 14.75,10.625 14.75,10.5 V 10.375 10.5625 10.75 10.5 10.25 10.4375 10.625 10.5 q 0,-0.125 -0.0625,-0.25 L 14.625,10.125 14.65625,10.1875 14.6875,10.25 14.96875,10 Q 15.25,9.75 15.125,9.375"
       id="path4369" />
    <path
       style="fill:#202020;fill-opacity:1"
       d="M 18.125,9.375 18,9 18.375,8.875 18.75,8.75 18.46875,8.84375 18.1875,8.9375 18.375,8.875 Q 18.5625,8.8125 18.6875,8.6875 L 18.8125,8.5625 18.75,8.625 18.6875,8.6875 18.96875,9 19.25,9.3125 19.3125,9.28125 19.375,9.25 19.25,9.3125 Q 19.125,9.375 19,9.5 L 18.875,9.625 19.0625,9.4375 19.25,9.25 19,9.5 q -0.25,0.25 -0.5,0.25 -0.25,0 -0.375,-0.375"
       id="path4371" />
    <path
       style="fill:#606060;fill-opacity:1"
       d="m 19,9.5 q 0.25,-0.25 0.5,-0.25 0.25,0 0.25,0.25 0,0.25 -0.25,0.5 -0.25,0.25 -0.5,0.5 -0.25,0.25 -0.625,0.375 L 18,11 17.875,10.625 17.75,10.25 17.84375,10.53125 17.9375,10.8125 17.875,10.625 q -0.0625,-0.1875 -0.1875,-0.3125 l -0.125,-0.125 0.0625,0.0625 0.0625,0.0625 L 17.984375,9.984375 18.28125,9.65625 18.234375,9.609375 18.1875,9.5625 18.28125,9.65625 Q 18.375,9.75 18.5,9.75 H 18.625 18.4375 18.25 18.5 q 0.25,0 0.5,-0.25"
       id="path4373" />
    <path
       style="fill:#505050;fill-opacity:1"
       d="m 21.125,9.625 q 0.125,-0.375 0.5,-0.5 L 22,9 V 9.5 10 H 21.5 21 l 0.125,-0.375"
       id="path4375" />
    <path
       style="fill:#303030;fill-opacity:1"
       d="M 22,9.5 V 9 H 22.5 23 23.5 24 V 9.5 10 h -0.5 q -0.5,0 -0.5,0.5 0,0.5 0.375,0.375 0.375,-0.125 0.640625,0.171875 l 0.265625,0.296875 0.04687,-0.04687 L 24.375,11.25 24.28125,11.34375 Q 24.1875,11.4375 24.125,11.625 L 24.0625,11.8125 24.15625,11.53125 24.25,11.25 24.125,11.625 24,12 h -0.5 q -0.5,0 -0.5,0.5 0,0.5 0.125,0.875 0.125,0.375 -0.140625,0.640625 l -0.265625,0.265625 0.07813,0.04687 L 22.875,14.375 22.71875,14.28125 Q 22.5625,14.1875 22.375,14.125 L 22.1875,14.0625 22.46875,14.15625 22.75,14.25 22.375,14.125 22,14 v -0.5 q 0,-0.5 0,-1 0,-0.5 -0.375,-0.375 -0.375,0.125 -0.375,0.375 0,0.25 -0.28125,0.5 L 20.6875,13.25 20.71875,13.3125 20.75,13.375 20.6875,13.25 Q 20.625,13.125 20.5,13 L 20.375,12.875 20.5625,13.0625 20.75,13.25 20.5,13 q -0.25,-0.25 -0.25,-0.5 0,-0.25 0.25,-0.5 0.25,-0.25 0.375,-0.625 L 21,11 h 0.5 Q 22,11 22,10.5 V 10 9.5"
       id="path4377" />
    <path
       style="fill:#000000;fill-opacity:1"
       d="M 24,9.5 V 9 h 0.5 Q 25,9 25,9.5 V 10 H 24.5 24 V 9.5"
       id="path4379" />
    <path
       style="fill:#404040;fill-opacity:1"
       d="m 10,10.5 q 0.25,-0.25 0.625,-0.375 L 11,10 V 10.5 11 L 10.625,11.125 10.25,11.25 10.53125,11.15625 10.8125,11.0625 10.625,11.125 q -0.1875,0.0625 -0.3125,0.1875 l -0.125,0.125 L 10.25,11.375 10.3125,11.3125 10.015625,11.015625 9.71875,10.71875 9.640625,10.765625 9.5625,10.8125 9.71875,10.71875 Q 9.875,10.625 10,10.5 L 10.125,10.375 9.9375,10.5625 9.75,10.75 10,10.5"
       id="path4381" />
    <path
       style="fill:#808080;fill-opacity:1"
       d="m 16.25,10.5 q 0,-0.25 0.375,-0.375 0.375,-0.125 0.75,0 0.375,0.125 0.5,0.5 L 18,11 H 17.5 17 L 16.625,10.875 Q 16.25,10.75 16.25,10.5"
       id="path4383" />
    <path
       style="fill:#202020;fill-opacity:1"
       d="M 19,10.5 Q 19.25,10.25 19.5,10 L 19.75,9.75 19.5625,9.9375 19.375,10.125 19.5,10 Q 19.625,9.875 19.6875,9.75 L 19.75,9.625 19.71875,9.6875 19.6875,9.75 19.96875,10 Q 20.25,10.25 20,10.5 q -0.25,0.25 0.01563,0.515625 l 0.265625,0.265625 0.07813,-0.04687 0.07813,-0.04687 -0.15625,0.09375 Q 20.125,11.375 20,11.5 L 19.875,11.625 20.0625,11.4375 20.25,11.25 20,11.5 q -0.25,0.25 -0.625,0.375 L 19,12 h -0.5 q -0.5,0 -1,0 H 17 V 11.5 11 h 0.5 0.5 l 0.375,-0.125 Q 18.75,10.75 19,10.5"
       id="path4385" />
    <path
       style="fill:#404040;fill-opacity:1"
       d="M 21,10.5 V 10 h 0.5 0.5 v 0.5 Q 22,11 21.5,11 H 21 v -0.5"
       id="path4387" />
    <path
       style="fill:#202020;fill-opacity:1"
       d="M 23,10.5 Q 23,10 23.5,10 H 24 24.5 25 l 0.125,0.375 0.125,0.375 -0.09375,-0.28125 -0.09375,-0.28125 0.0625,0.1875 q 0.0625,0.1875 0.15625,0.34375 L 25.375,10.875 25.328125,10.796875 25.28125,10.71875 25,11.03125 l -0.28125,0.3125 0.04687,0.04687 0.04687,0.04687 -0.09375,-0.09375 Q 24.625,11.25 24.5,11.25 H 24.375 24.5625 24.75 24.5 24.25 24.4375 24.625 24.5 q -0.125,0 -0.21875,0.09375 l -0.09375,0.09375 0.04687,-0.04687 0.04687,-0.04687 -0.265625,-0.296875 Q 23.75,10.75 23.375,10.875 23,11 23,10.5"
       id="path4389" />
    <path
       style="fill:#000000;fill-opacity:1"
       d="M 25.125,10.375 25,10 h 0.5 q 0.5,0 0.625,0.375 0.125,0.375 0.5,0.5 Q 27,11 27,11.5 V 12 H 26.5 26 L 25.875,11.625 Q 25.75,11.25 25.5,11 25.25,10.75 25.125,10.375"
       id="path4391" />
    <path
       style="fill:#d0d0d0;fill-opacity:1"
       d="M 4,11.5 V 11 H 4.5 5 v 0.5 0.5 0.5 Q 5,13 4.625,13.125 L 4.25,13.25 4.53125,13.15625 4.8125,13.0625 4.625,13.125 Q 4.4375,13.1875 4.28125,13.28125 L 4.125,13.375 4.203125,13.328125 4.28125,13.28125 4,13 3.71875,12.71875 3.671875,12.796875 3.625,12.875 3.71875,12.71875 Q 3.8125,12.5625 3.875,12.375 L 3.9375,12.1875 3.84375,12.46875 3.75,12.75 3.875,12.375 Q 4,12 4,11.5 M 5,11.375 V 11 10.875 10.75 11 q 0,0.25 0,0.5 v 0.25 -0.375 m -1,-0.5 V 11 11.375 11.75 11.5 Q 4,11.25 4,11 v -0.25 0.125"
       id="path4393" />
    <path
       style="fill:#000000;fill-opacity:1"
       d="M 7.875,11.375 Q 8,11 8.5,11 H 9 V 11.5 12 L 8.625,12.125 Q 8.25,12.25 8,12.5 7.75,12.75 7.5,13 L 7.25,13.25 7.4375,13.0625 7.625,12.875 7.5,13 Q 7.375,13.125 7.28125,13.28125 L 7.1875,13.4375 7.234375,13.359375 7.28125,13.28125 7.015625,13.015625 Q 6.75,12.75 6.375,12.875 L 6,13 V 12.5 12 h 0.5 q 0.5,0 0.875,-0.125 0.375,-0.125 0.5,-0.5"
       id="path4395" />
    <path
       style="fill:#303030;fill-opacity:1"
       d="M 9,11.5 V 11 L 9.375,10.875 9.75,10.75 9.46875,10.84375 9.1875,10.9375 9.375,10.875 Q 9.5625,10.8125 9.71875,10.71875 L 9.875,10.625 9.796875,10.671875 9.71875,10.71875 10.015625,11.015625 10.3125,11.3125 10.375,11.25 l 0.0625,-0.0625 -0.125,0.125 q -0.125,0.125 -0.1875,0.3125 L 10.0625,11.8125 10.15625,11.53125 10.25,11.25 10.125,11.625 10,12 v 0.5 q 0,0.5 0,1 V 14 14.5 Q 10,15 10.5,15 H 11 v 0.5 q 0,0.5 0,1 Q 11,17 10.5,17 10,17 10,17.5 10,18 9.5,18 9,18 9,18.5 q 0,0.5 0,1 0,0.5 0,1 0,0.5 0,1 Q 9,22 8.5,22 8,22 7.5,22 H 7 V 21.5 Q 7,21 7,20.5 7,20 6.625,19.875 6.25,19.75 6.125,19.375 L 6,19 V 18.5 Q 6,18 6,17.5 6,17 6,16.5 6,16 6,15.5 6,15 6,14.5 6,14 6,13.5 V 13 L 6.375,12.875 Q 6.75,12.75 7.015625,13.015625 L 7.28125,13.28125 7.328125,13.203125 7.375,13.125 7.28125,13.28125 Q 7.1875,13.4375 7.125,13.625 L 7.0625,13.8125 7.15625,13.53125 7.25,13.25 7.125,13.625 7,14 v 0.5 q 0,0.5 0,1 0,0.5 0,1 V 17 17.5 Q 7,18 7,18.5 7,19 7.5,19 8,19 8,18.5 8,18 8,17.5 V 17 H 8.5 Q 9,17 9,16.5 9,16 9,15.5 V 15 14.5 Q 9,14 9,13.5 V 13 12.5 12 11.5"
       id="path4397" />
    <path
       style="fill:#606060;fill-opacity:1"
       d="m 10.125,11.625 q 0.125,-0.375 0.5,-0.5 L 11,11 V 11.5 12 H 10.5 10 l 0.125,-0.375"
       id="path4399" />
    <path
       style="fill:#404040;fill-opacity:1"
       d="m 14.25,11.5 q 0,-0.25 0.25,-0.5 L 14.75,10.75 14.5625,10.9375 14.375,11.125 14.5,11 q 0.125,-0.125 0.1875,-0.25 L 14.75,10.625 14.71875,10.6875 14.6875,10.75 14.96875,11 q 0.28125,0.25 0.28125,0.5 0,0.25 -0.28125,0.5 L 14.6875,12.25 14.71875,12.3125 14.75,12.375 14.6875,12.25 Q 14.625,12.125 14.5,12 L 14.375,11.875 14.5625,12.0625 14.75,12.25 14.5,12 q -0.25,-0.25 -0.25,-0.5"
       id="path4401" />
    <path
       style="fill:#404040;fill-opacity:1"
       d="m 15.75,11.5 q 0,-0.25 0.296875,-0.515625 L 16.34375,10.71875 16.296875,10.671875 16.25,10.625 16.34375,10.71875 Q 16.4375,10.8125 16.625,10.875 L 16.8125,10.9375 16.53125,10.84375 16.25,10.75 16.625,10.875 17,11 V 11.5 12 L 16.625,12.125 16.25,12.25 16.53125,12.15625 16.8125,12.0625 16.625,12.125 q -0.1875,0.0625 -0.28125,0.15625 L 16.25,12.375 l 0.04687,-0.04687 0.04687,-0.04687 -0.296875,-0.265625 Q 15.75,11.75 15.75,11.5"
       id="path4403" />
    <path
       style="fill:#606060;fill-opacity:1"
       d="m 20,11.5 q 0.25,-0.25 0.625,-0.375 L 21,11 20.875,11.375 Q 20.75,11.75 20.5,12 q -0.25,0.25 -0.25,0.5 0,0.25 0.25,0.5 0.25,0.25 0.25,0.5 0,0.25 -0.25,0.5 -0.25,0.25 -0.5,0.5 -0.25,0.25 -0.5,0.5 L 19.25,15.25 19.4375,15.0625 19.625,14.875 19.5,15 q -0.125,0.125 -0.21875,0.28125 l -0.09375,0.15625 0.04687,-0.07813 0.04687,-0.07813 -0.265625,-0.265625 Q 18.75,14.75 18.5,15 L 18.25,15.25 18.4375,15.0625 18.625,14.875 18.5,15 q -0.125,0.125 -0.21875,0.28125 l -0.09375,0.15625 0.04687,-0.07813 0.04687,-0.07813 L 17.984375,14.984375 17.6875,14.6875 17.625,14.75 l -0.0625,0.0625 0.125,-0.125 q 0.125,-0.125 0.1875,-0.3125 L 17.9375,14.1875 17.84375,14.46875 17.75,14.75 17.875,14.375 18,14 h 0.5 q 0.5,0 0.875,-0.125 0.375,-0.125 0.375,-0.375 0,-0.25 -0.375,-0.375 L 19,13 V 12.5 12 l 0.375,-0.125 Q 19.75,11.75 20,11.5"
       id="path4405" />
    <path
       style="fill:#505050;fill-opacity:1"
       d="M 24.125,11.625 Q 24.25,11.25 24.5,11.25 q 0.25,0 0.375,0.375 L 25,12 H 24.5 24 l 0.125,-0.375"
       id="path4407" />
    <path
       style="fill:#404040;fill-opacity:1"
       d="M 24.875,11.625 24.75,11.25 24.84375,11.53125 24.9375,11.8125 24.875,11.625 Q 24.8125,11.4375 24.71875,11.34375 L 24.625,11.25 l 0.04687,0.04687 0.04687,0.04687 0.28125,-0.3125 0.28125,-0.3125 -0.04687,-0.07813 -0.04687,-0.07813 0.09375,0.15625 Q 25.375,10.875 25.5,11 L 25.625,11.125 25.4375,10.9375 25.25,10.75 25.5,11 q 0.25,0.25 0.375,0.625 L 26,12 H 25.5 25 l -0.125,-0.375"
       id="path4409" />
    <path
       style="fill:#202020;fill-opacity:1"
       d="M 5,12.5 V 12 H 5.5 6 v 0.5 0.5 0.5 q 0,0.5 0,1 0,0.5 0,1 0,0.5 0,1 0,0.5 0,1 0,0.5 0,1 V 19 H 5.5 5 V 18.5 Q 5,18 5,17.5 V 17 16.5 Q 5,16 5,15.5 V 15 14.5 14 14.375 14.75 14.5 Q 5,14.25 4.875,14.125 L 4.75,14 4.8125,14.0625 4.875,14.125 4.890625,13.515625 4.90625,12.90625 4.859375,12.984375 4.8125,13.0625 4.90625,12.90625 Q 5,12.75 5,12.5 V 12.25 12.625 13 12.5"
       id="path4411" />
    <path
       style="fill:#404040;fill-opacity:1"
       d="M 8,12.5 Q 8.25,12.25 8.625,12.125 L 9,12 V 12.5 13 L 8.625,13.125 Q 8.25,13.25 8.125,13.625 8,14 7.5,14 H 7 L 7.125,13.625 Q 7.25,13.25 7.5,13 7.75,12.75 8,12.5"
       id="path4413" />
    <path
       style="fill:#505050;fill-opacity:1"
       d="M 10,12.5 V 12 h 0.5 0.5 v 0.5 q 0,0.5 0,1 V 14 H 10.5 10 v -0.5 q 0,-0.5 0,-1"
       id="path4415" />
    <path
       style="fill:#808080;fill-opacity:1"
       d="m 16.25,12.5 q 0,-0.25 0.375,-0.375 L 17,12 h 0.5 q 0.5,0 1,0 H 19 v 0.5 0.5 h -0.5 q -0.5,0 -1,0 H 17 L 16.625,12.875 Q 16.25,12.75 16.25,12.5"
       id="path4417" />
    <path
       style="fill:#202020;fill-opacity:1"
       d="m 21.25,12.5 q 0,-0.25 0.375,-0.375 Q 22,12 22,12.5 q 0,0.5 0,1 V 14 L 21.625,14.125 21.25,14.25 21.53125,14.15625 21.8125,14.0625 21.625,14.125 q -0.1875,0.0625 -0.3125,0.1875 l -0.125,0.125 L 21.25,14.375 21.3125,14.3125 21,14.03125 20.6875,13.75 20.65625,13.8125 20.625,13.875 20.6875,13.75 Q 20.75,13.625 20.75,13.5 V 13.375 13.5625 13.75 13.5 13.25 13.4375 13.625 13.5 q 0,-0.125 -0.0625,-0.25 L 20.625,13.125 20.65625,13.1875 20.6875,13.25 20.96875,13 Q 21.25,12.75 21.25,12.5"
       id="path4419" />
    <path
       style="fill:#505050;fill-opacity:1"
       d="M 23,12.5 Q 23,12 23.5,12 H 24 v 0.5 0.5 l -0.125,0.375 Q 23.75,13.75 24,14 L 24.25,14.25 24,14.5 q -0.25,0.25 -0.5,0.25 -0.25,0 -0.5,-0.25 L 22.75,14.25 22.9375,14.4375 23.125,14.625 23,14.5 q -0.125,-0.125 -0.28125,-0.21875 l -0.15625,-0.09375 0.07813,0.04687 0.07813,0.04687 0.265625,-0.265625 Q 23.25,13.75 23.125,13.375 23,13 23,12.5 M 24.0625,14.4375 24.25,14.25 24.3125,14.1875 24.375,14.125 24.25,14.25 Q 24.125,14.375 24,14.5 l -0.125,0.125 0.1875,-0.1875"
       id="path4421" />
    <path
       style="fill:#404040;fill-opacity:1"
       d="M 24,12.5 V 12 h 0.5 0.5 l -0.125,0.375 q -0.125,0.375 -0.5,0.5 L 24,13 v -0.5"
       id="path4423" />
    <path
       style="fill:#303030;fill-opacity:1"
       d="M 24.875,12.375 25,12 H 25.5 26 26.5 27 V 12.5 13 H 26.5 Q 26,13 25.625,13.125 25.25,13.25 25,13.5 24.75,13.75 24.5,14 L 24.25,14.25 24,14 Q 23.75,13.75 23.875,13.375 L 24,13 24.375,12.875 q 0.375,-0.125 0.5,-0.5 M 24.1875,14.3125 24.25,14.25 24.4375,14.0625 24.625,13.875 24.5,14 q -0.125,0.125 -0.25,0.25 l -0.125,0.125 0.0625,-0.0625"
       id="path4425" />
    <path
       style="fill:#000000;fill-opacity:1"
       d="M 27,12.5 V 12 h 0.5 Q 28,12 28,12.5 V 13 H 27.5 27 v -0.5"
       id="path4427" />
    <path
       style="fill:#a0a0a0;fill-opacity:1"
       d="M 3.125,13.625 Q 3.25,13.25 3.5,13 L 3.75,12.75 3.5625,12.9375 3.375,13.125 3.5,13 Q 3.625,12.875 3.71875,12.71875 L 3.8125,12.5625 3.765625,12.640625 3.71875,12.71875 4,13 4.28125,13.28125 4.359375,13.234375 4.4375,13.1875 4.28125,13.28125 Q 4.125,13.375 4,13.5 L 3.875,13.625 4.0625,13.4375 4.25,13.25 4,13.5 Q 3.75,13.75 3.40625,13.875 L 3.0625,14 V 14.09375 14.1875 14 q 0,-0.1875 0.0625,-0.375 L 3.1875,13.4375 3.09375,13.71875 3,14 3.125,13.625"
       id="path4429" />
    <path
       style="fill:#606060;fill-opacity:1"
       d="M 4,13.5 Q 4.25,13.25 4.625,13.125 L 5,13 4.71875,13.09375 4.4375,13.1875 4.625,13.125 Q 4.8125,13.0625 4.90625,12.90625 L 5,12.75 4.953125,12.828125 4.90625,12.90625 4.890625,13.515625 4.875,14.125 4.9375,14.1875 5,14.25 4.875,14.125 Q 4.75,14 4.5,14 H 4.25 4.625 5 l -0.375,0.125 q -0.375,0.125 -0.5,0.5 L 4,15 4.09375,14.71875 4.1875,14.4375 4.125,14.625 Q 4.0625,14.8125 4.03125,15.03125 L 4,15.25 4.015625,15.140625 4.03125,15.03125 3.640625,14.890625 Q 3.25,14.75 3.125,14.375 L 3,14 3.09375,14.28125 3.1875,14.5625 3.125,14.375 Q 3.0625,14.1875 3.0625,14 V 13.8125 13.90625 14 L 3.40625,13.875 Q 3.75,13.75 4,13.5"
       id="path4431" />
    <path
       style="fill:#505050;fill-opacity:1"
       d="m 8.125,13.625 q 0.125,-0.375 0.5,-0.5 L 9,13 v 0.5 q 0,0.5 0,1 V 15 H 8.5 Q 8,15 8,15.5 8,16 8,16.5 V 17 H 7.5 7 V 16.5 Q 7,16 7,15.5 7,15 7,14.5 V 14 H 7.5 Q 8,14 8.125,13.625"
       id="path4433" />
    <path
       style="fill:#606060;fill-opacity:1"
       d="m 13.25,13.5 q 0,-0.25 0.25,-0.5 L 13.75,12.75 13.5625,12.9375 13.375,13.125 13.5,13 q 0.125,-0.125 0.1875,-0.25 L 13.75,12.625 13.71875,12.6875 13.6875,12.75 14,13 14.3125,13.25 14.34375,13.1875 14.375,13.125 14.3125,13.25 Q 14.25,13.375 14.25,13.5 V 13.625 13.4375 13.25 13.5 q 0,0.25 0.25,0.5 0.25,0.25 0.375,0.625 L 15,15 14.625,14.875 Q 14.25,14.75 14,14.5 13.75,14.25 13.5,14 13.25,13.75 13.25,13.5"
       id="path4435" />
    <path
       style="fill:#202020;fill-opacity:1"
       d="m 14.25,13.5 q 0,-0.25 0.25,-0.5 L 14.75,12.75 14.5625,12.9375 14.375,13.125 14.5,13 q 0.125,-0.125 0.1875,-0.25 L 14.75,12.625 14.71875,12.6875 14.6875,12.75 15,13.03125 15.3125,13.3125 15.34375,13.28125 15.375,13.25 15.3125,13.3125 Q 15.25,13.375 15.25,13.5 V 13.625 13.4375 13.25 13.5 q 0,0.25 -0.265625,0.515625 l -0.265625,0.265625 0.04687,0.07813 0.04687,0.07813 -0.09375,-0.15625 Q 14.625,14.125 14.5,14 L 14.375,13.875 14.5625,14.0625 14.75,14.25 14.5,14 q -0.25,-0.25 -0.25,-0.5"
       id="path4437" />
    <path
       style="fill:#404040;fill-opacity:1"
       d="m 15.25,13.5 q 0,-0.25 0.25,-0.25 0.25,0 0.25,0.25 0,0.25 0.296875,0.515625 l 0.296875,0.265625 0.04687,-0.04687 0.04687,-0.04687 -0.09375,0.09375 Q 16.25,14.375 16.25,14.5 V 14.625 14.4375 14.25 14.5 q 0,0.25 0.375,0.375 L 17,15 V 15.5 16 H 16.5 Q 16,16 16,16.5 V 17 H 15.5 15 v -0.5 q 0,-0.5 0,-1 V 15 L 14.875,14.625 14.75,14.25 14.84375,14.53125 14.9375,14.8125 14.875,14.625 Q 14.8125,14.4375 14.71875,14.28125 L 14.625,14.125 l 0.04687,0.07813 0.04687,0.07813 0.265625,-0.265625 Q 15.25,13.75 15.25,13.5"
       id="path4439" />
    <path
       style="fill:#202020;fill-opacity:1"
       d="M 17,13.5 V 13 h 0.5 q 0.5,0 1,0 H 19 l 0.375,0.125 q 0.375,0.125 0.375,0.375 0,0.25 -0.375,0.375 Q 19,14 18.5,14 H 18 17.5 17 v -0.5"
       id="path4441" />
    <path
       style="fill:#000000;fill-opacity:1"
       d="M 25,13.5 Q 25.25,13.25 25.625,13.125 26,13 26.5,13 H 27 V 13.5 14 L 26.625,13.875 Q 26.25,13.75 26,14.03125 L 25.75,14.3125 25.8125,14.34375 25.875,14.375 25.75,14.3125 Q 25.625,14.25 25.5,14.25 H 25.375 25.5625 25.75 25.5 q -0.25,0 -0.375,0.375 Q 25,15 25,15.5 25,16 25.125,16.375 L 25.25,16.75 25.15625,16.46875 25.0625,16.1875 25.125,16.375 q 0.0625,0.1875 0.1875,0.3125 l 0.125,0.125 L 25.375,16.75 25.3125,16.6875 25.03125,16.96875 Q 24.75,17.25 24.875,17.625 L 25,18 h -0.5 q -0.5,0 -0.5,0.5 0,0.5 0,1 0,0.5 0,1 V 21 H 23.5 Q 23,21 23,20.5 q 0,-0.5 0,-1 0,-0.5 0,-1 0,-0.5 0,-1 V 17 h 0.5 Q 24,17 24,16.5 24,16 24.125,15.625 24.25,15.25 24,14.96875 L 23.75,14.6875 23.6875,14.71875 23.625,14.75 23.75,14.6875 Q 23.875,14.625 24,14.5 L 24.125,14.375 23.9375,14.5625 23.75,14.75 24,14.5 q 0.25,-0.25 0.5,-0.5 0.25,-0.25 0.5,-0.5"
       id="path4443" />
    <path
       style="fill:#303030;fill-opacity:1"
       d="M 27,13.5 V 13 h 0.5 0.5 v 0.5 Q 28,14 27.5,14 H 27 v -0.5"
       id="path4445" />
    <path
       style="fill:#000000;fill-opacity:1"
       d="M 28,13.5 V 13 h 0.5 q 0.5,0 0.5,0.5 0,0.5 0,1 0,0.5 0,1 V 16 H 28.5 28 v -0.5 q 0,-0.5 -0.375,-0.625 -0.375,-0.125 -0.5,-0.5 L 27,14 h 0.5 Q 28,14 28,13.5"
       id="path4447" />
    <path
       style="fill:#e0e0e0;fill-opacity:1"
       d="M 4.125,14.625 Q 4.25,14.25 4.625,14.125 5,14 5,14.5 V 15 L 4.515625,15.015625 4.03125,15.03125 4.015625,15.140625 4,15.25 4.03125,15.03125 Q 4.0625,14.8125 4.125,14.625 L 4.1875,14.4375 4.09375,14.71875 4,15 4.125,14.625"
       id="path4449" />
    <path
       style="fill:#404040;fill-opacity:1"
       d="M 10,14.5 V 14 H 10.5 11 V 14.5 15 H 10.5 Q 10,15 10,14.5"
       id="path4451" />
    <path
       style="fill:#202020;fill-opacity:1"
       d="M 12.875,14.625 Q 12.75,14.25 13.03125,14 L 13.3125,13.75 13.28125,13.6875 13.25,13.625 13.3125,13.75 Q 13.375,13.875 13.5,14 L 13.625,14.125 13.4375,13.9375 13.25,13.75 13.5,14 q 0.25,0.25 0.5,0.5 L 14.25,14.75 14.0625,14.5625 13.875,14.375 14,14.5 q 0.125,0.125 0.28125,0.21875 l 0.15625,0.09375 -0.07813,-0.04687 -0.07813,-0.04687 -0.265625,0.265625 Q 13.75,15.25 13.875,15.625 14,16 14,16.5 V 17 l -0.125,0.375 q -0.125,0.375 0.140625,0.640625 l 0.265625,0.265625 0.07813,-0.04687 0.07813,-0.04687 -0.15625,0.09375 Q 14.125,18.375 14,18.5 L 13.875,18.625 14.0625,18.4375 14.25,18.25 14,18.5 q -0.25,0.25 -0.625,0.375 L 13,19 v -0.5 q 0,-0.5 0,-1 0,-0.5 0,-1 0,-0.5 0,-1 0,-0.5 -0.125,-0.875"
       id="path4453" />
    <path
       style="fill:#808080;fill-opacity:1"
       d="m 16.25,14.5 q 0,-0.25 0.375,-0.375 L 17,14 h 0.5 0.5 l -0.125,0.375 q -0.125,0.375 -0.5,0.5 L 17,15 16.625,14.875 Q 16.25,14.75 16.25,14.5"
       id="path4455" />
    <path
       style="fill:#000000;fill-opacity:1"
       d="M 20,14.5 Q 20.25,14.25 20.5,14 L 20.75,13.75 20.5625,13.9375 20.375,14.125 20.5,14 q 0.125,-0.125 0.1875,-0.25 L 20.75,13.625 20.71875,13.6875 20.6875,13.75 21,14.03125 21.3125,14.3125 21.375,14.25 l 0.0625,-0.0625 -0.125,0.125 q -0.125,0.125 -0.1875,0.3125 L 21.0625,14.8125 21.15625,14.53125 21.25,14.25 21.125,14.625 Q 21,15 21,15.5 q 0,0.5 0,1 V 17 H 20.5 20 V 16.5 Q 20,16 20.125,15.625 20.25,15.25 20,15 L 19.75,14.75 20,14.5 M 19.9375,14.5625 19.75,14.75 19.6875,14.8125 19.625,14.875 19.75,14.75 Q 19.875,14.625 20,14.5 l 0.125,-0.125 -0.1875,0.1875"
       id="path4457" />
    <path
       style="fill:#000000;fill-opacity:0"
       d="m 21.125,14.625 q 0.125,-0.375 0.5,-0.5 L 22,14 v 0.5 q 0,0.5 0,1 0,0.5 0,1 V 17 H 21.5 21 v -0.5 q 0,-0.5 0,-1 0,-0.5 0.125,-0.875"
       id="path4459" />
    <path
       style="fill:#000000;fill-opacity:1"
       d="M 22,14.5 V 14 l 0.375,0.125 Q 22.75,14.25 23,14.5 L 23.25,14.75 23.0625,14.5625 22.875,14.375 23,14.5 q 0.125,0.125 0.25,0.1875 L 23.375,14.75 23.3125,14.71875 23.25,14.6875 23,14.96875 Q 22.75,15.25 22.875,15.625 23,16 23,16.5 V 17 H 22.5 22 v -0.5 q 0,-0.5 0,-1 0,-0.5 0,-1"
       id="path4461" />
    <path
       style="fill:#505050;fill-opacity:1"
       d="M 25.125,14.625 Q 25.25,14.25 25.5,14.25 q 0.25,0 0.5,0.25 l 0.25,0.25 -0.265625,0.265625 -0.265625,0.265625 0.07813,0.04687 L 25.875,15.375 25.71875,15.28125 Q 25.5625,15.1875 25.375,15.125 L 25.1875,15.0625 25.46875,15.15625 25.75,15.25 25.390625,15.140625 25.03125,15.03125 25.015625,15.140625 25,15.25 25.03125,15.03125 Q 25.0625,14.8125 25.125,14.625 L 25.1875,14.4375 25.09375,14.71875 25,15 25.125,14.625 M 26.3125,14.8125 26.25,14.75 26.0625,14.5625 25.875,14.375 26,14.5 q 0.125,0.125 0.25,0.25 l 0.125,0.125 -0.0625,-0.0625"
       id="path4463" />
    <path
       style="fill:#202020;fill-opacity:1"
       d="M 26,14.5 25.75,14.25 25.9375,14.4375 26.125,14.625 26,14.5 Q 25.875,14.375 25.75,14.3125 L 25.625,14.25 25.6875,14.28125 25.75,14.3125 26,14.03125 Q 26.25,13.75 26.625,13.875 L 27,14 l 0.125,0.375 q 0.125,0.375 0.5,0.5 Q 28,15 28,15.5 v 0.5 0.5 q 0,0.5 0,1 V 18 18.5 19 H 27.5 Q 27,19 27,19.5 27,20 26.5,20 H 26 V 19.5 Q 26,19 25.5,19 25,19 25,18.5 V 18 L 24.875,17.625 Q 24.75,17.25 25.03125,16.96875 L 25.3125,16.6875 25.25,16.625 l -0.0625,-0.0625 0.125,0.125 q 0.125,0.125 0.3125,0.1875 L 25.8125,16.9375 25.53125,16.84375 25.25,16.75 25.625,16.875 26,17 26.375,16.875 q 0.375,-0.125 0.5,-0.5 Q 27,16 26.875,15.625 26.75,15.25 26.5,15 26.25,14.75 26,14.5"
       id="path4465" />
    <path
       style="fill:#d0d0d0;fill-opacity:1"
       d="M 4,15.5 V 15 15.375 15.75 15.5 Q 4,15.25 4.03125,15.03125 L 4.0625,14.8125 4.046875,14.921875 4.03125,15.03125 4.515625,15.015625 5,15 v 0.5 q 0,0.5 0,1 V 17 H 4.5 4 v -0.5 q 0,-0.5 0,-1"
       id="path4467" />
    <path
       style="fill:#404040;fill-opacity:1"
       d="M 8,15.5 Q 8,15 8.5,15 H 9 v 0.5 Q 9,16 9,16.5 9,17 8.5,17 H 8 v -0.5 q 0,-0.5 0,-1"
       id="path4469" />
    <path
       style="fill:#202020;fill-opacity:1"
       d="M 11,15.5 V 15 h 0.5 0.5 v 0.5 q 0,0.5 0,1 0,0.5 0,1 Q 12,18 11.5,18 11,18 11,18.5 V 19 h -0.5 q -0.5,0 -0.5,0.5 0,0.5 0,1 0,0.5 0,1 0,0.5 0,1 V 23 H 9.5 Q 9,23 8.5,23 8,23 7.5,23 7,23 7,22.5 V 22 H 7.5 Q 8,22 8.5,22 9,22 9,21.5 9,21 9,20.5 9,20 9,19.5 9,19 9,18.5 9,18 9.5,18 10,18 10,17.5 10,17 10.5,17 11,17 11,16.5 q 0,-0.5 0,-1"
       id="path4471" />
    <path
       style="fill:#303030;fill-opacity:1"
       d="M 13.875,15.625 Q 13.75,15.25 14.015625,14.984375 L 14.28125,14.71875 14.203125,14.671875 14.125,14.625 14.28125,14.71875 Q 14.4375,14.8125 14.625,14.875 L 14.8125,14.9375 14.53125,14.84375 14.25,14.75 14.625,14.875 15,15 v 0.5 q 0,0.5 0,1 V 17 H 14.5 14 V 16.5 Q 14,16 13.875,15.625"
       id="path4473" />
    <path
       style="fill:#303030;fill-opacity:1"
       d="M 17,15.5 V 15 L 17.375,14.875 17.75,14.75 17.46875,14.84375 17.1875,14.9375 17.375,14.875 q 0.1875,-0.0625 0.3125,-0.1875 l 0.125,-0.125 -0.0625,0.0625 -0.0625,0.0625 0.296875,0.296875 0.296875,0.296875 0.04687,-0.07813 L 18.375,15.125 18.28125,15.28125 Q 18.1875,15.4375 18.125,15.625 L 18.0625,15.8125 18.15625,15.53125 18.25,15.25 18.125,15.625 Q 18,16 18,16.5 v 0.5 0.5 q 0,0.5 0,1 V 19 19.5 20 H 17.5 17 v -0.5 q 0,-0.5 0,-1 V 18 17.5 q 0,-0.5 0,-1 V 16 15.5"
       id="path4475" />
    <path
       style="fill:#404040;fill-opacity:1"
       d="M 18.125,15.625 Q 18.25,15.25 18.5,15 q 0.25,-0.25 0.515625,0.01563 l 0.265625,0.265625 0.04687,-0.07813 L 19.375,15.125 19.28125,15.28125 Q 19.1875,15.4375 19.125,15.625 L 19.0625,15.8125 19.15625,15.53125 19.25,15.25 19.125,15.625 Q 19,16 19.125,16.375 L 19.25,16.75 19.15625,16.46875 19.0625,16.1875 19.125,16.375 q 0.0625,0.1875 0.1875,0.3125 l 0.125,0.125 L 19.375,16.75 19.3125,16.6875 19,17 l -0.3125,0.3125 0.0625,0.0625 0.0625,0.0625 -0.125,-0.125 Q 18.5625,17.1875 18.375,17.125 L 18.1875,17.0625 18.46875,17.15625 18.75,17.25 18.375,17.125 18,17 v -0.5 q 0,-0.5 0.125,-0.875"
       id="path4477" />
    <path
       style="fill:#202020;fill-opacity:1"
       d="M 19.125,15.625 Q 19.25,15.25 19.5,15 L 19.75,14.75 20,15 q 0.25,0.25 0.125,0.625 Q 20,16 20,16.5 V 17 L 19.625,16.875 Q 19.25,16.75 19.125,16.375 19,16 19.125,15.625 M 19.8125,14.6875 19.75,14.75 19.5625,14.9375 19.375,15.125 19.5,15 q 0.125,-0.125 0.25,-0.25 l 0.125,-0.125 -0.0625,0.0625"
       id="path4479" />
    <path
       style="fill:#303030;fill-opacity:1"
       d="M 22.875,15.625 Q 22.75,15.25 23,14.96875 L 23.25,14.6875 23.1875,14.65625 23.125,14.625 23.25,14.6875 Q 23.375,14.75 23.5,14.75 H 23.625 23.4375 23.25 23.5 23.75 23.5625 23.375 23.5 q 0.125,0 0.25,-0.0625 L 23.875,14.625 23.8125,14.65625 23.75,14.6875 24,14.96875 Q 24.25,15.25 24.125,15.625 24,16 24,16.5 24,17 23.5,17 H 23 V 16.5 Q 23,16 22.875,15.625"
       id="path4481" />
    <path
       style="fill:#a0a0a0;fill-opacity:1"
       d="M 25,15.5 V 15 15.375 15.75 15.5 q 0,-0.25 0.03125,-0.46875 l 0.03125,-0.21875 -0.01563,0.109375 -0.01563,0.109375 0.359375,0.109375 Q 25.75,15.25 26,15.5 q 0.25,0.25 -0.03125,0.53125 l -0.28125,0.28125 0.0625,0.0625 0.0625,0.0625 -0.125,-0.125 Q 25.5625,16.1875 25.375,16.125 L 25.1875,16.0625 25.46875,16.15625 25.75,16.25 25.390625,16.109375 25.03125,15.96875 25.046875,16.078125 25.0625,16.1875 25.03125,15.96875 Q 25,15.75 25,15.5 V 15.25 15.625 16 15.5"
       id="path4483" />
    <path
       style="fill:#707070;fill-opacity:1"
       d="M 26,15.5 25.75,15.25 25.9375,15.4375 26.125,15.625 26,15.5 q -0.125,-0.125 -0.28125,-0.21875 l -0.15625,-0.09375 0.07813,0.04687 0.07813,0.04687 0.265625,-0.265625 L 26.25,14.75 26.5,15 q 0.25,0.25 0.375,0.625 0.125,0.375 0,0.75 -0.125,0.375 -0.5,0.5 L 26,17 25.875,16.625 25.75,16.25 25.84375,16.53125 25.9375,16.8125 25.875,16.625 q -0.0625,-0.1875 -0.1875,-0.3125 l -0.125,-0.125 0.0625,0.0625 0.0625,0.0625 0.28125,-0.28125 Q 26.25,15.75 26,15.5 M 26.4375,14.9375 26.25,14.75 26.1875,14.6875 26.125,14.625 26.25,14.75 q 0.125,0.125 0.25,0.25 l 0.125,0.125 -0.1875,-0.1875"
       id="path4485" />
    <path
       style="fill:#505050;fill-opacity:1"
       d="M 16,16.5 Q 16,16 16.5,16 H 17 v 0.5 q 0,0.5 0,1 V 18 H 16.5 16 V 17.5 17 16.5"
       id="path4487" />
    <path
       style="fill:#505050;fill-opacity:1"
       d="M 25.125,16.375 25,16 25.09375,16.28125 25.1875,16.5625 25.125,16.375 Q 25.0625,16.1875 25.03125,15.96875 L 25,15.75 l 0.01563,0.109375 0.01563,0.109375 0.359375,0.140625 Q 25.75,16.25 25.875,16.625 L 26,17 25.625,16.875 q -0.375,-0.125 -0.5,-0.5"
       id="path4489" />
    <path
       style="fill:#303030;fill-opacity:1"
       d="M 28,16.5 V 16 h 0.5 0.5 v 0.5 q 0,0.5 0,1 V 18 H 28.5 28 v -0.5 q 0,-0.5 0,-1"
       id="path4491" />
    <path
       style="fill:#000000;fill-opacity:1"
       d="M 29,16.5 V 16 h 0.5 q 0.5,0 0.5,0.5 0,0.5 0,1 0,0.5 -0.5,0.5 H 29 v -0.5 q 0,-0.5 0,-1"
       id="path4493" />
    <path
       style="fill:#c0c0c0;fill-opacity:1"
       d="M 4,17.5 V 17 H 4.5 5 v 0.5 q 0,0.5 0,1 V 19 l 0.125,0.375 Q 5.25,19.75 5.5,20 5.75,20.25 5.875,20.625 L 6,21 H 5.5 5 L 4.875,20.625 Q 4.75,20.25 4.5,20 4.25,19.75 4.125,19.375 4,19 4,18.5 4,18 4,17.5"
       id="path4495" />
    <path
       style="fill:#404040;fill-opacity:1"
       d="M 7,17.5 V 17 H 7.5 8 v 0.5 Q 8,18 8,18.5 8,19 7.5,19 7,19 7,18.5 7,18 7,17.5"
       id="path4497" />
    <path
       style="fill:#404040;fill-opacity:1"
       d="M 13.875,17.375 14,17 H 14.5 15 V 17.5 18 L 14.625,18.125 14.25,18.25 14.53125,18.15625 14.8125,18.0625 14.625,18.125 q -0.1875,0.0625 -0.34375,0.15625 L 14.125,18.375 l 0.07813,-0.04687 0.07813,-0.04687 -0.265625,-0.265625 Q 13.75,17.75 13.875,17.375"
       id="path4499" />
    <path
       style="fill:#303030;fill-opacity:1"
       d="M 15,17.5 V 17 h 0.5 0.5 v 0.5 0.5 0.5 q 0,0.5 0,1 V 20 20.5 21 21.5 22 H 15.5 15 V 21.5 21 20.5 20 19.5 19 18.5 18 17.5"
       id="path4501" />
    <path
       style="fill:#505050;fill-opacity:1"
       d="M 18,17.5 V 17 l 0.375,0.125 q 0.375,0.125 0.5,0.5 L 19,18 V 18.5 19 H 18.5 18 v -0.5 q 0,-0.5 0,-1"
       id="path4503" />
    <path
       style="fill:#303030;fill-opacity:1"
       d="M 18.875,17.625 18.75,17.25 18.84375,17.53125 18.9375,17.8125 18.875,17.625 q -0.0625,-0.1875 -0.1875,-0.3125 l -0.125,-0.125 0.0625,0.0625 0.0625,0.0625 L 19,17 19.3125,16.6875 19.25,16.625 l -0.0625,-0.0625 0.125,0.125 q 0.125,0.125 0.3125,0.1875 L 19.8125,16.9375 19.53125,16.84375 19.25,16.75 19.625,16.875 20,17 V 17.5 18 H 19.5 19 l -0.125,-0.375"
       id="path4505" />
    <path
       style="fill:#202020;fill-opacity:1"
       d="M 20,17.5 V 17 h 0.5 0.5 v 0.5 q 0,0.5 0,1 0,0.5 0,1 V 20 L 20.625,19.875 Q 20.25,19.75 20,19.5 L 19.75,19.25 19.9375,19.4375 20.125,19.625 20,19.5 q -0.125,-0.125 -0.28125,-0.21875 l -0.15625,-0.09375 0.07813,0.04687 0.07813,0.04687 0.265625,-0.265625 Q 20.25,18.75 20.125,18.375 L 20,18 v -0.5"
       id="path4507" />
    <path
       style="fill:#000000;fill-opacity:1"
       d="M 21,17.5 V 17 h 0.5 0.5 v 0.5 q 0,0.5 0,1 0,0.5 0,1 0,0.5 0,1 0,0.5 0,1 0,0.5 0,1 V 23 L 21.625,22.875 Q 21.25,22.75 21.125,22.375 21,22 21,21.5 21,21 21,20.5 V 20 19.5 q 0,-0.5 0,-1 0,-0.5 0,-1"
       id="path4509" />
    <path
       style="fill:#505050;fill-opacity:1"
       d="m 14,18.5 q 0.25,-0.25 0.625,-0.375 L 15,18 V 18.5 19 L 14.625,19.125 14.25,19.25 14.53125,19.15625 14.8125,19.0625 14.625,19.125 q -0.1875,0.0625 -0.3125,0.1875 l -0.125,0.125 0.0625,-0.0625 0.0625,-0.0625 -0.296875,-0.296875 -0.296875,-0.296875 -0.07813,0.04687 -0.07813,0.04687 0.15625,-0.09375 Q 13.875,18.625 14,18.5 L 14.125,18.375 13.9375,18.5625 13.75,18.75 14,18.5"
       id="path4511" />
    <path
       style="fill:#606060;fill-opacity:1"
       d="M 16,18.5 V 18 h 0.5 0.5 v 0.5 q 0,0.5 0,1 V 20 H 16.5 16 v -0.5 q 0,-0.5 0,-1"
       id="path4513" />
    <path
       style="fill:#404040;fill-opacity:1"
       d="M 19,18.5 V 18 h 0.5 0.5 l 0.125,0.375 q 0.125,0.375 -0.140625,0.640625 l -0.265625,0.265625 0.07813,0.04687 L 19.875,19.375 19.71875,19.28125 Q 19.5625,19.1875 19.375,19.125 L 19.1875,19.0625 19.46875,19.15625 19.75,19.25 19.375,19.125 19,19 v -0.5"
       id="path4515" />
    <path
       style="fill:#303030;fill-opacity:1"
       d="M 24,18.5 Q 24,18 24.5,18 H 25 v 0.5 Q 25,19 25.5,19 26,19 26,19.5 V 20 H 25.5 Q 25,20 25,20.5 V 21 H 24.5 24 v -0.5 q 0,-0.5 0,-1 0,-0.5 0,-1"
       id="path4517" />
    <path
       style="fill:#000000;fill-opacity:1"
       d="M 28,18.5 V 18 h 0.5 0.5 v 0.5 Q 29,19 28.5,19 H 28 v -0.5"
       id="path4519" />
    <path
       style="fill:#000000;fill-opacity:1"
       d="M 5.125,19.375 5,19 H 5.5 6 L 6.125,19.375 6.25,19.75 6.15625,19.46875 6.0625,19.1875 6.125,19.375 q 0.0625,0.1875 0.1875,0.3125 l 0.125,0.125 L 6.375,19.75 6.3125,19.6875 6.015625,19.984375 5.71875,20.28125 5.765625,20.359375 5.8125,20.4375 5.71875,20.28125 Q 5.625,20.125 5.5,20 L 5.375,19.875 5.5625,20.0625 5.75,20.25 5.5,20 Q 5.25,19.75 5.125,19.375"
       id="path4521" />
    <path
       style="fill:#000000;fill-opacity:1"
       d="M 10,19.5 Q 10,19 10.5,19 H 11 v 0.5 q 0,0.5 0,1 0,0.5 0,1 0,0.5 0,1 0,0.5 -0.5,0.5 H 10 v -0.5 q 0,-0.5 0,-1 0,-0.5 0,-1 0,-0.5 0,-1"
       id="path4523" />
    <path
       style="fill:#000000;fill-opacity:0"
       d="M 11,19.5 V 19 h 0.5 q 0.5,0 0.5,0.5 0,0.5 0,1 0,0.5 0,1 0,0.5 0,1 0,0.5 0,1 0,0.5 0,1 0,0.5 0,1 Q 12,26 11.5,26 11,26 11,26.5 11,27 10.5,27 10,27 10,27.5 10,28 9.5,28 9,28 9,28.5 9,29 8.5,29 8,29 8,28.5 8,28 8,27.5 8,27 7.625,26.875 7.25,26.75 7.125,26.375 7,26 7,25.5 7,25 7,24.5 7,24 7.5,24 q 0.5,0 1,0 0.5,0 1,0 0.5,0 0.5,-0.5 V 23 h 0.5 q 0.5,0 0.5,-0.5 0,-0.5 0,-1 0,-0.5 0,-1 0,-0.5 0,-1"
       id="path4525" />
    <path
       style="fill:#303030;fill-opacity:1"
       d="M 13,19.5 V 19 L 13.375,18.875 13.75,18.75 13.46875,18.84375 13.1875,18.9375 13.375,18.875 q 0.1875,-0.0625 0.34375,-0.15625 L 13.875,18.625 l -0.07813,0.04687 -0.07813,0.04687 0.296875,0.296875 0.296875,0.296875 0.0625,-0.0625 0.0625,-0.0625 -0.125,0.125 q -0.125,0.125 -0.1875,0.3125 L 14.0625,19.8125 14.15625,19.53125 14.25,19.25 14.125,19.625 14,20 V 20.5 21 21.5 22 H 13.5 13 v -0.5 q 0,-0.5 0,-1 0,-0.5 0,-1"
       id="path4527" />
    <path
       style="fill:#606060;fill-opacity:1"
       d="m 14.125,19.625 q 0.125,-0.375 0.5,-0.5 L 15,19 V 19.5 20 H 14.5 14 l 0.125,-0.375"
       id="path4529" />
    <path
       style="fill:#404040;fill-opacity:1"
       d="M 18,19.5 V 19 H 18.5 19 V 19.5 20 H 18.5 18 v -0.5"
       id="path4531" />
    <path
       style="fill:#505050;fill-opacity:1"
       d="M 19,19.5 V 19 l 0.375,0.125 Q 19.75,19.25 20,19.5 L 20.25,19.75 20.0625,19.5625 19.875,19.375 20,19.5 q 0.125,0.125 0.28125,0.21875 l 0.15625,0.09375 -0.07813,-0.04687 -0.07813,-0.04687 -0.296875,0.296875 -0.296875,0.296875 0.0625,0.0625 0.0625,0.0625 -0.125,-0.125 Q 19.5625,20.1875 19.375,20.125 L 19.1875,20.0625 19.46875,20.15625 19.75,20.25 19.375,20.125 19,20 v -0.5"
       id="path4533" />
    <path
       style="fill:#000000;fill-opacity:1"
       d="M 27,19.5 Q 27,19 27.5,19 H 28 v 0.5 q 0,0.5 0,1 0,0.5 -0.5,0.5 -0.5,0 -1,0 H 26 V 20.5 20 h 0.5 Q 27,20 27,19.5"
       id="path4535" />
    <path
       style="fill:#202020;fill-opacity:1"
       d="M 5.875,20.625 5.75,20.25 5.84375,20.53125 5.9375,20.8125 5.875,20.625 Q 5.8125,20.4375 5.71875,20.28125 L 5.625,20.125 5.671875,20.203125 5.71875,20.28125 6.015625,19.984375 6.3125,19.6875 6.25,19.625 6.1875,19.5625 l 0.125,0.125 q 0.125,0.125 0.3125,0.1875 L 6.8125,19.9375 6.53125,19.84375 6.25,19.75 6.625,19.875 Q 7,20 7,20.5 7,21 7,21.5 V 22 H 6.5 6 V 21.5 21 L 5.875,20.625"
       id="path4537" />
    <path
       style="fill:#505050;fill-opacity:1"
       d="M 14,20.5 V 20 H 14.5 15 V 20.5 21 H 14.5 14 v -0.5"
       id="path4539" />
    <path
       style="fill:#505050;fill-opacity:1"
       d="M 16,20.5 V 20 H 16.5 17 V 20.5 21 H 16.5 16 v -0.5"
       id="path4541" />
    <path
       style="fill:#404040;fill-opacity:1"
       d="M 17,20.5 V 20 H 17.5 18 V 20.5 21 H 17.5 17 v -0.5"
       id="path4543" />
    <path
       style="fill:#303030;fill-opacity:1"
       d="M 18,20.5 V 20 h 0.5 0.5 v 0.5 q 0,0.5 0,1 V 22 22.5 23 23.5 24 H 18.5 18 v -0.5 q 0,-0.5 0,-1 0,-0.5 0,-1 V 21 20.5"
       id="path4545" />
    <path
       style="fill:#606060;fill-opacity:1"
       d="M 19,20.5 V 20 l 0.375,0.125 q 0.375,0.125 0.5,0.5 Q 20,21 20,21.5 V 22 H 19.5 19 v -0.5 q 0,-0.5 0,-1"
       id="path4547" />
    <path
       style="fill:#303030;fill-opacity:1"
       d="M 19.875,20.625 19.75,20.25 19.84375,20.53125 19.9375,20.8125 19.875,20.625 q -0.0625,-0.1875 -0.1875,-0.3125 l -0.125,-0.125 0.0625,0.0625 0.0625,0.0625 0.296875,-0.296875 0.296875,-0.296875 -0.07813,-0.04687 L 20.125,19.625 20.28125,19.71875 Q 20.4375,19.8125 20.625,19.875 L 20.8125,19.9375 20.53125,19.84375 20.25,19.75 20.625,19.875 21,20 v 0.5 q 0,0.5 0,1 0,0.5 0.125,0.875 0.125,0.375 0.5,0.5 L 22,23 v 0.5 q 0,0.5 0.125,0.875 0.125,0.375 0.5,0.5 Q 23,25 23,25.5 q 0,0.5 0,1 V 27 H 22.5 22 v -0.5 q 0,-0.5 -0.125,-0.875 -0.125,-0.375 -0.5,-0.5 L 21,25 v -0.5 q 0,-0.5 -0.125,-0.875 -0.125,-0.375 -0.5,-0.5 L 20,23 V 22.5 22 21.5 Q 20,21 19.875,20.625"
       id="path4549" />
    <path
       style="fill:#202020;fill-opacity:1"
       d="M 25,20.5 Q 25,20 25.5,20 H 26 V 20.5 21 H 25.5 25 v -0.5"
       id="path4551" />
    <path
       style="fill:#b0b0b0;fill-opacity:1"
       d="M 5,21.5 V 21 H 5.5 6 v 0.5 0.5 0.5 q 0,0.5 0,1 0,0.5 0,1 0,0.5 0,1 V 26 H 5.5 5 v -0.5 q 0,-0.5 0,-1 0,-0.5 0,-1 0,-0.5 0,-1 0,-0.5 0,-1"
       id="path4553" />
    <path
       style="fill:#404040;fill-opacity:1"
       d="M 14,21.5 V 21 H 14.5 15 V 21.5 22 H 14.5 14 v -0.5"
       id="path4555" />
    <path
       style="fill:#404040;fill-opacity:1"
       d="M 16,21.5 V 21 H 16.5 17 V 21.5 22 H 16.5 16 v -0.5"
       id="path4557" />
    <path
       style="fill:#505050;fill-opacity:1"
       d="M 17,21.5 V 21 h 0.5 0.5 v 0.5 q 0,0.5 0,1 0,0.5 0,1 v 0.5 0.5 q 0,0.5 0,1 0,0.5 0,1 0,0.5 -0.375,0.375 Q 17.25,26.75 17,26.5 L 16.75,26.25 16.9375,26.4375 17.125,26.625 17,26.5 q -0.125,-0.125 -0.28125,-0.21875 l -0.15625,-0.09375 0.07813,0.04687 0.07813,0.04687 0.265625,-0.265625 Q 17.25,25.75 17.125,25.375 17,25 17,24.5 q 0,-0.5 0,-1 0,-0.5 0,-1 V 22 21.5"
       id="path4559" />
    <path
       style="fill:#000000;fill-opacity:1"
       d="M 24,21.5 V 21 h 0.5 0.5 0.5 0.5 v 0.5 Q 26,22 25.5,22 25,22 24.5,22 24,22 24,21.5"
       id="path4561" />
    <path
       style="fill:#202020;fill-opacity:1"
       d="M 13,22.5 V 22 h 0.5 0.5 v 0.5 q 0,0.5 0,1 0,0.5 0,1 0,0.5 0,1 V 26 H 13.5 13 v -0.5 q 0,-0.5 0,-1 0,-0.5 0,-1 0,-0.5 0,-1"
       id="path4563" />
    <path
       style="fill:#303030;fill-opacity:1"
       d="M 14,22.5 V 22 h 0.5 0.5 v 0.5 0.5 0.5 q 0,0.5 0,1 V 25 25.5 26 H 14.5 14 v -0.5 q 0,-0.5 0,-1 0,-0.5 0,-1 0,-0.5 0,-1"
       id="path4565" />
    <path
       style="fill:#404040;fill-opacity:1"
       d="M 15,22.5 V 22 H 15.5 16 V 22.5 23 H 15.5 15 v -0.5"
       id="path4567" />
    <path
       style="fill:#303030;fill-opacity:1"
       d="M 16,22.5 V 22 h 0.5 0.5 v 0.5 q 0,0.5 0,1 0,0.5 0,1 0,0.5 0.125,0.875 0.125,0.375 -0.140625,0.640625 l -0.265625,0.265625 0.07813,0.04687 L 16.875,26.375 16.71875,26.28125 Q 16.5625,26.1875 16.375,26.125 L 16.1875,26.0625 16.46875,26.15625 16.75,26.25 16.375,26.125 16,26 V 25.5 25 24.5 q 0,-0.5 0,-1 V 23 22.5"
       id="path4569" />
    <path
       style="fill:#505050;fill-opacity:1"
       d="M 19,22.5 V 22 H 19.5 20 V 22.5 23 H 19.5 19 v -0.5"
       id="path4571" />
    <path
       style="fill:#505050;fill-opacity:1"
       d="M 15,23.5 V 23 h 0.5 0.5 v 0.5 q 0,0.5 0,1 V 25 H 15.5 15 v -0.5 q 0,-0.5 0,-1"
       id="path4573" />
    <path
       style="fill:#404040;fill-opacity:1"
       d="M 19,23.5 V 23 H 19.5 20 V 23.5 24 H 19.5 19 v -0.5"
       id="path4575" />
    <path
       style="fill:#505050;fill-opacity:1"
       d="M 20,23.5 V 23 l 0.375,0.125 q 0.375,0.125 0.5,0.5 Q 21,24 21,24.5 V 25 25.5 Q 21,26 20.5,26 H 20 v -0.5 q 0,-0.5 0,-1 V 24 23.5"
       id="path4577" />
    <path
       style="fill:#000000;fill-opacity:1"
       d="M 22,23.5 V 23 h 0.5 q 0.5,0 0.5,0.5 0,0.5 0.5,0.5 0.5,0 1,0 0.5,0 1,0 0.5,0 1,0 0.5,0 1,0 0.5,0 0.5,0.5 0,0.5 0.5,0.5 0.5,0 0.5,0.5 0,0.5 0,1 0,0.5 -0.5,0.5 -0.5,0 -0.5,0.5 0,0.5 0,1 Q 28,29 27.5,29 27,29 27,29.5 27,30 26.5,30 26,30 26,30.5 26,31 25.5,31 25,31 25,31.5 V 32 H 24.5 24 23.5 23 l 0.125,-0.375 Q 23.25,31.25 22.953125,30.984375 l -0.296875,-0.265625 -0.04687,0.04687 -0.04687,0.04687 0.09375,-0.09375 Q 22.75,30.625 22.75,30.5 V 30.375 30.5625 30.75 30.5 q 0,-0.25 -0.375,-0.375 Q 22,30 21.625,29.875 21.25,29.75 21,29.5 L 20.75,29.25 20.9375,29.4375 21.125,29.625 21,29.5 Q 20.875,29.375 20.75,29.3125 L 20.625,29.25 20.6875,29.28125 20.75,29.3125 21,29.03125 Q 21.25,28.75 21.625,28.875 L 22,29 h 0.5 q 0.5,0 0.5,-0.5 0,-0.5 0,-1 V 27 26.5 q 0,-0.5 0,-1 0,-0.5 -0.375,-0.625 -0.375,-0.125 -0.5,-0.5 Q 22,24 22,23.5"
       id="path4579" />
    <path
       style="fill:#404040;fill-opacity:1"
       d="M 18,24.5 V 24 h 0.5 0.5 v 0.5 q 0,0.5 0,1 0,0.5 0,1 V 27 27.5 28 H 18.5 Q 18,28 17.625,27.875 17.25,27.75 17,27.5 16.75,27.25 17.015625,26.984375 L 17.28125,26.71875 17.203125,26.671875 17.125,26.625 17.28125,26.71875 Q 17.4375,26.8125 17.625,26.875 L 17.8125,26.9375 17.53125,26.84375 17.25,26.75 17.625,26.875 Q 18,27 18,26.5 q 0,-0.5 0,-1 0,-0.5 0,-1"
       id="path4581" />
    <path
       style="fill:#303030;fill-opacity:1"
       d="M 19,24.5 V 24 h 0.5 0.5 v 0.5 q 0,0.5 0,1 V 26 26.5 27 H 19.5 19 v -0.5 q 0,-0.5 0,-1 0,-0.5 0,-1"
       id="path4583" />
    <path
       style="fill:#404040;fill-opacity:1"
       d="M 15,25.5 V 25 H 15.5 16 V 25.5 26 H 15.5 15 v -0.5"
       id="path4585" />
    <path
       style="fill:#404040;fill-opacity:1"
       d="M 21,25.5 V 25 l 0.375,0.125 q 0.375,0.125 0.5,0.5 Q 22,26 22,26.5 V 27 27.5 28 H 21.5 Q 21,28 21,27.5 21,27 20.5,27 H 20 V 26.5 26 h 0.5 Q 21,26 21,25.5"
       id="path4587" />
    <path
       style="fill:#a0a0a0;fill-opacity:1"
       d="M 5.125,26.375 5,26 H 5.5 6 l 0.125,0.375 Q 6.25,26.75 6.5,27 6.75,27.25 6.875,27.625 7,28 7,28.5 7,29 7,29.5 7,30 6.875,30.375 6.75,30.75 6.5,30.75 6.25,30.75 6.125,30.375 6,30 6,29.5 6,29 6,28.5 6,28 5.875,27.625 5.75,27.25 5.5,27 5.25,26.75 5.125,26.375"
       id="path4589" />
    <path
       style="fill:#303030;fill-opacity:1"
       d="M 13,26.5 V 26 h 0.5 0.5 v 0.5 q 0,0.5 0,1 V 28 H 13.5 13 v -0.5 q 0,-0.5 0,-1"
       id="path4591" />
    <path
       style="fill:#404040;fill-opacity:1"
       d="M 14,26.5 V 26 H 14.5 15 V 26.5 27 27.5 28 H 14.5 14 v -0.5 q 0,-0.5 0,-1"
       id="path4593" />
    <path
       style="fill:#303030;fill-opacity:1"
       d="M 15,26.5 V 26 h 0.5 0.5 v 0.5 Q 16,27 15.5,27 H 15 v -0.5"
       id="path4595" />
    <path
       style="fill:#202020;fill-opacity:1"
       d="M 16,26.5 V 26 l 0.375,0.125 Q 16.75,26.25 17,26.5 L 17.25,26.75 17.0625,26.5625 16.875,26.375 17,26.5 q 0.125,0.125 0.28125,0.21875 l 0.15625,0.09375 -0.07813,-0.04687 -0.07813,-0.04687 -0.265625,0.265625 Q 16.75,27.25 17,27.5 L 17.25,27.75 17.0625,27.5625 16.875,27.375 17,27.5 q 0.125,0.125 0.28125,0.21875 l 0.15625,0.09375 -0.07813,-0.04687 -0.07813,-0.04687 -0.296875,0.296875 -0.296875,0.296875 0.0625,0.0625 0.0625,0.0625 -0.125,-0.125 Q 16.5625,28.1875 16.375,28.125 L 16.1875,28.0625 16.46875,28.15625 16.75,28.25 16.375,28.125 Q 16,28 16,28.5 q 0,0.5 0,1 0,0.5 -0.375,0.625 -0.375,0.125 -0.5,0.5 -0.125,0.375 -0.5,0.5 -0.375,0.125 -0.5,0.5 L 14,32 H 13.5 13 12.5 12 L 11.875,31.625 Q 11.75,31.25 12.046875,30.984375 L 12.34375,30.71875 12.296875,30.671875 12.25,30.625 12.34375,30.71875 Q 12.4375,30.8125 12.625,30.875 L 12.8125,30.9375 12.53125,30.84375 12.25,30.75 12.625,30.875 Q 13,31 13.375,30.875 13.75,30.75 14,30.5 14.25,30.25 14.5,30 14.75,29.75 14.75,29.5 V 29.25 29.4375 29.625 29.5 q 0,-0.125 -0.09375,-0.21875 l -0.09375,-0.09375 0.04687,0.04687 0.04687,0.04687 0.296875,-0.265625 Q 15.25,28.75 15.125,28.375 L 15,28 V 27.5 27 h 0.5 Q 16,27 16,26.5"
       id="path4597" />
    <path
       style="fill:#202020;fill-opacity:1"
       d="M 19,27.5 V 27 h 0.5 0.5 v 0.5 q 0,0.5 -0.125,0.875 -0.125,0.375 -0.5,0.5 L 19,29 V 28.5 28 27.5"
       id="path4599" />
    <path
       style="fill:#303030;fill-opacity:1"
       d="M 20,27.5 V 27 h 0.5 Q 21,27 21,27.5 21,28 21.5,28 H 22 V 28.5 29 L 21.625,28.875 Q 21.25,28.75 21,29.03125 L 20.75,29.3125 20.8125,29.34375 20.875,29.375 20.75,29.3125 Q 20.625,29.25 20.5,29.25 H 20.375 20.5625 20.75 20.5 20.25 20.4375 20.625 20.5 q -0.125,0 -0.21875,0.09375 l -0.09375,0.09375 0.04687,-0.04687 0.04687,-0.04687 L 19.984375,29.015625 19.6875,28.6875 19.625,28.75 l -0.0625,0.0625 0.125,-0.125 q 0.125,-0.125 0.1875,-0.3125 L 19.9375,28.1875 19.84375,28.46875 19.75,28.75 19.875,28.375 Q 20,28 20,27.5"
       id="path4601" />
    <path
       style="fill:#202020;fill-opacity:1"
       d="M 22,27.5 V 27 h 0.5 0.5 v 0.5 q 0,0.5 0,1 0,0.5 -0.5,0.5 H 22 V 28.5 28 27.5"
       id="path4603" />
    <path
       style="fill:#000000;fill-opacity:0"
       d="m 11,28.5 q 0,-0.5 0.5,-0.5 0.5,0 0.5,0.5 0,0.5 -0.125,0.875 -0.125,0.375 -0.5,0.5 Q 11,30 11,30.5 q 0,0.5 0,1 V 32 H 10.5 10 9.5 9 8.5 8 7.5 7 L 7.125,31.625 Q 7.25,31.25 7.625,31.125 8,31 8.5,31 9,31 9,30.5 9,30 9.5,30 10,30 10,29.5 10,29 10.5,29 11,29 11,28.5"
       id="path4605" />
    <path
       style="fill:#202020;fill-opacity:1"
       d="M 12.875,28.375 13,28 H 13.5 14 V 28.5 29 L 13.625,29.125 13.25,29.25 13.53125,29.15625 13.8125,29.0625 13.625,29.125 q -0.1875,0.0625 -0.34375,0.15625 L 13.125,29.375 l 0.07813,-0.04687 0.07813,-0.04687 -0.265625,-0.265625 Q 12.75,28.75 12.875,28.375"
       id="path4607" />
    <path
       style="fill:#303030;fill-opacity:1"
       d="M 14,28.5 V 28 h 0.5 0.5 l 0.125,0.375 q 0.125,0.375 -0.171875,0.640625 l -0.296875,0.265625 0.04687,0.04687 L 14.75,29.375 14.65625,29.28125 Q 14.5625,29.1875 14.375,29.125 L 14.1875,29.0625 14.46875,29.15625 14.75,29.25 14.375,29.125 14,29 v -0.5"
       id="path4609" />
    <path
       style="fill:#000000;fill-opacity:1"
       d="m 16,28.5 q 0,-0.5 0.375,-0.375 0.375,0.125 0.5,0.5 Q 17,29 17.5,29 q 0.5,0 1,0 H 19 L 19.375,28.875 19.75,28.75 19.46875,28.84375 19.1875,28.9375 19.375,28.875 q 0.1875,-0.0625 0.3125,-0.1875 l 0.125,-0.125 -0.0625,0.0625 -0.0625,0.0625 0.296875,0.328125 0.296875,0.328125 0.04687,-0.04687 L 20.375,29.25 20.28125,29.34375 Q 20.1875,29.4375 20.125,29.625 L 20.0625,29.8125 20.15625,29.53125 20.25,29.25 20.125,29.625 20,30 H 19.5 Q 19,30 19,30.5 V 31 H 18.5 Q 18,31 17.5,31 17,31 17,31.5 V 32 H 16.5 16 15.5 15 14.5 14 l 0.125,-0.375 q 0.125,-0.375 0.5,-0.5 0.375,-0.125 0.5,-0.5 0.125,-0.375 0.5,-0.5 Q 16,30 16,29.5 q 0,-0.5 0,-1"
       id="path4611" />
    <path
       style="fill:#303030;fill-opacity:1"
       d="M 16.875,28.625 16.75,28.25 16.84375,28.53125 16.9375,28.8125 16.875,28.625 q -0.0625,-0.1875 -0.1875,-0.3125 l -0.125,-0.125 0.0625,0.0625 0.0625,0.0625 0.296875,-0.296875 0.296875,-0.296875 -0.07813,-0.04687 L 17.125,27.625 17.28125,27.71875 Q 17.4375,27.8125 17.625,27.875 L 17.8125,27.9375 17.53125,27.84375 17.25,27.75 17.625,27.875 Q 18,28 18.5,28 H 19 v 0.5 0.5 h -0.5 q -0.5,0 -1,0 -0.5,0 -0.625,-0.375"
       id="path4613" />
    <path
       style="fill:#a0a0a0;fill-opacity:1"
       d="m 13,29.5 q 0.25,-0.25 0.625,-0.375 L 14,29 13.71875,29.09375 13.4375,29.1875 13.625,29.125 Q 13.8125,29.0625 14,29.0625 H 14.1875 14.09375 14 l -0.125,0.34375 Q 13.75,29.75 13.5,30 13.25,30.25 13.125,30.59375 L 13,30.9375 H 13.09375 13.1875 13 q -0.1875,0 -0.375,-0.0625 L 12.4375,30.8125 12.71875,30.90625 13,31 12.625,30.875 Q 12.25,30.75 12.25,30.5 q 0,-0.25 0.25,-0.5 0.25,-0.25 0.5,-0.5"
       id="path4615" />
    <path
       style="fill:#606060;fill-opacity:1"
       d="M 13.875,29.375 14,29 l 0.375,0.125 q 0.375,0.125 0.375,0.375 0,0.25 -0.25,0.5 -0.25,0.25 -0.5,0.5 -0.25,0.25 -0.625,0.375 L 13,31 13.28125,30.90625 13.5625,30.8125 13.375,30.875 Q 13.1875,30.9375 13,30.9375 H 12.8125 12.90625 13 l 0.125,-0.34375 Q 13.25,30.25 13.5,30 q 0.25,-0.25 0.375,-0.625"
       id="path4617" />
    <path
       style="fill:#a0a0a0;fill-opacity:1"
       d="M 20.125,29.625 Q 20.25,29.25 20.5,29.25 q 0.25,0 0.5,0.25 0.25,0.25 0.625,0.375 0.375,0.125 0.75,0.25 0.375,0.125 0.375,0.375 0,0.25 -0.375,0.375 Q 22,31 21.5,31 H 21 21.375 21.75 21.5 q -0.25,0 -0.46875,-0.03125 l -0.21875,-0.03125 0.109375,0.01563 0.109375,0.01563 -0.140625,-0.359375 Q 20.75,30.25 20.40625,30.125 L 20.0625,30 V 30.09375 30.1875 30 q 0,-0.1875 0.0625,-0.375 L 20.1875,29.4375 20.09375,29.71875 20,30 20.125,29.625"
       id="path4619" />
    <path
       style="fill:#202020;fill-opacity:1"
       d="M 19,30.5 Q 19,30 19.5,30 H 20 l 0.125,0.375 q 0.125,0.375 0.5,0.5 Q 21,31 21.5,31 22,31 22.375,30.875 L 22.75,30.75 22.46875,30.84375 22.1875,30.9375 22.375,30.875 q 0.1875,-0.0625 0.28125,-0.15625 L 22.75,30.625 l -0.04687,0.04687 -0.04687,0.04687 0.296875,0.265625 Q 23.25,31.25 23.125,31.625 L 23,32 H 22.5 22 21.5 21 20.5 20 l -0.125,-0.375 q -0.125,-0.375 -0.5,-0.5 L 19,31 v -0.5"
       id="path4621" />
    <path
       style="fill:#606060;fill-opacity:1"
       d="M 20.125,30.375 20,30 20.09375,30.28125 20.1875,30.5625 20.125,30.375 Q 20.0625,30.1875 20.0625,30 V 29.8125 29.90625 30 l 0.34375,0.125 q 0.34375,0.125 0.484375,0.484375 l 0.140625,0.359375 0.109375,0.01563 L 21.25,31 21.03125,30.96875 Q 20.8125,30.9375 20.625,30.875 L 20.4375,30.8125 20.71875,30.90625 21,31 20.625,30.875 q -0.375,-0.125 -0.5,-0.5"
       id="path4623" />
    <path
       style="fill:#000000;fill-opacity:0"
       d="m 17,31.5 q 0,-0.5 0.5,-0.5 0.5,0 1,0 H 19 V 31.5 32 H 18.5 18 17.5 17 v -0.5"
       id="path4625" />
    <path
       style="fill:#000000;fill-opacity:1"
       d="M 19,31.5 V 31 l 0.375,0.125 q 0.375,0.125 0.5,0.5 L 20,32 H 19.5 19 v -0.5"
       id="path4627" />
  </g>
</svg>
