<?xml version="1.0" encoding="UTF-8" standalone="no"?>
<!-- Created with Inkscape (http://www.inkscape.org/) -->

<svg
   xmlns:dc="http://purl.org/dc/elements/1.1/"
   xmlns:cc="http://creativecommons.org/ns#"
   xmlns:rdf="http://www.w3.org/1999/02/22-rdf-syntax-ns#"
   xmlns:svg="http://www.w3.org/2000/svg"
   xmlns="http://www.w3.org/2000/svg"
   xmlns:sodipodi="http://sodipodi.sourceforge.net/DTD/sodipodi-0.dtd"
   xmlns:inkscape="http://www.inkscape.org/namespaces/inkscape"
   version="1.1"
   id="svg4704"
   width="32"
   height="32"
   viewBox="0 0 32 32"
   sodipodi:docname="smaug.svg"
   inkscape:version="0.92.5 (2060ec1f9f, 2020-04-08)">
  <metadata
     id="metadata4710">
    <rdf:RDF>
      <cc:Work
         rdf:about="">
        <dc:format>image/svg+xml</dc:format>
        <dc:type
           rdf:resource="http://purl.org/dc/dcmitype/StillImage" />
        <dc:title></dc:title>
      </cc:Work>
    </rdf:RDF>
  </metadata>
  <defs
     id="defs4708" />
  <sodipodi:namedview
     pagecolor="#ffffff"
     bordercolor="#666666"
     borderopacity="1"
     objecttolerance="10"
     gridtolerance="10"
     guidetolerance="10"
     inkscape:pageopacity="0"
     inkscape:pageshadow="2"
     inkscape:window-width="1920"
     inkscape:window-height="1118"
     id="namedview4706"
     showgrid="false"
     inkscape:zoom="7.375"
     inkscape:cx="16"
     inkscape:cy="16"
     inkscape:window-x="0"
     inkscape:window-y="24"
     inkscape:window-maximized="1"
     inkscape:current-layer="svg4704" />
  <g
     transform="translate(0 0)"
     id="g4992">
    <path
       style="fill:#004020;fill-opacity:1"
       d="M 0,0.5 V 0 H 0.5 1 1.5 2 L 2.125,0.375 Q 2.25,0.75 2.625,0.875 3,1 3.5,1 4,1 4.375,1.125 4.75,1.25 5,1.5 5.25,1.75 5.625,1.875 6,2 6.5,2 q 0.5,0 1,0 0.5,0 1,0 0.5,0 1,0 0.5,0 1,0 0.5,0 1,0 0.5,0 1.046875,0.046875 L 13.09375,2.09375 13.140625,2.015625 13.1875,1.9375 13.09375,2.09375 Q 13,2.25 13,2.5 V 2.75 2.375 2 l 0.125,0.375 q 0.125,0.375 0.5,0.5 L 14,3 H 13.625 13.25 13.5 q 0.25,0 0.40625,-0.09375 L 14.0625,2.8125 13.984375,2.859375 13.90625,2.90625 13.953125,3.453125 Q 14,4 14.125,4.375 14.25,4.75 14.5,5 14.75,5.25 14.875,5.625 15,6 14.984375,6.515625 L 14.96875,7.03125 15.078125,7.046875 15.1875,7.0625 14.96875,7.03125 Q 14.75,7 14.5,7 H 14.25 14.625 15 14.5 14 V 6.5 Q 14,6 13.875,5.625 13.75,5.25 13.5,5 13.25,4.75 13.125,4.375 13,4 12.875,3.625 12.75,3.25 12.5,3.25 12.25,3.25 12,3.5 11.75,3.75 11.375,3.875 11,4 10.625,4.125 10.25,4.25 10.125,4.625 L 10,5 H 9.5 Q 9,5 8.5,5 8,5 7.625,5.125 7.25,5.25 7,5.5 6.75,5.75 6.5,6 6.25,6.25 6,6.5 5.75,6.75 5.5,7 5.25,7.25 5,7.5 4.75,7.75 4.375,7.875 4,8 3.625,8.125 3.25,8.25 3.125,8.625 L 3,9 3.09375,8.71875 3.1875,8.4375 3.125,8.625 Q 3.0625,8.8125 3.0625,9 V 9.1875 9.09375 9 L 2.65625,8.875 Q 2.25,8.75 2.125,8.375 L 2,8 2.09375,8.28125 2.1875,8.5625 2.125,8.375 Q 2.0625,8.1875 2.03125,7.96875 L 2,7.75 2.015625,7.859375 2.03125,7.96875 2.390625,7.859375 Q 2.75,7.75 3,7.5 3.25,7.25 3.625,7.125 4,7 4.375,6.875 4.75,6.75 5,6.5 5.25,6.25 5.5,6 5.75,5.75 5.875,5.375 L 6,5 6.375,4.875 Q 6.75,4.75 6.875,4.375 L 7,4 H 7.5 Q 8,4 8.5,4 9,4 9.375,3.875 9.75,3.75 9.75,3.5 9.75,3.25 9.375,3.125 9,3 8.5,3 8,3 7.5,3 7,3 6.5,3 6,3 5.5,3 5,3 4.625,2.875 4.25,2.75 4,2.5 3.75,2.25 3.375,2.125 3,2 2.5,2 2,2 1.625,1.875 1.25,1.75 1,1.5 0.75,1.25 0.375,1.125 L 0,1 V 0.5 M 6.28125,4.90625 6,5 5.90625,5.03125 5.8125,5.0625 6,5 Q 6.1875,4.9375 6.375,4.875 L 6.5625,4.8125 6.28125,4.90625"
       id="path4714" />
    <path
       style="fill:#000000;fill-opacity:0"
       d="M 2.125,0.375 2,0 H 2.5 3 3.5 4 4.5 5 5.5 6 6.5 7 7.5 8 8.5 9 9.5 10 10.5 11 11.5 12 12.5 13 13.5 14 14.5 15 15.5 16 16.5 17 17.5 18 18.5 19 19.5 20 20.5 21 21.5 22 22.5 23 L 22.875,0.375 Q 22.75,0.75 22.375,0.875 22,1 21.5,1 21,1 20.4375,1.0625 L 19.875,1.125 19.9375,1.1875 20,1.25 19.875,1.125 Q 19.75,1 19.5,1 H 19.25 19.625 20 19.5 Q 19,1 18.625,1.125 18.25,1.25 18.25,1.5 q 0,0.25 0.375,0.375 L 19,2 18.71875,1.90625 18.4375,1.8125 18.625,1.875 Q 18.8125,1.9375 19,1.9375 H 19.1875 19.09375 19 L 18.875,2.34375 Q 18.75,2.75 18.5,3 18.25,3.25 18.125,3.625 18,4 18,4.5 q 0,0.5 0,1 0,0.5 0,1 0,0.5 0,1 Q 18,8 18.125,8.375 18.25,8.75 18.5,9 18.75,9.25 18.875,9.625 L 19,10 18.90625,9.71875 18.8125,9.4375 18.875,9.625 q 0.0625,0.1875 0.09375,0.40625 L 19,10.25 18.984375,10.140625 18.96875,10.03125 18.484375,10.015625 18,10 H 18.375 18.75 18.5 Q 18.25,10 18.03125,9.96875 L 17.8125,9.9375 17.921875,9.953125 18.03125,9.96875 17.890625,9.609375 Q 17.75,9.25 17.375,9.125 L 17,9 16.875,8.625 Q 16.75,8.25 16.5,8 16.25,7.75 16,7.5 15.75,7.25 15.375,7.125 L 15,7 15.28125,7.09375 15.5625,7.1875 15.375,7.125 Q 15.1875,7.0625 14.96875,7.03125 L 14.75,7 14.859375,7.015625 14.96875,7.03125 14.984375,6.515625 Q 15,6 14.875,5.625 14.75,5.25 14.5,5 14.25,4.75 14.125,4.375 14,4 13.953125,3.453125 L 13.90625,2.90625 13.828125,2.953125 13.75,3 13.90625,2.90625 Q 14.0625,2.8125 14.125,2.625 L 14.1875,2.4375 14.09375,2.71875 14,3 14.125,2.625 Q 14.25,2.25 14.5,2 14.75,1.75 14.75,1.5 14.75,1.25 14.5,1.25 14.25,1.25 14,1.5 13.75,1.75 13.375,1.875 L 13,2 13.28125,1.90625 13.5625,1.8125 13.375,1.875 Q 13.1875,1.9375 13.09375,2.09375 L 13,2.25 13.046875,2.171875 13.09375,2.09375 12.546875,2.046875 Q 12,2 11.5,2 11,2 10.5,2 10,2 9.5,2 9,2 8.5,2 8,2 7.5,2 7,2 6.5,2 6,2 5.625,1.875 5.25,1.75 5,1.5 4.75,1.25 4.375,1.125 4,1 3.5,1 3,1 2.625,0.875 2.25,0.75 2.125,0.375 M 16.90625,8.71875 17,9 17.03125,9.09375 17.0625,9.1875 17,9 Q 16.9375,8.8125 16.875,8.625 l -0.0625,-0.1875 0.09375,0.28125"
       id="path4716" />
    <path
       style="fill:#004020;fill-opacity:1"
       d="M 22.875,0.375 23,0 H 23.5 24 24.5 25 25.5 26 26.5 27 27.5 28 28.5 29 29.5 30 30.5 31 L 30.875,0.375 Q 30.75,0.75 30.375,0.875 30,1 29.5,1 29,1 28.5,1 28,1 27.5,1 27,1 26.5,1 26,1 25.5,1 25,1 24.625,1.125 24.25,1.25 24,1.5 23.75,1.75 23.375,1.875 23,2 22.5,2 22,2 21.625,2.125 21.25,2.25 21.25,2.5 q 0,0.25 0.375,0.375 Q 22,3 22.5,3 H 23 l 0.125,0.375 q 0.125,0.375 0.5,0.5 Q 24,4 24.5,4 H 25 24.625 24.25 24.5 q 0.25,0 0.46875,-0.03125 L 25.1875,3.9375 25.078125,3.953125 24.96875,3.96875 25.109375,4.359375 Q 25.25,4.75 25.5,5 25.75,5.25 26,5.5 26.25,5.75 26.5,6 26.75,6.25 27,6.5 27.25,6.75 27.640625,6.859375 L 28.03125,6.96875 28.015625,6.859375 28,6.75 28.03125,6.96875 Q 28.0625,7.1875 28.125,7.375 L 28.1875,7.5625 28.09375,7.28125 28,7 28.125,7.375 Q 28.25,7.75 28.5,8 q 0.25,0.25 0.25,0.5 0,0.25 -0.375,0.375 L 28,9 28.28125,8.90625 28.5625,8.8125 28.375,8.875 Q 28.1875,8.9375 27.96875,8.96875 L 27.75,9 27.859375,8.984375 27.96875,8.96875 27.859375,8.609375 Q 27.75,8.25 27.5,8 27.25,7.75 27,7.5 26.75,7.25 26.5,7 26.25,6.75 26,6.5 25.75,6.25 25.5,6 25.25,5.75 25,5.5 24.75,5.25 24.375,5.125 24,5 23.625,4.875 23.25,4.75 23,4.5 22.75,4.25 22.375,4.125 22,4 21.5,4 21,4 20.5,4 20,4 19.625,4.125 19.25,4.25 19.125,4.625 19,5 19,5.5 19,6 19,6.5 19,7 19,7.5 19,8 19.125,8.375 19.25,8.75 19.5,9 19.75,9.25 19.875,9.625 20,10 20,10.5 q 0,0.5 0,1 V 12 H 19.5 19 V 11.5 Q 19,11 19,10.5 19,10 18.875,9.625 18.75,9.25 18.5,9 18.25,8.75 18.125,8.375 18,8 18,7.5 18,7 18,6.5 18,6 18,5.5 18,5 18,4.5 18,4 18.125,3.625 18.25,3.25 18.5,3 18.75,2.75 18.875,2.34375 L 19,1.9375 H 18.90625 18.8125 19 q 0.1875,0 0.375,-0.0625 L 19.5625,1.8125 19.28125,1.90625 19,2 19.375,1.875 q 0.375,-0.125 0.5,-0.5 L 20,1 V 1.375 1.75 1.5 Q 20,1.25 19.875,1.125 L 19.75,1 19.8125,1.0625 19.875,1.125 20.4375,1.0625 Q 21,1 21.5,1 22,1 22.375,0.875 22.75,0.75 22.875,0.375 M 23.125,3 H 23 22.625 22.25 22.5 q 0.25,0 0.5,0 h 0.25 -0.125"
       id="path4718" />
    <path
       style="fill:#000000;fill-opacity:0"
       d="M 30.875,0.375 31,0 H 31.5 32 V 0.5 1 1.5 2 2.5 3 3.5 4 4.5 5 5.5 6 6.5 7 7.5 8 8.5 9 9.5 10 10.5 11 11.5 12 12.5 13 13.5 14 14.5 15 15.5 16 16.5 17 17.5 18 18.5 19 19.5 20 20.5 21 21.5 22 22.5 23 23.5 24 24.5 25 25.5 26 26.5 27 27.5 28 28.5 29 29.5 30 30.5 31 31.5 32 H 31.5 31 30.5 30 l 0.125,-0.375 q 0.125,-0.375 0.5,-0.5 Q 31,31 31,30.5 31,30 31,29.5 31,29 31,28.5 31,28 30.5,28 30,28 30,27.5 30,27 29.5,27 29,27 29,26.5 29,26 29,25.5 29,25 29.5,25 30,25 30,24.5 30,24 30.5,24 31,24 31,23.5 31,23 31,22.5 31,22 30.625,22.125 30.25,22.25 29.96875,22 L 29.6875,21.75 29.65625,21.8125 29.625,21.875 29.6875,21.75 Q 29.75,21.625 29.75,21.5 V 21.375 21.5625 21.75 21.5 21.25 21.4375 21.625 21.5 q 0,-0.125 -0.09375,-0.21875 l -0.09375,-0.09375 0.04687,0.04687 0.04687,0.04687 0.296875,-0.296875 L 30.25,20.6875 30.1875,20.65625 30.125,20.625 30.25,20.6875 Q 30.375,20.75 30.5,20.75 H 30.625 30.4375 30.25 30.5 q 0.25,0 0.25,-0.25 0,-0.25 -0.25,-0.5 -0.25,-0.25 -0.375,-0.625 L 30,19 30.09375,19.28125 30.1875,19.5625 30.125,19.375 Q 30.0625,19.1875 29.90625,19.09375 L 29.75,19 l 0.07813,0.04687 0.07813,0.04687 -0.07813,-0.421875 Q 29.75,18.25 29.5,18 29.25,17.75 29,17.5 28.75,17.25 28.5,17 28.25,16.75 28.125,16.375 28,16 27.875,15.625 27.75,15.25 27.5,15 27.25,14.75 27,14.5 26.75,14.25 26.375,14.125 26,14 25.625,13.875 25.25,13.75 25,13.5 24.75,13.25 24.375,13.125 L 24,13 v -0.5 q 0,-0.5 0,-1 V 11 11.375 11.75 11.5 q 0,-0.25 -0.03125,-0.46875 l -0.03125,-0.21875 0.01563,0.109375 0.01563,0.109375 0.390625,-0.140625 Q 24.75,10.75 25,10.5 25.25,10.25 25.5,10 25.75,9.75 25.875,9.375 L 26,9 25.90625,9.28125 25.8125,9.5625 25.875,9.375 Q 25.9375,9.1875 25.9375,9 V 8.8125 8.90625 9 h 0.53125 Q 27,9 27.5,9 28,9 28.375,8.875 28.75,8.75 28.75,8.5 28.75,8.25 28.5,8 28.25,7.75 28.125,7.375 28,7 28,6.5 28,6 28,5.5 28,5 28,4.5 28,4 27.984375,3.484375 L 27.96875,2.96875 27.859375,2.984375 27.75,3 27.96875,2.96875 Q 28.1875,2.9375 28.375,2.875 L 28.5625,2.8125 28.28125,2.90625 28,3 28.375,2.875 Q 28.75,2.75 28.859375,2.359375 L 28.96875,1.96875 28.859375,1.984375 28.75,2 28.96875,1.96875 Q 29.1875,1.9375 29.375,1.875 L 29.5625,1.8125 29.28125,1.90625 29,2 29.375,1.875 Q 29.75,1.75 29.859375,1.359375 L 29.96875,0.96875 29.859375,0.984375 29.75,1 29.96875,0.96875 Q 30.1875,0.9375 30.375,0.875 L 30.5625,0.8125 30.28125,0.90625 30,1 30.375,0.875 q 0.375,-0.125 0.5,-0.5 M 23.90625,12.96875 24,13 24.28125,13.09375 24.5625,13.1875 24.375,13.125 Q 24.1875,13.0625 24,13 l -0.1875,-0.0625 0.09375,0.03125"
       id="path4720" />
    <path
       style="fill:#000000;fill-opacity:0"
       d="M 0,1.5 V 1 L 0.375,1.125 Q 0.75,1.25 1,1.5 1.25,1.75 1.625,1.875 L 2,2 1.71875,1.90625 1.4375,1.8125 1.625,1.875 Q 1.8125,1.9375 2.03125,1.96875 L 2.25,2 2.140625,1.984375 2.03125,1.96875 2.140625,2.359375 Q 2.25,2.75 2.5,3 2.75,3.25 2.875,3.625 3,4 3,4.5 3,5 3.015625,5.515625 L 3.03125,6.03125 3.140625,6.015625 3.25,6 3.03125,6.03125 Q 2.8125,6.0625 2.625,6.125 L 2.4375,6.1875 2.71875,6.09375 3,6 2.625,6.125 Q 2.25,6.25 2.125,6.625 2,7 2,7.5 2,8 2.125,8.375 2.25,8.75 2.65625,8.875 L 3.0625,9 V 8.90625 8.8125 9 q 0,0.1875 0.0625,0.375 L 3.1875,9.5625 3.09375,9.28125 3,9 3.125,9.375 q 0.125,0.375 0.5,0.5 L 4,10 v 0.5 Q 4,11 4.125,11.375 4.25,11.75 4.5,12 4.75,12.25 4.875,12.625 L 5,13 5.125,13.375 q 0.125,0.375 0.5,0.5 L 6,14 v 0.5 q 0,0.5 0,1 0,0.5 0,1 V 17 L 5.625,17.125 Q 5.25,17.25 5,17.5 4.75,17.75 4.5,18 4.25,18.25 4,18.5 3.75,18.75 3.375,18.875 3,19 2.625,19.125 2.25,19.25 2.125,19.625 L 2,20 2.09375,19.71875 2.1875,19.4375 2.125,19.625 Q 2.0625,19.8125 2.03125,20.03125 L 2,20.25 2.015625,20.140625 2.03125,20.03125 1.640625,20.140625 Q 1.25,20.25 1.171875,20.671875 L 1.09375,21.09375 1.171875,21.046875 1.25,21 1.09375,21.09375 Q 0.9375,21.1875 0.875,21.375 L 0.8125,21.5625 0.90625,21.28125 1,21 0.875,21.375 q -0.125,0.375 -0.5,0.5 L 0,22 V 21.5 21 20.5 20 19.5 19 18.5 18 17.5 17 16.5 16 15.5 15 14.5 14 13.5 13 12.5 12 11.5 11 10.5 10 9.5 9 8.5 8 7.5 7 6.5 6 5.5 5 4.5 4 3.5 3 2.5 2 1.5 M 6,17.125 V 17 16.625 16.25 16.5 q 0,0.25 0,0.5 v 0.25 -0.125"
       id="path4722" />
    <path
       style="fill:#ffffff;fill-opacity:1"
       d="m 14,1.5 q 0.25,-0.25 0.5,-0.25 0.25,0 0.25,0.25 0,0.25 -0.25,0.5 Q 14.25,2.25 14.125,2.625 14,3 13.625,2.875 13.25,2.75 13.125,2.375 13,2 13.375,1.875 13.75,1.75 14,1.5"
       id="path4724" />
    <path
       style="fill:#ffffff;fill-opacity:1"
       d="m 18.25,1.5 q 0,-0.25 0.375,-0.375 Q 19,1 19.5,1 20,1 19.875,1.375 19.75,1.75 19.375,1.875 19,2 18.625,1.875 18.25,1.75 18.25,1.5"
       id="path4726" />
    <path
       style="fill:#600000;fill-opacity:1"
       d="M 24,1.5 Q 24.25,1.25 24.625,1.125 25,1 25.5,1 q 0.5,0 1,0 0.5,0 1,0 0.5,0 1,0 0.5,0 1,0 H 30 29.625 29.25 29.5 q 0.25,0 0.46875,-0.03125 L 30.1875,0.9375 30.078125,0.953125 29.96875,0.96875 29.859375,1.359375 Q 29.75,1.75 29.375,1.875 29,2 28.5,2 28,2 27.5,2 27,2 26.5,2 26,2 25.625,2.125 25.25,2.25 25,2.5 24.75,2.75 24.375,2.875 24,3 23.5,3 23,3 22.5,3 22,3 21.625,2.875 21.25,2.75 21.25,2.5 21.25,2.25 21.625,2.125 22,2 22.5,2 23,2 23.375,1.875 23.75,1.75 24,1.5"
       id="path4728" />
    <path
       style="fill:#600000;fill-opacity:1"
       d="M 2.140625,2.359375 2.03125,1.96875 1.921875,1.953125 1.8125,1.9375 2.03125,1.96875 Q 2.25,2 2.5,2 H 2.75 2.375 2 2.5 Q 3,2 3.375,2.125 3.75,2.25 4,2.5 4.25,2.75 4.625,2.875 5,3 5.5,3 6,3 6.5,3 H 7 V 3.5 4 H 6.5 Q 6,4 5.625,4.125 5.25,4.25 5,4.5 4.75,4.75 4.375,4.875 4,5 3.5,5 H 3 V 4.5 Q 3,4 2.875,3.625 2.75,3.25 2.5,3 2.25,2.75 2.140625,2.359375 M 3,4.625 V 5 5.125 5.25 5 Q 3,4.75 3,4.5 V 4.25 4.625 M 7.125,3 H 7 6.625 6.25 6.5 Q 6.75,3 7,3 H 7.25 7.125"
       id="path4730" />
    <path
       style="fill:#a00000;fill-opacity:1"
       d="M 25,2.5 Q 25.25,2.25 25.625,2.125 26,2 26.5,2 q 0.5,0 1,0 0.5,0 1,0 H 29 28.625 28.25 28.5 q 0.25,0 0.46875,-0.03125 L 29.1875,1.9375 29.078125,1.953125 28.96875,1.96875 28.859375,2.359375 Q 28.75,2.75 28.375,2.875 28,3 27.5,3 27,3 26.625,3.125 26.25,3.25 26,3.5 25.75,3.75 25.375,3.875 25,4 24.5,4 24,4 23.625,3.875 23.25,3.75 23.125,3.375 L 23,3 h 0.5 Q 24,3 24.375,2.875 24.75,2.75 25,2.5 M 23.375,3 H 23 22.875 22.75 23 q 0.25,0 0.5,0 h 0.25 -0.375"
       id="path4732" />
    <path
       style="fill:#800000;fill-opacity:1"
       d="M 7,3.5 V 3 H 7.5 Q 8,3 8.5,3 9,3 9.375,3.125 9.75,3.25 9.75,3.5 9.75,3.75 9.375,3.875 9,4 8.5,4 8,4 7.5,4 H 7 V 3.5 M 7.375,3 H 7 6.875 6.75 7 Q 7.25,3 7.5,3 H 7.75 7.375"
       id="path4734" />
    <path
       style="fill:#600000;fill-opacity:1"
       d="m 12,3.5 q 0.25,-0.25 0.5,-0.25 0.25,0 0.375,0.375 L 13,4 12.625,4.125 q -0.375,0.125 -0.5,0.5 L 12,5 H 11.5 Q 11,5 10.5,5 H 10 L 10.125,4.625 Q 10.25,4.25 10.625,4.125 11,4 11.375,3.875 11.75,3.75 12,3.5 M 13.03125,4.09375 13,4 12.90625,3.71875 12.8125,3.4375 12.875,3.625 Q 12.9375,3.8125 13,4 l 0.0625,0.1875 -0.03125,-0.09375"
       id="path4736" />
    <path
       style="fill:#800000;fill-opacity:1"
       d="M 26,3.5 Q 26.25,3.25 26.625,3.125 27,3 27.5,3 H 28 27.625 27.25 27.5 q 0.25,0 0.46875,-0.03125 L 28.1875,2.9375 28.078125,2.953125 27.96875,2.96875 27.984375,3.484375 Q 28,4 28,4.5 q 0,0.5 0,1 0,0.5 0,1 V 7 6.625 6.25 6.5 q 0,0.25 0.03125,0.46875 L 28.0625,7.1875 28.046875,7.078125 28.03125,6.96875 27.640625,6.859375 Q 27.25,6.75 27,6.5 26.75,6.25 26.5,6 26.25,5.75 26,5.5 25.75,5.25 25.5,5 25.25,4.75 25.109375,4.359375 L 24.96875,3.96875 24.859375,3.984375 24.75,4 24.96875,3.96875 Q 25.1875,3.9375 25.375,3.875 L 25.5625,3.8125 25.28125,3.90625 25,4 25.375,3.875 Q 25.75,3.75 26,3.5"
       id="path4738" />
    <path
       style="fill:#a00000;fill-opacity:1"
       d="M 5,4.5 Q 5.25,4.25 5.625,4.125 6,4 6.5,4 H 7 L 6.875,4.375 Q 6.75,4.75 6.375,4.875 6,5 5.625,5.125 5.25,5.25 5,5.5 4.75,5.75 4.375,5.875 4,6 3.5,6 H 3 3.375 3.75 3.5 Q 3.25,6 3.03125,6.03125 L 2.8125,6.0625 2.921875,6.046875 3.03125,6.03125 3.015625,5.515625 3,5 H 3.5 Q 4,5 4.375,4.875 4.75,4.75 5,4.5 M 3,4.875 V 5 5.375 5.75 5.5 Q 3,5.25 3,5 V 4.75 4.875"
       id="path4740" />
    <path
       style="fill:#800000;fill-opacity:1"
       d="m 12.125,4.625 q 0.125,-0.375 0.5,-0.5 L 13,4 13.125,4.375 Q 13.25,4.75 13.5,5 13.75,5.25 13.875,5.625 L 14,6 13.90625,5.71875 13.8125,5.4375 13.875,5.625 q 0.0625,0.1875 0.09375,0.40625 L 14,6.25 13.984375,6.140625 13.96875,6.03125 13.484375,6.015625 Q 13,6 12.875,5.625 12.75,5.25 12.375,5.125 L 12,5 12.125,4.625 M 13.09375,4.28125 13,4 12.96875,3.90625 12.9375,3.8125 13,4 q 0.0625,0.1875 0.125,0.375 l 0.0625,0.1875 -0.09375,-0.28125"
       id="path4742" />
    <path
       style="fill:#a00000;fill-opacity:1"
       d="m 19.125,4.625 q 0.125,-0.375 0.5,-0.5 L 20,4 19.71875,4.09375 19.4375,4.1875 19.625,4.125 Q 19.8125,4.0625 20.03125,4.03125 L 20.25,4 20.140625,4.015625 20.03125,4.03125 20.140625,4.390625 Q 20.25,4.75 20.5,5 20.75,5.25 20.875,5.625 21,6 21.125,6.375 21.25,6.75 21.5,7 21.75,7.25 21.875,7.625 22,8 22.125,8.375 22.25,8.75 22.5,9 q 0.25,0.25 0.5,0.5 0.25,0.25 0.5,0.5 0.25,0.25 0.375,0.625 Q 24,11 24,11.5 V 12 H 23.5 23 L 22.875,11.625 Q 22.75,11.25 22.5,11 22.25,10.75 22.125,10.375 22,10 21.875,9.625 21.75,9.25 21.5,9 21.25,8.75 21.125,8.375 21,8 20.875,7.625 20.75,7.25 20.5,7 20.25,6.75 20.125,6.375 20,6 19.875,5.625 19.75,5.25 19.390625,5.140625 L 19.03125,5.03125 19.015625,5.140625 19,5.25 19.03125,5.03125 Q 19.0625,4.8125 19.125,4.625 L 19.1875,4.4375 19.09375,4.71875 19,5 19.125,4.625 M 24,12.125 V 12 11.625 11.25 11.5 q 0,0.25 0,0.5 v 0.25 -0.125"
       id="path4744" />
    <path
       style="fill:#600000;fill-opacity:1"
       d="M 20.140625,4.390625 20.03125,4.03125 19.921875,4.046875 19.8125,4.0625 20.03125,4.03125 Q 20.25,4 20.5,4 H 20.75 20.375 20 20.5 Q 21,4 21.5,4 22,4 22.375,4.125 22.75,4.25 23,4.5 23.25,4.75 23.625,4.875 24,5 24.375,5.125 24.75,5.25 25,5.5 25.25,5.75 25.5,6 25.75,6.25 26,6.5 26.25,6.75 26.5,7 26.75,7.25 27,7.5 27.25,7.75 27.5,8 27.75,8.25 27.859375,8.609375 L 27.96875,8.96875 28.078125,8.953125 28.1875,8.9375 27.96875,8.96875 Q 27.75,9 27.5,9 H 27.25 27.625 28 27.5 Q 27,9 26.46875,9 H 25.9375 V 9.09375 9.1875 9 q 0,-0.1875 -0.0625,-0.375 L 25.8125,8.4375 25.90625,8.71875 26,9 25.875,8.625 Q 25.75,8.25 25.5,8 25.25,7.75 25,7.5 24.75,7.25 24.375,7.125 24,7 23.625,6.875 23.25,6.75 23,6.5 22.75,6.25 22.375,6.125 22,6 21.5,6 H 21 L 20.875,5.625 Q 20.75,5.25 20.5,5 20.25,4.75 20.140625,4.390625 M 20.90625,5.71875 21,6 21.03125,6.09375 21.0625,6.1875 21,6 Q 20.9375,5.8125 20.875,5.625 l -0.0625,-0.1875 0.09375,0.28125"
       id="path4746" />
    <path
       style="fill:#800000;fill-opacity:1"
       d="M 5,5.5 Q 5.25,5.25 5.625,5.125 L 6,5 5.875,5.375 Q 5.75,5.75 5.5,6 5.25,6.25 5,6.5 4.75,6.75 4.375,6.875 4,7 3.625,7.125 3.25,7.25 3,7.5 2.75,7.75 2.390625,7.859375 L 2.03125,7.96875 2.046875,8.078125 2.0625,8.1875 2.03125,7.96875 Q 2,7.75 2,7.5 V 7.25 7.625 8 7.5 Q 2,7 2.125,6.625 2.25,6.25 2.625,6.125 3,6 3.5,6 4,6 4.375,5.875 4.75,5.75 5,5.5 M 6.09375,4.96875 6,5 5.71875,5.09375 5.4375,5.1875 5.625,5.125 Q 5.8125,5.0625 6,5 L 6.1875,4.9375 6.09375,4.96875"
       id="path4748" />
    <path
       style="fill:#600000;fill-opacity:1"
       d="M 7,5.5 Q 7.25,5.25 7.625,5.125 L 8,5 7.71875,5.09375 7.4375,5.1875 7.625,5.125 Q 7.8125,5.0625 8.03125,5.03125 L 8.25,5 8.140625,5.015625 8.03125,5.03125 7.890625,5.390625 Q 7.75,5.75 7.5,6 7.25,6.25 7,6.5 6.75,6.75 6.5,7 6.25,7.25 6.125,7.625 6,8 5.875,8.375 5.75,8.75 5.375,8.875 5,9 4.625,9.125 4.25,9.25 4.125,9.625 L 4,10 3.625,9.875 Q 3.25,9.75 3.125,9.375 3,9 3.125,8.625 3.25,8.25 3.625,8.125 4,8 4.375,7.875 4.75,7.75 5,7.5 5.25,7.25 5.5,7 5.75,6.75 6,6.5 6.25,6.25 6.5,6 6.75,5.75 7,5.5"
       id="path4750" />
    <path
       style="fill:#800000;fill-opacity:1"
       d="M 7.890625,5.390625 8.03125,5.03125 7.921875,5.046875 7.8125,5.0625 8.03125,5.03125 Q 8.25,5 8.5,5 H 8.75 8.375 8 8.5 Q 9,5 9.5,5 H 10 L 9.875,5.375 Q 9.75,5.75 9.375,5.875 9,6 8.625,6.125 8.25,6.25 8,6.5 7.75,6.75 7.5,7 7.25,7.25 7.125,7.625 7,8 6.875,8.375 6.75,8.75 6.5,9 6.25,9.25 6.125,9.625 6,10 6,10.5 V 11 10.625 10.25 10.5 q 0,0.25 0.03125,0.46875 L 6.0625,11.1875 6.046875,11.078125 6.03125,10.96875 5.640625,10.859375 Q 5.25,10.75 5,10.5 4.75,10.25 4.375,10.125 L 4,10 4.125,9.625 Q 4.25,9.25 4.625,9.125 5,9 5.375,8.875 5.75,8.75 5.875,8.375 6,8 6.125,7.625 6.25,7.25 6.5,7 6.75,6.75 7,6.5 7.25,6.25 7.5,6 7.75,5.75 7.890625,5.390625"
       id="path4752" />
    <path
       style="fill:#00a050;fill-opacity:1"
       d="M 9.875,5.375 10,5 h 0.5 q 0.5,0 1,0 H 12 L 11.875,5.375 Q 11.75,5.75 11.375,5.875 11,6 10.625,6.125 10.25,6.25 10.109375,6.609375 L 9.96875,6.96875 10.078125,6.953125 10.1875,6.9375 9.96875,6.96875 Q 9.75,7 9.5,7 H 9.25 9.625 10 9.5 Q 9,7 8.625,7.125 8.25,7.25 8.125,7.625 8,8 7.875,8.375 7.75,8.75 7.5,9 7.25,9.25 7,9.5 6.75,9.75 6.390625,9.890625 L 6.03125,10.03125 6.015625,10.140625 6,10.25 6.03125,10.03125 Q 6.0625,9.8125 6.125,9.625 L 6.1875,9.4375 6.09375,9.71875 6,10 6.125,9.625 Q 6.25,9.25 6.5,9 6.75,8.75 6.875,8.375 7,8 7.125,7.625 7.25,7.25 7.5,7 7.75,6.75 8,6.5 8.25,6.25 8.625,6.125 9,6 9.375,5.875 9.75,5.75 9.875,5.375"
       id="path4754" />
    <path
       style="fill:#008040;fill-opacity:1"
       d="M 11.875,5.375 12,5 12.375,5.125 q 0.375,0.125 0.5,0.5 L 13,6 12.90625,5.71875 12.8125,5.4375 12.875,5.625 q 0.0625,0.1875 0.21875,0.28125 L 13.25,6 13.171875,5.953125 13.09375,5.90625 13.046875,6.453125 Q 13,7 12.875,7.375 12.75,7.75 12.5,7.75 12.25,7.75 12,7.5 11.75,7.25 11.5,7.25 11.25,7.25 11,7.5 10.75,7.75 10.375,7.875 10,8 9.625,7.875 9.25,7.75 9.140625,7.390625 L 9.03125,7.03125 8.921875,7.046875 8.8125,7.0625 9.03125,7.03125 Q 9.25,7 9.5,7 H 9.75 9.375 9 9.5 q 0.5,0 0.875,-0.125 0.375,-0.125 0.5,-0.5 L 11,6 11.375,5.875 q 0.375,-0.125 0.5,-0.5 M 11.28125,5.90625 11,6 10.90625,6.03125 10.8125,6.0625 11,6 q 0.1875,-0.0625 0.375,-0.125 l 0.1875,-0.0625 -0.28125,0.09375"
       id="path4756" />
    <path
       style="fill:#600000;fill-opacity:1"
       d="M 19,5.5 V 5 5.375 5.75 5.5 Q 19,5.25 19.03125,5.03125 L 19.0625,4.8125 19.046875,4.921875 19.03125,5.03125 19.390625,5.140625 Q 19.75,5.25 19.875,5.625 20,6 20.125,6.375 20.25,6.75 20.5,7 20.75,7.25 20.875,7.625 21,8 21.125,8.375 21.25,8.75 21.5,9 21.75,9.25 21.875,9.625 22,10 22.125,10.375 22.25,10.75 22.5,11 q 0.25,0.25 0.375,0.625 L 23,12 h -0.5 q -0.5,0 -1,0 -0.5,0 -1,0 H 20 V 11.5 Q 20,11 20,10.5 20,10 19.875,9.625 19.75,9.25 19.5,9 19.25,8.75 19.125,8.375 19,8 19,7.5 19,7 19,6.5 19,6 19,5.5"
       id="path4758" />
    <path
       style="fill:#006030;fill-opacity:1"
       d="M 10.109375,6.609375 Q 10.25,6.25 10.625,6.125 L 11,6 10.875,6.375 q -0.125,0.375 -0.5,0.5 L 10,7 10.28125,6.90625 10.5625,6.8125 10.375,6.875 Q 10.1875,6.9375 9.96875,6.96875 L 9.75,7 9.859375,6.984375 9.96875,6.96875 10.109375,6.609375 M 11.09375,5.96875 11,6 10.71875,6.09375 10.4375,6.1875 10.625,6.125 Q 10.8125,6.0625 11,6 l 0.1875,-0.0625 -0.09375,0.03125"
       id="path4760" />
    <path
       style="fill:#00a050;fill-opacity:1"
       d="M 13.046875,6.453125 13.09375,5.90625 13.015625,5.859375 12.9375,5.8125 13.09375,5.90625 Q 13.25,6 13.5,6 H 13.75 13.375 13 L 13.484375,6.015625 13.96875,6.03125 13.953125,5.921875 13.9375,5.8125 13.96875,6.03125 Q 14,6.25 14,6.5 V 6.75 6.375 6 6.5 7 L 13.484375,6.984375 12.96875,6.96875 12.953125,7.078125 12.9375,7.1875 12.96875,6.96875 Q 13,6.75 13,6.5 V 6.25 6.625 7 l 0.04687,-0.546875"
       id="path4762" />
    <path
       style="fill:#800000;fill-opacity:1"
       d="M 21.125,6.375 21,6 h 0.5 Q 22,6 22.375,6.125 22.75,6.25 23,6.5 23.25,6.75 23.625,6.875 24,7 24.375,7.125 24.75,7.25 25,7.5 25.25,7.75 25.5,8 25.75,8.25 25.875,8.625 26,9 25.875,9.375 25.75,9.75 25.5,10 25.25,10.25 25,10.5 24.75,10.75 24.359375,10.890625 L 23.96875,11.03125 23.984375,11.140625 24,11.25 23.96875,11.03125 Q 23.9375,10.8125 23.875,10.625 L 23.8125,10.4375 23.90625,10.71875 24,11 23.875,10.625 Q 23.75,10.25 23.5,10 23.25,9.75 23,9.5 22.75,9.25 22.5,9 22.25,8.75 22.125,8.375 22,8 21.875,7.625 21.75,7.25 21.5,7 21.25,6.75 21.125,6.375 M 20.96875,5.90625 21,6 21.09375,6.28125 21.1875,6.5625 21.125,6.375 Q 21.0625,6.1875 21,6 l -0.0625,-0.1875 0.03125,0.09375"
       id="path4764" />
    <path
       style="fill:#006030;fill-opacity:1"
       d="M 8.125,7.625 Q 8.25,7.25 8.625,7.125 L 9,7 8.71875,7.09375 8.4375,7.1875 8.625,7.125 Q 8.8125,7.0625 9.03125,7.03125 L 9.25,7 9.140625,7.015625 9.03125,7.03125 9.140625,7.390625 Q 9.25,7.75 9.625,7.875 10,8 10.375,7.875 10.75,7.75 11,7.5 q 0.25,-0.25 0.5,-0.25 0.25,0 0.5,0.25 0.25,0.25 0.5,0.25 0.25,0 0.375,-0.375 L 13,7 12.90625,7.28125 12.8125,7.5625 12.875,7.375 Q 12.9375,7.1875 12.96875,6.96875 L 13,6.75 12.984375,6.859375 12.96875,6.96875 13.484375,6.984375 14,7 V 7.5 Q 14,8 14.125,8.375 14.25,8.75 14.5,8.75 q 0.25,0 0.5,-0.25 0.25,-0.25 0.5,-0.25 0.25,0 0.375,0.375 Q 16,9 16.125,9.375 16.25,9.75 16.5,10 q 0.25,0.25 0.5,0.5 0.25,0.25 0.5,0.5 0.25,0.25 0.5,0.5 0.25,0.25 0.625,0.375 L 19,12 l 0.125,0.375 q 0.125,0.375 0.5,0.5 Q 20,13 20.5,13 H 21 l 0.125,0.375 q 0.125,0.375 0.5,0.5 Q 22,14 22.5,14 q 0.5,0 1,0 H 24 23.625 23.25 23.5 q 0.25,0 0.46875,0.03125 l 0.21875,0.03125 -0.109375,-0.01563 -0.109375,-0.01563 0.140625,0.359375 Q 24.25,14.75 24.625,14.875 L 25,15 l 0.125,0.375 q 0.125,0.375 0.5,0.5 Q 26,16 26.484375,16.015625 l 0.484375,0.01563 -0.01563,-0.109375 -0.01563,-0.109375 0.03125,0.21875 Q 27,16.25 27,16.5 V 16.75 16.375 16 16.5 q 0,0.5 0,1 0,0.5 0,1 V 19 L 26.4375,18.9375 25.875,18.875 25.8125,18.9375 25.75,19 25.875,18.875 Q 26,18.75 26,18.5 V 18.25 18.625 19 18.5 18 18.375 18.75 18.5 q 0,-0.25 -0.125,-0.375 L 25.75,18 25.8125,18.0625 25.875,18.125 25.8125,17.6875 Q 25.75,17.25 25.375,17.125 25,17 24.46875,17 H 23.9375 V 17.09375 17.1875 17 q 0,-0.1875 -0.0625,-0.375 L 23.8125,16.4375 23.90625,16.71875 24,17 23.875,16.625 Q 23.75,16.25 23.5,16 23.25,15.75 23,15.5 q -0.25,-0.25 -0.5,-0.25 -0.25,0 -0.5,0.25 -0.25,0.25 -0.5,0.25 -0.25,0 -0.5,-0.25 Q 20.75,15.25 20.5,15 20.25,14.75 20,14.5 19.75,14.25 19.375,14.125 19,14 18.625,13.875 18.25,13.75 18.125,13.375 18,13 17.875,12.625 17.75,12.25 17.5,12 17.25,11.75 17,11.5 16.75,11.25 16.375,11.125 16,11 15.5,11 H 15 L 14.875,10.625 Q 14.75,10.25 14.375,10.125 14,10 13.5,10 H 13 L 12.875,9.625 Q 12.75,9.25 12.375,9.125 12,9 11.4375,9.0625 L 10.875,9.125 10.9375,9.1875 11,9.25 10.875,9.125 Q 10.75,9 10.5,9 H 10.25 10.625 11 L 10.625,9.125 Q 10.25,9.25 10.125,9.625 10,10 9.875,10.375 9.75,10.75 9.375,10.875 L 9,11 V 10.5 Q 9,10 9,9.5 9,9 8.875,8.625 8.75,8.25 8.375,8.125 L 8,8 8.125,7.625 M 8.09375,7.71875 8,8 7.96875,8.09375 7.9375,8.1875 8,8 Q 8.0625,7.8125 8.125,7.625 L 8.1875,7.4375 8.09375,7.71875 M 12.875,10 H 13 13.375 13.75 13.5 q -0.25,0 -0.5,0 h -0.25 0.125 m 2,1 H 15 15.375 15.75 15.5 q -0.25,0 -0.5,0 h -0.25 0.125 M 25.09375,15.28125 25,15 24.96875,14.90625 24.9375,14.8125 25,15 q 0.0625,0.1875 0.125,0.375 l 0.0625,0.1875 -0.09375,-0.28125 M 21.125,13 H 21 20.625 20.25 20.5 q 0.25,0 0.5,0 h 0.25 -0.125"
       id="path4766" />
    <path
       style="fill:#008040;fill-opacity:1"
       d="M 14,7.5 V 7 h 0.5 Q 15,7 15.375,7.125 15.75,7.25 16,7.5 16.25,7.75 16.5,8 16.75,8.25 16.875,8.625 17,9 17.125,9.375 17.25,9.75 17.625,9.875 18,10 18.484375,10.015625 L 18.96875,10.03125 18.953125,9.921875 18.9375,9.8125 18.96875,10.03125 Q 19,10.25 19,10.5 V 10.75 10.375 10 10.5 q 0,0.5 0,1 V 12 L 18.625,11.875 Q 18.25,11.75 18,11.5 17.75,11.25 17.5,11 17.25,10.75 17,10.5 16.75,10.25 16.5,10 16.25,9.75 16.125,9.375 16,9 15.875,8.625 15.75,8.25 15.5,8.25 15.25,8.25 15,8.5 14.75,8.75 14.5,8.75 14.25,8.75 14.125,8.375 14,8 14,7.5"
       id="path4768" />
    <path
       style="fill:#008040;fill-opacity:1"
       d="M 7.875,8.375 8,8 8.375,8.125 q 0.375,0.125 0.5,0.5 L 9,9 8.90625,8.71875 8.8125,8.4375 8.875,8.625 Q 8.9375,8.8125 8.96875,9.03125 L 9,9.25 8.984375,9.140625 8.96875,9.03125 8.609375,9.140625 Q 8.25,9.25 8,9.5 7.75,9.75 7.5,10 7.25,10.25 7.125,10.625 7,11 6.953125,11.546875 L 6.90625,12.09375 6.953125,12.171875 7,12.25 6.90625,12.09375 Q 6.8125,11.9375 6.625,11.875 L 6.4375,11.8125 6.71875,11.90625 7,12 6.625,11.875 Q 6.25,11.75 6.125,11.375 6,11 6,10.5 V 10 10.375 10.75 10.5 Q 6,10.25 6.03125,10.03125 L 6.0625,9.8125 6.046875,9.921875 6.03125,10.03125 6.390625,9.890625 Q 6.75,9.75 7,9.5 7.25,9.25 7.5,9 7.75,8.75 7.875,8.375 M 8.03125,7.90625 8,8 7.90625,8.28125 7.8125,8.5625 7.875,8.375 Q 7.9375,8.1875 8,8 L 8.0625,7.8125 8.03125,7.90625"
       id="path4770" />
    <path
       style="fill:#00a050;fill-opacity:1"
       d="M 8,9.5 Q 8.25,9.25 8.609375,9.140625 L 8.96875,9.03125 8.953125,8.921875 8.9375,8.8125 8.96875,9.03125 Q 9,9.25 9,9.5 V 9.75 9.375 9 9.5 q 0,0.5 0,1 V 11 L 8.625,11.125 Q 8.25,11.25 8.25,11.5 q 0,0.25 0.375,0.375 L 9,12 v 0.5 Q 9,13 8.875,13.375 8.75,13.75 8.5,13.75 8.25,13.75 8,13.5 7.75,13.25 7.375,13.125 L 7,13 V 12.5 12 12.375 12.75 12.5 Q 7,12.25 6.90625,12.09375 L 6.8125,11.9375 6.859375,12.015625 6.90625,12.09375 6.953125,11.546875 Q 7,11 7.125,10.625 7.25,10.25 7.5,10 7.75,9.75 8,9.5 m 1,2.875 V 12 11.875 11.75 12 q 0,0.25 0,0.5 v 0.25 -0.375"
       id="path4772" />
    <path
       style="fill:#e0e0e0;fill-opacity:1"
       d="M 10.125,9.625 Q 10.25,9.25 10.625,9.125 11,9 11,9.5 q 0,0.5 0,1 V 11 l -0.375,0.125 Q 10.25,11.25 10,11.5 9.75,11.75 9.375,11.875 L 9,12 V 11.5 11 L 9.375,10.875 Q 9.75,10.75 9.875,10.375 10,10 10.125,9.625"
       id="path4774" />
    <path
       style="fill:#306000;fill-opacity:1"
       d="M 11,9.5 V 9 9.375 9.75 9.5 Q 11,9.25 10.875,9.125 L 10.75,9 10.8125,9.0625 10.875,9.125 11.4375,9.0625 Q 12,9 12.375,9.125 q 0.375,0.125 0.5,0.5 L 13,10 h -0.5 q -0.5,0 -1,0 H 11 V 9.5 m 0,0.125 V 10 10.125 10.25 10 Q 11,9.75 11,9.5 V 9.25 9.625 M 12.625,10 H 13 13.125 13.25 13 q -0.25,0 -0.5,0 h -0.25 0.375"
       id="path4776" />
    <path
       style="fill:#006030;fill-opacity:1"
       d="M 17.125,9.375 17,9 17.375,9.125 Q 17.75,9.25 17.890625,9.609375 L 18.03125,9.96875 18.140625,9.984375 18.25,10 18.03125,9.96875 Q 17.8125,9.9375 17.625,9.875 L 17.4375,9.8125 17.71875,9.90625 18,10 17.625,9.875 Q 17.25,9.75 17.125,9.375 M 16.96875,8.90625 17,9 17.09375,9.28125 17.1875,9.5625 17.125,9.375 Q 17.0625,9.1875 17,9 l -0.0625,-0.1875 0.03125,0.09375"
       id="path4778" />
    <path
       style="fill:#e0e0e0;fill-opacity:1"
       d="M 4,10.5 V 10 l 0.375,0.125 Q 4.75,10.25 5,10.5 5.25,10.75 5.640625,10.859375 L 6.03125,10.96875 6.015625,10.859375 6,10.75 6.03125,10.96875 Q 6.0625,11.1875 6.125,11.375 L 6.1875,11.5625 6.09375,11.28125 6,11 6.125,11.375 q 0.125,0.375 0.5,0.5 Q 7,12 7,12.5 V 13 H 6.5 6 L 5.875,12.625 Q 5.75,12.25 5.5,12 5.25,11.75 5,11.5 4.75,11.25 4.390625,11.109375 L 4.03125,10.96875 4.046875,11.078125 4.0625,11.1875 4.03125,10.96875 Q 4,10.75 4,10.5 V 10.25 10.625 11 10.5"
       id="path4780" />
    <path
       style="fill:#600000;fill-opacity:1"
       d="M 11,10.5 V 10 h 0.5 0.5 l 0.125,0.375 q 0.125,0.375 0.5,0.5 L 13,11 12.71875,10.90625 12.4375,10.8125 12.625,10.875 q 0.1875,0.0625 0.40625,0.09375 L 13.25,11 13.140625,10.984375 13.03125,10.96875 13.015625,11.484375 Q 13,12 13,12.5 V 13 H 12.5 12 l -0.125,-0.375 q -0.125,-0.375 -0.5,-0.5 L 11,12 V 11.5 11 10.5 M 12.125,10 H 12 11.625 11.25 11.5 q 0.25,0 0.5,0 h 0.25 -0.125 M 11,9.875 V 10 10.375 10.75 10.5 Q 11,10.25 11,10 V 9.75 9.875"
       id="path4782" />
    <path
       style="fill:#408000;fill-opacity:1"
       d="M 12.125,10.375 12,10 h 0.5 q 0.5,0 1,0 0.5,0 0.875,0.125 0.375,0.125 0.5,0.5 L 15,11 h -0.5 q -0.5,0 -1,0 -0.5,0 -0.875,-0.125 -0.375,-0.125 -0.5,-0.5 M 14.625,11 H 15 15.125 15.25 15 q -0.25,0 -0.5,0 h -0.25 0.375 m -2.25,-1 H 12 11.875 11.75 12 q 0.25,0 0.5,0 h 0.25 -0.375"
       id="path4784" />
    <path
       style="fill:#a0a0a0;fill-opacity:1"
       d="M 4.125,11.375 4,11 4.09375,11.28125 4.1875,11.5625 4.125,11.375 Q 4.0625,11.1875 4.03125,10.96875 L 4,10.75 4.015625,10.859375 4.03125,10.96875 4.390625,11.109375 Q 4.75,11.25 5,11.5 L 5.25,11.75 4.984375,12.015625 4.71875,12.28125 4.765625,12.359375 4.8125,12.4375 4.71875,12.28125 Q 4.625,12.125 4.5,12 L 4.375,11.875 4.5625,12.0625 4.75,12.25 4.5,12 Q 4.25,11.75 4.125,11.375 M 5.3125,11.8125 5.25,11.75 5.0625,11.5625 4.875,11.375 5,11.5 q 0.125,0.125 0.25,0.25 l 0.125,0.125 -0.0625,-0.0625"
       id="path4786" />
    <path
       style="fill:#008040;fill-opacity:1"
       d="m 8.25,11.5 q 0,-0.25 0.375,-0.375 L 9,11 V 11.5 12 L 8.625,11.875 Q 8.25,11.75 8.25,11.5 M 9,12.125 V 12 11.625 11.25 11.5 q 0,0.25 0,0.5 v 0.25 -0.125"
       id="path4788" />
    <path
       style="fill:#c0c0c0;fill-opacity:1"
       d="m 10,11.5 q 0.25,-0.25 0.625,-0.375 L 11,11 v 0.5 0.5 l -0.375,0.125 q -0.375,0.125 -0.5,0.5 L 10,13 10.09375,12.71875 10.1875,12.4375 10.125,12.625 q -0.0625,0.1875 -0.09375,0.40625 L 10,13.25 10.015625,13.140625 10.03125,13.03125 9.5,13 8.96875,12.96875 8.953125,13.078125 8.9375,13.1875 8.96875,12.96875 Q 9,12.75 9,12.5 V 12.25 12.625 13 12.5 12 L 9.375,11.875 Q 9.75,11.75 10,11.5"
       id="path4790" />
    <path
       style="fill:#004020;fill-opacity:1"
       d="M 13.015625,11.484375 13.03125,10.96875 12.921875,10.953125 12.8125,10.9375 13.03125,10.96875 Q 13.25,11 13.5,11 H 13.75 13.375 13 13.5 14 v 0.5 q 0,0.5 0.125,0.875 0.125,0.375 0.5,0.5 L 15,13 14.71875,12.90625 14.4375,12.8125 14.625,12.875 q 0.1875,0.0625 0.40625,0.09375 L 15.25,13 15.140625,12.984375 15.03125,12.96875 15.015625,13.484375 15,14 14.625,13.875 Q 14.25,13.75 14,13.5 13.75,13.25 13.375,13.125 L 13,13 v -0.5 q 0,-0.5 0.01563,-1.015625 M 14.125,11 H 14 13.625 13.25 13.5 q 0.25,0 0.5,0 h 0.25 -0.125"
       id="path4792" />
    <path
       style="fill:#306000;fill-opacity:1"
       d="M 14,11.5 V 11 h 0.5 q 0.5,0 1,0 H 16 15.625 15.25 15.5 q 0.25,0 0.46875,0.03125 l 0.21875,0.03125 -0.109375,-0.01563 -0.109375,-0.01563 v 0.5 0.5 l 0.109375,0.01563 0.109375,0.01563 -0.21875,-0.03125 Q 15.75,12 15.5,12 H 15.25 15.625 16 15.5 q -0.5,0 -0.984375,-0.01563 l -0.484375,-0.01563 0.01563,0.109375 0.01563,0.109375 -0.03125,-0.21875 Q 14,11.75 14,11.5 V 11.25 11.625 12 11.5 M 14.375,11 H 14 13.875 13.75 14 q 0.25,0 0.5,0 h 0.25 -0.375"
       id="path4794" />
    <path
       style="fill:#004020;fill-opacity:1"
       d="m 15.96875,11.53125 v -0.5 L 15.859375,11.015625 15.75,11 15.96875,11.03125 Q 16.1875,11.0625 16.375,11.125 L 16.5625,11.1875 16.28125,11.09375 16,11 16.375,11.125 Q 16.75,11.25 17,11.5 q 0.25,0.25 0.5,0.5 0.25,0.25 0.375,0.625 0.125,0.375 0.25,0.75 0.125,0.375 0.5,0.5 Q 19,14 19.375,14.125 19.75,14.25 20,14.5 q 0.25,0.25 0.5,0.5 0.25,0.25 0.5,0.5 0.25,0.25 0.5,0.25 0.25,0 0.5,-0.25 0.25,-0.25 0.5,-0.25 0.25,0 0.5,0.25 0.25,0.25 0.5,0.5 0.25,0.25 0.375,0.625 0.125,0.375 0,0.75 Q 23.75,17.75 23.5,18 23.25,18.25 23.125,18.625 L 23,19 23.09375,18.71875 23.1875,18.4375 23.125,18.625 q -0.0625,0.1875 -0.09375,0.40625 L 23,19.25 l 0.01563,-0.109375 0.01563,-0.109375 -0.5,-0.03125 -0.5,-0.03125 0.01563,0.109375 0.01563,0.109375 -0.03125,-0.21875 Q 22,18.75 22,18.5 V 18.25 18.625 19 18.5 q 0,-0.5 -0.125,-0.875 -0.125,-0.375 -0.5,-0.5 L 21,17 21.28125,17.09375 21.5625,17.1875 21.375,17.125 Q 21.1875,17.0625 20.96875,17.03125 L 20.75,17 l 0.109375,0.01563 0.109375,0.01563 -0.109375,-0.390625 Q 20.75,16.25 20.5,16.25 q -0.25,0 -0.375,0.375 -0.125,0.375 0,0.75 0.125,0.375 0.375,0.625 0.25,0.25 0.25,0.5 0,0.25 -0.25,0.5 -0.25,0.25 -0.375,0.625 -0.125,0.375 0,0.75 0.125,0.375 0.375,0.375 0.25,0 0.5,-0.25 0.25,-0.25 0.5,-0.25 0.25,0 0.375,0.375 L 22,21 21.90625,20.71875 21.8125,20.4375 21.875,20.625 q 0.0625,0.1875 0.09375,0.40625 L 22,21.25 21.984375,21.140625 21.96875,21.03125 21.609375,21.140625 Q 21.25,21.25 21.125,21.625 L 21,22 21.09375,21.71875 21.1875,21.4375 21.125,21.625 q -0.0625,0.1875 -0.09375,0.40625 L 21,22.25 l 0.01563,-0.109375 0.01563,-0.109375 -0.390625,0.109375 Q 20.25,22.25 20.25,22.5 q 0,0.25 0.375,0.375 Q 21,23 21.375,23.125 21.75,23.25 22,23.5 q 0.25,0.25 0.5,0.5 0.25,0.25 0.375,0.625 L 23,25 22.625,25.125 Q 22.25,25.25 22.25,25.5 q 0,0.25 0.25,0.5 0.25,0.25 0.5,0.5 0.25,0.25 0.625,0.375 L 24,27 23.71875,26.90625 23.4375,26.8125 23.625,26.875 Q 23.8125,26.9375 24,26.9375 H 24.1875 24.09375 24 l 0.125,0.40625 q 0.125,0.40625 0.5,0.53125 0.375,0.125 0.75,0 0.375,-0.125 0.5,-0.5 Q 26,27 26,26.5 V 26 l 0.375,0.125 q 0.375,0.125 0.5,0.5 Q 27,27 27.125,27.375 27.25,27.75 27.5,28 q 0.25,0.25 0.5,0.5 0.25,0.25 0.5,0.5 0.25,0.25 0.375,0.625 L 29,30 h -0.5 q -0.5,0 -1,0 H 27 L 26.875,29.625 Q 26.75,29.25 26.5,29.25 q -0.25,0 -0.375,0.375 L 26,30 H 25.5 25 L 24.875,29.625 Q 24.75,29.25 24.5,29 24.25,28.75 24,28.5 23.75,28.25 23.375,28.125 23,28 22.515625,27.984375 l -0.484375,-0.01563 0.01563,0.109375 0.01563,0.109375 -0.03125,-0.21875 Q 22,27.75 22,27.5 V 27.25 27.625 28 27.5 Q 22,27 21.875,26.625 21.75,26.25 21.375,26.125 21,26 20.5,26 H 20 V 25.5 25 h 0.5 Q 21,25 21.375,24.875 21.75,24.75 21.75,24.5 21.75,24.25 21.375,24.125 21,24 20.5,24 H 20 l -0.125,-0.375 q -0.125,-0.375 -0.5,-0.5 L 19,23 19.28125,23.09375 19.5625,23.1875 19.375,23.125 Q 19.1875,23.0625 18.96875,23.03125 L 18.75,23 l 0.109375,0.01563 0.109375,0.01563 0.01563,-0.515625 Q 19,22 19,21.5 q 0,-0.5 0,-1 0,-0.5 0,-1 0,-0.5 0,-1 0,-0.5 -0.125,-0.875 -0.125,-0.375 -0.5,-0.5 L 18,17 V 16.5 16 h 0.5 Q 19,16 19.375,15.875 19.75,15.75 19.75,15.5 19.75,15.25 19.375,15.125 19,15 18.5,15 H 18 l -0.125,-0.375 q -0.125,-0.375 -0.5,-0.5 L 17,14 17.28125,14.09375 17.5625,14.1875 17.375,14.125 Q 17.1875,14.0625 16.96875,14.03125 L 16.75,14 l 0.109375,0.01563 0.109375,0.01563 0.01563,-0.515625 Q 17,13 16.875,12.625 16.75,12.25 16.375,12.125 L 16,12 16.28125,12.09375 16.5625,12.1875 16.375,12.125 Q 16.1875,12.0625 15.96875,12.03125 L 15.75,12 l 0.109375,0.01563 0.109375,0.01563 v -0.5 M 19.875,26 H 20 20.375 20.75 20.5 q -0.25,0 -0.5,0 h -0.25 0.125 M 23.03125,25.09375 23,25 22.90625,24.71875 22.8125,24.4375 22.875,24.625 Q 22.9375,24.8125 23,25 l 0.0625,0.1875 -0.03125,-0.09375 M 22.25,16.5 q 0,0.25 0.25,0.25 0.25,0 0.25,-0.25 0,-0.25 -0.25,-0.25 -0.25,0 -0.25,0.25"
       id="path4796" />
    <path
       style="fill:#c0c0c0;fill-opacity:1"
       d="M 4.875,12.625 4.75,12.25 4.84375,12.53125 4.9375,12.8125 4.875,12.625 Q 4.8125,12.4375 4.71875,12.28125 L 4.625,12.125 4.671875,12.203125 4.71875,12.28125 4.984375,12.015625 5.25,11.75 5.5,12 q 0.25,0.25 0.375,0.625 L 6,13 H 5.5 5 L 4.875,12.625 M 5.4375,11.9375 5.25,11.75 5.1875,11.6875 5.125,11.625 5.25,11.75 Q 5.375,11.875 5.5,12 l 0.125,0.125 -0.1875,-0.1875"
       id="path4798" />
    <path
       style="fill:#00c060;fill-opacity:1"
       d="m 10.125,12.625 q 0.125,-0.375 0.5,-0.5 L 11,12 v 0.5 q 0,0.5 0.0625,1.0625 L 11.125,14.125 11.1875,14.0625 11.25,14 11.125,14.125 Q 11,14.25 11,14.5 V 14.75 14.375 14 14.5 q 0,0.5 0.125,0.875 0.125,0.375 0.5,0.5 L 12,16 v 0.5 q 0,0.5 0,1 0,0.5 0.125,0.875 0.125,0.375 0.5,0.5 L 13,19 V 19.5 20 L 12.625,19.875 Q 12.25,19.75 12,19.5 11.75,19.25 11.5,19 11.25,18.75 11,18.5 10.75,18.25 10.5,18 q -0.25,-0.25 -0.25,-0.5 0,-0.25 0.25,-0.5 0.25,-0.25 0.25,-0.5 0,-0.25 -0.25,-0.5 Q 10.25,15.75 10.125,15.375 10,15 10,14.5 10,14 10,13.5 10,13 10.125,12.625 M 13,20.125 V 20 19.625 19.25 19.5 q 0,0.25 0,0.5 v 0.25 -0.125"
       id="path4800" />
    <path
       style="fill:#000000;fill-opacity:0"
       d="M 11,12.5 V 12 l 0.375,0.125 q 0.375,0.125 0.5,0.5 L 12,13 H 11.5 11 v -0.5 m 0,0.125 V 13 13.125 13.25 13 q 0,-0.25 0,-0.5 v -0.25 0.375"
       id="path4802" />
    <path
       style="fill:#408000;fill-opacity:1"
       d="M 14.125,12.375 14,12 14.09375,12.28125 14.1875,12.5625 14.125,12.375 Q 14.0625,12.1875 14.03125,11.96875 L 14,11.75 l 0.01563,0.109375 0.01563,0.109375 0.484375,0.01563 Q 15,12 15.5,12 q 0.5,0 0.875,0.125 0.375,0.125 0.5,0.5 L 17,13 16.90625,12.71875 16.8125,12.4375 16.875,12.625 q 0.0625,0.1875 0.09375,0.40625 L 17,13.25 16.984375,13.140625 16.96875,13.03125 16.484375,13.015625 Q 16,13 15.5,13 15,13 14.625,12.875 q -0.375,-0.125 -0.5,-0.5"
       id="path4804" />
    <path
       style="fill:#00a050;fill-opacity:1"
       d="M 19.125,12.375 19,12 h 0.5 0.5 l 0.01563,0.484375 0.01563,0.484375 0.109375,0.01563 L 20.25,13 20.03125,12.96875 Q 19.8125,12.9375 19.625,12.875 L 19.4375,12.8125 19.71875,12.90625 20,13 19.625,12.875 q -0.375,-0.125 -0.5,-0.5"
       id="path4806" />
    <path
       style="fill:#008040;fill-opacity:1"
       d="M 20.015625,12.484375 20,12 h 0.5 q 0.5,0 1,0 0.5,0 1,0 H 23 l 0.125,0.375 q 0.125,0.375 0.5,0.5 Q 24,13 24.375,13.125 24.75,13.25 25,13.5 25.25,13.75 25.625,13.875 26,14 26.375,14.125 26.75,14.25 27,14.5 q 0.25,0.25 0.5,0.5 0.25,0.25 0.375,0.625 Q 28,16 28.125,16.375 28.25,16.75 28.5,17 q 0.25,0.25 0.5,0.5 0.25,0.25 0.5,0.5 0.25,0.25 0.328125,0.671875 l 0.07813,0.421875 0.07813,0.04687 0.07813,0.04687 -0.15625,-0.09375 Q 29.75,19 29.5,19 H 29.25 29.625 30 l -0.375,0.125 q -0.375,0.125 -0.5,0.5 L 29,20 V 19.625 19.25 19.5 q 0,0.25 0.09375,0.40625 l 0.09375,0.15625 -0.04687,-0.07813 -0.04687,-0.07813 -0.578125,0.04687 L 27.9375,20 V 20.09375 20.1875 20 q 0,-0.1875 -0.0625,-0.375 L 27.8125,19.4375 27.90625,19.71875 28,20 27.875,19.625 q -0.125,-0.375 -0.5,-0.5 L 27,19 v -0.5 q 0,-0.5 0,-1 0,-0.5 0,-1 Q 27,16 26.875,15.625 26.75,15.25 26.5,15.25 q -0.25,0 -0.359375,0.359375 L 26.03125,15.96875 26.140625,15.984375 26.25,16 26.03125,15.96875 Q 25.8125,15.9375 25.625,15.875 L 25.4375,15.8125 25.71875,15.90625 26,16 25.625,15.875 Q 25.25,15.75 25.125,15.375 25,15 24.875,14.625 24.75,14.25 24.375,14.125 24,14 23.5,14 H 23 L 22.875,13.625 Q 22.75,13.25 22.375,13.125 22,13 21.5,13 21,13 20.5,13 H 20 20.375 20.75 20.5 q -0.25,0 -0.46875,-0.03125 l -0.21875,-0.03125 0.109375,0.01563 0.109375,0.01563 -0.01563,-0.484375 M 22.875,14 H 23 23.375 23.75 23.5 q -0.25,0 -0.5,0 h -0.25 0.125"
       id="path4808" />
    <path
       style="fill:#800000;fill-opacity:1"
       d="M 23.125,12.375 23,12 h 0.5 0.5 v 0.5 0.5 l -0.375,-0.125 q -0.375,-0.125 -0.5,-0.5 M 23.71875,12.90625 24,13 24.09375,13.03125 24.1875,13.0625 24,13 q -0.1875,-0.0625 -0.375,-0.125 l -0.1875,-0.0625 0.28125,0.09375 M 24,12.375 V 12 11.875 11.75 12 q 0,0.25 0,0.5 v 0.25 -0.375"
       id="path4810" />
    <path
       style="fill:#a0a0a0;fill-opacity:1"
       d="M 5.125,13.375 5,13 H 5.5 6 V 13.5 14 L 5.625,13.875 q -0.375,-0.125 -0.5,-0.5"
       id="path4812" />
    <path
       style="fill:#00c060;fill-opacity:1"
       d="M 6,13.5 V 13 13.375 13.75 13.5 Q 6,13.25 5.96875,13.03125 L 5.9375,12.8125 5.953125,12.921875 5.96875,13.03125 6.484375,13.015625 7,13 7.125,13.375 Q 7.25,13.75 7.5,14 7.75,14.25 8,14.5 8.25,14.75 8.65625,14.875 L 9.0625,15 V 14.90625 14.8125 15 q 0,0.1875 0.0625,0.375 L 9.1875,15.5625 9.09375,15.28125 9,15 9.125,15.375 Q 9.25,15.75 9.5,16 q 0.25,0.25 0.25,0.5 0,0.25 -0.4375,0.3125 L 8.875,16.875 8.8125,16.9375 8.75,17 8.875,16.875 Q 9,16.75 9,16.5 V 16.25 16.625 17 L 8.875,16.625 Q 8.75,16.25 8.5,16 8.25,15.75 8,15.5 7.75,15.25 7.375,15.125 L 7,15 H 7.375 7.75 7.5 Q 7.25,15 7.125,15.125 L 7,15.25 7.0625,15.1875 7.125,15.125 6.9375,14.6875 Q 6.75,14.25 6.375,14.125 L 6,14 v -0.5"
       id="path4814" />
    <path
       style="fill:#008040;fill-opacity:1"
       d="M 7.125,13.375 7,13 7.375,13.125 Q 7.75,13.25 8,13.5 q 0.25,0.25 0.5,0.25 0.25,0 0.375,-0.375 L 9,13 8.90625,13.28125 8.8125,13.5625 8.875,13.375 Q 8.9375,13.1875 8.96875,12.96875 L 9,12.75 8.984375,12.859375 8.96875,12.96875 9.5,13 l 0.53125,0.03125 0.01563,-0.109375 0.01563,-0.109375 -0.03125,0.21875 Q 10,13.25 10,13.5 V 13.75 13.375 13 13.5 14 l -0.375,0.125 q -0.375,0.125 -0.5,0.5 L 9,15 9.09375,14.71875 9.1875,14.4375 9.125,14.625 Q 9.0625,14.8125 9.0625,15 V 15.1875 15.09375 15 L 8.65625,14.875 Q 8.25,14.75 8,14.5 7.75,14.25 7.5,14 7.25,13.75 7.125,13.375 M 10,14.125 V 14 13.625 13.25 13.5 q 0,0.25 0,0.5 v 0.25 -0.125"
       id="path4816" />
    <path
       style="fill:#006030;fill-opacity:1"
       d="M 11.0625,13.5625 11,13 H 11.5 12 V 13.5 14 H 11.5 11 11.375 11.75 11.5 q -0.25,0 -0.375,0.125 L 11,14.25 11.0625,14.1875 11.125,14.125 11.0625,13.5625 M 11,12.875 V 13 13.375 13.75 13.5 q 0,-0.25 0,-0.5 v -0.25 0.125"
       id="path4818" />
    <path
       style="fill:#00a050;fill-opacity:1"
       d="M 12,13.5 V 13 h 0.5 0.5 l -0.01563,0.515625 -0.01563,0.515625 0.109375,0.01563 0.109375,0.01563 -0.21875,-0.03125 Q 12.75,14 12.5,14 H 12.25 12.625 13 12.5 12 v -0.5"
       id="path4820" />
    <path
       style="fill:#006030;fill-opacity:1"
       d="M 12.984375,13.515625 13,13 13.375,13.125 Q 13.75,13.25 14,13.5 q 0.25,0.25 0.625,0.375 L 15,14 v 0.5 0.5 l -0.375,0.125 Q 14.25,15.25 14,15.5 q -0.25,0.25 -0.5,0.25 -0.25,0 -0.25,-0.25 0,-0.25 0.25,-0.5 0.25,-0.25 0.25,-0.5 0,-0.25 -0.375,-0.375 L 13,14 13.28125,14.09375 13.5625,14.1875 13.375,14.125 Q 13.1875,14.0625 12.96875,14.03125 L 12.75,14 l 0.109375,0.01563 0.109375,0.01563 0.01563,-0.515625"
       id="path4822" />
    <path
       style="fill:#306000;fill-opacity:1"
       d="M 15.015625,13.484375 15.03125,12.96875 14.921875,12.953125 14.8125,12.9375 15.03125,12.96875 Q 15.25,13 15.5,13 H 15.75 15.375 15 15.5 q 0.5,0 0.984375,0.01563 l 0.484375,0.01563 -0.01563,-0.109375 -0.01563,-0.109375 0.03125,0.21875 Q 17,13.25 17,13.5 V 13.75 13.375 13 l -0.01563,0.515625 -0.01563,0.515625 0.109375,0.01563 0.109375,0.01563 -0.21875,-0.03125 Q 16.75,14 16.5,14 H 16.25 16.625 17 16.5 q -0.5,0 -1,0 H 15 l 0.01563,-0.515625"
       id="path4824" />
    <path
       style="fill:#00a050;fill-opacity:1"
       d="M 21.125,13.375 21,13 h 0.5 q 0.5,0 0.875,0.125 0.375,0.125 0.5,0.5 L 23,14 h -0.5 q -0.5,0 -0.875,-0.125 -0.375,-0.125 -0.5,-0.5 M 22.625,14 H 23 23.125 23.25 23 q -0.25,0 -0.5,0 h -0.25 0.375 m -1.25,-1 H 21 20.875 20.75 21 q 0.25,0 0.5,0 h 0.25 -0.375"
       id="path4826" />
    <path
       style="fill:#008040;fill-opacity:1"
       d="M 6,14.5 V 14 l 0.375,0.125 Q 6.75,14.25 6.9375,14.6875 L 7.125,15.125 7.1875,15.0625 7.25,15 7.125,15.125 Q 7,15.25 7,15.5 V 15.75 15.375 15 15.5 16 H 6.5 6 v -0.5 q 0,-0.5 0,-1 m 0,1.125 V 16 16.125 16.25 16 q 0,-0.25 0,-0.5 v -0.25 0.375"
       id="path4828" />
    <path
       style="fill:#00a050;fill-opacity:1"
       d="m 9.125,14.625 q 0.125,-0.375 0.5,-0.5 L 10,14 v 0.5 q 0,0.5 0.125,0.875 0.125,0.375 0.375,0.625 0.25,0.25 0.25,0.5 0,0.25 -0.25,0.5 -0.25,0.25 -0.25,0.5 0,0.25 0.25,0.5 0.25,0.25 0.5,0.5 0.25,0.25 0.5,0.5 0.25,0.25 0.5,0.5 0.25,0.25 0.625,0.375 L 13,20 V 20.5 21 20.625 20.25 20.5 q 0,0.25 -0.03125,0.46875 l -0.03125,0.21875 0.01563,-0.109375 0.01563,-0.109375 -0.484375,0.01563 L 12,21 11.875,20.625 Q 11.75,20.25 11.5,20 11.25,19.75 11,19.5 10.75,19.25 10.5,19 10.25,18.75 10,18.5 9.75,18.25 9.375,18.125 9,18 8.625,17.875 8.25,17.75 8,17.5 7.75,17.25 7.375,17.125 L 7,17 V 16.5 16 l 0.375,0.125 Q 7.75,16.25 8,16.5 8.25,16.75 8.625,16.875 L 9,17 H 8.625 8.25 8.5 q 0.25,0 0.375,-0.125 L 9,16.75 8.9375,16.8125 8.875,16.875 9.3125,16.8125 Q 9.75,16.75 9.75,16.5 9.75,16.25 9.5,16 9.25,15.75 9.125,15.375 9,15 9.125,14.625 M 7,16.625 V 17 17.125 17.25 17 q 0,-0.25 0,-0.5 v -0.25 0.375 m 6,3.75 V 20 19.875 19.75 20 q 0,0.25 0,0.5 v 0.25 -0.375 m -3,-6 V 14 13.875 13.75 14 q 0,0.25 0,0.5 v 0.25 -0.375"
       id="path4830" />
    <path
       style="fill:#c00000;fill-opacity:1"
       d="M 11,14.5 Q 11,14 11.5,14 H 12 v 0.5 q 0,0.5 0,1 V 16 L 11.625,15.875 Q 11.25,15.75 11.125,15.375 11,15 11,14.5"
       id="path4832" />
    <path
       style="fill:#004020;fill-opacity:1"
       d="M 12,14.5 V 14 h 0.5 q 0.5,0 0.875,0.125 0.375,0.125 0.375,0.375 0,0.25 -0.25,0.5 -0.25,0.25 -0.25,0.5 0,0.25 0.25,0.25 0.25,0 0.5,-0.25 0.25,-0.25 0.625,-0.375 L 15,15 v 0.5 q 0,0.5 0,1 V 17 l -0.375,0.125 q -0.375,0.125 -0.5,0.5 -0.125,0.375 0,0.75 0.125,0.375 0.5,0.5 L 15,19 V 19.5 20 L 14.625,19.875 Q 14.25,19.75 14,19.5 13.75,19.25 13.375,19.125 L 13,19 v -0.5 q 0,-0.5 0,-1 0,-0.5 -0.125,-0.875 -0.125,-0.375 -0.5,-0.5 L 12,16 v -0.5 q 0,-0.5 0,-1"
       id="path4834" />
    <path
       style="fill:#60c000;fill-opacity:1"
       d="M 15,14.5 V 14 h 0.5 0.5 l -0.125,0.375 q -0.125,0.375 -0.5,0.5 L 15,15 V 14.5 M 16.125,14 H 16 15.625 15.25 15.5 q 0.25,0 0.5,0 h 0.25 -0.125"
       id="path4836" />
    <path
       style="fill:#408000;fill-opacity:1"
       d="M 15.875,14.375 16,14 h 0.5 q 0.5,0 0.875,0.125 0.375,0.125 0.5,0.5 L 18,15 H 17.5 Q 17,15 16.625,15.125 16.25,15.25 16.25,15.5 q 0,0.25 0.375,0.375 Q 17,16 17.5,16 H 18 V 16.5 17 H 17.5 Q 17,17 16.625,17.125 16.25,17.25 16.25,17.5 q 0,0.25 0.375,0.375 Q 17,18 17.5,18 q 0.5,0 0.984375,0.01563 l 0.484375,0.01563 -0.01563,-0.109375 -0.01563,-0.109375 0.03125,0.21875 Q 19,18.25 19,18.5 V 18.75 18.375 18 18.5 19 h -0.5 q -0.5,0 -1,0 -0.5,0 -0.875,0.125 -0.375,0.125 -0.375,0.375 0,0.25 0.375,0.375 Q 17,20 17.5,20 q 0.5,0 1,0 H 19 v 0.5 0.5 h -0.5 q -0.5,0 -1,0 -0.5,0 -1,0 H 16 l -0.125,-0.375 q -0.125,-0.375 -0.5,-0.5 L 15,20 V 19.5 19 l 0.375,-0.125 Q 15.75,18.75 15.75,18.5 q 0,-0.25 -0.375,-0.375 L 15,18 V 17.5 17 l 0.375,-0.125 Q 15.75,16.75 15.75,16.5 q 0,-0.25 -0.375,-0.375 L 15,16 V 15.5 15 l 0.375,-0.125 q 0.375,-0.125 0.5,-0.5 M 15,15.625 V 16 16.125 16.25 16 q 0,-0.25 0,-0.5 v -0.25 0.375 m 0,2 V 18 18.125 18.25 18 q 0,-0.25 0,-0.5 v -0.25 0.375 m 4,3.5 V 21 20.625 20.25 20.5 q 0,0.25 0,0.5 v 0.25 -0.125 m 0,-0.75 V 20 19.875 19.75 20 q 0,0.25 0,0.5 v 0.25 -0.375 m 0,-1.25 V 19 18.625 18.25 18.5 q 0,0.25 0,0.5 v 0.25 -0.125 M 16.375,14 H 16 15.875 15.75 16 q 0.25,0 0.5,0 h 0.25 -0.375"
       id="path4838" />
    <path
       style="fill:#00a050;fill-opacity:1"
       d="M 24.109375,14.390625 23.96875,14.03125 23.859375,14.015625 23.75,14 23.96875,14.03125 Q 24.1875,14.0625 24.375,14.125 L 24.5625,14.1875 24.28125,14.09375 24,14 l 0.375,0.125 q 0.375,0.125 0.5,0.5 L 25,15 24.625,14.875 Q 24.25,14.75 24.109375,14.390625 M 25.03125,15.09375 25,15 24.90625,14.71875 24.8125,14.4375 24.875,14.625 Q 24.9375,14.8125 25,15 l 0.0625,0.1875 -0.03125,-0.09375"
       id="path4840" />
    <path
       style="fill:#c00000;fill-opacity:1"
       d="M 7,15.5 Q 7,15 7.375,15.125 7.75,15.25 8,15.5 8.25,15.75 8.5,16 8.75,16.25 8.875,16.625 9,17 8.625,16.875 8.25,16.75 8,16.5 7.75,16.25 7.375,16.125 L 7,16 v -0.5"
       id="path4842" />
    <path
       style="fill:#306000;fill-opacity:1"
       d="m 16.25,15.5 q 0,-0.25 0.375,-0.375 L 17,15 16.71875,15.09375 16.4375,15.1875 16.625,15.125 q 0.1875,-0.0625 0.40625,-0.09375 L 17.25,15 17.140625,15.015625 17.03125,15.03125 V 15.5 15.96875 l 0.109375,0.01563 L 17.25,16 17.03125,15.96875 Q 16.8125,15.9375 16.625,15.875 L 16.4375,15.8125 16.71875,15.90625 17,16 16.625,15.875 Q 16.25,15.75 16.25,15.5"
       id="path4844" />
    <path
       style="fill:#204000;fill-opacity:1"
       d="m 17.03125,15.5 v -0.46875 l -0.109375,0.01563 -0.109375,0.01563 0.21875,-0.03125 Q 17.25,15 17.5,15 H 17.75 17.375 17 17.5 18 V 15.5 16 H 17.5 17 17.375 17.75 17.5 q -0.25,0 -0.46875,-0.03125 l -0.21875,-0.03125 0.109375,0.01563 0.109375,0.01563 V 15.5"
       id="path4846" />
    <path
       style="fill:#006030;fill-opacity:1"
       d="M 18,15.5 V 15 h 0.5 q 0.5,0 0.875,0.125 0.375,0.125 0.375,0.375 0,0.25 -0.375,0.375 Q 19,16 18.5,16 H 18 v -0.5"
       id="path4848" />
    <path
       style="fill:#00a050;fill-opacity:1"
       d="M 26.140625,15.609375 Q 26.25,15.25 26.5,15.25 q 0.25,0 0.375,0.375 L 27,16 26.90625,15.71875 26.8125,15.4375 26.875,15.625 q 0.0625,0.1875 0.09375,0.40625 L 27,16.25 26.984375,16.140625 26.96875,16.03125 26.484375,16.015625 26,16 h 0.375 0.375 -0.25 q -0.25,0 -0.46875,-0.03125 l -0.21875,-0.03125 0.109375,0.01563 0.109375,0.01563 0.109375,-0.359375"
       id="path4850" />
    <path
       style="fill:#004020;fill-opacity:1"
       d="M 6,16.5 V 16 H 6.5 7 v 0.5 Q 7,17 7,17.5 7,18 6.875,18.375 6.75,18.75 6.5,19 6.25,19.25 6,19.5 5.75,19.75 5.5,20 5.25,20.25 5,20.5 4.75,20.75 4.5,21 4.25,21.25 4.125,21.625 L 4,22 H 3.5 3 3.375 3.75 3.5 Q 3.25,22 3.125,22.125 L 3,22.25 3.0625,22.1875 3.125,22.125 3.0625,21.5625 Q 3,21 3.125,20.625 3.25,20.25 3.625,20.125 4,20 4.375,19.875 4.75,19.75 5,19.5 5.25,19.25 5.5,19 5.75,18.75 5.875,18.375 6,18 6,17.5 6,17 6,16.5 M 6,15.875 V 16 16.375 16.75 16.5 Q 6,16.25 6,16 v -0.25 0.125"
       id="path4852" />
    <path
       style="fill:#00a050;fill-opacity:1"
       d="M 12,16.5 V 16 l 0.375,0.125 q 0.375,0.125 0.5,0.5 Q 13,17 13,17.5 V 18 l -0.484375,-0.01563 -0.484375,-0.01563 0.01563,0.109375 0.01563,0.109375 -0.03125,-0.21875 Q 12,17.75 12,17.5 V 17.25 17.625 18 17.5 q 0,-0.5 0,-1 m 1,1.625 V 18 17.625 17.25 17.5 q 0,0.25 0,0.5 v 0.25 -0.125"
       id="path4854" />
    <path
       style="fill:#60c000;fill-opacity:1"
       d="M 15,16.5 V 16 l 0.375,0.125 q 0.375,0.125 0.375,0.375 0,0.25 -0.375,0.375 L 15,17 v -0.5 m 0,-0.625 V 16 16.375 16.75 16.5 q 0,-0.25 0,-0.5 v -0.25 0.125"
       id="path4856" />
    <path
       style="fill:#008040;fill-opacity:1"
       d="M 20.125,16.625 Q 20.25,16.25 20.5,16.25 q 0.25,0 0.359375,0.390625 l 0.109375,0.390625 0.109375,0.01563 0.109375,0.01563 -0.21875,-0.03125 Q 20.75,17 20.5,17 H 20.25 20.625 21 20.53125 20.0625 V 17.09375 17.1875 17 q 0,-0.1875 0.0625,-0.375 L 20.1875,16.4375 20.09375,16.71875 20,17 20.125,16.625"
       id="path4858" />
    <path
       style="fill:#006030;fill-opacity:1"
       d="m 22.25,16.5 q 0,-0.25 0.25,-0.25 0.25,0 0.25,0.25 0,0.25 -0.25,0.25 -0.25,0 -0.25,-0.25"
       id="path4860" />
    <path
       style="fill:#006030;fill-opacity:1"
       d="M 5,17.5 Q 5.25,17.25 5.625,17.125 L 6,17 v 0.5 Q 6,18 5.875,18.375 5.75,18.75 5.5,19 5.25,19.25 5,19.5 4.75,19.75 4.375,19.875 4,20 3.625,20.125 3.25,20.25 3.125,20.625 L 3,21 3.09375,20.71875 3.1875,20.4375 3.125,20.625 Q 3.0625,20.8125 3.03125,21.03125 L 3,21.25 3.015625,21.140625 3.03125,21.03125 2.515625,21.015625 2,21 V 20.5 Q 2,20 2.125,19.625 2.25,19.25 2.625,19.125 3,19 3.375,18.875 3.75,18.75 4,18.5 4.25,18.25 4.5,18 4.75,17.75 5,17.5 M 6,17.375 V 17 16.875 16.75 17 q 0,0.25 0,0.5 v 0.25 -0.375"
       id="path4862" />
    <path
       style="fill:#008040;fill-opacity:1"
       d="M 7,17.5 V 17 l 0.375,0.125 Q 7.75,17.25 8,17.5 8.25,17.75 8.625,17.875 9,18 9.375,18.125 9.75,18.25 10,18.5 q 0.25,0.25 0.5,0.5 0.25,0.25 0.5,0.5 0.25,0.25 0.5,0.5 0.25,0.25 0.375,0.625 L 12,21 11.625,20.875 Q 11.25,20.75 11,20.5 10.75,20.25 10.5,20 10.25,19.75 10,19.5 9.75,19.25 9.3125,19.1875 L 8.875,19.125 8.9375,19.1875 9,19.25 8.875,19.125 Q 8.75,19 8.5,19 H 8.25 8.625 9 8.5 8 8.375 8.75 8.5 Q 8.25,19 8.125,19.125 L 8,19.25 8.0625,19.1875 8.125,19.125 7.9375,18.6875 Q 7.75,18.25 7.359375,18.109375 L 6.96875,17.96875 6.953125,18.078125 6.9375,18.1875 6.96875,17.96875 Q 7,17.75 7,17.5 V 17.25 17.625 18 17.5 M 7,16.875 V 17 17.375 17.75 17.5 Q 7,17.25 7,17 v -0.25 0.125"
       id="path4864" />
    <path
       style="fill:#006030;fill-opacity:1"
       d="m 14.125,17.625 q 0.125,-0.375 0.5,-0.5 L 15,17 v 0.5 q 0,0.5 0,1 V 19 l -0.375,-0.125 q -0.375,-0.125 -0.5,-0.5 -0.125,-0.375 0,-0.75"
       id="path4866" />
    <path
       style="fill:#306000;fill-opacity:1"
       d="m 16.25,17.5 q 0,-0.25 0.375,-0.375 Q 17,17 17.5,17 H 18 V 17.5 18 H 17.5 Q 17,18 16.625,17.875 16.25,17.75 16.25,17.5 M 17.625,18 H 18 18.125 18.25 18 q -0.25,0 -0.5,0 h -0.25 0.375"
       id="path4868" />
    <path
       style="fill:#204000;fill-opacity:1"
       d="M 18,17.5 V 17 l 0.375,0.125 q 0.375,0.125 0.5,0.5 L 19,18 18.90625,17.71875 18.8125,17.4375 18.875,17.625 q 0.0625,0.1875 0.09375,0.40625 L 19,18.25 18.984375,18.140625 18.96875,18.03125 18.484375,18.015625 18,18 V 17.5 M 17.875,18 H 18 18.375 18.75 18.5 q -0.25,0 -0.5,0 h -0.25 0.125"
       id="path4870" />
    <path
       style="fill:#006030;fill-opacity:1"
       d="M 20.125,17.375 20,17 20.09375,17.28125 20.1875,17.5625 20.125,17.375 Q 20.0625,17.1875 20.0625,17 V 16.8125 16.90625 17 h 0.46875 Q 21,17 21.375,17.125 q 0.375,0.125 0.5,0.5 Q 22,18 22,18.5 q 0,0.5 0.125,0.875 0.125,0.375 0.5,0.5 0.375,0.125 0.75,0.25 0.375,0.125 0.5,0.5 L 24,21 23.625,21.125 q -0.375,0.125 -0.5,0.5 Q 23,22 22.875,22.375 22.75,22.75 22.5,22.75 22.25,22.75 22.125,22.375 22,22 22,21.5 22,21 21.875,20.625 21.75,20.25 21.5,20.25 q -0.25,0 -0.5,0.25 -0.25,0.25 -0.5,0.25 -0.25,0 -0.375,-0.375 Q 20,20 20.125,19.625 20.25,19.25 20.5,19 q 0.25,-0.25 0.25,-0.5 0,-0.25 -0.25,-0.5 -0.25,-0.25 -0.375,-0.625"
       id="path4872" />
    <path
       style="fill:#000000;fill-opacity:0"
       d="M 23.875,17.375 24,17 23.90625,17.28125 23.8125,17.5625 23.875,17.375 Q 23.9375,17.1875 23.9375,17 V 16.8125 16.90625 17 h 0.53125 Q 25,17 25.375,17.125 25.75,17.25 25.8125,17.6875 L 25.875,18.125 25.9375,18.1875 26,18.25 25.875,18.125 Q 25.75,18 25.5,18 H 25.25 25.625 26 l -0.375,0.125 Q 25.25,18.25 25.25,18.5 V 18.75 18.5625 18.375 18.5 q 0,0.125 0.09375,0.21875 l 0.09375,0.09375 -0.04687,-0.04687 -0.04687,-0.04687 -0.296875,0.265625 Q 24.75,19.25 24.375,19.125 24,19 23.5,19 H 23 l 0.125,-0.375 Q 23.25,18.25 23.5,18 q 0.25,-0.25 0.375,-0.625"
       id="path4874" />
    <path
       style="fill:#003018;fill-opacity:1"
       d="M 6.875,18.375 7,18 6.90625,18.28125 6.8125,18.5625 6.875,18.375 Q 6.9375,18.1875 6.96875,17.96875 L 7,17.75 6.984375,17.859375 6.96875,17.96875 7.359375,18.109375 Q 7.75,18.25 7.9375,18.6875 L 8.125,19.125 8.1875,19.0625 8.25,19 8.125,19.125 Q 8,19.25 8,19.5 V 19.75 19.375 19 19.5 20 19.625 19.25 19.5 q 0,0.25 0.125,0.375 L 8.25,20 8.1875,19.9375 8.125,19.875 7.6875,20.0625 Q 7.25,20.25 7,20.5 6.75,20.75 6.3125,20.9375 L 5.875,21.125 5.9375,21.1875 6,21.25 5.875,21.125 Q 5.75,21 5.5,21 H 5.25 5.625 6 l -0.375,0.125 q -0.375,0.125 -0.5,0.5 L 5,22 5.09375,21.71875 5.1875,21.4375 5.125,21.625 Q 5.0625,21.8125 5.0625,22 V 22.1875 22.09375 22 H 4.53125 4 L 4.125,21.625 Q 4.25,21.25 4.5,21 4.75,20.75 5,20.5 5.25,20.25 5.5,20 5.75,19.75 6,19.5 6.25,19.25 6.5,19 6.75,18.75 6.875,18.375"
       id="path4876" />
    <path
       style="fill:#008040;fill-opacity:1"
       d="M 12.125,18.375 12,18 12.09375,18.28125 12.1875,18.5625 12.125,18.375 Q 12.0625,18.1875 12.03125,17.96875 L 12,17.75 l 0.01563,0.109375 0.01563,0.109375 0.484375,0.01563 L 13,18 v 0.5 0.5 l -0.375,-0.125 q -0.375,-0.125 -0.5,-0.5 m 0.875,0 V 18 17.875 17.75 18 q 0,0.25 0,0.5 v 0.25 -0.375"
       id="path4878" />
    <path
       style="fill:#60c000;fill-opacity:1"
       d="M 15,18.5 V 18 l 0.375,0.125 q 0.375,0.125 0.375,0.375 0,0.25 -0.375,0.375 L 15,19 v -0.5 m 0,-0.625 V 18 18.375 18.75 18.5 q 0,-0.25 0,-0.5 v -0.25 0.125"
       id="path4880" />
    <path
       style="fill:#ffffff;fill-opacity:1"
       d="m 25.25,18.5 q 0,-0.25 0.375,-0.375 Q 26,18 26,18.5 26,19 25.625,18.875 25.25,18.75 25.25,18.5"
       id="path4882" />
    <path
       style="fill:#ffffff;fill-opacity:1"
       d="M 8,19.5 Q 8,19 8.5,19 9,19 9,19.5 9,20 8.5,20 8,20 8,19.5"
       id="path4884" />
    <path
       style="fill:#006030;fill-opacity:1"
       d="M 9,19.5 V 19 19.375 19.75 19.5 Q 9,19.25 8.875,19.125 L 8.75,19 8.8125,19.0625 8.875,19.125 9.3125,19.1875 Q 9.75,19.25 10,19.5 q 0.25,0.25 0.5,0.5 0.25,0.25 0.5,0.5 0.25,0.25 0.625,0.375 L 12,21 11.875,21.375 Q 11.75,21.75 11.5,21.75 11.25,21.75 11,21.5 10.75,21.25 10.5,21 10.25,20.75 10,20.5 9.75,20.25 9.3125,20.0625 L 8.875,19.875 8.8125,19.9375 8.75,20 8.875,19.875 Q 9,19.75 9,19.5 V 19.25 19.625 20 19.5"
       id="path4886" />
    <path
       style="fill:#006030;fill-opacity:1"
       d="M 13,19.5 V 19 l 0.375,0.125 Q 13.75,19.25 14,19.5 q 0.25,0.25 0.625,0.375 L 15,20 l 0.01563,0.515625 0.01563,0.515625 0.109375,-0.01563 L 15.25,21 15.03125,21.03125 Q 14.8125,21.0625 14.625,21.125 L 14.4375,21.1875 14.71875,21.09375 15,21 14.625,21.125 Q 14.25,21.25 14.25,21.5 q 0,0.25 0.25,0.5 0.25,0.25 0.25,0.5 0,0.25 -0.25,0.5 -0.25,0.25 -0.5,0.5 -0.25,0.25 -0.640625,0.390625 L 12.96875,24.03125 12.984375,24.140625 13,24.25 12.96875,24.03125 Q 12.9375,23.8125 12.875,23.625 L 12.8125,23.4375 12.90625,23.71875 13,24 12.875,23.625 Q 12.75,23.25 12.5,23.25 12.25,23.25 12,23.5 11.75,23.75 11.5,24 11.25,24.25 11,24.5 10.75,24.75 10.5,25 10.25,25.25 10.125,25.625 10,26 9.875,26.375 9.75,26.75 9.375,26.875 L 9,27 V 26.5 Q 9,26 9.125,25.625 9.25,25.25 9.5,25 9.75,24.75 9.875,24.375 10,24 10.125,23.625 10.25,23.25 10.625,23.125 11,23 11.375,22.875 11.75,22.75 12,22.5 12.25,22.25 12.5,22 12.75,21.75 12.875,21.375 13,21 13,20.5 13,20 13,19.5 M 9,26.625 V 27 27.125 27.25 27 q 0,-0.25 0,-0.5 v -0.25 0.375"
       id="path4888" />
    <path
       style="fill:#306000;fill-opacity:1"
       d="m 16.25,19.5 q 0,-0.25 0.375,-0.375 Q 17,19 17.5,19 H 18 V 19.5 20 H 17.5 Q 17,20 16.625,19.875 16.25,19.75 16.25,19.5 M 17.625,20 H 18 18.125 18.25 18 q -0.25,0 -0.5,0 h -0.25 0.375 m 0.5,-1 H 18 17.625 17.25 17.5 q 0.25,0 0.5,0 h 0.25 -0.125"
       id="path4890" />
    <path
       style="fill:#204000;fill-opacity:1"
       d="M 18,19.5 V 19 H 18.5 19 V 19.5 20 H 18.5 18 V 19.5 M 17.875,20 H 18 18.375 18.75 18.5 q -0.25,0 -0.5,0 h -0.25 0.125 M 19,20.125 V 20 19.625 19.25 19.5 q 0,0.25 0,0.5 v 0.25 -0.125 m 0,-0.75 V 19 18.875 18.75 19 q 0,0.25 0,0.5 v 0.25 -0.375 M 18.375,19 H 18 17.875 17.75 18 q 0.25,0 0.5,0 h 0.25 -0.375"
       id="path4892" />
    <path
       style="fill:#008040;fill-opacity:1"
       d="M 22.125,19.375 22,19 22.09375,19.28125 22.1875,19.5625 22.125,19.375 Q 22.0625,19.1875 22.03125,18.96875 L 22,18.75 l 0.01563,0.109375 0.01563,0.109375 0.5,0.03125 0.5,0.03125 0.01563,-0.109375 0.01563,-0.109375 -0.03125,0.21875 Q 23,19.25 23,19.5 V 19.75 19.375 19 19.5 20 l -0.375,-0.125 q -0.375,-0.125 -0.5,-0.5 M 22.71875,19.90625 23,20 23.09375,20.03125 23.1875,20.0625 23,20 q -0.1875,-0.0625 -0.375,-0.125 l -0.1875,-0.0625 0.28125,0.09375"
       id="path4894" />
    <path
       style="fill:#000000;fill-opacity:1"
       d="M 23,19.5 V 19 h 0.5 q 0.5,0 0.875,0.125 0.375,0.125 0.671875,-0.140625 L 25.34375,18.71875 25.296875,18.671875 25.25,18.625 25.34375,18.71875 Q 25.4375,18.8125 25.625,18.875 L 25.8125,18.9375 25.53125,18.84375 25.25,18.75 25.625,18.875 26,19 H 25.625 25.25 25.5 q 0.25,0 0.375,-0.125 L 26,18.75 25.9375,18.8125 25.875,18.875 26.4375,18.9375 27,19 v 0.5 q 0,0.5 0.125,0.875 0.125,0.375 0.375,0.375 0.25,0 0.375,-0.375 L 28,20 27.90625,20.28125 27.8125,20.5625 27.875,20.375 Q 27.9375,20.1875 27.9375,20 V 19.8125 19.90625 20 l 0.578125,-0.04687 0.578125,-0.04687 -0.04687,-0.07813 L 29,19.75 29.09375,19.90625 Q 29.1875,20.0625 29.375,20.125 L 29.5625,20.1875 29.28125,20.09375 29,20 29.375,20.125 Q 29.75,20.25 30,20.5 L 30.25,20.75 30.0625,20.5625 29.875,20.375 30,20.5 q 0.125,0.125 0.25,0.1875 L 30.375,20.75 30.3125,20.71875 30.25,20.6875 29.953125,20.984375 29.65625,21.28125 29.703125,21.328125 29.75,21.375 29.65625,21.28125 Q 29.5625,21.1875 29.375,21.125 L 29.1875,21.0625 29.46875,21.15625 29.75,21.25 29.375,21.125 Q 29,21 28.625,21.125 28.25,21.25 28,21.5 27.75,21.75 27.375,21.875 27,22 26.625,21.875 26.25,21.75 26,21.5 25.75,21.25 25.375,21.125 25,21 24.5,21 H 24 l -0.125,-0.375 q -0.125,-0.375 -0.5,-0.5 L 23,20 V 19.5 M 22.90625,19.96875 23,20 23.28125,20.09375 23.5625,20.1875 23.375,20.125 Q 23.1875,20.0625 23,20 l -0.1875,-0.0625 0.09375,0.03125"
       id="path4896" />
    <path
       style="fill:#ffffff;fill-opacity:1"
       d="M 27,19.5 V 19 l 0.375,0.125 q 0.375,0.125 0.5,0.5 0.125,0.375 0,0.75 -0.125,0.375 -0.375,0.375 -0.25,0 -0.375,-0.375 Q 27,20 27,19.5"
       id="path4898" />
    <path
       style="fill:#ffffff;fill-opacity:1"
       d="m 29.125,19.625 q 0.125,-0.375 0.5,-0.5 Q 30,19 30.125,19.375 30.25,19.75 30.5,20 q 0.25,0.25 0.25,0.5 0,0.25 -0.25,0.25 -0.25,0 -0.5,-0.25 Q 29.75,20.25 29.375,20.125 29,20 29.125,19.625"
       id="path4900" />
    <path
       style="fill:#004020;fill-opacity:1"
       d="M 1.171875,20.671875 Q 1.25,20.25 1.640625,20.140625 L 2.03125,20.03125 2.046875,19.921875 2.0625,19.8125 2.03125,20.03125 Q 2,20.25 2,20.5 V 20.75 20.375 20 20.5 21 H 1.5 1 1.375 1.75 1.5 Q 1.25,21 1.09375,21.09375 L 0.9375,21.1875 1.015625,21.140625 1.09375,21.09375 1.171875,20.671875"
       id="path4902" />
    <path
       style="fill:#000000;fill-opacity:0"
       d="M 7,20.5 Q 7.25,20.25 7.6875,20.0625 L 8.125,19.875 8.0625,19.8125 8,19.75 8.125,19.875 Q 8.25,20 8.5,20 H 8.75 8.375 8 8.5 9 8.625 8.25 8.5 q 0.25,0 0.375,-0.125 L 9,19.75 8.9375,19.8125 8.875,19.875 9.3125,20.0625 Q 9.75,20.25 10,20.5 q 0.25,0.25 0.5,0.5 0.25,0.25 0.5,0.5 0.25,0.25 0.5,0.25 0.25,0 0.375,-0.375 L 12,21 12.484375,20.984375 12.96875,20.96875 12.984375,20.859375 13,20.75 12.96875,20.96875 Q 12.9375,21.1875 12.875,21.375 L 12.8125,21.5625 12.90625,21.28125 13,21 12.875,21.375 Q 12.75,21.75 12.5,22 12.25,22.25 12,22.5 11.75,22.75 11.375,22.875 11,23 10.625,23.125 10.25,23.25 10.125,23.625 10,24 9.875,24.375 9.75,24.75 9.5,25 9.25,25.25 9.125,25.625 9,26 9,26.5 9,27 9,27.5 V 28 L 8.625,28.125 Q 8.25,28.25 8,28.5 7.75,28.75 7.375,28.875 7,29 6.625,29.125 6.25,29.25 6.0625,29.6875 L 5.875,30.125 5.9375,30.1875 6,30.25 5.875,30.125 Q 5.75,30 5.5,30 H 5.25 5.625 6 L 5.625,30.125 Q 5.25,30.25 5.25,30.5 V 30.75 30.5625 30.375 30.5 q 0,0.125 0.09375,0.21875 L 5.4375,30.8125 5.390625,30.765625 5.34375,30.71875 5.046875,30.984375 Q 4.75,31.25 4.875,31.625 L 5,32 H 4.5 4 3.5 3 2.5 2 1.5 1 0.5 0 V 31.5 31 30.5 30 29.5 29 28.5 28 27.5 27 26.5 26 25.5 25 24.5 24 23.5 23 L 0.375,22.875 Q 0.75,22.75 1,22.5 1.25,22.25 1.5,22 1.75,21.75 1.875,21.375 L 2,21 2.515625,21.015625 3.03125,21.03125 3.046875,20.921875 3.0625,20.8125 3.03125,21.03125 Q 3,21.25 3,21.5 V 21.75 21.375 21 L 3.0625,21.5625 3.125,22.125 3.1875,22.0625 3.25,22 3.125,22.125 Q 3,22.25 3,22.5 V 22.75 22.375 22 22.5 Q 3,23 3.125,23.375 3.25,23.75 3.5,23.75 3.75,23.75 3.875,23.375 4,23 4,22.5 V 22 H 4.53125 5.0625 V 21.90625 21.8125 22 q 0,0.1875 0.0625,0.375 L 5.1875,22.5625 5.09375,22.28125 5,22 5.125,22.375 Q 5.25,22.75 5.5,22.75 5.75,22.75 5.875,22.375 6,22 6,21.5 V 21 21.375 21.75 21.5 Q 6,21.25 5.875,21.125 L 5.75,21 5.8125,21.0625 5.875,21.125 6.3125,20.9375 Q 6.75,20.75 7,20.5"
       id="path4904" />
    <path
       style="fill:#60c000;fill-opacity:1"
       d="M 15.015625,20.515625 15,20 l 0.375,0.125 q 0.375,0.125 0.5,0.5 L 16,21 H 15.5 15 15.375 15.75 15.5 q -0.25,0 -0.46875,0.03125 l -0.21875,0.03125 0.109375,-0.01563 0.109375,-0.01563 -0.01563,-0.515625"
       id="path4906" />
    <path
       style="fill:#ffffff;fill-opacity:1"
       d="M 0.875,21.375 Q 1,21 1.5,21 H 2 L 1.875,21.375 Q 1.75,21.75 1.5,22 1.25,22.25 1,22.5 0.75,22.75 0.375,22.875 L 0,23 V 22.5 22 l 0.375,-0.125 q 0.375,-0.125 0.5,-0.5"
       id="path4908" />
    <path
       style="fill:#ffffff;fill-opacity:1"
       d="M 5.125,21.625 Q 5.25,21.25 5.625,21.125 6,21 6,21.5 6,22 5.875,22.375 5.75,22.75 5.5,22.75 5.25,22.75 5.125,22.375 5,22 5.125,21.625"
       id="path4910" />
    <path
       style="fill:#004020;fill-opacity:1"
       d="m 14.25,21.5 q 0,-0.25 0.375,-0.375 Q 15,21 15.5,21 H 16 v 0.5 q 0,0.5 0,1 0,0.5 0.01563,1.015625 l 0.01563,0.515625 0.109375,-0.01563 L 16.25,24 16.03125,24.03125 Q 15.8125,24.0625 15.625,24.125 L 15.4375,24.1875 15.71875,24.09375 16,24 15.625,24.125 Q 15.25,24.25 15,24.5 14.75,24.75 14.5,25 14.25,25.25 14.125,25.625 14,26 13.875,26.375 13.75,26.75 13.5,27 13.25,27.25 13.125,27.625 13,28 12.875,28.375 12.75,28.75 12.5,29 12.25,29.25 12.125,29.625 12,30 12.015625,30.484375 l 0.01563,0.484375 0.109375,0.01563 L 12.25,31 12.03125,30.96875 Q 11.8125,30.9375 11.625,30.875 L 11.4375,30.8125 11.71875,30.90625 12,31 11.625,30.875 Q 11.25,30.75 11.125,30.375 11,30 11,29.5 11,29 11.125,28.625 11.25,28.25 11.5,28 11.75,27.75 12,27.5 12.25,27.25 12.5,27 12.75,26.75 12.875,26.375 13,26 13,25.5 13,25 13,24.5 V 24 24.375 24.75 24.5 q 0,-0.25 -0.03125,-0.46875 l -0.03125,-0.21875 0.01563,0.109375 0.01563,0.109375 0.390625,-0.140625 Q 13.75,23.75 14,23.5 q 0.25,-0.25 0.5,-0.5 0.25,-0.25 0.25,-0.5 0,-0.25 -0.25,-0.5 -0.25,-0.25 -0.25,-0.5"
       id="path4912" />
    <path
       style="fill:#306000;fill-opacity:1"
       d="M 16,21.5 V 21 h 0.5 q 0.5,0 1,0 H 18 v 0.5 0.5 h -0.5 q -0.5,0 -1,0 H 16 v -0.5 m 0,0.125 V 22 22.125 22.25 22 q 0,-0.25 0,-0.5 v -0.25 0.375 M 17.625,22 H 18 18.125 18.25 18 q -0.25,0 -0.5,0 h -0.25 0.375 m 0.5,-1 H 18 17.625 17.25 17.5 q 0.25,0 0.5,0 h 0.25 -0.125"
       id="path4914" />
    <path
       style="fill:#204000;fill-opacity:1"
       d="M 18,21.5 V 21 H 18.5 19 V 21.5 22 H 18.5 18 V 21.5 M 17.875,22 H 18 18.375 18.75 18.5 q -0.25,0 -0.5,0 h -0.25 0.125 M 19,22.125 V 22 21.625 21.25 21.5 q 0,0.25 0,0.5 v 0.25 -0.125 m 0,-0.75 V 21 20.875 20.75 21 q 0,0.25 0,0.5 v 0.25 -0.375 M 18.375,21 H 18 17.875 17.75 18 q 0.25,0 0.5,0 h 0.25 -0.375"
       id="path4916" />
    <path
       style="fill:#008040;fill-opacity:1"
       d="M 21.125,21.625 Q 21.25,21.25 21.609375,21.140625 L 21.96875,21.03125 21.953125,20.921875 21.9375,20.8125 21.96875,21.03125 Q 22,21.25 22,21.5 V 21.75 21.375 21 21.5 q 0,0.5 0.125,0.875 0.125,0.375 0.375,0.375 0.25,0 0.375,-0.375 L 23,22 23.375,21.875 q 0.375,-0.125 0.5,-0.5 L 24,21 H 24.5 25 24.625 24.25 24.5 q 0.25,0 0.46875,0.03125 l 0.21875,0.03125 -0.109375,-0.01563 -0.109375,-0.01563 0.01563,0.515625 L 25,22.0625 H 25.09375 25.1875 25 q -0.1875,0 -0.375,0.0625 L 24.4375,22.1875 24.71875,22.09375 25,22 24.625,22.125 q -0.375,0.125 -0.5,0.53125 L 24,23.0625 H 24.09375 24.1875 24 q -0.1875,0 -0.375,0.0625 L 23.4375,23.1875 23.71875,23.09375 24,23 23.625,23.125 Q 23.25,23.25 23.25,23.5 q 0,0.25 0.25,0.5 0.25,0.25 0.5,0.5 0.25,0.25 0.5,0.25 0.25,0 0.375,-0.375 L 25,24 24.90625,24.28125 24.8125,24.5625 24.875,24.375 Q 24.9375,24.1875 24.9375,24 V 23.8125 23.90625 24 H 25.46875 26 v 0.5 0.5 l -0.375,0.125 q -0.375,0.125 -0.5,0.5 L 25,26 H 24.5 Q 24,26 23.625,25.875 23.25,25.75 23.125,25.375 23,25 22.875,24.625 22.75,24.25 22.5,24 22.25,23.75 22,23.5 21.75,23.25 21.375,23.125 L 21,23 V 22.5 Q 21,22 21.125,21.625 M 20.90625,22.96875 21,23 21.28125,23.09375 21.5625,23.1875 21.375,23.125 Q 21.1875,23.0625 21,23 l -0.1875,-0.0625 0.09375,0.03125 M 26,25.125 V 25 24.625 24.25 24.5 q 0,0.25 0,0.5 v 0.25 -0.125 M 26.125,24 H 26 25.625 25.25 25.5 q 0.25,0 0.5,0 h 0.25 -0.125 M 23.03125,21.90625 23,22 22.90625,22.28125 22.8125,22.5625 22.875,22.375 Q 22.9375,22.1875 23,22 l 0.0625,-0.1875 -0.03125,0.09375"
       id="path4918" />
    <path
       style="fill:#004020;fill-opacity:1"
       d="m 23.125,21.625 q 0.125,-0.375 0.5,-0.5 L 24,21 23.875,21.375 q -0.125,0.375 -0.5,0.5 L 23,22 23.125,21.625 M 23.09375,21.71875 23,22 22.96875,22.09375 22.9375,22.1875 23,22 q 0.0625,-0.1875 0.125,-0.375 l 0.0625,-0.1875 -0.09375,0.28125"
       id="path4920" />
    <path
       style="fill:#006030;fill-opacity:1"
       d="M 24.984375,21.546875 24.96875,21.03125 24.859375,21.015625 24.75,21 24.96875,21.03125 Q 25.1875,21.0625 25.375,21.125 L 25.5625,21.1875 25.28125,21.09375 25,21 25.375,21.125 Q 25.75,21.25 26,21.5 q 0.25,0.25 0.625,0.375 0.375,0.125 0.75,0 Q 27.75,21.75 28,21.5 q 0.25,-0.25 0.625,-0.375 0.375,-0.125 0.75,0 0.375,0.125 0.375,0.375 0,0.25 -0.25,0.5 -0.25,0.25 -0.5,0.5 -0.25,0.25 -0.5,0.5 -0.25,0.25 -0.5,0.5 -0.25,0.25 -0.625,0.375 L 27,24 27.28125,23.90625 27.5625,23.8125 27.375,23.875 q -0.1875,0.0625 -0.40625,0.09375 L 26.75,24 26.859375,23.984375 26.96875,23.96875 26.859375,23.609375 Q 26.75,23.25 26.5,23 26.25,22.75 26,22.5 25.75,22.25 25.375,22.125 L 25,22 25.28125,22.09375 25.5625,22.1875 25.375,22.125 Q 25.1875,22.0625 25,22.0625 H 24.8125 24.90625 25 l -0.01563,-0.515625"
       id="path4922" />
    <path
       style="fill:#ffffff;fill-opacity:1"
       d="M 3,22.5 Q 3,22 3.5,22 H 4 v 0.5 Q 4,23 3.875,23.375 3.75,23.75 3.5,23.75 3.25,23.75 3.125,23.375 3,23 3,22.5"
       id="path4924" />
    <path
       style="fill:#60c000;fill-opacity:1"
       d="M 16,22.5 V 22 H 16.5 17 V 22.5 23 H 16.5 16 v -0.5 m 0,0.125 V 23 23.125 23.25 23 q 0,-0.25 0,-0.5 v -0.25 0.375 M 16.625,23 H 17 17.125 17.25 17 q -0.25,0 -0.5,0 h -0.25 0.375 m 0.5,-1 H 17 16.625 16.25 16.5 q 0.25,0 0.5,0 h 0.25 -0.125 M 16,21.875 V 22 22.375 22.75 22.5 q 0,-0.25 0,-0.5 v -0.25 0.125"
       id="path4926" />
    <path
       style="fill:#408000;fill-opacity:1"
       d="M 17,22.5 V 22 h 0.5 q 0.5,0 1,0 H 19 l -0.01563,0.515625 -0.01563,0.515625 0.109375,0.01563 0.109375,0.01563 -0.21875,-0.03125 Q 18.75,23 18.5,23 H 18.25 18.625 19 18.5 q -0.5,0 -1,0 H 17 V 22.5 M 16.875,23 H 17 17.375 17.75 17.5 q -0.25,0 -0.5,0 h -0.25 0.125 M 19,22.375 V 22 21.875 21.75 22 q 0,0.25 0,0.5 v 0.25 -0.375 M 17.375,22 H 17 16.875 16.75 17 q 0.25,0 0.5,0 h 0.25 -0.375"
       id="path4928" />
    <path
       style="fill:#006030;fill-opacity:1"
       d="m 20.25,22.5 q 0,-0.25 0.390625,-0.359375 L 21.03125,22.03125 21.046875,21.921875 21.0625,21.8125 21.03125,22.03125 Q 21,22.25 21,22.5 V 22.75 22.375 22 22.5 23 L 20.625,22.875 Q 20.25,22.75 20.25,22.5 M 20.71875,22.90625 21,23 21.09375,23.03125 21.1875,23.0625 21,23 q -0.1875,-0.0625 -0.375,-0.125 l -0.1875,-0.0625 0.28125,0.09375"
       id="path4930" />
    <path
       style="fill:#004020;fill-opacity:1"
       d="M 24.125,22.65625 Q 24.25,22.25 24.625,22.125 25,22 25.375,22.125 25.75,22.25 26,22.5 q 0.25,0.25 0.5,0.5 0.25,0.25 0.359375,0.609375 l 0.109375,0.359375 0.109375,-0.01563 0.109375,-0.01563 -0.21875,0.03125 Q 26.75,24 26.5,24 H 26.25 26.625 27 26.5 Q 26,24 25.46875,24 H 24.9375 V 24.09375 24.1875 24 q 0,-0.1875 -0.0625,-0.375 L 24.8125,23.4375 24.90625,23.71875 25,24 24.875,23.625 q -0.125,-0.375 -0.5,-0.5 L 24,23 24.28125,23.09375 24.5625,23.1875 24.375,23.125 Q 24.1875,23.0625 24,23.0625 H 23.8125 23.90625 24 l 0.125,-0.40625"
       id="path4932" />
    <path
       style="fill:#000000;fill-opacity:1"
       d="M 29,22.5 Q 29.25,22.25 29.5,22 L 29.75,21.75 29.5625,21.9375 29.375,22.125 29.5,22 q 0.125,-0.125 0.1875,-0.25 L 29.75,21.625 29.71875,21.6875 29.6875,21.75 29.96875,22 Q 30.25,22.25 30.625,22.125 31,22 31,22.5 31,23 31,23.5 31,24 30.5,24 30,24 30,24.5 30,25 29.5,25 29,25 29,25.5 q 0,0.5 0,1 0,0.5 0.5,0.5 0.5,0 0.5,0.5 0,0.5 0.5,0.5 0.5,0 0.5,0.5 0,0.5 0,1 0,0.5 0,1 0,0.5 -0.375,0.625 -0.375,0.125 -0.5,0.5 L 30,32 H 29.5 29 28.5 28 27.5 27 26.5 26 25.5 25 24.5 24 23.5 23 22.5 22 21.5 21 V 31.5 Q 21,31 20.5,31 20,31 19.5,31 19,31 19,30.5 19,30 19.5,30 20,30 20,29.5 20,29 19.5,29 19,29 18.5,29 18,29 18,29.5 18,30 17.5,30 17,30 16.5,30 16,30 16,30.5 16,31 15.5,31 15,31 15,31.5 V 32 H 14.5 14 13.5 13 12.5 12 11.5 11 10.5 10 9.5 9 8.5 8 7.5 7 6.5 6 5.5 5 L 4.875,31.625 Q 4.75,31.25 5.046875,30.984375 L 5.34375,30.71875 5.296875,30.671875 5.25,30.625 5.34375,30.71875 Q 5.4375,30.8125 5.625,30.875 L 5.8125,30.9375 5.53125,30.84375 5.25,30.75 5.625,30.875 6,31 H 5.625 5.25 5.5 q 0.25,0 0.375,-0.125 L 6,30.75 5.9375,30.8125 5.875,30.875 6.3125,30.8125 Q 6.75,30.75 7,30.5 7.25,30.25 7.6875,30.1875 L 8.125,30.125 8.1875,30.0625 8.25,30 8.125,30.125 Q 8,30.25 8,30.5 V 30.75 30.375 30 l 0.125,0.375 q 0.125,0.375 0.5,0.5 L 9,31 H 8.625 8.25 8.5 q 0.25,0 0.375,-0.125 L 9,30.75 8.9375,30.8125 8.875,30.875 9.3125,30.8125 Q 9.75,30.75 9.890625,30.359375 L 10.03125,29.96875 9.921875,29.953125 9.8125,29.9375 10.03125,29.96875 Q 10.25,30 10.5,30 H 10.75 10.375 10 l 0.515625,-0.01563 0.515625,-0.01563 -0.01563,-0.109375 L 11,29.75 11.03125,29.96875 Q 11.0625,30.1875 11.125,30.375 L 11.1875,30.5625 11.09375,30.28125 11,30 l 0.125,0.375 q 0.125,0.375 0.5,0.5 Q 12,31 12.5625,30.9375 L 13.125,30.875 13.0625,30.8125 13,30.75 13.125,30.875 Q 13.25,31 13.5,31 H 13.75 13.375 13 l 0.375,-0.125 Q 13.75,30.75 13.75,30.5 q 0,-0.25 -0.375,-0.375 L 13,30 h 0.375 0.375 -0.25 q -0.25,0 -0.375,0.125 L 13,30.25 13.0625,30.1875 13.125,30.125 13.1875,29.6875 Q 13.25,29.25 13.5,29 13.75,28.75 14,28.5 14.25,28.25 14.5,28 14.75,27.75 14.875,27.375 15,27 15.125,26.625 15.25,26.25 15.5,26 15.75,25.75 16,25.5 16.25,25.25 16.625,25.125 17,25 17.5,25 H 18 l 0.125,0.375 q 0.125,0.375 0.5,0.5 Q 19,26 19.5,26 q 0.5,0 1,0 H 21 20.625 20.25 20.5 q 0.25,0 0.46875,0.03125 l 0.21875,0.03125 -0.109375,-0.01563 -0.109375,-0.01563 0.140625,0.359375 q 0.140625,0.359375 0.5,0.5 L 21.96875,27.03125 21.953125,26.921875 21.9375,26.8125 21.96875,27.03125 Q 22,27.25 22,27.5 V 27.75 27.375 27 27.5 q 0,0.5 0.125,0.875 0.125,0.375 0.5,0.5 L 23,29 22.9375,29.5625 22.875,30.125 22.9375,30.1875 23,30.25 22.875,30.125 Q 22.75,30 22.5,30 H 22.25 22.625 23 l -0.375,0.125 Q 22.25,30.25 22.25,30.5 q 0,0.25 0.375,0.375 L 23,31 H 22.625 22.25 22.5 q 0.25,0 0.375,-0.125 L 23,30.75 22.9375,30.8125 22.875,30.875 23.3125,30.8125 Q 23.75,30.75 23.875,30.375 L 24,30 23.90625,30.28125 23.8125,30.5625 23.875,30.375 Q 23.9375,30.1875 23.9375,30 V 29.8125 29.90625 30 H 24.46875 25 l 0.125,0.375 q 0.125,0.375 0.5625,0.4375 L 26.125,30.875 26.0625,30.8125 26,30.75 26.125,30.875 Q 26.25,31 26.5,31 H 26.75 26.375 26 l 0.375,-0.125 q 0.375,-0.125 0.5,-0.5 L 27,30 h 0.5 0.5 l 0.125,0.375 q 0.125,0.375 0.5625,0.4375 L 29.125,30.875 29.0625,30.8125 29,30.75 29.125,30.875 Q 29.25,31 29.5,31 H 29.75 29.375 29 l 0.375,-0.125 Q 29.75,30.75 29.75,30.5 q 0,-0.25 -0.375,-0.375 L 29,30 28.875,29.625 Q 28.75,29.25 28.5,29 28.25,28.75 28,28.5 27.75,28.25 27.5,28 27.25,27.75 27.125,27.375 27,27 26.875,26.625 26.75,26.25 26.375,26.125 L 26,26 v -0.5 q 0,-0.5 0,-1 V 24 h 0.5 Q 27,24 27.375,23.875 27.75,23.75 28,23.5 28.25,23.25 28.5,23 28.75,22.75 29,22.5 M 26.375,24 H 26 25.875 25.75 26 q 0.25,0 0.5,0 h 0.25 -0.375 m 1.75,6 H 28 27.625 27.25 27.5 q 0.25,0 0.5,0 h 0.25 -0.125"
       id="path4934" />
    <path
       style="fill:#008040;fill-opacity:1"
       d="m 12,23.5 q 0.25,-0.25 0.5,-0.25 0.25,0 0.375,0.375 Q 13,24 13,24.5 V 25 h -0.5 q -0.5,0 -0.875,0.125 -0.375,0.125 -0.5,0.5 Q 11,26 11,26.5 q 0,0.5 -0.125,0.875 -0.125,0.375 -0.5,0.5 Q 10,28 9.5,28 H 9 V 27.5 27 L 9.375,26.875 Q 9.75,26.75 9.875,26.375 10,26 10.125,25.625 10.25,25.25 10.5,25 10.75,24.75 11,24.5 11.25,24.25 11.5,24 11.75,23.75 12,23.5 M 9,26.875 V 27 27.375 27.75 27.5 Q 9,27.25 9,27 v -0.25 0.125 m 4,-1.75 V 25 24.625 24.25 24.5 q 0,0.25 0,0.5 v 0.25 -0.125"
       id="path4936" />
    <path
       style="fill:#204000;fill-opacity:1"
       d="M 16.015625,23.515625 16,23 h 0.5 q 0.5,0 1,0 0.5,0 1,0 0.5,0 0.875,0.125 0.375,0.125 0.5,0.5 L 20,24 h -0.5 q -0.5,0 -1,0 -0.5,0 -1,0 -0.5,0 -1,0 H 16 16.375 16.75 16.5 q -0.25,0 -0.46875,0.03125 l -0.21875,0.03125 0.109375,-0.01563 0.109375,-0.01563 -0.01563,-0.515625 M 16,22.875 V 23 23.375 23.75 23.5 q 0,-0.25 0,-0.5 v -0.25 0.125"
       id="path4938" />
    <path
       style="fill:#006030;fill-opacity:1"
       d="m 23.25,23.5 q 0,-0.25 0.375,-0.375 0.375,-0.125 0.75,0 0.375,0.125 0.5,0.5 0.125,0.375 0,0.75 Q 24.75,24.75 24.5,24.75 24.25,24.75 24,24.5 23.75,24.25 23.5,24 23.25,23.75 23.25,23.5"
       id="path4940" />
    <path
       style="fill:#003018;fill-opacity:1"
       d="M 15,24.5 Q 15.25,24.25 15.625,24.125 16,24 16.5,24 H 17 l 0.01563,0.515625 0.01563,0.515625 0.109375,-0.01563 L 17.25,25 17.03125,25.03125 Q 16.8125,25.0625 16.625,25.125 L 16.4375,25.1875 16.71875,25.09375 17,25 16.625,25.125 Q 16.25,25.25 16,25.5 15.75,25.75 15.5,26 15.25,26.25 15.125,26.625 15,27 14.875,27.375 14.75,27.75 14.5,28 14.25,28.25 14,28.5 13.75,28.75 13.5,29 13.25,29.25 13.1875,29.6875 L 13.125,30.125 13.1875,30.0625 13.25,30 13.125,30.125 Q 13,30.25 13,30.5 V 30.75 30.375 30 30.5 31 30.625 30.25 30.5 q 0,0.25 0.125,0.375 L 13.25,31 13.1875,30.9375 13.125,30.875 12.5625,30.9375 12,31 h 0.375 0.375 -0.25 q -0.25,0 -0.46875,-0.03125 l -0.21875,-0.03125 0.109375,0.01563 0.109375,0.01563 -0.01563,-0.484375 Q 12,30 12.125,29.625 12.25,29.25 12.5,29 12.75,28.75 12.875,28.375 13,28 13.125,27.625 13.25,27.25 13.5,27 13.75,26.75 13.875,26.375 14,26 14.125,25.625 14.25,25.25 14.5,25 14.75,24.75 15,24.5 M 17.125,24 H 17 16.625 16.25 16.5 q 0.25,0 0.5,0 h 0.25 -0.125"
       id="path4942" />
    <path
       style="fill:#408000;fill-opacity:1"
       d="M 17.015625,24.515625 17,24 H 17.5 18 V 24.5 25 H 17.5 17 17.375 17.75 17.5 q -0.25,0 -0.46875,0.03125 l -0.21875,0.03125 0.109375,-0.01563 0.109375,-0.01563 -0.01563,-0.515625 M 18.125,24 H 18 17.625 17.25 17.5 q 0.25,0 0.5,0 h 0.25 -0.125 m -0.75,0 H 17 16.875 16.75 17 q 0.25,0 0.5,0 h 0.25 -0.375"
       id="path4944" />
    <path
       style="fill:#306000;fill-opacity:1"
       d="M 18,24.5 V 24 h 0.5 q 0.5,0 1,0 H 20 v 0.5 0.5 h -0.5 q -0.5,0 -1,0 H 18 V 24.5 M 18.375,24 H 18 17.875 17.75 18 q 0.25,0 0.5,0 h 0.25 -0.375"
       id="path4946" />
    <path
       style="fill:#006030;fill-opacity:1"
       d="M 20,24.5 V 24 H 20.5 21 20.625 20.25 20.5 q 0.25,0 0.46875,0.03125 L 21.1875,24.0625 21.078125,24.046875 20.96875,24.03125 V 24.5 24.96875 l 0.109375,-0.01563 0.109375,-0.01563 -0.21875,0.03125 Q 20.75,25 20.5,25 H 20.25 20.625 21 20.5 20 v -0.5"
       id="path4948" />
    <path
       style="fill:#003018;fill-opacity:1"
       d="M 20.96875,24.5 V 24.03125 L 20.859375,24.015625 20.75,24 20.96875,24.03125 Q 21.1875,24.0625 21.375,24.125 L 21.5625,24.1875 21.28125,24.09375 21,24 l 0.375,0.125 q 0.375,0.125 0.375,0.375 0,0.25 -0.375,0.375 L 21,25 21.28125,24.90625 21.5625,24.8125 21.375,24.875 q -0.1875,0.0625 -0.40625,0.09375 L 20.75,25 20.859375,24.984375 20.96875,24.96875 V 24.5"
       id="path4950" />
    <path
       style="fill:#006030;fill-opacity:1"
       d="m 11.125,25.625 q 0.125,-0.375 0.5,-0.5 Q 12,25 12.5,25 H 13 v 0.5 Q 13,26 12.875,26.375 12.75,26.75 12.5,27 12.25,27.25 12,27.5 11.75,27.75 11.5,28 11.25,28.25 11.125,28.625 11,29 11,29.5 V 30 29.625 29.25 29.5 q 0,0.25 0.03125,0.46875 l 0.03125,0.21875 -0.01563,-0.109375 -0.01563,-0.109375 -0.515625,0.01563 Q 10,30 9.625,29.875 9.25,29.75 9.125,29.375 9,29 9,28.5 V 28 h 0.5 q 0.5,0 0.875,-0.125 0.375,-0.125 0.5,-0.5 Q 11,27 11,26.5 11,26 11.125,25.625 M 13,25.375 V 25 24.875 24.75 25 q 0,0.25 0,0.5 v 0.25 -0.375"
       id="path4952" />
    <path
       style="fill:#204000;fill-opacity:1"
       d="M 18.125,25.375 18,25 h 0.5 q 0.5,0 1,0 H 20 v 0.5 0.5 h -0.5 q -0.5,0 -0.875,-0.125 -0.375,-0.125 -0.5,-0.5 M 19.625,26 H 20 20.125 20.25 20 q -0.25,0 -0.5,0 h -0.25 0.375"
       id="path4954" />
    <path
       style="fill:#006030;fill-opacity:1"
       d="m 22.25,25.5 q 0,-0.25 0.375,-0.375 L 23,25 l 0.125,0.375 q 0.125,0.375 0.5,0.5 Q 24,26 24.5,26 H 25 l -0.125,0.375 q -0.125,0.375 -0.5,0.5 Q 24,27 23.625,26.875 23.25,26.75 23,26.5 22.75,26.25 22.5,26 22.25,25.75 22.25,25.5 M 23.09375,25.28125 23,25 22.96875,24.90625 22.9375,24.8125 23,25 q 0.0625,0.1875 0.125,0.375 l 0.0625,0.1875 -0.09375,-0.28125"
       id="path4956" />
    <path
       style="fill:#006030;fill-opacity:1"
       d="m 25.125,25.625 q 0.125,-0.375 0.5,-0.5 L 26,25 V 25.5 26 H 25.5 25 l 0.125,-0.375 M 26,25.375 V 25 24.875 24.75 25 q 0,0.25 0,0.5 v 0.25 -0.375"
       id="path4958" />
    <path
       style="fill:#003018;fill-opacity:1"
       d="M 21.109375,26.390625 20.96875,26.03125 20.859375,26.015625 20.75,26 20.96875,26.03125 Q 21.1875,26.0625 21.375,26.125 L 21.5625,26.1875 21.28125,26.09375 21,26 l 0.375,0.125 q 0.375,0.125 0.5,0.5 L 22,27 21.90625,26.71875 21.8125,26.4375 21.875,26.625 q 0.0625,0.1875 0.09375,0.40625 L 22,27.25 21.984375,27.140625 21.96875,27.03125 21.609375,26.890625 q -0.359375,-0.140625 -0.5,-0.5"
       id="path4960" />
    <path
       style="fill:#008040;fill-opacity:1"
       d="M 24.875,26.375 25,26 h 0.5 0.5 v 0.5 q 0,0.5 -0.125,0.875 -0.125,0.375 -0.5,0.5 -0.375,0.125 -0.75,0 -0.375,-0.125 -0.5,-0.53125 L 24,26.9375 H 23.90625 23.8125 24 q 0.1875,0 0.375,-0.0625 L 24.5625,26.8125 24.28125,26.90625 24,27 24.375,26.875 q 0.375,-0.125 0.5,-0.5"
       id="path4962" />
    <path
       style="fill:#004020;fill-opacity:1"
       d="M 8,28.5 Q 8.25,28.25 8.625,28.125 L 9,28 v 0.5 q 0,0.5 0.125,0.875 0.125,0.375 0.5,0.5 L 10,30 9.71875,29.90625 9.4375,29.8125 9.625,29.875 q 0.1875,0.0625 0.40625,0.09375 L 10.25,30 10.140625,29.984375 10.03125,29.96875 9.890625,30.359375 Q 9.75,30.75 9.3125,30.8125 L 8.875,30.875 8.8125,30.9375 8.75,31 8.875,30.875 Q 9,30.75 9,30.5 V 30.25 30.625 31 L 8.875,30.625 Q 8.75,30.25 8.375,30.125 L 8,30 H 8.375 8.75 8.5 Q 8.25,30 8.125,30.125 L 8,30.25 8.0625,30.1875 8.125,30.125 7.6875,30.1875 Q 7.25,30.25 7,30.5 6.75,30.75 6.3125,30.8125 L 5.875,30.875 5.8125,30.9375 5.75,31 5.875,30.875 Q 6,30.75 6,30.5 V 30.25 30.625 31 30.5 30 30.375 30.75 30.5 Q 6,30.25 5.875,30.125 L 5.75,30 5.8125,30.0625 5.875,30.125 6.0625,29.6875 Q 6.25,29.25 6.625,29.125 7,29 7.375,28.875 7.75,28.75 8,28.5"
       id="path4964" />
    <path
       style="fill:#003018;fill-opacity:1"
       d="M 22.125,28.375 22,28 22.09375,28.28125 22.1875,28.5625 22.125,28.375 Q 22.0625,28.1875 22.03125,27.96875 L 22,27.75 l 0.01563,0.109375 0.01563,0.109375 0.484375,0.01563 L 23,28 H 22.625 22.25 22.5 q 0.25,0 0.46875,0.03125 l 0.21875,0.03125 -0.109375,-0.01563 -0.109375,-0.01563 0.01563,0.484375 L 23,29 22.625,28.875 q -0.375,-0.125 -0.5,-0.5"
       id="path4966" />
    <path
       style="fill:#006030;fill-opacity:1"
       d="M 22.984375,28.515625 22.96875,28.03125 22.859375,28.015625 22.75,28 22.96875,28.03125 Q 23.1875,28.0625 23.375,28.125 L 23.5625,28.1875 23.28125,28.09375 23,28 23.375,28.125 Q 23.75,28.25 24,28.5 q 0.25,0.25 0.5,0.5 0.25,0.25 0.375,0.625 L 25,30 H 24.46875 23.9375 V 30.09375 30.1875 30 q 0,-0.1875 -0.0625,-0.375 L 23.8125,29.4375 23.90625,29.71875 24,30 23.875,29.625 q -0.125,-0.375 -0.5,-0.5 L 23,29 22.984375,28.515625"
       id="path4968" />
    <path
       style="fill:#000000;fill-opacity:0"
       d="m 18,29.5 q 0,-0.5 0.5,-0.5 0.5,0 1,0 0.5,0 0.5,0.5 0,0.5 -0.5,0.5 -0.5,0 -0.5,0.5 0,0.5 0.5,0.5 0.5,0 1,0 0.5,0 0.5,0.5 V 32 H 20.5 20 19.5 19 18.5 18 17.5 17 16.5 16 15.5 15 V 31.5 Q 15,31 15.5,31 16,31 16,30.5 16,30 16.5,30 q 0.5,0 1,0 0.5,0 0.5,-0.5"
       id="path4970" />
    <path
       style="fill:#004020;fill-opacity:1"
       d="M 22.9375,29.5625 23,29 l 0.375,0.125 q 0.375,0.125 0.5,0.5 0.125,0.375 0,0.75 -0.125,0.375 -0.5625,0.4375 L 22.875,30.875 22.8125,30.9375 22.75,31 22.875,30.875 Q 23,30.75 23,30.5 V 30.25 30.625 31 30.5 30 30.375 30.75 30.5 q 0,-0.25 -0.125,-0.375 L 22.75,30 l 0.0625,0.0625 0.0625,0.0625 0.0625,-0.5625"
       id="path4972" />
    <path
       style="fill:#008040;fill-opacity:1"
       d="M 26.125,29.625 Q 26.25,29.25 26.5,29.25 q 0.25,0 0.375,0.375 L 27,30 H 26.5 26 l 0.125,-0.375"
       id="path4974" />
    <path
       style="fill:#b0b0b0;fill-opacity:1"
       d="m 5.25,30.5 q 0,-0.25 0.375,-0.375 Q 6,30 6,30.5 6,31 5.625,30.875 5.25,30.75 5.25,30.5"
       id="path4976" />
    <path
       style="fill:#b0b0b0;fill-opacity:1"
       d="M 8.125,30.375 Q 8,30 8.375,30.125 8.75,30.25 8.875,30.625 9,31 8.625,30.875 8.25,30.75 8.125,30.375"
       id="path4978" />
    <path
       style="fill:#b0b0b0;fill-opacity:1"
       d="m 13,30.5 q 0,-0.5 0.375,-0.375 0.375,0.125 0.375,0.375 0,0.25 -0.375,0.375 Q 13,31 13,30.5"
       id="path4980" />
    <path
       style="fill:#b0b0b0;fill-opacity:1"
       d="m 22.25,30.5 q 0,-0.25 0.375,-0.375 Q 23,30 23,30.5 23,31 22.625,30.875 22.25,30.75 22.25,30.5"
       id="path4982" />
    <path
       style="fill:#003018;fill-opacity:1"
       d="M 25.125,30.375 25,30 H 25.5 26 V 30.5 31 30.625 30.25 30.5 q 0,0.25 0.125,0.375 L 26.25,31 26.1875,30.9375 26.125,30.875 25.6875,30.8125 Q 25.25,30.75 25.125,30.375"
       id="path4984" />
    <path
       style="fill:#b0b0b0;fill-opacity:1"
       d="M 26,30.5 V 30 h 0.5 0.5 l -0.125,0.375 q -0.125,0.375 -0.5,0.5 Q 26,31 26,30.5"
       id="path4986" />
    <path
       style="fill:#003018;fill-opacity:1"
       d="M 28.125,30.375 28,30 H 28.5 29 V 30.5 31 30.625 30.25 30.5 q 0,0.25 0.125,0.375 L 29.25,31 29.1875,30.9375 29.125,30.875 28.6875,30.8125 Q 28.25,30.75 28.125,30.375 M 28.375,30 H 28 27.875 27.75 28 q 0.25,0 0.5,0 h 0.25 -0.375"
       id="path4988" />
    <path
       style="fill:#b0b0b0;fill-opacity:1"
       d="M 29,30.5 V 30 l 0.375,0.125 q 0.375,0.125 0.375,0.375 0,0.25 -0.375,0.375 Q 29,31 29,30.5"
       id="path4990" />
  </g>
</svg>
