<?xml version="1.0" encoding="UTF-8" standalone="no"?>
<!-- Created with Inkscape (http://www.inkscape.org/) -->

<svg
   xmlns:dc="http://purl.org/dc/elements/1.1/"
   xmlns:cc="http://creativecommons.org/ns#"
   xmlns:rdf="http://www.w3.org/1999/02/22-rdf-syntax-ns#"
   xmlns:svg="http://www.w3.org/2000/svg"
   xmlns="http://www.w3.org/2000/svg"
   xmlns:sodipodi="http://sodipodi.sourceforge.net/DTD/sodipodi-0.dtd"
   xmlns:inkscape="http://www.inkscape.org/namespaces/inkscape"
   version="1.1"
   id="svg7465"
   width="32"
   height="32"
   viewBox="0 0 32 32"
   sodipodi:docname="succubus.svg"
   inkscape:version="0.92.5 (2060ec1f9f, 2020-04-08)">
  <metadata
     id="metadata7471">
    <rdf:RDF>
      <cc:Work
         rdf:about="">
        <dc:format>image/svg+xml</dc:format>
        <dc:type
           rdf:resource="http://purl.org/dc/dcmitype/StillImage" />
        <dc:title></dc:title>
      </cc:Work>
    </rdf:RDF>
  </metadata>
  <defs
     id="defs7469" />
  <sodipodi:namedview
     pagecolor="#ffffff"
     bordercolor="#666666"
     borderopacity="1"
     objecttolerance="10"
     gridtolerance="10"
     guidetolerance="10"
     inkscape:pageopacity="0"
     inkscape:pageshadow="2"
     inkscape:window-width="1920"
     inkscape:window-height="1118"
     id="namedview7467"
     showgrid="false"
     inkscape:zoom="7.375"
     inkscape:cx="16"
     inkscape:cy="16"
     inkscape:window-x="0"
     inkscape:window-y="24"
     inkscape:window-maximized="1"
     inkscape:current-layer="svg7465" />
  <g
     transform="translate(0 0)"
     id="g7687">
    <path
       style="fill:#b81514;fill-opacity:1"
       d="M 0,0.5 V 0 H 0.5 1 1.5 2 L 2.125,0.375 Q 2.25,0.75 2.5,1 2.75,1.25 3,1.5 3.25,1.75 3.5,2 3.75,2.25 4,2.5 4.25,2.75 4.625,2.875 5,3 5.375,3.125 5.75,3.25 6,3.5 6.25,3.75 6.625,3.875 7,4 7.375,4.125 7.75,4.25 7.875,4.625 8,5 8,5.5 8,6 8,6.5 8,7 8,7.5 8,8 8.125,8.375 8.25,8.75 8.5,9 8.75,9.25 9,9.5 9.25,9.75 9.5,10 q 0.25,0.25 0.25,0.5 0,0.25 -0.375,0.375 Q 9,11 8.625,10.875 8.25,10.75 8,10.5 7.75,10.25 7.5,10 7.25,9.75 7.125,9.375 7,9 7,8.5 7,8 7,7.5 7,7 6.875,6.625 6.75,6.25 6.5,6.25 6.25,6.25 6,6.5 5.75,6.75 5.5,7 5.25,7.25 5.125,7.625 5,8 4.875,8.375 4.75,8.75 4.5,9 4.25,9.25 4.125,9.625 4,10 4,10.5 q 0,0.5 0,1 0,0.5 0,1 0,0.5 0,1 0,0.5 0,1 Q 4,15 3.875,15.375 3.75,15.75 3.5,15.75 3.25,15.75 3.125,15.375 3,15 3,14.5 3,14 3,13.5 3,13 3,12.5 3,12 3,11.5 3,11 3,10.5 3,10 3.125,9.625 3.25,9.25 3.5,9 3.75,8.75 3.875,8.375 4,8 4.125,7.625 4.25,7.25 4.5,7 4.75,6.75 5,6.5 5.25,6.25 5.5,6 5.75,5.75 5.875,5.375 6,5 5.875,4.625 5.75,4.25 5.375,4.125 5,4 4.5,4 4,4 3.625,3.875 3.25,3.75 3,3.5 2.75,3.25 2.5,3 2.25,2.75 2,2.5 1.75,2.25 1.5,2 1.25,1.75 1,1.5 0.75,1.25 0.375,1.125 L 0,1 V 0.5"
       id="path7475" />
    <path
       style="fill:#000000;fill-opacity:0"
       d="M 2.125,0.375 2,0 H 2.5 3 3.5 4 4.5 5 5.5 6 6.5 7 7.5 8 8.5 9 9.5 10 10.5 11 11.5 12 12.5 13 13.5 14 14.5 15 15.5 16 16.5 17 17.5 18 18.5 19 19.5 20 20.5 21 21.5 22 22.5 23 23.5 24 24.5 25 25.5 26 26.5 27 27.5 28 28.5 29 29.5 30 30.5 31 31.5 32 V 0.5 1 H 31.5 Q 31,1 30.625,1.125 30.25,1.25 30,1.5 29.75,1.75 29.5,2 29.25,2.25 29,2.5 28.75,2.75 28.375,2.875 28,3 27.625,3.125 27.25,3.25 27,3.5 26.75,3.75 26.375,3.875 26,4 25.5,4 25,4 24.625,4.125 24.25,4.25 24.25,4.5 q 0,0.25 0.375,0.375 L 25,5 V 5.5 Q 25,6 24.875,6.375 24.75,6.75 24.5,7 24.25,7.25 24.125,7.625 24,8 23.875,8.375 23.75,8.75 23.5,9 23.25,9.25 23,9.5 22.75,9.75 22.5,10 L 22.25,10.25 22.4375,10.0625 22.625,9.875 22.5,10 q -0.125,0.125 -0.21875,0.28125 l -0.09375,0.15625 0.04687,-0.07813 0.04687,-0.07813 -0.265625,-0.265625 Q 21.75,9.75 21.5,9.75 21.25,9.75 21.125,9.375 21,9 21,8.5 21,8 20.625,7.875 20.25,7.75 20.125,7.375 20,7 20,6.5 20,6 20,5.5 20,5 20,4.5 20,4 19.625,3.875 19.25,3.75 19.125,3.375 19,3 18.625,2.875 18.25,2.75 18.125,2.375 18,2 17.625,1.875 17.25,1.75 17.125,1.375 17,1 16.5,1 16,1 15.5,1 15,1 14.5,1 14,1 13.875,1.375 13.75,1.75 13.375,1.875 13,2 12.5,2 12,2 11.875,2.375 11.75,2.75 11.375,2.875 11,3 10.875,3.375 10.75,3.75 10.375,3.875 10,4 10,4.5 q 0,0.5 0,1 0,0.5 0,1 0,0.5 0,1 0,0.5 0,1 Q 10,9 10.125,9.375 10.25,9.75 9.96875,10 L 9.6875,10.25 9.71875,10.3125 9.75,10.375 9.6875,10.25 Q 9.625,10.125 9.5,10 L 9.375,9.875 9.5625,10.0625 9.75,10.25 9.5,10 Q 9.25,9.75 9,9.5 8.75,9.25 8.5,9 8.25,8.75 8.125,8.375 8,8 8,7.5 8,7 8,6.5 8,6 8,5.5 8,5 7.875,4.625 7.75,4.25 7.375,4.125 7,4 6.625,3.875 6.25,3.75 6,3.5 5.75,3.25 5.375,3.125 5,3 4.625,2.875 4.25,2.75 4,2.5 3.75,2.25 3.5,2 3.25,1.75 3,1.5 2.75,1.25 2.5,1 2.25,0.75 2.125,0.375 M 25,5.375 V 5 4.875 4.75 5 q 0,0.25 0,0.5 V 5.75 5.375"
       id="path7477" />
    <path
       style="fill:#320000;fill-opacity:1"
       d="M 0,1.5 V 1 L 0.375,1.125 Q 0.75,1.25 1,1.5 1.25,1.75 1.5,2 1.75,2.25 2,2.5 2.25,2.75 2.5,3 2.75,3.25 3,3.5 3.25,3.75 3.625,3.875 4,4 4.5,4 5,4 5.375,4.125 5.75,4.25 5.875,4.625 6,5 5.875,5.375 5.75,5.75 5.5,6 5.25,6.25 5,6.5 4.75,6.75 4.5,7 4.25,7.25 4.125,7.625 4,8 3.875,8.375 3.75,8.75 3.5,9 3.25,9.25 3.125,9.625 3,10 3,10.5 q 0,0.5 0,1 0,0.5 0,1 V 13 L 2.625,12.875 Q 2.25,12.75 2.125,12.375 2,12 2,11.5 2,11 2,10.5 2,10 2,9.5 2,9 1.875,8.625 1.75,8.25 1.5,8 1.25,7.75 1.125,7.375 1,7 1,6.5 1,6 1,5.5 1,5 0.875,4.625 0.75,4.25 0.375,4.125 L 0,4 V 3.5 3 2.5 2 1.5 M 3,13.125 V 13 12.625 12.25 12.5 q 0,0.25 0,0.5 v 0.25 -0.125"
       id="path7479" />
    <path
       style="fill:#000000;fill-opacity:1"
       d="M 13.875,1.375 Q 14,1 14.5,1 q 0.5,0 1,0 0.5,0 1,0 0.5,0 0.625,0.375 0.125,0.375 0.5,0.5 0.375,0.125 0.5,0.5 0.125,0.375 0.5,0.5 0.375,0.125 0.5,0.5 0.125,0.375 0.5,0.5 Q 20,4 20,4.5 q 0,0.5 0,1 0,0.5 0,1 0,0.5 0.125,0.875 0.125,0.375 0.5,0.5 Q 21,8 21,8.5 21,9 21.125,9.375 21.25,9.75 21.5,9.75 q 0.25,0 0.515625,0.265625 l 0.265625,0.265625 0.04687,-0.07813 L 22.375,10.125 22.28125,10.28125 Q 22.1875,10.4375 22.125,10.625 L 22.0625,10.8125 22.15625,10.53125 22.25,10.25 22.125,10.625 Q 22,11 22,11.5 q 0,0.5 0.125,0.875 0.125,0.375 0.5,0.5 L 23,13 v 0.5 q 0,0.5 0,1 0,0.5 0,1 0,0.5 0,1 0,0.5 0,1 0,0.5 0,1 0,0.5 -0.375,0.625 -0.375,0.125 -0.5,0.5 Q 22,20 22,20.5 q 0,0.5 0,1 0,0.5 -0.375,0.625 -0.375,0.125 -0.5,0.5 Q 21,23 21,23.5 q 0,0.5 0.125,0.875 0.125,0.375 0.5,0.5 Q 22,25 22.5,25 23,25 23,24.5 23,24 23.5,24 24,24 24,23.5 24,23 24.5,23 25,23 25,22.5 25,22 25.5,22 q 0.5,0 1,0 0.5,0 0.5,0.5 0,0.5 0.5,0.5 0.5,0 0.5,0.5 0,0.5 0.5,0.5 0.5,0 0.5,0.5 0,0.5 0,1 Q 29,26 28.5,26 28,26 28,26.5 28,27 27.5,27 27,27 27,27.5 27,28 26.5,28 26,28 26,28.5 26,29 25.5,29 25,29 25,29.5 q 0,0.5 0,1 0,0.5 -0.375,0.625 -0.375,0.125 -0.5,0.5 L 24,32 H 23.5 23 22.5 22 21.5 21 20.5 20 L 19.875,31.625 Q 19.75,31.25 19.375,31.125 19,31 19,30.5 19,30 18.5,30 18,30 17.5,30 17,30 17,30.5 17,31 16.5,31 16,31 16,31.5 V 32 H 15.5 15 14.5 14 v -0.5 q 0,-0.5 -0.375,-0.375 -0.375,0.125 -0.5,0.5 L 13,32 H 12.5 12 11.5 11 10.5 10 L 9.875,31.625 Q 9.75,31.25 9.375,31.125 9,31 9,30.5 9,30 9.375,29.875 9.75,29.75 9.875,29.375 10,29 10.375,28.875 10.75,28.75 10.875,28.375 11,28 11,27.5 q 0,-0.5 0,-1 0,-0.5 0,-1 0,-0.5 -0.125,-0.875 -0.125,-0.375 -0.5,-0.5 Q 10,24 10,23.5 q 0,-0.5 0,-1 0,-0.5 0,-1 0,-0.5 0,-1 0,-0.5 0,-1 Q 10,19 9.625,19.125 9.25,19.25 9.125,19.625 9,20 9,20.5 9,21 8.625,21.125 8.25,21.25 8.125,21.625 8,22 7.5,22 7,22 6.5,22 6,22 5.875,21.625 5.75,21.25 5.375,21.125 5,21 5,20.5 5,20 5,19.5 5,19 5,18.5 5,18 5.375,17.875 5.75,17.75 5.875,17.375 6,17 6.5,17 7,17 7.375,16.875 7.75,16.75 7.875,16.375 8,16 8,15.5 8,15 8,14.5 8,14 8.5,14 9,14 9.125,13.625 9.25,13.25 8.96875,12.96875 L 8.6875,12.6875 8.625,12.75 8.5625,12.8125 8.6875,12.6875 Q 8.8125,12.5625 8.875,12.375 L 8.9375,12.1875 8.84375,12.46875 8.75,12.75 8.875,12.375 Q 9,12 9,11.46875 V 10.9375 H 8.90625 8.8125 9 q 0.1875,0 0.375,-0.0625 L 9.5625,10.8125 9.28125,10.90625 9,11 9.375,10.875 Q 9.75,10.75 9.75,10.5 V 10.25 10.4375 10.625 10.5 q 0,-0.125 -0.0625,-0.25 L 9.625,10.125 9.65625,10.1875 9.6875,10.25 9.96875,10 Q 10.25,9.75 10.125,9.375 10,9 10,8.5 10,8 10,7.5 10,7 10,6.5 10,6 10,5.5 10,5 10,4.5 10,4 10.375,3.875 10.75,3.75 10.875,3.375 11,3 11.375,2.875 11.75,2.75 11.875,2.375 12,2 12.5,2 13,2 13.375,1.875 13.75,1.75 13.875,1.375 M 14.5,30 Q 15,30 15,29.5 15,29 15.5,29 16,29 16,28.5 V 28 h -0.5 q -0.5,0 -0.875,0.125 -0.375,0.125 -0.5,0.5 Q 14,29 14,29.5 14,30 14.5,30 M 16,27.5 V 28 h 0.5 Q 17,28 17,27.5 V 27 H 16.5 Q 16,27 16,27.5 m 1,-1 V 27 h 0.5 q 0.5,0 0.375,-0.375 -0.125,-0.375 -0.5,-0.5 Q 17,26 17,26.5 M 22.5,31 Q 23,31 23.375,30.875 23.75,30.75 23.75,30.5 23.75,30.25 23.5,30 23.25,29.75 23,29.5 22.75,29.25 22.375,29.125 22,29 21.5,29 H 21 v -0.5 q 0,-0.5 0,-1 0,-0.5 0,-1 0,-0.5 -0.125,-0.875 -0.125,-0.375 -0.5,-0.5 L 20,25 V 24.5 Q 20,24 19.875,23.625 19.75,23.25 19.5,23 19.25,22.75 19.125,22.375 19,22 19,21.5 q 0,-0.5 0,-1 0,-0.5 -0.125,-0.875 -0.125,-0.375 -0.5,-0.5 L 18,19 v -0.5 q 0,-0.5 0.125,-0.875 0.125,-0.375 0.5,-0.5 Q 19,17 19.375,16.875 19.75,16.75 20,16.5 20.25,16.25 20.5,16 20.75,15.75 20.875,15.375 L 21,15 21.375,14.875 q 0.375,-0.125 0.5,-0.5 0.125,-0.375 0,-0.75 -0.125,-0.375 -0.5,-0.5 L 21,13 V 12.5 Q 21,12 20.9375,11.4375 L 20.875,10.875 20.8125,10.9375 20.75,11 20.875,10.875 Q 21,10.75 21,10.5 V 10.25 10.625 11 L 20.875,10.625 Q 20.75,10.25 20.375,10.125 20,10 20,9.5 20,9 19.875,8.625 19.75,8.25 19.5,8 19.25,7.75 19.125,7.375 19,7 19,6.5 19,6 19,5.5 V 5 L 18.875,4.625 Q 18.75,4.25 18.5,4 18.25,3.75 18,3.5 17.75,3.25 17.375,3.125 17,3 16.875,2.625 16.75,2.25 16.375,2.125 16,2 15.5,2 H 15 L 14.625,2.125 Q 14.25,2.25 14,2.5 13.75,2.75 13.375,2.875 L 13,3 12.625,3.125 Q 12.25,3.25 12,3.5 11.75,3.75 11.5,4 11.25,4.25 11.125,4.625 L 11,5 v 0.5 q 0,0.5 0,1 V 7 7.5 q 0,0.5 0,1 0,0.5 0,1 0,0.5 0,1 V 11 l -0.375,0.125 q -0.375,0.125 -0.5,0.5 Q 10,12 10,12.5 q 0,0.5 0,1 0,0.5 0,1 V 15 L 9.625,15.125 Q 9.25,15.25 9.125,15.625 9,16 8.875,16.375 8.75,16.75 8.5,17 8.25,17.25 8.125,17.625 L 8,18 H 7.5 Q 7,18 6.625,18.125 6.25,18.25 6.125,18.625 6,19 6,19.5 q 0,0.5 0.125,0.875 0.125,0.375 0.5,0.5 0.375,0.125 0.75,0 0.375,-0.125 0.5,-0.5 Q 8,20 8.125,19.625 8.25,19.25 8.5,19 8.75,18.75 8.875,18.375 L 9,18 9.375,17.875 Q 9.75,17.75 10,17.5 10.25,17.25 10.625,17.125 L 11,17 v 0.5 q 0,0.5 0,1 0,0.5 0,1 0,0.5 0,1 0,0.5 0,1 0,0.5 0,1 0,0.5 0.125,0.875 0.125,0.375 0.5,0.5 L 12,24 v 0.5 q 0,0.5 0,1 0,0.5 0,1 0,0.5 0,1 0,0.5 -0.125,0.875 Q 11.75,28.75 11.5,29 q -0.25,0.25 -0.5,0.5 -0.25,0.25 -0.5,0.5 -0.25,0.25 -0.25,0.5 0,0.25 0.375,0.375 Q 11,31 11.5,31 q 0.5,0 0.875,-0.125 0.375,-0.125 0.5,-0.5 Q 13,30 13,29.5 13,29 13,28.5 V 28 l 0.375,-0.125 q 0.375,-0.125 0.5,-0.5 Q 14,27 14,26.5 q 0,-0.5 0,-1 0,-0.5 0,-1 0,-0.5 0,-1 0,-0.5 0,-1 0,-0.5 0,-1 0,-0.5 0,-1 V 20 l 0.515625,0.01563 0.515625,0.01563 0.01563,-0.109375 0.01563,-0.109375 -0.03125,0.21875 Q 15,20.25 15,20.5 V 20.75 20.375 20 20.5 q 0,0.5 0.125,0.875 0.125,0.375 0.375,0.625 0.25,0.25 0.5,0.5 0.25,0.25 0.5,0.5 0.25,0.25 0.375,0.625 0.125,0.375 0.25,0.75 0.125,0.375 0.515625,0.484375 L 18.03125,24.96875 18.015625,24.859375 18,24.75 18.03125,24.96875 Q 18.0625,25.1875 18.125,25.375 L 18.1875,25.5625 18.09375,25.28125 18,25 l 0.125,0.375 q 0.125,0.375 0.5,0.5 L 19,26 v 0.5 q 0,0.5 0,1 0,0.5 0.125,0.875 0.125,0.375 0.5,0.5 L 20,29 v 0.5 q 0,0.5 0.125,0.875 0.125,0.375 0.5,0.5 Q 21,31 21.5,31 q 0.5,0 1,0 M 21,28.625 V 29 29.125 29.25 29 q 0,-0.25 0,-0.5 v -0.25 0.375 m -1,-4 V 25 25.125 25.25 25 q 0,-0.25 0,-0.5 v -0.25 0.375 m 0.125,-3.25 q 0.125,0.375 0.375,0.375 0.25,0 0.375,-0.375 Q 21,21 21,20.5 q 0,-0.5 0,-1 0,-0.5 0.375,-0.625 0.375,-0.125 0.5,-0.5 Q 22,18 22,17.5 22,17 21.875,16.625 21.75,16.25 21.5,16.25 q -0.25,0 -0.375,0.375 -0.125,0.375 -0.5,0.5 -0.375,0.125 -0.5,0.5 Q 20,18 19.625,18.125 19.25,18.25 19.25,18.5 q 0,0.25 0.375,0.375 Q 20,19 20,19.5 q 0,0.5 0,1 0,0.5 0.125,0.875 M 18,18.625 V 19 19.125 19.25 19 q 0,-0.25 0,-0.5 v -0.25 0.375 m 3,-6 V 13 13.125 13.25 13 q 0,-0.25 0,-0.5 v -0.25 0.375 m -8,15.25 V 28 28.375 28.75 28.5 q 0,-0.25 0,-0.5 v -0.25 0.125 M 14.375,20 H 14 13.875 13.75 14 q 0.25,0 0.5,0 h 0.25 -0.375 M 19,26.375 V 26 25.875 25.75 26 q 0,0.25 0,0.5 v 0.25 -0.375 m 1,3 V 29 28.875 28.75 29 q 0,0.25 0,0.5 v 0.25 -0.375"
       id="path7481" />
    <path
       style="fill:#b81514;fill-opacity:1"
       d="M 30,1.5 Q 30.25,1.25 30.625,1.125 31,1 31.5,1 H 32 V 1.5 2 L 31.625,2.125 Q 31.25,2.25 31,2.5 30.75,2.75 30.5,3 30.25,3.25 30,3.5 29.75,3.75 29.375,3.875 29,4 28.625,4.125 28.25,4.25 28,4.5 27.75,4.75 27.5,5 27.25,5.25 27.25,5.5 27.25,5.75 27.5,6 27.75,6.25 27.875,6.625 28,7 28.125,7.375 28.25,7.75 28.5,8 28.75,8.25 28.875,8.625 29,9 29,9.5 q 0,0.5 0.125,0.875 0.125,0.375 0.5,0.5 L 30,11 29.71875,10.90625 29.4375,10.8125 29.625,10.875 Q 29.8125,10.9375 30,10.9375 H 30.1875 30.09375 30 v 0.53125 Q 30,12 30,12.5 q 0,0.5 0,1 0,0.5 0,1 0,0.5 -0.125,0.875 -0.125,0.375 -0.375,0.375 -0.25,0 -0.375,-0.375 Q 29,15 29,14.5 29,14 29,13.5 29,13 28.875,12.625 28.75,12.25 28.5,12 28.25,11.75 28.125,11.375 28,11 28,10.5 28,10 27.875,9.625 27.75,9.25 27.5,9 27.25,8.75 27.125,8.375 27,8 26.875,7.625 26.75,7.25 26.5,7.25 26.25,7.25 26,7.5 25.75,7.75 25.5,8 25.25,8.25 25.125,8.625 25,9 24.875,9.375 24.75,9.75 24.5,10 q -0.25,0.25 -0.5,0.5 -0.25,0.25 -0.5,0.5 -0.25,0.25 -0.5,0.5 -0.25,0.25 -0.609375,0.359375 l -0.359375,0.109375 0.01563,0.109375 0.01563,0.109375 -0.03125,-0.21875 Q 22,11.75 22,11.5 V 11.25 11.625 12 11.5 Q 22,11 22.125,10.625 22.25,10.25 22.5,10 22.75,9.75 23,9.5 23.25,9.25 23.5,9 23.75,8.75 23.875,8.375 24,8 24.125,7.625 24.25,7.25 24.5,7 24.75,6.75 24.875,6.375 25,6 25,5.5 25,5 25.015625,4.515625 L 25.03125,4.03125 24.921875,4.046875 24.8125,4.0625 25.03125,4.03125 Q 25.25,4 25.5,4 H 25.75 25.375 25 25.5 Q 26,4 26.375,3.875 26.75,3.75 27,3.5 27.25,3.25 27.625,3.125 28,3 28.375,2.875 28.75,2.75 29,2.5 29.25,2.25 29.5,2 29.75,1.75 30,1.5"
       id="path7483" />
    <path
       style="fill:#feff5c;fill-opacity:1"
       d="M 14,2.5 Q 14.25,2.25 14.625,2.125 L 15,2 V 2.5 3 L 14.625,3.125 Q 14.25,3.25 13.984375,2.984375 L 13.71875,2.71875 13.640625,2.765625 13.5625,2.8125 13.71875,2.71875 Q 13.875,2.625 14,2.5 L 14.125,2.375 13.9375,2.5625 13.75,2.75 14,2.5"
       id="path7485" />
    <path
       style="fill:#d5db3d;fill-opacity:1"
       d="M 15,2.5 V 2 H 15.5 16 15.625 15.25 15.5 q 0.25,0 0.46875,0.03125 L 16.1875,2.0625 16.078125,2.046875 15.96875,2.03125 16.109375,2.390625 Q 16.25,2.75 16.65625,2.84375 L 17.0625,2.9375 16.90625,3.34375 Q 16.75,3.75 16.375,3.875 L 16,4 15.875,3.625 Q 15.75,3.25 15.375,3.125 L 15,3 V 2.5"
       id="path7487" />
    <path
       style="fill:#b4b92f;fill-opacity:1"
       d="M 16.109375,2.390625 15.96875,2.03125 15.859375,2.015625 15.75,2 15.96875,2.03125 Q 16.1875,2.0625 16.375,2.125 L 16.5625,2.1875 16.28125,2.09375 16,2 16.375,2.125 q 0.375,0.125 0.5,0.5 L 17,3 16.90625,2.71875 16.8125,2.4375 16.875,2.625 q 0.0625,0.1875 0.1875,0.3125 l 0.125,0.125 L 17.125,3 17.0625,2.9375 16.65625,2.84375 Q 16.25,2.75 16.109375,2.390625"
       id="path7489" />
    <path
       style="fill:#320000;fill-opacity:1"
       d="M 31,2.5 Q 31.25,2.25 31.625,2.125 L 32,2 V 2.5 3 3.5 4 4.5 5 5.5 6 L 31.625,6.125 Q 31.25,6.25 31.125,6.625 31,7 31,7.5 q 0,0.5 0,1 0,0.5 0,1 0,0.5 -0.125,0.875 -0.125,0.375 -0.5,0.5 -0.375,0.125 -0.75,0 -0.375,-0.125 -0.5,-0.5 Q 29,10 29,9.5 29,9 28.875,8.625 28.75,8.25 28.5,8 28.25,7.75 28.125,7.375 28,7 27.875,6.625 27.75,6.25 27.5,6 27.25,5.75 27.25,5.5 27.25,5.25 27.5,5 27.75,4.75 28,4.5 28.25,4.25 28.625,4.125 29,4 29.375,3.875 29.75,3.75 30,3.5 30.25,3.25 30.5,3 30.75,2.75 31,2.5"
       id="path7491" />
    <path
       style="fill:#feff5c;fill-opacity:1"
       d="M 12,3.5 Q 12.25,3.25 12.625,3.125 L 13,3 V 3.5 4 l -0.375,0.125 q -0.375,0.125 -0.5,0.5 L 12,5 H 11.5 11 L 11.125,4.625 Q 11.25,4.25 11.5,4 11.75,3.75 12,3.5"
       id="path7493" />
    <path
       style="fill:#d5db3d;fill-opacity:1"
       d="M 13,3.5 V 3 L 13.375,2.875 13.75,2.75 13.46875,2.84375 13.1875,2.9375 13.375,2.875 Q 13.5625,2.8125 13.71875,2.71875 L 13.875,2.625 13.796875,2.671875 13.71875,2.71875 13.984375,2.984375 Q 14.25,3.25 14.625,3.125 L 15,3 15.125,3.375 q 0.125,0.375 0.5,0.5 L 16,4 V 4.5 Q 16,5 16.125,5.375 16.25,5.75 15.96875,6.03125 L 15.6875,6.3125 15.75,6.375 15.8125,6.4375 15.6875,6.3125 Q 15.5625,6.1875 15.375,6.125 L 15.1875,6.0625 15.46875,6.15625 15.75,6.25 15.375,6.125 15,6 V 5.5 5 5.375 5.75 5.5 Q 15,5.25 14.875,5.125 L 14.75,5 14.8125,5.0625 14.875,5.125 14.8125,4.6875 Q 14.75,4.25 14.375,4.125 14,4 13.5,4 H 13 V 3.5"
       id="path7495" />
    <path
       style="fill:#feff5c;fill-opacity:1"
       d="M 15.125,3.375 15,3 15.375,3.125 q 0.375,0.125 0.5,0.5 L 16,4 15.625,3.875 q -0.375,-0.125 -0.5,-0.5"
       id="path7497" />
    <path
       style="fill:#feff5c;fill-opacity:1"
       d="M 16.90625,3.34375 17.0625,2.9375 17,2.875 16.9375,2.8125 l 0.125,0.125 q 0.125,0.125 0.3125,0.1875 L 17.5625,3.1875 17.28125,3.09375 17,3 17.375,3.125 Q 17.75,3.25 18,3.5 18.25,3.75 18.5,4 18.75,4.25 18.875,4.625 L 19,5 H 18.5 18 L 17.875,4.625 Q 17.75,4.25 17.5,4.25 17.25,4.25 17.125,4.625 17,5 17.125,5.375 L 17.25,5.75 17.15625,5.46875 17.0625,5.1875 17.125,5.375 q 0.0625,0.1875 0.15625,0.34375 L 17.375,5.875 17.328125,5.796875 17.28125,5.71875 17.015625,5.984375 Q 16.75,6.25 16.875,6.625 17,7 16.875,7.375 16.75,7.75 17.03125,8 L 17.3125,8.25 17.34375,8.1875 17.375,8.125 17.3125,8.25 Q 17.25,8.375 17.25,8.5 V 8.625 8.4375 8.25 8.5 8.75 8.5625 8.375 8.5 q 0,0.125 0.0625,0.25 L 17.375,8.875 17.34375,8.8125 17.3125,8.75 17.03125,9 Q 16.75,9.25 16.75,9.5 q 0,0.25 0.265625,0.515625 l 0.265625,0.265625 0.07813,-0.04687 0.07813,-0.04687 -0.15625,0.09375 Q 17.125,10.375 17,10.5 L 16.875,10.625 17.0625,10.4375 17.25,10.25 17,10.5 q -0.25,0.25 -0.5,0.25 -0.25,0 -0.375,-0.375 Q 16,10 15.9375,9.4375 L 15.875,8.875 15.8125,8.9375 15.75,9 15.875,8.875 Q 16,8.75 16,8.5 V 8.25 8.625 9 8.5 Q 16,8 16,7.5 16,7 15.875,6.625 L 15.75,6.25 15.84375,6.53125 15.9375,6.8125 15.875,6.625 Q 15.8125,6.4375 15.6875,6.3125 L 15.5625,6.1875 15.625,6.25 15.6875,6.3125 15.96875,6.03125 Q 16.25,5.75 16.125,5.375 16,5 16,4.5 V 4 L 16.375,3.875 Q 16.75,3.75 16.90625,3.34375"
       id="path7499" />
    <path
       style="fill:#000000;fill-opacity:0"
       d="M 0,4.5 V 4 L 0.375,4.125 Q 0.75,4.25 0.875,4.625 1,5 1,5.5 1,6 1,6.5 1,7 1.125,7.375 1.25,7.75 1.5,8 1.75,8.25 1.875,8.625 2,9 2,9.5 q 0,0.5 0,1 0,0.5 0,1 0,0.5 0.125,0.875 0.125,0.375 0.5,0.5 L 3,13 v 0.5 q 0,0.5 0,1 0,0.5 0.125,0.875 0.125,0.375 0.375,0.375 0.25,0 0.375,-0.375 L 4,15 3.90625,15.28125 3.8125,15.5625 3.875,15.375 Q 3.9375,15.1875 3.96875,14.96875 L 4,14.75 3.984375,14.859375 3.96875,14.96875 4.359375,14.859375 Q 4.75,14.75 5,14.5 5.25,14.25 5.5,14 5.75,13.75 6,13.5 6.25,13.25 6.625,13.125 7,13 7.5,13 8,13 8.375,12.875 L 8.75,12.75 8.46875,12.84375 8.1875,12.9375 8.375,12.875 Q 8.5625,12.8125 8.6875,12.6875 L 8.8125,12.5625 8.75,12.625 8.6875,12.6875 8.96875,12.96875 Q 9.25,13.25 9.125,13.625 9,14 8.5,14 8,14 8,14.5 8,15 8,15.5 8,16 7.875,16.375 7.75,16.75 7.375,16.875 7,17 6.5,17 6,17 5.875,17.375 5.75,17.75 5.375,17.875 5,18 5,18.5 q 0,0.5 0,1 0,0.5 0,1 0,0.5 0.375,0.625 0.375,0.125 0.5,0.5 Q 6,22 6.5,22 7,22 7.5,22 8,22 8.125,21.625 8.25,21.25 8.625,21.125 9,21 9,20.5 9,20 9.125,19.625 9.25,19.25 9.625,19.125 10,19 10,19.5 q 0,0.5 0,1 0,0.5 0,1 0,0.5 0,1 0,0.5 0,1 0,0.5 0.375,0.625 0.375,0.125 0.5,0.5 Q 11,25 11,25.5 q 0,0.5 0,1 0,0.5 0,1 0,0.5 -0.125,0.875 -0.125,0.375 -0.5,0.5 Q 10,29 9.875,29.375 9.75,29.75 9.375,29.875 9,30 9,30.5 q 0,0.5 0.375,0.625 0.375,0.125 0.5,0.5 L 10,32 H 9.5 9 8.5 8 7.5 7 6.5 6 5.5 5 4.5 4 3.5 3 2.5 2 1.5 1 0.5 0 V 31.5 31 30.5 30 29.5 29 28.5 28 27.5 27 26.5 26 25.5 25 24.5 24 23.5 23 22.5 22 21.5 21 20.5 20 19.5 19 18.5 18 17.5 17 16.5 16 15.5 15 14.5 14 13.5 13 12.5 12 11.5 11 10.5 10 9.5 9 8.5 8 7.5 7 6.5 6 5.5 5 4.5 m 3,8.875 V 13 12.875 12.75 13 q 0,0.25 0,0.5 v 0.25 -0.375"
       id="path7501" />
    <path
       style="fill:#909090;fill-opacity:1"
       d="m 12.125,4.625 q 0.125,-0.375 0.5,-0.5 L 13,4 12.71875,4.09375 12.4375,4.1875 12.625,4.125 Q 12.8125,4.0625 13.03125,4.03125 L 13.25,4 13.140625,4.015625 13.03125,4.03125 13.015625,4.515625 13,5 12.515625,5.015625 12.03125,5.03125 12.015625,5.140625 12,5.25 12.03125,5.03125 Q 12.0625,4.8125 12.125,4.625 L 12.1875,4.4375 12.09375,4.71875 12,5 12.125,4.625"
       id="path7503" />
    <path
       style="fill:#ffffff;fill-opacity:1"
       d="M 13.015625,4.515625 13.03125,4.03125 12.921875,4.046875 12.8125,4.0625 13.03125,4.03125 Q 13.25,4 13.5,4 H 13.75 13.375 13 13.5 14 13.625 13.25 13.5 q 0.25,0 0.46875,0.03125 L 14.1875,4.0625 14.078125,4.046875 13.96875,4.03125 13.984375,4.515625 14,5 H 13.5 13 l 0.01563,-0.484375"
       id="path7505" />
    <path
       style="fill:#b3b3b3;fill-opacity:1"
       d="M 13.984375,4.515625 13.96875,4.03125 13.859375,4.015625 13.75,4 13.96875,4.03125 Q 14.1875,4.0625 14.375,4.125 L 14.5625,4.1875 14.28125,4.09375 14,4 14.375,4.125 Q 14.75,4.25 14.8125,4.6875 L 14.875,5.125 14.9375,5.1875 15,5.25 14.875,5.125 Q 14.75,5 14.5,5 H 14.25 14.625 15 14.5 14 l -0.01563,-0.484375"
       id="path7507" />
    <path
       style="fill:#b4b92f;fill-opacity:1"
       d="M 17.125,4.625 Q 17.25,4.25 17.5,4.25 q 0.25,0 0.375,0.375 L 18,5 18.125,5.375 q 0.125,0.375 0.5,0.5 L 19,6 V 6.5 Q 19,7 19.125,7.375 19.25,7.75 19.5,8 19.75,8.25 19.875,8.625 L 20,9 19.90625,8.71875 19.8125,8.4375 19.875,8.625 q 0.0625,0.1875 0.09375,0.40625 L 20,9.25 19.984375,9.140625 19.96875,9.03125 19.609375,9.140625 Q 19.25,9.25 19.0625,9.6875 L 18.875,10.125 18.9375,10.1875 19,10.25 18.875,10.125 Q 18.75,10 18.5,10 H 18.25 18.625 19 18.5 18 L 17.875,9.625 Q 17.75,9.25 17.5,9 17.25,8.75 17.25,8.5 17.25,8.25 17.5,8 17.75,7.75 17.875,7.375 18,7 17.875,6.625 17.75,6.25 17.5,6 17.25,5.75 17.125,5.375 17,5 17.125,4.625 M 18.25,8.5 q 0,0.25 0.25,0.25 0.25,0 0.25,-0.25 0,-0.25 -0.25,-0.25 -0.25,0 -0.25,0.25 M 19,6.375 V 6 5.875 5.75 6 q 0,0.25 0,0.5 V 6.75 6.375"
       id="path7509" />
    <path
       style="fill:#4f1001;fill-opacity:1"
       d="m 24.25,4.5 q 0,-0.25 0.375,-0.375 L 25,4 24.71875,4.09375 24.4375,4.1875 24.625,4.125 Q 24.8125,4.0625 25.03125,4.03125 L 25.25,4 25.140625,4.015625 25.03125,4.03125 25.015625,4.515625 25,5 24.625,4.875 Q 24.25,4.75 24.25,4.5 M 25,5.125 V 5 4.625 4.25 4.5 Q 25,4.75 25,5 V 5.25 5.125"
       id="path7511" />
    <path
       style="fill:#d5db3d;fill-opacity:1"
       d="M 11,5.5 V 5 H 11.5 12 V 5.5 6 5.625 5.25 5.5 q 0,0.25 0.09375,0.40625 L 12.1875,6.0625 12.140625,5.984375 12.09375,5.90625 12.109375,6.515625 12.125,7.125 11.5625,7.0625 11,7 V 6.5 q 0,-0.5 0,-1"
       id="path7513" />
    <path
       style="fill:#770056;fill-opacity:1"
       d="M 12,5.5 V 5 5.375 5.75 5.5 Q 12,5.25 12.03125,5.03125 L 12.0625,4.8125 12.046875,4.921875 12.03125,5.03125 12.515625,5.015625 13,5 13.125,5.375 Q 13.25,5.75 13.5,5.75 q 0.25,0 0.375,-0.375 L 14,5 h 0.5 Q 15,5 15,5.5 V 6 L 14.625,6.125 Q 14.25,6.25 14.25,6.5 q 0,0.25 0.375,0.375 L 15,7 H 14.625 14.25 14.5 q 0.25,0 0.375,-0.125 L 15,6.75 14.9375,6.8125 14.875,6.875 14.8125,7.3125 Q 14.75,7.75 14.359375,7.890625 L 13.96875,8.03125 13.984375,8.140625 14,8.25 13.96875,8.03125 Q 13.9375,7.8125 13.875,7.625 L 13.8125,7.4375 13.90625,7.71875 14,8 13.875,7.625 Q 13.75,7.25 13.3125,7.0625 L 12.875,6.875 12.8125,6.9375 12.75,7 12.875,6.875 Q 13,6.75 13,6.5 V 6.25 6.625 7 L 12.875,6.625 Q 12.75,6.25 12.375,6.125 12,6 12,5.5"
       id="path7515" />
    <path
       style="fill:#9a006f;fill-opacity:1"
       d="M 13.125,5.375 13,5 H 13.5 14 L 13.875,5.375 Q 13.75,5.75 13.5,5.75 q -0.25,0 -0.375,-0.375"
       id="path7517" />
    <path
       style="fill:#d5db3d;fill-opacity:1"
       d="M 18.125,5.375 18,5 H 18.5 19 V 5.5 6 L 18.625,5.875 Q 18.25,5.75 18.125,5.375 M 19,6.125 V 6 5.625 5.25 5.5 Q 19,5.75 19,6 V 6.25 6.125"
       id="path7519" />
    <path
       style="fill:#320000;fill-opacity:1"
       d="M 6,6.5 Q 6.25,6.25 6.5,6.25 6.75,6.25 6.875,6.625 7,7 7,7.5 7,8 7,8.5 7,9 7.125,9.375 7.25,9.75 7.5,10 7.75,10.25 8,10.5 8.25,10.75 8.625,10.875 L 9,11 8.71875,10.90625 8.4375,10.8125 8.625,10.875 Q 8.8125,10.9375 9,10.9375 H 9.1875 9.09375 9 v 0.53125 Q 9,12 8.875,12.375 8.75,12.75 8.375,12.875 8,13 7.5,13 7,13 6.625,13.125 6.25,13.25 6,13.5 5.75,13.75 5.5,14 5.25,14.25 5,14.5 4.75,14.75 4.359375,14.859375 L 3.96875,14.96875 3.953125,15.078125 3.9375,15.1875 3.96875,14.96875 Q 4,14.75 4,14.5 V 14.25 14.625 15 14.5 Q 4,14 4,13.5 4,13 4,12.5 4,12 4,11.5 4,11 4,10.5 4,10 4.125,9.625 4.25,9.25 4.5,9 4.75,8.75 4.875,8.375 5,8 5.125,7.625 5.25,7.25 5.5,7 5.75,6.75 6,6.5"
       id="path7521" />
    <path
       style="fill:#ffffff;fill-opacity:1"
       d="M 12.109375,6.515625 12.09375,5.90625 12.046875,5.828125 12,5.75 12.09375,5.90625 Q 12.1875,6.0625 12.375,6.125 L 12.5625,6.1875 12.28125,6.09375 12,6 12.375,6.125 q 0.375,0.125 0.5,0.5 Q 13,7 12.5,7 H 12 12.375 12.75 12.5 Q 12.25,7 12.125,7.125 L 12,7.25 12.0625,7.1875 12.125,7.125 12.109375,6.515625"
       id="path7523" />
    <path
       style="fill:#ffffff;fill-opacity:1"
       d="m 14.25,6.5 q 0,-0.25 0.375,-0.375 L 15,6 V 6.5 Q 15,7 14.625,6.875 14.25,6.75 14.25,6.5"
       id="path7525" />
    <path
       style="fill:#590041;fill-opacity:1"
       d="M 15,6.5 V 6 l 0.375,0.125 q 0.375,0.125 0.5,0.5 Q 16,7 16,7.5 V 8 l -0.375,0.125 q -0.375,0.125 -0.5,0.5 L 15,9 H 14.5 14 V 8.5 8 8.375 8.75 8.5 Q 14,8.25 13.96875,8.03125 L 13.9375,7.8125 13.953125,7.921875 13.96875,8.03125 14.359375,7.890625 Q 14.75,7.75 14.8125,7.3125 L 14.875,6.875 14.8125,6.9375 14.75,7 14.875,6.875 Q 15,6.75 15,6.5 V 6.25 6.625 7 6.5 M 13.875,9 H 14 14.375 14.75 14.5 Q 14.25,9 14,9 h -0.25 0.125 M 16,8.125 V 8 7.625 7.25 7.5 Q 16,7.75 16,8 V 8.25 8.125"
       id="path7527" />
    <path
       style="fill:#d5db3d;fill-opacity:1"
       d="M 16.875,6.625 Q 16.75,6.25 17.015625,5.984375 L 17.28125,5.71875 17.234375,5.640625 17.1875,5.5625 17.28125,5.71875 Q 17.375,5.875 17.5,6 L 17.625,6.125 17.4375,5.9375 17.25,5.75 17.5,6 Q 17.75,6.25 17.875,6.625 18,7 17.875,7.375 17.75,7.75 17.5,8 L 17.25,8.25 17.4375,8.0625 17.625,7.875 17.5,8 Q 17.375,8.125 17.3125,8.25 L 17.25,8.375 17.28125,8.3125 17.3125,8.25 17.03125,8 Q 16.75,7.75 16.875,7.375 17,7 16.875,6.625"
       id="path7529" />
    <path
       style="fill:#000000;fill-opacity:0"
       d="m 31.125,6.625 q 0.125,-0.375 0.5,-0.5 L 32,6 V 6.5 7 7.5 8 8.5 9 9.5 10 10.5 11 11.5 12 12.5 13 13.5 14 14.5 15 15.5 16 16.5 17 17.5 18 18.5 19 19.5 20 20.5 21 21.5 22 22.5 23 23.5 24 24.5 25 25.5 26 26.5 27 27.5 28 28.5 29 29.5 30 30.5 31 31.5 32 H 31.5 31 30.5 30 29.5 29 28.5 28 27.5 27 26.5 26 25.5 25 24.5 24 l 0.125,-0.375 q 0.125,-0.375 0.5,-0.5 Q 25,31 25,30.5 25,30 25,29.5 25,29 25.5,29 26,29 26,28.5 26,28 26.5,28 27,28 27,27.5 27,27 27.5,27 28,27 28,26.5 28,26 28.5,26 29,26 29,25.5 29,25 29,24.5 29,24 28.5,24 28,24 28,23.5 28,23 27.5,23 27,23 27,22.5 27,22 26.5,22 26,22 25.5,22 25,22 25,22.5 25,23 24.5,23 24,23 24,23.5 24,24 23.5,24 23,24 23,24.5 23,25 22.5,25 22,25 21.625,24.875 21.25,24.75 21.125,24.375 21,24 21,23.5 21,23 21.125,22.625 21.25,22.25 21.625,22.125 22,22 22,21.5 q 0,-0.5 0,-1 0,-0.5 0.125,-0.875 0.125,-0.375 0.5,-0.5 Q 23,19 23,18.5 q 0,-0.5 0,-1 0,-0.5 0,-1 0,-0.5 0,-1 0,-0.5 0,-1 0,-0.5 0,-1 V 13 h 0.5 Q 24,13 24.375,13.125 24.75,13.25 25,13.5 25.25,13.75 25.625,13.875 26,14 26.375,14.125 26.75,14.25 27,14.5 27.25,14.75 27.625,14.875 28,15 28.515625,14.984375 L 29.03125,14.96875 29.015625,14.859375 29,14.75 29.03125,14.96875 Q 29.0625,15.1875 29.125,15.375 L 29.1875,15.5625 29.09375,15.28125 29,15 l 0.125,0.375 q 0.125,0.375 0.375,0.375 0.25,0 0.375,-0.375 Q 30,15 30,14.5 q 0,-0.5 0,-1 0,-0.5 0,-1 0,-0.5 0,-1.03125 V 10.9375 H 29.90625 29.8125 30 q 0.1875,0 0.375,-0.0625 L 30.5625,10.8125 30.28125,10.90625 30,11 30.375,10.875 q 0.375,-0.125 0.5,-0.5 Q 31,10 31,9.5 31,9 31,8.5 31,8 31,7.5 31,7 31.125,6.625"
       id="path7531" />
    <path
       style="fill:#feff5c;fill-opacity:1"
       d="M 11,7.5 V 7 L 11.5625,7.0625 12.125,7.125 12.1875,7.0625 12.25,7 12.125,7.125 Q 12,7.25 12,7.5 V 7.75 7.375 7 L 12.125,7.375 12.25,7.75 12.15625,7.46875 12.0625,7.1875 12.125,7.375 q 0.0625,0.1875 0.15625,0.34375 L 12.375,7.875 12.328125,7.796875 12.28125,7.71875 12.015625,7.984375 Q 11.75,8.25 11.75,8.5 q 0,0.25 0.28125,0.53125 L 12.3125,9.3125 12.375,9.25 12.4375,9.1875 12.3125,9.3125 Q 12.1875,9.4375 12.125,9.625 L 12.0625,9.8125 12.15625,9.53125 12.25,9.25 12.15625,9.65625 12.0625,10.0625 12.125,10 l 0.0625,-0.0625 -0.125,0.125 q -0.125,0.125 -0.1875,0.3125 L 11.8125,10.5625 11.90625,10.28125 12,10 11.875,10.375 q -0.125,0.375 -0.5,0.5 L 11,11 v -0.5 q 0,-0.5 0,-1 0,-0.5 0,-1 0,-0.5 0,-1"
       id="path7533" />
    <path
       style="fill:#9a006f;fill-opacity:1"
       d="M 12.125,7.375 Q 12,7 12.5,7 H 13 12.625 12.25 12.5 q 0.25,0 0.375,-0.125 L 13,6.75 12.9375,6.8125 12.875,6.875 13.3125,7.0625 Q 13.75,7.25 13.875,7.625 14,8 14,8.5 V 9 H 13.5 13 L 12.875,8.625 Q 12.75,8.25 12.5,8 12.25,7.75 12.125,7.375 M 13.625,9 H 14 14.125 14.25 14 q -0.25,0 -0.5,0 h -0.25 0.375"
       id="path7535" />
    <path
       style="fill:#320000;fill-opacity:1"
       d="m 26,7.5 q 0.25,-0.25 0.5,-0.25 0.25,0 0.375,0.375 Q 27,8 27.125,8.375 27.25,8.75 27.5,9 27.75,9.25 27.875,9.625 28,10 28,10.5 28,11 28.125,11.375 28.25,11.75 28.5,12 28.75,12.25 28.875,12.625 29,13 29,13.5 q 0,0.5 0,1 V 15 14.625 14.25 14.5 q 0,0.25 0.03125,0.46875 l 0.03125,0.21875 -0.01563,-0.109375 -0.01563,-0.109375 -0.515625,0.01563 Q 28,15 27.625,14.875 27.25,14.75 27,14.5 26.75,14.25 26.375,14.125 26,14 25.625,13.875 25.25,13.75 25,13.5 24.75,13.25 24.375,13.125 24,13 23.5,13 H 23 l -0.375,-0.125 q -0.375,-0.125 -0.5,-0.5 L 22,12 22.09375,12.28125 22.1875,12.5625 22.125,12.375 Q 22.0625,12.1875 22.03125,11.96875 L 22,11.75 l 0.01563,0.109375 0.01563,0.109375 0.359375,-0.109375 Q 22.75,11.75 23,11.5 23.25,11.25 23.5,11 23.75,10.75 24,10.5 24.25,10.25 24.5,10 24.75,9.75 24.875,9.375 25,9 25.125,8.625 25.25,8.25 25.5,8 25.75,7.75 26,7.5"
       id="path7537" />
    <path
       style="fill:#d5db3d;fill-opacity:1"
       d="m 11.75,8.5 q 0,-0.25 0.265625,-0.515625 L 12.28125,7.71875 12.234375,7.640625 12.1875,7.5625 12.28125,7.71875 Q 12.375,7.875 12.5,8 L 12.625,8.125 12.4375,7.9375 12.25,7.75 12.5,8 q 0.25,0.25 0.375,0.625 L 13,9 12.625,9.125 12.25,9.25 12.53125,9.15625 12.8125,9.0625 12.625,9.125 Q 12.4375,9.1875 12.3125,9.3125 L 12.1875,9.4375 12.25,9.375 12.3125,9.3125 12.03125,9.03125 Q 11.75,8.75 11.75,8.5"
       id="path7539" />
    <path
       style="fill:#3c002d;fill-opacity:1"
       d="m 15.125,8.625 q 0.125,-0.375 0.5,-0.5 L 16,8 V 8.5 Q 16,9 15.5,9 H 15 L 15.125,8.625 M 16,8.375 V 8 7.875 7.75 8 q 0,0.25 0,0.5 V 8.75 8.375"
       id="path7541" />
    <path
       style="fill:#d5db3d;fill-opacity:1"
       d="m 18.25,8.5 q 0,-0.25 0.25,-0.25 0.25,0 0.25,0.25 0,0.25 -0.25,0.25 -0.25,0 -0.25,-0.25"
       id="path7543" />
    <path
       style="fill:#b3b3b3;fill-opacity:1"
       d="M 12.15625,9.65625 Q 12.25,9.25 12.625,9.125 L 13,9 12.875,9.375 q -0.125,0.375 -0.5,0.5 L 12,10 12.28125,9.90625 12.5625,9.8125 12.375,9.875 q -0.1875,0.0625 -0.3125,0.1875 l -0.125,0.125 L 12,10.125 12.0625,10.0625 12.15625,9.65625"
       id="path7545" />
    <path
       style="fill:#bc0086;fill-opacity:1"
       d="M 12.875,9.375 13,9 h 0.5 q 0.5,0 1,0 H 15 l -0.125,0.375 q -0.125,0.375 -0.5,0.5 -0.375,0.125 -0.75,0.25 -0.375,0.125 -0.5,0.5 L 13,11 V 10.625 10.25 10.5 q 0,0.25 0.125,0.375 L 13.25,11 13.1875,10.9375 13.125,10.875 13.0625,11.4375 Q 13,12 13,12.5 V 13 H 12.5 Q 12,13 11.625,12.875 11.25,12.75 11.125,12.375 11,12 11,11.5 V 11 l 0.375,-0.125 q 0.375,-0.125 0.5,-0.5 0.125,-0.375 0.5,-0.5 0.375,-0.125 0.5,-0.5 M 12.625,13 H 13 13.125 13.25 13 q -0.25,0 -0.5,0 h -0.25 0.375"
       id="path7547" />
    <path
       style="fill:#909090;fill-opacity:1"
       d="M 14.875,9.375 15,9 H 15.5 16 15.625 15.25 15.5 q 0.25,0 0.375,-0.125 L 16,8.75 15.9375,8.8125 15.875,8.875 15.9375,9.4375 16,10 V 9.625 9.25 9.5 q 0,0.25 0.03125,0.46875 L 16.0625,10.1875 16.046875,10.078125 16.03125,9.96875 15.640625,10.109375 15.25,10.25 15.53125,10.15625 15.8125,10.0625 15.625,10.125 q -0.1875,0.0625 -0.3125,0.1875 l -0.125,0.125 L 15.25,10.375 15.3125,10.3125 15,10 14.6875,9.6875 14.625,9.75 14.5625,9.8125 14.6875,9.6875 Q 14.8125,9.5625 14.875,9.375 L 14.9375,9.1875 14.84375,9.46875 14.75,9.75 14.875,9.375"
       id="path7549" />
    <path
       style="fill:#d5db3d;fill-opacity:1"
       d="m 16.75,9.5 q 0,-0.25 0.28125,-0.5 L 17.3125,8.75 17.28125,8.6875 17.25,8.625 17.3125,8.75 Q 17.375,8.875 17.5,9 L 17.625,9.125 17.4375,8.9375 17.25,8.75 17.5,9 q 0.25,0.25 0.375,0.625 L 18,10 17.625,10.125 17.25,10.25 17.53125,10.15625 17.8125,10.0625 17.625,10.125 q -0.1875,0.0625 -0.34375,0.15625 L 17.125,10.375 l 0.07813,-0.04687 0.07813,-0.04687 -0.265625,-0.265625 Q 16.75,9.75 16.75,9.5"
       id="path7551" />
    <path
       style="fill:#d5db3d;fill-opacity:1"
       d="M 19.0625,9.6875 Q 19.25,9.25 19.609375,9.140625 L 19.96875,9.03125 19.953125,8.921875 19.9375,8.8125 19.96875,9.03125 Q 20,9.25 20,9.5 V 9.75 9.375 9 9.5 10 9.625 9.25 9.5 q 0,0.25 0.09375,0.40625 L 20.1875,10.0625 20.140625,9.984375 20.09375,9.90625 20.046875,10.453125 20,11 H 19.5 Q 19,11 19,10.5 V 10 10.375 10.75 10.5 q 0,-0.25 -0.125,-0.375 L 18.75,10 l 0.0625,0.0625 0.0625,0.0625 0.1875,-0.4375"
       id="path7553" />
    <path
       style="fill:#ffffff;fill-opacity:1"
       d="m 13.125,10.625 q 0.125,-0.375 0.5,-0.5 L 14,10 V 10.5 11 H 13.5 Q 13,11 13.125,10.625 M 14.09375,9.96875 14,10 13.71875,10.09375 13.4375,10.1875 13.625,10.125 Q 13.8125,10.0625 14,10 l 0.1875,-0.0625 -0.09375,0.03125"
       id="path7555" />
    <path
       style="fill:#b3b3b3;fill-opacity:1"
       d="M 14,10.5 V 10 L 14.375,9.875 14.75,9.75 14.46875,9.84375 14.1875,9.9375 14.375,9.875 Q 14.5625,9.8125 14.6875,9.6875 L 14.8125,9.5625 14.75,9.625 14.6875,9.6875 15,10 l 0.3125,0.3125 0.0625,-0.0625 0.0625,-0.0625 -0.125,0.125 q -0.125,0.125 -0.1875,0.3125 L 15.0625,10.8125 15.15625,10.53125 15.25,10.25 15.125,10.625 15,11 H 14.5 14 V 10.5 M 14.28125,9.90625 14,10 13.90625,10.03125 13.8125,10.0625 14,10 q 0.1875,-0.0625 0.375,-0.125 l 0.1875,-0.0625 -0.28125,0.09375"
       id="path7557" />
    <path
       style="fill:#9a006f;fill-opacity:1"
       d="M 15.125,10.625 Q 15.25,10.25 15.640625,10.109375 L 16.03125,9.96875 16.015625,9.859375 16,9.75 16.03125,9.96875 Q 16.0625,10.1875 16.125,10.375 L 16.1875,10.5625 16.09375,10.28125 16,10 l 0.125,0.375 q 0.125,0.375 0.375,0.375 0.25,0 0.5,-0.25 0.25,-0.25 0.625,-0.375 L 18,10 v 0.5 0.5 l -0.375,0.125 q -0.375,0.125 -0.5,0.5 Q 17,12 17,12.5 V 13 12.625 12.25 12.5 q 0,0.25 0.09375,0.40625 l 0.09375,0.15625 -0.04687,-0.07813 -0.04687,-0.07813 -0.04687,0.546875 L 17,14 V 13.625 13.25 13.5 q 0,0.25 0.03125,0.46875 l 0.03125,0.21875 -0.01563,-0.109375 -0.01563,-0.109375 -0.515625,0.01563 Q 16,14 15.625,13.875 15.25,13.75 15.125,13.375 L 15,13 15.375,12.875 q 0.375,-0.125 0.5,-0.5 0.125,-0.375 0,-0.75 -0.125,-0.375 -0.5,-0.5 L 15,11 15.125,10.625"
       id="path7559" />
    <path
       style="fill:#590041;fill-opacity:1"
       d="M 18,10.5 V 10 h 0.5 Q 19,10 19,10.5 V 11 10.625 10.25 10.5 q 0,0.25 0.125,0.375 L 19.25,11 19.1875,10.9375 19.125,10.875 18.5625,10.9375 18,11 v -0.5"
       id="path7561" />
    <path
       style="fill:#b4b92f;fill-opacity:1"
       d="M 20.046875,10.453125 20.09375,9.90625 20.046875,9.828125 20,9.75 20.09375,9.90625 Q 20.1875,10.0625 20.375,10.125 L 20.5625,10.1875 20.28125,10.09375 20,10 l 0.375,0.125 q 0.375,0.125 0.5,0.5 Q 21,11 20.5,11 H 20 l 0.04687,-0.546875"
       id="path7563" />
    <path
       style="fill:#590041;fill-opacity:1"
       d="m 10.125,11.625 q 0.125,-0.375 0.5,-0.5 L 11,11 V 11.5 12 11.625 11.25 11.5 q 0,0.25 0.03125,0.46875 l 0.03125,0.21875 -0.01563,-0.109375 -0.01563,-0.109375 -0.5,0.03125 -0.5,0.03125 -0.01563,0.109375 L 10,12.25 10.03125,12.03125 Q 10.0625,11.8125 10.125,11.625 L 10.1875,11.4375 10.09375,11.71875 10,12 10.125,11.625"
       id="path7565" />
    <path
       style="fill:#9a006f;fill-opacity:1"
       d="M 13.0625,11.4375 13.125,10.875 13.0625,10.8125 13,10.75 13.125,10.875 Q 13.25,11 13.5,11 H 13.75 13.375 13 13.5 14 V 11.5 12 H 13.5 13 l 0.0625,-0.5625 M 13,11.625 V 12 12.125 12.25 12 q 0,-0.25 0,-0.5 v -0.25 0.375 M 13.625,12 H 14 14.125 14.25 14 q -0.25,0 -0.5,0 h -0.25 0.375"
       id="path7567" />
    <path
       style="fill:#590041;fill-opacity:1"
       d="M 14,11.5 V 11 H 14.5 15 V 11.5 12 H 14.5 14 V 11.5 M 13.875,12 H 14 14.375 14.75 14.5 q -0.25,0 -0.5,0 h -0.25 0.125 M 15,12.125 V 12 11.625 11.25 11.5 q 0,0.25 0,0.5 v 0.25 -0.125"
       id="path7569" />
    <path
       style="fill:#bc0086;fill-opacity:1"
       d="M 15,11.5 V 11 l 0.375,0.125 q 0.375,0.125 0.5,0.5 0.125,0.375 0,0.75 -0.125,0.375 -0.5,0.5 L 15,13 v -0.5 q 0,-0.5 0,-1"
       id="path7571" />
    <path
       style="fill:#feff5c;fill-opacity:1"
       d="m 17.125,11.625 q 0.125,-0.375 0.5,-0.5 L 18,11 v 0.5 q 0,0.5 0.125,0.875 0.125,0.375 0.375,0.625 0.25,0.25 0.375,0.625 L 19,14 H 18.5 18 L 17.875,13.625 Q 17.75,13.25 17.375,13.125 17,13 17,12.5 17,12 17.125,11.625"
       id="path7573" />
    <path
       style="fill:#bc0086;fill-opacity:1"
       d="M 18,11.5 V 11 L 18.5625,10.9375 19.125,10.875 19.0625,10.8125 19,10.75 19.125,10.875 Q 19.25,11 19.5,11 H 19.75 19.375 19 19.5 20 l 0.125,0.375 q 0.125,0.375 0.5,0.5 L 21,12 v 0.5 q 0,0.5 0,1 V 14 H 20.5 20 V 13.5 Q 20,13 19.875,12.625 19.75,12.25 19.375,12.125 19,12 18.515625,11.984375 l -0.484375,-0.01563 0.01563,0.109375 0.01563,0.109375 -0.03125,-0.21875 Q 18,11.75 18,11.5 V 11.25 11.625 12 11.5 m 2,2.125 V 14 14.125 14.25 14 q 0,-0.25 0,-0.5 v -0.25 0.375 m 1,0.5 V 14 13.625 13.25 13.5 q 0,0.25 0,0.5 v 0.25 -0.125 m 0,-1.75 V 12 11.875 11.75 12 q 0,0.25 0,0.5 v 0.25 -0.375"
       id="path7575" />
    <path
       style="fill:#3c002d;fill-opacity:1"
       d="M 20.125,11.375 20,11 H 20.5 21 20.625 20.25 20.5 q 0.25,0 0.375,-0.125 L 21,10.75 20.9375,10.8125 20.875,10.875 20.9375,11.4375 21,12 20.625,11.875 q -0.375,-0.125 -0.5,-0.5 M 21,12.125 V 12 11.625 11.25 11.5 q 0,0.25 0,0.5 v 0.25 -0.125"
       id="path7577" />
    <path
       style="fill:#9a006f;fill-opacity:1"
       d="M 10,12.5 V 12 12.375 12.75 12.5 q 0,-0.25 0.03125,-0.46875 l 0.03125,-0.21875 -0.01563,0.109375 -0.01563,0.109375 0.5,-0.03125 0.5,-0.03125 -0.01563,-0.109375 L 11,11.75 11.03125,11.96875 Q 11.0625,12.1875 11.125,12.375 L 11.1875,12.5625 11.09375,12.28125 11,12 l 0.125,0.375 q 0.125,0.375 0.5,0.5 L 12,13 11.71875,12.90625 11.4375,12.8125 11.625,12.875 q 0.1875,0.0625 0.40625,0.09375 L 12.25,13 12.140625,12.984375 12.03125,12.96875 11.890625,13.359375 Q 11.75,13.75 11.359375,13.890625 L 10.96875,14.03125 10.984375,14.140625 11,14.25 10.96875,14.03125 Q 10.9375,13.8125 10.875,13.625 L 10.8125,13.4375 10.90625,13.71875 11,14 10.875,13.625 q -0.125,-0.375 -0.5,-0.5 L 10,13 v -0.5 m 0,0.125 V 13 13.125 13.25 13 q 0,-0.25 0,-0.5 v -0.25 0.375"
       id="path7579" />
    <path
       style="fill:#3c002d;fill-opacity:1"
       d="M 13,12.5 V 12 h 0.5 q 0.5,0 1,0 H 15 v 0.5 0.5 h -0.5 q -0.5,0 -1,0 H 13 V 12.5 M 12.875,13 H 13 13.375 13.75 13.5 q -0.25,0 -0.5,0 h -0.25 0.125 M 15,12.375 V 12 11.875 11.75 12 q 0,0.25 0,0.5 v 0.25 -0.375 m -2,-0.5 V 12 12.375 12.75 12.5 q 0,-0.25 0,-0.5 v -0.25 0.125"
       id="path7581" />
    <path
       style="fill:#000000;fill-opacity:1"
       d="M 18.125,12.375 18,12 18.09375,12.28125 18.1875,12.5625 18.125,12.375 Q 18.0625,12.1875 18.03125,11.96875 L 18,11.75 l 0.01563,0.109375 0.01563,0.109375 0.484375,0.01563 L 19,12 H 18.625 18.25 18.5 q 0.25,0 0.46875,0.03125 l 0.21875,0.03125 -0.109375,-0.01563 -0.109375,-0.01563 0.140625,0.359375 q 0.140625,0.359375 0.5,0.5 L 19.96875,13.03125 19.953125,12.921875 19.9375,12.8125 19.96875,13.03125 Q 20,13.25 20,13.5 V 13.75 13.375 13 13.5 q 0,0.5 0,1 V 15 l -0.375,0.125 q -0.375,0.125 -0.5,0.5 L 19,16 H 18.46875 17.9375 V 16.09375 16.1875 16 q 0,-0.1875 -0.0625,-0.375 L 17.8125,15.4375 17.90625,15.71875 18,16 17.875,15.625 Q 17.75,15.25 17.5,15 17.25,14.75 17.125,14.375 17,14 17.046875,13.453125 L 17.09375,12.90625 17.046875,12.828125 17,12.75 17.09375,12.90625 Q 17.1875,13.0625 17.375,13.125 L 17.5625,13.1875 17.28125,13.09375 17,13 l 0.375,0.125 q 0.375,0.125 0.5,0.5 L 18,14 l 0.125,0.375 q 0.125,0.375 0.375,0.375 0.25,0 0.375,-0.375 L 19,14 18.875,13.625 Q 18.75,13.25 18.5,13 18.25,12.75 18.125,12.375"
       id="path7583" />
    <path
       style="fill:#590041;fill-opacity:1"
       d="M 19.109375,12.390625 18.96875,12.03125 18.859375,12.015625 18.75,12 18.96875,12.03125 Q 19.1875,12.0625 19.375,12.125 L 19.5625,12.1875 19.28125,12.09375 19,12 l 0.375,0.125 q 0.375,0.125 0.5,0.5 L 20,13 19.90625,12.71875 19.8125,12.4375 19.875,12.625 q 0.0625,0.1875 0.09375,0.40625 L 20,13.25 19.984375,13.140625 19.96875,13.03125 19.609375,12.890625 q -0.359375,-0.140625 -0.5,-0.5"
       id="path7585" />
    <path
       style="fill:#bc0086;fill-opacity:1"
       d="M 10,13.5 V 13 l 0.375,0.125 q 0.375,0.125 0.5,0.5 Q 11,14 11,14.5 V 15 H 10.5 10 v -0.5 q 0,-0.5 0,-1 m 0,-0.625 V 13 13.375 13.75 13.5 q 0,-0.25 0,-0.5 v -0.25 0.125"
       id="path7587" />
    <path
       style="fill:#590041;fill-opacity:1"
       d="M 11.890625,13.359375 12.03125,12.96875 11.921875,12.953125 11.8125,12.9375 12.03125,12.96875 Q 12.25,13 12.5,13 H 12.75 12.375 12 12.5 q 0.5,0 1,0 0.5,0 1,0 H 15 l 0.125,0.375 q 0.125,0.375 0.5,0.5 L 16,14 15.71875,13.90625 15.4375,13.8125 15.625,13.875 q 0.1875,0.0625 0.40625,0.09375 L 16.25,14 16.140625,13.984375 16.03125,13.96875 16.140625,14.359375 Q 16.25,14.75 16.5,15 q 0.25,0.25 0.375,0.625 L 17,16 16.90625,15.71875 16.8125,15.4375 16.875,15.625 q 0.0625,0.1875 0.09375,0.40625 L 17,16.25 16.984375,16.140625 16.96875,16.03125 16.609375,15.890625 Q 16.25,15.75 16,15.5 15.75,15.25 15.5,15 15.25,14.75 15,14.5 14.75,14.25 14.375,14.125 14,14 13.5,14 q -0.5,0 -0.875,0.125 -0.375,0.125 -0.5,0.5 L 12,15 12.09375,14.71875 12.1875,14.4375 12.125,14.625 q -0.0625,0.1875 -0.09375,0.40625 L 12,15.25 12.015625,15.140625 12.03125,15.03125 11.515625,15.015625 11,15 V 14.5 14 14.375 14.75 14.5 q 0,-0.25 -0.03125,-0.46875 l -0.03125,-0.21875 0.01563,0.109375 0.01563,0.109375 0.390625,-0.140625 Q 11.75,13.75 11.890625,13.359375"
       id="path7589" />
    <path
       style="fill:#9a006f;fill-opacity:1"
       d="M 21,13.5 V 13 l 0.375,0.125 q 0.375,0.125 0.5,0.5 0.125,0.375 0,0.75 -0.125,0.375 -0.5,0.5 L 21,15 v -0.5 q 0,-0.5 0,-1 m 0,-0.625 V 13 13.375 13.75 13.5 q 0,-0.25 0,-0.5 v -0.25 0.125"
       id="path7591" />
    <path
       style="fill:#bc0086;fill-opacity:1"
       d="m 12.125,14.625 q 0.125,-0.375 0.5,-0.5 Q 13,14 13.5,14 H 14 13.625 13.25 13.5 q 0.25,0 0.46875,0.03125 l 0.21875,0.03125 -0.109375,-0.01563 -0.109375,-0.01563 -0.109375,0.359375 Q 13.75,14.75 13.5,15 q -0.25,0.25 -0.25,0.5 0,0.25 0.25,0.25 0.25,0 0.5,-0.25 0.25,-0.25 0.5,-0.25 0.25,0 0.375,0.375 0.125,0.375 0,0.75 -0.125,0.375 -0.5,0.5 Q 14,17 13.625,17.125 13.25,17.25 13.125,17.625 13,18 13,18.5 q 0,0.5 0,1 0,0.5 0,1 0,0.5 0,1 V 22 L 12.625,21.875 Q 12.25,21.75 12.125,21.375 12,21 12,20.5 q 0,-0.5 0,-1 0,-0.5 0,-1 0,-0.5 0,-1 0,-0.5 0,-1 0,-0.5 0,-1 0,-0.5 0.125,-0.875"
       id="path7593" />
    <path
       style="fill:#9a006f;fill-opacity:1"
       d="M 13.859375,14.390625 13.96875,14.03125 13.859375,14.015625 13.75,14 13.96875,14.03125 Q 14.1875,14.0625 14.375,14.125 L 14.5625,14.1875 14.28125,14.09375 14,14 14.375,14.125 Q 14.75,14.25 15,14.5 q 0.25,0.25 0.5,0.5 0.25,0.25 0.5,0.5 0.25,0.25 0.609375,0.390625 L 16.96875,16.03125 16.953125,15.921875 16.9375,15.8125 16.96875,16.03125 Q 17,16.25 17,16.5 V 16.75 16.375 16 16.5 q 0,0.5 -0.125,0.875 -0.125,0.375 -0.5,0.5 Q 16,18 15.5,18 15,18 14.625,18.125 14.25,18.25 14,18.5 13.75,18.75 13.375,18.875 L 13,19 v -0.5 q 0,-0.5 0.125,-0.875 0.125,-0.375 0.5,-0.5 Q 14,17 14.375,16.875 14.75,16.75 14.875,16.375 15,16 14.875,15.625 14.75,15.25 14.5,15.25 q -0.25,0 -0.5,0.25 -0.25,0.25 -0.5,0.25 -0.25,0 -0.25,-0.25 0,-0.25 0.25,-0.5 0.25,-0.25 0.359375,-0.609375 M 13,18.625 V 19 19.125 19.25 19 q 0,-0.25 0,-0.5 v -0.25 0.375"
       id="path7595" />
    <path
       style="fill:#3c002d;fill-opacity:1"
       d="M 16.140625,14.359375 16.03125,13.96875 15.921875,13.953125 15.8125,13.9375 16.03125,13.96875 Q 16.25,14 16.5,14 H 16.75 16.375 16 l 0.515625,-0.01563 0.515625,-0.01563 -0.01563,-0.109375 L 17,13.75 17.03125,13.96875 Q 17.0625,14.1875 17.125,14.375 L 17.1875,14.5625 17.09375,14.28125 17,14 17.125,14.375 Q 17.25,14.75 17.5,15 q 0.25,0.25 0.375,0.625 0.125,0.375 0,0.75 -0.125,0.375 -0.515625,0.484375 L 16.96875,16.96875 16.953125,17.078125 16.9375,17.1875 16.96875,16.96875 Q 17,16.75 17,16.5 V 16.25 16.625 17 16.5 Q 17,16 16.875,15.625 16.75,15.25 16.5,15 16.25,14.75 16.140625,14.359375"
       id="path7597" />
    <path
       style="fill:#d5db3d;fill-opacity:1"
       d="M 18.125,14.375 18,14 h 0.5 0.5 l -0.125,0.375 Q 18.75,14.75 18.5,14.75 q -0.25,0 -0.375,-0.375"
       id="path7599" />
    <path
       style="fill:#c900af;fill-opacity:1"
       d="M 20,14.5 V 14 H 20.5 21 V 14.5 15 H 20.5 20 v -0.5 m 1,-0.125 V 14 13.875 13.75 14 q 0,0.25 0,0.5 v 0.25 -0.375 m -1,-0.5 V 14 14.375 14.75 14.5 q 0,-0.25 0,-0.5 v -0.25 0.125"
       id="path7601" />
    <path
       style="fill:#9a006f;fill-opacity:1"
       d="m 9.125,15.625 q 0.125,-0.375 0.5,-0.5 L 10,15 9.875,15.375 q -0.125,0.375 -0.5,0.5 L 9,16 9.125,15.625 M 9.09375,15.71875 9,16 8.96875,16.09375 8.9375,16.1875 9,16 q 0.0625,-0.1875 0.125,-0.375 l 0.0625,-0.1875 -0.09375,0.28125"
       id="path7603" />
    <path
       style="fill:#ee00e0;fill-opacity:1"
       d="M 9.875,15.375 10,15 h 0.5 0.5 v 0.5 0.5 l -0.375,0.125 Q 10.25,16.25 10,16.5 9.75,16.75 9.5,17 9.25,17.25 9.125,17.625 L 9,18 H 8.5 8 L 8.125,17.625 Q 8.25,17.25 8.5,17 8.75,16.75 8.875,16.375 L 9,16 9.375,15.875 q 0.375,-0.125 0.5,-0.5 M 9.03125,15.90625 9,16 8.90625,16.28125 8.8125,16.5625 8.875,16.375 Q 8.9375,16.1875 9,16 L 9.0625,15.8125 9.03125,15.90625 M 11,16.125 V 16 15.625 15.25 15.5 q 0,0.25 0,0.5 v 0.25 -0.125"
       id="path7605" />
    <path
       style="fill:#3c002d;fill-opacity:1"
       d="M 11,15.5 V 15 l 0.515625,0.01563 0.515625,0.01563 0.01563,-0.109375 0.01563,-0.109375 -0.03125,0.21875 Q 12,15.25 12,15.5 V 15.75 15.375 15 15.5 q 0,0.5 0,1 V 17 H 11.5 11 v -0.5 q 0,-0.5 0,-1 m 1,1.625 V 17 16.625 16.25 16.5 q 0,0.25 0,0.5 v 0.25 -0.125"
       id="path7607" />
    <path
       style="fill:#9a006f;fill-opacity:1"
       d="m 19.125,15.625 q 0.125,-0.375 0.5,-0.5 L 20,15 19.875,15.375 q -0.125,0.375 -0.5,0.5 L 19,16 19.125,15.625"
       id="path7609" />
    <path
       style="fill:#ee00e0;fill-opacity:1"
       d="M 19.875,15.375 20,15 h 0.5 0.5 l -0.125,0.375 Q 20.75,15.75 20.5,16 20.25,16.25 20,16.5 19.75,16.75 19.375,16.875 L 19,17 V 16.5 16 l 0.375,-0.125 q 0.375,-0.125 0.5,-0.5 M 18.90625,17.03125 19,17 19.28125,16.90625 19.5625,16.8125 19.375,16.875 Q 19.1875,16.9375 19,17 l -0.1875,0.0625 0.09375,-0.03125"
       id="path7611" />
    <path
       style="fill:#9a006f;fill-opacity:1"
       d="m 10,16.5 q 0.25,-0.25 0.625,-0.375 L 11,16 v 0.5 0.5 l -0.375,0.125 Q 10.25,17.25 10,17.5 9.75,17.75 9.375,17.875 L 9,18 9.125,17.625 Q 9.25,17.25 9.5,17 9.75,16.75 10,16.5 m 1,-0.125 V 16 15.875 15.75 16 q 0,0.25 0,0.5 v 0.25 -0.375"
       id="path7613" />
    <path
       style="fill:#590041;fill-opacity:1"
       d="M 17.875,16.375 18,16 17.90625,16.28125 17.8125,16.5625 17.875,16.375 Q 17.9375,16.1875 17.9375,16 V 15.8125 15.90625 16 H 18.46875 19 v 0.5 0.5 l -0.375,0.125 q -0.375,0.125 -0.5,0.5 L 18,18 18.09375,17.71875 18.1875,17.4375 18.125,17.625 q -0.0625,0.1875 -0.09375,0.40625 L 18,18.25 l 0.01563,-0.109375 0.01563,-0.109375 -0.390625,0.109375 Q 17.25,18.25 17.125,18.625 17,19 17,19.5 q 0,0.5 0,1 0,0.5 0.125,0.875 0.125,0.375 0.515625,0.515625 l 0.390625,0.140625 0.01563,-0.109375 0.01563,-0.109375 -0.03125,0.21875 Q 18,22.25 18,22.5 V 22.75 22.375 22 22.5 23 L 17.625,22.875 Q 17.25,22.75 17,22.5 16.75,22.25 16.5,22 16.25,21.75 16.125,21.375 16,21 16,20.5 16,20 15.875,19.625 15.75,19.25 15.5,19.25 q -0.25,0 -0.375,0.375 L 15,20 15.09375,19.71875 15.1875,19.4375 15.125,19.625 q -0.0625,0.1875 -0.09375,0.40625 L 15,20.25 l 0.01563,-0.109375 0.01563,-0.109375 -0.515625,-0.01563 Q 14,20 13.5,20 H 13 V 19.5 19 l 0.375,-0.125 Q 13.75,18.75 14,18.5 14.25,18.25 14.625,18.125 15,18 15.5,18 q 0.5,0 0.875,-0.125 0.375,-0.125 0.5,-0.5 L 17,17 16.90625,17.28125 16.8125,17.5625 16.875,17.375 q 0.0625,-0.1875 0.09375,-0.40625 L 17,16.75 l -0.01563,0.109375 -0.01563,0.109375 0.390625,-0.109375 Q 17.75,16.75 17.875,16.375 M 13,18.875 V 19 19.375 19.75 19.5 q 0,-0.25 0,-0.5 v -0.25 0.125 m 0,0.75 V 20 20.125 20.25 20 q 0,-0.25 0,-0.5 v -0.25 0.375 m 5,3.5 V 23 22.625 22.25 22.5 q 0,0.25 0,0.5 v 0.25 -0.125 M 18.71875,17.09375 19,17 19.09375,16.96875 19.1875,16.9375 19,17 q -0.1875,0.0625 -0.375,0.125 l -0.1875,0.0625 0.28125,-0.09375"
       id="path7615" />
    <path
       style="fill:#b4b92f;fill-opacity:1"
       d="M 21.125,16.625 Q 21.25,16.25 21.5,16.25 q 0.25,0 0.375,0.375 Q 22,17 22,17.5 q 0,0.5 -0.125,0.875 -0.125,0.375 -0.5,0.5 L 21,19 21.28125,18.90625 21.5625,18.8125 21.375,18.875 q -0.1875,0.0625 -0.28125,0.21875 L 21,19.25 l 0.04687,-0.07813 0.04687,-0.07813 -0.04687,-0.546875 Q 21,18 20.96875,17.46875 L 20.9375,16.9375 20.875,17 l -0.0625,0.0625 0.125,-0.125 q 0.125,-0.125 0.1875,-0.3125 L 21.1875,16.4375 21.09375,16.71875 21,17 21.125,16.625"
       id="path7617" />
    <path
       style="fill:#590041;fill-opacity:1"
       d="M 11,17.5 V 17 h 0.5 0.5 v 0.5 q 0,0.5 0,1 0,0.5 0,1 0,0.5 0,1 V 21 20.625 20.25 20.5 q 0,0.25 0.03125,0.46875 L 12.0625,21.1875 12.046875,21.078125 12.03125,20.96875 11.515625,20.984375 11,21 v -0.5 q 0,-0.5 0,-1 0,-0.5 0,-1 0,-0.5 0,-1 m 0,3.125 V 21 21.125 21.25 21 q 0,-0.25 0,-0.5 v -0.25 0.375 m 1,-3.25 V 17 16.875 16.75 17 q 0,0.25 0,0.5 v 0.25 -0.375"
       id="path7619" />
    <path
       style="fill:#d5db3d;fill-opacity:1"
       d="m 20.125,17.625 q 0.125,-0.375 0.5,-0.5 L 21,17 20.71875,17.09375 20.4375,17.1875 20.625,17.125 q 0.1875,-0.0625 0.3125,-0.1875 l 0.125,-0.125 L 21,16.875 l -0.0625,0.0625 0.03125,0.53125 Q 21,18 21.046875,18.546875 l 0.04687,0.546875 0.04687,-0.07813 0.04687,-0.07813 -0.09375,0.15625 Q 21,19.25 21,19.5 V 19.75 19.375 19 19.5 20 H 20.5 20 V 19.5 19 19.375 19.75 19.5 q 0,-0.25 -0.09375,-0.40625 l -0.09375,-0.15625 0.04687,0.07813 0.04687,0.07813 0.01563,-0.578125 L 19.9375,17.9375 19.875,18 l -0.0625,0.0625 0.125,-0.125 q 0.125,-0.125 0.1875,-0.3125 L 20.1875,17.4375 20.09375,17.71875 20,18 20.125,17.625 m -0.125,2 V 20 20.125 20.25 20 q 0,-0.25 0,-0.5 v -0.25 0.375 m 1,0.5 V 20 19.625 19.25 19.5 q 0,0.25 0,0.5 v 0.25 -0.125"
       id="path7621" />
    <path
       style="fill:#bc0086;fill-opacity:1"
       d="m 6.125,18.625 q 0.125,-0.375 0.5,-0.5 L 7,18 6.71875,18.09375 6.4375,18.1875 6.625,18.125 Q 6.8125,18.0625 7.03125,18.03125 L 7.25,18 7.140625,18.015625 7.03125,18.03125 6.890625,18.390625 q -0.140625,0.359375 -0.5,0.5 L 6.03125,19.03125 6.015625,19.140625 6,19.25 6.03125,19.03125 Q 6.0625,18.8125 6.125,18.625 L 6.1875,18.4375 6.09375,18.71875 6,19 6.125,18.625"
       id="path7623" />
    <path
       style="fill:#9a006f;fill-opacity:1"
       d="M 6.890625,18.390625 7.03125,18.03125 6.921875,18.046875 6.8125,18.0625 7.03125,18.03125 Q 7.25,18 7.5,18 H 7.75 7.375 7 7.5 8 L 7.875,18.375 Q 7.75,18.75 7.5,19 7.25,19.25 7,19.5 6.75,19.75 6.390625,19.859375 L 6.03125,19.96875 6.046875,20.078125 6.0625,20.1875 6.03125,19.96875 Q 6,19.75 6,19.5 V 19.25 19.625 20 19.5 19 19.375 19.75 19.5 Q 6,19.25 6.03125,19.03125 L 6.0625,18.8125 6.046875,18.921875 6.03125,19.03125 6.390625,18.890625 q 0.359375,-0.140625 0.5,-0.5"
       id="path7625" />
    <path
       style="fill:#590041;fill-opacity:1"
       d="M 7.875,18.375 8,18 H 8.5 9 L 8.875,18.375 Q 8.75,18.75 8.5,19 8.25,19.25 8.125,19.625 L 8,20 7.625,20.125 Q 7.25,20.25 7.125,20.59375 L 7,20.9375 H 7.09375 7.1875 7 q -0.1875,0 -0.375,-0.0625 L 6.4375,20.8125 6.71875,20.90625 7,21 6.625,20.875 Q 6.25,20.75 6.125,20.375 L 6,20 6.09375,20.28125 6.1875,20.5625 6.125,20.375 Q 6.0625,20.1875 6.03125,19.96875 L 6,19.75 6.015625,19.859375 6.03125,19.96875 6.390625,19.859375 Q 6.75,19.75 7,19.5 7.25,19.25 7.5,19 7.75,18.75 7.875,18.375 M 7.96875,20.09375 8,20 8.09375,19.71875 8.1875,19.4375 8.125,19.625 Q 8.0625,19.8125 8,20 l -0.0625,0.1875 0.03125,-0.09375"
       id="path7627" />
    <path
       style="fill:#bc0086;fill-opacity:1"
       d="M 17.125,18.625 Q 17.25,18.25 17.640625,18.140625 L 18.03125,18.03125 18.046875,17.921875 18.0625,17.8125 18.03125,18.03125 Q 18,18.25 18,18.5 V 18.75 18.375 18 18.5 q 0,0.5 0,1 0,0.5 -0.125,0.875 -0.125,0.375 -0.484375,0.484375 l -0.359375,0.109375 0.01563,0.109375 0.01563,0.109375 -0.03125,-0.21875 Q 17,20.75 17,20.5 V 20.25 20.625 21 20.5 q 0,-0.5 0,-1 0,-0.5 0.125,-0.875"
       id="path7629" />
    <path
       style="fill:#b4b92f;fill-opacity:1"
       d="m 19.25,18.5 q 0,-0.25 0.375,-0.375 L 20,18 19.71875,18.09375 19.4375,18.1875 19.625,18.125 q 0.1875,-0.0625 0.3125,-0.1875 l 0.125,-0.125 L 20,17.875 l -0.0625,0.0625 -0.01563,0.578125 -0.01563,0.578125 0.04687,0.07813 L 20,19.25 19.90625,19.09375 Q 19.8125,18.9375 19.625,18.875 L 19.4375,18.8125 19.71875,18.90625 20,19 19.625,18.875 Q 19.25,18.75 19.25,18.5"
       id="path7631" />
    <path
       style="fill:#3c002d;fill-opacity:1"
       d="M 15.125,19.625 Q 15.25,19.25 15.5,19.25 q 0.25,0 0.375,0.375 Q 16,20 16,20.5 16,21 16.125,21.375 16.25,21.75 16.5,22 q 0.25,0.25 0.5,0.5 0.25,0.25 0.625,0.375 L 18,23 v 0.5 q 0,0.5 0,1 V 25 24.625 24.25 24.5 q 0,0.25 0.03125,0.46875 L 18.0625,25.1875 18.046875,25.078125 18.03125,24.96875 17.640625,24.859375 Q 17.25,24.75 17.125,24.375 17,24 16.875,23.625 16.75,23.25 16.5,23 16.25,22.75 16,22.5 15.75,22.25 15.5,22 15.25,21.75 15.125,21.375 15,21 15,20.5 15,20 15.125,19.625 M 18,23.375 V 23 22.875 22.75 23 q 0,0.25 0,0.5 v 0.25 -0.375"
       id="path7633" />
    <path
       style="fill:#9a006f;fill-opacity:1"
       d="M 18,19.5 V 19 l 0.375,0.125 q 0.375,0.125 0.5,0.5 Q 19,20 19,20.5 V 21 l -0.375,0.125 q -0.375,0.125 -0.5,0.5 L 18,22 18.09375,21.71875 18.1875,21.4375 18.125,21.625 q -0.0625,0.1875 -0.09375,0.40625 L 18,22.25 18.015625,22.140625 18.03125,22.03125 17.640625,21.890625 Q 17.25,21.75 17.125,21.375 L 17,21 17.09375,21.28125 17.1875,21.5625 17.125,21.375 Q 17.0625,21.1875 17.03125,20.96875 L 17,20.75 l 0.01563,0.109375 0.01563,0.109375 0.359375,-0.109375 Q 17.75,20.75 17.875,20.375 18,20 18,19.5 m 1,1.625 V 21 20.625 20.25 20.5 q 0,0.25 0,0.5 v 0.25 -0.125 m -1,-2.25 V 19 19.375 19.75 19.5 q 0,-0.25 0,-0.5 v -0.25 0.125"
       id="path7635" />
    <path
       style="fill:#3c002d;fill-opacity:1"
       d="M 7.125,20.59375 Q 7.25,20.25 7.625,20.125 L 8,20 7.875,20.375 q -0.125,0.375 -0.5,0.5 L 7,21 7.28125,20.90625 7.5625,20.8125 7.375,20.875 Q 7.1875,20.9375 7,20.9375 H 6.8125 6.90625 7 L 7.125,20.59375 M 7.90625,20.28125 8,20 8.03125,19.90625 8.0625,19.8125 8,20 q -0.0625,0.1875 -0.125,0.375 l -0.0625,0.1875 0.09375,-0.28125"
       id="path7637" />
    <path
       style="fill:#3c002d;fill-opacity:1"
       d="M 13,20.5 V 20 h 0.5 0.5 v 0.5 q 0,0.5 0,1 V 22 H 13.5 13 v -0.5 q 0,-0.5 0,-1 m 1,1.625 V 22 21.625 21.25 21.5 q 0,0.25 0,0.5 v 0.25 -0.125 M 14.125,20 H 14 13.625 13.25 13.5 q 0.25,0 0.5,0 h 0.25 -0.125 M 13,19.875 V 20 20.375 20.75 20.5 q 0,-0.25 0,-0.5 v -0.25 0.125"
       id="path7639" />
    <path
       style="fill:#b4b92f;fill-opacity:1"
       d="M 20,20.5 V 20 h 0.5 0.5 v 0.5 Q 21,21 20.875,21.375 20.75,21.75 20.5,21.75 20.25,21.75 20.125,21.375 20,21 20,20.5 m 1,-0.125 V 20 19.875 19.75 20 q 0,0.25 0,0.5 v 0.25 -0.375 m -1,-0.5 V 20 20.375 20.75 20.5 q 0,-0.25 0,-0.5 v -0.25 0.125"
       id="path7641" />
    <path
       style="fill:#9a006f;fill-opacity:1"
       d="M 11,21.5 V 21 l 0.515625,-0.01563 0.515625,-0.01563 -0.01563,-0.109375 L 12,20.75 12.03125,20.96875 Q 12.0625,21.1875 12.125,21.375 L 12.1875,21.5625 12.09375,21.28125 12,21 l 0.125,0.375 q 0.125,0.375 0.5,0.5 L 13,22 V 22.5 23 22.625 22.25 22.5 q 0,0.25 -0.03125,0.46875 l -0.03125,0.21875 0.01563,-0.109375 0.01563,-0.109375 -0.359375,-0.109375 Q 12.25,22.75 12,22.5 11.75,22.25 11.375,22.125 L 11,22 v -0.5 m 0,0.125 V 22 22.125 22.25 22 q 0,-0.25 0,-0.5 v -0.25 0.375 m 0,-0.75 V 21 21.375 21.75 21.5 q 0,-0.25 0,-0.5 v -0.25 0.125"
       id="path7643" />
    <path
       style="fill:#bc0086;fill-opacity:1"
       d="m 18.125,21.625 q 0.125,-0.375 0.5,-0.5 L 19,21 v 0.5 Q 19,22 19.125,22.375 19.25,22.75 19.5,23 19.75,23.25 19.875,23.625 20,24 20,24.5 q 0,0.5 0,1 0,0.5 0.125,0.875 0.125,0.375 0.5,0.5 L 21,27 v 0.5 q 0,0.5 0,1 0,0.5 0,1 V 30 l -0.484375,-0.01563 -0.484375,-0.01563 0.01563,0.109375 0.01563,0.109375 -0.03125,-0.21875 Q 20,29.75 20,29.5 V 29.25 29.625 30 29.5 q 0,-0.5 0,-1 0,-0.5 -0.125,-0.875 -0.125,-0.375 -0.5,-0.5 L 19,27 v -0.5 q 0,-0.5 0,-1 0,-0.5 -0.125,-0.875 -0.125,-0.375 -0.5,-0.5 L 18,24 v -0.5 q 0,-0.5 0,-1 0,-0.5 0.125,-0.875 m -0.125,2 V 24 24.125 24.25 24 q 0,-0.25 0,-0.5 v -0.25 0.375 m 1,3 V 27 27.125 27.25 27 q 0,-0.25 0,-0.5 v -0.25 0.375 M 20.625,30 H 21 21.125 21.25 21 q -0.25,0 -0.5,0 h -0.25 0.375 M 21,27.375 V 27 26.875 26.75 27 q 0,0.25 0,0.5 v 0.25 -0.375 m -2,-6 V 21 20.875 20.75 21 q 0,0.25 0,0.5 v 0.25 -0.375"
       id="path7645" />
    <path
       style="fill:#bc0086;fill-opacity:1"
       d="M 11,22.5 V 22 l 0.375,0.125 Q 11.75,22.25 12,22.5 q 0.25,0.25 0.609375,0.359375 L 12.96875,22.96875 12.984375,22.859375 13,22.75 12.96875,22.96875 Q 12.9375,23.1875 12.875,23.375 L 12.8125,23.5625 12.90625,23.28125 13,23 12.875,23.375 q -0.125,0.375 -0.5,0.5 L 12,24 11.875,23.625 Q 11.75,23.25 11.390625,23.109375 L 11.03125,22.96875 11.046875,23.078125 11.0625,23.1875 11.03125,22.96875 Q 11,22.75 11,22.5 V 22.25 22.625 23 22.5 m 0,-0.625 V 22 22.375 22.75 22.5 q 0,-0.25 0,-0.5 v -0.25 0.125"
       id="path7647" />
    <path
       style="fill:#590041;fill-opacity:1"
       d="M 13,22.5 V 22 h 0.5 0.5 v 0.5 q 0,0.5 0,1 V 24 l -0.375,0.125 q -0.375,0.125 -0.5,0.5 Q 13,25 13,25.5 V 26 H 12.5 12 v -0.5 q 0,-0.5 0,-1 V 24 l 0.375,-0.125 q 0.375,-0.125 0.5,-0.5 Q 13,23 13,22.5 m -1,3.125 V 26 26.125 26.25 26 q 0,-0.25 0,-0.5 v -0.25 0.375 m 1,0.5 V 26 25.625 25.25 25.5 q 0,0.25 0,0.5 v 0.25 -0.125 m 1,-2 V 24 23.625 23.25 23.5 q 0,0.25 0,0.5 v 0.25 -0.125 m 0,-1.75 V 22 21.875 21.75 22 q 0,0.25 0,0.5 v 0.25 -0.375"
       id="path7649" />
    <path
       style="fill:#3c002d;fill-opacity:1"
       d="M 11.125,23.375 11,23 11.09375,23.28125 11.1875,23.5625 11.125,23.375 Q 11.0625,23.1875 11.03125,22.96875 L 11,22.75 l 0.01563,0.109375 0.01563,0.109375 0.359375,0.140625 Q 11.75,23.25 11.875,23.625 L 12,24 11.625,23.875 q -0.375,-0.125 -0.5,-0.5"
       id="path7651" />
    <path
       style="fill:#3c002d;fill-opacity:1"
       d="m 13.125,24.625 q 0.125,-0.375 0.5,-0.5 L 14,24 v 0.5 q 0,0.5 0,1 0,0.5 0,1 0,0.5 -0.125,0.875 -0.125,0.375 -0.5,0.5 L 13,28 v -0.5 q 0,-0.5 0,-1 0,-0.5 0,-1 0,-0.5 0.125,-0.875 m -0.125,3 V 28 28.125 28.25 28 q 0,-0.25 0,-0.5 v -0.25 0.375 m 1,-3.25 V 24 23.875 23.75 24 q 0,0.25 0,0.5 v 0.25 -0.375"
       id="path7653" />
    <path
       style="fill:#9a006f;fill-opacity:1"
       d="M 18,24.5 V 24 l 0.375,0.125 q 0.375,0.125 0.5,0.5 Q 19,25 19,25.5 V 26 L 18.625,25.875 Q 18.25,25.75 18.125,25.375 18,25 18,24.5 m 1,1.625 V 26 25.625 25.25 25.5 q 0,0.25 0,0.5 v 0.25 -0.125 m -1,-2.25 V 24 24.375 24.75 24.5 q 0,-0.25 0,-0.5 v -0.25 0.125"
       id="path7655" />
    <path
       style="fill:#3c002d;fill-opacity:1"
       d="M 20,25.5 V 25 l 0.375,0.125 q 0.375,0.125 0.5,0.5 L 21,26 20.90625,25.71875 20.8125,25.4375 20.875,25.625 q 0.0625,0.1875 0.09375,0.40625 L 21,26.25 20.984375,26.140625 20.96875,26.03125 20.5,26 20.03125,25.96875 20.046875,26.078125 20.0625,26.1875 20.03125,25.96875 Q 20,25.75 20,25.5 V 25.25 25.625 26 25.5 m 0,-0.625 V 25 25.375 25.75 25.5 q 0,-0.25 0,-0.5 v -0.25 0.125"
       id="path7657" />
    <path
       style="fill:#bc0086;fill-opacity:1"
       d="M 12,26.5 V 26 h 0.5 0.5 v 0.5 q 0,0.5 0,1 0,0.5 0,1 V 29 l -0.375,0.125 q -0.375,0.125 -0.5,0.5 L 12,30 12.09375,29.71875 12.1875,29.4375 12.125,29.625 q -0.0625,0.1875 -0.09375,0.40625 L 12,30.25 l 0.01563,-0.109375 0.01563,-0.109375 -0.390625,0.109375 Q 11.25,30.25 11.140625,30.609375 L 11.03125,30.96875 11.140625,30.984375 11.25,31 11.03125,30.96875 Q 10.8125,30.9375 10.625,30.875 L 10.4375,30.8125 10.71875,30.90625 11,31 10.625,30.875 Q 10.25,30.75 10.25,30.5 10.25,30.25 10.5,30 10.75,29.75 11,29.5 11.25,29.25 11.5,29 11.75,28.75 11.875,28.375 12,28 12,27.5 q 0,-0.5 0,-1 m 1,2.625 V 29 28.625 28.25 28.5 q 0,0.25 0,0.5 v 0.25 -0.125 m 0,-2.75 V 26 25.875 25.75 26 q 0,0.25 0,0.5 v 0.25 -0.375 m -1,-0.5 V 26 26.375 26.75 26.5 q 0,-0.25 0,-0.5 v -0.25 0.125"
       id="path7659" />
    <path
       style="fill:#000000;fill-opacity:0"
       d="m 17,26.5 q 0,-0.5 0.375,-0.375 0.375,0.125 0.5,0.5 Q 18,27 17.5,27 H 17 v -0.5"
       id="path7661" />
    <path
       style="fill:#590041;fill-opacity:1"
       d="M 20.125,26.375 20,26 20.09375,26.28125 20.1875,26.5625 20.125,26.375 Q 20.0625,26.1875 20.03125,25.96875 L 20,25.75 20.015625,25.859375 20.03125,25.96875 20.5,26 20.96875,26.03125 20.953125,25.921875 20.9375,25.8125 20.96875,26.03125 Q 21,26.25 21,26.5 V 26.75 26.375 26 26.5 27 l -0.375,-0.125 q -0.375,-0.125 -0.5,-0.5 M 21,27.125 V 27 26.625 26.25 26.5 q 0,0.25 0,0.5 v 0.25 -0.125"
       id="path7663" />
    <path
       style="fill:#000000;fill-opacity:0"
       d="M 16,27.5 Q 16,27 16.5,27 H 17 v 0.5 Q 17,28 16.5,28 H 16 v -0.5"
       id="path7665" />
    <path
       style="fill:#9a006f;fill-opacity:1"
       d="M 19,27.5 V 27 l 0.375,0.125 q 0.375,0.125 0.5,0.5 L 20,28 19.90625,27.71875 19.8125,27.4375 19.875,27.625 q 0.0625,0.1875 0.09375,0.40625 L 20,28.25 19.984375,28.140625 19.96875,28.03125 19.5,28 19.03125,27.96875 19.046875,28.078125 19.0625,28.1875 19.03125,27.96875 Q 19,27.75 19,27.5 V 27.25 27.625 28 27.5 m 0,-0.625 V 27 27.375 27.75 27.5 q 0,-0.25 0,-0.5 v -0.25 0.125"
       id="path7667" />
    <path
       style="fill:#000000;fill-opacity:0"
       d="m 14.125,28.625 q 0.125,-0.375 0.5,-0.5 Q 15,28 15.5,28 H 16 v 0.5 Q 16,29 15.5,29 15,29 15,29.5 15,30 14.5,30 14,30 14,29.5 14,29 14.125,28.625"
       id="path7669" />
    <path
       style="fill:#3c002d;fill-opacity:1"
       d="M 19.125,28.375 19,28 19.09375,28.28125 19.1875,28.5625 19.125,28.375 Q 19.0625,28.1875 19.03125,27.96875 L 19,27.75 19.015625,27.859375 19.03125,27.96875 19.5,28 19.96875,28.03125 19.953125,27.921875 19.9375,27.8125 19.96875,28.03125 Q 20,28.25 20,28.5 V 28.75 28.375 28 28.5 29 l -0.375,-0.125 q -0.375,-0.125 -0.5,-0.5 M 20,29.125 V 29 28.625 28.25 28.5 q 0,0.25 0,0.5 v 0.25 -0.125"
       id="path7671" />
    <path
       style="fill:#590041;fill-opacity:1"
       d="m 12.125,29.625 q 0.125,-0.375 0.5,-0.5 L 13,29 v 0.5 q 0,0.5 -0.125,0.875 -0.125,0.375 -0.5,0.5 L 12,31 12.28125,30.90625 12.5625,30.8125 12.375,30.875 q -0.1875,0.0625 -0.40625,0.09375 L 11.75,31 l 0.109375,-0.01563 0.109375,-0.01563 0.01563,-0.484375 Q 12,30 12.125,29.625 M 13,29.375 V 29 28.875 28.75 29 q 0,0.25 0,0.5 v 0.25 -0.375"
       id="path7673" />
    <path
       style="fill:#9a006f;fill-opacity:1"
       d="M 21,29.5 V 29 H 21.5 22 21.625 21.25 21.5 q 0.25,0 0.46875,0.03125 l 0.21875,0.03125 -0.109375,-0.01563 -0.109375,-0.01563 v 0.5 0.5 l 0.109375,0.01563 0.109375,0.01563 -0.21875,-0.03125 Q 21.75,30 21.5,30 H 21.25 21.625 22 21.5 21 V 29.5 M 20.875,30 H 21 21.375 21.75 21.5 q -0.25,0 -0.5,0 h -0.25 0.125 M 21,28.875 V 29 29.375 29.75 29.5 q 0,-0.25 0,-0.5 v -0.25 0.125"
       id="path7675" />
    <path
       style="fill:#bc0086;fill-opacity:1"
       d="m 21.96875,29.53125 v -0.5 L 21.859375,29.015625 21.75,29 21.96875,29.03125 Q 22.1875,29.0625 22.375,29.125 L 22.5625,29.1875 22.28125,29.09375 22,29 22.375,29.125 Q 22.75,29.25 23,29.5 q 0.25,0.25 0.5,0.5 0.25,0.25 0.25,0.5 0,0.25 -0.375,0.375 L 23,31 23.28125,30.90625 23.5625,30.8125 23.375,30.875 q -0.1875,0.0625 -0.40625,0.09375 L 22.75,31 22.859375,30.984375 22.96875,30.96875 22.859375,30.609375 Q 22.75,30.25 22.375,30.125 L 22,30 22.28125,30.09375 22.5625,30.1875 22.375,30.125 Q 22.1875,30.0625 21.96875,30.03125 L 21.75,30 l 0.109375,0.01563 0.109375,0.01563 v -0.5"
       id="path7677" />
    <path
       style="fill:#9a006f;fill-opacity:1"
       d="M 11.140625,30.609375 Q 11.25,30.25 11.640625,30.140625 L 12.03125,30.03125 12.046875,29.921875 12.0625,29.8125 12.03125,30.03125 Q 12,30.25 12,30.5 V 30.75 30.375 30 l -0.01563,0.484375 -0.01563,0.484375 0.109375,-0.01563 0.109375,-0.01563 -0.21875,0.03125 Q 11.75,31 11.5,31 H 11.25 11.625 12 11.5 11 11.375 11.75 11.5 q -0.25,0 -0.46875,-0.03125 l -0.21875,-0.03125 0.109375,0.01563 0.109375,0.01563 0.109375,-0.359375"
       id="path7679" />
    <path
       style="fill:#000000;fill-opacity:0"
       d="m 17,30.5 q 0,-0.5 0.5,-0.5 0.5,0 1,0 0.5,0 0.5,0.5 0,0.5 0.375,0.625 0.375,0.125 0.5,0.5 L 20,32 H 19.5 19 18.5 18 17.5 17 16.5 16 V 31.5 Q 16,31 16.5,31 17,31 17,30.5"
       id="path7681" />
    <path
       style="fill:#3c002d;fill-opacity:1"
       d="M 20.125,30.375 20,30 20.09375,30.28125 20.1875,30.5625 20.125,30.375 Q 20.0625,30.1875 20.03125,29.96875 L 20,29.75 l 0.01563,0.109375 0.01563,0.109375 0.484375,0.01563 Q 21,30 21.5,30 q 0.5,0 0.875,0.125 0.375,0.125 0.484375,0.484375 l 0.109375,0.359375 0.109375,-0.01563 0.109375,-0.01563 -0.21875,0.03125 Q 22.75,31 22.5,31 H 22.25 22.625 23 22.5 q -0.5,0 -1,0 -0.5,0 -0.875,-0.125 -0.375,-0.125 -0.5,-0.5"
       id="path7683" />
    <path
       style="fill:#000000;fill-opacity:0"
       d="m 13.125,31.625 q 0.125,-0.375 0.5,-0.5 Q 14,31 14,31.5 V 32 H 13.5 13 l 0.125,-0.375"
       id="path7685" />
  </g>
</svg>
