<?xml version="1.0" encoding="UTF-8" standalone="no"?>
<!-- Created with Inkscape (http://www.inkscape.org/) -->

<svg
   xmlns:dc="http://purl.org/dc/elements/1.1/"
   xmlns:cc="http://creativecommons.org/ns#"
   xmlns:rdf="http://www.w3.org/1999/02/22-rdf-syntax-ns#"
   xmlns:svg="http://www.w3.org/2000/svg"
   xmlns="http://www.w3.org/2000/svg"
   xmlns:sodipodi="http://sodipodi.sourceforge.net/DTD/sodipodi-0.dtd"
   xmlns:inkscape="http://www.inkscape.org/namespaces/inkscape"
   version="1.1"
   id="svg1703"
   width="32"
   height="32"
   viewBox="0 0 32 32"
   sodipodi:docname="weakling.svg"
   inkscape:version="0.92.5 (2060ec1f9f, 2020-04-08)">
  <metadata
     id="metadata1709">
    <rdf:RDF>
      <cc:Work
         rdf:about="">
        <dc:format>image/svg+xml</dc:format>
        <dc:type
           rdf:resource="http://purl.org/dc/dcmitype/StillImage" />
        <dc:title></dc:title>
      </cc:Work>
    </rdf:RDF>
  </metadata>
  <defs
     id="defs1707" />
  <sodipodi:namedview
     pagecolor="#ffffff"
     bordercolor="#666666"
     borderopacity="1"
     objecttolerance="10"
     gridtolerance="10"
     guidetolerance="10"
     inkscape:pageopacity="0"
     inkscape:pageshadow="2"
     inkscape:window-width="1920"
     inkscape:window-height="1118"
     id="namedview1705"
     showgrid="false"
     inkscape:zoom="7.375"
     inkscape:cx="-6.0338983"
     inkscape:cy="16"
     inkscape:window-x="0"
     inkscape:window-y="24"
     inkscape:window-maximized="1"
     inkscape:current-layer="svg1703" />
  <g
     transform="translate(0 0)"
     id="g1995">
    <path
       style="fill:#000000;fill-opacity:0"
       d="M 0,0.5 V 0 H 0.5 1 1.5 2 2.5 3 3.5 4 4.5 5 5.5 6 6.5 7 7.5 8 8.5 9 9.5 10 10.5 11 11.5 12 12.5 13 13.5 14 14.5 15 15.5 16 16.5 17 17.5 18 18.5 19 19.5 20 20.5 21 21.5 22 22.5 23 23.5 24 24.5 25 25.5 26 26.5 27 27.5 28 28.5 29 29.5 30 30.5 31 31.5 32 V 0.5 1 1.5 2 2.5 3 3.5 4 4.5 5 5.5 6 6.5 7 7.5 8 8.5 9 9.5 10 10.5 11 11.5 12 12.5 13 13.5 14 14.5 15 15.5 16 16.5 17 17.5 18 18.5 19 19.5 20 20.5 21 21.5 22 22.5 23 23.5 24 24.5 25 25.5 26 26.5 27 27.5 28 28.5 29 29.5 30 30.5 31 31.5 32 H 31.5 31 30.5 30 29.5 29 28.5 28 27.5 27 26.5 26 25.5 25 24.5 24 l 0.125,-0.375 q 0.125,-0.375 0.5,-0.5 Q 25,31 25,30.5 25,30 25,29.5 25,29 25.5,29 26,29 26,28.5 26,28 26.5,28 27,28 27,27.5 27,27 27,26.5 27,26 27,25.5 27,25 26.5,25 26,25 26,24.5 26,24 25.5,24 q -0.5,0 -1,0 -0.5,0 -1,0 -0.5,0 -0.5,-0.5 0,-0.5 0,-1 0,-0.5 0,-1 0,-0.5 0.375,-0.375 0.375,0.125 0.5,0.5 Q 24,22 24.5,22 q 0.5,0 1,0 0.5,0 1,0 0.5,0 0.625,-0.375 0.125,-0.375 0.5,-0.5 Q 28,21 28,20.5 q 0,-0.5 0,-1 0,-0.5 0,-1 0,-0.5 0,-1 0,-0.5 -0.375,-0.625 -0.375,-0.125 -0.5,-0.5 Q 27,16 26.625,15.875 26.25,15.75 26.125,15.375 26,15 25.625,14.875 25.25,14.75 25.125,14.375 25,14 24.625,13.875 24.25,13.75 24.125,13.375 24,13 23.625,12.875 23.25,12.75 23.125,12.375 23,12 22.5,12 22,12 22,11.5 22,11 22,10.5 22,10 22,9.5 22,9 22,8.5 22,8 22,7.5 22,7 21.625,6.875 21.25,6.75 21.125,6.375 21,6 20.625,5.875 20.25,5.75 20.125,5.375 20,5 19.5,5 19,5 18.5,5 18,5 17.5,5 17,5 16.5,5 16,5 15.5,5 15,5 14.5,5 14,5 13.875,5.375 13.75,5.75 13.375,5.875 13,6 12.875,6.375 12.75,6.75 12.375,6.875 12,7 12,7.5 q 0,0.5 0,1 0,0.5 0,1 0,0.5 0,1 0,0.5 -0.125,0.875 -0.125,0.375 -0.5,0.5 Q 11,12 11,12.5 11,13 10.5,13 10,13 9.875,13.375 9.75,13.75 9.375,13.875 9,14 8.5,14 8,14 7.875,14.375 7.75,14.75 7.375,14.875 7,15 6.875,15.375 6.75,15.75 6.375,15.875 6,16 5.875,16.375 5.75,16.75 5.375,16.875 5,17 4.875,17.375 4.75,17.75 4.375,17.875 4,18 4,18.5 q 0,0.5 0,1 0,0.5 0,1 0,0.5 0.375,0.625 0.375,0.125 0.5,0.5 Q 5,22 5.5,22 q 0.5,0 1,0 0.5,0 1,0 0.5,0 0.625,-0.375 0.125,-0.375 0.5,-0.5 Q 9,21 9,20.5 9,20 9.125,19.625 9.25,19.25 9.625,19.125 10,19 10.5,19 q 0.5,0 0.625,-0.375 0.125,-0.375 0.5,-0.5 Q 12,18 12,18.5 q 0,0.5 0,1 0,0.5 0.375,0.625 0.375,0.125 0.375,0.375 0,0.25 -0.375,0.375 Q 12,21 12,21.5 q 0,0.5 -0.125,0.875 -0.125,0.375 -0.5,0.5 Q 11,23 11,23.5 q 0,0.5 -0.125,0.875 -0.125,0.375 -0.5,0.5 Q 10,25 10,25.5 q 0,0.5 0,1 0,0.5 0.375,0.625 0.375,0.125 0.5,0.5 Q 11,28 11,28.5 11,29 10.5,29 10,29 9.875,29.375 9.75,29.75 9.375,29.875 9,30 9,30.5 q 0,0.5 0.375,0.625 0.375,0.125 0.5,0.5 L 10,32 H 9.5 9 8.5 8 7.5 7 6.5 6 5.5 5 4.5 4 3.5 3 2.5 2 1.5 1 0.5 0 V 31.5 31 30.5 30 29.5 29 28.5 28 27.5 27 26.5 26 25.5 25 24.5 24 23.5 23 22.5 22 21.5 21 20.5 20 19.5 19 18.5 18 17.5 17 16.5 16 15.5 15 14.5 14 13.5 13 12.5 12 11.5 11 10.5 10 9.5 9 8.5 8 7.5 7 6.5 6 5.5 5 4.5 4 3.5 3 2.5 2 1.5 1 0.5"
       id="path1713" />
    <path
       style="fill:#000000;fill-opacity:1"
       d="M 13.875,5.375 Q 14,5 14.5,5 q 0.5,0 1,0 0.5,0 1,0 0.5,0 1,0 0.5,0 1,0 0.5,0 1,0 0.5,0 0.625,0.375 0.125,0.375 0.5,0.5 0.375,0.125 0.5,0.5 0.125,0.375 0.5,0.5 Q 22,7 22,7.5 q 0,0.5 0,1 0,0.5 0,1 0,0.5 0,1 0,0.5 0,1 0,0.5 0.5,0.5 0.5,0 0.625,0.375 0.125,0.375 0.5,0.5 0.375,0.125 0.5,0.5 0.125,0.375 0.5,0.5 0.375,0.125 0.5,0.5 0.125,0.375 0.5,0.5 0.375,0.125 0.5,0.5 0.125,0.375 0.5,0.5 0.375,0.125 0.5,0.5 0.125,0.375 0.5,0.5 Q 28,17 28,17.5 q 0,0.5 0,1 0,0.5 0,1 0,0.5 0,1 0,0.5 -0.375,0.625 -0.375,0.125 -0.5,0.5 Q 27,22 26.5,22 q -0.5,0 -1,0 -0.5,0 -1,0 -0.5,0 -0.625,-0.375 -0.125,-0.375 -0.5,-0.5 Q 23,21 23,21.5 q 0,0.5 0,1 0,0.5 0,1 0,0.5 0.5,0.5 0.5,0 1,0 0.5,0 1,0 0.5,0 0.5,0.5 0,0.5 0.5,0.5 0.5,0 0.5,0.5 0,0.5 0,1 0,0.5 0,1 Q 27,28 26.5,28 26,28 26,28.5 26,29 25.5,29 25,29 25,29.5 q 0,0.5 0,1 0,0.5 -0.375,0.625 -0.375,0.125 -0.5,0.5 L 24,32 H 23.5 23 22.5 22 21.5 21 20.5 20 19.5 19 18.5 18 V 31.5 Q 18,31 17.5,31 17,31 17,31.5 V 32 H 16.5 16 15.5 15 14.5 14 13.5 13 12.5 12 11.5 11 10.5 10 L 9.875,31.625 Q 9.75,31.25 9.375,31.125 9,31 9,30.5 9,30 9.375,29.875 9.75,29.75 9.875,29.375 10,29 10.5,29 11,29 11,28.5 11,28 10.875,27.625 10.75,27.25 10.375,27.125 10,27 10,26.5 q 0,-0.5 0,-1 0,-0.5 0.375,-0.625 0.375,-0.125 0.5,-0.5 Q 11,24 11,23.5 11,23 11.375,22.875 11.75,22.75 11.875,22.375 12,22 12,21.5 12,21 12.375,20.875 12.75,20.75 12.75,20.5 12.75,20.25 12.375,20.125 12,20 12,19.5 q 0,-0.5 0,-1 0,-0.5 -0.375,-0.375 -0.375,0.125 -0.5,0.5 Q 11,19 10.5,19 10,19 9.625,19.125 9.25,19.25 9.125,19.625 9,20 9,20.5 9,21 8.625,21.125 8.25,21.25 8.125,21.625 8,22 7.5,22 7,22 6.5,22 6,22 5.5,22 5,22 4.875,21.625 4.75,21.25 4.375,21.125 4,21 4,20.5 4,20 4,19.5 4,19 4,18.5 4,18 4.375,17.875 4.75,17.75 4.875,17.375 5,17 5.375,16.875 5.75,16.75 5.875,16.375 6,16 6.375,15.875 6.75,15.75 6.875,15.375 7,15 7.375,14.875 7.75,14.75 7.875,14.375 8,14 8.5,14 9,14 9.375,13.875 9.75,13.75 9.875,13.375 10,13 10.5,13 11,13 11,12.5 11,12 11.375,11.875 11.75,11.75 11.875,11.375 12,11 12,10.5 12,10 12,9.5 12,9 12,8.5 12,8 12,7.5 12,7 12.375,6.875 12.75,6.75 12.875,6.375 13,6 13.375,5.875 q 0.375,-0.125 0.5,-0.5 m 1.75,22.5 Q 16,28 16,27.5 V 27 l -0.375,0.125 Q 15.25,27.25 15.25,27.5 q 0,0.25 0.375,0.375 M 16,26.5 V 27 h 0.5 q 0.5,0 1,0 0.5,0 0.5,-0.5 0,-0.5 -0.125,-0.875 -0.125,-0.375 -0.5,-0.5 -0.375,-0.125 -0.75,0 -0.375,0.125 -0.5,0.5 Q 16,26 16,26.5 m 6.5,4.5 q 0.5,0 0.875,-0.125 0.375,-0.125 0.5,-0.5 Q 24,30 24,29.5 24,29 23.875,28.625 23.75,28.25 23.5,28 23.25,27.75 23.125,27.375 L 23,27 22.875,26.625 Q 22.75,26.25 22.5,26 22.25,25.75 22.125,25.375 22,25 22,24.5 V 24 23.5 q 0,-0.5 0,-1 V 22 21.5 21 L 21.875,20.625 Q 21.75,20.25 21.5,20 q -0.25,-0.25 -0.25,-0.5 0,-0.25 0.25,-0.5 0.25,-0.25 0.375,-0.625 L 22,18 21.90625,18.28125 21.8125,18.5625 21.875,18.375 Q 21.9375,18.1875 21.9375,18 V 17.8125 17.90625 18 h 0.53125 Q 23,18 23.5,18 24,18 24,18.5 V 19 19.5 20 l 0.125,0.375 q 0.125,0.375 0.5,0.5 L 25,21 h 0.5 q 0.5,0 0.875,-0.125 0.375,-0.125 0.5,-0.5 Q 27,20 27,19.5 V 19 18.5 Q 27,18 26.875,17.625 26.75,17.25 26.5,17 26.25,16.75 26,16.5 25.75,16.25 25.5,16 25.25,15.75 25,15.5 24.75,15.25 24.5,15 24.25,14.75 24,14.5 23.75,14.25 23.5,14 23.25,13.75 23,13.5 22.75,13.25 22.375,13.125 22,13 21.625,12.875 21.25,12.75 21.125,12.375 21,12 21,11.5 q 0,-0.5 0,-1 0,-0.5 0,-1 V 9 8.5 8 L 20.875,7.625 Q 20.75,7.25 20.5,7 20.25,6.75 20,6.5 19.75,6.25 19.375,6.125 L 19,6 H 18.5 Q 18,6 17.5,6 H 17 16.5 16 15.5 Q 15,6 14.625,6.125 14.25,6.25 14.125,6.625 14,7 13.625,7.125 13.25,7.25 13.125,7.625 L 13,8 v 0.5 q 0,0.5 0,1 0,0.5 0,1 V 11 l -0.125,0.375 Q 12.75,11.75 12.5,12 12.25,12.25 12.125,12.625 12,13 11.875,13.375 q -0.125,0.375 -0.5,0.5 L 11,14 10.625,14.125 Q 10.25,14.25 10,14.5 9.75,14.75 9.375,14.875 9,15 8.625,15.125 8.25,15.25 8,15.5 7.75,15.75 7.5,16 7.25,16.25 7,16.5 6.75,16.75 6.5,17 6.25,17.25 6.125,17.625 6,18 5.625,18.125 5.25,18.25 5.125,18.625 L 5,19 v 0.5 0.5 l 0.125,0.375 q 0.125,0.375 0.5,0.5 Q 6,21 6.5,21 H 7 L 7.375,20.875 Q 7.75,20.75 7.875,20.375 8,20 8,19.5 V 19 L 8.375,18.875 Q 8.75,18.75 9,18.5 9.25,18.25 9.625,18.125 10,18 10.375,17.875 10.75,17.75 11,17.5 11.25,17.25 11.6875,17.0625 L 12.125,16.875 12.0625,16.8125 12,16.75 12.125,16.875 Q 12.25,17 12.5,17 H 12.75 12.375 12 12.5 13 v 0.5 0.5 l 0.0625,0.5625 0.0625,0.5625 0.0625,-0.0625 L 13.25,19 13.125,19.125 Q 13,19.25 13,19.5 V 19.75 19.375 19 l 0.125,0.375 Q 13.25,19.75 13.5,20 q 0.25,0.25 0.25,0.5 0,0.25 -0.25,0.5 -0.25,0.25 -0.375,0.625 Q 13,22 12.875,22.375 12.75,22.75 12.5,23 12.25,23.25 12.125,23.625 L 12,24 11.875,24.375 Q 11.75,24.75 11.5,25 11.25,25.25 11.125,25.625 11,26 11.125,26.375 11.25,26.75 11.5,27 q 0.25,0.25 0.375,0.625 L 12,28 12.125,28.375 Q 12.25,28.75 12.5,29 q 0.25,0.25 0.25,0.5 0,0.25 -0.375,0.375 L 12,30 H 11.5 Q 11,30 10.625,30.125 10.25,30.25 10.25,30.5 q 0,0.25 0.375,0.375 Q 11,31 11.5,31 h 0.5 0.5 q 0.5,0 1,0 0.5,0 0.875,-0.125 0.375,-0.125 0.5,-0.5 Q 15,30 15,29.5 V 29 L 14.875,28.625 Q 14.75,28.25 14.5,28 14.25,27.75 14.25,27.5 14.25,27.25 14.5,27 14.75,26.75 14.875,26.375 15,26 15.125,25.625 15.25,25.25 15.5,25 15.75,24.75 16,24.5 16.25,24.25 16.625,24.125 L 17,24 17.375,24.125 Q 17.75,24.25 18,24.5 q 0.25,0.25 0.5,0.5 0.25,0.25 0.375,0.625 L 19,26 19.125,26.375 Q 19.25,26.75 19.5,27 q 0.25,0.25 0.375,0.625 L 20,28 20.125,28.375 Q 20.25,28.75 20.5,29 q 0.25,0.25 0.25,0.5 0,0.25 -0.25,0.5 -0.25,0.25 -0.25,0.5 0,0.25 0.375,0.375 Q 21,31 21.5,31 h 0.5 0.5"
       id="path1715" />
    <path
       style="fill:#ccab9e;fill-opacity:1"
       d="M 14.125,6.625 Q 14.25,6.25 14.625,6.125 15,6 15.5,6 H 16 V 6.5 Q 16,7 15.5,7 15,7 14.46875,6.96875 L 13.9375,6.9375 13.875,7 13.8125,7.0625 13.9375,6.9375 Q 14.0625,6.8125 14.125,6.625 L 14.1875,6.4375 14.09375,6.71875 14,7 14.125,6.625"
       id="path1717" />
    <path
       style="fill:#dec6b7;fill-opacity:1"
       d="M 16,6.5 V 6 H 16.5 17 L 16.875,6.375 Q 16.75,6.75 17,7.03125 L 17.25,7.3125 17.3125,7.28125 17.375,7.25 17.25,7.3125 Q 17.125,7.375 17,7.5 L 16.875,7.625 17.0625,7.4375 17.25,7.25 17,7.5 Q 16.75,7.75 16.5,8 16.25,8.25 16.1875,8.6875 L 16.125,9.125 16.1875,9.0625 16.25,9 16.125,9.125 Q 16,9.25 16,9.5 V 9.75 9.375 9 9.5 10 9.625 9.25 9.5 q 0,0.25 0.125,0.375 L 16.25,10 16.1875,9.9375 16.125,9.875 H 15.5 14.875 L 14.8125,9.9375 14.75,10 14.875,9.875 Q 15,9.75 15,9.5 V 9.25 9.625 10 9.5 9 9.375 9.75 9.5 Q 15,9.25 14.875,9.125 L 14.75,9 14.8125,9.0625 14.875,9.125 14.8125,8.6875 Q 14.75,8.25 14.5,8 14.25,7.75 14.09375,7.34375 L 13.9375,6.9375 14.46875,6.96875 Q 15,7 15.5,7 16,7 16,6.5"
       id="path1719" />
    <path
       style="fill:#ccab9e;fill-opacity:1"
       d="M 16.875,6.375 17,6 h 0.5 q 0.5,0 1,0 H 19 l 0.125,0.375 Q 19.25,6.75 19.5,7 19.75,7.25 19.875,7.625 20,8 20.5,8 H 21 V 8.5 9 H 20.5 Q 20,9 19.875,9.375 19.75,9.75 19.5,10 L 19.25,10.25 19.4375,10.0625 19.625,9.875 19.5,10 q -0.125,0.125 -0.21875,0.28125 l -0.09375,0.15625 0.04687,-0.07813 0.04687,-0.07813 -0.265625,-0.265625 Q 18.75,9.75 19,9.5 19.25,9.25 18.953125,8.984375 L 18.65625,8.71875 18.609375,8.765625 18.5625,8.8125 18.65625,8.71875 Q 18.75,8.625 18.75,8.5 V 8.375 8.5625 8.75 8.5 8.25 8.4375 8.625 8.5 q 0,-0.125 -0.09375,-0.21875 L 18.5625,8.1875 18.609375,8.234375 18.65625,8.28125 18.953125,8.015625 Q 19.25,7.75 19,7.5 18.75,7.25 18.5,7 18.25,6.75 17.984375,7.046875 L 17.71875,7.34375 17.765625,7.390625 17.8125,7.4375 17.71875,7.34375 Q 17.625,7.25 17.5,7.25 H 17.375 17.5625 17.75 17.5 17.25 17.4375 17.625 17.5 q -0.125,0 -0.25,0.0625 L 17.125,7.375 17.1875,7.34375 17.25,7.3125 17,7.03125 Q 16.75,6.75 16.875,6.375"
       id="path1721" />
    <path
       style="fill:#af8575;fill-opacity:1"
       d="M 19.125,6.375 19,6 19.375,6.125 Q 19.75,6.25 20,6.5 20.25,6.75 20.5,7 20.75,7.25 20.875,7.625 L 21,8 H 20.5 Q 20,8 19.875,7.625 19.75,7.25 19.5,7 19.25,6.75 19.125,6.375"
       id="path1723" />
    <path
       style="fill:#b39944;fill-opacity:1"
       d="m 13.125,7.625 q 0.125,-0.375 0.5,-0.5 L 14,7 13.71875,7.09375 13.4375,7.1875 13.625,7.125 Q 13.8125,7.0625 13.9375,6.9375 L 14.0625,6.8125 14,6.875 13.9375,6.9375 14.09375,7.34375 Q 14.25,7.75 14.5,8 14.75,8.25 14.8125,8.6875 L 14.875,9.125 14.9375,9.1875 15,9.25 14.875,9.125 Q 14.75,9 14.5,9 H 14.25 14.625 15 14.5 14 14.375 14.75 14.5 Q 14.25,9 14.125,9.125 L 14,9.25 14.0625,9.1875 14.125,9.125 13.9375,8.6875 Q 13.75,8.25 13.375,8.125 L 13,8 13.125,7.625"
       id="path1725" />
    <path
       style="fill:#b39944;fill-opacity:1"
       d="m 17,7.5 q 0.25,-0.25 0.5,-0.25 0.25,0 0.375,0.375 Q 18,8 17.984375,8.484375 L 17.96875,8.96875 18.078125,8.953125 18.1875,8.9375 17.96875,8.96875 Q 17.75,9 17.5,9 H 17.25 17.625 18 L 17.4375,9.0625 16.875,9.125 16.9375,9.1875 17,9.25 16.875,9.125 Q 16.75,9 16.5,9 H 16.25 16.625 17 16.5 16 16.375 16.75 16.5 Q 16.25,9 16.125,9.125 L 16,9.25 16.0625,9.1875 16.125,9.125 16.1875,8.6875 Q 16.25,8.25 16.5,8 16.75,7.75 17,7.5"
       id="path1727" />
    <path
       style="fill:#dec6b7;fill-opacity:1"
       d="M 17.875,7.625 17.75,7.25 17.84375,7.53125 17.9375,7.8125 17.875,7.625 Q 17.8125,7.4375 17.71875,7.34375 L 17.625,7.25 17.671875,7.296875 17.71875,7.34375 17.984375,7.046875 Q 18.25,6.75 18.5,7 18.75,7.25 19,7.5 19.25,7.75 18.953125,8.015625 L 18.65625,8.28125 18.703125,8.328125 18.75,8.375 18.65625,8.28125 Q 18.5625,8.1875 18.375,8.125 L 18.1875,8.0625 18.46875,8.15625 18.75,8.25 18.359375,8.140625 17.96875,8.03125 17.984375,8.140625 18,8.25 17.96875,8.03125 Q 17.9375,7.8125 17.875,7.625 L 17.8125,7.4375 17.90625,7.71875 18,8 17.875,7.625"
       id="path1729" />
    <path
       style="fill:#967b20;fill-opacity:1"
       d="M 13,8.5 V 8 l 0.375,0.125 Q 13.75,8.25 13.9375,8.6875 L 14.125,9.125 13.5625,9.0625 13,9 V 8.5 m 0,0.125 V 9 9.125 9.25 9 Q 13,8.75 13,8.5 V 8.25 8.625"
       id="path1731" />
    <path
       style="fill:#765e0e;fill-opacity:1"
       d="M 17.984375,8.484375 18,8 V 8.375 8.75 8.5 Q 18,8.25 17.96875,8.03125 L 17.9375,7.8125 l 0.01563,0.109375 0.01563,0.109375 0.390625,0.109375 Q 18.75,8.25 18.75,8.5 q 0,0.25 -0.375,0.375 L 18,9 18.28125,8.90625 18.5625,8.8125 18.375,8.875 Q 18.1875,8.9375 17.96875,8.96875 L 17.75,9 17.859375,8.984375 17.96875,8.96875 17.984375,8.484375"
       id="path1733" />
    <path
       style="fill:#ccab9e;fill-opacity:1"
       d="M 13,9.5 V 9 L 13.5625,9.0625 14.125,9.125 14.1875,9.0625 14.25,9 14.125,9.125 Q 14,9.25 14,9.5 V 9.75 9.375 9 9.5 10 9.625 9.25 9.5 q 0,0.25 0.125,0.375 L 14.25,10 14.1875,9.9375 14.125,9.875 13.5625,9.9375 13,10 V 9.5 m 0,0.125 V 10 10.125 10.25 10 Q 13,9.75 13,9.5 V 9.25 9.625 m 0,-0.75 V 9 9.375 9.75 9.5 Q 13,9.25 13,9 V 8.75 8.875"
       id="path1735" />
    <path
       style="fill:#2c1b0b;fill-opacity:1"
       d="M 14,9.5 Q 14,9 14.5,9 15,9 15,9.5 15,10 14.5,10 14,10 14,9.5"
       id="path1737" />
    <path
       style="fill:#2c1b0b;fill-opacity:1"
       d="M 16,9.5 Q 16,9 16.5,9 17,9 17,9.5 17,10 16.5,10 16,10 16,9.5"
       id="path1739" />
    <path
       style="fill:#ccab9e;fill-opacity:1"
       d="M 17,9.5 V 9 9.375 9.75 9.5 Q 17,9.25 16.875,9.125 L 16.75,9 16.8125,9.0625 16.875,9.125 17.4375,9.0625 18,9 18.125,9.375 q 0.125,0.375 -0.140625,0.640625 l -0.265625,0.265625 0.07813,0.04687 L 17.875,10.375 17.71875,10.28125 Q 17.5625,10.1875 17.375,10.125 L 17.1875,10.0625 17.46875,10.15625 17.75,10.25 17.3125,10.0625 16.875,9.875 16.8125,9.9375 16.75,10 16.875,9.875 Q 17,9.75 17,9.5 V 9.25 9.625 10 9.5"
       id="path1741" />
    <path
       style="fill:#dec6b7;fill-opacity:1"
       d="M 18.125,9.375 18,9 18.375,8.875 18.75,8.75 18.46875,8.84375 18.1875,8.9375 18.375,8.875 Q 18.5625,8.8125 18.65625,8.71875 L 18.75,8.625 18.703125,8.671875 18.65625,8.71875 18.953125,8.984375 Q 19.25,9.25 19,9.5 q -0.25,0.25 0.01563,0.515625 l 0.265625,0.265625 0.04687,-0.07813 L 19.375,10.125 19.28125,10.28125 Q 19.1875,10.4375 19.125,10.625 L 19.0625,10.8125 19.15625,10.53125 19.25,10.25 19.125,10.59375 19,10.9375 H 19.09375 19.1875 19 q -0.1875,0 -0.375,-0.0625 L 18.4375,10.8125 18.71875,10.90625 19,11 18.625,10.875 Q 18.25,10.75 18,10.5 L 17.75,10.25 17.9375,10.4375 18.125,10.625 18,10.5 q -0.125,-0.125 -0.28125,-0.21875 l -0.15625,-0.09375 0.07813,0.04687 0.07813,0.04687 0.265625,-0.265625 Q 18.25,9.75 18.125,9.375"
       id="path1743" />
    <path
       style="fill:#af8575;fill-opacity:1"
       d="M 19.875,9.375 Q 20,9 20.5,9 H 21 V 9.5 10 l -0.375,0.125 Q 20.25,10.25 20,10.5 19.75,10.75 19.375,10.875 L 19,11 19.28125,10.90625 19.5625,10.8125 19.375,10.875 Q 19.1875,10.9375 19,10.9375 H 18.8125 18.90625 19 l 0.125,-0.34375 Q 19.25,10.25 19.5,10 19.75,9.75 19.875,9.375 M 21,10.125 V 10 9.625 9.25 9.5 q 0,0.25 0,0.5 v 0.25 -0.125"
       id="path1745" />
    <path
       style="fill:#967b20;fill-opacity:1"
       d="M 13,10.5 V 10 L 13.5625,9.9375 14.125,9.875 13.9375,10.3125 Q 13.75,10.75 13.375,10.875 L 13,11 V 10.5 M 13,9.875 V 10 10.375 10.75 10.5 Q 13,10.25 13,10 V 9.75 9.875"
       id="path1747" />
    <path
       style="fill:#b39944;fill-opacity:1"
       d="M 13.9375,10.3125 14.125,9.875 14.0625,9.8125 14,9.75 14.125,9.875 Q 14.25,10 14.5,10 H 14.75 14.375 14 14.5 15 14.625 14.25 14.5 q 0.25,0 0.375,-0.125 L 15,9.75 14.9375,9.8125 14.875,9.875 14.9375,10.4375 15,11 14.625,11.125 Q 14.25,11.25 14.25,11.5 q 0,0.25 0.375,0.375 Q 15,12 15.5,12 H 16 l -0.125,0.375 Q 15.75,12.75 15.5,12.75 q -0.25,0 -0.53125,0.28125 l -0.28125,0.28125 0.0625,0.0625 0.0625,0.0625 -0.125,-0.125 Q 14.5625,13.1875 14.375,13.125 L 14.1875,13.0625 14.46875,13.15625 14.75,13.25 14.375,13.125 14,13 13.875,12.625 Q 13.75,12.25 13.5,12.25 q -0.25,0 -0.25,0.25 0,0.25 -0.265625,0.515625 l -0.265625,0.265625 0.07813,0.04687 L 12.875,13.375 12.71875,13.28125 Q 12.5625,13.1875 12.375,13.125 L 12.1875,13.0625 12.46875,13.15625 12.75,13.25 12.375,13.125 12,13 12.125,12.625 Q 12.25,12.25 12.5,12 12.75,11.75 12.875,11.375 L 13,11 13.375,10.875 Q 13.75,10.75 13.9375,10.3125 M 12.09375,12.71875 12,13 11.96875,13.09375 11.9375,13.1875 12,13 q 0.0625,-0.1875 0.125,-0.375 l 0.0625,-0.1875 -0.09375,0.28125"
       id="path1749" />
    <path
       style="fill:#967b20;fill-opacity:1"
       d="M 14.9375,10.4375 14.875,9.875 H 15.5 16.125 L 16.0625,10.4375 16,11 H 15.5 15 l -0.0625,-0.5625"
       id="path1751" />
    <path
       style="fill:#b39944;fill-opacity:1"
       d="M 16.0625,10.4375 16.125,9.875 16.0625,9.8125 16,9.75 16.125,9.875 Q 16.25,10 16.5,10 H 16.75 16.375 16 16.5 17 16.625 16.25 16.5 q 0.25,0 0.375,-0.125 L 17,9.75 16.9375,9.8125 16.875,9.875 17.0625,10.3125 Q 17.25,10.75 16.953125,11.015625 l -0.296875,0.265625 0.04687,0.04687 L 16.75,11.375 16.65625,11.28125 Q 16.5625,11.1875 16.375,11.125 L 16.1875,11.0625 16.46875,11.15625 16.75,11.25 16.375,11.125 16,11 16.0625,10.4375"
       id="path1753" />
    <path
       style="fill:#967b20;fill-opacity:1"
       d="M 17.0625,10.3125 16.875,9.875 17.3125,10.0625 Q 17.75,10.25 18,10.5 L 18.25,10.75 18.0625,10.5625 17.875,10.375 18,10.5 q 0.125,0.125 0.28125,0.21875 l 0.15625,0.09375 -0.07813,-0.04687 -0.07813,-0.04687 -0.265625,0.265625 Q 17.75,11.25 17.875,11.625 L 18,12 18.375,11.875 q 0.375,-0.125 0.5,-0.5 L 19,11 19.375,10.875 Q 19.75,10.75 20,10.5 20.25,10.25 20.625,10.125 L 21,10 v 0.5 q 0,0.5 0,1 V 12 11.625 11.25 11.5 q 0,0.25 0.03125,0.46875 L 21.0625,12.1875 21.046875,12.078125 21.03125,11.96875 20.640625,12.109375 20.25,12.25 20.53125,12.15625 20.8125,12.0625 20.625,12.125 q -0.1875,0.0625 -0.3125,0.1875 l -0.125,0.125 0.0625,-0.0625 0.0625,-0.0625 -0.28125,-0.28125 Q 19.75,11.75 19.5,12 19.25,12.25 19.125,12.625 L 19,13 18.625,13.125 Q 18.25,13.25 18,13.5 17.75,13.75 17.375,13.875 L 17,14 16.875,14.375 Q 16.75,14.75 16.5,14.75 q -0.25,0 -0.5,0.28125 L 15.75,15.3125 15.8125,15.34375 15.875,15.375 15.75,15.3125 Q 15.625,15.25 15.5,15.25 H 15.375 15.5625 15.75 15.5 15.25 15.4375 15.625 15.5 q -0.125,0 -0.25,0.0625 L 15.125,15.375 15.1875,15.34375 15.25,15.3125 15,15.03125 Q 14.75,14.75 14.875,14.375 15,14 14.875,13.625 L 14.75,13.25 14.84375,13.53125 14.9375,13.8125 14.875,13.625 q -0.0625,-0.1875 -0.1875,-0.3125 l -0.125,-0.125 0.0625,0.0625 0.0625,0.0625 0.28125,-0.28125 Q 15.25,12.75 15.5,12.75 q 0.25,0 0.375,-0.375 L 16,12 16.375,11.875 Q 16.75,11.75 16.75,11.5 V 11.25 11.4375 11.625 11.5 q 0,-0.125 -0.09375,-0.21875 l -0.09375,-0.09375 0.04687,0.04687 0.04687,0.04687 0.296875,-0.265625 Q 17.25,10.75 17.0625,10.3125 M 16.5,14 H 17 L 16.875,13.625 Q 16.75,13.25 16.5,13.25 q -0.25,0 -0.375,0.375 Q 16,14 16.5,14 M 21,10.375 V 10 9.875 9.75 10 q 0,0.25 0,0.5 v 0.25 -0.375 m -3.125,2 L 18,12 17.625,12.125 Q 17.25,12.25 17.25,12.5 q 0,0.25 0.25,0.25 0.25,0 0.375,-0.375"
       id="path1755" />
    <path
       style="fill:#dec6b7;fill-opacity:1"
       d="m 14.25,11.5 q 0,-0.25 0.375,-0.375 L 15,11 h 0.5 0.5 l 0.375,0.125 q 0.375,0.125 0.375,0.375 0,0.25 -0.375,0.375 L 16,12 H 15.5 Q 15,12 14.625,11.875 14.25,11.75 14.25,11.5"
       id="path1757" />
    <path
       style="fill:#b39944;fill-opacity:1"
       d="M 17.875,11.625 Q 17.75,11.25 18.015625,10.984375 L 18.28125,10.71875 18.203125,10.671875 18.125,10.625 18.28125,10.71875 Q 18.4375,10.8125 18.625,10.875 L 18.8125,10.9375 18.53125,10.84375 18.25,10.75 18.625,10.875 19,11 18.875,11.375 q -0.125,0.375 -0.5,0.5 L 18,12 17.875,11.625"
       id="path1759" />
    <path
       style="fill:#967b20;fill-opacity:1"
       d="m 13.25,12.5 q 0,-0.25 0.25,-0.25 0.25,0 0.375,0.375 L 14,13 l 0.125,0.375 q 0.125,0.375 -0.140625,0.640625 l -0.265625,0.265625 0.04687,0.07813 0.04687,0.07813 -0.09375,-0.15625 Q 13.625,14.125 13.5,14 L 13.375,13.875 13.5625,14.0625 13.75,14.25 13.5,14 Q 13.25,13.75 13,13.5 L 12.75,13.25 12.9375,13.4375 13.125,13.625 13,13.5 q -0.125,-0.125 -0.28125,-0.21875 l -0.15625,-0.09375 0.07813,0.04687 0.07813,0.04687 0.265625,-0.265625 Q 13.25,12.75 13.25,12.5"
       id="path1761" />
    <path
       style="fill:#b39944;fill-opacity:1"
       d="m 17.25,12.5 q 0,-0.25 0.375,-0.375 L 18,12 17.875,12.375 Q 17.75,12.75 17.5,12.75 q -0.25,0 -0.25,-0.25"
       id="path1763" />
    <path
       style="fill:#765e0e;fill-opacity:1"
       d="M 19.125,12.625 Q 19.25,12.25 19.5,12 q 0.25,-0.25 0.53125,0.03125 l 0.28125,0.28125 0.0625,-0.0625 0.0625,-0.0625 -0.125,0.125 q -0.125,0.125 -0.1875,0.3125 L 20.0625,12.8125 20.15625,12.53125 20.25,12.25 20.125,12.625 20,13 H 19.5 19 l 0.125,-0.375"
       id="path1765" />
    <path
       style="fill:#b1b1a8;fill-opacity:1"
       d="M 20.125,12.625 Q 20.25,12.25 20.640625,12.109375 L 21.03125,11.96875 21.015625,11.859375 21,11.75 21.03125,11.96875 Q 21.0625,12.1875 21.125,12.375 L 21.1875,12.5625 21.09375,12.28125 21,12 21.125,12.375 21.25,12.75 21.15625,12.46875 21.0625,12.1875 21.125,12.375 q 0.0625,0.1875 0.1875,0.3125 l 0.125,0.125 -0.0625,-0.0625 -0.0625,-0.0625 -0.328125,0.296875 -0.328125,0.296875 0.04687,0.04687 L 20.75,13.375 20.65625,13.28125 Q 20.5625,13.1875 20.375,13.125 L 20.1875,13.0625 20.46875,13.15625 20.75,13.25 20.390625,13.140625 20.03125,13.03125 20.015625,13.140625 20,13.25 20.03125,13.03125 Q 20.0625,12.8125 20.125,12.625 L 20.1875,12.4375 20.09375,12.71875 20,13 20.125,12.625"
       id="path1767" />
    <path
       style="fill:#747463;fill-opacity:1"
       d="M 11.875,13.375 12,13 12.375,13.125 Q 12.75,13.25 13,13.5 L 13.25,13.75 13,14.03125 12.75,14.3125 12.8125,14.34375 12.875,14.375 12.75,14.3125 Q 12.625,14.25 12.5,14.25 H 12.375 12.5625 12.75 12.5 12.25 12.4375 12.625 12.5 q -0.125,0 -0.25,0.0625 L 12.125,14.375 12.1875,14.34375 12.25,14.3125 11.96875,14 11.6875,13.6875 11.625,13.75 l -0.0625,0.0625 0.125,-0.125 q 0.125,-0.125 0.1875,-0.3125 L 11.9375,13.1875 11.84375,13.46875 11.75,13.75 11.875,13.375 M 13.3125,13.8125 13.25,13.75 13.0625,13.5625 12.875,13.375 13,13.5 q 0.125,0.125 0.25,0.25 l 0.125,0.125 -0.0625,-0.0625 M 12.03125,12.90625 12,13 11.90625,13.28125 11.8125,13.5625 11.875,13.375 Q 11.9375,13.1875 12,13 l 0.0625,-0.1875 -0.03125,0.09375"
       id="path1769" />
    <path
       style="fill:#765e0e;fill-opacity:1"
       d="M 14.125,13.375 14,13 l 0.375,0.125 q 0.375,0.125 0.5,0.5 0.125,0.375 0,0.75 Q 14.75,14.75 15,15.03125 L 15.25,15.3125 15.3125,15.28125 15.375,15.25 15.25,15.3125 Q 15.125,15.375 15,15.5 L 14.875,15.625 15.0625,15.4375 15.25,15.25 15,15.5 q -0.25,0.25 -0.5,0.25 -0.25,0 -0.375,-0.375 L 14,15 13.875,14.625 13.75,14.25 13.84375,14.53125 13.9375,14.8125 13.875,14.625 Q 13.8125,14.4375 13.71875,14.28125 L 13.625,14.125 l 0.04687,0.07813 0.04687,0.07813 0.265625,-0.265625 Q 14.25,13.75 14.125,13.375"
       id="path1771" />
    <path
       style="fill:#765e0e;fill-opacity:1"
       d="M 16.125,13.625 Q 16.25,13.25 16.5,13.25 q 0.25,0 0.375,0.375 L 17,14 H 16.5 Q 16,14 16.125,13.625"
       id="path1773" />
    <path
       style="fill:#765e0e;fill-opacity:1"
       d="m 18,13.5 q 0.25,-0.25 0.625,-0.375 L 19,13 19.125,13.375 Q 19.25,13.75 19,14.03125 L 18.75,14.3125 18.8125,14.34375 18.875,14.375 18.75,14.3125 Q 18.625,14.25 18.5,14.25 H 18.375 18.5625 18.75 18.5 q -0.25,0 -0.5,0.25 -0.25,0.25 -0.5,0.5 -0.25,0.25 -0.5,0.5 -0.25,0.25 -0.5,0.25 -0.25,0 -0.5,-0.25 L 15.75,15.25 15.9375,15.4375 16.125,15.625 16,15.5 Q 15.875,15.375 15.75,15.3125 L 15.625,15.25 15.6875,15.28125 15.75,15.3125 16,15.03125 Q 16.25,14.75 16.5,14.75 q 0.25,0 0.375,-0.375 L 17,14 17.375,13.875 Q 17.75,13.75 18,13.5"
       id="path1775" />
    <path
       style="fill:#967b20;fill-opacity:1"
       d="M 19.125,13.375 19,13 h 0.5 0.5 v 0.5 Q 20,14 19.875,14.375 19.75,14.75 19.5,14.75 19.25,14.75 19,14.5 L 18.75,14.25 18.9375,14.4375 19.125,14.625 19,14.5 Q 18.875,14.375 18.75,14.3125 L 18.625,14.25 18.6875,14.28125 18.75,14.3125 19,14.03125 Q 19.25,13.75 19.125,13.375"
       id="path1777" />
    <path
       style="fill:#696956;fill-opacity:1"
       d="M 20,13.5 V 13 13.375 13.75 13.5 q 0,-0.25 0.03125,-0.46875 l 0.03125,-0.21875 -0.01563,0.109375 -0.01563,0.109375 0.359375,0.109375 Q 20.75,13.25 20.75,13.5 q 0,0.25 -0.390625,0.359375 L 19.96875,13.96875 19.953125,14.078125 19.9375,14.1875 19.96875,13.96875 Q 20,13.75 20,13.5 V 13.25 13.625 14 13.5"
       id="path1779" />
    <path
       style="fill:#9d9d91;fill-opacity:1"
       d="M 20.75,13.5 V 13.25 13.4375 13.625 13.5 q 0,-0.125 -0.09375,-0.21875 l -0.09375,-0.09375 0.04687,0.04687 0.04687,0.04687 0.328125,-0.296875 L 21.3125,12.6875 21.25,12.625 l -0.0625,-0.0625 0.125,0.125 q 0.125,0.125 0.3125,0.1875 L 21.8125,12.9375 21.53125,12.84375 21.25,12.75 21.625,12.875 22,13 22.125,13.375 22.25,13.75 22.15625,13.46875 22.0625,13.1875 22.125,13.375 q 0.0625,0.1875 0.15625,0.34375 L 22.375,13.875 22.328125,13.796875 22.28125,13.71875 22,14.03125 l -0.28125,0.3125 0.04687,0.04687 0.04687,0.04687 -0.09375,-0.09375 Q 21.625,14.25 21.5,14.25 H 21.375 21.5625 21.75 21.5 q -0.25,0 -0.25,0.25 V 14.75 14.5625 14.375 14.5 q 0,0.125 0.09375,0.21875 l 0.09375,0.09375 -0.04687,-0.04687 -0.04687,-0.04687 -0.296875,0.296875 L 20.75,15.3125 20.8125,15.34375 20.875,15.375 20.75,15.3125 Q 20.625,15.25 20.5,15.25 H 20.375 20.5625 20.75 20.5 q -0.25,0 -0.5,0.25 -0.25,0.25 -0.5,0.5 -0.25,0.25 -0.5,0.5 -0.25,0.25 -0.5,0.5 L 18.25,17.25 18.4375,17.0625 18.625,16.875 18.5,17 q -0.125,0.125 -0.21875,0.28125 l -0.09375,0.15625 0.04687,-0.07813 0.04687,-0.07813 L 18,16.96875 17.71875,16.65625 17.671875,16.703125 17.625,16.75 17.71875,16.65625 Q 17.8125,16.5625 17.875,16.375 L 17.9375,16.1875 17.84375,16.46875 17.75,16.75 17.875,16.375 18,16 18.375,15.875 Q 18.75,15.75 18.75,15.5 V 15.25 15.4375 15.625 15.5 q 0,-0.125 -0.0625,-0.1875 L 18.625,15.25 18.65625,15.28125 18.6875,15.3125 18.96875,15 19.25,14.6875 19.1875,14.65625 19.125,14.625 19.25,14.6875 Q 19.375,14.75 19.5,14.75 H 19.625 19.4375 19.25 19.5 q 0.25,0 0.375,-0.375 L 20,14 19.90625,14.28125 19.8125,14.5625 19.875,14.375 q 0.0625,-0.1875 0.09375,-0.40625 L 20,13.75 l -0.01563,0.109375 -0.01563,0.109375 0.390625,-0.109375 Q 20.75,13.75 20.75,13.5 M 22.09375,13.03125 22,13 21.71875,12.90625 21.4375,12.8125 21.625,12.875 Q 21.8125,12.9375 22,13 l 0.1875,0.0625 -0.09375,-0.03125"
       id="path1781" />
    <path
       style="fill:#4f4f39;fill-opacity:1"
       d="M 22.125,13.375 22,13 22.375,13.125 Q 22.75,13.25 23,13.5 q 0.25,0.25 0.5,0.5 0.25,0.25 0.5,0.5 0.25,0.25 0.5,0.5 0.25,0.25 0.5,0.5 L 25.25,15.75 25,16 24.75,16.25 24.5,16 Q 24.25,15.75 24,15.5 23.75,15.25 23.5,15 23.25,14.75 23,14.5 22.75,14.25 22.5,14 22.25,13.75 22.125,13.375 M 24.5625,16.0625 24.75,16.25 24.8125,16.3125 24.875,16.375 24.75,16.25 Q 24.625,16.125 24.5,16 l -0.125,-0.125 0.1875,0.1875 m 0.75,-0.25 L 25.25,15.75 25.0625,15.5625 24.875,15.375 25,15.5 q 0.125,0.125 0.25,0.25 l 0.125,0.125 -0.0625,-0.0625 M 22.28125,13.09375 22,13 21.90625,12.96875 21.8125,12.9375 22,13 q 0.1875,0.0625 0.375,0.125 l 0.1875,0.0625 -0.28125,-0.09375"
       id="path1783" />
    <path
       style="fill:#9d9d91;fill-opacity:1"
       d="m 10,14.5 q 0.25,-0.25 0.625,-0.375 L 11,14 V 14.5 15 L 10.625,15.125 10.25,15.25 10.53125,15.15625 10.8125,15.0625 10.625,15.125 q -0.1875,0.0625 -0.3125,0.1875 l -0.125,0.125 L 10.25,15.375 10.3125,15.3125 10.015625,15.015625 9.71875,14.71875 9.640625,14.765625 9.5625,14.8125 9.71875,14.71875 Q 9.875,14.625 10,14.5 L 10.125,14.375 9.9375,14.5625 9.75,14.75 10,14.5"
       id="path1785" />
    <path
       style="fill:#888879;fill-opacity:1"
       d="M 11,14.5 V 14 L 11.375,13.875 11.75,13.75 11.46875,13.84375 11.1875,13.9375 11.375,13.875 q 0.1875,-0.0625 0.3125,-0.1875 l 0.125,-0.125 L 11.75,13.625 11.6875,13.6875 11.96875,14 12.25,14.3125 12.3125,14.28125 12.375,14.25 12.25,14.3125 Q 12.125,14.375 12,14.5 L 11.875,14.625 12.0625,14.4375 12.25,14.25 12,14.5 q -0.25,0.25 -0.625,0.375 L 11,15 v -0.5"
       id="path1787" />
    <path
       style="fill:#9d9d91;fill-opacity:1"
       d="m 12,14.5 q 0.25,-0.25 0.5,-0.25 0.25,0 0.5,0.25 L 13.25,14.75 13.0625,14.5625 12.875,14.375 13,14.5 q 0.125,0.125 0.28125,0.21875 l 0.15625,0.09375 -0.07813,-0.04687 -0.07813,-0.04687 -0.296875,0.296875 L 12.6875,15.3125 12.71875,15.34375 12.75,15.375 12.6875,15.3125 Q 12.625,15.25 12.5,15.25 H 12.375 12.5625 12.75 12.5 12.25 12.4375 12.625 12.5 q -0.125,0 -0.25,0.0625 L 12.125,15.375 12.1875,15.34375 12.25,15.3125 11.984375,15.015625 11.71875,14.71875 l -0.07813,0.04687 -0.07813,0.04687 0.15625,-0.09375 Q 11.875,14.625 12,14.5 L 12.125,14.375 11.9375,14.5625 11.75,14.75 12,14.5"
       id="path1789" />
    <path
       style="fill:#767665;fill-opacity:1"
       d="M 13,14.5 12.75,14.25 12.9375,14.4375 13.125,14.625 13,14.5 Q 12.875,14.375 12.75,14.3125 L 12.625,14.25 12.6875,14.28125 12.75,14.3125 13,14.03125 13.25,13.75 13.5,14 q 0.25,0.25 0.375,0.625 L 14,15 13.625,14.875 Q 13.25,14.75 13,14.5 M 13.4375,13.9375 13.25,13.75 13.1875,13.6875 13.125,13.625 13.25,13.75 q 0.125,0.125 0.25,0.25 l 0.125,0.125 -0.1875,-0.1875"
       id="path1791" />
    <path
       style="fill:#a5a59b;fill-opacity:1"
       d="m 18,14.5 q 0.25,-0.25 0.5,-0.25 0.25,0 0.5,0.25 L 19.25,14.75 19.0625,14.5625 18.875,14.375 19,14.5 q 0.125,0.125 0.25,0.1875 L 19.375,14.75 19.3125,14.71875 19.25,14.6875 18.96875,15 18.6875,15.3125 18.71875,15.34375 18.75,15.375 18.6875,15.3125 Q 18.625,15.25 18.5,15.25 H 18.375 18.5625 18.75 18.5 q -0.25,0 -0.375,0.375 L 18,16 17.625,16.125 17.25,16.25 17.53125,16.15625 17.8125,16.0625 17.625,16.125 q -0.1875,0.0625 -0.28125,0.15625 L 17.25,16.375 17.296875,16.328125 17.34375,16.28125 17.046875,15.984375 16.75,15.6875 16.6875,15.71875 16.625,15.75 16.75,15.6875 Q 16.875,15.625 17,15.5 L 17.125,15.375 16.9375,15.5625 16.75,15.75 17,15.5 q 0.25,-0.25 0.5,-0.5 0.25,-0.25 0.5,-0.5"
       id="path1793" />
    <path
       style="fill:#888879;fill-opacity:1"
       d="m 21.25,14.5 q 0,-0.25 0.25,-0.25 0.25,0 0.375,0.375 L 22,15 21.625,14.875 Q 21.25,14.75 21.25,14.5"
       id="path1795" />
    <path
       style="fill:#a5a59b;fill-opacity:1"
       d="M 21.875,14.625 21.75,14.25 21.84375,14.53125 21.9375,14.8125 21.875,14.625 Q 21.8125,14.4375 21.71875,14.34375 L 21.625,14.25 l 0.04687,0.04687 0.04687,0.04687 0.28125,-0.3125 0.28125,-0.3125 -0.04687,-0.07813 -0.04687,-0.07813 0.09375,0.15625 Q 22.375,13.875 22.5,14 L 22.625,14.125 22.4375,13.9375 22.25,13.75 22.5,14 q 0.25,0.25 0.5,0.5 l 0.25,0.25 -0.265625,0.265625 -0.265625,0.265625 0.07813,0.04687 L 22.875,15.375 22.71875,15.28125 Q 22.5625,15.1875 22.375,15.125 L 22.1875,15.0625 22.46875,15.15625 22.75,15.25 22.375,15.125 22,15 21.875,14.625 M 23.3125,14.8125 23.25,14.75 23.0625,14.5625 22.875,14.375 23,14.5 q 0.125,0.125 0.25,0.25 l 0.125,0.125 -0.0625,-0.0625"
       id="path1797" />
    <path
       style="fill:#696956;fill-opacity:1"
       d="M 8,15.5 Q 8.25,15.25 8.625,15.125 L 9,15 8.875,15.375 Q 8.75,15.75 8.5,16 L 8.25,16.25 8,16 7.75,15.75 8,15.5 M 7.9375,15.5625 7.75,15.75 7.6875,15.8125 7.625,15.875 7.75,15.75 Q 7.875,15.625 8,15.5 l 0.125,-0.125 -0.1875,0.1875 m 0.25,0.75 L 8.25,16.25 8.4375,16.0625 8.625,15.875 8.5,16 Q 8.375,16.125 8.25,16.25 L 8.125,16.375 8.1875,16.3125 M 9.09375,14.96875 9,15 8.71875,15.09375 8.4375,15.1875 8.625,15.125 Q 8.8125,15.0625 9,15 l 0.1875,-0.0625 -0.09375,0.03125"
       id="path1799" />
    <path
       style="fill:#a4a499;fill-opacity:1"
       d="M 8.875,15.375 9,15 9.375,14.875 9.75,14.75 9.46875,14.84375 9.1875,14.9375 9.375,14.875 Q 9.5625,14.8125 9.71875,14.71875 L 9.875,14.625 9.796875,14.671875 9.71875,14.71875 10.015625,15.015625 10.3125,15.3125 10.375,15.25 l 0.0625,-0.0625 -0.125,0.125 q -0.125,0.125 -0.1875,0.3125 L 10.0625,15.8125 10.15625,15.53125 10.25,15.25 10.125,15.625 10,16 9.625,16.125 q -0.375,0.125 -0.5,0.5 L 9,17 8.625,17.125 8.25,17.25 8.53125,17.15625 8.8125,17.0625 8.625,17.125 Q 8.4375,17.1875 8.34375,17.28125 L 8.25,17.375 8.296875,17.328125 8.34375,17.28125 8.046875,17.015625 7.75,16.75 8,16.5 Q 8.25,16.25 8.5,16 8.75,15.75 8.875,15.375 M 7.9375,16.5625 7.75,16.75 7.6875,16.8125 7.625,16.875 7.75,16.75 Q 7.875,16.625 8,16.5 L 8.125,16.375 7.9375,16.5625 M 9.28125,14.90625 9,15 8.90625,15.03125 8.8125,15.0625 9,15 q 0.1875,-0.0625 0.375,-0.125 l 0.1875,-0.0625 -0.28125,0.09375"
       id="path1801" />
    <path
       style="fill:#888879;fill-opacity:1"
       d="m 10.125,15.625 q 0.125,-0.375 0.5,-0.5 L 11,15 10.875,15.375 q -0.125,0.375 -0.5,0.5 L 10,16 10.125,15.625"
       id="path1803" />
    <path
       style="fill:#b1b1a8;fill-opacity:1"
       d="M 10.875,15.375 11,15 11.375,14.875 11.75,14.75 11.46875,14.84375 11.1875,14.9375 11.375,14.875 q 0.1875,-0.0625 0.34375,-0.15625 L 11.875,14.625 l -0.07813,0.04687 -0.07813,0.04687 0.265625,0.296875 L 12.25,15.3125 12.3125,15.28125 12.375,15.25 12.25,15.3125 Q 12.125,15.375 12,15.5 L 11.875,15.625 12.0625,15.4375 12.25,15.25 12,15.5 Q 11.75,15.75 11.5,16 L 11.25,16.25 10.96875,15.96875 10.6875,15.6875 10.625,15.75 l -0.0625,0.0625 0.125,-0.125 q 0.125,-0.125 0.1875,-0.3125 L 10.9375,15.1875 10.84375,15.46875 10.75,15.75 10.875,15.375 M 11.1875,16.3125 11.25,16.25 11.4375,16.0625 11.625,15.875 11.5,16 q -0.125,0.125 -0.25,0.25 l -0.125,0.125 0.0625,-0.0625"
       id="path1805" />
    <path
       style="fill:#3a3a2b;fill-opacity:1"
       d="m 12,15.5 q 0.25,-0.25 0.5,-0.25 0.25,0 0.25,0.25 0,0.25 -0.25,0.5 -0.25,0.25 -0.375,0.625 L 12,17 V 16.625 16.25 16.5 q 0,0.25 0.125,0.375 L 12.25,17 12.1875,16.9375 12.125,16.875 11.6875,17.0625 Q 11.25,17.25 11,17.5 10.75,17.75 10.375,17.875 L 10,18 10.125,17.625 Q 10.25,17.25 10.5,17 10.75,16.75 11,16.5 11.25,16.25 11.5,16 11.75,15.75 12,15.5 M 9.90625,18.03125 10,18 10.28125,17.90625 10.5625,17.8125 10.375,17.875 Q 10.1875,17.9375 10,18 l -0.1875,0.0625 0.09375,-0.03125"
       id="path1807" />
    <path
       style="fill:#929286;fill-opacity:1"
       d="M 12.75,15.5 V 15.25 15.4375 15.625 15.5 q 0,-0.125 -0.0625,-0.1875 L 12.625,15.25 12.65625,15.28125 12.6875,15.3125 12.984375,15.015625 13.28125,14.71875 13.203125,14.671875 13.125,14.625 13.28125,14.71875 Q 13.4375,14.8125 13.625,14.875 L 13.8125,14.9375 13.53125,14.84375 13.25,14.75 13.625,14.875 14,15 14.125,15.375 14.25,15.75 14.15625,15.46875 14.0625,15.1875 14.125,15.375 q 0.0625,0.1875 0.15625,0.28125 L 14.375,15.75 14.328125,15.703125 14.28125,15.65625 14.015625,15.984375 13.75,16.3125 13.8125,16.34375 13.875,16.375 13.75,16.3125 Q 13.625,16.25 13.5,16.25 H 13.375 13.5625 13.75 13.5 13.25 13.4375 13.625 13.5 q -0.125,0 -0.21875,0.09375 l -0.09375,0.09375 0.04687,-0.04687 0.04687,-0.04687 L 12.984375,16.046875 12.6875,15.75 12.65625,15.8125 12.625,15.875 12.6875,15.75 Q 12.75,15.625 12.75,15.5 V 15.375 15.5625 15.75 15.5"
       id="path1809" />
    <path
       style="fill:#9d9d91;fill-opacity:1"
       d="m 15,15.5 q 0.25,-0.25 0.5,-0.25 0.25,0 0.5,0.25 L 16.25,15.75 16.0625,15.5625 15.875,15.375 16,15.5 q 0.125,0.125 0.25,0.1875 L 16.375,15.75 16.3125,15.71875 16.25,15.6875 15.96875,16 15.6875,16.3125 15.71875,16.34375 15.75,16.375 15.6875,16.3125 Q 15.625,16.25 15.5,16.25 H 15.375 15.5625 15.75 15.5 q -0.25,0 -0.25,0.25 0,0.25 0.25,0.25 H 15.75 15.5625 15.375 15.5 q 0.125,0 0.1875,-0.0625 l 0.0625,-0.0625 -0.03125,0.03125 -0.03125,0.03125 0.296875,0.328125 0.296875,0.328125 0.04687,-0.04687 L 16.375,17.25 16.28125,17.34375 Q 16.1875,17.4375 16.125,17.625 L 16.0625,17.8125 16.15625,17.53125 16.25,17.25 16.125,17.625 16,18 H 15.5 15 L 14.875,17.625 Q 14.75,17.25 14.5,17 14.25,16.75 14,16.5 L 13.75,16.25 13.9375,16.4375 14.125,16.625 14,16.5 q -0.125,-0.125 -0.25,-0.1875 l -0.125,-0.0625 0.0625,0.03125 0.0625,0.03125 0.265625,-0.328125 0.265625,-0.328125 -0.04687,-0.04687 -0.04687,-0.04687 0.09375,0.09375 Q 14.375,15.75 14.5,15.75 H 14.625 14.4375 14.25 14.5 q 0.25,0 0.5,-0.25"
       id="path1811" />
    <path
       style="fill:#767665;fill-opacity:1"
       d="M 18.125,15.625 Q 18.25,15.25 18.5,15.25 q 0.25,0 0.25,0.25 0,0.25 -0.375,0.375 L 18,16 18.125,15.625"
       id="path1813" />
    <path
       style="fill:#696956;fill-opacity:1"
       d="m 20,15.5 q 0.25,-0.25 0.5,-0.25 0.25,0 0.5,0.25 l 0.25,0.25 -0.265625,0.296875 -0.265625,0.296875 0.04687,0.04687 0.04687,0.04687 -0.09375,-0.09375 Q 20.625,16.25 20.5,16.25 H 20.375 20.5625 20.75 20.5 q -0.25,0 -0.5,0.25 -0.25,0.25 -0.5,0.5 -0.25,0.25 -0.375,0.625 L 19,18 H 18.5 18 l 0.125,-0.375 Q 18.25,17.25 18.5,17 18.75,16.75 19,16.5 19.25,16.25 19.5,16 19.75,15.75 20,15.5 M 21.3125,15.8125 21.25,15.75 21.0625,15.5625 20.875,15.375 21,15.5 q 0.125,0.125 0.25,0.25 l 0.125,0.125 -0.0625,-0.0625"
       id="path1815" />
    <path
       style="fill:#a5a59b;fill-opacity:1"
       d="M 21,15.5 20.75,15.25 20.9375,15.4375 21.125,15.625 21,15.5 Q 20.875,15.375 20.75,15.3125 L 20.625,15.25 20.6875,15.28125 20.75,15.3125 21.046875,15.015625 21.34375,14.71875 21.296875,14.671875 21.25,14.625 21.34375,14.71875 Q 21.4375,14.8125 21.625,14.875 L 21.8125,14.9375 21.53125,14.84375 21.25,14.75 21.625,14.875 22,15 22.125,15.375 22.25,15.75 22.15625,15.46875 22.0625,15.1875 22.125,15.375 q 0.0625,0.1875 0.15625,0.34375 L 22.375,15.875 22.328125,15.796875 22.28125,15.71875 22.015625,15.984375 21.75,16.25 21.5,16 Q 21.25,15.75 21,15.5 M 21.5625,16.0625 21.75,16.25 21.8125,16.3125 21.875,16.375 21.75,16.25 Q 21.625,16.125 21.5,16 l -0.125,-0.125 0.1875,0.1875"
       id="path1817" />
    <path
       style="fill:#888879;fill-opacity:1"
       d="M 22.125,15.375 22,15 22.375,15.125 Q 22.75,15.25 23,15.5 L 23.25,15.75 22.96875,16 22.6875,16.25 22.71875,16.3125 22.75,16.375 22.6875,16.25 Q 22.625,16.125 22.5,16 L 22.375,15.875 22.5625,16.0625 22.75,16.25 22.5,16 Q 22.25,15.75 22.125,15.375 M 23.3125,15.8125 23.25,15.75 23.0625,15.5625 22.875,15.375 23,15.5 q 0.125,0.125 0.25,0.25 l 0.125,0.125 -0.0625,-0.0625"
       id="path1819" />
    <path
       style="fill:#b1b1a8;fill-opacity:1"
       d="M 23,15.5 22.75,15.25 22.9375,15.4375 23.125,15.625 23,15.5 q -0.125,-0.125 -0.28125,-0.21875 l -0.15625,-0.09375 0.07813,0.04687 0.07813,0.04687 0.265625,-0.265625 L 23.25,14.75 23.5,15 q 0.25,0.25 0.5,0.5 L 24.25,15.75 23.96875,16 23.6875,16.25 23.71875,16.3125 23.75,16.375 23.6875,16.25 Q 23.625,16.125 23.5,16 L 23.375,15.875 23.5625,16.0625 23.75,16.25 23.5,16 Q 23.25,15.75 23,15.5 M 24.3125,15.8125 24.25,15.75 24.0625,15.5625 23.875,15.375 24,15.5 q 0.125,0.125 0.25,0.25 l 0.125,0.125 -0.0625,-0.0625 M 23.4375,14.9375 23.25,14.75 23.1875,14.6875 23.125,14.625 23.25,14.75 q 0.125,0.125 0.25,0.25 l 0.125,0.125 -0.1875,-0.1875"
       id="path1821" />
    <path
       style="fill:#747463;fill-opacity:1"
       d="M 7,16.5 Q 7.25,16.25 7.5,16 L 7.75,15.75 8,16 8.25,16.25 8,16.5 Q 7.75,16.75 7.5,17 L 7.25,17.25 7.4375,17.0625 7.625,16.875 7.5,17 Q 7.375,17.125 7.28125,17.28125 L 7.1875,17.4375 7.234375,17.359375 7.28125,17.28125 7.015625,17.015625 6.75,16.75 7,16.5 M 6.9375,16.5625 6.75,16.75 6.6875,16.8125 6.625,16.875 6.75,16.75 Q 6.875,16.625 7,16.5 L 7.125,16.375 6.9375,16.5625 M 8.0625,16.4375 8.25,16.25 8.3125,16.1875 8.375,16.125 8.25,16.25 Q 8.125,16.375 8,16.5 l -0.125,0.125 0.1875,-0.1875 m -0.25,-0.75 L 7.75,15.75 7.5625,15.9375 7.375,16.125 7.5,16 q 0.125,-0.125 0.25,-0.25 l 0.125,-0.125 -0.0625,0.0625"
       id="path1823" />
    <path
       style="fill:#888879;fill-opacity:1"
       d="m 9.125,16.625 q 0.125,-0.375 0.5,-0.5 L 10,16 9.875,16.375 q -0.125,0.375 -0.5,0.5 L 9,17 9.125,16.625"
       id="path1825" />
    <path
       style="fill:#a5a59b;fill-opacity:1"
       d="M 9.875,16.375 10,16 10.375,15.875 10.75,15.75 10.46875,15.84375 10.1875,15.9375 10.375,15.875 q 0.1875,-0.0625 0.3125,-0.1875 l 0.125,-0.125 -0.0625,0.0625 -0.0625,0.0625 0.28125,0.28125 L 11.25,16.25 11,16.5 Q 10.75,16.75 10.5,17 L 10.25,17.25 10.4375,17.0625 10.625,16.875 10.5,17 q -0.125,0.125 -0.21875,0.28125 l -0.09375,0.15625 0.04687,-0.07813 0.04687,-0.07813 L 9.984375,16.984375 9.6875,16.6875 9.625,16.75 9.5625,16.8125 9.6875,16.6875 Q 9.8125,16.5625 9.875,16.375 L 9.9375,16.1875 9.84375,16.46875 9.75,16.75 9.875,16.375 M 11.0625,16.4375 11.25,16.25 11.3125,16.1875 11.375,16.125 11.25,16.25 Q 11.125,16.375 11,16.5 l -0.125,0.125 0.1875,-0.1875"
       id="path1827" />
    <path
       style="fill:#b1b1a8;fill-opacity:1"
       d="M 12.125,16.625 Q 12.25,16.25 12.5,16 L 12.75,15.75 12.5625,15.9375 12.375,16.125 12.5,16 q 0.125,-0.125 0.1875,-0.25 l 0.0625,-0.125 -0.03125,0.0625 -0.03125,0.0625 0.296875,0.296875 0.296875,0.296875 0.04687,-0.04687 L 13.375,16.25 13.28125,16.34375 Q 13.1875,16.4375 13.125,16.625 L 13.0625,16.8125 13.15625,16.53125 13.25,16.25 13.125,16.625 13,17 H 12.5 Q 12,17 12.125,16.625"
       id="path1829" />
    <path
       style="fill:#747463;fill-opacity:1"
       d="M 13.125,16.625 Q 13.25,16.25 13.5,16.25 q 0.25,0 0.5,0.25 l 0.25,0.25 -0.265625,0.265625 -0.265625,0.265625 0.07813,0.04687 L 13.875,17.375 13.71875,17.28125 Q 13.5625,17.1875 13.375,17.125 L 13.1875,17.0625 13.46875,17.15625 13.75,17.25 13.375,17.125 13,17 13.125,16.625 M 14.3125,16.8125 14.25,16.75 14.0625,16.5625 13.875,16.375 14,16.5 q 0.125,0.125 0.25,0.25 l 0.125,0.125 -0.0625,-0.0625"
       id="path1831" />
    <path
       style="fill:#767665;fill-opacity:1"
       d="m 15.25,16.5 q 0,-0.25 0.25,-0.25 0.25,0 0.25,0.25 0,0.25 -0.25,0.25 -0.25,0 -0.25,-0.25"
       id="path1833" />
    <path
       style="fill:#b1b1a8;fill-opacity:1"
       d="M 15.75,16.5 V 16.25 16.4375 16.625 16.5 q 0,-0.125 -0.0625,-0.1875 L 15.625,16.25 15.65625,16.28125 15.6875,16.3125 15.96875,16 16.25,15.6875 16.1875,15.65625 16.125,15.625 16.25,15.6875 Q 16.375,15.75 16.5,15.75 H 16.625 16.4375 16.25 16.5 16.75 16.5625 16.375 16.5 q 0.125,0 0.25,-0.0625 l 0.125,-0.0625 -0.0625,0.03125 -0.0625,0.03125 0.296875,0.296875 0.296875,0.296875 0.04687,-0.04687 0.04687,-0.04687 -0.09375,0.09375 Q 17.25,16.375 17.25,16.5 V 16.625 16.4375 16.25 16.5 16.75 16.5625 16.375 16.5 q 0,0.125 0.0625,0.1875 L 17.375,16.75 17.34375,16.71875 17.3125,16.6875 l -0.296875,0.328125 -0.296875,0.328125 0.04687,0.04687 0.04687,0.04687 -0.09375,-0.09375 Q 16.625,17.25 16.5,17.25 H 16.375 16.5625 16.75 16.5 16.25 16.4375 16.625 16.5 q -0.125,0 -0.21875,0.09375 l -0.09375,0.09375 0.04687,-0.04687 0.04687,-0.04687 L 15.984375,17.015625 15.6875,16.6875 15.65625,16.71875 15.625,16.75 15.6875,16.6875 Q 15.75,16.625 15.75,16.5 V 16.375 16.5625 16.75 16.5"
       id="path1835" />
    <path
       style="fill:#888879;fill-opacity:1"
       d="m 17.25,16.5 q 0,-0.25 0.375,-0.375 L 18,16 17.875,16.375 Q 17.75,16.75 17.5,16.75 q -0.25,0 -0.25,-0.25"
       id="path1837" />
    <path
       style="fill:#929286;fill-opacity:1"
       d="m 20,16.5 q 0.25,-0.25 0.5,-0.25 0.25,0 0.375,0.40625 L 21,17.0625 H 21.09375 21.1875 21 q -0.1875,0 -0.375,0.0625 L 20.4375,17.1875 20.71875,17.09375 21,17 20.625,17.125 Q 20.25,17.25 20,17.5 19.75,17.75 19.375,17.875 L 19,18 19.125,17.625 Q 19.25,17.25 19.5,17 19.75,16.75 20,16.5"
       id="path1839" />
    <path
       style="fill:#4f4f39;fill-opacity:1"
       d="M 20.875,16.65625 20.75,16.25 20.84375,16.53125 20.9375,16.8125 20.875,16.625 Q 20.8125,16.4375 20.71875,16.34375 L 20.625,16.25 l 0.04687,0.04687 0.04687,0.04687 0.265625,-0.296875 L 21.25,15.75 21.5,16 q 0.25,0.25 0.5,0.5 L 22.25,16.75 22.0625,16.5625 21.875,16.375 22,16.5 q 0.125,0.125 0.25,0.1875 L 22.375,16.75 22.3125,16.71875 22.25,16.6875 21.96875,17 21.6875,17.3125 21.75,17.375 l 0.0625,0.0625 -0.125,-0.125 Q 21.5625,17.1875 21.375,17.125 L 21.1875,17.0625 21.46875,17.15625 21.75,17.25 21.375,17.125 21,17 21.28125,17.09375 21.5625,17.1875 21.375,17.125 Q 21.1875,17.0625 21,17.0625 H 20.8125 20.90625 21 L 20.875,16.65625 M 21.4375,15.9375 21.25,15.75 21.1875,15.6875 21.125,15.625 21.25,15.75 q 0.125,0.125 0.25,0.25 l 0.125,0.125 -0.1875,-0.1875"
       id="path1841" />
    <path
       style="fill:#7d7d6f;fill-opacity:1"
       d="m 22,16.5 -0.25,-0.25 0.265625,-0.265625 0.265625,-0.265625 -0.04687,-0.07813 -0.04687,-0.07813 0.09375,0.15625 Q 22.375,15.875 22.5,16 L 22.625,16.125 22.4375,15.9375 22.25,15.75 22.5,16 q 0.25,0.25 0.25,0.5 0,0.25 -0.25,0.25 -0.25,0 -0.5,-0.25 M 21.6875,16.1875 21.75,16.25 21.9375,16.4375 22.125,16.625 22,16.5 q -0.125,-0.125 -0.25,-0.25 l -0.125,-0.125 0.0625,0.0625"
       id="path1843" />
    <path
       style="fill:#767665;fill-opacity:1"
       d="M 22.75,16.5 V 16.25 16.4375 16.625 16.5 q 0,-0.125 -0.0625,-0.25 L 22.625,16.125 22.65625,16.1875 22.6875,16.25 22.96875,16 23.25,15.75 23.5,16 q 0.25,0.25 0.25,0.5 0,0.25 -0.25,0.5 L 23.25,17.25 23.4375,17.0625 23.625,16.875 23.5,17 q -0.125,0.125 -0.21875,0.28125 l -0.09375,0.15625 0.04687,-0.07813 0.04687,-0.07813 L 22.984375,16.984375 22.6875,16.6875 22.65625,16.71875 22.625,16.75 22.6875,16.6875 Q 22.75,16.625 22.75,16.5 V 16.375 16.5625 16.75 16.5 M 23.4375,15.9375 23.25,15.75 23.1875,15.6875 23.125,15.625 23.25,15.75 q 0.125,0.125 0.25,0.25 l 0.125,0.125 -0.1875,-0.1875"
       id="path1845" />
    <path
       style="fill:#a5a59b;fill-opacity:1"
       d="M 23.75,16.5 V 16.25 16.4375 16.625 16.5 q 0,-0.125 -0.0625,-0.25 L 23.625,16.125 23.65625,16.1875 23.6875,16.25 23.96875,16 24.25,15.75 24.5,16 q 0.25,0.25 0.5,0.5 l 0.25,0.25 -0.265625,0.296875 -0.265625,0.296875 0.04687,0.04687 0.04687,0.04687 -0.09375,-0.09375 Q 24.625,17.25 24.5,17.25 H 24.375 24.5625 24.75 24.5 24.25 24.4375 24.625 24.5 q -0.125,0 -0.21875,0.09375 l -0.09375,0.09375 0.04687,-0.04687 0.04687,-0.04687 L 23.984375,17.046875 23.6875,16.75 23.65625,16.8125 23.625,16.875 23.6875,16.75 Q 23.75,16.625 23.75,16.5 V 16.375 16.5625 16.75 16.5 M 25.3125,16.8125 25.25,16.75 25.0625,16.5625 24.875,16.375 25,16.5 q 0.125,0.125 0.25,0.25 l 0.125,0.125 -0.0625,-0.0625 M 24.4375,15.9375 24.25,15.75 24.1875,15.6875 24.125,15.625 24.25,15.75 q 0.125,0.125 0.25,0.25 l 0.125,0.125 -0.1875,-0.1875"
       id="path1847" />
    <path
       style="fill:#696956;fill-opacity:1"
       d="M 25,16.5 24.75,16.25 25,16 25.25,15.75 25.5,16 q 0.25,0.25 0.5,0.5 l 0.25,0.25 -0.265625,0.265625 -0.265625,0.265625 0.04687,0.07813 0.04687,0.07813 -0.09375,-0.15625 Q 25.625,17.125 25.5,17 L 25.375,16.875 25.5625,17.0625 25.75,17.25 25.5,17 Q 25.25,16.75 25,16.5 M 26.3125,16.8125 26.25,16.75 26.0625,16.5625 25.875,16.375 26,16.5 q 0.125,0.125 0.25,0.25 l 0.125,0.125 -0.0625,-0.0625 M 25.4375,15.9375 25.25,15.75 25.1875,15.6875 25.125,15.625 25.25,15.75 q 0.125,0.125 0.25,0.25 l 0.125,0.125 -0.1875,-0.1875 m -0.75,0.25 L 24.75,16.25 24.9375,16.4375 25.125,16.625 25,16.5 q -0.125,-0.125 -0.25,-0.25 l -0.125,-0.125 0.0625,0.0625"
       id="path1849" />
    <path
       style="fill:#888879;fill-opacity:1"
       d="M 6.125,17.625 Q 6.25,17.25 6.5,17 L 6.75,16.75 7.015625,17.015625 7.28125,17.28125 7.328125,17.203125 7.375,17.125 7.28125,17.28125 Q 7.1875,17.4375 7.125,17.625 L 7.0625,17.8125 7.15625,17.53125 7.25,17.25 7.125,17.625 7,18 6.46875,17.96875 5.9375,17.9375 5.875,18 5.8125,18.0625 5.9375,17.9375 Q 6.0625,17.8125 6.125,17.625 L 6.1875,17.4375 6.09375,17.71875 6,18 6.125,17.625 M 6.8125,16.6875 6.75,16.75 6.5625,16.9375 6.375,17.125 6.5,17 q 0.125,-0.125 0.25,-0.25 l 0.125,-0.125 -0.0625,0.0625"
       id="path1851" />
    <path
       style="fill:#b1b1a8;fill-opacity:1"
       d="M 7.125,17.625 Q 7.25,17.25 7.5,17 L 7.75,16.75 8.046875,17.015625 8.34375,17.28125 8.390625,17.234375 8.4375,17.1875 8.34375,17.28125 Q 8.25,17.375 8.25,17.5 V 17.625 17.4375 17.25 17.5 q 0,0.25 0.25,0.25 H 8.75 8.5625 8.375 8.5 q 0.125,0 0.21875,-0.09375 L 8.8125,17.5625 8.765625,17.609375 8.71875,17.65625 9,17.96875 9.28125,18.28125 9.359375,18.234375 9.4375,18.1875 9.28125,18.28125 Q 9.125,18.375 9,18.5 L 8.875,18.625 9.0625,18.4375 9.25,18.25 9,18.5 Q 8.75,18.75 8.375,18.875 L 8,19 7.875,18.625 Q 7.75,18.25 7.375,18.125 L 7,18 7.125,17.625 M 7.8125,16.6875 7.75,16.75 7.5625,16.9375 7.375,17.125 7.5,17 q 0.125,-0.125 0.25,-0.25 l 0.125,-0.125 -0.0625,0.0625"
       id="path1853" />
    <path
       style="fill:#888879;fill-opacity:1"
       d="m 8.25,17.5 q 0,-0.25 0.375,-0.375 L 9,17 8.875,17.375 Q 8.75,17.75 8.5,17.75 8.25,17.75 8.25,17.5"
       id="path1855" />
    <path
       style="fill:#929286;fill-opacity:1"
       d="M 8.875,17.375 9,17 9.375,16.875 9.75,16.75 9.46875,16.84375 9.1875,16.9375 9.375,16.875 q 0.1875,-0.0625 0.3125,-0.1875 l 0.125,-0.125 -0.0625,0.0625 -0.0625,0.0625 0.296875,0.296875 0.296875,0.296875 0.04687,-0.07813 L 10.375,17.125 10.28125,17.28125 Q 10.1875,17.4375 10.125,17.625 L 10.0625,17.8125 10.15625,17.53125 10.25,17.25 10.125,17.625 10,18 9.625,18.125 9.25,18.25 9.53125,18.15625 9.8125,18.0625 9.625,18.125 Q 9.4375,18.1875 9.28125,18.28125 L 9.125,18.375 9.203125,18.328125 9.28125,18.28125 9,17.96875 8.71875,17.65625 8.671875,17.703125 8.625,17.75 8.71875,17.65625 Q 8.8125,17.5625 8.875,17.375 L 8.9375,17.1875 8.84375,17.46875 8.75,17.75 8.875,17.375 M 9.71875,18.09375 10,18 10.09375,17.96875 10.1875,17.9375 10,18 q -0.1875,0.0625 -0.375,0.125 l -0.1875,0.0625 0.28125,-0.09375"
       id="path1857" />
    <path
       style="fill:#3d320d;fill-opacity:1"
       d="M 13,17.5 V 17 l 0.375,0.125 Q 13.75,17.25 14,17.5 q 0.25,0.25 0.625,0.375 L 15,18 V 18.5 19 L 14.625,18.875 Q 14.25,18.75 14,18.5 13.75,18.25 13.375,18.125 L 13,18 v -0.5"
       id="path1859" />
    <path
       style="fill:#696956;fill-opacity:1"
       d="M 14,17.5 13.75,17.25 13.9375,17.4375 14.125,17.625 14,17.5 q -0.125,-0.125 -0.28125,-0.21875 l -0.15625,-0.09375 0.07813,0.04687 0.07813,0.04687 0.265625,-0.265625 L 14.25,16.75 14.5,17 q 0.25,0.25 0.375,0.625 L 15,18 14.625,17.875 Q 14.25,17.75 14,17.5 M 14.4375,16.9375 14.25,16.75 14.1875,16.6875 14.125,16.625 14.25,16.75 q 0.125,0.125 0.25,0.25 l 0.125,0.125 -0.1875,-0.1875"
       id="path1861" />
    <path
       style="fill:#767665;fill-opacity:1"
       d="M 16.125,17.625 Q 16.25,17.25 16.5,17.25 q 0.25,0 0.375,0.375 L 17,18 H 16.5 16 l 0.125,-0.375"
       id="path1863" />
    <path
       style="fill:#a5a59b;fill-opacity:1"
       d="M 16.875,17.625 16.75,17.25 16.84375,17.53125 16.9375,17.8125 16.875,17.625 Q 16.8125,17.4375 16.71875,17.34375 L 16.625,17.25 l 0.04687,0.04687 0.04687,0.04687 0.296875,-0.328125 L 17.3125,16.6875 17.28125,16.65625 17.25,16.625 17.3125,16.6875 Q 17.375,16.75 17.5,16.75 H 17.625 17.4375 17.25 17.5 17.75 17.5625 17.375 17.5 q 0.125,0 0.21875,-0.09375 l 0.09375,-0.09375 -0.04687,0.04687 -0.04687,0.04687 0.28125,0.3125 0.28125,0.3125 0.04687,-0.07813 L 18.375,17.125 18.28125,17.28125 Q 18.1875,17.4375 18.125,17.625 L 18.0625,17.8125 18.15625,17.53125 18.25,17.25 18.125,17.625 18,18 H 17.5 17 l -0.125,-0.375"
       id="path1865" />
    <path
       style="fill:#3d320d;fill-opacity:1"
       d="m 20,17.5 q 0.25,-0.25 0.625,-0.375 0.375,-0.125 0.75,0 0.375,0.125 0.5,0.5 L 22,18 H 21.5 Q 21,18 20.625,18.125 20.25,18.25 20,18.5 19.75,18.75 19.375,18.875 19,19 18.5,19 H 18 V 18.5 18 h 0.5 0.5 l 0.375,-0.125 Q 19.75,17.75 20,17.5"
       id="path1867" />
    <path
       style="fill:#595945;fill-opacity:1"
       d="M 21.875,17.625 21.75,17.25 21.84375,17.53125 21.9375,17.8125 21.875,17.625 q -0.0625,-0.1875 -0.1875,-0.3125 l -0.125,-0.125 0.0625,0.0625 0.0625,0.0625 L 21.96875,17 22.25,16.6875 22.1875,16.65625 22.125,16.625 22.25,16.6875 Q 22.375,16.75 22.5,16.75 H 22.625 22.4375 22.25 22.5 22.75 22.5625 22.375 22.5 q 0.125,0 0.1875,-0.0625 l 0.0625,-0.0625 -0.03125,0.03125 -0.03125,0.03125 0.296875,0.296875 0.296875,0.296875 0.04687,-0.07813 L 23.375,17.125 23.28125,17.28125 Q 23.1875,17.4375 23.125,17.625 L 23.0625,17.8125 23.15625,17.53125 23.25,17.25 23.125,17.625 23,18 H 22.46875 21.9375 V 18.09375 18.1875 18 q 0,-0.1875 -0.0625,-0.375 L 21.8125,17.4375 21.90625,17.71875 22,18 21.875,17.625 M 22.625,18 H 23 23.125 23.25 23 q -0.25,0 -0.5,0 h -0.25 0.375"
       id="path1869" />
    <path
       style="fill:#b1b1a8;fill-opacity:1"
       d="M 23.125,17.625 Q 23.25,17.25 23.5,17 L 23.75,16.75 23.5625,16.9375 23.375,17.125 23.5,17 q 0.125,-0.125 0.1875,-0.25 l 0.0625,-0.125 -0.03125,0.0625 -0.03125,0.0625 0.296875,0.296875 0.296875,0.296875 0.04687,-0.04687 L 24.375,17.25 24.28125,17.34375 Q 24.1875,17.4375 24.125,17.625 L 24.0625,17.8125 24.15625,17.53125 24.25,17.25 24.0625,17.6875 23.875,18.125 23.9375,18.1875 24,18.25 23.875,18.125 Q 23.75,18 23.5,18 H 23.25 23.625 24 23.5 23 l 0.125,-0.375 M 22.875,18 H 23 23.375 23.75 23.5 q -0.25,0 -0.5,0 h -0.25 0.125"
       id="path1871" />
    <path
       style="fill:#888879;fill-opacity:1"
       d="M 24.0625,17.6875 Q 24.25,17.25 24.5,17.25 q 0.25,0 0.375,0.375 L 25,18 24.4375,18.0625 23.875,18.125 24.0625,17.6875"
       id="path1873" />
    <path
       style="fill:#b1b1a8;fill-opacity:1"
       d="M 24.875,17.625 24.75,17.25 24.84375,17.53125 24.9375,17.8125 24.875,17.625 Q 24.8125,17.4375 24.71875,17.34375 L 24.625,17.25 l 0.04687,0.04687 0.04687,0.04687 0.265625,-0.296875 L 25.25,16.75 25.5,17 q 0.25,0.25 0.375,0.625 L 26,18 H 25.5 25 L 24.875,17.625 M 25.625,18 H 26 26.125 26.25 26 q -0.25,0 -0.5,0 h -0.25 0.375 M 25.4375,16.9375 25.25,16.75 25.1875,16.6875 25.125,16.625 25.25,16.75 q 0.125,0.125 0.25,0.25 l 0.125,0.125 -0.1875,-0.1875"
       id="path1875" />
    <path
       style="fill:#595945;fill-opacity:1"
       d="M 25.875,17.625 25.75,17.25 25.84375,17.53125 25.9375,17.8125 25.875,17.625 Q 25.8125,17.4375 25.71875,17.28125 L 25.625,17.125 l 0.04687,0.07813 0.04687,0.07813 0.265625,-0.265625 L 26.25,16.75 26.5,17 q 0.25,0.25 0.375,0.625 L 27,18 26.90625,17.71875 26.8125,17.4375 26.875,17.625 q 0.0625,0.1875 0.09375,0.40625 L 27,18.25 26.984375,18.140625 26.96875,18.03125 26.484375,18.015625 26,18 25.875,17.625 m 0,0.375 H 26 26.375 26.75 26.5 q -0.25,0 -0.5,0 h -0.25 0.125 M 26.4375,16.9375 26.25,16.75 26.1875,16.6875 26.125,16.625 26.25,16.75 q 0.125,0.125 0.25,0.25 l 0.125,0.125 -0.1875,-0.1875"
       id="path1877" />
    <path
       style="fill:#dec6b7;fill-opacity:1"
       d="m 5.125,18.625 q 0.125,-0.375 0.5,-0.5 L 6,18 5.71875,18.09375 5.4375,18.1875 5.625,18.125 Q 5.8125,18.0625 5.9375,17.9375 L 6.0625,17.8125 6,17.875 5.9375,17.9375 6.46875,17.96875 7,18 7.375,18.125 q 0.375,0.125 0.5,0.5 L 8,19 7.625,19.125 7.25,19.25 7.53125,19.15625 7.8125,19.0625 7.625,19.125 Q 7.4375,19.1875 7.3125,19.3125 L 7.1875,19.4375 7.25,19.375 7.3125,19.3125 7.03125,19.03125 Q 6.75,18.75 6.375,18.875 6,19 5.5,19 H 5 l 0.125,-0.375"
       id="path1879" />
    <path
       style="fill:#272007;fill-opacity:1"
       d="M 13.0625,18.5625 13,18 13.375,18.125 Q 13.75,18.25 14,18.5 q 0.25,0.25 0.625,0.375 L 15,19 V 19.5 20 L 14.625,19.875 Q 14.25,19.75 14,19.5 13.75,19.25 13.375,19.125 L 13,19 h 0.375 0.375 -0.25 q -0.25,0 -0.375,0.125 L 13,19.25 13.0625,19.1875 13.125,19.125 13.0625,18.5625"
       id="path1881" />
    <path
       style="fill:#b39944;fill-opacity:1"
       d="M 15,18.5 V 18 h 0.5 0.5 0.5 0.5 l -0.125,0.375 q -0.125,0.375 -0.5,0.5 Q 16,19 15.5,19 H 15 v -0.5 m 0,0.125 V 19 19.125 19.25 19 q 0,-0.25 0,-0.5 v -0.25 0.375 M 17.125,18 H 17 16.625 16.25 16.5 q 0.25,0 0.5,0 h 0.25 -0.125"
       id="path1883" />
    <path
       style="fill:#765e0e;fill-opacity:1"
       d="M 16.875,18.375 17,18 h 0.5 0.5 v 0.5 0.5 0.5 0.5 h -0.5 q -0.5,0 -1,0 -0.5,0 -1,0 H 15 V 19.5 19 h 0.5 q 0.5,0 0.875,-0.125 0.375,-0.125 0.5,-0.5 M 15,18.875 V 19 19.375 19.75 19.5 q 0,-0.25 0,-0.5 v -0.25 0.125 M 17.375,18 H 17 16.875 16.75 17 q 0.25,0 0.5,0 h 0.25 -0.375"
       id="path1885" />
    <path
       style="fill:#272007;fill-opacity:1"
       d="M 20,18.5 Q 20.25,18.25 20.625,18.125 21,18 21.5,18 H 22 l -0.125,0.375 Q 21.75,18.75 21.5,19 L 21.25,19.25 21.4375,19.0625 21.625,18.875 21.5,19 q -0.125,0.125 -0.1875,0.25 L 21.25,19.375 21.28125,19.3125 21.3125,19.25 21.03125,19 Q 20.75,18.75 20.5,19 q -0.25,0.25 -0.5,0.5 -0.25,0.25 -0.5,0.25 -0.25,0 -0.515625,0.265625 l -0.265625,0.265625 0.07813,0.04687 L 18.875,20.375 18.71875,20.28125 Q 18.5625,20.1875 18.375,20.125 L 18.1875,20.0625 18.46875,20.15625 18.75,20.25 18.375,20.125 18,20 V 19.5 19 h 0.5 Q 19,19 19.375,18.875 19.75,18.75 20,18.5"
       id="path1887" />
    <path
       style="fill:#dec6b7;fill-opacity:1"
       d="M 24,18.5 V 18 18.375 18.75 18.5 q 0,-0.25 -0.125,-0.375 L 23.75,18 23.8125,18.0625 23.875,18.125 24.4375,18.0625 25,18 h 0.5 0.5 l -0.125,0.375 q -0.125,0.375 -0.5,0.5 L 25,19 H 24.5 24 v -0.5"
       id="path1889" />
    <path
       style="fill:#ccab9e;fill-opacity:1"
       d="M 25.875,18.375 26,18 l 0.484375,0.01563 0.484375,0.01563 -0.01563,-0.109375 -0.01563,-0.109375 0.03125,0.21875 Q 27,18.25 27,18.5 V 18.75 18.375 18 18.5 19 l -0.375,0.125 q -0.375,0.125 -0.5,0.5 Q 26,20 25.5,20 H 25 V 19.5 19 l 0.375,-0.125 q 0.375,-0.125 0.5,-0.5"
       id="path1891" />
    <path
       style="fill:#ccab9e;fill-opacity:1"
       d="M 5,19.5 V 19 H 5.5 Q 6,19 6.375,18.875 6.75,18.75 7.03125,19.03125 L 7.3125,19.3125 7.375,19.25 7.4375,19.1875 7.3125,19.3125 Q 7.1875,19.4375 7.125,19.625 L 7.0625,19.8125 7.15625,19.53125 7.25,19.25 7.125,19.625 7,20 H 6.5 Q 6,20 5.5,20 H 5 v -0.5"
       id="path1893" />
    <path
       style="fill:#af8575;fill-opacity:1"
       d="m 7.125,19.625 q 0.125,-0.375 0.5,-0.5 L 8,19 v 0.5 q 0,0.5 -0.125,0.875 -0.125,0.375 -0.5,0.5 L 7,21 V 20.5 20 l 0.125,-0.375"
       id="path1895" />
    <path
       style="fill:#929286;fill-opacity:1"
       d="M 13.125,19.375 Q 13,19 13.375,19.125 13.75,19.25 14,19.5 q 0.25,0.25 0.625,0.375 L 15,20 14.875,20.375 Q 14.75,20.75 14.5,21 L 14.25,21.25 14.4375,21.0625 14.625,20.875 14.5,21 q -0.125,0.125 -0.1875,0.25 L 14.25,21.375 14.28125,21.3125 14.3125,21.25 14,21 13.6875,20.75 13.65625,20.8125 13.625,20.875 13.6875,20.75 Q 13.75,20.625 13.75,20.5 V 20.375 20.5625 20.75 20.5 q 0,-0.25 -0.25,-0.5 -0.25,-0.25 -0.375,-0.625"
       id="path1897" />
    <path
       style="fill:#3a3a2b;fill-opacity:1"
       d="m 20,19.5 q 0.25,-0.25 0.5,-0.5 0.25,-0.25 0.53125,0 L 21.3125,19.25 21.34375,19.1875 21.375,19.125 21.3125,19.25 Q 21.25,19.375 21.25,19.5 V 19.625 19.4375 19.25 19.5 q 0,0.25 0.25,0.5 0.25,0.25 0.375,0.625 L 22,21 21.625,21.125 Q 21.25,21.25 20.96875,21 L 20.6875,20.75 20.65625,20.8125 20.625,20.875 20.6875,20.75 Q 20.75,20.625 20.75,20.5 V 20.375 20.5625 20.75 20.5 q 0,-0.25 -0.25,-0.25 -0.25,0 -0.5,0.25 -0.25,0.25 -0.5,0.25 -0.25,0 -0.5,-0.25 L 18.75,20.25 18.9375,20.4375 19.125,20.625 19,20.5 q -0.125,-0.125 -0.28125,-0.21875 l -0.15625,-0.09375 0.07813,0.04687 0.07813,0.04687 0.265625,-0.265625 Q 19.25,19.75 19.5,19.75 q 0.25,0 0.5,-0.25"
       id="path1899" />
    <path
       style="fill:#b69486;fill-opacity:1"
       d="M 24,19.5 V 19 H 24.5 25 V 19.5 20 H 24.5 24 v -0.5"
       id="path1901" />
    <path
       style="fill:#af8575;fill-opacity:1"
       d="m 26.125,19.625 q 0.125,-0.375 0.5,-0.5 L 27,19 v 0.5 q 0,0.5 -0.125,0.875 -0.125,0.375 -0.5,0.5 Q 26,21 25.5,21 H 25 V 20.5 20 h 0.5 q 0.5,0 0.625,-0.375"
       id="path1903" />
    <path
       style="fill:#b69486;fill-opacity:1"
       d="M 5.125,20.375 5,20 h 0.5 q 0.5,0 1,0 H 7 V 20.5 21 H 6.5 Q 6,21 5.625,20.875 5.25,20.75 5.125,20.375"
       id="path1905" />
    <path
       style="fill:#595945;fill-opacity:1"
       d="M 14.875,20.375 15,20 h 0.5 0.5 l 0.125,0.375 q 0.125,0.375 0.375,0.375 0.25,0 0.375,-0.375 L 17,20 h 0.5 0.5 l -0.125,0.375 Q 17.75,20.75 17.5,21 q -0.25,0.25 -0.5,0.5 -0.25,0.25 -0.5,0.25 -0.25,0 -0.5,-0.25 -0.25,-0.25 -0.5,-0.25 H 15.25 15.4375 15.625 15.5 q -0.125,0 -0.25,0.0625 L 15.125,21.375 15.1875,21.34375 15.25,21.3125 14.984375,21.015625 14.71875,20.71875 14.671875,20.796875 14.625,20.875 14.71875,20.71875 Q 14.8125,20.5625 14.875,20.375 L 14.9375,20.1875 14.84375,20.46875 14.75,20.75 14.875,20.375 M 17.375,20 H 17 16.875 16.75 17 q 0.25,0 0.5,0 h 0.25 -0.375 m -1.25,0 H 16 15.625 15.25 15.5 q 0.25,0 0.5,0 h 0.25 -0.125"
       id="path1907" />
    <path
       style="fill:#929286;fill-opacity:1"
       d="M 16.125,20.375 16,20 h 0.5 0.5 l -0.125,0.375 Q 16.75,20.75 16.5,20.75 q -0.25,0 -0.375,-0.375 m 1,-0.375 H 17 16.625 16.25 16.5 q 0.25,0 0.5,0 h 0.25 -0.125 m -0.75,0 H 16 15.875 15.75 16 q 0.25,0 0.5,0 h 0.25 -0.375"
       id="path1909" />
    <path
       style="fill:#929286;fill-opacity:1"
       d="M 17.875,20.375 18,20 18.375,20.125 Q 18.75,20.25 19,20.5 L 19.25,20.75 19.0625,20.5625 18.875,20.375 19,20.5 q 0.125,0.125 0.25,0.1875 L 19.375,20.75 19.3125,20.71875 19.25,20.6875 19,21 18.75,21.3125 18.8125,21.34375 18.875,21.375 18.75,21.3125 Q 18.625,21.25 18.5,21.25 H 18.375 18.5625 18.75 18.5 q -0.25,0 -0.5,0.25 -0.25,0.25 -0.5,0.5 L 17.25,22.25 17,21.96875 16.75,21.6875 16.6875,21.71875 16.625,21.75 16.75,21.6875 Q 16.875,21.625 17,21.5 L 17.125,21.375 16.9375,21.5625 16.75,21.75 17,21.5 q 0.25,-0.25 0.5,-0.5 0.25,-0.25 0.375,-0.625 M 17.1875,22.3125 17.25,22.25 17.4375,22.0625 17.625,21.875 17.5,22 q -0.125,0.125 -0.25,0.25 l -0.125,0.125 0.0625,-0.0625"
       id="path1911" />
    <path
       style="fill:#8c8c7f;fill-opacity:1"
       d="m 20,20.5 q 0.25,-0.25 0.5,-0.25 0.25,0 0.25,0.25 0,0.25 -0.25,0.5 -0.25,0.25 -0.5,0.5 -0.25,0.25 -0.5,0.25 -0.25,0 -0.5,-0.25 L 18.75,21.25 18.9375,21.4375 19.125,21.625 19,21.5 Q 18.875,21.375 18.75,21.3125 L 18.625,21.25 18.6875,21.28125 18.75,21.3125 19,21 19.25,20.6875 19.1875,20.65625 19.125,20.625 19.25,20.6875 Q 19.375,20.75 19.5,20.75 H 19.625 19.4375 19.25 19.5 q 0.25,0 0.5,-0.25"
       id="path1913" />
    <path
       style="fill:#ccab9e;fill-opacity:1"
       d="M 24.125,20.375 24,20 h 0.5 0.5 v 0.5 0.5 l -0.375,-0.125 q -0.375,-0.125 -0.5,-0.5"
       id="path1915" />
    <path
       style="fill:#8c8c7f;fill-opacity:1"
       d="M 13.125,21.625 Q 13.25,21.25 13.5,21 L 13.75,20.75 13.5625,20.9375 13.375,21.125 13.5,21 q 0.125,-0.125 0.1875,-0.25 L 13.75,20.625 13.71875,20.6875 13.6875,20.75 14,21 14.3125,21.25 14.34375,21.1875 14.375,21.125 14.3125,21.25 Q 14.25,21.375 14.25,21.5 V 21.625 21.4375 21.25 21.5 21.75 21.5625 21.375 21.5 q 0,0.125 0.0625,0.1875 L 14.375,21.75 14.34375,21.71875 14.3125,21.6875 14.015625,21.984375 13.71875,22.28125 13.796875,22.328125 13.875,22.375 13.71875,22.28125 Q 13.5625,22.1875 13.375,22.125 L 13.1875,22.0625 13.46875,22.15625 13.75,22.25 13.375,22.125 13,22 13.125,21.625 M 13.09375,21.71875 13,22 12.96875,22.09375 12.9375,22.1875 13,22 q 0.0625,-0.1875 0.125,-0.375 l 0.0625,-0.1875 -0.09375,0.28125"
       id="path1917" />
    <path
       style="fill:#4f4f39;fill-opacity:1"
       d="m 14.25,21.5 q 0,-0.25 0.25,-0.5 L 14.75,20.75 14.5625,20.9375 14.375,21.125 14.5,21 q 0.125,-0.125 0.21875,-0.28125 l 0.09375,-0.15625 -0.04687,0.07813 -0.04687,0.07813 0.265625,0.296875 L 15.25,21.3125 15.3125,21.28125 15.375,21.25 15.25,21.3125 Q 15.125,21.375 15,21.5 L 14.875,21.625 15.0625,21.4375 15.25,21.25 15,21.5 q -0.25,0.25 -0.5,0.25 -0.25,0 -0.25,-0.25"
       id="path1919" />
    <path
       style="fill:#929286;fill-opacity:1"
       d="m 15,21.5 q 0.25,-0.25 0.5,-0.25 0.25,0 0.5,0.25 L 16.25,21.75 16.0625,21.5625 15.875,21.375 16,21.5 q 0.125,0.125 0.25,0.1875 L 16.375,21.75 16.3125,21.71875 16.25,21.6875 16,22 15.75,22.3125 15.8125,22.34375 15.875,22.375 15.75,22.3125 Q 15.625,22.25 15.5,22.25 H 15.375 15.5625 15.75 15.5 15.25 15.4375 15.625 15.5 q -0.125,0 -0.25,0.0625 L 15.125,22.375 15.1875,22.34375 15.25,22.3125 15,22 14.75,21.6875 14.6875,21.71875 14.625,21.75 14.75,21.6875 Q 14.875,21.625 15,21.5 L 15.125,21.375 14.9375,21.5625 14.75,21.75 15,21.5"
       id="path1921" />
    <path
       style="fill:#4f4f39;fill-opacity:1"
       d="m 18,21.5 q 0.25,-0.25 0.5,-0.25 0.25,0 0.5,0.25 L 19.25,21.75 19.0625,21.5625 18.875,21.375 19,21.5 q 0.125,0.125 0.25,0.1875 L 19.375,21.75 19.3125,21.71875 19.25,21.6875 l -0.265625,0.328125 -0.265625,0.328125 0.04687,0.04687 0.04687,0.04687 -0.09375,-0.09375 Q 18.625,22.25 18.5,22.25 H 18.375 18.5625 18.75 18.5 18.25 18.4375 18.625 18.5 q -0.125,0 -0.21875,0.09375 l -0.09375,0.09375 0.04687,-0.04687 0.04687,-0.04687 L 18.015625,22.046875 17.75,21.75 18,21.5 M 17.9375,21.5625 17.75,21.75 17.6875,21.8125 17.625,21.875 17.75,21.75 Q 17.875,21.625 18,21.5 l 0.125,-0.125 -0.1875,0.1875"
       id="path1923" />
    <path
       style="fill:#272007;fill-opacity:1"
       d="M 20,21.5 Q 20.25,21.25 20.5,21 L 20.75,20.75 20.5625,20.9375 20.375,21.125 20.5,21 q 0.125,-0.125 0.1875,-0.25 L 20.75,20.625 20.71875,20.6875 20.6875,20.75 20.96875,21 Q 21.25,21.25 21.625,21.125 L 22,21 v 0.5 0.5 h -0.5 q -0.5,0 -0.875,0.125 -0.375,0.125 -0.5,0.5 L 20,23 H 19.5 19 L 18.875,22.625 18.75,22.25 18.84375,22.53125 18.9375,22.8125 18.875,22.625 Q 18.8125,22.4375 18.71875,22.34375 L 18.625,22.25 l 0.04687,0.04687 0.04687,0.04687 0.265625,-0.328125 L 19.25,21.6875 19.1875,21.65625 19.125,21.625 19.25,21.6875 Q 19.375,21.75 19.5,21.75 H 19.625 19.4375 19.25 19.5 q 0.25,0 0.5,-0.25"
       id="path1925" />
    <path
       style="fill:#3d320d;fill-opacity:1"
       d="M 12.875,22.375 13,22 13.375,22.125 Q 13.75,22.25 14,22.5 L 14.25,22.75 14.0625,22.5625 13.875,22.375 14,22.5 q 0.125,0.125 0.25,0.1875 L 14.375,22.75 14.3125,22.71875 14.25,22.6875 14,22.96875 Q 13.75,23.25 13.5,23.25 q -0.25,0 -0.375,0.375 Q 13,24 12.5,24 H 12 l 0.125,-0.375 Q 12.25,23.25 12.5,23 12.75,22.75 12.875,22.375 M 13.03125,21.90625 13,22 12.90625,22.28125 12.8125,22.5625 12.875,22.375 Q 12.9375,22.1875 13,22 l 0.0625,-0.1875 -0.03125,0.09375"
       id="path1927" />
    <path
       style="fill:#9b9b8b;fill-opacity:1"
       d="M 14,22.5 13.75,22.25 13.9375,22.4375 14.125,22.625 14,22.5 q -0.125,-0.125 -0.28125,-0.21875 l -0.15625,-0.09375 0.07813,0.04687 0.07813,0.04687 0.296875,-0.296875 L 14.3125,21.6875 14.28125,21.65625 14.25,21.625 14.3125,21.6875 Q 14.375,21.75 14.5,21.75 H 14.625 14.4375 14.25 14.5 14.75 14.5625 14.375 14.5 q 0.125,0 0.25,-0.0625 L 14.875,21.625 14.8125,21.65625 14.75,21.6875 15,22 15.25,22.3125 15.3125,22.28125 15.375,22.25 15.25,22.3125 Q 15.125,22.375 15,22.5 L 14.875,22.625 15.0625,22.4375 15.25,22.25 15,22.5 q -0.25,0.25 -0.5,0.25 -0.25,0 -0.5,-0.25"
       id="path1929" />
    <path
       style="fill:#3d320d;fill-opacity:1"
       d="m 15,22.5 q 0.25,-0.25 0.5,-0.25 0.25,0 0.5,0.25 L 16.25,22.75 16.0625,22.5625 15.875,22.375 16,22.5 q 0.125,0.125 0.25,0.1875 L 16.375,22.75 16.3125,22.71875 16.25,22.6875 16,22.96875 Q 15.75,23.25 15.75,23.5 q 0,0.25 -0.375,0.375 L 15,24 15.125,23.625 Q 15.25,23.25 15,22.96875 L 14.75,22.6875 14.6875,22.71875 14.625,22.75 14.75,22.6875 Q 14.875,22.625 15,22.5 L 15.125,22.375 14.9375,22.5625 14.75,22.75 15,22.5"
       id="path1931" />
    <path
       style="fill:#8c8c7f;fill-opacity:1"
       d="M 16,22.5 15.75,22.25 15.9375,22.4375 16.125,22.625 16,22.5 Q 15.875,22.375 15.75,22.3125 L 15.625,22.25 15.6875,22.28125 15.75,22.3125 16,22 16.25,21.6875 16.1875,21.65625 16.125,21.625 16.25,21.6875 Q 16.375,21.75 16.5,21.75 H 16.625 16.4375 16.25 16.5 16.75 16.5625 16.375 16.5 q 0.125,0 0.25,-0.0625 L 16.875,21.625 16.8125,21.65625 16.75,21.6875 17,21.96875 17.25,22.25 17,22.5 q -0.25,0.25 -0.5,0.25 -0.25,0 -0.5,-0.25 M 17.0625,22.4375 17.25,22.25 17.3125,22.1875 17.375,22.125 17.25,22.25 Q 17.125,22.375 17,22.5 l -0.125,0.125 0.1875,-0.1875"
       id="path1933" />
    <path
       style="fill:#272007;fill-opacity:1"
       d="m 17,22.5 q 0.25,-0.25 0.5,-0.5 l 0.25,-0.25 0.265625,0.296875 0.265625,0.296875 0.04687,-0.04687 L 18.375,22.25 18.28125,22.34375 Q 18.1875,22.4375 18.125,22.625 L 18.0625,22.8125 18.15625,22.53125 18.25,22.25 18.125,22.625 18,23 17.625,23.125 q -0.375,0.125 -0.5,0.5 L 17,24 16.625,24.125 Q 16.25,24.25 16,24.5 15.75,24.75 15.5,25 15.25,25.25 15.125,25.625 15,26 14.875,26.375 14.75,26.75 14.5,27 L 14.25,27.25 14.4375,27.0625 14.625,26.875 14.5,27 q -0.125,0.125 -0.1875,0.25 L 14.25,27.375 14.28125,27.3125 14.3125,27.25 14.03125,27 Q 13.75,26.75 13.875,26.375 14,26 14,25.5 V 25 l 0.375,-0.125 q 0.375,-0.125 0.5,-0.5 L 15,24 15.375,23.875 Q 15.75,23.75 15.75,23.5 15.75,23.25 16,22.96875 L 16.25,22.6875 16.1875,22.65625 16.125,22.625 16.25,22.6875 Q 16.375,22.75 16.5,22.75 H 16.625 16.4375 16.25 16.5 q 0.25,0 0.5,-0.25 M 17.8125,21.6875 17.75,21.75 17.5625,21.9375 17.375,22.125 17.5,22 q 0.125,-0.125 0.25,-0.25 l 0.125,-0.125 -0.0625,0.0625"
       id="path1935" />
    <path
       style="fill:#3d320d;fill-opacity:1"
       d="M 18.125,22.625 Q 18.25,22.25 18.5,22.25 q 0.25,0 0.375,0.375 L 19,23 H 18.5 18 l 0.125,-0.375"
       id="path1937" />
    <path
       style="fill:#3d320d;fill-opacity:1"
       d="m 20.125,22.625 q 0.125,-0.375 0.5,-0.5 Q 21,22 21.5,22 H 22 v 0.5 q 0,0.5 0,1 V 24 H 21.5 21 V 23.5 Q 21,23 20.5,23 H 20 l 0.125,-0.375"
       id="path1939" />
    <path
       style="fill:#473f24;fill-opacity:1"
       d="M 13.125,23.625 Q 13.25,23.25 13.5,23.25 q 0.25,0 0.5,-0.28125 L 14.25,22.6875 14.1875,22.65625 14.125,22.625 14.25,22.6875 Q 14.375,22.75 14.5,22.75 H 14.625 14.4375 14.25 14.5 14.75 14.5625 14.375 14.5 q 0.125,0 0.25,-0.0625 L 14.875,22.625 14.8125,22.65625 14.75,22.6875 15,22.96875 Q 15.25,23.25 15.125,23.625 L 15,24 H 14.5 Q 14,24 14,24.5 V 25 h -0.5 q -0.5,0 -0.5,0.5 0,0.5 0,1 0,0.5 0,1 0,0.5 -0.5,0.5 H 12 L 11.875,27.625 11.75,27.25 11.84375,27.53125 11.9375,27.8125 11.875,27.625 Q 11.8125,27.4375 11.71875,27.28125 L 11.625,27.125 l 0.04687,0.07813 0.04687,0.07813 0.265625,-0.265625 Q 12.25,26.75 12.125,26.375 12,26 12.125,25.625 12.25,25.25 11.984375,24.984375 L 11.71875,24.71875 11.671875,24.796875 11.625,24.875 11.71875,24.71875 Q 11.8125,24.5625 11.875,24.375 L 11.9375,24.1875 11.84375,24.46875 11.75,24.75 11.875,24.375 12,24 h 0.5 q 0.5,0 0.625,-0.375"
       id="path1941" />
    <path
       style="fill:#3d320d;fill-opacity:1"
       d="m 17.125,23.625 q 0.125,-0.375 0.5,-0.5 L 18,23 18.125,23.375 18.25,23.75 18.15625,23.46875 18.0625,23.1875 18.125,23.375 q 0.0625,0.1875 0.1875,0.3125 l 0.125,0.125 -0.0625,-0.0625 -0.0625,-0.0625 -0.296875,0.296875 -0.296875,0.296875 0.07813,0.04687 L 17.875,24.375 17.71875,24.28125 Q 17.5625,24.1875 17.375,24.125 L 17.1875,24.0625 17.46875,24.15625 17.75,24.25 17.375,24.125 17,24 17.125,23.625"
       id="path1943" />
    <path
       style="fill:#473f24;fill-opacity:1"
       d="M 18.125,23.375 18,23 h 0.5 0.5 v 0.5 0.5 l -0.375,-0.125 q -0.375,-0.125 -0.5,-0.5"
       id="path1945" />
    <path
       style="fill:#3d320d;fill-opacity:1"
       d="M 19,23.5 V 23 H 19.5 20 V 23.5 24 H 19.5 19 v -0.5"
       id="path1947" />
    <path
       style="fill:#473f24;fill-opacity:1"
       d="M 20,23.5 V 23 h 0.5 Q 21,23 21,23.5 V 24 H 20.5 20 v -0.5"
       id="path1949" />
    <path
       style="fill:#3d320d;fill-opacity:1"
       d="M 14,24.5 Q 14,24 14.5,24 H 15 l -0.125,0.375 q -0.125,0.375 -0.5,0.5 L 14,25 v -0.5"
       id="path1951" />
    <path
       style="fill:#272007;fill-opacity:1"
       d="M 18,24.5 17.75,24.25 17.9375,24.4375 18.125,24.625 18,24.5 q -0.125,-0.125 -0.28125,-0.21875 l -0.15625,-0.09375 0.07813,0.04687 0.07813,0.04687 0.296875,-0.296875 L 18.3125,23.6875 18.25,23.625 l -0.0625,-0.0625 0.125,0.125 q 0.125,0.125 0.3125,0.1875 L 18.8125,23.9375 18.53125,23.84375 18.25,23.75 18.625,23.875 19,24 19.125,24.375 19.25,24.75 19.15625,24.46875 19.0625,24.1875 19.125,24.375 q 0.0625,0.1875 0.1875,0.3125 l 0.125,0.125 -0.0625,-0.0625 -0.0625,-0.0625 -0.296875,0.296875 -0.296875,0.296875 0.04687,0.07813 0.04687,0.07813 -0.09375,-0.15625 Q 18.625,25.125 18.5,25 L 18.375,24.875 18.5625,25.0625 18.75,25.25 18.5,25 Q 18.25,24.75 18,24.5"
       id="path1953" />
    <path
       style="fill:#473f24;fill-opacity:1"
       d="M 19.125,24.375 19,24 h 0.5 0.5 v 0.5 0.5 l -0.375,-0.125 q -0.375,-0.125 -0.5,-0.5"
       id="path1955" />
    <path
       style="fill:#3d320d;fill-opacity:1"
       d="M 20,24.5 V 24 H 20.5 21 V 24.5 25 H 20.5 20 v -0.5"
       id="path1957" />
    <path
       style="fill:#272007;fill-opacity:1"
       d="M 21,24.5 V 24 h 0.5 0.5 v 0.5 q 0,0.5 0.125,0.875 0.125,0.375 0.375,0.625 0.25,0.25 0.375,0.625 L 23,27 H 22.5 22 l -0.125,-0.375 q -0.125,-0.375 -0.5,-0.5 L 21,26 V 25.5 25 24.5"
       id="path1959" />
    <path
       style="fill:#3d320d;fill-opacity:1"
       d="M 11.125,25.625 Q 11.25,25.25 11.5,25 L 11.75,24.75 11.5625,24.9375 11.375,25.125 11.5,25 q 0.125,-0.125 0.21875,-0.28125 l 0.09375,-0.15625 -0.04687,0.07813 -0.04687,0.07813 0.265625,0.265625 Q 12.25,25.25 12.125,25.625 12,26 12.125,26.375 12.25,26.75 11.984375,27.015625 l -0.265625,0.265625 0.04687,0.07813 0.04687,0.07813 -0.09375,-0.15625 Q 11.625,27.125 11.5,27 L 11.375,26.875 11.5625,27.0625 11.75,27.25 11.5,27 Q 11.25,26.75 11.125,26.375 11,26 11.125,25.625"
       id="path1961" />
    <path
       style="fill:#3d320d;fill-opacity:1"
       d="M 13,25.5 Q 13,25 13.5,25 H 14 v 0.5 Q 14,26 13.875,26.375 13.75,26.75 14.03125,27 L 14.3125,27.25 14.34375,27.1875 14.375,27.125 14.3125,27.25 Q 14.25,27.375 14.25,27.5 V 27.625 27.4375 27.25 27.5 27.75 27.5625 27.375 27.5 q 0,0.125 0.0625,0.25 L 14.375,27.875 14.34375,27.8125 14.3125,27.75 14.03125,28 Q 13.75,28.25 13.875,28.625 14,29 14.5,29 H 15 v 0.5 q 0,0.5 -0.125,0.875 -0.125,0.375 -0.5,0.5 Q 14,31 13.5,31 13,31 12.5,31 H 12 V 30.5 30 l 0.375,-0.125 Q 12.75,29.75 12.75,29.5 12.75,29.25 12.5,29 12.25,28.75 12.125,28.375 L 12,28 h 0.5 q 0.5,0 0.5,-0.5 0,-0.5 0,-1 0,-0.5 0,-1"
       id="path1963" />
    <path
       style="fill:#000000;fill-opacity:0"
       d="m 16.125,25.625 q 0.125,-0.375 0.5,-0.5 0.375,-0.125 0.75,0 0.375,0.125 0.5,0.5 Q 18,26 18,26.5 18,27 17.5,27 17,27 16.5,27 H 16 v -0.5 q 0,-0.5 0.125,-0.875"
       id="path1965" />
    <path
       style="fill:#3d320d;fill-opacity:1"
       d="M 18.875,25.625 18.75,25.25 18.84375,25.53125 18.9375,25.8125 18.875,25.625 Q 18.8125,25.4375 18.71875,25.28125 L 18.625,25.125 l 0.04687,0.07813 0.04687,0.07813 0.296875,-0.296875 L 19.3125,24.6875 19.25,24.625 l -0.0625,-0.0625 0.125,0.125 q 0.125,0.125 0.3125,0.1875 L 19.8125,24.9375 19.53125,24.84375 19.25,24.75 19.625,24.875 20,25 V 25.5 26 H 19.5 19 l -0.125,-0.375"
       id="path1967" />
    <path
       style="fill:#473f24;fill-opacity:1"
       d="M 20,25.5 V 25 h 0.5 0.5 v 0.5 0.5 0.5 0.5 l -0.375,-0.125 q -0.375,-0.125 -0.5,-0.5 L 20,26 v -0.5"
       id="path1969" />
    <path
       style="fill:#272007;fill-opacity:1"
       d="M 19.125,26.375 19,26 h 0.5 0.5 l 0.125,0.375 0.125,0.375 -0.09375,-0.28125 -0.09375,-0.28125 0.0625,0.1875 q 0.0625,0.1875 0.1875,0.3125 l 0.125,0.125 -0.0625,-0.0625 -0.0625,-0.0625 -0.296875,0.296875 -0.296875,0.296875 0.04687,0.07813 0.04687,0.07813 -0.09375,-0.15625 Q 19.625,27.125 19.5,27 L 19.375,26.875 19.5625,27.0625 19.75,27.25 19.5,27 q -0.25,-0.25 -0.375,-0.625"
       id="path1971" />
    <path
       style="fill:#3d320d;fill-opacity:1"
       d="M 21,26.5 V 26 l 0.375,0.125 q 0.375,0.125 0.5,0.5 L 22,27 H 21.5 21 v -0.5"
       id="path1973" />
    <path
       style="fill:#000000;fill-opacity:0"
       d="m 15.25,27.5 q 0,-0.25 0.375,-0.375 L 16,27 v 0.5 Q 16,28 15.625,27.875 15.25,27.75 15.25,27.5"
       id="path1975" />
    <path
       style="fill:#3d320d;fill-opacity:1"
       d="M 19.875,27.625 19.75,27.25 19.84375,27.53125 19.9375,27.8125 19.875,27.625 Q 19.8125,27.4375 19.71875,27.28125 L 19.625,27.125 l 0.04687,0.07813 0.04687,0.07813 0.296875,-0.296875 L 20.3125,26.6875 20.25,26.625 l -0.0625,-0.0625 0.125,0.125 q 0.125,0.125 0.3125,0.1875 L 20.8125,26.9375 20.53125,26.84375 20.25,26.75 20.625,26.875 21,27 V 27.5 28 H 20.5 20 l -0.125,-0.375"
       id="path1977" />
    <path
       style="fill:#473f24;fill-opacity:1"
       d="M 21,27.5 V 27 H 21.5 22 V 27.5 28 H 21.5 21 v -0.5"
       id="path1979" />
    <path
       style="fill:#3d320d;fill-opacity:1"
       d="M 22,27.5 V 27 h 0.5 0.5 l 0.125,0.375 Q 23.25,27.75 23.5,28 23.75,28.25 23.875,28.625 24,29 24,29.5 q 0,0.5 -0.125,0.875 -0.125,0.375 -0.5,0.5 Q 23,31 22.5,31 H 22 V 30.5 Q 22,30 22.5,30 23,30 23,29.5 23,29 22.875,28.625 22.75,28.25 22.375,28.125 L 22,28 v -0.5"
       id="path1981" />
    <path
       style="fill:#272007;fill-opacity:1"
       d="M 13.875,28.625 Q 13.75,28.25 14.03125,28 L 14.3125,27.75 14.28125,27.6875 14.25,27.625 14.3125,27.75 Q 14.375,27.875 14.5,28 L 14.625,28.125 14.4375,27.9375 14.25,27.75 14.5,28 q 0.25,0.25 0.375,0.625 L 15,29 H 14.5 Q 14,29 13.875,28.625"
       id="path1983" />
    <path
       style="fill:#272007;fill-opacity:1"
       d="M 20.125,28.375 20,28 h 0.5 0.5 l 0.125,0.375 0.125,0.375 -0.09375,-0.28125 -0.09375,-0.28125 0.0625,0.1875 q 0.0625,0.1875 0.1875,0.3125 l 0.125,0.125 L 21.375,28.75 21.3125,28.6875 21,28.96875 20.6875,29.25 20.71875,29.3125 20.75,29.375 20.6875,29.25 Q 20.625,29.125 20.5,29 L 20.375,28.875 20.5625,29.0625 20.75,29.25 20.5,29 q -0.25,-0.25 -0.375,-0.625"
       id="path1985" />
    <path
       style="fill:#3d320d;fill-opacity:1"
       d="M 21.125,28.375 21,28 h 0.5 0.5 v 0.5 q 0,0.5 -0.375,0.375 -0.375,-0.125 -0.5,-0.5"
       id="path1987" />
    <path
       style="fill:#473f24;fill-opacity:1"
       d="M 22,28.5 V 28 l 0.375,0.125 q 0.375,0.125 0.5,0.5 Q 23,29 23,29.5 23,30 22.5,30 22,30 22,30.5 V 31 H 21.5 Q 21,31 20.625,30.875 20.25,30.75 20.25,30.5 q 0,-0.25 0.25,-0.5 0.25,-0.25 0.25,-0.5 V 29.25 29.4375 29.625 29.5 q 0,-0.125 -0.0625,-0.25 L 20.625,29.125 20.65625,29.1875 20.6875,29.25 21,28.96875 21.3125,28.6875 21.25,28.625 l -0.0625,-0.0625 0.125,0.125 q 0.125,0.125 0.3125,0.1875 L 21.8125,28.9375 21.53125,28.84375 21.25,28.75 21.625,28.875 Q 22,29 22,28.5"
       id="path1989" />
    <path
       style="fill:#473f24;fill-opacity:1"
       d="m 10.25,30.5 q 0,-0.25 0.375,-0.375 Q 11,30 11.5,30 H 12 V 30.5 31 H 11.5 Q 11,31 10.625,30.875 10.25,30.75 10.25,30.5"
       id="path1991" />
    <path
       style="fill:#000000;fill-opacity:0"
       d="M 17,31.5 Q 17,31 17.5,31 18,31 18,31.5 V 32 H 17.5 17 v -0.5"
       id="path1993" />
  </g>
</svg>
