<?xml version="1.0" encoding="UTF-8" standalone="no"?>
<!-- Created with Inkscape (http://www.inkscape.org/) -->

<svg
   xmlns:dc="http://purl.org/dc/elements/1.1/"
   xmlns:cc="http://creativecommons.org/ns#"
   xmlns:rdf="http://www.w3.org/1999/02/22-rdf-syntax-ns#"
   xmlns:svg="http://www.w3.org/2000/svg"
   xmlns="http://www.w3.org/2000/svg"
   xmlns:sodipodi="http://sodipodi.sourceforge.net/DTD/sodipodi-0.dtd"
   xmlns:inkscape="http://www.inkscape.org/namespaces/inkscape"
   version="1.1"
   id="svg110"
   width="32"
   height="32"
   viewBox="0 0 32 32"
   sodipodi:docname="wineage.svg"
   inkscape:version="0.92.5 (2060ec1f9f, 2020-04-08)">
  <metadata
     id="metadata116">
    <rdf:RDF>
      <cc:Work
         rdf:about="">
        <dc:format>image/svg+xml</dc:format>
        <dc:type
           rdf:resource="http://purl.org/dc/dcmitype/StillImage" />
        <dc:title></dc:title>
      </cc:Work>
    </rdf:RDF>
  </metadata>
  <defs
     id="defs114" />
  <sodipodi:namedview
     pagecolor="#ffffff"
     bordercolor="#666666"
     borderopacity="1"
     objecttolerance="10"
     gridtolerance="10"
     guidetolerance="10"
     inkscape:pageopacity="0"
     inkscape:pageshadow="2"
     inkscape:window-width="1920"
     inkscape:window-height="1118"
     id="namedview112"
     showgrid="false"
     inkscape:zoom="5.5312498"
     inkscape:cx="11.333334"
     inkscape:cy="21.333334"
     inkscape:window-x="0"
     inkscape:window-y="24"
     inkscape:window-maximized="1"
     inkscape:current-layer="svg110" />
  <g
     id="g216"
     transform="matrix(0.99667671,0,0,0.99667671,7.528248,0.10634647)">
    <path
       style="fill:#000000;fill-opacity:0"
       d="M 0,0.5 V 0 H 0.5 1 1.5 2 2.5 3 3.5 4 4.5 5 5.5 6 6.5 7 7.5 8 8.5 9 9.5 10 10.5 11 11.5 12 12.5 13 13.5 14 14.5 15 15.5 16 16.5 17 V 0.5 1 1.5 2 2.5 3 3.5 4 4.5 5 5.5 6 6.5 7 7.5 8 8.5 9 9.5 10 10.5 11 11.5 12 12.5 13 13.5 14 14.5 15 15.5 16 16.5 17 17.5 18 18.5 19 19.5 20 L 16.625,19.875 Q 16.25,19.75 16.125,19.375 16,19 15.625,18.875 15.25,18.75 15.125,18.375 15,18 14.625,17.875 14.25,17.75 14.125,17.375 14,17 13.625,16.875 13.25,16.75 13.125,16.375 13,16 12.5,16 12,16 12,15.5 q 0,-0.5 0,-1 0,-0.5 0,-1 0,-0.5 0,-1 0,-0.5 0,-1 0,-0.5 0,-1 0,-0.5 0.125,-0.875 0.125,-0.375 0.5,-0.5 Q 13,9 13,8.5 13,8 12.625,7.875 12.25,7.75 12.125,7.375 12,7 11.625,6.875 11.25,6.75 11.125,6.375 11,6 10.625,5.875 10.25,5.75 10.125,5.375 10,5 9.5,5 9,5 8.5,5 8,5 7.5,5 7,5 6.875,5.375 6.75,5.75 6.375,5.875 6,6 5.875,6.375 5.75,6.75 5.375,6.875 5,7 4.875,7.375 4.75,7.75 4.375,7.875 4,8 4,8.5 4,9 4.375,9.125 4.75,9.25 4.875,9.625 5,10 5,10.5 q 0,0.5 0,1 0,0.5 0,1 0,0.5 0,1 0,0.5 0,1 0,0.5 0,1 0,0.5 0,1 V 17 L 4.625,17.125 4.25,17.25 4.53125,17.15625 4.8125,17.0625 4.625,17.125 Q 4.4375,17.1875 4.28125,17.28125 L 4.125,17.375 4.203125,17.328125 4.28125,17.28125 4.015625,17.015625 Q 3.75,16.75 3.375,16.875 3,17 2.875,17.375 2.75,17.75 2.375,17.875 2,18 1.875,18.375 1.75,18.75 1.375,18.875 1,19 0.875,19.375 0.75,19.75 0.375,19.875 L 0,20 V 19.5 19 18.5 18 17.5 17 16.5 16 15.5 15 14.5 14 13.5 13 12.5 12 11.5 11 10.5 10 9.5 9 8.5 8 7.5 7 6.5 6 5.5 5 4.5 4 3.5 3 2.5 2 1.5 1 0.5 M 4.71875,17.09375 5,17 5.09375,16.96875 5.1875,16.9375 5,17 q -0.1875,0.0625 -0.375,0.125 l -0.1875,0.0625 0.28125,-0.09375"
       id="path120"
       inkscape:connector-curvature="0" />
    <path
       style="fill:#000000;fill-opacity:1"
       d="M 6.875,5.375 Q 7,5 7.5,5 q 0.5,0 1,0 0.5,0 1,0 0.5,0 0.625,0.375 0.125,0.375 0.5,0.5 0.375,0.125 0.5,0.5 0.125,0.375 0.5,0.5 0.375,0.125 0.5,0.5 0.125,0.375 0.5,0.5 Q 13,8 13,8.5 13,9 12.625,9.125 12.25,9.25 12.125,9.625 12,10 12,10.5 q 0,0.5 0,1 0,0.5 0,1 0,0.5 0,1 0,0.5 0,1 0,0.5 0,1 0,0.5 0.5,0.5 0.5,0 0.625,0.375 0.125,0.375 0.5,0.5 0.375,0.125 0.5,0.5 0.125,0.375 0.5,0.5 0.375,0.125 0.5,0.5 0.125,0.375 0.5,0.5 0.375,0.125 0.5,0.5 0.125,0.375 0.5,0.5 L 17,20 v 0.5 0.5 0.5 0.5 0.5 0.5 0.5 0.5 0.5 0.5 0.5 0.5 l -0.375,0.125 q -0.375,0.125 -0.5,0.5 Q 16,27 16,27.5 q 0,0.5 -0.375,0.625 -0.375,0.125 -0.5,0.5 -0.125,0.375 -0.5,0.5 -0.375,0.125 -0.5,0.5 -0.125,0.375 -0.5,0.5 -0.375,0.125 -0.5,0.5 Q 13,31 12.5,31 q -0.5,0 -0.875,0.125 -0.375,0.125 -0.5,0.5 L 11,32 H 10.5 10 9.5 9 8.5 8 7.5 7 6.5 6 L 5.875,31.625 Q 5.75,31.25 5.375,31.125 5,31 4.5,31 4,31 3.875,30.625 3.75,30.25 3.375,30.125 3,30 2.875,29.625 2.75,29.25 2.375,29.125 2,29 1.875,28.625 1.75,28.25 1.375,28.125 1,28 1,27.5 1,27 0.875,26.625 0.75,26.25 0.375,26.125 L 0,26 V 25.5 25 24.5 24 23.5 23 22.5 22 21.5 21 20.5 20 L 0.375,19.875 Q 0.75,19.75 0.875,19.375 1,19 1.375,18.875 1.75,18.75 1.875,18.375 2,18 2.375,17.875 2.75,17.75 2.875,17.375 3,17 3.375,16.875 3.75,16.75 4.015625,17.015625 L 4.28125,17.28125 4.359375,17.234375 4.4375,17.1875 4.28125,17.28125 Q 4.125,17.375 4,17.5 L 3.875,17.625 4.0625,17.4375 4.25,17.25 4,17.5 Q 3.75,17.75 3.5,18 3.25,18.25 3,18.5 2.75,18.75 2.5,19 2.25,19.25 2,19.5 1.75,19.75 1.5,20 1.25,20.25 1.125,20.625 1,21 1,21.5 q 0,0.5 0,1 0,0.5 0,1 0,0.5 0,1 Q 1,25 1.125,25.375 1.25,25.75 1.5,26 1.75,26.25 1.875,26.625 2,27 2.125,27.375 2.25,27.75 2.5,28 2.75,28.25 3,28.5 3.25,28.75 3.5,29 3.75,29.25 4,29.5 4.25,29.75 4.625,29.875 5,30 5.375,30.125 5.75,30.25 6,30.5 6.25,30.75 6.625,30.875 7,31 7.5,31 q 0.5,0 1,0 0.5,0 1,0 0.5,0 0.875,-0.125 Q 10.75,30.75 11,30.5 11.25,30.25 11.625,30.125 12,30 12.375,29.875 12.75,29.75 13,29.5 13.25,29.25 13.5,29 13.75,28.75 14,28.5 14.25,28.25 14.5,28 14.75,27.75 14.875,27.375 15,27 15.125,26.625 15.25,26.25 15.5,26 15.75,25.75 15.875,25.375 16,25 16,24.5 q 0,-0.5 0,-1 0,-0.5 0,-1 0,-0.5 0,-1 Q 16,21 15.875,20.625 15.75,20.25 15.5,20 15.25,19.75 15,19.5 14.75,19.25 14.5,19 14.25,18.75 14,18.5 13.75,18.25 13.5,18 13.25,17.75 13,17.5 12.75,17.25 12.375,17.125 12,17 11.625,16.875 11.25,16.75 11.125,16.375 L 11,16 v -0.5 q 0,-0.5 0,-1 0,-0.5 0,-1 0,-0.5 0,-1 0,-0.5 0,-1 0,-0.5 0,-1 V 10 L 11.125,9.625 Q 11.25,9.25 11.5,9 11.75,8.75 11.75,8.5 11.75,8.25 11.5,8 11.25,7.75 11,7.5 10.75,7.25 10.359375,7.140625 L 9.96875,7.03125 9.984375,7.140625 10,7.25 9.96875,7.03125 Q 9.9375,6.8125 9.875,6.625 L 9.8125,6.4375 9.90625,6.71875 10,7 9.875,6.625 Q 9.75,6.25 9.375,6.125 9,6 8.5,6 8,6 7.625,6.125 7.25,6.25 7.125,6.625 L 7,7 7.09375,6.71875 7.1875,6.4375 7.125,6.625 Q 7.0625,6.8125 7.03125,7.03125 L 7,7.25 7.015625,7.140625 7.03125,7.03125 6.640625,7.140625 Q 6.25,7.25 6.125,7.625 6,8 5.625,8.125 5.25,8.25 5.25,8.5 5.25,8.75 5.5,9 5.75,9.25 5.875,9.625 6,10 6,10.5 q 0,0.5 0,1 v 0.5 0.5 q 0,0.5 0,1 0,0.5 0,1 0,0.5 0,1 0,0.5 -0.125,0.875 -0.125,0.375 -0.5,0.5 L 5,17 V 16.5 Q 5,16 5,15.5 5,15 5,14.5 5,14 5,13.5 5,13 5,12.5 5,12 5,11.5 5,11 5,10.5 5,10 4.875,9.625 4.75,9.25 4.375,9.125 4,9 4,8.5 4,8 4.375,7.875 4.75,7.75 4.875,7.375 5,7 5.375,6.875 5.75,6.75 5.875,6.375 6,6 6.375,5.875 6.75,5.75 6.875,5.375 M 4.90625,17.03125 5,17 5.28125,16.90625 5.5625,16.8125 5.375,16.875 Q 5.1875,16.9375 5,17 l -0.1875,0.0625 0.09375,-0.03125"
       id="path122"
       inkscape:connector-curvature="0" />
    <path
       style="fill:#804000;fill-opacity:1"
       d="M 7.125,6.625 Q 7.25,6.25 7.625,6.125 8,6 8.5,6 9,6 9.375,6.125 9.75,6.25 9.875,6.625 10,7 10,7.5 V 8 7.625 7.25 7.5 Q 10,7.75 9.96875,7.96875 L 9.9375,8.1875 9.953125,8.078125 9.96875,7.96875 9.484375,7.984375 Q 9,8 8.5,8 8,8 7.515625,7.984375 L 7.03125,7.96875 7.046875,8.078125 7.0625,8.1875 7.03125,7.96875 Q 7,7.75 7,7.5 V 7.25 7.625 8 7.5 Q 7,7 7.125,6.625"
       id="path124"
       inkscape:connector-curvature="0" />
    <path
       style="fill:#a0a0a0;fill-opacity:1"
       d="M 6.125,7.625 Q 6.25,7.25 6.640625,7.140625 L 7.03125,7.03125 7.046875,6.921875 7.0625,6.8125 7.03125,7.03125 Q 7,7.25 7,7.5 V 7.75 7.375 7 7.5 8 L 6.46875,7.96875 5.9375,7.9375 5.875,8 5.8125,8.0625 5.9375,7.9375 Q 6.0625,7.8125 6.125,7.625 L 6.1875,7.4375 6.09375,7.71875 6,8 6.125,7.625"
       id="path126"
       inkscape:connector-curvature="0" />
    <path
       style="fill:#a0a0a0;fill-opacity:1"
       d="M 10,7.5 V 7 7.375 7.75 7.5 Q 10,7.25 9.96875,7.03125 L 9.9375,6.8125 9.953125,6.921875 9.96875,7.03125 10.359375,7.140625 Q 10.75,7.25 11,7.5 q 0.25,0.25 0.5,0.5 0.25,0.25 0.25,0.5 0,0.25 -0.25,0.5 -0.25,0.25 -0.375,0.625 L 11,10 10.625,9.875 Q 10.25,9.75 10.25,9.5 10.25,9.25 10.5,9 10.75,8.75 10.75,8.5 10.75,8.25 10.375,8.125 L 10,8 V 7.5"
       id="path128"
       inkscape:connector-curvature="0" />
    <path
       style="fill:#ffffff;fill-opacity:1"
       d="m 5.25,8.5 q 0,-0.25 0.375,-0.375 L 6,8 5.71875,8.09375 5.4375,8.1875 5.625,8.125 Q 5.8125,8.0625 5.9375,7.9375 L 6.0625,7.8125 6,7.875 5.9375,7.9375 6.09375,8.34375 Q 6.25,8.75 6.5,9 6.75,9.25 6.875,9.625 L 7,10 6.484375,10.015625 5.96875,10.03125 5.984375,10.140625 6,10.25 5.96875,10.03125 Q 5.9375,9.8125 5.875,9.625 L 5.8125,9.4375 5.90625,9.71875 6,10 5.875,9.625 Q 5.75,9.25 5.5,9 5.25,8.75 5.25,8.5"
       id="path130"
       inkscape:connector-curvature="0" />
    <path
       style="fill:#d0d0d0;fill-opacity:1"
       d="M 6.09375,8.34375 5.9375,7.9375 6.46875,7.96875 7,8 7.125,8.375 q 0.125,0.375 0.5,0.5 L 8,9 V 9.5 10 H 7.5 7 L 6.875,9.625 Q 6.75,9.25 6.5,9 6.25,8.75 6.09375,8.34375"
       id="path132"
       inkscape:connector-curvature="0" />
    <path
       style="fill:#603000;fill-opacity:1"
       d="M 7.125,8.375 7,8 7.09375,8.28125 7.1875,8.5625 7.125,8.375 Q 7.0625,8.1875 7.03125,7.96875 L 7,7.75 7.015625,7.859375 7.03125,7.96875 7.515625,7.984375 Q 8,8 8.5,8 9,8 9.484375,7.984375 L 9.96875,7.96875 9.984375,7.859375 10,7.75 9.96875,7.96875 Q 9.9375,8.1875 9.875,8.375 L 9.8125,8.5625 9.90625,8.28125 10,8 9.875,8.375 Q 9.75,8.75 9.375,8.875 L 9,9 H 8.5 8 L 7.625,8.875 Q 7.25,8.75 7.125,8.375"
       id="path134"
       inkscape:connector-curvature="0" />
    <path
       style="fill:#b0b0b0;fill-opacity:1"
       d="M 9.875,8.375 10,8 10.375,8.125 Q 10.75,8.25 10.75,8.5 10.75,8.75 10.5,9 L 10.25,9.25 10.4375,9.0625 10.625,8.875 10.5,9 Q 10.375,9.125 10.3125,9.25 L 10.25,9.375 10.28125,9.3125 10.3125,9.25 10,8.96875 9.6875,8.6875 9.625,8.75 9.5625,8.8125 9.6875,8.6875 Q 9.8125,8.5625 9.875,8.375 L 9.9375,8.1875 9.84375,8.46875 9.75,8.75 9.875,8.375"
       id="path136"
       inkscape:connector-curvature="0" />
    <path
       style="fill:#e0e0e0;fill-opacity:1"
       d="M 8,9.5 V 9 H 8.5 9 V 9.5 10 H 8.5 8 V 9.5"
       id="path138"
       inkscape:connector-curvature="0" />
    <path
       style="fill:#c0c0c0;fill-opacity:1"
       d="M 9,9.5 V 9 L 9.375,8.875 9.75,8.75 9.46875,8.84375 9.1875,8.9375 9.375,8.875 Q 9.5625,8.8125 9.6875,8.6875 L 9.8125,8.5625 9.75,8.625 9.6875,8.6875 10,8.96875 10.3125,9.25 10.34375,9.1875 10.375,9.125 10.3125,9.25 Q 10.25,9.375 10.25,9.5 V 9.625 9.4375 9.25 9.5 9.75 9.5625 9.375 9.5 q 0,0.125 0.09375,0.21875 L 10.4375,9.8125 10.390625,9.765625 10.34375,9.71875 10.015625,10.015625 9.6875,10.3125 9.75,10.375 9.8125,10.4375 9.6875,10.3125 Q 9.5625,10.1875 9.375,10.125 L 9.1875,10.0625 9.46875,10.15625 9.75,10.25 9.375,10.125 9,10 V 9.5"
       id="path140"
       inkscape:connector-curvature="0" />
    <path
       style="fill:#909090;fill-opacity:1"
       d="M 6,10.5 V 10 10.375 10.75 10.5 Q 6,10.25 5.96875,10.03125 L 5.9375,9.8125 5.953125,9.921875 5.96875,10.03125 6.484375,10.015625 7,10 v 0.5 q 0,0.5 0,1 V 12 H 6.5 6 v -0.5 q 0,-0.5 0,-1"
       id="path142"
       inkscape:connector-curvature="0" />
    <path
       style="fill:#808080;fill-opacity:1"
       d="M 7,10.5 V 10 H 7.5 8 v 0.5 q 0,0.5 0,1 0,0.5 0,1 0,0.5 0,1 0,0.5 0.125,0.875 0.125,0.375 -0.15625,0.65625 L 7.6875,15.3125 7.75,15.375 7.8125,15.4375 7.6875,15.3125 Q 7.5625,15.1875 7.375,15.125 L 7.1875,15.0625 7.46875,15.15625 7.75,15.25 7.375,15.125 7,15 V 14.5 Q 7,14 7,13.5 7,13 7,12.5 V 12 11.5 q 0,-0.5 0,-1"
       id="path144"
       inkscape:connector-curvature="0" />
    <path
       style="fill:#606060;fill-opacity:1"
       d="M 8,10.5 V 10 H 8.5 9 v 0.5 q 0,0.5 0,1 0,0.5 0,1 0,0.5 0,1 0,0.5 0,1 0,0.5 0,1 Q 9,16 9.125,16.375 9.25,16.75 9.5,17 q 0.25,0.25 0.375,0.625 0.125,0.375 0.5,0.5 0.375,0.125 0.5,0.5 L 11,19 h -0.5 q -0.5,0 -1,0 H 9 V 18.5 Q 9,18 8.875,17.625 8.75,17.25 8.5,17 8.25,16.75 8.125,16.375 8,16 7.875,15.625 L 7.75,15.25 7.84375,15.53125 7.9375,15.8125 7.875,15.625 Q 7.8125,15.4375 7.6875,15.3125 L 7.5625,15.1875 7.625,15.25 7.6875,15.3125 7.96875,15.03125 Q 8.25,14.75 8.125,14.375 8,14 8,13.5 8,13 8,12.5 8,12 8,11.5 8,11 8,10.5"
       id="path146"
       inkscape:connector-curvature="0" />
    <path
       style="fill:#404040;fill-opacity:1"
       d="M 9,10.5 V 10 l 0.375,0.125 q 0.375,0.125 0.5,0.5 Q 10,11 10,11.5 q 0,0.5 0,1 0,0.5 0,1 0,0.5 0,1 0,0.5 0,1 V 16 l 0.125,0.375 Q 10.25,16.75 10.5,17 q 0.25,0.25 0.5,0.5 0.25,0.25 0.625,0.375 Q 12,18 12.375,18.125 12.75,18.25 13,18.5 q 0.25,0.25 0.5,0.5 0.25,0.25 0.359375,0.640625 l 0.109375,0.390625 0.109375,0.01563 0.109375,0.01563 -0.21875,-0.03125 Q 13.75,20 13.5,20 H 13.25 13.625 14 13.5 q -0.5,0 -1,0 H 12 l -0.125,-0.375 q -0.125,-0.375 -0.5,-0.5 L 11,19 10.875,18.625 Q 10.75,18.25 10.375,18.125 10,18 9.875,17.625 9.75,17.25 9.5,17 9.25,16.75 9.125,16.375 9,16 9,15.5 9,15 9,14.5 9,14 9,13.5 9,13 9,12.5 9,12 9,11.5 9,11 9,10.5 M 11.875,20 H 12 12.375 12.75 12.5 q -0.25,0 -0.5,0 h -0.25 0.125"
       id="path148"
       inkscape:connector-curvature="0" />
    <path
       style="fill:#909090;fill-opacity:1"
       d="M 9.875,10.625 9.75,10.25 9.84375,10.53125 9.9375,10.8125 9.875,10.625 Q 9.8125,10.4375 9.6875,10.3125 L 9.5625,10.1875 9.625,10.25 9.6875,10.3125 10.015625,10.015625 10.34375,9.71875 10.296875,9.671875 10.25,9.625 10.34375,9.71875 Q 10.4375,9.8125 10.625,9.875 L 10.8125,9.9375 10.53125,9.84375 10.25,9.75 10.625,9.875 11,10 v 0.5 q 0,0.5 0,1 0,0.5 0,1 0,0.5 0,1 0,0.5 0,1 0,0.5 0,1 V 16 H 10.5 10 v -0.5 q 0,-0.5 0,-1 0,-0.5 0,-1 0,-0.5 0,-1 0,-0.5 0,-1 0,-0.5 -0.125,-0.875"
       id="path150"
       inkscape:connector-curvature="0" />
    <path
       style="fill:#b0b0b0;fill-opacity:1"
       d="M 6,12.5 V 12 H 6.5 7 v 0.5 q 0,0.5 0,1 0,0.5 0,1 v 0.5 0.5 q 0,0.5 0,1 V 17 L 6.625,17.125 Q 6.25,17.25 5.96875,16.96875 L 5.6875,16.6875 5.625,16.75 5.5625,16.8125 5.6875,16.6875 Q 5.8125,16.5625 5.875,16.375 L 5.9375,16.1875 5.84375,16.46875 5.75,16.75 5.875,16.375 Q 6,16 6,15.5 6,15 6,14.5 6,14 6,13.5 6,13 6,12.5"
       id="path152"
       inkscape:connector-curvature="0" />
    <path
       style="fill:#a0a0a0;fill-opacity:1"
       d="M 7,15.5 V 15 l 0.375,0.125 q 0.375,0.125 0.5,0.5 Q 8,16 8.125,16.375 8.25,16.75 8.5,17 8.75,17.25 8.875,17.625 9,18 9,18.5 V 19 H 8.5 8 V 18.5 Q 8,18 7.625,17.875 7.25,17.75 7.125,17.375 L 7,17 v -0.5 q 0,-0.5 0,-1"
       id="path154"
       inkscape:connector-curvature="0" />
    <path
       style="fill:#707070;fill-opacity:1"
       d="M 10.125,16.375 10,16 h 0.5 0.5 l 0.125,0.375 q 0.125,0.375 0.5,0.5 Q 12,17 12.375,17.125 12.75,17.25 13,17.5 q 0.25,0.25 0.5,0.5 0.25,0.25 0.5,0.5 0.25,0.25 0.5,0.5 0.25,0.25 0.5,0.5 0.25,0.25 0.5,0.5 0.25,0.25 0.375,0.625 Q 16,21 16,21.5 q 0,0.5 0,1 0,0.5 0,1 0,0.5 0,1 0,0.5 -0.125,0.875 Q 15.75,25.75 15.5,26 15.25,26.25 15.125,26.625 15,27 14.875,27.375 14.75,27.75 14.5,28 14.25,28.25 14,28.5 13.75,28.75 13.5,29 13.25,29.25 13,29.5 12.75,29.75 12.375,29.875 12,30 11.625,30.125 11.25,30.25 11,30.5 10.75,30.75 10.375,30.875 10,31 9.5,31 9,31 8.5,31 8,31 7.5,31 7,31 6.625,30.875 6.25,30.75 6,30.5 L 5.75,30.25 5.9375,30.4375 6.125,30.625 6,30.5 Q 5.875,30.375 5.71875,30.28125 L 5.5625,30.1875 5.640625,30.234375 5.71875,30.28125 6.015625,29.984375 6.3125,29.6875 6.25,29.625 6.1875,29.5625 l 0.125,0.125 q 0.125,0.125 0.3125,0.1875 L 6.8125,29.9375 6.53125,29.84375 6.25,29.75 6.625,29.875 Q 7,30 7.5,30 q 0.5,0 1,0 0.5,0 1,0 0.5,0 0.875,-0.125 Q 10.75,29.75 11,29.5 11.25,29.25 11.625,29.125 12,29 12.375,28.875 12.75,28.75 13,28.5 13.25,28.25 13.5,28 13.75,27.75 13.875,27.375 14,27 14.125,26.625 14.25,26.25 14.5,26 14.75,25.75 14.875,25.375 15,25 15,24.5 q 0,-0.5 0,-1 0,-0.5 0,-1 0,-0.5 0,-1 0,-0.5 -0.125,-0.875 -0.125,-0.375 -0.5,-0.5 L 14,20 14.28125,20.09375 14.5625,20.1875 14.375,20.125 Q 14.1875,20.0625 13.96875,20.03125 L 13.75,20 l 0.109375,0.01563 0.109375,0.01563 -0.109375,-0.390625 Q 13.75,19.25 13.5,19 13.25,18.75 13,18.5 12.75,18.25 12.375,18.125 12,18 11.625,17.875 11.25,17.75 11,17.5 10.75,17.25 10.5,17 10.25,16.75 10.125,16.375"
       id="path156"
       inkscape:connector-curvature="0" />
    <path
       style="fill:#808080;fill-opacity:1"
       d="M 4,17.5 Q 4.25,17.25 4.625,17.125 L 5,17 v 0.5 0.5 l -0.375,0.125 q -0.375,0.125 -0.5,0.5 L 4,19 4.09375,18.71875 4.1875,18.4375 4.125,18.625 Q 4.0625,18.8125 4.0625,19 V 19.1875 19.09375 19 L 3.65625,19.125 Q 3.25,19.25 3.125,19.625 L 3,20 2.625,20.125 Q 2.25,20.25 2.125,20.625 2,21 2,21.5 q 0,0.5 0,1 0,0.5 0,1 0,0.5 0,1 Q 2,25 2.125,25.375 2.25,25.75 2.5,26 2.75,26.25 2.875,26.625 3,27 3.125,27.375 L 3.25,27.75 3.15625,27.46875 3.0625,27.1875 3.125,27.375 q 0.0625,0.1875 0.1875,0.3125 l 0.125,0.125 L 3.375,27.75 3.3125,27.6875 3.03125,27.96875 2.75,28.25 2.5,28 Q 2.25,27.75 2.125,27.375 2,27 1.875,26.625 1.75,26.25 1.5,26 1.25,25.75 1.125,25.375 1,25 1,24.5 1,24 1,23.5 1,23 1,22.5 1,22 1,21.5 1,21 1.125,20.625 1.25,20.25 1.5,20 1.75,19.75 2,19.5 2.25,19.25 2.5,19 2.75,18.75 3,18.5 3.25,18.25 3.5,18 3.75,17.75 4,17.5 M 2.5625,28.0625 2.75,28.25 2.8125,28.3125 2.875,28.375 2.75,28.25 Q 2.625,28.125 2.5,28 L 2.375,27.875 2.5625,28.0625 M 5,18.125 V 18 17.625 17.25 17.5 q 0,0.25 0,0.5 v 0.25 -0.125 M 5.09375,16.96875 5,17 4.71875,17.09375 4.4375,17.1875 4.625,17.125 Q 4.8125,17.0625 5,17 l 0.1875,-0.0625 -0.09375,0.03125"
       id="path158"
       inkscape:connector-curvature="0" />
    <path
       style="fill:#d0d0d0;fill-opacity:1"
       d="M 5,17.5 V 17 L 5.375,16.875 5.75,16.75 5.46875,16.84375 5.1875,16.9375 5.375,16.875 Q 5.5625,16.8125 5.6875,16.6875 L 5.8125,16.5625 5.75,16.625 5.6875,16.6875 5.96875,16.96875 Q 6.25,17.25 6.625,17.125 L 7,17 7.125,17.375 q 0.125,0.375 0.5,0.5 Q 8,18 8,18.5 V 19 L 7.625,19.125 7.25,19.25 7.53125,19.15625 7.8125,19.0625 7.625,19.125 Q 7.4375,19.1875 7.28125,19.28125 L 7.125,19.375 7.203125,19.328125 7.28125,19.28125 7.015625,19.015625 Q 6.75,18.75 6.75,18.5 6.75,18.25 6.375,18.125 6,18 5.5,18 H 5 V 17.5 M 5.28125,16.90625 5,17 4.90625,17.03125 4.8125,17.0625 5,17 q 0.1875,-0.0625 0.375,-0.125 l 0.1875,-0.0625 -0.28125,0.09375"
       id="path160"
       inkscape:connector-curvature="0" />
    <path
       style="fill:#ffc0c0;fill-opacity:1"
       d="m 4.125,18.625 q 0.125,-0.375 0.5,-0.5 L 5,18 v 0.5 q 0,0.5 0.125,0.875 0.125,0.375 0.5,0.5 Q 6,20 6.375,19.875 6.75,19.75 7,19.5 7.25,19.25 7.625,19.125 L 8,19 7.71875,19.09375 7.4375,19.1875 7.625,19.125 Q 7.8125,19.0625 8.03125,19.03125 L 8.25,19 8.140625,19.015625 8.03125,19.03125 7.890625,19.390625 Q 7.75,19.75 7.5,20 7.25,20.25 7,20.5 6.75,20.75 6.375,20.875 6,21 5.625,20.875 5.25,20.75 5,20.5 4.75,20.25 4.5,20 4.25,19.75 4.125,19.375 4,19 4.125,18.625 M 5,18.375 V 18 17.875 17.75 18 q 0,0.25 0,0.5 v 0.25 -0.375"
       id="path162"
       inkscape:connector-curvature="0" />
    <path
       style="fill:#ffffff;fill-opacity:1"
       d="M 5,18.5 V 18 H 5.5 Q 6,18 6.375,18.125 6.75,18.25 6.75,18.5 q 0,0.25 0.265625,0.515625 L 7.28125,19.28125 7.359375,19.234375 7.4375,19.1875 7.28125,19.28125 Q 7.125,19.375 7,19.5 L 6.875,19.625 7.0625,19.4375 7.25,19.25 7,19.5 Q 6.75,19.75 6.375,19.875 6,20 5.625,19.875 5.25,19.75 5.125,19.375 5,19 5,18.5"
       id="path164"
       inkscape:connector-curvature="0" />
    <path
       style="fill:#ff8080;fill-opacity:1"
       d="M 3.125,19.625 Q 3.25,19.25 3.65625,19.125 L 4.0625,19 V 18.90625 18.8125 19 q 0,0.1875 0.0625,0.375 L 4.1875,19.5625 4.09375,19.28125 4,19 4.125,19.375 Q 4.25,19.75 4.5,20 4.75,20.25 5,20.5 5.25,20.75 5.625,20.875 6,21 6.375,20.875 6.75,20.75 7,20.5 7.25,20.25 7.5,20 7.75,19.75 7.890625,19.390625 L 8.03125,19.03125 7.921875,19.046875 7.8125,19.0625 8.03125,19.03125 Q 8.25,19 8.5,19 H 8.75 8.375 8 8.5 9 V 19.5 20 19.625 19.25 19.5 q 0,0.25 -0.03125,0.46875 L 8.9375,20.1875 8.953125,20.078125 8.96875,19.96875 8.609375,20.109375 Q 8.25,20.25 8,20.5 7.75,20.75 7.5,21 7.25,21.25 7.109375,21.609375 L 6.96875,21.96875 7.078125,21.953125 7.1875,21.9375 6.96875,21.96875 Q 6.75,22 6.5,22 H 6.25 6.625 7 6.5 Q 6,22 5.5,22 H 5 5.375 5.75 5.5 Q 5.25,22 5.03125,21.96875 L 4.8125,21.9375 4.921875,21.953125 5.03125,21.96875 4.890625,21.609375 Q 4.75,21.25 4.5,21 4.25,20.75 4,20.5 3.75,20.25 3.375,20.125 L 3,20 3.125,19.625"
       id="path166"
       inkscape:connector-curvature="0" />
    <path
       style="fill:#c06060;fill-opacity:1"
       d="M 9,19.5 V 19 H 9.5 10 v 0.5 q 0,0.5 0.01563,1.015625 L 10.03126,21.03125 10.140635,21.01562 10.25,21 10.03125,21.03125 Q 9.8125,21.0625 9.625,21.125 L 9.4375,21.1875 9.71875,21.09375 10,21 9.625,21.125 Q 9.25,21.25 9.140625,21.640625 L 9.03125,22.03125 9.140625,22.015625 9.25,22 9.03125,22.03125 Q 8.8125,22.0625 8.625,22.125 L 8.4375,22.1875 8.71875,22.09375 9,22 8.625,22.125 q -0.375,0.125 -0.5,0.5 L 8,23 H 7.5 Q 7,23 6.5,23 6,23 5.5,23 5,23 4.625,22.875 4.25,22.75 4,22.5 3.75,22.25 3.5,22 3.25,21.75 3.125,21.375 L 3,21 3.375,21.125 Q 3.75,21.25 4,21.5 4.25,21.75 4.625,21.875 5,22 5.5,22 6,22 6.5,22 7,22 7.375,21.875 7.75,21.75 8,21.5 8.25,21.25 8.5,21 8.75,20.75 8.875,20.375 9,20 9,19.5 M 7.625,23 H 8 8.125 8.25 8 Q 7.75,23 7.5,23 H 7.25 7.625 m 2.5,-4 H 10 9.625 9.25 9.5 q 0.25,0 0.5,0 h 0.25 -0.125"
       id="path168"
       inkscape:connector-curvature="0" />
    <path
       style="fill:#800000;fill-opacity:1"
       d="M 10,19.5 V 19 h 0.5 0.5 l 0.375,0.125 q 0.375,0.125 0.5,0.5 L 12,20 h -0.5 q -0.5,0 -1,0 H 10 v -0.5 m 0,0.125 V 20 20.125 20.25 20 q 0,-0.25 0,-0.5 v -0.25 0.375 M 11.625,20 H 12 12.125 12.25 12 q -0.25,0 -0.5,0 h -0.25 0.375 m -1.25,-1 H 10 9.875 9.75 10 q 0.25,0 0.5,0 h 0.25 -0.375"
       id="path170"
       inkscape:connector-curvature="0" />
    <path
       style="fill:#e00000;fill-opacity:1"
       d="m 2.125,20.625 q 0.125,-0.375 0.5,-0.5 L 3,20 V 20.5 21 L 2.515625,21.015625 2.03125,21.03125 2.015625,21.140625 2,21.25 2.03125,21.03125 Q 2.0625,20.8125 2.125,20.625 L 2.1875,20.4375 2.09375,20.71875 2,21 2.125,20.625"
       id="path172"
       inkscape:connector-curvature="0" />
    <path
       style="fill:#e07070;fill-opacity:1"
       d="M 3,20.5 V 20 l 0.375,0.125 Q 3.75,20.25 4,20.5 4.25,20.75 4.5,21 4.75,21.25 4.890625,21.609375 L 5.03125,21.96875 5.140625,21.984375 5.25,22 5.03125,21.96875 Q 4.8125,21.9375 4.625,21.875 L 4.4375,21.8125 4.71875,21.90625 5,22 4.625,21.875 Q 4.25,21.75 4,21.5 3.75,21.25 3.375,21.125 L 3,21 v -0.5"
       id="path174"
       inkscape:connector-curvature="0" />
    <path
       style="fill:#e07070;fill-opacity:1"
       d="M 8,20.5 Q 8.25,20.25 8.609375,20.109375 L 8.96875,19.96875 8.984375,19.859375 9,19.75 8.96875,19.96875 Q 8.9375,20.1875 8.875,20.375 L 8.8125,20.5625 8.90625,20.28125 9,20 8.875,20.375 Q 8.75,20.75 8.5,21 8.25,21.25 8,21.5 7.75,21.75 7.375,21.875 L 7,22 7.28125,21.90625 7.5625,21.8125 7.375,21.875 Q 7.1875,21.9375 6.96875,21.96875 L 6.75,22 6.859375,21.984375 6.96875,21.96875 7.109375,21.609375 Q 7.25,21.25 7.5,21 7.75,20.75 8,20.5"
       id="path176"
       inkscape:connector-curvature="0" />
    <path
       style="fill:#a00000;fill-opacity:1"
       d="M 10.015625,20.515625 10,20 h 0.5 q 0.5,0 1,0 0.5,0 1,0 H 13 v 0.5 0.5 h -0.5 q -0.5,0 -1,0 -0.5,0 -1,0 H 10 10.375 10.75 10.5 q -0.25,0 -0.46875,0.03125 L 9.8125,21.0625 9.921875,21.046875 10.03125,21.03125 10.015625,20.515625 M 12.625,21 H 13 13.125 13.25 13 q -0.25,0 -0.5,0 h -0.25 0.375 m 0.5,-1 H 13 12.625 12.25 12.5 q 0.25,0 0.5,0 h 0.25 -0.125 M 10,19.875 V 20 20.375 20.75 20.5 q 0,-0.25 0,-0.5 v -0.25 0.125"
       id="path178"
       inkscape:connector-curvature="0" />
    <path
       style="fill:#c00000;fill-opacity:1"
       d="M 13,20.5 V 20 h 0.5 q 0.5,0 0.875,0.125 0.375,0.125 0.5,0.5 L 15,21 14.90625,20.71875 14.8125,20.4375 14.875,20.625 q 0.0625,0.1875 0.09375,0.40625 L 15,21.25 14.984375,21.140625 14.96875,21.03125 14.484375,21.015625 Q 14,21 13.5,21 H 13 V 20.5 M 12.875,21 H 13 13.375 13.75 13.5 q -0.25,0 -0.5,0 h -0.25 0.125 m 0.5,-1 H 13 12.875 12.75 13 q 0.25,0 0.5,0 h 0.25 -0.375"
       id="path180"
       inkscape:connector-curvature="0" />
    <path
       style="fill:#a05050;fill-opacity:1"
       d="M 2,21.5 V 21 21.375 21.75 21.5 Q 2,21.25 2.03125,21.03125 L 2.0625,20.8125 2.046875,20.921875 2.03125,21.03125 2.515625,21.015625 3,21 3.125,21.375 Q 3.25,21.75 3.5,22 3.75,22.25 4,22.5 4.25,22.75 4.625,22.875 5,23 5.5,23 6,23 6.5,23 H 7 V 23.5 24 23.625 23.25 23.5 q 0,0.25 -0.03125,0.46875 L 6.9375,24.1875 6.953125,24.078125 6.96875,23.96875 6.484375,23.984375 Q 6,24 5.5,24 5,24 4.5,24 4,24 3.625,23.875 3.25,23.75 3,23.5 2.75,23.25 2.375,23.125 L 2,23 v -0.5 q 0,-0.5 0,-1 m 0,1.125 V 23 23.125 23.25 23 q 0,-0.25 0,-0.5 v -0.25 0.375 M 7.125,23 H 7 6.625 6.25 6.5 Q 6.75,23 7,23 H 7.25 7.125"
       id="path182"
       inkscape:connector-curvature="0" />
    <path
       style="fill:#c00000;fill-opacity:1"
       d="M 9.140625,21.640625 Q 9.25,21.25 9.625,21.125 10,21 10.5,21 q 0.5,0 1,0 H 12 v 0.5 0.5 h -0.5 q -0.5,0 -1,0 -0.5,0 -1,0 H 9 9.375 9.75 9.5 Q 9.25,22 9.03125,22.03125 L 8.8125,22.0625 8.921875,22.046875 9.03125,22.03125 9.140625,21.640625 M 11.625,22 H 12 12.125 12.25 12 q -0.25,0 -0.5,0 h -0.25 0.375 m 0.5,-1 H 12 11.625 11.25 11.5 q 0.25,0 0.5,0 h 0.25 -0.125"
       id="path184"
       inkscape:connector-curvature="0" />
    <path
       style="fill:#e00000;fill-opacity:1"
       d="M 12,21.5 V 21 h 0.5 q 0.5,0 1,0 H 14 l -0.125,0.375 q -0.125,0.375 -0.5,0.5 Q 13,22 12.5,22 H 12 V 21.5 M 11.875,22 H 12 12.375 12.75 12.5 q -0.25,0 -0.5,0 h -0.25 0.125 m 2.25,-1 H 14 13.625 13.25 13.5 q 0.25,0 0.5,0 h 0.25 -0.125 m -1.75,0 H 12 11.875 11.75 12 q 0.25,0 0.5,0 h 0.25 -0.375"
       id="path186"
       inkscape:connector-curvature="0" />
    <path
       style="fill:#800000;fill-opacity:1"
       d="M 13.875,21.375 14,21 l 0.484375,0.01563 0.484375,0.01563 -0.01563,-0.109375 -0.01563,-0.109375 0.03125,0.21875 Q 15,21.25 15,21.5 V 21.75 21.375 21 21.5 q 0,0.5 0,1 V 23 H 14.5 Q 14,23 13.625,23.125 13.25,23.25 13.109375,23.609375 L 12.96875,23.96875 13.078125,23.953125 13.1875,23.9375 12.96875,23.96875 Q 12.75,24 12.5,24 H 12.25 12.625 13 12.5 Q 12,24 11.625,24.125 11.25,24.25 11.109375,24.609375 L 10.96875,24.96875 11.078125,24.953125 11.1875,24.9375 10.96875,24.96875 Q 10.75,25 10.5,25 H 10.25 10.625 11 10.5 Q 10,25 9.5,25 9,25 8.625,25.125 8.25,25.25 8,25.5 7.75,25.75 7.375,25.875 7,26 6.625,26.125 6.25,26.25 6,26.5 5.75,26.75 5.375,26.875 5,27 4.5,27 4,27 3.5,27 H 3 L 2.875,26.625 Q 2.75,26.25 2.5,26 2.25,25.75 2.125,25.375 L 2,25 2.09375,25.28125 2.1875,25.5625 2.125,25.375 Q 2.0625,25.1875 2.03125,24.96875 L 2,24.75 2.015625,24.859375 2.03125,24.96875 2.390625,24.859375 Q 2.75,24.75 2.75,24.5 2.75,24.25 2.375,24.125 L 2,24 V 23.5 23 l 0.375,0.125 Q 2.75,23.25 3,23.5 3.25,23.75 3.625,23.875 4,24 4.5,24 5,24 5.5,24 H 6 l 0.125,0.375 Q 6.25,24.75 6.5,24.75 6.75,24.75 6.875,24.375 7,24 7,23.5 V 23 h 0.5 q 0.5,0 1,0 0.5,0 1,0 0.5,0 0.875,-0.125 0.375,-0.125 0.5,-0.5 L 11,22 h 0.5 q 0.5,0 1,0 0.5,0 0.875,-0.125 0.375,-0.125 0.5,-0.5 M 11.375,22 H 11 10.875 10.75 11 q 0.25,0 0.5,0 h 0.25 -0.375 m -4,1 H 7 6.875 6.75 7 q 0.25,0 0.5,0 H 7.75 7.375 m -1.25,1 H 6 5.625 5.25 5.5 Q 5.75,24 6,24 H 6.25 6.125 M 2,22.875 V 23 23.375 23.75 23.5 Q 2,23.25 2,23 v -0.25 0.125 m 0,0.75 V 24 24.125 24.25 24 q 0,-0.25 0,-0.5 v -0.25 0.375 M 2.90625,26.71875 3,27 3.03125,27.09375 3.0625,27.1875 3,27 Q 2.9375,26.8125 2.875,26.625 L 2.8125,26.4375 2.90625,26.71875 M 4.25,25.5 q 0,0.25 0.25,0.25 0.25,0 0.25,-0.25 0,-0.25 -0.25,-0.25 -0.25,0 -0.25,0.25 M 15,23.125 V 23 22.625 22.25 22.5 q 0,0.25 0,0.5 v 0.25 -0.125 M 14.375,21 H 14 13.875 13.75 14 q 0.25,0 0.5,0 h 0.25 -0.375"
       id="path188"
       inkscape:connector-curvature="0" />
    <path
       style="fill:#e00000;fill-opacity:1"
       d="M 8.125,22.625 Q 8.25,22.25 8.625,22.125 9,22 9.5,22 q 0.5,0 1,0 H 11 l -0.125,0.375 q -0.125,0.375 -0.5,0.5 Q 10,23 9.5,23 9,23 8.5,23 H 8 L 8.125,22.625 M 7.875,23 H 8 8.375 8.75 8.5 Q 8.25,23 8,23 H 7.75 7.875 m 3.25,-1 H 11 10.625 10.25 10.5 q 0.25,0 0.5,0 h 0.25 -0.125"
       id="path190"
       inkscape:connector-curvature="0" />
    <path
       style="fill:#c00000;fill-opacity:1"
       d="M 13.109375,23.609375 Q 13.25,23.25 13.625,23.125 L 14,23 13.71875,23.09375 13.4375,23.1875 13.625,23.125 q 0.1875,-0.0625 0.40625,-0.09375 L 14.25,23 14.140625,23.01563 14.03125,23.03126 13.890625,23.390635 Q 13.75,23.75 13.375,23.875 L 13,24 13.28125,23.90625 13.5625,23.8125 13.375,23.875 q -0.1875,0.0625 -0.40625,0.09375 L 12.75,24 l 0.109375,-0.01563 0.109375,-0.01563 0.140625,-0.359375"
       id="path192"
       inkscape:connector-curvature="0" />
    <path
       style="fill:#a00000;fill-opacity:1"
       d="M 13.890625,23.390625 14.03125,23.03125 13.921875,23.046875 13.8125,23.0625 14.03125,23.03125 Q 14.25,23 14.5,23 H 14.75 14.375 14 14.5 15 v 0.5 q 0,0.5 0,1 V 25 24.625 24.25 24.5 q 0,0.25 -0.03125,0.46875 l -0.03125,0.21875 0.01563,-0.109375 0.01563,-0.109375 -0.484375,0.01563 Q 14,25 13.625,25.125 13.25,25.25 13,25.5 12.75,25.75 12.375,25.875 12,26 11.5,26 11,26 10.625,26.125 10.25,26.25 10,26.5 9.75,26.75 9.375,26.875 9,27 8.625,27.125 8.25,27.25 8.109375,27.609375 L 7.96875,27.96875 8.078125,27.953125 8.1875,27.9375 7.96875,27.96875 Q 7.75,28 7.5,28 H 7.25 7.625 8 7.5 Q 7,28 6.5,28 6,28 5.5,28 5,28 4.5,28 4,28 3.625,27.875 3.25,27.75 3.125,27.375 L 3,27 H 3.5 Q 4,27 4.5,27 5,27 5.375,26.875 5.75,26.75 6,26.5 6.25,26.25 6.625,26.125 7,26 7.375,25.875 7.75,25.75 8,25.5 8.25,25.25 8.625,25.125 9,25 9.5,25 q 0.5,0 1,0 0.5,0 0.875,-0.125 0.375,-0.125 0.515625,-0.484375 L 12.03125,24.03125 11.921875,24.046875 11.8125,24.0625 12.03125,24.03125 Q 12.25,24 12.5,24 H 12.75 12.375 12 12.5 q 0.5,0 0.875,-0.125 0.375,-0.125 0.515625,-0.484375 M 2.96875,26.90625 3,27 3.09375,27.28125 3.1875,27.5625 3.125,27.375 Q 3.0625,27.1875 3,27 L 2.9375,26.8125 2.96875,26.90625 M 15,23.375 V 23 22.875 22.75 23 q 0,0.25 0,0.5 v 0.25 -0.375"
       id="path194"
       inkscape:connector-curvature="0" />
    <path
       style="fill:#a00000;fill-opacity:1"
       d="M 2,24.5 V 24 l 0.375,0.125 Q 2.75,24.25 2.75,24.5 q 0,0.25 -0.359375,0.359375 L 2.03125,24.96875 2.046875,25.078125 2.0625,25.1875 2.03125,24.96875 Q 2,24.75 2,24.5 V 24.25 24.625 25 24.5 M 2,23.875 V 24 24.375 24.75 24.5 Q 2,24.25 2,24 v -0.25 0.125"
       id="path196"
       inkscape:connector-curvature="0" />
    <path
       style="fill:#a00000;fill-opacity:1"
       d="M 6.125,24.375 6,24 6.484375,23.984375 6.96875,23.96875 6.984375,23.859375 7,23.75 6.96875,23.96875 Q 6.9375,24.1875 6.875,24.375 L 6.8125,24.5625 6.90625,24.28125 7,24 6.875,24.375 Q 6.75,24.75 6.5,24.75 6.25,24.75 6.125,24.375 M 6.375,24 H 6 5.875 5.75 6 q 0.25,0 0.5,0 H 6.75 6.375"
       id="path198"
       inkscape:connector-curvature="0" />
    <path
       style="fill:#c00000;fill-opacity:1"
       d="M 11.109375,24.609375 Q 11.25,24.25 11.625,24.125 L 12,24 11.71875,24.09375 11.4375,24.1875 11.625,24.125 q 0.1875,-0.0625 0.40625,-0.09375 L 12.25,24 12.140625,24.01563 12.03125,24.03126 11.890625,24.390635 Q 11.75,24.75 11.375,24.875 L 11,25 11.28125,24.90625 11.5625,24.8125 11.375,24.875 q -0.1875,0.0625 -0.40625,0.09375 L 10.75,25 l 0.109375,-0.01563 0.109375,-0.01563 0.140625,-0.359375"
       id="path200"
       inkscape:connector-curvature="0" />
    <path
       style="fill:#a00000;fill-opacity:1"
       d="m 4.25,25.5 q 0,-0.25 0.25,-0.25 0.25,0 0.25,0.25 0,0.25 -0.25,0.25 -0.25,0 -0.25,-0.25"
       id="path202"
       inkscape:connector-curvature="0" />
    <path
       style="fill:#c00000;fill-opacity:1"
       d="M 13,25.5 Q 13.25,25.25 13.625,25.125 14,25 14.484375,24.984375 L 14.96875,24.96875 14.984375,24.859375 15,24.75 14.96875,24.96875 Q 14.9375,25.1875 14.875,25.375 L 14.8125,25.5625 14.90625,25.28125 15,25 14.875,25.375 Q 14.75,25.75 14.5,26 14.25,26.25 14.125,26.625 L 14,27 13.625,27.125 Q 13.25,27.25 13,27.5 12.75,27.75 12.375,27.875 12,28 11.5,28 11,28 10.625,28.125 10.25,28.25 10,28.5 9.75,28.75 9.375,28.875 9,29 8.5,29 8,29 7.5,29 7,29 6.5,29 6,29 5.5,29 5,29 4.625,28.875 4.25,28.75 4.140625,28.359375 L 4.03125,27.96875 3.921875,27.953125 3.8125,27.9375 4.03125,27.96875 Q 4.25,28 4.5,28 H 4.75 4.375 4 4.5 q 0.5,0 1,0 0.5,0 1,0 0.5,0 1,0 0.5,0 0.875,-0.125 0.375,-0.125 0.5,-0.5 L 9,27 9.375,26.875 Q 9.75,26.75 10,26.5 10.25,26.25 10.625,26.125 11,26 11.5,26 12,26 12.375,25.875 12.75,25.75 13,25.5 M 9.28125,26.90625 9,27 8.90625,27.03125 8.8125,27.0625 9,27 q 0.1875,-0.0625 0.375,-0.125 l 0.1875,-0.0625 -0.28125,0.09375 m 4.6875,0.1875 L 14,27 14.09375,26.71875 14.1875,26.4375 14.125,26.625 Q 14.0625,26.8125 14,27 l -0.0625,0.1875 0.03125,-0.09375"
       id="path204"
       inkscape:connector-curvature="0" />
    <path
       style="fill:#000000;fill-opacity:0"
       d="M 0,26.5 V 26 l 0.375,0.125 q 0.375,0.125 0.5,0.5 Q 1,27 1,27.5 q 0,0.5 0.375,0.625 0.375,0.125 0.5,0.5 0.125,0.375 0.5,0.5 0.375,0.125 0.5,0.5 0.125,0.375 0.5,0.5 0.375,0.125 0.5,0.5 Q 4,31 4.5,31 q 0.5,0 0.875,0.125 0.375,0.125 0.5,0.5 L 6,32 H 5.5 5 4.5 4 3.5 3 2.5 2 1.5 1 0.5 0 V 31.5 31 30.5 30 29.5 29 28.5 28 27.5 27 26.5"
       id="path206"
       inkscape:connector-curvature="0" />
    <path
       style="fill:#000000;fill-opacity:0"
       d="m 16.125,26.625 q 0.125,-0.375 0.5,-0.5 L 17,26 V 26.5 27 27.5 28 28.5 29 29.5 30 30.5 31 31.5 32 H 16.5 16 15.5 15 14.5 14 13.5 13 12.5 12 11.5 11 l 0.125,-0.375 q 0.125,-0.375 0.5,-0.5 Q 12,31 12.5,31 q 0.5,0 0.625,-0.375 0.125,-0.375 0.5,-0.5 0.375,-0.125 0.5,-0.5 0.125,-0.375 0.5,-0.5 0.375,-0.125 0.5,-0.5 0.125,-0.375 0.5,-0.5 Q 16,28 16,27.5 16,27 16.125,26.625"
       id="path208"
       inkscape:connector-curvature="0" />
    <path
       style="fill:#e00000;fill-opacity:1"
       d="M 8.109375,27.609375 Q 8.25,27.25 8.625,27.125 L 9,27 8.875,27.375 q -0.125,0.375 -0.5,0.5 L 8,28 8.28125,27.90625 8.5625,27.8125 8.375,27.875 Q 8.1875,27.9375 7.96875,27.96875 L 7.75,28 7.859375,27.984375 7.96875,27.96875 8.109375,27.609375 M 9.09375,26.96875 9,27 8.71875,27.09375 8.4375,27.1875 8.625,27.125 Q 8.8125,27.0625 9,27 l 0.1875,-0.0625 -0.09375,0.03125"
       id="path210"
       inkscape:connector-curvature="0" />
    <path
       style="fill:#e00000;fill-opacity:1"
       d="m 13,27.5 q 0.25,-0.25 0.625,-0.375 L 14,27 13.875,27.375 Q 13.75,27.75 13.5,28 13.25,28.25 13,28.5 12.75,28.75 12.375,28.875 12,29 11.625,29.125 11.25,29.25 11,29.5 10.75,29.75 10.375,29.875 10,30 9.5,30 9,30 8.5,30 8,30 7.5,30 7,30 6.625,29.875 6.25,29.75 6.125,29.375 L 6,29 h 0.5 q 0.5,0 1,0 0.5,0 1,0 Q 9,29 9.375,28.875 9.75,28.75 10,28.5 10.25,28.25 10.625,28.125 11,28 11.5,28 12,28 12.375,27.875 12.75,27.75 13,27.5 M 6.375,29 H 6 5.875 5.75 6 q 0.25,0 0.5,0 H 6.75 6.375 M 13.90625,27.28125 14,27 14.03125,26.90625 14.0625,26.8125 14,27 q -0.0625,0.1875 -0.125,0.375 l -0.0625,0.1875 0.09375,-0.28125"
       id="path212"
       inkscape:connector-curvature="0" />
    <path
       style="fill:#909090;fill-opacity:1"
       d="M 3,28.5 2.75,28.25 3.03125,27.96875 3.3125,27.6875 3.25,27.625 3.1875,27.5625 l 0.125,0.125 q 0.125,0.125 0.3125,0.1875 L 3.8125,27.9375 3.53125,27.84375 3.25,27.75 3.625,27.875 4,28 3.71875,27.90625 3.4375,27.8125 3.625,27.875 q 0.1875,0.0625 0.40625,0.09375 L 4.25,28 4.140625,27.984375 4.03125,27.96875 4.140625,28.359375 Q 4.25,28.75 4.625,28.875 5,29 5.5,29 H 6 L 6.125,29.375 6.25,29.75 6.15625,29.46875 6.0625,29.1875 6.125,29.375 q 0.0625,0.1875 0.1875,0.3125 l 0.125,0.125 L 6.375,29.75 6.3125,29.6875 6.015625,29.984375 5.71875,30.28125 5.796875,30.328125 5.875,30.375 5.71875,30.28125 Q 5.5625,30.1875 5.375,30.125 L 5.1875,30.0625 5.46875,30.15625 5.75,30.25 5.375,30.125 Q 5,30 4.625,29.875 4.25,29.75 4,29.5 3.75,29.25 3.5,29 3.25,28.75 3,28.5 M 6.125,29 H 6 5.625 5.25 5.5 Q 5.75,29 6,29 H 6.25 6.125 M 2.6875,28.1875 2.75,28.25 2.9375,28.4375 3.125,28.625 3,28.5 Q 2.875,28.375 2.75,28.25 l -0.125,-0.125 0.0625,0.0625"
       id="path214"
       inkscape:connector-curvature="0" />
  </g>
</svg>
