<?xml version="1.0" encoding="UTF-8" standalone="no"?>
<!-- Created with Inkscape (http://www.inkscape.org/) -->

<svg
   xmlns:dc="http://purl.org/dc/elements/1.1/"
   xmlns:cc="http://creativecommons.org/ns#"
   xmlns:rdf="http://www.w3.org/1999/02/22-rdf-syntax-ns#"
   xmlns:svg="http://www.w3.org/2000/svg"
   xmlns="http://www.w3.org/2000/svg"
   xmlns:sodipodi="http://sodipodi.sourceforge.net/DTD/sodipodi-0.dtd"
   xmlns:inkscape="http://www.inkscape.org/namespaces/inkscape"
   version="1.1"
   id="svg908"
   width="32"
   height="32"
   viewBox="0 0 32 32"
   sodipodi:docname="witch.svg"
   inkscape:version="0.92.5 (2060ec1f9f, 2020-04-08)">
  <metadata
     id="metadata914">
    <rdf:RDF>
      <cc:Work
         rdf:about="">
        <dc:format>image/svg+xml</dc:format>
        <dc:type
           rdf:resource="http://purl.org/dc/dcmitype/StillImage" />
        <dc:title></dc:title>
      </cc:Work>
    </rdf:RDF>
  </metadata>
  <defs
     id="defs912" />
  <sodipodi:namedview
     pagecolor="#ffffff"
     bordercolor="#666666"
     borderopacity="1"
     objecttolerance="10"
     gridtolerance="10"
     guidetolerance="10"
     inkscape:pageopacity="0"
     inkscape:pageshadow="2"
     inkscape:window-width="1920"
     inkscape:window-height="1118"
     id="namedview910"
     showgrid="false"
     inkscape:zoom="7.375"
     inkscape:cx="-6.0338983"
     inkscape:cy="16"
     inkscape:window-x="0"
     inkscape:window-y="24"
     inkscape:window-maximized="1"
     inkscape:current-layer="svg908" />
  <g
     transform="translate(0 0)"
     id="g1196">
    <path
       style="fill:#000000;fill-opacity:0"
       d="M 0,0.5 V 0 H 0.5 1 1.5 2 2.5 3 3.5 4 4.5 5 5.5 6 6.5 7 7.5 8 8.5 9 9.5 10 10.5 11 11.5 12 12.5 13 13.5 14 14.5 15 15.5 16 16.5 17 17.5 18 18.5 19 19.5 20 20.5 21 21.5 22 22.5 23 23.5 24 24.5 25 25.5 26 26.5 27 27.5 28 28.5 29 29.5 30 30.5 31 31.5 32 V 0.5 1 1.5 2 2.5 3 3.5 4 4.5 5 5.5 6 6.5 7 7.5 8 8.5 9 9.5 10 10.5 11 11.5 12 12.5 13 13.5 14 14.5 15 15.5 16 16.5 17 17.5 18 18.5 19 19.5 20 20.5 21 21.5 22 22.5 23 23.5 24 24.5 25 25.5 26 26.5 27 27.5 28 28.5 29 29.5 30 30.5 31 31.5 32 H 31.5 31 30.5 30 29.5 29 28.5 28 27.5 27 26.5 26 25.5 25 v -0.5 q 0,-0.5 0.5,-0.5 0.5,0 1,0 0.5,0 1,0 Q 28,31 28,30.5 28,30 28.5,30 29,30 29,29.5 29,29 29,28.5 29,28 29.5,28 30,28 30,27.5 30,27 30,26.5 30,26 30,25.5 30,25 29.5,25 29,25 29,24.5 29,24 29.125,23.625 29.25,23.25 29,22.96875 L 28.75,22.6875 28.6875,22.71875 28.625,22.75 28.75,22.6875 Q 28.875,22.625 29,22.5 L 29.125,22.375 28.9375,22.5625 28.75,22.75 29,22.5 q 0.25,-0.25 0.5,-0.5 0.25,-0.25 0.25,-0.5 V 21.25 21.4375 21.625 21.5 q 0,-0.125 -0.0625,-0.1875 L 29.625,21.25 l 0.03125,0.03125 0.03125,0.03125 0.28125,-0.28125 Q 30.25,20.75 30.125,20.375 30,20 30,19.5 30,19 30,18.5 V 18 17.5 Q 30,17 29.625,16.875 29.25,16.75 29.125,16.375 29,16 28.5,16 H 28 27.5 27 l -0.375,0.125 Q 26.25,16.25 25.984375,15.984375 l -0.265625,-0.265625 -0.07813,0.04687 -0.07813,0.04687 0.15625,-0.09375 Q 25.875,15.625 26,15.5 L 26.125,15.375 25.9375,15.5625 25.75,15.75 26,15.5 q 0.25,-0.25 0.5,-0.5 0.25,-0.25 0.25,-0.5 V 14.25 14.4375 14.625 14.5 q 0,-0.125 -0.0625,-0.1875 L 26.625,14.25 l 0.03125,0.03125 0.03125,0.03125 0.28125,-0.28125 Q 27.25,13.75 27.125,13.375 27,13 27,12.5 27,12 26.5,12 H 26 V 11.5 Q 26,11 26,10.5 26,10 25.5,10 H 25 L 24.625,9.875 Q 24.25,9.75 24.125,9.375 24,9 23.625,8.875 23.25,8.75 22.984375,9.046875 L 22.71875,9.34375 22.765625,9.390625 22.8125,9.4375 22.71875,9.34375 Q 22.625,9.25 22.5,9.25 H 22.375 22.5625 22.75 22.5 22.25 22.4375 22.625 22.5 q -0.125,0 -0.21875,0.09375 L 22.1875,9.4375 22.234375,9.390625 22.28125,9.34375 22.015625,9.046875 Q 21.75,8.75 21.375,8.875 L 21,9 V 8.5 Q 21,8 21,7.5 21,7 21,6.5 21,6 21.375,5.875 21.75,5.75 21.75,5.5 21.75,5.25 21.375,5.125 21,5 21,4.5 V 4 L 20.875,3.625 Q 20.75,3.25 20.5,3 20.25,2.75 20,2.5 19.75,2.25 19.375,2.125 L 19,2 H 18.5 18 17.5 17 16.5 16 L 15.625,2.125 Q 15.25,2.25 15,2.5 14.75,2.75 14.5,3 14.25,3.25 14.125,3.625 14,4 14,4.5 14,5 13.5,5 13,5 12.625,5.125 12.25,5.25 12.25,5.5 q 0,0.25 0.375,0.375 Q 13,6 13.375,6.125 13.75,6.25 13.875,6.625 14,7 14,7.5 14,8 14,8.5 V 9 H 13.5 Q 13,9 12.5,9 H 12 11.5 Q 11,9 11,9.5 V 10 L 10.625,10.125 10.25,10.25 10.53125,10.15625 10.8125,10.0625 10.625,10.125 q -0.1875,0.0625 -0.3125,0.1875 l -0.125,0.125 0.0625,-0.0625 0.0625,-0.0625 -0.28125,-0.28125 Q 9.75,9.75 9.375,9.875 9,10 8.875,10.375 8.75,10.75 8.375,10.875 8,11 8,11.5 8,12 7.875,12.375 7.75,12.75 8.03125,13.03125 L 8.3125,13.3125 8.375,13.25 8.4375,13.1875 8.3125,13.3125 Q 8.1875,13.4375 8.125,13.625 L 8.0625,13.8125 8.15625,13.53125 8.25,13.25 8.125,13.625 Q 8,14 8.125,14.375 8.25,14.75 8.5,15 8.75,15.25 8.875,15.625 9,16 8.625,16.125 8.25,16.25 8,16.5 7.75,16.75 7.375,16.875 7,17 6.5,17 6,17 5.625,17.125 5.25,17.25 5.125,17.625 L 5,18 5.125,18.375 Q 5.25,18.75 5.5,19 5.75,19.25 6,19.5 6.25,19.75 6.625,19.875 7,20 7.5,20 8,20 8.375,19.875 8.75,19.75 9,19.5 9.25,19.25 9.640625,19.140625 L 10.03125,19.03125 10.046875,18.921875 10.0625,18.8125 10.03125,19.03125 Q 10,19.25 10,19.5 V 19.75 19.375 19 19.5 Q 10,20 9.875,20.375 9.75,20.75 9.5,21 9.25,21.25 9.125,21.625 9,22 9,22.5 9,23 9,23.5 V 24 L 8.625,24.125 Q 8.25,24.25 8.125,24.625 8,25 8,25.5 8,26 7.875,26.375 7.75,26.75 7.5,27 7.25,27.25 7.125,27.625 7,28 7.125,28.375 7.25,28.75 7.625,28.875 8,29 8.5,29 H 9 v 0.5 q 0,0.5 0,1 0,0.5 0,1 V 32 H 8.5 8 7.5 7 6.5 6 5.5 5 4.5 4 3.5 3 2.5 2 1.5 1 0.5 0 V 31.5 31 30.5 30 29.5 29 28.5 28 27.5 27 26.5 26 25.5 25 24.5 24 23.5 23 22.5 22 21.5 21 20.5 20 19.5 19 18.5 18 17.5 17 16.5 16 15.5 15 14.5 14 13.5 13 12.5 12 11.5 11 10.5 10 9.5 9 8.5 8 7.5 7 6.5 6 5.5 5 4.5 4 3.5 3 2.5 2 1.5 1 0.5 M 8.71875,24.09375 9,24 9.09375,23.96875 9.1875,23.9375 9,24 q -0.1875,0.0625 -0.375,0.125 l -0.1875,0.0625 0.28125,-0.09375"
       id="path918" />
    <path
       style="fill:#f0f0f0;fill-opacity:1"
       d="M 15,2.5 Q 15.25,2.25 15.625,2.125 L 16,2 15.875,2.375 Q 15.75,2.75 15.5,3 15.25,3.25 15,3.5 14.75,3.75 15.03125,4.03125 L 15.3125,4.3125 15.375,4.25 15.4375,4.1875 15.3125,4.3125 Q 15.1875,4.4375 15.125,4.625 L 15.0625,4.8125 15.15625,4.53125 15.25,4.25 15.1875,4.6875 15.125,5.125 15.1875,5.0625 15.25,5 15.125,5.125 Q 15,5.25 15,5.5 V 5.75 5.375 5 5.5 6 5.625 5.25 5.5 q 0,0.25 0.125,0.375 L 15.25,6 15.1875,5.9375 15.125,5.875 14.6875,5.8125 Q 14.25,5.75 14.0625,5.3125 L 13.875,4.875 13.8125,4.9375 13.75,5 13.875,4.875 Q 14,4.75 14,4.5 V 4.25 4.625 5 4.5 Q 14,4 14.125,3.625 14.25,3.25 14.5,3 14.75,2.75 15,2.5"
       id="path920" />
    <path
       style="fill:#d0d0d0;fill-opacity:1"
       d="M 15.875,2.375 16,2 H 16.5 17 V 2.5 3 L 16.625,3.125 Q 16.25,3.25 16.140625,3.640625 L 16.03125,4.03125 16.140625,4.015625 16.25,4 16.03125,4.03125 Q 15.8125,4.0625 15.625,4.125 L 15.4375,4.1875 15.71875,4.09375 16,4 15.625,4.125 15.25,4.25 15.53125,4.15625 15.8125,4.0625 15.625,4.125 Q 15.4375,4.1875 15.3125,4.3125 L 15.1875,4.4375 15.25,4.375 15.3125,4.3125 15.03125,4.03125 Q 14.75,3.75 15,3.5 15.25,3.25 15.5,3 15.75,2.75 15.875,2.375"
       id="path922" />
    <path
       style="fill:#f0f0f0;fill-opacity:1"
       d="M 17,2.5 V 2 h 0.5 0.5 l 0.125,0.375 Q 18.25,2.75 17.984375,3.015625 L 17.71875,3.28125 17.796875,3.328125 17.875,3.375 17.71875,3.28125 Q 17.5625,3.1875 17.375,3.125 L 17.1875,3.0625 17.46875,3.15625 17.75,3.25 17.375,3.125 17,3 V 2.5"
       id="path924" />
    <path
       style="fill:#d0d0d0;fill-opacity:1"
       d="M 18.125,2.375 18,2 h 0.5 0.5 v 0.5 q 0,0.5 0.125,0.875 0.125,0.375 0.5,0.5 L 20,4 19.875,4.375 Q 19.75,4.75 20.015625,5.015625 L 20.28125,5.28125 20.359375,5.234375 20.4375,5.1875 20.28125,5.28125 Q 20.125,5.375 20,5.5 L 19.875,5.625 20.0625,5.4375 20.25,5.25 20,5.5 Q 19.75,5.75 19.375,5.875 L 19,6 V 5.5 5 5.375 5.75 5.5 Q 19,5.25 18.875,5.125 L 18.75,5 18.8125,5.0625 18.875,5.125 18.8125,4.6875 Q 18.75,4.25 18.5,4 18.25,3.75 18,3.5 L 17.75,3.25 17.9375,3.4375 18.125,3.625 18,3.5 Q 17.875,3.375 17.71875,3.28125 L 17.5625,3.1875 17.640625,3.234375 17.71875,3.28125 17.984375,3.015625 Q 18.25,2.75 18.125,2.375"
       id="path926" />
    <path
       style="fill:#f0f0f0;fill-opacity:1"
       d="M 19,2.5 V 2 l 0.375,0.125 Q 19.75,2.25 20,2.5 L 20.25,2.75 20,3 Q 19.75,3.25 19.875,3.625 L 20,4 19.625,3.875 Q 19.25,3.75 19.125,3.375 19,3 19,2.5 M 20.3125,2.8125 20.25,2.75 20.0625,2.5625 19.875,2.375 20,2.5 q 0.125,0.125 0.25,0.25 l 0.125,0.125 -0.0625,-0.0625"
       id="path928" />
    <path
       style="fill:#c09090;fill-opacity:1"
       d="M 16.140625,3.640625 Q 16.25,3.25 16.625,3.125 L 17,3 17.375,3.125 Q 17.75,3.25 18,3.5 18.25,3.75 18.5,4 18.75,4.25 18.8125,4.6875 L 18.875,5.125 18.9375,5.1875 19,5.25 18.875,5.125 Q 18.75,5 18.5,5 H 18.25 18.625 19 18.5 18 18.375 18.75 18.5 Q 18.25,5 18.03125,5.03125 L 17.8125,5.0625 17.921875,5.046875 18.03125,5.03125 17.890625,4.640625 Q 17.75,4.25 17.375,4.125 17,4 16.5,4 H 16 16.375 16.75 16.5 Q 16.25,4 16.03125,4.03125 L 15.8125,4.0625 15.921875,4.046875 16.03125,4.03125 16.140625,3.640625"
       id="path930" />
    <path
       style="fill:#d0d0d0;fill-opacity:1"
       d="M 19.875,3.625 Q 19.75,3.25 20,3 L 20.25,2.75 20.5,3 q 0.25,0.25 0.375,0.625 L 21,4 H 20.5 20 L 19.875,3.625 M 20.4375,2.9375 20.25,2.75 20.1875,2.6875 20.125,2.625 20.25,2.75 Q 20.375,2.875 20.5,3 l 0.125,0.125 -0.1875,-0.1875"
       id="path932" />
    <path
       style="fill:#e0c0a0;fill-opacity:1"
       d="M 15.1875,4.6875 Q 15.25,4.25 15.625,4.125 16,4 16.5,4 17,4 17.375,4.125 17.75,4.25 17.890625,4.640625 L 18.03125,5.03125 18.140625,5.015625 18.25,5 18.03125,5.03125 Q 17.8125,5.0625 17.625,5.125 L 17.4375,5.1875 17.71875,5.09375 18,5 17.625,5.125 q -0.375,0.125 -0.5,0.5 L 17,6 V 5.625 5.25 5.5 q 0,0.25 0.125,0.375 L 17.25,6 17.1875,5.9375 17.125,5.875 16.6875,6.0625 Q 16.25,6.25 16,6.5 15.75,6.75 16.015625,7.015625 L 16.28125,7.28125 16.328125,7.203125 16.375,7.125 16.28125,7.28125 Q 16.1875,7.4375 16.125,7.625 L 16.0625,7.8125 16.15625,7.53125 16.25,7.25 16.125,7.625 16,8 16.09375,7.71875 16.1875,7.4375 16.125,7.625 Q 16.0625,7.8125 16.03125,8.03125 L 16,8.25 16.015625,8.140625 16.03125,8.03125 15.640625,7.890625 Q 15.25,7.75 15,7.5 14.75,7.25 14.359375,7.140625 L 13.96875,7.03125 13.984375,7.140625 14,7.25 13.96875,7.03125 Q 13.9375,6.8125 13.875,6.625 L 13.8125,6.4375 13.90625,6.71875 14,7 13.875,6.625 Q 13.75,6.25 13.375,6.125 13,6 12.625,5.875 12.25,5.75 12.25,5.5 12.25,5.25 12.625,5.125 13,5 13.5,5 H 14 13.625 13.25 13.5 q 0.25,0 0.375,-0.125 L 14,4.75 13.9375,4.8125 13.875,4.875 14.0625,5.3125 q 0.1875,0.4375 0.625,0.5 L 15.125,5.875 15.0625,5.8125 15,5.75 15.125,5.875 Q 15.25,6 15.5,6 H 15.75 15.375 15 L 15.375,5.875 Q 15.75,5.75 15.75,5.5 15.75,5.25 15.375,5.125 L 15,5 H 15.375 15.75 15.5 Q 15.25,5 15.125,5.125 L 15,5.25 15.0625,5.1875 15.125,5.125 15.1875,4.6875"
       id="path934" />
    <path
       style="fill:#f0f0f0;fill-opacity:1"
       d="M 19.875,4.375 20,4 H 20.5 21 V 4.5 5 4.625 4.25 4.5 q 0,0.25 0.09375,0.40625 L 21.1875,5.0625 21.140625,4.984375 21.09375,4.90625 20.671875,5.078125 20.25,5.25 20.53125,5.15625 20.8125,5.0625 20.625,5.125 Q 20.4375,5.1875 20.28125,5.28125 L 20.125,5.375 20.203125,5.328125 20.28125,5.28125 20.015625,5.015625 Q 19.75,4.75 19.875,4.375"
       id="path936" />
    <path
       style="fill:#c00000;fill-opacity:1"
       d="M 15,5.5 Q 15,5 15.375,5.125 15.75,5.25 15.75,5.5 15.75,5.75 15.375,5.875 15,6 15,5.5"
       id="path938" />
    <path
       style="fill:#c00000;fill-opacity:1"
       d="M 17.125,5.625 Q 17.25,5.25 17.625,5.125 18,5 18.5,5 19,5 19,5.5 V 6 H 18.5 18 17.5 Q 17,6 17.125,5.625"
       id="path940" />
    <path
       style="fill:#e0c0a0;fill-opacity:1"
       d="M 20,5.5 Q 20.25,5.25 20.671875,5.078125 L 21.09375,4.90625 21.046875,4.828125 21,4.75 21.09375,4.90625 Q 21.1875,5.0625 21.375,5.125 L 21.5625,5.1875 21.28125,5.09375 21,5 21.375,5.125 Q 21.75,5.25 21.75,5.5 q 0,0.25 -0.375,0.375 L 21,6 21.28125,5.90625 21.5625,5.8125 21.375,5.875 Q 21.1875,5.9375 21.09375,6.09375 L 21,6.25 21.046875,6.171875 21.09375,6.09375 20.671875,6.171875 Q 20.25,6.25 20,6.5 19.75,6.75 19.375,6.875 L 19,7 V 6.5 6 L 19.375,5.875 Q 19.75,5.75 20,5.5 M 19,6.625 V 7 7.125 7.25 7 Q 19,6.75 19,6.5 V 6.25 6.625"
       id="path942" />
    <path
       style="fill:#ffd3af;fill-opacity:1"
       d="M 16,6.5 Q 16.25,6.25 16.6875,6.0625 L 17.125,5.875 16.9375,6.3125 Q 16.75,6.75 16.5,7 L 16.25,7.25 16.4375,7.0625 16.625,6.875 16.5,7 Q 16.375,7.125 16.28125,7.28125 L 16.1875,7.4375 16.234375,7.359375 16.28125,7.28125 16.015625,7.015625 Q 15.75,6.75 16,6.5"
       id="path944" />
    <path
       style="fill:#c09090;fill-opacity:1"
       d="M 16.9375,6.3125 17.125,5.875 17.0625,5.8125 17,5.75 17.125,5.875 Q 17.25,6 17.5,6 H 17.75 17.375 17 17.5 18 V 6.5 Q 18,7 17.875,7.375 17.75,7.75 17.375,7.875 17,8 17,8.5 V 9 H 16.5 16 16.375 16.75 16.5 Q 16.25,9 16.09375,9.09375 L 15.9375,9.1875 16.015625,9.140625 16.09375,9.09375 16.046875,8.546875 Q 16,8 16.125,7.625 16.25,7.25 16.5,7 16.75,6.75 16.9375,6.3125"
       id="path946" />
    <path
       style="fill:#a07878;fill-opacity:1"
       d="M 18,6.5 V 6 h 0.5 0.5 v 0.5 q 0,0.5 0,1 V 8 l -0.375,0.125 q -0.375,0.125 -0.5,0.5 L 18,9 H 17.5 17 V 8.5 Q 17,8 17.375,7.875 17.75,7.75 17.875,7.375 18,7 18,6.5 M 17.625,9 H 18 18.125 18.25 18 q -0.25,0 -0.5,0 h -0.25 0.375 M 19,8.125 V 8 7.625 7.25 7.5 Q 19,7.75 19,8 V 8.25 8.125"
       id="path948" />
    <path
       style="fill:#f0f0f0;fill-opacity:1"
       d="M 20,6.5 Q 20.25,6.25 20.671875,6.171875 L 21.09375,6.09375 21.140625,6.015625 21.1875,5.9375 21.09375,6.09375 Q 21,6.25 21,6.5 V 6.75 6.375 6 6.5 q 0,0.5 0,1 0,0.5 0,1 V 9 L 20.875,9.375 Q 20.75,9.75 20.5,10 q -0.25,0.25 -0.5,0.5 -0.25,0.25 -0.5,0.25 -0.25,0 -0.375,-0.375 L 19,10 V 9.5 9 h 0.5 Q 20,9 20,8.5 20,8 20.125,7.625 20.25,7.25 19.984375,6.984375 L 19.71875,6.71875 19.640625,6.765625 19.5625,6.8125 19.71875,6.71875 Q 19.875,6.625 20,6.5 L 20.125,6.375 19.9375,6.5625 19.75,6.75 20,6.5 M 19,8.875 V 9 9.375 9.75 9.5 Q 19,9.25 19,9 V 8.75 8.875"
       id="path950" />
    <path
       style="fill:#f0f0f0;fill-opacity:1"
       d="M 14,7.5 V 7 7.375 7.75 7.5 Q 14,7.25 13.96875,7.03125 L 13.9375,6.8125 l 0.01563,0.109375 0.01563,0.109375 0.390625,0.109375 Q 14.75,7.25 15,7.5 L 15.25,7.75 15.0625,7.5625 14.875,7.375 15,7.5 q 0.125,0.125 0.28125,0.21875 L 15.4375,7.8125 15.359375,7.765625 15.28125,7.71875 15.015625,7.984375 Q 14.75,8.25 14.875,8.625 15,9 14.875,9.375 14.75,9.75 15,10 L 15.25,10.25 15,10.5 q -0.25,0.25 -0.5,0.25 -0.25,0 -0.375,-0.375 L 14,10 V 9.5 9 8.5 Q 14,8 14,7.5 M 15.0625,10.4375 15.25,10.25 15.3125,10.1875 15.375,10.125 15.25,10.25 Q 15.125,10.375 15,10.5 l -0.125,0.125 0.1875,-0.1875"
       id="path952" />
    <path
       style="fill:#d0d0d0;fill-opacity:1"
       d="M 19,7.5 V 7 L 19.375,6.875 19.75,6.75 19.46875,6.84375 19.1875,6.9375 19.375,6.875 Q 19.5625,6.8125 19.71875,6.71875 L 19.875,6.625 19.796875,6.671875 19.71875,6.71875 19.984375,6.984375 Q 20.25,7.25 20.125,7.625 20,8 20,8.5 20,9 19.5,9 H 19 V 8.5 q 0,-0.5 0,-1 m 0,1.125 V 9 9.125 9.25 9 Q 19,8.75 19,8.5 V 8.25 8.625 m 0,-1.75 V 7 7.375 7.75 7.5 Q 19,7.25 19,7 V 6.75 6.875"
       id="path954" />
    <path
       style="fill:#d0d0d0;fill-opacity:1"
       d="M 14.875,8.625 Q 14.75,8.25 15.015625,7.984375 L 15.28125,7.71875 15.203125,7.671875 15.125,7.625 15.28125,7.71875 Q 15.4375,7.8125 15.625,7.875 L 15.8125,7.9375 15.53125,7.84375 15.25,7.75 15.640625,7.890625 16.03125,8.03125 16.046875,7.921875 16.0625,7.8125 16.03125,8.03125 Q 16,8.25 16,8.5 V 8.75 8.375 8 l 0.04687,0.546875 0.04687,0.546875 0.07813,-0.046875 L 16.25,9 16.09375,9.09375 Q 15.9375,9.1875 15.875,9.375 L 15.8125,9.5625 15.90625,9.28125 16,9 15.875,9.375 Q 15.75,9.75 15.5,10 L 15.25,10.25 15,10 Q 14.75,9.75 14.875,9.375 15,9 14.875,8.625 M 15.1875,10.3125 15.25,10.25 15.4375,10.0625 15.625,9.875 15.5,10 q -0.125,0.125 -0.25,0.25 l -0.125,0.125 0.0625,-0.0625"
       id="path956" />
    <path
       style="fill:#606060;fill-opacity:1"
       d="m 18.125,8.625 q 0.125,-0.375 0.5,-0.5 L 19,8 V 8.5 9 H 18.5 18 L 18.125,8.625 M 17.875,9 H 18 18.375 18.75 18.5 Q 18.25,9 18,9 h -0.25 0.125 M 19,9.125 V 9 8.625 8.25 8.5 Q 19,8.75 19,9 V 9.25 9.125 m 0,-0.75 V 8 7.875 7.75 8 q 0,0.25 0,0.5 V 8.75 8.375"
       id="path958" />
    <path
       style="fill:#303030;fill-opacity:1"
       d="M 11,9.5 Q 11,9 11.5,9 H 12 v 0.5 q 0,0.5 0,1 0,0.5 -0.5,0.5 H 11 V 10.5 10 9.5"
       id="path960" />
    <path
       style="fill:#202020;fill-opacity:1"
       d="M 12,9.5 V 9 h 0.5 q 0.5,0 1,0 H 14 V 9.5 10 H 13.5 Q 13,10 13,10.5 V 11 11.5 12 H 12.5 Q 12,12 12,12.5 12,13 11.5,13 H 11 v -0.5 q 0,-0.5 0,-1 V 11 h 0.5 q 0.5,0 0.5,-0.5 0,-0.5 0,-1"
       id="path962" />
    <path
       style="fill:#101010;fill-opacity:1"
       d="M 15.875,9.375 Q 16,9 16.5,9 H 17 17.5 18 V 9.5 10 H 17.5 Q 17,10 16.625,10.125 16.25,10.25 15.984375,9.984375 L 15.71875,9.71875 15.671875,9.796875 15.625,9.875 15.71875,9.71875 Q 15.8125,9.5625 15.875,9.375 L 15.9375,9.1875 15.84375,9.46875 15.75,9.75 15.875,9.375"
       id="path964" />
    <path
       style="fill:#202020;fill-opacity:1"
       d="M 18,9.5 V 9 H 18.5 19 V 9.5 10 H 18.5 18 V 9.5 M 19,9.375 V 9 8.875 8.75 9 q 0,0.25 0,0.5 V 9.75 9.375"
       id="path966" />
    <path
       style="fill:#303030;fill-opacity:1"
       d="M 20.875,9.375 21,9 21.375,8.875 Q 21.75,8.75 22.015625,9.046875 L 22.28125,9.34375 22.328125,9.296875 22.375,9.25 22.28125,9.34375 Q 22.1875,9.4375 22.125,9.625 L 22.0625,9.8125 22.15625,9.53125 22.25,9.25 22.125,9.625 Q 22,10 22.5,10 H 23 V 10.5 11 H 22.5 Q 22,11 22,11.5 V 12 H 21.5 Q 21,12 21,11.5 21,11 20.625,11.125 L 20.25,11.25 20.53125,11.15625 20.8125,11.0625 20.625,11.125 q -0.1875,0.0625 -0.3125,0.1875 l -0.125,0.125 L 20.25,11.375 20.3125,11.3125 20.03125,11 19.75,10.6875 19.6875,10.71875 19.625,10.75 19.75,10.6875 Q 19.875,10.625 20,10.5 L 20.125,10.375 19.9375,10.5625 19.75,10.75 20,10.5 q 0.25,-0.25 0.5,-0.5 0.25,-0.25 0.375,-0.625"
       id="path968" />
    <path
       style="fill:#404040;fill-opacity:1"
       d="M 22.125,9.625 Q 22.25,9.25 22.5,9.25 q 0.25,0 0.375,0.375 L 23,10 H 22.5 Q 22,10 22.125,9.625"
       id="path970" />
    <path
       style="fill:#303030;fill-opacity:1"
       d="M 22.875,9.625 22.75,9.25 22.84375,9.53125 22.9375,9.8125 22.875,9.625 Q 22.8125,9.4375 22.71875,9.34375 L 22.625,9.25 22.671875,9.296875 22.71875,9.34375 22.984375,9.046875 Q 23.25,8.75 23.625,8.875 24,9 24.125,9.375 L 24.25,9.75 24.15625,9.46875 24.0625,9.1875 24.125,9.375 q 0.0625,0.1875 0.1875,0.3125 l 0.125,0.125 L 24.375,9.75 24.3125,9.6875 24,10 l -0.3125,0.3125 0.0625,0.0625 0.0625,0.0625 -0.125,-0.125 Q 23.5625,10.1875 23.375,10.125 L 23.1875,10.0625 23.46875,10.15625 23.75,10.25 23.375,10.125 23,10 22.875,9.625"
       id="path972" />
    <path
       style="fill:#303030;fill-opacity:1"
       d="M 8.875,10.375 Q 9,10 9.375,9.875 9.75,9.75 10.03125,10.03125 l 0.28125,0.28125 0.0625,-0.0625 0.0625,-0.0625 -0.125,0.125 q -0.125,0.125 -0.1875,0.3125 L 10.0625,10.8125 10.15625,10.53125 10.25,10.25 10.125,10.625 10,11 9.625,11.125 q -0.375,0.125 -0.5,0.5 L 9,12 V 12.5 13 L 8.625,13.125 8.25,13.25 8.53125,13.15625 8.8125,13.0625 8.625,13.125 Q 8.4375,13.1875 8.3125,13.3125 L 8.1875,13.4375 8.25,13.375 8.3125,13.3125 8.03125,13.03125 Q 7.75,12.75 7.875,12.375 8,12 8,11.5 8,11 8.375,10.875 q 0.375,-0.125 0.5,-0.5"
       id="path974" />
    <path
       style="fill:#404040;fill-opacity:1"
       d="m 10.125,10.625 q 0.125,-0.375 0.5,-0.5 L 11,10 V 10.5 11 H 10.5 10 l 0.125,-0.375"
       id="path976" />
    <path
       style="fill:#303030;fill-opacity:1"
       d="M 13,10.5 Q 13,10 13.5,10 H 14 l 0.125,0.375 Q 14.25,10.75 14.5,10.75 H 14.75 14.5625 14.375 14.5 q 0.125,0 0.25,-0.0625 L 14.875,10.625 14.8125,10.65625 14.75,10.6875 15,10.96875 Q 15.25,11.25 15.625,11.125 16,11 16.5,11 q 0.5,0 0.5,0.5 0,0.5 0,1 0,0.5 0,1 0,0.5 -0.5,0.5 -0.5,0 -0.5,0.5 0,0.5 0,1 V 16 H 15.5 15 v -0.5 q 0,-0.5 0,-1 0,-0.5 0,-1 0,-0.5 0,-1 Q 15,12 14.5,12 H 14 l -0.125,-0.375 q -0.125,-0.375 -0.5,-0.5 L 13,11 v -0.5"
       id="path978" />
    <path
       style="fill:#202020;fill-opacity:1"
       d="M 15,10.5 Q 15.25,10.25 15.5,10 L 15.75,9.75 15.5625,9.9375 15.375,10.125 15.5,10 Q 15.625,9.875 15.71875,9.71875 L 15.8125,9.5625 15.765625,9.640625 15.71875,9.71875 15.984375,9.984375 Q 16.25,10.25 16.625,10.125 17,10 17.5,10 H 18 v 0.5 q 0,0.5 0,1 0,0.5 0,1 0,0.5 0,1 0,0.5 0,1 0,0.5 0,1 0,0.5 -0.5,0.5 -0.5,0 -0.5,0.5 0,0.5 0,1 0,0.5 0,1 V 19 H 16.5 16 v -0.5 q 0,-0.5 0,-1 0,-0.5 0,-1 V 16 15.5 q 0,-0.5 0,-1 0,-0.5 0.5,-0.5 0.5,0 0.5,-0.5 0,-0.5 0,-1 0,-0.5 0,-1 Q 17,11 16.5,11 16,11 15.625,11.125 15.25,11.25 15,10.96875 L 14.75,10.6875 14.6875,10.71875 14.625,10.75 14.75,10.6875 Q 14.875,10.625 15,10.5 L 15.125,10.375 14.9375,10.5625 14.75,10.75 15,10.5"
       id="path980" />
    <path
       style="fill:#303030;fill-opacity:1"
       d="M 18,10.5 V 10 h 0.5 0.5 l 0.125,0.375 0.125,0.375 -0.09375,-0.28125 -0.09375,-0.28125 0.0625,0.1875 q 0.0625,0.1875 0.15625,0.28125 L 19.375,10.75 l -0.04687,-0.04687 -0.04687,-0.04687 -0.265625,0.296875 Q 18.75,11.25 18.875,11.625 19,12 19.5,12 H 20 v 0.5 0.5 0.5 q 0,0.5 0,1 Q 20,15 19.5,15 19,15 19,15.5 v 0.5 0.5 q 0,0.5 0,1 0,0.5 0,1 V 19 h -0.5 q -0.5,0 -1,0 H 17 v -0.5 q 0,-0.5 0,-1 0,-0.5 0,-1 0,-0.5 0.5,-0.5 0.5,0 0.5,-0.5 0,-0.5 0,-1 0,-0.5 0,-1 0,-0.5 0,-1 0,-0.5 0,-1 0,-0.5 0,-1"
       id="path982" />
    <path
       style="fill:#404040;fill-opacity:1"
       d="M 23,10.5 V 10 l 0.375,0.125 q 0.375,0.125 0.5,0.5 L 24,11 H 23.5 23 v -0.5"
       id="path984" />
    <path
       style="fill:#202020;fill-opacity:1"
       d="M 23.875,10.625 23.75,10.25 23.84375,10.53125 23.9375,10.8125 23.875,10.625 q -0.0625,-0.1875 -0.1875,-0.3125 l -0.125,-0.125 0.0625,0.0625 0.0625,0.0625 L 24,10 24.3125,9.6875 24.25,9.625 24.1875,9.5625 l 0.125,0.125 q 0.125,0.125 0.3125,0.1875 L 24.8125,9.9375 24.53125,9.84375 24.25,9.75 24.625,9.875 25,10 V 10.5 11 H 24.5 24 l -0.125,-0.375"
       id="path986" />
    <path
       style="fill:#303030;fill-opacity:1"
       d="M 25,10.5 V 10 h 0.5 q 0.5,0 0.5,0.5 0,0.5 0,1 V 12 H 25.5 25 V 11.5 11 10.5"
       id="path988" />
    <path
       style="fill:#404040;fill-opacity:1"
       d="m 9.125,11.625 q 0.125,-0.375 0.5,-0.5 L 10,11 V 11.5 12 H 9.5 9 l 0.125,-0.375"
       id="path990" />
    <path
       style="fill:#303030;fill-opacity:1"
       d="M 10,11.5 V 11 h 0.5 0.5 v 0.5 q 0,0.5 0,1 V 13 H 10.5 10 V 12.5 12 11.5"
       id="path992" />
    <path
       style="fill:#101010;fill-opacity:1"
       d="M 13,11.5 V 11 l 0.375,0.125 q 0.375,0.125 0.5,0.5 L 14,12 H 13.5 13 v -0.5"
       id="path994" />
    <path
       style="fill:#202020;fill-opacity:1"
       d="M 18.875,11.625 Q 18.75,11.25 19.015625,10.953125 l 0.265625,-0.296875 -0.04687,-0.04687 -0.04687,-0.04687 0.09375,0.09375 Q 19.375,10.75 19.5,10.75 H 19.625 19.4375 19.25 19.5 19.75 19.5625 19.375 19.5 q 0.125,0 0.25,-0.0625 L 19.875,10.625 19.8125,10.65625 19.75,10.6875 20.03125,11 20.3125,11.3125 20.375,11.25 l 0.0625,-0.0625 -0.125,0.125 q -0.125,0.125 -0.1875,0.3125 L 20.0625,11.8125 20.15625,11.53125 20.25,11.25 20.125,11.625 20,12 H 19.5 Q 19,12 18.875,11.625"
       id="path996" />
    <path
       style="fill:#101010;fill-opacity:1"
       d="m 20.125,11.625 q 0.125,-0.375 0.5,-0.5 Q 21,11 21,11.5 21,12 21.5,12 H 22 v 0.5 q 0,0.5 0.125,0.875 0.125,0.375 -0.15625,0.65625 L 21.6875,14.3125 21.71875,14.34375 21.75,14.375 21.6875,14.3125 Q 21.625,14.25 21.5,14.25 H 21.375 21.5625 21.75 21.5 21.25 21.4375 21.625 21.5 q -0.125,0 -0.1875,0.0625 L 21.25,14.375 21.28125,14.34375 21.3125,14.3125 21.03125,14.03125 Q 20.75,13.75 20.875,13.375 21,13 20.5,13 H 20 V 12.5 12 l 0.125,-0.375"
       id="path998" />
    <path
       style="fill:#202020;fill-opacity:1"
       d="M 22,11.5 Q 22,11 22.5,11 H 23 V 11.5 12 H 22.5 22 v -0.5"
       id="path1000" />
    <path
       style="fill:#303030;fill-opacity:1"
       d="M 23,11.5 V 11 H 23.5 24 V 11.5 12 H 23.5 23 v -0.5"
       id="path1002" />
    <path
       style="fill:#404040;fill-opacity:1"
       d="M 24,11.5 V 11 H 24.5 25 V 11.5 12 H 24.5 24 v -0.5"
       id="path1004" />
    <path
       style="fill:#202020;fill-opacity:1"
       d="M 9,12.5 V 12 H 9.5 10 V 12.5 13 H 9.5 9 v -0.5"
       id="path1006" />
    <path
       style="fill:#101010;fill-opacity:1"
       d="M 12,12.5 Q 12,12 12.5,12 H 13 v 0.5 q 0,0.5 0,1 0,0.5 0.125,0.875 L 13.25,14.75 13.15625,14.46875 13.0625,14.1875 13.125,14.375 q 0.0625,0.1875 0.1875,0.3125 l 0.125,0.125 -0.0625,-0.0625 -0.0625,-0.0625 -0.328125,0.296875 -0.328125,0.296875 0.04687,0.04687 L 12.75,15.375 12.65625,15.28125 Q 12.5625,15.1875 12.375,15.125 L 12.1875,15.0625 12.46875,15.15625 12.75,15.25 12.375,15.125 12,15 H 11.5 11 v -0.5 q 0,-0.5 0,-1 V 13 h 0.5 Q 12,13 12,12.5"
       id="path1008" />
    <path
       style="fill:#303030;fill-opacity:1"
       d="M 13,12.5 V 12 h 0.5 0.5 v 0.5 q 0,0.5 0,1 0,0.5 0,1 V 15 L 13.625,14.875 Q 13.25,14.75 13.125,14.375 13,14 13,13.5 q 0,-0.5 0,-1"
       id="path1010" />
    <path
       style="fill:#202020;fill-opacity:1"
       d="M 14,12.5 V 12 h 0.5 q 0.5,0 0.5,0.5 0,0.5 0,1 0,0.5 0,1 0,0.5 0,1 V 16 H 14.5 14 V 15.5 15 14.5 q 0,-0.5 0,-1 0,-0.5 0,-1"
       id="path1012" />
    <path
       style="fill:#303030;fill-opacity:1"
       d="M 22,12.5 V 12 h 0.5 0.5 v 0.5 q 0,0.5 0,1 0,0.5 0,1 V 15 L 22.625,15.125 22.25,15.25 22.53125,15.15625 22.8125,15.0625 22.625,15.125 q -0.1875,0.0625 -0.3125,0.1875 l -0.125,0.125 L 22.25,15.375 22.3125,15.3125 22,15 21.6875,14.6875 21.65625,14.71875 21.625,14.75 21.6875,14.6875 Q 21.75,14.625 21.75,14.5 V 14.375 14.5625 14.75 14.5 14.25 14.4375 14.625 14.5 q 0,-0.125 -0.0625,-0.1875 L 21.625,14.25 l 0.03125,0.03125 0.03125,0.03125 0.28125,-0.28125 Q 22.25,13.75 22.125,13.375 22,13 22,12.5"
       id="path1014" />
    <path
       style="fill:#202020;fill-opacity:1"
       d="M 23,12.5 V 12 h 0.5 0.5 v 0.5 q 0,0.5 0,1 0,0.5 0,1 V 15 H 23.5 23 v -0.5 q 0,-0.5 0,-1 0,-0.5 0,-1"
       id="path1016" />
    <path
       style="fill:#303030;fill-opacity:1"
       d="M 24,12.5 V 12 h 0.5 0.5 v 0.5 q 0,0.5 0,1 0,0.5 0,1 V 15 H 24.5 24 v -0.5 q 0,-0.5 0,-1 0,-0.5 0,-1"
       id="path1018" />
    <path
       style="fill:#202020;fill-opacity:1"
       d="M 25,12.5 V 12 h 0.5 0.5 v 0.5 Q 26,13 25.875,13.375 25.75,13.75 26,14.03125 L 26.25,14.3125 26.3125,14.28125 26.375,14.25 26.25,14.3125 Q 26.125,14.375 26,14.5 L 25.875,14.625 26.0625,14.4375 26.25,14.25 26,14.5 q -0.25,0.25 -0.625,0.375 L 25,15 v -0.5 q 0,-0.5 0,-1 0,-0.5 0,-1"
       id="path1020" />
    <path
       style="fill:#303030;fill-opacity:1"
       d="M 26,12.5 V 12 h 0.5 q 0.5,0 0.5,0.5 0,0.5 0.125,0.875 0.125,0.375 -0.15625,0.65625 L 26.6875,14.3125 26.71875,14.34375 26.75,14.375 26.6875,14.3125 Q 26.625,14.25 26.5,14.25 H 26.375 26.5625 26.75 26.5 26.25 26.4375 26.625 26.5 q -0.125,0 -0.25,0.0625 L 26.125,14.375 26.1875,14.34375 26.25,14.3125 26,14.03125 Q 25.75,13.75 25.875,13.375 26,13 26,12.5"
       id="path1022" />
    <path
       style="fill:#404040;fill-opacity:1"
       d="m 8.125,13.625 q 0.125,-0.375 0.5,-0.5 L 9,13 9.125,13.375 9.25,13.75 9.15625,13.46875 9.0625,13.1875 9.125,13.375 q 0.0625,0.1875 0.1875,0.3125 l 0.125,0.125 L 9.375,13.75 9.3125,13.6875 9.015625,13.984375 8.71875,14.28125 8.796875,14.328125 8.875,14.375 8.71875,14.28125 Q 8.5625,14.1875 8.375,14.125 L 8.1875,14.0625 8.46875,14.15625 8.75,14.25 8.40625,14.125 8.0625,14 V 14.09375 14.1875 14 q 0,-0.1875 0.0625,-0.375 L 8.1875,13.4375 8.09375,13.71875 8,14 8.125,13.625"
       id="path1024" />
    <path
       style="fill:#303030;fill-opacity:1"
       d="M 9.125,13.375 9,13 H 9.5 10 v 0.5 q 0,0.5 -0.375,0.375 -0.375,-0.125 -0.5,-0.5"
       id="path1026" />
    <path
       style="fill:#202020;fill-opacity:1"
       d="M 10,13.5 V 13 h 0.5 0.5 v 0.5 q 0,0.5 0,1 V 15 H 10.5 Q 10,15 9.625,14.875 9.25,14.75 9,14.5 L 8.75,14.25 8.9375,14.4375 9.125,14.625 9,14.5 Q 8.875,14.375 8.71875,14.28125 L 8.5625,14.1875 8.640625,14.234375 8.71875,14.28125 9.015625,13.984375 9.3125,13.6875 9.25,13.625 9.1875,13.5625 l 0.125,0.125 q 0.125,0.125 0.3125,0.1875 L 9.8125,13.9375 9.53125,13.84375 9.25,13.75 9.625,13.875 Q 10,14 10,13.5"
       id="path1028" />
    <path
       style="fill:#202020;fill-opacity:1"
       d="M 20,13.5 V 13 h 0.5 q 0.5,0 0.375,0.375 -0.125,0.375 0.15625,0.65625 L 21.3125,14.3125 21.34375,14.28125 21.375,14.25 21.3125,14.3125 Q 21.25,14.375 21.25,14.5 V 14.625 14.4375 14.25 14.5 14.75 14.5625 14.375 14.5 q 0,0.125 0.0625,0.1875 L 21.375,14.75 21.34375,14.71875 21.3125,14.6875 21.03125,14.96875 Q 20.75,15.25 20.875,15.625 q 0.125,0.375 0,0.75 -0.125,0.375 -0.5,0.5 Q 20,17 20,16.5 20,16 19.5,16 H 19 V 15.5 Q 19,15 19.5,15 20,15 20,14.5 q 0,-0.5 0,-1"
       id="path1030" />
    <path
       style="fill:#c0a040;fill-opacity:1"
       d="M 8.125,14.375 8,14 8.09375,14.28125 8.1875,14.5625 8.125,14.375 Q 8.0625,14.1875 8.0625,14 V 13.8125 13.90625 14 l 0.34375,0.125 Q 8.75,14.25 9,14.5 9.25,14.75 9.625,14.875 10,15 10.5,15 H 11 11.5 12 v 0.5 0.5 h -0.5 q -0.5,0 -1,0 H 10 L 9.453125,15.953125 8.90625,15.90625 8.859375,15.984375 8.8125,16.0625 8.90625,15.90625 Q 9,15.75 9,15.5 V 15.25 15.625 16 L 8.875,15.625 Q 8.75,15.25 8.5,15 8.25,14.75 8.125,14.375"
       id="path1032" />
    <path
       style="fill:#807020;fill-opacity:1"
       d="m 21.25,14.5 q 0,-0.25 0.25,-0.25 0.25,0 0.25,0.25 0,0.25 -0.25,0.25 -0.25,0 -0.25,-0.25"
       id="path1034" />
    <path
       style="fill:#aa8834;fill-opacity:1"
       d="m 26,14.5 q 0.25,-0.25 0.5,-0.25 0.25,0 0.25,0.25 0,0.25 -0.25,0.5 l -0.25,0.25 -0.265625,-0.265625 -0.265625,-0.265625 -0.07813,0.04687 -0.07813,0.04687 0.15625,-0.09375 Q 25.875,14.625 26,14.5 L 26.125,14.375 25.9375,14.5625 25.75,14.75 26,14.5 M 26.1875,15.3125 26.25,15.25 26.4375,15.0625 26.625,14.875 26.5,15 q -0.125,0.125 -0.25,0.25 l -0.125,0.125 0.0625,-0.0625"
       id="path1036" />
    <path
       style="fill:#aa8834;fill-opacity:1"
       d="M 12,15.5 V 15 l 0.375,0.125 q 0.375,0.125 0.375,0.375 0,0.25 -0.375,0.375 L 12,16 v -0.5"
       id="path1038" />
    <path
       style="fill:#404040;fill-opacity:1"
       d="M 12.75,15.5 V 15.25 15.4375 15.625 15.5 q 0,-0.125 -0.09375,-0.21875 l -0.09375,-0.09375 0.04687,0.04687 0.04687,0.04687 0.328125,-0.296875 L 13.3125,14.6875 13.25,14.625 l -0.0625,-0.0625 0.125,0.125 q 0.125,0.125 0.3125,0.1875 L 13.8125,14.9375 13.53125,14.84375 13.25,14.75 13.625,14.875 14,15 v 0.5 0.5 0.5 q 0,0.5 0,1 V 18 L 13.625,17.875 Q 13.25,17.75 13,17.5 L 12.75,17.25 12.9375,17.4375 13.125,17.625 13,17.5 q -0.125,-0.125 -0.28125,-0.21875 l -0.15625,-0.09375 0.07813,0.04687 0.07813,0.04687 0.265625,-0.265625 Q 13.25,16.75 13.25,16.5 q 0,-0.25 -0.296875,-0.515625 l -0.296875,-0.265625 -0.04687,0.04687 -0.04687,0.04687 0.09375,-0.09375 Q 12.75,15.625 12.75,15.5 V 15.375 15.5625 15.75 15.5"
       id="path1040" />
    <path
       style="fill:#101010;fill-opacity:1"
       d="M 20.875,15.625 Q 20.75,15.25 21.03125,14.96875 L 21.3125,14.6875 21.28125,14.65625 21.25,14.625 21.3125,14.6875 Q 21.375,14.75 21.5,14.75 H 21.625 21.4375 21.25 21.5 21.75 21.5625 21.375 21.5 q 0.125,0 0.1875,-0.0625 L 21.75,14.625 21.71875,14.65625 21.6875,14.6875 22,15 l 0.3125,0.3125 0.0625,-0.0625 0.0625,-0.0625 -0.125,0.125 q -0.125,0.125 -0.1875,0.3125 L 22.0625,15.8125 22.15625,15.53125 22.25,15.25 22.125,15.625 Q 22,16 22,16.5 V 17 l -0.375,0.125 Q 21.25,17.25 21.25,17.5 q 0,0.25 0.375,0.375 L 22,18 v 0.5 q 0,0.5 0,1 0,0.5 0,1 0,0.5 0,1 0,0.5 0,1 V 23 H 21.5 Q 21,23 21,22.5 21,22 21,21.5 21,21 21,20.5 21,20 21.125,19.625 21.25,19.25 20.96875,19 L 20.6875,18.75 20.65625,18.8125 20.625,18.875 20.6875,18.75 Q 20.75,18.625 20.75,18.5 V 18.375 18.5625 18.75 18.5 q 0,-0.25 -0.25,-0.25 -0.25,0 -0.5,0.25 -0.25,0.25 -0.625,0.375 L 19,19 v -0.5 q 0,-0.5 0,-1 0,-0.5 0,-1 V 16 h 0.5 q 0.5,0 0.5,0.5 0,0.5 0.375,0.375 0.375,-0.125 0.5,-0.5 0.125,-0.375 0,-0.75 M 22,18.375 V 18 17.875 17.75 18 q 0,0.25 0,0.5 v 0.25 -0.375 m 0,-1.25 V 17 16.625 16.25 16.5 q 0,0.25 0,0.5 v 0.25 -0.125"
       id="path1042" />
    <path
       style="fill:#aa8834;fill-opacity:1"
       d="m 22.125,15.625 q 0.125,-0.375 0.5,-0.5 L 23,15 v 0.5 0.5 l -0.484375,0.01563 -0.484375,0.01563 -0.01563,0.109375 L 22,16.25 22.03125,16.03125 Q 22.0625,15.8125 22.125,15.625 L 22.1875,15.4375 22.09375,15.71875 22,16 22.125,15.625"
       id="path1044" />
    <path
       style="fill:#c0a040;fill-opacity:1"
       d="M 23,15.5 V 15 H 23.5 24 24.5 25 L 25.375,14.875 25.75,14.75 25.46875,14.84375 25.1875,14.9375 25.375,14.875 q 0.1875,-0.0625 0.34375,-0.15625 L 25.875,14.625 l -0.07813,0.04687 -0.07813,0.04687 0.265625,0.265625 L 26.25,15.25 26,15.5 Q 25.75,15.75 25.375,15.875 25,16 24.5,16 24,16 23.5,16 H 23 V 15.5 M 26.0625,15.4375 26.25,15.25 26.3125,15.1875 26.375,15.125 26.25,15.25 Q 26.125,15.375 26,15.5 l -0.125,0.125 0.1875,-0.1875"
       id="path1046" />
    <path
       style="fill:#a5765e;fill-opacity:1"
       d="M 8,16.5 Q 8.25,16.25 8.625,16.125 L 9,16 8.71875,16.09375 8.4375,16.1875 8.625,16.125 Q 8.8125,16.0625 8.90625,15.90625 L 9,15.75 8.953125,15.828125 8.90625,15.90625 9.453125,15.953125 10,16 9.875,16.375 Q 9.75,16.75 9.375,16.875 9,17 8.875,17.375 8.75,17.75 8.5,18 8.25,18.25 8,18.5 7.75,18.75 7.5,19 7.25,19.25 7.140625,19.609375 L 7.03125,19.96875 7.140625,19.984375 7.25,20 7.03125,19.96875 Q 6.8125,19.9375 6.625,19.875 L 6.4375,19.8125 6.71875,19.90625 7,20 6.625,19.875 Q 6.25,19.75 6,19.5 5.75,19.25 5.5,19 5.25,18.75 5.125,18.375 L 5,18 5.375,17.875 Q 5.75,17.75 6.03125,18.03125 L 6.3125,18.3125 6.34375,18.28125 6.375,18.25 6.3125,18.3125 Q 6.25,18.375 6.25,18.5 V 18.625 18.4375 18.25 18.5 q 0,0.25 0.25,0.25 0.25,0 0.25,-0.25 V 18.25 18.4375 18.625 18.5 q 0,-0.125 -0.0625,-0.1875 L 6.625,18.25 6.65625,18.28125 6.6875,18.3125 6.96875,18.03125 Q 7.25,17.75 7.5,17.75 7.75,17.75 8,17.5 8.25,17.25 7.984375,16.984375 L 7.71875,16.71875 7.640625,16.765625 7.5625,16.8125 7.71875,16.71875 Q 7.875,16.625 8,16.5 L 8.125,16.375 7.9375,16.5625 7.75,16.75 8,16.5"
       id="path1048" />
    <path
       style="fill:#7f5a48;fill-opacity:1"
       d="M 9.875,16.375 10,16 h 0.5 0.5 v 0.5 0.5 l -0.375,0.125 Q 10.25,17.25 10,17.5 9.75,17.75 9.5,18 9.25,18.25 9,18.5 8.75,18.75 8.5,19 8.25,19.25 8,19 L 7.75,18.75 8,18.5 Q 8.25,18.25 8.5,18 8.75,17.75 8.875,17.375 9,17 9.375,16.875 9.75,16.75 9.875,16.375 M 7.9375,18.5625 7.75,18.75 7.6875,18.8125 7.625,18.875 7.75,18.75 Q 7.875,18.625 8,18.5 L 8.125,18.375 7.9375,18.5625 M 11.125,16 H 11 10.625 10.25 10.5 q 0.25,0 0.5,0 h 0.25 -0.125"
       id="path1050" />
    <path
       style="fill:#a00000;fill-opacity:1"
       d="M 11,16.5 V 16 H 11.5 12 11.625 11.25 11.5 q 0.25,0 0.46875,-0.03125 l 0.21875,-0.03125 -0.109375,0.01563 -0.109375,0.01563 0.01563,0.515625 Q 12,17 12,17.5 12,18 11.875,18.375 11.75,18.75 11.5,19 11.25,19.25 11.125,19.625 11,20 11,20.5 q 0,0.5 0,1 0,0.5 -0.125,0.875 Q 10.75,22.75 10.5,23 10.25,23.25 10,23.5 9.75,23.75 9.375,23.875 L 9,24 V 23.5 Q 9,23 9,22.5 9,22 9.125,21.625 9.25,21.25 9.5,21 9.75,20.75 9.875,20.375 10,20 10,19.5 10,19 10.125,18.625 10.25,18.25 10.5,18 10.75,17.75 10.875,17.375 L 11,17 V 16.5 M 8.90625,24.03125 9,24 9.28125,23.90625 9.5625,23.8125 9.375,23.875 Q 9.1875,23.9375 9,24 L 8.8125,24.0625 8.90625,24.03125 M 11.375,16 H 11 10.875 10.75 11 q 0.25,0 0.5,0 h 0.25 -0.375"
       id="path1052" />
    <path
       style="fill:#303030;fill-opacity:1"
       d="M 11.984375,16.484375 11.96875,15.96875 11.859375,15.984375 11.75,16 11.96875,15.96875 Q 12.1875,15.9375 12.375,15.875 L 12.5625,15.8125 12.28125,15.90625 12,16 12.375,15.875 12.75,15.75 12.46875,15.84375 12.1875,15.9375 12.375,15.875 q 0.1875,-0.0625 0.28125,-0.15625 L 12.75,15.625 l -0.04687,0.04687 -0.04687,0.04687 0.296875,0.265625 Q 13.25,16.25 13.25,16.5 q 0,0.25 -0.265625,0.515625 l -0.265625,0.265625 0.07813,0.04687 L 12.875,17.375 12.71875,17.28125 Q 12.5625,17.1875 12.375,17.125 L 12.1875,17.0625 12.46875,17.15625 12.75,17.25 12.375,17.125 12,17 11.984375,16.484375 M 12,16.625 V 17 17.125 17.25 17 q 0,-0.25 0,-0.5 v -0.25 0.375"
       id="path1054" />
    <path
       style="fill:#303030;fill-opacity:1"
       d="M 14,16.5 V 16 h 0.5 0.5 v 0.5 q 0,0.5 0.125,0.875 0.125,0.375 -0.140625,0.640625 l -0.265625,0.265625 0.07813,0.04687 L 14.875,18.375 14.71875,18.28125 Q 14.5625,18.1875 14.375,18.125 L 14.1875,18.0625 14.46875,18.15625 14.75,18.25 14.375,18.125 14,18 v -0.5 q 0,-0.5 0,-1"
       id="path1056" />
    <path
       style="fill:#404040;fill-opacity:1"
       d="M 15,16.5 V 16 h 0.5 0.5 v 0.5 q 0,0.5 0,1 0,0.5 0,1 V 19 L 15.625,18.875 Q 15.25,18.75 15,18.5 L 14.75,18.25 14.9375,18.4375 15.125,18.625 15,18.5 q -0.125,-0.125 -0.28125,-0.21875 l -0.15625,-0.09375 0.07813,0.04687 0.07813,0.04687 0.265625,-0.265625 Q 15.25,17.75 15.125,17.375 15,17 15,16.5"
       id="path1058" />
    <path
       style="fill:#800000;fill-opacity:1"
       d="M 22,16.5 V 16 16.375 16.75 16.5 q 0,-0.25 0.03125,-0.46875 l 0.03125,-0.21875 -0.01563,0.109375 -0.01563,0.109375 0.484375,-0.01563 L 23,16 v 0.5 0.5 0.5 q 0,0.5 0,1 0,0.5 0,1 0,0.5 0,1 0,0.5 0,1 0,0.5 0,1 0,0.5 0.125,0.875 0.125,0.375 0.5,0.5 0.375,0.125 0.75,0 Q 24.75,23.75 24.75,23.5 24.75,23.25 24.5,23 24.25,22.75 24.125,22.375 L 24,22 24.09375,22.28125 24.1875,22.5625 24.125,22.375 Q 24.0625,22.1875 24.03125,21.96875 L 24,21.75 l 0.01563,0.109375 0.01563,0.109375 0.359375,0.140625 Q 24.75,22.25 25,22.5 q 0.25,0.25 0.625,0.375 L 26,23 l 0.125,0.375 q 0.125,0.375 0.484375,0.515625 L 26.96875,24.03125 26.953125,23.921875 26.9375,23.8125 26.96875,24.03125 Q 27,24.25 27,24.5 V 24.75 24.375 24 24.5 q 0,0.5 0,1 0,0.5 0,1 0,0.5 0,1 0,0.5 0,1 0,0.5 -0.125,0.875 -0.125,0.375 -0.5,0.5 L 26,30 26.28125,29.90625 26.5625,29.8125 26.375,29.875 q -0.1875,0.0625 -0.40625,0.09375 L 25.75,30 l 0.109375,-0.01563 0.109375,-0.01563 0.01563,-0.484375 Q 26,29 26,28.5 26,28 26,27.5 26,27 26,26.5 26,26 25.875,25.625 25.75,25.25 25.5,25.25 q -0.25,0 -0.375,0.375 Q 25,26 25,26.5 q 0,0.5 0,1 0,0.5 -0.125,0.875 Q 24.75,28.75 24.5,29 24.25,29.25 24.125,29.625 L 24,30 H 23.5 Q 23,30 22.625,29.875 22.25,29.75 22.25,29.5 q 0,-0.25 0.25,-0.5 0.25,-0.25 0.375,-0.625 L 23,28 22.90625,28.28125 22.8125,28.5625 22.875,28.375 q 0.0625,-0.1875 0.09375,-0.40625 L 23,27.75 l -0.01563,0.109375 -0.01563,0.109375 0.390625,-0.109375 Q 23.75,27.75 23.875,27.375 24,27 23.875,26.625 23.75,26.25 23.375,26.125 L 23,26 V 25.5 25 L 22.875,24.625 Q 22.75,24.25 22.5,24 22.25,23.75 22.125,23.375 L 22,23 v -0.5 q 0,-0.5 0,-1 0,-0.5 0,-1 0,-0.5 0,-1 0,-0.5 0,-1 0,-0.5 0,-1 0,-0.5 0,-1 m 1,9.125 V 26 26.125 26.25 26 q 0,-0.25 0,-0.5 v -0.25 0.375 M 23.625,30 H 24 24.125 24.25 24 q -0.25,0 -0.5,0 h -0.25 0.375 M 26.09375,23.03125 26,23 25.71875,22.90625 25.4375,22.8125 25.625,22.875 Q 25.8125,22.9375 26,23 l 0.1875,0.0625 -0.09375,-0.03125 M 23.125,16 H 23 22.625 22.25 22.5 q 0.25,0 0.5,0 h 0.25 -0.125"
       id="path1060" />
    <path
       style="fill:#7f5a48;fill-opacity:1"
       d="M 23,16.5 V 16 h 0.5 q 0.5,0 1,0 H 25 24.625 24.25 24.5 q 0.25,0 0.46875,-0.03125 l 0.21875,-0.03125 -0.109375,0.01563 -0.109375,0.01563 -0.109375,0.390625 Q 24.75,16.75 24.5,17 L 24.25,17.25 24.4375,17.0625 24.625,16.875 24.5,17 q -0.125,0.125 -0.1875,0.25 L 24.25,17.375 24.28125,17.3125 24.3125,17.25 24.03125,17 Q 23.75,16.75 23.375,16.875 L 23,17 V 16.5 M 23.375,16 H 23 22.875 22.75 23 q 0.25,0 0.5,0 h 0.25 -0.375"
       id="path1062" />
    <path
       style="fill:#000000;fill-opacity:1"
       d="M 24.859375,16.359375 24.96875,15.96875 24.859375,15.984375 24.75,16 24.96875,15.96875 Q 25.1875,15.9375 25.375,15.875 L 25.5625,15.8125 25.28125,15.90625 25,16 25.375,15.875 25.75,15.75 25.46875,15.84375 25.1875,15.9375 25.375,15.875 q 0.1875,-0.0625 0.34375,-0.15625 L 25.875,15.625 l -0.07813,0.04687 -0.07813,0.04687 0.265625,0.265625 Q 26.25,16.25 26.625,16.125 L 27,16 V 16.5 17 H 26.5 Q 26,17 25.625,17.125 25.25,17.25 25.25,17.5 V 17.75 17.5625 17.375 17.5 q 0,0.125 0.0625,0.25 L 25.375,17.875 25.34375,17.8125 25.3125,17.75 25,18 24.6875,18.25 24.71875,18.3125 24.75,18.375 24.6875,18.25 Q 24.625,18.125 24.5,18 L 24.375,17.875 24.5625,18.0625 24.75,18.25 24.5,18 q -0.25,-0.25 -0.25,-0.5 0,-0.25 0.25,-0.5 0.25,-0.25 0.359375,-0.640625"
       id="path1064" />
    <path
       style="fill:#202020;fill-opacity:1"
       d="M 27,16.5 V 16 h 0.5 0.5 l -0.04687,0.546875 -0.04687,0.546875 0.07813,0.04687 0.07813,0.04687 -0.15625,-0.09375 Q 27.75,17 27.5,17 H 27.25 27.625 28 27.5 27 v -0.5"
       id="path1066" />
    <path
       style="fill:#000000;fill-opacity:1"
       d="M 27.953125,16.546875 28,16 h 0.5 q 0.5,0 0.625,0.375 0.125,0.375 0.5,0.5 Q 30,17 30,17.5 V 18 H 29.5 29 L 28.875,17.625 Q 28.75,17.25 28.328125,17.171875 l -0.421875,-0.07813 0.04687,-0.546875"
       id="path1068" />
    <path
       style="fill:#ca8f72;fill-opacity:1"
       d="M 5.125,17.625 Q 5.25,17.25 5.625,17.125 6,17 6.5,17 7,17 7.375,16.875 L 7.75,16.75 7.46875,16.84375 7.1875,16.9375 7.375,16.875 Q 7.5625,16.8125 7.71875,16.71875 L 7.875,16.625 7.796875,16.671875 7.71875,16.71875 7.984375,16.984375 Q 8.25,17.25 8,17.5 q -0.25,0.25 -0.5,0.25 -0.25,0 -0.53125,0.28125 L 6.6875,18.3125 6.71875,18.34375 6.75,18.375 6.6875,18.3125 Q 6.625,18.25 6.5,18.25 H 6.375 6.5625 6.75 6.5 6.25 6.4375 6.625 6.5 q -0.125,0 -0.1875,0.0625 L 6.25,18.375 6.28125,18.34375 6.3125,18.3125 6.03125,18.03125 Q 5.75,17.75 5.375,17.875 L 5,18 5.125,17.625"
       id="path1070" />
    <path
       style="fill:#603030;fill-opacity:1"
       d="m 10,17.5 q 0.25,-0.25 0.625,-0.375 L 11,17 10.875,17.375 Q 10.75,17.75 10.5,18 10.25,18.25 10.125,18.625 L 10,19 10.09375,18.71875 10.1875,18.4375 10.125,18.625 q -0.0625,0.1875 -0.09375,0.40625 L 10,19.25 10.015625,19.140625 10.03125,19.03125 9.640625,19.140625 Q 9.25,19.25 9,19.5 8.75,19.75 8.375,19.875 8,20 7.5,20 H 7 7.375 7.75 7.5 Q 7.25,20 7.03125,19.96875 L 6.8125,19.9375 6.921875,19.953125 7.03125,19.96875 7.140625,19.609375 Q 7.25,19.25 7.5,19 L 7.75,18.75 8,19 Q 8.25,19.25 8.5,19 8.75,18.75 9,18.5 9.25,18.25 9.5,18 9.75,17.75 10,17.5 M 7.8125,18.6875 7.75,18.75 7.5625,18.9375 7.375,19.125 7.5,19 q 0.125,-0.125 0.25,-0.25 l 0.125,-0.125 -0.0625,0.0625"
       id="path1072" />
    <path
       style="fill:#aa8834;fill-opacity:1"
       d="M 12,17.5 V 17 l 0.375,0.125 Q 12.75,17.25 13,17.5 q 0.25,0.25 0.625,0.375 L 14,18 V 18.5 19 H 13.5 13 L 12.875,18.625 Q 12.75,18.25 12.359375,18.109375 L 11.96875,17.96875 11.953125,18.078125 11.9375,18.1875 11.96875,17.96875 Q 12,17.75 12,17.5 V 17.25 17.625 18 17.5 m 0,-0.625 V 17 17.375 17.75 17.5 q 0,-0.25 0,-0.5 v -0.25 0.125"
       id="path1074" />
    <path
       style="fill:#807020;fill-opacity:1"
       d="m 21.25,17.5 q 0,-0.25 0.375,-0.375 L 22,17 V 17.5 18 L 21.625,17.875 Q 21.25,17.75 21.25,17.5 M 22,18.125 V 18 17.625 17.25 17.5 q 0,0.25 0,0.5 v 0.25 -0.125 m 0,-0.75 V 17 16.875 16.75 17 q 0,0.25 0,0.5 v 0.25 -0.375"
       id="path1076" />
    <path
       style="fill:#a5765e;fill-opacity:1"
       d="M 23,17.5 V 17 l 0.375,-0.125 Q 23.75,16.75 24.03125,17 L 24.3125,17.25 24.34375,17.1875 24.375,17.125 24.3125,17.25 Q 24.25,17.375 24.25,17.5 V 17.625 17.4375 17.25 17.5 17.75 17.5625 17.375 17.5 q 0,0.125 0.0625,0.25 L 24.375,17.875 24.34375,17.8125 24.3125,17.75 24.03125,18 Q 23.75,18.25 23.75,18.5 q 0,0.25 0.265625,0.515625 l 0.265625,0.265625 0.04687,-0.07813 L 24.375,19.125 24.28125,19.28125 Q 24.1875,19.4375 24.125,19.625 L 24.0625,19.8125 24.15625,19.53125 24.25,19.25 24.125,19.625 24,20 24.09375,19.71875 24.1875,19.4375 24.125,19.625 q -0.0625,0.1875 -0.09375,0.40625 L 24,20.25 24.015625,20.140625 24.03125,20.03125 23.515625,20.015625 23,20 v -0.5 q 0,-0.5 0,-1 0,-0.5 0,-1 m 0,2.125 V 20 20.125 20.25 20 q 0,-0.25 0,-0.5 v -0.25 0.375"
       id="path1078" />
    <path
       style="fill:#ffffff;fill-opacity:1"
       d="m 25.25,17.5 q 0,-0.25 0.375,-0.375 Q 26,17 26.5,17 H 27 l -0.125,0.375 Q 26.75,17.75 26.5,17.75 26.25,17.75 25.96875,18 L 25.6875,18.25 25.71875,18.3125 25.75,18.375 25.6875,18.25 Q 25.625,18.125 25.5,18 L 25.375,17.875 25.5625,18.0625 25.75,18.25 25.5,18 q -0.25,-0.25 -0.25,-0.5"
       id="path1080" />
    <path
       style="fill:#d0d0d0;fill-opacity:1"
       d="M 26.875,17.375 27,17 h 0.5 q 0.5,0 0.625,0.375 L 28.25,17.75 28.15625,17.46875 28.0625,17.1875 28.125,17.375 q 0.0625,0.1875 0.1875,0.3125 l 0.125,0.125 L 28.375,17.75 28.3125,17.6875 28,18 27.6875,18.3125 27.71875,18.34375 27.75,18.375 27.6875,18.3125 Q 27.625,18.25 27.5,18.25 H 27.375 27.5625 27.75 27.5 q -0.25,0 -0.25,0.25 V 18.75 18.5625 18.375 18.5 q 0,0.125 0.0625,0.1875 L 27.375,18.75 27.34375,18.71875 27.3125,18.6875 27,19 26.6875,19.3125 26.71875,19.34375 26.75,19.375 26.6875,19.3125 Q 26.625,19.25 26.5,19.25 H 26.375 26.5625 26.75 26.5 26.25 26.4375 26.625 26.5 q -0.125,0 -0.21875,0.09375 l -0.09375,0.09375 0.04687,-0.04687 0.04687,-0.04687 L 25.984375,19.046875 25.6875,18.75 25.65625,18.8125 25.625,18.875 25.6875,18.75 Q 25.75,18.625 25.75,18.5 V 18.375 18.5625 18.75 18.5 18.25 18.4375 18.625 18.5 q 0,-0.125 -0.0625,-0.25 L 25.625,18.125 25.65625,18.1875 25.6875,18.25 25.96875,18 Q 26.25,17.75 26.5,17.75 q 0.25,0 0.375,-0.375"
       id="path1082" />
    <path
       style="fill:#606060;fill-opacity:1"
       d="M 28.125,17.375 28,17 28.09375,17.28125 28.1875,17.5625 28.125,17.375 Q 28.0625,17.1875 27.90625,17.09375 L 27.75,17 l 0.07813,0.04687 0.07813,0.04687 0.421875,0.07813 Q 28.75,17.25 28.875,17.625 L 29,18 28.90625,17.71875 28.8125,17.4375 28.875,17.625 q 0.0625,0.1875 0.09375,0.40625 L 29,18.25 28.984375,18.140625 28.96875,18.03125 28.609375,17.890625 Q 28.25,17.75 28.125,17.375"
       id="path1084" />
    <path
       style="fill:#7f5a48;fill-opacity:1"
       d="m 6.25,18.5 q 0,-0.25 0.25,-0.25 0.25,0 0.25,0.25 0,0.25 -0.25,0.25 -0.25,0 -0.25,-0.25"
       id="path1086" />
    <path
       style="fill:#800000;fill-opacity:1"
       d="M 11.875,18.375 12,18 11.90625,18.28125 11.8125,18.5625 11.875,18.375 q 0.0625,-0.1875 0.09375,-0.40625 L 12,17.75 l -0.01563,0.109375 -0.01563,0.109375 0.390625,0.140625 Q 12.75,18.25 12.875,18.625 L 13,19 12.625,19.125 q -0.375,0.125 -0.5,0.5 Q 12,20 12,20.5 q 0,0.5 0,1 0,0.5 0,1 V 23 l -0.375,0.125 q -0.375,0.125 -0.5,0.5 Q 11,24 10.875,24.375 10.75,24.75 10.5,25 10.25,25.25 10.125,25.625 10,26 10,26.5 q 0,0.5 0,1 0,0.5 -0.015625,0.984375 L 9.96875,28.96875 10.078125,28.953125 10.1875,28.9375 9.96875,28.96875 Q 9.75,29 9.5,29 H 9.25 9.625 10 9.5 9 8.5 Q 8,29 7.625,28.875 7.25,28.75 7.125,28.375 7,28 7.125,27.625 7.25,27.25 7.5,27 7.75,26.75 7.875,26.375 8,26 8,25.5 8,25 8.125,24.625 8.25,24.25 8.625,24.125 9,24 9.375,23.875 9.75,23.75 10,23.5 10.25,23.25 10.5,23 10.75,22.75 10.875,22.375 11,22 11,21.5 11,21 11,20.5 11,20 11.125,19.625 11.25,19.25 11.5,19 11.75,18.75 11.875,18.375 M 12,23.125 V 23 22.625 22.25 22.5 q 0,0.25 0,0.5 v 0.25 -0.125"
       id="path1088" />
    <path
       style="fill:#c0a040;fill-opacity:1"
       d="M 14,18.5 V 18 l 0.375,0.125 Q 14.75,18.25 15,18.5 q 0.25,0.25 0.625,0.375 L 16,19 h 0.5 0.5 0.5 q 0.5,0 1,0 H 19 L 19.375,18.875 19.75,18.75 19.46875,18.84375 19.1875,18.9375 19.375,18.875 q 0.1875,-0.0625 0.34375,-0.15625 L 19.875,18.625 l -0.07813,0.04687 -0.07813,0.04687 0.265625,0.265625 L 20.25,19.25 20,19.5 q -0.25,0.25 -0.625,0.375 L 19,20 H 18.5 18 17.5 17 16.5 16 L 15.625,19.875 Q 15.25,19.75 15,19.5 14.75,19.25 14.375,19.125 L 14,19 V 18.5 M 20.0625,19.4375 20.25,19.25 20.3125,19.1875 20.375,19.125 20.25,19.25 Q 20.125,19.375 20,19.5 l -0.125,0.125 0.1875,-0.1875"
       id="path1090" />
    <path
       style="fill:#aa8834;fill-opacity:1"
       d="m 20,18.5 q 0.25,-0.25 0.5,-0.25 0.25,0 0.25,0.25 0,0.25 -0.25,0.5 l -0.25,0.25 -0.265625,-0.265625 -0.265625,-0.265625 -0.07813,0.04687 -0.07813,0.04687 0.15625,-0.09375 Q 19.875,18.625 20,18.5 L 20.125,18.375 19.9375,18.5625 19.75,18.75 20,18.5 M 20.1875,19.3125 20.25,19.25 20.4375,19.0625 20.625,18.875 20.5,19 q -0.125,0.125 -0.25,0.25 l -0.125,0.125 0.0625,-0.0625"
       id="path1092" />
    <path
       style="fill:#ca8f72;fill-opacity:1"
       d="m 23.75,18.5 q 0,-0.25 0.28125,-0.5 L 24.3125,17.75 24.28125,17.6875 24.25,17.625 24.3125,17.75 Q 24.375,17.875 24.5,18 L 24.625,18.125 24.4375,17.9375 24.25,17.75 24.5,18 q 0.25,0.25 0.25,0.5 0,0.25 -0.25,0.5 L 24.25,19.25 24.4375,19.0625 24.625,18.875 24.5,19 q -0.125,0.125 -0.21875,0.28125 l -0.09375,0.15625 0.04687,-0.07813 0.04687,-0.07813 -0.265625,-0.265625 Q 23.75,18.75 23.75,18.5"
       id="path1094" />
    <path
       style="fill:#202020;fill-opacity:1"
       d="M 24.75,18.5 V 18.25 18.4375 18.625 18.5 q 0,-0.125 -0.0625,-0.25 L 24.625,18.125 24.65625,18.1875 24.6875,18.25 25,18 25.3125,17.75 25.28125,17.6875 25.25,17.625 25.3125,17.75 Q 25.375,17.875 25.5,18 L 25.625,18.125 25.4375,17.9375 25.25,17.75 25.5,18 q 0.25,0.25 0.25,0.5 0,0.25 -0.25,0.5 L 25.25,19.25 25.4375,19.0625 25.625,18.875 25.5,19 q -0.125,0.125 -0.21875,0.28125 l -0.09375,0.15625 0.04687,-0.07813 0.04687,-0.07813 L 24.984375,19.015625 24.6875,18.75 24.65625,18.8125 24.625,18.875 24.6875,18.75 Q 24.75,18.625 24.75,18.5 V 18.375 18.5625 18.75 18.5"
       id="path1096" />
    <path
       style="fill:#202020;fill-opacity:1"
       d="m 27.25,18.5 q 0,-0.25 0.25,-0.25 0.25,0 0.25,0.25 0,0.25 -0.25,0.25 -0.25,0 -0.25,-0.25"
       id="path1098" />
    <path
       style="fill:#b0b0b0;fill-opacity:1"
       d="M 27.75,18.5 V 18.25 18.4375 18.625 18.5 q 0,-0.125 -0.0625,-0.1875 L 27.625,18.25 27.65625,18.28125 27.6875,18.3125 28,18 28.3125,17.6875 28.25,17.625 l -0.0625,-0.0625 0.125,0.125 q 0.125,0.125 0.3125,0.1875 L 28.8125,17.9375 28.53125,17.84375 28.25,17.75 28.609375,17.890625 28.96875,18.03125 28.953125,17.921875 28.9375,17.8125 28.96875,18.03125 Q 29,18.25 29,18.5 V 18.75 18.375 18 18.5 19 l -0.375,0.125 q -0.375,0.125 -0.5,0.5 L 28,20 27.625,20.125 27.25,20.25 27.53125,20.15625 27.8125,20.0625 27.625,20.125 q -0.1875,0.0625 -0.34375,0.15625 L 27.125,20.375 27.203125,20.328125 27.28125,20.28125 26.96875,20 l -0.3125,-0.28125 -0.04687,0.04687 -0.04687,0.04687 0.09375,-0.09375 Q 26.75,19.625 26.75,19.5 V 19.375 19.5625 19.75 19.5 19.25 19.4375 19.625 19.5 q 0,-0.125 -0.0625,-0.1875 L 26.625,19.25 26.65625,19.28125 26.6875,19.3125 27,19 27.3125,18.6875 27.28125,18.65625 27.25,18.625 27.3125,18.6875 Q 27.375,18.75 27.5,18.75 H 27.625 27.4375 27.25 27.5 q 0.25,0 0.25,-0.25 M 29,19.125 V 19 18.625 18.25 18.5 q 0,0.25 0,0.5 v 0.25 -0.125"
       id="path1100" />
    <path
       style="fill:#202020;fill-opacity:1"
       d="M 29,18.5 V 18 h 0.5 0.5 v 0.5 q 0,0.5 0,1 0,0.5 0.125,0.875 0.125,0.375 -0.15625,0.65625 L 29.6875,21.3125 29.71875,21.34375 29.75,21.375 29.6875,21.3125 Q 29.625,21.25 29.5,21.25 H 29.375 29.5625 29.75 29.5 29.25 29.4375 29.625 29.5 q -0.125,0 -0.25,0.0625 L 29.125,21.375 29.1875,21.34375 29.25,21.3125 28.984375,21.015625 28.71875,20.71875 28.671875,20.796875 28.625,20.875 28.71875,20.71875 Q 28.8125,20.5625 28.875,20.375 L 28.9375,20.1875 28.84375,20.46875 28.75,20.75 28.875,20.375 Q 29,20 29,19.5 q 0,-0.5 0,-1"
       id="path1102" />
    <path
       style="fill:#a00000;fill-opacity:1"
       d="m 12.125,19.625 q 0.125,-0.375 0.5,-0.5 L 13,19 v 0.5 q 0,0.5 0,1 V 21 l -0.125,0.375 q -0.125,0.375 -0.5,0.5 L 12,22 v -0.5 q 0,-0.5 0,-1 0,-0.5 0.125,-0.875 m -0.125,2 V 22 22.125 22.25 22 q 0,-0.25 0,-0.5 v -0.25 0.375"
       id="path1104" />
    <path
       style="fill:#202020;fill-opacity:1"
       d="M 13,19.5 V 19 h 0.5 0.5 l 0.375,0.125 Q 14.75,19.25 15,19.5 L 15.25,19.75 15.0625,19.5625 14.875,19.375 15,19.5 q 0.125,0.125 0.28125,0.21875 l 0.15625,0.09375 -0.07813,-0.04687 -0.07813,-0.04687 -0.265625,0.265625 Q 14.75,20.25 14.375,20.125 14,20 14,20.5 V 21 H 13.5 13 v -0.5 q 0,-0.5 0,-1"
       id="path1106" />
    <path
       style="fill:#202020;fill-opacity:1"
       d="M 20,19.5 Q 20.25,19.25 20.5,19 L 20.75,18.75 20.5625,18.9375 20.375,19.125 20.5,19 q 0.125,-0.125 0.1875,-0.25 L 20.75,18.625 20.71875,18.6875 20.6875,18.75 20.96875,19 Q 21.25,19.25 21.125,19.625 21,20 21,20.5 q 0,0.5 0,1 0,0.5 0,1 0,0.5 0.5,0.5 H 22 l 0.125,0.375 0.125,0.375 -0.09375,-0.28125 -0.09375,-0.28125 0.0625,0.1875 q 0.0625,0.1875 0.15625,0.34375 l 0.09375,0.15625 -0.04687,-0.07813 -0.04687,-0.07813 -0.265625,0.265625 Q 21.75,24.25 21.875,24.625 22,25 22.5,25 H 23 v 0.5 q 0,0.5 0,1 0,0.5 0,1 0,0.5 -0.125,0.875 Q 22.75,28.75 22.5,29 22.25,29.25 22.25,29.5 V 29.75 29.5625 29.375 29.5 q 0,0.125 0.09375,0.21875 l 0.09375,0.09375 -0.04687,-0.04687 -0.04687,-0.04687 -0.296875,0.265625 Q 21.75,30.25 21.375,30.125 21,30 20.625,30.125 L 20.25,30.25 20.53125,30.15625 20.8125,30.0625 20.625,30.125 q -0.1875,0.0625 -0.34375,0.15625 L 20.125,30.375 l 0.07813,-0.04687 0.07813,-0.04687 -0.265625,-0.265625 Q 19.75,29.75 19.875,29.375 20,29 20,28.5 20,28 20,27.5 V 27 26.5 Q 20,26 20,25.5 20,25 20.5,25 21,25 21,24.5 21,24 20.5,24 20,24 20,23.5 q 0,-0.5 0,-1 0,-0.5 0,-1 0,-0.5 0.125,-0.875 0.125,-0.375 -0.140625,-0.640625 l -0.265625,-0.265625 -0.07813,0.04687 -0.07813,0.04687 0.15625,-0.09375 Q 19.875,19.625 20,19.5 L 20.125,19.375 19.9375,19.5625 19.75,19.75 20,19.5 m 1,9 q 0,0.5 0.375,0.375 0.375,-0.125 0.5,-0.5 Q 22,28 21.5,28 21,28 21,28.5 M 21.5,27 Q 22,27 22,26.5 22,26 21.5,26 21,26 21,26.5 21,27 21.5,27"
       id="path1108" />
    <path
       style="fill:#000000;fill-opacity:1"
       d="M 24.125,19.625 Q 24.25,19.25 24.5,19 L 24.75,18.75 24.5625,18.9375 24.375,19.125 24.5,19 q 0.125,-0.125 0.1875,-0.25 l 0.0625,-0.125 -0.03125,0.0625 -0.03125,0.0625 0.296875,0.265625 0.296875,0.265625 0.04687,-0.07813 L 25.375,19.125 25.28125,19.28125 Q 25.1875,19.4375 25.125,19.625 L 25.0625,19.8125 25.15625,19.53125 25.25,19.25 25.125,19.625 25,20 V 20.5 21 20.625 20.25 20.5 q 0,0.25 0.125,0.375 L 25.25,21 25.1875,20.9375 25.125,20.875 l 0.0625,0.4375 q 0.0625,0.4375 0.5,0.5 L 26.125,21.875 26.0625,21.8125 26,21.75 26.125,21.875 Q 26.25,22 26.5,22 H 26.75 26.375 26 26.5 27 26.625 26.25 26.5 q 0.25,0 0.40625,-0.09375 l 0.15625,-0.09375 -0.07813,0.04687 -0.07813,0.04687 0.171875,0.421875 Q 27.25,22.75 27.5,23 q 0.25,0.25 0.53125,-0.03125 L 28.3125,22.6875 28.28125,22.65625 28.25,22.625 28.3125,22.6875 Q 28.375,22.75 28.5,22.75 H 28.625 28.4375 28.25 28.5 28.75 28.5625 28.375 28.5 q 0.125,0 0.25,-0.0625 L 28.875,22.625 28.8125,22.65625 28.75,22.6875 29,22.96875 Q 29.25,23.25 29.125,23.625 29,24 29,24.5 q 0,0.5 0.5,0.5 0.5,0 0.5,0.5 0,0.5 0,1 0,0.5 0,1 0,0.5 -0.5,0.5 -0.5,0 -0.5,0.5 0,0.5 0,1 Q 29,30 28.5,30 28,30 28,30.5 28,31 27.5,31 27,31 26.5,31 26,31 25.5,31 25,31 25,31.5 V 32 H 24.5 24 23.5 23 22.5 22 21.5 21 20.5 20 19.5 19 18.5 18 17.5 17 16.5 16 15.5 15 14.5 14 13.5 13 12.5 12 11.5 11 10.5 10 9.5 9 V 31.5 Q 9,31 9,30.5 9,30 9,29.5 V 29 h 0.5 q 0.5,0 0.875,-0.125 L 10.75,28.75 10.46875,28.84375 10.1875,28.9375 10.375,28.875 q 0.1875,-0.0625 0.3125,-0.1875 l 0.125,-0.125 -0.0625,0.0625 -0.0625,0.0625 0.28125,0.28125 Q 11.25,29.25 11.625,29.125 L 12,29 v 0.5 q 0,0.5 0.375,0.625 0.375,0.125 0.640625,-0.171875 l 0.265625,-0.296875 -0.04687,-0.04687 -0.04687,-0.04687 0.09375,0.09375 Q 13.375,29.75 13.5,29.75 H 13.625 13.4375 13.25 13.5 13.75 13.5625 13.375 13.5 q 0.125,0 0.21875,-0.09375 l 0.09375,-0.09375 -0.04687,0.04687 -0.04687,0.04687 0.265625,0.296875 Q 14.25,30.25 14.625,30.125 L 15,30 v 0.5 q 0,0.5 0.375,0.625 0.375,0.125 0.640625,-0.171875 l 0.265625,-0.296875 -0.04687,-0.04687 -0.04687,-0.04687 0.09375,0.09375 Q 16.375,30.75 16.5,30.75 H 16.625 16.4375 16.25 16.5 16.75 16.5625 16.375 16.5 q 0.125,0 0.21875,-0.09375 l 0.09375,-0.09375 -0.04687,0.04687 -0.04687,0.04687 0.265625,0.296875 Q 17.25,31.25 17.625,31.125 18,31 18.375,31.125 18.75,31.25 19.015625,30.953125 l 0.265625,-0.296875 -0.04687,-0.04687 -0.04687,-0.04687 0.09375,0.09375 Q 19.375,30.75 19.5,30.75 H 19.625 19.4375 19.25 19.5 q 0.25,0 0.5,-0.25 0.25,-0.25 0.625,-0.375 0.375,-0.125 0.75,0 0.375,0.125 0.671875,-0.140625 L 22.34375,29.71875 22.296875,29.671875 22.25,29.625 22.34375,29.71875 Q 22.4375,29.8125 22.625,29.875 L 22.8125,29.9375 22.53125,29.84375 22.25,29.75 22.625,29.875 Q 23,30 23.5,30 q 0.5,0 1,0 0.5,0 1,0 0.5,0 0.875,-0.125 0.375,-0.125 0.5,-0.5 L 27,29 26.90625,29.28125 26.8125,29.5625 26.875,29.375 q 0.0625,-0.1875 0.09375,-0.40625 L 27,28.75 l -0.01563,0.109375 -0.01563,0.109375 0.390625,-0.109375 Q 27.75,28.75 27.875,28.375 28,28 28,27.5 q 0,-0.5 0,-1 0,-0.5 -0.125,-0.875 -0.125,-0.375 -0.5,-0.5 L 27,25 V 24.5 Q 27,24 26.875,23.625 26.75,23.25 26.375,23.125 26,23 25.625,22.875 25.25,22.75 25,22.5 24.75,22.25 24.390625,22.109375 L 24.03125,21.96875 24.046875,22.078125 24.0625,22.1875 24.03125,21.96875 Q 24,21.75 24,21.5 V 21.25 21.625 22 21.5 q 0,-0.5 0,-1 0,-0.5 0.125,-0.875 m 2.875,5 V 25 25.125 25.25 25 q 0,-0.25 0,-0.5 v -0.25 0.375"
       id="path1110" />
    <path
       style="fill:#ffffff;fill-opacity:1"
       d="M 25.125,19.625 Q 25.25,19.25 25.5,19 L 25.75,18.75 25.5625,18.9375 25.375,19.125 25.5,19 q 0.125,-0.125 0.1875,-0.25 l 0.0625,-0.125 -0.03125,0.0625 -0.03125,0.0625 0.296875,0.296875 0.296875,0.296875 0.04687,-0.04687 L 26.375,19.25 26.28125,19.34375 Q 26.1875,19.4375 26.125,19.625 L 26.0625,19.8125 26.15625,19.53125 26.25,19.25 26.125,19.625 26,20 V 19.625 19.25 19.5 q 0,0.25 0.125,0.375 L 26.25,20 26.1875,19.9375 26.125,19.875 25.5625,19.9375 25,20 25.125,19.625"
       id="path1112" />
    <path
       style="fill:#202020;fill-opacity:1"
       d="M 26.125,19.625 Q 26.25,19.25 26.5,19.25 q 0.25,0 0.25,0.25 0,0.25 -0.375,0.375 Q 26,20 26.125,19.625"
       id="path1114" />
    <path
       style="fill:#606060;fill-opacity:1"
       d="m 28.125,19.625 q 0.125,-0.375 0.5,-0.5 L 29,19 v 0.5 Q 29,20 28.875,20.375 28.75,20.75 28.5,21 q -0.25,0.25 -0.5,0.5 -0.25,0.25 -0.671875,0.328125 l -0.421875,0.07813 -0.07813,0.04687 L 26.75,22 26.90625,21.90625 Q 27.0625,21.8125 27.125,21.625 L 27.1875,21.4375 27.09375,21.71875 27,22 27.125,21.625 Q 27.25,21.25 27.5,21 27.75,20.75 27.875,20.375 L 28,20 28.125,19.625 M 29,19.375 V 19 18.875 18.75 19 q 0,0.25 0,0.5 v 0.25 -0.375"
       id="path1116" />
    <path
       style="fill:#303030;fill-opacity:1"
       d="m 14,20.5 q 0,-0.5 0.375,-0.375 0.375,0.125 0.640625,-0.140625 L 15.28125,19.71875 15.203125,19.671875 15.125,19.625 15.28125,19.71875 Q 15.4375,19.8125 15.625,19.875 L 15.8125,19.9375 15.53125,19.84375 15.25,19.75 15.625,19.875 16,20 v 0.5 q 0,0.5 0,1 0,0.5 0.5,0.5 H 17 v 0.5 q 0,0.5 0,1 0,0.5 0,1 0,0.5 0.5,0.5 H 18 V 24.5 24 h 0.5 Q 19,24 19,23.5 19,23 18.5,23 H 18 V 22.5 22 h 0.5 Q 19,22 19,21.5 V 21 20.5 20 L 19.375,19.875 19.75,19.75 19.46875,19.84375 19.1875,19.9375 19.375,19.875 q 0.1875,-0.0625 0.34375,-0.15625 L 19.875,19.625 l -0.07813,0.04687 -0.07813,0.04687 0.265625,0.265625 Q 20.25,20.25 20.125,20.625 20,21 20,21.5 q 0,0.5 0,1 0,0.5 0,1 0,0.5 0.5,0.5 0.5,0 0.5,0.5 0,0.5 -0.5,0.5 -0.5,0 -0.5,0.5 0,0.5 0,1 V 27 H 19.5 19 18.5 Q 18,27 18,27.5 18,28 18.5,28 H 19 V 28.5 29 H 18.5 Q 18,29 18,29.5 18,30 18.5,30 H 19 l 0.125,0.375 0.125,0.375 -0.09375,-0.28125 -0.09375,-0.28125 0.0625,0.1875 q 0.0625,0.1875 0.15625,0.28125 L 19.375,30.75 l -0.04687,-0.04687 -0.04687,-0.04687 -0.265625,0.296875 Q 18.75,31.25 18.375,31.125 18,31 17.625,31.125 17.25,31.25 16.984375,30.953125 L 16.71875,30.65625 16.671875,30.703125 16.625,30.75 16.71875,30.65625 Q 16.8125,30.5625 16.875,30.375 L 16.9375,30.1875 16.84375,30.46875 16.75,30.75 16.875,30.375 Q 17,30 17,29.5 q 0,-0.5 0,-1 0,-0.5 0,-1 0,-0.5 0,-1 Q 17,26 16.5,26 H 16 V 25.5 Q 16,25 15.5,25 H 15 V 24.5 24 h 0.5 Q 16,24 16,23.5 16,23 15.5,23 H 15 V 22.5 Q 15,22 15,21.5 15,21 14.5,21 H 14 V 20.5 M 18.5,25 H 18 v 0.5 Q 18,26 18.5,26 19,26 19,25.5 19,25 18.5,25"
       id="path1118" />
    <path
       style="fill:#202020;fill-opacity:1"
       d="M 16,20.5 V 20 h 0.5 0.5 v 0.5 q 0,0.5 0,1 V 22 H 16.5 Q 16,22 16,21.5 q 0,-0.5 0,-1"
       id="path1120" />
    <path
       style="fill:#404040;fill-opacity:1"
       d="M 17,20.5 V 20 H 17.5 18 V 20.5 21 21.5 22 22.5 23 23.5 24 24.5 25 H 17.5 Q 17,25 17,24.5 q 0,-0.5 0,-1 0,-0.5 0,-1 V 22 21.5 q 0,-0.5 0,-1"
       id="path1122" />
    <path
       style="fill:#101010;fill-opacity:1"
       d="M 18,20.5 V 20 H 18.5 19 V 20.5 21 H 18.5 18 v -0.5"
       id="path1124" />
    <path
       style="fill:#a00000;fill-opacity:1"
       d="M 23,20.5 V 20 l 0.515625,0.01563 0.515625,0.01563 0.01563,-0.109375 0.01563,-0.109375 -0.03125,0.21875 Q 24,20.25 24,20.5 V 20.75 20.375 20 20.5 q 0,0.5 0,1 0,0.5 0.125,0.875 0.125,0.375 0.375,0.625 0.25,0.25 0.25,0.5 0,0.25 -0.375,0.375 -0.375,0.125 -0.75,0 -0.375,-0.125 -0.5,-0.5 Q 23,23 23,22.5 q 0,-0.5 0,-1 0,-0.5 0,-1 m 0,-0.625 V 20 20.375 20.75 20.5 q 0,-0.25 0,-0.5 v -0.25 0.125"
       id="path1126" />
    <path
       style="fill:#d0d0d0;fill-opacity:1"
       d="M 25,20.5 V 20 l 0.5625,-0.0625 0.5625,-0.0625 -0.1875,0.4375 Q 25.75,20.75 25.375,20.875 25,21 25,20.5"
       id="path1128" />
    <path
       style="fill:#909090;fill-opacity:1"
       d="M 25.9375,20.3125 26.125,19.875 26.0625,19.8125 26,19.75 26.125,19.875 Q 26.25,20 26.5,20 H 26.75 26.375 26 L 26.375,19.875 26.75,19.75 26.46875,19.84375 26.1875,19.9375 26.375,19.875 q 0.1875,-0.0625 0.28125,-0.15625 L 26.75,19.625 l -0.04687,0.04687 -0.04687,0.04687 0.3125,0.28125 0.3125,0.28125 0.07813,-0.04687 0.07813,-0.04687 -0.15625,0.09375 Q 27.125,20.375 27,20.5 L 26.875,20.625 27.0625,20.4375 27.25,20.25 27,20.5 Q 26.75,20.75 26.5,21 L 26.25,21.25 26.4375,21.0625 26.625,20.875 26.5,21 q -0.125,0.125 -0.21875,0.28125 l -0.09375,0.15625 0.04687,-0.07813 0.04687,-0.07813 L 25.984375,20.984375 25.6875,20.6875 25.625,20.75 l -0.0625,0.0625 0.125,-0.125 q 0.125,-0.125 0.1875,-0.3125 L 25.9375,20.1875 25.84375,20.46875 25.75,20.75 25.9375,20.3125"
       id="path1130" />
    <path
       style="fill:#d0d0d0;fill-opacity:1"
       d="m 27,20.5 q 0.25,-0.25 0.625,-0.375 L 28,20 27.875,20.375 Q 27.75,20.75 27.5,21 27.25,21.25 27.125,21.625 27,22 26.5,22 26,22 26.125,21.625 26.25,21.25 26.5,21 26.75,20.75 27,20.5"
       id="path1132" />
    <path
       style="fill:#303030;fill-opacity:1"
       d="M 12.875,21.375 13,21 h 0.5 0.5 v 0.5 q 0,0.5 0,1 0,0.5 0,1 0,0.5 0,1 0,0.5 0,1 V 26 h -0.5 q -0.5,0 -0.5,0.5 0,0.5 0,1 0,0.5 0,1 0,0.5 0.125,0.875 L 13.25,29.75 13.15625,29.46875 13.0625,29.1875 13.125,29.375 q 0.0625,0.1875 0.15625,0.28125 L 13.375,29.75 l -0.04687,-0.04687 -0.04687,-0.04687 -0.265625,0.296875 Q 12.75,30.25 12.375,30.125 12,30 12,29.5 V 29 28.5 28 27.5 q 0,-0.5 0,-1 0,-0.5 0.125,-0.875 0.125,-0.375 0.5,-0.5 Q 13,25 13,24.5 13,24 13,23.5 13,23 13.125,22.625 13.25,22.25 12.96875,21.96875 L 12.6875,21.6875 12.625,21.75 l -0.0625,0.0625 0.125,-0.125 q 0.125,-0.125 0.1875,-0.3125 L 12.9375,21.1875 12.84375,21.46875 12.75,21.75 12.875,21.375"
       id="path1134" />
    <path
       style="fill:#404040;fill-opacity:1"
       d="M 14,21.5 V 21 h 0.5 q 0.5,0 0.5,0.5 0,0.5 0,1 V 23 23.5 24 24.5 25 25.5 26 H 14.5 14 v -0.5 q 0,-0.5 0,-1 0,-0.5 0,-1 0,-0.5 0,-1 0,-0.5 0,-1"
       id="path1136" />
    <path
       style="fill:#202020;fill-opacity:1"
       d="M 18,21.5 V 21 h 0.5 0.5 v 0.5 Q 19,22 18.5,22 H 18 v -0.5"
       id="path1138" />
    <path
       style="fill:#606060;fill-opacity:1"
       d="M 25.1875,21.3125 25.125,20.875 25.0625,20.8125 25,20.75 25.125,20.875 Q 25.25,21 25.5,21 H 25.75 25.375 25 L 25.375,20.875 25.75,20.75 25.46875,20.84375 25.1875,20.9375 25.375,20.875 q 0.1875,-0.0625 0.3125,-0.1875 l 0.125,-0.125 -0.0625,0.0625 -0.0625,0.0625 0.296875,0.296875 0.296875,0.296875 0.04687,-0.07813 L 26.375,21.125 26.28125,21.28125 Q 26.1875,21.4375 26.125,21.625 L 26.0625,21.8125 26.15625,21.53125 26.25,21.25 26.125,21.625 26,22 V 21.625 21.25 21.5 q 0,0.25 0.125,0.375 L 26.25,22 26.1875,21.9375 26.125,21.875 25.6875,21.8125 q -0.4375,-0.0625 -0.5,-0.5"
       id="path1140" />
    <path
       style="fill:#000000;fill-opacity:1"
       d="M 28,21.5 Q 28.25,21.25 28.5,21 L 28.75,20.75 28.5625,20.9375 28.375,21.125 28.5,21 q 0.125,-0.125 0.21875,-0.28125 l 0.09375,-0.15625 -0.04687,0.07813 -0.04687,0.07813 0.265625,0.296875 L 29.25,21.3125 29.3125,21.28125 29.375,21.25 29.25,21.3125 Q 29.125,21.375 29,21.5 L 28.875,21.625 29.0625,21.4375 29.25,21.25 29,21.5 Q 28.75,21.75 28.5,22 L 28.25,22.25 28.4375,22.0625 28.625,21.875 28.5,22 q -0.125,0.125 -0.1875,0.25 L 28.25,22.375 28.28125,22.3125 28.3125,22.25 28.015625,21.984375 27.71875,21.71875 l -0.07813,0.04687 -0.07813,0.04687 0.15625,-0.09375 Q 27.875,21.625 28,21.5 L 28.125,21.375 27.9375,21.5625 27.75,21.75 28,21.5"
       id="path1142" />
    <path
       style="fill:#ca8f72;fill-opacity:1"
       d="m 29,21.5 q 0.25,-0.25 0.5,-0.25 0.25,0 0.25,0.25 0,0.25 -0.25,0.5 -0.25,0.25 -0.5,0.5 -0.25,0.25 -0.5,0.25 -0.25,0 -0.25,-0.25 0,-0.25 0.25,-0.5 0.25,-0.25 0.5,-0.5"
       id="path1144" />
    <path
       style="fill:#202020;fill-opacity:1"
       d="M 12,22.5 V 22 L 12.375,21.875 12.75,21.75 12.46875,21.84375 12.1875,21.9375 12.375,21.875 q 0.1875,-0.0625 0.3125,-0.1875 l 0.125,-0.125 -0.0625,0.0625 -0.0625,0.0625 0.28125,0.28125 Q 13.25,22.25 13.125,22.625 13,23 13,23.5 q 0,0.5 0,1 0,0.5 -0.375,0.625 L 12.25,25.25 12.53125,25.15625 12.8125,25.0625 12.625,25.125 q -0.1875,0.0625 -0.3125,0.1875 l -0.125,0.125 L 12.25,25.375 12.3125,25.3125 12.015625,25.015625 11.71875,24.71875 11.671875,24.796875 11.625,24.875 11.71875,24.71875 Q 11.8125,24.5625 11.875,24.375 L 11.9375,24.1875 11.84375,24.46875 11.75,24.75 11.875,24.375 Q 12,24 12,23.5 q 0,-0.5 0,-1 m 0,-0.625 V 22 22.375 22.75 22.5 q 0,-0.25 0,-0.5 v -0.25 0.125"
       id="path1146" />
    <path
       style="fill:#303030;fill-opacity:1"
       d="M 27.078125,22.328125 26.90625,21.90625 27.328125,21.828125 27.75,21.75 27.46875,21.84375 27.1875,21.9375 27.375,21.875 q 0.1875,-0.0625 0.34375,-0.15625 L 27.875,21.625 l -0.07813,0.04687 -0.07813,0.04687 0.296875,0.265625 L 28.3125,22.25 28.34375,22.1875 28.375,22.125 28.3125,22.25 Q 28.25,22.375 28.25,22.5 V 22.625 22.4375 22.25 22.5 22.75 22.5625 22.375 22.5 q 0,0.125 0.0625,0.1875 L 28.375,22.75 28.34375,22.71875 28.3125,22.6875 28.03125,22.96875 Q 27.75,23.25 27.5,23 27.25,22.75 27.078125,22.328125"
       id="path1148" />
    <path
       style="fill:#a00000;fill-opacity:1"
       d="m 11.125,23.625 q 0.125,-0.375 0.5,-0.5 L 12,23 v 0.5 Q 12,24 11.875,24.375 11.75,24.75 11.5,25 11.25,25.25 11.125,25.625 11,26 11,26.5 q 0,0.5 0,1 V 28 l -0.125,0.375 q -0.125,0.375 -0.5,0.5 L 10,29 10.28125,28.90625 10.5625,28.8125 10.375,28.875 q -0.1875,0.0625 -0.40625,0.09375 L 9.75,29 9.859375,28.984375 9.96875,28.96875 9.984375,28.484375 Q 10,28 10,27.5 10,27 10,26.5 10,26 10.125,25.625 10.25,25.25 10.5,25 10.75,24.75 10.875,24.375 11,24 11.125,23.625 M 12,23.375 V 23 22.875 22.75 23 q 0,0.25 0,0.5 v 0.25 -0.375"
       id="path1150" />
    <path
       style="fill:#202020;fill-opacity:1"
       d="M 15,23.5 V 23 h 0.5 Q 16,23 16,23.5 16,24 15.5,24 H 15 v -0.5"
       id="path1152" />
    <path
       style="fill:#202020;fill-opacity:1"
       d="M 18,23.5 V 23 h 0.5 Q 19,23 19,23.5 19,24 18.5,24 H 18 v -0.5"
       id="path1154" />
    <path
       style="fill:#a00000;fill-opacity:1"
       d="M 26.125,23.375 26,23 l 0.375,0.125 q 0.375,0.125 0.5,0.5 L 27,24 26.90625,23.71875 26.8125,23.4375 26.875,23.625 q 0.0625,0.1875 0.09375,0.40625 L 27,24.25 26.984375,24.140625 26.96875,24.03125 26.609375,23.890625 Q 26.25,23.75 26.125,23.375 M 26.28125,23.09375 26,23 25.90625,22.96875 25.8125,22.9375 26,23 q 0.1875,0.0625 0.375,0.125 l 0.1875,0.0625 -0.28125,-0.09375"
       id="path1156" />
    <path
       style="fill:#101010;fill-opacity:1"
       d="M 21.875,24.625 Q 21.75,24.25 22.015625,23.984375 l 0.265625,-0.265625 -0.04687,-0.07813 -0.04687,-0.07813 0.09375,0.15625 Q 22.375,23.875 22.5,24 L 22.625,24.125 22.4375,23.9375 22.25,23.75 22.5,24 q 0.25,0.25 0.375,0.625 L 23,25 H 22.5 Q 22,25 21.875,24.625"
       id="path1158" />
    <path
       style="fill:#101010;fill-opacity:1"
       d="M 11.125,25.625 Q 11.25,25.25 11.5,25 L 11.75,24.75 11.5625,24.9375 11.375,25.125 11.5,25 q 0.125,-0.125 0.21875,-0.28125 l 0.09375,-0.15625 -0.04687,0.07813 -0.04687,0.07813 0.296875,0.296875 0.296875,0.296875 0.0625,-0.0625 0.0625,-0.0625 -0.125,0.125 q -0.125,0.125 -0.1875,0.3125 L 12.0625,25.8125 12.15625,25.53125 12.25,25.25 12.125,25.625 Q 12,26 12,26.5 q 0,0.5 0,1 V 28 H 11.5 11 v -0.5 q 0,-0.5 0,-1 0,-0.5 0.125,-0.875"
       id="path1160" />
    <path
       style="fill:#202020;fill-opacity:1"
       d="M 15,25.5 V 25 h 0.5 Q 16,25 16,25.5 V 26 H 15.5 15 v -0.5"
       id="path1162" />
    <path
       style="fill:#202020;fill-opacity:1"
       d="M 18,25.5 V 25 h 0.5 Q 19,25 19,25.5 19,26 18.5,26 18,26 18,25.5"
       id="path1164" />
    <path
       style="fill:#a00000;fill-opacity:1"
       d="M 25.125,25.625 Q 25.25,25.25 25.5,25.25 q 0.25,0 0.375,0.375 Q 26,26 26,26.5 q 0,0.5 0,1 0,0.5 0,1 0,0.5 -0.01563,0.984375 l -0.01563,0.484375 0.109375,-0.01563 0.109375,-0.01563 -0.21875,0.03125 Q 25.75,30 25.5,30 H 25.25 25.625 26 25.5 q -0.5,0 -1,0 H 24 l 0.125,-0.375 Q 24.25,29.25 24.5,29 24.75,28.75 24.875,28.375 25,28 25,27.5 25,27 25,26.5 25,26 25.125,25.625 M 23.875,30 H 24 24.375 24.75 24.5 q -0.25,0 -0.5,0 h -0.25 0.125"
       id="path1166" />
    <path
       style="fill:#a00000;fill-opacity:1"
       d="M 27,25.5 V 25 l 0.375,0.125 q 0.375,0.125 0.5,0.5 Q 28,26 28,26.5 q 0,0.5 0,1 0,0.5 -0.125,0.875 -0.125,0.375 -0.515625,0.484375 L 26.96875,28.96875 26.953125,29.078125 26.9375,29.1875 26.96875,28.96875 Q 27,28.75 27,28.5 V 28.25 28.625 29 28.5 q 0,-0.5 0,-1 0,-0.5 0,-1 0,-0.5 0,-1 m 0,-0.625 V 25 25.375 25.75 25.5 q 0,-0.25 0,-0.5 v -0.25 0.125"
       id="path1168" />
    <path
       style="fill:#404040;fill-opacity:1"
       d="M 13,26.5 Q 13,26 13.5,26 H 14 v 0.5 q 0,0.5 0,1 0,0.5 0,1 0,0.5 -0.125,0.875 -0.125,0.375 -0.375,0.375 -0.25,0 -0.375,-0.375 Q 13,29 13,28.5 q 0,-0.5 0,-1 0,-0.5 0,-1"
       id="path1170" />
    <path
       style="fill:#303030;fill-opacity:1"
       d="M 14,26.5 V 26 H 14.5 15 15.5 16 V 26.5 27 H 15.5 Q 15,27 15,27.5 15,28 15.5,28 H 16 V 28.5 29 H 15.5 Q 15,29 15,29.5 V 30 l -0.375,0.125 Q 14.25,30.25 13.984375,29.953125 L 13.71875,29.65625 13.671875,29.703125 13.625,29.75 13.71875,29.65625 Q 13.8125,29.5625 13.875,29.375 L 13.9375,29.1875 13.84375,29.46875 13.75,29.75 13.875,29.375 Q 14,29 14,28.5 q 0,-0.5 0,-1 0,-0.5 0,-1"
       id="path1172" />
    <path
       style="fill:#404040;fill-opacity:1"
       d="M 16,26.5 V 26 h 0.5 q 0.5,0 0.5,0.5 0,0.5 0,1 0,0.5 0,1 0,0.5 0,1 0,0.5 -0.125,0.875 -0.125,0.375 -0.375,0.375 -0.25,0 -0.375,-0.375 L 16,30 V 29.5 29 28.5 28 27.5 27 26.5"
       id="path1174" />
    <path
       style="fill:#303030;fill-opacity:1"
       d="M 21,26.5 Q 21,26 21.5,26 22,26 22,26.5 22,27 21.5,27 21,27 21,26.5"
       id="path1176" />
    <path
       style="fill:#a00000;fill-opacity:1"
       d="M 23,26.5 V 26 l 0.375,0.125 q 0.375,0.125 0.5,0.5 0.125,0.375 0,0.75 -0.125,0.375 -0.515625,0.484375 L 22.96875,27.96875 22.953125,28.078125 22.9375,28.1875 22.96875,27.96875 Q 23,27.75 23,27.5 V 27.25 27.625 28 27.5 q 0,-0.5 0,-1 m 0,-0.625 V 26 26.375 26.75 26.5 q 0,-0.25 0,-0.5 v -0.25 0.125"
       id="path1178" />
    <path
       style="fill:#202020;fill-opacity:1"
       d="M 15,27.5 Q 15,27 15.5,27 H 16 V 27.5 28 H 15.5 Q 15,28 15,27.5"
       id="path1180" />
    <path
       style="fill:#202020;fill-opacity:1"
       d="M 18,27.5 Q 18,27 18.5,27 H 19 V 27.5 28 H 18.5 Q 18,28 18,27.5"
       id="path1182" />
    <path
       style="fill:#404040;fill-opacity:1"
       d="M 19,27.5 V 27 h 0.5 0.5 v 0.5 q 0,0.5 0,1 0,0.5 -0.125,0.875 -0.125,0.375 0.140625,0.640625 l 0.265625,0.265625 0.07813,-0.04687 0.07813,-0.04687 -0.15625,0.09375 Q 20.125,30.375 20,30.5 L 19.875,30.625 20.0625,30.4375 20.25,30.25 20,30.5 q -0.25,0.25 -0.5,0.25 -0.25,0 -0.375,-0.375 L 19,30 V 29.5 29 28.5 28 27.5"
       id="path1184" />
    <path
       style="fill:#202020;fill-opacity:1"
       d="M 10.875,28.375 11,28 h 0.5 0.5 v 0.5 0.5 l -0.375,0.125 Q 11.25,29.25 10.96875,28.96875 L 10.6875,28.6875 10.625,28.75 l -0.0625,0.0625 0.125,-0.125 q 0.125,-0.125 0.1875,-0.3125 L 10.9375,28.1875 10.84375,28.46875 10.75,28.75 10.875,28.375"
       id="path1186" />
    <path
       style="fill:#303030;fill-opacity:1"
       d="m 21,28.5 q 0,-0.5 0.5,-0.5 0.5,0 0.375,0.375 -0.125,0.375 -0.5,0.5 Q 21,29 21,28.5"
       id="path1188" />
    <path
       style="fill:#202020;fill-opacity:1"
       d="M 15,29.5 Q 15,29 15.5,29 H 16 V 29.5 30 H 15.5 15 v -0.5"
       id="path1190" />
    <path
       style="fill:#202020;fill-opacity:1"
       d="M 18,29.5 Q 18,29 18.5,29 H 19 V 29.5 30 H 18.5 Q 18,30 18,29.5"
       id="path1192" />
    <path
       style="fill:#303030;fill-opacity:1"
       d="M 15,30.5 V 30 h 0.5 0.5 l 0.125,0.375 0.125,0.375 -0.09375,-0.28125 -0.09375,-0.28125 0.0625,0.1875 q 0.0625,0.1875 0.15625,0.28125 L 16.375,30.75 l -0.04687,-0.04687 -0.04687,-0.04687 -0.265625,0.296875 Q 15.75,31.25 15.375,31.125 15,31 15,30.5"
       id="path1194" />
  </g>
</svg>
