<?xml version="1.0" encoding="UTF-8" standalone="no"?>
<!-- Created with Inkscape (http://www.inkscape.org/) -->

<svg
   xmlns:dc="http://purl.org/dc/elements/1.1/"
   xmlns:cc="http://creativecommons.org/ns#"
   xmlns:rdf="http://www.w3.org/1999/02/22-rdf-syntax-ns#"
   xmlns:svg="http://www.w3.org/2000/svg"
   xmlns="http://www.w3.org/2000/svg"
   xmlns:sodipodi="http://sodipodi.sourceforge.net/DTD/sodipodi-0.dtd"
   xmlns:inkscape="http://www.inkscape.org/namespaces/inkscape"
   version="1.1"
   id="svg8265"
   width="32"
   height="32"
   viewBox="0 0 32 32"
   sodipodi:docname="wizard.svg"
   inkscape:version="0.92.5 (2060ec1f9f, 2020-04-08)">
  <metadata
     id="metadata8271">
    <rdf:RDF>
      <cc:Work
         rdf:about="">
        <dc:format>image/svg+xml</dc:format>
        <dc:type
           rdf:resource="http://purl.org/dc/dcmitype/StillImage" />
        <dc:title></dc:title>
      </cc:Work>
    </rdf:RDF>
  </metadata>
  <defs
     id="defs8269" />
  <sodipodi:namedview
     pagecolor="#ffffff"
     bordercolor="#666666"
     borderopacity="1"
     objecttolerance="10"
     gridtolerance="10"
     guidetolerance="10"
     inkscape:pageopacity="0"
     inkscape:pageshadow="2"
     inkscape:window-width="1920"
     inkscape:window-height="1118"
     id="namedview8267"
     showgrid="false"
     inkscape:zoom="5.5312498"
     inkscape:cx="21.333334"
     inkscape:cy="21.333334"
     inkscape:window-x="0"
     inkscape:window-y="24"
     inkscape:window-maximized="1"
     inkscape:current-layer="svg8265" />
  <g
     id="g8475">
    <path
       style="fill:#000000;fill-opacity:0"
       d="M 0,0.5 V 0 H 0.5 1 1.5 2 2.5 3 3.5 4 L 3.875,0.375 Q 3.75,0.75 3.375,0.875 3,1 3,1.5 3,2 3,2.5 3,3 3,3.5 3,4 3.375,4.125 3.75,4.25 3.875,4.625 4,5 4,5.5 4,6 3.875,6.375 3.75,6.75 3.375,6.875 3,7 3,7.5 3,8 3,8.5 3,9 3.375,9.125 3.75,9.25 3.875,9.625 4,10 4,10.5 q 0,0.5 0,1 0,0.5 0,1 0,0.5 0,1 0,0.5 0,1 0,0.5 0,1 0,0.5 0,1 0,0.5 0,1 0,0.5 0,1 0,0.5 0,1 0,0.5 0,1 0,0.5 0,1 0,0.5 0,1 0,0.5 0,1 0,0.5 0,1 0,0.5 0,1 0,0.5 0,1 0,0.5 0,1 0,0.5 0.375,0.625 0.375,0.125 0.5,0.5 Q 5,29 5.5,29 6,29 6.125,28.625 6.25,28.25 6.625,28.125 7,28 7,27.5 7,27 7,26.5 7,26 7,25.5 7,25 7,24.5 7,24 7,23.5 V 23 H 7.5 Q 8,23 8,22.5 V 22 H 8.5 Q 9,22 9,21.5 9,21 9,20.5 V 20 h 0.5 q 0.5,0 0.5,-0.5 0,-0.5 0,-1 V 18 h 0.5 q 0.5,0 0.5,0.5 0,0.5 0,1 0,0.5 0,1 0,0.5 0,1 0,0.5 -0.125,0.875 -0.125,0.375 -0.5,0.5 Q 10,23 10,23.5 q 0,0.5 0,1 0,0.5 0,1 V 26 H 9.5 Q 9,26 9,26.5 9,27 9,27.5 V 28 H 8.5 Q 8,28 8,28.5 8,29 8,29.5 8,30 8.5,30 H 9 v 0.5 Q 9,31 9.5,31 H 10 V 31.5 32 H 9.5 9 8.5 8 7.5 7 6.5 6 5.5 5 4.5 4 3.5 3 2.5 2 1.5 1 0.5 0 V 31.5 31 30.5 30 29.5 29 28.5 28 27.5 27 26.5 26 25.5 25 24.5 24 23.5 23 22.5 22 21.5 21 20.5 20 19.5 19 18.5 18 17.5 17 16.5 16 15.5 15 14.5 14 13.5 13 12.5 12 11.5 11 10.5 10 9.5 9 8.5 8 7.5 7 6.5 6 5.5 5 4.5 4 3.5 3 2.5 2 1.5 1 0.5"
       id="path8275"
       inkscape:connector-curvature="0" />
    <path
       style="fill:#000000;fill-opacity:1"
       d="M 3.875,0.375 4,0 H 4.5 5 5.5 6 6.5 7 L 7.125,0.375 Q 7.25,0.75 7.625,0.875 8,1 8,1.5 8,2 8,2.5 8,3 8,3.5 8,4 7.625,4.125 7.25,4.25 7.125,4.625 7,5 7,5.5 7,6 7.5,6 8,6 8,6.5 V 7 L 7.625,6.875 Q 7.25,6.75 6.984375,7.015625 L 6.71875,7.28125 6.796875,7.328125 6.875,7.375 6.71875,7.28125 Q 6.5625,7.1875 6.375,7.125 L 6.1875,7.0625 6.46875,7.15625 6.75,7.25 6.375,7.125 6,7 H 6.375 6.75 6.5 Q 6.25,7 6.125,7.125 L 6,7.25 6.0625,7.1875 6.125,7.125 6,6.5 5.875,5.875 5.8125,5.9375 5.75,6 5.875,5.875 Q 6,5.75 6,5.5 V 5.25 5.625 6 5.5 Q 6,5 6,4.5 V 4 L 6.375,3.875 Q 6.75,3.75 6.875,3.375 L 7,3 V 3.375 3.75 3.5 Q 7,3.25 6.875,3.125 L 6.75,3 6.8125,3.0625 6.875,3.125 6.9375,2.5625 Q 7,2 6.875,1.625 6.75,1.25 6.375,1.125 6,1 5.5,1 5,1 4.625,1.125 4.25,1.25 4.125,1.625 4,2 4,2.5 4,3 4.125,3.375 4.25,3.75 4.5,4 4.75,4.25 4.875,4.625 5,5 5,5.5 V 6 5.625 5.25 5.5 Q 5,5.75 5.125,5.875 L 5.25,6 5.1875,5.9375 5.125,5.875 5,6.5 4.875,7.125 4.9375,7.1875 5,7.25 4.875,7.125 Q 4.75,7 4.5,7 H 4.25 4.625 5 L 4.625,7.125 Q 4.25,7.25 4.125,7.625 4,8 4.125,8.375 4.25,8.75 4.625,8.875 L 5,9 v 0.5 q 0,0.5 0,1 0,0.5 0,1 0,0.5 0,1 0,0.5 0,1 0,0.5 0,1 0,0.5 0,1 0,0.5 0,1 0,0.5 0,1 0,0.5 0,1 0,0.5 0,1 0,0.5 0,1 0,0.5 0,1 0,0.5 0,1 0,0.5 0,1 0,0.5 0,1 0,0.5 0,1 0,0.5 0,1 0,0.5 0.125,0.875 0.125,0.375 0.375,0.375 0.25,0 0.375,-0.375 Q 6,27 6,26.5 6,26 6,25.5 6,25 6,24.5 6,24 6,23.5 V 23 H 6.5 7 v 0.5 q 0,0.5 0,1 0,0.5 0,1 0,0.5 0,1 0,0.5 0,1 0,0.5 -0.375,0.625 -0.375,0.125 -0.5,0.5 Q 6,29 5.5,29 5,29 4.875,28.625 4.75,28.25 4.375,28.125 4,28 4,27.5 4,27 4,26.5 4,26 4,25.5 4,25 4,24.5 4,24 4,23.5 4,23 4,22.5 4,22 4,21.5 4,21 4,20.5 4,20 4,19.5 4,19 4,18.5 4,18 4,17.5 4,17 4,16.5 4,16 4,15.5 4,15 4,14.5 4,14 4,13.5 4,13 4,12.5 4,12 4,11.5 4,11 4,10.5 4,10 3.875,9.625 3.75,9.25 3.375,9.125 3,9 3,8.5 3,8 3,7.5 3,7 3.375,6.875 3.75,6.75 3.875,6.375 4,6 4,5.5 4,5 3.875,4.625 3.75,4.25 3.375,4.125 3,4 3,3.5 3,3 3,2.5 3,2 3,1.5 3,1 3.375,0.875 3.75,0.75 3.875,0.375"
       id="path8277"
       inkscape:connector-curvature="0" />
    <path
       style="fill:#000000;fill-opacity:0"
       d="M 7.125,0.375 7,0 H 7.5 8 8.5 9 9.5 10 10.5 11 11.5 12 12.5 13 L 12.875,0.375 Q 12.75,0.75 12.375,0.875 12,1 12,1.5 q 0,0.5 0.375,0.625 0.375,0.125 0.5,0.5 0.125,0.375 0,0.75 -0.125,0.375 -0.5,0.5 Q 12,4 12,4.5 12,5 12,5.5 12,6 11.875,6.375 11.75,6.75 11.375,6.875 11,7 11,7.5 11,8 10.875,8.375 10.75,8.75 10.5,8.75 10.25,8.75 10.125,8.375 10,8 9.5,8 H 9 V 7.5 Q 9,7 8.5,7 H 8 V 6.5 Q 8,6 7.5,6 7,6 7,5.5 7,5 7.125,4.625 7.25,4.25 7.625,4.125 8,4 8,3.5 8,3 8,2.5 8,2 8,1.5 8,1 7.625,0.875 7.25,0.75 7.125,0.375"
       id="path8279"
       inkscape:connector-curvature="0" />
    <path
       style="fill:#000000;fill-opacity:1"
       d="M 12.875,0.375 13,0 h 0.5 0.5 0.5 0.5 l 0.125,0.375 q 0.125,0.375 0.5,0.5 Q 16,1 16,1.5 V 2 L 15.625,1.875 Q 15.25,1.75 15,1.5 14.75,1.25 14.375,1.125 14,1 13.625,1.125 13.25,1.25 13.25,1.5 13.25,1.75 13.5,2 13.75,2.25 13.875,2.625 14,3 13.875,3.375 13.75,3.75 13.5,4 13.25,4.25 13.125,4.625 L 13,5 V 5.5 6 L 12.875,6.375 Q 12.75,6.75 12.5,7 q -0.25,0.25 -0.25,0.5 0,0.25 0.25,0.25 H 12.75 12.5625 12.375 12.5 q 0.125,0 0.25,-0.0625 L 12.875,7.625 12.8125,7.65625 12.75,7.6875 13.046875,7.984375 13.34375,8.28125 13.390625,8.234375 13.4375,8.1875 13.34375,8.28125 Q 13.25,8.375 13.25,8.5 V 8.625 8.4375 8.25 8.5 8.75 8.5625 8.375 8.5 q 0,0.125 0.0625,0.25 L 13.375,8.875 13.34375,8.8125 13.3125,8.75 13.015625,9.015625 12.71875,9.28125 12.765625,9.359375 12.8125,9.4375 12.71875,9.28125 Q 12.625,9.125 12.5,9 L 12.375,8.875 12.5625,9.0625 12.75,9.25 12.5,9 Q 12.25,8.75 11.984375,9.046875 L 11.71875,9.34375 11.765625,9.390625 11.8125,9.4375 11.71875,9.34375 Q 11.625,9.25 11.5,9.25 H 11.375 11.5625 11.75 11.5 Q 11.25,9.25 11,9.5 10.75,9.75 10.5,9.75 10.25,9.75 10,9.5 9.75,9.25 9.375,9.125 L 9,9 V 8.5 8 H 9.5 Q 10,8 10.125,8.375 10.25,8.75 10.5,8.75 10.75,8.75 10.875,8.375 11,8 11,7.5 11,7 11.375,6.875 11.75,6.75 11.875,6.375 12,6 12,5.5 12,5 12,4.5 12,4 12.375,3.875 12.75,3.75 12.875,3.375 13,3 12.875,2.625 12.75,2.25 12.375,2.125 12,2 12,1.5 12,1 12.375,0.875 q 0.375,-0.125 0.5,-0.5"
       id="path8281"
       inkscape:connector-curvature="0" />
    <path
       style="fill:#000000;fill-opacity:0"
       d="M 15.125,0.375 15,0 H 15.5 16 16.5 17 17.5 18 18.5 19 19.5 20 20.5 21 21.5 22 22.5 23 23.5 24 24.5 25 25.5 26 26.5 27 27.5 28 28.5 29 29.5 30 30.5 31 31.5 32 V 0.5 1 1.5 2 2.5 3 3.5 4 4.5 5 5.5 6 6.5 7 7.5 8 8.5 9 9.5 10 10.5 11 11.5 12 12.5 13 13.5 14 14.5 15 15.5 16 16.5 17 17.5 18 18.5 19 19.5 20 20.5 21 21.5 22 22.5 23 23.5 24 H 31.5 Q 31,24 31,23.5 31,23 30.5,23 q -0.5,0 -1,0 -0.5,0 -1,0 -0.5,0 -0.5,0.5 0,0.5 -0.5,0.5 -0.5,0 -1,0 -0.5,0 -0.5,0.5 0,0.5 -0.5,0.5 -0.5,0 -1,0 -0.5,0 -1,0 -0.5,0 -1,0 -0.5,0 -0.5,-0.5 0,-0.5 0,-1 0,-0.5 0,-1 Q 22,22 22.5,22 H 23 v 0.5 q 0,0.5 0.5,0.5 0.5,0 1,0 0.5,0 0.5,-0.5 V 22 21.5 21 h 0.5 q 0.5,0 0.5,-0.5 0,-0.5 0,-1 V 19 h 0.5 q 0.5,0 0.5,-0.5 0,-0.5 0,-1 V 17 h 0.5 q 0.5,0 0.5,-0.5 0,-0.5 0,-1 0,-0.5 0,-1 0,-0.5 0,-1 0,-0.5 0,-1 0,-0.5 0,-1 0,-0.5 0.125,-0.875 0.125,-0.375 0.5,-0.5 Q 29,10 29,9.5 29,9 28.625,8.875 28.25,8.75 28.25,8.5 28.25,8.25 28.625,8.125 29,8 29.125,7.625 29.25,7.25 29.625,7.125 30,7 30,6.5 30,6 29.625,5.875 29.25,5.75 29.125,5.375 29,5 28.5,5 28,5 27.875,5.375 27.75,5.75 27.375,5.875 27,6 26.5,6 H 26 V 5.5 Q 26,5 25.5,5 25,5 24.5,5 24,5 24,5.5 V 6 H 23.5 Q 23,6 23,6.5 V 7 H 22.5 Q 22,7 21.5,7 21,7 21,7.5 V 8 H 20.5 Q 20,8 19.5,8 19,8 19,7.5 V 7 h 0.5 Q 20,7 20.125,6.625 20.25,6.25 20.625,6.125 21,6 21,5.5 21,5 20.625,4.875 20.25,4.75 20.125,4.375 20,4 19.625,3.875 19.25,3.75 19.125,3.375 19,3 18.5,3 18,3 17.5,3 17,3 17,2.5 17,2 16.5,2 H 16 V 1.5 Q 16,1 15.625,0.875 15.25,0.75 15.125,0.375"
       id="path8283"
       inkscape:connector-curvature="0" />
    <path
       style="fill:#ffffff;fill-opacity:1"
       d="M 4.125,1.625 Q 4.25,1.25 4.625,1.125 L 5,1 4.71875,1.09375 4.4375,1.1875 4.625,1.125 Q 4.8125,1.0625 5.03125,1.03125 L 5.25,1 5.140625,1.015625 5.03125,1.03125 4.890625,1.390625 Q 4.75,1.75 4.390625,1.890625 L 4.03125,2.03125 4.015625,2.140625 4,2.25 4.03125,2.03125 Q 4.0625,1.8125 4.125,1.625 L 4.1875,1.4375 4.09375,1.71875 4,2 4.125,1.625"
       id="path8285"
       inkscape:connector-curvature="0" />
    <path
       style="fill:#ff0000;fill-opacity:1"
       d="M 4.890625,1.390625 5.03125,1.03125 4.921875,1.046875 4.8125,1.0625 5.03125,1.03125 Q 5.25,1 5.5,1 H 5.75 5.375 5 5.5 6 5.625 5.25 5.5 Q 5.75,1 5.96875,1.03125 L 6.1875,1.0625 6.078125,1.046875 5.96875,1.03125 6,1.53125 6.03125,2.03125 6.140625,2.015625 6.25,2 6.03125,2.03125 Q 5.8125,2.0625 5.625,2.125 L 5.4375,2.1875 5.71875,2.09375 6,2 5.625,2.125 Q 5.25,2.25 5.125,2.625 L 5,3 4.515625,2.984375 4.03125,2.96875 4.046875,3.078125 4.0625,3.1875 4.03125,2.96875 Q 4,2.75 4,2.5 V 2.25 2.625 3 2.5 2 2.375 2.75 2.5 Q 4,2.25 4.03125,2.03125 L 4.0625,1.8125 4.046875,1.921875 4.03125,2.03125 4.390625,1.890625 q 0.359375,-0.140625 0.5,-0.5"
       id="path8287"
       inkscape:connector-curvature="0" />
    <path
       style="fill:#800000;fill-opacity:1"
       d="M 6,1.53125 5.96875,1.03125 5.859375,1.015625 5.75,1 5.96875,1.03125 Q 6.1875,1.0625 6.375,1.125 L 6.5625,1.1875 6.28125,1.09375 6,1 6.375,1.125 q 0.375,0.125 0.5,0.5 L 7,2 6.90625,1.71875 6.8125,1.4375 6.875,1.625 Q 6.9375,1.8125 6.96875,2.03125 L 7,2.25 6.984375,2.140625 6.96875,2.03125 6.484375,2.015625 6,2 H 6.375 6.75 6.5 Q 6.25,2 6.03125,2.03125 L 5.8125,2.0625 5.921875,2.046875 6.03125,2.03125 6,1.53125"
       id="path8289"
       inkscape:connector-curvature="0" />
    <path
       style="fill:#404040;fill-opacity:1"
       d="m 13.25,1.5 q 0,-0.25 0.375,-0.375 Q 14,1 14.375,1.125 14.75,1.25 15,1.5 L 15.25,1.75 15.0625,1.5625 14.875,1.375 15,1.5 q 0.125,0.125 0.28125,0.21875 L 15.4375,1.8125 15.359375,1.765625 15.28125,1.71875 15.015625,1.984375 Q 14.75,2.25 14.875,2.625 15,3 15.125,3.375 L 15.25,3.75 15.15625,3.46875 15.0625,3.1875 15.125,3.375 q 0.0625,0.1875 0.1875,0.3125 l 0.125,0.125 L 15.375,3.75 15.3125,3.6875 15,4 14.6875,4.3125 14.71875,4.34375 14.75,4.375 14.6875,4.3125 Q 14.625,4.25 14.5,4.25 H 14.375 14.5625 14.75 14.5 q -0.25,0 -0.25,0.25 V 4.75 4.5625 4.375 4.5 q 0,0.125 0.0625,0.1875 L 14.375,4.75 14.34375,4.71875 14.3125,4.6875 14.03125,4.96875 Q 13.75,5.25 13.375,5.125 L 13,5 13.125,4.625 Q 13.25,4.25 13.5,4 13.75,3.75 13.875,3.375 14,3 13.875,2.625 13.75,2.25 13.5,2 13.25,1.75 13.25,1.5"
       id="path8291"
       inkscape:connector-curvature="0" />
    <path
       style="fill:#400000;fill-opacity:1"
       d="M 5.125,2.625 Q 5.25,2.25 5.625,2.125 6,2 6.484375,2.015625 L 6.96875,2.03125 6.953125,1.921875 6.9375,1.8125 6.96875,2.03125 Q 7,2.25 7,2.5 V 2.75 2.375 2 L 6.9375,2.5625 6.875,3.125 6.9375,3.1875 7,3.25 6.875,3.125 Q 6.75,3 6.5,3 H 6.25 6.625 7 6.5 Q 6,3 5.5,3 H 5 L 5.125,2.625"
       id="path8293"
       inkscape:connector-curvature="0" />
    <path
       style="fill:#202020;fill-opacity:1"
       d="M 14.875,2.625 Q 14.75,2.25 15.015625,1.984375 L 15.28125,1.71875 15.203125,1.671875 15.125,1.625 15.28125,1.71875 Q 15.4375,1.8125 15.625,1.875 L 15.8125,1.9375 15.53125,1.84375 15.25,1.75 15.625,1.875 16,2 v 0.5 q 0,0.5 0,1 V 4 L 15.625,3.875 Q 15.25,3.75 15.125,3.375 15,3 14.875,2.625"
       id="path8295"
       inkscape:connector-curvature="0" />
    <path
       style="fill:#000000;fill-opacity:1"
       d="M 16,2.5 V 2 h 0.5 Q 17,2 17,2.5 17,3 17.5,3 q 0.5,0 1,0 0.5,0 0.625,0.375 0.125,0.375 0.5,0.5 0.375,0.125 0.5,0.5 0.125,0.375 0.5,0.5 Q 21,5 21,5.5 21,6 20.625,6.125 20.25,6.25 20.125,6.625 20,7 19.5,7 H 19 L 18.875,6.625 Q 18.75,6.25 19,5.96875 L 19.25,5.6875 19.1875,5.65625 19.125,5.625 19.25,5.6875 Q 19.375,5.75 19.5,5.75 H 19.625 19.4375 19.25 19.5 q 0.25,0 0.25,-0.25 Q 19.75,5.25 19.5,5 19.25,4.75 19,4.5 18.75,4.25 18.375,4.125 L 18,4 H 17.5 Q 17,4 16.5,4 H 16 V 3.5 q 0,-0.5 0,-1"
       id="path8297"
       inkscape:connector-curvature="0" />
    <path
       style="fill:#f2c44d;fill-opacity:1"
       d="M 4.125,3.375 4,3 4.09375,3.28125 4.1875,3.5625 4.125,3.375 Q 4.0625,3.1875 4.03125,2.96875 L 4,2.75 4.015625,2.859375 4.03125,2.96875 4.515625,2.984375 5,3 5.125,3.375 q 0.125,0.375 0.5,0.5 L 6,4 V 4.5 5 L 5.484375,5.015625 4.96875,5.03125 4.984375,5.140625 5,5.25 4.96875,5.03125 Q 4.9375,4.8125 4.875,4.625 L 4.8125,4.4375 4.90625,4.71875 5,5 4.875,4.625 Q 4.75,4.25 4.5,4 4.25,3.75 4.125,3.375 M 6,5.125 V 5 4.625 4.25 4.5 Q 6,4.75 6,5 V 5.25 5.125"
       id="path8299"
       inkscape:connector-curvature="0" />
    <path
       style="fill:#800000;fill-opacity:1"
       d="M 5.125,3.375 5,3 H 5.5 6 V 3.5 4 L 5.625,3.875 Q 5.25,3.75 5.125,3.375 M 6.125,3 H 6 5.625 5.25 5.5 Q 5.75,3 6,3 H 6.25 6.125"
       id="path8301"
       inkscape:connector-curvature="0" />
    <path
       style="fill:#aa8834;fill-opacity:1"
       d="M 6,3.5 V 3 H 6.5 Q 7,3 6.875,3.375 6.75,3.75 6.375,3.875 L 6,4 V 3.5 M 6.375,3 H 6 5.875 5.75 6 Q 6.25,3 6.5,3 H 6.75 6.375"
       id="path8303"
       inkscape:connector-curvature="0" />
    <path
       style="fill:#202020;fill-opacity:1"
       d="m 14.25,4.5 q 0,-0.25 0.25,-0.25 0.25,0 0.25,0.25 0,0.25 -0.25,0.25 -0.25,0 -0.25,-0.25"
       id="path8305"
       inkscape:connector-curvature="0" />
    <path
       style="fill:#505050;fill-opacity:1"
       d="M 14.75,4.5 V 4.25 4.4375 4.625 4.5 q 0,-0.125 -0.0625,-0.1875 L 14.625,4.25 14.65625,4.28125 14.6875,4.3125 15,4 15.3125,3.6875 15.25,3.625 15.1875,3.5625 l 0.125,0.125 q 0.125,0.125 0.3125,0.1875 L 15.8125,3.9375 15.53125,3.84375 15.25,3.75 15.625,3.875 16,4 h 0.5 q 0.5,0 1,0 H 18 L 17.875,4.375 Q 17.75,4.75 17.375,4.875 17,5 16.5,5 16,5 15.625,5.125 15.25,5.25 15,5.5 14.75,5.75 14.5,6 L 14.25,6.25 14.4375,6.0625 14.625,5.875 14.5,6 Q 14.375,6.125 14.28125,6.28125 L 14.1875,6.4375 14.234375,6.359375 14.28125,6.28125 14.015625,6.015625 Q 13.75,5.75 13.375,5.875 L 13,6 V 5.5 5 l 0.375,0.125 Q 13.75,5.25 14.03125,4.96875 L 14.3125,4.6875 14.28125,4.65625 14.25,4.625 14.3125,4.6875 Q 14.375,4.75 14.5,4.75 H 14.625 14.4375 14.25 14.5 q 0.25,0 0.25,-0.25"
       id="path8307"
       inkscape:connector-curvature="0" />
    <path
       style="fill:#404040;fill-opacity:1"
       d="M 17.875,4.375 18,4 18.375,4.125 Q 18.75,4.25 19,4.5 q 0.25,0.25 0.5,0.5 0.25,0.25 0.25,0.5 0,0.25 -0.25,0.25 -0.25,0 -0.5,-0.25 -0.25,-0.25 -0.5,-0.25 -0.25,0 -0.53125,-0.28125 L 17.6875,4.6875 17.625,4.75 17.5625,4.8125 17.6875,4.6875 Q 17.8125,4.5625 17.875,4.375 L 17.9375,4.1875 17.84375,4.46875 17.75,4.75 17.875,4.375"
       id="path8309"
       inkscape:connector-curvature="0" />
    <path
       style="fill:#aa8834;fill-opacity:1"
       d="M 5,5.5 V 5 5.375 5.75 5.5 Q 5,5.25 4.96875,5.03125 L 4.9375,4.8125 4.953125,4.921875 4.96875,5.03125 5.484375,5.015625 6,5 V 5.5 Q 6,6 5.5,6 5,6 5,5.5 M 6,5.375 V 5 4.875 4.75 5 Q 6,5.25 6,5.5 V 5.75 5.375"
       id="path8311"
       inkscape:connector-curvature="0" />
    <path
       style="fill:#202020;fill-opacity:1"
       d="M 15,5.5 Q 15.25,5.25 15.625,5.125 16,5 16.5,5 17,5 17.375,4.875 L 17.75,4.75 17.46875,4.84375 17.1875,4.9375 17.375,4.875 Q 17.5625,4.8125 17.6875,4.6875 L 17.8125,4.5625 17.75,4.625 17.6875,4.6875 17.96875,4.96875 Q 18.25,5.25 18.5,5.25 18.75,5.25 19,5.5 L 19.25,5.75 19.0625,5.5625 18.875,5.375 19,5.5 q 0.125,0.125 0.25,0.1875 L 19.375,5.75 19.3125,5.71875 19.25,5.6875 19,5.96875 Q 18.75,6.25 18.875,6.625 L 19,7 18.625,6.875 Q 18.25,6.75 17.96875,7.03125 L 17.6875,7.3125 17.75,7.375 17.8125,7.4375 17.6875,7.3125 Q 17.5625,7.1875 17.375,7.125 L 17.1875,7.0625 17.46875,7.15625 17.75,7.25 17.375,7.125 17,7 16.875,6.625 Q 16.75,6.25 16.375,6.125 16,6 15.625,6.125 15.25,6.25 15.125,6.625 15,7 14.984375,7.515625 L 14.96875,8.03125 15.078125,8.046875 15.1875,8.0625 14.96875,8.03125 Q 14.75,8 14.5,8 H 14.25 14.625 15 14.5 Q 14,8 13.625,8.125 L 13.25,8.25 13.53125,8.15625 13.8125,8.0625 13.625,8.125 Q 13.4375,8.1875 13.34375,8.28125 L 13.25,8.375 13.296875,8.328125 13.34375,8.28125 13.046875,7.984375 12.75,7.6875 12.6875,7.71875 12.625,7.75 12.75,7.6875 Q 12.875,7.625 13,7.5 L 13.125,7.375 12.9375,7.5625 12.75,7.75 13,7.5 Q 13.25,7.25 13.625,7.125 14,7 14.125,6.625 14.25,6.25 14.5,6 14.75,5.75 15,5.5"
       id="path8313"
       inkscape:connector-curvature="0" />
    <path
       style="fill:#000000;fill-opacity:1"
       d="M 24,5.5 Q 24,5 24.5,5 25,5 25.5,5 26,5 26,5.5 V 6 H 25.5 Q 25,6 24.5,6 H 24 V 5.5"
       id="path8315"
       inkscape:connector-curvature="0" />
    <path
       style="fill:#000000;fill-opacity:1"
       d="M 27.875,5.375 Q 28,5 28.5,5 29,5 29.125,5.375 29.25,5.75 29.625,5.875 30,6 30,6.5 30,7 29.625,7.125 29.25,7.25 29.125,7.625 29,8 28.625,8.125 28.25,8.25 28.25,8.5 q 0,0.25 0.375,0.375 Q 29,9 29,9.5 q 0,0.5 -0.375,0.625 -0.375,0.125 -0.5,0.5 Q 28,11 28,11.5 q 0,0.5 0,1 0,0.5 0,1 0,0.5 0,1 0,0.5 0,1 0,0.5 0,1 0,0.5 -0.5,0.5 H 27 v -0.5 q 0,-0.5 0,-1 0,-0.5 0,-1 0,-0.5 0,-1 0,-0.5 0,-1 0,-0.5 0,-1 Q 27,11 26.875,10.625 26.75,10.25 27,9.96875 L 27.25,9.6875 27.1875,9.65625 27.125,9.625 27.25,9.6875 Q 27.375,9.75 27.5,9.75 H 27.625 27.4375 27.25 27.5 q 0.25,0 0.25,-0.25 Q 27.75,9.25 27.5,9 27.25,8.75 27.125,8.375 27,8 27.375,7.875 27.75,7.75 28,7.5 28.25,7.25 28.5,7 28.75,6.75 28.75,6.5 28.75,6.25 28.5,6.25 28.25,6.25 28,6.5 27.75,6.75 27.375,6.875 27,7 26.625,7.125 L 26.25,7.25 26.53125,7.15625 26.8125,7.0625 26.625,7.125 Q 26.4375,7.1875 26.3125,7.3125 L 26.1875,7.4375 26.25,7.375 26.3125,7.3125 26.03125,7.03125 Q 25.75,6.75 25.875,6.375 L 26,6 h 0.5 q 0.5,0 0.875,-0.125 0.375,-0.125 0.5,-0.5"
       id="path8317"
       inkscape:connector-curvature="0" />
    <path
       style="fill:#300000;fill-opacity:1"
       d="M 5,6.5 5.125,5.875 5.0625,5.8125 5,5.75 5.125,5.875 Q 5.25,6 5.5,6 H 5.75 5.375 5 5.5 6 5.625 5.25 5.5 Q 5.75,6 5.875,5.875 L 6,5.75 5.9375,5.8125 5.875,5.875 6,6.5 6.125,7.125 6.1875,7.0625 6.25,7 6.125,7.125 Q 6,7.25 6,7.5 V 7.75 7.375 7 7.5 Q 6,8 6,8.5 V 9 H 5.5 5 V 8.5 Q 5,8 5,7.5 V 7 7.375 7.75 7.5 Q 5,7.25 4.875,7.125 L 4.75,7 4.8125,7.0625 4.875,7.125 5,6.5"
       id="path8319"
       inkscape:connector-curvature="0" />
    <path
       style="fill:#404040;fill-opacity:1"
       d="M 12.875,6.375 13,6 13.375,5.875 Q 13.75,5.75 14.015625,6.015625 L 14.28125,6.28125 14.328125,6.203125 14.375,6.125 14.28125,6.28125 Q 14.1875,6.4375 14.125,6.625 L 14.0625,6.8125 14.15625,6.53125 14.25,6.25 14.125,6.625 Q 14,7 13.625,7.125 13.25,7.25 13,7.5 12.75,7.75 12.5,7.75 12.25,7.75 12.25,7.5 12.25,7.25 12.5,7 12.75,6.75 12.875,6.375"
       id="path8321"
       inkscape:connector-curvature="0" />
    <path
       style="fill:#ca8f72;fill-opacity:1"
       d="m 15.125,6.625 q 0.125,-0.375 0.5,-0.5 L 16,6 15.71875,6.09375 15.4375,6.1875 15.625,6.125 Q 15.8125,6.0625 16,6.0625 H 16.1875 16.09375 16 V 6.53125 7 L 15.515625,7.015625 15.03125,7.03125 15.015625,7.140625 15,7.25 15.03125,7.03125 Q 15.0625,6.8125 15.125,6.625 L 15.1875,6.4375 15.09375,6.71875 15,7 15.125,6.625 M 15.625,7 H 16 16.125 16.25 16 q -0.25,0 -0.5,0 h -0.25 0.375"
       id="path8323"
       inkscape:connector-curvature="0" />
    <path
       style="fill:#7f5a48;fill-opacity:1"
       d="M 16,6.53125 V 6.0625 H 15.90625 15.8125 16 q 0.1875,0 0.375,0.0625 L 16.5625,6.1875 16.28125,6.09375 16,6 16.375,6.125 q 0.375,0.125 0.5,0.5 L 17,7 H 16.5 16 V 6.53125 M 15.875,7 H 16 16.375 16.75 16.5 Q 16.25,7 16,7 h -0.25 0.125"
       id="path8325"
       inkscape:connector-curvature="0" />
    <path
       style="fill:#000000;fill-opacity:1"
       d="M 23,6.5 Q 23,6 23.5,6 H 24 V 6.5 Q 24,7 23.5,7 H 23 V 6.5"
       id="path8327"
       inkscape:connector-curvature="0" />
    <path
       style="fill:#202020;fill-opacity:1"
       d="M 24,6.5 V 6 h 0.5 q 0.5,0 1,0 H 26 L 25.875,6.375 Q 25.75,6.75 26.03125,7.03125 L 26.3125,7.3125 26.375,7.25 26.4375,7.1875 26.3125,7.3125 Q 26.1875,7.4375 26.125,7.625 L 26.0625,7.8125 26.15625,7.53125 26.25,7.25 26.125,7.625 Q 26,8 25.625,8.125 25.25,8.25 25.25,8.5 V 8.75 8.5625 8.375 8.5 q 0,0.125 0.09375,0.21875 L 25.4375,8.8125 25.390625,8.765625 25.34375,8.71875 25.015625,9.015625 24.6875,9.3125 24.75,9.375 24.8125,9.4375 24.6875,9.3125 Q 24.5625,9.1875 24.375,9.125 L 24.1875,9.0625 24.46875,9.15625 24.75,9.25 24.375,9.125 24,9 V 8.5 Q 24,8 23.5,8 H 23 V 7.5 7 h 0.5 Q 24,7 24,6.5"
       id="path8329"
       inkscape:connector-curvature="0" />
    <path
       style="fill:#ffb691;fill-opacity:1"
       d="m 28,6.5 q 0.25,-0.25 0.5,-0.25 0.25,0 0.25,0.25 0,0.25 -0.25,0.5 Q 28.25,7.25 28,7.5 27.75,7.75 27.375,7.875 L 27,8 27.28125,7.90625 27.5625,7.8125 27.375,7.875 Q 27.1875,7.9375 27.09375,8.09375 L 27,8.25 27.046875,8.171875 27.09375,8.09375 26.515625,8.015625 25.9375,7.9375 25.875,8 25.8125,8.0625 25.9375,7.9375 Q 26.0625,7.8125 26.125,7.625 L 26.1875,7.4375 26.09375,7.71875 26,8 26.125,7.625 Q 26.25,7.25 26.625,7.125 27,7 27.375,6.875 27.75,6.75 28,6.5"
       id="path8331"
       inkscape:connector-curvature="0" />
    <path
       style="fill:#ffb691;fill-opacity:1"
       d="M 4.125,7.625 Q 4.25,7.25 4.625,7.125 5,7 5,7.5 5,8 5,8.5 V 9 L 4.625,8.875 Q 4.25,8.75 4.125,8.375 4,8 4.125,7.625"
       id="path8333"
       inkscape:connector-curvature="0" />
    <path
       style="fill:#a5765e;fill-opacity:1"
       d="M 6,7.5 Q 6,7 6.375,7.125 6.75,7.25 7,7.5 L 7.25,7.75 7,8 Q 6.75,8.25 6.875,8.625 L 7,9 H 6.5 6 V 8.5 Q 6,8 6,7.5 M 7.3125,7.8125 7.25,7.75 7.0625,7.5625 6.875,7.375 7,7.5 Q 7.125,7.625 7.25,7.75 L 7.375,7.875 7.3125,7.8125"
       id="path8335"
       inkscape:connector-curvature="0" />
    <path
       style="fill:#202020;fill-opacity:1"
       d="M 7,7.5 6.75,7.25 6.9375,7.4375 7.125,7.625 7,7.5 Q 6.875,7.375 6.71875,7.28125 L 6.5625,7.1875 6.640625,7.234375 6.71875,7.28125 6.984375,7.015625 Q 7.25,6.75 7.625,6.875 L 8,7 8.125,7.375 q 0.125,0.375 0.5,0.5 L 9,8 V 8.5 9 9.5 q 0,0.5 0.375,0.625 0.375,0.125 0.5,0.5 Q 10,11 10,11.5 q 0,0.5 0,1 v 0.5 0.5 q 0,0.5 0,1 0,0.5 0,1 0,0.5 0.5,0.5 H 11 v 0.5 Q 11,17 10.5,17 10,17 10,17.5 V 18 H 9.5 Q 9,18 9,18.5 9,19 9,19.5 V 20 H 8.5 8 V 19.5 Q 8,19 8,18.5 8,18 8,17.5 8,17 8.5,17 9,17 9,16.5 9,16 9,15.5 9,15 9,14.5 9,14 9,13.5 9,13 9,12.5 9,12 9,11.5 9,11 8.5,11 H 8 V 10.5 Q 8,10 8.125,9.625 8.25,9.25 7.953125,8.984375 L 7.65625,8.71875 7.609375,8.765625 7.5625,8.8125 7.65625,8.71875 Q 7.75,8.625 7.75,8.5 V 8.375 8.5625 8.75 8.5 Q 7.75,8.25 7.5,8 7.25,7.75 7,7.5"
       id="path8337"
       inkscape:connector-curvature="0" />
    <path
       style="fill:#000000;fill-opacity:1"
       d="M 8.125,7.375 8,7 H 8.5 Q 9,7 9,7.5 V 8 L 8.625,7.875 Q 8.25,7.75 8.125,7.375"
       id="path8339"
       inkscape:connector-curvature="0" />
    <path
       style="fill:#ffb691;fill-opacity:1"
       d="M 14.984375,7.515625 15,7 V 7.375 7.75 7.5 Q 15,7.25 15.03125,7.03125 L 15.0625,6.8125 15.046875,6.921875 15.03125,7.03125 15.515625,7.015625 Q 16,7 16.5,7 H 17 V 7.5 8 8.5 9 H 16.5 16 L 15.875,8.625 Q 15.75,8.25 15.375,8.125 L 15,8 15.28125,8.09375 15.5625,8.1875 15.375,8.125 Q 15.1875,8.0625 14.96875,8.03125 L 14.75,8 14.859375,8.015625 14.96875,8.03125 14.984375,7.515625 M 17,9.125 V 9 8.625 8.25 8.5 Q 17,8.75 17,9 V 9.25 9.125"
       id="path8341"
       inkscape:connector-curvature="0" />
    <path
       style="fill:#505050;fill-opacity:1"
       d="M 17,7.5 V 7 l 0.375,0.125 q 0.375,0.125 0.5,0.5 L 18,8 H 17.5 17 V 7.5"
       id="path8343"
       inkscape:connector-curvature="0" />
    <path
       style="fill:#000000;fill-opacity:1"
       d="M 17.875,7.625 17.75,7.25 17.84375,7.53125 17.9375,7.8125 17.875,7.625 Q 17.8125,7.4375 17.6875,7.3125 L 17.5625,7.1875 17.625,7.25 17.6875,7.3125 17.96875,7.03125 Q 18.25,6.75 18.625,6.875 L 19,7 V 7.5 Q 19,8 19.5,8 20,8 20.5,8 H 21 V 8.5 9 H 20.5 Q 20,9 19.5,9 19,9 19,9.5 19,10 18.5,10 H 18 V 9.5 9 8.5 8 L 17.875,7.625"
       id="path8345"
       inkscape:connector-curvature="0" />
    <path
       style="fill:#000000;fill-opacity:1"
       d="M 21,7.5 Q 21,7 21.5,7 22,7 22.5,7 H 23 V 7.5 8 H 22.5 Q 22,8 21.5,8 H 21 V 7.5"
       id="path8347"
       inkscape:connector-curvature="0" />
    <path
       style="fill:#ca8f72;fill-opacity:1"
       d="M 6.875,8.625 Q 6.75,8.25 7,8 L 7.25,7.75 7.5,8 q 0.25,0.25 0.25,0.5 0,0.25 -0.375,0.375 L 7,9 6.875,8.625 M 7.4375,7.9375 7.25,7.75 7.1875,7.6875 7.125,7.625 7.25,7.75 Q 7.375,7.875 7.5,8 L 7.625,8.125 7.4375,7.9375"
       id="path8349"
       inkscape:connector-curvature="0" />
    <path
       style="fill:#909090;fill-opacity:1"
       d="m 13.25,8.5 q 0,-0.25 0.375,-0.375 L 14,8 13.71875,8.09375 13.4375,8.1875 13.625,8.125 Q 13.8125,8.0625 14.03125,8.03125 L 14.25,8 14.140625,8.015625 14.03125,8.03125 14.140625,8.390625 Q 14.25,8.75 14.625,8.875 L 15,9 14.71875,8.90625 14.4375,8.8125 14.625,8.875 q 0.1875,0.0625 0.40625,0.09375 L 15.25,9 15.140625,8.984375 15.03125,8.96875 15.140625,9.359375 Q 15.25,9.75 15.5,10 q 0.25,0.25 0.5,0.5 0.25,0.25 0.5,0.25 H 16.75 16.5625 16.375 16.5 q 0.125,0 0.21875,-0.09375 l 0.09375,-0.09375 -0.04687,0.04687 -0.04687,0.04687 0.28125,0.3125 0.28125,0.3125 0.04687,-0.07813 L 17.375,11.125 17.28125,11.28125 Q 17.1875,11.4375 17.125,11.625 L 17.0625,11.8125 17.15625,11.53125 17.25,11.25 17.125,11.625 17,12 16.625,11.875 Q 16.25,11.75 16,11.5 15.75,11.25 15.375,11.125 L 15,11 14.875,10.625 Q 14.75,10.25 14.5,10 14.25,9.75 14,9.5 13.75,9.25 13.5,9 13.25,8.75 13.25,8.5"
       id="path8351"
       inkscape:connector-curvature="0" />
    <path
       style="fill:#7f5a48;fill-opacity:1"
       d="M 14.140625,8.390625 14.03125,8.03125 13.921875,8.046875 13.8125,8.0625 14.03125,8.03125 Q 14.25,8 14.5,8 H 14.75 14.375 14 14.5 q 0.5,0 0.875,0.125 0.375,0.125 0.5,0.5 L 16,9 H 15.5 Q 15,9 14.625,8.875 14.25,8.75 14.140625,8.390625"
       id="path8353"
       inkscape:connector-curvature="0" />
    <path
       style="fill:#707070;fill-opacity:1"
       d="M 17,8.5 V 8 H 17.5 18 V 8.5 9 H 17.5 17 V 8.5"
       id="path8355"
       inkscape:connector-curvature="0" />
    <path
       style="fill:#202020;fill-opacity:1"
       d="M 21,8.5 V 8 h 0.5 q 0.5,0 1,0 H 23 V 8.5 9 9.5 q 0,0.5 0,1 0,0.5 0,1 0,0.5 0,1 0,0.5 0,1 v 0.5 0.5 q 0,0.5 0,1 0,0.5 0,1 V 17 H 22.5 Q 22,17 22,16.5 22,16 21.5,16 H 21 v -0.5 q 0,-0.5 0,-1 V 14 h 0.5 q 0.5,0 0.5,-0.5 0,-0.5 0,-1 0,-0.5 0,-1 V 11 10.5 10 9.5 Q 22,9 21.5,9 H 21 V 8.5"
       id="path8357"
       inkscape:connector-curvature="0" />
    <path
       style="fill:#303030;fill-opacity:1"
       d="M 23,8.5 V 8 h 0.5 Q 24,8 24,8.5 V 9 H 23.5 23 V 8.5"
       id="path8359"
       inkscape:connector-curvature="0" />
    <path
       style="fill:#ca8f72;fill-opacity:1"
       d="m 25.25,8.5 q 0,-0.25 0.375,-0.375 L 26,8 25.71875,8.09375 25.4375,8.1875 25.625,8.125 Q 25.8125,8.0625 25.9375,7.9375 L 26.0625,7.8125 26,7.875 25.9375,7.9375 26.515625,8.015625 27.09375,8.09375 27.140625,8.015625 27.1875,7.9375 27.09375,8.09375 Q 27,8.25 27,8.5 V 8.75 8.375 8 l 0.125,0.375 Q 27.25,8.75 27.5,9 q 0.25,0.25 0.25,0.5 0,0.25 -0.25,0.25 Q 27.25,9.75 27,9.5 26.75,9.25 26.375,9.125 L 26,9 25.625,8.875 Q 25.25,8.75 25.25,8.5"
       id="path8361"
       inkscape:connector-curvature="0" />
    <path
       style="fill:#400000;fill-opacity:1"
       d="M 5,9.5 V 9 H 5.5 6 v 0.5 q 0,0.5 0,1 0,0.5 0,1 V 12 H 5.5 5 V 11.5 Q 5,11 5,10.5 5,10 5,9.5 m 0,2.125 V 12 12.125 12.25 12 q 0,-0.25 0,-0.5 v -0.25 0.375 m 1,0.5 V 12 11.625 11.25 11.5 q 0,0.25 0,0.5 v 0.25 -0.125"
       id="path8363"
       inkscape:connector-curvature="0" />
    <path
       style="fill:#101010;fill-opacity:1"
       d="M 6,9.5 V 9 H 6.5 7 L 7.375,8.875 7.75,8.75 7.46875,8.84375 7.1875,8.9375 7.375,8.875 Q 7.5625,8.8125 7.65625,8.71875 L 7.75,8.625 7.703125,8.671875 7.65625,8.71875 7.953125,8.984375 Q 8.25,9.25 8.125,9.625 8,10 8,10.5 v 0.5 0.5 q 0,0.5 0,1 0,0.5 0,1 V 14 H 7.5 Q 7,14 7,14.5 q 0,0.5 0,1 v 0.5 0.5 q 0,0.5 0,1 0,0.5 0,1 V 19 H 6.5 6 V 18.5 Q 6,18 6,17.5 6,17 6,16.5 6,16 6,15.5 6,15 6,14.5 6,14 6,13.5 6,13 6,12.5 6,12 6,11.5 6,11 6,10.5 6,10 6,9.5"
       id="path8365"
       inkscape:connector-curvature="0" />
    <path
       style="fill:#404040;fill-opacity:1"
       d="M 9,9.5 V 9 L 9.375,9.125 Q 9.75,9.25 10,9.5 q 0.25,0.25 0.5,0.25 0.25,0 0.5,-0.25 0.25,-0.25 0.5,-0.25 0.25,0 0.375,0.375 Q 12,10 12,10.5 q 0,0.5 0,1 V 12 H 11.5 Q 11,12 11,12.5 V 13 H 10.5 10 V 12.5 Q 10,12 10,11.5 10,11 9.875,10.625 9.75,10.25 9.375,10.125 9,10 9,9.5"
       id="path8367"
       inkscape:connector-curvature="0" />
    <path
       style="fill:#303030;fill-opacity:1"
       d="M 11.875,9.625 11.75,9.25 11.84375,9.53125 11.9375,9.8125 11.875,9.625 Q 11.8125,9.4375 11.71875,9.34375 L 11.625,9.25 11.671875,9.296875 11.71875,9.34375 11.984375,9.046875 Q 12.25,8.75 12.5,9 12.75,9.25 12.875,9.625 13,10 13,10.5 q 0,0.5 0,1 0,0.5 -0.5,0.5 H 12 v -0.5 q 0,-0.5 0,-1 0,-0.5 -0.125,-0.875"
       id="path8369"
       inkscape:connector-curvature="0" />
    <path
       style="fill:#202020;fill-opacity:1"
       d="M 12.875,9.625 12.75,9.25 12.84375,9.53125 12.9375,9.8125 12.875,9.625 Q 12.8125,9.4375 12.71875,9.28125 L 12.625,9.125 12.671875,9.203125 12.71875,9.28125 13.015625,9.015625 13.3125,8.75 13.28125,8.6875 13.25,8.625 13.3125,8.75 Q 13.375,8.875 13.5,9 L 13.625,9.125 13.4375,8.9375 13.25,8.75 13.5,9 q 0.25,0.25 0.5,0.5 0.25,0.25 0.5,0.5 0.25,0.25 0.375,0.625 L 15,11 15.125,11.375 Q 15.25,11.75 15.5,12 q 0.25,0.25 0.5,0.5 0.25,0.25 0.5,0.25 0.25,0 0.375,-0.375 L 17,12 17.125,11.625 Q 17.25,11.25 17.5,11 17.75,10.75 17.875,10.375 L 18,10 h 0.5 Q 19,10 19,9.5 19,9 19.5,9 20,9 20.5,9 H 21 V 9.5 10 H 20.5 Q 20,10 20,10.5 v 0.5 0.5 q 0,0.5 0,1 0,0.5 0,1 v 0.5 0.5 q 0,0.5 0,1 0,0.5 0.5,0.5 H 21 v 0.5 q 0,0.5 0,1 0,0.5 0,1 0,0.5 0,1 0,0.5 0,1 0,0.5 0,1 0,0.5 0,1 0,0.5 0,1 0,0.5 0,1 0,0.5 0,1 0,0.5 0,1 0,0.5 0,1 0,0.5 0,1 0,0.5 0,1 0,0.5 -0.5,0.5 -0.5,0 -0.5,0.5 0,0.5 -0.5,0.5 -0.5,0 -1,0 -0.5,0 -1,0 -0.5,0 -1,0 -0.5,0 -1,0 -0.5,0 -1,0 -0.5,0 -1,0 -0.5,0 -1,0 -0.5,0 -1,0 -0.5,0 -1,0 H 10 V 30.5 30 h 0.5 q 0.5,0 1,0 0.5,0 0.5,-0.5 V 29 h 0.5 q 0.5,0 0.5,-0.5 0,-0.5 0,-1 0,-0.5 0.5,-0.5 0.5,0 0.5,-0.5 0,-0.5 0,-1 0,-0.5 0,-1 0,-0.5 0,-1 0,-0.5 0,-1 0,-0.5 0,-1 V 21 20.5 q 0,-0.5 0.5,-0.5 0.5,0 0.5,0.5 0,0.5 0,1 0,0.5 0,1 0,0.5 0,1 0,0.5 0,1 0,0.5 0,1 0,0.5 0,1 v 0.5 0.5 q 0,0.5 0,1 0,0.5 0.5,0.5 0.5,0 0.5,-0.5 0,-0.5 0,-1 V 27 h 0.5 q 0.5,0 0.5,-0.5 0,-0.5 0,-1 0,-0.5 0,-1 V 24 23.5 q 0,-0.5 0,-1 0,-0.5 0,-1 V 21 h 0.5 0.5 v 0.5 q 0,0.5 0,1 0,0.5 0,1 0,0.5 0,1 0,0.5 0,1 0,0.5 0,1 0,0.5 0.5,0.5 0.5,0 0.5,-0.5 0,-0.5 0,-1 0,-0.5 0,-1 0,-0.5 0,-1 0,-0.5 0,-1 0,-0.5 0,-1 0,-0.5 0,-1 0,-0.5 0,-1 0,-0.5 0,-1 0,-0.5 0,-1 V 17 16.5 q 0,-0.5 0,-1 0,-0.5 0,-1 0,-0.5 0,-1 0,-0.5 0,-1 Q 19,12 18.5,12 18,12 18,12.5 V 13 l -0.375,0.125 q -0.375,0.125 -0.5,0.5 Q 17,14 17,14.5 q 0,0.5 0,1 0,0.5 0,1 0,0.5 0,1 V 18 18.5 Q 17,19 16.5,19 H 16 V 18.5 18 17.5 q 0,-0.5 0,-1 0,-0.5 0,-1 Q 16,15 15.5,15 H 15 v -0.5 q 0,-0.5 0,-1 0,-0.5 -0.125,-0.875 -0.125,-0.375 -0.5,-0.5 Q 14,12 14,12.5 q 0,0.5 0,1 0,0.5 -0.5,0.5 -0.5,0 -0.5,0.5 0,0.5 0,1 V 16 H 12.5 12 11.5 11 v -0.5 q 0,-0.5 0,-1 0,-0.5 0,-1 V 13 h 0.5 Q 12,13 12,12.5 V 12 h 0.5 Q 13,12 13,11.5 13,11 13,10.5 13,10 12.875,9.625"
       id="path8371"
       inkscape:connector-curvature="0" />
    <path
       style="fill:#505050;fill-opacity:1"
       d="M 15.140625,9.359375 15.03125,8.96875 14.921875,8.953125 14.8125,8.9375 15.03125,8.96875 Q 15.25,9 15.5,9 H 15.75 15.375 15 15.5 16 l 0.125,0.375 q 0.125,0.375 0.5,0.5 L 17,10 16.875,10.375 Q 16.75,10.75 16.5,10.75 16.25,10.75 16,10.5 15.75,10.25 15.5,10 15.25,9.75 15.140625,9.359375"
       id="path8373"
       inkscape:connector-curvature="0" />
    <path
       style="fill:#ca8f72;fill-opacity:1"
       d="M 16.125,9.375 16,9 H 16.5 17 V 9.5 10 9.625 9.25 9.5 q 0,0.25 -0.03125,0.46875 L 16.9375,10.1875 16.953125,10.078125 16.96875,9.96875 16.609375,9.859375 Q 16.25,9.75 16.125,9.375 m 0.875,0 V 9 8.875 8.75 9 q 0,0.25 0,0.5 V 9.75 9.375"
       id="path8375"
       inkscape:connector-curvature="0" />
    <path
       style="fill:#909090;fill-opacity:1"
       d="M 17,9.5 V 9 H 17.5 18 V 9.5 10 H 17.5 17 V 9.5"
       id="path8377"
       inkscape:connector-curvature="0" />
    <path
       style="fill:#303030;fill-opacity:1"
       d="M 21,9.5 V 9 h 0.5 Q 22,9 22,9.5 V 10 H 21.5 21 V 9.5"
       id="path8379"
       inkscape:connector-curvature="0" />
    <path
       style="fill:#404040;fill-opacity:1"
       d="M 23,9.5 V 9 h 0.5 0.5 l 0.375,0.125 q 0.375,0.125 0.5,0.5 Q 25,10 25,10.5 q 0,0.5 0,1 V 12 H 24.5 Q 24,12 24,12.5 V 13 13.5 14 H 23.5 23 v -0.5 q 0,-0.5 0,-1 0,-0.5 0,-1 0,-0.5 0,-1 0,-0.5 0,-1"
       id="path8381"
       inkscape:connector-curvature="0" />
    <path
       style="fill:#101010;fill-opacity:1"
       d="M 24.875,9.625 24.75,9.25 24.84375,9.53125 24.9375,9.8125 24.875,9.625 Q 24.8125,9.4375 24.6875,9.3125 L 24.5625,9.1875 24.625,9.25 24.6875,9.3125 25.015625,9.015625 25.34375,8.71875 25.296875,8.671875 25.25,8.625 25.34375,8.71875 Q 25.4375,8.8125 25.625,8.875 L 25.8125,8.9375 25.53125,8.84375 25.25,8.75 25.625,8.875 26,9 v 0.5 q 0,0.5 0,1 0,0.5 0,1 0,0.5 0,1 0,0.5 0,1 0,0.5 0,1 0,0.5 0,1 0,0.5 -0.5,0.5 -0.5,0 -0.5,-0.5 0,-0.5 0,-1 0,-0.5 0,-1 V 13 12.5 12 11.5 q 0,-0.5 0,-1 0,-0.5 -0.125,-0.875"
       id="path8383"
       inkscape:connector-curvature="0" />
    <path
       style="fill:#202020;fill-opacity:1"
       d="M 26,9.5 V 9 l 0.375,0.125 Q 26.75,9.25 27,9.5 L 27.25,9.75 27.0625,9.5625 26.875,9.375 27,9.5 q 0.125,0.125 0.25,0.1875 L 27.375,9.75 27.3125,9.71875 27.25,9.6875 27,9.96875 Q 26.75,10.25 26.875,10.625 27,11 27,11.5 q 0,0.5 0,1 0,0.5 0,1 0,0.5 0,1 0,0.5 0,1 0,0.5 0,1 V 17 h -0.5 q -0.5,0 -0.5,0.5 0,0.5 0,1 V 19 h -0.5 q -0.5,0 -0.5,0.5 0,0.5 0,1 V 21 21.5 22 h -0.5 q -0.5,0 -1,0 H 23 v -0.5 q 0,-0.5 0,-1 0,-0.5 0,-1 0,-0.5 0,-1 0,-0.5 0,-1 V 17 h 0.5 q 0.5,0 0.5,-0.5 0,-0.5 0,-1 0,-0.5 0,-1 V 14 13.5 13 h 0.5 0.5 v 0.5 q 0,0.5 0,1 0,0.5 0,1 0,0.5 0.5,0.5 0.5,0 0.5,-0.5 0,-0.5 0,-1 0,-0.5 0,-1 0,-0.5 0,-1 0,-0.5 0,-1 0,-0.5 0,-1 0,-0.5 0,-1"
       id="path8385"
       inkscape:connector-curvature="0" />
    <path
       style="fill:#707070;fill-opacity:1"
       d="M 16.875,10.375 17,10 h 0.5 0.5 l -0.125,0.375 Q 17.75,10.75 17.5,11 L 17.25,11.25 17.4375,11.0625 17.625,10.875 17.5,11 q -0.125,0.125 -0.21875,0.28125 L 17.1875,11.4375 17.23437,11.35937 17.28124,11.28124 17,10.96875 16.71875,10.65625 16.671875,10.703125 16.625,10.75 16.71875,10.65625 Q 16.8125,10.5625 16.875,10.375 L 16.9375,10.1875 16.84375,10.46875 16.75,10.75 16.875,10.375"
       id="path8387"
       inkscape:connector-curvature="0" />
    <path
       style="fill:#303030;fill-opacity:1"
       d="M 20,10.5 Q 20,10 20.5,10 H 21 V 10.5 11 H 20.5 20 v -0.5"
       id="path8389"
       inkscape:connector-curvature="0" />
    <path
       style="fill:#404040;fill-opacity:1"
       d="M 21,10.5 V 10 H 21.5 22 V 10.5 11 H 21.5 21 v -0.5"
       id="path8391"
       inkscape:connector-curvature="0" />
    <path
       style="fill:#303030;fill-opacity:1"
       d="M 8,11.5 V 11 h 0.5 q 0.5,0 0.5,0.5 0,0.5 0,1 0,0.5 0,1 0,0.5 0,1 0,0.5 0,1 0,0.5 0,1 Q 9,17 8.5,17 8,17 8,17.5 q 0,0.5 0,1 0,0.5 0,1 V 20 H 7.5 7 V 19.5 19 18.5 Q 7,18 7,17.5 7,17 7,16.5 V 16 H 7.5 Q 8,16 8,15.5 8,15 8,14.5 V 14 13.5 q 0,-0.5 0,-1 0,-0.5 0,-1"
       id="path8393"
       inkscape:connector-curvature="0" />
    <path
       style="fill:#707070;fill-opacity:1"
       d="M 15.125,11.375 15,11 15.375,11.125 Q 15.75,11.25 16,11.5 q 0.25,0.25 0.625,0.375 L 17,12 16.875,12.375 Q 16.75,12.75 16.5,12.75 16.25,12.75 16,12.5 15.75,12.25 15.5,12 15.25,11.75 15.125,11.375"
       id="path8395"
       inkscape:connector-curvature="0" />
    <path
       style="fill:#404040;fill-opacity:1"
       d="M 20,11.5 V 11 h 0.5 0.5 v 0.5 q 0,0.5 0,1 0,0.5 0,1 V 14 H 20.5 20 v -0.5 q 0,-0.5 0,-1 0,-0.5 0,-1"
       id="path8397"
       inkscape:connector-curvature="0" />
    <path
       style="fill:#303030;fill-opacity:1"
       d="M 21,11.5 V 11 h 0.5 0.5 v 0.5 q 0,0.5 0,1 0,0.5 0,1 0,0.5 -0.5,0.5 H 21 v -0.5 q 0,-0.5 0,-1 0,-0.5 0,-1"
       id="path8399"
       inkscape:connector-curvature="0" />
    <path
       style="fill:#600000;fill-opacity:1"
       d="M 5,12.5 V 12 H 5.5 6 v 0.5 q 0,0.5 0,1 0,0.5 0,1 0,0.5 0,1 0,0.5 0,1 0,0.5 0,1 0,0.5 0,1 v 0.5 0.5 0.5 0.5 q 0,0.5 0,1 V 22 22.5 23 H 5.5 5 V 22.5 Q 5,22 5,21.5 5,21 5,20.5 5,20 5,19.5 5,19 5,18.5 5,18 5,17.5 5,17 5,16.5 5,16 5,15.5 5,15 5,14.5 5,14 5,13.5 5,13 5,12.5 M 5,22.625 V 23 23.125 23.25 23 q 0,-0.25 0,-0.5 v -0.25 0.375 m 1,0.5 V 23 22.625 22.25 22.5 q 0,0.25 0,0.5 v 0.25 -0.125 M 6,12.375 V 12 11.875 11.75 12 q 0,0.25 0,0.5 v 0.25 -0.375 m -1,-0.5 V 12 12.375 12.75 12.5 Q 5,12.25 5,12 v -0.25 0.125"
       id="path8401"
       inkscape:connector-curvature="0" />
    <path
       style="fill:#303030;fill-opacity:1"
       d="M 11,12.5 Q 11,12 11.5,12 H 12 v 0.5 Q 12,13 11.5,13 H 11 v -0.5"
       id="path8403"
       inkscape:connector-curvature="0" />
    <path
       style="fill:#303030;fill-opacity:1"
       d="m 14,12.5 q 0,-0.5 0.375,-0.375 0.375,0.125 0.5,0.5 Q 15,13 15,13.5 q 0,0.5 0,1 V 15 H 14.5 Q 14,15 14,15.5 14,16 13.5,16 H 13 v -0.5 q 0,-0.5 0,-1 0,-0.5 0.5,-0.5 0.5,0 0.5,-0.5 0,-0.5 0,-1"
       id="path8405"
       inkscape:connector-curvature="0" />
    <path
       style="fill:#303030;fill-opacity:1"
       d="m 18,12.5 q 0,-0.5 0.5,-0.5 0.5,0 0.5,0.5 0,0.5 0,1 0,0.5 0,1 0,0.5 0,1 0,0.5 0,1 V 17 H 18.5 Q 18,17 18,16.5 q 0,-0.5 0,-1 0,-0.5 0,-1 0,-0.5 0,-1 V 13 12.5"
       id="path8407"
       inkscape:connector-curvature="0" />
    <path
       style="fill:#303030;fill-opacity:1"
       d="M 24,12.5 Q 24,12 24.5,12 H 25 V 12.5 13 H 24.5 24 v -0.5"
       id="path8409"
       inkscape:connector-curvature="0" />
    <path
       style="fill:#303030;fill-opacity:1"
       d="M 10,13.5 V 13 h 0.5 0.5 v 0.5 q 0,0.5 0,1 0,0.5 0,1 V 16 H 10.5 Q 10,16 10,15.5 q 0,-0.5 0,-1 0,-0.5 0,-1"
       id="path8411"
       inkscape:connector-curvature="0" />
    <path
       style="fill:#404040;fill-opacity:1"
       d="m 17.125,13.625 q 0.125,-0.375 0.5,-0.5 L 18,13 v 0.5 q 0,0.5 0,1 0,0.5 0,1 0,0.5 0,1 0,0.5 0.5,0.5 H 19 v 0.5 q 0,0.5 0,1 0,0.5 0,1 0,0.5 0,1 0,0.5 0,1 0,0.5 0,1 0,0.5 0,1 0,0.5 0,1 0,0.5 0,1 0,0.5 0,1 0,0.5 -0.5,0.5 -0.5,0 -0.5,-0.5 0,-0.5 0,-1 0,-0.5 0,-1 0,-0.5 0,-1 0,-0.5 0,-1 0,-0.5 0,-1 V 21 20.5 q 0,-0.5 0,-1 0,-0.5 0,-1 Q 18,18 17.5,18 H 17 v -0.5 q 0,-0.5 0,-1 0,-0.5 0,-1 0,-0.5 0,-1 0,-0.5 0.125,-0.875"
       id="path8413"
       inkscape:connector-curvature="0" />
    <path
       style="fill:#202020;fill-opacity:1"
       d="M 7,14.5 Q 7,14 7.5,14 H 8 v 0.5 Q 8,15 8,15.5 8,16 7.5,16 H 7 v -0.5 q 0,-0.5 0,-1"
       id="path8415"
       inkscape:connector-curvature="0" />
    <path
       style="fill:#303030;fill-opacity:1"
       d="M 20,14.5 V 14 h 0.5 0.5 v 0.5 q 0,0.5 0,1 V 16 H 20.5 Q 20,16 20,15.5 q 0,-0.5 0,-1"
       id="path8417"
       inkscape:connector-curvature="0" />
    <path
       style="fill:#303030;fill-opacity:1"
       d="M 23,14.5 V 14 h 0.5 0.5 v 0.5 q 0,0.5 0,1 0,0.5 0,1 0,0.5 -0.5,0.5 H 23 v -0.5 q 0,-0.5 0,-1 0,-0.5 0,-1"
       id="path8419"
       inkscape:connector-curvature="0" />
    <path
       style="fill:#404040;fill-opacity:1"
       d="M 14,15.5 Q 14,15 14.5,15 H 15 v 0.5 q 0,0.5 0,1 0,0.5 0,1 0,0.5 0.5,0.5 H 16 v 0.5 0.5 0.5 q 0,0.5 0.5,0.5 0.5,0 0.5,0.5 v 0.5 0.5 q 0,0.5 0,1 0,0.5 0,1 V 24 h -0.5 q -0.5,0 -0.5,0.5 0,0.5 0,1 0,0.5 0,1 V 27 H 15.5 15 v -0.5 q 0,-0.5 0,-1 0,-0.5 0,-1 0,-0.5 0,-1 0,-0.5 0,-1 0,-0.5 0,-1 0,-0.5 0,-1 Q 15,20 14.5,20 14,20 14,20.5 V 21 h -0.5 q -0.5,0 -0.5,0.5 0,0.5 0,1 0,0.5 0,1 0,0.5 0,1 0,0.5 0,1 0,0.5 -0.5,0.5 -0.5,0 -0.5,0.5 0,0.5 0,1 0,0.5 0,1 V 29 H 11.5 Q 11,29 11,28.5 11,28 11,27.5 11,27 11.125,26.625 11.25,26.25 10.96875,25.96875 L 10.6875,25.6875 10.625,25.75 l -0.0625,0.0625 0.125,-0.125 q 0.125,-0.125 0.1875,-0.3125 L 10.9375,25.1875 10.84375,25.46875 10.75,25.75 10.875,25.375 Q 11,25 11,24.5 11,24 11.125,23.625 11.25,23.25 11.5,23 11.75,22.75 11.875,22.375 12,22 12,21.5 q 0,-0.5 0,-1 0,-0.5 0.125,-0.875 0.125,-0.375 0.5,-0.5 Q 13,19 13,18.5 q 0,-0.5 0,-1 0,-0.5 0,-1 V 16 h 0.5 Q 14,16 14,15.5"
       id="path8421"
       inkscape:connector-curvature="0" />
    <path
       style="fill:#303030;fill-opacity:1"
       d="M 15,15.5 V 15 h 0.5 q 0.5,0 0.5,0.5 0,0.5 0,1 0,0.5 0,1 V 18 H 15.5 Q 15,18 15,17.5 q 0,-0.5 0,-1 0,-0.5 0,-1"
       id="path8423"
       inkscape:connector-curvature="0" />
    <path
       style="fill:#000000;fill-opacity:1"
       d="M 11,16.5 V 16 h 0.5 0.5 v 0.5 q 0,0.5 0,1 0,0.5 -0.125,0.875 -0.125,0.375 0.15625,0.65625 l 0.28125,0.28125 0.0625,-0.0625 0.0625,-0.0625 -0.125,0.125 q -0.125,0.125 -0.1875,0.3125 L 12.0625,19.8125 12.15625,19.53125 12.25,19.25 12.125,19.625 Q 12,20 12,20.5 q 0,0.5 0,1 0,0.5 -0.125,0.875 Q 11.75,22.75 11.5,23 11.25,23.25 11.125,23.625 11,24 11,24.5 q 0,0.5 -0.125,0.875 -0.125,0.375 -0.5,0.5 L 10,26 v -0.5 q 0,-0.5 0,-1 0,-0.5 0,-1 0,-0.5 0.375,-0.625 0.375,-0.125 0.5,-0.5 Q 11,22 11,21.5 q 0,-0.5 0,-1 0,-0.5 0,-1 0,-0.5 0,-1 Q 11,18 10.5,18 H 10 V 17.5 Q 10,17 10.5,17 11,17 11,16.5"
       id="path8425"
       inkscape:connector-curvature="0" />
    <path
       style="fill:#303030;fill-opacity:1"
       d="M 12,16.5 V 16 h 0.5 0.5 v 0.5 q 0,0.5 0,1 0,0.5 0,1 0,0.5 -0.375,0.625 L 12.25,19.25 12.53125,19.15625 12.8125,19.0625 12.625,19.125 q -0.1875,0.0625 -0.3125,0.1875 l -0.125,0.125 0.0625,-0.0625 0.0625,-0.0625 -0.28125,-0.28125 Q 11.75,18.75 11.875,18.375 12,18 12,17.5 q 0,-0.5 0,-1"
       id="path8427"
       inkscape:connector-curvature="0" />
    <path
       style="fill:#000000;fill-opacity:1"
       d="M 21,16.5 V 16 h 0.5 Q 22,16 22,16.5 22,17 22.5,17 H 23 v 0.5 q 0,0.5 0,1 0,0.5 0,1 0,0.5 0,1 0,0.5 0,1 V 22 h -0.5 q -0.5,0 -0.5,0.5 0,0.5 0,1 0,0.5 0,1 0,0.5 0.5,0.5 0.5,0 1,0 0.5,0 1,0 0.5,0 1,0 0.5,0 0.5,-0.5 0,-0.5 0.5,-0.5 0.5,0 1,0 0.5,0 0.5,-0.5 0,-0.5 0.5,-0.5 0.5,0 1,0 0.5,0 1,0 0.5,0 0.5,0.5 0,0.5 0.5,0.5 H 32 v 0.5 0.5 0.5 0.5 0.5 0.5 h -0.5 q -0.5,0 -0.5,0.5 0,0.5 0,1 0,0.5 0,1 0,0.5 0,1 0,0.5 -0.5,0.5 -0.5,0 -1,0 Q 29,31 29,30.5 29,30 28.5,30 28,30 27.5,30 27,30 27,30.5 27,31 26.5,31 q -0.5,0 -1,0 -0.5,0 -1,0 -0.5,0 -1,0 -0.5,0 -1,0 Q 22,31 22,31.5 V 32 H 21.5 21 20.5 20 19.5 19 18.5 18 17.5 17 16.5 16 15.5 15 14.5 14 13.5 13 12.5 12 11.5 11 10.5 10 V 31.5 31 h 0.5 q 0.5,0 1,0 0.5,0 1,0 0.5,0 1,0 0.5,0 1,0 0.5,0 1,0 0.5,0 1,0 0.5,0 1,0 0.5,0 1,0 0.5,0 1,0 0.5,0 0.5,-0.5 0,-0.5 0.5,-0.5 0.5,0 0.5,-0.5 0,-0.5 0,-1 0,-0.5 0,-1 0,-0.5 0,-1 0,-0.5 0,-1 0,-0.5 0,-1 0,-0.5 0,-1 0,-0.5 0,-1 0,-0.5 0,-1 0,-0.5 0,-1 0,-0.5 0,-1 0,-0.5 0,-1 0,-0.5 0,-1 0,-0.5 0,-1"
       id="path8429"
       inkscape:connector-curvature="0" />
    <path
       style="fill:#000000;fill-opacity:1"
       d="M 26,17.5 Q 26,17 26.5,17 H 27 v 0.5 q 0,0.5 0,1 0,0.5 -0.5,0.5 H 26 v -0.5 q 0,-0.5 0,-1"
       id="path8431"
       inkscape:connector-curvature="0" />
    <path
       style="fill:#000000;fill-opacity:1"
       d="M 9,18.5 Q 9,18 9.5,18 H 10 v 0.5 q 0,0.5 0,1 Q 10,20 9.5,20 H 9 v -0.5 q 0,-0.5 0,-1"
       id="path8433"
       inkscape:connector-curvature="0" />
    <path
       style="fill:#303030;fill-opacity:1"
       d="M 17,18.5 V 18 h 0.5 q 0.5,0 0.5,0.5 0,0.5 0,1 0,0.5 0,1 V 21 H 17.5 17 V 20.5 Q 17,20 16.5,20 16,20 16,19.5 V 19 h 0.5 Q 17,19 17,18.5"
       id="path8435"
       inkscape:connector-curvature="0" />
    <path
       style="fill:#202020;fill-opacity:1"
       d="M 6,19.5 V 19 H 6.5 7 V 19.5 20 H 6.5 6 v -0.5"
       id="path8437"
       inkscape:connector-curvature="0" />
    <path
       style="fill:#000000;fill-opacity:1"
       d="M 25,19.5 Q 25,19 25.5,19 H 26 v 0.5 q 0,0.5 0,1 0,0.5 -0.5,0.5 H 25 v -0.5 q 0,-0.5 0,-1"
       id="path8439"
       inkscape:connector-curvature="0" />
    <path
       style="fill:#303030;fill-opacity:1"
       d="M 6,20.5 V 20 H 6.5 7 v 0.5 q 0,0.5 0,1 V 22 H 6.5 6 v -0.5 q 0,-0.5 0,-1"
       id="path8441"
       inkscape:connector-curvature="0" />
    <path
       style="fill:#202020;fill-opacity:1"
       d="M 7,20.5 V 20 H 7.5 8 v 0.5 q 0,0.5 0,1 V 22 H 7.5 7 v -0.5 q 0,-0.5 0,-1"
       id="path8443"
       inkscape:connector-curvature="0" />
    <path
       style="fill:#000000;fill-opacity:1"
       d="M 8,20.5 V 20 H 8.5 9 v 0.5 Q 9,21 9,21.5 9,22 8.5,22 H 8 v -0.5 q 0,-0.5 0,-1"
       id="path8445"
       inkscape:connector-curvature="0" />
    <path
       style="fill:#303030;fill-opacity:1"
       d="M 13,21.5 Q 13,21 13.5,21 H 14 v 0.5 q 0,0.5 0,1 0,0.5 0,1 0,0.5 0,1 0,0.5 0,1 0,0.5 0,1 0,0.5 -0.5,0.5 -0.5,0 -0.5,0.5 0,0.5 0,1 0,0.5 -0.5,0.5 H 12 v -0.5 q 0,-0.5 0,-1 0,-0.5 0,-1 0,-0.5 0.5,-0.5 0.5,0 0.5,-0.5 0,-0.5 0,-1 0,-0.5 0,-1 0,-0.5 0,-1 0,-0.5 0,-1"
       id="path8447"
       inkscape:connector-curvature="0" />
    <path
       style="fill:#202020;fill-opacity:1"
       d="M 6,22.5 V 22 H 6.5 7 V 22.5 23 H 6.5 6 v -0.5"
       id="path8449"
       inkscape:connector-curvature="0" />
    <path
       style="fill:#000000;fill-opacity:1"
       d="M 7,22.5 V 22 H 7.5 8 v 0.5 Q 8,23 7.5,23 H 7 v -0.5"
       id="path8451"
       inkscape:connector-curvature="0" />
    <path
       style="fill:#000000;fill-opacity:1"
       d="M 23,22.5 V 22 h 0.5 q 0.5,0 1,0 H 25 v 0.5 Q 25,23 24.5,23 24,23 23.5,23 23,23 23,22.5"
       id="path8453"
       inkscape:connector-curvature="0" />
    <path
       style="fill:#400000;fill-opacity:1"
       d="M 5,23.5 V 23 H 5.5 6 v 0.5 q 0,0.5 0,1 V 25 H 5.5 5 v -0.5 q 0,-0.5 0,-1 m 0,1.125 V 25 25.125 25.25 25 q 0,-0.25 0,-0.5 v -0.25 0.375 m 1,0.5 V 25 24.625 24.25 24.5 q 0,0.25 0,0.5 v 0.25 -0.125 m 0,-1.75 V 23 22.875 22.75 23 q 0,0.25 0,0.5 v 0.25 -0.375 m -1,-0.5 V 23 23.375 23.75 23.5 Q 5,23.25 5,23 v -0.25 0.125"
       id="path8455"
       inkscape:connector-curvature="0" />
    <path
       style="fill:#303030;fill-opacity:1"
       d="M 16,24.5 Q 16,24 16.5,24 H 17 v 0.5 q 0,0.5 0,1 0,0.5 0,1 0,0.5 -0.5,0.5 H 16 v -0.5 q 0,-0.5 0,-1 0,-0.5 0,-1"
       id="path8457"
       inkscape:connector-curvature="0" />
    <path
       style="fill:#300000;fill-opacity:1"
       d="M 5,25.5 V 25 H 5.5 6 v 0.5 Q 6,26 6,26.5 6,27 5.875,27.375 5.75,27.75 5.5,27.75 5.25,27.75 5.125,27.375 5,27 5,26.5 5,26 5,25.5 M 6,25.375 V 25 24.875 24.75 25 q 0,0.25 0,0.5 v 0.25 -0.375 m -1,-0.5 V 25 25.375 25.75 25.5 Q 5,25.25 5,25 v -0.25 0.125"
       id="path8459"
       inkscape:connector-curvature="0" />
    <path
       style="fill:#000000;fill-opacity:1"
       d="M 9,26.5 Q 9,26 9.5,26 H 10 v 0.5 q 0,0.5 0,1 V 28 H 9.5 9 v -0.5 q 0,-0.5 0,-1"
       id="path8461"
       inkscape:connector-curvature="0" />
    <path
       style="fill:#303030;fill-opacity:1"
       d="M 10,26.5 V 26 L 10.375,25.875 10.75,25.75 10.46875,25.84375 10.1875,25.9375 10.375,25.875 q 0.1875,-0.0625 0.3125,-0.1875 l 0.125,-0.125 -0.0625,0.0625 -0.0625,0.0625 0.28125,0.28125 Q 11.25,26.25 11.125,26.625 11,27 11,27.5 q 0,0.5 0,1 0,0.5 0.5,0.5 H 12 v 0.5 q 0,0.5 -0.5,0.5 -0.5,0 -1,0 H 10 v -0.5 q 0,-0.5 0,-1 V 28 27.5 q 0,-0.5 0,-1"
       id="path8463"
       inkscape:connector-curvature="0" />
    <path
       style="fill:#303030;fill-opacity:1"
       d="M 15,27.5 V 27 h 0.5 0.5 v 0.5 q 0,0.5 0,1 0,0.5 -0.5,0.5 -0.5,0 -0.5,-0.5 0,-0.5 0,-1"
       id="path8465"
       inkscape:connector-curvature="0" />
    <path
       style="fill:#000000;fill-opacity:0"
       d="M 31,27.5 Q 31,27 31.5,27 H 32 V 27.5 28 28.5 29 29.5 30 30.5 31 31.5 32 H 31.5 31 30.5 30 29.5 29 28.5 28 27.5 27 26.5 26 25.5 25 24.5 24 23.5 23 22.5 22 v -0.5 q 0,-0.5 0.5,-0.5 0.5,0 1,0 0.5,0 1,0 0.5,0 1,0 0.5,0 1,0 0.5,0 0.5,-0.5 0,-0.5 0.5,-0.5 0.5,0 1,0 0.5,0 0.5,0.5 0,0.5 0.5,0.5 0.5,0 1,0 0.5,0 0.5,-0.5 0,-0.5 0,-1 0,-0.5 0,-1 0,-0.5 0,-1"
       id="path8467"
       inkscape:connector-curvature="0" />
    <path
       style="fill:#000000;fill-opacity:1"
       d="M 8,28.5 Q 8,28 8.5,28 H 9 v 0.5 q 0,0.5 0,1 V 30 H 8.5 Q 8,30 8,29.5 8,29 8,28.5"
       id="path8469"
       inkscape:connector-curvature="0" />
    <path
       style="fill:#202020;fill-opacity:1"
       d="M 9,28.5 V 28 H 9.5 10 v 0.5 q 0,0.5 0,1 V 30 H 9.5 9 v -0.5 q 0,-0.5 0,-1"
       id="path8471"
       inkscape:connector-curvature="0" />
    <path
       style="fill:#000000;fill-opacity:1"
       d="M 9,30.5 V 30 H 9.5 10 V 30.5 31 H 9.5 Q 9,31 9,30.5"
       id="path8473"
       inkscape:connector-curvature="0" />
  </g>
</svg>
