<?xml version="1.0" encoding="UTF-8" standalone="no"?>
<!-- Created with Inkscape (http://www.inkscape.org/) -->

<svg
   xmlns:dc="http://purl.org/dc/elements/1.1/"
   xmlns:cc="http://creativecommons.org/ns#"
   xmlns:rdf="http://www.w3.org/1999/02/22-rdf-syntax-ns#"
   xmlns:svg="http://www.w3.org/2000/svg"
   xmlns="http://www.w3.org/2000/svg"
   xmlns:sodipodi="http://sodipodi.sourceforge.net/DTD/sodipodi-0.dtd"
   xmlns:inkscape="http://www.inkscape.org/namespaces/inkscape"
   version="1.1"
   id="svg8550"
   width="32"
   height="32"
   viewBox="0 0 32 32"
   sodipodi:docname="wyvern.svg"
   inkscape:version="0.92.5 (2060ec1f9f, 2020-04-08)">
  <metadata
     id="metadata8556">
    <rdf:RDF>
      <cc:Work
         rdf:about="">
        <dc:format>image/svg+xml</dc:format>
        <dc:type
           rdf:resource="http://purl.org/dc/dcmitype/StillImage" />
        <dc:title></dc:title>
      </cc:Work>
    </rdf:RDF>
  </metadata>
  <defs
     id="defs8554" />
  <sodipodi:namedview
     pagecolor="#ffffff"
     bordercolor="#666666"
     borderopacity="1"
     objecttolerance="10"
     gridtolerance="10"
     guidetolerance="10"
     inkscape:pageopacity="0"
     inkscape:pageshadow="2"
     inkscape:window-width="1920"
     inkscape:window-height="1118"
     id="namedview8552"
     showgrid="false"
     inkscape:zoom="7.375"
     inkscape:cx="16"
     inkscape:cy="16"
     inkscape:window-x="0"
     inkscape:window-y="24"
     inkscape:window-maximized="1"
     inkscape:current-layer="svg8550" />
  <g
     transform="translate(0 0)"
     id="g8748">
    <path
       style="fill:#000000;fill-opacity:0"
       d="M 0,0.5 V 0 H 0.5 1 1.5 2 2.5 3 3.5 4 4.5 5 5.5 6 6.5 7 7.5 8 8.5 9 9.5 10 10.5 11 11.5 12 12.5 13 L 12.875,0.375 Q 12.75,0.75 12.375,0.875 12,1 12,1.5 12,2 11.875,2.375 11.75,2.75 11.375,2.875 11,3 10.5,3 10,3 9.5,3 9,3 8.875,3.375 8.75,3.75 8.375,3.875 8,4 7.875,4.375 7.75,4.75 7.375,4.875 7,5 7,5.5 7,6 7,6.5 7,7 6.875,7.375 6.75,7.75 6.375,7.875 6,8 6,8.5 6,9 6,9.5 6,10 5.875,10.375 5.75,10.75 5.375,10.875 5,11 5,11.5 q 0,0.5 0,1 0,0.5 0,1 0,0.5 0.375,0.625 0.375,0.125 0.375,0.375 0,0.25 -0.375,0.375 Q 5,15 4.5,15 4,15 3.625,14.875 3.25,14.75 3.125,14.375 3,14 2.625,13.875 2.25,13.75 2.125,13.375 2,13 1.5,13 1,13 0.875,13.375 0.75,13.75 0.375,13.875 L 0,14 V 13.5 13 12.5 12 11.5 11 10.5 10 9.5 9 8.5 8 7.5 7 6.5 6 5.5 5 4.5 4 3.5 3 2.5 2 1.5 1 0.5"
       id="path8560" />
    <path
       style="fill:#000000;fill-opacity:1"
       d="M 12.875,0.375 13,0 h 0.5 0.5 0.5 0.5 v 0.5 q 0,0.5 0,1 0,0.5 0.5,0.5 0.5,0 1,0 0.5,0 0.875,-0.125 0.375,-0.125 0.5,-0.5 Q 18,1 18.375,0.875 18.75,0.75 18.875,0.375 L 19,0 h 0.5 0.5 0.5 0.5 v 0.5 q 0,0.5 0,1 0,0.5 0.375,0.375 0.375,-0.125 0.5,-0.5 Q 22,1 22.5,1 23,1 23.375,0.875 23.75,0.75 23.875,0.375 L 24,0 h 0.5 0.5 0.5 0.5 0.5 0.5 v 0.5 q 0,0.5 0,1 0,0.5 -0.375,0.625 -0.375,0.125 -0.5,0.5 Q 26,3 26.5,3 27,3 27.5,3 28,3 28,3.5 28,4 28,4.5 28,5 28.5,5 29,5 29,5.5 29,6 29,6.5 29,7 28.625,7.125 28.25,7.25 28.125,7.625 28,8 28.5,8 29,8 29.125,8.375 29.25,8.75 29.625,8.875 30,9 30,9.5 q 0,0.5 0,1 0,0.5 -0.5,0.5 -0.5,0 -0.875,0.125 -0.375,0.125 -0.5,0.5 -0.125,0.375 0,0.75 0.125,0.375 0.5,0.5 Q 29,13 29,13.5 q 0,0.5 0,1 0,0.5 -0.5,0.5 -0.5,0 -0.5,0.5 0,0.5 -0.375,0.625 -0.375,0.125 -0.5,0.5 Q 27,17 27,17.5 q 0,0.5 -0.375,0.625 -0.375,0.125 -0.5,0.5 -0.125,0.375 -0.5,0.5 -0.375,0.125 -0.5,0.5 -0.125,0.375 -0.5,0.5 -0.375,0.125 -0.5,0.5 Q 24,21 24,21.5 q 0,0.5 -0.375,0.625 -0.375,0.125 -0.5,0.5 Q 23,23 23,23.5 q 0,0.5 -0.375,0.625 -0.375,0.125 -0.5,0.5 Q 22,25 22,25.5 q 0,0.5 0,1 0,0.5 0.125,0.875 0.125,0.375 0.5,0.5 Q 23,28 23,28.5 q 0,0.5 0,1 0,0.5 -0.375,0.625 -0.375,0.125 -0.65625,-0.15625 L 21.6875,29.6875 21.625,29.75 l -0.0625,0.0625 0.125,-0.125 q 0.125,-0.125 0.1875,-0.3125 L 21.9375,29.1875 21.84375,29.46875 21.75,29.75 21.875,29.375 Q 22,29 21.875,28.625 21.75,28.25 21.5,28 21.25,27.75 21.125,27.375 21,27 21,26.5 q 0,-0.5 0,-1 0,-0.5 0,-1 0,-0.5 0.375,-0.625 0.375,-0.125 0.5,-0.5 Q 22,23 22,22.5 22,22 22.375,21.875 22.75,21.75 22.875,21.375 23,21 23.125,20.625 23.25,20.25 23.5,20 23.75,19.75 24,19.5 24.25,19.25 24.5,19 24.75,18.75 24.875,18.375 25,18 25.375,17.875 25.75,17.75 25.875,17.375 26,17 26,16.5 26,16 26.375,15.875 26.75,15.75 26.875,15.375 27,15 27,14.5 27,14 27.375,13.875 27.75,13.75 27.75,13.5 27.75,13.25 27.5,13 27.25,12.75 27.125,12.375 27,12 27,11.5 27,11 27.375,10.875 27.75,10.75 27.875,10.375 28,10 28.375,9.875 28.75,9.75 28.75,9.5 28.75,9.25 28.375,9.125 28,9 27.625,8.875 27.25,8.75 27.125,8.375 L 27,8 27.09375,8.28125 27.1875,8.5625 27.125,8.375 Q 27.0625,8.1875 26.9375,8.0625 L 26.8125,7.9375 26.875,8 26.9375,8.0625 27.09375,7.65625 Q 27.25,7.25 27.5,7 27.75,6.75 27.75,6.5 27.75,6.25 27.375,6.125 27,6 26.46875,5.96875 L 25.9375,5.9375 25.875,6 25.8125,6.0625 25.9375,5.9375 Q 26.0625,5.8125 26.125,5.625 L 26.1875,5.4375 26.09375,5.71875 26,6 26.125,5.625 Q 26.25,5.25 26.5,5 26.75,4.75 26.75,4.5 26.75,4.25 26.375,4.125 26,4 25.625,4.125 25.25,4.25 25,4.5 24.75,4.75 24.375,4.875 24,5 23.5,5 H 23 L 23.125,4.625 Q 23.25,4.25 23.5,4 23.75,3.75 23.875,3.375 L 24,3 24.375,2.875 Q 24.75,2.75 24.875,2.375 25,2 25.375,1.875 25.75,1.75 25.75,1.5 25.75,1.25 25.375,1.125 25,1 24.625,1.125 24.25,1.25 24.125,1.625 24,2 23.5,2 23,2 22.625,2.125 22.25,2.25 22.125,2.625 22,3 21.5,3 21,3 20.5,3 20,3 20,2.5 20,2 19.875,1.625 19.75,1.25 19.5,1.25 19.25,1.25 19,1.5 18.75,1.75 18.5,2 18.25,2.25 18,2.5 17.75,2.75 17.375,2.875 17,3 16.5,3 16,3 15.625,3.125 15.25,3.25 15,3.5 14.75,3.75 14.375,3.875 L 14,4 V 3.5 Q 14,3 14,2.5 14,2 13.875,1.625 13.75,1.25 13.5,1.25 13.25,1.25 13.125,1.625 13,2 12.875,2.375 12.75,2.75 12.5,3 12.25,3.25 12.125,3.625 L 12,4 11.625,4.125 Q 11.25,4.25 11.125,4.625 11,5 11,5.5 11,6 10.5,6 H 10 V 5.5 Q 10,5 9.875,4.625 9.75,4.25 9.5,4.25 9.25,4.25 9,4.5 8.75,4.75 8.5,5 8.25,5.25 8.125,5.625 8,6 8,6.5 8,7 7.875,7.375 7.75,7.75 7.5,8 7.25,8.25 7.125,8.625 7,9 7,9.5 7,10 6.875,10.375 6.75,10.75 6.5,11 6.25,11.25 6.125,11.625 6,12 6,12.5 q 0,0.5 0.125,0.875 0.125,0.375 0.5,0.5 L 7,14 v 0.5 Q 7,15 6.625,15.125 6.25,15.25 6,15.5 5.75,15.75 5.375,15.875 5,16 4.5,16 4,16 3.625,15.875 3.25,15.75 3,15.5 2.75,15.25 2.5,15 2.25,14.75 2,14.5 1.75,14.25 1.5,14.25 q -0.25,0 -0.25,0.25 0,0.25 0.25,0.5 0.25,0.25 0.375,0.625 Q 2,16 1.875,16.375 1.75,16.75 1.5,17 q -0.25,0.25 -0.25,0.5 0,0.25 0.25,0.25 0.25,0 0.5,-0.25 Q 2.25,17.25 2.625,17.125 3,17 3.5,17 4,17 4.5,17 5,17 5.375,16.875 5.75,16.75 6,16.5 6.25,16.25 6.625,16.125 7,16 7.375,15.875 7.75,15.75 7.875,15.375 8,15 8.5,15 9,15 9.375,14.875 9.75,14.75 9.875,14.375 L 10,14 h 0.5 Q 11,14 11.375,13.875 11.75,13.75 12,13.5 12.25,13.25 12.625,13.125 13,13 13.375,12.875 q 0.375,-0.125 0.5,-0.5 L 14,12 h 0.5 Q 15,12 15.375,11.875 15.75,11.75 16,11.5 q 0.25,-0.25 0.5,-0.5 0.25,-0.25 0.25,-0.5 0,-0.25 -0.375,-0.375 L 16,10 16.125,9.625 Q 16.25,9.25 16.625,9.125 17,9 17.5,9 18,9 18.375,9.125 18.75,9.25 19,9.5 19.25,9.75 19.625,9.875 L 20,10 19.71875,9.90625 19.4375,9.8125 19.625,9.875 q 0.1875,0.0625 0.40625,0.09375 L 20.25,10 20.140625,9.984375 20.03125,9.96875 20.140625,10.359375 Q 20.25,10.75 20.625,10.875 L 21,11 20.71875,10.90625 20.4375,10.8125 20.625,10.875 q 0.1875,0.0625 0.40625,0.09375 L 21.25,11 21.140625,10.984375 21.03125,10.96875 21.015625,11.484375 Q 21,12 21,12.5 q 0,0.5 0,1 0,0.5 0.01563,1.015625 l 0.01563,0.515625 0.109375,-0.01563 L 21.25,15 21.03125,15.03125 Q 20.8125,15.0625 20.625,15.125 L 20.4375,15.1875 20.71875,15.09375 21,15 20.625,15.125 Q 20.25,15.25 20,15.5 19.75,15.75 19.5,16 19.25,16.25 19.125,16.625 L 19,17 19.09375,16.71875 19.1875,16.4375 19.125,16.625 q -0.0625,0.1875 -0.09375,0.40625 L 19,17.25 l 0.01563,-0.109375 0.01563,-0.109375 -0.390625,0.109375 Q 18.25,17.25 18.125,17.625 L 18,18 17.625,18.125 Q 17.25,18.25 17.140625,18.640625 L 17.03125,19.03125 17.140625,19.015625 17.25,19 17.03125,19.03125 Q 16.8125,19.0625 16.625,19.125 L 16.4375,19.1875 16.71875,19.09375 17,19 16.625,19.125 q -0.375,0.125 -0.5,0.5 Q 16,20 16,20.53125 V 21.0625 H 16.09375 16.1875 16 q -0.1875,0 -0.375,0.0625 L 15.4375,21.1875 15.71875,21.09375 16,21 15.625,21.125 q -0.375,0.125 -0.5,0.5 Q 15,22 15.015625,22.515625 l 0.01563,0.515625 0.109375,-0.01563 L 15.25,23 15.03125,23.03125 Q 14.8125,23.0625 14.625,23.125 L 14.4375,23.1875 14.71875,23.09375 15,23 14.625,23.125 q -0.375,0.125 -0.5,0.5 Q 14,24 14,24.5 q 0,0.5 0,1 0,0.5 0,1 0,0.5 0,1 0,0.5 0,1 V 29 H 13.5 Q 13,29 13,28.5 q 0,-0.5 0,-1 0,-0.5 0,-1 0,-0.5 0,-1 0,-0.5 0,-1 0,-0.5 0,-1 0,-0.5 0.375,-0.625 0.375,-0.125 0.5,-0.5 Q 14,22 14,21.5 14,21 14.375,20.875 14.75,20.75 14.875,20.375 15,20 15,19.5 q 0,-0.5 0.375,-0.625 0.375,-0.125 0.5,-0.5 0.125,-0.375 0.5,-0.5 0.375,-0.125 0.5,-0.5 0.125,-0.375 0.5,-0.5 0.375,-0.125 0.5,-0.5 0.125,-0.375 0.5,-0.5 0.375,-0.125 0.5,-0.5 0.125,-0.375 0.5,-0.5 0.375,-0.125 0.5,-0.5 Q 20,14 20,13.5 20,13 20,12.5 20,12 19.875,11.625 19.75,11.25 19.375,11.125 19,11 18.875,10.625 18.75,10.25 18.375,10.125 18,10 18,10.5 q 0,0.5 -0.375,0.625 -0.375,0.125 -0.5,0.5 -0.125,0.375 -0.5,0.5 -0.375,0.125 -0.5,0.5 Q 16,13 15.5,13 15,13 14.625,13.125 14.25,13.25 14.125,13.625 14,14 13.5,14 13,14 12.625,14.125 12.25,14.25 12.125,14.625 12,15 11.5,15 11,15 10.625,15.125 10.25,15.25 10.125,15.625 10,16 9.5,16 9,16 8.625,16.125 8.25,16.25 8.125,16.625 8,17 7.5,17 7,17 6.625,17.125 6.25,17.25 6.125,17.625 6,18 5.5,18 5,18 4.5,18 4,18 3.5,18 3,18 2.625,18.125 2.25,18.25 2.125,18.625 2,19 1.5,19 1,19 0.875,18.625 0.75,18.25 0.375,18.125 L 0,18 V 17.5 17 L 0.375,16.875 Q 0.75,16.75 0.875,16.375 1,16 0.875,15.625 0.75,15.25 0.375,15.125 L 0,15 V 14.5 14 L 0.375,13.875 Q 0.75,13.75 0.875,13.375 1,13 1.5,13 q 0.5,0 0.625,0.375 0.125,0.375 0.5,0.5 0.375,0.125 0.5,0.5 0.125,0.375 0.5,0.5 Q 4,15 4.5,15 5,15 5.375,14.875 5.75,14.75 5.75,14.5 5.75,14.25 5.375,14.125 5,14 5,13.5 5,13 5,12.5 5,12 5,11.5 5,11 5.375,10.875 5.75,10.75 5.875,10.375 6,10 6,9.5 6,9 6,8.5 6,8 6.375,7.875 6.75,7.75 6.875,7.375 7,7 7,6.5 7,6 7,5.5 7,5 7.375,4.875 7.75,4.75 7.875,4.375 8,4 8.375,3.875 8.75,3.75 8.875,3.375 9,3 9.5,3 10,3 10.5,3 11,3 11.375,2.875 11.75,2.75 11.875,2.375 12,2 12,1.5 12,1 12.375,0.875 12.75,0.75 12.875,0.375 M 15.90625,9.96875 16,10 16.28125,10.09375 16.5625,10.1875 16.375,10.125 Q 16.1875,10.0625 16,10 l -0.1875,-0.0625 0.09375,0.03125 m -2,-5.9375 L 14,4 14.28125,3.90625 14.5625,3.8125 14.375,3.875 Q 14.1875,3.9375 14,4 l -0.1875,0.0625 0.09375,-0.03125"
       id="path8562" />
    <path
       style="fill:#000000;fill-opacity:0"
       d="M 15,0.5 V 0 H 15.5 16 16.5 17 17.5 18 18.5 19 L 18.875,0.375 Q 18.75,0.75 18.375,0.875 18,1 17.875,1.375 17.75,1.75 17.375,1.875 17,2 16.5,2 16,2 15.5,2 15,2 15,1.5 15,1 15,0.5"
       id="path8564" />
    <path
       style="fill:#000000;fill-opacity:0"
       d="M 21,0.5 V 0 H 21.5 22 22.5 23 23.5 24 L 23.875,0.375 Q 23.75,0.75 23.375,0.875 23,1 22.5,1 22,1 21.875,1.375 21.75,1.75 21.375,1.875 21,2 21,1.5 21,1 21,0.5"
       id="path8566" />
    <path
       style="fill:#000000;fill-opacity:0"
       d="M 27,0.5 V 0 H 27.5 28 28.5 29 29.5 30 30.5 31 31.5 32 V 0.5 1 1.5 2 2.5 3 3.5 4 4.5 5 5.5 6 6.5 7 7.5 8 8.5 9 9.5 10 10.5 11 11.5 12 12.5 13 13.5 14 14.5 15 15.5 16 16.5 17 17.5 18 18.5 19 19.5 20 20.5 21 21.5 22 22.5 23 23.5 24 24.5 25 25.5 26 26.5 27 27.5 28 28.5 29 29.5 30 30.5 31 31.5 32 H 31.5 31 30.5 30 29.5 29 28.5 28 27.5 27 26.5 26 25.5 25 24.5 24 23.5 23 22.5 22 21.5 21 20.5 20 19.5 19 18.5 18 17.5 17 16.5 16 15.5 15 14.5 14 13.5 13 12.5 12 11.5 11 10.5 10 9.5 9 8.5 8 7.5 7 6.5 6 5.5 5 4.5 4 3.5 3 2.5 2 1.5 1 0.5 0 V 31.5 31 30.5 30 29.5 29 28.5 28 27.5 27 26.5 26 25.5 25 24.5 24 23.5 23 22.5 22 21.5 21 20.5 20 19.5 19 18.5 18 l 0.375,0.125 q 0.375,0.125 0.5,0.5 Q 1,19 1.5,19 2,19 2.125,18.625 2.25,18.25 2.625,18.125 3,18 3.5,18 q 0.5,0 1,0 0.5,0 1,0 0.5,0 0.625,-0.375 0.125,-0.375 0.5,-0.5 Q 7,17 7.5,17 8,17 8.125,16.625 8.25,16.25 8.625,16.125 9,16 9.5,16 q 0.5,0 0.625,-0.375 0.125,-0.375 0.5,-0.5 Q 11,15 11.5,15 q 0.5,0 0.625,-0.375 0.125,-0.375 0.5,-0.5 Q 13,14 13.5,14 q 0.5,0 0.625,-0.375 0.125,-0.375 0.5,-0.5 Q 15,13 15.5,13 q 0.5,0 0.625,-0.375 0.125,-0.375 0.5,-0.5 0.375,-0.125 0.5,-0.5 0.125,-0.375 0.5,-0.5 Q 18,11 18,10.5 q 0,-0.5 0.375,-0.375 0.375,0.125 0.5,0.5 0.125,0.375 0.5,0.5 0.375,0.125 0.5,0.5 Q 20,12 20,12.5 q 0,0.5 0,1 0,0.5 -0.125,0.875 -0.125,0.375 -0.5,0.5 -0.375,0.125 -0.5,0.5 -0.125,0.375 -0.5,0.5 -0.375,0.125 -0.5,0.5 -0.125,0.375 -0.5,0.5 -0.375,0.125 -0.5,0.5 -0.125,0.375 -0.5,0.5 -0.375,0.125 -0.5,0.5 -0.125,0.375 -0.5,0.5 Q 15,19 15,19.5 q 0,0.5 -0.125,0.875 -0.125,0.375 -0.5,0.5 Q 14,21 14,21.5 q 0,0.5 -0.125,0.875 -0.125,0.375 -0.5,0.5 Q 13,23 13,23.5 q 0,0.5 0,1 0,0.5 0,1 0,0.5 0,1 0,0.5 0,1 0,0.5 0,1 0,0.5 0.5,0.5 H 14 l 0.125,0.375 q 0.125,0.375 0.5,0.5 Q 15,30 15.5,30 q 0.5,0 1,0 H 17 l 0.125,0.375 q 0.125,0.375 0.5,0.5 Q 18,31 18.5,31 q 0.5,0 0.875,-0.125 0.375,-0.125 0.5,-0.5 Q 20,30 20.5,30 21,30 21.375,29.875 L 21.75,29.75 21.46875,29.84375 21.1875,29.9375 21.375,29.875 q 0.1875,-0.0625 0.3125,-0.1875 l 0.125,-0.125 -0.0625,0.0625 -0.0625,0.0625 0.28125,0.28125 Q 22.25,30.25 22.625,30.125 23,30 23,29.5 23,29 23,28.5 23,28 22.625,27.875 22.25,27.75 22.125,27.375 22,27 22,26.5 q 0,-0.5 0,-1 0,-0.5 0.125,-0.875 0.125,-0.375 0.5,-0.5 Q 23,24 23,23.5 23,23 23.125,22.625 23.25,22.25 23.625,22.125 24,22 24,21.5 q 0,-0.5 0.125,-0.875 0.125,-0.375 0.5,-0.5 0.375,-0.125 0.5,-0.5 0.125,-0.375 0.5,-0.5 0.375,-0.125 0.5,-0.5 0.125,-0.375 0.5,-0.5 Q 27,18 27,17.5 27,17 27.125,16.625 27.25,16.25 27.625,16.125 28,16 28,15.5 28,15 28.5,15 29,15 29,14.5 q 0,-0.5 0,-1 0,-0.5 -0.375,-0.625 -0.375,-0.125 -0.5,-0.5 -0.125,-0.375 0,-0.75 0.125,-0.375 0.5,-0.5 Q 29,11 29.5,11 30,11 30,10.5 30,10 30,9.5 30,9 29.625,8.875 29.25,8.75 29.125,8.375 29,8 28.5,8 28,8 28.125,7.625 28.25,7.25 28.625,7.125 29,7 29,6.5 29,6 29,5.5 29,5 28.5,5 28,5 28,4.5 28,4 28,3.5 28,3 27.5,3 27,3 26.5,3 26,3 26.125,2.625 26.25,2.25 26.625,2.125 27,2 27,1.5 27,1 27,0.5 M 17.125,30 H 17 16.625 16.25 16.5 q 0.25,0 0.5,0 h 0.25 -0.125"
       id="path8568" />
    <path
       style="fill:#f4a01c;fill-opacity:1"
       d="M 13.125,1.625 Q 13.25,1.25 13.5,1.25 q 0.25,0 0.375,0.375 Q 14,2 14,2.5 V 3 L 13.625,3.125 Q 13.25,3.25 13,3.5 12.75,3.75 12.375,3.875 L 12,4 12.125,3.625 Q 12.25,3.25 12.5,3 12.75,2.75 12.875,2.375 13,2 13.125,1.625 M 14,3.125 V 3 2.625 2.25 2.5 Q 14,2.75 14,3 V 3.25 3.125"
       id="path8570" />
    <path
       style="fill:#d86c1c;fill-opacity:1"
       d="m 19,1.5 q 0.25,-0.25 0.5,-0.25 0.25,0 0.375,0.375 Q 20,2 20,2.5 V 3 2.625 2.25 2.5 q 0,0.25 0.125,0.375 L 20.25,3 20.1875,2.9375 20.125,2.875 19.6875,3.0625 Q 19.25,3.25 19.25,3.5 q 0,0.25 0.375,0.375 L 20,4 19.71875,3.90625 19.4375,3.8125 19.625,3.875 Q 19.8125,3.9375 20,3.9375 H 20.1875 20.09375 20 V 4.46875 Q 20,5 20.125,5.375 20.25,5.75 20.5,6 20.75,6.25 20.875,6.625 21,7 21.125,7.375 21.25,7.75 21.5,7.75 q 0.25,0 0.359375,-0.359375 L 21.96875,7.03125 21.859375,7.015625 21.75,7 21.96875,7.03125 Q 22.1875,7.0625 22.375,7.125 L 22.5625,7.1875 22.28125,7.09375 22,7 22.375,7.125 Q 22.75,7.25 23,7.5 23.25,7.75 23.5,8 23.75,8.25 23.875,8.625 24,9 23.875,9.375 23.75,9.75 23.5,10 23.25,10.25 23.125,10.625 L 23,11 H 22.5 22 l 0.125,-0.375 Q 22.25,10.25 22.5,10 22.75,9.75 22.75,9.5 22.75,9.25 22.375,9.125 22,9 21.5,9 H 21 21.375 21.75 21.5 Q 21.25,9 21.03125,8.96875 L 20.8125,8.9375 20.921875,8.953125 21.03125,8.96875 20.890625,8.609375 Q 20.75,8.25 20.5,8 20.25,7.75 20,7.5 19.75,7.25 19.375,7.125 19,7 18.625,6.875 18.25,6.75 18.25,6.5 18.25,6.25 18.5,6 18.75,5.75 18.75,5.5 18.75,5.25 18.375,5.125 L 18,5 18.28125,5.09375 18.5625,5.1875 18.375,5.125 Q 18.1875,5.0625 18,5.0625 H 17.8125 17.90625 18 L 17.875,4.65625 Q 17.75,4.25 17.375,4.125 17,4 16.625,4.125 16.25,4.25 16,4.5 15.75,4.75 15.5,5 15.25,5.25 15.125,5.625 15,6 14.875,6.375 14.75,6.75 14.375,6.875 14,7 13.5,7 H 13 13.375 13.75 13.5 Q 13.25,7 13.03125,7.03125 L 12.8125,7.0625 12.921875,7.046875 13.03125,7.03125 13,6.5 12.96875,5.96875 12.859375,5.984375 12.75,6 12.96875,5.96875 Q 13.1875,5.9375 13.375,5.875 L 13.5625,5.8125 13.28125,5.90625 13,6 13.375,5.875 Q 13.75,5.75 14,5.5 14.25,5.25 14.5,5 14.75,4.75 15,4.5 15.25,4.25 15.5,4 15.75,3.75 15.890625,3.390625 L 16.03125,3.03125 15.921875,3.046875 15.8125,3.0625 16.03125,3.03125 Q 16.25,3 16.5,3 H 16.75 16.375 16 16.5 Q 17,3 17.375,2.875 17.75,2.75 18,2.5 18.25,2.25 18.5,2 18.75,1.75 19,1.5 M 21.875,11 H 22 22.375 22.75 22.5 q -0.25,0 -0.5,0 h -0.25 0.125 m 0.75,0 H 23 23.125 23.25 23 q -0.25,0 -0.5,0 h -0.25 0.375"
       id="path8572" />
    <path
       style="fill:#f4a01c;fill-opacity:1"
       d="m 24.125,1.625 q 0.125,-0.375 0.5,-0.5 L 25,1 24.71875,1.09375 24.4375,1.1875 24.625,1.125 Q 24.8125,1.0625 25,1.0625 H 25.1875 25.09375 25 l 0.03125,0.5 0.03125,0.5 L 25.125,2 25.1875,1.9375 25.0625,2.0625 Q 24.9375,2.1875 24.875,2.375 L 24.8125,2.5625 24.90625,2.28125 25,2 24.875,2.375 q -0.125,0.375 -0.5,0.5 L 24,3 23.953125,2.453125 23.90625,1.90625 23.828125,1.953125 23.75,2 23.90625,1.90625 Q 24.0625,1.8125 24.125,1.625 L 24.1875,1.4375 24.09375,1.71875 24,2 24.125,1.625"
       id="path8574" />
    <path
       style="fill:#ffde11;fill-opacity:1"
       d="M 25.03125,1.5625 25,1.0625 H 24.90625 24.8125 25 q 0.1875,0 0.375,0.0625 L 25.5625,1.1875 25.28125,1.09375 25,1 25.375,1.125 Q 25.75,1.25 25.75,1.5 q 0,0.25 -0.375,0.375 L 25,2 25.28125,1.90625 25.5625,1.8125 25.375,1.875 Q 25.1875,1.9375 25.0625,2.0625 L 24.9375,2.1875 25,2.125 l 0.0625,-0.0625 -0.03125,-0.5"
       id="path8576" />
    <path
       style="fill:#f4a01c;fill-opacity:1"
       d="m 22.125,2.625 q 0.125,-0.375 0.5,-0.5 L 23,2 22.71875,2.09375 22.4375,2.1875 22.625,2.125 Q 22.8125,2.0625 23.03125,2.03125 L 23.25,2 23.140625,2.015625 23.03125,2.03125 22.890625,2.390625 Q 22.75,2.75 22.328125,2.828125 L 21.90625,2.90625 21.828125,2.953125 21.75,3 21.90625,2.90625 Q 22.0625,2.8125 22.125,2.625 L 22.1875,2.4375 22.09375,2.71875 22,3 22.125,2.625"
       id="path8578" />
    <path
       style="fill:#ffde11;fill-opacity:1"
       d="M 22.890625,2.390625 23.03125,2.03125 22.921875,2.046875 22.8125,2.0625 23.03125,2.03125 Q 23.25,2 23.5,2 H 23.75 23.375 23 23.5 24 23.625 23.25 23.5 q 0.25,0 0.40625,-0.09375 L 24.0625,1.8125 23.984375,1.859375 23.90625,1.90625 23.953125,2.453125 24,3 23.625,3.125 Q 23.25,3.25 23,3.5 22.75,3.75 22.5,4 22.25,4.25 22,4.5 21.75,4.75 21.375,4.875 21,5 20.515625,4.984375 L 20.03125,4.96875 20.046875,5.078125 20.0625,5.1875 20.03125,4.96875 Q 20,4.75 20,4.5 V 4.25 4.625 5 4.46875 3.9375 H 19.90625 19.8125 20 q 0.1875,0 0.375,-0.0625 L 20.5625,3.8125 20.28125,3.90625 20,4 20.375,3.875 q 0.375,-0.125 0.5,-0.5 L 21,3 H 21.5 22 21.625 21.25 21.5 q 0.25,0 0.40625,-0.09375 L 22.0625,2.8125 21.984375,2.859375 21.90625,2.90625 22.328125,2.828125 Q 22.75,2.75 22.890625,2.390625 M 21.375,3 H 21 20.875 20.75 21 q 0.25,0 0.5,0 h 0.25 -0.375"
       id="path8580" />
    <path
       style="fill:#d86c1c;fill-opacity:1"
       d="M 13,3.5 Q 13.25,3.25 13.625,3.125 L 14,3 V 3.5 4 L 13.625,4.125 Q 13.25,4.25 13,4.5 12.75,4.75 12.5,5 12.25,5.25 12.125,5.625 L 12,6 11.4375,5.9375 10.875,5.875 10.8125,5.9375 10.75,6 10.875,5.875 Q 11,5.75 11,5.5 V 5.25 5.625 6 5.5 5 5.375 5.75 5.5 Q 11,5.25 11.03125,5.03125 L 11.0625,4.8125 11.046875,4.921875 11.03125,5.03125 11.390625,4.890625 Q 11.75,4.75 11.875,4.375 L 12,4 12.375,3.875 Q 12.75,3.75 13,3.5 M 11.625,6 H 12 12.125 12.25 12 q -0.25,0 -0.5,0 h -0.25 0.375 M 13.71875,4.09375 14,4 14.09375,3.96875 14.1875,3.9375 14,4 Q 13.8125,4.0625 13.625,4.125 L 13.4375,4.1875 13.71875,4.09375 M 14,3.375 V 3 2.875 2.75 3 q 0,0.25 0,0.5 V 3.75 3.375"
       id="path8582" />
    <path
       style="fill:#c23d36;fill-opacity:1"
       d="M 15,3.5 Q 15.25,3.25 15.625,3.125 L 16,3 15.71875,3.09375 15.4375,3.1875 15.625,3.125 Q 15.8125,3.0625 16.03125,3.03125 L 16.25,3 16.140625,3.015625 16.03125,3.03125 15.890625,3.390625 Q 15.75,3.75 15.5,4 15.25,4.25 15,4.5 14.75,4.75 14.5,5 14.25,5.25 14,5.5 13.75,5.75 13.375,5.875 13,6 12.5,6 H 12 L 12.125,5.625 Q 12.25,5.25 12.5,5 12.75,4.75 13,4.5 13.25,4.25 13.625,4.125 14,4 14.375,3.875 14.75,3.75 15,3.5 M 11.875,6 H 12 12.375 12.75 12.5 Q 12.25,6 12,6 h -0.25 0.125"
       id="path8584" />
    <path
       style="fill:#f4a01c;fill-opacity:1"
       d="m 19.25,3.5 q 0,-0.25 0.4375,-0.4375 L 20.125,2.875 20.0625,2.8125 20,2.75 20.125,2.875 Q 20.25,3 20.5,3 H 20.75 20.375 20 20.5 21 L 20.875,3.375 Q 20.75,3.75 20.375,3.875 20,4 19.625,3.875 19.25,3.75 19.25,3.5 M 21.125,3 H 21 20.625 20.25 20.5 q 0.25,0 0.5,0 h 0.25 -0.125"
       id="path8586" />
    <path
       style="fill:#d86c1c;fill-opacity:1"
       d="M 23,3.5 Q 23.25,3.25 23.625,3.125 L 24,3 23.875,3.375 Q 23.75,3.75 23.5,4 23.25,4.25 23.125,4.625 L 23,5 22.625,5.125 Q 22.25,5.25 22,5.5 21.75,5.75 21.5,5.75 21.25,5.75 21.109375,5.359375 L 20.96875,4.96875 20.859375,4.984375 20.75,5 20.96875,4.96875 Q 21.1875,4.9375 21.375,4.875 L 21.5625,4.8125 21.28125,4.90625 21,5 21.375,4.875 Q 21.75,4.75 22,4.5 22.25,4.25 22.5,4 22.75,3.75 23,3.5"
       id="path8588" />
    <path
       style="fill:#d86c1c;fill-opacity:1"
       d="M 9,4.5 Q 9.25,4.25 9.5,4.25 9.75,4.25 9.875,4.625 10,5 10,5.5 V 6 H 9.5 Q 9,6 8.515625,6.015625 L 8.03125,6.03125 8.015625,6.140625 8,6.25 8.03125,6.03125 Q 8.0625,5.8125 8.125,5.625 L 8.1875,5.4375 8.09375,5.71875 8,6 8.125,5.625 Q 8.25,5.25 8.5,5 8.75,4.75 9,4.5"
       id="path8590" />
    <path
       style="fill:#c23d36;fill-opacity:1"
       d="m 11.125,4.625 q 0.125,-0.375 0.5,-0.5 L 12,4 11.875,4.375 Q 11.75,4.75 11.390625,4.890625 L 11.03125,5.03125 11.015625,5.140625 11,5.25 11.03125,5.03125 Q 11.0625,4.8125 11.125,4.625 L 11.1875,4.4375 11.09375,4.71875 11,5 11.125,4.625"
       id="path8592" />
    <path
       style="fill:#f4a01c;fill-opacity:1"
       d="M 16,4.5 Q 16.25,4.25 16.625,4.125 L 17,4 16.71875,4.09375 16.4375,4.1875 16.625,4.125 Q 16.8125,4.0625 17,4.0625 H 17.1875 17.09375 17 L 16.875,4.40625 Q 16.75,4.75 16.5,5 16.25,5.25 16,5.5 15.75,5.75 15.375,5.875 L 15,6 15.125,5.625 Q 15.25,5.25 15.5,5 15.75,4.75 16,4.5 M 15.09375,5.71875 15,6 14.96875,6.09375 14.9375,6.1875 15,6 q 0.0625,-0.1875 0.125,-0.375 l 0.0625,-0.1875 -0.09375,0.28125"
       id="path8594" />
    <path
       style="fill:#ffde11;fill-opacity:1"
       d="M 16.875,4.40625 17,4.0625 H 16.90625 16.8125 17 q 0.1875,0 0.375,0.0625 L 17.5625,4.1875 17.28125,4.09375 17,4 17.375,4.125 q 0.375,0.125 0.5,0.53125 L 18,5.0625 H 18.09375 18.1875 18 q -0.1875,0 -0.375,0.0625 L 17.4375,5.1875 17.71875,5.09375 18,5 17.625,5.125 Q 17.25,5.25 17.125,5.625 17,6 16.625,6.125 16.25,6.25 16,6.5 15.75,6.75 15.5,7 q -0.25,0.25 -0.25,0.5 0,0.25 0.25,0.5 0.25,0.25 0.25,0.5 0,0.25 -0.25,0.5 -0.25,0.25 -0.25,0.5 0,0.25 0.375,0.375 0.375,0.125 0.75,0.25 0.375,0.125 0.375,0.375 0,0.25 -0.25,0.5 -0.25,0.25 -0.5,0.5 -0.25,0.25 -0.625,0.375 Q 15,12 14.5,12 H 14 l 0.125,-0.375 Q 14.25,11.25 14.5,11 q 0.25,-0.25 0.25,-0.5 0,-0.25 -0.375,-0.375 L 14,10 14.28125,10.09375 14.5625,10.1875 14.375,10.125 Q 14.1875,10.0625 14,10.0625 H 13.8125 13.90625 14 V 9.53125 Q 14,9 14,8.5 14,8 13.984375,7.484375 L 13.96875,6.96875 13.859375,6.984375 13.75,7 13.96875,6.96875 Q 14.1875,6.9375 14.375,6.875 L 14.5625,6.8125 14.28125,6.90625 14,7 14.375,6.875 q 0.375,-0.125 0.5,-0.5 L 15,6 15.375,5.875 Q 15.75,5.75 16,5.5 16.25,5.25 16.5,5 16.75,4.75 16.875,4.40625 m -1.84375,1.5 L 15,6 14.90625,6.28125 14.8125,6.5625 14.875,6.375 Q 14.9375,6.1875 15,6 l 0.0625,-0.1875 -0.03125,0.09375"
       id="path8596" />
    <path
       style="fill:#d86c1c;fill-opacity:1"
       d="M 25,4.5 Q 25.25,4.25 25.625,4.125 L 26,4 25.71875,4.09375 25.4375,4.1875 25.625,4.125 Q 25.8125,4.0625 26,4.0625 H 26.1875 26.09375 26 L 25.875,4.40625 Q 25.75,4.75 25.5,5 25.25,5.25 25,5.5 24.75,5.75 24.5,5.75 24.25,5.75 24.109375,5.359375 L 23.96875,4.96875 23.859375,4.984375 23.75,5 23.96875,4.96875 Q 24.1875,4.9375 24.375,4.875 L 24.5625,4.8125 24.28125,4.90625 24,5 24.375,4.875 Q 24.75,4.75 25,4.5"
       id="path8598" />
    <path
       style="fill:#ffde11;fill-opacity:1"
       d="M 25.875,4.40625 26,4.0625 H 25.90625 25.8125 26 q 0.1875,0 0.375,0.0625 L 26.5625,4.1875 26.28125,4.09375 26,4 26.375,4.125 Q 26.75,4.25 26.75,4.5 26.75,4.75 26.5,5 26.25,5.25 26.125,5.625 26,6 25.625,6.125 25.25,6.25 25.25,6.5 q 0,0.25 0.25,0.5 0.25,0.25 0.5,0.5 0.25,0.25 0.625,0.375 0.375,0.125 0.5,0.5 0.125,0.375 0.5,0.5 Q 28,9 28.375,9.125 28.75,9.25 28.75,9.5 q 0,0.25 -0.375,0.375 L 28,10 28.28125,9.90625 28.5625,9.8125 28.375,9.875 q -0.1875,0.0625 -0.3125,0.1875 l -0.125,0.125 L 28,10.125 28.0625,10.0625 27.515625,10.046875 26.96875,10.03125 26.984375,10.140625 27,10.25 26.96875,10.03125 Q 26.9375,9.8125 26.875,9.625 L 26.8125,9.4375 26.90625,9.71875 27,10 26.875,9.625 Q 26.75,9.25 26.5,9.25 26.25,9.25 26,9.5 25.75,9.75 25.5,9.75 25.25,9.75 25.125,9.375 L 25,9 25.375,8.875 Q 25.75,8.75 25.75,8.5 25.75,8.25 25.5,8 25.25,7.75 25,7.5 24.75,7.25 24.375,7.125 24,7 23.625,6.875 23.25,6.75 23.125,6.375 23,6 23,5.5 V 5 H 23.5 24 23.625 23.25 23.5 q 0.25,0 0.46875,-0.03125 L 24.1875,4.9375 24.078125,4.953125 23.96875,4.96875 24.109375,5.359375 Q 24.25,5.75 24.5,5.75 24.75,5.75 25,5.5 25.25,5.25 25.5,5 25.75,4.75 25.875,4.40625 m -0.90625,4.5 L 25,9 25.09375,9.28125 25.1875,9.5625 25.125,9.375 Q 25.0625,9.1875 25,9 l -0.0625,-0.1875 0.03125,0.09375"
       id="path8600" />
    <path
       style="fill:#c23d36;fill-opacity:1"
       d="M 17.125,5.625 Q 17.25,5.25 17.625,5.125 18,5 18.375,5.125 18.75,5.25 18.75,5.5 q 0,0.25 -0.25,0.5 -0.25,0.25 -0.25,0.5 0,0.25 0.375,0.375 Q 19,7 19.375,7.125 19.75,7.25 20,7.5 20.25,7.75 20.5,8 20.75,8.25 20.890625,8.609375 L 21.03125,8.96875 21.140625,8.984375 21.25,9 21.03125,8.96875 Q 20.8125,8.9375 20.625,8.875 L 20.4375,8.8125 20.71875,8.90625 21,9 20.625,8.875 Q 20.25,8.75 20,8.5 19.75,8.25 19.375,8.125 19,8 18.625,7.875 18.25,7.75 18,7.5 17.75,7.25 17.5,7 17.25,6.75 17.09375,6.34375 L 16.9375,5.9375 16.875,6 16.8125,6.0625 16.9375,5.9375 Q 17.0625,5.8125 17.125,5.625 L 17.1875,5.4375 17.09375,5.71875 17,6 17.125,5.625"
       id="path8602" />
    <path
       style="fill:#f4a01c;fill-opacity:1"
       d="M 20.125,5.375 20,5 20.09375,5.28125 20.1875,5.5625 20.125,5.375 Q 20.0625,5.1875 20.03125,4.96875 L 20,4.75 20.015625,4.859375 20.03125,4.96875 20.515625,4.984375 21,5 H 20.625 20.25 20.5 q 0.25,0 0.46875,-0.03125 L 21.1875,4.9375 21.078125,4.953125 20.96875,4.96875 21.109375,5.359375 Q 21.25,5.75 21.5,5.75 21.75,5.75 22,5.5 22.25,5.25 22.625,5.125 L 23,5 v 0.5 q 0,0.5 0.125,0.875 0.125,0.375 0.5,0.5 L 24,7 24.125,7.375 Q 24.25,7.75 24.5,8 24.75,8.25 24.875,8.625 25,9 25.125,9.375 25.25,9.75 25.5,9.75 q 0.25,0 0.5,-0.25 0.25,-0.25 0.5,-0.25 0.25,0 0.375,0.375 Q 27,10 27.046875,10.546875 l 0.04687,0.546875 0.04687,-0.07813 0.04687,-0.07813 -0.09375,0.15625 Q 27,11.25 27,11.5 V 11.75 11.375 11 11.5 12 11.625 11.25 11.5 q 0,0.25 0.03125,0.46875 L 27.0625,12.1875 27.046875,12.078125 27.03125,11.96875 26.515625,11.984375 26,12 h 0.375 0.375 -0.25 q -0.25,0 -0.46875,0.03125 l -0.21875,0.03125 0.109375,-0.01563 0.109375,-0.01563 -0.140625,-0.390625 Q 25.75,11.25 25.375,11.125 25,11 24.5,11 24,11 23.5,11 H 23 l 0.125,-0.375 Q 23.25,10.25 23.5,10 23.75,9.75 23.875,9.375 24,9 23.875,8.625 23.75,8.25 23.5,8 23.25,7.75 23,7.5 22.75,7.25 22.375,7.125 22,7 21.5,7 H 21 L 20.875,6.625 Q 20.75,6.25 20.5,6 20.25,5.75 20.125,5.375 M 20.90625,6.71875 21,7 21.03125,7.09375 21.0625,7.1875 21,7 Q 20.9375,6.8125 20.875,6.625 L 20.8125,6.4375 20.90625,6.71875 M 22.875,11 H 23 23.375 23.75 23.5 q -0.25,0 -0.5,0 h -0.25 0.125 M 24.09375,7.03125 24,7 23.71875,6.90625 23.4375,6.8125 23.625,6.875 Q 23.8125,6.9375 24,7 l 0.1875,0.0625 -0.09375,-0.03125"
       id="path8604" />
    <path
       style="fill:#c23d36;fill-opacity:1"
       d="M 8,6.5 V 6 6.375 6.75 6.5 Q 8,6.25 8.03125,6.03125 L 8.0625,5.8125 8.046875,5.921875 8.03125,6.03125 8.515625,6.015625 Q 9,6 9.5,6 H 10 L 9.875,6.375 Q 9.75,6.75 9.5,7 9.25,7.25 9.125,7.625 L 9,8 8.625,8.125 Q 8.25,8.25 8,8.5 7.75,8.75 7.390625,8.890625 L 7.03125,9.03125 7.015625,9.140625 7,9.25 7.03125,9.03125 Q 7.0625,8.8125 7.125,8.625 L 7.1875,8.4375 7.09375,8.71875 7,9 7.125,8.625 Q 7.25,8.25 7.5,8 7.75,7.75 7.875,7.375 8,7 8,6.5 M 8.96875,8.09375 9,8 9.09375,7.71875 9.1875,7.4375 9.125,7.625 Q 9.0625,7.8125 9,8 L 8.9375,8.1875 8.96875,8.09375"
       id="path8606" />
    <path
       style="fill:#f4a01c;fill-opacity:1"
       d="M 9.875,6.375 10,6 H 10.5 11 10.625 10.25 10.5 q 0.25,0 0.375,-0.125 L 11,5.75 10.9375,5.8125 10.875,5.875 11.4375,5.9375 Q 12,6 12.5,6 H 13 12.625 12.25 12.5 q 0.25,0 0.46875,-0.03125 L 13.1875,5.9375 13.078125,5.953125 12.96875,5.96875 13,6.5 13.03125,7.03125 13.140625,7.015625 13.25,7 13.03125,7.03125 Q 12.8125,7.0625 12.625,7.125 L 12.4375,7.1875 12.71875,7.09375 13,7 12.625,7.125 Q 12.25,7.25 12,7.5 11.75,7.75 11.5,8 11.25,8.25 11,8.5 10.75,8.75 10.5,9 10.25,9.25 10.125,9.625 L 10,10 9.625,10.125 Q 9.25,10.25 9,10.5 8.75,10.75 8.5,10.75 8.25,10.75 8.125,10.375 8,10 8.125,9.625 8.25,9.25 8.5,9 8.75,8.75 8.875,8.375 9,8 9.125,7.625 9.25,7.25 9.5,7 9.75,6.75 9.875,6.375 M 9.96875,10.09375 10,10 10.09375,9.71875 10.1875,9.4375 10.125,9.625 Q 10.0625,9.8125 10,10 l -0.0625,0.1875 0.03125,-0.09375"
       id="path8608" />
    <path
       style="fill:#7e2b20;fill-opacity:1"
       d="M 16,6.5 Q 16.25,6.25 16.625,6.125 L 17,6 16.71875,6.09375 16.4375,6.1875 16.625,6.125 Q 16.8125,6.0625 16.9375,5.9375 L 17.0625,5.8125 17,5.875 16.9375,5.9375 17.09375,6.34375 Q 17.25,6.75 17.5,7 17.75,7.25 18,7.5 18.25,7.75 18.625,7.875 19,8 19.375,8.125 19.75,8.25 20,8.5 20.25,8.75 20.625,8.875 21,9 21.5,9 H 22 21.625 21.25 21.5 q 0.25,0 0.46875,0.03125 L 22.1875,9.0625 22.078125,9.046875 21.96875,9.03125 21.859375,9.390625 Q 21.75,9.75 21.375,9.875 21,10 20.5,10 20,10 19.625,9.875 19.25,9.75 19,9.5 18.75,9.25 18.375,9.125 18,9 17.5,9 17,9 16.625,9.125 16.25,9.25 16.125,9.625 L 16,10 15.625,9.875 Q 15.25,9.75 15.25,9.5 15.25,9.25 15.5,9 15.75,8.75 15.75,8.5 15.75,8.25 15.5,8 15.25,7.75 15.25,7.5 15.25,7.25 15.5,7 15.75,6.75 16,6.5 m 0.25,1 q 0,0.25 0.25,0.25 0.25,0 0.25,-0.25 0,-0.25 -0.25,-0.25 -0.25,0 -0.25,0.25 M 15.71875,9.90625 16,10 16.09375,10.03125 16.1875,10.0625 16,10 Q 15.8125,9.9375 15.625,9.875 l -0.1875,-0.0625 0.28125,0.09375"
       id="path8610" />
    <path
       style="fill:#c23d36;fill-opacity:1"
       d="m 25.25,6.5 q 0,-0.25 0.375,-0.375 L 26,6 25.71875,6.09375 25.4375,6.1875 25.625,6.125 Q 25.8125,6.0625 25.9375,5.9375 L 26.0625,5.8125 26,5.875 25.9375,5.9375 26.46875,5.96875 Q 27,6 27.375,6.125 27.75,6.25 27.75,6.5 27.75,6.75 27.5,7 27.25,7.25 27.09375,7.65625 L 26.9375,8.0625 27,8.125 27.0625,8.1875 26.9375,8.0625 Q 26.8125,7.9375 26.625,7.875 L 26.4375,7.8125 26.71875,7.90625 27,8 26.625,7.875 Q 26.25,7.75 26,7.5 25.75,7.25 25.5,7 25.25,6.75 25.25,6.5"
       id="path8612" />
    <path
       style="fill:#c23d36;fill-opacity:1"
       d="M 12,7.5 Q 12.25,7.25 12.625,7.125 13,7 13.5,7 H 14 13.625 13.25 13.5 q 0.25,0 0.46875,-0.03125 L 14.1875,6.9375 14.078125,6.953125 13.96875,6.96875 13.984375,7.484375 Q 14,8 14,8.5 14,9 14,9.53125 V 10.0625 H 14.09375 14.1875 14 q -0.1875,0 -0.375,0.0625 L 13.4375,10.1875 13.71875,10.09375 14,10 13.625,10.125 q -0.375,0.125 -0.5,0.5 L 13,11 h -0.5 q -0.5,0 -0.875,0.125 -0.375,0.125 -0.5,0.5 Q 11,12 11,12.5 q 0,0.5 -0.01563,0.984375 l -0.01563,0.484375 0.109375,-0.01563 0.109375,-0.01563 -0.21875,0.03125 Q 10.75,14 10.5,14 H 10.25 10.625 11 10.5 10 V 13.5 Q 10,13 9.875,12.625 9.75,12.25 9.375,12.125 L 9,12 9.125,11.625 Q 9.25,11.25 9.5,11 9.75,10.75 9.875,10.375 10,10 10.125,9.625 10.25,9.25 10.5,9 10.75,8.75 11,8.5 11.25,8.25 11.5,8 11.75,7.75 12,7.5 M 9.09375,11.71875 9,12 8.96875,12.09375 8.9375,12.1875 9,12 Q 9.0625,11.8125 9.125,11.625 L 9.1875,11.4375 9.09375,11.71875 M 11.625,9.875 Q 12,10 12.375,9.875 12.75,9.75 12.875,9.375 13,9 12.875,8.625 12.75,8.25 12.5,8.25 12.25,8.25 12,8.5 11.75,8.75 11.5,9 q -0.25,0.25 -0.25,0.5 0,0.25 0.375,0.375 M 12.96875,11.09375 13,11 13.09375,10.71875 13.1875,10.4375 13.125,10.625 Q 13.0625,10.8125 13,11 l -0.0625,0.1875 0.03125,-0.09375"
       id="path8614" />
    <path
       style="fill:#c23d36;fill-opacity:1"
       d="m 16.25,7.5 q 0,-0.25 0.25,-0.25 0.25,0 0.25,0.25 0,0.25 -0.25,0.25 -0.25,0 -0.25,-0.25"
       id="path8616" />
    <path
       style="fill:#ffde11;fill-opacity:1"
       d="M 21.125,7.375 21,7 H 21.5 22 21.625 21.25 21.5 q 0.25,0 0.46875,0.03125 L 22.1875,7.0625 22.078125,7.046875 21.96875,7.03125 21.859375,7.390625 Q 21.75,7.75 21.5,7.75 21.25,7.75 21.125,7.375 M 20.96875,6.90625 21,7 21.09375,7.28125 21.1875,7.5625 21.125,7.375 Q 21.0625,7.1875 21,7 l -0.0625,-0.1875 0.03125,0.09375"
       id="path8618" />
    <path
       style="fill:#d86c1c;fill-opacity:1"
       d="M 24.125,7.375 24,7 24.375,7.125 Q 24.75,7.25 25,7.5 q 0.25,0.25 0.5,0.5 0.25,0.25 0.25,0.5 0,0.25 -0.375,0.375 L 25,9 24.875,8.625 Q 24.75,8.25 24.5,8 24.25,7.75 24.125,7.375 M 24.90625,8.71875 25,9 25.03125,9.09375 25.0625,9.1875 25,9 Q 24.9375,8.8125 24.875,8.625 l -0.0625,-0.1875 0.09375,0.28125 m -0.625,-1.625 L 24,7 23.90625,6.96875 23.8125,6.9375 24,7 q 0.1875,0.0625 0.375,0.125 l 0.1875,0.0625 -0.28125,-0.09375"
       id="path8620" />
    <path
       style="fill:#d86c1c;fill-opacity:1"
       d="M 8,8.5 Q 8.25,8.25 8.625,8.125 L 9,8 8.875,8.375 Q 8.75,8.75 8.5,9 8.25,9.25 8.125,9.625 8,10 8.125,10.375 8.25,10.75 8.5,10.75 8.75,10.75 9,10.5 9.25,10.25 9.625,10.125 L 10,10 9.875,10.375 Q 9.75,10.75 9.5,11 9.25,11.25 9.125,11.625 9,12 8.875,12.375 8.75,12.75 8.5,12.75 8.25,12.75 8.125,12.375 8,12 7.875,11.625 7.75,11.25 7.5,11.25 7.25,11.25 7,11.5 6.75,11.75 6.390625,11.890625 L 6.03125,12.03125 6.015625,12.140625 6,12.25 6.03125,12.03125 Q 6.0625,11.8125 6.125,11.625 L 6.1875,11.4375 6.09375,11.71875 6,12 6.125,11.625 Q 6.25,11.25 6.5,11 6.75,10.75 6.875,10.375 7,10 7,9.5 V 9 9.375 9.75 9.5 Q 7,9.25 7.03125,9.03125 L 7.0625,8.8125 7.046875,8.921875 7.03125,9.03125 7.390625,8.890625 Q 7.75,8.75 8,8.5 M 9.90625,10.28125 10,10 10.03125,9.90625 10.0625,9.8125 10,10 q -0.0625,0.1875 -0.125,0.375 l -0.0625,0.1875 0.09375,-0.28125 m -1,-2 L 9,8 9.03125,7.90625 9.0625,7.8125 9,8 Q 8.9375,8.1875 8.875,8.375 L 8.8125,8.5625 8.90625,8.28125"
       id="path8622" />
    <path
       style="fill:#ffffff;fill-opacity:1"
       d="m 12,8.5 q 0.25,-0.25 0.5,-0.25 0.25,0 0.375,0.375 0.125,0.375 0,0.75 -0.125,0.375 -0.5,0.5 Q 12,10 11.625,9.875 11.25,9.75 11.25,9.5 11.25,9.25 11.5,9 11.75,8.75 12,8.5"
       id="path8624" />
    <path
       style="fill:#c23d36;fill-opacity:1"
       d="M 21.859375,9.390625 21.96875,9.03125 21.859375,9.015625 21.75,9 21.96875,9.03125 Q 22.1875,9.0625 22.375,9.125 L 22.5625,9.1875 22.28125,9.09375 22,9 22.375,9.125 Q 22.75,9.25 22.75,9.5 q 0,0.25 -0.25,0.5 -0.25,0.25 -0.375,0.625 L 22,11 H 21.5 Q 21,11 20.625,10.875 20.25,10.75 20.140625,10.359375 L 20.03125,9.96875 19.921875,9.953125 19.8125,9.9375 20.03125,9.96875 Q 20.25,10 20.5,10 H 20.75 20.375 20 20.5 Q 21,10 21.375,9.875 21.75,9.75 21.859375,9.390625 M 21.625,11 H 22 22.125 22.25 22 q -0.25,0 -0.5,0 h -0.25 0.375"
       id="path8626" />
    <path
       style="fill:#d86c1c;fill-opacity:1"
       d="m 13.125,10.625 q 0.125,-0.375 0.5,-0.5 0.375,-0.125 0.75,0 0.375,0.125 0.375,0.375 0,0.25 -0.25,0.5 -0.25,0.25 -0.375,0.625 L 14,12 13.625,12.125 q -0.375,0.125 -0.5,0.5 L 13,13 12.625,13.125 Q 12.25,13.25 12,13.5 11.75,13.75 11.375,13.875 L 11,14 11.28125,13.90625 11.5625,13.8125 11.375,13.875 q -0.1875,0.0625 -0.40625,0.09375 L 10.75,14 10.859375,13.984375 10.96875,13.96875 10.984375,13.484375 11,13 11.375,12.875 Q 11.75,12.75 12,12.5 12.25,12.25 12.5,12 12.75,11.75 12.875,11.375 13,11 13.125,10.625 M 11,12.875 V 13 13.375 13.75 13.5 q 0,-0.25 0,-0.5 v -0.25 0.125 M 12.71875,13.09375 13,13 13.09375,12.96875 13.1875,12.9375 13,13 q -0.1875,0.0625 -0.375,0.125 l -0.1875,0.0625 0.28125,-0.09375"
       id="path8628" />
    <path
       style="fill:#d86c1c;fill-opacity:1"
       d="M 27.046875,10.546875 27,10 v 0.375 0.375 -0.25 q 0,-0.25 -0.03125,-0.46875 L 26.9375,9.8125 l 0.01563,0.109375 0.01563,0.109375 0.546875,0.01563 L 28.0625,10.0625 28.125,10 l 0.0625,-0.0625 -0.125,0.125 q -0.125,0.125 -0.1875,0.3125 L 27.8125,10.5625 27.90625,10.28125 28,10 27.875,10.375 q -0.125,0.375 -0.5,0.5 L 27,11 27.28125,10.90625 27.5625,10.8125 27.375,10.875 q -0.1875,0.0625 -0.28125,0.21875 L 27,11.25 l 0.04687,-0.07813 0.04687,-0.07813 -0.04687,-0.546875"
       id="path8630" />
    <path
       style="fill:#f4a01c;fill-opacity:1"
       d="m 7,11.5 q 0.25,-0.25 0.5,-0.25 0.25,0 0.375,0.375 Q 8,12 8.125,12.375 8.25,12.75 8.5,12.75 q 0.25,0 0.375,-0.375 L 9,12 9.375,12.125 q 0.375,0.125 0.5,0.5 L 10,13 9.90625,12.71875 9.8125,12.4375 9.875,12.625 q 0.0625,0.1875 0.09375,0.40625 L 10,13.25 9.984375,13.140625 9.96875,13.03125 9.609375,13.140625 Q 9.25,13.25 9.125,13.625 L 9,14 H 8.5 Q 8,14 7.5,14 H 7 L 6.875,13.625 Q 6.75,13.25 6.390625,13.109375 L 6.03125,12.96875 6.046875,13.078125 6.0625,13.1875 6.03125,12.96875 Q 6,12.75 6,12.5 V 12.25 12.625 13 12.5 12 12.375 12.75 12.5 Q 6,12.25 6.03125,12.03125 L 6.0625,11.8125 6.046875,11.921875 6.03125,12.03125 6.390625,11.890625 Q 6.75,11.75 7,11.5 M 8.625,14 H 9 9.125 9.25 9 Q 8.75,14 8.5,14 H 8.25 8.625 M 9.03125,11.90625 9,12 8.90625,12.28125 8.8125,12.5625 8.875,12.375 Q 8.9375,12.1875 9,12 l 0.0625,-0.1875 -0.03125,0.09375"
       id="path8632" />
    <path
       style="fill:#d86c1c;fill-opacity:1"
       d="m 11.125,11.625 q 0.125,-0.375 0.5,-0.5 L 12,11 11.71875,11.09375 11.4375,11.1875 11.625,11.125 q 0.1875,-0.0625 0.40625,-0.09375 L 12.25,11 l -0.109375,0.01563 -0.109375,0.01563 -0.140625,0.359375 q -0.140625,0.359375 -0.5,0.5 L 11.03125,12.03125 11.015625,12.140625 11,12.25 11.03125,12.03125 Q 11.0625,11.8125 11.125,11.625 L 11.1875,11.4375 11.09375,11.71875 11,12 11.125,11.625"
       id="path8634" />
    <path
       style="fill:#7e2b20;fill-opacity:1"
       d="M 11.890625,11.390625 12.03125,11.03125 11.921875,11.046875 11.8125,11.0625 12.03125,11.03125 Q 12.25,11 12.5,11 H 12.75 12.375 12 12.5 13 l -0.125,0.375 Q 12.75,11.75 12.5,12 12.25,12.25 12,12.5 11.75,12.75 11.375,12.875 L 11,13 V 12.5 12 12.375 12.75 12.5 q 0,-0.25 0.03125,-0.46875 l 0.03125,-0.21875 -0.01563,0.109375 -0.01563,0.109375 0.359375,-0.140625 q 0.359375,-0.140625 0.5,-0.5 M 11,12.625 V 13 13.125 13.25 13 q 0,-0.25 0,-0.5 v -0.25 0.375 M 12.90625,11.28125 13,11 13.03125,10.90625 13.0625,10.8125 13,11 q -0.0625,0.1875 -0.125,0.375 l -0.0625,0.1875 0.09375,-0.28125"
       id="path8636" />
    <path
       style="fill:#7e2b20;fill-opacity:1"
       d="M 21.015625,11.484375 21.03125,10.96875 20.921875,10.953125 20.8125,10.9375 21.03125,10.96875 Q 21.25,11 21.5,11 H 21.75 21.375 21 21.5 q 0.5,0 1,0 0.5,0 1,0 H 24 l -0.125,0.375 q -0.125,0.375 -0.5,0.5 Q 23,12 22.5,12 22,12 21.5,12 H 21 l 0.01563,-0.515625 M 21,11.625 V 12 12.125 12.25 12 q 0,-0.25 0,-0.5 v -0.25 0.375 M 24.125,11 H 24 23.625 23.25 23.5 q 0.25,0 0.5,0 h 0.25 -0.125"
       id="path8638" />
    <path
       style="fill:#d86c1c;fill-opacity:1"
       d="M 23.875,11.375 24,11 h 0.5 q 0.5,0 0.875,0.125 0.375,0.125 0.515625,0.515625 L 26.03125,12.03125 26.140625,12.015625 26.25,12 26.03125,12.03125 Q 25.8125,12.0625 25.625,12.125 L 25.4375,12.1875 25.71875,12.09375 26,12 25.625,12.125 Q 25.25,12.25 25.25,12.5 q 0,0.25 0.25,0.5 0.25,0.25 0.5,0.5 0.25,0.25 0.671875,0.421875 l 0.421875,0.171875 0.04687,-0.07813 0.04687,-0.07813 -0.09375,0.15625 Q 27,14.25 27,14.5 V 14.75 14.375 14 14.5 15 14.625 14.25 14.5 q 0,0.25 -0.03125,0.46875 l -0.03125,0.21875 0.01563,-0.109375 0.01563,-0.109375 -0.359375,-0.109375 Q 26.25,14.75 26,14.5 25.75,14.25 25.375,14.125 25,14 24.625,14.125 24.25,14.25 24.25,14.5 q 0,0.25 0.375,0.375 L 25,15 v 0.5 q 0,0.5 0.01563,1.015625 l 0.01563,0.515625 0.109375,-0.01563 L 25.25,17 25.03125,17.03125 Q 24.8125,17.0625 24.625,17.125 L 24.4375,17.1875 24.71875,17.09375 25,17 24.625,17.125 Q 24.25,17.25 24,17.5 23.75,17.75 23.375,17.875 23,18 22.625,18.125 22.25,18.25 22.25,18.5 q 0,0.25 0.375,0.375 L 23,19 22.71875,18.90625 22.4375,18.8125 22.625,18.875 Q 22.8125,18.9375 23,18.9375 H 23.1875 23.09375 23 l -0.125,0.40625 Q 22.75,19.75 22.375,19.875 22,20 21.5,20 21,20 20.625,20.125 20.25,20.25 20.25,20.5 q 0,0.25 0.25,0.5 0.25,0.25 0.375,0.625 L 21,22 20.90625,21.71875 20.8125,21.4375 20.875,21.625 Q 20.9375,21.8125 20.9375,22 V 22.1875 22.09375 22 H 20.46875 Q 20,22 19.5,22 H 19 l -0.125,-0.375 q -0.125,-0.375 -0.5,-0.5 L 18,21 V 20.5 20 h 0.5 q 0.5,0 0.875,-0.125 0.375,-0.125 0.375,-0.375 0,-0.25 -0.375,-0.375 L 19,19 V 18.5 18 h 0.5 q 0.5,0 1,0 0.5,0 0.875,-0.125 0.375,-0.125 0.5,-0.5 Q 22,17 22,16.5 V 16 h 0.5 Q 23,16 23.375,15.875 23.75,15.75 23.75,15.5 23.75,15.25 23.375,15.125 23,15 22.5,15 H 22 V 14.5 14 h 0.5 q 0.5,0 0.875,-0.125 0.375,-0.125 0.375,-0.375 0,-0.25 -0.375,-0.375 L 23,13 23.28125,13.09375 23.5625,13.1875 23.375,13.125 Q 23.1875,13.0625 22.96875,13.03125 L 22.75,13 l 0.109375,0.01563 0.109375,0.01563 V 12.5 11.96875 L 22.859375,11.984375 22.75,12 22.96875,11.96875 Q 23.1875,11.9375 23.375,11.875 L 23.5625,11.8125 23.28125,11.90625 23,12 23.375,11.875 q 0.375,-0.125 0.5,-0.5 M 22.375,14 H 22 21.875 21.75 22 q 0.25,0 0.5,0 h 0.25 -0.375 m -0.5,1 H 22 22.375 22.75 22.5 q -0.25,0 -0.5,0 h -0.25 0.125 m 0.5,1 H 22 21.875 21.75 22 q 0.25,0 0.5,0 h 0.25 -0.375 m -4,4 H 18 17.875 17.75 18 q 0.25,0 0.5,0 h 0.25 -0.375 M 17.90625,20.96875 18,21 18.28125,21.09375 18.5625,21.1875 18.375,21.125 Q 18.1875,21.0625 18,21 l -0.1875,-0.0625 0.09375,0.03125 M 18.875,22 H 19 19.375 19.75 19.5 q -0.25,0 -0.5,0 h -0.25 0.125 M 25,15.375 V 15 14.875 14.75 15 q 0,0.25 0,0.5 v 0.25 -0.375 M 24.375,11 H 24 23.875 23.75 24 q 0.25,0 0.5,0 h 0.25 -0.375"
       id="path8640" />
    <path
       style="fill:#f4a01c;fill-opacity:1"
       d="m 13.125,12.625 q 0.125,-0.375 0.5,-0.5 L 14,12 13.875,12.375 q -0.125,0.375 -0.5,0.5 L 13,13 13.125,12.625 M 12.90625,13.03125 13,13 13.28125,12.90625 13.5625,12.8125 13.375,12.875 Q 13.1875,12.9375 13,13 l -0.1875,0.0625 0.09375,-0.03125"
       id="path8642" />
    <path
       style="fill:#c23d36;fill-opacity:1"
       d="M 21,12.5 V 12 h 0.5 q 0.5,0 1,0 H 23 22.625 22.25 22.5 q 0.25,0 0.46875,-0.03125 l 0.21875,-0.03125 -0.109375,0.01563 -0.109375,0.01563 V 12.5 13.03125 l 0.109375,0.01563 0.109375,0.01563 -0.21875,-0.03125 Q 22.75,13 22.5,13 H 22.25 22.625 23 22.5 q -0.5,0 -1,0 H 21 v -0.5 m 0,0.125 V 13 13.125 13.25 13 q 0,-0.25 0,-0.5 v -0.25 0.375 m 0,-0.75 V 12 12.375 12.75 12.5 q 0,-0.25 0,-0.5 v -0.25 0.125"
       id="path8644" />
    <path
       style="fill:#ffde11;fill-opacity:1"
       d="m 25.25,12.5 q 0,-0.25 0.375,-0.375 Q 26,12 26.515625,11.984375 L 27.03125,11.96875 27.015625,11.859375 27,11.75 27.03125,11.96875 Q 27.0625,12.1875 27.125,12.375 L 27.1875,12.5625 27.09375,12.28125 27,12 27.125,12.375 Q 27.25,12.75 27.5,13 q 0.25,0.25 0.25,0.5 0,0.25 -0.375,0.375 L 27,14 27.28125,13.90625 27.5625,13.8125 27.375,13.875 q -0.1875,0.0625 -0.28125,0.21875 L 27,14.25 l 0.04687,-0.07813 0.04687,-0.07813 -0.421875,-0.171875 Q 26.25,13.75 26,13.5 25.75,13.25 25.5,13 25.25,12.75 25.25,12.5"
       id="path8646" />
    <path
       style="fill:#c23d36;fill-opacity:1"
       d="M 6.125,13.375 6,13 6.09375,13.28125 6.1875,13.5625 6.125,13.375 Q 6.0625,13.1875 6.03125,12.96875 L 6,12.75 6.015625,12.859375 6.03125,12.96875 6.390625,13.109375 Q 6.75,13.25 6.875,13.625 L 7,14 6.625,13.875 q -0.375,-0.125 -0.5,-0.5"
       id="path8648" />
    <path
       style="fill:#7e2b20;fill-opacity:1"
       d="M 9.125,13.625 Q 9.25,13.25 9.609375,13.140625 L 9.96875,13.03125 9.953125,12.921875 9.9375,12.8125 9.96875,13.03125 Q 10,13.25 10,13.5 V 13.75 13.375 13 13.5 14 H 9.5 9 L 9.125,13.625 M 8.875,14 H 9 9.375 9.75 9.5 Q 9.25,14 9,14 H 8.75 8.875"
       id="path8650" />
    <path
       style="fill:#7e2b20;fill-opacity:1"
       d="M 21,13.5 V 13 h 0.5 q 0.5,0 1,0 0.5,0 0.875,0.125 0.375,0.125 0.375,0.375 0,0.25 -0.375,0.375 Q 23,14 22.5,14 22,14 21.5,14 H 21 v -0.5 m 0,0.125 V 14 14.125 14.25 14 q 0,-0.25 0,-0.5 v -0.25 0.375 m 0,-0.75 V 13 13.375 13.75 13.5 q 0,-0.25 0,-0.5 v -0.25 0.125"
       id="path8652" />
    <path
       style="fill:#f4a01c;fill-opacity:1"
       d="m 1.25,14.5 q 0,-0.25 0.25,-0.25 0.25,0 0.5,0.25 0.25,0.25 0.5,0.5 0.25,0.25 0.5,0.5 0.25,0.25 0.625,0.375 L 4,16 3.71875,15.90625 3.4375,15.8125 3.625,15.875 q 0.1875,0.0625 0.40625,0.09375 L 4.25,16 4.140625,15.984375 4.03125,15.96875 4.015625,16.484375 4,17 H 3.5 Q 3,17 2.625,17.125 2.25,17.25 2,17.5 1.75,17.75 1.5,17.75 1.25,17.75 1.25,17.5 1.25,17.25 1.5,17 1.75,16.75 1.875,16.375 2,16 1.875,15.625 1.75,15.25 1.5,15 1.25,14.75 1.25,14.5 M 3.625,17 H 4 4.125 4.25 4 Q 3.75,17 3.5,17 H 3.25 3.625"
       id="path8654" />
    <path
       style="fill:#d86c1c;fill-opacity:1"
       d="M 7,14.5 V 14 h 0.5 q 0.5,0 1,0 0.5,0 1,0 H 10 L 9.875,14.375 Q 9.75,14.75 9.375,14.875 9,15 8.5,15 H 8 8.375 8.75 8.5 Q 8.25,15 8.09375,15.09375 L 7.9375,15.1875 8.015625,15.140625 8.09375,15.09375 7.5,15 6.90625,14.90625 6.859375,14.984375 6.8125,15.0625 6.90625,14.90625 Q 7,14.75 7,14.5 V 14.25 14.625 15 14.5"
       id="path8656" />
    <path
       style="fill:#c23d36;fill-opacity:1"
       d="M 21.015625,14.515625 21,14 H 21.5 22 V 14.5 15 H 21.5 21 21.375 21.75 21.5 q -0.25,0 -0.46875,0.03125 l -0.21875,0.03125 0.109375,-0.01563 0.109375,-0.01563 -0.01563,-0.515625 M 21.625,15 H 22 22.125 22.25 22 q -0.25,0 -0.5,0 h -0.25 0.375 m 0.5,-1 H 22 21.625 21.25 21.5 q 0.25,0 0.5,0 h 0.25 -0.125 M 21,13.875 V 14 14.375 14.75 14.5 q 0,-0.25 0,-0.5 v -0.25 0.125"
       id="path8658" />
    <path
       style="fill:#ffde11;fill-opacity:1"
       d="m 24.25,14.5 q 0,-0.25 0.375,-0.375 L 25,14 24.71875,14.09375 24.4375,14.1875 24.625,14.125 Q 24.8125,14.0625 25,14.0625 H 25.1875 25.09375 25 V 14.53125 15 L 24.625,14.875 Q 24.25,14.75 24.25,14.5 M 25,15.125 V 15 14.625 14.25 14.5 q 0,0.25 0,0.5 v 0.25 -0.125"
       id="path8660" />
    <path
       style="fill:#f4a01c;fill-opacity:1"
       d="M 25,14.53125 V 14.0625 H 24.90625 24.8125 25 q 0.1875,0 0.375,0.0625 L 25.5625,14.1875 25.28125,14.09375 25,14 25.375,14.125 Q 25.75,14.25 26,14.5 q 0.25,0.25 0.609375,0.359375 L 26.96875,14.96875 26.984375,14.859375 27,14.75 26.96875,14.96875 Q 26.9375,15.1875 26.875,15.375 L 26.8125,15.5625 26.90625,15.28125 27,15 26.875,15.375 q -0.125,0.375 -0.5,0.5 L 26,16 26.28125,15.90625 26.5625,15.8125 26.375,15.875 q -0.1875,0.0625 -0.28125,0.21875 L 26,16.25 l 0.04687,-0.07813 0.04687,-0.07813 -0.546875,-0.04687 L 25,16 V 15.5 Q 25,15 25,14.53125 M 25,15.625 V 16 16.125 16.25 16 q 0,-0.25 0,-0.5 v -0.25 0.375"
       id="path8662" />
    <path
       style="fill:#000000;fill-opacity:0"
       d="M 0,15.5 V 15 l 0.375,0.125 q 0.375,0.125 0.5,0.5 0.125,0.375 0,0.75 -0.125,0.375 -0.5,0.5 L 0,17 V 16.5 16 15.5"
       id="path8664" />
    <path
       style="fill:#ffde11;fill-opacity:1"
       d="M 6,15.5 Q 6.25,15.25 6.625,15.125 L 7,15 6.71875,15.09375 6.4375,15.1875 6.625,15.125 Q 6.8125,15.0625 6.90625,14.90625 L 7,14.75 6.953125,14.828125 6.90625,14.90625 7.5,15 8.09375,15.09375 8.171875,15.046875 8.25,15 8.09375,15.09375 Q 7.9375,15.1875 7.875,15.375 L 7.8125,15.5625 7.90625,15.28125 8,15 7.875,15.375 Q 7.75,15.75 7.375,15.875 7,16 6.625,16.125 6.25,16.25 6,16.5 5.75,16.75 5.375,16.875 5,17 4.5,17 H 4 L 4.015625,16.484375 4.03125,15.96875 3.921875,15.953125 3.8125,15.9375 4.03125,15.96875 Q 4.25,16 4.5,16 H 4.75 4.375 4 4.5 Q 5,16 5.375,15.875 5.75,15.75 6,15.5 M 3.875,17 H 4 4.375 4.75 4.5 Q 4.25,17 4,17 H 3.75 3.875"
       id="path8666" />
    <path
       style="fill:#7e2b20;fill-opacity:1"
       d="M 20,15.5 Q 20.25,15.25 20.625,15.125 21,15 21.5,15 q 0.5,0 1,0 H 23 22.625 22.25 22.5 q 0.25,0 0.46875,0.03125 L 23.1875,15.0625 23.078125,15.046875 22.96875,15.03125 V 15.5 15.96875 l 0.109375,-0.01563 0.109375,-0.01563 -0.21875,0.03125 Q 22.75,16 22.5,16 H 22.25 22.625 23 22.5 q -0.5,0 -1,0 -0.5,0 -0.875,0.125 -0.375,0.125 -0.375,0.375 0,0.25 0.375,0.375 L 21,17 l -0.01563,0.484375 -0.01563,0.484375 0.109375,-0.01563 0.109375,-0.01563 -0.21875,0.03125 Q 20.75,18 20.5,18 H 20.25 20.625 21 20.5 q -0.5,0 -1,0 H 19 V 17.5 Q 19,17 19.125,16.625 19.25,16.25 19.5,16 19.75,15.75 20,15.5"
       id="path8668" />
    <path
       style="fill:#c23d36;fill-opacity:1"
       d="M 22.96875,15.5 V 15.03125 L 22.859375,15.015625 22.75,15 22.96875,15.03125 Q 23.1875,15.0625 23.375,15.125 L 23.5625,15.1875 23.28125,15.09375 23,15 l 0.375,0.125 q 0.375,0.125 0.375,0.375 0,0.25 -0.375,0.375 L 23,16 23.28125,15.90625 23.5625,15.8125 23.375,15.875 q -0.1875,0.0625 -0.40625,0.09375 L 22.75,16 22.859375,15.984375 22.96875,15.96875 V 15.5"
       id="path8670" />
    <path
       style="fill:#d86c1c;fill-opacity:1"
       d="m 20.25,16.5 q 0,-0.25 0.375,-0.375 L 21,16 20.71875,16.09375 20.4375,16.1875 20.625,16.125 q 0.1875,-0.0625 0.40625,-0.09375 L 21.25,16 21.140625,16.015625 21.03125,16.03125 21.015625,16.515625 21,17 20.625,16.875 Q 20.25,16.75 20.25,16.5"
       id="path8672" />
    <path
       style="fill:#f4a01c;fill-opacity:1"
       d="m 21.015625,16.515625 0.01563,-0.484375 -0.109375,0.01563 -0.109375,0.01563 0.21875,-0.03125 Q 21.25,16 21.5,16 H 21.75 21.375 21 21.5 22 V 16.5 17 16.625 16.25 16.5 q 0,0.25 -0.03125,0.46875 l -0.03125,0.21875 0.01563,-0.109375 0.01563,-0.109375 -0.484375,0.01563 L 21,17 21.015625,16.515625 M 22.125,16 H 22 21.625 21.25 21.5 q 0.25,0 0.5,0 h 0.25 -0.125"
       id="path8674" />
    <path
       style="fill:#ffde11;fill-opacity:1"
       d="M 25.015625,16.515625 25,16 l 0.546875,0.04687 0.546875,0.04687 0.04687,-0.07813 0.04687,-0.07813 -0.09375,0.15625 Q 26,16.25 26,16.5 V 16.75 16.375 16 16.5 17 16.625 16.25 16.5 q 0,0.25 -0.03125,0.46875 l -0.03125,0.21875 0.01563,-0.109375 0.01563,-0.109375 -0.484375,0.01563 L 25,17 h 0.375 0.375 -0.25 q -0.25,0 -0.46875,0.03125 l -0.21875,0.03125 0.109375,-0.01563 0.109375,-0.01563 -0.01563,-0.515625 M 25,15.875 V 16 16.375 16.75 16.5 q 0,-0.25 0,-0.5 v -0.25 0.125"
       id="path8676" />
    <path
       style="fill:#5f221a;fill-opacity:1"
       d="M 18.125,17.625 Q 18.25,17.25 18.640625,17.140625 L 19.03125,17.03125 19.046875,16.921875 19.0625,16.8125 19.03125,17.03125 Q 19,17.25 19,17.5 V 17.75 17.375 17 17.5 18 H 18.5 18 l 0.125,-0.375"
       id="path8678" />
    <path
       style="fill:#c23d36;fill-opacity:1"
       d="M 20.984375,17.484375 21,17 21.484375,16.984375 21.96875,16.96875 21.984375,16.859375 22,16.75 21.96875,16.96875 Q 21.9375,17.1875 21.875,17.375 L 21.8125,17.5625 21.90625,17.28125 22,17 21.875,17.375 q -0.125,0.375 -0.5,0.5 L 21,18 21.28125,17.90625 21.5625,17.8125 21.375,17.875 q -0.1875,0.0625 -0.40625,0.09375 L 20.75,18 l 0.109375,-0.01563 0.109375,-0.01563 0.01563,-0.484375"
       id="path8680" />
    <path
       style="fill:#f4a01c;fill-opacity:1"
       d="M 24,17.5 Q 24.25,17.25 24.625,17.125 25,17 25.484375,16.984375 L 25.96875,16.96875 25.984375,16.859375 26,16.75 25.96875,16.96875 Q 25.9375,17.1875 25.875,17.375 L 25.8125,17.5625 25.90625,17.28125 26,17 25.875,17.375 q -0.125,0.375 -0.5,0.5 L 25,18 25.28125,17.90625 25.5625,17.8125 25.375,17.875 q -0.1875,0.0625 -0.3125,0.1875 l -0.125,0.125 L 25,18.125 25.0625,18.0625 24.65625,18.15625 Q 24.25,18.25 24,18.5 23.75,18.75 23.375,18.875 23,19 22.625,18.875 22.25,18.75 22.25,18.5 q 0,-0.25 0.375,-0.375 Q 23,18 23.375,17.875 23.75,17.75 24,17.5"
       id="path8682" />
    <path
       style="fill:#7e2b20;fill-opacity:1"
       d="M 17.140625,18.640625 Q 17.25,18.25 17.625,18.125 L 18,18 V 18.5 19 H 17.5 17 17.375 17.75 17.5 q -0.25,0 -0.46875,0.03125 l -0.21875,0.03125 0.109375,-0.01563 0.109375,-0.01563 0.109375,-0.390625 M 17.625,19 H 18 18.125 18.25 18 q -0.25,0 -0.5,0 h -0.25 0.375"
       id="path8684" />
    <path
       style="fill:#c23d36;fill-opacity:1"
       d="M 18,18.5 V 18 H 18.5 19 V 18.5 19 H 18.5 18 V 18.5 M 17.875,19 H 18 18.375 18.75 18.5 q -0.25,0 -0.5,0 h -0.25 0.125"
       id="path8686" />
    <path
       style="fill:#ffde11;fill-opacity:1"
       d="m 24,18.5 q 0.25,-0.25 0.65625,-0.34375 L 25.0625,18.0625 25.125,18 l 0.0625,-0.0625 -0.125,0.125 q -0.125,0.125 -0.1875,0.3125 L 24.8125,18.5625 24.90625,18.28125 25,18 24.875,18.375 Q 24.75,18.75 24.5,19 24.25,19.25 24,19.5 23.75,19.75 23.5,20 23.25,20.25 23.125,20.625 L 23,21 22.625,21.125 q -0.375,0.125 -0.453125,0.546875 l -0.07813,0.421875 0.04687,-0.07813 0.04687,-0.07813 -0.09375,0.15625 Q 22,22.25 22,22.5 V 22.75 22.375 22 22.5 23 22.625 22.25 22.5 q 0,0.25 -0.03125,0.46875 l -0.03125,0.21875 0.01563,-0.109375 0.01563,-0.109375 -0.359375,0.140625 Q 21.25,23.25 21.171875,23.671875 l -0.07813,0.421875 0.04687,-0.07813 0.04687,-0.07813 -0.09375,0.15625 Q 21,24.25 21,24.5 V 24.75 24.375 24 24.5 25 L 20.625,24.875 Q 20.25,24.75 20.125,24.375 20,24 20.125,23.625 20.25,23.25 20.5,23 20.75,22.75 20.875,22.375 21,22 20.875,21.625 20.75,21.25 20.5,21 q -0.25,-0.25 -0.25,-0.5 0,-0.25 0.375,-0.375 L 21,20 20.71875,20.09375 20.4375,20.1875 20.625,20.125 q 0.1875,-0.0625 0.40625,-0.09375 L 21.25,20 l -0.109375,0.01563 -0.109375,0.01563 0.109375,0.359375 Q 21.25,20.75 21.5,20.75 q 0.25,0 0.359375,-0.390625 L 21.96875,19.96875 21.859375,19.984375 21.75,20 21.96875,19.96875 Q 22.1875,19.9375 22.375,19.875 L 22.5625,19.8125 22.28125,19.90625 22,20 22.375,19.875 q 0.375,-0.125 0.5,-0.53125 L 23,18.9375 H 22.90625 22.8125 23 q 0.1875,0 0.375,-0.0625 L 23.5625,18.8125 23.28125,18.90625 23,19 23.375,18.875 Q 23.75,18.75 24,18.5 m -3,6.625 V 25 24.625 24.25 24.5 q 0,0.25 0,0.5 v 0.25 -0.125 M 22.96875,21.09375 23,21 23.09375,20.71875 23.1875,20.4375 23.125,20.625 Q 23.0625,20.8125 23,21 l -0.0625,0.1875 0.03125,-0.09375"
       id="path8688" />
    <path
       style="fill:#5f221a;fill-opacity:1"
       d="m 16.125,19.625 q 0.125,-0.375 0.5,-0.5 Q 17,19 17.5,19 q 0.5,0 1,0 H 19 l -0.01563,0.484375 -0.01563,0.484375 0.109375,-0.01563 0.109375,-0.01563 -0.21875,0.03125 Q 18.75,20 18.5,20 H 18.25 18.625 19 18.5 q -0.5,0 -1,0 -0.5,0 -0.984375,0.01563 L 16.03125,20.03125 16.015625,20.140625 16,20.25 16.03125,20.03125 Q 16.0625,19.8125 16.125,19.625 L 16.1875,19.4375 16.09375,19.71875 16,20 16.125,19.625"
       id="path8690" />
    <path
       style="fill:#7e2b20;fill-opacity:1"
       d="M 18.984375,19.484375 19,19 l 0.375,0.125 q 0.375,0.125 0.375,0.375 0,0.25 -0.375,0.375 L 19,20 19.28125,19.90625 19.5625,19.8125 19.375,19.875 q -0.1875,0.0625 -0.40625,0.09375 L 18.75,20 l 0.109375,-0.01563 0.109375,-0.01563 0.01563,-0.484375"
       id="path8692" />
    <path
       style="fill:#7e2b20;fill-opacity:1"
       d="M 16,20.53125 V 20 20.375 20.75 20.5 q 0,-0.25 0.03125,-0.46875 l 0.03125,-0.21875 -0.01563,0.109375 -0.01563,0.109375 0.484375,-0.01563 L 17,20 l 0.125,0.375 q 0.125,0.375 0.5,0.5 0.375,0.125 0.75,0.25 0.375,0.125 0.5,0.5 L 19,22 h -0.5 q -0.5,0 -1,0 H 17 l -0.125,-0.375 q -0.125,-0.375 -0.5,-0.5 L 16,21 16.28125,21.09375 16.5625,21.1875 16.375,21.125 Q 16.1875,21.0625 16,21.0625 H 15.8125 15.90625 16 V 20.53125 M 18.625,22 H 19 19.125 19.25 19 q -0.25,0 -0.5,0 h -0.25 0.375 m -1.5,-2 H 17 16.625 16.25 16.5 q 0.25,0 0.5,0 h 0.25 -0.125"
       id="path8694" />
    <path
       style="fill:#c23d36;fill-opacity:1"
       d="M 17.125,20.375 17,20 h 0.5 0.5 v 0.5 0.5 l -0.375,-0.125 q -0.375,-0.125 -0.5,-0.5 M 17.71875,20.90625 18,21 18.09375,21.03125 18.1875,21.0625 18,21 q -0.1875,-0.0625 -0.375,-0.125 l -0.1875,-0.0625 0.28125,0.09375 M 18.125,20 H 18 17.625 17.25 17.5 q 0.25,0 0.5,0 h 0.25 -0.125 m -0.75,0 H 17 16.875 16.75 17 q 0.25,0 0.5,0 h 0.25 -0.375"
       id="path8696" />
    <path
       style="fill:#f4a01c;fill-opacity:1"
       d="M 21.140625,20.390625 21.03125,20.03125 20.921875,20.046875 20.8125,20.0625 21.03125,20.03125 Q 21.25,20 21.5,20 H 21.75 21.375 21 21.5 22 21.625 21.25 21.5 q 0.25,0 0.46875,-0.03125 l 0.21875,-0.03125 -0.109375,0.01563 -0.109375,0.01563 -0.109375,0.390625 Q 21.75,20.75 21.5,20.75 q -0.25,0 -0.359375,-0.359375"
       id="path8698" />
    <path
       style="fill:#5f221a;fill-opacity:1"
       d="m 15.125,21.625 q 0.125,-0.375 0.5,-0.5 0.375,-0.125 0.75,0 0.375,0.125 0.5,0.5 L 17,22 h -0.5 q -0.5,0 -0.984375,0.01563 L 15.03125,22.03125 15.015625,22.140625 15,22.25 15.03125,22.03125 Q 15.0625,21.8125 15.125,21.625 L 15.1875,21.4375 15.09375,21.71875 15,22 15.125,21.625"
       id="path8700" />
    <path
       style="fill:#f4a01c;fill-opacity:1"
       d="M 22.171875,21.671875 Q 22.25,21.25 22.625,21.125 L 23,21 22.875,21.375 q -0.125,0.375 -0.5,0.5 L 22,22 22.28125,21.90625 22.5625,21.8125 22.375,21.875 q -0.1875,0.0625 -0.28125,0.21875 L 22,22.25 l 0.04687,-0.07813 0.04687,-0.07813 0.07813,-0.421875 M 22.90625,21.28125 23,21 23.03125,20.90625 23.0625,20.8125 23,21 q -0.0625,0.1875 -0.125,0.375 l -0.0625,0.1875 0.09375,-0.28125"
       id="path8702" />
    <path
       style="fill:#7e2b20;fill-opacity:1"
       d="M 15.015625,22.515625 15,22 v 0.375 0.375 -0.25 q 0,-0.25 0.03125,-0.46875 l 0.03125,-0.21875 -0.01563,0.109375 -0.01563,0.109375 0.484375,-0.01563 L 16,22 V 22.5 23 H 15.5 15 15.375 15.75 15.5 q -0.25,0 -0.46875,0.03125 l -0.21875,0.03125 0.109375,-0.01563 0.109375,-0.01563 -0.01563,-0.515625 M 15.625,23 H 16 16.125 16.25 16 q -0.25,0 -0.5,0 h -0.25 0.375 m 0.5,-1 H 16 15.625 15.25 15.5 q 0.25,0 0.5,0 h 0.25 -0.125"
       id="path8704" />
    <path
       style="fill:#c23d36;fill-opacity:1"
       d="M 16,22.5 V 22 H 16.5 17 V 22.5 23 H 16.5 16 V 22.5 M 15.875,23 H 16 16.375 16.75 16.5 q -0.25,0 -0.5,0 h -0.25 0.125 m 0.5,-1 H 16 15.875 15.75 16 q 0.25,0 0.5,0 h 0.25 -0.375"
       id="path8706" />
    <path
       style="fill:#d86c1c;fill-opacity:1"
       d="M 17,22.5 V 22 h 0.5 0.5 l 0.125,0.375 Q 18.25,22.75 18.5,23 18.75,23.25 18.875,23.625 19,24 19.125,24.375 19.25,24.75 19.5,25 q 0.25,0.25 0.25,0.5 0,0.25 -0.25,0.5 -0.25,0.25 -0.25,0.5 0,0.25 0.375,0.375 L 20,27 19.71875,26.90625 19.4375,26.8125 19.625,26.875 q 0.1875,0.0625 0.40625,0.09375 L 20.25,27 20.140625,26.984375 20.03125,26.96875 20,27.5 l -0.03125,0.53125 0.109375,0.01563 0.109375,0.01563 -0.21875,-0.03125 Q 19.75,28 19.5,28 H 19.25 19.625 20 19.5 q -0.5,0 -1,0 H 18 v -0.5 q 0,-0.5 0,-1 V 26 l 0.375,-0.125 Q 18.75,25.75 18.75,25.5 18.75,25.25 18.375,25.125 18,25 17.5,25 H 17 V 24.5 24 l 0.375,-0.125 Q 17.75,23.75 17.75,23.5 q 0,-0.25 -0.375,-0.375 L 17,23 V 22.5 M 16.875,25 H 17 17.375 17.75 17.5 q -0.25,0 -0.5,0 h -0.25 0.125 m 1.25,-3 H 18 17.625 17.25 17.5 q 0.25,0 0.5,0 h 0.25 -0.125"
       id="path8708" />
    <path
       style="fill:#f4a01c;fill-opacity:1"
       d="M 18.125,22.375 18,22 h 0.5 q 0.5,0 1,0 0.5,0 0.96875,0 H 20.9375 V 21.90625 21.8125 22 q 0,0.1875 -0.0625,0.375 L 20.8125,22.5625 20.90625,22.28125 21,22 20.875,22.375 Q 20.75,22.75 20.5,23 q -0.25,0.25 -0.375,0.625 -0.125,0.375 0,0.75 0.125,0.375 0.5,0.5 L 21,25 v 0.5 q 0,0.5 0,1 V 27 26.625 26.25 26.5 q 0,0.25 0.03125,0.46875 l 0.03125,0.21875 -0.01563,-0.109375 -0.01563,-0.109375 -0.515625,0.01563 Q 20,27 19.625,26.875 19.25,26.75 19.25,26.5 q 0,-0.25 0.25,-0.5 0.25,-0.25 0.25,-0.5 0,-0.25 -0.25,-0.5 Q 19.25,24.75 19.125,24.375 19,24 18.875,23.625 18.75,23.25 18.5,23 18.25,22.75 18.125,22.375 m 2.875,3 V 25 24.875 24.75 25 q 0,0.25 0,0.5 v 0.25 -0.375 M 18.375,22 H 18 17.875 17.75 18 q 0.25,0 0.5,0 h 0.25 -0.375"
       id="path8710" />
    <path
       style="fill:#5f221a;fill-opacity:1"
       d="m 14.125,23.625 q 0.125,-0.375 0.5,-0.5 Q 15,23 15.5,23 q 0.5,0 1,0 H 17 v 0.5 0.5 h -0.5 q -0.5,0 -1,0 -0.5,0 -0.984375,0.01563 L 14.03125,24.03125 14.015625,24.140625 14,24.25 14.03125,24.03125 Q 14.0625,23.8125 14.125,23.625 L 14.1875,23.4375 14.09375,23.71875 14,24 14.125,23.625"
       id="path8712" />
    <path
       style="fill:#7e2b20;fill-opacity:1"
       d="M 17,23.5 V 23 l 0.375,0.125 q 0.375,0.125 0.375,0.375 0,0.25 -0.375,0.375 L 17,24 v -0.5"
       id="path8714" />
    <path
       style="fill:#f4a01c;fill-opacity:1"
       d="M 21.171875,23.671875 Q 21.25,23.25 21.609375,23.109375 L 21.96875,22.96875 21.984375,22.859375 22,22.75 21.96875,22.96875 Q 21.9375,23.1875 21.875,23.375 L 21.8125,23.5625 21.90625,23.28125 22,23 21.875,23.375 q -0.125,0.375 -0.5,0.5 L 21,24 21.28125,23.90625 21.5625,23.8125 21.375,23.875 q -0.1875,0.0625 -0.28125,0.21875 L 21,24.25 l 0.04687,-0.07813 0.04687,-0.07813 0.07813,-0.421875"
       id="path8716" />
    <path
       style="fill:#7e2b20;fill-opacity:1"
       d="M 14,24.5 V 24 24.375 24.75 24.5 q 0,-0.25 0.03125,-0.46875 l 0.03125,-0.21875 -0.01563,0.109375 -0.01563,0.109375 0.484375,-0.01563 L 15,24 l 0.125,0.375 q 0.125,0.375 0.5,0.5 Q 16,25 16.5,25 q 0.5,0 1,0 H 18 17.625 17.25 17.5 q 0.25,0 0.46875,0.03125 l 0.21875,0.03125 -0.109375,-0.01563 -0.109375,-0.01563 0.01563,0.484375 L 18,26 h -0.5 q -0.5,0 -1,0 -0.5,0 -0.875,0.125 -0.375,0.125 -0.5,0.5 L 15,27 H 14.5 14 V 26.5 26 l 0.375,-0.125 Q 14.75,25.75 14.75,25.5 q 0,-0.25 -0.375,-0.375 L 14,25 v -0.5 m 0,0.125 V 25 25.125 25.25 25 q 0,-0.25 0,-0.5 v -0.25 0.375 m 0,1.25 V 26 26.375 26.75 26.5 q 0,-0.25 0,-0.5 v -0.25 0.125 m 0,0.75 V 27 27.125 27.25 27 q 0,-0.25 0,-0.5 v -0.25 0.375 M 14.625,27 H 15 15.125 15.25 15 q -0.25,0 -0.5,0 h -0.25 0.375 m 0.5,-3 H 15 14.625 14.25 14.5 q 0.25,0 0.5,0 h 0.25 -0.125"
       id="path8718" />
    <path
       style="fill:#c23d36;fill-opacity:1"
       d="M 15.125,24.375 15,24 h 0.5 q 0.5,0 1,0 H 17 v 0.5 0.5 h -0.5 q -0.5,0 -0.875,-0.125 -0.375,-0.125 -0.5,-0.5 M 16.625,25 H 17 17.125 17.25 17 q -0.25,0 -0.5,0 h -0.25 0.375 m -1.25,-1 H 15 14.875 14.75 15 q 0.25,0 0.5,0 h 0.25 -0.375"
       id="path8720" />
    <path
       style="fill:#5f221a;fill-opacity:1"
       d="M 14,25.5 V 25 l 0.375,0.125 q 0.375,0.125 0.375,0.375 0,0.25 -0.375,0.375 L 14,26 v -0.5 m 0,0.125 V 26 26.125 26.25 26 q 0,-0.25 0,-0.5 v -0.25 0.375 m 0,-0.75 V 25 25.375 25.75 25.5 q 0,-0.25 0,-0.5 v -0.25 0.125"
       id="path8722" />
    <path
       style="fill:#c23d36;fill-opacity:1"
       d="M 17.984375,25.515625 17.96875,25.03125 17.859375,25.015625 17.75,25 17.96875,25.03125 Q 18.1875,25.0625 18.375,25.125 L 18.5625,25.1875 18.28125,25.09375 18,25 l 0.375,0.125 q 0.375,0.125 0.375,0.375 0,0.25 -0.375,0.375 L 18,26 17.984375,25.515625"
       id="path8724" />
    <path
       style="fill:#c23d36;fill-opacity:1"
       d="m 15.125,26.625 q 0.125,-0.375 0.5,-0.5 L 16,26 15.71875,26.09375 15.4375,26.1875 15.625,26.125 q 0.1875,-0.0625 0.40625,-0.09375 L 16.25,26 16.140625,26.015625 16.03125,26.03125 16.015625,26.515625 16,27 H 15.5 15 l 0.125,-0.375 M 14.875,27 H 15 15.375 15.75 15.5 q -0.25,0 -0.5,0 h -0.25 0.125 m 0.75,0 H 16 16.125 16.25 16 q -0.25,0 -0.5,0 h -0.25 0.375"
       id="path8726" />
    <path
       style="fill:#d86c1c;fill-opacity:1"
       d="m 16.015625,26.515625 0.01563,-0.484375 -0.109375,0.01563 -0.109375,0.01563 0.21875,-0.03125 Q 16.25,26 16.5,26 H 16.75 16.375 16 16.5 17 V 26.5 27 H 16.5 16 l 0.01563,-0.484375 M 15.875,27 H 16 16.375 16.75 16.5 q -0.25,0 -0.5,0 h -0.25 0.125 m 1.25,-1 H 17 16.625 16.25 16.5 q 0.25,0 0.5,0 h 0.25 -0.125"
       id="path8728" />
    <path
       style="fill:#f4a01c;fill-opacity:1"
       d="M 17,26.5 V 26 H 17.5 18 V 26.5 27 H 17.5 17 v -0.5 m 1,0.625 V 27 26.625 26.25 26.5 q 0,0.25 0,0.5 v 0.25 -0.125 M 17.375,26 H 17 16.875 16.75 17 q 0.25,0 0.5,0 h 0.25 -0.375"
       id="path8730" />
    <path
       style="fill:#5f221a;fill-opacity:1"
       d="M 14,27.5 V 27 h 0.5 q 0.5,0 1,0 0.5,0 1,0 H 17 v 0.5 0.5 h -0.5 q -0.5,0 -1,0 -0.5,0 -1,0 H 14 v -0.5 m 0,0.125 V 28 28.125 28.25 28 q 0,-0.25 0,-0.5 v -0.25 0.375 m 0,-0.75 V 27 27.375 27.75 27.5 q 0,-0.25 0,-0.5 v -0.25 0.125"
       id="path8732" />
    <path
       style="fill:#7e2b20;fill-opacity:1"
       d="M 17,27.5 V 27 H 17.5 18 V 27.5 28 H 17.5 17 v -0.5 m 1,-0.125 V 27 26.875 26.75 27 q 0,0.25 0,0.5 v 0.25 -0.375"
       id="path8734" />
    <path
       style="fill:#fdca16;fill-opacity:1"
       d="m 20,27.5 0.03125,-0.53125 -0.109375,-0.01563 -0.109375,-0.01563 0.21875,0.03125 Q 20.25,27 20.5,27 H 20.75 20.375 20 l 0.515625,-0.01563 0.515625,-0.01563 -0.01563,-0.109375 L 21,26.75 21.03125,26.96875 Q 21.0625,27.1875 21.125,27.375 L 21.1875,27.5625 21.09375,27.28125 21,27 21.125,27.375 Q 21.25,27.75 21.5,28 q 0.25,0.25 0.375,0.625 0.125,0.375 0,0.75 -0.125,0.375 -0.5,0.5 Q 21,30 20.5,30 H 20 20.375 20.75 20.5 q -0.25,0 -0.40625,0.09375 l -0.15625,0.09375 0.07813,-0.04687 0.07813,-0.04687 0.07813,-0.421875 Q 20.25,29.25 20.5,29 q 0.25,-0.25 0.25,-0.5 0,-0.25 -0.375,-0.375 L 20,28 20.28125,28.09375 20.5625,28.1875 20.375,28.125 Q 20.1875,28.0625 19.96875,28.03125 L 19.75,28 19.859375,28.015625 19.96875,28.03125 20,27.5"
       id="path8736" />
    <path
       style="fill:#7e2b20;fill-opacity:1"
       d="M 14,28.5 V 28 h 0.5 0.5 l -0.125,0.375 q -0.125,0.375 -0.484375,0.484375 l -0.359375,0.109375 0.01563,0.109375 0.01563,0.109375 -0.03125,-0.21875 Q 14,28.75 14,28.5 V 28.25 28.625 29 28.5 M 15.125,28 H 15 14.625 14.25 14.5 q 0.25,0 0.5,0 h 0.25 -0.125 M 14,27.875 V 28 28.375 28.75 28.5 q 0,-0.25 0,-0.5 v -0.25 0.125"
       id="path8738" />
    <path
       style="fill:#962723;fill-opacity:1"
       d="M 14.875,28.375 15,28 h 0.5 q 0.5,0 1,0 H 17 l 0.125,0.375 Q 17.25,28.75 17.5,29 q 0.25,0.25 0.359375,0.609375 l 0.109375,0.359375 0.109375,-0.01563 0.109375,-0.01563 -0.21875,0.03125 Q 17.75,30 17.5,30 H 17.25 17.625 18 17.5 q -0.5,0 -1,0 -0.5,0 -1,0 -0.5,0 -0.875,-0.125 -0.375,-0.125 -0.5,-0.5 L 14,29 14.09375,29.28125 14.1875,29.5625 14.125,29.375 Q 14.0625,29.1875 14.03125,28.96875 L 14,28.75 l 0.01563,0.109375 0.01563,0.109375 0.359375,-0.109375 Q 14.75,28.75 14.875,28.375 M 15.375,28 H 15 14.875 14.75 15 q 0.25,0 0.5,0 h 0.25 -0.375"
       id="path8740" />
    <path
       style="fill:#d25d21;fill-opacity:1"
       d="M 17.125,28.375 17,28 h 0.5 0.5 l 0.125,0.375 q 0.125,0.375 0.484375,0.484375 L 18.96875,28.96875 18.984375,28.859375 19,28.75 18.96875,28.96875 Q 18.9375,29.1875 18.875,29.375 L 18.8125,29.5625 18.90625,29.28125 19,29 18.875,29.375 q -0.125,0.375 -0.5,0.5 L 18,30 18.28125,29.90625 18.5625,29.8125 18.375,29.875 q -0.1875,0.0625 -0.40625,0.09375 L 17.75,30 17.859375,29.984375 17.96875,29.96875 17.859375,29.609375 Q 17.75,29.25 17.5,29 17.25,28.75 17.125,28.375"
       id="path8742" />
    <path
       style="fill:#fdca16;fill-opacity:1"
       d="M 18.125,28.375 18,28 H 18.5 19 V 28.5 29 28.625 28.25 28.5 q 0,0.25 -0.03125,0.46875 l -0.03125,0.21875 0.01563,-0.109375 0.01563,-0.109375 -0.359375,-0.109375 Q 18.25,28.75 18.125,28.375 m 1,-0.375 H 19 18.625 18.25 18.5 q 0.25,0 0.5,0 h 0.25 -0.125"
       id="path8744" />
    <path
       style="fill:#ed8f22;fill-opacity:1"
       d="M 19,28.5 V 28 h 0.5 q 0.5,0 0.875,0.125 0.375,0.125 0.375,0.375 0,0.25 -0.25,0.5 -0.25,0.25 -0.328125,0.671875 l -0.07813,0.421875 0.07813,-0.04687 L 20.25,30 20.09375,30.09375 Q 19.9375,30.1875 19.875,30.375 L 19.8125,30.5625 19.90625,30.28125 20,30 19.875,30.375 q -0.125,0.375 -0.5,0.5 Q 19,31 18.5,31 18,31 17.625,30.875 17.25,30.75 17.125,30.375 L 17,30 h 0.5 q 0.5,0 0.875,-0.125 0.375,-0.125 0.5,-0.5 Q 19,29 19,28.5 M 17.375,30 H 17 16.875 16.75 17 q 0.25,0 0.5,0 h 0.25 -0.375 m 2,-2 H 19 18.875 18.75 19 q 0.25,0 0.5,0 h 0.25 -0.375"
       id="path8746" />
  </g>
</svg>
